<?xml version="1.0" encoding="utf-8"?>
<svg xmlns="http://www.w3.org/2000/svg" xmlns:xlink="http://www.w3.org/1999/xlink" width="600" height="400" viewBox="0 0 2400 1600">
<defs>
  <clipPath id="clip910">
    <rect x="0" y="0" width="2400" height="1600"/>
  </clipPath>
</defs>
<path clip-path="url(#clip910)" d="M0 1600 L2400 1600 L2400 0 L0 0  Z" fill="#ffffff" fill-rule="evenodd" fill-opacity="1"/>
<defs>
  <clipPath id="clip911">
    <rect x="480" y="0" width="1681" height="1600"/>
  </clipPath>
</defs>
<path clip-path="url(#clip910)" d="M370.509 1423.18 L2352.76 1423.18 L2352.76 47.2441 L370.509 47.2441  Z" fill="#ffffff" fill-rule="evenodd" fill-opacity="1"/>
<defs>
  <clipPath id="clip912">
    <rect x="370" y="47" width="1983" height="1377"/>
  </clipPath>
</defs>
<polyline clip-path="url(#clip912)" style="stroke:#000000; stroke-linecap:round; stroke-linejoin:round; stroke-width:2; stroke-opacity:0.1; fill:none" points="426.607,1423.18 426.607,47.2441 "/>
<polyline clip-path="url(#clip912)" style="stroke:#000000; stroke-linecap:round; stroke-linejoin:round; stroke-width:2; stroke-opacity:0.1; fill:none" points="800.616,1423.18 800.616,47.2441 "/>
<polyline clip-path="url(#clip912)" style="stroke:#000000; stroke-linecap:round; stroke-linejoin:round; stroke-width:2; stroke-opacity:0.1; fill:none" points="1174.63,1423.18 1174.63,47.2441 "/>
<polyline clip-path="url(#clip912)" style="stroke:#000000; stroke-linecap:round; stroke-linejoin:round; stroke-width:2; stroke-opacity:0.1; fill:none" points="1548.64,1423.18 1548.64,47.2441 "/>
<polyline clip-path="url(#clip912)" style="stroke:#000000; stroke-linecap:round; stroke-linejoin:round; stroke-width:2; stroke-opacity:0.1; fill:none" points="1922.65,1423.18 1922.65,47.2441 "/>
<polyline clip-path="url(#clip912)" style="stroke:#000000; stroke-linecap:round; stroke-linejoin:round; stroke-width:2; stroke-opacity:0.1; fill:none" points="2296.65,1423.18 2296.65,47.2441 "/>
<polyline clip-path="url(#clip910)" style="stroke:#000000; stroke-linecap:round; stroke-linejoin:round; stroke-width:4; stroke-opacity:1; fill:none" points="370.509,1423.18 2352.76,1423.18 "/>
<polyline clip-path="url(#clip910)" style="stroke:#000000; stroke-linecap:round; stroke-linejoin:round; stroke-width:4; stroke-opacity:1; fill:none" points="426.607,1423.18 426.607,1404.28 "/>
<polyline clip-path="url(#clip910)" style="stroke:#000000; stroke-linecap:round; stroke-linejoin:round; stroke-width:4; stroke-opacity:1; fill:none" points="800.616,1423.18 800.616,1404.28 "/>
<polyline clip-path="url(#clip910)" style="stroke:#000000; stroke-linecap:round; stroke-linejoin:round; stroke-width:4; stroke-opacity:1; fill:none" points="1174.63,1423.18 1174.63,1404.28 "/>
<polyline clip-path="url(#clip910)" style="stroke:#000000; stroke-linecap:round; stroke-linejoin:round; stroke-width:4; stroke-opacity:1; fill:none" points="1548.64,1423.18 1548.64,1404.28 "/>
<polyline clip-path="url(#clip910)" style="stroke:#000000; stroke-linecap:round; stroke-linejoin:round; stroke-width:4; stroke-opacity:1; fill:none" points="1922.65,1423.18 1922.65,1404.28 "/>
<polyline clip-path="url(#clip910)" style="stroke:#000000; stroke-linecap:round; stroke-linejoin:round; stroke-width:4; stroke-opacity:1; fill:none" points="2296.65,1423.18 2296.65,1404.28 "/>
<path clip-path="url(#clip910)" d="M426.607 1454.1 Q422.996 1454.1 421.167 1457.66 Q419.362 1461.2 419.362 1468.33 Q419.362 1475.44 421.167 1479.01 Q422.996 1482.55 426.607 1482.55 Q430.241 1482.55 432.047 1479.01 Q433.875 1475.44 433.875 1468.33 Q433.875 1461.2 432.047 1457.66 Q430.241 1454.1 426.607 1454.1 M426.607 1450.39 Q432.417 1450.39 435.473 1455 Q438.551 1459.58 438.551 1468.33 Q438.551 1477.06 435.473 1481.67 Q432.417 1486.25 426.607 1486.25 Q420.797 1486.25 417.718 1481.67 Q414.662 1477.06 414.662 1468.33 Q414.662 1459.58 417.718 1455 Q420.797 1450.39 426.607 1450.39 Z" fill="#000000" fill-rule="nonzero" fill-opacity="1" /><path clip-path="url(#clip910)" d="M790.998 1481.64 L798.637 1481.64 L798.637 1455.28 L790.327 1456.95 L790.327 1452.69 L798.591 1451.02 L803.267 1451.02 L803.267 1481.64 L810.906 1481.64 L810.906 1485.58 L790.998 1485.58 L790.998 1481.64 Z" fill="#000000" fill-rule="nonzero" fill-opacity="1" /><path clip-path="url(#clip910)" d="M1169.28 1481.64 L1185.6 1481.64 L1185.6 1485.58 L1163.65 1485.58 L1163.65 1481.64 Q1166.32 1478.89 1170.9 1474.26 Q1175.51 1469.61 1176.69 1468.27 Q1178.93 1465.74 1179.81 1464.01 Q1180.71 1462.25 1180.71 1460.56 Q1180.71 1457.8 1178.77 1456.07 Q1176.85 1454.33 1173.75 1454.33 Q1171.55 1454.33 1169.09 1455.09 Q1166.66 1455.86 1163.89 1457.41 L1163.89 1452.69 Q1166.71 1451.55 1169.16 1450.97 Q1171.62 1450.39 1173.65 1450.39 Q1179.02 1450.39 1182.22 1453.08 Q1185.41 1455.77 1185.41 1460.26 Q1185.41 1462.39 1184.6 1464.31 Q1183.82 1466.2 1181.71 1468.8 Q1181.13 1469.47 1178.03 1472.69 Q1174.93 1475.88 1169.28 1481.64 Z" fill="#000000" fill-rule="nonzero" fill-opacity="1" /><path clip-path="url(#clip910)" d="M1552.88 1466.95 Q1556.24 1467.66 1558.11 1469.93 Q1560.01 1472.2 1560.01 1475.53 Q1560.01 1480.65 1556.49 1483.45 Q1552.98 1486.25 1546.49 1486.25 Q1544.32 1486.25 1542 1485.81 Q1539.71 1485.39 1537.26 1484.54 L1537.26 1480.02 Q1539.2 1481.16 1541.52 1481.74 Q1543.83 1482.32 1546.36 1482.32 Q1550.75 1482.32 1553.05 1480.58 Q1555.36 1478.84 1555.36 1475.53 Q1555.36 1472.48 1553.21 1470.77 Q1551.08 1469.03 1547.26 1469.03 L1543.23 1469.03 L1543.23 1465.19 L1547.44 1465.19 Q1550.89 1465.19 1552.72 1463.82 Q1554.55 1462.43 1554.55 1459.84 Q1554.55 1457.18 1552.65 1455.77 Q1550.78 1454.33 1547.26 1454.33 Q1545.34 1454.33 1543.14 1454.75 Q1540.94 1455.16 1538.3 1456.04 L1538.3 1451.88 Q1540.96 1451.14 1543.28 1450.77 Q1545.61 1450.39 1547.67 1450.39 Q1553 1450.39 1556.1 1452.83 Q1559.2 1455.23 1559.2 1459.35 Q1559.2 1462.22 1557.56 1464.21 Q1555.92 1466.18 1552.88 1466.95 Z" fill="#000000" fill-rule="nonzero" fill-opacity="1" /><path clip-path="url(#clip910)" d="M1925.65 1455.09 L1913.85 1473.54 L1925.65 1473.54 L1925.65 1455.09 M1924.43 1451.02 L1930.31 1451.02 L1930.31 1473.54 L1935.24 1473.54 L1935.24 1477.43 L1930.31 1477.43 L1930.31 1485.58 L1925.65 1485.58 L1925.65 1477.43 L1910.05 1477.43 L1910.05 1472.92 L1924.43 1451.02 Z" fill="#000000" fill-rule="nonzero" fill-opacity="1" /><path clip-path="url(#clip910)" d="M2286.93 1451.02 L2305.29 1451.02 L2305.29 1454.96 L2291.21 1454.96 L2291.21 1463.43 Q2292.23 1463.08 2293.25 1462.92 Q2294.27 1462.73 2295.29 1462.73 Q2301.08 1462.73 2304.46 1465.9 Q2307.84 1469.08 2307.84 1474.49 Q2307.84 1480.07 2304.36 1483.17 Q2300.89 1486.25 2294.57 1486.25 Q2292.4 1486.25 2290.13 1485.88 Q2287.88 1485.51 2285.47 1484.77 L2285.47 1480.07 Q2287.56 1481.2 2289.78 1481.76 Q2292 1482.32 2294.48 1482.32 Q2298.48 1482.32 2300.82 1480.21 Q2303.16 1478.1 2303.16 1474.49 Q2303.16 1470.88 2300.82 1468.77 Q2298.48 1466.67 2294.48 1466.67 Q2292.6 1466.67 2290.73 1467.08 Q2288.88 1467.5 2286.93 1468.38 L2286.93 1451.02 Z" fill="#000000" fill-rule="nonzero" fill-opacity="1" /><path clip-path="url(#clip910)" d="M1051.4 1550.25 Q1051.4 1556.71 1054.04 1560.4 Q1056.72 1564.07 1061.36 1564.07 Q1066.01 1564.07 1068.68 1560.4 Q1071.36 1556.71 1071.36 1550.25 Q1071.36 1543.79 1068.68 1540.13 Q1066.01 1536.44 1061.36 1536.44 Q1056.72 1536.44 1054.04 1540.13 Q1051.4 1543.79 1051.4 1550.25 M1071.36 1562.7 Q1069.51 1565.88 1066.68 1567.44 Q1063.88 1568.97 1059.93 1568.97 Q1053.47 1568.97 1049.39 1563.81 Q1045.35 1558.65 1045.35 1550.25 Q1045.35 1541.85 1049.39 1536.69 Q1053.47 1531.54 1059.93 1531.54 Q1063.88 1531.54 1066.68 1533.1 Q1069.51 1534.62 1071.36 1537.81 L1071.36 1532.4 L1077.21 1532.4 L1077.21 1581.6 L1071.36 1581.6 L1071.36 1562.7 Z" fill="#000000" fill-rule="nonzero" fill-opacity="1" /><path clip-path="url(#clip910)" d="M1116.36 1578.87 L1116.36 1583.42 L1082.5 1583.42 L1082.5 1578.87 L1116.36 1578.87 Z" fill="#000000" fill-rule="nonzero" fill-opacity="1" /><path clip-path="url(#clip910)" d="M1121.87 1518.52 L1127.72 1518.52 L1127.72 1568.04 L1121.87 1568.04 L1121.87 1518.52 Z" fill="#000000" fill-rule="nonzero" fill-opacity="1" /><path clip-path="url(#clip910)" d="M1139.98 1532.4 L1145.84 1532.4 L1145.84 1568.04 L1139.98 1568.04 L1139.98 1532.4 M1139.98 1518.52 L1145.84 1518.52 L1145.84 1525.93 L1139.98 1525.93 L1139.98 1518.52 Z" fill="#000000" fill-rule="nonzero" fill-opacity="1" /><path clip-path="url(#clip910)" d="M1161.59 1550.25 Q1161.59 1556.71 1164.23 1560.4 Q1166.91 1564.07 1171.55 1564.07 Q1176.2 1564.07 1178.87 1560.4 Q1181.55 1556.71 1181.55 1550.25 Q1181.55 1543.79 1178.87 1540.13 Q1176.2 1536.44 1171.55 1536.44 Q1166.91 1536.44 1164.23 1540.13 Q1161.59 1543.79 1161.59 1550.25 M1181.55 1562.7 Q1179.7 1565.88 1176.87 1567.44 Q1174.07 1568.97 1170.12 1568.97 Q1163.66 1568.97 1159.59 1563.81 Q1155.54 1558.65 1155.54 1550.25 Q1155.54 1541.85 1159.59 1536.69 Q1163.66 1531.54 1170.12 1531.54 Q1174.07 1531.54 1176.87 1533.1 Q1179.7 1534.62 1181.55 1537.81 L1181.55 1532.4 L1187.4 1532.4 L1187.4 1581.6 L1181.55 1581.6 L1181.55 1562.7 Z" fill="#000000" fill-rule="nonzero" fill-opacity="1" /><path clip-path="url(#clip910)" d="M1234 1536.5 Q1229.29 1536.5 1226.55 1540.19 Q1223.82 1543.85 1223.82 1550.25 Q1223.82 1556.65 1226.52 1560.34 Q1229.26 1564 1234 1564 Q1238.68 1564 1241.42 1560.31 Q1244.15 1556.62 1244.15 1550.25 Q1244.15 1543.92 1241.42 1540.23 Q1238.68 1536.5 1234 1536.5 M1234 1531.54 Q1241.64 1531.54 1246 1536.5 Q1250.36 1541.47 1250.36 1550.25 Q1250.36 1559 1246 1564 Q1241.64 1568.97 1234 1568.97 Q1226.33 1568.97 1221.97 1564 Q1217.64 1559 1217.64 1550.25 Q1217.64 1541.47 1221.97 1536.5 Q1226.33 1531.54 1234 1531.54 Z" fill="#000000" fill-rule="nonzero" fill-opacity="1" /><path clip-path="url(#clip910)" d="M1280.72 1537.87 Q1279.74 1537.3 1278.56 1537.04 Q1277.41 1536.76 1276.01 1536.76 Q1271.05 1536.76 1268.37 1540 Q1265.73 1543.22 1265.73 1549.27 L1265.73 1568.04 L1259.84 1568.04 L1259.84 1532.4 L1265.73 1532.4 L1265.73 1537.93 Q1267.58 1534.69 1270.54 1533.13 Q1273.5 1531.54 1277.73 1531.54 Q1278.34 1531.54 1279.07 1531.63 Q1279.8 1531.7 1280.69 1531.85 L1280.72 1537.87 Z" fill="#000000" fill-rule="nonzero" fill-opacity="1" /><path clip-path="url(#clip910)" d="M1311.09 1550.25 Q1311.09 1556.71 1313.73 1560.4 Q1316.4 1564.07 1321.05 1564.07 Q1325.7 1564.07 1328.37 1560.4 Q1331.05 1556.71 1331.05 1550.25 Q1331.05 1543.79 1328.37 1540.13 Q1325.7 1536.44 1321.05 1536.44 Q1316.4 1536.44 1313.73 1540.13 Q1311.09 1543.79 1311.09 1550.25 M1331.05 1562.7 Q1329.2 1565.88 1326.37 1567.44 Q1323.57 1568.97 1319.62 1568.97 Q1313.16 1568.97 1309.08 1563.81 Q1305.04 1558.65 1305.04 1550.25 Q1305.04 1541.85 1309.08 1536.69 Q1313.16 1531.54 1319.62 1531.54 Q1323.57 1531.54 1326.37 1533.1 Q1329.2 1534.62 1331.05 1537.81 L1331.05 1532.4 L1336.9 1532.4 L1336.9 1581.6 L1331.05 1581.6 L1331.05 1562.7 Z" fill="#000000" fill-rule="nonzero" fill-opacity="1" /><path clip-path="url(#clip910)" d="M1376.05 1578.87 L1376.05 1583.42 L1342.19 1583.42 L1342.19 1578.87 L1376.05 1578.87 Z" fill="#000000" fill-rule="nonzero" fill-opacity="1" /><path clip-path="url(#clip910)" d="M1381.56 1532.4 L1387.41 1532.4 L1387.41 1568.04 L1381.56 1568.04 L1381.56 1532.4 M1381.56 1518.52 L1387.41 1518.52 L1387.41 1525.93 L1381.56 1525.93 L1381.56 1518.52 Z" fill="#000000" fill-rule="nonzero" fill-opacity="1" /><path clip-path="url(#clip910)" d="M1425.32 1533.76 L1425.32 1539.24 Q1422.84 1537.87 1420.32 1537.2 Q1417.84 1536.5 1415.3 1536.5 Q1409.6 1536.5 1406.45 1540.13 Q1403.3 1543.73 1403.3 1550.25 Q1403.3 1556.78 1406.45 1560.4 Q1409.6 1564 1415.3 1564 Q1417.84 1564 1420.32 1563.33 Q1422.84 1562.63 1425.32 1561.26 L1425.32 1566.68 Q1422.87 1567.82 1420.23 1568.39 Q1417.62 1568.97 1414.66 1568.97 Q1406.61 1568.97 1401.86 1563.91 Q1397.12 1558.85 1397.12 1550.25 Q1397.12 1541.53 1401.9 1536.53 Q1406.7 1531.54 1415.04 1531.54 Q1417.75 1531.54 1420.32 1532.11 Q1422.9 1532.65 1425.32 1533.76 Z" fill="#000000" fill-rule="nonzero" fill-opacity="1" /><path clip-path="url(#clip910)" d="M1466 1548.76 L1466 1551.62 L1439.07 1551.62 Q1439.45 1557.67 1442.7 1560.85 Q1445.98 1564 1451.8 1564 Q1455.18 1564 1458.33 1563.17 Q1461.51 1562.35 1464.63 1560.69 L1464.63 1566.23 Q1461.48 1567.57 1458.17 1568.27 Q1454.86 1568.97 1451.45 1568.97 Q1442.92 1568.97 1437.93 1564 Q1432.96 1559.04 1432.96 1550.57 Q1432.96 1541.82 1437.67 1536.69 Q1442.41 1531.54 1450.43 1531.54 Q1457.63 1531.54 1461.8 1536.18 Q1466 1540.8 1466 1548.76 M1460.14 1547.04 Q1460.08 1542.23 1457.44 1539.37 Q1454.83 1536.5 1450.5 1536.5 Q1445.6 1536.5 1442.64 1539.27 Q1439.71 1542.04 1439.26 1547.07 L1460.14 1547.04 Z" fill="#000000" fill-rule="nonzero" fill-opacity="1" /><path clip-path="url(#clip910)" d="M1495.79 1518.52 L1509.29 1518.52 L1509.29 1523.07 L1501.65 1523.07 L1501.65 1572.09 L1509.29 1572.09 L1509.29 1576.64 L1495.79 1576.64 L1495.79 1518.52 Z" fill="#000000" fill-rule="nonzero" fill-opacity="1" /><path clip-path="url(#clip910)" d="M1545.22 1549.81 Q1545.22 1543.44 1542.58 1539.94 Q1539.97 1536.44 1535.23 1536.44 Q1530.51 1536.44 1527.87 1539.94 Q1525.26 1543.44 1525.26 1549.81 Q1525.26 1556.14 1527.87 1559.64 Q1530.51 1563.14 1535.23 1563.14 Q1539.97 1563.14 1542.58 1559.64 Q1545.22 1556.14 1545.22 1549.81 M1551.08 1563.62 Q1551.08 1572.72 1547.03 1577.15 Q1542.99 1581.6 1534.65 1581.6 Q1531.57 1581.6 1528.83 1581.13 Q1526.09 1580.68 1523.51 1579.72 L1523.51 1574.03 Q1526.09 1575.43 1528.61 1576.1 Q1531.12 1576.76 1533.73 1576.76 Q1539.49 1576.76 1542.35 1573.74 Q1545.22 1570.75 1545.22 1564.67 L1545.22 1561.77 Q1543.41 1564.92 1540.57 1566.48 Q1537.74 1568.04 1533.79 1568.04 Q1527.24 1568.04 1523.23 1563.05 Q1519.22 1558.05 1519.22 1549.81 Q1519.22 1541.53 1523.23 1536.53 Q1527.24 1531.54 1533.79 1531.54 Q1537.74 1531.54 1540.57 1533.1 Q1543.41 1534.66 1545.22 1537.81 L1545.22 1532.4 L1551.08 1532.4 L1551.08 1563.62 Z" fill="#000000" fill-rule="nonzero" fill-opacity="1" /><path clip-path="url(#clip910)" d="M1573.55 1520.52 L1578.96 1520.52 L1562.41 1574.09 L1557 1574.09 L1573.55 1520.52 Z" fill="#000000" fill-rule="nonzero" fill-opacity="1" /><path clip-path="url(#clip910)" d="M1584.88 1518.52 L1590.77 1518.52 L1590.77 1547.77 L1608.24 1532.4 L1615.72 1532.4 L1596.81 1549.07 L1616.52 1568.04 L1608.88 1568.04 L1590.77 1550.63 L1590.77 1568.04 L1584.88 1568.04 L1584.88 1518.52 Z" fill="#000000" fill-rule="nonzero" fill-opacity="1" /><path clip-path="url(#clip910)" d="M1646.31 1549.81 Q1646.31 1543.44 1643.67 1539.94 Q1641.06 1536.44 1636.31 1536.44 Q1631.6 1536.44 1628.96 1539.94 Q1626.35 1543.44 1626.35 1549.81 Q1626.35 1556.14 1628.96 1559.64 Q1631.6 1563.14 1636.31 1563.14 Q1641.06 1563.14 1643.67 1559.64 Q1646.31 1556.14 1646.31 1549.81 M1652.16 1563.62 Q1652.16 1572.72 1648.12 1577.15 Q1644.08 1581.6 1635.74 1581.6 Q1632.65 1581.6 1629.92 1581.13 Q1627.18 1580.68 1624.6 1579.72 L1624.6 1574.03 Q1627.18 1575.43 1629.69 1576.1 Q1632.21 1576.76 1634.82 1576.76 Q1640.58 1576.76 1643.44 1573.74 Q1646.31 1570.75 1646.31 1564.67 L1646.31 1561.77 Q1644.49 1564.92 1641.66 1566.48 Q1638.83 1568.04 1634.88 1568.04 Q1628.32 1568.04 1624.31 1563.05 Q1620.3 1558.05 1620.3 1549.81 Q1620.3 1541.53 1624.31 1536.53 Q1628.32 1531.54 1634.88 1531.54 Q1638.83 1531.54 1641.66 1533.1 Q1644.49 1534.66 1646.31 1537.81 L1646.31 1532.4 L1652.16 1532.4 L1652.16 1563.62 Z" fill="#000000" fill-rule="nonzero" fill-opacity="1" /><path clip-path="url(#clip910)" d="M1677.91 1518.52 L1677.91 1576.64 L1664.42 1576.64 L1664.42 1572.09 L1672.02 1572.09 L1672.02 1523.07 L1664.42 1523.07 L1664.42 1518.52 L1677.91 1518.52 Z" fill="#000000" fill-rule="nonzero" fill-opacity="1" /><polyline clip-path="url(#clip912)" style="stroke:#000000; stroke-linecap:round; stroke-linejoin:round; stroke-width:2; stroke-opacity:0.1; fill:none" points="370.509,1384.24 2352.76,1384.24 "/>
<polyline clip-path="url(#clip912)" style="stroke:#000000; stroke-linecap:round; stroke-linejoin:round; stroke-width:2; stroke-opacity:0.1; fill:none" points="370.509,1191.04 2352.76,1191.04 "/>
<polyline clip-path="url(#clip912)" style="stroke:#000000; stroke-linecap:round; stroke-linejoin:round; stroke-width:2; stroke-opacity:0.1; fill:none" points="370.509,997.85 2352.76,997.85 "/>
<polyline clip-path="url(#clip912)" style="stroke:#000000; stroke-linecap:round; stroke-linejoin:round; stroke-width:2; stroke-opacity:0.1; fill:none" points="370.509,804.656 2352.76,804.656 "/>
<polyline clip-path="url(#clip912)" style="stroke:#000000; stroke-linecap:round; stroke-linejoin:round; stroke-width:2; stroke-opacity:0.1; fill:none" points="370.509,611.461 2352.76,611.461 "/>
<polyline clip-path="url(#clip912)" style="stroke:#000000; stroke-linecap:round; stroke-linejoin:round; stroke-width:2; stroke-opacity:0.1; fill:none" points="370.509,418.267 2352.76,418.267 "/>
<polyline clip-path="url(#clip912)" style="stroke:#000000; stroke-linecap:round; stroke-linejoin:round; stroke-width:2; stroke-opacity:0.1; fill:none" points="370.509,225.073 2352.76,225.073 "/>
<polyline clip-path="url(#clip910)" style="stroke:#000000; stroke-linecap:round; stroke-linejoin:round; stroke-width:4; stroke-opacity:1; fill:none" points="370.509,1423.18 370.509,47.2441 "/>
<polyline clip-path="url(#clip910)" style="stroke:#000000; stroke-linecap:round; stroke-linejoin:round; stroke-width:4; stroke-opacity:1; fill:none" points="370.509,1384.24 389.407,1384.24 "/>
<polyline clip-path="url(#clip910)" style="stroke:#000000; stroke-linecap:round; stroke-linejoin:round; stroke-width:4; stroke-opacity:1; fill:none" points="370.509,1191.04 389.407,1191.04 "/>
<polyline clip-path="url(#clip910)" style="stroke:#000000; stroke-linecap:round; stroke-linejoin:round; stroke-width:4; stroke-opacity:1; fill:none" points="370.509,997.85 389.407,997.85 "/>
<polyline clip-path="url(#clip910)" style="stroke:#000000; stroke-linecap:round; stroke-linejoin:round; stroke-width:4; stroke-opacity:1; fill:none" points="370.509,804.656 389.407,804.656 "/>
<polyline clip-path="url(#clip910)" style="stroke:#000000; stroke-linecap:round; stroke-linejoin:round; stroke-width:4; stroke-opacity:1; fill:none" points="370.509,611.461 389.407,611.461 "/>
<polyline clip-path="url(#clip910)" style="stroke:#000000; stroke-linecap:round; stroke-linejoin:round; stroke-width:4; stroke-opacity:1; fill:none" points="370.509,418.267 389.407,418.267 "/>
<polyline clip-path="url(#clip910)" style="stroke:#000000; stroke-linecap:round; stroke-linejoin:round; stroke-width:4; stroke-opacity:1; fill:none" points="370.509,225.073 389.407,225.073 "/>
<path clip-path="url(#clip910)" d="M322.565 1370.04 Q318.954 1370.04 317.125 1373.6 Q315.32 1377.14 315.32 1384.27 Q315.32 1391.38 317.125 1394.94 Q318.954 1398.49 322.565 1398.49 Q326.199 1398.49 328.005 1394.94 Q329.833 1391.38 329.833 1384.27 Q329.833 1377.14 328.005 1373.6 Q326.199 1370.04 322.565 1370.04 M322.565 1366.33 Q328.375 1366.33 331.431 1370.94 Q334.509 1375.52 334.509 1384.27 Q334.509 1393 331.431 1397.61 Q328.375 1402.19 322.565 1402.19 Q316.755 1402.19 313.676 1397.61 Q310.621 1393 310.621 1384.27 Q310.621 1375.52 313.676 1370.94 Q316.755 1366.33 322.565 1366.33 Z" fill="#000000" fill-rule="nonzero" fill-opacity="1" /><path clip-path="url(#clip910)" d="M117.825 1210.84 L125.464 1210.84 L125.464 1184.47 L117.154 1186.14 L117.154 1181.88 L125.418 1180.21 L130.093 1180.21 L130.093 1210.84 L137.732 1210.84 L137.732 1214.77 L117.825 1214.77 L117.825 1210.84 Z" fill="#000000" fill-rule="nonzero" fill-opacity="1" /><path clip-path="url(#clip910)" d="M147.177 1208.89 L152.061 1208.89 L152.061 1214.77 L147.177 1214.77 L147.177 1208.89 Z" fill="#000000" fill-rule="nonzero" fill-opacity="1" /><path clip-path="url(#clip910)" d="M172.246 1183.29 Q168.635 1183.29 166.806 1186.86 Q165.001 1190.4 165.001 1197.53 Q165.001 1204.63 166.806 1208.2 Q168.635 1211.74 172.246 1211.74 Q175.88 1211.74 177.686 1208.2 Q179.514 1204.63 179.514 1197.53 Q179.514 1190.4 177.686 1186.86 Q175.88 1183.29 172.246 1183.29 M172.246 1179.59 Q178.056 1179.59 181.112 1184.19 Q184.19 1188.78 184.19 1197.53 Q184.19 1206.25 181.112 1210.86 Q178.056 1215.44 172.246 1215.44 Q166.436 1215.44 163.357 1210.86 Q160.302 1206.25 160.302 1197.53 Q160.302 1188.78 163.357 1184.19 Q166.436 1179.59 172.246 1179.59 Z" fill="#000000" fill-rule="nonzero" fill-opacity="1" /><path clip-path="url(#clip910)" d="M220.579 1189.31 L210 1199.93 L220.579 1210.51 L217.824 1213.31 L207.199 1202.69 L196.575 1213.31 L193.843 1210.51 L204.399 1199.93 L193.843 1189.31 L196.575 1186.51 L207.199 1197.13 L217.824 1186.51 L220.579 1189.31 Z" fill="#000000" fill-rule="nonzero" fill-opacity="1" /><path clip-path="url(#clip910)" d="M232.94 1210.84 L240.579 1210.84 L240.579 1184.47 L232.269 1186.14 L232.269 1181.88 L240.533 1180.21 L245.209 1180.21 L245.209 1210.84 L252.847 1210.84 L252.847 1214.77 L232.94 1214.77 L232.94 1210.84 Z" fill="#000000" fill-rule="nonzero" fill-opacity="1" /><path clip-path="url(#clip910)" d="M272.292 1183.29 Q268.681 1183.29 266.852 1186.86 Q265.046 1190.4 265.046 1197.53 Q265.046 1204.63 266.852 1208.2 Q268.681 1211.74 272.292 1211.74 Q275.926 1211.74 277.732 1208.2 Q279.56 1204.63 279.56 1197.53 Q279.56 1190.4 277.732 1186.86 Q275.926 1183.29 272.292 1183.29 M272.292 1179.59 Q278.102 1179.59 281.157 1184.19 Q284.236 1188.78 284.236 1197.53 Q284.236 1206.25 281.157 1210.86 Q278.102 1215.44 272.292 1215.44 Q266.482 1215.44 263.403 1210.86 Q260.347 1206.25 260.347 1197.53 Q260.347 1188.78 263.403 1184.19 Q266.482 1179.59 272.292 1179.59 Z" fill="#000000" fill-rule="nonzero" fill-opacity="1" /><path clip-path="url(#clip910)" d="M284.236 1173.69 L308.348 1173.69 L308.348 1176.89 L284.236 1176.89 L284.236 1173.69 Z" fill="#000000" fill-rule="nonzero" fill-opacity="1" /><path clip-path="url(#clip910)" d="M325.143 1171.81 Q322.585 1171.81 321.081 1173.56 Q319.595 1175.31 319.595 1178.35 Q319.595 1181.38 321.081 1183.15 Q322.585 1184.9 325.143 1184.9 Q327.701 1184.9 329.187 1183.15 Q330.691 1181.38 330.691 1178.35 Q330.691 1175.31 329.187 1173.56 Q327.701 1171.81 325.143 1171.81 M332.685 1159.9 L332.685 1163.36 Q331.256 1162.69 329.789 1162.33 Q328.34 1161.97 326.911 1161.97 Q323.149 1161.97 321.156 1164.51 Q319.181 1167.05 318.899 1172.18 Q320.008 1170.55 321.682 1169.68 Q323.356 1168.8 325.369 1168.8 Q329.6 1168.8 332.045 1171.37 Q334.509 1173.93 334.509 1178.35 Q334.509 1182.68 331.951 1185.29 Q329.394 1187.91 325.143 1187.91 Q320.272 1187.91 317.695 1184.18 Q315.118 1180.44 315.118 1173.35 Q315.118 1166.69 318.278 1162.74 Q321.438 1158.77 326.76 1158.77 Q328.19 1158.77 329.638 1159.06 Q331.105 1159.34 332.685 1159.9 Z" fill="#000000" fill-rule="nonzero" fill-opacity="1" /><path clip-path="url(#clip910)" d="M121.043 1017.64 L137.362 1017.64 L137.362 1021.58 L115.418 1021.58 L115.418 1017.64 Q118.08 1014.89 122.663 1010.26 Q127.269 1005.61 128.45 1004.26 Q130.695 1001.74 131.575 1000 Q132.478 998.244 132.478 996.554 Q132.478 993.8 130.533 992.064 Q128.612 990.328 125.51 990.328 Q123.311 990.328 120.857 991.091 Q118.427 991.855 115.649 993.406 L115.649 988.684 Q118.473 987.55 120.927 986.971 Q123.38 986.392 125.418 986.392 Q130.788 986.392 133.982 989.078 Q137.177 991.763 137.177 996.253 Q137.177 998.383 136.367 1000.3 Q135.579 1002.2 133.473 1004.8 Q132.894 1005.47 129.792 1008.68 Q126.691 1011.88 121.043 1017.64 Z" fill="#000000" fill-rule="nonzero" fill-opacity="1" /><path clip-path="url(#clip910)" d="M147.177 1015.7 L152.061 1015.7 L152.061 1021.58 L147.177 1021.58 L147.177 1015.7 Z" fill="#000000" fill-rule="nonzero" fill-opacity="1" /><path clip-path="url(#clip910)" d="M172.246 990.096 Q168.635 990.096 166.806 993.661 Q165.001 997.203 165.001 1004.33 Q165.001 1011.44 166.806 1015 Q168.635 1018.54 172.246 1018.54 Q175.88 1018.54 177.686 1015 Q179.514 1011.44 179.514 1004.33 Q179.514 997.203 177.686 993.661 Q175.88 990.096 172.246 990.096 M172.246 986.392 Q178.056 986.392 181.112 990.999 Q184.19 995.582 184.19 1004.33 Q184.19 1013.06 181.112 1017.67 Q178.056 1022.25 172.246 1022.25 Q166.436 1022.25 163.357 1017.67 Q160.302 1013.06 160.302 1004.33 Q160.302 995.582 163.357 990.999 Q166.436 986.392 172.246 986.392 Z" fill="#000000" fill-rule="nonzero" fill-opacity="1" /><path clip-path="url(#clip910)" d="M220.579 996.115 L210 1006.74 L220.579 1017.32 L217.824 1020.12 L207.199 1009.49 L196.575 1020.12 L193.843 1017.32 L204.399 1006.74 L193.843 996.115 L196.575 993.314 L207.199 1003.94 L217.824 993.314 L220.579 996.115 Z" fill="#000000" fill-rule="nonzero" fill-opacity="1" /><path clip-path="url(#clip910)" d="M232.94 1017.64 L240.579 1017.64 L240.579 991.277 L232.269 992.943 L232.269 988.684 L240.533 987.017 L245.209 987.017 L245.209 1017.64 L252.847 1017.64 L252.847 1021.58 L232.94 1021.58 L232.94 1017.64 Z" fill="#000000" fill-rule="nonzero" fill-opacity="1" /><path clip-path="url(#clip910)" d="M272.292 990.096 Q268.681 990.096 266.852 993.661 Q265.046 997.203 265.046 1004.33 Q265.046 1011.44 266.852 1015 Q268.681 1018.54 272.292 1018.54 Q275.926 1018.54 277.732 1015 Q279.56 1011.44 279.56 1004.33 Q279.56 997.203 277.732 993.661 Q275.926 990.096 272.292 990.096 M272.292 986.392 Q278.102 986.392 281.157 990.999 Q284.236 995.582 284.236 1004.33 Q284.236 1013.06 281.157 1017.67 Q278.102 1022.25 272.292 1022.25 Q266.482 1022.25 263.403 1017.67 Q260.347 1013.06 260.347 1004.33 Q260.347 995.582 263.403 990.999 Q266.482 986.392 272.292 986.392 Z" fill="#000000" fill-rule="nonzero" fill-opacity="1" /><path clip-path="url(#clip910)" d="M284.236 980.494 L308.348 980.494 L308.348 983.691 L284.236 983.691 L284.236 980.494 Z" fill="#000000" fill-rule="nonzero" fill-opacity="1" /><path clip-path="url(#clip910)" d="M325.143 978.613 Q322.585 978.613 321.081 980.362 Q319.595 982.111 319.595 985.158 Q319.595 988.186 321.081 989.954 Q322.585 991.703 325.143 991.703 Q327.701 991.703 329.187 989.954 Q330.691 988.186 330.691 985.158 Q330.691 982.111 329.187 980.362 Q327.701 978.613 325.143 978.613 M332.685 966.708 L332.685 970.168 Q331.256 969.491 329.789 969.134 Q328.34 968.776 326.911 968.776 Q323.149 968.776 321.156 971.316 Q319.181 973.855 318.899 978.989 Q320.008 977.353 321.682 976.488 Q323.356 975.604 325.369 975.604 Q329.6 975.604 332.045 978.18 Q334.509 980.738 334.509 985.158 Q334.509 989.484 331.951 992.098 Q329.394 994.712 325.143 994.712 Q320.272 994.712 317.695 990.988 Q315.118 987.246 315.118 980.155 Q315.118 973.497 318.278 969.548 Q321.438 965.579 326.76 965.579 Q328.19 965.579 329.638 965.861 Q331.105 966.143 332.685 966.708 Z" fill="#000000" fill-rule="nonzero" fill-opacity="1" /><path clip-path="url(#clip910)" d="M131.181 809.749 Q134.538 810.467 136.413 812.735 Q138.311 815.004 138.311 818.337 Q138.311 823.453 134.792 826.254 Q131.274 829.054 124.793 829.054 Q122.617 829.054 120.302 828.615 Q118.01 828.198 115.556 827.341 L115.556 822.828 Q117.501 823.962 119.816 824.541 Q122.13 825.119 124.654 825.119 Q129.052 825.119 131.343 823.383 Q133.658 821.647 133.658 818.337 Q133.658 815.281 131.505 813.568 Q129.376 811.832 125.556 811.832 L121.529 811.832 L121.529 807.99 L125.742 807.99 Q129.191 807.99 131.019 806.624 Q132.848 805.235 132.848 802.643 Q132.848 799.98 130.95 798.568 Q129.075 797.133 125.556 797.133 Q123.635 797.133 121.436 797.55 Q119.237 797.967 116.598 798.846 L116.598 794.68 Q119.26 793.939 121.575 793.568 Q123.913 793.198 125.973 793.198 Q131.297 793.198 134.399 795.629 Q137.501 798.036 137.501 802.156 Q137.501 805.027 135.857 807.017 Q134.214 808.985 131.181 809.749 Z" fill="#000000" fill-rule="nonzero" fill-opacity="1" /><path clip-path="url(#clip910)" d="M147.177 822.504 L152.061 822.504 L152.061 828.383 L147.177 828.383 L147.177 822.504 Z" fill="#000000" fill-rule="nonzero" fill-opacity="1" /><path clip-path="url(#clip910)" d="M172.246 796.902 Q168.635 796.902 166.806 800.467 Q165.001 804.008 165.001 811.138 Q165.001 818.244 166.806 821.809 Q168.635 825.351 172.246 825.351 Q175.88 825.351 177.686 821.809 Q179.514 818.244 179.514 811.138 Q179.514 804.008 177.686 800.467 Q175.88 796.902 172.246 796.902 M172.246 793.198 Q178.056 793.198 181.112 797.805 Q184.19 802.388 184.19 811.138 Q184.19 819.865 181.112 824.471 Q178.056 829.054 172.246 829.054 Q166.436 829.054 163.357 824.471 Q160.302 819.865 160.302 811.138 Q160.302 802.388 163.357 797.805 Q166.436 793.198 172.246 793.198 Z" fill="#000000" fill-rule="nonzero" fill-opacity="1" /><path clip-path="url(#clip910)" d="M220.579 802.92 L210 813.545 L220.579 824.124 L217.824 826.925 L207.199 816.3 L196.575 826.925 L193.843 824.124 L204.399 813.545 L193.843 802.92 L196.575 800.119 L207.199 810.744 L217.824 800.119 L220.579 802.92 Z" fill="#000000" fill-rule="nonzero" fill-opacity="1" /><path clip-path="url(#clip910)" d="M232.94 824.448 L240.579 824.448 L240.579 798.082 L232.269 799.749 L232.269 795.49 L240.533 793.823 L245.209 793.823 L245.209 824.448 L252.847 824.448 L252.847 828.383 L232.94 828.383 L232.94 824.448 Z" fill="#000000" fill-rule="nonzero" fill-opacity="1" /><path clip-path="url(#clip910)" d="M272.292 796.902 Q268.681 796.902 266.852 800.467 Q265.046 804.008 265.046 811.138 Q265.046 818.244 266.852 821.809 Q268.681 825.351 272.292 825.351 Q275.926 825.351 277.732 821.809 Q279.56 818.244 279.56 811.138 Q279.56 804.008 277.732 800.467 Q275.926 796.902 272.292 796.902 M272.292 793.198 Q278.102 793.198 281.157 797.805 Q284.236 802.388 284.236 811.138 Q284.236 819.865 281.157 824.471 Q278.102 829.054 272.292 829.054 Q266.482 829.054 263.403 824.471 Q260.347 819.865 260.347 811.138 Q260.347 802.388 263.403 797.805 Q266.482 793.198 272.292 793.198 Z" fill="#000000" fill-rule="nonzero" fill-opacity="1" /><path clip-path="url(#clip910)" d="M284.236 787.299 L308.348 787.299 L308.348 790.497 L284.236 790.497 L284.236 787.299 Z" fill="#000000" fill-rule="nonzero" fill-opacity="1" /><path clip-path="url(#clip910)" d="M325.143 785.419 Q322.585 785.419 321.081 787.168 Q319.595 788.917 319.595 791.964 Q319.595 794.992 321.081 796.76 Q322.585 798.509 325.143 798.509 Q327.701 798.509 329.187 796.76 Q330.691 794.992 330.691 791.964 Q330.691 788.917 329.187 787.168 Q327.701 785.419 325.143 785.419 M332.685 773.513 L332.685 776.974 Q331.256 776.297 329.789 775.94 Q328.34 775.582 326.911 775.582 Q323.149 775.582 321.156 778.121 Q319.181 780.66 318.899 785.795 Q320.008 784.159 321.682 783.293 Q323.356 782.409 325.369 782.409 Q329.6 782.409 332.045 784.986 Q334.509 787.544 334.509 791.964 Q334.509 796.29 331.951 798.904 Q329.394 801.518 325.143 801.518 Q320.272 801.518 317.695 797.794 Q315.118 794.051 315.118 786.961 Q315.118 780.303 318.278 776.353 Q321.438 772.385 326.76 772.385 Q328.19 772.385 329.638 772.667 Q331.105 772.949 332.685 773.513 Z" fill="#000000" fill-rule="nonzero" fill-opacity="1" /><path clip-path="url(#clip910)" d="M129.862 604.703 L118.056 623.152 L129.862 623.152 L129.862 604.703 M128.635 600.629 L134.515 600.629 L134.515 623.152 L139.445 623.152 L139.445 627.041 L134.515 627.041 L134.515 635.189 L129.862 635.189 L129.862 627.041 L114.26 627.041 L114.26 622.527 L128.635 600.629 Z" fill="#000000" fill-rule="nonzero" fill-opacity="1" /><path clip-path="url(#clip910)" d="M147.177 629.309 L152.061 629.309 L152.061 635.189 L147.177 635.189 L147.177 629.309 Z" fill="#000000" fill-rule="nonzero" fill-opacity="1" /><path clip-path="url(#clip910)" d="M172.246 603.708 Q168.635 603.708 166.806 607.272 Q165.001 610.814 165.001 617.944 Q165.001 625.05 166.806 628.615 Q168.635 632.156 172.246 632.156 Q175.88 632.156 177.686 628.615 Q179.514 625.05 179.514 617.944 Q179.514 610.814 177.686 607.272 Q175.88 603.708 172.246 603.708 M172.246 600.004 Q178.056 600.004 181.112 604.61 Q184.19 609.194 184.19 617.944 Q184.19 626.67 181.112 631.277 Q178.056 635.86 172.246 635.86 Q166.436 635.86 163.357 631.277 Q160.302 626.67 160.302 617.944 Q160.302 609.194 163.357 604.61 Q166.436 600.004 172.246 600.004 Z" fill="#000000" fill-rule="nonzero" fill-opacity="1" /><path clip-path="url(#clip910)" d="M220.579 609.726 L210 620.351 L220.579 630.93 L217.824 633.731 L207.199 623.106 L196.575 633.731 L193.843 630.93 L204.399 620.351 L193.843 609.726 L196.575 606.925 L207.199 617.55 L217.824 606.925 L220.579 609.726 Z" fill="#000000" fill-rule="nonzero" fill-opacity="1" /><path clip-path="url(#clip910)" d="M232.94 631.254 L240.579 631.254 L240.579 604.888 L232.269 606.555 L232.269 602.296 L240.533 600.629 L245.209 600.629 L245.209 631.254 L252.847 631.254 L252.847 635.189 L232.94 635.189 L232.94 631.254 Z" fill="#000000" fill-rule="nonzero" fill-opacity="1" /><path clip-path="url(#clip910)" d="M272.292 603.708 Q268.681 603.708 266.852 607.272 Q265.046 610.814 265.046 617.944 Q265.046 625.05 266.852 628.615 Q268.681 632.156 272.292 632.156 Q275.926 632.156 277.732 628.615 Q279.56 625.05 279.56 617.944 Q279.56 610.814 277.732 607.272 Q275.926 603.708 272.292 603.708 M272.292 600.004 Q278.102 600.004 281.157 604.61 Q284.236 609.194 284.236 617.944 Q284.236 626.67 281.157 631.277 Q278.102 635.86 272.292 635.86 Q266.482 635.86 263.403 631.277 Q260.347 626.67 260.347 617.944 Q260.347 609.194 263.403 604.61 Q266.482 600.004 272.292 600.004 Z" fill="#000000" fill-rule="nonzero" fill-opacity="1" /><path clip-path="url(#clip910)" d="M284.236 594.105 L308.348 594.105 L308.348 597.303 L284.236 597.303 L284.236 594.105 Z" fill="#000000" fill-rule="nonzero" fill-opacity="1" /><path clip-path="url(#clip910)" d="M325.143 592.224 Q322.585 592.224 321.081 593.974 Q319.595 595.723 319.595 598.77 Q319.595 601.798 321.081 603.566 Q322.585 605.315 325.143 605.315 Q327.701 605.315 329.187 603.566 Q330.691 601.798 330.691 598.77 Q330.691 595.723 329.187 593.974 Q327.701 592.224 325.143 592.224 M332.685 580.319 L332.685 583.78 Q331.256 583.103 329.789 582.745 Q328.34 582.388 326.911 582.388 Q323.149 582.388 321.156 584.927 Q319.181 587.466 318.899 592.601 Q320.008 590.964 321.682 590.099 Q323.356 589.215 325.369 589.215 Q329.6 589.215 332.045 591.792 Q334.509 594.35 334.509 598.77 Q334.509 603.095 331.951 605.71 Q329.394 608.324 325.143 608.324 Q320.272 608.324 317.695 604.6 Q315.118 600.857 315.118 593.767 Q315.118 587.109 318.278 583.159 Q321.438 579.191 326.76 579.191 Q328.19 579.191 329.638 579.473 Q331.105 579.755 332.685 580.319 Z" fill="#000000" fill-rule="nonzero" fill-opacity="1" /><path clip-path="url(#clip910)" d="M117.061 407.435 L135.417 407.435 L135.417 411.37 L121.343 411.37 L121.343 419.842 Q122.362 419.495 123.38 419.333 Q124.399 419.148 125.418 419.148 Q131.205 419.148 134.584 422.319 Q137.964 425.49 137.964 430.907 Q137.964 436.485 134.492 439.587 Q131.019 442.666 124.7 442.666 Q122.524 442.666 120.255 442.296 Q118.01 441.925 115.603 441.184 L115.603 436.485 Q117.686 437.62 119.908 438.175 Q122.13 438.731 124.607 438.731 Q128.612 438.731 130.95 436.624 Q133.288 434.518 133.288 430.907 Q133.288 427.296 130.95 425.189 Q128.612 423.083 124.607 423.083 Q122.732 423.083 120.857 423.499 Q119.006 423.916 117.061 424.796 L117.061 407.435 Z" fill="#000000" fill-rule="nonzero" fill-opacity="1" /><path clip-path="url(#clip910)" d="M147.177 436.115 L152.061 436.115 L152.061 441.995 L147.177 441.995 L147.177 436.115 Z" fill="#000000" fill-rule="nonzero" fill-opacity="1" /><path clip-path="url(#clip910)" d="M172.246 410.513 Q168.635 410.513 166.806 414.078 Q165.001 417.62 165.001 424.749 Q165.001 431.856 166.806 435.421 Q168.635 438.962 172.246 438.962 Q175.88 438.962 177.686 435.421 Q179.514 431.856 179.514 424.749 Q179.514 417.62 177.686 414.078 Q175.88 410.513 172.246 410.513 M172.246 406.81 Q178.056 406.81 181.112 411.416 Q184.19 415.999 184.19 424.749 Q184.19 433.476 181.112 438.083 Q178.056 442.666 172.246 442.666 Q166.436 442.666 163.357 438.083 Q160.302 433.476 160.302 424.749 Q160.302 415.999 163.357 411.416 Q166.436 406.81 172.246 406.81 Z" fill="#000000" fill-rule="nonzero" fill-opacity="1" /><path clip-path="url(#clip910)" d="M220.579 416.532 L210 427.157 L220.579 437.735 L217.824 440.536 L207.199 429.911 L196.575 440.536 L193.843 437.735 L204.399 427.157 L193.843 416.532 L196.575 413.731 L207.199 424.356 L217.824 413.731 L220.579 416.532 Z" fill="#000000" fill-rule="nonzero" fill-opacity="1" /><path clip-path="url(#clip910)" d="M232.94 438.059 L240.579 438.059 L240.579 411.694 L232.269 413.361 L232.269 409.101 L240.533 407.435 L245.209 407.435 L245.209 438.059 L252.847 438.059 L252.847 441.995 L232.94 441.995 L232.94 438.059 Z" fill="#000000" fill-rule="nonzero" fill-opacity="1" /><path clip-path="url(#clip910)" d="M272.292 410.513 Q268.681 410.513 266.852 414.078 Q265.046 417.62 265.046 424.749 Q265.046 431.856 266.852 435.421 Q268.681 438.962 272.292 438.962 Q275.926 438.962 277.732 435.421 Q279.56 431.856 279.56 424.749 Q279.56 417.62 277.732 414.078 Q275.926 410.513 272.292 410.513 M272.292 406.81 Q278.102 406.81 281.157 411.416 Q284.236 415.999 284.236 424.749 Q284.236 433.476 281.157 438.083 Q278.102 442.666 272.292 442.666 Q266.482 442.666 263.403 438.083 Q260.347 433.476 260.347 424.749 Q260.347 415.999 263.403 411.416 Q266.482 406.81 272.292 406.81 Z" fill="#000000" fill-rule="nonzero" fill-opacity="1" /><path clip-path="url(#clip910)" d="M284.236 400.911 L308.348 400.911 L308.348 404.108 L284.236 404.108 L284.236 400.911 Z" fill="#000000" fill-rule="nonzero" fill-opacity="1" /><path clip-path="url(#clip910)" d="M325.143 399.03 Q322.585 399.03 321.081 400.779 Q319.595 402.528 319.595 405.575 Q319.595 408.603 321.081 410.371 Q322.585 412.12 325.143 412.12 Q327.701 412.12 329.187 410.371 Q330.691 408.603 330.691 405.575 Q330.691 402.528 329.187 400.779 Q327.701 399.03 325.143 399.03 M332.685 387.125 L332.685 390.586 Q331.256 389.908 329.789 389.551 Q328.34 389.194 326.911 389.194 Q323.149 389.194 321.156 391.733 Q319.181 394.272 318.899 399.406 Q320.008 397.77 321.682 396.905 Q323.356 396.021 325.369 396.021 Q329.6 396.021 332.045 398.598 Q334.509 401.155 334.509 405.575 Q334.509 409.901 331.951 412.515 Q329.394 415.13 325.143 415.13 Q320.272 415.13 317.695 411.406 Q315.118 407.663 315.118 400.572 Q315.118 393.914 318.278 389.965 Q321.438 385.996 326.76 385.996 Q328.19 385.996 329.638 386.279 Q331.105 386.561 332.685 387.125 Z" fill="#000000" fill-rule="nonzero" fill-opacity="1" /><path clip-path="url(#clip910)" d="M127.593 229.657 Q124.445 229.657 122.593 231.81 Q120.765 233.963 120.765 237.712 Q120.765 241.439 122.593 243.615 Q124.445 245.768 127.593 245.768 Q130.742 245.768 132.57 243.615 Q134.422 241.439 134.422 237.712 Q134.422 233.963 132.57 231.81 Q130.742 229.657 127.593 229.657 M136.876 215.004 L136.876 219.264 Q135.117 218.43 133.311 217.99 Q131.529 217.551 129.769 217.551 Q125.14 217.551 122.686 220.676 Q120.255 223.801 119.908 230.12 Q121.274 228.106 123.334 227.041 Q125.394 225.953 127.871 225.953 Q133.08 225.953 136.089 229.125 Q139.121 232.273 139.121 237.712 Q139.121 243.037 135.973 246.254 Q132.825 249.472 127.593 249.472 Q121.598 249.472 118.427 244.888 Q115.256 240.282 115.256 231.555 Q115.256 223.361 119.144 218.5 Q123.033 213.615 129.584 213.615 Q131.343 213.615 133.126 213.963 Q134.931 214.31 136.876 215.004 Z" fill="#000000" fill-rule="nonzero" fill-opacity="1" /><path clip-path="url(#clip910)" d="M147.177 242.921 L152.061 242.921 L152.061 248.8 L147.177 248.8 L147.177 242.921 Z" fill="#000000" fill-rule="nonzero" fill-opacity="1" /><path clip-path="url(#clip910)" d="M172.246 217.319 Q168.635 217.319 166.806 220.884 Q165.001 224.426 165.001 231.555 Q165.001 238.662 166.806 242.226 Q168.635 245.768 172.246 245.768 Q175.88 245.768 177.686 242.226 Q179.514 238.662 179.514 231.555 Q179.514 224.426 177.686 220.884 Q175.88 217.319 172.246 217.319 M172.246 213.615 Q178.056 213.615 181.112 218.222 Q184.19 222.805 184.19 231.555 Q184.19 240.282 181.112 244.888 Q178.056 249.472 172.246 249.472 Q166.436 249.472 163.357 244.888 Q160.302 240.282 160.302 231.555 Q160.302 222.805 163.357 218.222 Q166.436 213.615 172.246 213.615 Z" fill="#000000" fill-rule="nonzero" fill-opacity="1" /><path clip-path="url(#clip910)" d="M220.579 223.338 L210 233.963 L220.579 244.541 L217.824 247.342 L207.199 236.717 L196.575 247.342 L193.843 244.541 L204.399 233.963 L193.843 223.338 L196.575 220.537 L207.199 231.162 L217.824 220.537 L220.579 223.338 Z" fill="#000000" fill-rule="nonzero" fill-opacity="1" /><path clip-path="url(#clip910)" d="M232.94 244.865 L240.579 244.865 L240.579 218.5 L232.269 220.166 L232.269 215.907 L240.533 214.24 L245.209 214.24 L245.209 244.865 L252.847 244.865 L252.847 248.8 L232.94 248.8 L232.94 244.865 Z" fill="#000000" fill-rule="nonzero" fill-opacity="1" /><path clip-path="url(#clip910)" d="M272.292 217.319 Q268.681 217.319 266.852 220.884 Q265.046 224.426 265.046 231.555 Q265.046 238.662 266.852 242.226 Q268.681 245.768 272.292 245.768 Q275.926 245.768 277.732 242.226 Q279.56 238.662 279.56 231.555 Q279.56 224.426 277.732 220.884 Q275.926 217.319 272.292 217.319 M272.292 213.615 Q278.102 213.615 281.157 218.222 Q284.236 222.805 284.236 231.555 Q284.236 240.282 281.157 244.888 Q278.102 249.472 272.292 249.472 Q266.482 249.472 263.403 244.888 Q260.347 240.282 260.347 231.555 Q260.347 222.805 263.403 218.222 Q266.482 213.615 272.292 213.615 Z" fill="#000000" fill-rule="nonzero" fill-opacity="1" /><path clip-path="url(#clip910)" d="M284.236 207.717 L308.348 207.717 L308.348 210.914 L284.236 210.914 L284.236 207.717 Z" fill="#000000" fill-rule="nonzero" fill-opacity="1" /><path clip-path="url(#clip910)" d="M325.143 205.836 Q322.585 205.836 321.081 207.585 Q319.595 209.334 319.595 212.381 Q319.595 215.409 321.081 217.177 Q322.585 218.926 325.143 218.926 Q327.701 218.926 329.187 217.177 Q330.691 215.409 330.691 212.381 Q330.691 209.334 329.187 207.585 Q327.701 205.836 325.143 205.836 M332.685 193.931 L332.685 197.391 Q331.256 196.714 329.789 196.357 Q328.34 195.999 326.911 195.999 Q323.149 195.999 321.156 198.539 Q319.181 201.078 318.899 206.212 Q320.008 204.576 321.682 203.711 Q323.356 202.827 325.369 202.827 Q329.6 202.827 332.045 205.403 Q334.509 207.961 334.509 212.381 Q334.509 216.707 331.951 219.321 Q329.394 221.935 325.143 221.935 Q320.272 221.935 317.695 218.211 Q315.118 214.469 315.118 207.378 Q315.118 200.72 318.278 196.771 Q321.438 192.802 326.76 192.802 Q328.19 192.802 329.638 193.084 Q331.105 193.366 332.685 193.931 Z" fill="#000000" fill-rule="nonzero" fill-opacity="1" /><path clip-path="url(#clip910)" d="M46.0847 1124.32 Q46.0847 1131.41 47.7079 1134.15 Q49.3312 1136.89 53.2461 1136.89 Q56.3653 1136.89 58.2114 1134.85 Q60.0256 1132.78 60.0256 1129.25 Q60.0256 1124.38 56.5881 1121.45 Q53.1188 1118.49 47.3897 1118.49 L46.0847 1118.49 L46.0847 1124.32 M43.6657 1112.63 L64.0042 1112.63 L64.0042 1118.49 L58.5933 1118.49 Q61.8398 1120.5 63.3994 1123.49 Q64.9272 1126.48 64.9272 1130.81 Q64.9272 1136.28 61.8716 1139.53 Q58.7843 1142.74 53.6281 1142.74 Q47.6125 1142.74 44.5569 1138.73 Q41.5014 1134.69 41.5014 1126.7 L41.5014 1118.49 L40.9285 1118.49 Q36.8862 1118.49 34.6901 1121.16 Q32.4621 1123.81 32.4621 1128.61 Q32.4621 1131.67 33.1941 1134.56 Q33.9262 1137.46 35.3903 1140.13 L29.9795 1140.13 Q28.7381 1136.92 28.1334 1133.9 Q27.4968 1130.87 27.4968 1128.01 Q27.4968 1120.27 31.5072 1116.45 Q35.5176 1112.63 43.6657 1112.63 Z" fill="#000000" fill-rule="nonzero" fill-opacity="1" /><path clip-path="url(#clip910)" d="M49.9359 1101.18 L28.3562 1101.18 L28.3562 1095.32 L49.7131 1095.32 Q54.7739 1095.32 57.3202 1093.35 Q59.8346 1091.37 59.8346 1087.43 Q59.8346 1082.68 56.8109 1079.95 Q53.7872 1077.18 48.5673 1077.18 L28.3562 1077.18 L28.3562 1071.32 L64.0042 1071.32 L64.0042 1077.18 L58.5296 1077.18 Q61.7762 1079.31 63.3676 1082.14 Q64.9272 1084.94 64.9272 1088.67 Q64.9272 1094.81 61.1078 1097.99 Q57.2883 1101.18 49.9359 1101.18 M27.4968 1086.44 L27.4968 1086.44 Z" fill="#000000" fill-rule="nonzero" fill-opacity="1" /><path clip-path="url(#clip910)" d="M18.2347 1053.47 L28.3562 1053.47 L28.3562 1041.4 L32.9077 1041.4 L32.9077 1053.47 L52.2594 1053.47 Q56.6199 1053.47 57.8613 1052.29 Q59.1026 1051.08 59.1026 1047.42 L59.1026 1041.4 L64.0042 1041.4 L64.0042 1047.42 Q64.0042 1054.2 61.4897 1056.78 Q58.9434 1059.35 52.2594 1059.35 L32.9077 1059.35 L32.9077 1063.65 L28.3562 1063.65 L28.3562 1059.35 L18.2347 1059.35 L18.2347 1053.47 Z" fill="#000000" fill-rule="nonzero" fill-opacity="1" /><path clip-path="url(#clip910)" d="M32.4621 1019.89 Q32.4621 1024.6 36.1542 1027.33 Q39.8145 1030.07 46.212 1030.07 Q52.6095 1030.07 56.3017 1027.37 Q59.9619 1024.63 59.9619 1019.89 Q59.9619 1015.21 56.2698 1012.47 Q52.5777 1009.73 46.212 1009.73 Q39.8781 1009.73 36.186 1012.47 Q32.4621 1015.21 32.4621 1019.89 M27.4968 1019.89 Q27.4968 1012.25 32.4621 1007.89 Q37.4273 1003.53 46.212 1003.53 Q54.9649 1003.53 59.9619 1007.89 Q64.9272 1012.25 64.9272 1019.89 Q64.9272 1027.56 59.9619 1031.92 Q54.9649 1036.25 46.212 1036.25 Q37.4273 1036.25 32.4621 1031.92 Q27.4968 1027.56 27.4968 1019.89 Z" fill="#000000" fill-rule="nonzero" fill-opacity="1" /><path clip-path="url(#clip910)" d="M29.7248 968.165 L35.1993 968.165 Q33.8307 970.648 33.1623 973.162 Q32.4621 975.645 32.4621 978.191 Q32.4621 983.888 36.0905 987.039 Q39.6872 990.19 46.212 990.19 Q52.7369 990.19 56.3653 987.039 Q59.9619 983.888 59.9619 978.191 Q59.9619 975.645 59.2935 973.162 Q58.5933 970.648 57.2247 968.165 L62.6355 968.165 Q63.7814 970.616 64.3543 973.258 Q64.9272 975.868 64.9272 978.828 Q64.9272 986.88 59.8664 991.623 Q54.8057 996.365 46.212 996.365 Q37.491 996.365 32.4939 991.591 Q27.4968 986.785 27.4968 978.446 Q27.4968 975.74 28.0697 973.162 Q28.6108 970.584 29.7248 968.165 Z" fill="#000000" fill-rule="nonzero" fill-opacity="1" /><path clip-path="url(#clip910)" d="M32.4621 944.166 Q32.4621 948.877 36.1542 951.614 Q39.8145 954.351 46.212 954.351 Q52.6095 954.351 56.3017 951.646 Q59.9619 948.909 59.9619 944.166 Q59.9619 939.487 56.2698 936.75 Q52.5777 934.013 46.212 934.013 Q39.8781 934.013 36.186 936.75 Q32.4621 939.487 32.4621 944.166 M27.4968 944.166 Q27.4968 936.527 32.4621 932.167 Q37.4273 927.806 46.212 927.806 Q54.9649 927.806 59.9619 932.167 Q64.9272 936.527 64.9272 944.166 Q64.9272 951.837 59.9619 956.197 Q54.9649 960.526 46.212 960.526 Q37.4273 960.526 32.4621 956.197 Q27.4968 951.837 27.4968 944.166 Z" fill="#000000" fill-rule="nonzero" fill-opacity="1" /><path clip-path="url(#clip910)" d="M42.4881 888.466 L64.0042 888.466 L64.0042 894.323 L42.679 894.323 Q37.6183 894.323 35.1038 896.296 Q32.5894 898.27 32.5894 902.216 Q32.5894 906.959 35.6131 909.696 Q38.6368 912.433 43.8567 912.433 L64.0042 912.433 L64.0042 918.322 L28.3562 918.322 L28.3562 912.433 L33.8944 912.433 Q30.6797 910.333 29.0883 907.5 Q27.4968 904.635 27.4968 900.911 Q27.4968 894.768 31.3163 891.617 Q35.1038 888.466 42.4881 888.466 Z" fill="#000000" fill-rule="nonzero" fill-opacity="1" /><path clip-path="url(#clip910)" d="M28.3562 880.987 L28.3562 874.78 L58.275 863.64 L28.3562 852.5 L28.3562 846.294 L64.0042 859.662 L64.0042 867.619 L28.3562 880.987 Z" fill="#000000" fill-rule="nonzero" fill-opacity="1" /><path clip-path="url(#clip910)" d="M44.7161 807.717 L47.5806 807.717 L47.5806 834.644 Q53.6281 834.262 56.8109 831.016 Q59.9619 827.738 59.9619 821.913 Q59.9619 818.539 59.1344 815.388 Q58.3069 812.205 56.6518 809.086 L62.1899 809.086 Q63.5267 812.237 64.227 815.547 Q64.9272 818.857 64.9272 822.263 Q64.9272 830.793 59.9619 835.79 Q54.9967 840.755 46.5303 840.755 Q37.7774 840.755 32.6531 836.045 Q27.4968 831.302 27.4968 823.282 Q27.4968 816.088 32.1438 811.919 Q36.7589 807.717 44.7161 807.717 M42.9973 813.574 Q38.1912 813.637 35.3266 816.279 Q32.4621 818.889 32.4621 823.218 Q32.4621 828.119 35.2312 831.08 Q38.0002 834.008 43.0292 834.453 L42.9973 813.574 Z" fill="#000000" fill-rule="nonzero" fill-opacity="1" /><path clip-path="url(#clip910)" d="M33.8307 777.448 Q33.2578 778.435 33.0032 779.613 Q32.7167 780.759 32.7167 782.159 Q32.7167 787.124 35.9632 789.798 Q39.1779 792.44 45.2253 792.44 L64.0042 792.44 L64.0042 798.328 L28.3562 798.328 L28.3562 792.44 L33.8944 792.44 Q30.6479 790.594 29.0883 787.634 Q27.4968 784.674 27.4968 780.44 Q27.4968 779.836 27.5923 779.104 Q27.656 778.371 27.8151 777.48 L33.8307 777.448 Z" fill="#000000" fill-rule="nonzero" fill-opacity="1" /><path clip-path="url(#clip910)" d="M29.4065 748.58 L34.9447 748.58 Q33.6716 751.063 33.035 753.736 Q32.3984 756.41 32.3984 759.274 Q32.3984 763.635 33.7352 765.831 Q35.072 767.995 37.7456 767.995 Q39.7826 767.995 40.9603 766.436 Q42.1061 764.876 43.1565 760.166 L43.6021 758.16 Q44.9389 751.922 47.3897 749.312 Q49.8086 746.67 54.1691 746.67 Q59.1344 746.67 62.0308 750.617 Q64.9272 754.532 64.9272 761.407 Q64.9272 764.271 64.3543 767.391 Q63.8132 770.478 62.6992 773.915 L56.6518 773.915 Q58.3387 770.669 59.198 767.518 Q60.0256 764.367 60.0256 761.28 Q60.0256 757.142 58.6251 754.914 Q57.1929 752.686 54.6147 752.686 Q52.2276 752.686 50.9545 754.309 Q49.6813 755.901 48.5037 761.343 L48.0262 763.38 Q46.8804 768.823 44.5251 771.242 Q42.138 773.661 38.0002 773.661 Q32.9713 773.661 30.2341 770.096 Q27.4968 766.531 27.4968 759.975 Q27.4968 756.728 27.9743 753.863 Q28.4517 750.999 29.4065 748.58 Z" fill="#000000" fill-rule="nonzero" fill-opacity="1" /><path clip-path="url(#clip910)" d="M28.3562 737.344 L28.3562 731.488 L64.0042 731.488 L64.0042 737.344 L28.3562 737.344 M14.479 737.344 L14.479 731.488 L21.895 731.488 L21.895 737.344 L14.479 737.344 Z" fill="#000000" fill-rule="nonzero" fill-opacity="1" /><path clip-path="url(#clip910)" d="M32.4621 705.42 Q32.4621 710.131 36.1542 712.868 Q39.8145 715.606 46.212 715.606 Q52.6095 715.606 56.3017 712.9 Q59.9619 710.163 59.9619 705.42 Q59.9619 700.742 56.2698 698.004 Q52.5777 695.267 46.212 695.267 Q39.8781 695.267 36.186 698.004 Q32.4621 700.742 32.4621 705.42 M27.4968 705.42 Q27.4968 697.782 32.4621 693.421 Q37.4273 689.061 46.212 689.061 Q54.9649 689.061 59.9619 693.421 Q64.9272 697.782 64.9272 705.42 Q64.9272 713.091 59.9619 717.452 Q54.9649 721.78 46.212 721.78 Q37.4273 721.78 32.4621 717.452 Q27.4968 713.091 27.4968 705.42 Z" fill="#000000" fill-rule="nonzero" fill-opacity="1" /><path clip-path="url(#clip910)" d="M42.4881 649.721 L64.0042 649.721 L64.0042 655.577 L42.679 655.577 Q37.6183 655.577 35.1038 657.55 Q32.5894 659.524 32.5894 663.47 Q32.5894 668.213 35.6131 670.95 Q38.6368 673.687 43.8567 673.687 L64.0042 673.687 L64.0042 679.576 L28.3562 679.576 L28.3562 673.687 L33.8944 673.687 Q30.6797 671.587 29.0883 668.754 Q27.4968 665.889 27.4968 662.165 Q27.4968 656.023 31.3163 652.872 Q35.1038 649.721 42.4881 649.721 Z" fill="#000000" fill-rule="nonzero" fill-opacity="1" /><path clip-path="url(#clip910)" d="M33.8307 596.662 Q33.2578 597.649 33.0032 598.827 Q32.7167 599.973 32.7167 601.373 Q32.7167 606.338 35.9632 609.012 Q39.1779 611.654 45.2253 611.654 L64.0042 611.654 L64.0042 617.542 L28.3562 617.542 L28.3562 611.654 L33.8944 611.654 Q30.6479 609.808 29.0883 606.847 Q27.4968 603.887 27.4968 599.654 Q27.4968 599.05 27.5923 598.317 Q27.656 597.585 27.8151 596.694 L33.8307 596.662 Z" fill="#000000" fill-rule="nonzero" fill-opacity="1" /><path clip-path="url(#clip910)" d="M46.0847 574.319 Q46.0847 581.416 47.7079 584.154 Q49.3312 586.891 53.2461 586.891 Q56.3653 586.891 58.2114 584.854 Q60.0256 582.785 60.0256 579.252 Q60.0256 574.382 56.5881 571.454 Q53.1188 568.494 47.3897 568.494 L46.0847 568.494 L46.0847 574.319 M43.6657 562.638 L64.0042 562.638 L64.0042 568.494 L58.5933 568.494 Q61.8398 570.499 63.3994 573.491 Q64.9272 576.483 64.9272 580.812 Q64.9272 586.286 61.8716 589.533 Q58.7843 592.747 53.6281 592.747 Q47.6125 592.747 44.5569 588.737 Q41.5014 584.695 41.5014 576.706 L41.5014 568.494 L40.9285 568.494 Q36.8862 568.494 34.6901 571.168 Q32.4621 573.809 32.4621 578.616 Q32.4621 581.671 33.1941 584.568 Q33.9262 587.464 35.3903 590.138 L29.9795 590.138 Q28.7381 586.923 28.1334 583.899 Q27.4968 580.875 27.4968 578.011 Q27.4968 570.277 31.5072 566.457 Q35.5176 562.638 43.6657 562.638 Z" fill="#000000" fill-rule="nonzero" fill-opacity="1" /><path clip-path="url(#clip910)" d="M18.2347 544.782 L28.3562 544.782 L28.3562 532.719 L32.9077 532.719 L32.9077 544.782 L52.2594 544.782 Q56.6199 544.782 57.8613 543.604 Q59.1026 542.395 59.1026 538.734 L59.1026 532.719 L64.0042 532.719 L64.0042 538.734 Q64.0042 545.514 61.4897 548.092 Q58.9434 550.67 52.2594 550.67 L32.9077 550.67 L32.9077 554.967 L28.3562 554.967 L28.3562 550.67 L18.2347 550.67 L18.2347 544.782 Z" fill="#000000" fill-rule="nonzero" fill-opacity="1" /><path clip-path="url(#clip910)" d="M44.7161 494.525 L47.5806 494.525 L47.5806 521.452 Q53.6281 521.07 56.8109 517.823 Q59.9619 514.545 59.9619 508.72 Q59.9619 505.346 59.1344 502.195 Q58.3069 499.012 56.6518 495.893 L62.1899 495.893 Q63.5267 499.044 64.227 502.354 Q64.9272 505.665 64.9272 509.07 Q64.9272 517.6 59.9619 522.597 Q54.9967 527.563 46.5303 527.563 Q37.7774 527.563 32.6531 522.852 Q27.4968 518.11 27.4968 510.089 Q27.4968 502.896 32.1438 498.726 Q36.7589 494.525 44.7161 494.525 M42.9973 500.381 Q38.1912 500.445 35.3266 503.086 Q32.4621 505.696 32.4621 510.025 Q32.4621 514.927 35.2312 517.887 Q38.0002 520.815 43.0292 521.261 L42.9973 500.381 Z" fill="#000000" fill-rule="nonzero" fill-opacity="1" /><path clip-path="url(#clip910)" d="M14.479 464.733 L14.479 451.238 L19.0304 451.238 L19.0304 458.877 L68.0464 458.877 L68.0464 451.238 L72.5979 451.238 L72.5979 464.733 L14.479 464.733 Z" fill="#000000" fill-rule="nonzero" fill-opacity="1" /><path clip-path="url(#clip910)" d="M58.5933 436.819 L58.5933 426.316 L22.3406 426.316 L24.6323 437.742 L18.7758 437.742 L16.4842 426.38 L16.4842 419.95 L58.5933 419.95 L58.5933 409.447 L64.0042 409.447 L64.0042 436.819 L58.5933 436.819 Z" fill="#000000" fill-rule="nonzero" fill-opacity="1" /><path clip-path="url(#clip910)" d="M16.4842 386.881 L16.4842 381.47 L70.0516 398.02 L70.0516 403.431 L16.4842 386.881 Z" fill="#000000" fill-rule="nonzero" fill-opacity="1" /><path clip-path="url(#clip910)" d="M29.4065 352.601 L34.9447 352.601 Q33.6716 355.084 33.035 357.757 Q32.3984 360.431 32.3984 363.296 Q32.3984 367.656 33.7352 369.852 Q35.072 372.017 37.7456 372.017 Q39.7826 372.017 40.9603 370.457 Q42.1061 368.897 43.1565 364.187 L43.6021 362.182 Q44.9389 355.943 47.3897 353.333 Q49.8086 350.691 54.1691 350.691 Q59.1344 350.691 62.0308 354.638 Q64.9272 358.553 64.9272 365.428 Q64.9272 368.293 64.3543 371.412 Q63.8132 374.499 62.6992 377.937 L56.6518 377.937 Q58.3387 374.69 59.198 371.539 Q60.0256 368.388 60.0256 365.301 Q60.0256 361.163 58.6251 358.935 Q57.1929 356.707 54.6147 356.707 Q52.2276 356.707 50.9545 358.33 Q49.6813 359.922 48.5037 365.364 L48.0262 367.401 Q46.8804 372.844 44.5251 375.263 Q42.138 377.682 38.0002 377.682 Q32.9713 377.682 30.2341 374.117 Q27.4968 370.552 27.4968 363.996 Q27.4968 360.749 27.9743 357.885 Q28.4517 355.02 29.4065 352.601 Z" fill="#000000" fill-rule="nonzero" fill-opacity="1" /><path clip-path="url(#clip910)" d="M14.479 327.679 L72.5979 327.679 L72.5979 341.175 L68.0464 341.175 L68.0464 333.568 L19.0304 333.568 L19.0304 341.175 L14.479 341.175 L14.479 327.679 Z" fill="#000000" fill-rule="nonzero" fill-opacity="1" /><polyline clip-path="url(#clip912)" style="stroke:#009af9; stroke-linecap:round; stroke-linejoin:round; stroke-width:12; stroke-opacity:1; fill:none" points="426.611,1384.24 445.5,1384.24 464.389,1384.24 483.279,1384.24 502.168,1384.24 521.057,1384.24 539.947,1384.24 558.836,1384.24 577.725,1384.24 596.615,1384.24 615.504,1383.26 634.393,1373.5 653.283,1363.75 672.172,1353.99 691.061,1344.23 709.951,1334.47 728.84,1324.72 747.729,1314.96 766.619,1305.2 785.508,1295.45 804.397,1285.69 823.287,1275.93 842.176,1266.17 861.065,1256.42 879.955,1246.66 898.844,1236.9 917.733,1227.14 936.623,1217.39 955.512,1207.63 974.401,1197.87 993.291,1188.12 1012.18,1178.36 1031.07,1168.6 1049.96,1158.84 1068.85,1149.09 1087.74,1139.33 1106.63,1129.57 1125.52,1119.81 1144.41,1110.06 1163.29,1100.3 1182.18,1090.54 1201.07,1080.79 1219.96,1071.03 1238.85,1061.27 1257.74,1051.51 1276.63,1041.76 1295.52,1032 1314.41,1022.24 1333.3,1012.48 1352.19,1002.73 1371.08,992.97 1389.97,983.213 1408.86,973.456 1427.75,963.698 1446.63,953.941 1465.52,944.184 1484.41,934.427 1503.3,924.669 1522.19,914.912 1541.08,905.155 1559.97,895.398 1578.86,885.64 1597.75,875.883 1616.64,866.126 1635.53,856.368 1654.42,846.611 1673.31,836.854 1692.2,827.097 1711.09,817.339 1729.97,807.582 1748.86,797.825 1767.75,788.068 1786.64,778.31 1805.53,768.553 1824.42,758.796 1843.31,749.039 1862.2,739.281 1881.09,729.524 1899.98,719.767 1918.87,710.009 1937.76,700.252 1956.65,690.495 1975.54,680.738 1994.43,670.98 2013.31,661.223 2032.2,651.466 2051.09,641.709 2069.98,631.951 2088.87,622.194 2107.76,612.437 2126.65,602.68 2145.54,592.922 2164.43,583.165 2183.32,573.408 2202.21,563.65 2221.1,553.893 2239.99,544.136 2258.88,534.379 2277.77,524.621 2296.65,514.864 "/>
<polyline clip-path="url(#clip912)" style="stroke:#e26f46; stroke-linecap:round; stroke-linejoin:round; stroke-width:12; stroke-opacity:1; fill:none" points="426.611,1384.06 445.5,1263.96 464.389,1211.98 483.279,1172.4 502.168,1139.33 521.057,1110.44 539.947,1084.56 558.836,1060.97 577.725,1039.22 596.615,1018.98 615.504,1000.01 634.393,982.143 653.283,965.233 672.172,949.171 691.061,933.867 709.951,919.245 728.84,905.244 747.729,891.811 766.619,878.9 785.508,866.472 804.397,854.493 823.287,842.932 842.176,831.763 861.065,820.963 879.955,810.509 898.844,800.383 917.733,790.568 936.623,781.047 955.512,771.807 974.401,762.835 993.291,754.119 1012.18,745.648 1031.07,737.411 1049.96,729.399 1068.85,721.604 1087.74,714.017 1106.63,706.632 1125.52,699.44 1144.41,692.436 1163.29,685.613 1182.18,678.965 1201.07,672.487 1219.96,666.174 1238.85,660.022 1257.74,654.024 1276.63,648.178 1295.52,642.479 1314.41,636.923 1333.3,631.507 1352.19,626.227 1371.08,621.079 1389.97,616.061 1408.86,611.17 1427.75,606.402 1446.63,601.755 1465.52,597.226 1484.41,592.813 1503.3,588.513 1522.19,584.324 1541.08,580.244 1559.97,576.27 1578.86,572.401 1597.75,568.635 1616.64,564.969 1635.53,561.402 1654.42,557.932 1673.31,554.557 1692.2,551.277 1711.09,548.088 1729.97,544.99 1748.86,541.981 1767.75,539.06 1786.64,536.225 1805.53,533.475 1824.42,530.809 1843.31,528.225 1862.2,525.723 1881.09,523.301 1899.98,520.957 1918.87,518.692 1937.76,516.503 1956.65,514.39 1975.54,512.351 1994.43,510.387 2013.31,508.495 2032.2,506.674 2051.09,504.925 2069.98,503.246 2088.87,501.636 2107.76,500.094 2126.65,498.62 2145.54,497.212 2164.43,495.87 2183.32,494.594 2202.21,493.382 2221.1,492.233 2239.99,491.148 2258.88,490.125 2277.77,489.164 2296.65,488.264 "/>
<polyline clip-path="url(#clip912)" style="stroke:#3da44d; stroke-linecap:round; stroke-linejoin:round; stroke-width:12; stroke-opacity:1; fill:none" points="426.611,1384.02 445.5,1238.55 464.389,1175.54 483.279,1127.56 502.168,1087.44 521.057,1052.38 539.947,1020.95 558.836,992.301 577.725,965.863 596.615,941.249 615.504,918.175 634.393,896.424 653.283,875.83 672.172,856.256 691.061,837.596 709.951,819.758 728.84,802.668 747.729,786.261 766.619,770.482 785.508,755.284 804.397,740.626 823.287,726.47 842.176,712.786 861.065,699.544 879.955,686.718 898.844,674.286 917.733,662.227 936.623,650.521 955.512,639.153 974.401,628.105 993.291,617.364 1012.18,606.916 1031.07,596.749 1049.96,586.852 1068.85,577.215 1087.74,567.827 1106.63,558.679 1125.52,549.763 1144.41,541.072 1163.29,532.597 1182.18,524.332 1201.07,516.27 1219.96,508.406 1238.85,500.732 1257.74,493.244 1276.63,485.937 1295.52,478.805 1314.41,471.844 1333.3,465.05 1352.19,458.418 1371.08,451.944 1389.97,445.624 1408.86,439.456 1427.75,433.435 1446.63,427.557 1465.52,421.821 1484.41,416.223 1503.3,410.759 1522.19,405.427 1541.08,400.225 1559.97,395.15 1578.86,390.2 1597.75,385.371 1616.64,380.662 1635.53,376.07 1654.42,371.594 1673.31,367.232 1692.2,362.981 1711.09,358.839 1729.97,354.805 1748.86,350.877 1767.75,347.053 1786.64,343.332 1805.53,339.711 1824.42,336.19 1843.31,332.767 1862.2,329.44 1881.09,326.209 1899.98,323.071 1918.87,320.025 1937.76,317.07 1956.65,314.205 1975.54,311.429 1994.43,308.74 2013.31,306.137 2032.2,303.62 2051.09,301.186 2069.98,298.835 2088.87,296.566 2107.76,294.379 2126.65,292.271 2145.54,290.242 2164.43,288.291 2183.32,286.417 2202.21,284.62 2221.1,282.898 2239.99,281.25 2258.88,279.677 2277.77,278.176 2296.65,276.747 "/>
<polyline clip-path="url(#clip912)" style="stroke:#c271d2; stroke-linecap:round; stroke-linejoin:round; stroke-width:12; stroke-opacity:1; fill:none" points="426.611,1383.98 445.5,1215.58 464.389,1142.63 483.279,1087.05 502.168,1040.57 521.057,999.936 539.947,963.503 558.836,930.276 577.725,899.608 596.615,871.047 615.504,844.263 634.393,819.008 653.283,795.087 672.172,772.345 691.061,750.656 709.951,729.916 728.84,710.037 747.729,690.947 766.619,672.58 785.508,654.883 804.397,637.808 823.287,621.312 842.176,605.359 861.065,589.915 879.955,574.951 898.844,560.439 917.733,546.357 936.623,532.682 955.512,519.394 974.401,506.475 993.291,493.909 1012.18,481.68 1031.07,469.775 1049.96,458.179 1068.85,446.881 1087.74,435.87 1106.63,425.136 1125.52,414.668 1144.41,404.457 1163.29,394.495 1182.18,384.774 1201.07,375.286 1219.96,366.024 1238.85,356.982 1257.74,348.153 1276.63,339.53 1295.52,331.109 1314.41,322.885 1333.3,314.851 1352.19,307.003 1371.08,299.337 1389.97,291.847 1408.86,284.531 1427.75,277.383 1446.63,270.4 1465.52,263.579 1484.41,256.916 1503.3,250.407 1522.19,244.049 1541.08,237.839 1559.97,231.775 1578.86,225.853 1597.75,220.071 1616.64,214.426 1635.53,208.915 1654.42,203.537 1673.31,198.288 1692.2,193.167 1711.09,188.171 1729.97,183.298 1748.86,178.546 1767.75,173.913 1786.64,169.397 1805.53,164.997 1824.42,160.711 1843.31,156.536 1862.2,152.472 1881.09,148.516 1899.98,144.667 1918.87,140.923 1937.76,137.284 1956.65,133.747 1975.54,130.311 1994.43,126.975 2013.31,123.737 2032.2,120.596 2051.09,117.552 2069.98,114.602 2088.87,111.745 2107.76,108.981 2126.65,106.308 2145.54,103.726 2164.43,101.232 2183.32,98.8264 2202.21,96.5077 2221.1,94.2751 2239.99,92.1275 2258.88,90.064 2277.77,88.0837 2296.65,86.1857 "/>
<path clip-path="url(#clip910)" d="M436.584 352.309 L951.312 352.309 L951.312 93.1086 L436.584 93.1086  Z" fill="#ffffff" fill-rule="evenodd" fill-opacity="1"/>
<polyline clip-path="url(#clip910)" style="stroke:#000000; stroke-linecap:round; stroke-linejoin:round; stroke-width:4; stroke-opacity:1; fill:none" points="436.584,352.309 951.312,352.309 951.312,93.1086 436.584,93.1086 436.584,352.309 "/>
<polyline clip-path="url(#clip910)" style="stroke:#009af9; stroke-linecap:round; stroke-linejoin:round; stroke-width:12; stroke-opacity:1; fill:none" points="458.609,144.949 590.759,144.949 "/>
<path clip-path="url(#clip910)" d="M629.173 146.025 Q630.677 146.534 632.089 148.201 Q633.524 149.868 634.96 152.784 L639.705 162.229 L634.682 162.229 L630.261 153.363 Q628.548 149.891 626.927 148.756 Q625.33 147.622 622.552 147.622 L617.46 147.622 L617.46 162.229 L612.784 162.229 L612.784 127.669 L623.339 127.669 Q629.265 127.669 632.182 130.145 Q635.099 132.622 635.099 137.622 Q635.099 140.886 633.571 143.039 Q632.066 145.192 629.173 146.025 M617.46 131.511 L617.46 143.78 L623.339 143.78 Q626.719 143.78 628.432 142.229 Q630.168 140.655 630.168 137.622 Q630.168 134.59 628.432 133.062 Q626.719 131.511 623.339 131.511 L617.46 131.511 Z" fill="#000000" fill-rule="nonzero" fill-opacity="1" /><path clip-path="url(#clip910)" d="M656.279 149.196 Q651.117 149.196 649.126 150.377 Q647.136 151.557 647.136 154.405 Q647.136 156.673 648.617 158.016 Q650.122 159.335 652.691 159.335 Q656.233 159.335 658.362 156.835 Q660.515 154.312 660.515 150.145 L660.515 149.196 L656.279 149.196 M664.774 147.437 L664.774 162.229 L660.515 162.229 L660.515 158.293 Q659.057 160.655 656.881 161.789 Q654.705 162.9 651.557 162.9 Q647.575 162.9 645.214 160.678 Q642.876 158.432 642.876 154.682 Q642.876 150.307 645.793 148.085 Q648.733 145.863 654.543 145.863 L660.515 145.863 L660.515 145.446 Q660.515 142.507 658.571 140.909 Q656.649 139.289 653.154 139.289 Q650.932 139.289 648.825 139.821 Q646.719 140.354 644.774 141.419 L644.774 137.483 Q647.112 136.581 649.311 136.141 Q651.511 135.678 653.594 135.678 Q659.219 135.678 661.997 138.594 Q664.774 141.511 664.774 147.437 Z" fill="#000000" fill-rule="nonzero" fill-opacity="1" /><path clip-path="url(#clip910)" d="M673.547 136.303 L677.807 136.303 L677.807 162.229 L673.547 162.229 L673.547 136.303 M673.547 126.21 L677.807 126.21 L677.807 131.604 L673.547 131.604 L673.547 126.21 Z" fill="#000000" fill-rule="nonzero" fill-opacity="1" /><path clip-path="url(#clip910)" d="M708.269 146.581 L708.269 162.229 L704.01 162.229 L704.01 146.719 Q704.01 143.039 702.575 141.21 Q701.14 139.382 698.27 139.382 Q694.82 139.382 692.83 141.581 Q690.839 143.78 690.839 147.576 L690.839 162.229 L686.557 162.229 L686.557 136.303 L690.839 136.303 L690.839 140.331 Q692.367 137.993 694.427 136.835 Q696.51 135.678 699.219 135.678 Q703.686 135.678 705.978 138.456 Q708.269 141.21 708.269 146.581 Z" fill="#000000" fill-rule="nonzero" fill-opacity="1" /><polyline clip-path="url(#clip910)" style="stroke:#e26f46; stroke-linecap:round; stroke-linejoin:round; stroke-width:12; stroke-opacity:1; fill:none" points="458.609,196.789 590.759,196.789 "/>
<path clip-path="url(#clip910)" d="M635.029 180.643 L635.029 185.203 Q632.367 183.93 630.006 183.305 Q627.645 182.68 625.446 182.68 Q621.626 182.68 619.543 184.161 Q617.483 185.643 617.483 188.374 Q617.483 190.666 618.849 191.847 Q620.238 193.004 624.08 193.722 L626.904 194.3 Q632.136 195.296 634.612 197.819 Q637.112 200.319 637.112 204.532 Q637.112 209.555 633.733 212.147 Q630.376 214.74 623.872 214.74 Q621.418 214.74 618.64 214.184 Q615.886 213.629 612.923 212.541 L612.923 207.726 Q615.77 209.323 618.501 210.133 Q621.233 210.944 623.872 210.944 Q627.876 210.944 630.052 209.37 Q632.228 207.796 632.228 204.879 Q632.228 202.333 630.654 200.897 Q629.103 199.462 625.538 198.745 L622.691 198.189 Q617.46 197.147 615.122 194.925 Q612.784 192.703 612.784 188.745 Q612.784 184.161 616.001 181.522 Q619.242 178.884 624.913 178.884 Q627.344 178.884 629.867 179.323 Q632.39 179.763 635.029 180.643 Z" fill="#000000" fill-rule="nonzero" fill-opacity="1" /><path clip-path="url(#clip910)" d="M665.77 198.421 L665.77 214.069 L661.51 214.069 L661.51 198.559 Q661.51 194.879 660.075 193.05 Q658.64 191.222 655.77 191.222 Q652.321 191.222 650.33 193.421 Q648.339 195.62 648.339 199.416 L648.339 214.069 L644.057 214.069 L644.057 188.143 L648.339 188.143 L648.339 192.171 Q649.867 189.833 651.927 188.675 Q654.01 187.518 656.719 187.518 Q661.186 187.518 663.478 190.296 Q665.77 193.05 665.77 198.421 Z" fill="#000000" fill-rule="nonzero" fill-opacity="1" /><path clip-path="url(#clip910)" d="M684.311 191.129 Q680.885 191.129 678.895 193.814 Q676.904 196.476 676.904 201.129 Q676.904 205.782 678.871 208.467 Q680.862 211.129 684.311 211.129 Q687.714 211.129 689.705 208.444 Q691.695 205.758 691.695 201.129 Q691.695 196.522 689.705 193.837 Q687.714 191.129 684.311 191.129 M684.311 187.518 Q689.867 187.518 693.038 191.129 Q696.209 194.74 696.209 201.129 Q696.209 207.495 693.038 211.129 Q689.867 214.74 684.311 214.74 Q678.733 214.74 675.561 211.129 Q672.413 207.495 672.413 201.129 Q672.413 194.74 675.561 191.129 Q678.733 187.518 684.311 187.518 Z" fill="#000000" fill-rule="nonzero" fill-opacity="1" /><path clip-path="url(#clip910)" d="M700.793 188.143 L705.052 188.143 L710.376 208.374 L715.677 188.143 L720.7 188.143 L726.024 208.374 L731.325 188.143 L735.584 188.143 L728.802 214.069 L723.779 214.069 L718.2 192.819 L712.598 214.069 L707.575 214.069 L700.793 188.143 Z" fill="#000000" fill-rule="nonzero" fill-opacity="1" /><path clip-path="url(#clip910)" d="M752.505 179.509 L781.741 179.509 L781.741 183.444 L769.473 183.444 L769.473 214.069 L764.774 214.069 L764.774 183.444 L752.505 183.444 L752.505 179.509 Z" fill="#000000" fill-rule="nonzero" fill-opacity="1" /><path clip-path="url(#clip910)" d="M786.626 192.541 L816.301 192.541 L816.301 196.43 L786.626 196.43 L786.626 192.541 M786.626 201.985 L816.301 201.985 L816.301 205.921 L786.626 205.921 L786.626 201.985 Z" fill="#000000" fill-rule="nonzero" fill-opacity="1" /><path clip-path="url(#clip910)" d="M823.639 199.184 L836.116 199.184 L836.116 202.981 L823.639 202.981 L823.639 199.184 Z" fill="#000000" fill-rule="nonzero" fill-opacity="1" /><path clip-path="url(#clip910)" d="M843.547 179.509 L861.903 179.509 L861.903 183.444 L847.829 183.444 L847.829 191.916 Q848.847 191.569 849.866 191.407 Q850.884 191.222 851.903 191.222 Q857.69 191.222 861.07 194.393 Q864.449 197.564 864.449 202.981 Q864.449 208.559 860.977 211.661 Q857.505 214.74 851.185 214.74 Q849.009 214.74 846.741 214.37 Q844.496 213.999 842.088 213.258 L842.088 208.559 Q844.172 209.694 846.394 210.249 Q848.616 210.805 851.093 210.805 Q855.097 210.805 857.435 208.698 Q859.773 206.592 859.773 202.981 Q859.773 199.37 857.435 197.263 Q855.097 195.157 851.093 195.157 Q849.218 195.157 847.343 195.573 Q845.491 195.99 843.547 196.87 L843.547 179.509 Z" fill="#000000" fill-rule="nonzero" fill-opacity="1" /><path clip-path="url(#clip910)" d="M899.125 182.171 L899.125 187.101 Q896.764 184.902 894.079 183.814 Q891.417 182.726 888.407 182.726 Q882.481 182.726 879.333 186.36 Q876.185 189.972 876.185 196.823 Q876.185 203.652 879.333 207.286 Q882.481 210.897 888.407 210.897 Q891.417 210.897 894.079 209.809 Q896.764 208.721 899.125 206.522 L899.125 211.407 Q896.671 213.073 893.917 213.907 Q891.185 214.74 888.13 214.74 Q880.282 214.74 875.769 209.948 Q871.255 205.133 871.255 196.823 Q871.255 188.49 875.769 183.698 Q880.282 178.884 888.13 178.884 Q891.231 178.884 893.963 179.717 Q896.718 180.527 899.125 182.171 Z" fill="#000000" fill-rule="nonzero" fill-opacity="1" /><polyline clip-path="url(#clip910)" style="stroke:#3da44d; stroke-linecap:round; stroke-linejoin:round; stroke-width:12; stroke-opacity:1; fill:none" points="458.609,248.629 590.759,248.629 "/>
<path clip-path="url(#clip910)" d="M635.029 232.483 L635.029 237.043 Q632.367 235.77 630.006 235.145 Q627.645 234.52 625.446 234.52 Q621.626 234.52 619.543 236.001 Q617.483 237.483 617.483 240.214 Q617.483 242.506 618.849 243.687 Q620.238 244.844 624.08 245.562 L626.904 246.14 Q632.136 247.136 634.612 249.659 Q637.112 252.159 637.112 256.372 Q637.112 261.395 633.733 263.987 Q630.376 266.58 623.872 266.58 Q621.418 266.58 618.64 266.024 Q615.886 265.469 612.923 264.381 L612.923 259.566 Q615.77 261.163 618.501 261.973 Q621.233 262.784 623.872 262.784 Q627.876 262.784 630.052 261.21 Q632.228 259.636 632.228 256.719 Q632.228 254.173 630.654 252.737 Q629.103 251.302 625.538 250.585 L622.691 250.029 Q617.46 248.987 615.122 246.765 Q612.784 244.543 612.784 240.585 Q612.784 236.001 616.001 233.362 Q619.242 230.724 624.913 230.724 Q627.344 230.724 629.867 231.163 Q632.39 231.603 635.029 232.483 Z" fill="#000000" fill-rule="nonzero" fill-opacity="1" /><path clip-path="url(#clip910)" d="M665.77 250.261 L665.77 265.909 L661.51 265.909 L661.51 250.399 Q661.51 246.719 660.075 244.89 Q658.64 243.062 655.77 243.062 Q652.321 243.062 650.33 245.261 Q648.339 247.46 648.339 251.256 L648.339 265.909 L644.057 265.909 L644.057 239.983 L648.339 239.983 L648.339 244.011 Q649.867 241.673 651.927 240.515 Q654.01 239.358 656.719 239.358 Q661.186 239.358 663.478 242.136 Q665.77 244.89 665.77 250.261 Z" fill="#000000" fill-rule="nonzero" fill-opacity="1" /><path clip-path="url(#clip910)" d="M684.311 242.969 Q680.885 242.969 678.895 245.654 Q676.904 248.316 676.904 252.969 Q676.904 257.622 678.871 260.307 Q680.862 262.969 684.311 262.969 Q687.714 262.969 689.705 260.284 Q691.695 257.598 691.695 252.969 Q691.695 248.362 689.705 245.677 Q687.714 242.969 684.311 242.969 M684.311 239.358 Q689.867 239.358 693.038 242.969 Q696.209 246.58 696.209 252.969 Q696.209 259.335 693.038 262.969 Q689.867 266.58 684.311 266.58 Q678.733 266.58 675.561 262.969 Q672.413 259.335 672.413 252.969 Q672.413 246.58 675.561 242.969 Q678.733 239.358 684.311 239.358 Z" fill="#000000" fill-rule="nonzero" fill-opacity="1" /><path clip-path="url(#clip910)" d="M700.793 239.983 L705.052 239.983 L710.376 260.214 L715.677 239.983 L720.7 239.983 L726.024 260.214 L731.325 239.983 L735.584 239.983 L728.802 265.909 L723.779 265.909 L718.2 244.659 L712.598 265.909 L707.575 265.909 L700.793 239.983 Z" fill="#000000" fill-rule="nonzero" fill-opacity="1" /><path clip-path="url(#clip910)" d="M752.505 231.349 L781.741 231.349 L781.741 235.284 L769.473 235.284 L769.473 265.909 L764.774 265.909 L764.774 235.284 L752.505 235.284 L752.505 231.349 Z" fill="#000000" fill-rule="nonzero" fill-opacity="1" /><path clip-path="url(#clip910)" d="M786.626 244.381 L816.301 244.381 L816.301 248.27 L786.626 248.27 L786.626 244.381 M786.626 253.825 L816.301 253.825 L816.301 257.761 L786.626 257.761 L786.626 253.825 Z" fill="#000000" fill-rule="nonzero" fill-opacity="1" /><path clip-path="url(#clip910)" d="M823.639 251.024 L836.116 251.024 L836.116 254.821 L823.639 254.821 L823.639 251.024 Z" fill="#000000" fill-rule="nonzero" fill-opacity="1" /><path clip-path="url(#clip910)" d="M844.31 261.973 L851.949 261.973 L851.949 235.608 L843.639 237.275 L843.639 233.015 L851.903 231.349 L856.579 231.349 L856.579 261.973 L864.218 261.973 L864.218 265.909 L844.31 265.909 L844.31 261.973 Z" fill="#000000" fill-rule="nonzero" fill-opacity="1" /><path clip-path="url(#clip910)" d="M883.662 234.427 Q880.051 234.427 878.222 237.992 Q876.417 241.534 876.417 248.663 Q876.417 255.77 878.222 259.335 Q880.051 262.876 883.662 262.876 Q887.296 262.876 889.102 259.335 Q890.931 255.77 890.931 248.663 Q890.931 241.534 889.102 237.992 Q887.296 234.427 883.662 234.427 M883.662 230.724 Q889.472 230.724 892.528 235.33 Q895.606 239.913 895.606 248.663 Q895.606 257.39 892.528 261.997 Q889.472 266.58 883.662 266.58 Q877.852 266.58 874.773 261.997 Q871.718 257.39 871.718 248.663 Q871.718 239.913 874.773 235.33 Q877.852 230.724 883.662 230.724 Z" fill="#000000" fill-rule="nonzero" fill-opacity="1" /><path clip-path="url(#clip910)" d="M929.287 234.011 L929.287 238.941 Q926.926 236.742 924.241 235.654 Q921.578 234.566 918.569 234.566 Q912.643 234.566 909.495 238.2 Q906.347 241.812 906.347 248.663 Q906.347 255.492 909.495 259.126 Q912.643 262.737 918.569 262.737 Q921.578 262.737 924.241 261.649 Q926.926 260.561 929.287 258.362 L929.287 263.247 Q926.833 264.913 924.078 265.747 Q921.347 266.58 918.291 266.58 Q910.444 266.58 905.93 261.788 Q901.417 256.973 901.417 248.663 Q901.417 240.33 905.93 235.538 Q910.444 230.724 918.291 230.724 Q921.393 230.724 924.125 231.557 Q926.879 232.367 929.287 234.011 Z" fill="#000000" fill-rule="nonzero" fill-opacity="1" /><polyline clip-path="url(#clip910)" style="stroke:#c271d2; stroke-linecap:round; stroke-linejoin:round; stroke-width:12; stroke-opacity:1; fill:none" points="458.609,300.469 590.759,300.469 "/>
<path clip-path="url(#clip910)" d="M635.029 284.323 L635.029 288.883 Q632.367 287.61 630.006 286.985 Q627.645 286.36 625.446 286.36 Q621.626 286.36 619.543 287.841 Q617.483 289.323 617.483 292.054 Q617.483 294.346 618.849 295.527 Q620.238 296.684 624.08 297.402 L626.904 297.98 Q632.136 298.976 634.612 301.499 Q637.112 303.999 637.112 308.212 Q637.112 313.235 633.733 315.827 Q630.376 318.42 623.872 318.42 Q621.418 318.42 618.64 317.864 Q615.886 317.309 612.923 316.221 L612.923 311.406 Q615.77 313.003 618.501 313.813 Q621.233 314.624 623.872 314.624 Q627.876 314.624 630.052 313.05 Q632.228 311.476 632.228 308.559 Q632.228 306.013 630.654 304.577 Q629.103 303.142 625.538 302.425 L622.691 301.869 Q617.46 300.827 615.122 298.605 Q612.784 296.383 612.784 292.425 Q612.784 287.841 616.001 285.202 Q619.242 282.564 624.913 282.564 Q627.344 282.564 629.867 283.003 Q632.39 283.443 635.029 284.323 Z" fill="#000000" fill-rule="nonzero" fill-opacity="1" /><path clip-path="url(#clip910)" d="M665.77 302.101 L665.77 317.749 L661.51 317.749 L661.51 302.239 Q661.51 298.559 660.075 296.73 Q658.64 294.902 655.77 294.902 Q652.321 294.902 650.33 297.101 Q648.339 299.3 648.339 303.096 L648.339 317.749 L644.057 317.749 L644.057 291.823 L648.339 291.823 L648.339 295.851 Q649.867 293.513 651.927 292.355 Q654.01 291.198 656.719 291.198 Q661.186 291.198 663.478 293.976 Q665.77 296.73 665.77 302.101 Z" fill="#000000" fill-rule="nonzero" fill-opacity="1" /><path clip-path="url(#clip910)" d="M684.311 294.809 Q680.885 294.809 678.895 297.494 Q676.904 300.156 676.904 304.809 Q676.904 309.462 678.871 312.147 Q680.862 314.809 684.311 314.809 Q687.714 314.809 689.705 312.124 Q691.695 309.438 691.695 304.809 Q691.695 300.202 689.705 297.517 Q687.714 294.809 684.311 294.809 M684.311 291.198 Q689.867 291.198 693.038 294.809 Q696.209 298.42 696.209 304.809 Q696.209 311.175 693.038 314.809 Q689.867 318.42 684.311 318.42 Q678.733 318.42 675.561 314.809 Q672.413 311.175 672.413 304.809 Q672.413 298.42 675.561 294.809 Q678.733 291.198 684.311 291.198 Z" fill="#000000" fill-rule="nonzero" fill-opacity="1" /><path clip-path="url(#clip910)" d="M700.793 291.823 L705.052 291.823 L710.376 312.054 L715.677 291.823 L720.7 291.823 L726.024 312.054 L731.325 291.823 L735.584 291.823 L728.802 317.749 L723.779 317.749 L718.2 296.499 L712.598 317.749 L707.575 317.749 L700.793 291.823 Z" fill="#000000" fill-rule="nonzero" fill-opacity="1" /><path clip-path="url(#clip910)" d="M752.505 283.189 L781.741 283.189 L781.741 287.124 L769.473 287.124 L769.473 317.749 L764.774 317.749 L764.774 287.124 L752.505 287.124 L752.505 283.189 Z" fill="#000000" fill-rule="nonzero" fill-opacity="1" /><path clip-path="url(#clip910)" d="M786.626 296.221 L816.301 296.221 L816.301 300.11 L786.626 300.11 L786.626 296.221 M786.626 305.665 L816.301 305.665 L816.301 309.601 L786.626 309.601 L786.626 305.665 Z" fill="#000000" fill-rule="nonzero" fill-opacity="1" /><path clip-path="url(#clip910)" d="M823.639 302.864 L836.116 302.864 L836.116 306.661 L823.639 306.661 L823.639 302.864 Z" fill="#000000" fill-rule="nonzero" fill-opacity="1" /><path clip-path="url(#clip910)" d="M844.31 313.813 L851.949 313.813 L851.949 287.448 L843.639 289.115 L843.639 284.855 L851.903 283.189 L856.579 283.189 L856.579 313.813 L864.218 313.813 L864.218 317.749 L844.31 317.749 L844.31 313.813 Z" fill="#000000" fill-rule="nonzero" fill-opacity="1" /><path clip-path="url(#clip910)" d="M873.708 283.189 L892.065 283.189 L892.065 287.124 L877.991 287.124 L877.991 295.596 Q879.009 295.249 880.028 295.087 Q881.046 294.902 882.065 294.902 Q887.852 294.902 891.231 298.073 Q894.611 301.244 894.611 306.661 Q894.611 312.239 891.139 315.341 Q887.667 318.42 881.347 318.42 Q879.171 318.42 876.903 318.05 Q874.657 317.679 872.25 316.938 L872.25 312.239 Q874.333 313.374 876.556 313.929 Q878.778 314.485 881.255 314.485 Q885.259 314.485 887.597 312.378 Q889.935 310.272 889.935 306.661 Q889.935 303.05 887.597 300.943 Q885.259 298.837 881.255 298.837 Q879.38 298.837 877.505 299.253 Q875.653 299.67 873.708 300.55 L873.708 283.189 Z" fill="#000000" fill-rule="nonzero" fill-opacity="1" /><path clip-path="url(#clip910)" d="M929.287 285.851 L929.287 290.781 Q926.926 288.582 924.241 287.494 Q921.578 286.406 918.569 286.406 Q912.643 286.406 909.495 290.04 Q906.347 293.652 906.347 300.503 Q906.347 307.332 909.495 310.966 Q912.643 314.577 918.569 314.577 Q921.578 314.577 924.241 313.489 Q926.926 312.401 929.287 310.202 L929.287 315.087 Q926.833 316.753 924.078 317.587 Q921.347 318.42 918.291 318.42 Q910.444 318.42 905.93 313.628 Q901.417 308.813 901.417 300.503 Q901.417 292.17 905.93 287.378 Q910.444 282.564 918.291 282.564 Q921.393 282.564 924.125 283.397 Q926.879 284.207 929.287 285.851 Z" fill="#000000" fill-rule="nonzero" fill-opacity="1" /></svg>
