<?xml version="1.0" encoding="utf-8"?>
<svg xmlns="http://www.w3.org/2000/svg" xmlns:xlink="http://www.w3.org/1999/xlink" width="600" height="400" viewBox="0 0 2400 1600">
<defs>
  <clipPath id="clip770">
    <rect x="0" y="0" width="2400" height="1600"/>
  </clipPath>
</defs>
<path clip-path="url(#clip770)" d="M0 1600 L2400 1600 L2400 0 L0 0  Z" fill="#ffffff" fill-rule="evenodd" fill-opacity="1"/>
<defs>
  <clipPath id="clip771">
    <rect x="249" y="47" width="2104" height="1377"/>
  </clipPath>
</defs>
<path clip-path="url(#clip770)" d="M211.325 1423.18 L2352.76 1423.18 L2352.76 47.2441 L211.325 47.2441  Z" fill="#ffffff" fill-rule="evenodd" fill-opacity="1"/>
<defs>
  <clipPath id="clip772">
    <rect x="211" y="47" width="2142" height="1377"/>
  </clipPath>
</defs>
<polyline clip-path="url(#clip772)" style="stroke:#000000; stroke-linecap:round; stroke-linejoin:round; stroke-width:2; stroke-opacity:0.1; fill:none" points="252.532,1423.18 252.532,47.2441 "/>
<polyline clip-path="url(#clip772)" style="stroke:#000000; stroke-linecap:round; stroke-linejoin:round; stroke-width:2; stroke-opacity:0.1; fill:none" points="631.418,1423.18 631.418,47.2441 "/>
<polyline clip-path="url(#clip772)" style="stroke:#000000; stroke-linecap:round; stroke-linejoin:round; stroke-width:2; stroke-opacity:0.1; fill:none" points="1010.3,1423.18 1010.3,47.2441 "/>
<polyline clip-path="url(#clip772)" style="stroke:#000000; stroke-linecap:round; stroke-linejoin:round; stroke-width:2; stroke-opacity:0.1; fill:none" points="1389.19,1423.18 1389.19,47.2441 "/>
<polyline clip-path="url(#clip772)" style="stroke:#000000; stroke-linecap:round; stroke-linejoin:round; stroke-width:2; stroke-opacity:0.1; fill:none" points="1768.07,1423.18 1768.07,47.2441 "/>
<polyline clip-path="url(#clip772)" style="stroke:#000000; stroke-linecap:round; stroke-linejoin:round; stroke-width:2; stroke-opacity:0.1; fill:none" points="2146.96,1423.18 2146.96,47.2441 "/>
<polyline clip-path="url(#clip772)" style="stroke:#000000; stroke-linecap:round; stroke-linejoin:round; stroke-width:2; stroke-opacity:0.1; fill:none" points="211.325,1212.86 2352.76,1212.86 "/>
<polyline clip-path="url(#clip772)" style="stroke:#000000; stroke-linecap:round; stroke-linejoin:round; stroke-width:2; stroke-opacity:0.1; fill:none" points="211.325,944.691 2352.76,944.691 "/>
<polyline clip-path="url(#clip772)" style="stroke:#000000; stroke-linecap:round; stroke-linejoin:round; stroke-width:2; stroke-opacity:0.1; fill:none" points="211.325,676.527 2352.76,676.527 "/>
<polyline clip-path="url(#clip772)" style="stroke:#000000; stroke-linecap:round; stroke-linejoin:round; stroke-width:2; stroke-opacity:0.1; fill:none" points="211.325,408.363 2352.76,408.363 "/>
<polyline clip-path="url(#clip772)" style="stroke:#000000; stroke-linecap:round; stroke-linejoin:round; stroke-width:2; stroke-opacity:0.1; fill:none" points="211.325,140.198 2352.76,140.198 "/>
<polyline clip-path="url(#clip770)" style="stroke:#000000; stroke-linecap:round; stroke-linejoin:round; stroke-width:4; stroke-opacity:1; fill:none" points="211.325,1423.18 2352.76,1423.18 "/>
<polyline clip-path="url(#clip770)" style="stroke:#000000; stroke-linecap:round; stroke-linejoin:round; stroke-width:4; stroke-opacity:1; fill:none" points="252.532,1423.18 252.532,1404.28 "/>
<polyline clip-path="url(#clip770)" style="stroke:#000000; stroke-linecap:round; stroke-linejoin:round; stroke-width:4; stroke-opacity:1; fill:none" points="631.418,1423.18 631.418,1404.28 "/>
<polyline clip-path="url(#clip770)" style="stroke:#000000; stroke-linecap:round; stroke-linejoin:round; stroke-width:4; stroke-opacity:1; fill:none" points="1010.3,1423.18 1010.3,1404.28 "/>
<polyline clip-path="url(#clip770)" style="stroke:#000000; stroke-linecap:round; stroke-linejoin:round; stroke-width:4; stroke-opacity:1; fill:none" points="1389.19,1423.18 1389.19,1404.28 "/>
<polyline clip-path="url(#clip770)" style="stroke:#000000; stroke-linecap:round; stroke-linejoin:round; stroke-width:4; stroke-opacity:1; fill:none" points="1768.07,1423.18 1768.07,1404.28 "/>
<polyline clip-path="url(#clip770)" style="stroke:#000000; stroke-linecap:round; stroke-linejoin:round; stroke-width:4; stroke-opacity:1; fill:none" points="2146.96,1423.18 2146.96,1404.28 "/>
<path clip-path="url(#clip770)" d="M214.836 1454.1 Q211.225 1454.1 209.396 1457.66 Q207.59 1461.2 207.59 1468.33 Q207.59 1475.44 209.396 1479.01 Q211.225 1482.55 214.836 1482.55 Q218.47 1482.55 220.275 1479.01 Q222.104 1475.44 222.104 1468.33 Q222.104 1461.2 220.275 1457.66 Q218.47 1454.1 214.836 1454.1 M214.836 1450.39 Q220.646 1450.39 223.701 1455 Q226.78 1459.58 226.78 1468.33 Q226.78 1477.06 223.701 1481.67 Q220.646 1486.25 214.836 1486.25 Q209.026 1486.25 205.947 1481.67 Q202.891 1477.06 202.891 1468.33 Q202.891 1459.58 205.947 1455 Q209.026 1450.39 214.836 1450.39 Z" fill="#000000" fill-rule="nonzero" fill-opacity="1" /><path clip-path="url(#clip770)" d="M234.998 1479.7 L239.882 1479.7 L239.882 1485.58 L234.998 1485.58 L234.998 1479.7 Z" fill="#000000" fill-rule="nonzero" fill-opacity="1" /><path clip-path="url(#clip770)" d="M250.877 1481.64 L258.516 1481.64 L258.516 1455.28 L250.206 1456.95 L250.206 1452.69 L258.47 1451.02 L263.146 1451.02 L263.146 1481.64 L270.784 1481.64 L270.784 1485.58 L250.877 1485.58 L250.877 1481.64 Z" fill="#000000" fill-rule="nonzero" fill-opacity="1" /><path clip-path="url(#clip770)" d="M290.229 1454.1 Q286.618 1454.1 284.789 1457.66 Q282.983 1461.2 282.983 1468.33 Q282.983 1475.44 284.789 1479.01 Q286.618 1482.55 290.229 1482.55 Q293.863 1482.55 295.669 1479.01 Q297.497 1475.44 297.497 1468.33 Q297.497 1461.2 295.669 1457.66 Q293.863 1454.1 290.229 1454.1 M290.229 1450.39 Q296.039 1450.39 299.094 1455 Q302.173 1459.58 302.173 1468.33 Q302.173 1477.06 299.094 1481.67 Q296.039 1486.25 290.229 1486.25 Q284.419 1486.25 281.34 1481.67 Q278.284 1477.06 278.284 1468.33 Q278.284 1459.58 281.34 1455 Q284.419 1450.39 290.229 1450.39 Z" fill="#000000" fill-rule="nonzero" fill-opacity="1" /><path clip-path="url(#clip770)" d="M594.219 1454.1 Q590.608 1454.1 588.779 1457.66 Q586.974 1461.2 586.974 1468.33 Q586.974 1475.44 588.779 1479.01 Q590.608 1482.55 594.219 1482.55 Q597.853 1482.55 599.659 1479.01 Q601.488 1475.44 601.488 1468.33 Q601.488 1461.2 599.659 1457.66 Q597.853 1454.1 594.219 1454.1 M594.219 1450.39 Q600.029 1450.39 603.085 1455 Q606.163 1459.58 606.163 1468.33 Q606.163 1477.06 603.085 1481.67 Q600.029 1486.25 594.219 1486.25 Q588.409 1486.25 585.33 1481.67 Q582.275 1477.06 582.275 1468.33 Q582.275 1459.58 585.33 1455 Q588.409 1450.39 594.219 1450.39 Z" fill="#000000" fill-rule="nonzero" fill-opacity="1" /><path clip-path="url(#clip770)" d="M614.381 1479.7 L619.265 1479.7 L619.265 1485.58 L614.381 1485.58 L614.381 1479.7 Z" fill="#000000" fill-rule="nonzero" fill-opacity="1" /><path clip-path="url(#clip770)" d="M630.261 1481.64 L637.899 1481.64 L637.899 1455.28 L629.589 1456.95 L629.589 1452.69 L637.853 1451.02 L642.529 1451.02 L642.529 1481.64 L650.168 1481.64 L650.168 1485.58 L630.261 1485.58 L630.261 1481.64 Z" fill="#000000" fill-rule="nonzero" fill-opacity="1" /><path clip-path="url(#clip770)" d="M659.659 1451.02 L678.015 1451.02 L678.015 1454.96 L663.941 1454.96 L663.941 1463.43 Q664.959 1463.08 665.978 1462.92 Q666.996 1462.73 668.015 1462.73 Q673.802 1462.73 677.182 1465.9 Q680.561 1469.08 680.561 1474.49 Q680.561 1480.07 677.089 1483.17 Q673.617 1486.25 667.297 1486.25 Q665.121 1486.25 662.853 1485.88 Q660.608 1485.51 658.2 1484.77 L658.2 1480.07 Q660.284 1481.2 662.506 1481.76 Q664.728 1482.32 667.205 1482.32 Q671.209 1482.32 673.547 1480.21 Q675.885 1478.1 675.885 1474.49 Q675.885 1470.88 673.547 1468.77 Q671.209 1466.67 667.205 1466.67 Q665.33 1466.67 663.455 1467.08 Q661.603 1467.5 659.659 1468.38 L659.659 1451.02 Z" fill="#000000" fill-rule="nonzero" fill-opacity="1" /><path clip-path="url(#clip770)" d="M972.607 1454.1 Q968.996 1454.1 967.167 1457.66 Q965.362 1461.2 965.362 1468.33 Q965.362 1475.44 967.167 1479.01 Q968.996 1482.55 972.607 1482.55 Q976.241 1482.55 978.047 1479.01 Q979.876 1475.44 979.876 1468.33 Q979.876 1461.2 978.047 1457.66 Q976.241 1454.1 972.607 1454.1 M972.607 1450.39 Q978.417 1450.39 981.473 1455 Q984.551 1459.58 984.551 1468.33 Q984.551 1477.06 981.473 1481.67 Q978.417 1486.25 972.607 1486.25 Q966.797 1486.25 963.718 1481.67 Q960.663 1477.06 960.663 1468.33 Q960.663 1459.58 963.718 1455 Q966.797 1450.39 972.607 1450.39 Z" fill="#000000" fill-rule="nonzero" fill-opacity="1" /><path clip-path="url(#clip770)" d="M992.769 1479.7 L997.653 1479.7 L997.653 1485.58 L992.769 1485.58 L992.769 1479.7 Z" fill="#000000" fill-rule="nonzero" fill-opacity="1" /><path clip-path="url(#clip770)" d="M1011.87 1481.64 L1028.19 1481.64 L1028.19 1485.58 L1006.24 1485.58 L1006.24 1481.64 Q1008.9 1478.89 1013.49 1474.26 Q1018.09 1469.61 1019.27 1468.27 Q1021.52 1465.74 1022.4 1464.01 Q1023.3 1462.25 1023.3 1460.56 Q1023.3 1457.8 1021.36 1456.07 Q1019.44 1454.33 1016.33 1454.33 Q1014.13 1454.33 1011.68 1455.09 Q1009.25 1455.86 1006.47 1457.41 L1006.47 1452.69 Q1009.3 1451.55 1011.75 1450.97 Q1014.2 1450.39 1016.24 1450.39 Q1021.61 1450.39 1024.81 1453.08 Q1028 1455.77 1028 1460.26 Q1028 1462.39 1027.19 1464.31 Q1026.4 1466.2 1024.3 1468.8 Q1023.72 1469.47 1020.62 1472.69 Q1017.51 1475.88 1011.87 1481.64 Z" fill="#000000" fill-rule="nonzero" fill-opacity="1" /><path clip-path="url(#clip770)" d="M1048 1454.1 Q1044.39 1454.1 1042.56 1457.66 Q1040.75 1461.2 1040.75 1468.33 Q1040.75 1475.44 1042.56 1479.01 Q1044.39 1482.55 1048 1482.55 Q1051.63 1482.55 1053.44 1479.01 Q1055.27 1475.44 1055.27 1468.33 Q1055.27 1461.2 1053.44 1457.66 Q1051.63 1454.1 1048 1454.1 M1048 1450.39 Q1053.81 1450.39 1056.87 1455 Q1059.94 1459.58 1059.94 1468.33 Q1059.94 1477.06 1056.87 1481.67 Q1053.81 1486.25 1048 1486.25 Q1042.19 1486.25 1039.11 1481.67 Q1036.06 1477.06 1036.06 1468.33 Q1036.06 1459.58 1039.11 1455 Q1042.19 1450.39 1048 1450.39 Z" fill="#000000" fill-rule="nonzero" fill-opacity="1" /><path clip-path="url(#clip770)" d="M1351.99 1454.1 Q1348.38 1454.1 1346.55 1457.66 Q1344.75 1461.2 1344.75 1468.33 Q1344.75 1475.44 1346.55 1479.01 Q1348.38 1482.55 1351.99 1482.55 Q1355.62 1482.55 1357.43 1479.01 Q1359.26 1475.44 1359.26 1468.33 Q1359.26 1461.2 1357.43 1457.66 Q1355.62 1454.1 1351.99 1454.1 M1351.99 1450.39 Q1357.8 1450.39 1360.86 1455 Q1363.93 1459.58 1363.93 1468.33 Q1363.93 1477.06 1360.86 1481.67 Q1357.8 1486.25 1351.99 1486.25 Q1346.18 1486.25 1343.1 1481.67 Q1340.05 1477.06 1340.05 1468.33 Q1340.05 1459.58 1343.1 1455 Q1346.18 1450.39 1351.99 1450.39 Z" fill="#000000" fill-rule="nonzero" fill-opacity="1" /><path clip-path="url(#clip770)" d="M1372.15 1479.7 L1377.04 1479.7 L1377.04 1485.58 L1372.15 1485.58 L1372.15 1479.7 Z" fill="#000000" fill-rule="nonzero" fill-opacity="1" /><path clip-path="url(#clip770)" d="M1391.25 1481.64 L1407.57 1481.64 L1407.57 1485.58 L1385.62 1485.58 L1385.62 1481.64 Q1388.29 1478.89 1392.87 1474.26 Q1397.48 1469.61 1398.66 1468.27 Q1400.9 1465.74 1401.78 1464.01 Q1402.68 1462.25 1402.68 1460.56 Q1402.68 1457.8 1400.74 1456.07 Q1398.82 1454.33 1395.72 1454.33 Q1393.52 1454.33 1391.06 1455.09 Q1388.63 1455.86 1385.86 1457.41 L1385.86 1452.69 Q1388.68 1451.55 1391.13 1450.97 Q1393.59 1450.39 1395.62 1450.39 Q1400.99 1450.39 1404.19 1453.08 Q1407.38 1455.77 1407.38 1460.26 Q1407.38 1462.39 1406.57 1464.31 Q1405.79 1466.2 1403.68 1468.8 Q1403.1 1469.47 1400 1472.69 Q1396.9 1475.88 1391.25 1481.64 Z" fill="#000000" fill-rule="nonzero" fill-opacity="1" /><path clip-path="url(#clip770)" d="M1417.43 1451.02 L1435.79 1451.02 L1435.79 1454.96 L1421.71 1454.96 L1421.71 1463.43 Q1422.73 1463.08 1423.75 1462.92 Q1424.77 1462.73 1425.79 1462.73 Q1431.57 1462.73 1434.95 1465.9 Q1438.33 1469.08 1438.33 1474.49 Q1438.33 1480.07 1434.86 1483.17 Q1431.39 1486.25 1425.07 1486.25 Q1422.89 1486.25 1420.62 1485.88 Q1418.38 1485.51 1415.97 1484.77 L1415.97 1480.07 Q1418.05 1481.2 1420.28 1481.76 Q1422.5 1482.32 1424.98 1482.32 Q1428.98 1482.32 1431.32 1480.21 Q1433.66 1478.1 1433.66 1474.49 Q1433.66 1470.88 1431.32 1468.77 Q1428.98 1466.67 1424.98 1466.67 Q1423.1 1466.67 1421.23 1467.08 Q1419.37 1467.5 1417.43 1468.38 L1417.43 1451.02 Z" fill="#000000" fill-rule="nonzero" fill-opacity="1" /><path clip-path="url(#clip770)" d="M1730.38 1454.1 Q1726.77 1454.1 1724.94 1457.66 Q1723.13 1461.2 1723.13 1468.33 Q1723.13 1475.44 1724.94 1479.01 Q1726.77 1482.55 1730.38 1482.55 Q1734.01 1482.55 1735.82 1479.01 Q1737.65 1475.44 1737.65 1468.33 Q1737.65 1461.2 1735.82 1457.66 Q1734.01 1454.1 1730.38 1454.1 M1730.38 1450.39 Q1736.19 1450.39 1739.24 1455 Q1742.32 1459.58 1742.32 1468.33 Q1742.32 1477.06 1739.24 1481.67 Q1736.19 1486.25 1730.38 1486.25 Q1724.57 1486.25 1721.49 1481.67 Q1718.43 1477.06 1718.43 1468.33 Q1718.43 1459.58 1721.49 1455 Q1724.57 1450.39 1730.38 1450.39 Z" fill="#000000" fill-rule="nonzero" fill-opacity="1" /><path clip-path="url(#clip770)" d="M1750.54 1479.7 L1755.42 1479.7 L1755.42 1485.58 L1750.54 1485.58 L1750.54 1479.7 Z" fill="#000000" fill-rule="nonzero" fill-opacity="1" /><path clip-path="url(#clip770)" d="M1779.78 1466.95 Q1783.13 1467.66 1785.01 1469.93 Q1786.91 1472.2 1786.91 1475.53 Q1786.91 1480.65 1783.39 1483.45 Q1779.87 1486.25 1773.39 1486.25 Q1771.21 1486.25 1768.9 1485.81 Q1766.61 1485.39 1764.15 1484.54 L1764.15 1480.02 Q1766.1 1481.16 1768.41 1481.74 Q1770.73 1482.32 1773.25 1482.32 Q1777.65 1482.32 1779.94 1480.58 Q1782.25 1478.84 1782.25 1475.53 Q1782.25 1472.48 1780.1 1470.77 Q1777.97 1469.03 1774.15 1469.03 L1770.12 1469.03 L1770.12 1465.19 L1774.34 1465.19 Q1777.79 1465.19 1779.61 1463.82 Q1781.44 1462.43 1781.44 1459.84 Q1781.44 1457.18 1779.54 1455.77 Q1777.67 1454.33 1774.15 1454.33 Q1772.23 1454.33 1770.03 1454.75 Q1767.83 1455.16 1765.19 1456.04 L1765.19 1451.88 Q1767.86 1451.14 1770.17 1450.77 Q1772.51 1450.39 1774.57 1450.39 Q1779.89 1450.39 1782.99 1452.83 Q1786.1 1455.23 1786.1 1459.35 Q1786.1 1462.22 1784.45 1464.21 Q1782.81 1466.18 1779.78 1466.95 Z" fill="#000000" fill-rule="nonzero" fill-opacity="1" /><path clip-path="url(#clip770)" d="M1805.77 1454.1 Q1802.16 1454.1 1800.33 1457.66 Q1798.53 1461.2 1798.53 1468.33 Q1798.53 1475.44 1800.33 1479.01 Q1802.16 1482.55 1805.77 1482.55 Q1809.41 1482.55 1811.21 1479.01 Q1813.04 1475.44 1813.04 1468.33 Q1813.04 1461.2 1811.21 1457.66 Q1809.41 1454.1 1805.77 1454.1 M1805.77 1450.39 Q1811.58 1450.39 1814.64 1455 Q1817.72 1459.58 1817.72 1468.33 Q1817.72 1477.06 1814.64 1481.67 Q1811.58 1486.25 1805.77 1486.25 Q1799.96 1486.25 1796.88 1481.67 Q1793.83 1477.06 1793.83 1468.33 Q1793.83 1459.58 1796.88 1455 Q1799.96 1450.39 1805.77 1450.39 Z" fill="#000000" fill-rule="nonzero" fill-opacity="1" /><path clip-path="url(#clip770)" d="M2109.76 1454.1 Q2106.15 1454.1 2104.32 1457.66 Q2102.52 1461.2 2102.52 1468.33 Q2102.52 1475.44 2104.32 1479.01 Q2106.15 1482.55 2109.76 1482.55 Q2113.4 1482.55 2115.2 1479.01 Q2117.03 1475.44 2117.03 1468.33 Q2117.03 1461.2 2115.2 1457.66 Q2113.4 1454.1 2109.76 1454.1 M2109.76 1450.39 Q2115.57 1450.39 2118.63 1455 Q2121.71 1459.58 2121.71 1468.33 Q2121.71 1477.06 2118.63 1481.67 Q2115.57 1486.25 2109.76 1486.25 Q2103.95 1486.25 2100.87 1481.67 Q2097.82 1477.06 2097.82 1468.33 Q2097.82 1459.58 2100.87 1455 Q2103.95 1450.39 2109.76 1450.39 Z" fill="#000000" fill-rule="nonzero" fill-opacity="1" /><path clip-path="url(#clip770)" d="M2129.92 1479.7 L2134.81 1479.7 L2134.81 1485.58 L2129.92 1485.58 L2129.92 1479.7 Z" fill="#000000" fill-rule="nonzero" fill-opacity="1" /><path clip-path="url(#clip770)" d="M2159.16 1466.95 Q2162.52 1467.66 2164.39 1469.93 Q2166.29 1472.2 2166.29 1475.53 Q2166.29 1480.65 2162.77 1483.45 Q2159.25 1486.25 2152.77 1486.25 Q2150.59 1486.25 2148.28 1485.81 Q2145.99 1485.39 2143.53 1484.54 L2143.53 1480.02 Q2145.48 1481.16 2147.79 1481.74 Q2150.11 1482.32 2152.63 1482.32 Q2157.03 1482.32 2159.32 1480.58 Q2161.64 1478.84 2161.64 1475.53 Q2161.64 1472.48 2159.48 1470.77 Q2157.35 1469.03 2153.53 1469.03 L2149.51 1469.03 L2149.51 1465.19 L2153.72 1465.19 Q2157.17 1465.19 2159 1463.82 Q2160.83 1462.43 2160.83 1459.84 Q2160.83 1457.18 2158.93 1455.77 Q2157.05 1454.33 2153.53 1454.33 Q2151.61 1454.33 2149.41 1454.75 Q2147.22 1455.16 2144.58 1456.04 L2144.58 1451.88 Q2147.24 1451.14 2149.55 1450.77 Q2151.89 1450.39 2153.95 1450.39 Q2159.28 1450.39 2162.38 1452.83 Q2165.48 1455.23 2165.48 1459.35 Q2165.48 1462.22 2163.84 1464.21 Q2162.19 1466.18 2159.16 1466.95 Z" fill="#000000" fill-rule="nonzero" fill-opacity="1" /><path clip-path="url(#clip770)" d="M2175.2 1451.02 L2193.56 1451.02 L2193.56 1454.96 L2179.48 1454.96 L2179.48 1463.43 Q2180.5 1463.08 2181.52 1462.92 Q2182.54 1462.73 2183.56 1462.73 Q2189.34 1462.73 2192.72 1465.9 Q2196.1 1469.08 2196.1 1474.49 Q2196.1 1480.07 2192.63 1483.17 Q2189.16 1486.25 2182.84 1486.25 Q2180.66 1486.25 2178.4 1485.88 Q2176.15 1485.51 2173.74 1484.77 L2173.74 1480.07 Q2175.83 1481.2 2178.05 1481.76 Q2180.27 1482.32 2182.75 1482.32 Q2186.75 1482.32 2189.09 1480.21 Q2191.43 1478.1 2191.43 1474.49 Q2191.43 1470.88 2189.09 1468.77 Q2186.75 1466.67 2182.75 1466.67 Q2180.87 1466.67 2179 1467.08 Q2177.15 1467.5 2175.2 1468.38 L2175.2 1451.02 Z" fill="#000000" fill-rule="nonzero" fill-opacity="1" /><path clip-path="url(#clip770)" d="M972.221 1525.81 L972.221 1562.76 L979.987 1562.76 Q989.823 1562.76 994.374 1558.3 Q998.957 1553.85 998.957 1544.24 Q998.957 1534.69 994.374 1530.26 Q989.823 1525.81 979.987 1525.81 L972.221 1525.81 M965.792 1520.52 L979.001 1520.52 Q992.814 1520.52 999.276 1526.28 Q1005.74 1532.01 1005.74 1544.24 Q1005.74 1556.52 999.244 1562.28 Q992.751 1568.04 979.001 1568.04 L965.792 1568.04 L965.792 1520.52 Z" fill="#000000" fill-rule="nonzero" fill-opacity="1" /><path clip-path="url(#clip770)" d="M1046.22 1548.76 L1046.22 1551.62 L1019.3 1551.62 Q1019.68 1557.67 1022.92 1560.85 Q1026.2 1564 1032.03 1564 Q1035.4 1564 1038.55 1563.17 Q1041.73 1562.35 1044.85 1560.69 L1044.85 1566.23 Q1041.7 1567.57 1038.39 1568.27 Q1035.08 1568.97 1031.68 1568.97 Q1023.15 1568.97 1018.15 1564 Q1013.18 1559.04 1013.18 1550.57 Q1013.18 1541.82 1017.9 1536.69 Q1022.64 1531.54 1030.66 1531.54 Q1037.85 1531.54 1042.02 1536.18 Q1046.22 1540.8 1046.22 1548.76 M1040.37 1547.04 Q1040.3 1542.23 1037.66 1539.37 Q1035.05 1536.5 1030.72 1536.5 Q1025.82 1536.5 1022.86 1539.27 Q1019.93 1542.04 1019.49 1547.07 L1040.37 1547.04 Z" fill="#000000" fill-rule="nonzero" fill-opacity="1" /><path clip-path="url(#clip770)" d="M1055.83 1518.52 L1061.69 1518.52 L1061.69 1568.04 L1055.83 1568.04 L1055.83 1518.52 Z" fill="#000000" fill-rule="nonzero" fill-opacity="1" /><path clip-path="url(#clip770)" d="M1079.74 1522.27 L1079.74 1532.4 L1091.8 1532.4 L1091.8 1536.95 L1079.74 1536.95 L1079.74 1556.3 Q1079.74 1560.66 1080.92 1561.9 Q1082.13 1563.14 1085.79 1563.14 L1091.8 1563.14 L1091.8 1568.04 L1085.79 1568.04 Q1079.01 1568.04 1076.43 1565.53 Q1073.85 1562.98 1073.85 1556.3 L1073.85 1536.95 L1069.55 1536.95 L1069.55 1532.4 L1073.85 1532.4 L1073.85 1522.27 L1079.74 1522.27 Z" fill="#000000" fill-rule="nonzero" fill-opacity="1" /><path clip-path="url(#clip770)" d="M1115.7 1550.12 Q1108.61 1550.12 1105.87 1551.75 Q1103.13 1553.37 1103.13 1557.29 Q1103.13 1560.4 1105.17 1562.25 Q1107.24 1564.07 1110.77 1564.07 Q1115.64 1564.07 1118.57 1560.63 Q1121.53 1557.16 1121.53 1551.43 L1121.53 1550.12 L1115.7 1550.12 M1127.39 1547.71 L1127.39 1568.04 L1121.53 1568.04 L1121.53 1562.63 Q1119.52 1565.88 1116.53 1567.44 Q1113.54 1568.97 1109.21 1568.97 Q1103.74 1568.97 1100.49 1565.91 Q1097.28 1562.82 1097.28 1557.67 Q1097.28 1551.65 1101.29 1548.6 Q1105.33 1545.54 1113.32 1545.54 L1121.53 1545.54 L1121.53 1544.97 Q1121.53 1540.93 1118.86 1538.73 Q1116.21 1536.5 1111.41 1536.5 Q1108.35 1536.5 1105.46 1537.23 Q1102.56 1537.97 1099.89 1539.43 L1099.89 1534.02 Q1103.1 1532.78 1106.12 1532.17 Q1109.15 1531.54 1112.01 1531.54 Q1119.75 1531.54 1123.57 1535.55 Q1127.39 1539.56 1127.39 1547.71 Z" fill="#000000" fill-rule="nonzero" fill-opacity="1" /><path clip-path="url(#clip770)" d="M1176.37 1550.12 Q1169.27 1550.12 1166.53 1551.75 Q1163.8 1553.37 1163.8 1557.29 Q1163.8 1560.4 1165.83 1562.25 Q1167.9 1564.07 1171.44 1564.07 Q1176.31 1564.07 1179.23 1560.63 Q1182.19 1557.16 1182.19 1551.43 L1182.19 1550.12 L1176.37 1550.12 M1188.05 1547.71 L1188.05 1568.04 L1182.19 1568.04 L1182.19 1562.63 Q1180.19 1565.88 1177.2 1567.44 Q1174.21 1568.97 1169.88 1568.97 Q1164.4 1568.97 1161.16 1565.91 Q1157.94 1562.82 1157.94 1557.67 Q1157.94 1551.65 1161.95 1548.6 Q1165.99 1545.54 1173.98 1545.54 L1182.19 1545.54 L1182.19 1544.97 Q1182.19 1540.93 1179.52 1538.73 Q1176.88 1536.5 1172.07 1536.5 Q1169.02 1536.5 1166.12 1537.23 Q1163.22 1537.97 1160.55 1539.43 L1160.55 1534.02 Q1163.77 1532.78 1166.79 1532.17 Q1169.81 1531.54 1172.68 1531.54 Q1180.41 1531.54 1184.23 1535.55 Q1188.05 1539.56 1188.05 1547.71 Z" fill="#000000" fill-rule="nonzero" fill-opacity="1" /><path clip-path="url(#clip770)" d="M1227.2 1578.87 L1227.2 1583.42 L1193.33 1583.42 L1193.33 1578.87 L1227.2 1578.87 Z" fill="#000000" fill-rule="nonzero" fill-opacity="1" /><path clip-path="url(#clip770)" d="M1229.3 1532.4 L1235.16 1532.4 L1242.48 1560.21 L1249.77 1532.4 L1256.67 1532.4 L1263.99 1560.21 L1271.28 1532.4 L1277.14 1532.4 L1267.81 1568.04 L1260.91 1568.04 L1253.24 1538.83 L1245.53 1568.04 L1238.63 1568.04 L1229.3 1532.4 Z" fill="#000000" fill-rule="nonzero" fill-opacity="1" /><path clip-path="url(#clip770)" d="M1306.2 1518.52 L1319.69 1518.52 L1319.69 1523.07 L1312.05 1523.07 L1312.05 1572.09 L1319.69 1572.09 L1319.69 1576.64 L1306.2 1576.64 L1306.2 1518.52 Z" fill="#000000" fill-rule="nonzero" fill-opacity="1" /><path clip-path="url(#clip770)" d="M1331.57 1553.98 L1331.57 1532.4 L1337.42 1532.4 L1337.42 1553.75 Q1337.42 1558.81 1339.4 1561.36 Q1341.37 1563.87 1345.32 1563.87 Q1350.06 1563.87 1352.8 1560.85 Q1355.56 1557.83 1355.56 1552.61 L1355.56 1532.4 L1361.42 1532.4 L1361.42 1568.04 L1355.56 1568.04 L1355.56 1562.57 Q1353.43 1565.82 1350.6 1567.41 Q1347.8 1568.97 1344.07 1568.97 Q1337.93 1568.97 1334.75 1565.15 Q1331.57 1561.33 1331.57 1553.98 M1346.3 1531.54 L1346.3 1531.54 Z" fill="#000000" fill-rule="nonzero" fill-opacity="1" /><path clip-path="url(#clip770)" d="M1403.12 1546.53 L1403.12 1568.04 L1397.26 1568.04 L1397.26 1546.72 Q1397.26 1541.66 1395.29 1539.14 Q1393.31 1536.63 1389.37 1536.63 Q1384.62 1536.63 1381.89 1539.65 Q1379.15 1542.68 1379.15 1547.9 L1379.15 1568.04 L1373.26 1568.04 L1373.26 1532.4 L1379.15 1532.4 L1379.15 1537.93 Q1381.25 1534.72 1384.08 1533.13 Q1386.95 1531.54 1390.67 1531.54 Q1396.81 1531.54 1399.96 1535.36 Q1403.12 1539.14 1403.12 1546.53 Z" fill="#000000" fill-rule="nonzero" fill-opacity="1" /><path clip-path="url(#clip770)" d="M1414.8 1532.4 L1420.65 1532.4 L1420.65 1568.04 L1414.8 1568.04 L1414.8 1532.4 M1414.8 1518.52 L1420.65 1518.52 L1420.65 1525.93 L1414.8 1525.93 L1414.8 1518.52 Z" fill="#000000" fill-rule="nonzero" fill-opacity="1" /><path clip-path="url(#clip770)" d="M1438.7 1522.27 L1438.7 1532.4 L1450.76 1532.4 L1450.76 1536.95 L1438.7 1536.95 L1438.7 1556.3 Q1438.7 1560.66 1439.88 1561.9 Q1441.09 1563.14 1444.75 1563.14 L1450.76 1563.14 L1450.76 1568.04 L1444.75 1568.04 Q1437.97 1568.04 1435.39 1565.53 Q1432.81 1562.98 1432.81 1556.3 L1432.81 1536.95 L1428.52 1536.95 L1428.52 1532.4 L1432.81 1532.4 L1432.81 1522.27 L1438.7 1522.27 Z" fill="#000000" fill-rule="nonzero" fill-opacity="1" /><path clip-path="url(#clip770)" d="M1458.47 1518.52 L1464.32 1518.52 L1464.32 1568.04 L1458.47 1568.04 L1458.47 1518.52 Z" fill="#000000" fill-rule="nonzero" fill-opacity="1" /><path clip-path="url(#clip770)" d="M1507.07 1548.76 L1507.07 1551.62 L1480.14 1551.62 Q1480.52 1557.67 1483.77 1560.85 Q1487.05 1564 1492.87 1564 Q1496.25 1564 1499.4 1563.17 Q1502.58 1562.35 1505.7 1560.69 L1505.7 1566.23 Q1502.55 1567.57 1499.24 1568.27 Q1495.93 1568.97 1492.52 1568.97 Q1483.99 1568.97 1479 1564 Q1474.03 1559.04 1474.03 1550.57 Q1474.03 1541.82 1478.74 1536.69 Q1483.48 1531.54 1491.5 1531.54 Q1498.7 1531.54 1502.87 1536.18 Q1507.07 1540.8 1507.07 1548.76 M1501.21 1547.04 Q1501.15 1542.23 1498.51 1539.37 Q1495.9 1536.5 1491.57 1536.5 Q1486.67 1536.5 1483.71 1539.27 Q1480.78 1542.04 1480.33 1547.07 L1501.21 1547.04 Z" fill="#000000" fill-rule="nonzero" fill-opacity="1" /><path clip-path="url(#clip770)" d="M1539.41 1533.45 L1539.41 1538.98 Q1536.92 1537.71 1534.25 1537.07 Q1531.58 1536.44 1528.71 1536.44 Q1524.35 1536.44 1522.15 1537.77 Q1519.99 1539.11 1519.99 1541.79 Q1519.99 1543.82 1521.55 1545 Q1523.11 1546.15 1527.82 1547.2 L1529.83 1547.64 Q1536.06 1548.98 1538.67 1551.43 Q1541.32 1553.85 1541.32 1558.21 Q1541.32 1563.17 1537.37 1566.07 Q1533.45 1568.97 1526.58 1568.97 Q1523.71 1568.97 1520.6 1568.39 Q1517.51 1567.85 1514.07 1566.74 L1514.07 1560.69 Q1517.32 1562.38 1520.47 1563.24 Q1523.62 1564.07 1526.71 1564.07 Q1530.84 1564.07 1533.07 1562.66 Q1535.3 1561.23 1535.3 1558.65 Q1535.3 1556.27 1533.68 1554.99 Q1532.09 1553.72 1526.64 1552.54 L1524.61 1552.07 Q1519.16 1550.92 1516.74 1548.56 Q1514.32 1546.18 1514.32 1542.04 Q1514.32 1537.01 1517.89 1534.27 Q1521.45 1531.54 1528.01 1531.54 Q1531.26 1531.54 1534.12 1532.01 Q1536.99 1532.49 1539.41 1533.45 Z" fill="#000000" fill-rule="nonzero" fill-opacity="1" /><path clip-path="url(#clip770)" d="M1573.37 1533.45 L1573.37 1538.98 Q1570.88 1537.71 1568.21 1537.07 Q1565.54 1536.44 1562.67 1536.44 Q1558.31 1536.44 1556.12 1537.77 Q1553.95 1539.11 1553.95 1541.79 Q1553.95 1543.82 1555.51 1545 Q1557.07 1546.15 1561.78 1547.2 L1563.79 1547.64 Q1570.02 1548.98 1572.63 1551.43 Q1575.28 1553.85 1575.28 1558.21 Q1575.28 1563.17 1571.33 1566.07 Q1567.41 1568.97 1560.54 1568.97 Q1557.68 1568.97 1554.56 1568.39 Q1551.47 1567.85 1548.03 1566.74 L1548.03 1560.69 Q1551.28 1562.38 1554.43 1563.24 Q1557.58 1564.07 1560.67 1564.07 Q1564.8 1564.07 1567.03 1562.66 Q1569.26 1561.23 1569.26 1558.65 Q1569.26 1556.27 1567.64 1554.99 Q1566.05 1553.72 1560.6 1552.54 L1558.57 1552.07 Q1553.12 1550.92 1550.7 1548.56 Q1548.29 1546.18 1548.29 1542.04 Q1548.29 1537.01 1551.85 1534.27 Q1555.42 1531.54 1561.97 1531.54 Q1565.22 1531.54 1568.08 1532.01 Q1570.95 1532.49 1573.37 1533.45 Z" fill="#000000" fill-rule="nonzero" fill-opacity="1" /><path clip-path="url(#clip770)" d="M1598.29 1518.52 L1598.29 1576.64 L1584.79 1576.64 L1584.79 1572.09 L1592.4 1572.09 L1592.4 1523.07 L1584.79 1523.07 L1584.79 1518.52 L1598.29 1518.52 Z" fill="#000000" fill-rule="nonzero" fill-opacity="1" /><polyline clip-path="url(#clip770)" style="stroke:#000000; stroke-linecap:round; stroke-linejoin:round; stroke-width:4; stroke-opacity:1; fill:none" points="211.325,1423.18 211.325,47.2441 "/>
<polyline clip-path="url(#clip770)" style="stroke:#000000; stroke-linecap:round; stroke-linejoin:round; stroke-width:4; stroke-opacity:1; fill:none" points="211.325,1212.86 230.222,1212.86 "/>
<polyline clip-path="url(#clip770)" style="stroke:#000000; stroke-linecap:round; stroke-linejoin:round; stroke-width:4; stroke-opacity:1; fill:none" points="211.325,944.691 230.222,944.691 "/>
<polyline clip-path="url(#clip770)" style="stroke:#000000; stroke-linecap:round; stroke-linejoin:round; stroke-width:4; stroke-opacity:1; fill:none" points="211.325,676.527 230.222,676.527 "/>
<polyline clip-path="url(#clip770)" style="stroke:#000000; stroke-linecap:round; stroke-linejoin:round; stroke-width:4; stroke-opacity:1; fill:none" points="211.325,408.363 230.222,408.363 "/>
<polyline clip-path="url(#clip770)" style="stroke:#000000; stroke-linecap:round; stroke-linejoin:round; stroke-width:4; stroke-opacity:1; fill:none" points="211.325,140.198 230.222,140.198 "/>
<path clip-path="url(#clip770)" d="M114.26 1213.31 L143.936 1213.31 L143.936 1217.24 L114.26 1217.24 L114.26 1213.31 Z" fill="#000000" fill-rule="nonzero" fill-opacity="1" /><path clip-path="url(#clip770)" d="M168.195 1211.5 Q171.552 1212.22 173.427 1214.49 Q175.325 1216.76 175.325 1220.09 Q175.325 1225.2 171.806 1228.01 Q168.288 1230.81 161.806 1230.81 Q159.63 1230.81 157.315 1230.37 Q155.024 1229.95 152.57 1229.09 L152.57 1224.58 Q154.515 1225.71 156.829 1226.29 Q159.144 1226.87 161.667 1226.87 Q166.065 1226.87 168.357 1225.14 Q170.672 1223.4 170.672 1220.09 Q170.672 1217.03 168.519 1215.32 Q166.39 1213.58 162.57 1213.58 L158.542 1213.58 L158.542 1209.74 L162.755 1209.74 Q166.204 1209.74 168.033 1208.38 Q169.862 1206.99 169.862 1204.39 Q169.862 1201.73 167.964 1200.32 Q166.089 1198.89 162.57 1198.89 Q160.649 1198.89 158.45 1199.3 Q156.251 1199.72 153.612 1200.6 L153.612 1196.43 Q156.274 1195.69 158.589 1195.32 Q160.927 1194.95 162.987 1194.95 Q168.311 1194.95 171.413 1197.38 Q174.514 1199.79 174.514 1203.91 Q174.514 1206.78 172.871 1208.77 Q171.227 1210.74 168.195 1211.5 Z" fill="#000000" fill-rule="nonzero" fill-opacity="1" /><path clip-path="url(#clip770)" d="M163.38 930.49 Q159.769 930.49 157.94 934.055 Q156.135 937.596 156.135 944.726 Q156.135 951.832 157.94 955.397 Q159.769 958.939 163.38 958.939 Q167.015 958.939 168.82 955.397 Q170.649 951.832 170.649 944.726 Q170.649 937.596 168.82 934.055 Q167.015 930.49 163.38 930.49 M163.38 926.786 Q169.19 926.786 172.246 931.393 Q175.325 935.976 175.325 944.726 Q175.325 953.453 172.246 958.059 Q169.19 962.642 163.38 962.642 Q157.57 962.642 154.491 958.059 Q151.436 953.453 151.436 944.726 Q151.436 935.976 154.491 931.393 Q157.57 926.786 163.38 926.786 Z" fill="#000000" fill-rule="nonzero" fill-opacity="1" /><path clip-path="url(#clip770)" d="M168.195 675.173 Q171.552 675.89 173.427 678.159 Q175.325 680.427 175.325 683.761 Q175.325 688.876 171.806 691.677 Q168.288 694.478 161.806 694.478 Q159.63 694.478 157.315 694.038 Q155.024 693.622 152.57 692.765 L152.57 688.251 Q154.515 689.386 156.829 689.964 Q159.144 690.543 161.667 690.543 Q166.065 690.543 168.357 688.807 Q170.672 687.071 170.672 683.761 Q170.672 680.705 168.519 678.992 Q166.39 677.256 162.57 677.256 L158.542 677.256 L158.542 673.413 L162.755 673.413 Q166.204 673.413 168.033 672.048 Q169.862 670.659 169.862 668.066 Q169.862 665.404 167.964 663.992 Q166.089 662.557 162.57 662.557 Q160.649 662.557 158.45 662.974 Q156.251 663.39 153.612 664.27 L153.612 660.103 Q156.274 659.363 158.589 658.992 Q160.927 658.622 162.987 658.622 Q168.311 658.622 171.413 661.052 Q174.514 663.46 174.514 667.58 Q174.514 670.451 172.871 672.441 Q171.227 674.409 168.195 675.173 Z" fill="#000000" fill-rule="nonzero" fill-opacity="1" /><path clip-path="url(#clip770)" d="M163.797 406.499 Q160.649 406.499 158.797 408.652 Q156.968 410.805 156.968 414.555 Q156.968 418.282 158.797 420.457 Q160.649 422.61 163.797 422.61 Q166.945 422.61 168.774 420.457 Q170.626 418.282 170.626 414.555 Q170.626 410.805 168.774 408.652 Q166.945 406.499 163.797 406.499 M173.079 391.847 L173.079 396.106 Q171.32 395.272 169.514 394.833 Q167.732 394.393 165.973 394.393 Q161.343 394.393 158.89 397.518 Q156.459 400.643 156.112 406.962 Q157.478 404.948 159.538 403.883 Q161.598 402.796 164.075 402.796 Q169.283 402.796 172.292 405.967 Q175.325 409.115 175.325 414.555 Q175.325 419.879 172.177 423.096 Q169.028 426.314 163.797 426.314 Q157.802 426.314 154.63 421.731 Q151.459 417.124 151.459 408.397 Q151.459 400.203 155.348 395.342 Q159.237 390.458 165.788 390.458 Q167.547 390.458 169.329 390.805 Q171.135 391.152 173.079 391.847 Z" fill="#000000" fill-rule="nonzero" fill-opacity="1" /><path clip-path="url(#clip770)" d="M153.704 156.761 L153.704 152.502 Q155.464 153.335 157.269 153.775 Q159.075 154.215 160.811 154.215 Q165.44 154.215 167.871 151.113 Q170.325 147.988 170.672 141.645 Q169.329 143.636 167.269 144.701 Q165.209 145.765 162.709 145.765 Q157.524 145.765 154.491 142.64 Q151.482 139.492 151.482 134.053 Q151.482 128.729 154.63 125.511 Q157.778 122.293 163.01 122.293 Q169.005 122.293 172.153 126.9 Q175.325 131.483 175.325 140.233 Q175.325 148.404 171.436 153.289 Q167.57 158.15 161.019 158.15 Q159.26 158.15 157.454 157.802 Q155.649 157.455 153.704 156.761 M163.01 142.108 Q166.158 142.108 167.987 139.955 Q169.839 137.803 169.839 134.053 Q169.839 130.326 167.987 128.173 Q166.158 125.997 163.01 125.997 Q159.862 125.997 158.01 128.173 Q156.181 130.326 156.181 134.053 Q156.181 137.803 158.01 139.955 Q159.862 142.108 163.01 142.108 Z" fill="#000000" fill-rule="nonzero" fill-opacity="1" /><path clip-path="url(#clip770)" d="M14.479 1087.95 L14.479 1082.1 L64.0042 1082.1 L64.0042 1087.95 L14.479 1087.95 Z" fill="#000000" fill-rule="nonzero" fill-opacity="1" /><path clip-path="url(#clip770)" d="M32.4621 1056.03 Q32.4621 1060.74 36.1542 1063.48 Q39.8145 1066.21 46.212 1066.21 Q52.6095 1066.21 56.3017 1063.51 Q59.9619 1060.77 59.9619 1056.03 Q59.9619 1051.35 56.2698 1048.61 Q52.5777 1045.87 46.212 1045.87 Q39.8781 1045.87 36.186 1048.61 Q32.4621 1051.35 32.4621 1056.03 M27.4968 1056.03 Q27.4968 1048.39 32.4621 1044.03 Q37.4273 1039.67 46.212 1039.67 Q54.9649 1039.67 59.9619 1044.03 Q64.9272 1048.39 64.9272 1056.03 Q64.9272 1063.7 59.9619 1068.06 Q54.9649 1072.39 46.212 1072.39 Q37.4273 1072.39 32.4621 1068.06 Q27.4968 1063.7 27.4968 1056.03 Z" fill="#000000" fill-rule="nonzero" fill-opacity="1" /><path clip-path="url(#clip770)" d="M45.7664 1006.5 Q39.4007 1006.5 35.8996 1009.14 Q32.3984 1011.75 32.3984 1016.5 Q32.3984 1021.21 35.8996 1023.85 Q39.4007 1026.46 45.7664 1026.46 Q52.1003 1026.46 55.6014 1023.85 Q59.1026 1021.21 59.1026 1016.5 Q59.1026 1011.75 55.6014 1009.14 Q52.1003 1006.5 45.7664 1006.5 M59.58 1000.65 Q68.683 1000.65 73.1071 1004.69 Q77.5631 1008.73 77.5631 1017.07 Q77.5631 1020.16 77.0857 1022.89 Q76.6401 1025.63 75.6852 1028.21 L69.9879 1028.21 Q71.3884 1025.63 72.0568 1023.12 Q72.7252 1020.6 72.7252 1017.99 Q72.7252 1012.23 69.7015 1009.37 Q66.7096 1006.5 60.6303 1006.5 L57.7339 1006.5 Q60.885 1008.32 62.4446 1011.15 Q64.0042 1013.98 64.0042 1017.93 Q64.0042 1024.49 59.0071 1028.5 Q54.01 1032.51 45.7664 1032.51 Q37.491 1032.51 32.4939 1028.5 Q27.4968 1024.49 27.4968 1017.93 Q27.4968 1013.98 29.0564 1011.15 Q30.616 1008.32 33.7671 1006.5 L28.3562 1006.5 L28.3562 1000.65 L59.58 1000.65 Z" fill="#000000" fill-rule="nonzero" fill-opacity="1" /><path clip-path="url(#clip770)" d="M58.5933 986.641 L58.5933 976.138 L22.3406 976.138 L24.6323 987.564 L18.7758 987.564 L16.4842 976.202 L16.4842 969.772 L58.5933 969.772 L58.5933 959.269 L64.0042 959.269 L64.0042 986.641 L58.5933 986.641 Z" fill="#000000" fill-rule="nonzero" fill-opacity="1" /><path clip-path="url(#clip770)" d="M20.7174 932.533 Q20.7174 937.498 25.6189 940.013 Q30.4887 942.495 40.2919 942.495 Q50.0633 942.495 54.9649 940.013 Q59.8346 937.498 59.8346 932.533 Q59.8346 927.536 54.9649 925.053 Q50.0633 922.539 40.2919 922.539 Q30.4887 922.539 25.6189 925.053 Q20.7174 927.536 20.7174 932.533 M15.6248 932.533 Q15.6248 924.544 21.9587 920.343 Q28.2607 916.109 40.2919 916.109 Q52.2913 916.109 58.6251 920.343 Q64.9272 924.544 64.9272 932.533 Q64.9272 940.522 58.6251 944.755 Q52.2913 948.956 40.2919 948.956 Q28.2607 948.956 21.9587 944.755 Q15.6248 940.522 15.6248 932.533 Z" fill="#000000" fill-rule="nonzero" fill-opacity="1" /><path clip-path="url(#clip770)" d="M14.5426 891.57 Q21.8632 895.835 29.0246 897.904 Q36.186 899.972 43.5384 899.972 Q50.8908 899.972 58.1159 897.904 Q65.3091 895.803 72.5979 891.57 L72.5979 896.662 Q65.1182 901.436 57.8931 903.824 Q50.668 906.179 43.5384 906.179 Q36.4406 906.179 29.2474 903.824 Q22.0542 901.468 14.5426 896.662 L14.5426 891.57 Z" fill="#000000" fill-rule="nonzero" fill-opacity="1" /><path clip-path="url(#clip770)" d="M16.4842 879.952 L16.4842 873.523 L60.694 873.523 Q69.2877 873.523 73.1708 876.801 Q77.0539 880.048 77.0539 887.273 L77.0539 889.724 L71.643 889.724 L71.643 887.718 Q71.643 883.453 69.2559 881.703 Q66.8687 879.952 60.694 879.952 L16.4842 879.952 Z" fill="#000000" fill-rule="nonzero" fill-opacity="1" /><path clip-path="url(#clip770)" d="M14.5426 861.905 L14.5426 856.813 Q22.0542 852.039 29.2474 849.683 Q36.4406 847.296 43.5384 847.296 Q50.668 847.296 57.8931 849.683 Q65.1182 852.039 72.5979 856.813 L72.5979 861.905 Q65.3091 857.672 58.1159 855.603 Q50.8908 853.503 43.5384 853.503 Q36.186 853.503 29.0246 855.603 Q21.8632 857.672 14.5426 861.905 Z" fill="#000000" fill-rule="nonzero" fill-opacity="1" /><path clip-path="url(#clip770)" d="M14.479 815.372 L14.479 801.877 L19.0304 801.877 L19.0304 809.516 L68.0464 809.516 L68.0464 801.877 L72.5979 801.877 L72.5979 815.372 L14.479 815.372 Z" fill="#000000" fill-rule="nonzero" fill-opacity="1" /><path clip-path="url(#clip770)" d="M29.7248 763.746 L35.1993 763.746 Q33.8307 766.229 33.1623 768.743 Q32.4621 771.226 32.4621 773.772 Q32.4621 779.47 36.0905 782.621 Q39.6872 785.772 46.212 785.772 Q52.7369 785.772 56.3653 782.621 Q59.9619 779.47 59.9619 773.772 Q59.9619 771.226 59.2935 768.743 Q58.5933 766.229 57.2247 763.746 L62.6355 763.746 Q63.7814 766.197 64.3543 768.839 Q64.9272 771.449 64.9272 774.409 Q64.9272 782.461 59.8664 787.204 Q54.8057 791.946 46.212 791.946 Q37.491 791.946 32.4939 787.172 Q27.4968 782.366 27.4968 774.027 Q27.4968 771.321 28.0697 768.743 Q28.6108 766.165 29.7248 763.746 Z" fill="#000000" fill-rule="nonzero" fill-opacity="1" /><path clip-path="url(#clip770)" d="M35.1993 725.807 Q31.2526 723.61 29.3747 720.555 Q27.4968 717.499 27.4968 713.362 Q27.4968 707.792 31.4117 704.768 Q35.2948 701.744 42.4881 701.744 L64.0042 701.744 L64.0042 707.633 L42.679 707.633 Q37.5546 707.633 35.072 709.447 Q32.5894 711.261 32.5894 714.985 Q32.5894 719.536 35.6131 722.178 Q38.6368 724.82 43.8567 724.82 L64.0042 724.82 L64.0042 730.708 L42.679 730.708 Q37.5228 730.708 35.072 732.522 Q32.5894 734.337 32.5894 738.124 Q32.5894 742.612 35.6449 745.254 Q38.6686 747.896 43.8567 747.896 L64.0042 747.896 L64.0042 753.784 L28.3562 753.784 L28.3562 747.896 L33.8944 747.896 Q30.616 745.89 29.0564 743.09 Q27.4968 740.289 27.4968 736.437 Q27.4968 732.554 29.4702 729.849 Q31.4436 727.112 35.1993 725.807 Z" fill="#000000" fill-rule="nonzero" fill-opacity="1" /><path clip-path="url(#clip770)" d="M16.4842 665.778 L34.2127 648.495 L34.2127 654.893 L21.6404 668.897 L34.2127 682.902 L34.2127 689.299 L16.4842 672.016 L16.4842 665.778 Z" fill="#000000" fill-rule="nonzero" fill-opacity="1" /><path clip-path="url(#clip770)" d="M43.5384 638.405 L43.5384 621.25 L48.7583 621.25 L48.7583 638.405 L43.5384 638.405 Z" fill="#000000" fill-rule="nonzero" fill-opacity="1" /><path clip-path="url(#clip770)" d="M58.5933 605.558 L58.5933 583.119 L64.0042 583.119 L64.0042 613.293 L58.5933 613.293 Q54.8057 609.632 48.44 603.33 Q42.0425 596.997 40.1964 595.373 Q36.7271 592.286 34.34 591.076 Q31.921 589.835 29.5975 589.835 Q25.8099 589.835 23.4228 592.509 Q21.0356 595.151 21.0356 599.416 Q21.0356 602.439 22.086 605.813 Q23.1363 609.155 25.2688 612.974 L18.7758 612.974 Q17.2162 609.091 16.4205 605.718 Q15.6248 602.344 15.6248 599.543 Q15.6248 592.159 19.3169 587.766 Q23.009 583.374 29.1837 583.374 Q32.112 583.374 34.7537 584.488 Q37.3637 585.57 40.9285 588.467 Q41.8515 589.262 46.2757 593.527 Q50.668 597.792 58.5933 605.558 Z" fill="#000000" fill-rule="nonzero" fill-opacity="1" /><path clip-path="url(#clip770)" d="M29.4065 527.006 L34.9447 527.006 Q33.6716 529.488 33.035 532.162 Q32.3984 534.835 32.3984 537.7 Q32.3984 542.061 33.7352 544.257 Q35.072 546.421 37.7456 546.421 Q39.7826 546.421 40.9603 544.861 Q42.1061 543.302 43.1565 538.591 L43.6021 536.586 Q44.9389 530.348 47.3897 527.738 Q49.8086 525.096 54.1691 525.096 Q59.1344 525.096 62.0308 529.043 Q64.9272 532.958 64.9272 539.833 Q64.9272 542.697 64.3543 545.816 Q63.8132 548.904 62.6992 552.341 L56.6518 552.341 Q58.3387 549.095 59.198 545.944 Q60.0256 542.793 60.0256 539.705 Q60.0256 535.567 58.6251 533.339 Q57.1929 531.111 54.6147 531.111 Q52.2276 531.111 50.9545 532.735 Q49.6813 534.326 48.5037 539.769 L48.0262 541.806 Q46.8804 547.249 44.5251 549.668 Q42.138 552.087 38.0002 552.087 Q32.9713 552.087 30.2341 548.522 Q27.4968 544.957 27.4968 538.4 Q27.4968 535.154 27.9743 532.289 Q28.4517 529.425 29.4065 527.006 Z" fill="#000000" fill-rule="nonzero" fill-opacity="1" /><path clip-path="url(#clip770)" d="M16.4842 491.485 L34.2127 474.202 L34.2127 480.6 L21.6404 494.604 L34.2127 508.609 L34.2127 515.006 L16.4842 497.723 L16.4842 491.485 Z" fill="#000000" fill-rule="nonzero" fill-opacity="1" /><path clip-path="url(#clip770)" d="M43.5384 464.112 L43.5384 446.957 L48.7583 446.957 L48.7583 464.112 L43.5384 464.112 Z" fill="#000000" fill-rule="nonzero" fill-opacity="1" /><path clip-path="url(#clip770)" d="M58.5933 435.69 L58.5933 425.186 L22.3406 425.186 L24.6323 436.613 L18.7758 436.613 L16.4842 425.25 L16.4842 418.82 L58.5933 418.82 L58.5933 408.317 L64.0042 408.317 L64.0042 435.69 L58.5933 435.69 Z" fill="#000000" fill-rule="nonzero" fill-opacity="1" /><path clip-path="url(#clip770)" d="M14.479 382.472 L72.5979 382.472 L72.5979 395.968 L68.0464 395.968 L68.0464 388.361 L19.0304 388.361 L19.0304 395.968 L14.479 395.968 L14.479 382.472 Z" fill="#000000" fill-rule="nonzero" fill-opacity="1" /><polyline clip-path="url(#clip772)" style="stroke:#009af9; stroke-linecap:round; stroke-linejoin:round; stroke-width:4; stroke-opacity:1; fill:none" points="2292.15,86.1857 2283.67,91.6471 2275.2,97.0982 2266.75,102.539 2258.32,107.969 2249.9,113.39 2241.5,118.8 2233.11,124.201 2224.74,129.591 2216.39,134.973 2208.04,140.344 2199.72,145.706 2191.4,151.059 2183.11,156.403 2174.82,161.737 2166.55,167.063 2158.29,172.379 2150.05,177.687 2141.82,182.986 2133.61,188.277 2125.4,193.559 2117.21,198.833 2109.04,204.098 2100.87,209.356 2092.72,214.605 2084.58,219.846 2076.45,225.079 2068.34,230.305 2060.24,235.523 2052.14,240.733 2044.06,245.936 2036,251.132 2027.94,256.32 2019.89,261.501 2011.86,266.675 2003.83,271.841 1995.82,277.001 1987.82,282.154 1979.83,287.301 1971.85,292.441 1963.87,297.574 1955.91,302.7 1947.96,307.821 1940.02,312.935 1932.09,318.043 1924.16,323.144 1916.25,328.24 1908.35,333.33 1900.45,338.414 1892.56,343.492 1884.69,348.564 1876.82,353.631 1868.96,358.693 1861.11,363.749 1853.26,368.799 1845.43,373.844 1837.6,378.885 1829.78,383.92 1821.97,388.95 1814.17,393.975 1806.37,398.995 1798.58,404.01 1790.8,409.021 1783.03,414.027 1775.26,419.029 1767.5,424.026 1759.75,429.019 1752,434.007 1744.26,438.991 1736.52,443.971 1728.8,448.947 1721.08,453.919 1713.36,458.887 1705.65,463.851 1697.95,468.811 1690.25,473.768 1682.56,478.721 1674.87,483.67 1667.19,488.616 1659.52,493.558 1651.85,498.498 1644.18,503.433 1636.52,508.366 1628.87,513.295 1621.22,518.222 1613.57,523.145 1605.93,528.065 1598.29,532.983 1590.66,537.898 1583.03,542.81 1575.41,547.719 1567.79,552.626 1560.17,557.53 1552.56,562.432 1544.95,567.331 1537.35,572.228 1529.75,577.123 1522.15,582.015 1514.55,586.906 1506.96,591.794 "/>
<circle clip-path="url(#clip772)" cx="528.437" cy="1259.23" r="14.4" fill="#000000" fill-rule="evenodd" fill-opacity="1" stroke="none"/>
<circle clip-path="url(#clip772)" cx="722.729" cy="1231" r="14.4" fill="#000000" fill-rule="evenodd" fill-opacity="1" stroke="none"/>
<circle clip-path="url(#clip772)" cx="1126.85" cy="747.096" r="14.4" fill="#000000" fill-rule="evenodd" fill-opacity="1" stroke="none"/>
<circle clip-path="url(#clip772)" cx="1305.61" cy="714.836" r="14.4" fill="#000000" fill-rule="evenodd" fill-opacity="1" stroke="none"/>
<circle clip-path="url(#clip772)" cx="1352.29" cy="743.064" r="14.4" fill="#000000" fill-rule="evenodd" fill-opacity="1" stroke="none"/>
<circle clip-path="url(#clip772)" cx="1367.82" cy="626.12" r="14.4" fill="#000000" fill-rule="evenodd" fill-opacity="1" stroke="none"/>
<circle clip-path="url(#clip772)" cx="1391.16" cy="658.38" r="14.4" fill="#000000" fill-rule="evenodd" fill-opacity="1" stroke="none"/>
<circle clip-path="url(#clip772)" cx="1398.89" cy="743.064" r="14.4" fill="#000000" fill-rule="evenodd" fill-opacity="1" stroke="none"/>
<circle clip-path="url(#clip772)" cx="1406.69" cy="605.958" r="14.4" fill="#000000" fill-rule="evenodd" fill-opacity="1" stroke="none"/>
<circle clip-path="url(#clip772)" cx="1414.42" cy="549.502" r="14.4" fill="#000000" fill-rule="evenodd" fill-opacity="1" stroke="none"/>
<circle clip-path="url(#clip772)" cx="1429.96" cy="630.152" r="14.4" fill="#000000" fill-rule="evenodd" fill-opacity="1" stroke="none"/>
<circle clip-path="url(#clip772)" cx="1445.57" cy="690.64" r="14.4" fill="#000000" fill-rule="evenodd" fill-opacity="1" stroke="none"/>
<circle clip-path="url(#clip772)" cx="1453.3" cy="573.697" r="14.4" fill="#000000" fill-rule="evenodd" fill-opacity="1" stroke="none"/>
<circle clip-path="url(#clip772)" cx="1461.1" cy="654.348" r="14.4" fill="#000000" fill-rule="evenodd" fill-opacity="1" stroke="none"/>
<circle clip-path="url(#clip772)" cx="1468.83" cy="605.958" r="14.4" fill="#000000" fill-rule="evenodd" fill-opacity="1" stroke="none"/>
<circle clip-path="url(#clip772)" cx="1468.83" cy="553.534" r="14.4" fill="#000000" fill-rule="evenodd" fill-opacity="1" stroke="none"/>
<circle clip-path="url(#clip772)" cx="1499.98" cy="642.25" r="14.4" fill="#000000" fill-rule="evenodd" fill-opacity="1" stroke="none"/>
<circle clip-path="url(#clip772)" cx="1499.98" cy="545.469" r="14.4" fill="#000000" fill-rule="evenodd" fill-opacity="1" stroke="none"/>
<circle clip-path="url(#clip772)" cx="1531.04" cy="581.762" r="14.4" fill="#000000" fill-rule="evenodd" fill-opacity="1" stroke="none"/>
<circle clip-path="url(#clip772)" cx="1538.77" cy="521.274" r="14.4" fill="#000000" fill-rule="evenodd" fill-opacity="1" stroke="none"/>
<circle clip-path="url(#clip772)" cx="1546.58" cy="581.762" r="14.4" fill="#000000" fill-rule="evenodd" fill-opacity="1" stroke="none"/>
<circle clip-path="url(#clip772)" cx="1546.58" cy="622.088" r="14.4" fill="#000000" fill-rule="evenodd" fill-opacity="1" stroke="none"/>
<circle clip-path="url(#clip772)" cx="1554.31" cy="396.265" r="14.4" fill="#000000" fill-rule="evenodd" fill-opacity="1" stroke="none"/>
<circle clip-path="url(#clip772)" cx="1569.92" cy="541.436" r="14.4" fill="#000000" fill-rule="evenodd" fill-opacity="1" stroke="none"/>
<circle clip-path="url(#clip772)" cx="1593.18" cy="553.534" r="14.4" fill="#000000" fill-rule="evenodd" fill-opacity="1" stroke="none"/>
<circle clip-path="url(#clip772)" cx="1600.99" cy="513.209" r="14.4" fill="#000000" fill-rule="evenodd" fill-opacity="1" stroke="none"/>
<circle clip-path="url(#clip772)" cx="1600.99" cy="501.111" r="14.4" fill="#000000" fill-rule="evenodd" fill-opacity="1" stroke="none"/>
<circle clip-path="url(#clip772)" cx="1600.99" cy="476.916" r="14.4" fill="#000000" fill-rule="evenodd" fill-opacity="1" stroke="none"/>
<circle clip-path="url(#clip772)" cx="1639.86" cy="593.86" r="14.4" fill="#000000" fill-rule="evenodd" fill-opacity="1" stroke="none"/>
<circle clip-path="url(#clip772)" cx="1647.59" cy="464.818" r="14.4" fill="#000000" fill-rule="evenodd" fill-opacity="1" stroke="none"/>
<circle clip-path="url(#clip772)" cx="1647.59" cy="440.623" r="14.4" fill="#000000" fill-rule="evenodd" fill-opacity="1" stroke="none"/>
<circle clip-path="url(#clip772)" cx="1663.12" cy="424.493" r="14.4" fill="#000000" fill-rule="evenodd" fill-opacity="1" stroke="none"/>
<circle clip-path="url(#clip772)" cx="1670.93" cy="533.372" r="14.4" fill="#000000" fill-rule="evenodd" fill-opacity="1" stroke="none"/>
<circle clip-path="url(#clip772)" cx="1670.93" cy="501.111" r="14.4" fill="#000000" fill-rule="evenodd" fill-opacity="1" stroke="none"/>
<circle clip-path="url(#clip772)" cx="1702" cy="452.721" r="14.4" fill="#000000" fill-rule="evenodd" fill-opacity="1" stroke="none"/>
<circle clip-path="url(#clip772)" cx="1702" cy="408.363" r="14.4" fill="#000000" fill-rule="evenodd" fill-opacity="1" stroke="none"/>
<circle clip-path="url(#clip772)" cx="1709.8" cy="484.981" r="14.4" fill="#000000" fill-rule="evenodd" fill-opacity="1" stroke="none"/>
<circle clip-path="url(#clip772)" cx="1717.53" cy="428.525" r="14.4" fill="#000000" fill-rule="evenodd" fill-opacity="1" stroke="none"/>
<circle clip-path="url(#clip772)" cx="1748.68" cy="460.786" r="14.4" fill="#000000" fill-rule="evenodd" fill-opacity="1" stroke="none"/>
<circle clip-path="url(#clip772)" cx="1748.68" cy="400.297" r="14.4" fill="#000000" fill-rule="evenodd" fill-opacity="1" stroke="none"/>
<circle clip-path="url(#clip772)" cx="1748.68" cy="428.525" r="14.4" fill="#000000" fill-rule="evenodd" fill-opacity="1" stroke="none"/>
<circle clip-path="url(#clip772)" cx="1764.21" cy="484.981" r="14.4" fill="#000000" fill-rule="evenodd" fill-opacity="1" stroke="none"/>
<circle clip-path="url(#clip772)" cx="1795.28" cy="392.233" r="14.4" fill="#000000" fill-rule="evenodd" fill-opacity="1" stroke="none"/>
<circle clip-path="url(#clip772)" cx="1803.08" cy="420.46" r="14.4" fill="#000000" fill-rule="evenodd" fill-opacity="1" stroke="none"/>
<circle clip-path="url(#clip772)" cx="1810.81" cy="448.688" r="14.4" fill="#000000" fill-rule="evenodd" fill-opacity="1" stroke="none"/>
<circle clip-path="url(#clip772)" cx="1818.62" cy="472.883" r="14.4" fill="#000000" fill-rule="evenodd" fill-opacity="1" stroke="none"/>
<circle clip-path="url(#clip772)" cx="1849.69" cy="400.297" r="14.4" fill="#000000" fill-rule="evenodd" fill-opacity="1" stroke="none"/>
<circle clip-path="url(#clip772)" cx="1849.69" cy="428.525" r="14.4" fill="#000000" fill-rule="evenodd" fill-opacity="1" stroke="none"/>
<circle clip-path="url(#clip772)" cx="1849.69" cy="448.688" r="14.4" fill="#000000" fill-rule="evenodd" fill-opacity="1" stroke="none"/>
<polyline clip-path="url(#clip772)" style="stroke:#ff0000; stroke-linecap:round; stroke-linejoin:round; stroke-width:4; stroke-opacity:1; fill:none" points="271.931,1384.24 2199.4,142.215 1157.99,815.65 "/>
<path clip-path="url(#clip770)" d="M282.706 300.469 L1049.67 300.469 L1049.67 93.1086 L282.706 93.1086  Z" fill="#ffffff" fill-rule="evenodd" fill-opacity="1"/>
<polyline clip-path="url(#clip770)" style="stroke:#000000; stroke-linecap:round; stroke-linejoin:round; stroke-width:4; stroke-opacity:1; fill:none" points="282.706,300.469 1049.67,300.469 1049.67,93.1086 282.706,93.1086 282.706,300.469 "/>
<polyline clip-path="url(#clip770)" style="stroke:#009af9; stroke-linecap:round; stroke-linejoin:round; stroke-width:4; stroke-opacity:1; fill:none" points="306.499,144.949 449.261,144.949 "/>
<path clip-path="url(#clip770)" d="M500.925 130.331 L500.925 135.261 Q498.564 133.062 495.879 131.974 Q493.217 130.886 490.208 130.886 Q484.282 130.886 481.134 134.52 Q477.986 138.132 477.986 144.983 Q477.986 151.812 481.134 155.446 Q484.282 159.057 490.208 159.057 Q493.217 159.057 495.879 157.969 Q498.564 156.881 500.925 154.682 L500.925 159.567 Q498.472 161.233 495.717 162.067 Q492.986 162.9 489.93 162.9 Q482.083 162.9 477.569 158.108 Q473.055 153.293 473.055 144.983 Q473.055 136.65 477.569 131.858 Q482.083 127.044 489.93 127.044 Q493.032 127.044 495.763 127.877 Q498.518 128.687 500.925 130.331 Z" fill="#000000" fill-rule="nonzero" fill-opacity="1" /><path clip-path="url(#clip770)" d="M507.962 126.21 L512.222 126.21 L512.222 162.229 L507.962 162.229 L507.962 126.21 Z" fill="#000000" fill-rule="nonzero" fill-opacity="1" /><path clip-path="url(#clip770)" d="M521.134 136.303 L525.393 136.303 L525.393 162.229 L521.134 162.229 L521.134 136.303 M521.134 126.21 L525.393 126.21 L525.393 131.604 L521.134 131.604 L521.134 126.21 Z" fill="#000000" fill-rule="nonzero" fill-opacity="1" /><path clip-path="url(#clip770)" d="M534.49 127.669 L541.458 127.669 L550.277 151.187 L559.143 127.669 L566.11 127.669 L566.11 162.229 L561.55 162.229 L561.55 131.882 L552.638 155.585 L547.939 155.585 L539.027 131.882 L539.027 162.229 L534.49 162.229 L534.49 127.669 Z" fill="#000000" fill-rule="nonzero" fill-opacity="1" /><path clip-path="url(#clip770)" d="M586.943 132.275 L580.601 149.474 L593.309 149.474 L586.943 132.275 M584.305 127.669 L589.605 127.669 L602.777 162.229 L597.916 162.229 L594.767 153.363 L579.189 153.363 L576.041 162.229 L571.11 162.229 L584.305 127.669 Z" fill="#000000" fill-rule="nonzero" fill-opacity="1" /><circle clip-path="url(#clip770)" cx="377.88" cy="196.789" r="20.48" fill="#000000" fill-rule="evenodd" fill-opacity="1" stroke="none"/>
<path clip-path="url(#clip770)" d="M477.338 210.18 L477.338 223.93 L473.055 223.93 L473.055 188.143 L477.338 188.143 L477.338 192.078 Q478.68 189.763 480.717 188.652 Q482.777 187.518 485.625 187.518 Q490.347 187.518 493.287 191.268 Q496.249 195.018 496.249 201.129 Q496.249 207.24 493.287 210.99 Q490.347 214.74 485.625 214.74 Q482.777 214.74 480.717 213.629 Q478.68 212.495 477.338 210.18 M491.828 201.129 Q491.828 196.43 489.884 193.768 Q487.962 191.083 484.583 191.083 Q481.203 191.083 479.259 193.768 Q477.338 196.43 477.338 201.129 Q477.338 205.828 479.259 208.513 Q481.203 211.175 484.583 211.175 Q487.962 211.175 489.884 208.513 Q491.828 205.828 491.828 201.129 Z" fill="#000000" fill-rule="nonzero" fill-opacity="1" /><path clip-path="url(#clip770)" d="M515.092 201.036 Q509.93 201.036 507.939 202.217 Q505.948 203.397 505.948 206.245 Q505.948 208.513 507.43 209.856 Q508.935 211.175 511.504 211.175 Q515.046 211.175 517.175 208.675 Q519.328 206.152 519.328 201.985 L519.328 201.036 L515.092 201.036 M523.587 199.277 L523.587 214.069 L519.328 214.069 L519.328 210.133 Q517.87 212.495 515.694 213.629 Q513.518 214.74 510.37 214.74 Q506.388 214.74 504.027 212.518 Q501.689 210.272 501.689 206.522 Q501.689 202.147 504.606 199.925 Q507.546 197.703 513.356 197.703 L519.328 197.703 L519.328 197.286 Q519.328 194.347 517.384 192.749 Q515.462 191.129 511.967 191.129 Q509.745 191.129 507.638 191.661 Q505.532 192.194 503.587 193.259 L503.587 189.323 Q505.925 188.421 508.124 187.981 Q510.323 187.518 512.407 187.518 Q518.032 187.518 520.81 190.434 Q523.587 193.351 523.587 199.277 Z" fill="#000000" fill-rule="nonzero" fill-opacity="1" /><path clip-path="url(#clip770)" d="M536.481 210.18 L536.481 223.93 L532.198 223.93 L532.198 188.143 L536.481 188.143 L536.481 192.078 Q537.823 189.763 539.86 188.652 Q541.921 187.518 544.768 187.518 Q549.49 187.518 552.43 191.268 Q555.393 195.018 555.393 201.129 Q555.393 207.24 552.43 210.99 Q549.49 214.74 544.768 214.74 Q541.921 214.74 539.86 213.629 Q537.823 212.495 536.481 210.18 M550.971 201.129 Q550.971 196.43 549.027 193.768 Q547.106 191.083 543.726 191.083 Q540.346 191.083 538.402 193.768 Q536.481 196.43 536.481 201.129 Q536.481 205.828 538.402 208.513 Q540.346 211.175 543.726 211.175 Q547.106 211.175 549.027 208.513 Q550.971 205.828 550.971 201.129 Z" fill="#000000" fill-rule="nonzero" fill-opacity="1" /><path clip-path="url(#clip770)" d="M584.629 200.041 L584.629 202.124 L565.045 202.124 Q565.323 206.522 567.684 208.837 Q570.069 211.129 574.305 211.129 Q576.758 211.129 579.05 210.527 Q581.365 209.925 583.633 208.721 L583.633 212.749 Q581.342 213.721 578.934 214.231 Q576.527 214.74 574.05 214.74 Q567.846 214.74 564.212 211.129 Q560.601 207.518 560.601 201.36 Q560.601 194.995 564.027 191.268 Q567.476 187.518 573.309 187.518 Q578.541 187.518 581.573 190.897 Q584.629 194.254 584.629 200.041 M580.369 198.791 Q580.323 195.296 578.402 193.212 Q576.504 191.129 573.356 191.129 Q569.791 191.129 567.638 193.143 Q565.508 195.157 565.184 198.814 L580.369 198.791 Z" fill="#000000" fill-rule="nonzero" fill-opacity="1" /><path clip-path="url(#clip770)" d="M606.642 192.124 Q605.925 191.708 605.068 191.522 Q604.235 191.314 603.216 191.314 Q599.605 191.314 597.661 193.675 Q595.74 196.013 595.74 200.411 L595.74 214.069 L591.457 214.069 L591.457 188.143 L595.74 188.143 L595.74 192.171 Q597.082 189.809 599.235 188.675 Q601.388 187.518 604.466 187.518 Q604.906 187.518 605.439 187.587 Q605.971 187.634 606.619 187.749 L606.642 192.124 Z" fill="#000000" fill-rule="nonzero" fill-opacity="1" /><path clip-path="url(#clip770)" d="M636.226 191.129 Q632.8 191.129 630.809 193.814 Q628.818 196.476 628.818 201.129 Q628.818 205.782 630.786 208.467 Q632.776 211.129 636.226 211.129 Q639.628 211.129 641.619 208.444 Q643.61 205.758 643.61 201.129 Q643.61 196.522 641.619 193.837 Q639.628 191.129 636.226 191.129 M636.226 187.518 Q641.781 187.518 644.952 191.129 Q648.124 194.74 648.124 201.129 Q648.124 207.495 644.952 211.129 Q641.781 214.74 636.226 214.74 Q630.647 214.74 627.476 211.129 Q624.327 207.495 624.327 201.129 Q624.327 194.74 627.476 191.129 Q630.647 187.518 636.226 187.518 Z" fill="#000000" fill-rule="nonzero" fill-opacity="1" /><path clip-path="url(#clip770)" d="M673.795 201.129 Q673.795 196.43 671.85 193.768 Q669.929 191.083 666.549 191.083 Q663.17 191.083 661.225 193.768 Q659.304 196.43 659.304 201.129 Q659.304 205.828 661.225 208.513 Q663.17 211.175 666.549 211.175 Q669.929 211.175 671.85 208.513 Q673.795 205.828 673.795 201.129 M659.304 192.078 Q660.647 189.763 662.684 188.652 Q664.744 187.518 667.591 187.518 Q672.313 187.518 675.253 191.268 Q678.216 195.018 678.216 201.129 Q678.216 207.24 675.253 210.99 Q672.313 214.74 667.591 214.74 Q664.744 214.74 662.684 213.629 Q660.647 212.495 659.304 210.18 L659.304 214.069 L655.022 214.069 L655.022 178.05 L659.304 178.05 L659.304 192.078 Z" fill="#000000" fill-rule="nonzero" fill-opacity="1" /><path clip-path="url(#clip770)" d="M701.804 188.907 L701.804 192.934 Q699.998 192.009 698.054 191.546 Q696.109 191.083 694.026 191.083 Q690.855 191.083 689.258 192.055 Q687.684 193.027 687.684 194.971 Q687.684 196.453 688.818 197.309 Q689.952 198.143 693.378 198.907 L694.836 199.231 Q699.373 200.203 701.272 201.985 Q703.193 203.745 703.193 206.916 Q703.193 210.527 700.322 212.633 Q697.475 214.74 692.475 214.74 Q690.392 214.74 688.123 214.323 Q685.878 213.93 683.378 213.12 L683.378 208.721 Q685.739 209.948 688.031 210.573 Q690.322 211.175 692.568 211.175 Q695.577 211.175 697.197 210.157 Q698.818 209.115 698.818 207.24 Q698.818 205.504 697.637 204.578 Q696.48 203.652 692.522 202.796 L691.04 202.448 Q687.082 201.615 685.323 199.902 Q683.563 198.166 683.563 195.157 Q683.563 191.499 686.156 189.509 Q688.748 187.518 693.517 187.518 Q695.878 187.518 697.961 187.865 Q700.045 188.212 701.804 188.907 Z" fill="#000000" fill-rule="nonzero" fill-opacity="1" /><path clip-path="url(#clip770)" d="M732.151 200.041 L732.151 202.124 L712.568 202.124 Q712.846 206.522 715.207 208.837 Q717.591 211.129 721.827 211.129 Q724.281 211.129 726.572 210.527 Q728.887 209.925 731.156 208.721 L731.156 212.749 Q728.864 213.721 726.457 214.231 Q724.049 214.74 721.572 214.74 Q715.369 214.74 711.734 211.129 Q708.123 207.518 708.123 201.36 Q708.123 194.995 711.549 191.268 Q714.998 187.518 720.832 187.518 Q726.063 187.518 729.095 190.897 Q732.151 194.254 732.151 200.041 M727.892 198.791 Q727.845 195.296 725.924 193.212 Q724.026 191.129 720.878 191.129 Q717.313 191.129 715.16 193.143 Q713.031 195.157 712.707 198.814 L727.892 198.791 Z" fill="#000000" fill-rule="nonzero" fill-opacity="1" /><path clip-path="url(#clip770)" d="M754.165 192.124 Q753.447 191.708 752.591 191.522 Q751.757 191.314 750.739 191.314 Q747.128 191.314 745.183 193.675 Q743.262 196.013 743.262 200.411 L743.262 214.069 L738.98 214.069 L738.98 188.143 L743.262 188.143 L743.262 192.171 Q744.605 189.809 746.757 188.675 Q748.91 187.518 751.989 187.518 Q752.429 187.518 752.961 187.587 Q753.493 187.634 754.142 187.749 L754.165 192.124 Z" fill="#000000" fill-rule="nonzero" fill-opacity="1" /><path clip-path="url(#clip770)" d="M755.577 188.143 L760.091 188.143 L768.192 209.902 L776.294 188.143 L780.808 188.143 L771.086 214.069 L765.299 214.069 L755.577 188.143 Z" fill="#000000" fill-rule="nonzero" fill-opacity="1" /><path clip-path="url(#clip770)" d="M798.47 201.036 Q793.308 201.036 791.317 202.217 Q789.327 203.397 789.327 206.245 Q789.327 208.513 790.808 209.856 Q792.313 211.175 794.882 211.175 Q798.424 211.175 800.553 208.675 Q802.706 206.152 802.706 201.985 L802.706 201.036 L798.47 201.036 M806.965 199.277 L806.965 214.069 L802.706 214.069 L802.706 210.133 Q801.248 212.495 799.072 213.629 Q796.896 214.74 793.748 214.74 Q789.766 214.74 787.405 212.518 Q785.067 210.272 785.067 206.522 Q785.067 202.147 787.984 199.925 Q790.924 197.703 796.734 197.703 L802.706 197.703 L802.706 197.286 Q802.706 194.347 800.762 192.749 Q798.84 191.129 795.345 191.129 Q793.123 191.129 791.016 191.661 Q788.91 192.194 786.965 193.259 L786.965 189.323 Q789.303 188.421 791.503 187.981 Q793.702 187.518 795.785 187.518 Q801.41 187.518 804.188 190.434 Q806.965 193.351 806.965 199.277 Z" fill="#000000" fill-rule="nonzero" fill-opacity="1" /><path clip-path="url(#clip770)" d="M819.951 180.782 L819.951 188.143 L828.725 188.143 L828.725 191.453 L819.951 191.453 L819.951 205.527 Q819.951 208.698 820.808 209.601 Q821.688 210.504 824.35 210.504 L828.725 210.504 L828.725 214.069 L824.35 214.069 Q819.419 214.069 817.544 212.24 Q815.669 210.388 815.669 205.527 L815.669 191.453 L812.544 191.453 L812.544 188.143 L815.669 188.143 L815.669 180.782 L819.951 180.782 Z" fill="#000000" fill-rule="nonzero" fill-opacity="1" /><path clip-path="url(#clip770)" d="M834.326 188.143 L838.586 188.143 L838.586 214.069 L834.326 214.069 L834.326 188.143 M834.326 178.05 L838.586 178.05 L838.586 183.444 L834.326 183.444 L834.326 178.05 Z" fill="#000000" fill-rule="nonzero" fill-opacity="1" /><path clip-path="url(#clip770)" d="M857.544 191.129 Q854.118 191.129 852.127 193.814 Q850.136 196.476 850.136 201.129 Q850.136 205.782 852.104 208.467 Q854.095 211.129 857.544 211.129 Q860.947 211.129 862.937 208.444 Q864.928 205.758 864.928 201.129 Q864.928 196.522 862.937 193.837 Q860.947 191.129 857.544 191.129 M857.544 187.518 Q863.099 187.518 866.271 191.129 Q869.442 194.74 869.442 201.129 Q869.442 207.495 866.271 211.129 Q863.099 214.74 857.544 214.74 Q851.965 214.74 848.794 211.129 Q845.646 207.495 845.646 201.129 Q845.646 194.74 848.794 191.129 Q851.965 187.518 857.544 187.518 Z" fill="#000000" fill-rule="nonzero" fill-opacity="1" /><path clip-path="url(#clip770)" d="M898.053 198.421 L898.053 214.069 L893.794 214.069 L893.794 198.559 Q893.794 194.879 892.358 193.05 Q890.923 191.222 888.053 191.222 Q884.604 191.222 882.613 193.421 Q880.622 195.62 880.622 199.416 L880.622 214.069 L876.34 214.069 L876.34 188.143 L880.622 188.143 L880.622 192.171 Q882.15 189.833 884.21 188.675 Q886.294 187.518 889.002 187.518 Q893.47 187.518 895.761 190.296 Q898.053 193.05 898.053 198.421 Z" fill="#000000" fill-rule="nonzero" fill-opacity="1" /><path clip-path="url(#clip770)" d="M923.076 188.907 L923.076 192.934 Q921.27 192.009 919.326 191.546 Q917.381 191.083 915.298 191.083 Q912.127 191.083 910.53 192.055 Q908.956 193.027 908.956 194.971 Q908.956 196.453 910.09 197.309 Q911.224 198.143 914.65 198.907 L916.108 199.231 Q920.645 200.203 922.543 201.985 Q924.465 203.745 924.465 206.916 Q924.465 210.527 921.594 212.633 Q918.747 214.74 913.747 214.74 Q911.664 214.74 909.395 214.323 Q907.15 213.93 904.65 213.12 L904.65 208.721 Q907.011 209.948 909.303 210.573 Q911.594 211.175 913.84 211.175 Q916.849 211.175 918.469 210.157 Q920.09 209.115 920.09 207.24 Q920.09 205.504 918.909 204.578 Q917.752 203.652 913.794 202.796 L912.312 202.448 Q908.354 201.615 906.594 199.902 Q904.835 198.166 904.835 195.157 Q904.835 191.499 907.428 189.509 Q910.02 187.518 914.789 187.518 Q917.15 187.518 919.233 187.865 Q921.317 188.212 923.076 188.907 Z" fill="#000000" fill-rule="nonzero" fill-opacity="1" /><polyline clip-path="url(#clip770)" style="stroke:#ff0000; stroke-linecap:round; stroke-linejoin:round; stroke-width:4; stroke-opacity:1; fill:none" points="306.499,248.629 449.261,248.629 "/>
<path clip-path="url(#clip770)" d="M477.338 262.02 L477.338 275.77 L473.055 275.77 L473.055 239.983 L477.338 239.983 L477.338 243.918 Q478.68 241.603 480.717 240.492 Q482.777 239.358 485.625 239.358 Q490.347 239.358 493.287 243.108 Q496.249 246.858 496.249 252.969 Q496.249 259.08 493.287 262.83 Q490.347 266.58 485.625 266.58 Q482.777 266.58 480.717 265.469 Q478.68 264.335 477.338 262.02 M491.828 252.969 Q491.828 248.27 489.884 245.608 Q487.962 242.923 484.583 242.923 Q481.203 242.923 479.259 245.608 Q477.338 248.27 477.338 252.969 Q477.338 257.668 479.259 260.353 Q481.203 263.015 484.583 263.015 Q487.962 263.015 489.884 260.353 Q491.828 257.668 491.828 252.969 Z" fill="#000000" fill-rule="nonzero" fill-opacity="1" /><path clip-path="url(#clip770)" d="M515.092 252.876 Q509.93 252.876 507.939 254.057 Q505.948 255.237 505.948 258.085 Q505.948 260.353 507.43 261.696 Q508.935 263.015 511.504 263.015 Q515.046 263.015 517.175 260.515 Q519.328 257.992 519.328 253.825 L519.328 252.876 L515.092 252.876 M523.587 251.117 L523.587 265.909 L519.328 265.909 L519.328 261.973 Q517.87 264.335 515.694 265.469 Q513.518 266.58 510.37 266.58 Q506.388 266.58 504.027 264.358 Q501.689 262.112 501.689 258.362 Q501.689 253.987 504.606 251.765 Q507.546 249.543 513.356 249.543 L519.328 249.543 L519.328 249.126 Q519.328 246.187 517.384 244.589 Q515.462 242.969 511.967 242.969 Q509.745 242.969 507.638 243.501 Q505.532 244.034 503.587 245.099 L503.587 241.163 Q505.925 240.261 508.124 239.821 Q510.323 239.358 512.407 239.358 Q518.032 239.358 520.81 242.274 Q523.587 245.191 523.587 251.117 Z" fill="#000000" fill-rule="nonzero" fill-opacity="1" /><path clip-path="url(#clip770)" d="M536.481 262.02 L536.481 275.77 L532.198 275.77 L532.198 239.983 L536.481 239.983 L536.481 243.918 Q537.823 241.603 539.86 240.492 Q541.921 239.358 544.768 239.358 Q549.49 239.358 552.43 243.108 Q555.393 246.858 555.393 252.969 Q555.393 259.08 552.43 262.83 Q549.49 266.58 544.768 266.58 Q541.921 266.58 539.86 265.469 Q537.823 264.335 536.481 262.02 M550.971 252.969 Q550.971 248.27 549.027 245.608 Q547.106 242.923 543.726 242.923 Q540.346 242.923 538.402 245.608 Q536.481 248.27 536.481 252.969 Q536.481 257.668 538.402 260.353 Q540.346 263.015 543.726 263.015 Q547.106 263.015 549.027 260.353 Q550.971 257.668 550.971 252.969 Z" fill="#000000" fill-rule="nonzero" fill-opacity="1" /><path clip-path="url(#clip770)" d="M584.629 251.881 L584.629 253.964 L565.045 253.964 Q565.323 258.362 567.684 260.677 Q570.069 262.969 574.305 262.969 Q576.758 262.969 579.05 262.367 Q581.365 261.765 583.633 260.561 L583.633 264.589 Q581.342 265.561 578.934 266.071 Q576.527 266.58 574.05 266.58 Q567.846 266.58 564.212 262.969 Q560.601 259.358 560.601 253.2 Q560.601 246.835 564.027 243.108 Q567.476 239.358 573.309 239.358 Q578.541 239.358 581.573 242.737 Q584.629 246.094 584.629 251.881 M580.369 250.631 Q580.323 247.136 578.402 245.052 Q576.504 242.969 573.356 242.969 Q569.791 242.969 567.638 244.983 Q565.508 246.997 565.184 250.654 L580.369 250.631 Z" fill="#000000" fill-rule="nonzero" fill-opacity="1" /><path clip-path="url(#clip770)" d="M606.642 243.964 Q605.925 243.548 605.068 243.362 Q604.235 243.154 603.216 243.154 Q599.605 243.154 597.661 245.515 Q595.74 247.853 595.74 252.251 L595.74 265.909 L591.457 265.909 L591.457 239.983 L595.74 239.983 L595.74 244.011 Q597.082 241.649 599.235 240.515 Q601.388 239.358 604.466 239.358 Q604.906 239.358 605.439 239.427 Q605.971 239.474 606.619 239.589 L606.642 243.964 Z" fill="#000000" fill-rule="nonzero" fill-opacity="1" /><path clip-path="url(#clip770)" d="M630.3 262.02 L630.3 275.77 L626.017 275.77 L626.017 239.983 L630.3 239.983 L630.3 243.918 Q631.642 241.603 633.679 240.492 Q635.739 239.358 638.587 239.358 Q643.309 239.358 646.249 243.108 Q649.212 246.858 649.212 252.969 Q649.212 259.08 646.249 262.83 Q643.309 266.58 638.587 266.58 Q635.739 266.58 633.679 265.469 Q631.642 264.335 630.3 262.02 M644.79 252.969 Q644.79 248.27 642.846 245.608 Q640.925 242.923 637.545 242.923 Q634.165 242.923 632.221 245.608 Q630.3 248.27 630.3 252.969 Q630.3 257.668 632.221 260.353 Q634.165 263.015 637.545 263.015 Q640.925 263.015 642.846 260.353 Q644.79 257.668 644.79 252.969 Z" fill="#000000" fill-rule="nonzero" fill-opacity="1" /><path clip-path="url(#clip770)" d="M668.054 252.876 Q662.892 252.876 660.901 254.057 Q658.911 255.237 658.911 258.085 Q658.911 260.353 660.392 261.696 Q661.897 263.015 664.466 263.015 Q668.008 263.015 670.137 260.515 Q672.29 257.992 672.29 253.825 L672.29 252.876 L668.054 252.876 M676.549 251.117 L676.549 265.909 L672.29 265.909 L672.29 261.973 Q670.832 264.335 668.656 265.469 Q666.48 266.58 663.332 266.58 Q659.35 266.58 656.989 264.358 Q654.651 262.112 654.651 258.362 Q654.651 253.987 657.568 251.765 Q660.508 249.543 666.318 249.543 L672.29 249.543 L672.29 249.126 Q672.29 246.187 670.346 244.589 Q668.424 242.969 664.929 242.969 Q662.707 242.969 660.6 243.501 Q658.494 244.034 656.55 245.099 L656.55 241.163 Q658.887 240.261 661.087 239.821 Q663.286 239.358 665.369 239.358 Q670.994 239.358 673.772 242.274 Q676.549 245.191 676.549 251.117 Z" fill="#000000" fill-rule="nonzero" fill-opacity="1" /><path clip-path="url(#clip770)" d="M700.346 243.964 Q699.628 243.548 698.772 243.362 Q697.938 243.154 696.92 243.154 Q693.309 243.154 691.364 245.515 Q689.443 247.853 689.443 252.251 L689.443 265.909 L685.16 265.909 L685.16 239.983 L689.443 239.983 L689.443 244.011 Q690.785 241.649 692.938 240.515 Q695.091 239.358 698.17 239.358 Q698.609 239.358 699.142 239.427 Q699.674 239.474 700.322 239.589 L700.346 243.964 Z" fill="#000000" fill-rule="nonzero" fill-opacity="1" /><path clip-path="url(#clip770)" d="M716.595 252.876 Q711.433 252.876 709.443 254.057 Q707.452 255.237 707.452 258.085 Q707.452 260.353 708.933 261.696 Q710.438 263.015 713.008 263.015 Q716.549 263.015 718.679 260.515 Q720.832 257.992 720.832 253.825 L720.832 252.876 L716.595 252.876 M725.091 251.117 L725.091 265.909 L720.832 265.909 L720.832 261.973 Q719.373 264.335 717.197 265.469 Q715.021 266.58 711.873 266.58 Q707.892 266.58 705.531 264.358 Q703.193 262.112 703.193 258.362 Q703.193 253.987 706.109 251.765 Q709.049 249.543 714.859 249.543 L720.832 249.543 L720.832 249.126 Q720.832 246.187 718.887 244.589 Q716.966 242.969 713.471 242.969 Q711.248 242.969 709.142 243.501 Q707.035 244.034 705.091 245.099 L705.091 241.163 Q707.429 240.261 709.628 239.821 Q711.827 239.358 713.91 239.358 Q719.535 239.358 722.313 242.274 Q725.091 245.191 725.091 251.117 Z" fill="#000000" fill-rule="nonzero" fill-opacity="1" /><path clip-path="url(#clip770)" d="M754.049 244.96 Q755.646 242.089 757.868 240.724 Q760.091 239.358 763.1 239.358 Q767.151 239.358 769.35 242.205 Q771.549 245.029 771.549 250.261 L771.549 265.909 L767.267 265.909 L767.267 250.399 Q767.267 246.673 765.947 244.867 Q764.628 243.062 761.919 243.062 Q758.609 243.062 756.688 245.261 Q754.767 247.46 754.767 251.256 L754.767 265.909 L750.484 265.909 L750.484 250.399 Q750.484 246.649 749.165 244.867 Q747.845 243.062 745.091 243.062 Q741.827 243.062 739.906 245.284 Q737.984 247.483 737.984 251.256 L737.984 265.909 L733.702 265.909 L733.702 239.983 L737.984 239.983 L737.984 244.011 Q739.443 241.626 741.48 240.492 Q743.517 239.358 746.318 239.358 Q749.142 239.358 751.109 240.793 Q753.1 242.228 754.049 244.96 Z" fill="#000000" fill-rule="nonzero" fill-opacity="1" /><path clip-path="url(#clip770)" d="M802.22 251.881 L802.22 253.964 L782.637 253.964 Q782.915 258.362 785.276 260.677 Q787.66 262.969 791.896 262.969 Q794.35 262.969 796.641 262.367 Q798.956 261.765 801.225 260.561 L801.225 264.589 Q798.933 265.561 796.526 266.071 Q794.118 266.58 791.641 266.58 Q785.438 266.58 781.803 262.969 Q778.192 259.358 778.192 253.2 Q778.192 246.835 781.618 243.108 Q785.067 239.358 790.901 239.358 Q796.132 239.358 799.164 242.737 Q802.22 246.094 802.22 251.881 M797.961 250.631 Q797.915 247.136 795.993 245.052 Q794.095 242.969 790.947 242.969 Q787.382 242.969 785.229 244.983 Q783.1 246.997 782.776 250.654 L797.961 250.631 Z" fill="#000000" fill-rule="nonzero" fill-opacity="1" /><path clip-path="url(#clip770)" d="M813.424 232.622 L813.424 239.983 L822.197 239.983 L822.197 243.293 L813.424 243.293 L813.424 257.367 Q813.424 260.538 814.28 261.441 Q815.16 262.344 817.822 262.344 L822.197 262.344 L822.197 265.909 L817.822 265.909 Q812.891 265.909 811.016 264.08 Q809.141 262.228 809.141 257.367 L809.141 243.293 L806.016 243.293 L806.016 239.983 L809.141 239.983 L809.141 232.622 L813.424 232.622 Z" fill="#000000" fill-rule="nonzero" fill-opacity="1" /><path clip-path="url(#clip770)" d="M849.974 251.881 L849.974 253.964 L830.391 253.964 Q830.669 258.362 833.03 260.677 Q835.414 262.969 839.65 262.969 Q842.104 262.969 844.396 262.367 Q846.711 261.765 848.979 260.561 L848.979 264.589 Q846.687 265.561 844.28 266.071 Q841.873 266.58 839.396 266.58 Q833.192 266.58 829.558 262.969 Q825.947 259.358 825.947 253.2 Q825.947 246.835 829.373 243.108 Q832.822 239.358 838.655 239.358 Q843.886 239.358 846.919 242.737 Q849.974 246.094 849.974 251.881 M845.715 250.631 Q845.669 247.136 843.748 245.052 Q841.849 242.969 838.701 242.969 Q835.137 242.969 832.984 244.983 Q830.854 246.997 830.53 250.654 L845.715 250.631 Z" fill="#000000" fill-rule="nonzero" fill-opacity="1" /><path clip-path="url(#clip770)" d="M871.988 243.964 Q871.271 243.548 870.414 243.362 Q869.581 243.154 868.562 243.154 Q864.951 243.154 863.007 245.515 Q861.085 247.853 861.085 252.251 L861.085 265.909 L856.803 265.909 L856.803 239.983 L861.085 239.983 L861.085 244.011 Q862.428 241.649 864.581 240.515 Q866.734 239.358 869.812 239.358 Q870.252 239.358 870.784 239.427 Q871.317 239.474 871.965 239.589 L871.988 243.964 Z" fill="#000000" fill-rule="nonzero" fill-opacity="1" /><path clip-path="url(#clip770)" d="M876.456 239.983 L880.715 239.983 L880.715 265.909 L876.456 265.909 L876.456 239.983 M876.456 229.89 L880.715 229.89 L880.715 235.284 L876.456 235.284 L876.456 229.89 Z" fill="#000000" fill-rule="nonzero" fill-opacity="1" /><path clip-path="url(#clip770)" d="M887.775 239.983 L908.007 239.983 L908.007 243.872 L891.988 262.506 L908.007 262.506 L908.007 265.909 L887.196 265.909 L887.196 262.02 L903.215 243.386 L887.775 243.386 L887.775 239.983 Z" fill="#000000" fill-rule="nonzero" fill-opacity="1" /><path clip-path="url(#clip770)" d="M926.293 252.876 Q921.131 252.876 919.141 254.057 Q917.15 255.237 917.15 258.085 Q917.15 260.353 918.631 261.696 Q920.136 263.015 922.706 263.015 Q926.247 263.015 928.377 260.515 Q930.53 257.992 930.53 253.825 L930.53 252.876 L926.293 252.876 M934.789 251.117 L934.789 265.909 L930.53 265.909 L930.53 261.973 Q929.071 264.335 926.895 265.469 Q924.719 266.58 921.571 266.58 Q917.59 266.58 915.229 264.358 Q912.891 262.112 912.891 258.362 Q912.891 253.987 915.807 251.765 Q918.747 249.543 924.557 249.543 L930.53 249.543 L930.53 249.126 Q930.53 246.187 928.585 244.589 Q926.664 242.969 923.168 242.969 Q920.946 242.969 918.84 243.501 Q916.733 244.034 914.789 245.099 L914.789 241.163 Q917.127 240.261 919.326 239.821 Q921.525 239.358 923.608 239.358 Q929.233 239.358 932.011 242.274 Q934.789 245.191 934.789 251.117 Z" fill="#000000" fill-rule="nonzero" fill-opacity="1" /><path clip-path="url(#clip770)" d="M947.775 232.622 L947.775 239.983 L956.548 239.983 L956.548 243.293 L947.775 243.293 L947.775 257.367 Q947.775 260.538 948.631 261.441 Q949.511 262.344 952.173 262.344 L956.548 262.344 L956.548 265.909 L952.173 265.909 Q947.242 265.909 945.367 264.08 Q943.492 262.228 943.492 257.367 L943.492 243.293 L940.367 243.293 L940.367 239.983 L943.492 239.983 L943.492 232.622 L947.775 232.622 Z" fill="#000000" fill-rule="nonzero" fill-opacity="1" /><path clip-path="url(#clip770)" d="M962.15 239.983 L966.409 239.983 L966.409 265.909 L962.15 265.909 L962.15 239.983 M962.15 229.89 L966.409 229.89 L966.409 235.284 L962.15 235.284 L962.15 229.89 Z" fill="#000000" fill-rule="nonzero" fill-opacity="1" /><path clip-path="url(#clip770)" d="M985.367 242.969 Q981.941 242.969 979.951 245.654 Q977.96 248.316 977.96 252.969 Q977.96 257.622 979.927 260.307 Q981.918 262.969 985.367 262.969 Q988.77 262.969 990.761 260.284 Q992.751 257.598 992.751 252.969 Q992.751 248.362 990.761 245.677 Q988.77 242.969 985.367 242.969 M985.367 239.358 Q990.923 239.358 994.094 242.969 Q997.265 246.58 997.265 252.969 Q997.265 259.335 994.094 262.969 Q990.923 266.58 985.367 266.58 Q979.789 266.58 976.617 262.969 Q973.469 259.335 973.469 252.969 Q973.469 246.58 976.617 242.969 Q979.789 239.358 985.367 239.358 Z" fill="#000000" fill-rule="nonzero" fill-opacity="1" /><path clip-path="url(#clip770)" d="M1025.88 250.261 L1025.88 265.909 L1021.62 265.909 L1021.62 250.399 Q1021.62 246.719 1020.18 244.89 Q1018.75 243.062 1015.88 243.062 Q1012.43 243.062 1010.44 245.261 Q1008.45 247.46 1008.45 251.256 L1008.45 265.909 L1004.16 265.909 L1004.16 239.983 L1008.45 239.983 L1008.45 244.011 Q1009.97 241.673 1012.03 240.515 Q1014.12 239.358 1016.83 239.358 Q1021.29 239.358 1023.58 242.136 Q1025.88 244.89 1025.88 250.261 Z" fill="#000000" fill-rule="nonzero" fill-opacity="1" /></svg>
