<?xml version="1.0" encoding="utf-8"?>
<svg xmlns="http://www.w3.org/2000/svg" xmlns:xlink="http://www.w3.org/1999/xlink" width="600" height="400" viewBox="0 0 2400 1600">
<defs>
  <clipPath id="clip200">
    <rect x="0" y="0" width="2400" height="1600"/>
  </clipPath>
</defs>
<path clip-path="url(#clip200)" d="M0 1600 L2400 1600 L2400 0 L0 0  Z" fill="#ffffff" fill-rule="evenodd" fill-opacity="1"/>
<defs>
  <clipPath id="clip201">
    <rect x="480" y="0" width="1681" height="1600"/>
  </clipPath>
</defs>
<path clip-path="url(#clip200)" d="M249.542 1410.9 L2352.76 1410.9 L2352.76 47.2441 L249.542 47.2441  Z" fill="#ffffff" fill-rule="evenodd" fill-opacity="1"/>
<defs>
  <clipPath id="clip202">
    <rect x="249" y="47" width="2104" height="1365"/>
  </clipPath>
</defs>
<polyline clip-path="url(#clip202)" style="stroke:#000000; stroke-linecap:round; stroke-linejoin:round; stroke-width:2; stroke-opacity:0.1; fill:none" points="705.9,1410.9 705.9,47.2441 "/>
<polyline clip-path="url(#clip202)" style="stroke:#000000; stroke-linecap:round; stroke-linejoin:round; stroke-width:2; stroke-opacity:0.1; fill:none" points="1896.4,1410.9 1896.4,47.2441 "/>
<polyline clip-path="url(#clip200)" style="stroke:#000000; stroke-linecap:round; stroke-linejoin:round; stroke-width:4; stroke-opacity:1; fill:none" points="249.542,1410.9 2352.76,1410.9 "/>
<polyline clip-path="url(#clip200)" style="stroke:#000000; stroke-linecap:round; stroke-linejoin:round; stroke-width:4; stroke-opacity:1; fill:none" points="705.9,1410.9 705.9,1392 "/>
<polyline clip-path="url(#clip200)" style="stroke:#000000; stroke-linecap:round; stroke-linejoin:round; stroke-width:4; stroke-opacity:1; fill:none" points="1896.4,1410.9 1896.4,1392 "/>
<path clip-path="url(#clip200)" d="M670.883 1485.02 L678.521 1485.02 L678.521 1458.66 L670.211 1460.32 L670.211 1456.06 L678.475 1454.4 L683.151 1454.4 L683.151 1485.02 L690.79 1485.02 L690.79 1488.96 L670.883 1488.96 L670.883 1485.02 Z" fill="#000000" fill-rule="nonzero" fill-opacity="1" /><path clip-path="url(#clip200)" d="M710.234 1457.48 Q706.623 1457.48 704.794 1461.04 Q702.989 1464.58 702.989 1471.71 Q702.989 1478.82 704.794 1482.38 Q706.623 1485.92 710.234 1485.92 Q713.868 1485.92 715.674 1482.38 Q717.503 1478.82 717.503 1471.71 Q717.503 1464.58 715.674 1461.04 Q713.868 1457.48 710.234 1457.48 M710.234 1453.77 Q716.044 1453.77 719.1 1458.38 Q722.179 1462.96 722.179 1471.71 Q722.179 1480.44 719.1 1485.04 Q716.044 1489.63 710.234 1489.63 Q704.424 1489.63 701.345 1485.04 Q698.29 1480.44 698.29 1471.71 Q698.29 1462.96 701.345 1458.38 Q704.424 1453.77 710.234 1453.77 Z" fill="#000000" fill-rule="nonzero" fill-opacity="1" /><path clip-path="url(#clip200)" d="M731.883 1435.97 Q728.949 1435.97 727.464 1438.86 Q725.997 1441.74 725.997 1447.53 Q725.997 1453.31 727.464 1456.2 Q728.949 1459.08 731.883 1459.08 Q734.836 1459.08 736.303 1456.2 Q737.789 1453.31 737.789 1447.53 Q737.789 1441.74 736.303 1438.86 Q734.836 1435.97 731.883 1435.97 M731.883 1432.96 Q736.604 1432.96 739.087 1436.7 Q741.588 1440.43 741.588 1447.53 Q741.588 1454.62 739.087 1458.37 Q736.604 1462.09 731.883 1462.09 Q727.163 1462.09 724.661 1458.37 Q722.179 1454.62 722.179 1447.53 Q722.179 1440.43 724.661 1436.7 Q727.163 1432.96 731.883 1432.96 Z" fill="#000000" fill-rule="nonzero" fill-opacity="1" /><path clip-path="url(#clip200)" d="M1861.84 1485.02 L1869.48 1485.02 L1869.48 1458.66 L1861.17 1460.32 L1861.17 1456.06 L1869.43 1454.4 L1874.11 1454.4 L1874.11 1485.02 L1881.75 1485.02 L1881.75 1488.96 L1861.84 1488.96 L1861.84 1485.02 Z" fill="#000000" fill-rule="nonzero" fill-opacity="1" /><path clip-path="url(#clip200)" d="M1901.19 1457.48 Q1897.58 1457.48 1895.75 1461.04 Q1893.95 1464.58 1893.95 1471.71 Q1893.95 1478.82 1895.75 1482.38 Q1897.58 1485.92 1901.19 1485.92 Q1904.83 1485.92 1906.63 1482.38 Q1908.46 1478.82 1908.46 1471.71 Q1908.46 1464.58 1906.63 1461.04 Q1904.83 1457.48 1901.19 1457.48 M1901.19 1453.77 Q1907 1453.77 1910.06 1458.38 Q1913.14 1462.96 1913.14 1471.71 Q1913.14 1480.44 1910.06 1485.04 Q1907 1489.63 1901.19 1489.63 Q1895.38 1489.63 1892.3 1485.04 Q1889.25 1480.44 1889.25 1471.71 Q1889.25 1462.96 1892.3 1458.38 Q1895.38 1453.77 1901.19 1453.77 Z" fill="#000000" fill-rule="nonzero" fill-opacity="1" /><path clip-path="url(#clip200)" d="M1925.83 1446.41 Q1928.56 1446.99 1930.08 1448.83 Q1931.63 1450.68 1931.63 1453.38 Q1931.63 1457.54 1928.77 1459.82 Q1925.91 1462.09 1920.64 1462.09 Q1918.87 1462.09 1916.99 1461.73 Q1915.13 1461.4 1913.14 1460.7 L1913.14 1457.03 Q1914.72 1457.95 1916.6 1458.42 Q1918.48 1458.89 1920.53 1458.89 Q1924.1 1458.89 1925.96 1457.48 Q1927.85 1456.07 1927.85 1453.38 Q1927.85 1450.9 1926.1 1449.51 Q1924.37 1448.1 1921.26 1448.1 L1917.99 1448.1 L1917.99 1444.98 L1921.41 1444.98 Q1924.22 1444.98 1925.7 1443.87 Q1927.19 1442.74 1927.19 1440.63 Q1927.19 1438.47 1925.64 1437.32 Q1924.12 1436.16 1921.26 1436.16 Q1919.7 1436.16 1917.91 1436.49 Q1916.13 1436.83 1913.98 1437.55 L1913.98 1434.16 Q1916.15 1433.56 1918.03 1433.26 Q1919.93 1432.96 1921.6 1432.96 Q1925.93 1432.96 1928.45 1434.93 Q1930.97 1436.89 1930.97 1440.24 Q1930.97 1442.57 1929.63 1444.19 Q1928.3 1445.79 1925.83 1446.41 Z" fill="#000000" fill-rule="nonzero" fill-opacity="1" /><path clip-path="url(#clip200)" d="M1132.94 1526.67 L1139.36 1526.67 L1139.36 1574.19 L1132.94 1574.19 L1132.94 1526.67 Z" fill="#000000" fill-rule="nonzero" fill-opacity="1" /><path clip-path="url(#clip200)" d="M1152.16 1526.67 L1160.82 1526.67 L1181.89 1566.42 L1181.89 1526.67 L1188.13 1526.67 L1188.13 1574.19 L1179.47 1574.19 L1158.4 1534.43 L1158.4 1574.19 L1152.16 1574.19 L1152.16 1526.67 Z" fill="#000000" fill-rule="nonzero" fill-opacity="1" /><path clip-path="url(#clip200)" d="M1207.35 1531.95 L1207.35 1549.8 L1215.43 1549.8 Q1219.92 1549.8 1222.37 1547.48 Q1224.82 1545.16 1224.82 1540.86 Q1224.82 1536.6 1222.37 1534.27 Q1219.92 1531.95 1215.43 1531.95 L1207.35 1531.95 M1200.92 1526.67 L1215.43 1526.67 Q1223.42 1526.67 1227.5 1530.29 Q1231.6 1533.89 1231.6 1540.86 Q1231.6 1547.9 1227.5 1551.49 Q1223.42 1555.09 1215.43 1555.09 L1207.35 1555.09 L1207.35 1574.19 L1200.92 1574.19 L1200.92 1526.67 Z" fill="#000000" fill-rule="nonzero" fill-opacity="1" /><path clip-path="url(#clip200)" d="M1275.81 1530.33 L1275.81 1537.11 Q1272.57 1534.08 1268.87 1532.59 Q1265.21 1531.09 1261.08 1531.09 Q1252.93 1531.09 1248.6 1536.09 Q1244.27 1541.05 1244.27 1550.47 Q1244.27 1559.86 1248.6 1564.86 Q1252.93 1569.82 1261.08 1569.82 Q1265.21 1569.82 1268.87 1568.33 Q1272.57 1566.83 1275.81 1563.81 L1275.81 1570.53 Q1272.44 1572.82 1268.65 1573.96 Q1264.9 1575.11 1260.69 1575.11 Q1249.91 1575.11 1243.7 1568.52 Q1237.49 1561.9 1237.49 1550.47 Q1237.49 1539.01 1243.7 1532.43 Q1249.91 1525.81 1260.69 1525.81 Q1264.96 1525.81 1268.72 1526.95 Q1272.5 1528.07 1275.81 1530.33 Z" fill="#000000" fill-rule="nonzero" fill-opacity="1" /><path clip-path="url(#clip200)" d="M1305.67 1524.66 L1319.16 1524.66 L1319.16 1529.21 L1311.53 1529.21 L1311.53 1578.23 L1319.16 1578.23 L1319.16 1582.78 L1305.67 1582.78 L1305.67 1524.66 Z" fill="#000000" fill-rule="nonzero" fill-opacity="1" /><path clip-path="url(#clip200)" d="M1359.4 1545.38 Q1361.59 1541.43 1364.65 1539.56 Q1367.7 1537.68 1371.84 1537.68 Q1377.41 1537.68 1380.43 1541.59 Q1383.46 1545.48 1383.46 1552.67 L1383.46 1574.19 L1377.57 1574.19 L1377.57 1552.86 Q1377.57 1547.74 1375.76 1545.25 Q1373.94 1542.77 1370.22 1542.77 Q1365.67 1542.77 1363.02 1545.79 Q1360.38 1548.82 1360.38 1554.04 L1360.38 1574.19 L1354.49 1574.19 L1354.49 1552.86 Q1354.49 1547.7 1352.68 1545.25 Q1350.87 1542.77 1347.08 1542.77 Q1342.59 1542.77 1339.95 1545.83 Q1337.31 1548.85 1337.31 1554.04 L1337.31 1574.19 L1331.42 1574.19 L1331.42 1538.54 L1337.31 1538.54 L1337.31 1544.08 Q1339.31 1540.8 1342.11 1539.24 Q1344.91 1537.68 1348.76 1537.68 Q1352.65 1537.68 1355.35 1539.65 Q1358.09 1541.62 1359.4 1545.38 Z" fill="#000000" fill-rule="nonzero" fill-opacity="1" /><path clip-path="url(#clip200)" d="M1393.36 1539.97 L1419.04 1539.97 L1419.04 1542.99 L1393.36 1542.99 L1393.36 1539.97 Z" fill="#000000" fill-rule="nonzero" fill-opacity="1" /><path clip-path="url(#clip200)" d="M1440.08 1538.54 Q1443.01 1539.11 1444.6 1540.86 Q1446.22 1542.58 1446.22 1545.19 Q1446.22 1549.14 1443.2 1551.27 Q1440.18 1553.4 1434.54 1553.4 Q1432.73 1553.4 1430.72 1553.08 Q1428.75 1552.73 1426.52 1552.1 L1426.52 1548.25 Q1428.18 1549.1 1430.05 1549.52 Q1431.96 1549.93 1434.1 1549.93 Q1437.57 1549.93 1439.48 1548.69 Q1441.39 1547.42 1441.39 1545.19 Q1441.39 1542.83 1439.6 1541.62 Q1437.85 1540.42 1434.42 1540.42 L1431.68 1540.42 L1431.68 1536.98 L1434.67 1536.98 Q1437.66 1536.98 1439.19 1535.99 Q1440.75 1534.97 1440.75 1533.06 Q1440.75 1531.22 1439.16 1530.26 Q1437.57 1529.28 1434.54 1529.28 Q1433.27 1529.28 1431.65 1529.56 Q1430.02 1529.85 1427.44 1530.58 L1427.44 1526.92 Q1429.77 1526.38 1431.81 1526.09 Q1433.84 1525.81 1435.59 1525.81 Q1440.18 1525.81 1442.85 1527.68 Q1445.56 1529.56 1445.56 1532.71 Q1445.56 1534.91 1444.12 1536.44 Q1442.69 1537.96 1440.08 1538.54 Z" fill="#000000" fill-rule="nonzero" fill-opacity="1" /><path clip-path="url(#clip200)" d="M1469.36 1524.66 L1469.36 1582.78 L1455.87 1582.78 L1455.87 1578.23 L1463.47 1578.23 L1463.47 1529.21 L1455.87 1529.21 L1455.87 1524.66 L1469.36 1524.66 Z" fill="#000000" fill-rule="nonzero" fill-opacity="1" /><polyline clip-path="url(#clip202)" style="stroke:#000000; stroke-linecap:round; stroke-linejoin:round; stroke-width:2; stroke-opacity:0.1; fill:none" points="249.542,1372.31 2352.76,1372.31 "/>
<polyline clip-path="url(#clip202)" style="stroke:#000000; stroke-linecap:round; stroke-linejoin:round; stroke-width:2; stroke-opacity:0.1; fill:none" points="249.542,1151.41 2352.76,1151.41 "/>
<polyline clip-path="url(#clip202)" style="stroke:#000000; stroke-linecap:round; stroke-linejoin:round; stroke-width:2; stroke-opacity:0.1; fill:none" points="249.542,930.51 2352.76,930.51 "/>
<polyline clip-path="url(#clip202)" style="stroke:#000000; stroke-linecap:round; stroke-linejoin:round; stroke-width:2; stroke-opacity:0.1; fill:none" points="249.542,709.609 2352.76,709.609 "/>
<polyline clip-path="url(#clip202)" style="stroke:#000000; stroke-linecap:round; stroke-linejoin:round; stroke-width:2; stroke-opacity:0.1; fill:none" points="249.542,488.707 2352.76,488.707 "/>
<polyline clip-path="url(#clip202)" style="stroke:#000000; stroke-linecap:round; stroke-linejoin:round; stroke-width:2; stroke-opacity:0.1; fill:none" points="249.542,267.806 2352.76,267.806 "/>
<polyline clip-path="url(#clip200)" style="stroke:#000000; stroke-linecap:round; stroke-linejoin:round; stroke-width:4; stroke-opacity:1; fill:none" points="249.542,1410.9 249.542,47.2441 "/>
<polyline clip-path="url(#clip200)" style="stroke:#000000; stroke-linecap:round; stroke-linejoin:round; stroke-width:4; stroke-opacity:1; fill:none" points="249.542,1372.31 268.44,1372.31 "/>
<polyline clip-path="url(#clip200)" style="stroke:#000000; stroke-linecap:round; stroke-linejoin:round; stroke-width:4; stroke-opacity:1; fill:none" points="249.542,1151.41 268.44,1151.41 "/>
<polyline clip-path="url(#clip200)" style="stroke:#000000; stroke-linecap:round; stroke-linejoin:round; stroke-width:4; stroke-opacity:1; fill:none" points="249.542,930.51 268.44,930.51 "/>
<polyline clip-path="url(#clip200)" style="stroke:#000000; stroke-linecap:round; stroke-linejoin:round; stroke-width:4; stroke-opacity:1; fill:none" points="249.542,709.609 268.44,709.609 "/>
<polyline clip-path="url(#clip200)" style="stroke:#000000; stroke-linecap:round; stroke-linejoin:round; stroke-width:4; stroke-opacity:1; fill:none" points="249.542,488.707 268.44,488.707 "/>
<polyline clip-path="url(#clip200)" style="stroke:#000000; stroke-linecap:round; stroke-linejoin:round; stroke-width:4; stroke-opacity:1; fill:none" points="249.542,267.806 268.44,267.806 "/>
<path clip-path="url(#clip200)" d="M126.205 1358.11 Q122.593 1358.11 120.765 1361.68 Q118.959 1365.22 118.959 1372.35 Q118.959 1379.45 120.765 1383.02 Q122.593 1386.56 126.205 1386.56 Q129.839 1386.56 131.644 1383.02 Q133.473 1379.45 133.473 1372.35 Q133.473 1365.22 131.644 1361.68 Q129.839 1358.11 126.205 1358.11 M126.205 1354.41 Q132.015 1354.41 135.07 1359.02 Q138.149 1363.6 138.149 1372.35 Q138.149 1381.08 135.07 1385.68 Q132.015 1390.27 126.205 1390.27 Q120.394 1390.27 117.316 1385.68 Q114.26 1381.08 114.26 1372.35 Q114.26 1363.6 117.316 1359.02 Q120.394 1354.41 126.205 1354.41 Z" fill="#000000" fill-rule="nonzero" fill-opacity="1" /><path clip-path="url(#clip200)" d="M146.366 1383.71 L151.251 1383.71 L151.251 1389.59 L146.366 1389.59 L146.366 1383.71 Z" fill="#000000" fill-rule="nonzero" fill-opacity="1" /><path clip-path="url(#clip200)" d="M171.436 1358.11 Q167.825 1358.11 165.996 1361.68 Q164.19 1365.22 164.19 1372.35 Q164.19 1379.45 165.996 1383.02 Q167.825 1386.56 171.436 1386.56 Q175.07 1386.56 176.876 1383.02 Q178.704 1379.45 178.704 1372.35 Q178.704 1365.22 176.876 1361.68 Q175.07 1358.11 171.436 1358.11 M171.436 1354.41 Q177.246 1354.41 180.301 1359.02 Q183.38 1363.6 183.38 1372.35 Q183.38 1381.08 180.301 1385.68 Q177.246 1390.27 171.436 1390.27 Q165.626 1390.27 162.547 1385.68 Q159.491 1381.08 159.491 1372.35 Q159.491 1363.6 162.547 1359.02 Q165.626 1354.41 171.436 1354.41 Z" fill="#000000" fill-rule="nonzero" fill-opacity="1" /><path clip-path="url(#clip200)" d="M201.598 1358.11 Q197.987 1358.11 196.158 1361.68 Q194.352 1365.22 194.352 1372.35 Q194.352 1379.45 196.158 1383.02 Q197.987 1386.56 201.598 1386.56 Q205.232 1386.56 207.037 1383.02 Q208.866 1379.45 208.866 1372.35 Q208.866 1365.22 207.037 1361.68 Q205.232 1358.11 201.598 1358.11 M201.598 1354.41 Q207.408 1354.41 210.463 1359.02 Q213.542 1363.6 213.542 1372.35 Q213.542 1381.08 210.463 1385.68 Q207.408 1390.27 201.598 1390.27 Q195.787 1390.27 192.709 1385.68 Q189.653 1381.08 189.653 1372.35 Q189.653 1363.6 192.709 1359.02 Q195.787 1354.41 201.598 1354.41 Z" fill="#000000" fill-rule="nonzero" fill-opacity="1" /><path clip-path="url(#clip200)" d="M127.2 1137.21 Q123.589 1137.21 121.76 1140.78 Q119.955 1144.32 119.955 1151.45 Q119.955 1158.55 121.76 1162.12 Q123.589 1165.66 127.2 1165.66 Q130.834 1165.66 132.64 1162.12 Q134.468 1158.55 134.468 1151.45 Q134.468 1144.32 132.64 1140.78 Q130.834 1137.21 127.2 1137.21 M127.2 1133.51 Q133.01 1133.51 136.066 1138.11 Q139.144 1142.7 139.144 1151.45 Q139.144 1160.17 136.066 1164.78 Q133.01 1169.36 127.2 1169.36 Q121.39 1169.36 118.311 1164.78 Q115.256 1160.17 115.256 1151.45 Q115.256 1142.7 118.311 1138.11 Q121.39 1133.51 127.2 1133.51 Z" fill="#000000" fill-rule="nonzero" fill-opacity="1" /><path clip-path="url(#clip200)" d="M147.362 1162.81 L152.246 1162.81 L152.246 1168.69 L147.362 1168.69 L147.362 1162.81 Z" fill="#000000" fill-rule="nonzero" fill-opacity="1" /><path clip-path="url(#clip200)" d="M172.431 1137.21 Q168.82 1137.21 166.991 1140.78 Q165.186 1144.32 165.186 1151.45 Q165.186 1158.55 166.991 1162.12 Q168.82 1165.66 172.431 1165.66 Q176.065 1165.66 177.871 1162.12 Q179.7 1158.55 179.7 1151.45 Q179.7 1144.32 177.871 1140.78 Q176.065 1137.21 172.431 1137.21 M172.431 1133.51 Q178.241 1133.51 181.297 1138.11 Q184.376 1142.7 184.376 1151.45 Q184.376 1160.17 181.297 1164.78 Q178.241 1169.36 172.431 1169.36 Q166.621 1169.36 163.542 1164.78 Q160.487 1160.17 160.487 1151.45 Q160.487 1142.7 163.542 1138.11 Q166.621 1133.51 172.431 1133.51 Z" fill="#000000" fill-rule="nonzero" fill-opacity="1" /><path clip-path="url(#clip200)" d="M192.639 1134.13 L210.996 1134.13 L210.996 1138.07 L196.922 1138.07 L196.922 1146.54 Q197.94 1146.19 198.959 1146.03 Q199.977 1145.85 200.996 1145.85 Q206.783 1145.85 210.162 1149.02 Q213.542 1152.19 213.542 1157.6 Q213.542 1163.18 210.07 1166.28 Q206.598 1169.36 200.278 1169.36 Q198.102 1169.36 195.834 1168.99 Q193.588 1168.62 191.181 1167.88 L191.181 1163.18 Q193.264 1164.32 195.487 1164.87 Q197.709 1165.43 200.186 1165.43 Q204.19 1165.43 206.528 1163.32 Q208.866 1161.22 208.866 1157.6 Q208.866 1153.99 206.528 1151.89 Q204.19 1149.78 200.186 1149.78 Q198.311 1149.78 196.436 1150.2 Q194.584 1150.61 192.639 1151.49 L192.639 1134.13 Z" fill="#000000" fill-rule="nonzero" fill-opacity="1" /><path clip-path="url(#clip200)" d="M126.205 916.309 Q122.593 916.309 120.765 919.874 Q118.959 923.416 118.959 930.545 Q118.959 937.652 120.765 941.216 Q122.593 944.758 126.205 944.758 Q129.839 944.758 131.644 941.216 Q133.473 937.652 133.473 930.545 Q133.473 923.416 131.644 919.874 Q129.839 916.309 126.205 916.309 M126.205 912.605 Q132.015 912.605 135.07 917.212 Q138.149 921.795 138.149 930.545 Q138.149 939.272 135.07 943.878 Q132.015 948.462 126.205 948.462 Q120.394 948.462 117.316 943.878 Q114.26 939.272 114.26 930.545 Q114.26 921.795 117.316 917.212 Q120.394 912.605 126.205 912.605 Z" fill="#000000" fill-rule="nonzero" fill-opacity="1" /><path clip-path="url(#clip200)" d="M146.366 941.911 L151.251 941.911 L151.251 947.79 L146.366 947.79 L146.366 941.911 Z" fill="#000000" fill-rule="nonzero" fill-opacity="1" /><path clip-path="url(#clip200)" d="M162.246 943.855 L169.885 943.855 L169.885 917.49 L161.575 919.156 L161.575 914.897 L169.839 913.23 L174.514 913.23 L174.514 943.855 L182.153 943.855 L182.153 947.79 L162.246 947.79 L162.246 943.855 Z" fill="#000000" fill-rule="nonzero" fill-opacity="1" /><path clip-path="url(#clip200)" d="M201.598 916.309 Q197.987 916.309 196.158 919.874 Q194.352 923.416 194.352 930.545 Q194.352 937.652 196.158 941.216 Q197.987 944.758 201.598 944.758 Q205.232 944.758 207.037 941.216 Q208.866 937.652 208.866 930.545 Q208.866 923.416 207.037 919.874 Q205.232 916.309 201.598 916.309 M201.598 912.605 Q207.408 912.605 210.463 917.212 Q213.542 921.795 213.542 930.545 Q213.542 939.272 210.463 943.878 Q207.408 948.462 201.598 948.462 Q195.787 948.462 192.709 943.878 Q189.653 939.272 189.653 930.545 Q189.653 921.795 192.709 917.212 Q195.787 912.605 201.598 912.605 Z" fill="#000000" fill-rule="nonzero" fill-opacity="1" /><path clip-path="url(#clip200)" d="M127.2 695.408 Q123.589 695.408 121.76 698.972 Q119.955 702.514 119.955 709.644 Q119.955 716.75 121.76 720.315 Q123.589 723.856 127.2 723.856 Q130.834 723.856 132.64 720.315 Q134.468 716.75 134.468 709.644 Q134.468 702.514 132.64 698.972 Q130.834 695.408 127.2 695.408 M127.2 691.704 Q133.01 691.704 136.066 696.31 Q139.144 700.894 139.144 709.644 Q139.144 718.37 136.066 722.977 Q133.01 727.56 127.2 727.56 Q121.39 727.56 118.311 722.977 Q115.256 718.37 115.256 709.644 Q115.256 700.894 118.311 696.31 Q121.39 691.704 127.2 691.704 Z" fill="#000000" fill-rule="nonzero" fill-opacity="1" /><path clip-path="url(#clip200)" d="M147.362 721.009 L152.246 721.009 L152.246 726.889 L147.362 726.889 L147.362 721.009 Z" fill="#000000" fill-rule="nonzero" fill-opacity="1" /><path clip-path="url(#clip200)" d="M163.241 722.954 L170.88 722.954 L170.88 696.588 L162.57 698.255 L162.57 693.996 L170.834 692.329 L175.51 692.329 L175.51 722.954 L183.149 722.954 L183.149 726.889 L163.241 726.889 L163.241 722.954 Z" fill="#000000" fill-rule="nonzero" fill-opacity="1" /><path clip-path="url(#clip200)" d="M192.639 692.329 L210.996 692.329 L210.996 696.264 L196.922 696.264 L196.922 704.736 Q197.94 704.389 198.959 704.227 Q199.977 704.042 200.996 704.042 Q206.783 704.042 210.162 707.213 Q213.542 710.384 213.542 715.801 Q213.542 721.38 210.07 724.481 Q206.598 727.56 200.278 727.56 Q198.102 727.56 195.834 727.19 Q193.588 726.819 191.181 726.079 L191.181 721.38 Q193.264 722.514 195.487 723.069 Q197.709 723.625 200.186 723.625 Q204.19 723.625 206.528 721.519 Q208.866 719.412 208.866 715.801 Q208.866 712.19 206.528 710.083 Q204.19 707.977 200.186 707.977 Q198.311 707.977 196.436 708.394 Q194.584 708.81 192.639 709.69 L192.639 692.329 Z" fill="#000000" fill-rule="nonzero" fill-opacity="1" /><path clip-path="url(#clip200)" d="M126.205 474.506 Q122.593 474.506 120.765 478.071 Q118.959 481.612 118.959 488.742 Q118.959 495.848 120.765 499.413 Q122.593 502.955 126.205 502.955 Q129.839 502.955 131.644 499.413 Q133.473 495.848 133.473 488.742 Q133.473 481.612 131.644 478.071 Q129.839 474.506 126.205 474.506 M126.205 470.802 Q132.015 470.802 135.07 475.409 Q138.149 479.992 138.149 488.742 Q138.149 497.469 135.07 502.075 Q132.015 506.658 126.205 506.658 Q120.394 506.658 117.316 502.075 Q114.26 497.469 114.26 488.742 Q114.26 479.992 117.316 475.409 Q120.394 470.802 126.205 470.802 Z" fill="#000000" fill-rule="nonzero" fill-opacity="1" /><path clip-path="url(#clip200)" d="M146.366 500.108 L151.251 500.108 L151.251 505.987 L146.366 505.987 L146.366 500.108 Z" fill="#000000" fill-rule="nonzero" fill-opacity="1" /><path clip-path="url(#clip200)" d="M165.464 502.052 L181.783 502.052 L181.783 505.987 L159.839 505.987 L159.839 502.052 Q162.501 499.297 167.084 494.668 Q171.69 490.015 172.871 488.672 Q175.116 486.149 175.996 484.413 Q176.899 482.654 176.899 480.964 Q176.899 478.21 174.954 476.473 Q173.033 474.737 169.931 474.737 Q167.732 474.737 165.278 475.501 Q162.848 476.265 160.07 477.816 L160.07 473.094 Q162.894 471.96 165.348 471.381 Q167.802 470.802 169.839 470.802 Q175.209 470.802 178.403 473.487 Q181.598 476.173 181.598 480.663 Q181.598 482.793 180.788 484.714 Q180.001 486.612 177.894 489.205 Q177.315 489.876 174.214 493.094 Q171.112 496.288 165.464 502.052 Z" fill="#000000" fill-rule="nonzero" fill-opacity="1" /><path clip-path="url(#clip200)" d="M201.598 474.506 Q197.987 474.506 196.158 478.071 Q194.352 481.612 194.352 488.742 Q194.352 495.848 196.158 499.413 Q197.987 502.955 201.598 502.955 Q205.232 502.955 207.037 499.413 Q208.866 495.848 208.866 488.742 Q208.866 481.612 207.037 478.071 Q205.232 474.506 201.598 474.506 M201.598 470.802 Q207.408 470.802 210.463 475.409 Q213.542 479.992 213.542 488.742 Q213.542 497.469 210.463 502.075 Q207.408 506.658 201.598 506.658 Q195.787 506.658 192.709 502.075 Q189.653 497.469 189.653 488.742 Q189.653 479.992 192.709 475.409 Q195.787 470.802 201.598 470.802 Z" fill="#000000" fill-rule="nonzero" fill-opacity="1" /><path clip-path="url(#clip200)" d="M127.2 253.604 Q123.589 253.604 121.76 257.169 Q119.955 260.711 119.955 267.84 Q119.955 274.947 121.76 278.512 Q123.589 282.053 127.2 282.053 Q130.834 282.053 132.64 278.512 Q134.468 274.947 134.468 267.84 Q134.468 260.711 132.64 257.169 Q130.834 253.604 127.2 253.604 M127.2 249.901 Q133.01 249.901 136.066 254.507 Q139.144 259.09 139.144 267.84 Q139.144 276.567 136.066 281.174 Q133.01 285.757 127.2 285.757 Q121.39 285.757 118.311 281.174 Q115.256 276.567 115.256 267.84 Q115.256 259.09 118.311 254.507 Q121.39 249.901 127.2 249.901 Z" fill="#000000" fill-rule="nonzero" fill-opacity="1" /><path clip-path="url(#clip200)" d="M147.362 279.206 L152.246 279.206 L152.246 285.086 L147.362 285.086 L147.362 279.206 Z" fill="#000000" fill-rule="nonzero" fill-opacity="1" /><path clip-path="url(#clip200)" d="M166.459 281.15 L182.778 281.15 L182.778 285.086 L160.834 285.086 L160.834 281.15 Q163.496 278.396 168.079 273.766 Q172.686 269.113 173.866 267.771 Q176.112 265.248 176.991 263.512 Q177.894 261.752 177.894 260.063 Q177.894 257.308 175.95 255.572 Q174.028 253.836 170.927 253.836 Q168.727 253.836 166.274 254.6 Q163.843 255.363 161.065 256.914 L161.065 252.192 Q163.89 251.058 166.343 250.479 Q168.797 249.901 170.834 249.901 Q176.204 249.901 179.399 252.586 Q182.593 255.271 182.593 259.762 Q182.593 261.891 181.783 263.813 Q180.996 265.711 178.889 268.303 Q178.311 268.975 175.209 272.192 Q172.107 275.387 166.459 281.15 Z" fill="#000000" fill-rule="nonzero" fill-opacity="1" /><path clip-path="url(#clip200)" d="M192.639 250.526 L210.996 250.526 L210.996 254.461 L196.922 254.461 L196.922 262.933 Q197.94 262.586 198.959 262.424 Q199.977 262.238 200.996 262.238 Q206.783 262.238 210.162 265.41 Q213.542 268.581 213.542 273.998 Q213.542 279.576 210.07 282.678 Q206.598 285.757 200.278 285.757 Q198.102 285.757 195.834 285.386 Q193.588 285.016 191.181 284.275 L191.181 279.576 Q193.264 280.711 195.487 281.266 Q197.709 281.822 200.186 281.822 Q204.19 281.822 206.528 279.715 Q208.866 277.609 208.866 273.998 Q208.866 270.387 206.528 268.28 Q204.19 266.174 200.186 266.174 Q198.311 266.174 196.436 266.59 Q194.584 267.007 192.639 267.887 L192.639 250.526 Z" fill="#000000" fill-rule="nonzero" fill-opacity="1" /><path clip-path="url(#clip200)" d="M14.479 868.129 L19.3487 868.129 L19.3487 873.731 Q19.3487 876.882 20.6219 878.123 Q21.895 879.333 25.2052 879.333 L28.3562 879.333 L28.3562 869.689 L32.9077 869.689 L32.9077 879.333 L64.0042 879.333 L64.0042 885.221 L32.9077 885.221 L32.9077 890.823 L28.3562 890.823 L28.3562 885.221 L25.8736 885.221 Q19.9216 885.221 17.2162 882.452 Q14.479 879.683 14.479 873.667 L14.479 868.129 Z" fill="#000000" fill-rule="nonzero" fill-opacity="1" /><path clip-path="url(#clip200)" d="M33.8307 842.571 Q33.2578 843.558 33.0032 844.735 Q32.7167 845.881 32.7167 847.282 Q32.7167 852.247 35.9632 854.92 Q39.1779 857.562 45.2253 857.562 L64.0042 857.562 L64.0042 863.45 L28.3562 863.45 L28.3562 857.562 L33.8944 857.562 Q30.6479 855.716 29.0883 852.756 Q27.4968 849.796 27.4968 845.563 Q27.4968 844.958 27.5923 844.226 Q27.656 843.494 27.8151 842.603 L33.8307 842.571 Z" fill="#000000" fill-rule="nonzero" fill-opacity="1" /><path clip-path="url(#clip200)" d="M44.7161 807.369 L47.5806 807.369 L47.5806 834.295 Q53.6281 833.914 56.8109 830.667 Q59.9619 827.389 59.9619 821.564 Q59.9619 818.19 59.1344 815.039 Q58.3069 811.856 56.6518 808.737 L62.1899 808.737 Q63.5267 811.888 64.227 815.198 Q64.9272 818.509 64.9272 821.914 Q64.9272 830.444 59.9619 835.441 Q54.9967 840.407 46.5303 840.407 Q37.7774 840.407 32.6531 835.696 Q27.4968 830.954 27.4968 822.933 Q27.4968 815.739 32.1438 811.57 Q36.7589 807.369 44.7161 807.369 M42.9973 813.225 Q38.1912 813.289 35.3266 815.93 Q32.4621 818.54 32.4621 822.869 Q32.4621 827.771 35.2312 830.731 Q38.0002 833.659 43.0292 834.105 L42.9973 813.225 Z" fill="#000000" fill-rule="nonzero" fill-opacity="1" /><path clip-path="url(#clip200)" d="M46.212 794.255 Q52.6732 794.255 56.3653 791.613 Q60.0256 788.94 60.0256 784.293 Q60.0256 779.646 56.3653 776.972 Q52.6732 774.299 46.212 774.299 Q39.7508 774.299 36.0905 776.972 Q32.3984 779.646 32.3984 784.293 Q32.3984 788.94 36.0905 791.613 Q39.7508 794.255 46.212 794.255 M58.657 774.299 Q61.8398 776.145 63.3994 778.978 Q64.9272 781.778 64.9272 785.725 Q64.9272 792.186 59.771 796.26 Q54.6147 800.303 46.212 800.303 Q37.8093 800.303 32.6531 796.26 Q27.4968 792.186 27.4968 785.725 Q27.4968 781.778 29.0564 778.978 Q30.5842 776.145 33.7671 774.299 L28.3562 774.299 L28.3562 768.442 L77.5631 768.442 L77.5631 774.299 L58.657 774.299 Z" fill="#000000" fill-rule="nonzero" fill-opacity="1" /><path clip-path="url(#clip200)" d="M49.9359 756.984 L28.3562 756.984 L28.3562 751.128 L49.7131 751.128 Q54.7739 751.128 57.3202 749.154 Q59.8346 747.181 59.8346 743.234 Q59.8346 738.492 56.8109 735.754 Q53.7872 732.985 48.5673 732.985 L28.3562 732.985 L28.3562 727.129 L64.0042 727.129 L64.0042 732.985 L58.5296 732.985 Q61.7762 735.118 63.3676 737.951 Q64.9272 740.751 64.9272 744.475 Q64.9272 750.618 61.1078 753.801 Q57.2883 756.984 49.9359 756.984 M27.4968 742.247 L27.4968 742.247 Z" fill="#000000" fill-rule="nonzero" fill-opacity="1" /><path clip-path="url(#clip200)" d="M44.7161 684.574 L47.5806 684.574 L47.5806 711.501 Q53.6281 711.119 56.8109 707.873 Q59.9619 704.594 59.9619 698.77 Q59.9619 695.396 59.1344 692.245 Q58.3069 689.062 56.6518 685.943 L62.1899 685.943 Q63.5267 689.094 64.227 692.404 Q64.9272 695.714 64.9272 699.12 Q64.9272 707.65 59.9619 712.647 Q54.9967 717.612 46.5303 717.612 Q37.7774 717.612 32.6531 712.901 Q27.4968 708.159 27.4968 700.138 Q27.4968 692.945 32.1438 688.775 Q36.7589 684.574 44.7161 684.574 M42.9973 690.431 Q38.1912 690.494 35.3266 693.136 Q32.4621 695.746 32.4621 700.075 Q32.4621 704.976 35.2312 707.936 Q38.0002 710.864 43.0292 711.31 L42.9973 690.431 Z" fill="#000000" fill-rule="nonzero" fill-opacity="1" /><path clip-path="url(#clip200)" d="M42.4881 645.329 L64.0042 645.329 L64.0042 651.186 L42.679 651.186 Q37.6183 651.186 35.1038 653.159 Q32.5894 655.133 32.5894 659.079 Q32.5894 663.822 35.6131 666.559 Q38.6368 669.296 43.8567 669.296 L64.0042 669.296 L64.0042 675.185 L28.3562 675.185 L28.3562 669.296 L33.8944 669.296 Q30.6797 667.196 29.0883 664.363 Q27.4968 661.498 27.4968 657.774 Q27.4968 651.632 31.3163 648.481 Q35.1038 645.329 42.4881 645.329 Z" fill="#000000" fill-rule="nonzero" fill-opacity="1" /><path clip-path="url(#clip200)" d="M29.7248 607.995 L35.1993 607.995 Q33.8307 610.477 33.1623 612.992 Q32.4621 615.474 32.4621 618.021 Q32.4621 623.718 36.0905 626.869 Q39.6872 630.02 46.212 630.02 Q52.7369 630.02 56.3653 626.869 Q59.9619 623.718 59.9619 618.021 Q59.9619 615.474 59.2935 612.992 Q58.5933 610.477 57.2247 607.995 L62.6355 607.995 Q63.7814 610.445 64.3543 613.087 Q64.9272 615.697 64.9272 618.657 Q64.9272 626.71 59.8664 631.452 Q54.8057 636.195 46.212 636.195 Q37.491 636.195 32.4939 631.42 Q27.4968 626.614 27.4968 618.275 Q27.4968 615.57 28.0697 612.992 Q28.6108 610.414 29.7248 607.995 Z" fill="#000000" fill-rule="nonzero" fill-opacity="1" /><path clip-path="url(#clip200)" d="M67.3143 582.977 Q73.68 585.46 75.6216 587.815 Q77.5631 590.171 77.5631 594.117 L77.5631 598.796 L72.6615 598.796 L72.6615 595.359 Q72.6615 592.94 71.5157 591.603 Q70.3699 590.266 66.1048 588.643 L63.4312 587.593 L28.3562 602.011 L28.3562 595.804 L56.238 584.664 L28.3562 573.524 L28.3562 567.318 L67.3143 582.977 Z" fill="#000000" fill-rule="nonzero" fill-opacity="1" /><polyline clip-path="url(#clip202)" style="stroke:#006400; stroke-linecap:round; stroke-linejoin:round; stroke-width:4; stroke-opacity:1; fill:none" points="309.067,1372.3 329.109,1372.3 349.151,1372.29 369.193,1372.28 389.235,1372.26 409.277,1372.24 429.319,1372.2 449.361,1372.15 469.403,1372.08 489.445,1371.98 509.488,1371.85 529.53,1371.66 549.572,1371.41 569.614,1371.07 589.656,1370.61 609.698,1370.01 629.74,1369.21 649.782,1368.16 669.824,1366.79 689.866,1365.03 709.908,1362.78 729.95,1359.92 749.992,1356.32 770.034,1351.82 790.076,1346.24 810.118,1339.38 830.161,1331.02 850.203,1320.91 870.245,1308.79 890.287,1294.36 910.329,1277.35 930.371,1257.46 950.413,1234.4 970.455,1207.89 990.497,1177.7 1010.54,1143.62 1030.58,1105.5 1050.62,1063.26 1070.67,1016.9 1090.71,966.526 1110.75,912.336 1130.79,854.653 1150.83,793.919 1170.88,730.698 1190.92,665.678 1210.96,599.656 1231,533.531 1251.04,468.285 1271.09,404.959 1291.13,344.628 1311.17,288.373 1331.21,237.247 1351.25,192.243 1371.3,154.263 1391.34,124.088 1411.38,102.348 1431.42,89.5065 1451.46,85.838 1471.51,91.4218 1491.55,106.138 1511.59,129.67 1531.63,161.522 1551.67,201.027 1571.72,247.378 1591.76,299.651 1611.8,356.839 1631.84,417.88 1651.89,481.692 1671.93,547.205 1691.97,613.387 1712.01,679.271 1732.05,743.981 1752.1,806.738 1772.14,866.882 1792.18,923.873 1812.22,977.295 1832.26,1026.85 1852.31,1072.36 1872.35,1113.74 1892.39,1151.02 1912.43,1184.28 1932.47,1213.68 1952.52,1239.45 1972.56,1261.84 1992.6,1281.11 2012.64,1297.56 2032.68,1311.48 2052.73,1323.17 2072.77,1332.89 2092.81,1340.92 2112.85,1347.49 2132.89,1352.83 2152.94,1357.13 2172.98,1360.57 2193.02,1363.29 2213.06,1365.43 2233.1,1367.1 2253.15,1368.4 2273.19,1369.39 2293.23,1370.15 "/>
<path clip-path="url(#clip200)" d="M1835.73 196.379 L2282.65 196.379 L2282.65 92.6992 L1835.73 92.6992  Z" fill="#ffffff" fill-rule="evenodd" fill-opacity="1"/>
<polyline clip-path="url(#clip200)" style="stroke:#000000; stroke-linecap:round; stroke-linejoin:round; stroke-width:4; stroke-opacity:1; fill:none" points="1835.73,196.379 2282.65,196.379 2282.65,92.6992 1835.73,92.6992 1835.73,196.379 "/>
<polyline clip-path="url(#clip200)" style="stroke:#006400; stroke-linecap:round; stroke-linejoin:round; stroke-width:4; stroke-opacity:1; fill:none" points="1859.1,144.539 1999.31,144.539 "/>
<path clip-path="url(#clip200)" d="M2022.68 127.259 L2051.92 127.259 L2051.92 131.194 L2039.65 131.194 L2039.65 161.819 L2034.95 161.819 L2034.95 131.194 L2022.68 131.194 L2022.68 127.259 Z" fill="#000000" fill-rule="nonzero" fill-opacity="1" /><path clip-path="url(#clip200)" d="M2071.87 140.292 L2101.55 140.292 L2101.55 144.18 L2071.87 144.18 L2071.87 140.292 M2071.87 149.736 L2101.55 149.736 L2101.55 153.671 L2071.87 153.671 L2071.87 149.736 Z" fill="#000000" fill-rule="nonzero" fill-opacity="1" /><path clip-path="url(#clip200)" d="M2130.74 157.884 L2147.06 157.884 L2147.06 161.819 L2125.11 161.819 L2125.11 157.884 Q2127.78 155.129 2132.36 150.5 Q2136.97 145.847 2138.15 144.504 Q2140.39 141.981 2141.27 140.245 Q2142.17 138.486 2142.17 136.796 Q2142.17 134.042 2140.23 132.305 Q2138.31 130.569 2135.21 130.569 Q2133.01 130.569 2130.55 131.333 Q2128.12 132.097 2125.35 133.648 L2125.35 128.926 Q2128.17 127.792 2130.62 127.213 Q2133.08 126.634 2135.11 126.634 Q2140.48 126.634 2143.68 129.319 Q2146.87 132.005 2146.87 136.495 Q2146.87 138.625 2146.06 140.546 Q2145.28 142.444 2143.17 145.037 Q2142.59 145.708 2139.49 148.926 Q2136.39 152.12 2130.74 157.884 Z" fill="#000000" fill-rule="nonzero" fill-opacity="1" /><path clip-path="url(#clip200)" d="M2156.92 127.259 L2175.28 127.259 L2175.28 131.194 L2161.2 131.194 L2161.2 139.667 Q2162.22 139.319 2163.24 139.157 Q2164.26 138.972 2165.28 138.972 Q2171.06 138.972 2174.44 142.143 Q2177.82 145.315 2177.82 150.731 Q2177.82 156.31 2174.35 159.412 Q2170.88 162.49 2164.56 162.49 Q2162.38 162.49 2160.11 162.12 Q2157.87 161.75 2155.46 161.009 L2155.46 156.31 Q2157.54 157.444 2159.77 158 Q2161.99 158.555 2164.47 158.555 Q2168.47 158.555 2170.81 156.449 Q2173.15 154.342 2173.15 150.731 Q2173.15 147.12 2170.81 145.014 Q2168.47 142.907 2164.47 142.907 Q2162.59 142.907 2160.72 143.324 Q2158.86 143.741 2156.92 144.62 L2156.92 127.259 Z" fill="#000000" fill-rule="nonzero" fill-opacity="1" /><path clip-path="url(#clip200)" d="M2185.85 127.259 L2208.08 127.259 L2208.08 129.25 L2195.53 161.819 L2190.65 161.819 L2202.45 131.194 L2185.85 131.194 L2185.85 127.259 Z" fill="#000000" fill-rule="nonzero" fill-opacity="1" /><path clip-path="url(#clip200)" d="M2231.85 127.259 L2236.53 127.259 L2236.53 141.866 L2252.03 127.259 L2258.05 127.259 L2240.9 143.37 L2259.28 161.819 L2253.12 161.819 L2236.53 145.176 L2236.53 161.819 L2231.85 161.819 L2231.85 127.259 Z" fill="#000000" fill-rule="nonzero" fill-opacity="1" /></svg>
