<?xml version="1.0" encoding="utf-8"?>
<svg xmlns="http://www.w3.org/2000/svg" xmlns:xlink="http://www.w3.org/1999/xlink" width="600" height="400" viewBox="0 0 2400 1600">
<defs>
  <clipPath id="clip600">
    <rect x="0" y="0" width="2400" height="1600"/>
  </clipPath>
</defs>
<path clip-path="url(#clip600)" d="M0 1600 L2400 1600 L2400 0 L0 0  Z" fill="#ffffff" fill-rule="evenodd" fill-opacity="1"/>
<defs>
  <clipPath id="clip601">
    <rect x="480" y="0" width="1681" height="1600"/>
  </clipPath>
</defs>
<path clip-path="url(#clip600)" d="M400.671 1423.18 L2352.76 1423.18 L2352.76 47.2441 L400.671 47.2441  Z" fill="#ffffff" fill-rule="evenodd" fill-opacity="1"/>
<defs>
  <clipPath id="clip602">
    <rect x="400" y="47" width="1953" height="1377"/>
  </clipPath>
</defs>
<polyline clip-path="url(#clip602)" style="stroke:#000000; stroke-linecap:round; stroke-linejoin:round; stroke-width:2; stroke-opacity:0.1; fill:none" points="455.915,1423.18 455.915,47.2441 "/>
<polyline clip-path="url(#clip602)" style="stroke:#000000; stroke-linecap:round; stroke-linejoin:round; stroke-width:2; stroke-opacity:0.1; fill:none" points="824.234,1423.18 824.234,47.2441 "/>
<polyline clip-path="url(#clip602)" style="stroke:#000000; stroke-linecap:round; stroke-linejoin:round; stroke-width:2; stroke-opacity:0.1; fill:none" points="1192.55,1423.18 1192.55,47.2441 "/>
<polyline clip-path="url(#clip602)" style="stroke:#000000; stroke-linecap:round; stroke-linejoin:round; stroke-width:2; stroke-opacity:0.1; fill:none" points="1560.87,1423.18 1560.87,47.2441 "/>
<polyline clip-path="url(#clip602)" style="stroke:#000000; stroke-linecap:round; stroke-linejoin:round; stroke-width:2; stroke-opacity:0.1; fill:none" points="1929.19,1423.18 1929.19,47.2441 "/>
<polyline clip-path="url(#clip602)" style="stroke:#000000; stroke-linecap:round; stroke-linejoin:round; stroke-width:2; stroke-opacity:0.1; fill:none" points="2297.51,1423.18 2297.51,47.2441 "/>
<polyline clip-path="url(#clip602)" style="stroke:#000000; stroke-linecap:round; stroke-linejoin:round; stroke-width:2; stroke-opacity:0.1; fill:none" points="400.671,1384.24 2352.76,1384.24 "/>
<polyline clip-path="url(#clip602)" style="stroke:#000000; stroke-linecap:round; stroke-linejoin:round; stroke-width:2; stroke-opacity:0.1; fill:none" points="400.671,1188.51 2352.76,1188.51 "/>
<polyline clip-path="url(#clip602)" style="stroke:#000000; stroke-linecap:round; stroke-linejoin:round; stroke-width:2; stroke-opacity:0.1; fill:none" points="400.671,992.783 2352.76,992.783 "/>
<polyline clip-path="url(#clip602)" style="stroke:#000000; stroke-linecap:round; stroke-linejoin:round; stroke-width:2; stroke-opacity:0.1; fill:none" points="400.671,797.055 2352.76,797.055 "/>
<polyline clip-path="url(#clip602)" style="stroke:#000000; stroke-linecap:round; stroke-linejoin:round; stroke-width:2; stroke-opacity:0.1; fill:none" points="400.671,601.327 2352.76,601.327 "/>
<polyline clip-path="url(#clip602)" style="stroke:#000000; stroke-linecap:round; stroke-linejoin:round; stroke-width:2; stroke-opacity:0.1; fill:none" points="400.671,405.599 2352.76,405.599 "/>
<polyline clip-path="url(#clip602)" style="stroke:#000000; stroke-linecap:round; stroke-linejoin:round; stroke-width:2; stroke-opacity:0.1; fill:none" points="400.671,209.871 2352.76,209.871 "/>
<polyline clip-path="url(#clip600)" style="stroke:#000000; stroke-linecap:round; stroke-linejoin:round; stroke-width:4; stroke-opacity:1; fill:none" points="400.671,1423.18 2352.76,1423.18 "/>
<polyline clip-path="url(#clip600)" style="stroke:#000000; stroke-linecap:round; stroke-linejoin:round; stroke-width:4; stroke-opacity:1; fill:none" points="455.915,1423.18 455.915,1404.28 "/>
<polyline clip-path="url(#clip600)" style="stroke:#000000; stroke-linecap:round; stroke-linejoin:round; stroke-width:4; stroke-opacity:1; fill:none" points="824.234,1423.18 824.234,1404.28 "/>
<polyline clip-path="url(#clip600)" style="stroke:#000000; stroke-linecap:round; stroke-linejoin:round; stroke-width:4; stroke-opacity:1; fill:none" points="1192.55,1423.18 1192.55,1404.28 "/>
<polyline clip-path="url(#clip600)" style="stroke:#000000; stroke-linecap:round; stroke-linejoin:round; stroke-width:4; stroke-opacity:1; fill:none" points="1560.87,1423.18 1560.87,1404.28 "/>
<polyline clip-path="url(#clip600)" style="stroke:#000000; stroke-linecap:round; stroke-linejoin:round; stroke-width:4; stroke-opacity:1; fill:none" points="1929.19,1423.18 1929.19,1404.28 "/>
<polyline clip-path="url(#clip600)" style="stroke:#000000; stroke-linecap:round; stroke-linejoin:round; stroke-width:4; stroke-opacity:1; fill:none" points="2297.51,1423.18 2297.51,1404.28 "/>
<path clip-path="url(#clip600)" d="M455.915 1454.1 Q452.304 1454.1 450.475 1457.66 Q448.67 1461.2 448.67 1468.33 Q448.67 1475.44 450.475 1479.01 Q452.304 1482.55 455.915 1482.55 Q459.549 1482.55 461.355 1479.01 Q463.184 1475.44 463.184 1468.33 Q463.184 1461.2 461.355 1457.66 Q459.549 1454.1 455.915 1454.1 M455.915 1450.39 Q461.725 1450.39 464.781 1455 Q467.86 1459.58 467.86 1468.33 Q467.86 1477.06 464.781 1481.67 Q461.725 1486.25 455.915 1486.25 Q450.105 1486.25 447.026 1481.67 Q443.971 1477.06 443.971 1468.33 Q443.971 1459.58 447.026 1455 Q450.105 1450.39 455.915 1450.39 Z" fill="#000000" fill-rule="nonzero" fill-opacity="1" /><path clip-path="url(#clip600)" d="M814.616 1481.64 L822.255 1481.64 L822.255 1455.28 L813.944 1456.95 L813.944 1452.69 L822.208 1451.02 L826.884 1451.02 L826.884 1481.64 L834.523 1481.64 L834.523 1485.58 L814.616 1485.58 L814.616 1481.64 Z" fill="#000000" fill-rule="nonzero" fill-opacity="1" /><path clip-path="url(#clip600)" d="M1187.21 1481.64 L1203.52 1481.64 L1203.52 1485.58 L1181.58 1485.58 L1181.58 1481.64 Q1184.24 1478.89 1188.83 1474.26 Q1193.43 1469.61 1194.61 1468.27 Q1196.86 1465.74 1197.74 1464.01 Q1198.64 1462.25 1198.64 1460.56 Q1198.64 1457.8 1196.7 1456.07 Q1194.77 1454.33 1191.67 1454.33 Q1189.47 1454.33 1187.02 1455.09 Q1184.59 1455.86 1181.81 1457.41 L1181.81 1452.69 Q1184.64 1451.55 1187.09 1450.97 Q1189.54 1450.39 1191.58 1450.39 Q1196.95 1450.39 1200.14 1453.08 Q1203.34 1455.77 1203.34 1460.26 Q1203.34 1462.39 1202.53 1464.31 Q1201.74 1466.2 1199.64 1468.8 Q1199.06 1469.47 1195.96 1472.69 Q1192.85 1475.88 1187.21 1481.64 Z" fill="#000000" fill-rule="nonzero" fill-opacity="1" /><path clip-path="url(#clip600)" d="M1565.12 1466.95 Q1568.48 1467.66 1570.35 1469.93 Q1572.25 1472.2 1572.25 1475.53 Q1572.25 1480.65 1568.73 1483.45 Q1565.21 1486.25 1558.73 1486.25 Q1556.55 1486.25 1554.24 1485.81 Q1551.95 1485.39 1549.49 1484.54 L1549.49 1480.02 Q1551.44 1481.16 1553.75 1481.74 Q1556.07 1482.32 1558.59 1482.32 Q1562.99 1482.32 1565.28 1480.58 Q1567.6 1478.84 1567.6 1475.53 Q1567.6 1472.48 1565.44 1470.77 Q1563.31 1469.03 1559.49 1469.03 L1555.47 1469.03 L1555.47 1465.19 L1559.68 1465.19 Q1563.13 1465.19 1564.96 1463.82 Q1566.79 1462.43 1566.79 1459.84 Q1566.79 1457.18 1564.89 1455.77 Q1563.01 1454.33 1559.49 1454.33 Q1557.57 1454.33 1555.37 1454.75 Q1553.17 1455.16 1550.54 1456.04 L1550.54 1451.88 Q1553.2 1451.14 1555.51 1450.77 Q1557.85 1450.39 1559.91 1450.39 Q1565.23 1450.39 1568.34 1452.83 Q1571.44 1455.23 1571.44 1459.35 Q1571.44 1462.22 1569.79 1464.21 Q1568.15 1466.18 1565.12 1466.95 Z" fill="#000000" fill-rule="nonzero" fill-opacity="1" /><path clip-path="url(#clip600)" d="M1932.2 1455.09 L1920.39 1473.54 L1932.2 1473.54 L1932.2 1455.09 M1930.97 1451.02 L1936.85 1451.02 L1936.85 1473.54 L1941.78 1473.54 L1941.78 1477.43 L1936.85 1477.43 L1936.85 1485.58 L1932.2 1485.58 L1932.2 1477.43 L1916.6 1477.43 L1916.6 1472.92 L1930.97 1451.02 Z" fill="#000000" fill-rule="nonzero" fill-opacity="1" /><path clip-path="url(#clip600)" d="M2287.79 1451.02 L2306.14 1451.02 L2306.14 1454.96 L2292.07 1454.96 L2292.07 1463.43 Q2293.09 1463.08 2294.11 1462.92 Q2295.12 1462.73 2296.14 1462.73 Q2301.93 1462.73 2305.31 1465.9 Q2308.69 1469.08 2308.69 1474.49 Q2308.69 1480.07 2305.22 1483.17 Q2301.74 1486.25 2295.42 1486.25 Q2293.25 1486.25 2290.98 1485.88 Q2288.74 1485.51 2286.33 1484.77 L2286.33 1480.07 Q2288.41 1481.2 2290.63 1481.76 Q2292.86 1482.32 2295.33 1482.32 Q2299.34 1482.32 2301.67 1480.21 Q2304.01 1478.1 2304.01 1474.49 Q2304.01 1470.88 2301.67 1468.77 Q2299.34 1466.67 2295.33 1466.67 Q2293.46 1466.67 2291.58 1467.08 Q2289.73 1467.5 2287.79 1468.38 L2287.79 1451.02 Z" fill="#000000" fill-rule="nonzero" fill-opacity="1" /><path clip-path="url(#clip600)" d="M1004.99 1550.25 Q1004.99 1556.71 1007.63 1560.4 Q1010.3 1564.07 1014.95 1564.07 Q1019.6 1564.07 1022.27 1560.4 Q1024.94 1556.71 1024.94 1550.25 Q1024.94 1543.79 1022.27 1540.13 Q1019.6 1536.44 1014.95 1536.44 Q1010.3 1536.44 1007.63 1540.13 Q1004.99 1543.79 1004.99 1550.25 M1024.94 1562.7 Q1023.1 1565.88 1020.27 1567.44 Q1017.46 1568.97 1013.52 1568.97 Q1007.06 1568.97 1002.98 1563.81 Q998.941 1558.65 998.941 1550.25 Q998.941 1541.85 1002.98 1536.69 Q1007.06 1531.54 1013.52 1531.54 Q1017.46 1531.54 1020.27 1533.1 Q1023.1 1534.62 1024.94 1537.81 L1024.94 1532.4 L1030.8 1532.4 L1030.8 1581.6 L1024.94 1581.6 L1024.94 1562.7 Z" fill="#000000" fill-rule="nonzero" fill-opacity="1" /><path clip-path="url(#clip600)" d="M1069.95 1578.87 L1069.95 1583.42 L1036.08 1583.42 L1036.08 1578.87 L1069.95 1578.87 Z" fill="#000000" fill-rule="nonzero" fill-opacity="1" /><path clip-path="url(#clip600)" d="M1096.11 1537.87 Q1095.13 1537.3 1093.95 1537.04 Q1092.8 1536.76 1091.4 1536.76 Q1086.44 1536.76 1083.76 1540 Q1081.12 1543.22 1081.12 1549.27 L1081.12 1568.04 L1075.23 1568.04 L1075.23 1532.4 L1081.12 1532.4 L1081.12 1537.93 Q1082.97 1534.69 1085.93 1533.13 Q1088.89 1531.54 1093.12 1531.54 Q1093.73 1531.54 1094.46 1531.63 Q1095.19 1531.7 1096.08 1531.85 L1096.11 1537.87 Z" fill="#000000" fill-rule="nonzero" fill-opacity="1" /><path clip-path="url(#clip600)" d="M1118.46 1550.12 Q1111.36 1550.12 1108.62 1551.75 Q1105.88 1553.37 1105.88 1557.29 Q1105.88 1560.4 1107.92 1562.25 Q1109.99 1564.07 1113.52 1564.07 Q1118.39 1564.07 1121.32 1560.63 Q1124.28 1557.16 1124.28 1551.43 L1124.28 1550.12 L1118.46 1550.12 M1130.14 1547.71 L1130.14 1568.04 L1124.28 1568.04 L1124.28 1562.63 Q1122.28 1565.88 1119.28 1567.44 Q1116.29 1568.97 1111.96 1568.97 Q1106.49 1568.97 1103.24 1565.91 Q1100.03 1562.82 1100.03 1557.67 Q1100.03 1551.65 1104.04 1548.6 Q1108.08 1545.54 1116.07 1545.54 L1124.28 1545.54 L1124.28 1544.97 Q1124.28 1540.93 1121.61 1538.73 Q1118.97 1536.5 1114.16 1536.5 Q1111.1 1536.5 1108.21 1537.23 Q1105.31 1537.97 1102.64 1539.43 L1102.64 1534.02 Q1105.85 1532.78 1108.88 1532.17 Q1111.9 1531.54 1114.76 1531.54 Q1122.5 1531.54 1126.32 1535.55 Q1130.14 1539.56 1130.14 1547.71 Z" fill="#000000" fill-rule="nonzero" fill-opacity="1" /><path clip-path="url(#clip600)" d="M1142.2 1532.4 L1148.06 1532.4 L1148.06 1568.04 L1142.2 1568.04 L1142.2 1532.4 M1142.2 1518.52 L1148.06 1518.52 L1148.06 1525.93 L1142.2 1525.93 L1142.2 1518.52 Z" fill="#000000" fill-rule="nonzero" fill-opacity="1" /><path clip-path="url(#clip600)" d="M1189.94 1546.53 L1189.94 1568.04 L1184.09 1568.04 L1184.09 1546.72 Q1184.09 1541.66 1182.11 1539.14 Q1180.14 1536.63 1176.19 1536.63 Q1171.45 1536.63 1168.71 1539.65 Q1165.98 1542.68 1165.98 1547.9 L1165.98 1568.04 L1160.09 1568.04 L1160.09 1532.4 L1165.98 1532.4 L1165.98 1537.93 Q1168.08 1534.72 1170.91 1533.13 Q1173.77 1531.54 1177.5 1531.54 Q1183.64 1531.54 1186.79 1535.36 Q1189.94 1539.14 1189.94 1546.53 Z" fill="#000000" fill-rule="nonzero" fill-opacity="1" /><path clip-path="url(#clip600)" d="M1236.16 1536.5 Q1231.45 1536.5 1228.71 1540.19 Q1225.97 1543.85 1225.97 1550.25 Q1225.97 1556.65 1228.68 1560.34 Q1231.42 1564 1236.16 1564 Q1240.84 1564 1243.57 1560.31 Q1246.31 1556.62 1246.31 1550.25 Q1246.31 1543.92 1243.57 1540.23 Q1240.84 1536.5 1236.16 1536.5 M1236.16 1531.54 Q1243.8 1531.54 1248.16 1536.5 Q1252.52 1541.47 1252.52 1550.25 Q1252.52 1559 1248.16 1564 Q1243.8 1568.97 1236.16 1568.97 Q1228.49 1568.97 1224.13 1564 Q1219.8 1559 1219.8 1550.25 Q1219.8 1541.47 1224.13 1536.5 Q1228.49 1531.54 1236.16 1531.54 Z" fill="#000000" fill-rule="nonzero" fill-opacity="1" /><path clip-path="url(#clip600)" d="M1282.88 1537.87 Q1281.9 1537.3 1280.72 1537.04 Q1279.57 1536.76 1278.17 1536.76 Q1273.21 1536.76 1270.53 1540 Q1267.89 1543.22 1267.89 1549.27 L1267.89 1568.04 L1262 1568.04 L1262 1532.4 L1267.89 1532.4 L1267.89 1537.93 Q1269.74 1534.69 1272.7 1533.13 Q1275.66 1531.54 1279.89 1531.54 Q1280.5 1531.54 1281.23 1531.63 Q1281.96 1531.7 1282.85 1531.85 L1282.88 1537.87 Z" fill="#000000" fill-rule="nonzero" fill-opacity="1" /><path clip-path="url(#clip600)" d="M1313.25 1550.25 Q1313.25 1556.71 1315.89 1560.4 Q1318.56 1564.07 1323.21 1564.07 Q1327.86 1564.07 1330.53 1560.4 Q1333.2 1556.71 1333.2 1550.25 Q1333.2 1543.79 1330.53 1540.13 Q1327.86 1536.44 1323.21 1536.44 Q1318.56 1536.44 1315.89 1540.13 Q1313.25 1543.79 1313.25 1550.25 M1333.2 1562.7 Q1331.36 1565.88 1328.53 1567.44 Q1325.72 1568.97 1321.78 1568.97 Q1315.32 1568.97 1311.24 1563.81 Q1307.2 1558.65 1307.2 1550.25 Q1307.2 1541.85 1311.24 1536.69 Q1315.32 1531.54 1321.78 1531.54 Q1325.72 1531.54 1328.53 1533.1 Q1331.36 1534.62 1333.2 1537.81 L1333.2 1532.4 L1339.06 1532.4 L1339.06 1581.6 L1333.2 1581.6 L1333.2 1562.7 Z" fill="#000000" fill-rule="nonzero" fill-opacity="1" /><path clip-path="url(#clip600)" d="M1378.21 1578.87 L1378.21 1583.42 L1344.34 1583.42 L1344.34 1578.87 L1378.21 1578.87 Z" fill="#000000" fill-rule="nonzero" fill-opacity="1" /><path clip-path="url(#clip600)" d="M1406.44 1533.45 L1406.44 1538.98 Q1403.96 1537.71 1401.29 1537.07 Q1398.61 1536.44 1395.75 1536.44 Q1391.39 1536.44 1389.19 1537.77 Q1387.03 1539.11 1387.03 1541.79 Q1387.03 1543.82 1388.59 1545 Q1390.15 1546.15 1394.86 1547.2 L1396.86 1547.64 Q1403.1 1548.98 1405.71 1551.43 Q1408.35 1553.85 1408.35 1558.21 Q1408.35 1563.17 1404.4 1566.07 Q1400.49 1568.97 1393.61 1568.97 Q1390.75 1568.97 1387.63 1568.39 Q1384.54 1567.85 1381.11 1566.74 L1381.11 1560.69 Q1384.35 1562.38 1387.5 1563.24 Q1390.65 1564.07 1393.74 1564.07 Q1397.88 1564.07 1400.11 1562.66 Q1402.34 1561.23 1402.34 1558.65 Q1402.34 1556.27 1400.71 1554.99 Q1399.12 1553.72 1393.68 1552.54 L1391.64 1552.07 Q1386.2 1550.92 1383.78 1548.56 Q1381.36 1546.18 1381.36 1542.04 Q1381.36 1537.01 1384.93 1534.27 Q1388.49 1531.54 1395.05 1531.54 Q1398.29 1531.54 1401.16 1532.01 Q1404.02 1532.49 1406.44 1533.45 Z" fill="#000000" fill-rule="nonzero" fill-opacity="1" /><path clip-path="url(#clip600)" d="M1447.31 1546.53 L1447.31 1568.04 L1441.45 1568.04 L1441.45 1546.72 Q1441.45 1541.66 1439.48 1539.14 Q1437.51 1536.63 1433.56 1536.63 Q1428.82 1536.63 1426.08 1539.65 Q1423.34 1542.68 1423.34 1547.9 L1423.34 1568.04 L1417.45 1568.04 L1417.45 1532.4 L1423.34 1532.4 L1423.34 1537.93 Q1425.44 1534.72 1428.28 1533.13 Q1431.14 1531.54 1434.86 1531.54 Q1441.01 1531.54 1444.16 1535.36 Q1447.31 1539.14 1447.31 1546.53 Z" fill="#000000" fill-rule="nonzero" fill-opacity="1" /><path clip-path="url(#clip600)" d="M1472.8 1536.5 Q1468.09 1536.5 1465.36 1540.19 Q1462.62 1543.85 1462.62 1550.25 Q1462.62 1556.65 1465.32 1560.34 Q1468.06 1564 1472.8 1564 Q1477.48 1564 1480.22 1560.31 Q1482.96 1556.62 1482.96 1550.25 Q1482.96 1543.92 1480.22 1540.23 Q1477.48 1536.5 1472.8 1536.5 M1472.8 1531.54 Q1480.44 1531.54 1484.8 1536.5 Q1489.16 1541.47 1489.16 1550.25 Q1489.16 1559 1484.8 1564 Q1480.44 1568.97 1472.8 1568.97 Q1465.13 1568.97 1460.77 1564 Q1456.44 1559 1456.44 1550.25 Q1456.44 1541.47 1460.77 1536.5 Q1465.13 1531.54 1472.8 1531.54 Z" fill="#000000" fill-rule="nonzero" fill-opacity="1" /><path clip-path="url(#clip600)" d="M1495.47 1532.4 L1501.32 1532.4 L1508.64 1560.21 L1515.93 1532.4 L1522.84 1532.4 L1530.16 1560.21 L1537.45 1532.4 L1543.3 1532.4 L1533.98 1568.04 L1527.07 1568.04 L1519.4 1538.83 L1511.7 1568.04 L1504.79 1568.04 L1495.47 1532.4 Z" fill="#000000" fill-rule="nonzero" fill-opacity="1" /><path clip-path="url(#clip600)" d="M1572.36 1518.52 L1585.86 1518.52 L1585.86 1523.07 L1578.22 1523.07 L1578.22 1572.09 L1585.86 1572.09 L1585.86 1576.64 L1572.36 1576.64 L1572.36 1518.52 Z" fill="#000000" fill-rule="nonzero" fill-opacity="1" /><path clip-path="url(#clip600)" d="M1621.79 1549.81 Q1621.79 1543.44 1619.15 1539.94 Q1616.54 1536.44 1611.8 1536.44 Q1607.09 1536.44 1604.45 1539.94 Q1601.84 1543.44 1601.84 1549.81 Q1601.84 1556.14 1604.45 1559.64 Q1607.09 1563.14 1611.8 1563.14 Q1616.54 1563.14 1619.15 1559.64 Q1621.79 1556.14 1621.79 1549.81 M1627.65 1563.62 Q1627.65 1572.72 1623.61 1577.15 Q1619.57 1581.6 1611.23 1581.6 Q1608.14 1581.6 1605.4 1581.13 Q1602.66 1580.68 1600.09 1579.72 L1600.09 1574.03 Q1602.66 1575.43 1605.18 1576.1 Q1607.69 1576.76 1610.3 1576.76 Q1616.06 1576.76 1618.93 1573.74 Q1621.79 1570.75 1621.79 1564.67 L1621.79 1561.77 Q1619.98 1564.92 1617.15 1566.48 Q1614.31 1568.04 1610.37 1568.04 Q1603.81 1568.04 1599.8 1563.05 Q1595.79 1558.05 1595.79 1549.81 Q1595.79 1541.53 1599.8 1536.53 Q1603.81 1531.54 1610.37 1531.54 Q1614.31 1531.54 1617.15 1533.1 Q1619.98 1534.66 1621.79 1537.81 L1621.79 1532.4 L1627.65 1532.4 L1627.65 1563.62 Z" fill="#000000" fill-rule="nonzero" fill-opacity="1" /><path clip-path="url(#clip600)" d="M1650.12 1520.52 L1655.53 1520.52 L1638.98 1574.09 L1633.57 1574.09 L1650.12 1520.52 Z" fill="#000000" fill-rule="nonzero" fill-opacity="1" /><path clip-path="url(#clip600)" d="M1661.45 1518.52 L1667.34 1518.52 L1667.34 1547.77 L1684.81 1532.4 L1692.29 1532.4 L1673.39 1549.07 L1693.09 1568.04 L1685.45 1568.04 L1667.34 1550.63 L1667.34 1568.04 L1661.45 1568.04 L1661.45 1518.52 Z" fill="#000000" fill-rule="nonzero" fill-opacity="1" /><path clip-path="url(#clip600)" d="M1722.88 1549.81 Q1722.88 1543.44 1720.24 1539.94 Q1717.63 1536.44 1712.89 1536.44 Q1708.18 1536.44 1705.53 1539.94 Q1702.92 1543.44 1702.92 1549.81 Q1702.92 1556.14 1705.53 1559.64 Q1708.18 1563.14 1712.89 1563.14 Q1717.63 1563.14 1720.24 1559.64 Q1722.88 1556.14 1722.88 1549.81 M1728.74 1563.62 Q1728.74 1572.72 1724.69 1577.15 Q1720.65 1581.6 1712.31 1581.6 Q1709.23 1581.6 1706.49 1581.13 Q1703.75 1580.68 1701.17 1579.72 L1701.17 1574.03 Q1703.75 1575.43 1706.27 1576.1 Q1708.78 1576.76 1711.39 1576.76 Q1717.15 1576.76 1720.02 1573.74 Q1722.88 1570.75 1722.88 1564.67 L1722.88 1561.77 Q1721.07 1564.92 1718.23 1566.48 Q1715.4 1568.04 1711.45 1568.04 Q1704.9 1568.04 1700.89 1563.05 Q1696.88 1558.05 1696.88 1549.81 Q1696.88 1541.53 1700.89 1536.53 Q1704.9 1531.54 1711.45 1531.54 Q1715.4 1531.54 1718.23 1533.1 Q1721.07 1534.66 1722.88 1537.81 L1722.88 1532.4 L1728.74 1532.4 L1728.74 1563.62 Z" fill="#000000" fill-rule="nonzero" fill-opacity="1" /><path clip-path="url(#clip600)" d="M1754.49 1518.52 L1754.49 1576.64 L1740.99 1576.64 L1740.99 1572.09 L1748.6 1572.09 L1748.6 1523.07 L1740.99 1523.07 L1740.99 1518.52 L1754.49 1518.52 Z" fill="#000000" fill-rule="nonzero" fill-opacity="1" /><polyline clip-path="url(#clip600)" style="stroke:#000000; stroke-linecap:round; stroke-linejoin:round; stroke-width:4; stroke-opacity:1; fill:none" points="400.671,1423.18 400.671,47.2441 "/>
<polyline clip-path="url(#clip600)" style="stroke:#000000; stroke-linecap:round; stroke-linejoin:round; stroke-width:4; stroke-opacity:1; fill:none" points="400.671,1384.24 419.569,1384.24 "/>
<polyline clip-path="url(#clip600)" style="stroke:#000000; stroke-linecap:round; stroke-linejoin:round; stroke-width:4; stroke-opacity:1; fill:none" points="400.671,1188.51 419.569,1188.51 "/>
<polyline clip-path="url(#clip600)" style="stroke:#000000; stroke-linecap:round; stroke-linejoin:round; stroke-width:4; stroke-opacity:1; fill:none" points="400.671,992.783 419.569,992.783 "/>
<polyline clip-path="url(#clip600)" style="stroke:#000000; stroke-linecap:round; stroke-linejoin:round; stroke-width:4; stroke-opacity:1; fill:none" points="400.671,797.055 419.569,797.055 "/>
<polyline clip-path="url(#clip600)" style="stroke:#000000; stroke-linecap:round; stroke-linejoin:round; stroke-width:4; stroke-opacity:1; fill:none" points="400.671,601.327 419.569,601.327 "/>
<polyline clip-path="url(#clip600)" style="stroke:#000000; stroke-linecap:round; stroke-linejoin:round; stroke-width:4; stroke-opacity:1; fill:none" points="400.671,405.599 419.569,405.599 "/>
<polyline clip-path="url(#clip600)" style="stroke:#000000; stroke-linecap:round; stroke-linejoin:round; stroke-width:4; stroke-opacity:1; fill:none" points="400.671,209.871 419.569,209.871 "/>
<path clip-path="url(#clip600)" d="M352.727 1370.04 Q349.116 1370.04 347.287 1373.6 Q345.481 1377.14 345.481 1384.27 Q345.481 1391.38 347.287 1394.94 Q349.116 1398.49 352.727 1398.49 Q356.361 1398.49 358.167 1394.94 Q359.995 1391.38 359.995 1384.27 Q359.995 1377.14 358.167 1373.6 Q356.361 1370.04 352.727 1370.04 M352.727 1366.33 Q358.537 1366.33 361.592 1370.94 Q364.671 1375.52 364.671 1384.27 Q364.671 1393 361.592 1397.61 Q358.537 1402.19 352.727 1402.19 Q346.917 1402.19 343.838 1397.61 Q340.782 1393 340.782 1384.27 Q340.782 1375.52 343.838 1370.94 Q346.917 1366.33 352.727 1366.33 Z" fill="#000000" fill-rule="nonzero" fill-opacity="1" /><path clip-path="url(#clip600)" d="M121.043 1208.3 L137.362 1208.3 L137.362 1212.24 L115.418 1212.24 L115.418 1208.3 Q118.08 1205.55 122.663 1200.92 Q127.269 1196.27 128.45 1194.92 Q130.695 1192.4 131.575 1190.66 Q132.478 1188.91 132.478 1187.22 Q132.478 1184.46 130.533 1182.72 Q128.612 1180.99 125.51 1180.99 Q123.311 1180.99 120.857 1181.75 Q118.427 1182.52 115.649 1184.07 L115.649 1179.34 Q118.473 1178.21 120.927 1177.63 Q123.38 1177.05 125.418 1177.05 Q130.788 1177.05 133.982 1179.74 Q137.177 1182.42 137.177 1186.91 Q137.177 1189.04 136.367 1190.97 Q135.579 1192.86 133.473 1195.46 Q132.894 1196.13 129.792 1199.34 Q126.691 1202.54 121.043 1208.3 Z" fill="#000000" fill-rule="nonzero" fill-opacity="1" /><path clip-path="url(#clip600)" d="M147.177 1206.36 L152.061 1206.36 L152.061 1212.24 L147.177 1212.24 L147.177 1206.36 Z" fill="#000000" fill-rule="nonzero" fill-opacity="1" /><path clip-path="url(#clip600)" d="M172.246 1180.76 Q168.635 1180.76 166.806 1184.32 Q165.001 1187.86 165.001 1194.99 Q165.001 1202.1 166.806 1205.66 Q168.635 1209.21 172.246 1209.21 Q175.88 1209.21 177.686 1205.66 Q179.514 1202.1 179.514 1194.99 Q179.514 1187.86 177.686 1184.32 Q175.88 1180.76 172.246 1180.76 M172.246 1177.05 Q178.056 1177.05 181.112 1181.66 Q184.19 1186.24 184.19 1194.99 Q184.19 1203.72 181.112 1208.33 Q178.056 1212.91 172.246 1212.91 Q166.436 1212.91 163.357 1208.33 Q160.302 1203.72 160.302 1194.99 Q160.302 1186.24 163.357 1181.66 Q166.436 1177.05 172.246 1177.05 Z" fill="#000000" fill-rule="nonzero" fill-opacity="1" /><path clip-path="url(#clip600)" d="M202.408 1180.76 Q198.797 1180.76 196.968 1184.32 Q195.163 1187.86 195.163 1194.99 Q195.163 1202.1 196.968 1205.66 Q198.797 1209.21 202.408 1209.21 Q206.042 1209.21 207.848 1205.66 Q209.676 1202.1 209.676 1194.99 Q209.676 1187.86 207.848 1184.32 Q206.042 1180.76 202.408 1180.76 M202.408 1177.05 Q208.218 1177.05 211.274 1181.66 Q214.352 1186.24 214.352 1194.99 Q214.352 1203.72 211.274 1208.33 Q208.218 1212.91 202.408 1212.91 Q196.598 1212.91 193.519 1208.33 Q190.463 1203.72 190.463 1194.99 Q190.463 1186.24 193.519 1181.66 Q196.598 1177.05 202.408 1177.05 Z" fill="#000000" fill-rule="nonzero" fill-opacity="1" /><path clip-path="url(#clip600)" d="M250.741 1186.78 L240.162 1197.4 L250.741 1207.98 L247.986 1210.78 L237.361 1200.16 L226.736 1210.78 L224.005 1207.98 L234.56 1197.4 L224.005 1186.78 L226.736 1183.97 L237.361 1194.6 L247.986 1183.97 L250.741 1186.78 Z" fill="#000000" fill-rule="nonzero" fill-opacity="1" /><path clip-path="url(#clip600)" d="M263.102 1208.3 L270.741 1208.3 L270.741 1181.94 L262.431 1183.6 L262.431 1179.34 L270.695 1177.68 L275.37 1177.68 L275.37 1208.3 L283.009 1208.3 L283.009 1212.24 L263.102 1212.24 L263.102 1208.3 Z" fill="#000000" fill-rule="nonzero" fill-opacity="1" /><path clip-path="url(#clip600)" d="M302.454 1180.76 Q298.843 1180.76 297.014 1184.32 Q295.208 1187.86 295.208 1194.99 Q295.208 1202.1 297.014 1205.66 Q298.843 1209.21 302.454 1209.21 Q306.088 1209.21 307.893 1205.66 Q309.722 1202.1 309.722 1194.99 Q309.722 1187.86 307.893 1184.32 Q306.088 1180.76 302.454 1180.76 M302.454 1177.05 Q308.264 1177.05 311.319 1181.66 Q314.398 1186.24 314.398 1194.99 Q314.398 1203.72 311.319 1208.33 Q308.264 1212.91 302.454 1212.91 Q296.643 1212.91 293.565 1208.33 Q290.509 1203.72 290.509 1194.99 Q290.509 1186.24 293.565 1181.66 Q296.643 1177.05 302.454 1177.05 Z" fill="#000000" fill-rule="nonzero" fill-opacity="1" /><path clip-path="url(#clip600)" d="M314.398 1171.15 L338.51 1171.15 L338.51 1174.35 L314.398 1174.35 L314.398 1171.15 Z" fill="#000000" fill-rule="nonzero" fill-opacity="1" /><path clip-path="url(#clip600)" d="M355.305 1169.27 Q352.747 1169.27 351.242 1171.02 Q349.757 1172.77 349.757 1175.82 Q349.757 1178.85 351.242 1180.61 Q352.747 1182.36 355.305 1182.36 Q357.863 1182.36 359.349 1180.61 Q360.853 1178.85 360.853 1175.82 Q360.853 1172.77 359.349 1171.02 Q357.863 1169.27 355.305 1169.27 M362.847 1157.37 L362.847 1160.83 Q361.417 1160.15 359.95 1159.79 Q358.502 1159.44 357.073 1159.44 Q353.311 1159.44 351.318 1161.98 Q349.343 1164.52 349.061 1169.65 Q350.17 1168.01 351.844 1167.15 Q353.518 1166.26 355.531 1166.26 Q359.762 1166.26 362.207 1168.84 Q364.671 1171.4 364.671 1175.82 Q364.671 1180.14 362.113 1182.76 Q359.555 1185.37 355.305 1185.37 Q350.434 1185.37 347.857 1181.65 Q345.28 1177.91 345.28 1170.82 Q345.28 1164.16 348.44 1160.21 Q351.6 1156.24 356.922 1156.24 Q358.352 1156.24 359.8 1156.52 Q361.267 1156.8 362.847 1157.37 Z" fill="#000000" fill-rule="nonzero" fill-opacity="1" /><path clip-path="url(#clip600)" d="M129.862 986.025 L118.056 1004.47 L129.862 1004.47 L129.862 986.025 M128.635 981.95 L134.515 981.95 L134.515 1004.47 L139.445 1004.47 L139.445 1008.36 L134.515 1008.36 L134.515 1016.51 L129.862 1016.51 L129.862 1008.36 L114.26 1008.36 L114.26 1003.85 L128.635 981.95 Z" fill="#000000" fill-rule="nonzero" fill-opacity="1" /><path clip-path="url(#clip600)" d="M147.177 1010.63 L152.061 1010.63 L152.061 1016.51 L147.177 1016.51 L147.177 1010.63 Z" fill="#000000" fill-rule="nonzero" fill-opacity="1" /><path clip-path="url(#clip600)" d="M172.246 985.029 Q168.635 985.029 166.806 988.594 Q165.001 992.136 165.001 999.265 Q165.001 1006.37 166.806 1009.94 Q168.635 1013.48 172.246 1013.48 Q175.88 1013.48 177.686 1009.94 Q179.514 1006.37 179.514 999.265 Q179.514 992.136 177.686 988.594 Q175.88 985.029 172.246 985.029 M172.246 981.325 Q178.056 981.325 181.112 985.932 Q184.19 990.515 184.19 999.265 Q184.19 1007.99 181.112 1012.6 Q178.056 1017.18 172.246 1017.18 Q166.436 1017.18 163.357 1012.6 Q160.302 1007.99 160.302 999.265 Q160.302 990.515 163.357 985.932 Q166.436 981.325 172.246 981.325 Z" fill="#000000" fill-rule="nonzero" fill-opacity="1" /><path clip-path="url(#clip600)" d="M202.408 985.029 Q198.797 985.029 196.968 988.594 Q195.163 992.136 195.163 999.265 Q195.163 1006.37 196.968 1009.94 Q198.797 1013.48 202.408 1013.48 Q206.042 1013.48 207.848 1009.94 Q209.676 1006.37 209.676 999.265 Q209.676 992.136 207.848 988.594 Q206.042 985.029 202.408 985.029 M202.408 981.325 Q208.218 981.325 211.274 985.932 Q214.352 990.515 214.352 999.265 Q214.352 1007.99 211.274 1012.6 Q208.218 1017.18 202.408 1017.18 Q196.598 1017.18 193.519 1012.6 Q190.463 1007.99 190.463 999.265 Q190.463 990.515 193.519 985.932 Q196.598 981.325 202.408 981.325 Z" fill="#000000" fill-rule="nonzero" fill-opacity="1" /><path clip-path="url(#clip600)" d="M250.741 991.048 L240.162 1001.67 L250.741 1012.25 L247.986 1015.05 L237.361 1004.43 L226.736 1015.05 L224.005 1012.25 L234.56 1001.67 L224.005 991.048 L226.736 988.247 L237.361 998.872 L247.986 988.247 L250.741 991.048 Z" fill="#000000" fill-rule="nonzero" fill-opacity="1" /><path clip-path="url(#clip600)" d="M263.102 1012.58 L270.741 1012.58 L270.741 986.21 L262.431 987.876 L262.431 983.617 L270.695 981.95 L275.37 981.95 L275.37 1012.58 L283.009 1012.58 L283.009 1016.51 L263.102 1016.51 L263.102 1012.58 Z" fill="#000000" fill-rule="nonzero" fill-opacity="1" /><path clip-path="url(#clip600)" d="M302.454 985.029 Q298.843 985.029 297.014 988.594 Q295.208 992.136 295.208 999.265 Q295.208 1006.37 297.014 1009.94 Q298.843 1013.48 302.454 1013.48 Q306.088 1013.48 307.893 1009.94 Q309.722 1006.37 309.722 999.265 Q309.722 992.136 307.893 988.594 Q306.088 985.029 302.454 985.029 M302.454 981.325 Q308.264 981.325 311.319 985.932 Q314.398 990.515 314.398 999.265 Q314.398 1007.99 311.319 1012.6 Q308.264 1017.18 302.454 1017.18 Q296.643 1017.18 293.565 1012.6 Q290.509 1007.99 290.509 999.265 Q290.509 990.515 293.565 985.932 Q296.643 981.325 302.454 981.325 Z" fill="#000000" fill-rule="nonzero" fill-opacity="1" /><path clip-path="url(#clip600)" d="M314.398 975.427 L338.51 975.427 L338.51 978.624 L314.398 978.624 L314.398 975.427 Z" fill="#000000" fill-rule="nonzero" fill-opacity="1" /><path clip-path="url(#clip600)" d="M355.305 973.546 Q352.747 973.546 351.242 975.295 Q349.757 977.044 349.757 980.091 Q349.757 983.119 351.242 984.887 Q352.747 986.636 355.305 986.636 Q357.863 986.636 359.349 984.887 Q360.853 983.119 360.853 980.091 Q360.853 977.044 359.349 975.295 Q357.863 973.546 355.305 973.546 M362.847 961.641 L362.847 965.101 Q361.417 964.424 359.95 964.067 Q358.502 963.71 357.073 963.71 Q353.311 963.71 351.318 966.249 Q349.343 968.788 349.061 973.922 Q350.17 972.286 351.844 971.421 Q353.518 970.537 355.531 970.537 Q359.762 970.537 362.207 973.113 Q364.671 975.671 364.671 980.091 Q364.671 984.417 362.113 987.031 Q359.555 989.645 355.305 989.645 Q350.434 989.645 347.857 985.922 Q345.28 982.179 345.28 975.088 Q345.28 968.43 348.44 964.481 Q351.6 960.512 356.922 960.512 Q358.352 960.512 359.8 960.794 Q361.267 961.076 362.847 961.641 Z" fill="#000000" fill-rule="nonzero" fill-opacity="1" /><path clip-path="url(#clip600)" d="M127.593 801.639 Q124.445 801.639 122.593 803.792 Q120.765 805.945 120.765 809.695 Q120.765 813.422 122.593 815.597 Q124.445 817.75 127.593 817.75 Q130.742 817.75 132.57 815.597 Q134.422 813.422 134.422 809.695 Q134.422 805.945 132.57 803.792 Q130.742 801.639 127.593 801.639 M136.876 786.986 L136.876 791.246 Q135.117 790.412 133.311 789.973 Q131.529 789.533 129.769 789.533 Q125.14 789.533 122.686 792.658 Q120.255 795.783 119.908 802.102 Q121.274 800.088 123.334 799.023 Q125.394 797.935 127.871 797.935 Q133.08 797.935 136.089 801.107 Q139.121 804.255 139.121 809.695 Q139.121 815.019 135.973 818.236 Q132.825 821.454 127.593 821.454 Q121.598 821.454 118.427 816.871 Q115.256 812.264 115.256 803.537 Q115.256 795.343 119.144 790.482 Q123.033 785.598 129.584 785.598 Q131.343 785.598 133.126 785.945 Q134.931 786.292 136.876 786.986 Z" fill="#000000" fill-rule="nonzero" fill-opacity="1" /><path clip-path="url(#clip600)" d="M147.177 814.903 L152.061 814.903 L152.061 820.783 L147.177 820.783 L147.177 814.903 Z" fill="#000000" fill-rule="nonzero" fill-opacity="1" /><path clip-path="url(#clip600)" d="M172.246 789.301 Q168.635 789.301 166.806 792.866 Q165.001 796.408 165.001 803.537 Q165.001 810.644 166.806 814.209 Q168.635 817.75 172.246 817.75 Q175.88 817.75 177.686 814.209 Q179.514 810.644 179.514 803.537 Q179.514 796.408 177.686 792.866 Q175.88 789.301 172.246 789.301 M172.246 785.598 Q178.056 785.598 181.112 790.204 Q184.19 794.787 184.19 803.537 Q184.19 812.264 181.112 816.871 Q178.056 821.454 172.246 821.454 Q166.436 821.454 163.357 816.871 Q160.302 812.264 160.302 803.537 Q160.302 794.787 163.357 790.204 Q166.436 785.598 172.246 785.598 Z" fill="#000000" fill-rule="nonzero" fill-opacity="1" /><path clip-path="url(#clip600)" d="M202.408 789.301 Q198.797 789.301 196.968 792.866 Q195.163 796.408 195.163 803.537 Q195.163 810.644 196.968 814.209 Q198.797 817.75 202.408 817.75 Q206.042 817.75 207.848 814.209 Q209.676 810.644 209.676 803.537 Q209.676 796.408 207.848 792.866 Q206.042 789.301 202.408 789.301 M202.408 785.598 Q208.218 785.598 211.274 790.204 Q214.352 794.787 214.352 803.537 Q214.352 812.264 211.274 816.871 Q208.218 821.454 202.408 821.454 Q196.598 821.454 193.519 816.871 Q190.463 812.264 190.463 803.537 Q190.463 794.787 193.519 790.204 Q196.598 785.598 202.408 785.598 Z" fill="#000000" fill-rule="nonzero" fill-opacity="1" /><path clip-path="url(#clip600)" d="M250.741 795.32 L240.162 805.945 L250.741 816.523 L247.986 819.324 L237.361 808.699 L226.736 819.324 L224.005 816.523 L234.56 805.945 L224.005 795.32 L226.736 792.519 L237.361 803.144 L247.986 792.519 L250.741 795.32 Z" fill="#000000" fill-rule="nonzero" fill-opacity="1" /><path clip-path="url(#clip600)" d="M263.102 816.847 L270.741 816.847 L270.741 790.482 L262.431 792.148 L262.431 787.889 L270.695 786.223 L275.37 786.223 L275.37 816.847 L283.009 816.847 L283.009 820.783 L263.102 820.783 L263.102 816.847 Z" fill="#000000" fill-rule="nonzero" fill-opacity="1" /><path clip-path="url(#clip600)" d="M302.454 789.301 Q298.843 789.301 297.014 792.866 Q295.208 796.408 295.208 803.537 Q295.208 810.644 297.014 814.209 Q298.843 817.75 302.454 817.75 Q306.088 817.75 307.893 814.209 Q309.722 810.644 309.722 803.537 Q309.722 796.408 307.893 792.866 Q306.088 789.301 302.454 789.301 M302.454 785.598 Q308.264 785.598 311.319 790.204 Q314.398 794.787 314.398 803.537 Q314.398 812.264 311.319 816.871 Q308.264 821.454 302.454 821.454 Q296.643 821.454 293.565 816.871 Q290.509 812.264 290.509 803.537 Q290.509 794.787 293.565 790.204 Q296.643 785.598 302.454 785.598 Z" fill="#000000" fill-rule="nonzero" fill-opacity="1" /><path clip-path="url(#clip600)" d="M314.398 779.699 L338.51 779.699 L338.51 782.896 L314.398 782.896 L314.398 779.699 Z" fill="#000000" fill-rule="nonzero" fill-opacity="1" /><path clip-path="url(#clip600)" d="M355.305 777.818 Q352.747 777.818 351.242 779.567 Q349.757 781.316 349.757 784.363 Q349.757 787.391 351.242 789.159 Q352.747 790.908 355.305 790.908 Q357.863 790.908 359.349 789.159 Q360.853 787.391 360.853 784.363 Q360.853 781.316 359.349 779.567 Q357.863 777.818 355.305 777.818 M362.847 765.913 L362.847 769.373 Q361.417 768.696 359.95 768.339 Q358.502 767.982 357.073 767.982 Q353.311 767.982 351.318 770.521 Q349.343 773.06 349.061 778.194 Q350.17 776.558 351.844 775.693 Q353.518 774.809 355.531 774.809 Q359.762 774.809 362.207 777.386 Q364.671 779.943 364.671 784.363 Q364.671 788.689 362.113 791.303 Q359.555 793.918 355.305 793.918 Q350.434 793.918 347.857 790.194 Q345.28 786.451 345.28 779.36 Q345.28 772.702 348.44 768.753 Q351.6 764.784 356.922 764.784 Q358.352 764.784 359.8 765.066 Q361.267 765.349 362.847 765.913 Z" fill="#000000" fill-rule="nonzero" fill-opacity="1" /><path clip-path="url(#clip600)" d="M127.015 608.643 Q123.681 608.643 121.76 610.425 Q119.862 612.208 119.862 615.333 Q119.862 618.458 121.76 620.24 Q123.681 622.022 127.015 622.022 Q130.348 622.022 132.269 620.24 Q134.191 618.434 134.191 615.333 Q134.191 612.208 132.269 610.425 Q130.371 608.643 127.015 608.643 M122.339 606.652 Q119.33 605.911 117.64 603.851 Q115.973 601.791 115.973 598.828 Q115.973 594.685 118.913 592.277 Q121.876 589.87 127.015 589.87 Q132.177 589.87 135.117 592.277 Q138.056 594.685 138.056 598.828 Q138.056 601.791 136.367 603.851 Q134.7 605.911 131.714 606.652 Q135.093 607.439 136.968 609.731 Q138.867 612.022 138.867 615.333 Q138.867 620.356 135.788 623.041 Q132.732 625.726 127.015 625.726 Q121.297 625.726 118.218 623.041 Q115.163 620.356 115.163 615.333 Q115.163 612.022 117.061 609.731 Q118.959 607.439 122.339 606.652 M120.626 599.268 Q120.626 601.953 122.293 603.458 Q123.982 604.962 127.015 604.962 Q130.024 604.962 131.714 603.458 Q133.427 601.953 133.427 599.268 Q133.427 596.583 131.714 595.078 Q130.024 593.573 127.015 593.573 Q123.982 593.573 122.293 595.078 Q120.626 596.583 120.626 599.268 Z" fill="#000000" fill-rule="nonzero" fill-opacity="1" /><path clip-path="url(#clip600)" d="M147.177 619.175 L152.061 619.175 L152.061 625.055 L147.177 625.055 L147.177 619.175 Z" fill="#000000" fill-rule="nonzero" fill-opacity="1" /><path clip-path="url(#clip600)" d="M172.246 593.573 Q168.635 593.573 166.806 597.138 Q165.001 600.68 165.001 607.809 Q165.001 614.916 166.806 618.481 Q168.635 622.022 172.246 622.022 Q175.88 622.022 177.686 618.481 Q179.514 614.916 179.514 607.809 Q179.514 600.68 177.686 597.138 Q175.88 593.573 172.246 593.573 M172.246 589.87 Q178.056 589.87 181.112 594.476 Q184.19 599.059 184.19 607.809 Q184.19 616.536 181.112 621.143 Q178.056 625.726 172.246 625.726 Q166.436 625.726 163.357 621.143 Q160.302 616.536 160.302 607.809 Q160.302 599.059 163.357 594.476 Q166.436 589.87 172.246 589.87 Z" fill="#000000" fill-rule="nonzero" fill-opacity="1" /><path clip-path="url(#clip600)" d="M202.408 593.573 Q198.797 593.573 196.968 597.138 Q195.163 600.68 195.163 607.809 Q195.163 614.916 196.968 618.481 Q198.797 622.022 202.408 622.022 Q206.042 622.022 207.848 618.481 Q209.676 614.916 209.676 607.809 Q209.676 600.68 207.848 597.138 Q206.042 593.573 202.408 593.573 M202.408 589.87 Q208.218 589.87 211.274 594.476 Q214.352 599.059 214.352 607.809 Q214.352 616.536 211.274 621.143 Q208.218 625.726 202.408 625.726 Q196.598 625.726 193.519 621.143 Q190.463 616.536 190.463 607.809 Q190.463 599.059 193.519 594.476 Q196.598 589.87 202.408 589.87 Z" fill="#000000" fill-rule="nonzero" fill-opacity="1" /><path clip-path="url(#clip600)" d="M250.741 599.592 L240.162 610.217 L250.741 620.795 L247.986 623.596 L237.361 612.971 L226.736 623.596 L224.005 620.795 L234.56 610.217 L224.005 599.592 L226.736 596.791 L237.361 607.416 L247.986 596.791 L250.741 599.592 Z" fill="#000000" fill-rule="nonzero" fill-opacity="1" /><path clip-path="url(#clip600)" d="M263.102 621.12 L270.741 621.12 L270.741 594.754 L262.431 596.421 L262.431 592.161 L270.695 590.495 L275.37 590.495 L275.37 621.12 L283.009 621.12 L283.009 625.055 L263.102 625.055 L263.102 621.12 Z" fill="#000000" fill-rule="nonzero" fill-opacity="1" /><path clip-path="url(#clip600)" d="M302.454 593.573 Q298.843 593.573 297.014 597.138 Q295.208 600.68 295.208 607.809 Q295.208 614.916 297.014 618.481 Q298.843 622.022 302.454 622.022 Q306.088 622.022 307.893 618.481 Q309.722 614.916 309.722 607.809 Q309.722 600.68 307.893 597.138 Q306.088 593.573 302.454 593.573 M302.454 589.87 Q308.264 589.87 311.319 594.476 Q314.398 599.059 314.398 607.809 Q314.398 616.536 311.319 621.143 Q308.264 625.726 302.454 625.726 Q296.643 625.726 293.565 621.143 Q290.509 616.536 290.509 607.809 Q290.509 599.059 293.565 594.476 Q296.643 589.87 302.454 589.87 Z" fill="#000000" fill-rule="nonzero" fill-opacity="1" /><path clip-path="url(#clip600)" d="M314.398 583.971 L338.51 583.971 L338.51 587.168 L314.398 587.168 L314.398 583.971 Z" fill="#000000" fill-rule="nonzero" fill-opacity="1" /><path clip-path="url(#clip600)" d="M355.305 582.09 Q352.747 582.09 351.242 583.839 Q349.757 585.589 349.757 588.635 Q349.757 591.663 351.242 593.431 Q352.747 595.18 355.305 595.18 Q357.863 595.18 359.349 593.431 Q360.853 591.663 360.853 588.635 Q360.853 585.589 359.349 583.839 Q357.863 582.09 355.305 582.09 M362.847 570.185 L362.847 573.646 Q361.417 572.969 359.95 572.611 Q358.502 572.254 357.073 572.254 Q353.311 572.254 351.318 574.793 Q349.343 577.332 349.061 582.466 Q350.17 580.83 351.844 579.965 Q353.518 579.081 355.531 579.081 Q359.762 579.081 362.207 581.658 Q364.671 584.216 364.671 588.635 Q364.671 592.961 362.113 595.575 Q359.555 598.19 355.305 598.19 Q350.434 598.19 347.857 594.466 Q345.28 590.723 345.28 583.633 Q345.28 576.975 348.44 573.025 Q351.6 569.056 356.922 569.056 Q358.352 569.056 359.8 569.339 Q361.267 569.621 362.847 570.185 Z" fill="#000000" fill-rule="nonzero" fill-opacity="1" /><path clip-path="url(#clip600)" d="M118.765 425.392 L126.404 425.392 L126.404 399.026 L118.094 400.693 L118.094 396.433 L126.358 394.767 L131.034 394.767 L131.034 425.392 L138.673 425.392 L138.673 429.327 L118.765 429.327 L118.765 425.392 Z" fill="#000000" fill-rule="nonzero" fill-opacity="1" /><path clip-path="url(#clip600)" d="M148.117 423.447 L153.001 423.447 L153.001 429.327 L148.117 429.327 L148.117 423.447 Z" fill="#000000" fill-rule="nonzero" fill-opacity="1" /><path clip-path="url(#clip600)" d="M173.186 397.846 Q169.575 397.846 167.747 401.41 Q165.941 404.952 165.941 412.082 Q165.941 419.188 167.747 422.753 Q169.575 426.294 173.186 426.294 Q176.821 426.294 178.626 422.753 Q180.455 419.188 180.455 412.082 Q180.455 404.952 178.626 401.41 Q176.821 397.846 173.186 397.846 M173.186 394.142 Q178.997 394.142 182.052 398.748 Q185.131 403.332 185.131 412.082 Q185.131 420.808 182.052 425.415 Q178.997 429.998 173.186 429.998 Q167.376 429.998 164.298 425.415 Q161.242 420.808 161.242 412.082 Q161.242 403.332 164.298 398.748 Q167.376 394.142 173.186 394.142 Z" fill="#000000" fill-rule="nonzero" fill-opacity="1" /><path clip-path="url(#clip600)" d="M203.348 397.846 Q199.737 397.846 197.908 401.41 Q196.103 404.952 196.103 412.082 Q196.103 419.188 197.908 422.753 Q199.737 426.294 203.348 426.294 Q206.982 426.294 208.788 422.753 Q210.617 419.188 210.617 412.082 Q210.617 404.952 208.788 401.41 Q206.982 397.846 203.348 397.846 M203.348 394.142 Q209.158 394.142 212.214 398.748 Q215.293 403.332 215.293 412.082 Q215.293 420.808 212.214 425.415 Q209.158 429.998 203.348 429.998 Q197.538 429.998 194.459 425.415 Q191.404 420.808 191.404 412.082 Q191.404 403.332 194.459 398.748 Q197.538 394.142 203.348 394.142 Z" fill="#000000" fill-rule="nonzero" fill-opacity="1" /><path clip-path="url(#clip600)" d="M251.681 403.864 L241.103 414.489 L251.681 425.068 L248.927 427.869 L238.302 417.244 L227.677 427.869 L224.945 425.068 L235.501 414.489 L224.945 403.864 L227.677 401.063 L238.302 411.688 L248.927 401.063 L251.681 403.864 Z" fill="#000000" fill-rule="nonzero" fill-opacity="1" /><path clip-path="url(#clip600)" d="M264.042 425.392 L271.681 425.392 L271.681 399.026 L263.371 400.693 L263.371 396.433 L271.635 394.767 L276.311 394.767 L276.311 425.392 L283.95 425.392 L283.95 429.327 L264.042 429.327 L264.042 425.392 Z" fill="#000000" fill-rule="nonzero" fill-opacity="1" /><path clip-path="url(#clip600)" d="M303.394 397.846 Q299.783 397.846 297.954 401.41 Q296.149 404.952 296.149 412.082 Q296.149 419.188 297.954 422.753 Q299.783 426.294 303.394 426.294 Q307.028 426.294 308.834 422.753 Q310.662 419.188 310.662 412.082 Q310.662 404.952 308.834 401.41 Q307.028 397.846 303.394 397.846 M303.394 394.142 Q309.204 394.142 312.26 398.748 Q315.338 403.332 315.338 412.082 Q315.338 420.808 312.26 425.415 Q309.204 429.998 303.394 429.998 Q297.584 429.998 294.505 425.415 Q291.45 420.808 291.45 412.082 Q291.45 403.332 294.505 398.748 Q297.584 394.142 303.394 394.142 Z" fill="#000000" fill-rule="nonzero" fill-opacity="1" /><path clip-path="url(#clip600)" d="M315.338 388.243 L339.45 388.243 L339.45 391.441 L315.338 391.441 L315.338 388.243 Z" fill="#000000" fill-rule="nonzero" fill-opacity="1" /><path clip-path="url(#clip600)" d="M347.688 373.836 L362.602 373.836 L362.602 377.034 L351.167 377.034 L351.167 383.917 Q351.995 383.635 352.822 383.504 Q353.65 383.353 354.477 383.353 Q359.179 383.353 361.925 385.93 Q364.671 388.506 364.671 392.908 Q364.671 397.44 361.85 399.96 Q359.029 402.462 353.894 402.462 Q352.126 402.462 350.283 402.161 Q348.459 401.86 346.503 401.258 L346.503 397.44 Q348.196 398.362 350.001 398.813 Q351.807 399.265 353.819 399.265 Q357.073 399.265 358.972 397.553 Q360.872 395.842 360.872 392.908 Q360.872 389.974 358.972 388.262 Q357.073 386.55 353.819 386.55 Q352.296 386.55 350.772 386.889 Q349.268 387.228 347.688 387.942 L347.688 373.836 Z" fill="#000000" fill-rule="nonzero" fill-opacity="1" /><path clip-path="url(#clip600)" d="M118.765 229.664 L126.404 229.664 L126.404 203.298 L118.094 204.965 L118.094 200.706 L126.358 199.039 L131.034 199.039 L131.034 229.664 L138.673 229.664 L138.673 233.599 L118.765 233.599 L118.765 229.664 Z" fill="#000000" fill-rule="nonzero" fill-opacity="1" /><path clip-path="url(#clip600)" d="M148.117 227.719 L153.001 227.719 L153.001 233.599 L148.117 233.599 L148.117 227.719 Z" fill="#000000" fill-rule="nonzero" fill-opacity="1" /><path clip-path="url(#clip600)" d="M167.214 229.664 L183.534 229.664 L183.534 233.599 L161.589 233.599 L161.589 229.664 Q164.251 226.909 168.835 222.28 Q173.441 217.627 174.622 216.284 Q176.867 213.761 177.747 212.025 Q178.649 210.266 178.649 208.576 Q178.649 205.821 176.705 204.085 Q174.784 202.349 171.682 202.349 Q169.483 202.349 167.029 203.113 Q164.598 203.877 161.821 205.428 L161.821 200.706 Q164.645 199.571 167.098 198.993 Q169.552 198.414 171.589 198.414 Q176.959 198.414 180.154 201.099 Q183.348 203.784 183.348 208.275 Q183.348 210.405 182.538 212.326 Q181.751 214.224 179.645 216.817 Q179.066 217.488 175.964 220.706 Q172.862 223.9 167.214 229.664 Z" fill="#000000" fill-rule="nonzero" fill-opacity="1" /><path clip-path="url(#clip600)" d="M203.348 202.118 Q199.737 202.118 197.908 205.682 Q196.103 209.224 196.103 216.354 Q196.103 223.46 197.908 227.025 Q199.737 230.567 203.348 230.567 Q206.982 230.567 208.788 227.025 Q210.617 223.46 210.617 216.354 Q210.617 209.224 208.788 205.682 Q206.982 202.118 203.348 202.118 M203.348 198.414 Q209.158 198.414 212.214 203.02 Q215.293 207.604 215.293 216.354 Q215.293 225.08 212.214 229.687 Q209.158 234.27 203.348 234.27 Q197.538 234.27 194.459 229.687 Q191.404 225.08 191.404 216.354 Q191.404 207.604 194.459 203.02 Q197.538 198.414 203.348 198.414 Z" fill="#000000" fill-rule="nonzero" fill-opacity="1" /><path clip-path="url(#clip600)" d="M251.681 208.136 L241.103 218.761 L251.681 229.34 L248.927 232.141 L238.302 221.516 L227.677 232.141 L224.945 229.34 L235.501 218.761 L224.945 208.136 L227.677 205.335 L238.302 215.96 L248.927 205.335 L251.681 208.136 Z" fill="#000000" fill-rule="nonzero" fill-opacity="1" /><path clip-path="url(#clip600)" d="M264.042 229.664 L271.681 229.664 L271.681 203.298 L263.371 204.965 L263.371 200.706 L271.635 199.039 L276.311 199.039 L276.311 229.664 L283.95 229.664 L283.95 233.599 L264.042 233.599 L264.042 229.664 Z" fill="#000000" fill-rule="nonzero" fill-opacity="1" /><path clip-path="url(#clip600)" d="M303.394 202.118 Q299.783 202.118 297.954 205.682 Q296.149 209.224 296.149 216.354 Q296.149 223.46 297.954 227.025 Q299.783 230.567 303.394 230.567 Q307.028 230.567 308.834 227.025 Q310.662 223.46 310.662 216.354 Q310.662 209.224 308.834 205.682 Q307.028 202.118 303.394 202.118 M303.394 198.414 Q309.204 198.414 312.26 203.02 Q315.338 207.604 315.338 216.354 Q315.338 225.08 312.26 229.687 Q309.204 234.27 303.394 234.27 Q297.584 234.27 294.505 229.687 Q291.45 225.08 291.45 216.354 Q291.45 207.604 294.505 203.02 Q297.584 198.414 303.394 198.414 Z" fill="#000000" fill-rule="nonzero" fill-opacity="1" /><path clip-path="url(#clip600)" d="M315.338 192.515 L339.45 192.515 L339.45 195.713 L315.338 195.713 L315.338 192.515 Z" fill="#000000" fill-rule="nonzero" fill-opacity="1" /><path clip-path="url(#clip600)" d="M347.688 178.109 L362.602 178.109 L362.602 181.306 L351.167 181.306 L351.167 188.19 Q351.995 187.907 352.822 187.776 Q353.65 187.625 354.477 187.625 Q359.179 187.625 361.925 190.202 Q364.671 192.779 364.671 197.18 Q364.671 201.712 361.85 204.233 Q359.029 206.734 353.894 206.734 Q352.126 206.734 350.283 206.433 Q348.459 206.132 346.503 205.53 L346.503 201.712 Q348.196 202.634 350.001 203.085 Q351.807 203.537 353.819 203.537 Q357.073 203.537 358.972 201.825 Q360.872 200.114 360.872 197.18 Q360.872 194.246 358.972 192.534 Q357.073 190.823 353.819 190.823 Q352.296 190.823 350.772 191.161 Q349.268 191.5 347.688 192.214 L347.688 178.109 Z" fill="#000000" fill-rule="nonzero" fill-opacity="1" /><path clip-path="url(#clip600)" d="M46.0847 1024.06 Q46.0847 1031.15 47.7079 1033.89 Q49.3312 1036.63 53.2461 1036.63 Q56.3653 1036.63 58.2114 1034.59 Q60.0256 1032.52 60.0256 1028.99 Q60.0256 1024.12 56.5881 1021.19 Q53.1188 1018.23 47.3897 1018.23 L46.0847 1018.23 L46.0847 1024.06 M43.6657 1012.37 L64.0042 1012.37 L64.0042 1018.23 L58.5933 1018.23 Q61.8398 1020.24 63.3994 1023.23 Q64.9272 1026.22 64.9272 1030.55 Q64.9272 1036.02 61.8716 1039.27 Q58.7843 1042.48 53.6281 1042.48 Q47.6125 1042.48 44.5569 1038.47 Q41.5014 1034.43 41.5014 1026.44 L41.5014 1018.23 L40.9285 1018.23 Q36.8862 1018.23 34.6901 1020.9 Q32.4621 1023.55 32.4621 1028.35 Q32.4621 1031.41 33.1941 1034.3 Q33.9262 1037.2 35.3903 1039.87 L29.9795 1039.87 Q28.7381 1036.66 28.1334 1033.64 Q27.4968 1030.61 27.4968 1027.75 Q27.4968 1020.01 31.5072 1016.19 Q35.5176 1012.37 43.6657 1012.37 Z" fill="#000000" fill-rule="nonzero" fill-opacity="1" /><path clip-path="url(#clip600)" d="M29.7248 974.658 L35.1993 974.658 Q33.8307 977.141 33.1623 979.655 Q32.4621 982.138 32.4621 984.684 Q32.4621 990.381 36.0905 993.532 Q39.6872 996.683 46.212 996.683 Q52.7369 996.683 56.3653 993.532 Q59.9619 990.381 59.9619 984.684 Q59.9619 982.138 59.2935 979.655 Q58.5933 977.141 57.2247 974.658 L62.6355 974.658 Q63.7814 977.109 64.3543 979.751 Q64.9272 982.361 64.9272 985.321 Q64.9272 993.373 59.8664 998.116 Q54.8057 1002.86 46.212 1002.86 Q37.491 1002.86 32.4939 998.084 Q27.4968 993.278 27.4968 984.939 Q27.4968 982.233 28.0697 979.655 Q28.6108 977.077 29.7248 974.658 Z" fill="#000000" fill-rule="nonzero" fill-opacity="1" /><path clip-path="url(#clip600)" d="M29.7248 938.819 L35.1993 938.819 Q33.8307 941.302 33.1623 943.816 Q32.4621 946.299 32.4621 948.845 Q32.4621 954.542 36.0905 957.693 Q39.6872 960.844 46.212 960.844 Q52.7369 960.844 56.3653 957.693 Q59.9619 954.542 59.9619 948.845 Q59.9619 946.299 59.2935 943.816 Q58.5933 941.302 57.2247 938.819 L62.6355 938.819 Q63.7814 941.27 64.3543 943.912 Q64.9272 946.522 64.9272 949.482 Q64.9272 957.534 59.8664 962.277 Q54.8057 967.019 46.212 967.019 Q37.491 967.019 32.4939 962.245 Q27.4968 957.439 27.4968 949.1 Q27.4968 946.394 28.0697 943.816 Q28.6108 941.238 29.7248 938.819 Z" fill="#000000" fill-rule="nonzero" fill-opacity="1" /><path clip-path="url(#clip600)" d="M33.8307 907.977 Q33.2578 908.964 33.0032 910.142 Q32.7167 911.287 32.7167 912.688 Q32.7167 917.653 35.9632 920.327 Q39.1779 922.968 45.2253 922.968 L64.0042 922.968 L64.0042 928.857 L28.3562 928.857 L28.3562 922.968 L33.8944 922.968 Q30.6479 921.122 29.0883 918.162 Q27.4968 915.202 27.4968 910.969 Q27.4968 910.364 27.5923 909.632 Q27.656 908.9 27.8151 908.009 L33.8307 907.977 Z" fill="#000000" fill-rule="nonzero" fill-opacity="1" /><path clip-path="url(#clip600)" d="M44.7161 872.775 L47.5806 872.775 L47.5806 899.702 Q53.6281 899.32 56.8109 896.073 Q59.9619 892.795 59.9619 886.97 Q59.9619 883.597 59.1344 880.446 Q58.3069 877.263 56.6518 874.144 L62.1899 874.144 Q63.5267 877.295 64.227 880.605 Q64.9272 883.915 64.9272 887.321 Q64.9272 895.851 59.9619 900.848 Q54.9967 905.813 46.5303 905.813 Q37.7774 905.813 32.6531 901.102 Q27.4968 896.36 27.4968 888.339 Q27.4968 881.146 32.1438 876.976 Q36.7589 872.775 44.7161 872.775 M42.9973 878.631 Q38.1912 878.695 35.3266 881.337 Q32.4621 883.947 32.4621 888.275 Q32.4621 893.177 35.2312 896.137 Q38.0002 899.065 43.0292 899.511 L42.9973 878.631 Z" fill="#000000" fill-rule="nonzero" fill-opacity="1" /><path clip-path="url(#clip600)" d="M18.2347 857.37 L28.3562 857.37 L28.3562 845.307 L32.9077 845.307 L32.9077 857.37 L52.2594 857.37 Q56.6199 857.37 57.8613 856.192 Q59.1026 854.983 59.1026 851.322 L59.1026 845.307 L64.0042 845.307 L64.0042 851.322 Q64.0042 858.102 61.4897 860.68 Q58.9434 863.258 52.2594 863.258 L32.9077 863.258 L32.9077 867.555 L28.3562 867.555 L28.3562 863.258 L18.2347 863.258 L18.2347 857.37 Z" fill="#000000" fill-rule="nonzero" fill-opacity="1" /><path clip-path="url(#clip600)" d="M28.3562 837.604 L28.3562 831.748 L64.0042 831.748 L64.0042 837.604 L28.3562 837.604 M14.479 837.604 L14.479 831.748 L21.895 831.748 L21.895 837.604 L14.479 837.604 Z" fill="#000000" fill-rule="nonzero" fill-opacity="1" /><path clip-path="url(#clip600)" d="M32.4621 805.68 Q32.4621 810.391 36.1542 813.128 Q39.8145 815.865 46.212 815.865 Q52.6095 815.865 56.3017 813.16 Q59.9619 810.423 59.9619 805.68 Q59.9619 801.002 56.2698 798.264 Q52.5777 795.527 46.212 795.527 Q39.8781 795.527 36.186 798.264 Q32.4621 801.002 32.4621 805.68 M27.4968 805.68 Q27.4968 798.041 32.4621 793.681 Q37.4273 789.32 46.212 789.32 Q54.9649 789.32 59.9619 793.681 Q64.9272 798.041 64.9272 805.68 Q64.9272 813.351 59.9619 817.712 Q54.9649 822.04 46.212 822.04 Q37.4273 822.04 32.4621 817.712 Q27.4968 813.351 27.4968 805.68 Z" fill="#000000" fill-rule="nonzero" fill-opacity="1" /><path clip-path="url(#clip600)" d="M42.4881 749.98 L64.0042 749.98 L64.0042 755.837 L42.679 755.837 Q37.6183 755.837 35.1038 757.81 Q32.5894 759.784 32.5894 763.73 Q32.5894 768.473 35.6131 771.21 Q38.6368 773.947 43.8567 773.947 L64.0042 773.947 L64.0042 779.836 L28.3562 779.836 L28.3562 773.947 L33.8944 773.947 Q30.6797 771.847 29.0883 769.014 Q27.4968 766.149 27.4968 762.425 Q27.4968 756.282 31.3163 753.131 Q35.1038 749.98 42.4881 749.98 Z" fill="#000000" fill-rule="nonzero" fill-opacity="1" /><path clip-path="url(#clip600)" d="M33.8307 696.922 Q33.2578 697.909 33.0032 699.087 Q32.7167 700.232 32.7167 701.633 Q32.7167 706.598 35.9632 709.272 Q39.1779 711.913 45.2253 711.913 L64.0042 711.913 L64.0042 717.802 L28.3562 717.802 L28.3562 711.913 L33.8944 711.913 Q30.6479 710.067 29.0883 707.107 Q27.4968 704.147 27.4968 699.914 Q27.4968 699.309 27.5923 698.577 Q27.656 697.845 27.8151 696.954 L33.8307 696.922 Z" fill="#000000" fill-rule="nonzero" fill-opacity="1" /><path clip-path="url(#clip600)" d="M46.0847 674.579 Q46.0847 681.676 47.7079 684.414 Q49.3312 687.151 53.2461 687.151 Q56.3653 687.151 58.2114 685.114 Q60.0256 683.045 60.0256 679.512 Q60.0256 674.642 56.5881 671.714 Q53.1188 668.754 47.3897 668.754 L46.0847 668.754 L46.0847 674.579 M43.6657 662.898 L64.0042 662.898 L64.0042 668.754 L58.5933 668.754 Q61.8398 670.759 63.3994 673.751 Q64.9272 676.743 64.9272 681.072 Q64.9272 686.546 61.8716 689.793 Q58.7843 693.007 53.6281 693.007 Q47.6125 693.007 44.5569 688.997 Q41.5014 684.955 41.5014 676.966 L41.5014 668.754 L40.9285 668.754 Q36.8862 668.754 34.6901 671.428 Q32.4621 674.069 32.4621 678.875 Q32.4621 681.931 33.1941 684.827 Q33.9262 687.724 35.3903 690.397 L29.9795 690.397 Q28.7381 687.183 28.1334 684.159 Q27.4968 681.135 27.4968 678.271 Q27.4968 670.536 31.5072 666.717 Q35.5176 662.898 43.6657 662.898 Z" fill="#000000" fill-rule="nonzero" fill-opacity="1" /><path clip-path="url(#clip600)" d="M18.2347 645.042 L28.3562 645.042 L28.3562 632.979 L32.9077 632.979 L32.9077 645.042 L52.2594 645.042 Q56.6199 645.042 57.8613 643.864 Q59.1026 642.655 59.1026 638.994 L59.1026 632.979 L64.0042 632.979 L64.0042 638.994 Q64.0042 645.774 61.4897 648.352 Q58.9434 650.93 52.2594 650.93 L32.9077 650.93 L32.9077 655.227 L28.3562 655.227 L28.3562 650.93 L18.2347 650.93 L18.2347 645.042 Z" fill="#000000" fill-rule="nonzero" fill-opacity="1" /><path clip-path="url(#clip600)" d="M44.7161 594.784 L47.5806 594.784 L47.5806 621.711 Q53.6281 621.329 56.8109 618.083 Q59.9619 614.805 59.9619 608.98 Q59.9619 605.606 59.1344 602.455 Q58.3069 599.272 56.6518 596.153 L62.1899 596.153 Q63.5267 599.304 64.227 602.614 Q64.9272 605.924 64.9272 609.33 Q64.9272 617.86 59.9619 622.857 Q54.9967 627.822 46.5303 627.822 Q37.7774 627.822 32.6531 623.112 Q27.4968 618.369 27.4968 610.349 Q27.4968 603.155 32.1438 598.986 Q36.7589 594.784 44.7161 594.784 M42.9973 600.641 Q38.1912 600.705 35.3266 603.346 Q32.4621 605.956 32.4621 610.285 Q32.4621 615.187 35.2312 618.147 Q38.0002 621.075 43.0292 621.52 L42.9973 600.641 Z" fill="#000000" fill-rule="nonzero" fill-opacity="1" /><path clip-path="url(#clip600)" d="M14.479 564.993 L14.479 551.498 L19.0304 551.498 L19.0304 559.137 L68.0464 559.137 L68.0464 551.498 L72.5979 551.498 L72.5979 564.993 L14.479 564.993 Z" fill="#000000" fill-rule="nonzero" fill-opacity="1" /><path clip-path="url(#clip600)" d="M58.5933 537.079 L58.5933 526.576 L22.3406 526.576 L24.6323 538.002 L18.7758 538.002 L16.4842 526.64 L16.4842 520.21 L58.5933 520.21 L58.5933 509.707 L64.0042 509.707 L64.0042 537.079 L58.5933 537.079 Z" fill="#000000" fill-rule="nonzero" fill-opacity="1" /><path clip-path="url(#clip600)" d="M16.4842 487.14 L16.4842 481.73 L70.0516 498.28 L70.0516 503.691 L16.4842 487.14 Z" fill="#000000" fill-rule="nonzero" fill-opacity="1" /><path clip-path="url(#clip600)" d="M29.4065 452.861 L34.9447 452.861 Q33.6716 455.344 33.035 458.017 Q32.3984 460.691 32.3984 463.555 Q32.3984 467.916 33.7352 470.112 Q35.072 472.276 37.7456 472.276 Q39.7826 472.276 40.9603 470.717 Q42.1061 469.157 43.1565 464.447 L43.6021 462.441 Q44.9389 456.203 47.3897 453.593 Q49.8086 450.951 54.1691 450.951 Q59.1344 450.951 62.0308 454.898 Q64.9272 458.813 64.9272 465.688 Q64.9272 468.553 64.3543 471.672 Q63.8132 474.759 62.6992 478.197 L56.6518 478.197 Q58.3387 474.95 59.198 471.799 Q60.0256 468.648 60.0256 465.561 Q60.0256 461.423 58.6251 459.195 Q57.1929 456.967 54.6147 456.967 Q52.2276 456.967 50.9545 458.59 Q49.6813 460.182 48.5037 465.624 L48.0262 467.661 Q46.8804 473.104 44.5251 475.523 Q42.138 477.942 38.0002 477.942 Q32.9713 477.942 30.2341 474.377 Q27.4968 470.812 27.4968 464.256 Q27.4968 461.009 27.9743 458.145 Q28.4517 455.28 29.4065 452.861 Z" fill="#000000" fill-rule="nonzero" fill-opacity="1" /><path clip-path="url(#clip600)" d="M14.479 427.939 L72.5979 427.939 L72.5979 441.435 L68.0464 441.435 L68.0464 433.828 L19.0304 433.828 L19.0304 441.435 L14.479 441.435 L14.479 427.939 Z" fill="#000000" fill-rule="nonzero" fill-opacity="1" /><polyline clip-path="url(#clip602)" style="stroke:#009af9; stroke-linecap:round; stroke-linejoin:round; stroke-width:12; stroke-opacity:1; fill:none" points="455.919,1384.23 474.521,1365.61 493.123,1350.07 511.725,1335.52 530.326,1321.57 548.928,1308.06 567.53,1294.89 586.132,1281.99 604.734,1269.31 623.336,1256.84 641.938,1244.53 660.54,1232.38 679.142,1220.37 697.744,1208.48 716.346,1196.71 734.948,1185.04 753.549,1173.47 772.151,1161.99 790.753,1150.59 809.355,1139.27 827.957,1128.02 846.559,1116.85 865.161,1105.74 883.763,1094.69 902.365,1083.71 920.967,1072.78 939.569,1061.91 958.17,1051.08 976.772,1040.31 995.374,1029.59 1013.98,1018.91 1032.58,1008.28 1051.18,997.685 1069.78,987.136 1088.38,976.626 1106.99,966.156 1125.59,955.722 1144.19,945.325 1162.79,934.962 1181.39,924.634 1200,914.339 1218.6,904.076 1237.2,893.844 1255.8,883.642 1274.4,873.471 1293,863.328 1311.61,853.213 1330.21,843.125 1348.81,833.065 1367.41,823.03 1386.01,813.022 1404.62,803.038 1423.22,793.078 1441.82,783.143 1460.42,773.231 1479.02,763.342 1497.63,753.475 1516.23,743.63 1534.83,733.807 1553.43,724.005 1572.03,714.224 1590.64,704.463 1609.24,694.722 1627.84,685.001 1646.44,675.299 1665.04,665.615 1683.65,655.951 1702.25,646.305 1720.85,636.677 1739.45,627.066 1758.05,617.473 1776.65,607.897 1795.26,598.338 1813.86,588.795 1832.46,579.269 1851.06,569.759 1869.66,560.264 1888.27,550.785 1906.87,541.322 1925.47,531.874 1944.07,522.441 1962.67,513.022 1981.28,503.618 1999.88,494.228 2018.48,484.853 2037.08,475.491 2055.68,466.143 2074.29,456.809 2092.89,447.488 2111.49,438.18 2130.09,428.886 2148.69,419.604 2167.29,410.335 2185.9,401.079 2204.5,391.835 2223.1,382.603 2241.7,373.383 2260.3,364.176 2278.91,354.98 2297.51,345.796 "/>
<polyline clip-path="url(#clip602)" style="stroke:#e26f46; stroke-linecap:round; stroke-linejoin:round; stroke-width:12; stroke-opacity:1; fill:none" points="455.919,1384.23 474.521,1360.95 493.123,1341.53 511.725,1323.34 530.326,1305.91 548.928,1289.02 567.53,1272.55 586.132,1256.42 604.734,1240.58 623.336,1224.99 641.938,1209.61 660.54,1194.42 679.142,1179.41 697.744,1164.55 716.346,1149.83 734.948,1135.24 753.549,1120.78 772.151,1106.42 790.753,1092.17 809.355,1078.03 827.957,1063.97 846.559,1050 865.161,1036.11 883.763,1022.31 902.365,1008.58 920.967,994.914 939.569,981.322 958.17,967.794 976.772,954.329 995.374,940.924 1013.98,927.577 1032.58,914.285 1051.18,901.047 1069.78,887.86 1088.38,874.723 1106.99,861.635 1125.59,848.593 1144.19,835.596 1162.79,822.643 1181.39,809.733 1200,796.864 1218.6,784.035 1237.2,771.245 1255.8,758.493 1274.4,745.779 1293,733.1 1311.61,720.456 1330.21,707.847 1348.81,695.271 1367.41,682.728 1386.01,670.217 1404.62,657.738 1423.22,645.288 1441.82,632.869 1460.42,620.479 1479.02,608.117 1497.63,595.784 1516.23,583.478 1534.83,571.199 1553.43,558.947 1572.03,546.72 1590.64,534.519 1609.24,522.343 1627.84,510.191 1646.44,498.064 1665.04,485.96 1683.65,473.879 1702.25,461.821 1720.85,449.786 1739.45,437.773 1758.05,425.781 1776.65,413.811 1795.26,401.862 1813.86,389.934 1832.46,378.026 1851.06,366.139 1869.66,354.271 1888.27,342.422 1906.87,330.593 1925.47,318.783 1944.07,306.991 1962.67,295.218 1981.28,283.463 1999.88,271.726 2018.48,260.006 2037.08,248.304 2055.68,236.619 2074.29,224.951 2092.89,213.3 2111.49,201.666 2130.09,190.047 2148.69,178.445 2167.29,166.859 2185.9,155.289 2204.5,143.734 2223.1,132.194 2241.7,120.67 2260.3,109.16 2278.91,97.6656 2297.51,86.1857 "/>
<polyline clip-path="url(#clip602)" style="stroke:#3da44d; stroke-linecap:round; stroke-linejoin:round; stroke-width:12; stroke-opacity:1; fill:none" points="455.919,1384.24 474.521,1381.98 493.123,1379.62 511.725,1377.23 530.326,1374.81 548.928,1372.37 567.53,1369.91 586.132,1367.44 604.734,1364.97 623.336,1362.48 641.938,1359.98 660.54,1357.48 679.142,1354.97 697.744,1352.45 716.346,1349.92 734.948,1347.4 753.549,1344.86 772.151,1342.32 790.753,1339.78 809.355,1337.23 827.957,1334.68 846.559,1332.12 865.161,1329.56 883.763,1327 902.365,1324.43 920.967,1321.86 939.569,1319.29 958.17,1316.71 976.772,1314.13 995.374,1311.55 1013.98,1308.96 1032.58,1306.37 1051.18,1303.78 1069.78,1301.19 1088.38,1298.59 1106.99,1296 1125.59,1293.4 1144.19,1290.79 1162.79,1288.19 1181.39,1285.58 1200,1282.97 1218.6,1280.36 1237.2,1277.75 1255.8,1275.14 1274.4,1272.52 1293,1269.9 1311.61,1267.28 1330.21,1264.66 1348.81,1262.04 1367.41,1259.41 1386.01,1256.78 1404.62,1254.16 1423.22,1251.53 1441.82,1248.89 1460.42,1246.26 1479.02,1243.63 1497.63,1240.99 1516.23,1238.35 1534.83,1235.71 1553.43,1233.07 1572.03,1230.43 1590.64,1227.79 1609.24,1225.14 1627.84,1222.5 1646.44,1219.85 1665.04,1217.2 1683.65,1214.55 1702.25,1211.9 1720.85,1209.25 1739.45,1206.6 1758.05,1203.94 1776.65,1201.29 1795.26,1198.63 1813.86,1195.97 1832.46,1193.31 1851.06,1190.65 1869.66,1187.99 1888.27,1185.33 1906.87,1182.67 1925.47,1180 1944.07,1177.34 1962.67,1174.67 1981.28,1172 1999.88,1169.33 2018.48,1166.66 2037.08,1163.99 2055.68,1161.32 2074.29,1158.65 2092.89,1155.98 2111.49,1153.3 2130.09,1150.63 2148.69,1147.95 2167.29,1145.27 2185.9,1142.59 2204.5,1139.92 2223.1,1137.24 2241.7,1134.55 2260.3,1131.87 2278.91,1129.19 2297.51,1126.51 "/>
<polyline clip-path="url(#clip602)" style="stroke:#c271d2; stroke-linecap:round; stroke-linejoin:round; stroke-width:16; stroke-opacity:1; fill:none" stroke-dasharray="64, 40" points="455.919,1384.24 474.521,1381.98 493.123,1379.62 511.725,1377.23 530.326,1374.81 548.928,1372.37 567.53,1369.91 586.132,1367.44 604.734,1364.97 623.336,1362.48 641.938,1359.98 660.54,1357.48 679.142,1354.97 697.744,1352.45 716.346,1349.92 734.948,1347.4 753.549,1344.86 772.151,1342.32 790.753,1339.78 809.355,1337.23 827.957,1334.68 846.559,1332.12 865.161,1329.56 883.763,1327 902.365,1324.43 920.967,1321.86 939.569,1319.29 958.17,1316.71 976.772,1314.13 995.374,1311.55 1013.98,1308.96 1032.58,1306.37 1051.18,1303.78 1069.78,1301.19 1088.38,1298.59 1106.99,1296 1125.59,1293.4 1144.19,1290.79 1162.79,1288.19 1181.39,1285.58 1200,1282.97 1218.6,1280.36 1237.2,1277.75 1255.8,1275.14 1274.4,1272.52 1293,1269.9 1311.61,1267.28 1330.21,1264.66 1348.81,1262.04 1367.41,1259.41 1386.01,1256.78 1404.62,1254.16 1423.22,1251.53 1441.82,1248.89 1460.42,1246.26 1479.02,1243.63 1497.63,1240.99 1516.23,1238.35 1534.83,1235.71 1553.43,1233.07 1572.03,1230.43 1590.64,1227.79 1609.24,1225.14 1627.84,1222.5 1646.44,1219.85 1665.04,1217.2 1683.65,1214.55 1702.25,1211.9 1720.85,1209.25 1739.45,1206.6 1758.05,1203.94 1776.65,1201.29 1795.26,1198.63 1813.86,1195.97 1832.46,1193.31 1851.06,1190.65 1869.66,1187.99 1888.27,1185.33 1906.87,1182.67 1925.47,1180 1944.07,1177.34 1962.67,1174.67 1981.28,1172 1999.88,1169.33 2018.48,1166.66 2037.08,1163.99 2055.68,1161.32 2074.29,1158.65 2092.89,1155.98 2111.49,1153.3 2130.09,1150.63 2148.69,1147.95 2167.29,1145.27 2185.9,1142.59 2204.5,1139.92 2223.1,1137.24 2241.7,1134.55 2260.3,1131.87 2278.91,1129.19 2297.51,1126.51 "/>
<polyline clip-path="url(#clip602)" style="stroke:#ac8d18; stroke-linecap:round; stroke-linejoin:round; stroke-width:12; stroke-opacity:1; fill:none" points="455.919,1384.23 474.521,1364.79 493.123,1348.57 511.725,1333.38 530.326,1318.82 548.928,1304.71 567.53,1290.96 586.132,1277.49 604.734,1264.26 623.336,1251.24 641.938,1238.39 660.54,1225.71 679.142,1213.17 697.744,1200.76 716.346,1188.47 734.948,1176.28 753.549,1164.2 772.151,1152.22 790.753,1140.32 809.355,1128.5 827.957,1116.76 846.559,1105.09 865.161,1093.5 883.763,1081.97 902.365,1070.5 920.967,1059.09 939.569,1047.74 958.17,1036.44 976.772,1025.19 995.374,1014 1013.98,1002.85 1032.58,991.75 1051.18,980.693 1069.78,969.68 1088.38,958.709 1106.99,947.778 1125.59,936.886 1144.19,926.031 1162.79,915.213 1181.39,904.431 1200,893.683 1218.6,882.969 1237.2,872.287 1255.8,861.638 1274.4,851.019 1293,840.43 1311.61,829.87 1330.21,819.339 1348.81,808.837 1367.41,798.361 1386.01,787.912 1404.62,777.49 1423.22,767.092 1441.82,756.72 1460.42,746.372 1479.02,736.049 1497.63,725.748 1516.23,715.471 1534.83,705.216 1553.43,694.983 1572.03,684.772 1590.64,674.582 1609.24,664.412 1627.84,654.264 1646.44,644.135 1665.04,634.027 1683.65,623.937 1702.25,613.867 1720.85,603.816 1739.45,593.783 1758.05,583.768 1776.65,573.771 1795.26,563.791 1813.86,553.829 1832.46,543.884 1851.06,533.956 1869.66,524.044 1888.27,514.149 1906.87,504.27 1925.47,494.406 1944.07,484.558 1962.67,474.725 1981.28,464.908 1999.88,455.106 2018.48,445.318 2037.08,435.545 2055.68,425.786 2074.29,416.041 2092.89,406.311 2111.49,396.594 2130.09,386.891 2148.69,377.201 2167.29,367.525 2185.9,357.861 2204.5,348.211 2223.1,338.573 2241.7,328.949 2260.3,319.336 2278.91,309.737 2297.51,300.149 "/>
<path clip-path="url(#clip600)" d="M465.741 404.149 L1102.87 404.149 L1102.87 93.1086 L465.741 93.1086  Z" fill="#ffffff" fill-rule="evenodd" fill-opacity="1"/>
<polyline clip-path="url(#clip600)" style="stroke:#000000; stroke-linecap:round; stroke-linejoin:round; stroke-width:4; stroke-opacity:1; fill:none" points="465.741,404.149 1102.87,404.149 1102.87,93.1086 465.741,93.1086 465.741,404.149 "/>
<polyline clip-path="url(#clip600)" style="stroke:#009af9; stroke-linecap:round; stroke-linejoin:round; stroke-width:12; stroke-opacity:1; fill:none" points="487.43,144.949 617.569,144.949 "/>
<path clip-path="url(#clip600)" d="M639.259 127.669 L643.935 127.669 L643.935 158.293 L660.764 158.293 L660.764 162.229 L639.259 162.229 L639.259 127.669 Z" fill="#000000" fill-rule="nonzero" fill-opacity="1" /><path clip-path="url(#clip600)" d="M665.486 136.303 L669.745 136.303 L669.745 162.229 L665.486 162.229 L665.486 136.303 M665.486 126.21 L669.745 126.21 L669.745 131.604 L665.486 131.604 L665.486 126.21 Z" fill="#000000" fill-rule="nonzero" fill-opacity="1" /><path clip-path="url(#clip600)" d="M681.203 149.289 Q681.203 153.988 683.125 156.673 Q685.069 159.335 688.449 159.335 Q691.828 159.335 693.773 156.673 Q695.717 153.988 695.717 149.289 Q695.717 144.59 693.773 141.928 Q691.828 139.243 688.449 139.243 Q685.069 139.243 683.125 141.928 Q681.203 144.59 681.203 149.289 M695.717 158.34 Q694.375 160.655 692.315 161.789 Q690.278 162.9 687.407 162.9 Q682.708 162.9 679.745 159.15 Q676.805 155.4 676.805 149.289 Q676.805 143.178 679.745 139.428 Q682.708 135.678 687.407 135.678 Q690.278 135.678 692.315 136.812 Q694.375 137.923 695.717 140.238 L695.717 136.303 L699.977 136.303 L699.977 172.09 L695.717 172.09 L695.717 158.34 Z" fill="#000000" fill-rule="nonzero" fill-opacity="1" /><path clip-path="url(#clip600)" d="M726.088 132.507 L726.088 145.4 L738.981 145.4 L738.981 149.335 L726.088 149.335 L726.088 162.229 L722.199 162.229 L722.199 149.335 L709.305 149.335 L709.305 145.4 L722.199 145.4 L722.199 132.507 L726.088 132.507 Z" fill="#000000" fill-rule="nonzero" fill-opacity="1" /><path clip-path="url(#clip600)" d="M765.046 146.025 Q766.55 146.534 767.962 148.201 Q769.397 149.868 770.833 152.784 L775.578 162.229 L770.555 162.229 L766.134 153.363 Q764.421 149.891 762.8 148.756 Q761.203 147.622 758.425 147.622 L753.333 147.622 L753.333 162.229 L748.657 162.229 L748.657 127.669 L759.212 127.669 Q765.138 127.669 768.055 130.145 Q770.972 132.622 770.972 137.622 Q770.972 140.886 769.444 143.039 Q767.939 145.192 765.046 146.025 M753.333 131.511 L753.333 143.78 L759.212 143.78 Q762.592 143.78 764.305 142.229 Q766.041 140.655 766.041 137.622 Q766.041 134.59 764.305 133.062 Q762.592 131.511 759.212 131.511 L753.333 131.511 Z" fill="#000000" fill-rule="nonzero" fill-opacity="1" /><path clip-path="url(#clip600)" d="M792.152 149.196 Q786.99 149.196 784.999 150.377 Q783.009 151.557 783.009 154.405 Q783.009 156.673 784.49 158.016 Q785.995 159.335 788.564 159.335 Q792.106 159.335 794.235 156.835 Q796.388 154.312 796.388 150.145 L796.388 149.196 L792.152 149.196 M800.647 147.437 L800.647 162.229 L796.388 162.229 L796.388 158.293 Q794.93 160.655 792.754 161.789 Q790.578 162.9 787.43 162.9 Q783.448 162.9 781.087 160.678 Q778.749 158.432 778.749 154.682 Q778.749 150.307 781.666 148.085 Q784.606 145.863 790.416 145.863 L796.388 145.863 L796.388 145.446 Q796.388 142.507 794.444 140.909 Q792.522 139.289 789.027 139.289 Q786.805 139.289 784.698 139.821 Q782.592 140.354 780.647 141.419 L780.647 137.483 Q782.985 136.581 785.184 136.141 Q787.383 135.678 789.467 135.678 Q795.092 135.678 797.87 138.594 Q800.647 141.511 800.647 147.437 Z" fill="#000000" fill-rule="nonzero" fill-opacity="1" /><path clip-path="url(#clip600)" d="M809.42 136.303 L813.68 136.303 L813.68 162.229 L809.42 162.229 L809.42 136.303 M809.42 126.21 L813.68 126.21 L813.68 131.604 L809.42 131.604 L809.42 126.21 Z" fill="#000000" fill-rule="nonzero" fill-opacity="1" /><path clip-path="url(#clip600)" d="M844.142 146.581 L844.142 162.229 L839.883 162.229 L839.883 146.719 Q839.883 143.039 838.448 141.21 Q837.013 139.382 834.142 139.382 Q830.693 139.382 828.703 141.581 Q826.712 143.78 826.712 147.576 L826.712 162.229 L822.43 162.229 L822.43 136.303 L826.712 136.303 L826.712 140.331 Q828.24 137.993 830.3 136.835 Q832.383 135.678 835.092 135.678 Q839.559 135.678 841.851 138.456 Q844.142 141.21 844.142 146.581 Z" fill="#000000" fill-rule="nonzero" fill-opacity="1" /><path clip-path="url(#clip600)" d="M850.485 147.344 L862.962 147.344 L862.962 151.141 L850.485 151.141 L850.485 147.344 Z" fill="#000000" fill-rule="nonzero" fill-opacity="1" /><path clip-path="url(#clip600)" d="M895.809 130.331 L895.809 135.261 Q893.448 133.062 890.763 131.974 Q888.101 130.886 885.091 130.886 Q879.165 130.886 876.017 134.52 Q872.869 138.132 872.869 144.983 Q872.869 151.812 876.017 155.446 Q879.165 159.057 885.091 159.057 Q888.101 159.057 890.763 157.969 Q893.448 156.881 895.809 154.682 L895.809 159.567 Q893.355 161.233 890.601 162.067 Q887.869 162.9 884.814 162.9 Q876.966 162.9 872.452 158.108 Q867.939 153.293 867.939 144.983 Q867.939 136.65 872.452 131.858 Q876.966 127.044 884.814 127.044 Q887.915 127.044 890.647 127.877 Q893.401 128.687 895.809 130.331 Z" fill="#000000" fill-rule="nonzero" fill-opacity="1" /><path clip-path="url(#clip600)" d="M903.031 127.669 L907.707 127.669 L907.707 158.293 L924.536 158.293 L924.536 162.229 L903.031 162.229 L903.031 127.669 Z" fill="#000000" fill-rule="nonzero" fill-opacity="1" /><path clip-path="url(#clip600)" d="M929.443 127.669 L934.119 127.669 L934.119 162.229 L929.443 162.229 L929.443 127.669 Z" fill="#000000" fill-rule="nonzero" fill-opacity="1" /><path clip-path="url(#clip600)" d="M943.424 127.669 L950.392 127.669 L959.211 151.187 L968.077 127.669 L975.045 127.669 L975.045 162.229 L970.484 162.229 L970.484 131.882 L961.572 155.585 L956.873 155.585 L947.961 131.882 L947.961 162.229 L943.424 162.229 L943.424 127.669 Z" fill="#000000" fill-rule="nonzero" fill-opacity="1" /><path clip-path="url(#clip600)" d="M995.878 132.275 L989.535 149.474 L1002.24 149.474 L995.878 132.275 M993.239 127.669 L998.54 127.669 L1011.71 162.229 L1006.85 162.229 L1003.7 153.363 L988.123 153.363 L984.975 162.229 L980.044 162.229 L993.239 127.669 Z" fill="#000000" fill-rule="nonzero" fill-opacity="1" /><polyline clip-path="url(#clip600)" style="stroke:#e26f46; stroke-linecap:round; stroke-linejoin:round; stroke-width:12; stroke-opacity:1; fill:none" points="487.43,196.789 617.569,196.789 "/>
<path clip-path="url(#clip600)" d="M639.259 179.509 L643.935 179.509 L643.935 214.069 L639.259 214.069 L639.259 179.509 Z" fill="#000000" fill-rule="nonzero" fill-opacity="1" /><path clip-path="url(#clip600)" d="M671.713 189.138 L671.713 193.12 Q669.907 192.124 668.079 191.638 Q666.273 191.129 664.421 191.129 Q660.278 191.129 657.986 193.768 Q655.694 196.384 655.694 201.129 Q655.694 205.874 657.986 208.513 Q660.278 211.129 664.421 211.129 Q666.273 211.129 668.079 210.643 Q669.907 210.133 671.713 209.138 L671.713 213.073 Q669.93 213.907 668.009 214.323 Q666.111 214.74 663.958 214.74 Q658.102 214.74 654.653 211.059 Q651.204 207.379 651.204 201.129 Q651.204 194.786 654.676 191.152 Q658.171 187.518 664.236 187.518 Q666.204 187.518 668.079 187.935 Q669.954 188.328 671.713 189.138 Z" fill="#000000" fill-rule="nonzero" fill-opacity="1" /><path clip-path="url(#clip600)" d="M701.296 200.041 L701.296 202.124 L681.713 202.124 Q681.991 206.522 684.352 208.837 Q686.736 211.129 690.972 211.129 Q693.426 211.129 695.717 210.527 Q698.032 209.925 700.301 208.721 L700.301 212.749 Q698.009 213.721 695.602 214.231 Q693.194 214.74 690.717 214.74 Q684.514 214.74 680.879 211.129 Q677.268 207.518 677.268 201.36 Q677.268 194.995 680.694 191.268 Q684.143 187.518 689.977 187.518 Q695.208 187.518 698.24 190.897 Q701.296 194.254 701.296 200.041 M697.037 198.791 Q696.99 195.296 695.069 193.212 Q693.171 191.129 690.023 191.129 Q686.458 191.129 684.305 193.143 Q682.176 195.157 681.852 198.814 L697.037 198.791 Z" fill="#000000" fill-rule="nonzero" fill-opacity="1" /><path clip-path="url(#clip600)" d="M725.625 184.347 L725.625 197.24 L738.518 197.24 L738.518 201.175 L725.625 201.175 L725.625 214.069 L721.736 214.069 L721.736 201.175 L708.842 201.175 L708.842 197.24 L721.736 197.24 L721.736 184.347 L725.625 184.347 Z" fill="#000000" fill-rule="nonzero" fill-opacity="1" /><path clip-path="url(#clip600)" d="M764.583 197.865 Q766.087 198.374 767.499 200.041 Q768.935 201.708 770.37 204.624 L775.115 214.069 L770.092 214.069 L765.671 205.203 Q763.958 201.731 762.337 200.596 Q760.74 199.462 757.962 199.462 L752.87 199.462 L752.87 214.069 L748.194 214.069 L748.194 179.509 L758.749 179.509 Q764.675 179.509 767.592 181.985 Q770.509 184.462 770.509 189.462 Q770.509 192.726 768.981 194.879 Q767.476 197.032 764.583 197.865 M752.87 183.351 L752.87 195.62 L758.749 195.62 Q762.129 195.62 763.842 194.069 Q765.578 192.495 765.578 189.462 Q765.578 186.43 763.842 184.902 Q762.129 183.351 758.749 183.351 L752.87 183.351 Z" fill="#000000" fill-rule="nonzero" fill-opacity="1" /><path clip-path="url(#clip600)" d="M791.689 201.036 Q786.527 201.036 784.536 202.217 Q782.546 203.397 782.546 206.245 Q782.546 208.513 784.027 209.856 Q785.532 211.175 788.101 211.175 Q791.643 211.175 793.772 208.675 Q795.925 206.152 795.925 201.985 L795.925 201.036 L791.689 201.036 M800.184 199.277 L800.184 214.069 L795.925 214.069 L795.925 210.133 Q794.467 212.495 792.291 213.629 Q790.115 214.74 786.967 214.74 Q782.985 214.74 780.624 212.518 Q778.286 210.272 778.286 206.522 Q778.286 202.147 781.203 199.925 Q784.143 197.703 789.953 197.703 L795.925 197.703 L795.925 197.286 Q795.925 194.347 793.981 192.749 Q792.059 191.129 788.564 191.129 Q786.342 191.129 784.235 191.661 Q782.129 192.194 780.184 193.259 L780.184 189.323 Q782.522 188.421 784.721 187.981 Q786.921 187.518 789.004 187.518 Q794.629 187.518 797.407 190.434 Q800.184 193.351 800.184 199.277 Z" fill="#000000" fill-rule="nonzero" fill-opacity="1" /><path clip-path="url(#clip600)" d="M808.957 188.143 L813.217 188.143 L813.217 214.069 L808.957 214.069 L808.957 188.143 M808.957 178.05 L813.217 178.05 L813.217 183.444 L808.957 183.444 L808.957 178.05 Z" fill="#000000" fill-rule="nonzero" fill-opacity="1" /><path clip-path="url(#clip600)" d="M843.679 198.421 L843.679 214.069 L839.42 214.069 L839.42 198.559 Q839.42 194.879 837.985 193.05 Q836.55 191.222 833.68 191.222 Q830.23 191.222 828.24 193.421 Q826.249 195.62 826.249 199.416 L826.249 214.069 L821.967 214.069 L821.967 188.143 L826.249 188.143 L826.249 192.171 Q827.777 189.833 829.837 188.675 Q831.92 187.518 834.629 187.518 Q839.096 187.518 841.388 190.296 Q843.679 193.05 843.679 198.421 Z" fill="#000000" fill-rule="nonzero" fill-opacity="1" /><path clip-path="url(#clip600)" d="M850.022 199.184 L862.499 199.184 L862.499 202.981 L850.022 202.981 L850.022 199.184 Z" fill="#000000" fill-rule="nonzero" fill-opacity="1" /><path clip-path="url(#clip600)" d="M895.346 182.171 L895.346 187.101 Q892.985 184.902 890.3 183.814 Q887.638 182.726 884.628 182.726 Q878.702 182.726 875.554 186.36 Q872.406 189.972 872.406 196.823 Q872.406 203.652 875.554 207.286 Q878.702 210.897 884.628 210.897 Q887.638 210.897 890.3 209.809 Q892.985 208.721 895.346 206.522 L895.346 211.407 Q892.892 213.073 890.138 213.907 Q887.406 214.74 884.351 214.74 Q876.503 214.74 871.99 209.948 Q867.476 205.133 867.476 196.823 Q867.476 188.49 871.99 183.698 Q876.503 178.884 884.351 178.884 Q887.452 178.884 890.184 179.717 Q892.938 180.527 895.346 182.171 Z" fill="#000000" fill-rule="nonzero" fill-opacity="1" /><path clip-path="url(#clip600)" d="M902.568 179.509 L907.244 179.509 L907.244 210.133 L924.073 210.133 L924.073 214.069 L902.568 214.069 L902.568 179.509 Z" fill="#000000" fill-rule="nonzero" fill-opacity="1" /><path clip-path="url(#clip600)" d="M928.98 179.509 L933.656 179.509 L933.656 214.069 L928.98 214.069 L928.98 179.509 Z" fill="#000000" fill-rule="nonzero" fill-opacity="1" /><path clip-path="url(#clip600)" d="M942.961 179.509 L949.929 179.509 L958.748 203.027 L967.614 179.509 L974.582 179.509 L974.582 214.069 L970.021 214.069 L970.021 183.722 L961.109 207.425 L956.41 207.425 L947.498 183.722 L947.498 214.069 L942.961 214.069 L942.961 179.509 Z" fill="#000000" fill-rule="nonzero" fill-opacity="1" /><path clip-path="url(#clip600)" d="M995.415 184.115 L989.072 201.314 L1001.78 201.314 L995.415 184.115 M992.776 179.509 L998.077 179.509 L1011.25 214.069 L1006.39 214.069 L1003.24 205.203 L987.66 205.203 L984.512 214.069 L979.582 214.069 L992.776 179.509 Z" fill="#000000" fill-rule="nonzero" fill-opacity="1" /><polyline clip-path="url(#clip600)" style="stroke:#3da44d; stroke-linecap:round; stroke-linejoin:round; stroke-width:12; stroke-opacity:1; fill:none" points="487.43,248.629 617.569,248.629 "/>
<path clip-path="url(#clip600)" d="M639.259 231.349 L643.935 231.349 L643.935 261.973 L660.764 261.973 L660.764 265.909 L639.259 265.909 L639.259 231.349 Z" fill="#000000" fill-rule="nonzero" fill-opacity="1" /><path clip-path="url(#clip600)" d="M665.486 239.983 L669.745 239.983 L669.745 265.909 L665.486 265.909 L665.486 239.983 M665.486 229.89 L669.745 229.89 L669.745 235.284 L665.486 235.284 L665.486 229.89 Z" fill="#000000" fill-rule="nonzero" fill-opacity="1" /><path clip-path="url(#clip600)" d="M681.203 252.969 Q681.203 257.668 683.125 260.353 Q685.069 263.015 688.449 263.015 Q691.828 263.015 693.773 260.353 Q695.717 257.668 695.717 252.969 Q695.717 248.27 693.773 245.608 Q691.828 242.923 688.449 242.923 Q685.069 242.923 683.125 245.608 Q681.203 248.27 681.203 252.969 M695.717 262.02 Q694.375 264.335 692.315 265.469 Q690.278 266.58 687.407 266.58 Q682.708 266.58 679.745 262.83 Q676.805 259.08 676.805 252.969 Q676.805 246.858 679.745 243.108 Q682.708 239.358 687.407 239.358 Q690.278 239.358 692.315 240.492 Q694.375 241.603 695.717 243.918 L695.717 239.983 L699.977 239.983 L699.977 275.77 L695.717 275.77 L695.717 262.02 Z" fill="#000000" fill-rule="nonzero" fill-opacity="1" /><path clip-path="url(#clip600)" d="M726.088 236.187 L726.088 249.08 L738.981 249.08 L738.981 253.015 L726.088 253.015 L726.088 265.909 L722.199 265.909 L722.199 253.015 L709.305 253.015 L709.305 249.08 L722.199 249.08 L722.199 236.187 L726.088 236.187 Z" fill="#000000" fill-rule="nonzero" fill-opacity="1" /><path clip-path="url(#clip600)" d="M769.374 232.483 L769.374 237.043 Q766.712 235.77 764.351 235.145 Q761.99 234.52 759.791 234.52 Q755.972 234.52 753.888 236.001 Q751.828 237.483 751.828 240.214 Q751.828 242.506 753.194 243.687 Q754.583 244.844 758.425 245.562 L761.249 246.14 Q766.481 247.136 768.958 249.659 Q771.458 252.159 771.458 256.372 Q771.458 261.395 768.078 263.987 Q764.722 266.58 758.217 266.58 Q755.763 266.58 752.986 266.024 Q750.231 265.469 747.268 264.381 L747.268 259.566 Q750.115 261.163 752.847 261.973 Q755.578 262.784 758.217 262.784 Q762.222 262.784 764.397 261.21 Q766.573 259.636 766.573 256.719 Q766.573 254.173 764.999 252.737 Q763.448 251.302 759.884 250.585 L757.036 250.029 Q751.805 248.987 749.467 246.765 Q747.129 244.543 747.129 240.585 Q747.129 236.001 750.347 233.362 Q753.587 230.724 759.259 230.724 Q761.689 230.724 764.212 231.163 Q766.735 231.603 769.374 232.483 Z" fill="#000000" fill-rule="nonzero" fill-opacity="1" /><path clip-path="url(#clip600)" d="M800.115 250.261 L800.115 265.909 L795.856 265.909 L795.856 250.399 Q795.856 246.719 794.42 244.89 Q792.985 243.062 790.115 243.062 Q786.666 243.062 784.675 245.261 Q782.684 247.46 782.684 251.256 L782.684 265.909 L778.402 265.909 L778.402 239.983 L782.684 239.983 L782.684 244.011 Q784.212 241.673 786.272 240.515 Q788.356 239.358 791.064 239.358 Q795.532 239.358 797.823 242.136 Q800.115 244.89 800.115 250.261 Z" fill="#000000" fill-rule="nonzero" fill-opacity="1" /><path clip-path="url(#clip600)" d="M818.656 242.969 Q815.231 242.969 813.24 245.654 Q811.249 248.316 811.249 252.969 Q811.249 257.622 813.217 260.307 Q815.207 262.969 818.656 262.969 Q822.059 262.969 824.05 260.284 Q826.041 257.598 826.041 252.969 Q826.041 248.362 824.05 245.677 Q822.059 242.969 818.656 242.969 M818.656 239.358 Q824.212 239.358 827.383 242.969 Q830.555 246.58 830.555 252.969 Q830.555 259.335 827.383 262.969 Q824.212 266.58 818.656 266.58 Q813.078 266.58 809.907 262.969 Q806.758 259.335 806.758 252.969 Q806.758 246.58 809.907 242.969 Q813.078 239.358 818.656 239.358 Z" fill="#000000" fill-rule="nonzero" fill-opacity="1" /><path clip-path="url(#clip600)" d="M835.138 239.983 L839.397 239.983 L844.721 260.214 L850.022 239.983 L855.045 239.983 L860.369 260.214 L865.67 239.983 L869.929 239.983 L863.147 265.909 L858.124 265.909 L852.545 244.659 L846.943 265.909 L841.92 265.909 L835.138 239.983 Z" fill="#000000" fill-rule="nonzero" fill-opacity="1" /><path clip-path="url(#clip600)" d="M874.235 251.024 L886.712 251.024 L886.712 254.821 L874.235 254.821 L874.235 251.024 Z" fill="#000000" fill-rule="nonzero" fill-opacity="1" /><path clip-path="url(#clip600)" d="M919.559 234.011 L919.559 238.941 Q917.198 236.742 914.512 235.654 Q911.85 234.566 908.841 234.566 Q902.915 234.566 899.767 238.2 Q896.619 241.812 896.619 248.663 Q896.619 255.492 899.767 259.126 Q902.915 262.737 908.841 262.737 Q911.85 262.737 914.512 261.649 Q917.198 260.561 919.559 258.362 L919.559 263.247 Q917.105 264.913 914.35 265.747 Q911.619 266.58 908.563 266.58 Q900.716 266.58 896.202 261.788 Q891.688 256.973 891.688 248.663 Q891.688 240.33 896.202 235.538 Q900.716 230.724 908.563 230.724 Q911.665 230.724 914.397 231.557 Q917.151 232.367 919.559 234.011 Z" fill="#000000" fill-rule="nonzero" fill-opacity="1" /><path clip-path="url(#clip600)" d="M926.781 231.349 L931.457 231.349 L931.457 261.973 L948.285 261.973 L948.285 265.909 L926.781 265.909 L926.781 231.349 Z" fill="#000000" fill-rule="nonzero" fill-opacity="1" /><path clip-path="url(#clip600)" d="M953.193 231.349 L957.869 231.349 L957.869 265.909 L953.193 265.909 L953.193 231.349 Z" fill="#000000" fill-rule="nonzero" fill-opacity="1" /><path clip-path="url(#clip600)" d="M967.174 231.349 L974.142 231.349 L982.961 254.867 L991.827 231.349 L998.794 231.349 L998.794 265.909 L994.234 265.909 L994.234 235.562 L985.322 259.265 L980.623 259.265 L971.711 235.562 L971.711 265.909 L967.174 265.909 L967.174 231.349 Z" fill="#000000" fill-rule="nonzero" fill-opacity="1" /><path clip-path="url(#clip600)" d="M1019.63 235.955 L1013.29 253.154 L1025.99 253.154 L1019.63 235.955 M1016.99 231.349 L1022.29 231.349 L1035.46 265.909 L1030.6 265.909 L1027.45 257.043 L1011.87 257.043 L1008.72 265.909 L1003.79 265.909 L1016.99 231.349 Z" fill="#000000" fill-rule="nonzero" fill-opacity="1" /><polyline clip-path="url(#clip600)" style="stroke:#c271d2; stroke-linecap:round; stroke-linejoin:round; stroke-width:16; stroke-opacity:1; fill:none" stroke-dasharray="64, 40" points="487.43,300.469 617.569,300.469 "/>
<path clip-path="url(#clip600)" d="M639.259 283.189 L643.935 283.189 L643.935 317.749 L639.259 317.749 L639.259 283.189 Z" fill="#000000" fill-rule="nonzero" fill-opacity="1" /><path clip-path="url(#clip600)" d="M671.713 292.818 L671.713 296.8 Q669.907 295.804 668.079 295.318 Q666.273 294.809 664.421 294.809 Q660.278 294.809 657.986 297.448 Q655.694 300.064 655.694 304.809 Q655.694 309.554 657.986 312.193 Q660.278 314.809 664.421 314.809 Q666.273 314.809 668.079 314.323 Q669.907 313.813 671.713 312.818 L671.713 316.753 Q669.93 317.587 668.009 318.003 Q666.111 318.42 663.958 318.42 Q658.102 318.42 654.653 314.739 Q651.204 311.059 651.204 304.809 Q651.204 298.466 654.676 294.832 Q658.171 291.198 664.236 291.198 Q666.204 291.198 668.079 291.615 Q669.954 292.008 671.713 292.818 Z" fill="#000000" fill-rule="nonzero" fill-opacity="1" /><path clip-path="url(#clip600)" d="M701.296 303.721 L701.296 305.804 L681.713 305.804 Q681.991 310.202 684.352 312.517 Q686.736 314.809 690.972 314.809 Q693.426 314.809 695.717 314.207 Q698.032 313.605 700.301 312.401 L700.301 316.429 Q698.009 317.401 695.602 317.911 Q693.194 318.42 690.717 318.42 Q684.514 318.42 680.879 314.809 Q677.268 311.198 677.268 305.04 Q677.268 298.675 680.694 294.948 Q684.143 291.198 689.977 291.198 Q695.208 291.198 698.24 294.577 Q701.296 297.934 701.296 303.721 M697.037 302.471 Q696.99 298.976 695.069 296.892 Q693.171 294.809 690.023 294.809 Q686.458 294.809 684.305 296.823 Q682.176 298.837 681.852 302.494 L697.037 302.471 Z" fill="#000000" fill-rule="nonzero" fill-opacity="1" /><path clip-path="url(#clip600)" d="M725.625 288.027 L725.625 300.92 L738.518 300.92 L738.518 304.855 L725.625 304.855 L725.625 317.749 L721.736 317.749 L721.736 304.855 L708.842 304.855 L708.842 300.92 L721.736 300.92 L721.736 288.027 L725.625 288.027 Z" fill="#000000" fill-rule="nonzero" fill-opacity="1" /><path clip-path="url(#clip600)" d="M768.911 284.323 L768.911 288.883 Q766.249 287.61 763.888 286.985 Q761.527 286.36 759.328 286.36 Q755.509 286.36 753.425 287.841 Q751.365 289.323 751.365 292.054 Q751.365 294.346 752.731 295.527 Q754.12 296.684 757.962 297.402 L760.786 297.98 Q766.018 298.976 768.495 301.499 Q770.995 303.999 770.995 308.212 Q770.995 313.235 767.615 315.827 Q764.259 318.42 757.754 318.42 Q755.3 318.42 752.523 317.864 Q749.768 317.309 746.805 316.221 L746.805 311.406 Q749.652 313.003 752.384 313.813 Q755.115 314.624 757.754 314.624 Q761.759 314.624 763.935 313.05 Q766.11 311.476 766.11 308.559 Q766.11 306.013 764.536 304.577 Q762.985 303.142 759.421 302.425 L756.573 301.869 Q751.342 300.827 749.004 298.605 Q746.666 296.383 746.666 292.425 Q746.666 287.841 749.884 285.202 Q753.124 282.564 758.796 282.564 Q761.226 282.564 763.749 283.003 Q766.272 283.443 768.911 284.323 Z" fill="#000000" fill-rule="nonzero" fill-opacity="1" /><path clip-path="url(#clip600)" d="M799.652 302.101 L799.652 317.749 L795.393 317.749 L795.393 302.239 Q795.393 298.559 793.958 296.73 Q792.522 294.902 789.652 294.902 Q786.203 294.902 784.212 297.101 Q782.221 299.3 782.221 303.096 L782.221 317.749 L777.939 317.749 L777.939 291.823 L782.221 291.823 L782.221 295.851 Q783.749 293.513 785.809 292.355 Q787.893 291.198 790.601 291.198 Q795.069 291.198 797.36 293.976 Q799.652 296.73 799.652 302.101 Z" fill="#000000" fill-rule="nonzero" fill-opacity="1" /><path clip-path="url(#clip600)" d="M818.194 294.809 Q814.768 294.809 812.777 297.494 Q810.786 300.156 810.786 304.809 Q810.786 309.462 812.754 312.147 Q814.744 314.809 818.194 314.809 Q821.596 314.809 823.587 312.124 Q825.578 309.438 825.578 304.809 Q825.578 300.202 823.587 297.517 Q821.596 294.809 818.194 294.809 M818.194 291.198 Q823.749 291.198 826.92 294.809 Q830.092 298.42 830.092 304.809 Q830.092 311.175 826.92 314.809 Q823.749 318.42 818.194 318.42 Q812.615 318.42 809.444 314.809 Q806.295 311.175 806.295 304.809 Q806.295 298.42 809.444 294.809 Q812.615 291.198 818.194 291.198 Z" fill="#000000" fill-rule="nonzero" fill-opacity="1" /><path clip-path="url(#clip600)" d="M834.675 291.823 L838.934 291.823 L844.258 312.054 L849.559 291.823 L854.582 291.823 L859.906 312.054 L865.207 291.823 L869.466 291.823 L862.684 317.749 L857.661 317.749 L852.082 296.499 L846.48 317.749 L841.457 317.749 L834.675 291.823 Z" fill="#000000" fill-rule="nonzero" fill-opacity="1" /><path clip-path="url(#clip600)" d="M873.772 302.864 L886.249 302.864 L886.249 306.661 L873.772 306.661 L873.772 302.864 Z" fill="#000000" fill-rule="nonzero" fill-opacity="1" /><path clip-path="url(#clip600)" d="M919.096 285.851 L919.096 290.781 Q916.735 288.582 914.049 287.494 Q911.387 286.406 908.378 286.406 Q902.452 286.406 899.304 290.04 Q896.156 293.652 896.156 300.503 Q896.156 307.332 899.304 310.966 Q902.452 314.577 908.378 314.577 Q911.387 314.577 914.049 313.489 Q916.735 312.401 919.096 310.202 L919.096 315.087 Q916.642 316.753 913.887 317.587 Q911.156 318.42 908.1 318.42 Q900.253 318.42 895.739 313.628 Q891.226 308.813 891.226 300.503 Q891.226 292.17 895.739 287.378 Q900.253 282.564 908.1 282.564 Q911.202 282.564 913.934 283.397 Q916.688 284.207 919.096 285.851 Z" fill="#000000" fill-rule="nonzero" fill-opacity="1" /><path clip-path="url(#clip600)" d="M926.318 283.189 L930.994 283.189 L930.994 313.813 L947.822 313.813 L947.822 317.749 L926.318 317.749 L926.318 283.189 Z" fill="#000000" fill-rule="nonzero" fill-opacity="1" /><path clip-path="url(#clip600)" d="M952.73 283.189 L957.406 283.189 L957.406 317.749 L952.73 317.749 L952.73 283.189 Z" fill="#000000" fill-rule="nonzero" fill-opacity="1" /><path clip-path="url(#clip600)" d="M966.711 283.189 L973.679 283.189 L982.498 306.707 L991.364 283.189 L998.331 283.189 L998.331 317.749 L993.771 317.749 L993.771 287.402 L984.859 311.105 L980.16 311.105 L971.248 287.402 L971.248 317.749 L966.711 317.749 L966.711 283.189 Z" fill="#000000" fill-rule="nonzero" fill-opacity="1" /><path clip-path="url(#clip600)" d="M1019.16 287.795 L1012.82 304.994 L1025.53 304.994 L1019.16 287.795 M1016.53 283.189 L1021.83 283.189 L1035 317.749 L1030.14 317.749 L1026.99 308.883 L1011.41 308.883 L1008.26 317.749 L1003.33 317.749 L1016.53 283.189 Z" fill="#000000" fill-rule="nonzero" fill-opacity="1" /><polyline clip-path="url(#clip600)" style="stroke:#ac8d18; stroke-linecap:round; stroke-linejoin:round; stroke-width:12; stroke-opacity:1; fill:none" points="487.43,352.309 617.569,352.309 "/>
<path clip-path="url(#clip600)" d="M639.259 335.029 L643.935 335.029 L643.935 365.653 L660.764 365.653 L660.764 369.589 L639.259 369.589 L639.259 335.029 Z" fill="#000000" fill-rule="nonzero" fill-opacity="1" /><path clip-path="url(#clip600)" d="M665.486 343.663 L669.745 343.663 L669.745 369.589 L665.486 369.589 L665.486 343.663 M665.486 333.57 L669.745 333.57 L669.745 338.964 L665.486 338.964 L665.486 333.57 Z" fill="#000000" fill-rule="nonzero" fill-opacity="1" /><path clip-path="url(#clip600)" d="M681.203 356.649 Q681.203 361.348 683.125 364.033 Q685.069 366.695 688.449 366.695 Q691.828 366.695 693.773 364.033 Q695.717 361.348 695.717 356.649 Q695.717 351.95 693.773 349.288 Q691.828 346.603 688.449 346.603 Q685.069 346.603 683.125 349.288 Q681.203 351.95 681.203 356.649 M695.717 365.7 Q694.375 368.015 692.315 369.149 Q690.278 370.26 687.407 370.26 Q682.708 370.26 679.745 366.51 Q676.805 362.76 676.805 356.649 Q676.805 350.538 679.745 346.788 Q682.708 343.038 687.407 343.038 Q690.278 343.038 692.315 344.172 Q694.375 345.283 695.717 347.598 L695.717 343.663 L699.977 343.663 L699.977 379.45 L695.717 379.45 L695.717 365.7 Z" fill="#000000" fill-rule="nonzero" fill-opacity="1" /><path clip-path="url(#clip600)" d="M726.088 339.867 L726.088 352.76 L738.981 352.76 L738.981 356.695 L726.088 356.695 L726.088 369.589 L722.199 369.589 L722.199 356.695 L709.305 356.695 L709.305 352.76 L722.199 352.76 L722.199 339.867 L726.088 339.867 Z" fill="#000000" fill-rule="nonzero" fill-opacity="1" /><path clip-path="url(#clip600)" d="M765.046 353.385 Q766.55 353.894 767.962 355.561 Q769.397 357.228 770.833 360.144 L775.578 369.589 L770.555 369.589 L766.134 360.723 Q764.421 357.251 762.8 356.116 Q761.203 354.982 758.425 354.982 L753.333 354.982 L753.333 369.589 L748.657 369.589 L748.657 335.029 L759.212 335.029 Q765.138 335.029 768.055 337.505 Q770.972 339.982 770.972 344.982 Q770.972 348.246 769.444 350.399 Q767.939 352.552 765.046 353.385 M753.333 338.871 L753.333 351.14 L759.212 351.14 Q762.592 351.14 764.305 349.589 Q766.041 348.015 766.041 344.982 Q766.041 341.95 764.305 340.422 Q762.592 338.871 759.212 338.871 L753.333 338.871 Z" fill="#000000" fill-rule="nonzero" fill-opacity="1" /><path clip-path="url(#clip600)" d="M792.152 356.556 Q786.99 356.556 784.999 357.737 Q783.009 358.917 783.009 361.765 Q783.009 364.033 784.49 365.376 Q785.995 366.695 788.564 366.695 Q792.106 366.695 794.235 364.195 Q796.388 361.672 796.388 357.505 L796.388 356.556 L792.152 356.556 M800.647 354.797 L800.647 369.589 L796.388 369.589 L796.388 365.653 Q794.93 368.015 792.754 369.149 Q790.578 370.26 787.43 370.26 Q783.448 370.26 781.087 368.038 Q778.749 365.792 778.749 362.042 Q778.749 357.667 781.666 355.445 Q784.606 353.223 790.416 353.223 L796.388 353.223 L796.388 352.806 Q796.388 349.867 794.444 348.269 Q792.522 346.649 789.027 346.649 Q786.805 346.649 784.698 347.181 Q782.592 347.714 780.647 348.779 L780.647 344.843 Q782.985 343.941 785.184 343.501 Q787.383 343.038 789.467 343.038 Q795.092 343.038 797.87 345.954 Q800.647 348.871 800.647 354.797 Z" fill="#000000" fill-rule="nonzero" fill-opacity="1" /><path clip-path="url(#clip600)" d="M809.42 343.663 L813.68 343.663 L813.68 369.589 L809.42 369.589 L809.42 343.663 M809.42 333.57 L813.68 333.57 L813.68 338.964 L809.42 338.964 L809.42 333.57 Z" fill="#000000" fill-rule="nonzero" fill-opacity="1" /><path clip-path="url(#clip600)" d="M844.142 353.941 L844.142 369.589 L839.883 369.589 L839.883 354.079 Q839.883 350.399 838.448 348.57 Q837.013 346.742 834.142 346.742 Q830.693 346.742 828.703 348.941 Q826.712 351.14 826.712 354.936 L826.712 369.589 L822.43 369.589 L822.43 343.663 L826.712 343.663 L826.712 347.691 Q828.24 345.353 830.3 344.195 Q832.383 343.038 835.092 343.038 Q839.559 343.038 841.851 345.816 Q844.142 348.57 844.142 353.941 Z" fill="#000000" fill-rule="nonzero" fill-opacity="1" /><path clip-path="url(#clip600)" d="M850.485 354.704 L862.962 354.704 L862.962 358.501 L850.485 358.501 L850.485 354.704 Z" fill="#000000" fill-rule="nonzero" fill-opacity="1" /><path clip-path="url(#clip600)" d="M869.929 335.029 L891.781 335.029 L891.781 338.964 L874.605 338.964 L874.605 349.195 L891.063 349.195 L891.063 353.13 L874.605 353.13 L874.605 365.653 L892.198 365.653 L892.198 369.589 L869.929 369.589 L869.929 335.029 Z" fill="#000000" fill-rule="nonzero" fill-opacity="1" /><path clip-path="url(#clip600)" d="M919.883 348.64 Q921.48 345.769 923.702 344.404 Q925.924 343.038 928.934 343.038 Q932.985 343.038 935.184 345.885 Q937.383 348.709 937.383 353.941 L937.383 369.589 L933.1 369.589 L933.1 354.079 Q933.1 350.353 931.781 348.547 Q930.461 346.742 927.753 346.742 Q924.443 346.742 922.522 348.941 Q920.6 351.14 920.6 354.936 L920.6 369.589 L916.318 369.589 L916.318 354.079 Q916.318 350.329 914.999 348.547 Q913.679 346.742 910.924 346.742 Q907.661 346.742 905.739 348.964 Q903.818 351.163 903.818 354.936 L903.818 369.589 L899.536 369.589 L899.536 343.663 L903.818 343.663 L903.818 347.691 Q905.276 345.306 907.313 344.172 Q909.35 343.038 912.151 343.038 Q914.975 343.038 916.943 344.473 Q918.934 345.908 919.883 348.64 Z" fill="#000000" fill-rule="nonzero" fill-opacity="1" /><path clip-path="url(#clip600)" d="M949.998 365.7 L949.998 379.45 L945.716 379.45 L945.716 343.663 L949.998 343.663 L949.998 347.598 Q951.341 345.283 953.378 344.172 Q955.438 343.038 958.285 343.038 Q963.008 343.038 965.947 346.788 Q968.91 350.538 968.91 356.649 Q968.91 362.76 965.947 366.51 Q963.008 370.26 958.285 370.26 Q955.438 370.26 953.378 369.149 Q951.341 368.015 949.998 365.7 M964.489 356.649 Q964.489 351.95 962.545 349.288 Q960.623 346.603 957.244 346.603 Q953.864 346.603 951.92 349.288 Q949.998 351.95 949.998 356.649 Q949.998 361.348 951.92 364.033 Q953.864 366.695 957.244 366.695 Q960.623 366.695 962.545 364.033 Q964.489 361.348 964.489 356.649 Z" fill="#000000" fill-rule="nonzero" fill-opacity="1" /><path clip-path="url(#clip600)" d="M975.97 343.663 L980.23 343.663 L980.23 369.589 L975.97 369.589 L975.97 343.663 M975.97 333.57 L980.23 333.57 L980.23 338.964 L975.97 338.964 L975.97 333.57 Z" fill="#000000" fill-rule="nonzero" fill-opacity="1" /><path clip-path="url(#clip600)" d="M1004.16 347.644 Q1003.45 347.228 1002.59 347.042 Q1001.76 346.834 1000.74 346.834 Q997.128 346.834 995.183 349.195 Q993.262 351.533 993.262 355.931 L993.262 369.589 L988.98 369.589 L988.98 343.663 L993.262 343.663 L993.262 347.691 Q994.605 345.329 996.757 344.195 Q998.91 343.038 1001.99 343.038 Q1002.43 343.038 1002.96 343.107 Q1003.49 343.154 1004.14 343.269 L1004.16 347.644 Z" fill="#000000" fill-rule="nonzero" fill-opacity="1" /><path clip-path="url(#clip600)" d="M1008.63 343.663 L1012.89 343.663 L1012.89 369.589 L1008.63 369.589 L1008.63 343.663 M1008.63 333.57 L1012.89 333.57 L1012.89 338.964 L1008.63 338.964 L1008.63 333.57 Z" fill="#000000" fill-rule="nonzero" fill-opacity="1" /><path clip-path="url(#clip600)" d="M1040.46 344.658 L1040.46 348.64 Q1038.66 347.644 1036.83 347.158 Q1035.02 346.649 1033.17 346.649 Q1029.03 346.649 1026.73 349.288 Q1024.44 351.904 1024.44 356.649 Q1024.44 361.394 1026.73 364.033 Q1029.03 366.649 1033.17 366.649 Q1035.02 366.649 1036.83 366.163 Q1038.66 365.653 1040.46 364.658 L1040.46 368.593 Q1038.68 369.427 1036.76 369.843 Q1034.86 370.26 1032.71 370.26 Q1026.85 370.26 1023.4 366.579 Q1019.95 362.899 1019.95 356.649 Q1019.95 350.306 1023.42 346.672 Q1026.92 343.038 1032.98 343.038 Q1034.95 343.038 1036.83 343.455 Q1038.7 343.848 1040.46 344.658 Z" fill="#000000" fill-rule="nonzero" fill-opacity="1" /><path clip-path="url(#clip600)" d="M1059.65 356.556 Q1054.49 356.556 1052.5 357.737 Q1050.51 358.917 1050.51 361.765 Q1050.51 364.033 1051.99 365.376 Q1053.49 366.695 1056.06 366.695 Q1059.6 366.695 1061.73 364.195 Q1063.89 361.672 1063.89 357.505 L1063.89 356.556 L1059.65 356.556 M1068.15 354.797 L1068.15 369.589 L1063.89 369.589 L1063.89 365.653 Q1062.43 368.015 1060.25 369.149 Q1058.08 370.26 1054.93 370.26 Q1050.95 370.26 1048.59 368.038 Q1046.25 365.792 1046.25 362.042 Q1046.25 357.667 1049.16 355.445 Q1052.1 353.223 1057.91 353.223 L1063.89 353.223 L1063.89 352.806 Q1063.89 349.867 1061.94 348.269 Q1060.02 346.649 1056.53 346.649 Q1054.3 346.649 1052.2 347.181 Q1050.09 347.714 1048.15 348.779 L1048.15 344.843 Q1050.48 343.941 1052.68 343.501 Q1054.88 343.038 1056.97 343.038 Q1062.59 343.038 1065.37 345.954 Q1068.15 348.871 1068.15 354.797 Z" fill="#000000" fill-rule="nonzero" fill-opacity="1" /><path clip-path="url(#clip600)" d="M1076.92 333.57 L1081.18 333.57 L1081.18 369.589 L1076.92 369.589 L1076.92 333.57 Z" fill="#000000" fill-rule="nonzero" fill-opacity="1" /></svg>
