<?xml version="1.0" encoding="utf-8"?>
<svg xmlns="http://www.w3.org/2000/svg" xmlns:xlink="http://www.w3.org/1999/xlink" width="600" height="400" viewBox="0 0 2400 1600">
<defs>
  <clipPath id="clip020">
    <rect x="0" y="0" width="2400" height="1600"/>
  </clipPath>
</defs>
<path clip-path="url(#clip020)" d="M0 1600 L2400 1600 L2400 0 L0 0  Z" fill="#ffffff" fill-rule="evenodd" fill-opacity="1"/>
<defs>
  <clipPath id="clip021">
    <rect x="1029" y="944" width="599" height="493"/>
  </clipPath>
</defs>
<path clip-path="url(#clip020)" d="M398.649 1423.18 L2352.76 1423.18 L2352.76 47.2441 L398.649 47.2441  Z" fill="#ffffff" fill-rule="evenodd" fill-opacity="1"/>
<defs>
  <clipPath id="clip022">
    <rect x="398" y="47" width="1955" height="1377"/>
  </clipPath>
</defs>
<polyline clip-path="url(#clip022)" style="stroke:#000000; stroke-linecap:round; stroke-linejoin:round; stroke-width:2; stroke-opacity:0.1; fill:none" points="453.941,1423.18 453.941,47.2441 "/>
<polyline clip-path="url(#clip022)" style="stroke:#000000; stroke-linecap:round; stroke-linejoin:round; stroke-width:2; stroke-opacity:0.1; fill:none" points="1068.44,1423.18 1068.44,47.2441 "/>
<polyline clip-path="url(#clip022)" style="stroke:#000000; stroke-linecap:round; stroke-linejoin:round; stroke-width:2; stroke-opacity:0.1; fill:none" points="1682.95,1423.18 1682.95,47.2441 "/>
<polyline clip-path="url(#clip022)" style="stroke:#000000; stroke-linecap:round; stroke-linejoin:round; stroke-width:2; stroke-opacity:0.1; fill:none" points="2297.45,1423.18 2297.45,47.2441 "/>
<polyline clip-path="url(#clip022)" style="stroke:#000000; stroke-linecap:round; stroke-linejoin:round; stroke-width:2; stroke-opacity:0.1; fill:none" points="398.649,1384.24 2352.76,1384.24 "/>
<polyline clip-path="url(#clip022)" style="stroke:#000000; stroke-linecap:round; stroke-linejoin:round; stroke-width:2; stroke-opacity:0.1; fill:none" points="398.649,1059.73 2352.76,1059.73 "/>
<polyline clip-path="url(#clip022)" style="stroke:#000000; stroke-linecap:round; stroke-linejoin:round; stroke-width:2; stroke-opacity:0.1; fill:none" points="398.649,735.212 2352.76,735.212 "/>
<polyline clip-path="url(#clip022)" style="stroke:#000000; stroke-linecap:round; stroke-linejoin:round; stroke-width:2; stroke-opacity:0.1; fill:none" points="398.649,410.699 2352.76,410.699 "/>
<polyline clip-path="url(#clip022)" style="stroke:#000000; stroke-linecap:round; stroke-linejoin:round; stroke-width:2; stroke-opacity:0.1; fill:none" points="398.649,86.1857 2352.76,86.1857 "/>
<polyline clip-path="url(#clip020)" style="stroke:#000000; stroke-linecap:round; stroke-linejoin:round; stroke-width:4; stroke-opacity:1; fill:none" points="398.649,1423.18 2352.76,1423.18 "/>
<polyline clip-path="url(#clip020)" style="stroke:#000000; stroke-linecap:round; stroke-linejoin:round; stroke-width:4; stroke-opacity:1; fill:none" points="453.941,1423.18 453.941,1404.28 "/>
<polyline clip-path="url(#clip020)" style="stroke:#000000; stroke-linecap:round; stroke-linejoin:round; stroke-width:4; stroke-opacity:1; fill:none" points="1068.44,1423.18 1068.44,1404.28 "/>
<polyline clip-path="url(#clip020)" style="stroke:#000000; stroke-linecap:round; stroke-linejoin:round; stroke-width:4; stroke-opacity:1; fill:none" points="1682.95,1423.18 1682.95,1404.28 "/>
<polyline clip-path="url(#clip020)" style="stroke:#000000; stroke-linecap:round; stroke-linejoin:round; stroke-width:4; stroke-opacity:1; fill:none" points="2297.45,1423.18 2297.45,1404.28 "/>
<path clip-path="url(#clip020)" d="M431.326 1454.1 Q427.715 1454.1 425.886 1457.66 Q424.08 1461.2 424.08 1468.33 Q424.08 1475.44 425.886 1479.01 Q427.715 1482.55 431.326 1482.55 Q434.96 1482.55 436.765 1479.01 Q438.594 1475.44 438.594 1468.33 Q438.594 1461.2 436.765 1457.66 Q434.96 1454.1 431.326 1454.1 M431.326 1450.39 Q437.136 1450.39 440.191 1455 Q443.27 1459.58 443.27 1468.33 Q443.27 1477.06 440.191 1481.67 Q437.136 1486.25 431.326 1486.25 Q425.515 1486.25 422.437 1481.67 Q419.381 1477.06 419.381 1468.33 Q419.381 1459.58 422.437 1455 Q425.515 1450.39 431.326 1450.39 Z" fill="#000000" fill-rule="nonzero" fill-opacity="1" /><path clip-path="url(#clip020)" d="M451.488 1479.7 L456.372 1479.7 L456.372 1485.58 L451.488 1485.58 L451.488 1479.7 Z" fill="#000000" fill-rule="nonzero" fill-opacity="1" /><path clip-path="url(#clip020)" d="M476.557 1454.1 Q472.946 1454.1 471.117 1457.66 Q469.312 1461.2 469.312 1468.33 Q469.312 1475.44 471.117 1479.01 Q472.946 1482.55 476.557 1482.55 Q480.191 1482.55 481.997 1479.01 Q483.825 1475.44 483.825 1468.33 Q483.825 1461.2 481.997 1457.66 Q480.191 1454.1 476.557 1454.1 M476.557 1450.39 Q482.367 1450.39 485.423 1455 Q488.501 1459.58 488.501 1468.33 Q488.501 1477.06 485.423 1481.67 Q482.367 1486.25 476.557 1486.25 Q470.747 1486.25 467.668 1481.67 Q464.612 1477.06 464.612 1468.33 Q464.612 1459.58 467.668 1455 Q470.747 1450.39 476.557 1450.39 Z" fill="#000000" fill-rule="nonzero" fill-opacity="1" /><path clip-path="url(#clip020)" d="M1046.33 1454.1 Q1042.72 1454.1 1040.89 1457.66 Q1039.08 1461.2 1039.08 1468.33 Q1039.08 1475.44 1040.89 1479.01 Q1042.72 1482.55 1046.33 1482.55 Q1049.96 1482.55 1051.77 1479.01 Q1053.6 1475.44 1053.6 1468.33 Q1053.6 1461.2 1051.77 1457.66 Q1049.96 1454.1 1046.33 1454.1 M1046.33 1450.39 Q1052.14 1450.39 1055.19 1455 Q1058.27 1459.58 1058.27 1468.33 Q1058.27 1477.06 1055.19 1481.67 Q1052.14 1486.25 1046.33 1486.25 Q1040.52 1486.25 1037.44 1481.67 Q1034.38 1477.06 1034.38 1468.33 Q1034.38 1459.58 1037.44 1455 Q1040.52 1450.39 1046.33 1450.39 Z" fill="#000000" fill-rule="nonzero" fill-opacity="1" /><path clip-path="url(#clip020)" d="M1066.49 1479.7 L1071.37 1479.7 L1071.37 1485.58 L1066.49 1485.58 L1066.49 1479.7 Z" fill="#000000" fill-rule="nonzero" fill-opacity="1" /><path clip-path="url(#clip020)" d="M1081.6 1451.02 L1099.96 1451.02 L1099.96 1454.96 L1085.89 1454.96 L1085.89 1463.43 Q1086.91 1463.08 1087.92 1462.92 Q1088.94 1462.73 1089.96 1462.73 Q1095.75 1462.73 1099.13 1465.9 Q1102.51 1469.08 1102.51 1474.49 Q1102.51 1480.07 1099.03 1483.17 Q1095.56 1486.25 1089.24 1486.25 Q1087.07 1486.25 1084.8 1485.88 Q1082.55 1485.51 1080.15 1484.77 L1080.15 1480.07 Q1082.23 1481.2 1084.45 1481.76 Q1086.67 1482.32 1089.15 1482.32 Q1093.15 1482.32 1095.49 1480.21 Q1097.83 1478.1 1097.83 1474.49 Q1097.83 1470.88 1095.49 1468.77 Q1093.15 1466.67 1089.15 1466.67 Q1087.28 1466.67 1085.4 1467.08 Q1083.55 1467.5 1081.6 1468.38 L1081.6 1451.02 Z" fill="#000000" fill-rule="nonzero" fill-opacity="1" /><path clip-path="url(#clip020)" d="M1650.1 1481.64 L1657.74 1481.64 L1657.74 1455.28 L1649.43 1456.95 L1649.43 1452.69 L1657.69 1451.02 L1662.37 1451.02 L1662.37 1481.64 L1670.01 1481.64 L1670.01 1485.58 L1650.1 1485.58 L1650.1 1481.64 Z" fill="#000000" fill-rule="nonzero" fill-opacity="1" /><path clip-path="url(#clip020)" d="M1679.45 1479.7 L1684.34 1479.7 L1684.34 1485.58 L1679.45 1485.58 L1679.45 1479.7 Z" fill="#000000" fill-rule="nonzero" fill-opacity="1" /><path clip-path="url(#clip020)" d="M1704.52 1454.1 Q1700.91 1454.1 1699.08 1457.66 Q1697.28 1461.2 1697.28 1468.33 Q1697.28 1475.44 1699.08 1479.01 Q1700.91 1482.55 1704.52 1482.55 Q1708.16 1482.55 1709.96 1479.01 Q1711.79 1475.44 1711.79 1468.33 Q1711.79 1461.2 1709.96 1457.66 Q1708.16 1454.1 1704.52 1454.1 M1704.52 1450.39 Q1710.33 1450.39 1713.39 1455 Q1716.47 1459.58 1716.47 1468.33 Q1716.47 1477.06 1713.39 1481.67 Q1710.33 1486.25 1704.52 1486.25 Q1698.71 1486.25 1695.63 1481.67 Q1692.58 1477.06 1692.58 1468.33 Q1692.58 1459.58 1695.63 1455 Q1698.71 1450.39 1704.52 1450.39 Z" fill="#000000" fill-rule="nonzero" fill-opacity="1" /><path clip-path="url(#clip020)" d="M2265.1 1481.64 L2272.74 1481.64 L2272.74 1455.28 L2264.43 1456.95 L2264.43 1452.69 L2272.69 1451.02 L2277.37 1451.02 L2277.37 1481.64 L2285.01 1481.64 L2285.01 1485.58 L2265.1 1485.58 L2265.1 1481.64 Z" fill="#000000" fill-rule="nonzero" fill-opacity="1" /><path clip-path="url(#clip020)" d="M2294.45 1479.7 L2299.34 1479.7 L2299.34 1485.58 L2294.45 1485.58 L2294.45 1479.7 Z" fill="#000000" fill-rule="nonzero" fill-opacity="1" /><path clip-path="url(#clip020)" d="M2309.57 1451.02 L2327.93 1451.02 L2327.93 1454.96 L2313.85 1454.96 L2313.85 1463.43 Q2314.87 1463.08 2315.89 1462.92 Q2316.91 1462.73 2317.93 1462.73 Q2323.71 1462.73 2327.09 1465.9 Q2330.47 1469.08 2330.47 1474.49 Q2330.47 1480.07 2327 1483.17 Q2323.53 1486.25 2317.21 1486.25 Q2315.03 1486.25 2312.76 1485.88 Q2310.52 1485.51 2308.11 1484.77 L2308.11 1480.07 Q2310.19 1481.2 2312.42 1481.76 Q2314.64 1482.32 2317.12 1482.32 Q2321.12 1482.32 2323.46 1480.21 Q2325.8 1478.1 2325.8 1474.49 Q2325.8 1470.88 2323.46 1468.77 Q2321.12 1466.67 2317.12 1466.67 Q2315.24 1466.67 2313.37 1467.08 Q2311.51 1467.5 2309.57 1468.38 L2309.57 1451.02 Z" fill="#000000" fill-rule="nonzero" fill-opacity="1" /><path clip-path="url(#clip020)" d="M1206.31 1550.25 Q1206.31 1556.71 1208.95 1560.4 Q1211.63 1564.07 1216.27 1564.07 Q1220.92 1564.07 1223.59 1560.4 Q1226.27 1556.71 1226.27 1550.25 Q1226.27 1543.79 1223.59 1540.13 Q1220.92 1536.44 1216.27 1536.44 Q1211.63 1536.44 1208.95 1540.13 Q1206.31 1543.79 1206.31 1550.25 M1226.27 1562.7 Q1224.42 1565.88 1221.59 1567.44 Q1218.79 1568.97 1214.84 1568.97 Q1208.38 1568.97 1204.31 1563.81 Q1200.26 1558.65 1200.26 1550.25 Q1200.26 1541.85 1204.31 1536.69 Q1208.38 1531.54 1214.84 1531.54 Q1218.79 1531.54 1221.59 1533.1 Q1224.42 1534.62 1226.27 1537.81 L1226.27 1532.4 L1232.12 1532.4 L1232.12 1581.6 L1226.27 1581.6 L1226.27 1562.7 Z" fill="#000000" fill-rule="nonzero" fill-opacity="1" /><path clip-path="url(#clip020)" d="M1271.27 1578.87 L1271.27 1583.42 L1237.41 1583.42 L1237.41 1578.87 L1271.27 1578.87 Z" fill="#000000" fill-rule="nonzero" fill-opacity="1" /><path clip-path="url(#clip020)" d="M1276.78 1518.52 L1282.64 1518.52 L1282.64 1568.04 L1276.78 1568.04 L1276.78 1518.52 Z" fill="#000000" fill-rule="nonzero" fill-opacity="1" /><path clip-path="url(#clip020)" d="M1320.54 1533.76 L1320.54 1539.24 Q1318.06 1537.87 1315.55 1537.2 Q1313.06 1536.5 1310.52 1536.5 Q1304.82 1536.5 1301.67 1540.13 Q1298.52 1543.73 1298.52 1550.25 Q1298.52 1556.78 1301.67 1560.4 Q1304.82 1564 1310.52 1564 Q1313.06 1564 1315.55 1563.33 Q1318.06 1562.63 1320.54 1561.26 L1320.54 1566.68 Q1318.09 1567.82 1315.45 1568.39 Q1312.84 1568.97 1309.88 1568.97 Q1301.83 1568.97 1297.09 1563.91 Q1292.34 1558.85 1292.34 1550.25 Q1292.34 1541.53 1297.12 1536.53 Q1301.92 1531.54 1310.26 1531.54 Q1312.97 1531.54 1315.55 1532.11 Q1318.12 1532.65 1320.54 1533.76 Z" fill="#000000" fill-rule="nonzero" fill-opacity="1" /><path clip-path="url(#clip020)" d="M1330.73 1518.52 L1336.58 1518.52 L1336.58 1568.04 L1330.73 1568.04 L1330.73 1518.52 Z" fill="#000000" fill-rule="nonzero" fill-opacity="1" /><path clip-path="url(#clip020)" d="M1369.02 1518.52 L1382.51 1518.52 L1382.51 1523.07 L1374.87 1523.07 L1374.87 1572.09 L1382.51 1572.09 L1382.51 1576.64 L1369.02 1576.64 L1369.02 1518.52 Z" fill="#000000" fill-rule="nonzero" fill-opacity="1" /><path clip-path="url(#clip020)" d="M1418.45 1549.81 Q1418.45 1543.44 1415.81 1539.94 Q1413.2 1536.44 1408.45 1536.44 Q1403.74 1536.44 1401.1 1539.94 Q1398.49 1543.44 1398.49 1549.81 Q1398.49 1556.14 1401.1 1559.64 Q1403.74 1563.14 1408.45 1563.14 Q1413.2 1563.14 1415.81 1559.64 Q1418.45 1556.14 1418.45 1549.81 M1424.3 1563.62 Q1424.3 1572.72 1420.26 1577.15 Q1416.22 1581.6 1407.88 1581.6 Q1404.79 1581.6 1402.06 1581.13 Q1399.32 1580.68 1396.74 1579.72 L1396.74 1574.03 Q1399.32 1575.43 1401.83 1576.1 Q1404.35 1576.76 1406.96 1576.76 Q1412.72 1576.76 1415.58 1573.74 Q1418.45 1570.75 1418.45 1564.67 L1418.45 1561.77 Q1416.63 1564.92 1413.8 1566.48 Q1410.97 1568.04 1407.02 1568.04 Q1400.46 1568.04 1396.45 1563.05 Q1392.44 1558.05 1392.44 1549.81 Q1392.44 1541.53 1396.45 1536.53 Q1400.46 1531.54 1407.02 1531.54 Q1410.97 1531.54 1413.8 1533.1 Q1416.63 1534.66 1418.45 1537.81 L1418.45 1532.4 L1424.3 1532.4 L1424.3 1563.62 Z" fill="#000000" fill-rule="nonzero" fill-opacity="1" /><path clip-path="url(#clip020)" d="M1446.78 1520.52 L1452.19 1520.52 L1435.64 1574.09 L1430.22 1574.09 L1446.78 1520.52 Z" fill="#000000" fill-rule="nonzero" fill-opacity="1" /><path clip-path="url(#clip020)" d="M1458.11 1518.52 L1463.99 1518.52 L1463.99 1547.77 L1481.47 1532.4 L1488.95 1532.4 L1470.04 1549.07 L1489.74 1568.04 L1482.11 1568.04 L1463.99 1550.63 L1463.99 1568.04 L1458.11 1568.04 L1458.11 1518.52 Z" fill="#000000" fill-rule="nonzero" fill-opacity="1" /><path clip-path="url(#clip020)" d="M1519.54 1549.81 Q1519.54 1543.44 1516.89 1539.94 Q1514.28 1536.44 1509.54 1536.44 Q1504.83 1536.44 1502.19 1539.94 Q1499.58 1543.44 1499.58 1549.81 Q1499.58 1556.14 1502.19 1559.64 Q1504.83 1563.14 1509.54 1563.14 Q1514.28 1563.14 1516.89 1559.64 Q1519.54 1556.14 1519.54 1549.81 M1525.39 1563.62 Q1525.39 1572.72 1521.35 1577.15 Q1517.31 1581.6 1508.97 1581.6 Q1505.88 1581.6 1503.14 1581.13 Q1500.41 1580.68 1497.83 1579.72 L1497.83 1574.03 Q1500.41 1575.43 1502.92 1576.1 Q1505.44 1576.76 1508.05 1576.76 Q1513.81 1576.76 1516.67 1573.74 Q1519.54 1570.75 1519.54 1564.67 L1519.54 1561.77 Q1517.72 1564.92 1514.89 1566.48 Q1512.06 1568.04 1508.11 1568.04 Q1501.55 1568.04 1497.54 1563.05 Q1493.53 1558.05 1493.53 1549.81 Q1493.53 1541.53 1497.54 1536.53 Q1501.55 1531.54 1508.11 1531.54 Q1512.06 1531.54 1514.89 1533.1 Q1517.72 1534.66 1519.54 1537.81 L1519.54 1532.4 L1525.39 1532.4 L1525.39 1563.62 Z" fill="#000000" fill-rule="nonzero" fill-opacity="1" /><path clip-path="url(#clip020)" d="M1551.14 1518.52 L1551.14 1576.64 L1537.65 1576.64 L1537.65 1572.09 L1545.25 1572.09 L1545.25 1523.07 L1537.65 1523.07 L1537.65 1518.52 L1551.14 1518.52 Z" fill="#000000" fill-rule="nonzero" fill-opacity="1" /><polyline clip-path="url(#clip020)" style="stroke:#000000; stroke-linecap:round; stroke-linejoin:round; stroke-width:4; stroke-opacity:1; fill:none" points="398.649,1423.18 398.649,47.2441 "/>
<polyline clip-path="url(#clip020)" style="stroke:#000000; stroke-linecap:round; stroke-linejoin:round; stroke-width:4; stroke-opacity:1; fill:none" points="398.649,1384.24 417.546,1384.24 "/>
<polyline clip-path="url(#clip020)" style="stroke:#000000; stroke-linecap:round; stroke-linejoin:round; stroke-width:4; stroke-opacity:1; fill:none" points="398.649,1059.73 417.546,1059.73 "/>
<polyline clip-path="url(#clip020)" style="stroke:#000000; stroke-linecap:round; stroke-linejoin:round; stroke-width:4; stroke-opacity:1; fill:none" points="398.649,735.212 417.546,735.212 "/>
<polyline clip-path="url(#clip020)" style="stroke:#000000; stroke-linecap:round; stroke-linejoin:round; stroke-width:4; stroke-opacity:1; fill:none" points="398.649,410.699 417.546,410.699 "/>
<polyline clip-path="url(#clip020)" style="stroke:#000000; stroke-linecap:round; stroke-linejoin:round; stroke-width:4; stroke-opacity:1; fill:none" points="398.649,86.1857 417.546,86.1857 "/>
<path clip-path="url(#clip020)" d="M350.704 1370.04 Q347.093 1370.04 345.264 1373.6 Q343.459 1377.14 343.459 1384.27 Q343.459 1391.38 345.264 1394.94 Q347.093 1398.49 350.704 1398.49 Q354.338 1398.49 356.144 1394.94 Q357.973 1391.38 357.973 1384.27 Q357.973 1377.14 356.144 1373.6 Q354.338 1370.04 350.704 1370.04 M350.704 1366.33 Q356.514 1366.33 359.57 1370.94 Q362.649 1375.52 362.649 1384.27 Q362.649 1393 359.57 1397.61 Q356.514 1402.19 350.704 1402.19 Q344.894 1402.19 341.815 1397.61 Q338.76 1393 338.76 1384.27 Q338.76 1375.52 341.815 1370.94 Q344.894 1366.33 350.704 1366.33 Z" fill="#000000" fill-rule="nonzero" fill-opacity="1" /><path clip-path="url(#clip020)" d="M119.885 1079.52 L136.204 1079.52 L136.204 1083.45 L114.26 1083.45 L114.26 1079.52 Q116.922 1076.76 121.505 1072.13 Q126.112 1067.48 127.292 1066.14 Q129.538 1063.61 130.417 1061.88 Q131.32 1060.12 131.32 1058.43 Q131.32 1055.68 129.376 1053.94 Q127.455 1052.2 124.353 1052.2 Q122.154 1052.2 119.7 1052.97 Q117.269 1053.73 114.492 1055.28 L114.492 1050.56 Q117.316 1049.43 119.769 1048.85 Q122.223 1048.27 124.26 1048.27 Q129.63 1048.27 132.825 1050.95 Q136.019 1053.64 136.019 1058.13 Q136.019 1060.26 135.209 1062.18 Q134.422 1064.08 132.316 1066.67 Q131.737 1067.34 128.635 1070.56 Q125.533 1073.75 119.885 1079.52 Z" fill="#000000" fill-rule="nonzero" fill-opacity="1" /><path clip-path="url(#clip020)" d="M146.019 1077.57 L150.903 1077.57 L150.903 1083.45 L146.019 1083.45 L146.019 1077.57 Z" fill="#000000" fill-rule="nonzero" fill-opacity="1" /><path clip-path="url(#clip020)" d="M161.135 1048.89 L179.491 1048.89 L179.491 1052.83 L165.417 1052.83 L165.417 1061.3 Q166.436 1060.95 167.454 1060.79 Q168.473 1060.61 169.491 1060.61 Q175.278 1060.61 178.658 1063.78 Q182.038 1066.95 182.038 1072.36 Q182.038 1077.94 178.565 1081.05 Q175.093 1084.12 168.774 1084.12 Q166.598 1084.12 164.329 1083.75 Q162.084 1083.38 159.677 1082.64 L159.677 1077.94 Q161.76 1079.08 163.982 1079.63 Q166.204 1080.19 168.681 1080.19 Q172.686 1080.19 175.024 1078.08 Q177.362 1075.98 177.362 1072.36 Q177.362 1068.75 175.024 1066.65 Q172.686 1064.54 168.681 1064.54 Q166.806 1064.54 164.931 1064.96 Q163.079 1065.37 161.135 1066.25 L161.135 1048.89 Z" fill="#000000" fill-rule="nonzero" fill-opacity="1" /><path clip-path="url(#clip020)" d="M201.25 1051.97 Q197.639 1051.97 195.811 1055.54 Q194.005 1059.08 194.005 1066.21 Q194.005 1073.31 195.811 1076.88 Q197.639 1080.42 201.25 1080.42 Q204.885 1080.42 206.69 1076.88 Q208.519 1073.31 208.519 1066.21 Q208.519 1059.08 206.69 1055.54 Q204.885 1051.97 201.25 1051.97 M201.25 1048.27 Q207.061 1048.27 210.116 1052.87 Q213.195 1057.46 213.195 1066.21 Q213.195 1074.93 210.116 1079.54 Q207.061 1084.12 201.25 1084.12 Q195.44 1084.12 192.362 1079.54 Q189.306 1074.93 189.306 1066.21 Q189.306 1057.46 192.362 1052.87 Q195.44 1048.27 201.25 1048.27 Z" fill="#000000" fill-rule="nonzero" fill-opacity="1" /><path clip-path="url(#clip020)" d="M249.584 1057.99 L239.005 1068.61 L249.584 1079.19 L246.829 1081.99 L236.204 1071.37 L225.579 1081.99 L222.848 1079.19 L233.403 1068.61 L222.848 1057.99 L225.579 1055.19 L236.204 1065.81 L246.829 1055.19 L249.584 1057.99 Z" fill="#000000" fill-rule="nonzero" fill-opacity="1" /><path clip-path="url(#clip020)" d="M261.945 1079.52 L269.583 1079.52 L269.583 1053.15 L261.273 1054.82 L261.273 1050.56 L269.537 1048.89 L274.213 1048.89 L274.213 1079.52 L281.852 1079.52 L281.852 1083.45 L261.945 1083.45 L261.945 1079.52 Z" fill="#000000" fill-rule="nonzero" fill-opacity="1" /><path clip-path="url(#clip020)" d="M301.296 1051.97 Q297.685 1051.97 295.856 1055.54 Q294.051 1059.08 294.051 1066.21 Q294.051 1073.31 295.856 1076.88 Q297.685 1080.42 301.296 1080.42 Q304.93 1080.42 306.736 1076.88 Q308.565 1073.31 308.565 1066.21 Q308.565 1059.08 306.736 1055.54 Q304.93 1051.97 301.296 1051.97 M301.296 1048.27 Q307.106 1048.27 310.162 1052.87 Q313.241 1057.46 313.241 1066.21 Q313.241 1074.93 310.162 1079.54 Q307.106 1084.12 301.296 1084.12 Q295.486 1084.12 292.407 1079.54 Q289.352 1074.93 289.352 1066.21 Q289.352 1057.46 292.407 1052.87 Q295.486 1048.27 301.296 1048.27 Z" fill="#000000" fill-rule="nonzero" fill-opacity="1" /><path clip-path="url(#clip020)" d="M313.241 1042.37 L337.352 1042.37 L337.352 1045.57 L313.241 1045.57 L313.241 1042.37 Z" fill="#000000" fill-rule="nonzero" fill-opacity="1" /><path clip-path="url(#clip020)" d="M344.593 1027.96 L362.649 1027.96 L362.649 1029.58 L352.455 1056.04 L348.486 1056.04 L358.078 1031.16 L344.593 1031.16 L344.593 1027.96 Z" fill="#000000" fill-rule="nonzero" fill-opacity="1" /><path clip-path="url(#clip020)" d="M115.904 724.38 L134.26 724.38 L134.26 728.315 L120.186 728.315 L120.186 736.787 Q121.205 736.44 122.223 736.278 Q123.242 736.092 124.26 736.092 Q130.047 736.092 133.427 739.264 Q136.806 742.435 136.806 747.852 Q136.806 753.43 133.334 756.532 Q129.862 759.611 123.543 759.611 Q121.367 759.611 119.098 759.24 Q116.853 758.87 114.445 758.129 L114.445 753.43 Q116.529 754.565 118.751 755.12 Q120.973 755.676 123.45 755.676 Q127.455 755.676 129.792 753.569 Q132.13 751.463 132.13 747.852 Q132.13 744.241 129.792 742.134 Q127.455 740.028 123.45 740.028 Q121.575 740.028 119.7 740.444 Q117.848 740.861 115.904 741.741 L115.904 724.38 Z" fill="#000000" fill-rule="nonzero" fill-opacity="1" /><path clip-path="url(#clip020)" d="M146.019 753.06 L150.903 753.06 L150.903 758.94 L146.019 758.94 L146.019 753.06 Z" fill="#000000" fill-rule="nonzero" fill-opacity="1" /><path clip-path="url(#clip020)" d="M171.089 727.458 Q167.477 727.458 165.649 731.023 Q163.843 734.565 163.843 741.694 Q163.843 748.801 165.649 752.366 Q167.477 755.907 171.089 755.907 Q174.723 755.907 176.528 752.366 Q178.357 748.801 178.357 741.694 Q178.357 734.565 176.528 731.023 Q174.723 727.458 171.089 727.458 M171.089 723.755 Q176.899 723.755 179.954 728.361 Q183.033 732.944 183.033 741.694 Q183.033 750.421 179.954 755.028 Q176.899 759.611 171.089 759.611 Q165.278 759.611 162.2 755.028 Q159.144 750.421 159.144 741.694 Q159.144 732.944 162.2 728.361 Q165.278 723.755 171.089 723.755 Z" fill="#000000" fill-rule="nonzero" fill-opacity="1" /><path clip-path="url(#clip020)" d="M201.25 727.458 Q197.639 727.458 195.811 731.023 Q194.005 734.565 194.005 741.694 Q194.005 748.801 195.811 752.366 Q197.639 755.907 201.25 755.907 Q204.885 755.907 206.69 752.366 Q208.519 748.801 208.519 741.694 Q208.519 734.565 206.69 731.023 Q204.885 727.458 201.25 727.458 M201.25 723.755 Q207.061 723.755 210.116 728.361 Q213.195 732.944 213.195 741.694 Q213.195 750.421 210.116 755.028 Q207.061 759.611 201.25 759.611 Q195.44 759.611 192.362 755.028 Q189.306 750.421 189.306 741.694 Q189.306 732.944 192.362 728.361 Q195.44 723.755 201.25 723.755 Z" fill="#000000" fill-rule="nonzero" fill-opacity="1" /><path clip-path="url(#clip020)" d="M249.584 733.477 L239.005 744.102 L249.584 754.68 L246.829 757.481 L236.204 746.856 L225.579 757.481 L222.848 754.68 L233.403 744.102 L222.848 733.477 L225.579 730.676 L236.204 741.301 L246.829 730.676 L249.584 733.477 Z" fill="#000000" fill-rule="nonzero" fill-opacity="1" /><path clip-path="url(#clip020)" d="M261.945 755.004 L269.583 755.004 L269.583 728.639 L261.273 730.305 L261.273 726.046 L269.537 724.38 L274.213 724.38 L274.213 755.004 L281.852 755.004 L281.852 758.94 L261.945 758.94 L261.945 755.004 Z" fill="#000000" fill-rule="nonzero" fill-opacity="1" /><path clip-path="url(#clip020)" d="M301.296 727.458 Q297.685 727.458 295.856 731.023 Q294.051 734.565 294.051 741.694 Q294.051 748.801 295.856 752.366 Q297.685 755.907 301.296 755.907 Q304.93 755.907 306.736 752.366 Q308.565 748.801 308.565 741.694 Q308.565 734.565 306.736 731.023 Q304.93 727.458 301.296 727.458 M301.296 723.755 Q307.106 723.755 310.162 728.361 Q313.241 732.944 313.241 741.694 Q313.241 750.421 310.162 755.028 Q307.106 759.611 301.296 759.611 Q295.486 759.611 292.407 755.028 Q289.352 750.421 289.352 741.694 Q289.352 732.944 292.407 728.361 Q295.486 723.755 301.296 723.755 Z" fill="#000000" fill-rule="nonzero" fill-opacity="1" /><path clip-path="url(#clip020)" d="M313.241 717.856 L337.352 717.856 L337.352 721.053 L313.241 721.053 L313.241 717.856 Z" fill="#000000" fill-rule="nonzero" fill-opacity="1" /><path clip-path="url(#clip020)" d="M344.593 703.449 L362.649 703.449 L362.649 705.067 L352.455 731.529 L348.486 731.529 L358.078 706.646 L344.593 706.646 L344.593 703.449 Z" fill="#000000" fill-rule="nonzero" fill-opacity="1" /><path clip-path="url(#clip020)" d="M114.677 399.866 L136.899 399.866 L136.899 401.857 L124.353 434.426 L119.468 434.426 L131.274 403.802 L114.677 403.802 L114.677 399.866 Z" fill="#000000" fill-rule="nonzero" fill-opacity="1" /><path clip-path="url(#clip020)" d="M146.019 428.547 L150.903 428.547 L150.903 434.426 L146.019 434.426 L146.019 428.547 Z" fill="#000000" fill-rule="nonzero" fill-opacity="1" /><path clip-path="url(#clip020)" d="M161.135 399.866 L179.491 399.866 L179.491 403.802 L165.417 403.802 L165.417 412.274 Q166.436 411.927 167.454 411.765 Q168.473 411.579 169.491 411.579 Q175.278 411.579 178.658 414.751 Q182.038 417.922 182.038 423.339 Q182.038 428.917 178.565 432.019 Q175.093 435.098 168.774 435.098 Q166.598 435.098 164.329 434.727 Q162.084 434.357 159.677 433.616 L159.677 428.917 Q161.76 430.051 163.982 430.607 Q166.204 431.163 168.681 431.163 Q172.686 431.163 175.024 429.056 Q177.362 426.95 177.362 423.339 Q177.362 419.727 175.024 417.621 Q172.686 415.514 168.681 415.514 Q166.806 415.514 164.931 415.931 Q163.079 416.348 161.135 417.227 L161.135 399.866 Z" fill="#000000" fill-rule="nonzero" fill-opacity="1" /><path clip-path="url(#clip020)" d="M201.25 402.945 Q197.639 402.945 195.811 406.51 Q194.005 410.052 194.005 417.181 Q194.005 424.288 195.811 427.852 Q197.639 431.394 201.25 431.394 Q204.885 431.394 206.69 427.852 Q208.519 424.288 208.519 417.181 Q208.519 410.052 206.69 406.51 Q204.885 402.945 201.25 402.945 M201.25 399.241 Q207.061 399.241 210.116 403.848 Q213.195 408.431 213.195 417.181 Q213.195 425.908 210.116 430.514 Q207.061 435.098 201.25 435.098 Q195.44 435.098 192.362 430.514 Q189.306 425.908 189.306 417.181 Q189.306 408.431 192.362 403.848 Q195.44 399.241 201.25 399.241 Z" fill="#000000" fill-rule="nonzero" fill-opacity="1" /><path clip-path="url(#clip020)" d="M249.584 408.964 L239.005 419.589 L249.584 430.167 L246.829 432.968 L236.204 422.343 L225.579 432.968 L222.848 430.167 L233.403 419.589 L222.848 408.964 L225.579 406.163 L236.204 416.788 L246.829 406.163 L249.584 408.964 Z" fill="#000000" fill-rule="nonzero" fill-opacity="1" /><path clip-path="url(#clip020)" d="M261.945 430.491 L269.583 430.491 L269.583 404.126 L261.273 405.792 L261.273 401.533 L269.537 399.866 L274.213 399.866 L274.213 430.491 L281.852 430.491 L281.852 434.426 L261.945 434.426 L261.945 430.491 Z" fill="#000000" fill-rule="nonzero" fill-opacity="1" /><path clip-path="url(#clip020)" d="M301.296 402.945 Q297.685 402.945 295.856 406.51 Q294.051 410.052 294.051 417.181 Q294.051 424.288 295.856 427.852 Q297.685 431.394 301.296 431.394 Q304.93 431.394 306.736 427.852 Q308.565 424.288 308.565 417.181 Q308.565 410.052 306.736 406.51 Q304.93 402.945 301.296 402.945 M301.296 399.241 Q307.106 399.241 310.162 403.848 Q313.241 408.431 313.241 417.181 Q313.241 425.908 310.162 430.514 Q307.106 435.098 301.296 435.098 Q295.486 435.098 292.407 430.514 Q289.352 425.908 289.352 417.181 Q289.352 408.431 292.407 403.848 Q295.486 399.241 301.296 399.241 Z" fill="#000000" fill-rule="nonzero" fill-opacity="1" /><path clip-path="url(#clip020)" d="M313.241 393.343 L337.352 393.343 L337.352 396.54 L313.241 396.54 L313.241 393.343 Z" fill="#000000" fill-rule="nonzero" fill-opacity="1" /><path clip-path="url(#clip020)" d="M344.593 378.936 L362.649 378.936 L362.649 380.553 L352.455 407.016 L348.486 407.016 L358.078 382.133 L344.593 382.133 L344.593 378.936 Z" fill="#000000" fill-rule="nonzero" fill-opacity="1" /><path clip-path="url(#clip020)" d="M115.802 105.978 L123.441 105.978 L123.441 79.6125 L115.131 81.2792 L115.131 77.0199 L123.395 75.3533 L128.071 75.3533 L128.071 105.978 L135.71 105.978 L135.71 109.913 L115.802 109.913 L115.802 105.978 Z" fill="#000000" fill-rule="nonzero" fill-opacity="1" /><path clip-path="url(#clip020)" d="M145.154 104.034 L150.038 104.034 L150.038 109.913 L145.154 109.913 L145.154 104.034 Z" fill="#000000" fill-rule="nonzero" fill-opacity="1" /><path clip-path="url(#clip020)" d="M170.223 78.432 Q166.612 78.432 164.784 81.9968 Q162.978 85.5384 162.978 92.668 Q162.978 99.7744 164.784 103.339 Q166.612 106.881 170.223 106.881 Q173.858 106.881 175.663 103.339 Q177.492 99.7744 177.492 92.668 Q177.492 85.5384 175.663 81.9968 Q173.858 78.432 170.223 78.432 M170.223 74.7283 Q176.034 74.7283 179.089 79.3347 Q182.168 83.918 182.168 92.668 Q182.168 101.395 179.089 106.001 Q176.034 110.585 170.223 110.585 Q164.413 110.585 161.335 106.001 Q158.279 101.395 158.279 92.668 Q158.279 83.918 161.335 79.3347 Q164.413 74.7283 170.223 74.7283 Z" fill="#000000" fill-rule="nonzero" fill-opacity="1" /><path clip-path="url(#clip020)" d="M200.385 78.432 Q196.774 78.432 194.945 81.9968 Q193.14 85.5384 193.14 92.668 Q193.14 99.7744 194.945 103.339 Q196.774 106.881 200.385 106.881 Q204.02 106.881 205.825 103.339 Q207.654 99.7744 207.654 92.668 Q207.654 85.5384 205.825 81.9968 Q204.02 78.432 200.385 78.432 M200.385 74.7283 Q206.195 74.7283 209.251 79.3347 Q212.33 83.918 212.33 92.668 Q212.33 101.395 209.251 106.001 Q206.195 110.585 200.385 110.585 Q194.575 110.585 191.496 106.001 Q188.441 101.395 188.441 92.668 Q188.441 83.918 191.496 79.3347 Q194.575 74.7283 200.385 74.7283 Z" fill="#000000" fill-rule="nonzero" fill-opacity="1" /><path clip-path="url(#clip020)" d="M248.718 84.4504 L238.14 95.0754 L248.718 105.654 L245.964 108.455 L235.339 97.83 L224.714 108.455 L221.982 105.654 L232.538 95.0754 L221.982 84.4504 L224.714 81.6495 L235.339 92.2745 L245.964 81.6495 L248.718 84.4504 Z" fill="#000000" fill-rule="nonzero" fill-opacity="1" /><path clip-path="url(#clip020)" d="M261.079 105.978 L268.718 105.978 L268.718 79.6125 L260.408 81.2792 L260.408 77.0199 L268.672 75.3533 L273.348 75.3533 L273.348 105.978 L280.987 105.978 L280.987 109.913 L261.079 109.913 L261.079 105.978 Z" fill="#000000" fill-rule="nonzero" fill-opacity="1" /><path clip-path="url(#clip020)" d="M300.431 78.432 Q296.82 78.432 294.991 81.9968 Q293.186 85.5384 293.186 92.668 Q293.186 99.7744 294.991 103.339 Q296.82 106.881 300.431 106.881 Q304.065 106.881 305.871 103.339 Q307.7 99.7744 307.7 92.668 Q307.7 85.5384 305.871 81.9968 Q304.065 78.432 300.431 78.432 M300.431 74.7283 Q306.241 74.7283 309.297 79.3347 Q312.375 83.918 312.375 92.668 Q312.375 101.395 309.297 106.001 Q306.241 110.585 300.431 110.585 Q294.621 110.585 291.542 106.001 Q288.487 101.395 288.487 92.668 Q288.487 83.918 291.542 79.3347 Q294.621 74.7283 300.431 74.7283 Z" fill="#000000" fill-rule="nonzero" fill-opacity="1" /><path clip-path="url(#clip020)" d="M312.375 68.8296 L336.487 68.8296 L336.487 72.0269 L312.375 72.0269 L312.375 68.8296 Z" fill="#000000" fill-rule="nonzero" fill-opacity="1" /><path clip-path="url(#clip020)" d="M353.282 66.9488 Q350.724 66.9488 349.22 68.698 Q347.734 70.4471 347.734 73.494 Q347.734 76.522 349.22 78.2899 Q350.724 80.0391 353.282 80.0391 Q355.84 80.0391 357.326 78.2899 Q358.831 76.522 358.831 73.494 Q358.831 70.4471 357.326 68.698 Q355.84 66.9488 353.282 66.9488 M360.824 55.0435 L360.824 58.5042 Q359.395 57.8271 357.928 57.4697 Q356.48 57.1124 355.05 57.1124 Q351.289 57.1124 349.295 59.6514 Q347.32 62.1905 347.038 67.325 Q348.148 65.6887 349.822 64.8236 Q351.496 63.9396 353.508 63.9396 Q357.74 63.9396 360.185 66.5163 Q362.649 69.0741 362.649 73.494 Q362.649 77.8197 360.091 80.434 Q357.533 83.0483 353.282 83.0483 Q348.411 83.0483 345.834 79.3244 Q343.258 75.5816 343.258 68.4911 Q343.258 61.8331 346.417 57.8835 Q349.577 53.9151 354.9 53.9151 Q356.329 53.9151 357.777 54.1972 Q359.244 54.4793 360.824 55.0435 Z" fill="#000000" fill-rule="nonzero" fill-opacity="1" /><path clip-path="url(#clip020)" d="M46.0847 1124.32 Q46.0847 1131.41 47.7079 1134.15 Q49.3312 1136.89 53.2461 1136.89 Q56.3653 1136.89 58.2114 1134.85 Q60.0256 1132.78 60.0256 1129.25 Q60.0256 1124.38 56.5881 1121.45 Q53.1188 1118.49 47.3897 1118.49 L46.0847 1118.49 L46.0847 1124.32 M43.6657 1112.63 L64.0042 1112.63 L64.0042 1118.49 L58.5933 1118.49 Q61.8398 1120.5 63.3994 1123.49 Q64.9272 1126.48 64.9272 1130.81 Q64.9272 1136.28 61.8716 1139.53 Q58.7843 1142.74 53.6281 1142.74 Q47.6125 1142.74 44.5569 1138.73 Q41.5014 1134.69 41.5014 1126.7 L41.5014 1118.49 L40.9285 1118.49 Q36.8862 1118.49 34.6901 1121.16 Q32.4621 1123.81 32.4621 1128.61 Q32.4621 1131.67 33.1941 1134.56 Q33.9262 1137.46 35.3903 1140.13 L29.9795 1140.13 Q28.7381 1136.92 28.1334 1133.9 Q27.4968 1130.87 27.4968 1128.01 Q27.4968 1120.27 31.5072 1116.45 Q35.5176 1112.63 43.6657 1112.63 Z" fill="#000000" fill-rule="nonzero" fill-opacity="1" /><path clip-path="url(#clip020)" d="M49.9359 1101.18 L28.3562 1101.18 L28.3562 1095.32 L49.7131 1095.32 Q54.7739 1095.32 57.3202 1093.35 Q59.8346 1091.37 59.8346 1087.43 Q59.8346 1082.68 56.8109 1079.95 Q53.7872 1077.18 48.5673 1077.18 L28.3562 1077.18 L28.3562 1071.32 L64.0042 1071.32 L64.0042 1077.18 L58.5296 1077.18 Q61.7762 1079.31 63.3676 1082.14 Q64.9272 1084.94 64.9272 1088.67 Q64.9272 1094.81 61.1078 1097.99 Q57.2883 1101.18 49.9359 1101.18 M27.4968 1086.44 L27.4968 1086.44 Z" fill="#000000" fill-rule="nonzero" fill-opacity="1" /><path clip-path="url(#clip020)" d="M18.2347 1053.47 L28.3562 1053.47 L28.3562 1041.4 L32.9077 1041.4 L32.9077 1053.47 L52.2594 1053.47 Q56.6199 1053.47 57.8613 1052.29 Q59.1026 1051.08 59.1026 1047.42 L59.1026 1041.4 L64.0042 1041.4 L64.0042 1047.42 Q64.0042 1054.2 61.4897 1056.78 Q58.9434 1059.35 52.2594 1059.35 L32.9077 1059.35 L32.9077 1063.65 L28.3562 1063.65 L28.3562 1059.35 L18.2347 1059.35 L18.2347 1053.47 Z" fill="#000000" fill-rule="nonzero" fill-opacity="1" /><path clip-path="url(#clip020)" d="M32.4621 1019.89 Q32.4621 1024.6 36.1542 1027.33 Q39.8145 1030.07 46.212 1030.07 Q52.6095 1030.07 56.3017 1027.37 Q59.9619 1024.63 59.9619 1019.89 Q59.9619 1015.21 56.2698 1012.47 Q52.5777 1009.73 46.212 1009.73 Q39.8781 1009.73 36.186 1012.47 Q32.4621 1015.21 32.4621 1019.89 M27.4968 1019.89 Q27.4968 1012.25 32.4621 1007.89 Q37.4273 1003.53 46.212 1003.53 Q54.9649 1003.53 59.9619 1007.89 Q64.9272 1012.25 64.9272 1019.89 Q64.9272 1027.56 59.9619 1031.92 Q54.9649 1036.25 46.212 1036.25 Q37.4273 1036.25 32.4621 1031.92 Q27.4968 1027.56 27.4968 1019.89 Z" fill="#000000" fill-rule="nonzero" fill-opacity="1" /><path clip-path="url(#clip020)" d="M29.7248 968.165 L35.1993 968.165 Q33.8307 970.648 33.1623 973.162 Q32.4621 975.645 32.4621 978.191 Q32.4621 983.888 36.0905 987.039 Q39.6872 990.19 46.212 990.19 Q52.7369 990.19 56.3653 987.039 Q59.9619 983.888 59.9619 978.191 Q59.9619 975.645 59.2935 973.162 Q58.5933 970.648 57.2247 968.165 L62.6355 968.165 Q63.7814 970.616 64.3543 973.258 Q64.9272 975.868 64.9272 978.828 Q64.9272 986.88 59.8664 991.623 Q54.8057 996.365 46.212 996.365 Q37.491 996.365 32.4939 991.591 Q27.4968 986.785 27.4968 978.446 Q27.4968 975.74 28.0697 973.162 Q28.6108 970.584 29.7248 968.165 Z" fill="#000000" fill-rule="nonzero" fill-opacity="1" /><path clip-path="url(#clip020)" d="M32.4621 944.166 Q32.4621 948.877 36.1542 951.614 Q39.8145 954.351 46.212 954.351 Q52.6095 954.351 56.3017 951.646 Q59.9619 948.909 59.9619 944.166 Q59.9619 939.487 56.2698 936.75 Q52.5777 934.013 46.212 934.013 Q39.8781 934.013 36.186 936.75 Q32.4621 939.487 32.4621 944.166 M27.4968 944.166 Q27.4968 936.527 32.4621 932.167 Q37.4273 927.806 46.212 927.806 Q54.9649 927.806 59.9619 932.167 Q64.9272 936.527 64.9272 944.166 Q64.9272 951.837 59.9619 956.197 Q54.9649 960.526 46.212 960.526 Q37.4273 960.526 32.4621 956.197 Q27.4968 951.837 27.4968 944.166 Z" fill="#000000" fill-rule="nonzero" fill-opacity="1" /><path clip-path="url(#clip020)" d="M42.4881 888.466 L64.0042 888.466 L64.0042 894.323 L42.679 894.323 Q37.6183 894.323 35.1038 896.296 Q32.5894 898.27 32.5894 902.216 Q32.5894 906.959 35.6131 909.696 Q38.6368 912.433 43.8567 912.433 L64.0042 912.433 L64.0042 918.322 L28.3562 918.322 L28.3562 912.433 L33.8944 912.433 Q30.6797 910.333 29.0883 907.5 Q27.4968 904.635 27.4968 900.911 Q27.4968 894.768 31.3163 891.617 Q35.1038 888.466 42.4881 888.466 Z" fill="#000000" fill-rule="nonzero" fill-opacity="1" /><path clip-path="url(#clip020)" d="M28.3562 880.987 L28.3562 874.78 L58.275 863.64 L28.3562 852.5 L28.3562 846.294 L64.0042 859.662 L64.0042 867.619 L28.3562 880.987 Z" fill="#000000" fill-rule="nonzero" fill-opacity="1" /><path clip-path="url(#clip020)" d="M44.7161 807.717 L47.5806 807.717 L47.5806 834.644 Q53.6281 834.262 56.8109 831.016 Q59.9619 827.738 59.9619 821.913 Q59.9619 818.539 59.1344 815.388 Q58.3069 812.205 56.6518 809.086 L62.1899 809.086 Q63.5267 812.237 64.227 815.547 Q64.9272 818.857 64.9272 822.263 Q64.9272 830.793 59.9619 835.79 Q54.9967 840.755 46.5303 840.755 Q37.7774 840.755 32.6531 836.045 Q27.4968 831.302 27.4968 823.282 Q27.4968 816.088 32.1438 811.919 Q36.7589 807.717 44.7161 807.717 M42.9973 813.574 Q38.1912 813.637 35.3266 816.279 Q32.4621 818.889 32.4621 823.218 Q32.4621 828.119 35.2312 831.08 Q38.0002 834.008 43.0292 834.453 L42.9973 813.574 Z" fill="#000000" fill-rule="nonzero" fill-opacity="1" /><path clip-path="url(#clip020)" d="M33.8307 777.448 Q33.2578 778.435 33.0032 779.613 Q32.7167 780.759 32.7167 782.159 Q32.7167 787.124 35.9632 789.798 Q39.1779 792.44 45.2253 792.44 L64.0042 792.44 L64.0042 798.328 L28.3562 798.328 L28.3562 792.44 L33.8944 792.44 Q30.6479 790.594 29.0883 787.634 Q27.4968 784.674 27.4968 780.44 Q27.4968 779.836 27.5923 779.104 Q27.656 778.371 27.8151 777.48 L33.8307 777.448 Z" fill="#000000" fill-rule="nonzero" fill-opacity="1" /><path clip-path="url(#clip020)" d="M29.4065 748.58 L34.9447 748.58 Q33.6716 751.063 33.035 753.736 Q32.3984 756.41 32.3984 759.274 Q32.3984 763.635 33.7352 765.831 Q35.072 767.995 37.7456 767.995 Q39.7826 767.995 40.9603 766.436 Q42.1061 764.876 43.1565 760.166 L43.6021 758.16 Q44.9389 751.922 47.3897 749.312 Q49.8086 746.67 54.1691 746.67 Q59.1344 746.67 62.0308 750.617 Q64.9272 754.532 64.9272 761.407 Q64.9272 764.271 64.3543 767.391 Q63.8132 770.478 62.6992 773.915 L56.6518 773.915 Q58.3387 770.669 59.198 767.518 Q60.0256 764.367 60.0256 761.28 Q60.0256 757.142 58.6251 754.914 Q57.1929 752.686 54.6147 752.686 Q52.2276 752.686 50.9545 754.309 Q49.6813 755.901 48.5037 761.343 L48.0262 763.38 Q46.8804 768.823 44.5251 771.242 Q42.138 773.661 38.0002 773.661 Q32.9713 773.661 30.2341 770.096 Q27.4968 766.531 27.4968 759.975 Q27.4968 756.728 27.9743 753.863 Q28.4517 750.999 29.4065 748.58 Z" fill="#000000" fill-rule="nonzero" fill-opacity="1" /><path clip-path="url(#clip020)" d="M28.3562 737.344 L28.3562 731.488 L64.0042 731.488 L64.0042 737.344 L28.3562 737.344 M14.479 737.344 L14.479 731.488 L21.895 731.488 L21.895 737.344 L14.479 737.344 Z" fill="#000000" fill-rule="nonzero" fill-opacity="1" /><path clip-path="url(#clip020)" d="M32.4621 705.42 Q32.4621 710.131 36.1542 712.868 Q39.8145 715.606 46.212 715.606 Q52.6095 715.606 56.3017 712.9 Q59.9619 710.163 59.9619 705.42 Q59.9619 700.742 56.2698 698.004 Q52.5777 695.267 46.212 695.267 Q39.8781 695.267 36.186 698.004 Q32.4621 700.742 32.4621 705.42 M27.4968 705.42 Q27.4968 697.782 32.4621 693.421 Q37.4273 689.061 46.212 689.061 Q54.9649 689.061 59.9619 693.421 Q64.9272 697.782 64.9272 705.42 Q64.9272 713.091 59.9619 717.452 Q54.9649 721.78 46.212 721.78 Q37.4273 721.78 32.4621 717.452 Q27.4968 713.091 27.4968 705.42 Z" fill="#000000" fill-rule="nonzero" fill-opacity="1" /><path clip-path="url(#clip020)" d="M42.4881 649.721 L64.0042 649.721 L64.0042 655.577 L42.679 655.577 Q37.6183 655.577 35.1038 657.55 Q32.5894 659.524 32.5894 663.47 Q32.5894 668.213 35.6131 670.95 Q38.6368 673.687 43.8567 673.687 L64.0042 673.687 L64.0042 679.576 L28.3562 679.576 L28.3562 673.687 L33.8944 673.687 Q30.6797 671.587 29.0883 668.754 Q27.4968 665.889 27.4968 662.165 Q27.4968 656.023 31.3163 652.872 Q35.1038 649.721 42.4881 649.721 Z" fill="#000000" fill-rule="nonzero" fill-opacity="1" /><path clip-path="url(#clip020)" d="M33.8307 596.662 Q33.2578 597.649 33.0032 598.827 Q32.7167 599.973 32.7167 601.373 Q32.7167 606.338 35.9632 609.012 Q39.1779 611.654 45.2253 611.654 L64.0042 611.654 L64.0042 617.542 L28.3562 617.542 L28.3562 611.654 L33.8944 611.654 Q30.6479 609.808 29.0883 606.847 Q27.4968 603.887 27.4968 599.654 Q27.4968 599.05 27.5923 598.317 Q27.656 597.585 27.8151 596.694 L33.8307 596.662 Z" fill="#000000" fill-rule="nonzero" fill-opacity="1" /><path clip-path="url(#clip020)" d="M46.0847 574.319 Q46.0847 581.416 47.7079 584.154 Q49.3312 586.891 53.2461 586.891 Q56.3653 586.891 58.2114 584.854 Q60.0256 582.785 60.0256 579.252 Q60.0256 574.382 56.5881 571.454 Q53.1188 568.494 47.3897 568.494 L46.0847 568.494 L46.0847 574.319 M43.6657 562.638 L64.0042 562.638 L64.0042 568.494 L58.5933 568.494 Q61.8398 570.499 63.3994 573.491 Q64.9272 576.483 64.9272 580.812 Q64.9272 586.286 61.8716 589.533 Q58.7843 592.747 53.6281 592.747 Q47.6125 592.747 44.5569 588.737 Q41.5014 584.695 41.5014 576.706 L41.5014 568.494 L40.9285 568.494 Q36.8862 568.494 34.6901 571.168 Q32.4621 573.809 32.4621 578.616 Q32.4621 581.671 33.1941 584.568 Q33.9262 587.464 35.3903 590.138 L29.9795 590.138 Q28.7381 586.923 28.1334 583.899 Q27.4968 580.875 27.4968 578.011 Q27.4968 570.277 31.5072 566.457 Q35.5176 562.638 43.6657 562.638 Z" fill="#000000" fill-rule="nonzero" fill-opacity="1" /><path clip-path="url(#clip020)" d="M18.2347 544.782 L28.3562 544.782 L28.3562 532.719 L32.9077 532.719 L32.9077 544.782 L52.2594 544.782 Q56.6199 544.782 57.8613 543.604 Q59.1026 542.395 59.1026 538.734 L59.1026 532.719 L64.0042 532.719 L64.0042 538.734 Q64.0042 545.514 61.4897 548.092 Q58.9434 550.67 52.2594 550.67 L32.9077 550.67 L32.9077 554.967 L28.3562 554.967 L28.3562 550.67 L18.2347 550.67 L18.2347 544.782 Z" fill="#000000" fill-rule="nonzero" fill-opacity="1" /><path clip-path="url(#clip020)" d="M44.7161 494.525 L47.5806 494.525 L47.5806 521.452 Q53.6281 521.07 56.8109 517.823 Q59.9619 514.545 59.9619 508.72 Q59.9619 505.346 59.1344 502.195 Q58.3069 499.012 56.6518 495.893 L62.1899 495.893 Q63.5267 499.044 64.227 502.354 Q64.9272 505.665 64.9272 509.07 Q64.9272 517.6 59.9619 522.597 Q54.9967 527.563 46.5303 527.563 Q37.7774 527.563 32.6531 522.852 Q27.4968 518.11 27.4968 510.089 Q27.4968 502.896 32.1438 498.726 Q36.7589 494.525 44.7161 494.525 M42.9973 500.381 Q38.1912 500.445 35.3266 503.086 Q32.4621 505.696 32.4621 510.025 Q32.4621 514.927 35.2312 517.887 Q38.0002 520.815 43.0292 521.261 L42.9973 500.381 Z" fill="#000000" fill-rule="nonzero" fill-opacity="1" /><path clip-path="url(#clip020)" d="M14.479 464.733 L14.479 451.238 L19.0304 451.238 L19.0304 458.877 L68.0464 458.877 L68.0464 451.238 L72.5979 451.238 L72.5979 464.733 L14.479 464.733 Z" fill="#000000" fill-rule="nonzero" fill-opacity="1" /><path clip-path="url(#clip020)" d="M58.5933 436.819 L58.5933 426.316 L22.3406 426.316 L24.6323 437.742 L18.7758 437.742 L16.4842 426.38 L16.4842 419.95 L58.5933 419.95 L58.5933 409.447 L64.0042 409.447 L64.0042 436.819 L58.5933 436.819 Z" fill="#000000" fill-rule="nonzero" fill-opacity="1" /><path clip-path="url(#clip020)" d="M16.4842 386.881 L16.4842 381.47 L70.0516 398.02 L70.0516 403.431 L16.4842 386.881 Z" fill="#000000" fill-rule="nonzero" fill-opacity="1" /><path clip-path="url(#clip020)" d="M29.4065 352.601 L34.9447 352.601 Q33.6716 355.084 33.035 357.757 Q32.3984 360.431 32.3984 363.296 Q32.3984 367.656 33.7352 369.852 Q35.072 372.017 37.7456 372.017 Q39.7826 372.017 40.9603 370.457 Q42.1061 368.897 43.1565 364.187 L43.6021 362.182 Q44.9389 355.943 47.3897 353.333 Q49.8086 350.691 54.1691 350.691 Q59.1344 350.691 62.0308 354.638 Q64.9272 358.553 64.9272 365.428 Q64.9272 368.293 64.3543 371.412 Q63.8132 374.499 62.6992 377.937 L56.6518 377.937 Q58.3387 374.69 59.198 371.539 Q60.0256 368.388 60.0256 365.301 Q60.0256 361.163 58.6251 358.935 Q57.1929 356.707 54.6147 356.707 Q52.2276 356.707 50.9545 358.33 Q49.6813 359.922 48.5037 365.364 L48.0262 367.401 Q46.8804 372.844 44.5251 375.263 Q42.138 377.682 38.0002 377.682 Q32.9713 377.682 30.2341 374.117 Q27.4968 370.552 27.4968 363.996 Q27.4968 360.749 27.9743 357.885 Q28.4517 355.02 29.4065 352.601 Z" fill="#000000" fill-rule="nonzero" fill-opacity="1" /><path clip-path="url(#clip020)" d="M14.479 327.679 L72.5979 327.679 L72.5979 341.175 L68.0464 341.175 L68.0464 333.568 L19.0304 333.568 L19.0304 341.175 L14.479 341.175 L14.479 327.679 Z" fill="#000000" fill-rule="nonzero" fill-opacity="1" /><polyline clip-path="url(#clip022)" style="stroke:#009af9; stroke-linecap:round; stroke-linejoin:round; stroke-width:8; stroke-opacity:1; fill:none" points="453.954,1384.24 455.799,1384.24 457.644,1384.24 459.49,1384.24 461.335,1384.24 463.18,1384.24 465.026,1384.24 466.871,1384.24 468.716,1384.24 470.562,1384.24 472.407,1384.24 474.252,1384.24 476.098,1384.24 477.943,1384.24 479.788,1384.24 481.634,1384.24 483.479,1384.24 485.324,1384.24 487.17,1384.24 489.015,1384.24 490.86,1384.24 492.706,1384.24 494.551,1384.24 496.396,1384.24 498.242,1384.24 500.087,1384.24 501.932,1384.24 503.778,1384.24 505.623,1384.24 507.468,1384.24 509.314,1384.24 511.159,1384.24 513.004,1384.24 514.85,1384.24 516.695,1384.24 518.541,1384.24 520.386,1384.24 522.231,1384.24 524.077,1384.24 525.922,1384.24 527.767,1384.24 529.613,1384.24 531.458,1384.24 533.303,1384.24 535.149,1384.24 536.994,1384.24 538.839,1384.24 540.685,1384.24 542.53,1384.24 544.375,1384.24 546.221,1384.24 548.066,1384.24 549.911,1384.24 551.757,1384.24 553.602,1384.24 555.447,1384.24 557.293,1384.24 559.138,1384.24 560.983,1384.24 562.829,1384.24 564.674,1384.24 566.519,1384.24 568.365,1384.24 570.21,1384.24 572.055,1384.24 573.901,1384.24 575.746,1384.24 577.591,1384.24 579.437,1384.24 581.282,1384.24 583.128,1384.24 584.973,1384.24 586.818,1384.24 588.664,1384.24 590.509,1384.24 592.354,1384.24 594.2,1384.24 596.045,1384.24 597.89,1384.24 599.736,1384.24 601.581,1384.24 603.426,1384.24 605.272,1384.24 607.117,1384.24 608.962,1384.24 610.808,1384.24 612.653,1384.24 614.498,1384.24 616.344,1384.24 618.189,1384.24 620.034,1384.24 621.88,1384.24 623.725,1384.24 625.57,1384.24 627.416,1384.24 629.261,1384.24 631.106,1384.24 632.952,1384.24 634.797,1384.24 636.642,1384.24 638.488,1384.24 640.333,1384.24 642.178,1384.24 644.024,1384.24 645.869,1384.24 647.715,1384.24 649.56,1384.24 651.405,1384.24 653.251,1384.24 655.096,1384.24 656.941,1384.24 658.787,1384.24 660.632,1384.24 662.477,1384.24 664.323,1384.24 666.168,1384.24 668.013,1384.24 669.859,1384.24 671.704,1384.24 673.549,1384.24 675.395,1384.24 677.24,1384.24 679.085,1384.24 680.931,1384.24 682.776,1384.24 684.621,1384.24 686.467,1384.24 688.312,1384.24 690.157,1384.24 692.003,1384.24 693.848,1384.24 695.693,1384.24 697.539,1384.24 699.384,1384.24 701.229,1384.24 703.075,1384.24 704.92,1384.24 706.765,1384.24 708.611,1384.24 710.456,1384.24 712.302,1384.24 714.147,1384.24 715.992,1384.24 717.838,1384.24 719.683,1384.24 721.528,1384.24 723.374,1384.24 725.219,1384.24 727.064,1384.24 728.91,1384.24 730.755,1384.24 732.6,1384.24 734.446,1384.24 736.291,1384.24 738.136,1384.24 739.982,1384.24 741.827,1384.24 743.672,1384.24 745.518,1384.24 747.363,1384.24 749.208,1384.24 751.054,1384.24 752.899,1384.24 754.744,1384.24 756.59,1384.24 758.435,1384.24 760.28,1384.24 762.126,1384.24 763.971,1384.24 765.816,1384.24 767.662,1384.24 769.507,1384.24 771.352,1384.24 773.198,1384.24 775.043,1384.24 776.889,1384.24 778.734,1384.24 780.579,1384.24 782.425,1384.24 784.27,1384.24 786.115,1384.24 787.961,1384.24 789.806,1384.24 791.651,1384.24 793.497,1384.24 795.342,1384.24 797.187,1384.24 799.033,1384.24 800.878,1384.24 802.723,1384.24 804.569,1384.24 806.414,1384.24 808.259,1384.24 810.105,1384.24 811.95,1384.24 813.795,1384.24 815.641,1384.24 817.486,1384.24 819.331,1384.24 821.177,1384.24 823.022,1384.24 824.867,1384.24 826.713,1384.24 828.558,1384.24 830.403,1384.24 832.249,1384.24 834.094,1384.24 835.939,1384.24 837.785,1384.24 839.63,1384.24 841.475,1384.24 843.321,1384.24 845.166,1384.24 847.012,1384.24 848.857,1384.24 850.702,1384.24 852.548,1384.24 854.393,1384.24 856.238,1384.24 858.084,1384.24 859.929,1384.24 861.774,1384.24 863.62,1384.24 865.465,1384.24 867.31,1384.24 869.156,1384.24 871.001,1384.24 872.846,1384.24 874.692,1384.24 876.537,1384.24 878.382,1384.24 880.228,1384.24 882.073,1384.24 883.918,1384.24 885.764,1384.24 887.609,1384.24 889.454,1384.24 891.3,1384.24 893.145,1384.24 894.99,1384.24 896.836,1384.24 898.681,1384.24 900.526,1384.24 902.372,1384.24 904.217,1384.24 906.062,1384.24 907.908,1384.24 909.753,1384.24 911.599,1384.24 913.444,1384.24 915.289,1384.24 917.135,1384.24 918.98,1384.24 920.825,1384.24 922.671,1384.24 924.516,1384.24 926.361,1384.24 928.207,1384.24 930.052,1384.24 931.897,1384.24 933.743,1384.24 935.588,1384.24 937.433,1384.24 939.279,1384.24 941.124,1384.24 942.969,1384.24 944.815,1384.24 946.66,1384.24 948.505,1384.24 950.351,1384.24 952.196,1384.24 954.041,1384.24 955.887,1384.24 957.732,1384.24 959.577,1384.24 961.423,1384.24 963.268,1384.24 965.113,1384.24 966.959,1384.24 968.804,1384.24 970.649,1384.24 972.495,1384.24 974.34,1384.24 976.186,1384.24 978.031,1384.24 979.876,1384.24 981.722,1384.24 983.567,1384.24 985.412,1384.24 987.258,1384.24 989.103,1384.24 990.948,1384.24 992.794,1384.24 994.639,1384.24 996.484,1384.24 998.33,1384.24 1000.17,1384.24 1002.02,1384.24 1003.87,1384.24 1005.71,1384.24 1007.56,1384.24 1009.4,1384.24 1011.25,1384.24 1013.09,1384.24 1014.94,1384.24 1016.78,1384.24 1018.63,1384.24 1020.47,1384.24 1022.32,1384.24 1024.16,1384.24 1026.01,1384.24 1027.86,1384.24 1029.7,1384.24 1031.55,1384.24 1033.39,1384.24 1035.24,1384.24 1037.08,1384.24 1038.93,1384.24 1040.77,1384.24 1042.62,1384.24 1044.46,1384.24 1046.31,1384.24 1048.15,1384.24 1050,1384.24 1051.84,1384.24 1053.69,1384.24 1055.54,1384.24 1057.38,1384.24 1059.23,1384.24 1061.07,1384.24 1062.92,1384.24 1064.76,1384.24 1066.61,1384.24 1068.45,1384.23 1070.3,1382.28 1072.14,1380.33 1073.99,1378.38 1075.83,1376.43 1077.68,1374.48 1079.52,1372.54 1081.37,1370.59 1083.22,1368.64 1085.06,1366.69 1086.91,1364.74 1088.75,1362.79 1090.6,1360.84 1092.44,1358.89 1094.29,1356.94 1096.13,1354.99 1097.98,1353.05 1099.82,1351.1 1101.67,1349.15 1103.51,1347.2 1105.36,1345.25 1107.2,1343.3 1109.05,1341.35 1110.9,1339.4 1112.74,1337.45 1114.59,1335.5 1116.43,1333.56 1118.28,1331.61 1120.12,1329.66 1121.97,1327.71 1123.81,1325.76 1125.66,1323.81 1127.5,1321.86 1129.35,1319.91 1131.19,1317.96 1133.04,1316.01 1134.89,1314.07 1136.73,1312.12 1138.58,1310.17 1140.42,1308.22 1142.27,1306.27 1144.11,1304.32 1145.96,1302.37 1147.8,1300.42 1149.65,1298.47 1151.49,1296.52 1153.34,1294.57 1155.18,1292.63 1157.03,1290.68 1158.87,1288.73 1160.72,1286.78 1162.57,1284.83 1164.41,1282.88 1166.26,1280.93 1168.1,1278.98 1169.95,1277.03 1171.79,1275.08 1173.64,1273.14 1175.48,1271.19 1177.33,1269.24 1179.17,1267.29 1181.02,1265.34 1182.86,1263.39 1184.71,1261.44 1186.55,1259.49 1188.4,1257.54 1190.25,1255.59 1192.09,1253.65 1193.94,1251.7 1195.78,1249.75 1197.63,1247.8 1199.47,1245.85 1201.32,1243.9 1203.16,1241.95 1205.01,1240 1206.85,1238.05 1208.7,1236.1 1210.54,1234.16 1212.39,1232.21 1214.23,1230.26 1216.08,1228.31 1217.93,1226.36 1219.77,1224.41 1221.62,1222.46 1223.46,1220.51 1225.31,1218.56 1227.15,1216.61 1229,1214.67 1230.84,1212.72 1232.69,1210.77 1234.53,1208.82 1236.38,1206.87 1238.22,1204.92 1240.07,1202.97 1241.91,1201.02 1243.76,1199.07 1245.61,1197.12 1247.45,1195.18 1249.3,1193.23 1251.14,1191.28 1252.99,1189.33 1254.83,1187.38 1256.68,1185.43 1258.52,1183.48 1260.37,1181.53 1262.21,1179.58 1264.06,1177.63 1265.9,1175.69 1267.75,1173.74 1269.6,1171.79 1271.44,1169.84 1273.29,1167.89 1275.13,1165.94 1276.98,1163.99 1278.82,1162.04 1280.67,1160.09 1282.51,1158.14 1284.36,1156.19 1286.2,1154.25 1288.05,1152.3 1289.89,1150.35 1291.74,1148.4 1293.58,1146.45 1295.43,1144.5 1297.28,1142.55 1299.12,1140.6 1300.97,1138.65 1302.81,1136.7 1304.66,1134.76 1306.5,1132.81 1308.35,1130.86 1310.19,1128.91 1312.04,1126.96 1313.88,1125.01 1315.73,1123.06 1317.57,1121.11 1319.42,1119.16 1321.26,1117.21 1323.11,1115.27 1324.96,1113.32 1326.8,1111.37 1328.65,1109.42 1330.49,1107.47 1332.34,1105.52 1334.18,1103.57 1336.03,1101.62 1337.87,1099.67 1339.72,1097.72 1341.56,1095.78 1343.41,1093.83 1345.25,1091.88 1347.1,1089.93 1348.94,1087.98 1350.79,1086.03 1352.64,1084.08 1354.48,1082.13 1356.33,1080.18 1358.17,1078.23 1360.02,1076.29 1361.86,1074.34 1363.71,1072.39 1365.55,1070.44 1367.4,1068.49 1369.24,1066.54 1371.09,1064.59 1372.93,1062.64 1374.78,1060.69 1376.62,1058.74 1378.47,1056.8 1380.32,1054.85 1382.16,1052.9 1384.01,1050.95 1385.85,1049 1387.7,1047.05 1389.54,1045.1 1391.39,1043.15 1393.23,1041.2 1395.08,1039.25 1396.92,1037.3 1398.77,1035.36 1400.61,1033.41 1402.46,1031.46 1404.31,1029.51 1406.15,1027.56 1408,1025.61 1409.84,1023.66 1411.69,1021.71 1413.53,1019.76 1415.38,1017.81 1417.22,1015.87 1419.07,1013.92 1420.91,1011.97 1422.76,1010.02 1424.6,1008.07 1426.45,1006.12 1428.29,1004.17 1430.14,1002.22 1431.99,1000.27 1433.83,998.325 1435.68,996.376 1437.52,994.427 1439.37,992.478 1441.21,990.529 1443.06,988.58 1444.9,986.631 1446.75,984.682 1448.59,982.733 1450.44,980.784 1452.28,978.835 1454.13,976.885 1455.97,974.936 1457.82,972.987 1459.67,971.038 1461.51,969.089 1463.36,967.14 1465.2,965.191 1467.05,963.242 1468.89,961.293 1470.74,959.344 1472.58,957.395 1474.43,955.446 1476.27,953.497 1478.12,951.548 1479.96,949.599 1481.81,947.65 1483.65,945.701 1485.5,943.752 1487.35,941.803 1489.19,939.854 1491.04,937.905 1492.88,935.956 1494.73,934.007 1496.57,932.058 1498.42,930.109 1500.26,928.16 1502.11,926.211 1503.95,924.262 1505.8,922.313 1507.64,920.364 1509.49,918.415 1511.33,916.466 1513.18,914.517 1515.03,912.568 1516.87,910.619 1518.72,908.67 1520.56,906.721 1522.41,904.772 1524.25,902.823 1526.1,900.874 1527.94,898.925 1529.79,896.976 1531.63,895.027 1533.48,893.078 1535.32,891.129 1537.17,889.18 1539.02,887.231 1540.86,885.282 1542.71,883.333 1544.55,881.384 1546.4,879.435 1548.24,877.486 1550.09,875.537 1551.93,873.588 1553.78,871.639 1555.62,869.69 1557.47,867.741 1559.31,865.792 1561.16,863.843 1563,861.894 1564.85,859.945 1566.7,857.996 1568.54,856.047 1570.39,854.098 1572.23,852.149 1574.08,850.2 1575.92,848.251 1577.77,846.301 1579.61,844.352 1581.46,842.403 1583.3,840.454 1585.15,838.505 1586.99,836.556 1588.84,834.607 1590.68,832.658 1592.53,830.709 1594.38,828.76 1596.22,826.811 1598.07,824.862 1599.91,822.913 1601.76,820.964 1603.6,819.015 1605.45,817.066 1607.29,815.117 1609.14,813.168 1610.98,811.219 1612.83,809.27 1614.67,807.321 1616.52,805.372 1618.36,803.423 1620.21,801.474 1622.06,799.525 1623.9,797.576 1625.75,795.627 1627.59,793.678 1629.44,791.729 1631.28,789.78 1633.13,787.831 1634.97,785.882 1636.82,783.933 1638.66,781.984 1640.51,780.035 1642.35,778.086 1644.2,776.137 1646.04,774.188 1647.89,772.239 1649.74,770.29 1651.58,768.341 1653.43,766.392 1655.27,764.443 1657.12,762.494 1658.96,760.545 1660.81,758.596 1662.65,756.647 1664.5,754.698 1666.34,752.749 1668.19,750.8 1670.03,748.851 1671.88,746.902 1673.73,744.953 1675.57,743.004 1677.42,741.055 1679.26,739.106 1681.11,737.157 1682.95,735.208 1684.8,733.259 1686.64,731.31 1688.49,729.361 1690.33,727.412 1692.18,725.463 1694.02,723.514 1695.87,721.565 1697.71,719.616 1699.56,717.667 1701.41,715.717 1703.25,713.768 1705.1,711.819 1706.94,709.87 1708.79,707.921 1710.63,705.972 1712.48,704.023 1714.32,702.074 1716.17,700.125 1718.01,698.176 1719.86,696.227 1721.7,694.278 1723.55,692.329 1725.39,690.38 1727.24,688.431 1729.09,686.482 1730.93,684.533 1732.78,682.584 1734.62,680.635 1736.47,678.686 1738.31,676.737 1740.16,674.788 1742,672.839 1743.85,670.89 1745.69,668.941 1747.54,666.992 1749.38,665.043 1751.23,663.094 1753.07,661.145 1754.92,659.196 1756.77,657.247 1758.61,655.298 1760.46,653.349 1762.3,651.4 1764.15,649.451 1765.99,647.502 1767.84,645.553 1769.68,643.604 1771.53,641.655 1773.37,639.706 1775.22,637.757 1777.06,635.808 1778.91,633.859 1780.75,631.91 1782.6,629.961 1784.45,628.012 1786.29,626.063 1788.14,624.114 1789.98,622.165 1791.83,620.216 1793.67,618.267 1795.52,616.318 1797.36,614.369 1799.21,612.42 1801.05,610.471 1802.9,608.522 1804.74,606.573 1806.59,604.624 1808.44,602.675 1810.28,600.726 1812.13,598.777 1813.97,596.828 1815.82,594.879 1817.66,592.93 1819.51,590.981 1821.35,589.032 1823.2,587.083 1825.04,585.133 1826.89,583.184 1828.73,581.235 1830.58,579.286 1832.42,577.337 1834.27,575.388 1836.12,573.439 1837.96,571.49 1839.81,569.541 1841.65,567.592 1843.5,565.643 1845.34,563.694 1847.19,561.745 1849.03,559.796 1850.88,557.847 1852.72,555.898 1854.57,553.949 1856.41,552 1858.26,550.051 1860.1,548.102 1861.95,546.153 1863.8,544.204 1865.64,542.255 1867.49,540.306 1869.33,538.357 1871.18,536.408 1873.02,534.459 1874.87,532.51 1876.71,530.561 1878.56,528.612 1880.4,526.663 1882.25,524.714 1884.09,522.765 1885.94,520.816 1887.78,518.867 1889.63,516.918 1891.48,514.969 1893.32,513.02 1895.17,511.071 1897.01,509.122 1898.86,507.173 1900.7,505.224 1902.55,503.275 1904.39,501.326 1906.24,499.377 1908.08,497.428 1909.93,495.479 1911.77,493.53 1913.62,491.581 1915.47,489.632 1917.31,487.683 1919.16,485.734 1921,483.785 1922.85,481.836 1924.69,479.887 1926.54,477.938 1928.38,475.989 1930.23,474.04 1932.07,472.091 1933.92,470.142 1935.76,468.193 1937.61,466.244 1939.45,464.295 1941.3,462.346 1943.15,460.397 1944.99,458.448 1946.84,456.499 1948.68,454.549 1950.53,452.6 1952.37,450.651 1954.22,448.702 1956.06,446.753 1957.91,444.804 1959.75,442.855 1961.6,440.906 1963.44,438.957 1965.29,437.008 1967.13,435.059 1968.98,433.11 1970.83,431.161 1972.67,429.212 1974.52,427.263 1976.36,425.314 1978.21,423.365 1980.05,421.416 1981.9,419.467 1983.74,417.518 1985.59,415.569 1987.43,413.62 1989.28,411.671 1991.12,409.722 1992.97,407.773 1994.81,405.824 1996.66,403.875 1998.51,401.926 2000.35,399.977 2002.2,398.028 2004.04,396.079 2005.89,394.13 2007.73,392.181 2009.58,390.232 2011.42,388.283 2013.27,386.334 2015.11,384.385 2016.96,382.436 2018.8,380.487 2020.65,378.538 2022.49,376.589 2024.34,374.64 2026.19,372.691 2028.03,370.742 2029.88,368.793 2031.72,366.844 2033.57,364.895 2035.41,362.946 2037.26,360.997 2039.1,359.048 2040.95,357.099 2042.79,355.15 2044.64,353.201 2046.48,351.252 2048.33,349.303 2050.18,347.354 2052.02,345.405 2053.87,343.456 2055.71,341.507 2057.56,339.558 2059.4,337.609 2061.25,335.66 2063.09,333.711 2064.94,331.762 2066.78,329.813 2068.63,327.864 2070.47,325.915 2072.32,323.965 2074.16,322.016 2076.01,320.067 2077.86,318.118 2079.7,316.169 2081.55,314.22 2083.39,312.271 2085.24,310.322 2087.08,308.373 2088.93,306.424 2090.77,304.475 2092.62,302.526 2094.46,300.577 2096.31,298.628 2098.15,296.679 2100,294.73 2101.84,292.781 2103.69,290.832 2105.54,288.883 2107.38,286.934 2109.23,284.985 2111.07,283.036 2112.92,281.087 2114.76,279.138 2116.61,277.189 2118.45,275.24 2120.3,273.291 2122.14,271.342 2123.99,269.393 2125.83,267.444 2127.68,265.495 2129.52,263.546 2131.37,261.597 2133.22,259.648 2135.06,257.699 2136.91,255.75 2138.75,253.801 2140.6,251.852 2142.44,249.903 2144.29,247.954 2146.13,246.005 2147.98,244.056 2149.82,242.107 2151.67,240.158 2153.51,238.209 2155.36,236.26 2157.2,234.311 2159.05,232.362 2160.9,230.413 2162.74,228.464 2164.59,226.515 2166.43,224.566 2168.28,222.617 2170.12,220.668 2171.97,218.719 2173.81,216.77 2175.66,214.821 2177.5,212.872 2179.35,210.923 2181.19,208.974 2183.04,207.025 2184.89,205.076 2186.73,203.127 2188.58,201.178 2190.42,199.229 2192.27,197.28 2194.11,195.331 2195.96,193.381 2197.8,191.432 2199.65,189.483 2201.49,187.534 2203.34,185.585 2205.18,183.636 2207.03,181.687 2208.87,179.738 2210.72,177.789 2212.57,175.84 2214.41,173.891 2216.26,171.942 2218.1,169.993 2219.95,168.044 2221.79,166.095 2223.64,164.146 2225.48,162.197 2227.33,160.248 2229.17,158.299 2231.02,156.35 2232.86,154.401 2234.71,152.452 2236.55,150.503 2238.4,148.554 2240.25,146.605 2242.09,144.656 2243.94,142.707 2245.78,140.758 2247.63,138.809 2249.47,136.86 2251.32,134.911 2253.16,132.962 2255.01,131.013 2256.85,129.064 2258.7,127.115 2260.54,125.166 2262.39,123.217 2264.23,121.268 2266.08,119.319 2267.93,117.37 2269.77,115.421 2271.62,113.472 2273.46,111.523 2275.31,109.574 2277.15,107.625 2279,105.676 2280.84,103.727 2282.69,101.778 2284.53,99.8288 2286.38,97.8798 2288.22,95.9307 2290.07,93.9817 2291.91,92.0327 2293.76,90.0837 2295.61,88.1347 2297.45,86.1857 "/>
<polyline clip-path="url(#clip022)" style="stroke:#e26f46; stroke-linecap:round; stroke-linejoin:round; stroke-width:8; stroke-opacity:1; fill:none" points="453.954,1384.24 455.799,1384.24 457.644,1384.24 459.49,1384.24 461.335,1384.24 463.18,1384.24 465.026,1384.24 466.871,1384.24 468.716,1384.24 470.562,1384.24 472.407,1384.24 474.252,1384.24 476.098,1384.24 477.943,1384.24 479.788,1384.24 481.634,1384.24 483.479,1384.24 485.324,1384.24 487.17,1384.24 489.015,1384.24 490.86,1384.24 492.706,1384.24 494.551,1384.24 496.396,1384.24 498.242,1384.24 500.087,1384.23 501.932,1384.23 503.778,1384.23 505.623,1384.23 507.468,1384.23 509.314,1384.23 511.159,1384.23 513.004,1384.23 514.85,1384.23 516.695,1384.23 518.541,1384.23 520.386,1384.23 522.231,1384.23 524.077,1384.23 525.922,1384.23 527.767,1384.23 529.613,1384.23 531.458,1384.23 533.303,1384.23 535.149,1384.23 536.994,1384.23 538.839,1384.23 540.685,1384.23 542.53,1384.23 544.375,1384.23 546.221,1384.23 548.066,1384.23 549.911,1384.23 551.757,1384.23 553.602,1384.23 555.447,1384.23 557.293,1384.23 559.138,1384.22 560.983,1384.22 562.829,1384.22 564.674,1384.22 566.519,1384.22 568.365,1384.22 570.21,1384.22 572.055,1384.22 573.901,1384.22 575.746,1384.22 577.591,1384.22 579.437,1384.22 581.282,1384.22 583.128,1384.22 584.973,1384.22 586.818,1384.22 588.664,1384.21 590.509,1384.21 592.354,1384.21 594.2,1384.21 596.045,1384.21 597.89,1384.21 599.736,1384.21 601.581,1384.21 603.426,1384.21 605.272,1384.21 607.117,1384.21 608.962,1384.2 610.808,1384.2 612.653,1384.2 614.498,1384.2 616.344,1384.2 618.189,1384.2 620.034,1384.2 621.88,1384.2 623.725,1384.19 625.57,1384.19 627.416,1384.19 629.261,1384.19 631.106,1384.19 632.952,1384.19 634.797,1384.19 636.642,1384.18 638.488,1384.18 640.333,1384.18 642.178,1384.18 644.024,1384.18 645.869,1384.17 647.715,1384.17 649.56,1384.17 651.405,1384.17 653.251,1384.17 655.096,1384.16 656.941,1384.16 658.787,1384.16 660.632,1384.16 662.477,1384.15 664.323,1384.15 666.168,1384.15 668.013,1384.15 669.859,1384.14 671.704,1384.14 673.549,1384.14 675.395,1384.13 677.24,1384.13 679.085,1384.13 680.931,1384.12 682.776,1384.12 684.621,1384.12 686.467,1384.11 688.312,1384.11 690.157,1384.1 692.003,1384.1 693.848,1384.1 695.693,1384.09 697.539,1384.09 699.384,1384.08 701.229,1384.08 703.075,1384.07 704.92,1384.07 706.765,1384.06 708.611,1384.06 710.456,1384.05 712.302,1384.04 714.147,1384.04 715.992,1384.03 717.838,1384.03 719.683,1384.02 721.528,1384.01 723.374,1384.01 725.219,1384 727.064,1383.99 728.91,1383.98 730.755,1383.98 732.6,1383.97 734.446,1383.96 736.291,1383.95 738.136,1383.94 739.982,1383.93 741.827,1383.92 743.672,1383.91 745.518,1383.9 747.363,1383.89 749.208,1383.88 751.054,1383.87 752.899,1383.86 754.744,1383.85 756.59,1383.84 758.435,1383.82 760.28,1383.81 762.126,1383.8 763.971,1383.79 765.816,1383.77 767.662,1383.76 769.507,1383.74 771.352,1383.73 773.198,1383.71 775.043,1383.7 776.889,1383.68 778.734,1383.66 780.579,1383.64 782.425,1383.63 784.27,1383.61 786.115,1383.59 787.961,1383.57 789.806,1383.55 791.651,1383.53 793.497,1383.51 795.342,1383.48 797.187,1383.46 799.033,1383.44 800.878,1383.41 802.723,1383.39 804.569,1383.36 806.414,1383.33 808.259,1383.31 810.105,1383.28 811.95,1383.25 813.795,1383.22 815.641,1383.19 817.486,1383.16 819.331,1383.12 821.177,1383.09 823.022,1383.06 824.867,1383.02 826.713,1382.98 828.558,1382.95 830.403,1382.91 832.249,1382.87 834.094,1382.82 835.939,1382.78 837.785,1382.74 839.63,1382.69 841.475,1382.65 843.321,1382.6 845.166,1382.55 847.012,1382.5 848.857,1382.45 850.702,1382.39 852.548,1382.34 854.393,1382.28 856.238,1382.22 858.084,1382.16 859.929,1382.1 861.774,1382.03 863.62,1381.97 865.465,1381.9 867.31,1381.83 869.156,1381.76 871.001,1381.68 872.846,1381.6 874.692,1381.53 876.537,1381.44 878.382,1381.36 880.228,1381.28 882.073,1381.19 883.918,1381.1 885.764,1381 887.609,1380.91 889.454,1380.81 891.3,1380.71 893.145,1380.6 894.99,1380.49 896.836,1380.38 898.681,1380.27 900.526,1380.15 902.372,1380.03 904.217,1379.91 906.062,1379.78 907.908,1379.65 909.753,1379.51 911.599,1379.37 913.444,1379.23 915.289,1379.08 917.135,1378.93 918.98,1378.78 920.825,1378.62 922.671,1378.45 924.516,1378.28 926.361,1378.11 928.207,1377.93 930.052,1377.75 931.897,1377.56 933.743,1377.37 935.588,1377.17 937.433,1376.97 939.279,1376.76 941.124,1376.54 942.969,1376.32 944.815,1376.09 946.66,1375.86 948.505,1375.62 950.351,1375.38 952.196,1375.12 954.041,1374.87 955.887,1374.6 957.732,1374.33 959.577,1374.05 961.423,1373.76 963.268,1373.47 965.113,1373.16 966.959,1372.85 968.804,1372.54 970.649,1372.21 972.495,1371.88 974.34,1371.54 976.186,1371.18 978.031,1370.82 979.876,1370.46 981.722,1370.08 983.567,1369.69 985.412,1369.3 987.258,1368.89 989.103,1368.48 990.948,1368.05 992.794,1367.61 994.639,1367.17 996.484,1366.71 998.33,1366.25 1000.17,1365.77 1002.02,1365.28 1003.87,1364.78 1005.71,1364.27 1007.56,1363.75 1009.4,1363.22 1011.25,1362.67 1013.09,1362.11 1014.94,1361.54 1016.78,1360.96 1018.63,1360.37 1020.47,1359.76 1022.32,1359.14 1024.16,1358.51 1026.01,1357.87 1027.86,1357.21 1029.7,1356.54 1031.55,1355.86 1033.39,1355.16 1035.24,1354.45 1037.08,1353.72 1038.93,1352.99 1040.77,1352.23 1042.62,1351.47 1044.46,1350.69 1046.31,1349.9 1048.15,1349.09 1050,1348.27 1051.84,1347.43 1053.69,1346.58 1055.54,1345.71 1057.38,1344.83 1059.23,1343.94 1061.07,1343.03 1062.92,1342.11 1064.76,1341.17 1066.61,1340.22 1068.45,1339.25 1070.3,1338.27 1072.14,1337.27 1073.99,1336.26 1075.83,1335.23 1077.68,1334.19 1079.52,1333.14 1081.37,1332.07 1083.22,1330.98 1085.06,1329.89 1086.91,1328.77 1088.75,1327.65 1090.6,1326.51 1092.44,1325.35 1094.29,1324.18 1096.13,1323 1097.98,1321.8 1099.82,1320.59 1101.67,1319.36 1103.51,1318.13 1105.36,1316.87 1107.2,1315.61 1109.05,1314.33 1110.9,1313.04 1112.74,1311.73 1114.59,1310.41 1116.43,1309.08 1118.28,1307.74 1120.12,1306.39 1121.97,1305.02 1123.81,1303.64 1125.66,1302.25 1127.5,1300.84 1129.35,1299.43 1131.19,1298 1133.04,1296.56 1134.89,1295.11 1136.73,1293.65 1138.58,1292.18 1140.42,1290.7 1142.27,1289.2 1144.11,1287.7 1145.96,1286.18 1147.8,1284.66 1149.65,1283.13 1151.49,1281.58 1153.34,1280.03 1155.18,1278.47 1157.03,1276.9 1158.87,1275.32 1160.72,1273.73 1162.57,1272.13 1164.41,1270.52 1166.26,1268.91 1168.1,1267.28 1169.95,1265.65 1171.79,1264.01 1173.64,1262.36 1175.48,1260.71 1177.33,1259.05 1179.17,1257.38 1181.02,1255.7 1182.86,1254.02 1184.71,1252.33 1186.55,1250.63 1188.4,1248.93 1190.25,1247.22 1192.09,1245.5 1193.94,1243.78 1195.78,1242.05 1197.63,1240.32 1199.47,1238.58 1201.32,1236.83 1203.16,1235.08 1205.01,1233.33 1206.85,1231.56 1208.7,1229.8 1210.54,1228.03 1212.39,1226.25 1214.23,1224.47 1216.08,1222.69 1217.93,1220.9 1219.77,1219.1 1221.62,1217.3 1223.46,1215.5 1225.31,1213.7 1227.15,1211.89 1229,1210.07 1230.84,1208.25 1232.69,1206.43 1234.53,1204.61 1236.38,1202.78 1238.22,1200.95 1240.07,1199.11 1241.91,1197.28 1243.76,1195.43 1245.61,1193.59 1247.45,1191.74 1249.3,1189.89 1251.14,1188.04 1252.99,1186.18 1254.83,1184.33 1256.68,1182.47 1258.52,1180.6 1260.37,1178.74 1262.21,1176.87 1264.06,1175 1265.9,1173.13 1267.75,1171.25 1269.6,1169.37 1271.44,1167.5 1273.29,1165.61 1275.13,1163.73 1276.98,1161.85 1278.82,1159.96 1280.67,1158.07 1282.51,1156.18 1284.36,1154.29 1286.2,1152.4 1288.05,1150.5 1289.89,1148.6 1291.74,1146.71 1293.58,1144.81 1295.43,1142.91 1297.28,1141 1299.12,1139.1 1300.97,1137.19 1302.81,1135.29 1304.66,1133.38 1306.5,1131.47 1308.35,1129.56 1310.19,1127.65 1312.04,1125.74 1313.88,1123.83 1315.73,1121.91 1317.57,1120 1319.42,1118.08 1321.26,1116.16 1323.11,1114.24 1324.96,1112.33 1326.8,1110.41 1328.65,1108.48 1330.49,1106.56 1332.34,1104.64 1334.18,1102.72 1336.03,1100.79 1337.87,1098.87 1339.72,1096.94 1341.56,1095.02 1343.41,1093.09 1345.25,1091.16 1347.1,1089.24 1348.94,1087.31 1350.79,1085.38 1352.64,1083.45 1354.48,1081.52 1356.33,1079.59 1358.17,1077.66 1360.02,1075.72 1361.86,1073.79 1363.71,1071.86 1365.55,1069.92 1367.4,1067.99 1369.24,1066.06 1371.09,1064.12 1372.93,1062.19 1374.78,1060.25 1376.62,1058.31 1378.47,1056.38 1380.32,1054.44 1382.16,1052.5 1384.01,1050.57 1385.85,1048.63 1387.7,1046.69 1389.54,1044.75 1391.39,1042.81 1393.23,1040.88 1395.08,1038.94 1396.92,1037 1398.77,1035.06 1400.61,1033.12 1402.46,1031.18 1404.31,1029.23 1406.15,1027.29 1408,1025.35 1409.84,1023.41 1411.69,1021.47 1413.53,1019.53 1415.38,1017.59 1417.22,1015.64 1419.07,1013.7 1420.91,1011.76 1422.76,1009.82 1424.6,1007.87 1426.45,1005.93 1428.29,1003.99 1430.14,1002.04 1431.99,1000.1 1433.83,998.155 1435.68,996.211 1437.52,994.267 1439.37,992.323 1441.21,990.378 1443.06,988.434 1444.9,986.489 1446.75,984.544 1448.59,982.599 1450.44,980.654 1452.28,978.709 1454.13,976.764 1455.97,974.818 1457.82,972.873 1459.67,970.927 1461.51,968.981 1463.36,967.035 1465.2,965.09 1467.05,963.144 1468.89,961.197 1470.74,959.251 1472.58,957.305 1474.43,955.359 1476.27,953.412 1478.12,951.466 1479.96,949.519 1481.81,947.573 1483.65,945.626 1485.5,943.679 1487.35,941.732 1489.19,939.785 1491.04,937.838 1492.88,935.891 1494.73,933.944 1496.57,931.997 1498.42,930.05 1500.26,928.103 1502.11,926.155 1503.95,924.208 1505.8,922.26 1507.64,920.313 1509.49,918.365 1511.33,916.418 1513.18,914.47 1515.03,912.523 1516.87,910.575 1518.72,908.627 1520.56,906.68 1522.41,904.732 1524.25,902.784 1526.1,900.836 1527.94,898.888 1529.79,896.94 1531.63,894.992 1533.48,893.044 1535.32,891.096 1537.17,889.148 1539.02,887.2 1540.86,885.252 1542.71,883.304 1544.55,881.356 1546.4,879.408 1548.24,877.459 1550.09,875.511 1551.93,873.563 1553.78,871.615 1555.62,869.666 1557.47,867.718 1559.31,865.77 1561.16,863.821 1563,861.873 1564.85,859.924 1566.7,857.976 1568.54,856.028 1570.39,854.079 1572.23,852.131 1574.08,850.182 1575.92,848.234 1577.77,846.285 1579.61,844.337 1581.46,842.388 1583.3,840.44 1585.15,838.491 1586.99,836.542 1588.84,834.594 1590.68,832.645 1592.53,830.697 1594.38,828.748 1596.22,826.799 1598.07,824.851 1599.91,822.902 1601.76,820.953 1603.6,819.005 1605.45,817.056 1607.29,815.107 1609.14,813.158 1610.98,811.21 1612.83,809.261 1614.67,807.312 1616.52,805.363 1618.36,803.415 1620.21,801.466 1622.06,799.517 1623.9,797.568 1625.75,795.62 1627.59,793.671 1629.44,791.722 1631.28,789.773 1633.13,787.824 1634.97,785.876 1636.82,783.927 1638.66,781.978 1640.51,780.029 1642.35,778.08 1644.2,776.131 1646.04,774.183 1647.89,772.234 1649.74,770.285 1651.58,768.336 1653.43,766.387 1655.27,764.438 1657.12,762.489 1658.96,760.54 1660.81,758.592 1662.65,756.643 1664.5,754.694 1666.34,752.745 1668.19,750.796 1670.03,748.847 1671.88,746.898 1673.73,744.949 1675.57,743 1677.42,741.051 1679.26,739.103 1681.11,737.154 1682.95,735.205 1684.8,733.256 1686.64,731.307 1688.49,729.358 1690.33,727.409 1692.18,725.46 1694.02,723.511 1695.87,721.562 1697.71,719.613 1699.56,717.664 1701.41,715.715 1703.25,713.766 1705.1,711.817 1706.94,709.868 1708.79,707.919 1710.63,705.971 1712.48,704.022 1714.32,702.073 1716.17,700.124 1718.01,698.175 1719.86,696.226 1721.7,694.277 1723.55,692.328 1725.39,690.379 1727.24,688.43 1729.09,686.481 1730.93,684.532 1732.78,682.583 1734.62,680.634 1736.47,678.685 1738.31,676.736 1740.16,674.787 1742,672.838 1743.85,670.889 1745.69,668.94 1747.54,666.991 1749.38,665.042 1751.23,663.093 1753.07,661.144 1754.92,659.195 1756.77,657.246 1758.61,655.297 1760.46,653.348 1762.3,651.399 1764.15,649.45 1765.99,647.501 1767.84,645.552 1769.68,643.603 1771.53,641.654 1773.37,639.705 1775.22,637.756 1777.06,635.807 1778.91,633.858 1780.75,631.909 1782.6,629.96 1784.45,628.011 1786.29,626.062 1788.14,624.113 1789.98,622.164 1791.83,620.215 1793.67,618.266 1795.52,616.317 1797.36,614.368 1799.21,612.419 1801.05,610.47 1802.9,608.521 1804.74,606.572 1806.59,604.623 1808.44,602.674 1810.28,600.725 1812.13,598.776 1813.97,596.827 1815.82,594.878 1817.66,592.929 1819.51,590.98 1821.35,589.031 1823.2,587.082 1825.04,585.133 1826.89,583.184 1828.73,581.235 1830.58,579.286 1832.42,577.337 1834.27,575.388 1836.12,573.439 1837.96,571.49 1839.81,569.541 1841.65,567.592 1843.5,565.643 1845.34,563.694 1847.19,561.745 1849.03,559.796 1850.88,557.847 1852.72,555.898 1854.57,553.949 1856.41,552 1858.26,550.051 1860.1,548.102 1861.95,546.153 1863.8,544.204 1865.64,542.255 1867.49,540.306 1869.33,538.357 1871.18,536.408 1873.02,534.459 1874.87,532.51 1876.71,530.561 1878.56,528.612 1880.4,526.663 1882.25,524.714 1884.09,522.765 1885.94,520.816 1887.78,518.867 1889.63,516.918 1891.48,514.969 1893.32,513.02 1895.17,511.071 1897.01,509.122 1898.86,507.173 1900.7,505.224 1902.55,503.275 1904.39,501.326 1906.24,499.377 1908.08,497.428 1909.93,495.479 1911.77,493.53 1913.62,491.581 1915.47,489.632 1917.31,487.683 1919.16,485.734 1921,483.785 1922.85,481.836 1924.69,479.887 1926.54,477.938 1928.38,475.989 1930.23,474.04 1932.07,472.091 1933.92,470.142 1935.76,468.193 1937.61,466.244 1939.45,464.295 1941.3,462.346 1943.15,460.396 1944.99,458.447 1946.84,456.498 1948.68,454.549 1950.53,452.6 1952.37,450.651 1954.22,448.702 1956.06,446.753 1957.91,444.804 1959.75,442.855 1961.6,440.906 1963.44,438.957 1965.29,437.008 1967.13,435.059 1968.98,433.11 1970.83,431.161 1972.67,429.212 1974.52,427.263 1976.36,425.314 1978.21,423.365 1980.05,421.416 1981.9,419.467 1983.74,417.518 1985.59,415.569 1987.43,413.62 1989.28,411.671 1991.12,409.722 1992.97,407.773 1994.81,405.824 1996.66,403.875 1998.51,401.926 2000.35,399.977 2002.2,398.028 2004.04,396.079 2005.89,394.13 2007.73,392.181 2009.58,390.232 2011.42,388.283 2013.27,386.334 2015.11,384.385 2016.96,382.436 2018.8,380.487 2020.65,378.538 2022.49,376.589 2024.34,374.64 2026.19,372.691 2028.03,370.742 2029.88,368.793 2031.72,366.844 2033.57,364.895 2035.41,362.946 2037.26,360.997 2039.1,359.048 2040.95,357.099 2042.79,355.15 2044.64,353.201 2046.48,351.252 2048.33,349.303 2050.18,347.354 2052.02,345.405 2053.87,343.456 2055.71,341.507 2057.56,339.558 2059.4,337.609 2061.25,335.66 2063.09,333.711 2064.94,331.762 2066.78,329.813 2068.63,327.864 2070.47,325.915 2072.32,323.965 2074.16,322.016 2076.01,320.067 2077.86,318.118 2079.7,316.169 2081.55,314.22 2083.39,312.271 2085.24,310.322 2087.08,308.373 2088.93,306.424 2090.77,304.475 2092.62,302.526 2094.46,300.577 2096.31,298.628 2098.15,296.679 2100,294.73 2101.84,292.781 2103.69,290.832 2105.54,288.883 2107.38,286.934 2109.23,284.985 2111.07,283.036 2112.92,281.087 2114.76,279.138 2116.61,277.189 2118.45,275.24 2120.3,273.291 2122.14,271.342 2123.99,269.393 2125.83,267.444 2127.68,265.495 2129.52,263.546 2131.37,261.597 2133.22,259.648 2135.06,257.699 2136.91,255.75 2138.75,253.801 2140.6,251.852 2142.44,249.903 2144.29,247.954 2146.13,246.005 2147.98,244.056 2149.82,242.107 2151.67,240.158 2153.51,238.209 2155.36,236.26 2157.2,234.311 2159.05,232.362 2160.9,230.413 2162.74,228.464 2164.59,226.515 2166.43,224.566 2168.28,222.617 2170.12,220.668 2171.97,218.719 2173.81,216.77 2175.66,214.821 2177.5,212.872 2179.35,210.923 2181.19,208.974 2183.04,207.025 2184.89,205.076 2186.73,203.127 2188.58,201.178 2190.42,199.229 2192.27,197.28 2194.11,195.331 2195.96,193.381 2197.8,191.432 2199.65,189.483 2201.49,187.534 2203.34,185.585 2205.18,183.636 2207.03,181.687 2208.87,179.738 2210.72,177.789 2212.57,175.84 2214.41,173.891 2216.26,171.942 2218.1,169.993 2219.95,168.044 2221.79,166.095 2223.64,164.146 2225.48,162.197 2227.33,160.248 2229.17,158.299 2231.02,156.35 2232.86,154.401 2234.71,152.452 2236.55,150.503 2238.4,148.554 2240.25,146.605 2242.09,144.656 2243.94,142.707 2245.78,140.758 2247.63,138.809 2249.47,136.86 2251.32,134.911 2253.16,132.962 2255.01,131.013 2256.85,129.064 2258.7,127.115 2260.54,125.166 2262.39,123.217 2264.23,121.268 2266.08,119.319 2267.93,117.37 2269.77,115.421 2271.62,113.472 2273.46,111.523 2275.31,109.574 2277.15,107.625 2279,105.676 2280.84,103.727 2282.69,101.778 2284.53,99.8288 2286.38,97.8798 2288.22,95.9307 2290.07,93.9817 2291.91,92.0327 2293.76,90.0837 2295.61,88.1347 2297.45,86.1857 "/>
<path clip-path="url(#clip020)" d="M463.785 248.629 L1261.16 248.629 L1261.16 93.1086 L463.785 93.1086  Z" fill="#ffffff" fill-rule="evenodd" fill-opacity="1"/>
<polyline clip-path="url(#clip020)" style="stroke:#000000; stroke-linecap:round; stroke-linejoin:round; stroke-width:4; stroke-opacity:1; fill:none" points="463.785,248.629 1261.16,248.629 1261.16,93.1086 463.785,93.1086 463.785,248.629 "/>
<polyline clip-path="url(#clip020)" style="stroke:#009af9; stroke-linecap:round; stroke-linejoin:round; stroke-width:8; stroke-opacity:1; fill:none" points="485.498,144.949 615.772,144.949 "/>
<path clip-path="url(#clip020)" d="M637.484 127.669 L642.16 127.669 L642.16 142.275 L657.669 127.669 L663.687 127.669 L646.535 143.78 L664.914 162.229 L658.757 162.229 L642.16 145.585 L642.16 162.229 L637.484 162.229 L637.484 127.669 Z" fill="#000000" fill-rule="nonzero" fill-opacity="1" /><path clip-path="url(#clip020)" d="M669.799 158.293 L677.437 158.293 L677.437 131.928 L669.127 133.595 L669.127 129.335 L677.391 127.669 L682.067 127.669 L682.067 158.293 L689.706 158.293 L689.706 162.229 L669.799 162.229 L669.799 158.293 Z" fill="#000000" fill-rule="nonzero" fill-opacity="1" /><path clip-path="url(#clip020)" d="M699.289 161.511 L699.289 157.252 Q701.048 158.085 702.854 158.525 Q704.659 158.965 706.396 158.965 Q711.025 158.965 713.456 155.863 Q715.909 152.738 716.257 146.395 Q714.914 148.386 712.854 149.451 Q710.794 150.516 708.294 150.516 Q703.109 150.516 700.076 147.391 Q697.067 144.243 697.067 138.803 Q697.067 133.479 700.215 130.261 Q703.363 127.044 708.595 127.044 Q714.59 127.044 717.738 131.65 Q720.909 136.233 720.909 144.983 Q720.909 153.155 717.021 158.039 Q713.155 162.9 706.604 162.9 Q704.845 162.9 703.039 162.553 Q701.234 162.205 699.289 161.511 M708.595 146.858 Q711.743 146.858 713.571 144.706 Q715.423 142.553 715.423 138.803 Q715.423 135.076 713.571 132.923 Q711.743 130.747 708.595 130.747 Q705.447 130.747 703.595 132.923 Q701.766 135.076 701.766 138.803 Q701.766 142.553 703.595 144.706 Q705.447 146.858 708.595 146.858 Z" fill="#000000" fill-rule="nonzero" fill-opacity="1" /><path clip-path="url(#clip020)" d="M739.891 143.085 Q736.743 143.085 734.891 145.238 Q733.062 147.391 733.062 151.141 Q733.062 154.868 734.891 157.043 Q736.743 159.196 739.891 159.196 Q743.039 159.196 744.868 157.043 Q746.719 154.868 746.719 151.141 Q746.719 147.391 744.868 145.238 Q743.039 143.085 739.891 143.085 M749.173 128.433 L749.173 132.692 Q747.414 131.858 745.608 131.419 Q743.826 130.979 742.067 130.979 Q737.437 130.979 734.983 134.104 Q732.553 137.229 732.206 143.548 Q733.571 141.534 735.632 140.469 Q737.692 139.382 740.169 139.382 Q745.377 139.382 748.386 142.553 Q751.418 145.701 751.418 151.141 Q751.418 156.465 748.27 159.682 Q745.122 162.9 739.891 162.9 Q733.895 162.9 730.724 158.317 Q727.553 153.71 727.553 144.983 Q727.553 136.789 731.442 131.928 Q735.331 127.044 741.882 127.044 Q743.641 127.044 745.423 127.391 Q747.229 127.738 749.173 128.433 Z" fill="#000000" fill-rule="nonzero" fill-opacity="1" /><path clip-path="url(#clip020)" d="M759.613 161.511 L759.613 157.252 Q761.372 158.085 763.178 158.525 Q764.983 158.965 766.719 158.965 Q771.349 158.965 773.779 155.863 Q776.233 152.738 776.58 146.395 Q775.238 148.386 773.178 149.451 Q771.117 150.516 768.617 150.516 Q763.432 150.516 760.4 147.391 Q757.391 144.243 757.391 138.803 Q757.391 133.479 760.539 130.261 Q763.687 127.044 768.918 127.044 Q774.914 127.044 778.062 131.65 Q781.233 136.233 781.233 144.983 Q781.233 153.155 777.344 158.039 Q773.479 162.9 766.928 162.9 Q765.168 162.9 763.363 162.553 Q761.557 162.205 759.613 161.511 M768.918 146.858 Q772.067 146.858 773.895 144.706 Q775.747 142.553 775.747 138.803 Q775.747 135.076 773.895 132.923 Q772.067 130.747 768.918 130.747 Q765.77 130.747 763.918 132.923 Q762.09 135.076 762.09 138.803 Q762.09 142.553 763.918 144.706 Q765.77 146.858 768.918 146.858 Z" fill="#000000" fill-rule="nonzero" fill-opacity="1" /><path clip-path="url(#clip020)" d="M801.627 136.303 L805.886 136.303 L811.21 156.534 L816.511 136.303 L821.534 136.303 L826.858 156.534 L832.159 136.303 L836.418 136.303 L829.636 162.229 L824.613 162.229 L819.034 140.979 L813.432 162.229 L808.409 162.229 L801.627 136.303 Z" fill="#000000" fill-rule="nonzero" fill-opacity="1" /><path clip-path="url(#clip020)" d="M842.876 136.303 L847.136 136.303 L847.136 162.229 L842.876 162.229 L842.876 136.303 M842.876 126.21 L847.136 126.21 L847.136 131.604 L842.876 131.604 L842.876 126.21 Z" fill="#000000" fill-rule="nonzero" fill-opacity="1" /><path clip-path="url(#clip020)" d="M860.261 128.942 L860.261 136.303 L869.034 136.303 L869.034 139.613 L860.261 139.613 L860.261 153.687 Q860.261 156.858 861.117 157.761 Q861.997 158.664 864.659 158.664 L869.034 158.664 L869.034 162.229 L864.659 162.229 Q859.728 162.229 857.853 160.4 Q855.978 158.548 855.978 153.687 L855.978 139.613 L852.853 139.613 L852.853 136.303 L855.978 136.303 L855.978 128.942 L860.261 128.942 Z" fill="#000000" fill-rule="nonzero" fill-opacity="1" /><path clip-path="url(#clip020)" d="M896.186 146.581 L896.186 162.229 L891.927 162.229 L891.927 146.719 Q891.927 143.039 890.492 141.21 Q889.057 139.382 886.186 139.382 Q882.737 139.382 880.747 141.581 Q878.756 143.78 878.756 147.576 L878.756 162.229 L874.473 162.229 L874.473 126.21 L878.756 126.21 L878.756 140.331 Q880.284 137.993 882.344 136.835 Q884.427 135.678 887.135 135.678 Q891.603 135.678 893.895 138.456 Q896.186 141.21 896.186 146.581 Z" fill="#000000" fill-rule="nonzero" fill-opacity="1" /><path clip-path="url(#clip020)" d="M914.728 139.289 Q911.302 139.289 909.311 141.974 Q907.32 144.636 907.32 149.289 Q907.32 153.942 909.288 156.627 Q911.279 159.289 914.728 159.289 Q918.131 159.289 920.121 156.604 Q922.112 153.918 922.112 149.289 Q922.112 144.682 920.121 141.997 Q918.131 139.289 914.728 139.289 M914.728 135.678 Q920.283 135.678 923.455 139.289 Q926.626 142.9 926.626 149.289 Q926.626 155.655 923.455 159.289 Q920.283 162.9 914.728 162.9 Q909.149 162.9 905.978 159.289 Q902.83 155.655 902.83 149.289 Q902.83 142.9 905.978 139.289 Q909.149 135.678 914.728 135.678 Z" fill="#000000" fill-rule="nonzero" fill-opacity="1" /><path clip-path="url(#clip020)" d="M933.246 151.997 L933.246 136.303 L937.505 136.303 L937.505 151.835 Q937.505 155.516 938.941 157.368 Q940.376 159.196 943.246 159.196 Q946.695 159.196 948.686 156.997 Q950.7 154.798 950.7 151.002 L950.7 136.303 L954.959 136.303 L954.959 162.229 L950.7 162.229 L950.7 158.247 Q949.149 160.608 947.089 161.766 Q945.052 162.9 942.343 162.9 Q937.876 162.9 935.561 160.122 Q933.246 157.344 933.246 151.997 M943.964 135.678 L943.964 135.678 Z" fill="#000000" fill-rule="nonzero" fill-opacity="1" /><path clip-path="url(#clip020)" d="M967.945 128.942 L967.945 136.303 L976.718 136.303 L976.718 139.613 L967.945 139.613 L967.945 153.687 Q967.945 156.858 968.802 157.761 Q969.681 158.664 972.343 158.664 L976.718 158.664 L976.718 162.229 L972.343 162.229 Q967.413 162.229 965.538 160.4 Q963.663 158.548 963.663 153.687 L963.663 139.613 L960.538 139.613 L960.538 136.303 L963.663 136.303 L963.663 128.942 L967.945 128.942 Z" fill="#000000" fill-rule="nonzero" fill-opacity="1" /><path clip-path="url(#clip020)" d="M1013.92 137.067 L1013.92 141.094 Q1012.11 140.169 1010.17 139.706 Q1008.22 139.243 1006.14 139.243 Q1002.97 139.243 1001.37 140.215 Q999.797 141.187 999.797 143.131 Q999.797 144.613 1000.93 145.469 Q1002.07 146.303 1005.49 147.067 L1006.95 147.391 Q1011.49 148.363 1013.38 150.145 Q1015.31 151.905 1015.31 155.076 Q1015.31 158.687 1012.44 160.793 Q1009.59 162.9 1004.59 162.9 Q1002.51 162.9 1000.24 162.483 Q997.991 162.09 995.491 161.28 L995.491 156.881 Q997.852 158.108 1000.14 158.733 Q1002.44 159.335 1004.68 159.335 Q1007.69 159.335 1009.31 158.317 Q1010.93 157.275 1010.93 155.4 Q1010.93 153.664 1009.75 152.738 Q1008.59 151.812 1004.63 150.956 L1003.15 150.608 Q999.195 149.775 997.436 148.062 Q995.676 146.326 995.676 143.317 Q995.676 139.659 998.269 137.669 Q1000.86 135.678 1005.63 135.678 Q1007.99 135.678 1010.07 136.025 Q1012.16 136.372 1013.92 137.067 Z" fill="#000000" fill-rule="nonzero" fill-opacity="1" /><path clip-path="url(#clip020)" d="M1042.27 141.28 Q1043.87 138.409 1046.09 137.044 Q1048.32 135.678 1051.32 135.678 Q1055.38 135.678 1057.57 138.525 Q1059.77 141.349 1059.77 146.581 L1059.77 162.229 L1055.49 162.229 L1055.49 146.719 Q1055.49 142.993 1054.17 141.187 Q1052.85 139.382 1050.14 139.382 Q1046.83 139.382 1044.91 141.581 Q1042.99 143.78 1042.99 147.576 L1042.99 162.229 L1038.71 162.229 L1038.71 146.719 Q1038.71 142.969 1037.39 141.187 Q1036.07 139.382 1033.32 139.382 Q1030.05 139.382 1028.13 141.604 Q1026.21 143.803 1026.21 147.576 L1026.21 162.229 L1021.93 162.229 L1021.93 136.303 L1026.21 136.303 L1026.21 140.331 Q1027.67 137.946 1029.7 136.812 Q1031.74 135.678 1034.54 135.678 Q1037.37 135.678 1039.33 137.113 Q1041.32 138.548 1042.27 141.28 Z" fill="#000000" fill-rule="nonzero" fill-opacity="1" /><path clip-path="url(#clip020)" d="M1078.31 139.289 Q1074.89 139.289 1072.9 141.974 Q1070.91 144.636 1070.91 149.289 Q1070.91 153.942 1072.88 156.627 Q1074.87 159.289 1078.31 159.289 Q1081.72 159.289 1083.71 156.604 Q1085.7 153.918 1085.7 149.289 Q1085.7 144.682 1083.71 141.997 Q1081.72 139.289 1078.31 139.289 M1078.31 135.678 Q1083.87 135.678 1087.04 139.289 Q1090.21 142.9 1090.21 149.289 Q1090.21 155.655 1087.04 159.289 Q1083.87 162.9 1078.31 162.9 Q1072.74 162.9 1069.56 159.289 Q1066.42 155.655 1066.42 149.289 Q1066.42 142.9 1069.56 139.289 Q1072.74 135.678 1078.31 135.678 Z" fill="#000000" fill-rule="nonzero" fill-opacity="1" /><path clip-path="url(#clip020)" d="M1107.32 139.289 Q1103.89 139.289 1101.9 141.974 Q1099.91 144.636 1099.91 149.289 Q1099.91 153.942 1101.88 156.627 Q1103.87 159.289 1107.32 159.289 Q1110.72 159.289 1112.71 156.604 Q1114.7 153.918 1114.7 149.289 Q1114.7 144.682 1112.71 141.997 Q1110.72 139.289 1107.32 139.289 M1107.32 135.678 Q1112.87 135.678 1116.05 139.289 Q1119.22 142.9 1119.22 149.289 Q1119.22 155.655 1116.05 159.289 Q1112.87 162.9 1107.32 162.9 Q1101.74 162.9 1098.57 159.289 Q1095.42 155.655 1095.42 149.289 Q1095.42 142.9 1098.57 139.289 Q1101.74 135.678 1107.32 135.678 Z" fill="#000000" fill-rule="nonzero" fill-opacity="1" /><path clip-path="url(#clip020)" d="M1130.49 128.942 L1130.49 136.303 L1139.26 136.303 L1139.26 139.613 L1130.49 139.613 L1130.49 153.687 Q1130.49 156.858 1131.35 157.761 Q1132.23 158.664 1134.89 158.664 L1139.26 158.664 L1139.26 162.229 L1134.89 162.229 Q1129.96 162.229 1128.08 160.4 Q1126.21 158.548 1126.21 153.687 L1126.21 139.613 L1123.08 139.613 L1123.08 136.303 L1126.21 136.303 L1126.21 128.942 L1130.49 128.942 Z" fill="#000000" fill-rule="nonzero" fill-opacity="1" /><path clip-path="url(#clip020)" d="M1166.42 146.581 L1166.42 162.229 L1162.16 162.229 L1162.16 146.719 Q1162.16 143.039 1160.72 141.21 Q1159.29 139.382 1156.42 139.382 Q1152.97 139.382 1150.98 141.581 Q1148.99 143.78 1148.99 147.576 L1148.99 162.229 L1144.7 162.229 L1144.7 126.21 L1148.99 126.21 L1148.99 140.331 Q1150.51 137.993 1152.57 136.835 Q1154.66 135.678 1157.37 135.678 Q1161.83 135.678 1164.12 138.456 Q1166.42 141.21 1166.42 146.581 Z" fill="#000000" fill-rule="nonzero" fill-opacity="1" /><path clip-path="url(#clip020)" d="M1174.91 136.303 L1179.17 136.303 L1179.17 162.229 L1174.91 162.229 L1174.91 136.303 M1174.91 126.21 L1179.17 126.21 L1179.17 131.604 L1174.91 131.604 L1174.91 126.21 Z" fill="#000000" fill-rule="nonzero" fill-opacity="1" /><path clip-path="url(#clip020)" d="M1209.63 146.581 L1209.63 162.229 L1205.37 162.229 L1205.37 146.719 Q1205.37 143.039 1203.94 141.21 Q1202.5 139.382 1199.63 139.382 Q1196.18 139.382 1194.19 141.581 Q1192.2 143.78 1192.2 147.576 L1192.2 162.229 L1187.92 162.229 L1187.92 136.303 L1192.2 136.303 L1192.2 140.331 Q1193.73 137.993 1195.79 136.835 Q1197.87 135.678 1200.58 135.678 Q1205.05 135.678 1207.34 138.456 Q1209.63 141.21 1209.63 146.581 Z" fill="#000000" fill-rule="nonzero" fill-opacity="1" /><path clip-path="url(#clip020)" d="M1235.19 148.965 Q1235.19 144.335 1233.27 141.789 Q1231.37 139.243 1227.92 139.243 Q1224.49 139.243 1222.57 141.789 Q1220.68 144.335 1220.68 148.965 Q1220.68 153.571 1222.57 156.118 Q1224.49 158.664 1227.92 158.664 Q1231.37 158.664 1233.27 156.118 Q1235.19 153.571 1235.19 148.965 M1239.45 159.011 Q1239.45 165.631 1236.51 168.849 Q1233.57 172.09 1227.5 172.09 Q1225.26 172.09 1223.27 171.742 Q1221.28 171.418 1219.4 170.724 L1219.4 166.58 Q1221.28 167.599 1223.11 168.085 Q1224.93 168.571 1226.83 168.571 Q1231.02 168.571 1233.11 166.372 Q1235.19 164.196 1235.19 159.775 L1235.19 157.668 Q1233.87 159.96 1231.81 161.094 Q1229.75 162.229 1226.88 162.229 Q1222.11 162.229 1219.19 158.594 Q1216.28 154.96 1216.28 148.965 Q1216.28 142.946 1219.19 139.312 Q1222.11 135.678 1226.88 135.678 Q1229.75 135.678 1231.81 136.812 Q1233.87 137.946 1235.19 140.238 L1235.19 136.303 L1239.45 136.303 L1239.45 159.011 Z" fill="#000000" fill-rule="nonzero" fill-opacity="1" /><polyline clip-path="url(#clip020)" style="stroke:#e26f46; stroke-linecap:round; stroke-linejoin:round; stroke-width:8; stroke-opacity:1; fill:none" points="485.498,196.789 615.772,196.789 "/>
<path clip-path="url(#clip020)" d="M637.484 179.509 L642.16 179.509 L642.16 194.115 L657.669 179.509 L663.687 179.509 L646.535 195.62 L664.914 214.069 L658.757 214.069 L642.16 197.425 L642.16 214.069 L637.484 214.069 L637.484 179.509 Z" fill="#000000" fill-rule="nonzero" fill-opacity="1" /><path clip-path="url(#clip020)" d="M669.799 210.133 L677.437 210.133 L677.437 183.768 L669.127 185.435 L669.127 181.175 L677.391 179.509 L682.067 179.509 L682.067 210.133 L689.706 210.133 L689.706 214.069 L669.799 214.069 L669.799 210.133 Z" fill="#000000" fill-rule="nonzero" fill-opacity="1" /><path clip-path="url(#clip020)" d="M699.289 213.351 L699.289 209.092 Q701.048 209.925 702.854 210.365 Q704.659 210.805 706.396 210.805 Q711.025 210.805 713.456 207.703 Q715.909 204.578 716.257 198.235 Q714.914 200.226 712.854 201.291 Q710.794 202.356 708.294 202.356 Q703.109 202.356 700.076 199.231 Q697.067 196.083 697.067 190.643 Q697.067 185.319 700.215 182.101 Q703.363 178.884 708.595 178.884 Q714.59 178.884 717.738 183.49 Q720.909 188.073 720.909 196.823 Q720.909 204.995 717.021 209.879 Q713.155 214.74 706.604 214.74 Q704.845 214.74 703.039 214.393 Q701.234 214.045 699.289 213.351 M708.595 198.698 Q711.743 198.698 713.571 196.546 Q715.423 194.393 715.423 190.643 Q715.423 186.916 713.571 184.763 Q711.743 182.587 708.595 182.587 Q705.447 182.587 703.595 184.763 Q701.766 186.916 701.766 190.643 Q701.766 194.393 703.595 196.546 Q705.447 198.698 708.595 198.698 Z" fill="#000000" fill-rule="nonzero" fill-opacity="1" /><path clip-path="url(#clip020)" d="M739.891 194.925 Q736.743 194.925 734.891 197.078 Q733.062 199.231 733.062 202.981 Q733.062 206.708 734.891 208.883 Q736.743 211.036 739.891 211.036 Q743.039 211.036 744.868 208.883 Q746.719 206.708 746.719 202.981 Q746.719 199.231 744.868 197.078 Q743.039 194.925 739.891 194.925 M749.173 180.273 L749.173 184.532 Q747.414 183.698 745.608 183.259 Q743.826 182.819 742.067 182.819 Q737.437 182.819 734.983 185.944 Q732.553 189.069 732.206 195.388 Q733.571 193.374 735.632 192.309 Q737.692 191.222 740.169 191.222 Q745.377 191.222 748.386 194.393 Q751.418 197.541 751.418 202.981 Q751.418 208.305 748.27 211.522 Q745.122 214.74 739.891 214.74 Q733.895 214.74 730.724 210.157 Q727.553 205.55 727.553 196.823 Q727.553 188.629 731.442 183.768 Q735.331 178.884 741.882 178.884 Q743.641 178.884 745.423 179.231 Q747.229 179.578 749.173 180.273 Z" fill="#000000" fill-rule="nonzero" fill-opacity="1" /><path clip-path="url(#clip020)" d="M759.613 213.351 L759.613 209.092 Q761.372 209.925 763.178 210.365 Q764.983 210.805 766.719 210.805 Q771.349 210.805 773.779 207.703 Q776.233 204.578 776.58 198.235 Q775.238 200.226 773.178 201.291 Q771.117 202.356 768.617 202.356 Q763.432 202.356 760.4 199.231 Q757.391 196.083 757.391 190.643 Q757.391 185.319 760.539 182.101 Q763.687 178.884 768.918 178.884 Q774.914 178.884 778.062 183.49 Q781.233 188.073 781.233 196.823 Q781.233 204.995 777.344 209.879 Q773.479 214.74 766.928 214.74 Q765.168 214.74 763.363 214.393 Q761.557 214.045 759.613 213.351 M768.918 198.698 Q772.067 198.698 773.895 196.546 Q775.747 194.393 775.747 190.643 Q775.747 186.916 773.895 184.763 Q772.067 182.587 768.918 182.587 Q765.77 182.587 763.918 184.763 Q762.09 186.916 762.09 190.643 Q762.09 194.393 763.918 196.546 Q765.77 198.698 768.918 198.698 Z" fill="#000000" fill-rule="nonzero" fill-opacity="1" /><path clip-path="url(#clip020)" d="M801.627 188.143 L805.886 188.143 L811.21 208.374 L816.511 188.143 L821.534 188.143 L826.858 208.374 L832.159 188.143 L836.418 188.143 L829.636 214.069 L824.613 214.069 L819.034 192.819 L813.432 214.069 L808.409 214.069 L801.627 188.143 Z" fill="#000000" fill-rule="nonzero" fill-opacity="1" /><path clip-path="url(#clip020)" d="M842.876 188.143 L847.136 188.143 L847.136 214.069 L842.876 214.069 L842.876 188.143 M842.876 178.05 L847.136 178.05 L847.136 183.444 L842.876 183.444 L842.876 178.05 Z" fill="#000000" fill-rule="nonzero" fill-opacity="1" /><path clip-path="url(#clip020)" d="M860.261 180.782 L860.261 188.143 L869.034 188.143 L869.034 191.453 L860.261 191.453 L860.261 205.527 Q860.261 208.698 861.117 209.601 Q861.997 210.504 864.659 210.504 L869.034 210.504 L869.034 214.069 L864.659 214.069 Q859.728 214.069 857.853 212.24 Q855.978 210.388 855.978 205.527 L855.978 191.453 L852.853 191.453 L852.853 188.143 L855.978 188.143 L855.978 180.782 L860.261 180.782 Z" fill="#000000" fill-rule="nonzero" fill-opacity="1" /><path clip-path="url(#clip020)" d="M896.186 198.421 L896.186 214.069 L891.927 214.069 L891.927 198.559 Q891.927 194.879 890.492 193.05 Q889.057 191.222 886.186 191.222 Q882.737 191.222 880.747 193.421 Q878.756 195.62 878.756 199.416 L878.756 214.069 L874.473 214.069 L874.473 178.05 L878.756 178.05 L878.756 192.171 Q880.284 189.833 882.344 188.675 Q884.427 187.518 887.135 187.518 Q891.603 187.518 893.895 190.296 Q896.186 193.05 896.186 198.421 Z" fill="#000000" fill-rule="nonzero" fill-opacity="1" /><path clip-path="url(#clip020)" d="M936.279 188.907 L936.279 192.934 Q934.473 192.009 932.529 191.546 Q930.584 191.083 928.501 191.083 Q925.33 191.083 923.732 192.055 Q922.158 193.027 922.158 194.971 Q922.158 196.453 923.293 197.309 Q924.427 198.143 927.853 198.907 L929.311 199.231 Q933.848 200.203 935.746 201.985 Q937.667 203.745 937.667 206.916 Q937.667 210.527 934.797 212.633 Q931.95 214.74 926.95 214.74 Q924.867 214.74 922.598 214.323 Q920.353 213.93 917.853 213.12 L917.853 208.721 Q920.214 209.948 922.506 210.573 Q924.797 211.175 927.043 211.175 Q930.052 211.175 931.672 210.157 Q933.293 209.115 933.293 207.24 Q933.293 205.504 932.112 204.578 Q930.955 203.652 926.996 202.796 L925.515 202.448 Q921.556 201.615 919.797 199.902 Q918.038 198.166 918.038 195.157 Q918.038 191.499 920.631 189.509 Q923.223 187.518 927.992 187.518 Q930.353 187.518 932.436 187.865 Q934.519 188.212 936.279 188.907 Z" fill="#000000" fill-rule="nonzero" fill-opacity="1" /><path clip-path="url(#clip020)" d="M964.635 193.12 Q966.232 190.249 968.454 188.884 Q970.677 187.518 973.686 187.518 Q977.737 187.518 979.936 190.365 Q982.135 193.189 982.135 198.421 L982.135 214.069 L977.852 214.069 L977.852 198.559 Q977.852 194.833 976.533 193.027 Q975.214 191.222 972.505 191.222 Q969.195 191.222 967.274 193.421 Q965.353 195.62 965.353 199.416 L965.353 214.069 L961.07 214.069 L961.07 198.559 Q961.07 194.809 959.751 193.027 Q958.431 191.222 955.677 191.222 Q952.413 191.222 950.492 193.444 Q948.57 195.643 948.57 199.416 L948.57 214.069 L944.288 214.069 L944.288 188.143 L948.57 188.143 L948.57 192.171 Q950.029 189.786 952.066 188.652 Q954.103 187.518 956.904 187.518 Q959.728 187.518 961.695 188.953 Q963.686 190.388 964.635 193.12 Z" fill="#000000" fill-rule="nonzero" fill-opacity="1" /><path clip-path="url(#clip020)" d="M1000.68 191.129 Q997.251 191.129 995.26 193.814 Q993.269 196.476 993.269 201.129 Q993.269 205.782 995.237 208.467 Q997.227 211.129 1000.68 211.129 Q1004.08 211.129 1006.07 208.444 Q1008.06 205.758 1008.06 201.129 Q1008.06 196.522 1006.07 193.837 Q1004.08 191.129 1000.68 191.129 M1000.68 187.518 Q1006.23 187.518 1009.4 191.129 Q1012.57 194.74 1012.57 201.129 Q1012.57 207.495 1009.4 211.129 Q1006.23 214.74 1000.68 214.74 Q995.098 214.74 991.926 211.129 Q988.778 207.495 988.778 201.129 Q988.778 194.74 991.926 191.129 Q995.098 187.518 1000.68 187.518 Z" fill="#000000" fill-rule="nonzero" fill-opacity="1" /><path clip-path="url(#clip020)" d="M1029.68 191.129 Q1026.25 191.129 1024.26 193.814 Q1022.27 196.476 1022.27 201.129 Q1022.27 205.782 1024.24 208.467 Q1026.23 211.129 1029.68 211.129 Q1033.08 211.129 1035.07 208.444 Q1037.07 205.758 1037.07 201.129 Q1037.07 196.522 1035.07 193.837 Q1033.08 191.129 1029.68 191.129 M1029.68 187.518 Q1035.24 187.518 1038.41 191.129 Q1041.58 194.74 1041.58 201.129 Q1041.58 207.495 1038.41 211.129 Q1035.24 214.74 1029.68 214.74 Q1024.1 214.74 1020.93 211.129 Q1017.78 207.495 1017.78 201.129 Q1017.78 194.74 1020.93 191.129 Q1024.1 187.518 1029.68 187.518 Z" fill="#000000" fill-rule="nonzero" fill-opacity="1" /><path clip-path="url(#clip020)" d="M1052.85 180.782 L1052.85 188.143 L1061.63 188.143 L1061.63 191.453 L1052.85 191.453 L1052.85 205.527 Q1052.85 208.698 1053.71 209.601 Q1054.59 210.504 1057.25 210.504 L1061.63 210.504 L1061.63 214.069 L1057.25 214.069 Q1052.32 214.069 1050.44 212.24 Q1048.57 210.388 1048.57 205.527 L1048.57 191.453 L1045.44 191.453 L1045.44 188.143 L1048.57 188.143 L1048.57 180.782 L1052.85 180.782 Z" fill="#000000" fill-rule="nonzero" fill-opacity="1" /><path clip-path="url(#clip020)" d="M1088.78 198.421 L1088.78 214.069 L1084.52 214.069 L1084.52 198.559 Q1084.52 194.879 1083.08 193.05 Q1081.65 191.222 1078.78 191.222 Q1075.33 191.222 1073.34 193.421 Q1071.35 195.62 1071.35 199.416 L1071.35 214.069 L1067.06 214.069 L1067.06 178.05 L1071.35 178.05 L1071.35 192.171 Q1072.88 189.833 1074.94 188.675 Q1077.02 187.518 1079.73 187.518 Q1084.19 187.518 1086.49 190.296 Q1088.78 193.05 1088.78 198.421 Z" fill="#000000" fill-rule="nonzero" fill-opacity="1" /><path clip-path="url(#clip020)" d="M1097.27 188.143 L1101.53 188.143 L1101.53 214.069 L1097.27 214.069 L1097.27 188.143 M1097.27 178.05 L1101.53 178.05 L1101.53 183.444 L1097.27 183.444 L1097.27 178.05 Z" fill="#000000" fill-rule="nonzero" fill-opacity="1" /><path clip-path="url(#clip020)" d="M1132 198.421 L1132 214.069 L1127.74 214.069 L1127.74 198.559 Q1127.74 194.879 1126.3 193.05 Q1124.87 191.222 1122 191.222 Q1118.55 191.222 1116.56 193.421 Q1114.56 195.62 1114.56 199.416 L1114.56 214.069 L1110.28 214.069 L1110.28 188.143 L1114.56 188.143 L1114.56 192.171 Q1116.09 189.833 1118.15 188.675 Q1120.24 187.518 1122.94 187.518 Q1127.41 187.518 1129.7 190.296 Q1132 193.05 1132 198.421 Z" fill="#000000" fill-rule="nonzero" fill-opacity="1" /><path clip-path="url(#clip020)" d="M1157.55 200.805 Q1157.55 196.175 1155.63 193.629 Q1153.73 191.083 1150.28 191.083 Q1146.86 191.083 1144.93 193.629 Q1143.04 196.175 1143.04 200.805 Q1143.04 205.411 1144.93 207.958 Q1146.86 210.504 1150.28 210.504 Q1153.73 210.504 1155.63 207.958 Q1157.55 205.411 1157.55 200.805 M1161.81 210.851 Q1161.81 217.471 1158.87 220.689 Q1155.93 223.93 1149.87 223.93 Q1147.62 223.93 1145.63 223.582 Q1143.64 223.258 1141.76 222.564 L1141.76 218.42 Q1143.64 219.439 1145.47 219.925 Q1147.3 220.411 1149.19 220.411 Q1153.38 220.411 1155.47 218.212 Q1157.55 216.036 1157.55 211.615 L1157.55 209.508 Q1156.23 211.8 1154.17 212.934 Q1152.11 214.069 1149.24 214.069 Q1144.47 214.069 1141.56 210.434 Q1138.64 206.8 1138.64 200.805 Q1138.64 194.786 1141.56 191.152 Q1144.47 187.518 1149.24 187.518 Q1152.11 187.518 1154.17 188.652 Q1156.23 189.786 1157.55 192.078 L1157.55 188.143 L1161.81 188.143 L1161.81 210.851 Z" fill="#000000" fill-rule="nonzero" fill-opacity="1" /></svg>
