<?xml version="1.0" encoding="utf-8"?>
<svg xmlns="http://www.w3.org/2000/svg" xmlns:xlink="http://www.w3.org/1999/xlink" width="600" height="400" viewBox="0 0 2400 1600">
<defs>
  <clipPath id="clip960">
    <rect x="0" y="0" width="2400" height="1600"/>
  </clipPath>
</defs>
<path clip-path="url(#clip960)" d="
M0 1600 L2400 1600 L2400 0 L0 0  Z
  " fill="#ffffff" fill-rule="evenodd" fill-opacity="1"/>
<defs>
  <clipPath id="clip961">
    <rect x="480" y="0" width="1681" height="1600"/>
  </clipPath>
</defs>
<path clip-path="url(#clip960)" d="
M400.671 1423.18 L2352.76 1423.18 L2352.76 47.2441 L400.671 47.2441  Z
  " fill="#ffffff" fill-rule="evenodd" fill-opacity="1"/>
<defs>
  <clipPath id="clip962">
    <rect x="400" y="47" width="1953" height="1377"/>
  </clipPath>
</defs>
<polyline clip-path="url(#clip962)" style="stroke:#000000; stroke-linecap:butt; stroke-linejoin:round; stroke-width:2; stroke-opacity:0.1; fill:none" points="
  455.915,1423.18 455.915,47.2441 
  "/>
<polyline clip-path="url(#clip962)" style="stroke:#000000; stroke-linecap:butt; stroke-linejoin:round; stroke-width:2; stroke-opacity:0.1; fill:none" points="
  824.234,1423.18 824.234,47.2441 
  "/>
<polyline clip-path="url(#clip962)" style="stroke:#000000; stroke-linecap:butt; stroke-linejoin:round; stroke-width:2; stroke-opacity:0.1; fill:none" points="
  1192.55,1423.18 1192.55,47.2441 
  "/>
<polyline clip-path="url(#clip962)" style="stroke:#000000; stroke-linecap:butt; stroke-linejoin:round; stroke-width:2; stroke-opacity:0.1; fill:none" points="
  1560.87,1423.18 1560.87,47.2441 
  "/>
<polyline clip-path="url(#clip962)" style="stroke:#000000; stroke-linecap:butt; stroke-linejoin:round; stroke-width:2; stroke-opacity:0.1; fill:none" points="
  1929.19,1423.18 1929.19,47.2441 
  "/>
<polyline clip-path="url(#clip962)" style="stroke:#000000; stroke-linecap:butt; stroke-linejoin:round; stroke-width:2; stroke-opacity:0.1; fill:none" points="
  2297.51,1423.18 2297.51,47.2441 
  "/>
<polyline clip-path="url(#clip960)" style="stroke:#000000; stroke-linecap:butt; stroke-linejoin:round; stroke-width:4; stroke-opacity:1; fill:none" points="
  400.671,1423.18 2352.76,1423.18 
  "/>
<polyline clip-path="url(#clip960)" style="stroke:#000000; stroke-linecap:butt; stroke-linejoin:round; stroke-width:4; stroke-opacity:1; fill:none" points="
  455.915,1423.18 455.915,1404.28 
  "/>
<polyline clip-path="url(#clip960)" style="stroke:#000000; stroke-linecap:butt; stroke-linejoin:round; stroke-width:4; stroke-opacity:1; fill:none" points="
  824.234,1423.18 824.234,1404.28 
  "/>
<polyline clip-path="url(#clip960)" style="stroke:#000000; stroke-linecap:butt; stroke-linejoin:round; stroke-width:4; stroke-opacity:1; fill:none" points="
  1192.55,1423.18 1192.55,1404.28 
  "/>
<polyline clip-path="url(#clip960)" style="stroke:#000000; stroke-linecap:butt; stroke-linejoin:round; stroke-width:4; stroke-opacity:1; fill:none" points="
  1560.87,1423.18 1560.87,1404.28 
  "/>
<polyline clip-path="url(#clip960)" style="stroke:#000000; stroke-linecap:butt; stroke-linejoin:round; stroke-width:4; stroke-opacity:1; fill:none" points="
  1929.19,1423.18 1929.19,1404.28 
  "/>
<polyline clip-path="url(#clip960)" style="stroke:#000000; stroke-linecap:butt; stroke-linejoin:round; stroke-width:4; stroke-opacity:1; fill:none" points="
  2297.51,1423.18 2297.51,1404.28 
  "/>
<path clip-path="url(#clip960)" d="M455.915 1454.1 Q452.304 1454.1 450.475 1457.66 Q448.67 1461.2 448.67 1468.33 Q448.67 1475.44 450.475 1479.01 Q452.304 1482.55 455.915 1482.55 Q459.549 1482.55 461.355 1479.01 Q463.184 1475.44 463.184 1468.33 Q463.184 1461.2 461.355 1457.66 Q459.549 1454.1 455.915 1454.1 M455.915 1450.39 Q461.725 1450.39 464.781 1455 Q467.86 1459.58 467.86 1468.33 Q467.86 1477.06 464.781 1481.67 Q461.725 1486.25 455.915 1486.25 Q450.105 1486.25 447.026 1481.67 Q443.971 1477.06 443.971 1468.33 Q443.971 1459.58 447.026 1455 Q450.105 1450.39 455.915 1450.39 Z" fill="#000000" fill-rule="evenodd" fill-opacity="1" /><path clip-path="url(#clip960)" d="M814.616 1481.64 L822.255 1481.64 L822.255 1455.28 L813.944 1456.95 L813.944 1452.69 L822.208 1451.02 L826.884 1451.02 L826.884 1481.64 L834.523 1481.64 L834.523 1485.58 L814.616 1485.58 L814.616 1481.64 Z" fill="#000000" fill-rule="evenodd" fill-opacity="1" /><path clip-path="url(#clip960)" d="M1187.21 1481.64 L1203.52 1481.64 L1203.52 1485.58 L1181.58 1485.58 L1181.58 1481.64 Q1184.24 1478.89 1188.83 1474.26 Q1193.43 1469.61 1194.61 1468.27 Q1196.86 1465.74 1197.74 1464.01 Q1198.64 1462.25 1198.64 1460.56 Q1198.64 1457.8 1196.7 1456.07 Q1194.77 1454.33 1191.67 1454.33 Q1189.47 1454.33 1187.02 1455.09 Q1184.59 1455.86 1181.81 1457.41 L1181.81 1452.69 Q1184.64 1451.55 1187.09 1450.97 Q1189.54 1450.39 1191.58 1450.39 Q1196.95 1450.39 1200.14 1453.08 Q1203.34 1455.77 1203.34 1460.26 Q1203.34 1462.39 1202.53 1464.31 Q1201.74 1466.2 1199.64 1468.8 Q1199.06 1469.47 1195.96 1472.69 Q1192.85 1475.88 1187.21 1481.64 Z" fill="#000000" fill-rule="evenodd" fill-opacity="1" /><path clip-path="url(#clip960)" d="M1565.12 1466.95 Q1568.48 1467.66 1570.35 1469.93 Q1572.25 1472.2 1572.25 1475.53 Q1572.25 1480.65 1568.73 1483.45 Q1565.21 1486.25 1558.73 1486.25 Q1556.55 1486.25 1554.24 1485.81 Q1551.95 1485.39 1549.49 1484.54 L1549.49 1480.02 Q1551.44 1481.16 1553.75 1481.74 Q1556.07 1482.32 1558.59 1482.32 Q1562.99 1482.32 1565.28 1480.58 Q1567.6 1478.84 1567.6 1475.53 Q1567.6 1472.48 1565.44 1470.77 Q1563.31 1469.03 1559.49 1469.03 L1555.47 1469.03 L1555.47 1465.19 L1559.68 1465.19 Q1563.13 1465.19 1564.96 1463.82 Q1566.79 1462.43 1566.79 1459.84 Q1566.79 1457.18 1564.89 1455.77 Q1563.01 1454.33 1559.49 1454.33 Q1557.57 1454.33 1555.37 1454.75 Q1553.17 1455.16 1550.54 1456.04 L1550.54 1451.88 Q1553.2 1451.14 1555.51 1450.77 Q1557.85 1450.39 1559.91 1450.39 Q1565.23 1450.39 1568.34 1452.83 Q1571.44 1455.23 1571.44 1459.35 Q1571.44 1462.22 1569.79 1464.21 Q1568.15 1466.18 1565.12 1466.95 Z" fill="#000000" fill-rule="evenodd" fill-opacity="1" /><path clip-path="url(#clip960)" d="M1932.2 1455.09 L1920.39 1473.54 L1932.2 1473.54 L1932.2 1455.09 M1930.97 1451.02 L1936.85 1451.02 L1936.85 1473.54 L1941.78 1473.54 L1941.78 1477.43 L1936.85 1477.43 L1936.85 1485.58 L1932.2 1485.58 L1932.2 1477.43 L1916.6 1477.43 L1916.6 1472.92 L1930.97 1451.02 Z" fill="#000000" fill-rule="evenodd" fill-opacity="1" /><path clip-path="url(#clip960)" d="M2287.79 1451.02 L2306.14 1451.02 L2306.14 1454.96 L2292.07 1454.96 L2292.07 1463.43 Q2293.09 1463.08 2294.11 1462.92 Q2295.12 1462.73 2296.14 1462.73 Q2301.93 1462.73 2305.31 1465.9 Q2308.69 1469.08 2308.69 1474.49 Q2308.69 1480.07 2305.22 1483.17 Q2301.74 1486.25 2295.42 1486.25 Q2293.25 1486.25 2290.98 1485.88 Q2288.74 1485.51 2286.33 1484.77 L2286.33 1480.07 Q2288.41 1481.2 2290.63 1481.76 Q2292.86 1482.32 2295.33 1482.32 Q2299.34 1482.32 2301.67 1480.21 Q2304.01 1478.1 2304.01 1474.49 Q2304.01 1470.88 2301.67 1468.77 Q2299.34 1466.67 2295.33 1466.67 Q2293.46 1466.67 2291.58 1467.08 Q2289.73 1467.5 2287.79 1468.38 L2287.79 1451.02 Z" fill="#000000" fill-rule="evenodd" fill-opacity="1" /><path clip-path="url(#clip960)" d="M1004.99 1550.25 Q1004.99 1556.71 1007.63 1560.4 Q1010.3 1564.07 1014.95 1564.07 Q1019.6 1564.07 1022.27 1560.4 Q1024.94 1556.71 1024.94 1550.25 Q1024.94 1543.79 1022.27 1540.13 Q1019.6 1536.44 1014.95 1536.44 Q1010.3 1536.44 1007.63 1540.13 Q1004.99 1543.79 1004.99 1550.25 M1024.94 1562.7 Q1023.1 1565.88 1020.27 1567.44 Q1017.46 1568.97 1013.52 1568.97 Q1007.06 1568.97 1002.98 1563.81 Q998.941 1558.65 998.941 1550.25 Q998.941 1541.85 1002.98 1536.69 Q1007.06 1531.54 1013.52 1531.54 Q1017.46 1531.54 1020.27 1533.1 Q1023.1 1534.62 1024.94 1537.81 L1024.94 1532.4 L1030.8 1532.4 L1030.8 1581.6 L1024.94 1581.6 L1024.94 1562.7 Z" fill="#000000" fill-rule="evenodd" fill-opacity="1" /><path clip-path="url(#clip960)" d="M1069.95 1578.87 L1069.95 1583.42 L1036.08 1583.42 L1036.08 1578.87 L1069.95 1578.87 Z" fill="#000000" fill-rule="evenodd" fill-opacity="1" /><path clip-path="url(#clip960)" d="M1096.11 1537.87 Q1095.13 1537.3 1093.95 1537.04 Q1092.8 1536.76 1091.4 1536.76 Q1086.44 1536.76 1083.76 1540 Q1081.12 1543.22 1081.12 1549.27 L1081.12 1568.04 L1075.23 1568.04 L1075.23 1532.4 L1081.12 1532.4 L1081.12 1537.93 Q1082.97 1534.69 1085.93 1533.13 Q1088.89 1531.54 1093.12 1531.54 Q1093.73 1531.54 1094.46 1531.63 Q1095.19 1531.7 1096.08 1531.85 L1096.11 1537.87 Z" fill="#000000" fill-rule="evenodd" fill-opacity="1" /><path clip-path="url(#clip960)" d="M1118.46 1550.12 Q1111.36 1550.12 1108.62 1551.75 Q1105.88 1553.37 1105.88 1557.29 Q1105.88 1560.4 1107.92 1562.25 Q1109.99 1564.07 1113.52 1564.07 Q1118.39 1564.07 1121.32 1560.63 Q1124.28 1557.16 1124.28 1551.43 L1124.28 1550.12 L1118.46 1550.12 M1130.14 1547.71 L1130.14 1568.04 L1124.28 1568.04 L1124.28 1562.63 Q1122.28 1565.88 1119.28 1567.44 Q1116.29 1568.97 1111.96 1568.97 Q1106.49 1568.97 1103.24 1565.91 Q1100.03 1562.82 1100.03 1557.67 Q1100.03 1551.65 1104.04 1548.6 Q1108.08 1545.54 1116.07 1545.54 L1124.28 1545.54 L1124.28 1544.97 Q1124.28 1540.93 1121.61 1538.73 Q1118.97 1536.5 1114.16 1536.5 Q1111.1 1536.5 1108.21 1537.23 Q1105.31 1537.97 1102.64 1539.43 L1102.64 1534.02 Q1105.85 1532.78 1108.88 1532.17 Q1111.9 1531.54 1114.76 1531.54 Q1122.5 1531.54 1126.32 1535.55 Q1130.14 1539.56 1130.14 1547.71 Z" fill="#000000" fill-rule="evenodd" fill-opacity="1" /><path clip-path="url(#clip960)" d="M1142.2 1532.4 L1148.06 1532.4 L1148.06 1568.04 L1142.2 1568.04 L1142.2 1532.4 M1142.2 1518.52 L1148.06 1518.52 L1148.06 1525.93 L1142.2 1525.93 L1142.2 1518.52 Z" fill="#000000" fill-rule="evenodd" fill-opacity="1" /><path clip-path="url(#clip960)" d="M1189.94 1546.53 L1189.94 1568.04 L1184.09 1568.04 L1184.09 1546.72 Q1184.09 1541.66 1182.11 1539.14 Q1180.14 1536.63 1176.19 1536.63 Q1171.45 1536.63 1168.71 1539.65 Q1165.98 1542.68 1165.98 1547.9 L1165.98 1568.04 L1160.09 1568.04 L1160.09 1532.4 L1165.98 1532.4 L1165.98 1537.93 Q1168.08 1534.72 1170.91 1533.13 Q1173.77 1531.54 1177.5 1531.54 Q1183.64 1531.54 1186.79 1535.36 Q1189.94 1539.14 1189.94 1546.53 Z" fill="#000000" fill-rule="evenodd" fill-opacity="1" /><path clip-path="url(#clip960)" d="M1236.16 1536.5 Q1231.45 1536.5 1228.71 1540.19 Q1225.97 1543.85 1225.97 1550.25 Q1225.97 1556.65 1228.68 1560.34 Q1231.42 1564 1236.16 1564 Q1240.84 1564 1243.57 1560.31 Q1246.31 1556.62 1246.31 1550.25 Q1246.31 1543.92 1243.57 1540.23 Q1240.84 1536.5 1236.16 1536.5 M1236.16 1531.54 Q1243.8 1531.54 1248.16 1536.5 Q1252.52 1541.47 1252.52 1550.25 Q1252.52 1559 1248.16 1564 Q1243.8 1568.97 1236.16 1568.97 Q1228.49 1568.97 1224.13 1564 Q1219.8 1559 1219.8 1550.25 Q1219.8 1541.47 1224.13 1536.5 Q1228.49 1531.54 1236.16 1531.54 Z" fill="#000000" fill-rule="evenodd" fill-opacity="1" /><path clip-path="url(#clip960)" d="M1282.88 1537.87 Q1281.9 1537.3 1280.72 1537.04 Q1279.57 1536.76 1278.17 1536.76 Q1273.21 1536.76 1270.53 1540 Q1267.89 1543.22 1267.89 1549.27 L1267.89 1568.04 L1262 1568.04 L1262 1532.4 L1267.89 1532.4 L1267.89 1537.93 Q1269.74 1534.69 1272.7 1533.13 Q1275.66 1531.54 1279.89 1531.54 Q1280.5 1531.54 1281.23 1531.63 Q1281.96 1531.7 1282.85 1531.85 L1282.88 1537.87 Z" fill="#000000" fill-rule="evenodd" fill-opacity="1" /><path clip-path="url(#clip960)" d="M1313.25 1550.25 Q1313.25 1556.71 1315.89 1560.4 Q1318.56 1564.07 1323.21 1564.07 Q1327.86 1564.07 1330.53 1560.4 Q1333.2 1556.71 1333.2 1550.25 Q1333.2 1543.79 1330.53 1540.13 Q1327.86 1536.44 1323.21 1536.44 Q1318.56 1536.44 1315.89 1540.13 Q1313.25 1543.79 1313.25 1550.25 M1333.2 1562.7 Q1331.36 1565.88 1328.53 1567.44 Q1325.72 1568.97 1321.78 1568.97 Q1315.32 1568.97 1311.24 1563.81 Q1307.2 1558.65 1307.2 1550.25 Q1307.2 1541.85 1311.24 1536.69 Q1315.32 1531.54 1321.78 1531.54 Q1325.72 1531.54 1328.53 1533.1 Q1331.36 1534.62 1333.2 1537.81 L1333.2 1532.4 L1339.06 1532.4 L1339.06 1581.6 L1333.2 1581.6 L1333.2 1562.7 Z" fill="#000000" fill-rule="evenodd" fill-opacity="1" /><path clip-path="url(#clip960)" d="M1378.21 1578.87 L1378.21 1583.42 L1344.34 1583.42 L1344.34 1578.87 L1378.21 1578.87 Z" fill="#000000" fill-rule="evenodd" fill-opacity="1" /><path clip-path="url(#clip960)" d="M1406.44 1533.45 L1406.44 1538.98 Q1403.96 1537.71 1401.29 1537.07 Q1398.61 1536.44 1395.75 1536.44 Q1391.39 1536.44 1389.19 1537.77 Q1387.03 1539.11 1387.03 1541.79 Q1387.03 1543.82 1388.59 1545 Q1390.15 1546.15 1394.86 1547.2 L1396.86 1547.64 Q1403.1 1548.98 1405.71 1551.43 Q1408.35 1553.85 1408.35 1558.21 Q1408.35 1563.17 1404.4 1566.07 Q1400.49 1568.97 1393.61 1568.97 Q1390.75 1568.97 1387.63 1568.39 Q1384.54 1567.85 1381.11 1566.74 L1381.11 1560.69 Q1384.35 1562.38 1387.5 1563.24 Q1390.65 1564.07 1393.74 1564.07 Q1397.88 1564.07 1400.11 1562.66 Q1402.34 1561.23 1402.34 1558.65 Q1402.34 1556.27 1400.71 1554.99 Q1399.12 1553.72 1393.68 1552.54 L1391.64 1552.07 Q1386.2 1550.92 1383.78 1548.56 Q1381.36 1546.18 1381.36 1542.04 Q1381.36 1537.01 1384.93 1534.27 Q1388.49 1531.54 1395.05 1531.54 Q1398.29 1531.54 1401.16 1532.01 Q1404.02 1532.49 1406.44 1533.45 Z" fill="#000000" fill-rule="evenodd" fill-opacity="1" /><path clip-path="url(#clip960)" d="M1447.31 1546.53 L1447.31 1568.04 L1441.45 1568.04 L1441.45 1546.72 Q1441.45 1541.66 1439.48 1539.14 Q1437.51 1536.63 1433.56 1536.63 Q1428.82 1536.63 1426.08 1539.65 Q1423.34 1542.68 1423.34 1547.9 L1423.34 1568.04 L1417.45 1568.04 L1417.45 1532.4 L1423.34 1532.4 L1423.34 1537.93 Q1425.44 1534.72 1428.28 1533.13 Q1431.14 1531.54 1434.86 1531.54 Q1441.01 1531.54 1444.16 1535.36 Q1447.31 1539.14 1447.31 1546.53 Z" fill="#000000" fill-rule="evenodd" fill-opacity="1" /><path clip-path="url(#clip960)" d="M1472.8 1536.5 Q1468.09 1536.5 1465.36 1540.19 Q1462.62 1543.85 1462.62 1550.25 Q1462.62 1556.65 1465.32 1560.34 Q1468.06 1564 1472.8 1564 Q1477.48 1564 1480.22 1560.31 Q1482.96 1556.62 1482.96 1550.25 Q1482.96 1543.92 1480.22 1540.23 Q1477.48 1536.5 1472.8 1536.5 M1472.8 1531.54 Q1480.44 1531.54 1484.8 1536.5 Q1489.16 1541.47 1489.16 1550.25 Q1489.16 1559 1484.8 1564 Q1480.44 1568.97 1472.8 1568.97 Q1465.13 1568.97 1460.77 1564 Q1456.44 1559 1456.44 1550.25 Q1456.44 1541.47 1460.77 1536.5 Q1465.13 1531.54 1472.8 1531.54 Z" fill="#000000" fill-rule="evenodd" fill-opacity="1" /><path clip-path="url(#clip960)" d="M1495.47 1532.4 L1501.32 1532.4 L1508.64 1560.21 L1515.93 1532.4 L1522.84 1532.4 L1530.16 1560.21 L1537.45 1532.4 L1543.3 1532.4 L1533.98 1568.04 L1527.07 1568.04 L1519.4 1538.83 L1511.7 1568.04 L1504.79 1568.04 L1495.47 1532.4 Z" fill="#000000" fill-rule="evenodd" fill-opacity="1" /><path clip-path="url(#clip960)" d="M1572.36 1518.52 L1585.86 1518.52 L1585.86 1523.07 L1578.22 1523.07 L1578.22 1572.09 L1585.86 1572.09 L1585.86 1576.64 L1572.36 1576.64 L1572.36 1518.52 Z" fill="#000000" fill-rule="evenodd" fill-opacity="1" /><path clip-path="url(#clip960)" d="M1621.79 1549.81 Q1621.79 1543.44 1619.15 1539.94 Q1616.54 1536.44 1611.8 1536.44 Q1607.09 1536.44 1604.45 1539.94 Q1601.84 1543.44 1601.84 1549.81 Q1601.84 1556.14 1604.45 1559.64 Q1607.09 1563.14 1611.8 1563.14 Q1616.54 1563.14 1619.15 1559.64 Q1621.79 1556.14 1621.79 1549.81 M1627.65 1563.62 Q1627.65 1572.72 1623.61 1577.15 Q1619.57 1581.6 1611.23 1581.6 Q1608.14 1581.6 1605.4 1581.13 Q1602.66 1580.68 1600.09 1579.72 L1600.09 1574.03 Q1602.66 1575.43 1605.18 1576.1 Q1607.69 1576.76 1610.3 1576.76 Q1616.06 1576.76 1618.93 1573.74 Q1621.79 1570.75 1621.79 1564.67 L1621.79 1561.77 Q1619.98 1564.92 1617.15 1566.48 Q1614.31 1568.04 1610.37 1568.04 Q1603.81 1568.04 1599.8 1563.05 Q1595.79 1558.05 1595.79 1549.81 Q1595.79 1541.53 1599.8 1536.53 Q1603.81 1531.54 1610.37 1531.54 Q1614.31 1531.54 1617.15 1533.1 Q1619.98 1534.66 1621.79 1537.81 L1621.79 1532.4 L1627.65 1532.4 L1627.65 1563.62 Z" fill="#000000" fill-rule="evenodd" fill-opacity="1" /><path clip-path="url(#clip960)" d="M1650.12 1520.52 L1655.53 1520.52 L1638.98 1574.09 L1633.57 1574.09 L1650.12 1520.52 Z" fill="#000000" fill-rule="evenodd" fill-opacity="1" /><path clip-path="url(#clip960)" d="M1661.45 1518.52 L1667.34 1518.52 L1667.34 1547.77 L1684.81 1532.4 L1692.29 1532.4 L1673.39 1549.07 L1693.09 1568.04 L1685.45 1568.04 L1667.34 1550.63 L1667.34 1568.04 L1661.45 1568.04 L1661.45 1518.52 Z" fill="#000000" fill-rule="evenodd" fill-opacity="1" /><path clip-path="url(#clip960)" d="M1722.88 1549.81 Q1722.88 1543.44 1720.24 1539.94 Q1717.63 1536.44 1712.89 1536.44 Q1708.18 1536.44 1705.53 1539.94 Q1702.92 1543.44 1702.92 1549.81 Q1702.92 1556.14 1705.53 1559.64 Q1708.18 1563.14 1712.89 1563.14 Q1717.63 1563.14 1720.24 1559.64 Q1722.88 1556.14 1722.88 1549.81 M1728.74 1563.62 Q1728.74 1572.72 1724.69 1577.15 Q1720.65 1581.6 1712.31 1581.6 Q1709.23 1581.6 1706.49 1581.13 Q1703.75 1580.68 1701.17 1579.72 L1701.17 1574.03 Q1703.75 1575.43 1706.27 1576.1 Q1708.78 1576.76 1711.39 1576.76 Q1717.15 1576.76 1720.02 1573.74 Q1722.88 1570.75 1722.88 1564.67 L1722.88 1561.77 Q1721.07 1564.92 1718.23 1566.48 Q1715.4 1568.04 1711.45 1568.04 Q1704.9 1568.04 1700.89 1563.05 Q1696.88 1558.05 1696.88 1549.81 Q1696.88 1541.53 1700.89 1536.53 Q1704.9 1531.54 1711.45 1531.54 Q1715.4 1531.54 1718.23 1533.1 Q1721.07 1534.66 1722.88 1537.81 L1722.88 1532.4 L1728.74 1532.4 L1728.74 1563.62 Z" fill="#000000" fill-rule="evenodd" fill-opacity="1" /><path clip-path="url(#clip960)" d="M1754.49 1518.52 L1754.49 1576.64 L1740.99 1576.64 L1740.99 1572.09 L1748.6 1572.09 L1748.6 1523.07 L1740.99 1523.07 L1740.99 1518.52 L1754.49 1518.52 Z" fill="#000000" fill-rule="evenodd" fill-opacity="1" /><polyline clip-path="url(#clip962)" style="stroke:#000000; stroke-linecap:butt; stroke-linejoin:round; stroke-width:2; stroke-opacity:0.1; fill:none" points="
  400.671,1384.24 2352.76,1384.24 
  "/>
<polyline clip-path="url(#clip962)" style="stroke:#000000; stroke-linecap:butt; stroke-linejoin:round; stroke-width:2; stroke-opacity:0.1; fill:none" points="
  400.671,1188.51 2352.76,1188.51 
  "/>
<polyline clip-path="url(#clip962)" style="stroke:#000000; stroke-linecap:butt; stroke-linejoin:round; stroke-width:2; stroke-opacity:0.1; fill:none" points="
  400.671,992.783 2352.76,992.783 
  "/>
<polyline clip-path="url(#clip962)" style="stroke:#000000; stroke-linecap:butt; stroke-linejoin:round; stroke-width:2; stroke-opacity:0.1; fill:none" points="
  400.671,797.055 2352.76,797.055 
  "/>
<polyline clip-path="url(#clip962)" style="stroke:#000000; stroke-linecap:butt; stroke-linejoin:round; stroke-width:2; stroke-opacity:0.1; fill:none" points="
  400.671,601.327 2352.76,601.327 
  "/>
<polyline clip-path="url(#clip962)" style="stroke:#000000; stroke-linecap:butt; stroke-linejoin:round; stroke-width:2; stroke-opacity:0.1; fill:none" points="
  400.671,405.599 2352.76,405.599 
  "/>
<polyline clip-path="url(#clip962)" style="stroke:#000000; stroke-linecap:butt; stroke-linejoin:round; stroke-width:2; stroke-opacity:0.1; fill:none" points="
  400.671,209.871 2352.76,209.871 
  "/>
<polyline clip-path="url(#clip960)" style="stroke:#000000; stroke-linecap:butt; stroke-linejoin:round; stroke-width:4; stroke-opacity:1; fill:none" points="
  400.671,1423.18 400.671,47.2441 
  "/>
<polyline clip-path="url(#clip960)" style="stroke:#000000; stroke-linecap:butt; stroke-linejoin:round; stroke-width:4; stroke-opacity:1; fill:none" points="
  400.671,1384.24 419.569,1384.24 
  "/>
<polyline clip-path="url(#clip960)" style="stroke:#000000; stroke-linecap:butt; stroke-linejoin:round; stroke-width:4; stroke-opacity:1; fill:none" points="
  400.671,1188.51 419.569,1188.51 
  "/>
<polyline clip-path="url(#clip960)" style="stroke:#000000; stroke-linecap:butt; stroke-linejoin:round; stroke-width:4; stroke-opacity:1; fill:none" points="
  400.671,992.783 419.569,992.783 
  "/>
<polyline clip-path="url(#clip960)" style="stroke:#000000; stroke-linecap:butt; stroke-linejoin:round; stroke-width:4; stroke-opacity:1; fill:none" points="
  400.671,797.055 419.569,797.055 
  "/>
<polyline clip-path="url(#clip960)" style="stroke:#000000; stroke-linecap:butt; stroke-linejoin:round; stroke-width:4; stroke-opacity:1; fill:none" points="
  400.671,601.327 419.569,601.327 
  "/>
<polyline clip-path="url(#clip960)" style="stroke:#000000; stroke-linecap:butt; stroke-linejoin:round; stroke-width:4; stroke-opacity:1; fill:none" points="
  400.671,405.599 419.569,405.599 
  "/>
<polyline clip-path="url(#clip960)" style="stroke:#000000; stroke-linecap:butt; stroke-linejoin:round; stroke-width:4; stroke-opacity:1; fill:none" points="
  400.671,209.871 419.569,209.871 
  "/>
<path clip-path="url(#clip960)" d="M352.727 1370.04 Q349.116 1370.04 347.287 1373.6 Q345.481 1377.14 345.481 1384.27 Q345.481 1391.38 347.287 1394.94 Q349.116 1398.49 352.727 1398.49 Q356.361 1398.49 358.167 1394.94 Q359.995 1391.38 359.995 1384.27 Q359.995 1377.14 358.167 1373.6 Q356.361 1370.04 352.727 1370.04 M352.727 1366.33 Q358.537 1366.33 361.592 1370.94 Q364.671 1375.52 364.671 1384.27 Q364.671 1393 361.592 1397.61 Q358.537 1402.19 352.727 1402.19 Q346.917 1402.19 343.838 1397.61 Q340.782 1393 340.782 1384.27 Q340.782 1375.52 343.838 1370.94 Q346.917 1366.33 352.727 1366.33 Z" fill="#000000" fill-rule="evenodd" fill-opacity="1" /><path clip-path="url(#clip960)" d="M121.043 1208.3 L137.362 1208.3 L137.362 1212.24 L115.418 1212.24 L115.418 1208.3 Q118.08 1205.55 122.663 1200.92 Q127.269 1196.27 128.45 1194.92 Q130.695 1192.4 131.575 1190.66 Q132.478 1188.91 132.478 1187.22 Q132.478 1184.46 130.533 1182.72 Q128.612 1180.99 125.51 1180.99 Q123.311 1180.99 120.857 1181.75 Q118.427 1182.52 115.649 1184.07 L115.649 1179.34 Q118.473 1178.21 120.927 1177.63 Q123.38 1177.05 125.418 1177.05 Q130.788 1177.05 133.982 1179.74 Q137.177 1182.42 137.177 1186.91 Q137.177 1189.04 136.367 1190.97 Q135.579 1192.86 133.473 1195.46 Q132.894 1196.13 129.792 1199.34 Q126.691 1202.54 121.043 1208.3 Z" fill="#000000" fill-rule="evenodd" fill-opacity="1" /><path clip-path="url(#clip960)" d="M147.177 1206.36 L152.061 1206.36 L152.061 1212.24 L147.177 1212.24 L147.177 1206.36 Z" fill="#000000" fill-rule="evenodd" fill-opacity="1" /><path clip-path="url(#clip960)" d="M172.246 1180.76 Q168.635 1180.76 166.806 1184.32 Q165.001 1187.86 165.001 1194.99 Q165.001 1202.1 166.806 1205.66 Q168.635 1209.21 172.246 1209.21 Q175.88 1209.21 177.686 1205.66 Q179.514 1202.1 179.514 1194.99 Q179.514 1187.86 177.686 1184.32 Q175.88 1180.76 172.246 1180.76 M172.246 1177.05 Q178.056 1177.05 181.112 1181.66 Q184.19 1186.24 184.19 1194.99 Q184.19 1203.72 181.112 1208.33 Q178.056 1212.91 172.246 1212.91 Q166.436 1212.91 163.357 1208.33 Q160.302 1203.72 160.302 1194.99 Q160.302 1186.24 163.357 1181.66 Q166.436 1177.05 172.246 1177.05 Z" fill="#000000" fill-rule="evenodd" fill-opacity="1" /><path clip-path="url(#clip960)" d="M202.408 1180.76 Q198.797 1180.76 196.968 1184.32 Q195.163 1187.86 195.163 1194.99 Q195.163 1202.1 196.968 1205.66 Q198.797 1209.21 202.408 1209.21 Q206.042 1209.21 207.848 1205.66 Q209.676 1202.1 209.676 1194.99 Q209.676 1187.86 207.848 1184.32 Q206.042 1180.76 202.408 1180.76 M202.408 1177.05 Q208.218 1177.05 211.274 1181.66 Q214.352 1186.24 214.352 1194.99 Q214.352 1203.72 211.274 1208.33 Q208.218 1212.91 202.408 1212.91 Q196.598 1212.91 193.519 1208.33 Q190.463 1203.72 190.463 1194.99 Q190.463 1186.24 193.519 1181.66 Q196.598 1177.05 202.408 1177.05 Z" fill="#000000" fill-rule="evenodd" fill-opacity="1" /><path clip-path="url(#clip960)" d="M250.741 1186.78 L240.162 1197.4 L250.741 1207.98 L247.986 1210.78 L237.361 1200.16 L226.736 1210.78 L224.005 1207.98 L234.56 1197.4 L224.005 1186.78 L226.736 1183.97 L237.361 1194.6 L247.986 1183.97 L250.741 1186.78 Z" fill="#000000" fill-rule="evenodd" fill-opacity="1" /><path clip-path="url(#clip960)" d="M263.102 1208.3 L270.741 1208.3 L270.741 1181.94 L262.431 1183.6 L262.431 1179.34 L270.695 1177.68 L275.37 1177.68 L275.37 1208.3 L283.009 1208.3 L283.009 1212.24 L263.102 1212.24 L263.102 1208.3 Z" fill="#000000" fill-rule="evenodd" fill-opacity="1" /><path clip-path="url(#clip960)" d="M302.454 1180.76 Q298.843 1180.76 297.014 1184.32 Q295.208 1187.86 295.208 1194.99 Q295.208 1202.1 297.014 1205.66 Q298.843 1209.21 302.454 1209.21 Q306.088 1209.21 307.893 1205.66 Q309.722 1202.1 309.722 1194.99 Q309.722 1187.86 307.893 1184.32 Q306.088 1180.76 302.454 1180.76 M302.454 1177.05 Q308.264 1177.05 311.319 1181.66 Q314.398 1186.24 314.398 1194.99 Q314.398 1203.72 311.319 1208.33 Q308.264 1212.91 302.454 1212.91 Q296.643 1212.91 293.565 1208.33 Q290.509 1203.72 290.509 1194.99 Q290.509 1186.24 293.565 1181.66 Q296.643 1177.05 302.454 1177.05 Z" fill="#000000" fill-rule="evenodd" fill-opacity="1" /><path clip-path="url(#clip960)" d="M314.398 1171.15 L338.51 1171.15 L338.51 1174.35 L314.398 1174.35 L314.398 1171.15 Z" fill="#000000" fill-rule="evenodd" fill-opacity="1" /><path clip-path="url(#clip960)" d="M355.305 1169.27 Q352.747 1169.27 351.242 1171.02 Q349.757 1172.77 349.757 1175.82 Q349.757 1178.85 351.242 1180.61 Q352.747 1182.36 355.305 1182.36 Q357.863 1182.36 359.349 1180.61 Q360.853 1178.85 360.853 1175.82 Q360.853 1172.77 359.349 1171.02 Q357.863 1169.27 355.305 1169.27 M362.847 1157.37 L362.847 1160.83 Q361.417 1160.15 359.95 1159.79 Q358.502 1159.44 357.073 1159.44 Q353.311 1159.44 351.318 1161.98 Q349.343 1164.52 349.061 1169.65 Q350.17 1168.01 351.844 1167.15 Q353.518 1166.26 355.531 1166.26 Q359.762 1166.26 362.207 1168.84 Q364.671 1171.4 364.671 1175.82 Q364.671 1180.14 362.113 1182.76 Q359.555 1185.37 355.305 1185.37 Q350.434 1185.37 347.857 1181.65 Q345.28 1177.91 345.28 1170.82 Q345.28 1164.16 348.44 1160.21 Q351.6 1156.24 356.922 1156.24 Q358.352 1156.24 359.8 1156.52 Q361.267 1156.8 362.847 1157.37 Z" fill="#000000" fill-rule="evenodd" fill-opacity="1" /><path clip-path="url(#clip960)" d="M129.862 986.025 L118.056 1004.47 L129.862 1004.47 L129.862 986.025 M128.635 981.95 L134.515 981.95 L134.515 1004.47 L139.445 1004.47 L139.445 1008.36 L134.515 1008.36 L134.515 1016.51 L129.862 1016.51 L129.862 1008.36 L114.26 1008.36 L114.26 1003.85 L128.635 981.95 Z" fill="#000000" fill-rule="evenodd" fill-opacity="1" /><path clip-path="url(#clip960)" d="M147.177 1010.63 L152.061 1010.63 L152.061 1016.51 L147.177 1016.51 L147.177 1010.63 Z" fill="#000000" fill-rule="evenodd" fill-opacity="1" /><path clip-path="url(#clip960)" d="M172.246 985.029 Q168.635 985.029 166.806 988.594 Q165.001 992.136 165.001 999.265 Q165.001 1006.37 166.806 1009.94 Q168.635 1013.48 172.246 1013.48 Q175.88 1013.48 177.686 1009.94 Q179.514 1006.37 179.514 999.265 Q179.514 992.136 177.686 988.594 Q175.88 985.029 172.246 985.029 M172.246 981.325 Q178.056 981.325 181.112 985.932 Q184.19 990.515 184.19 999.265 Q184.19 1007.99 181.112 1012.6 Q178.056 1017.18 172.246 1017.18 Q166.436 1017.18 163.357 1012.6 Q160.302 1007.99 160.302 999.265 Q160.302 990.515 163.357 985.932 Q166.436 981.325 172.246 981.325 Z" fill="#000000" fill-rule="evenodd" fill-opacity="1" /><path clip-path="url(#clip960)" d="M202.408 985.029 Q198.797 985.029 196.968 988.594 Q195.163 992.136 195.163 999.265 Q195.163 1006.37 196.968 1009.94 Q198.797 1013.48 202.408 1013.48 Q206.042 1013.48 207.848 1009.94 Q209.676 1006.37 209.676 999.265 Q209.676 992.136 207.848 988.594 Q206.042 985.029 202.408 985.029 M202.408 981.325 Q208.218 981.325 211.274 985.932 Q214.352 990.515 214.352 999.265 Q214.352 1007.99 211.274 1012.6 Q208.218 1017.18 202.408 1017.18 Q196.598 1017.18 193.519 1012.6 Q190.463 1007.99 190.463 999.265 Q190.463 990.515 193.519 985.932 Q196.598 981.325 202.408 981.325 Z" fill="#000000" fill-rule="evenodd" fill-opacity="1" /><path clip-path="url(#clip960)" d="M250.741 991.048 L240.162 1001.67 L250.741 1012.25 L247.986 1015.05 L237.361 1004.43 L226.736 1015.05 L224.005 1012.25 L234.56 1001.67 L224.005 991.048 L226.736 988.247 L237.361 998.872 L247.986 988.247 L250.741 991.048 Z" fill="#000000" fill-rule="evenodd" fill-opacity="1" /><path clip-path="url(#clip960)" d="M263.102 1012.58 L270.741 1012.58 L270.741 986.21 L262.431 987.876 L262.431 983.617 L270.695 981.95 L275.37 981.95 L275.37 1012.58 L283.009 1012.58 L283.009 1016.51 L263.102 1016.51 L263.102 1012.58 Z" fill="#000000" fill-rule="evenodd" fill-opacity="1" /><path clip-path="url(#clip960)" d="M302.454 985.029 Q298.843 985.029 297.014 988.594 Q295.208 992.136 295.208 999.265 Q295.208 1006.37 297.014 1009.94 Q298.843 1013.48 302.454 1013.48 Q306.088 1013.48 307.893 1009.94 Q309.722 1006.37 309.722 999.265 Q309.722 992.136 307.893 988.594 Q306.088 985.029 302.454 985.029 M302.454 981.325 Q308.264 981.325 311.319 985.932 Q314.398 990.515 314.398 999.265 Q314.398 1007.99 311.319 1012.6 Q308.264 1017.18 302.454 1017.18 Q296.643 1017.18 293.565 1012.6 Q290.509 1007.99 290.509 999.265 Q290.509 990.515 293.565 985.932 Q296.643 981.325 302.454 981.325 Z" fill="#000000" fill-rule="evenodd" fill-opacity="1" /><path clip-path="url(#clip960)" d="M314.398 975.427 L338.51 975.427 L338.51 978.624 L314.398 978.624 L314.398 975.427 Z" fill="#000000" fill-rule="evenodd" fill-opacity="1" /><path clip-path="url(#clip960)" d="M355.305 973.546 Q352.747 973.546 351.242 975.295 Q349.757 977.044 349.757 980.091 Q349.757 983.119 351.242 984.887 Q352.747 986.636 355.305 986.636 Q357.863 986.636 359.349 984.887 Q360.853 983.119 360.853 980.091 Q360.853 977.044 359.349 975.295 Q357.863 973.546 355.305 973.546 M362.847 961.641 L362.847 965.101 Q361.417 964.424 359.95 964.067 Q358.502 963.71 357.073 963.71 Q353.311 963.71 351.318 966.249 Q349.343 968.788 349.061 973.922 Q350.17 972.286 351.844 971.421 Q353.518 970.537 355.531 970.537 Q359.762 970.537 362.207 973.113 Q364.671 975.671 364.671 980.091 Q364.671 984.417 362.113 987.031 Q359.555 989.645 355.305 989.645 Q350.434 989.645 347.857 985.922 Q345.28 982.179 345.28 975.088 Q345.28 968.43 348.44 964.481 Q351.6 960.512 356.922 960.512 Q358.352 960.512 359.8 960.794 Q361.267 961.076 362.847 961.641 Z" fill="#000000" fill-rule="evenodd" fill-opacity="1" /><path clip-path="url(#clip960)" d="M127.593 801.639 Q124.445 801.639 122.593 803.792 Q120.765 805.945 120.765 809.695 Q120.765 813.422 122.593 815.597 Q124.445 817.75 127.593 817.75 Q130.742 817.75 132.57 815.597 Q134.422 813.422 134.422 809.695 Q134.422 805.945 132.57 803.792 Q130.742 801.639 127.593 801.639 M136.876 786.986 L136.876 791.246 Q135.117 790.412 133.311 789.973 Q131.529 789.533 129.769 789.533 Q125.14 789.533 122.686 792.658 Q120.255 795.783 119.908 802.102 Q121.274 800.088 123.334 799.023 Q125.394 797.935 127.871 797.935 Q133.08 797.935 136.089 801.107 Q139.121 804.255 139.121 809.695 Q139.121 815.019 135.973 818.236 Q132.825 821.454 127.593 821.454 Q121.598 821.454 118.427 816.871 Q115.256 812.264 115.256 803.537 Q115.256 795.343 119.144 790.482 Q123.033 785.598 129.584 785.598 Q131.343 785.598 133.126 785.945 Q134.931 786.292 136.876 786.986 Z" fill="#000000" fill-rule="evenodd" fill-opacity="1" /><path clip-path="url(#clip960)" d="M147.177 814.903 L152.061 814.903 L152.061 820.783 L147.177 820.783 L147.177 814.903 Z" fill="#000000" fill-rule="evenodd" fill-opacity="1" /><path clip-path="url(#clip960)" d="M172.246 789.301 Q168.635 789.301 166.806 792.866 Q165.001 796.408 165.001 803.537 Q165.001 810.644 166.806 814.209 Q168.635 817.75 172.246 817.75 Q175.88 817.75 177.686 814.209 Q179.514 810.644 179.514 803.537 Q179.514 796.408 177.686 792.866 Q175.88 789.301 172.246 789.301 M172.246 785.598 Q178.056 785.598 181.112 790.204 Q184.19 794.787 184.19 803.537 Q184.19 812.264 181.112 816.871 Q178.056 821.454 172.246 821.454 Q166.436 821.454 163.357 816.871 Q160.302 812.264 160.302 803.537 Q160.302 794.787 163.357 790.204 Q166.436 785.598 172.246 785.598 Z" fill="#000000" fill-rule="evenodd" fill-opacity="1" /><path clip-path="url(#clip960)" d="M202.408 789.301 Q198.797 789.301 196.968 792.866 Q195.163 796.408 195.163 803.537 Q195.163 810.644 196.968 814.209 Q198.797 817.75 202.408 817.75 Q206.042 817.75 207.848 814.209 Q209.676 810.644 209.676 803.537 Q209.676 796.408 207.848 792.866 Q206.042 789.301 202.408 789.301 M202.408 785.598 Q208.218 785.598 211.274 790.204 Q214.352 794.787 214.352 803.537 Q214.352 812.264 211.274 816.871 Q208.218 821.454 202.408 821.454 Q196.598 821.454 193.519 816.871 Q190.463 812.264 190.463 803.537 Q190.463 794.787 193.519 790.204 Q196.598 785.598 202.408 785.598 Z" fill="#000000" fill-rule="evenodd" fill-opacity="1" /><path clip-path="url(#clip960)" d="M250.741 795.32 L240.162 805.945 L250.741 816.523 L247.986 819.324 L237.361 808.699 L226.736 819.324 L224.005 816.523 L234.56 805.945 L224.005 795.32 L226.736 792.519 L237.361 803.144 L247.986 792.519 L250.741 795.32 Z" fill="#000000" fill-rule="evenodd" fill-opacity="1" /><path clip-path="url(#clip960)" d="M263.102 816.847 L270.741 816.847 L270.741 790.482 L262.431 792.148 L262.431 787.889 L270.695 786.223 L275.37 786.223 L275.37 816.847 L283.009 816.847 L283.009 820.783 L263.102 820.783 L263.102 816.847 Z" fill="#000000" fill-rule="evenodd" fill-opacity="1" /><path clip-path="url(#clip960)" d="M302.454 789.301 Q298.843 789.301 297.014 792.866 Q295.208 796.408 295.208 803.537 Q295.208 810.644 297.014 814.209 Q298.843 817.75 302.454 817.75 Q306.088 817.75 307.893 814.209 Q309.722 810.644 309.722 803.537 Q309.722 796.408 307.893 792.866 Q306.088 789.301 302.454 789.301 M302.454 785.598 Q308.264 785.598 311.319 790.204 Q314.398 794.787 314.398 803.537 Q314.398 812.264 311.319 816.871 Q308.264 821.454 302.454 821.454 Q296.643 821.454 293.565 816.871 Q290.509 812.264 290.509 803.537 Q290.509 794.787 293.565 790.204 Q296.643 785.598 302.454 785.598 Z" fill="#000000" fill-rule="evenodd" fill-opacity="1" /><path clip-path="url(#clip960)" d="M314.398 779.699 L338.51 779.699 L338.51 782.896 L314.398 782.896 L314.398 779.699 Z" fill="#000000" fill-rule="evenodd" fill-opacity="1" /><path clip-path="url(#clip960)" d="M355.305 777.818 Q352.747 777.818 351.242 779.567 Q349.757 781.316 349.757 784.363 Q349.757 787.391 351.242 789.159 Q352.747 790.908 355.305 790.908 Q357.863 790.908 359.349 789.159 Q360.853 787.391 360.853 784.363 Q360.853 781.316 359.349 779.567 Q357.863 777.818 355.305 777.818 M362.847 765.913 L362.847 769.373 Q361.417 768.696 359.95 768.339 Q358.502 767.982 357.073 767.982 Q353.311 767.982 351.318 770.521 Q349.343 773.06 349.061 778.194 Q350.17 776.558 351.844 775.693 Q353.518 774.809 355.531 774.809 Q359.762 774.809 362.207 777.386 Q364.671 779.943 364.671 784.363 Q364.671 788.689 362.113 791.303 Q359.555 793.918 355.305 793.918 Q350.434 793.918 347.857 790.194 Q345.28 786.451 345.28 779.36 Q345.28 772.702 348.44 768.753 Q351.6 764.784 356.922 764.784 Q358.352 764.784 359.8 765.066 Q361.267 765.349 362.847 765.913 Z" fill="#000000" fill-rule="evenodd" fill-opacity="1" /><path clip-path="url(#clip960)" d="M127.015 608.643 Q123.681 608.643 121.76 610.425 Q119.862 612.208 119.862 615.333 Q119.862 618.458 121.76 620.24 Q123.681 622.022 127.015 622.022 Q130.348 622.022 132.269 620.24 Q134.191 618.434 134.191 615.333 Q134.191 612.208 132.269 610.425 Q130.371 608.643 127.015 608.643 M122.339 606.652 Q119.33 605.911 117.64 603.851 Q115.973 601.791 115.973 598.828 Q115.973 594.685 118.913 592.277 Q121.876 589.87 127.015 589.87 Q132.177 589.87 135.117 592.277 Q138.056 594.685 138.056 598.828 Q138.056 601.791 136.367 603.851 Q134.7 605.911 131.714 606.652 Q135.093 607.439 136.968 609.731 Q138.867 612.022 138.867 615.333 Q138.867 620.356 135.788 623.041 Q132.732 625.726 127.015 625.726 Q121.297 625.726 118.218 623.041 Q115.163 620.356 115.163 615.333 Q115.163 612.022 117.061 609.731 Q118.959 607.439 122.339 606.652 M120.626 599.268 Q120.626 601.953 122.293 603.458 Q123.982 604.962 127.015 604.962 Q130.024 604.962 131.714 603.458 Q133.427 601.953 133.427 599.268 Q133.427 596.583 131.714 595.078 Q130.024 593.573 127.015 593.573 Q123.982 593.573 122.293 595.078 Q120.626 596.583 120.626 599.268 Z" fill="#000000" fill-rule="evenodd" fill-opacity="1" /><path clip-path="url(#clip960)" d="M147.177 619.175 L152.061 619.175 L152.061 625.055 L147.177 625.055 L147.177 619.175 Z" fill="#000000" fill-rule="evenodd" fill-opacity="1" /><path clip-path="url(#clip960)" d="M172.246 593.573 Q168.635 593.573 166.806 597.138 Q165.001 600.68 165.001 607.809 Q165.001 614.916 166.806 618.481 Q168.635 622.022 172.246 622.022 Q175.88 622.022 177.686 618.481 Q179.514 614.916 179.514 607.809 Q179.514 600.68 177.686 597.138 Q175.88 593.573 172.246 593.573 M172.246 589.87 Q178.056 589.87 181.112 594.476 Q184.19 599.059 184.19 607.809 Q184.19 616.536 181.112 621.143 Q178.056 625.726 172.246 625.726 Q166.436 625.726 163.357 621.143 Q160.302 616.536 160.302 607.809 Q160.302 599.059 163.357 594.476 Q166.436 589.87 172.246 589.87 Z" fill="#000000" fill-rule="evenodd" fill-opacity="1" /><path clip-path="url(#clip960)" d="M202.408 593.573 Q198.797 593.573 196.968 597.138 Q195.163 600.68 195.163 607.809 Q195.163 614.916 196.968 618.481 Q198.797 622.022 202.408 622.022 Q206.042 622.022 207.848 618.481 Q209.676 614.916 209.676 607.809 Q209.676 600.68 207.848 597.138 Q206.042 593.573 202.408 593.573 M202.408 589.87 Q208.218 589.87 211.274 594.476 Q214.352 599.059 214.352 607.809 Q214.352 616.536 211.274 621.143 Q208.218 625.726 202.408 625.726 Q196.598 625.726 193.519 621.143 Q190.463 616.536 190.463 607.809 Q190.463 599.059 193.519 594.476 Q196.598 589.87 202.408 589.87 Z" fill="#000000" fill-rule="evenodd" fill-opacity="1" /><path clip-path="url(#clip960)" d="M250.741 599.592 L240.162 610.217 L250.741 620.795 L247.986 623.596 L237.361 612.971 L226.736 623.596 L224.005 620.795 L234.56 610.217 L224.005 599.592 L226.736 596.791 L237.361 607.416 L247.986 596.791 L250.741 599.592 Z" fill="#000000" fill-rule="evenodd" fill-opacity="1" /><path clip-path="url(#clip960)" d="M263.102 621.12 L270.741 621.12 L270.741 594.754 L262.431 596.421 L262.431 592.161 L270.695 590.495 L275.37 590.495 L275.37 621.12 L283.009 621.12 L283.009 625.055 L263.102 625.055 L263.102 621.12 Z" fill="#000000" fill-rule="evenodd" fill-opacity="1" /><path clip-path="url(#clip960)" d="M302.454 593.573 Q298.843 593.573 297.014 597.138 Q295.208 600.68 295.208 607.809 Q295.208 614.916 297.014 618.481 Q298.843 622.022 302.454 622.022 Q306.088 622.022 307.893 618.481 Q309.722 614.916 309.722 607.809 Q309.722 600.68 307.893 597.138 Q306.088 593.573 302.454 593.573 M302.454 589.87 Q308.264 589.87 311.319 594.476 Q314.398 599.059 314.398 607.809 Q314.398 616.536 311.319 621.143 Q308.264 625.726 302.454 625.726 Q296.643 625.726 293.565 621.143 Q290.509 616.536 290.509 607.809 Q290.509 599.059 293.565 594.476 Q296.643 589.87 302.454 589.87 Z" fill="#000000" fill-rule="evenodd" fill-opacity="1" /><path clip-path="url(#clip960)" d="M314.398 583.971 L338.51 583.971 L338.51 587.168 L314.398 587.168 L314.398 583.971 Z" fill="#000000" fill-rule="evenodd" fill-opacity="1" /><path clip-path="url(#clip960)" d="M355.305 582.09 Q352.747 582.09 351.242 583.839 Q349.757 585.589 349.757 588.635 Q349.757 591.663 351.242 593.431 Q352.747 595.18 355.305 595.18 Q357.863 595.18 359.349 593.431 Q360.853 591.663 360.853 588.635 Q360.853 585.589 359.349 583.839 Q357.863 582.09 355.305 582.09 M362.847 570.185 L362.847 573.646 Q361.417 572.969 359.95 572.611 Q358.502 572.254 357.073 572.254 Q353.311 572.254 351.318 574.793 Q349.343 577.332 349.061 582.466 Q350.17 580.83 351.844 579.965 Q353.518 579.081 355.531 579.081 Q359.762 579.081 362.207 581.658 Q364.671 584.216 364.671 588.635 Q364.671 592.961 362.113 595.575 Q359.555 598.19 355.305 598.19 Q350.434 598.19 347.857 594.466 Q345.28 590.723 345.28 583.633 Q345.28 576.975 348.44 573.025 Q351.6 569.056 356.922 569.056 Q358.352 569.056 359.8 569.339 Q361.267 569.621 362.847 570.185 Z" fill="#000000" fill-rule="evenodd" fill-opacity="1" /><path clip-path="url(#clip960)" d="M118.765 425.392 L126.404 425.392 L126.404 399.026 L118.094 400.693 L118.094 396.433 L126.358 394.767 L131.034 394.767 L131.034 425.392 L138.673 425.392 L138.673 429.327 L118.765 429.327 L118.765 425.392 Z" fill="#000000" fill-rule="evenodd" fill-opacity="1" /><path clip-path="url(#clip960)" d="M148.117 423.447 L153.001 423.447 L153.001 429.327 L148.117 429.327 L148.117 423.447 Z" fill="#000000" fill-rule="evenodd" fill-opacity="1" /><path clip-path="url(#clip960)" d="M173.186 397.846 Q169.575 397.846 167.747 401.41 Q165.941 404.952 165.941 412.082 Q165.941 419.188 167.747 422.753 Q169.575 426.294 173.186 426.294 Q176.821 426.294 178.626 422.753 Q180.455 419.188 180.455 412.082 Q180.455 404.952 178.626 401.41 Q176.821 397.846 173.186 397.846 M173.186 394.142 Q178.997 394.142 182.052 398.748 Q185.131 403.332 185.131 412.082 Q185.131 420.808 182.052 425.415 Q178.997 429.998 173.186 429.998 Q167.376 429.998 164.298 425.415 Q161.242 420.808 161.242 412.082 Q161.242 403.332 164.298 398.748 Q167.376 394.142 173.186 394.142 Z" fill="#000000" fill-rule="evenodd" fill-opacity="1" /><path clip-path="url(#clip960)" d="M203.348 397.846 Q199.737 397.846 197.908 401.41 Q196.103 404.952 196.103 412.082 Q196.103 419.188 197.908 422.753 Q199.737 426.294 203.348 426.294 Q206.982 426.294 208.788 422.753 Q210.617 419.188 210.617 412.082 Q210.617 404.952 208.788 401.41 Q206.982 397.846 203.348 397.846 M203.348 394.142 Q209.158 394.142 212.214 398.748 Q215.293 403.332 215.293 412.082 Q215.293 420.808 212.214 425.415 Q209.158 429.998 203.348 429.998 Q197.538 429.998 194.459 425.415 Q191.404 420.808 191.404 412.082 Q191.404 403.332 194.459 398.748 Q197.538 394.142 203.348 394.142 Z" fill="#000000" fill-rule="evenodd" fill-opacity="1" /><path clip-path="url(#clip960)" d="M251.681 403.864 L241.103 414.489 L251.681 425.068 L248.927 427.869 L238.302 417.244 L227.677 427.869 L224.945 425.068 L235.501 414.489 L224.945 403.864 L227.677 401.063 L238.302 411.688 L248.927 401.063 L251.681 403.864 Z" fill="#000000" fill-rule="evenodd" fill-opacity="1" /><path clip-path="url(#clip960)" d="M264.042 425.392 L271.681 425.392 L271.681 399.026 L263.371 400.693 L263.371 396.433 L271.635 394.767 L276.311 394.767 L276.311 425.392 L283.95 425.392 L283.95 429.327 L264.042 429.327 L264.042 425.392 Z" fill="#000000" fill-rule="evenodd" fill-opacity="1" /><path clip-path="url(#clip960)" d="M303.394 397.846 Q299.783 397.846 297.954 401.41 Q296.149 404.952 296.149 412.082 Q296.149 419.188 297.954 422.753 Q299.783 426.294 303.394 426.294 Q307.028 426.294 308.834 422.753 Q310.662 419.188 310.662 412.082 Q310.662 404.952 308.834 401.41 Q307.028 397.846 303.394 397.846 M303.394 394.142 Q309.204 394.142 312.26 398.748 Q315.338 403.332 315.338 412.082 Q315.338 420.808 312.26 425.415 Q309.204 429.998 303.394 429.998 Q297.584 429.998 294.505 425.415 Q291.45 420.808 291.45 412.082 Q291.45 403.332 294.505 398.748 Q297.584 394.142 303.394 394.142 Z" fill="#000000" fill-rule="evenodd" fill-opacity="1" /><path clip-path="url(#clip960)" d="M315.338 388.243 L339.45 388.243 L339.45 391.441 L315.338 391.441 L315.338 388.243 Z" fill="#000000" fill-rule="evenodd" fill-opacity="1" /><path clip-path="url(#clip960)" d="M347.688 373.836 L362.602 373.836 L362.602 377.034 L351.167 377.034 L351.167 383.917 Q351.995 383.635 352.822 383.504 Q353.65 383.353 354.477 383.353 Q359.179 383.353 361.925 385.93 Q364.671 388.506 364.671 392.908 Q364.671 397.44 361.85 399.96 Q359.029 402.462 353.894 402.462 Q352.126 402.462 350.283 402.161 Q348.459 401.86 346.503 401.258 L346.503 397.44 Q348.196 398.362 350.001 398.813 Q351.807 399.265 353.819 399.265 Q357.073 399.265 358.972 397.553 Q360.872 395.842 360.872 392.908 Q360.872 389.974 358.972 388.262 Q357.073 386.55 353.819 386.55 Q352.296 386.55 350.772 386.889 Q349.268 387.228 347.688 387.942 L347.688 373.836 Z" fill="#000000" fill-rule="evenodd" fill-opacity="1" /><path clip-path="url(#clip960)" d="M118.765 229.664 L126.404 229.664 L126.404 203.298 L118.094 204.965 L118.094 200.706 L126.358 199.039 L131.034 199.039 L131.034 229.664 L138.673 229.664 L138.673 233.599 L118.765 233.599 L118.765 229.664 Z" fill="#000000" fill-rule="evenodd" fill-opacity="1" /><path clip-path="url(#clip960)" d="M148.117 227.719 L153.001 227.719 L153.001 233.599 L148.117 233.599 L148.117 227.719 Z" fill="#000000" fill-rule="evenodd" fill-opacity="1" /><path clip-path="url(#clip960)" d="M167.214 229.664 L183.534 229.664 L183.534 233.599 L161.589 233.599 L161.589 229.664 Q164.251 226.909 168.835 222.28 Q173.441 217.627 174.622 216.284 Q176.867 213.761 177.747 212.025 Q178.649 210.266 178.649 208.576 Q178.649 205.821 176.705 204.085 Q174.784 202.349 171.682 202.349 Q169.483 202.349 167.029 203.113 Q164.598 203.877 161.821 205.428 L161.821 200.706 Q164.645 199.571 167.098 198.993 Q169.552 198.414 171.589 198.414 Q176.959 198.414 180.154 201.099 Q183.348 203.784 183.348 208.275 Q183.348 210.405 182.538 212.326 Q181.751 214.224 179.645 216.817 Q179.066 217.488 175.964 220.706 Q172.862 223.9 167.214 229.664 Z" fill="#000000" fill-rule="evenodd" fill-opacity="1" /><path clip-path="url(#clip960)" d="M203.348 202.118 Q199.737 202.118 197.908 205.682 Q196.103 209.224 196.103 216.354 Q196.103 223.46 197.908 227.025 Q199.737 230.567 203.348 230.567 Q206.982 230.567 208.788 227.025 Q210.617 223.46 210.617 216.354 Q210.617 209.224 208.788 205.682 Q206.982 202.118 203.348 202.118 M203.348 198.414 Q209.158 198.414 212.214 203.02 Q215.293 207.604 215.293 216.354 Q215.293 225.08 212.214 229.687 Q209.158 234.27 203.348 234.27 Q197.538 234.27 194.459 229.687 Q191.404 225.08 191.404 216.354 Q191.404 207.604 194.459 203.02 Q197.538 198.414 203.348 198.414 Z" fill="#000000" fill-rule="evenodd" fill-opacity="1" /><path clip-path="url(#clip960)" d="M251.681 208.136 L241.103 218.761 L251.681 229.34 L248.927 232.141 L238.302 221.516 L227.677 232.141 L224.945 229.34 L235.501 218.761 L224.945 208.136 L227.677 205.335 L238.302 215.96 L248.927 205.335 L251.681 208.136 Z" fill="#000000" fill-rule="evenodd" fill-opacity="1" /><path clip-path="url(#clip960)" d="M264.042 229.664 L271.681 229.664 L271.681 203.298 L263.371 204.965 L263.371 200.706 L271.635 199.039 L276.311 199.039 L276.311 229.664 L283.95 229.664 L283.95 233.599 L264.042 233.599 L264.042 229.664 Z" fill="#000000" fill-rule="evenodd" fill-opacity="1" /><path clip-path="url(#clip960)" d="M303.394 202.118 Q299.783 202.118 297.954 205.682 Q296.149 209.224 296.149 216.354 Q296.149 223.46 297.954 227.025 Q299.783 230.567 303.394 230.567 Q307.028 230.567 308.834 227.025 Q310.662 223.46 310.662 216.354 Q310.662 209.224 308.834 205.682 Q307.028 202.118 303.394 202.118 M303.394 198.414 Q309.204 198.414 312.26 203.02 Q315.338 207.604 315.338 216.354 Q315.338 225.08 312.26 229.687 Q309.204 234.27 303.394 234.27 Q297.584 234.27 294.505 229.687 Q291.45 225.08 291.45 216.354 Q291.45 207.604 294.505 203.02 Q297.584 198.414 303.394 198.414 Z" fill="#000000" fill-rule="evenodd" fill-opacity="1" /><path clip-path="url(#clip960)" d="M315.338 192.515 L339.45 192.515 L339.45 195.713 L315.338 195.713 L315.338 192.515 Z" fill="#000000" fill-rule="evenodd" fill-opacity="1" /><path clip-path="url(#clip960)" d="M347.688 178.109 L362.602 178.109 L362.602 181.306 L351.167 181.306 L351.167 188.19 Q351.995 187.907 352.822 187.776 Q353.65 187.625 354.477 187.625 Q359.179 187.625 361.925 190.202 Q364.671 192.779 364.671 197.18 Q364.671 201.712 361.85 204.233 Q359.029 206.734 353.894 206.734 Q352.126 206.734 350.283 206.433 Q348.459 206.132 346.503 205.53 L346.503 201.712 Q348.196 202.634 350.001 203.085 Q351.807 203.537 353.819 203.537 Q357.073 203.537 358.972 201.825 Q360.872 200.114 360.872 197.18 Q360.872 194.246 358.972 192.534 Q357.073 190.823 353.819 190.823 Q352.296 190.823 350.772 191.161 Q349.268 191.5 347.688 192.214 L347.688 178.109 Z" fill="#000000" fill-rule="evenodd" fill-opacity="1" /><path clip-path="url(#clip960)" d="M46.0847 1024.06 Q46.0847 1031.15 47.7079 1033.89 Q49.3312 1036.63 53.2461 1036.63 Q56.3653 1036.63 58.2114 1034.59 Q60.0256 1032.52 60.0256 1028.99 Q60.0256 1024.12 56.5881 1021.19 Q53.1188 1018.23 47.3897 1018.23 L46.0847 1018.23 L46.0847 1024.06 M43.6657 1012.37 L64.0042 1012.37 L64.0042 1018.23 L58.5933 1018.23 Q61.8398 1020.24 63.3994 1023.23 Q64.9272 1026.22 64.9272 1030.55 Q64.9272 1036.02 61.8716 1039.27 Q58.7843 1042.48 53.6281 1042.48 Q47.6125 1042.48 44.5569 1038.47 Q41.5014 1034.43 41.5014 1026.44 L41.5014 1018.23 L40.9285 1018.23 Q36.8862 1018.23 34.6901 1020.9 Q32.4621 1023.55 32.4621 1028.35 Q32.4621 1031.41 33.1941 1034.3 Q33.9262 1037.2 35.3903 1039.87 L29.9795 1039.87 Q28.7381 1036.66 28.1334 1033.64 Q27.4968 1030.61 27.4968 1027.75 Q27.4968 1020.01 31.5072 1016.19 Q35.5176 1012.37 43.6657 1012.37 Z" fill="#000000" fill-rule="evenodd" fill-opacity="1" /><path clip-path="url(#clip960)" d="M29.7248 974.658 L35.1993 974.658 Q33.8307 977.141 33.1623 979.655 Q32.4621 982.138 32.4621 984.684 Q32.4621 990.381 36.0905 993.532 Q39.6872 996.683 46.212 996.683 Q52.7369 996.683 56.3653 993.532 Q59.9619 990.381 59.9619 984.684 Q59.9619 982.138 59.2935 979.655 Q58.5933 977.141 57.2247 974.658 L62.6355 974.658 Q63.7814 977.109 64.3543 979.751 Q64.9272 982.361 64.9272 985.321 Q64.9272 993.373 59.8664 998.116 Q54.8057 1002.86 46.212 1002.86 Q37.491 1002.86 32.4939 998.084 Q27.4968 993.278 27.4968 984.939 Q27.4968 982.233 28.0697 979.655 Q28.6108 977.077 29.7248 974.658 Z" fill="#000000" fill-rule="evenodd" fill-opacity="1" /><path clip-path="url(#clip960)" d="M29.7248 938.819 L35.1993 938.819 Q33.8307 941.302 33.1623 943.816 Q32.4621 946.299 32.4621 948.845 Q32.4621 954.542 36.0905 957.693 Q39.6872 960.844 46.212 960.844 Q52.7369 960.844 56.3653 957.693 Q59.9619 954.542 59.9619 948.845 Q59.9619 946.299 59.2935 943.816 Q58.5933 941.302 57.2247 938.819 L62.6355 938.819 Q63.7814 941.27 64.3543 943.912 Q64.9272 946.522 64.9272 949.482 Q64.9272 957.534 59.8664 962.277 Q54.8057 967.019 46.212 967.019 Q37.491 967.019 32.4939 962.245 Q27.4968 957.439 27.4968 949.1 Q27.4968 946.394 28.0697 943.816 Q28.6108 941.238 29.7248 938.819 Z" fill="#000000" fill-rule="evenodd" fill-opacity="1" /><path clip-path="url(#clip960)" d="M33.8307 907.977 Q33.2578 908.964 33.0032 910.142 Q32.7167 911.287 32.7167 912.688 Q32.7167 917.653 35.9632 920.327 Q39.1779 922.968 45.2253 922.968 L64.0042 922.968 L64.0042 928.857 L28.3562 928.857 L28.3562 922.968 L33.8944 922.968 Q30.6479 921.122 29.0883 918.162 Q27.4968 915.202 27.4968 910.969 Q27.4968 910.364 27.5923 909.632 Q27.656 908.9 27.8151 908.009 L33.8307 907.977 Z" fill="#000000" fill-rule="evenodd" fill-opacity="1" /><path clip-path="url(#clip960)" d="M44.7161 872.775 L47.5806 872.775 L47.5806 899.702 Q53.6281 899.32 56.8109 896.073 Q59.9619 892.795 59.9619 886.97 Q59.9619 883.597 59.1344 880.446 Q58.3069 877.263 56.6518 874.144 L62.1899 874.144 Q63.5267 877.295 64.227 880.605 Q64.9272 883.915 64.9272 887.321 Q64.9272 895.851 59.9619 900.848 Q54.9967 905.813 46.5303 905.813 Q37.7774 905.813 32.6531 901.102 Q27.4968 896.36 27.4968 888.339 Q27.4968 881.146 32.1438 876.976 Q36.7589 872.775 44.7161 872.775 M42.9973 878.631 Q38.1912 878.695 35.3266 881.337 Q32.4621 883.947 32.4621 888.275 Q32.4621 893.177 35.2312 896.137 Q38.0002 899.065 43.0292 899.511 L42.9973 878.631 Z" fill="#000000" fill-rule="evenodd" fill-opacity="1" /><path clip-path="url(#clip960)" d="M18.2347 857.37 L28.3562 857.37 L28.3562 845.307 L32.9077 845.307 L32.9077 857.37 L52.2594 857.37 Q56.6199 857.37 57.8613 856.192 Q59.1026 854.983 59.1026 851.322 L59.1026 845.307 L64.0042 845.307 L64.0042 851.322 Q64.0042 858.102 61.4897 860.68 Q58.9434 863.258 52.2594 863.258 L32.9077 863.258 L32.9077 867.555 L28.3562 867.555 L28.3562 863.258 L18.2347 863.258 L18.2347 857.37 Z" fill="#000000" fill-rule="evenodd" fill-opacity="1" /><path clip-path="url(#clip960)" d="M28.3562 837.604 L28.3562 831.748 L64.0042 831.748 L64.0042 837.604 L28.3562 837.604 M14.479 837.604 L14.479 831.748 L21.895 831.748 L21.895 837.604 L14.479 837.604 Z" fill="#000000" fill-rule="evenodd" fill-opacity="1" /><path clip-path="url(#clip960)" d="M32.4621 805.68 Q32.4621 810.391 36.1542 813.128 Q39.8145 815.865 46.212 815.865 Q52.6095 815.865 56.3017 813.16 Q59.9619 810.423 59.9619 805.68 Q59.9619 801.002 56.2698 798.264 Q52.5777 795.527 46.212 795.527 Q39.8781 795.527 36.186 798.264 Q32.4621 801.002 32.4621 805.68 M27.4968 805.68 Q27.4968 798.041 32.4621 793.681 Q37.4273 789.32 46.212 789.32 Q54.9649 789.32 59.9619 793.681 Q64.9272 798.041 64.9272 805.68 Q64.9272 813.351 59.9619 817.712 Q54.9649 822.04 46.212 822.04 Q37.4273 822.04 32.4621 817.712 Q27.4968 813.351 27.4968 805.68 Z" fill="#000000" fill-rule="evenodd" fill-opacity="1" /><path clip-path="url(#clip960)" d="M42.4881 749.98 L64.0042 749.98 L64.0042 755.837 L42.679 755.837 Q37.6183 755.837 35.1038 757.81 Q32.5894 759.784 32.5894 763.73 Q32.5894 768.473 35.6131 771.21 Q38.6368 773.947 43.8567 773.947 L64.0042 773.947 L64.0042 779.836 L28.3562 779.836 L28.3562 773.947 L33.8944 773.947 Q30.6797 771.847 29.0883 769.014 Q27.4968 766.149 27.4968 762.425 Q27.4968 756.282 31.3163 753.131 Q35.1038 749.98 42.4881 749.98 Z" fill="#000000" fill-rule="evenodd" fill-opacity="1" /><path clip-path="url(#clip960)" d="M33.8307 696.922 Q33.2578 697.909 33.0032 699.087 Q32.7167 700.232 32.7167 701.633 Q32.7167 706.598 35.9632 709.272 Q39.1779 711.913 45.2253 711.913 L64.0042 711.913 L64.0042 717.802 L28.3562 717.802 L28.3562 711.913 L33.8944 711.913 Q30.6479 710.067 29.0883 707.107 Q27.4968 704.147 27.4968 699.914 Q27.4968 699.309 27.5923 698.577 Q27.656 697.845 27.8151 696.954 L33.8307 696.922 Z" fill="#000000" fill-rule="evenodd" fill-opacity="1" /><path clip-path="url(#clip960)" d="M46.0847 674.579 Q46.0847 681.676 47.7079 684.414 Q49.3312 687.151 53.2461 687.151 Q56.3653 687.151 58.2114 685.114 Q60.0256 683.045 60.0256 679.512 Q60.0256 674.642 56.5881 671.714 Q53.1188 668.754 47.3897 668.754 L46.0847 668.754 L46.0847 674.579 M43.6657 662.898 L64.0042 662.898 L64.0042 668.754 L58.5933 668.754 Q61.8398 670.759 63.3994 673.751 Q64.9272 676.743 64.9272 681.072 Q64.9272 686.546 61.8716 689.793 Q58.7843 693.007 53.6281 693.007 Q47.6125 693.007 44.5569 688.997 Q41.5014 684.955 41.5014 676.966 L41.5014 668.754 L40.9285 668.754 Q36.8862 668.754 34.6901 671.428 Q32.4621 674.069 32.4621 678.875 Q32.4621 681.931 33.1941 684.827 Q33.9262 687.724 35.3903 690.397 L29.9795 690.397 Q28.7381 687.183 28.1334 684.159 Q27.4968 681.135 27.4968 678.271 Q27.4968 670.536 31.5072 666.717 Q35.5176 662.898 43.6657 662.898 Z" fill="#000000" fill-rule="evenodd" fill-opacity="1" /><path clip-path="url(#clip960)" d="M18.2347 645.042 L28.3562 645.042 L28.3562 632.979 L32.9077 632.979 L32.9077 645.042 L52.2594 645.042 Q56.6199 645.042 57.8613 643.864 Q59.1026 642.655 59.1026 638.994 L59.1026 632.979 L64.0042 632.979 L64.0042 638.994 Q64.0042 645.774 61.4897 648.352 Q58.9434 650.93 52.2594 650.93 L32.9077 650.93 L32.9077 655.227 L28.3562 655.227 L28.3562 650.93 L18.2347 650.93 L18.2347 645.042 Z" fill="#000000" fill-rule="evenodd" fill-opacity="1" /><path clip-path="url(#clip960)" d="M44.7161 594.784 L47.5806 594.784 L47.5806 621.711 Q53.6281 621.329 56.8109 618.083 Q59.9619 614.805 59.9619 608.98 Q59.9619 605.606 59.1344 602.455 Q58.3069 599.272 56.6518 596.153 L62.1899 596.153 Q63.5267 599.304 64.227 602.614 Q64.9272 605.924 64.9272 609.33 Q64.9272 617.86 59.9619 622.857 Q54.9967 627.822 46.5303 627.822 Q37.7774 627.822 32.6531 623.112 Q27.4968 618.369 27.4968 610.349 Q27.4968 603.155 32.1438 598.986 Q36.7589 594.784 44.7161 594.784 M42.9973 600.641 Q38.1912 600.705 35.3266 603.346 Q32.4621 605.956 32.4621 610.285 Q32.4621 615.187 35.2312 618.147 Q38.0002 621.075 43.0292 621.52 L42.9973 600.641 Z" fill="#000000" fill-rule="evenodd" fill-opacity="1" /><path clip-path="url(#clip960)" d="M14.479 564.993 L14.479 551.498 L19.0304 551.498 L19.0304 559.137 L68.0464 559.137 L68.0464 551.498 L72.5979 551.498 L72.5979 564.993 L14.479 564.993 Z" fill="#000000" fill-rule="evenodd" fill-opacity="1" /><path clip-path="url(#clip960)" d="M58.5933 537.079 L58.5933 526.576 L22.3406 526.576 L24.6323 538.002 L18.7758 538.002 L16.4842 526.64 L16.4842 520.21 L58.5933 520.21 L58.5933 509.707 L64.0042 509.707 L64.0042 537.079 L58.5933 537.079 Z" fill="#000000" fill-rule="evenodd" fill-opacity="1" /><path clip-path="url(#clip960)" d="M16.4842 487.14 L16.4842 481.73 L70.0516 498.28 L70.0516 503.691 L16.4842 487.14 Z" fill="#000000" fill-rule="evenodd" fill-opacity="1" /><path clip-path="url(#clip960)" d="M29.4065 452.861 L34.9447 452.861 Q33.6716 455.344 33.035 458.017 Q32.3984 460.691 32.3984 463.555 Q32.3984 467.916 33.7352 470.112 Q35.072 472.276 37.7456 472.276 Q39.7826 472.276 40.9603 470.717 Q42.1061 469.157 43.1565 464.447 L43.6021 462.441 Q44.9389 456.203 47.3897 453.593 Q49.8086 450.951 54.1691 450.951 Q59.1344 450.951 62.0308 454.898 Q64.9272 458.813 64.9272 465.688 Q64.9272 468.553 64.3543 471.672 Q63.8132 474.759 62.6992 478.197 L56.6518 478.197 Q58.3387 474.95 59.198 471.799 Q60.0256 468.648 60.0256 465.561 Q60.0256 461.423 58.6251 459.195 Q57.1929 456.967 54.6147 456.967 Q52.2276 456.967 50.9545 458.59 Q49.6813 460.182 48.5037 465.624 L48.0262 467.661 Q46.8804 473.104 44.5251 475.523 Q42.138 477.942 38.0002 477.942 Q32.9713 477.942 30.2341 474.377 Q27.4968 470.812 27.4968 464.256 Q27.4968 461.009 27.9743 458.145 Q28.4517 455.28 29.4065 452.861 Z" fill="#000000" fill-rule="evenodd" fill-opacity="1" /><path clip-path="url(#clip960)" d="M14.479 427.939 L72.5979 427.939 L72.5979 441.435 L68.0464 441.435 L68.0464 433.828 L19.0304 433.828 L19.0304 441.435 L14.479 441.435 L14.479 427.939 Z" fill="#000000" fill-rule="evenodd" fill-opacity="1" /><polyline clip-path="url(#clip962)" style="stroke:#009af9; stroke-linecap:butt; stroke-linejoin:round; stroke-width:12; stroke-opacity:1; fill:none" points="
  455.919,1384.23 474.521,1365.61 493.123,1350.07 511.725,1335.52 530.326,1321.57 548.928,1308.06 567.53,1294.89 586.132,1281.99 604.734,1269.31 623.336,1256.84 
  641.938,1244.53 660.54,1232.38 679.142,1220.37 697.744,1208.48 716.346,1196.71 734.948,1185.04 753.549,1173.47 772.151,1161.99 790.753,1150.59 809.355,1139.27 
  827.957,1128.02 846.559,1116.85 865.161,1105.74 883.763,1094.69 902.365,1083.71 920.967,1072.78 939.569,1061.91 958.17,1051.08 976.772,1040.31 995.374,1029.59 
  1013.98,1018.91 1032.58,1008.28 1051.18,997.685 1069.78,987.136 1088.38,976.626 1106.99,966.156 1125.59,955.722 1144.19,945.325 1162.79,934.962 1181.39,924.634 
  1200,914.339 1218.6,904.076 1237.2,893.844 1255.8,883.642 1274.4,873.471 1293,863.328 1311.61,853.213 1330.21,843.125 1348.81,833.065 1367.41,823.03 
  1386.01,813.022 1404.62,803.038 1423.22,793.078 1441.82,783.143 1460.42,773.231 1479.02,763.342 1497.63,753.475 1516.23,743.63 1534.83,733.807 1553.43,724.005 
  1572.03,714.224 1590.64,704.463 1609.24,694.722 1627.84,685.001 1646.44,675.299 1665.04,665.615 1683.65,655.951 1702.25,646.305 1720.85,636.677 1739.45,627.066 
  1758.05,617.473 1776.65,607.897 1795.26,598.338 1813.86,588.795 1832.46,579.269 1851.06,569.759 1869.66,560.264 1888.27,550.785 1906.87,541.322 1925.47,531.874 
  1944.07,522.441 1962.67,513.022 1981.28,503.618 1999.88,494.228 2018.48,484.853 2037.08,475.491 2055.68,466.143 2074.29,456.809 2092.89,447.488 2111.49,438.18 
  2130.09,428.886 2148.69,419.604 2167.29,410.335 2185.9,401.079 2204.5,391.835 2223.1,382.603 2241.7,373.383 2260.3,364.176 2278.91,354.98 2297.51,345.796 
  
  "/>
<polyline clip-path="url(#clip962)" style="stroke:#e26f46; stroke-linecap:butt; stroke-linejoin:round; stroke-width:12; stroke-opacity:1; fill:none" points="
  455.919,1384.23 474.521,1360.95 493.123,1341.53 511.725,1323.34 530.326,1305.91 548.928,1289.02 567.53,1272.55 586.132,1256.42 604.734,1240.58 623.336,1224.99 
  641.938,1209.61 660.54,1194.42 679.142,1179.41 697.744,1164.55 716.346,1149.83 734.948,1135.24 753.549,1120.78 772.151,1106.42 790.753,1092.17 809.355,1078.03 
  827.957,1063.97 846.559,1050 865.161,1036.11 883.763,1022.31 902.365,1008.58 920.967,994.914 939.569,981.322 958.17,967.794 976.772,954.329 995.374,940.924 
  1013.98,927.577 1032.58,914.285 1051.18,901.047 1069.78,887.86 1088.38,874.723 1106.99,861.635 1125.59,848.593 1144.19,835.596 1162.79,822.643 1181.39,809.733 
  1200,796.864 1218.6,784.035 1237.2,771.245 1255.8,758.493 1274.4,745.779 1293,733.1 1311.61,720.456 1330.21,707.847 1348.81,695.271 1367.41,682.728 
  1386.01,670.217 1404.62,657.738 1423.22,645.288 1441.82,632.869 1460.42,620.479 1479.02,608.117 1497.63,595.784 1516.23,583.478 1534.83,571.199 1553.43,558.947 
  1572.03,546.72 1590.64,534.519 1609.24,522.343 1627.84,510.191 1646.44,498.064 1665.04,485.96 1683.65,473.879 1702.25,461.821 1720.85,449.786 1739.45,437.773 
  1758.05,425.781 1776.65,413.811 1795.26,401.862 1813.86,389.934 1832.46,378.026 1851.06,366.139 1869.66,354.271 1888.27,342.422 1906.87,330.593 1925.47,318.783 
  1944.07,306.991 1962.67,295.218 1981.28,283.463 1999.88,271.726 2018.48,260.006 2037.08,248.304 2055.68,236.619 2074.29,224.951 2092.89,213.3 2111.49,201.666 
  2130.09,190.047 2148.69,178.445 2167.29,166.859 2185.9,155.289 2204.5,143.734 2223.1,132.194 2241.7,120.67 2260.3,109.16 2278.91,97.6656 2297.51,86.1857 
  
  "/>
<polyline clip-path="url(#clip962)" style="stroke:#3da44d; stroke-linecap:butt; stroke-linejoin:round; stroke-width:12; stroke-opacity:1; fill:none" points="
  455.919,1384.24 474.521,1381.98 493.123,1379.62 511.725,1377.23 530.326,1374.81 548.928,1372.37 567.53,1369.91 586.132,1367.44 604.734,1364.97 623.336,1362.48 
  641.938,1359.98 660.54,1357.48 679.142,1354.97 697.744,1352.45 716.346,1349.92 734.948,1347.4 753.549,1344.86 772.151,1342.32 790.753,1339.78 809.355,1337.23 
  827.957,1334.68 846.559,1332.12 865.161,1329.56 883.763,1327 902.365,1324.43 920.967,1321.86 939.569,1319.29 958.17,1316.71 976.772,1314.13 995.374,1311.55 
  1013.98,1308.96 1032.58,1306.37 1051.18,1303.78 1069.78,1301.19 1088.38,1298.59 1106.99,1296 1125.59,1293.4 1144.19,1290.79 1162.79,1288.19 1181.39,1285.58 
  1200,1282.97 1218.6,1280.36 1237.2,1277.75 1255.8,1275.14 1274.4,1272.52 1293,1269.9 1311.61,1267.28 1330.21,1264.66 1348.81,1262.04 1367.41,1259.41 
  1386.01,1256.78 1404.62,1254.16 1423.22,1251.53 1441.82,1248.89 1460.42,1246.26 1479.02,1243.63 1497.63,1240.99 1516.23,1238.35 1534.83,1235.71 1553.43,1233.07 
  1572.03,1230.43 1590.64,1227.79 1609.24,1225.14 1627.84,1222.5 1646.44,1219.85 1665.04,1217.2 1683.65,1214.55 1702.25,1211.9 1720.85,1209.25 1739.45,1206.6 
  1758.05,1203.94 1776.65,1201.29 1795.26,1198.63 1813.86,1195.97 1832.46,1193.31 1851.06,1190.65 1869.66,1187.99 1888.27,1185.33 1906.87,1182.67 1925.47,1180 
  1944.07,1177.34 1962.67,1174.67 1981.28,1172 1999.88,1169.33 2018.48,1166.66 2037.08,1163.99 2055.68,1161.32 2074.29,1158.65 2092.89,1155.98 2111.49,1153.3 
  2130.09,1150.63 2148.69,1147.95 2167.29,1145.27 2185.9,1142.59 2204.5,1139.92 2223.1,1137.24 2241.7,1134.55 2260.3,1131.87 2278.91,1129.19 2297.51,1126.51 
  
  "/>
<polyline clip-path="url(#clip962)" style="stroke:#c271d2; stroke-linecap:butt; stroke-linejoin:round; stroke-width:16; stroke-opacity:1; fill:none" stroke-dasharray="64, 40" points="
  455.919,1384.24 474.521,1381.98 493.123,1379.62 511.725,1377.23 530.326,1374.81 548.928,1372.37 567.53,1369.91 586.132,1367.44 604.734,1364.97 623.336,1362.48 
  641.938,1359.98 660.54,1357.48 679.142,1354.97 697.744,1352.45 716.346,1349.92 734.948,1347.4 753.549,1344.86 772.151,1342.32 790.753,1339.78 809.355,1337.23 
  827.957,1334.68 846.559,1332.12 865.161,1329.56 883.763,1327 902.365,1324.43 920.967,1321.86 939.569,1319.29 958.17,1316.71 976.772,1314.13 995.374,1311.55 
  1013.98,1308.96 1032.58,1306.37 1051.18,1303.78 1069.78,1301.19 1088.38,1298.59 1106.99,1296 1125.59,1293.4 1144.19,1290.79 1162.79,1288.19 1181.39,1285.58 
  1200,1282.97 1218.6,1280.36 1237.2,1277.75 1255.8,1275.14 1274.4,1272.52 1293,1269.9 1311.61,1267.28 1330.21,1264.66 1348.81,1262.04 1367.41,1259.41 
  1386.01,1256.78 1404.62,1254.16 1423.22,1251.53 1441.82,1248.89 1460.42,1246.26 1479.02,1243.63 1497.63,1240.99 1516.23,1238.35 1534.83,1235.71 1553.43,1233.07 
  1572.03,1230.43 1590.64,1227.79 1609.24,1225.14 1627.84,1222.5 1646.44,1219.85 1665.04,1217.2 1683.65,1214.55 1702.25,1211.9 1720.85,1209.25 1739.45,1206.6 
  1758.05,1203.94 1776.65,1201.29 1795.26,1198.63 1813.86,1195.97 1832.46,1193.31 1851.06,1190.65 1869.66,1187.99 1888.27,1185.33 1906.87,1182.67 1925.47,1180 
  1944.07,1177.34 1962.67,1174.67 1981.28,1172 1999.88,1169.33 2018.48,1166.66 2037.08,1163.99 2055.68,1161.32 2074.29,1158.65 2092.89,1155.98 2111.49,1153.3 
  2130.09,1150.63 2148.69,1147.95 2167.29,1145.27 2185.9,1142.59 2204.5,1139.92 2223.1,1137.24 2241.7,1134.55 2260.3,1131.87 2278.91,1129.19 2297.51,1126.51 
  
  "/>
<polyline clip-path="url(#clip962)" style="stroke:#ac8d18; stroke-linecap:butt; stroke-linejoin:round; stroke-width:12; stroke-opacity:1; fill:none" points="
  455.919,1384.23 474.521,1364.79 493.123,1348.57 511.725,1333.38 530.326,1318.82 548.928,1304.71 567.53,1290.96 586.132,1277.49 604.734,1264.26 623.336,1251.24 
  641.938,1238.39 660.54,1225.71 679.142,1213.17 697.744,1200.76 716.346,1188.47 734.948,1176.28 753.549,1164.2 772.151,1152.22 790.753,1140.32 809.355,1128.5 
  827.957,1116.76 846.559,1105.09 865.161,1093.5 883.763,1081.97 902.365,1070.5 920.967,1059.09 939.569,1047.74 958.17,1036.44 976.772,1025.19 995.374,1014 
  1013.98,1002.85 1032.58,991.75 1051.18,980.693 1069.78,969.68 1088.38,958.709 1106.99,947.778 1125.59,936.886 1144.19,926.031 1162.79,915.213 1181.39,904.431 
  1200,893.683 1218.6,882.969 1237.2,872.287 1255.8,861.638 1274.4,851.019 1293,840.43 1311.61,829.87 1330.21,819.339 1348.81,808.837 1367.41,798.361 
  1386.01,787.912 1404.62,777.49 1423.22,767.092 1441.82,756.72 1460.42,746.372 1479.02,736.049 1497.63,725.748 1516.23,715.471 1534.83,705.216 1553.43,694.983 
  1572.03,684.772 1590.64,674.582 1609.24,664.412 1627.84,654.264 1646.44,644.135 1665.04,634.027 1683.65,623.937 1702.25,613.867 1720.85,603.816 1739.45,593.783 
  1758.05,583.768 1776.65,573.771 1795.26,563.791 1813.86,553.829 1832.46,543.884 1851.06,533.956 1869.66,524.044 1888.27,514.149 1906.87,504.27 1925.47,494.406 
  1944.07,484.558 1962.67,474.725 1981.28,464.908 1999.88,455.106 2018.48,445.318 2037.08,435.545 2055.68,425.786 2074.29,416.041 2092.89,406.311 2111.49,396.594 
  2130.09,386.891 2148.69,377.201 2167.29,367.525 2185.9,357.861 2204.5,348.211 2223.1,338.573 2241.7,328.949 2260.3,319.336 2278.91,309.737 2297.51,300.149 
  
  "/>
<path clip-path="url(#clip960)" d="
M1628.87 404.149 L2287.69 404.149 L2287.69 93.1086 L1628.87 93.1086  Z
  " fill="#ffffff" fill-rule="evenodd" fill-opacity="1"/>
<polyline clip-path="url(#clip960)" style="stroke:#000000; stroke-linecap:butt; stroke-linejoin:round; stroke-width:4; stroke-opacity:1; fill:none" points="
  1628.87,404.149 2287.69,404.149 2287.69,93.1086 1628.87,93.1086 1628.87,404.149 
  "/>
<polyline clip-path="url(#clip960)" style="stroke:#009af9; stroke-linecap:butt; stroke-linejoin:round; stroke-width:4; stroke-opacity:1; fill:none" points="
  1650.56,144.949 1780.7,144.949 
  "/>
<path clip-path="url(#clip960)" d="M1802.39 127.669 L1807.06 127.669 L1807.06 158.293 L1823.89 158.293 L1823.89 162.229 L1802.39 162.229 L1802.39 127.669 Z" fill="#000000" fill-rule="evenodd" fill-opacity="1" /><path clip-path="url(#clip960)" d="M1828.61 136.303 L1832.87 136.303 L1832.87 162.229 L1828.61 162.229 L1828.61 136.303 M1828.61 126.21 L1832.87 126.21 L1832.87 131.604 L1828.61 131.604 L1828.61 126.21 Z" fill="#000000" fill-rule="evenodd" fill-opacity="1" /><path clip-path="url(#clip960)" d="M1844.33 149.289 Q1844.33 153.988 1846.25 156.673 Q1848.2 159.335 1851.58 159.335 Q1854.96 159.335 1856.9 156.673 Q1858.85 153.988 1858.85 149.289 Q1858.85 144.59 1856.9 141.928 Q1854.96 139.243 1851.58 139.243 Q1848.2 139.243 1846.25 141.928 Q1844.33 144.59 1844.33 149.289 M1858.85 158.34 Q1857.5 160.655 1855.44 161.789 Q1853.41 162.9 1850.54 162.9 Q1845.84 162.9 1842.87 159.15 Q1839.93 155.4 1839.93 149.289 Q1839.93 143.178 1842.87 139.428 Q1845.84 135.678 1850.54 135.678 Q1853.41 135.678 1855.44 136.812 Q1857.5 137.923 1858.85 140.238 L1858.85 136.303 L1863.11 136.303 L1863.11 172.09 L1858.85 172.09 L1858.85 158.34 Z" fill="#000000" fill-rule="evenodd" fill-opacity="1" /><path clip-path="url(#clip960)" d="M1889.22 132.507 L1889.22 145.4 L1902.11 145.4 L1902.11 149.335 L1889.22 149.335 L1889.22 162.229 L1885.33 162.229 L1885.33 149.335 L1872.43 149.335 L1872.43 145.4 L1885.33 145.4 L1885.33 132.507 L1889.22 132.507 Z" fill="#000000" fill-rule="evenodd" fill-opacity="1" /><path clip-path="url(#clip960)" d="M1928.17 146.025 Q1929.68 146.534 1931.09 148.201 Q1932.53 149.868 1933.96 152.784 L1938.71 162.229 L1933.68 162.229 L1929.26 153.363 Q1927.55 149.891 1925.93 148.756 Q1924.33 147.622 1921.55 147.622 L1916.46 147.622 L1916.46 162.229 L1911.79 162.229 L1911.79 127.669 L1922.34 127.669 Q1928.27 127.669 1931.18 130.145 Q1934.1 132.622 1934.1 137.622 Q1934.1 140.886 1932.57 143.039 Q1931.07 145.192 1928.17 146.025 M1916.46 131.511 L1916.46 143.78 L1922.34 143.78 Q1925.72 143.78 1927.43 142.229 Q1929.17 140.655 1929.17 137.622 Q1929.17 134.59 1927.43 133.062 Q1925.72 131.511 1922.34 131.511 L1916.46 131.511 Z" fill="#000000" fill-rule="evenodd" fill-opacity="1" /><path clip-path="url(#clip960)" d="M1955.28 149.196 Q1950.12 149.196 1948.13 150.377 Q1946.14 151.557 1946.14 154.405 Q1946.14 156.673 1947.62 158.016 Q1949.12 159.335 1951.69 159.335 Q1955.23 159.335 1957.36 156.835 Q1959.52 154.312 1959.52 150.145 L1959.52 149.196 L1955.28 149.196 M1963.78 147.437 L1963.78 162.229 L1959.52 162.229 L1959.52 158.293 Q1958.06 160.655 1955.88 161.789 Q1953.71 162.9 1950.56 162.9 Q1946.58 162.9 1944.22 160.678 Q1941.88 158.432 1941.88 154.682 Q1941.88 150.307 1944.79 148.085 Q1947.73 145.863 1953.54 145.863 L1959.52 145.863 L1959.52 145.446 Q1959.52 142.507 1957.57 140.909 Q1955.65 139.289 1952.16 139.289 Q1949.93 139.289 1947.83 139.821 Q1945.72 140.354 1943.78 141.419 L1943.78 137.483 Q1946.11 136.581 1948.31 136.141 Q1950.51 135.678 1952.6 135.678 Q1958.22 135.678 1961 138.594 Q1963.78 141.511 1963.78 147.437 Z" fill="#000000" fill-rule="evenodd" fill-opacity="1" /><path clip-path="url(#clip960)" d="M1972.55 136.303 L1976.81 136.303 L1976.81 162.229 L1972.55 162.229 L1972.55 136.303 M1972.55 126.21 L1976.81 126.21 L1976.81 131.604 L1972.55 131.604 L1972.55 126.21 Z" fill="#000000" fill-rule="evenodd" fill-opacity="1" /><path clip-path="url(#clip960)" d="M2007.27 146.581 L2007.27 162.229 L2003.01 162.229 L2003.01 146.719 Q2003.01 143.039 2001.58 141.21 Q2000.14 139.382 1997.27 139.382 Q1993.82 139.382 1991.83 141.581 Q1989.84 143.78 1989.84 147.576 L1989.84 162.229 L1985.56 162.229 L1985.56 136.303 L1989.84 136.303 L1989.84 140.331 Q1991.37 137.993 1993.43 136.835 Q1995.51 135.678 1998.22 135.678 Q2002.69 135.678 2004.98 138.456 Q2007.27 141.21 2007.27 146.581 Z" fill="#000000" fill-rule="evenodd" fill-opacity="1" /><path clip-path="url(#clip960)" d="M2013.61 147.344 L2026.09 147.344 L2026.09 151.141 L2013.61 151.141 L2013.61 147.344 Z" fill="#000000" fill-rule="evenodd" fill-opacity="1" /><path clip-path="url(#clip960)" d="M2058.94 130.331 L2058.94 135.261 Q2056.58 133.062 2053.89 131.974 Q2051.23 130.886 2048.22 130.886 Q2042.29 130.886 2039.15 134.52 Q2036 138.132 2036 144.983 Q2036 151.812 2039.15 155.446 Q2042.29 159.057 2048.22 159.057 Q2051.23 159.057 2053.89 157.969 Q2056.58 156.881 2058.94 154.682 L2058.94 159.567 Q2056.48 161.233 2053.73 162.067 Q2051 162.9 2047.94 162.9 Q2040.09 162.9 2035.58 158.108 Q2031.07 153.293 2031.07 144.983 Q2031.07 136.65 2035.58 131.858 Q2040.09 127.044 2047.94 127.044 Q2051.04 127.044 2053.78 127.877 Q2056.53 128.687 2058.94 130.331 Z" fill="#000000" fill-rule="evenodd" fill-opacity="1" /><path clip-path="url(#clip960)" d="M2066.16 127.669 L2070.84 127.669 L2070.84 158.293 L2087.66 158.293 L2087.66 162.229 L2066.16 162.229 L2066.16 127.669 Z" fill="#000000" fill-rule="evenodd" fill-opacity="1" /><path clip-path="url(#clip960)" d="M2092.57 127.669 L2097.25 127.669 L2097.25 162.229 L2092.57 162.229 L2092.57 127.669 Z" fill="#000000" fill-rule="evenodd" fill-opacity="1" /><path clip-path="url(#clip960)" d="M2106.55 127.669 L2113.52 127.669 L2122.34 151.187 L2131.21 127.669 L2138.17 127.669 L2138.17 162.229 L2133.61 162.229 L2133.61 131.882 L2124.7 155.585 L2120 155.585 L2111.09 131.882 L2111.09 162.229 L2106.55 162.229 L2106.55 127.669 Z" fill="#000000" fill-rule="evenodd" fill-opacity="1" /><path clip-path="url(#clip960)" d="M2159.01 132.275 L2152.66 149.474 L2165.37 149.474 L2159.01 132.275 M2156.37 127.669 L2161.67 127.669 L2174.84 162.229 L2169.98 162.229 L2166.83 153.363 L2151.25 153.363 L2148.1 162.229 L2143.17 162.229 L2156.37 127.669 Z" fill="#000000" fill-rule="evenodd" fill-opacity="1" /><polyline clip-path="url(#clip960)" style="stroke:#e26f46; stroke-linecap:butt; stroke-linejoin:round; stroke-width:4; stroke-opacity:1; fill:none" points="
  1650.56,196.789 1780.7,196.789 
  "/>
<path clip-path="url(#clip960)" d="M1802.39 179.509 L1807.06 179.509 L1807.06 214.069 L1802.39 214.069 L1802.39 179.509 Z" fill="#000000" fill-rule="evenodd" fill-opacity="1" /><path clip-path="url(#clip960)" d="M1834.84 189.138 L1834.84 193.12 Q1833.04 192.124 1831.21 191.638 Q1829.4 191.129 1827.55 191.129 Q1823.41 191.129 1821.11 193.768 Q1818.82 196.384 1818.82 201.129 Q1818.82 205.874 1821.11 208.513 Q1823.41 211.129 1827.55 211.129 Q1829.4 211.129 1831.21 210.643 Q1833.04 210.133 1834.84 209.138 L1834.84 213.073 Q1833.06 213.907 1831.14 214.323 Q1829.24 214.74 1827.09 214.74 Q1821.23 214.74 1817.78 211.059 Q1814.33 207.379 1814.33 201.129 Q1814.33 194.786 1817.8 191.152 Q1821.3 187.518 1827.36 187.518 Q1829.33 187.518 1831.21 187.935 Q1833.08 188.328 1834.84 189.138 Z" fill="#000000" fill-rule="evenodd" fill-opacity="1" /><path clip-path="url(#clip960)" d="M1864.42 200.041 L1864.42 202.124 L1844.84 202.124 Q1845.12 206.522 1847.48 208.837 Q1849.86 211.129 1854.1 211.129 Q1856.55 211.129 1858.85 210.527 Q1861.16 209.925 1863.43 208.721 L1863.43 212.749 Q1861.14 213.721 1858.73 214.231 Q1856.32 214.74 1853.85 214.74 Q1847.64 214.74 1844.01 211.129 Q1840.4 207.518 1840.4 201.36 Q1840.4 194.995 1843.82 191.268 Q1847.27 187.518 1853.11 187.518 Q1858.34 187.518 1861.37 190.897 Q1864.42 194.254 1864.42 200.041 M1860.17 198.791 Q1860.12 195.296 1858.2 193.212 Q1856.3 191.129 1853.15 191.129 Q1849.59 191.129 1847.43 193.143 Q1845.3 195.157 1844.98 198.814 L1860.17 198.791 Z" fill="#000000" fill-rule="evenodd" fill-opacity="1" /><path clip-path="url(#clip960)" d="M1888.75 184.347 L1888.75 197.24 L1901.65 197.24 L1901.65 201.175 L1888.75 201.175 L1888.75 214.069 L1884.86 214.069 L1884.86 201.175 L1871.97 201.175 L1871.97 197.24 L1884.86 197.24 L1884.86 184.347 L1888.75 184.347 Z" fill="#000000" fill-rule="evenodd" fill-opacity="1" /><path clip-path="url(#clip960)" d="M1927.71 197.865 Q1929.22 198.374 1930.63 200.041 Q1932.06 201.708 1933.5 204.624 L1938.24 214.069 L1933.22 214.069 L1928.8 205.203 Q1927.09 201.731 1925.47 200.596 Q1923.87 199.462 1921.09 199.462 L1916 199.462 L1916 214.069 L1911.32 214.069 L1911.32 179.509 L1921.88 179.509 Q1927.8 179.509 1930.72 181.985 Q1933.64 184.462 1933.64 189.462 Q1933.64 192.726 1932.11 194.879 Q1930.6 197.032 1927.71 197.865 M1916 183.351 L1916 195.62 L1921.88 195.62 Q1925.26 195.62 1926.97 194.069 Q1928.71 192.495 1928.71 189.462 Q1928.71 186.43 1926.97 184.902 Q1925.26 183.351 1921.88 183.351 L1916 183.351 Z" fill="#000000" fill-rule="evenodd" fill-opacity="1" /><path clip-path="url(#clip960)" d="M1954.82 201.036 Q1949.66 201.036 1947.66 202.217 Q1945.67 203.397 1945.67 206.245 Q1945.67 208.513 1947.16 209.856 Q1948.66 211.175 1951.23 211.175 Q1954.77 211.175 1956.9 208.675 Q1959.05 206.152 1959.05 201.985 L1959.05 201.036 L1954.82 201.036 M1963.31 199.277 L1963.31 214.069 L1959.05 214.069 L1959.05 210.133 Q1957.6 212.495 1955.42 213.629 Q1953.24 214.74 1950.1 214.74 Q1946.11 214.74 1943.75 212.518 Q1941.41 210.272 1941.41 206.522 Q1941.41 202.147 1944.33 199.925 Q1947.27 197.703 1953.08 197.703 L1959.05 197.703 L1959.05 197.286 Q1959.05 194.347 1957.11 192.749 Q1955.19 191.129 1951.69 191.129 Q1949.47 191.129 1947.36 191.661 Q1945.26 192.194 1943.31 193.259 L1943.31 189.323 Q1945.65 188.421 1947.85 187.981 Q1950.05 187.518 1952.13 187.518 Q1957.76 187.518 1960.54 190.434 Q1963.31 193.351 1963.31 199.277 Z" fill="#000000" fill-rule="evenodd" fill-opacity="1" /><path clip-path="url(#clip960)" d="M1972.09 188.143 L1976.35 188.143 L1976.35 214.069 L1972.09 214.069 L1972.09 188.143 M1972.09 178.05 L1976.35 178.05 L1976.35 183.444 L1972.09 183.444 L1972.09 178.05 Z" fill="#000000" fill-rule="evenodd" fill-opacity="1" /><path clip-path="url(#clip960)" d="M2006.81 198.421 L2006.81 214.069 L2002.55 214.069 L2002.55 198.559 Q2002.55 194.879 2001.11 193.05 Q1999.68 191.222 1996.81 191.222 Q1993.36 191.222 1991.37 193.421 Q1989.38 195.62 1989.38 199.416 L1989.38 214.069 L1985.1 214.069 L1985.1 188.143 L1989.38 188.143 L1989.38 192.171 Q1990.91 189.833 1992.97 188.675 Q1995.05 187.518 1997.76 187.518 Q2002.22 187.518 2004.52 190.296 Q2006.81 193.05 2006.81 198.421 Z" fill="#000000" fill-rule="evenodd" fill-opacity="1" /><path clip-path="url(#clip960)" d="M2013.15 199.184 L2025.63 199.184 L2025.63 202.981 L2013.15 202.981 L2013.15 199.184 Z" fill="#000000" fill-rule="evenodd" fill-opacity="1" /><path clip-path="url(#clip960)" d="M2058.47 182.171 L2058.47 187.101 Q2056.11 184.902 2053.43 183.814 Q2050.77 182.726 2047.76 182.726 Q2041.83 182.726 2038.68 186.36 Q2035.53 189.972 2035.53 196.823 Q2035.53 203.652 2038.68 207.286 Q2041.83 210.897 2047.76 210.897 Q2050.77 210.897 2053.43 209.809 Q2056.11 208.721 2058.47 206.522 L2058.47 211.407 Q2056.02 213.073 2053.27 213.907 Q2050.53 214.74 2047.48 214.74 Q2039.63 214.74 2035.12 209.948 Q2030.6 205.133 2030.6 196.823 Q2030.6 188.49 2035.12 183.698 Q2039.63 178.884 2047.48 178.884 Q2050.58 178.884 2053.31 179.717 Q2056.07 180.527 2058.47 182.171 Z" fill="#000000" fill-rule="evenodd" fill-opacity="1" /><path clip-path="url(#clip960)" d="M2065.7 179.509 L2070.37 179.509 L2070.37 210.133 L2087.2 210.133 L2087.2 214.069 L2065.7 214.069 L2065.7 179.509 Z" fill="#000000" fill-rule="evenodd" fill-opacity="1" /><path clip-path="url(#clip960)" d="M2092.11 179.509 L2096.78 179.509 L2096.78 214.069 L2092.11 214.069 L2092.11 179.509 Z" fill="#000000" fill-rule="evenodd" fill-opacity="1" /><path clip-path="url(#clip960)" d="M2106.09 179.509 L2113.06 179.509 L2121.88 203.027 L2130.74 179.509 L2137.71 179.509 L2137.71 214.069 L2133.15 214.069 L2133.15 183.722 L2124.24 207.425 L2119.54 207.425 L2110.63 183.722 L2110.63 214.069 L2106.09 214.069 L2106.09 179.509 Z" fill="#000000" fill-rule="evenodd" fill-opacity="1" /><path clip-path="url(#clip960)" d="M2158.54 184.115 L2152.2 201.314 L2164.91 201.314 L2158.54 184.115 M2155.9 179.509 L2161.21 179.509 L2174.38 214.069 L2169.52 214.069 L2166.37 205.203 L2150.79 205.203 L2147.64 214.069 L2142.71 214.069 L2155.9 179.509 Z" fill="#000000" fill-rule="evenodd" fill-opacity="1" /><polyline clip-path="url(#clip960)" style="stroke:#3da44d; stroke-linecap:butt; stroke-linejoin:round; stroke-width:4; stroke-opacity:1; fill:none" points="
  1650.56,248.629 1780.7,248.629 
  "/>
<path clip-path="url(#clip960)" d="M1802.39 231.349 L1807.06 231.349 L1807.06 261.973 L1823.89 261.973 L1823.89 265.909 L1802.39 265.909 L1802.39 231.349 Z" fill="#000000" fill-rule="evenodd" fill-opacity="1" /><path clip-path="url(#clip960)" d="M1828.61 239.983 L1832.87 239.983 L1832.87 265.909 L1828.61 265.909 L1828.61 239.983 M1828.61 229.89 L1832.87 229.89 L1832.87 235.284 L1828.61 235.284 L1828.61 229.89 Z" fill="#000000" fill-rule="evenodd" fill-opacity="1" /><path clip-path="url(#clip960)" d="M1844.33 252.969 Q1844.33 257.668 1846.25 260.353 Q1848.2 263.015 1851.58 263.015 Q1854.96 263.015 1856.9 260.353 Q1858.85 257.668 1858.85 252.969 Q1858.85 248.27 1856.9 245.608 Q1854.96 242.923 1851.58 242.923 Q1848.2 242.923 1846.25 245.608 Q1844.33 248.27 1844.33 252.969 M1858.85 262.02 Q1857.5 264.335 1855.44 265.469 Q1853.41 266.58 1850.54 266.58 Q1845.84 266.58 1842.87 262.83 Q1839.93 259.08 1839.93 252.969 Q1839.93 246.858 1842.87 243.108 Q1845.84 239.358 1850.54 239.358 Q1853.41 239.358 1855.44 240.492 Q1857.5 241.603 1858.85 243.918 L1858.85 239.983 L1863.11 239.983 L1863.11 275.77 L1858.85 275.77 L1858.85 262.02 Z" fill="#000000" fill-rule="evenodd" fill-opacity="1" /><path clip-path="url(#clip960)" d="M1889.22 236.187 L1889.22 249.08 L1902.11 249.08 L1902.11 253.015 L1889.22 253.015 L1889.22 265.909 L1885.33 265.909 L1885.33 253.015 L1872.43 253.015 L1872.43 249.08 L1885.33 249.08 L1885.33 236.187 L1889.22 236.187 Z" fill="#000000" fill-rule="evenodd" fill-opacity="1" /><path clip-path="url(#clip960)" d="M1932.5 232.483 L1932.5 237.043 Q1929.84 235.77 1927.48 235.145 Q1925.12 234.52 1922.92 234.52 Q1919.1 234.52 1917.02 236.001 Q1914.96 237.483 1914.96 240.214 Q1914.96 242.506 1916.32 243.687 Q1917.71 244.844 1921.55 245.562 L1924.38 246.14 Q1929.61 247.136 1932.09 249.659 Q1934.59 252.159 1934.59 256.372 Q1934.59 261.395 1931.21 263.987 Q1927.85 266.58 1921.35 266.58 Q1918.89 266.58 1916.11 266.024 Q1913.36 265.469 1910.4 264.381 L1910.4 259.566 Q1913.24 261.163 1915.98 261.973 Q1918.71 262.784 1921.35 262.784 Q1925.35 262.784 1927.53 261.21 Q1929.7 259.636 1929.7 256.719 Q1929.7 254.173 1928.13 252.737 Q1926.58 251.302 1923.01 250.585 L1920.16 250.029 Q1914.93 248.987 1912.6 246.765 Q1910.26 244.543 1910.26 240.585 Q1910.26 236.001 1913.48 233.362 Q1916.72 230.724 1922.39 230.724 Q1924.82 230.724 1927.34 231.163 Q1929.86 231.603 1932.5 232.483 Z" fill="#000000" fill-rule="evenodd" fill-opacity="1" /><path clip-path="url(#clip960)" d="M1963.24 250.261 L1963.24 265.909 L1958.98 265.909 L1958.98 250.399 Q1958.98 246.719 1957.55 244.89 Q1956.11 243.062 1953.24 243.062 Q1949.79 243.062 1947.8 245.261 Q1945.81 247.46 1945.81 251.256 L1945.81 265.909 L1941.53 265.909 L1941.53 239.983 L1945.81 239.983 L1945.81 244.011 Q1947.34 241.673 1949.4 240.515 Q1951.48 239.358 1954.19 239.358 Q1958.66 239.358 1960.95 242.136 Q1963.24 244.89 1963.24 250.261 Z" fill="#000000" fill-rule="evenodd" fill-opacity="1" /><path clip-path="url(#clip960)" d="M1981.79 242.969 Q1978.36 242.969 1976.37 245.654 Q1974.38 248.316 1974.38 252.969 Q1974.38 257.622 1976.35 260.307 Q1978.34 262.969 1981.79 262.969 Q1985.19 262.969 1987.18 260.284 Q1989.17 257.598 1989.17 252.969 Q1989.17 248.362 1987.18 245.677 Q1985.19 242.969 1981.79 242.969 M1981.79 239.358 Q1987.34 239.358 1990.51 242.969 Q1993.68 246.58 1993.68 252.969 Q1993.68 259.335 1990.51 262.969 Q1987.34 266.58 1981.79 266.58 Q1976.21 266.58 1973.04 262.969 Q1969.89 259.335 1969.89 252.969 Q1969.89 246.58 1973.04 242.969 Q1976.21 239.358 1981.79 239.358 Z" fill="#000000" fill-rule="evenodd" fill-opacity="1" /><path clip-path="url(#clip960)" d="M1998.27 239.983 L2002.53 239.983 L2007.85 260.214 L2013.15 239.983 L2018.17 239.983 L2023.5 260.214 L2028.8 239.983 L2033.06 239.983 L2026.28 265.909 L2021.25 265.909 L2015.67 244.659 L2010.07 265.909 L2005.05 265.909 L1998.27 239.983 Z" fill="#000000" fill-rule="evenodd" fill-opacity="1" /><path clip-path="url(#clip960)" d="M2037.36 251.024 L2049.84 251.024 L2049.84 254.821 L2037.36 254.821 L2037.36 251.024 Z" fill="#000000" fill-rule="evenodd" fill-opacity="1" /><path clip-path="url(#clip960)" d="M2082.69 234.011 L2082.69 238.941 Q2080.33 236.742 2077.64 235.654 Q2074.98 234.566 2071.97 234.566 Q2066.04 234.566 2062.9 238.2 Q2059.75 241.812 2059.75 248.663 Q2059.75 255.492 2062.9 259.126 Q2066.04 262.737 2071.97 262.737 Q2074.98 262.737 2077.64 261.649 Q2080.33 260.561 2082.69 258.362 L2082.69 263.247 Q2080.23 264.913 2077.48 265.747 Q2074.75 266.58 2071.69 266.58 Q2063.84 266.58 2059.33 261.788 Q2054.82 256.973 2054.82 248.663 Q2054.82 240.33 2059.33 235.538 Q2063.84 230.724 2071.69 230.724 Q2074.79 230.724 2077.53 231.557 Q2080.28 232.367 2082.69 234.011 Z" fill="#000000" fill-rule="evenodd" fill-opacity="1" /><path clip-path="url(#clip960)" d="M2089.91 231.349 L2094.59 231.349 L2094.59 261.973 L2111.41 261.973 L2111.41 265.909 L2089.91 265.909 L2089.91 231.349 Z" fill="#000000" fill-rule="evenodd" fill-opacity="1" /><path clip-path="url(#clip960)" d="M2116.32 231.349 L2121 231.349 L2121 265.909 L2116.32 265.909 L2116.32 231.349 Z" fill="#000000" fill-rule="evenodd" fill-opacity="1" /><path clip-path="url(#clip960)" d="M2130.3 231.349 L2137.27 231.349 L2146.09 254.867 L2154.96 231.349 L2161.92 231.349 L2161.92 265.909 L2157.36 265.909 L2157.36 235.562 L2148.45 259.265 L2143.75 259.265 L2134.84 235.562 L2134.84 265.909 L2130.3 265.909 L2130.3 231.349 Z" fill="#000000" fill-rule="evenodd" fill-opacity="1" /><path clip-path="url(#clip960)" d="M2182.76 235.955 L2176.41 253.154 L2189.12 253.154 L2182.76 235.955 M2180.12 231.349 L2185.42 231.349 L2198.59 265.909 L2193.73 265.909 L2190.58 257.043 L2175 257.043 L2171.85 265.909 L2166.92 265.909 L2180.12 231.349 Z" fill="#000000" fill-rule="evenodd" fill-opacity="1" /><polyline clip-path="url(#clip960)" style="stroke:#c271d2; stroke-linecap:butt; stroke-linejoin:round; stroke-width:4; stroke-opacity:1; fill:none" stroke-dasharray="16, 10" points="
  1650.56,300.469 1780.7,300.469 
  "/>
<path clip-path="url(#clip960)" d="M1802.39 283.189 L1807.06 283.189 L1807.06 317.749 L1802.39 317.749 L1802.39 283.189 Z" fill="#000000" fill-rule="evenodd" fill-opacity="1" /><path clip-path="url(#clip960)" d="M1834.84 292.818 L1834.84 296.8 Q1833.04 295.804 1831.21 295.318 Q1829.4 294.809 1827.55 294.809 Q1823.41 294.809 1821.11 297.448 Q1818.82 300.064 1818.82 304.809 Q1818.82 309.554 1821.11 312.193 Q1823.41 314.809 1827.55 314.809 Q1829.4 314.809 1831.21 314.323 Q1833.04 313.813 1834.84 312.818 L1834.84 316.753 Q1833.06 317.587 1831.14 318.003 Q1829.24 318.42 1827.09 318.42 Q1821.23 318.42 1817.78 314.739 Q1814.33 311.059 1814.33 304.809 Q1814.33 298.466 1817.8 294.832 Q1821.3 291.198 1827.36 291.198 Q1829.33 291.198 1831.21 291.615 Q1833.08 292.008 1834.84 292.818 Z" fill="#000000" fill-rule="evenodd" fill-opacity="1" /><path clip-path="url(#clip960)" d="M1864.42 303.721 L1864.42 305.804 L1844.84 305.804 Q1845.12 310.202 1847.48 312.517 Q1849.86 314.809 1854.1 314.809 Q1856.55 314.809 1858.85 314.207 Q1861.16 313.605 1863.43 312.401 L1863.43 316.429 Q1861.14 317.401 1858.73 317.911 Q1856.32 318.42 1853.85 318.42 Q1847.64 318.42 1844.01 314.809 Q1840.4 311.198 1840.4 305.04 Q1840.4 298.675 1843.82 294.948 Q1847.27 291.198 1853.11 291.198 Q1858.34 291.198 1861.37 294.577 Q1864.42 297.934 1864.42 303.721 M1860.17 302.471 Q1860.12 298.976 1858.2 296.892 Q1856.3 294.809 1853.15 294.809 Q1849.59 294.809 1847.43 296.823 Q1845.3 298.837 1844.98 302.494 L1860.17 302.471 Z" fill="#000000" fill-rule="evenodd" fill-opacity="1" /><path clip-path="url(#clip960)" d="M1888.75 288.027 L1888.75 300.92 L1901.65 300.92 L1901.65 304.855 L1888.75 304.855 L1888.75 317.749 L1884.86 317.749 L1884.86 304.855 L1871.97 304.855 L1871.97 300.92 L1884.86 300.92 L1884.86 288.027 L1888.75 288.027 Z" fill="#000000" fill-rule="evenodd" fill-opacity="1" /><path clip-path="url(#clip960)" d="M1932.04 284.323 L1932.04 288.883 Q1929.38 287.61 1927.02 286.985 Q1924.66 286.36 1922.46 286.36 Q1918.64 286.36 1916.55 287.841 Q1914.49 289.323 1914.49 292.054 Q1914.49 294.346 1915.86 295.527 Q1917.25 296.684 1921.09 297.402 L1923.91 297.98 Q1929.15 298.976 1931.62 301.499 Q1934.12 303.999 1934.12 308.212 Q1934.12 313.235 1930.74 315.827 Q1927.39 318.42 1920.88 318.42 Q1918.43 318.42 1915.65 317.864 Q1912.9 317.309 1909.93 316.221 L1909.93 311.406 Q1912.78 313.003 1915.51 313.813 Q1918.24 314.624 1920.88 314.624 Q1924.89 314.624 1927.06 313.05 Q1929.24 311.476 1929.24 308.559 Q1929.24 306.013 1927.66 304.577 Q1926.11 303.142 1922.55 302.425 L1919.7 301.869 Q1914.47 300.827 1912.13 298.605 Q1909.79 296.383 1909.79 292.425 Q1909.79 287.841 1913.01 285.202 Q1916.25 282.564 1921.92 282.564 Q1924.35 282.564 1926.88 283.003 Q1929.4 283.443 1932.04 284.323 Z" fill="#000000" fill-rule="evenodd" fill-opacity="1" /><path clip-path="url(#clip960)" d="M1962.78 302.101 L1962.78 317.749 L1958.52 317.749 L1958.52 302.239 Q1958.52 298.559 1957.09 296.73 Q1955.65 294.902 1952.78 294.902 Q1949.33 294.902 1947.34 297.101 Q1945.35 299.3 1945.35 303.096 L1945.35 317.749 L1941.07 317.749 L1941.07 291.823 L1945.35 291.823 L1945.35 295.851 Q1946.88 293.513 1948.94 292.355 Q1951.02 291.198 1953.73 291.198 Q1958.2 291.198 1960.49 293.976 Q1962.78 296.73 1962.78 302.101 Z" fill="#000000" fill-rule="evenodd" fill-opacity="1" /><path clip-path="url(#clip960)" d="M1981.32 294.809 Q1977.9 294.809 1975.91 297.494 Q1973.91 300.156 1973.91 304.809 Q1973.91 309.462 1975.88 312.147 Q1977.87 314.809 1981.32 314.809 Q1984.72 314.809 1986.72 312.124 Q1988.71 309.438 1988.71 304.809 Q1988.71 300.202 1986.72 297.517 Q1984.72 294.809 1981.32 294.809 M1981.32 291.198 Q1986.88 291.198 1990.05 294.809 Q1993.22 298.42 1993.22 304.809 Q1993.22 311.175 1990.05 314.809 Q1986.88 318.42 1981.32 318.42 Q1975.74 318.42 1972.57 314.809 Q1969.42 311.175 1969.42 304.809 Q1969.42 298.42 1972.57 294.809 Q1975.74 291.198 1981.32 291.198 Z" fill="#000000" fill-rule="evenodd" fill-opacity="1" /><path clip-path="url(#clip960)" d="M1997.8 291.823 L2002.06 291.823 L2007.39 312.054 L2012.69 291.823 L2017.71 291.823 L2023.03 312.054 L2028.34 291.823 L2032.59 291.823 L2025.81 317.749 L2020.79 317.749 L2015.21 296.499 L2009.61 317.749 L2004.59 317.749 L1997.8 291.823 Z" fill="#000000" fill-rule="evenodd" fill-opacity="1" /><path clip-path="url(#clip960)" d="M2036.9 302.864 L2049.38 302.864 L2049.38 306.661 L2036.9 306.661 L2036.9 302.864 Z" fill="#000000" fill-rule="evenodd" fill-opacity="1" /><path clip-path="url(#clip960)" d="M2082.22 285.851 L2082.22 290.781 Q2079.86 288.582 2077.18 287.494 Q2074.52 286.406 2071.51 286.406 Q2065.58 286.406 2062.43 290.04 Q2059.28 293.652 2059.28 300.503 Q2059.28 307.332 2062.43 310.966 Q2065.58 314.577 2071.51 314.577 Q2074.52 314.577 2077.18 313.489 Q2079.86 312.401 2082.22 310.202 L2082.22 315.087 Q2079.77 316.753 2077.02 317.587 Q2074.28 318.42 2071.23 318.42 Q2063.38 318.42 2058.87 313.628 Q2054.35 308.813 2054.35 300.503 Q2054.35 292.17 2058.87 287.378 Q2063.38 282.564 2071.23 282.564 Q2074.33 282.564 2077.06 283.397 Q2079.82 284.207 2082.22 285.851 Z" fill="#000000" fill-rule="evenodd" fill-opacity="1" /><path clip-path="url(#clip960)" d="M2089.45 283.189 L2094.12 283.189 L2094.12 313.813 L2110.95 313.813 L2110.95 317.749 L2089.45 317.749 L2089.45 283.189 Z" fill="#000000" fill-rule="evenodd" fill-opacity="1" /><path clip-path="url(#clip960)" d="M2115.86 283.189 L2120.53 283.189 L2120.53 317.749 L2115.86 317.749 L2115.86 283.189 Z" fill="#000000" fill-rule="evenodd" fill-opacity="1" /><path clip-path="url(#clip960)" d="M2129.84 283.189 L2136.81 283.189 L2145.63 306.707 L2154.49 283.189 L2161.46 283.189 L2161.46 317.749 L2156.9 317.749 L2156.9 287.402 L2147.99 311.105 L2143.29 311.105 L2134.38 287.402 L2134.38 317.749 L2129.84 317.749 L2129.84 283.189 Z" fill="#000000" fill-rule="evenodd" fill-opacity="1" /><path clip-path="url(#clip960)" d="M2182.29 287.795 L2175.95 304.994 L2188.66 304.994 L2182.29 287.795 M2179.65 283.189 L2184.96 283.189 L2198.13 317.749 L2193.27 317.749 L2190.12 308.883 L2174.54 308.883 L2171.39 317.749 L2166.46 317.749 L2179.65 283.189 Z" fill="#000000" fill-rule="evenodd" fill-opacity="1" /><polyline clip-path="url(#clip960)" style="stroke:#ac8d18; stroke-linecap:butt; stroke-linejoin:round; stroke-width:4; stroke-opacity:1; fill:none" points="
  1650.56,352.309 1780.7,352.309 
  "/>
<path clip-path="url(#clip960)" d="M1802.39 335.029 L1807.06 335.029 L1807.06 365.653 L1823.89 365.653 L1823.89 369.589 L1802.39 369.589 L1802.39 335.029 Z" fill="#000000" fill-rule="evenodd" fill-opacity="1" /><path clip-path="url(#clip960)" d="M1828.61 343.663 L1832.87 343.663 L1832.87 369.589 L1828.61 369.589 L1828.61 343.663 M1828.61 333.57 L1832.87 333.57 L1832.87 338.964 L1828.61 338.964 L1828.61 333.57 Z" fill="#000000" fill-rule="evenodd" fill-opacity="1" /><path clip-path="url(#clip960)" d="M1844.33 356.649 Q1844.33 361.348 1846.25 364.033 Q1848.2 366.695 1851.58 366.695 Q1854.96 366.695 1856.9 364.033 Q1858.85 361.348 1858.85 356.649 Q1858.85 351.95 1856.9 349.288 Q1854.96 346.603 1851.58 346.603 Q1848.2 346.603 1846.25 349.288 Q1844.33 351.95 1844.33 356.649 M1858.85 365.7 Q1857.5 368.015 1855.44 369.149 Q1853.41 370.26 1850.54 370.26 Q1845.84 370.26 1842.87 366.51 Q1839.93 362.76 1839.93 356.649 Q1839.93 350.538 1842.87 346.788 Q1845.84 343.038 1850.54 343.038 Q1853.41 343.038 1855.44 344.172 Q1857.5 345.283 1858.85 347.598 L1858.85 343.663 L1863.11 343.663 L1863.11 379.45 L1858.85 379.45 L1858.85 365.7 Z" fill="#000000" fill-rule="evenodd" fill-opacity="1" /><path clip-path="url(#clip960)" d="M1889.22 339.867 L1889.22 352.76 L1902.11 352.76 L1902.11 356.695 L1889.22 356.695 L1889.22 369.589 L1885.33 369.589 L1885.33 356.695 L1872.43 356.695 L1872.43 352.76 L1885.33 352.76 L1885.33 339.867 L1889.22 339.867 Z" fill="#000000" fill-rule="evenodd" fill-opacity="1" /><path clip-path="url(#clip960)" d="M1928.17 353.385 Q1929.68 353.894 1931.09 355.561 Q1932.53 357.228 1933.96 360.144 L1938.71 369.589 L1933.68 369.589 L1929.26 360.723 Q1927.55 357.251 1925.93 356.116 Q1924.33 354.982 1921.55 354.982 L1916.46 354.982 L1916.46 369.589 L1911.79 369.589 L1911.79 335.029 L1922.34 335.029 Q1928.27 335.029 1931.18 337.505 Q1934.1 339.982 1934.1 344.982 Q1934.1 348.246 1932.57 350.399 Q1931.07 352.552 1928.17 353.385 M1916.46 338.871 L1916.46 351.14 L1922.34 351.14 Q1925.72 351.14 1927.43 349.589 Q1929.17 348.015 1929.17 344.982 Q1929.17 341.95 1927.43 340.422 Q1925.72 338.871 1922.34 338.871 L1916.46 338.871 Z" fill="#000000" fill-rule="evenodd" fill-opacity="1" /><path clip-path="url(#clip960)" d="M1955.28 356.556 Q1950.12 356.556 1948.13 357.737 Q1946.14 358.917 1946.14 361.765 Q1946.14 364.033 1947.62 365.376 Q1949.12 366.695 1951.69 366.695 Q1955.23 366.695 1957.36 364.195 Q1959.52 361.672 1959.52 357.505 L1959.52 356.556 L1955.28 356.556 M1963.78 354.797 L1963.78 369.589 L1959.52 369.589 L1959.52 365.653 Q1958.06 368.015 1955.88 369.149 Q1953.71 370.26 1950.56 370.26 Q1946.58 370.26 1944.22 368.038 Q1941.88 365.792 1941.88 362.042 Q1941.88 357.667 1944.79 355.445 Q1947.73 353.223 1953.54 353.223 L1959.52 353.223 L1959.52 352.806 Q1959.52 349.867 1957.57 348.269 Q1955.65 346.649 1952.16 346.649 Q1949.93 346.649 1947.83 347.181 Q1945.72 347.714 1943.78 348.779 L1943.78 344.843 Q1946.11 343.941 1948.31 343.501 Q1950.51 343.038 1952.6 343.038 Q1958.22 343.038 1961 345.954 Q1963.78 348.871 1963.78 354.797 Z" fill="#000000" fill-rule="evenodd" fill-opacity="1" /><path clip-path="url(#clip960)" d="M1972.55 343.663 L1976.81 343.663 L1976.81 369.589 L1972.55 369.589 L1972.55 343.663 M1972.55 333.57 L1976.81 333.57 L1976.81 338.964 L1972.55 338.964 L1972.55 333.57 Z" fill="#000000" fill-rule="evenodd" fill-opacity="1" /><path clip-path="url(#clip960)" d="M2007.27 353.941 L2007.27 369.589 L2003.01 369.589 L2003.01 354.079 Q2003.01 350.399 2001.58 348.57 Q2000.14 346.742 1997.27 346.742 Q1993.82 346.742 1991.83 348.941 Q1989.84 351.14 1989.84 354.936 L1989.84 369.589 L1985.56 369.589 L1985.56 343.663 L1989.84 343.663 L1989.84 347.691 Q1991.37 345.353 1993.43 344.195 Q1995.51 343.038 1998.22 343.038 Q2002.69 343.038 2004.98 345.816 Q2007.27 348.57 2007.27 353.941 Z" fill="#000000" fill-rule="evenodd" fill-opacity="1" /><path clip-path="url(#clip960)" d="M2013.61 354.704 L2026.09 354.704 L2026.09 358.501 L2013.61 358.501 L2013.61 354.704 Z" fill="#000000" fill-rule="evenodd" fill-opacity="1" /><path clip-path="url(#clip960)" d="M2033.06 335.029 L2054.91 335.029 L2054.91 338.964 L2037.73 338.964 L2037.73 349.195 L2054.19 349.195 L2054.19 353.13 L2037.73 353.13 L2037.73 365.653 L2055.33 365.653 L2055.33 369.589 L2033.06 369.589 L2033.06 335.029 Z" fill="#000000" fill-rule="evenodd" fill-opacity="1" /><path clip-path="url(#clip960)" d="M2083.01 348.64 Q2084.61 345.769 2086.83 344.404 Q2089.05 343.038 2092.06 343.038 Q2096.11 343.038 2098.31 345.885 Q2100.51 348.709 2100.51 353.941 L2100.51 369.589 L2096.23 369.589 L2096.23 354.079 Q2096.23 350.353 2094.91 348.547 Q2093.59 346.742 2090.88 346.742 Q2087.57 346.742 2085.65 348.941 Q2083.73 351.14 2083.73 354.936 L2083.73 369.589 L2079.45 369.589 L2079.45 354.079 Q2079.45 350.329 2078.13 348.547 Q2076.81 346.742 2074.05 346.742 Q2070.79 346.742 2068.87 348.964 Q2066.95 351.163 2066.95 354.936 L2066.95 369.589 L2062.66 369.589 L2062.66 343.663 L2066.95 343.663 L2066.95 347.691 Q2068.4 345.306 2070.44 344.172 Q2072.48 343.038 2075.28 343.038 Q2078.1 343.038 2080.07 344.473 Q2082.06 345.908 2083.01 348.64 Z" fill="#000000" fill-rule="evenodd" fill-opacity="1" /><path clip-path="url(#clip960)" d="M2113.13 365.7 L2113.13 379.45 L2108.84 379.45 L2108.84 343.663 L2113.13 343.663 L2113.13 347.598 Q2114.47 345.283 2116.51 344.172 Q2118.57 343.038 2121.41 343.038 Q2126.14 343.038 2129.08 346.788 Q2132.04 350.538 2132.04 356.649 Q2132.04 362.76 2129.08 366.51 Q2126.14 370.26 2121.41 370.26 Q2118.57 370.26 2116.51 369.149 Q2114.47 368.015 2113.13 365.7 M2127.62 356.649 Q2127.62 351.95 2125.67 349.288 Q2123.75 346.603 2120.37 346.603 Q2116.99 346.603 2115.05 349.288 Q2113.13 351.95 2113.13 356.649 Q2113.13 361.348 2115.05 364.033 Q2116.99 366.695 2120.37 366.695 Q2123.75 366.695 2125.67 364.033 Q2127.62 361.348 2127.62 356.649 Z" fill="#000000" fill-rule="evenodd" fill-opacity="1" /><path clip-path="url(#clip960)" d="M2139.1 343.663 L2143.36 343.663 L2143.36 369.589 L2139.1 369.589 L2139.1 343.663 M2139.1 333.57 L2143.36 333.57 L2143.36 338.964 L2139.1 338.964 L2139.1 333.57 Z" fill="#000000" fill-rule="evenodd" fill-opacity="1" /><path clip-path="url(#clip960)" d="M2167.29 347.644 Q2166.58 347.228 2165.72 347.042 Q2164.89 346.834 2163.87 346.834 Q2160.26 346.834 2158.31 349.195 Q2156.39 351.533 2156.39 355.931 L2156.39 369.589 L2152.11 369.589 L2152.11 343.663 L2156.39 343.663 L2156.39 347.691 Q2157.73 345.329 2159.89 344.195 Q2162.04 343.038 2165.12 343.038 Q2165.56 343.038 2166.09 343.107 Q2166.62 343.154 2167.27 343.269 L2167.29 347.644 Z" fill="#000000" fill-rule="evenodd" fill-opacity="1" /><path clip-path="url(#clip960)" d="M2171.76 343.663 L2176.02 343.663 L2176.02 369.589 L2171.76 369.589 L2171.76 343.663 M2171.76 333.57 L2176.02 333.57 L2176.02 338.964 L2171.76 338.964 L2171.76 333.57 Z" fill="#000000" fill-rule="evenodd" fill-opacity="1" /><path clip-path="url(#clip960)" d="M2203.59 344.658 L2203.59 348.64 Q2201.78 347.644 2199.96 347.158 Q2198.15 346.649 2196.3 346.649 Q2192.15 346.649 2189.86 349.288 Q2187.57 351.904 2187.57 356.649 Q2187.57 361.394 2189.86 364.033 Q2192.15 366.649 2196.3 366.649 Q2198.15 366.649 2199.96 366.163 Q2201.78 365.653 2203.59 364.658 L2203.59 368.593 Q2201.81 369.427 2199.89 369.843 Q2197.99 370.26 2195.83 370.26 Q2189.98 370.26 2186.53 366.579 Q2183.08 362.899 2183.08 356.649 Q2183.08 350.306 2186.55 346.672 Q2190.05 343.038 2196.11 343.038 Q2198.08 343.038 2199.96 343.455 Q2201.83 343.848 2203.59 344.658 Z" fill="#000000" fill-rule="evenodd" fill-opacity="1" /><path clip-path="url(#clip960)" d="M2222.78 356.556 Q2217.62 356.556 2215.63 357.737 Q2213.64 358.917 2213.64 361.765 Q2213.64 364.033 2215.12 365.376 Q2216.62 366.695 2219.19 366.695 Q2222.73 366.695 2224.86 364.195 Q2227.02 361.672 2227.02 357.505 L2227.02 356.556 L2222.78 356.556 M2231.27 354.797 L2231.27 369.589 L2227.02 369.589 L2227.02 365.653 Q2225.56 368.015 2223.38 369.149 Q2221.21 370.26 2218.06 370.26 Q2214.08 370.26 2211.71 368.038 Q2209.38 365.792 2209.38 362.042 Q2209.38 357.667 2212.29 355.445 Q2215.23 353.223 2221.04 353.223 L2227.02 353.223 L2227.02 352.806 Q2227.02 349.867 2225.07 348.269 Q2223.15 346.649 2219.65 346.649 Q2217.43 346.649 2215.33 347.181 Q2213.22 347.714 2211.27 348.779 L2211.27 344.843 Q2213.61 343.941 2215.81 343.501 Q2218.01 343.038 2220.09 343.038 Q2225.72 343.038 2228.5 345.954 Q2231.27 348.871 2231.27 354.797 Z" fill="#000000" fill-rule="evenodd" fill-opacity="1" /><path clip-path="url(#clip960)" d="M2240.05 333.57 L2244.31 333.57 L2244.31 369.589 L2240.05 369.589 L2240.05 333.57 Z" fill="#000000" fill-rule="evenodd" fill-opacity="1" /></svg>
