<?xml version="1.0" encoding="utf-8"?>
<svg xmlns="http://www.w3.org/2000/svg" xmlns:xlink="http://www.w3.org/1999/xlink" width="600" height="400" viewBox="0 0 2400 1600">
<defs>
  <clipPath id="clip830">
    <rect x="0" y="0" width="2400" height="1600"/>
  </clipPath>
</defs>
<path clip-path="url(#clip830)" d="M0 1600 L2400 1600 L2400 0 L0 0  Z" fill="#ffffff" fill-rule="evenodd" fill-opacity="1"/>
<defs>
  <clipPath id="clip831">
    <rect x="480" y="0" width="1681" height="1600"/>
  </clipPath>
</defs>
<path clip-path="url(#clip830)" d="M276.876 1410.9 L2352.76 1410.9 L2352.76 47.2441 L276.876 47.2441  Z" fill="#ffffff" fill-rule="evenodd" fill-opacity="1"/>
<defs>
  <clipPath id="clip832">
    <rect x="276" y="47" width="2077" height="1365"/>
  </clipPath>
</defs>
<polyline clip-path="url(#clip832)" style="stroke:#000000; stroke-linecap:round; stroke-linejoin:round; stroke-width:2; stroke-opacity:0.1; fill:none" points="335.627,1410.9 335.627,47.2441 "/>
<polyline clip-path="url(#clip832)" style="stroke:#000000; stroke-linecap:round; stroke-linejoin:round; stroke-width:2; stroke-opacity:0.1; fill:none" points="1314.82,1410.9 1314.82,47.2441 "/>
<polyline clip-path="url(#clip832)" style="stroke:#000000; stroke-linecap:round; stroke-linejoin:round; stroke-width:2; stroke-opacity:0.1; fill:none" points="2294,1410.9 2294,47.2441 "/>
<polyline clip-path="url(#clip830)" style="stroke:#000000; stroke-linecap:round; stroke-linejoin:round; stroke-width:4; stroke-opacity:1; fill:none" points="276.876,1410.9 2352.76,1410.9 "/>
<polyline clip-path="url(#clip830)" style="stroke:#000000; stroke-linecap:round; stroke-linejoin:round; stroke-width:4; stroke-opacity:1; fill:none" points="335.627,1410.9 335.627,1392 "/>
<polyline clip-path="url(#clip830)" style="stroke:#000000; stroke-linecap:round; stroke-linejoin:round; stroke-width:4; stroke-opacity:1; fill:none" points="1314.82,1410.9 1314.82,1392 "/>
<polyline clip-path="url(#clip830)" style="stroke:#000000; stroke-linecap:round; stroke-linejoin:round; stroke-width:4; stroke-opacity:1; fill:none" points="2294,1410.9 2294,1392 "/>
<path clip-path="url(#clip830)" d="M301.954 1485.02 L309.593 1485.02 L309.593 1458.66 L301.283 1460.32 L301.283 1456.06 L309.547 1454.4 L314.223 1454.4 L314.223 1485.02 L321.862 1485.02 L321.862 1488.96 L301.954 1488.96 L301.954 1485.02 Z" fill="#000000" fill-rule="nonzero" fill-opacity="1" /><path clip-path="url(#clip830)" d="M341.306 1457.48 Q337.695 1457.48 335.866 1461.04 Q334.061 1464.58 334.061 1471.71 Q334.061 1478.82 335.866 1482.38 Q337.695 1485.92 341.306 1485.92 Q344.94 1485.92 346.746 1482.38 Q348.575 1478.82 348.575 1471.71 Q348.575 1464.58 346.746 1461.04 Q344.94 1457.48 341.306 1457.48 M341.306 1453.77 Q347.116 1453.77 350.172 1458.38 Q353.25 1462.96 353.25 1471.71 Q353.25 1480.44 350.172 1485.04 Q347.116 1489.63 341.306 1489.63 Q335.496 1489.63 332.417 1485.04 Q329.362 1480.44 329.362 1471.71 Q329.362 1462.96 332.417 1458.38 Q335.496 1453.77 341.306 1453.77 Z" fill="#000000" fill-rule="nonzero" fill-opacity="1" /><path clip-path="url(#clip830)" d="M353.796 1458.35 L360.002 1458.35 L360.002 1436.93 L353.25 1438.28 L353.25 1434.82 L359.965 1433.47 L363.764 1433.47 L363.764 1458.35 L369.971 1458.35 L369.971 1461.55 L353.796 1461.55 L353.796 1458.35 Z" fill="#000000" fill-rule="nonzero" fill-opacity="1" /><path clip-path="url(#clip830)" d="M1280.59 1485.02 L1288.23 1485.02 L1288.23 1458.66 L1279.92 1460.32 L1279.92 1456.06 L1288.18 1454.4 L1292.86 1454.4 L1292.86 1485.02 L1300.5 1485.02 L1300.5 1488.96 L1280.59 1488.96 L1280.59 1485.02 Z" fill="#000000" fill-rule="nonzero" fill-opacity="1" /><path clip-path="url(#clip830)" d="M1319.94 1457.48 Q1316.33 1457.48 1314.5 1461.04 Q1312.69 1464.58 1312.69 1471.71 Q1312.69 1478.82 1314.5 1482.38 Q1316.33 1485.92 1319.94 1485.92 Q1323.57 1485.92 1325.38 1482.38 Q1327.21 1478.82 1327.21 1471.71 Q1327.21 1464.58 1325.38 1461.04 Q1323.57 1457.48 1319.94 1457.48 M1319.94 1453.77 Q1325.75 1453.77 1328.81 1458.38 Q1331.88 1462.96 1331.88 1471.71 Q1331.88 1480.44 1328.81 1485.04 Q1325.75 1489.63 1319.94 1489.63 Q1314.13 1489.63 1311.05 1485.04 Q1308 1480.44 1308 1471.71 Q1308 1462.96 1311.05 1458.38 Q1314.13 1453.77 1319.94 1453.77 Z" fill="#000000" fill-rule="nonzero" fill-opacity="1" /><path clip-path="url(#clip830)" d="M1336.45 1458.35 L1349.71 1458.35 L1349.71 1461.55 L1331.88 1461.55 L1331.88 1458.35 Q1334.05 1456.11 1337.77 1452.35 Q1341.51 1448.57 1342.47 1447.48 Q1344.3 1445.43 1345.01 1444.02 Q1345.75 1442.59 1345.75 1441.22 Q1345.75 1438.98 1344.17 1437.57 Q1342.6 1436.16 1340.08 1436.16 Q1338.3 1436.16 1336.3 1436.78 Q1334.33 1437.4 1332.07 1438.66 L1332.07 1434.82 Q1334.37 1433.9 1336.36 1433.43 Q1338.35 1432.96 1340.01 1432.96 Q1344.37 1432.96 1346.97 1435.14 Q1349.56 1437.32 1349.56 1440.97 Q1349.56 1442.7 1348.91 1444.26 Q1348.27 1445.8 1346.55 1447.91 Q1346.08 1448.46 1343.56 1451.07 Q1341.04 1453.67 1336.45 1458.35 Z" fill="#000000" fill-rule="nonzero" fill-opacity="1" /><path clip-path="url(#clip830)" d="M2259.45 1485.02 L2267.09 1485.02 L2267.09 1458.66 L2258.78 1460.32 L2258.78 1456.06 L2267.04 1454.4 L2271.72 1454.4 L2271.72 1485.02 L2279.36 1485.02 L2279.36 1488.96 L2259.45 1488.96 L2259.45 1485.02 Z" fill="#000000" fill-rule="nonzero" fill-opacity="1" /><path clip-path="url(#clip830)" d="M2298.8 1457.48 Q2295.19 1457.48 2293.36 1461.04 Q2291.55 1464.58 2291.55 1471.71 Q2291.55 1478.82 2293.36 1482.38 Q2295.19 1485.92 2298.8 1485.92 Q2302.43 1485.92 2304.24 1482.38 Q2306.07 1478.82 2306.07 1471.71 Q2306.07 1464.58 2304.24 1461.04 Q2302.43 1457.48 2298.8 1457.48 M2298.8 1453.77 Q2304.61 1453.77 2307.67 1458.38 Q2310.74 1462.96 2310.74 1471.71 Q2310.74 1480.44 2307.67 1485.04 Q2304.61 1489.63 2298.8 1489.63 Q2292.99 1489.63 2289.91 1485.04 Q2286.86 1480.44 2286.86 1471.71 Q2286.86 1462.96 2289.91 1458.38 Q2292.99 1453.77 2298.8 1453.77 Z" fill="#000000" fill-rule="nonzero" fill-opacity="1" /><path clip-path="url(#clip830)" d="M2323.44 1446.41 Q2326.17 1446.99 2327.69 1448.83 Q2329.23 1450.68 2329.23 1453.38 Q2329.23 1457.54 2326.37 1459.82 Q2323.51 1462.09 2318.25 1462.09 Q2316.48 1462.09 2314.6 1461.73 Q2312.74 1461.4 2310.74 1460.7 L2310.74 1457.03 Q2312.32 1457.95 2314.2 1458.42 Q2316.09 1458.89 2318.14 1458.89 Q2321.71 1458.89 2323.57 1457.48 Q2325.45 1456.07 2325.45 1453.38 Q2325.45 1450.9 2323.7 1449.51 Q2321.97 1448.1 2318.87 1448.1 L2315.6 1448.1 L2315.6 1444.98 L2319.02 1444.98 Q2321.82 1444.98 2323.31 1443.87 Q2324.79 1442.74 2324.79 1440.63 Q2324.79 1438.47 2323.25 1437.32 Q2321.73 1436.16 2318.87 1436.16 Q2317.31 1436.16 2315.52 1436.49 Q2313.73 1436.83 2311.59 1437.55 L2311.59 1434.16 Q2313.75 1433.56 2315.63 1433.26 Q2317.53 1432.96 2319.21 1432.96 Q2323.53 1432.96 2326.05 1434.93 Q2328.57 1436.89 2328.57 1440.24 Q2328.57 1442.57 2327.24 1444.19 Q2325.9 1445.79 2323.44 1446.41 Z" fill="#000000" fill-rule="nonzero" fill-opacity="1" /><path clip-path="url(#clip830)" d="M1121.54 1526.67 L1130.19 1526.67 L1151.26 1566.42 L1151.26 1526.67 L1157.5 1526.67 L1157.5 1574.19 L1148.85 1574.19 L1127.78 1534.43 L1127.78 1574.19 L1121.54 1574.19 L1121.54 1526.67 Z" fill="#000000" fill-rule="nonzero" fill-opacity="1" /><path clip-path="url(#clip830)" d="M1197.13 1585.01 L1197.13 1589.56 L1163.26 1589.56 L1163.26 1585.01 L1197.13 1585.01 Z" fill="#000000" fill-rule="nonzero" fill-opacity="1" /><path clip-path="url(#clip830)" d="M1226.09 1543.95 L1226.09 1524.66 L1231.95 1524.66 L1231.95 1574.19 L1226.09 1574.19 L1226.09 1568.84 Q1224.25 1572.02 1221.41 1573.58 Q1218.61 1575.11 1214.67 1575.11 Q1208.21 1575.11 1204.13 1569.95 Q1200.09 1564.8 1200.09 1556.39 Q1200.09 1547.99 1204.13 1542.83 Q1208.21 1537.68 1214.67 1537.68 Q1218.61 1537.68 1221.41 1539.24 Q1224.25 1540.77 1226.09 1543.95 M1206.14 1556.39 Q1206.14 1562.85 1208.78 1566.55 Q1211.45 1570.21 1216.1 1570.21 Q1220.75 1570.21 1223.42 1566.55 Q1226.09 1562.85 1226.09 1556.39 Q1226.09 1549.93 1223.42 1546.27 Q1220.75 1542.58 1216.1 1542.58 Q1211.45 1542.58 1208.78 1546.27 Q1206.14 1549.93 1206.14 1556.39 Z" fill="#000000" fill-rule="nonzero" fill-opacity="1" /><path clip-path="url(#clip830)" d="M1264.19 1524.66 L1277.69 1524.66 L1277.69 1529.21 L1270.05 1529.21 L1270.05 1578.23 L1277.69 1578.23 L1277.69 1582.78 L1264.19 1582.78 L1264.19 1524.66 Z" fill="#000000" fill-rule="nonzero" fill-opacity="1" /><path clip-path="url(#clip830)" d="M1292.11 1568.77 L1302.61 1568.77 L1302.61 1532.52 L1291.18 1534.81 L1291.18 1528.96 L1302.55 1526.67 L1308.98 1526.67 L1308.98 1568.77 L1319.48 1568.77 L1319.48 1574.19 L1292.11 1574.19 L1292.11 1568.77 Z" fill="#000000" fill-rule="nonzero" fill-opacity="1" /><path clip-path="url(#clip830)" d="M1342.05 1526.67 L1347.46 1526.67 L1330.91 1580.23 L1325.49 1580.23 L1342.05 1526.67 Z" fill="#000000" fill-rule="nonzero" fill-opacity="1" /><path clip-path="url(#clip830)" d="M1379.25 1539.91 L1379.25 1545.38 Q1376.77 1544.01 1374.26 1543.34 Q1371.77 1542.64 1369.23 1542.64 Q1363.53 1542.64 1360.38 1546.27 Q1357.23 1549.87 1357.23 1556.39 Q1357.23 1562.92 1360.38 1566.55 Q1363.53 1570.14 1369.23 1570.14 Q1371.77 1570.14 1374.26 1569.47 Q1376.77 1568.77 1379.25 1567.41 L1379.25 1572.82 Q1376.8 1573.96 1374.16 1574.54 Q1371.55 1575.11 1368.59 1575.11 Q1360.54 1575.11 1355.79 1570.05 Q1351.05 1564.99 1351.05 1556.39 Q1351.05 1547.67 1355.83 1542.68 Q1360.63 1537.68 1368.97 1537.68 Q1371.68 1537.68 1374.26 1538.25 Q1376.83 1538.79 1379.25 1539.91 Z" fill="#000000" fill-rule="nonzero" fill-opacity="1" /><path clip-path="url(#clip830)" d="M1417.19 1545.38 Q1419.39 1541.43 1422.44 1539.56 Q1425.5 1537.68 1429.64 1537.68 Q1435.21 1537.68 1438.23 1541.59 Q1441.25 1545.48 1441.25 1552.67 L1441.25 1574.19 L1435.37 1574.19 L1435.37 1552.86 Q1435.37 1547.74 1433.55 1545.25 Q1431.74 1542.77 1428.01 1542.77 Q1423.46 1542.77 1420.82 1545.79 Q1418.18 1548.82 1418.18 1554.04 L1418.18 1574.19 L1412.29 1574.19 L1412.29 1552.86 Q1412.29 1547.7 1410.48 1545.25 Q1408.66 1542.77 1404.87 1542.77 Q1400.39 1542.77 1397.74 1545.83 Q1395.1 1548.85 1395.1 1554.04 L1395.1 1574.19 L1389.21 1574.19 L1389.21 1538.54 L1395.1 1538.54 L1395.1 1544.08 Q1397.11 1540.8 1399.91 1539.24 Q1402.71 1537.68 1406.56 1537.68 Q1410.44 1537.68 1413.15 1539.65 Q1415.89 1541.62 1417.19 1545.38 Z" fill="#000000" fill-rule="nonzero" fill-opacity="1" /><path clip-path="url(#clip830)" d="M1473.24 1548.56 Q1477.86 1549.55 1480.44 1552.67 Q1483.05 1555.79 1483.05 1560.37 Q1483.05 1567.41 1478.21 1571.26 Q1473.37 1575.11 1464.46 1575.11 Q1461.47 1575.11 1458.28 1574.5 Q1455.13 1573.93 1451.76 1572.75 L1451.76 1566.55 Q1454.43 1568.11 1457.61 1568.9 Q1460.8 1569.7 1464.27 1569.7 Q1470.31 1569.7 1473.47 1567.31 Q1476.65 1564.92 1476.65 1560.37 Q1476.65 1556.17 1473.69 1553.82 Q1470.76 1551.43 1465.51 1551.43 L1459.97 1551.43 L1459.97 1546.14 L1465.76 1546.14 Q1470.5 1546.14 1473.02 1544.27 Q1475.53 1542.36 1475.53 1538.79 Q1475.53 1535.13 1472.92 1533.19 Q1470.35 1531.22 1465.51 1531.22 Q1462.87 1531.22 1459.84 1531.79 Q1456.82 1532.36 1453.19 1533.57 L1453.19 1527.84 Q1456.85 1526.82 1460.03 1526.32 Q1463.25 1525.81 1466.08 1525.81 Q1473.4 1525.81 1477.67 1529.15 Q1481.93 1532.46 1481.93 1538.12 Q1481.93 1542.07 1479.67 1544.81 Q1477.41 1547.51 1473.24 1548.56 Z" fill="#000000" fill-rule="nonzero" fill-opacity="1" /><path clip-path="url(#clip830)" d="M1508.09 1524.66 L1508.09 1582.78 L1494.6 1582.78 L1494.6 1578.23 L1502.21 1578.23 L1502.21 1529.21 L1494.6 1529.21 L1494.6 1524.66 L1508.09 1524.66 Z" fill="#000000" fill-rule="nonzero" fill-opacity="1" /><polyline clip-path="url(#clip832)" style="stroke:#000000; stroke-linecap:round; stroke-linejoin:round; stroke-width:2; stroke-opacity:0.1; fill:none" points="276.876,899.527 2352.76,899.527 "/>
<polyline clip-path="url(#clip832)" style="stroke:#000000; stroke-linecap:round; stroke-linejoin:round; stroke-width:2; stroke-opacity:0.1; fill:none" points="276.876,47.2441 2352.76,47.2441 "/>
<polyline clip-path="url(#clip830)" style="stroke:#000000; stroke-linecap:round; stroke-linejoin:round; stroke-width:4; stroke-opacity:1; fill:none" points="276.876,1410.9 276.876,47.2441 "/>
<polyline clip-path="url(#clip830)" style="stroke:#000000; stroke-linecap:round; stroke-linejoin:round; stroke-width:4; stroke-opacity:1; fill:none" points="276.876,899.527 295.773,899.527 "/>
<polyline clip-path="url(#clip830)" style="stroke:#000000; stroke-linecap:round; stroke-linejoin:round; stroke-width:4; stroke-opacity:1; fill:none" points="276.876,47.2441 295.773,47.2441 "/>
<path clip-path="url(#clip830)" d="M114.931 919.319 L122.57 919.319 L122.57 892.954 L114.26 894.62 L114.26 890.361 L122.524 888.695 L127.2 888.695 L127.2 919.319 L134.839 919.319 L134.839 923.255 L114.931 923.255 L114.931 919.319 Z" fill="#000000" fill-rule="nonzero" fill-opacity="1" /><path clip-path="url(#clip830)" d="M154.283 891.773 Q150.672 891.773 148.843 895.338 Q147.038 898.88 147.038 906.009 Q147.038 913.116 148.843 916.68 Q150.672 920.222 154.283 920.222 Q157.917 920.222 159.723 916.68 Q161.552 913.116 161.552 906.009 Q161.552 898.88 159.723 895.338 Q157.917 891.773 154.283 891.773 M154.283 888.07 Q160.093 888.07 163.149 892.676 Q166.227 897.259 166.227 906.009 Q166.227 914.736 163.149 919.343 Q160.093 923.926 154.283 923.926 Q148.473 923.926 145.394 919.343 Q142.339 914.736 142.339 906.009 Q142.339 897.259 145.394 892.676 Q148.473 888.07 154.283 888.07 Z" fill="#000000" fill-rule="nonzero" fill-opacity="1" /><path clip-path="url(#clip830)" d="M166.227 882.171 L190.339 882.171 L190.339 885.368 L166.227 885.368 L166.227 882.171 Z" fill="#000000" fill-rule="nonzero" fill-opacity="1" /><path clip-path="url(#clip830)" d="M199.197 892.647 L205.404 892.647 L205.404 871.225 L198.652 872.579 L198.652 869.118 L205.366 867.764 L209.166 867.764 L209.166 892.647 L215.372 892.647 L215.372 895.844 L199.197 895.844 L199.197 892.647 Z" fill="#000000" fill-rule="nonzero" fill-opacity="1" /><path clip-path="url(#clip830)" d="M231.171 870.266 Q228.237 870.266 226.751 873.162 Q225.284 876.04 225.284 881.832 Q225.284 887.606 226.751 890.503 Q228.237 893.38 231.171 893.38 Q234.124 893.38 235.591 890.503 Q237.076 887.606 237.076 881.832 Q237.076 876.04 235.591 873.162 Q234.124 870.266 231.171 870.266 M231.171 867.256 Q235.891 867.256 238.374 870.999 Q240.876 874.723 240.876 881.832 Q240.876 888.923 238.374 892.666 Q235.891 896.39 231.171 896.39 Q226.45 896.39 223.949 892.666 Q221.466 888.923 221.466 881.832 Q221.466 874.723 223.949 870.999 Q226.45 867.256 231.171 867.256 Z" fill="#000000" fill-rule="nonzero" fill-opacity="1" /><path clip-path="url(#clip830)" d="M140.247 67.0365 L147.886 67.0365 L147.886 40.6709 L139.575 42.3376 L139.575 38.0784 L147.839 36.4117 L152.515 36.4117 L152.515 67.0365 L160.154 67.0365 L160.154 70.9717 L140.247 70.9717 L140.247 67.0365 Z" fill="#000000" fill-rule="nonzero" fill-opacity="1" /><path clip-path="url(#clip830)" d="M179.598 39.4904 Q175.987 39.4904 174.159 43.0552 Q172.353 46.5968 172.353 53.7264 Q172.353 60.8329 174.159 64.3977 Q175.987 67.9393 179.598 67.9393 Q183.233 67.9393 185.038 64.3977 Q186.867 60.8329 186.867 53.7264 Q186.867 46.5968 185.038 43.0552 Q183.233 39.4904 179.598 39.4904 M179.598 35.7867 Q185.409 35.7867 188.464 40.3932 Q191.543 44.9765 191.543 53.7264 Q191.543 62.4532 188.464 67.0597 Q185.409 71.643 179.598 71.643 Q173.788 71.643 170.71 67.0597 Q167.654 62.4532 167.654 53.7264 Q167.654 44.9765 170.71 40.3932 Q173.788 35.7867 179.598 35.7867 Z" fill="#000000" fill-rule="nonzero" fill-opacity="1" /><path clip-path="url(#clip830)" d="M191.543 29.888 L215.654 29.888 L215.654 33.0854 L191.543 33.0854 L191.543 29.888 Z" fill="#000000" fill-rule="nonzero" fill-opacity="1" /><path clip-path="url(#clip830)" d="M223.892 15.4813 L238.807 15.4813 L238.807 18.6786 L227.372 18.6786 L227.372 25.5623 Q228.199 25.2801 229.027 25.1485 Q229.854 24.998 230.682 24.998 Q235.384 24.998 238.13 27.5747 Q240.876 30.1514 240.876 34.5524 Q240.876 39.085 238.054 41.6053 Q235.233 44.1067 230.099 44.1067 Q228.331 44.1067 226.488 43.8058 Q224.663 43.5049 222.707 42.903 L222.707 39.085 Q224.4 40.0066 226.205 40.458 Q228.011 40.9094 230.023 40.9094 Q233.277 40.9094 235.177 39.1979 Q237.076 37.4864 237.076 34.5524 Q237.076 31.6184 235.177 29.9069 Q233.277 28.1953 230.023 28.1953 Q228.5 28.1953 226.977 28.5339 Q225.472 28.8724 223.892 29.5871 L223.892 15.4813 Z" fill="#000000" fill-rule="nonzero" fill-opacity="1" /><path clip-path="url(#clip830)" d="M46.0847 1118.17 Q46.0847 1125.27 47.7079 1128.01 Q49.3312 1130.75 53.2461 1130.75 Q56.3653 1130.75 58.2114 1128.71 Q60.0256 1126.64 60.0256 1123.11 Q60.0256 1118.24 56.5881 1115.31 Q53.1188 1112.35 47.3897 1112.35 L46.0847 1112.35 L46.0847 1118.17 M43.6657 1106.49 L64.0042 1106.49 L64.0042 1112.35 L58.5933 1112.35 Q61.8398 1114.35 63.3994 1117.35 Q64.9272 1120.34 64.9272 1124.67 Q64.9272 1130.14 61.8716 1133.39 Q58.7843 1136.6 53.6281 1136.6 Q47.6125 1136.6 44.5569 1132.59 Q41.5014 1128.55 41.5014 1120.56 L41.5014 1112.35 L40.9285 1112.35 Q36.8862 1112.35 34.6901 1115.02 Q32.4621 1117.66 32.4621 1122.47 Q32.4621 1125.53 33.1941 1128.42 Q33.9262 1131.32 35.3903 1133.99 L29.9795 1133.99 Q28.7381 1130.78 28.1334 1127.75 Q27.4968 1124.73 27.4968 1121.87 Q27.4968 1114.13 31.5072 1110.31 Q35.5176 1106.49 43.6657 1106.49 Z" fill="#000000" fill-rule="nonzero" fill-opacity="1" /><path clip-path="url(#clip830)" d="M49.9359 1095.03 L28.3562 1095.03 L28.3562 1089.18 L49.7131 1089.18 Q54.7739 1089.18 57.3202 1087.21 Q59.8346 1085.23 59.8346 1081.28 Q59.8346 1076.54 56.8109 1073.81 Q53.7872 1071.04 48.5673 1071.04 L28.3562 1071.04 L28.3562 1065.18 L64.0042 1065.18 L64.0042 1071.04 L58.5296 1071.04 Q61.7762 1073.17 63.3676 1076 Q64.9272 1078.8 64.9272 1082.53 Q64.9272 1088.67 61.1078 1091.85 Q57.2883 1095.03 49.9359 1095.03 M27.4968 1080.3 L27.4968 1080.3 Z" fill="#000000" fill-rule="nonzero" fill-opacity="1" /><path clip-path="url(#clip830)" d="M18.2347 1047.32 L28.3562 1047.32 L28.3562 1035.26 L32.9077 1035.26 L32.9077 1047.32 L52.2594 1047.32 Q56.6199 1047.32 57.8613 1046.15 Q59.1026 1044.94 59.1026 1041.28 L59.1026 1035.26 L64.0042 1035.26 L64.0042 1041.28 Q64.0042 1048.06 61.4897 1050.63 Q58.9434 1053.21 52.2594 1053.21 L32.9077 1053.21 L32.9077 1057.51 L28.3562 1057.51 L28.3562 1053.21 L18.2347 1053.21 L18.2347 1047.32 Z" fill="#000000" fill-rule="nonzero" fill-opacity="1" /><path clip-path="url(#clip830)" d="M32.4621 1013.74 Q32.4621 1018.46 36.1542 1021.19 Q39.8145 1023.93 46.212 1023.93 Q52.6095 1023.93 56.3017 1021.22 Q59.9619 1018.49 59.9619 1013.74 Q59.9619 1009.07 56.2698 1006.33 Q52.5777 1003.59 46.212 1003.59 Q39.8781 1003.59 36.186 1006.33 Q32.4621 1009.07 32.4621 1013.74 M27.4968 1013.74 Q27.4968 1006.11 32.4621 1001.75 Q37.4273 997.385 46.212 997.385 Q54.9649 997.385 59.9619 1001.75 Q64.9272 1006.11 64.9272 1013.74 Q64.9272 1021.42 59.9619 1025.78 Q54.9649 1030.1 46.212 1030.1 Q37.4273 1030.1 32.4621 1025.78 Q27.4968 1021.42 27.4968 1013.74 Z" fill="#000000" fill-rule="nonzero" fill-opacity="1" /><path clip-path="url(#clip830)" d="M29.7248 962.023 L35.1993 962.023 Q33.8307 964.506 33.1623 967.02 Q32.4621 969.503 32.4621 972.049 Q32.4621 977.747 36.0905 980.898 Q39.6872 984.049 46.212 984.049 Q52.7369 984.049 56.3653 980.898 Q59.9619 977.747 59.9619 972.049 Q59.9619 969.503 59.2935 967.02 Q58.5933 964.506 57.2247 962.023 L62.6355 962.023 Q63.7814 964.474 64.3543 967.116 Q64.9272 969.726 64.9272 972.686 Q64.9272 980.739 59.8664 985.481 Q54.8057 990.223 46.212 990.223 Q37.491 990.223 32.4939 985.449 Q27.4968 980.643 27.4968 972.304 Q27.4968 969.599 28.0697 967.02 Q28.6108 964.442 29.7248 962.023 Z" fill="#000000" fill-rule="nonzero" fill-opacity="1" /><path clip-path="url(#clip830)" d="M32.4621 938.025 Q32.4621 942.735 36.1542 945.473 Q39.8145 948.21 46.212 948.21 Q52.6095 948.21 56.3017 945.504 Q59.9619 942.767 59.9619 938.025 Q59.9619 933.346 56.2698 930.609 Q52.5777 927.871 46.212 927.871 Q39.8781 927.871 36.186 930.609 Q32.4621 933.346 32.4621 938.025 M27.4968 938.025 Q27.4968 930.386 32.4621 926.025 Q37.4273 921.665 46.212 921.665 Q54.9649 921.665 59.9619 926.025 Q64.9272 930.386 64.9272 938.025 Q64.9272 945.695 59.9619 950.056 Q54.9649 954.385 46.212 954.385 Q37.4273 954.385 32.4621 950.056 Q27.4968 945.695 27.4968 938.025 Z" fill="#000000" fill-rule="nonzero" fill-opacity="1" /><path clip-path="url(#clip830)" d="M42.4881 882.325 L64.0042 882.325 L64.0042 888.181 L42.679 888.181 Q37.6183 888.181 35.1038 890.155 Q32.5894 892.128 32.5894 896.075 Q32.5894 900.817 35.6131 903.554 Q38.6368 906.292 43.8567 906.292 L64.0042 906.292 L64.0042 912.18 L28.3562 912.18 L28.3562 906.292 L33.8944 906.292 Q30.6797 904.191 29.0883 901.358 Q27.4968 898.494 27.4968 894.77 Q27.4968 888.627 31.3163 885.476 Q35.1038 882.325 42.4881 882.325 Z" fill="#000000" fill-rule="nonzero" fill-opacity="1" /><path clip-path="url(#clip830)" d="M28.3562 874.845 L28.3562 868.638 L58.275 857.498 L28.3562 846.359 L28.3562 840.152 L64.0042 853.52 L64.0042 861.477 L28.3562 874.845 Z" fill="#000000" fill-rule="nonzero" fill-opacity="1" /><path clip-path="url(#clip830)" d="M44.7161 801.576 L47.5806 801.576 L47.5806 828.503 Q53.6281 828.121 56.8109 824.874 Q59.9619 821.596 59.9619 815.771 Q59.9619 812.397 59.1344 809.246 Q58.3069 806.064 56.6518 802.944 L62.1899 802.944 Q63.5267 806.095 64.227 809.406 Q64.9272 812.716 64.9272 816.121 Q64.9272 824.651 59.9619 829.649 Q54.9967 834.614 46.5303 834.614 Q37.7774 834.614 32.6531 829.903 Q27.4968 825.161 27.4968 817.14 Q27.4968 809.947 32.1438 805.777 Q36.7589 801.576 44.7161 801.576 M42.9973 807.432 Q38.1912 807.496 35.3266 810.138 Q32.4621 812.748 32.4621 817.076 Q32.4621 821.978 35.2312 824.938 Q38.0002 827.866 43.0292 828.312 L42.9973 807.432 Z" fill="#000000" fill-rule="nonzero" fill-opacity="1" /><path clip-path="url(#clip830)" d="M33.8307 771.307 Q33.2578 772.294 33.0032 773.471 Q32.7167 774.617 32.7167 776.017 Q32.7167 780.983 35.9632 783.656 Q39.1779 786.298 45.2253 786.298 L64.0042 786.298 L64.0042 792.186 L28.3562 792.186 L28.3562 786.298 L33.8944 786.298 Q30.6479 784.452 29.0883 781.492 Q27.4968 778.532 27.4968 774.299 Q27.4968 773.694 27.5923 772.962 Q27.656 772.23 27.8151 771.339 L33.8307 771.307 Z" fill="#000000" fill-rule="nonzero" fill-opacity="1" /><path clip-path="url(#clip830)" d="M29.4065 742.438 L34.9447 742.438 Q33.6716 744.921 33.035 747.595 Q32.3984 750.268 32.3984 753.133 Q32.3984 757.493 33.7352 759.689 Q35.072 761.854 37.7456 761.854 Q39.7826 761.854 40.9603 760.294 Q42.1061 758.735 43.1565 754.024 L43.6021 752.019 Q44.9389 745.78 47.3897 743.17 Q49.8086 740.529 54.1691 740.529 Q59.1344 740.529 62.0308 744.475 Q64.9272 748.39 64.9272 755.265 Q64.9272 758.13 64.3543 761.249 Q63.8132 764.336 62.6992 767.774 L56.6518 767.774 Q58.3387 764.527 59.198 761.376 Q60.0256 758.225 60.0256 755.138 Q60.0256 751 58.6251 748.772 Q57.1929 746.544 54.6147 746.544 Q52.2276 746.544 50.9545 748.167 Q49.6813 749.759 48.5037 755.202 L48.0262 757.239 Q46.8804 762.681 44.5251 765.1 Q42.138 767.519 38.0002 767.519 Q32.9713 767.519 30.2341 763.954 Q27.4968 760.39 27.4968 753.833 Q27.4968 750.586 27.9743 747.722 Q28.4517 744.857 29.4065 742.438 Z" fill="#000000" fill-rule="nonzero" fill-opacity="1" /><path clip-path="url(#clip830)" d="M28.3562 731.203 L28.3562 725.346 L64.0042 725.346 L64.0042 731.203 L28.3562 731.203 M14.479 731.203 L14.479 725.346 L21.895 725.346 L21.895 731.203 L14.479 731.203 Z" fill="#000000" fill-rule="nonzero" fill-opacity="1" /><path clip-path="url(#clip830)" d="M32.4621 699.279 Q32.4621 703.989 36.1542 706.727 Q39.8145 709.464 46.212 709.464 Q52.6095 709.464 56.3017 706.759 Q59.9619 704.021 59.9619 699.279 Q59.9619 694.6 56.2698 691.863 Q52.5777 689.126 46.212 689.126 Q39.8781 689.126 36.186 691.863 Q32.4621 694.6 32.4621 699.279 M27.4968 699.279 Q27.4968 691.64 32.4621 687.28 Q37.4273 682.919 46.212 682.919 Q54.9649 682.919 59.9619 687.28 Q64.9272 691.64 64.9272 699.279 Q64.9272 706.95 59.9619 711.31 Q54.9649 715.639 46.212 715.639 Q37.4273 715.639 32.4621 711.31 Q27.4968 706.95 27.4968 699.279 Z" fill="#000000" fill-rule="nonzero" fill-opacity="1" /><path clip-path="url(#clip830)" d="M42.4881 643.579 L64.0042 643.579 L64.0042 649.435 L42.679 649.435 Q37.6183 649.435 35.1038 651.409 Q32.5894 653.382 32.5894 657.329 Q32.5894 662.071 35.6131 664.809 Q38.6368 667.546 43.8567 667.546 L64.0042 667.546 L64.0042 673.434 L28.3562 673.434 L28.3562 667.546 L33.8944 667.546 Q30.6797 665.445 29.0883 662.612 Q27.4968 659.748 27.4968 656.024 Q27.4968 649.881 31.3163 646.73 Q35.1038 643.579 42.4881 643.579 Z" fill="#000000" fill-rule="nonzero" fill-opacity="1" /><path clip-path="url(#clip830)" d="M33.8307 590.521 Q33.2578 591.507 33.0032 592.685 Q32.7167 593.831 32.7167 595.231 Q32.7167 600.197 35.9632 602.87 Q39.1779 605.512 45.2253 605.512 L64.0042 605.512 L64.0042 611.4 L28.3562 611.4 L28.3562 605.512 L33.8944 605.512 Q30.6479 603.666 29.0883 600.706 Q27.4968 597.746 27.4968 593.513 Q27.4968 592.908 27.5923 592.176 Q27.656 591.444 27.8151 590.553 L33.8307 590.521 Z" fill="#000000" fill-rule="nonzero" fill-opacity="1" /><path clip-path="url(#clip830)" d="M46.0847 568.177 Q46.0847 575.275 47.7079 578.012 Q49.3312 580.749 53.2461 580.749 Q56.3653 580.749 58.2114 578.712 Q60.0256 576.644 60.0256 573.111 Q60.0256 568.241 56.5881 565.313 Q53.1188 562.353 47.3897 562.353 L46.0847 562.353 L46.0847 568.177 M43.6657 556.496 L64.0042 556.496 L64.0042 562.353 L58.5933 562.353 Q61.8398 564.358 63.3994 567.35 Q64.9272 570.341 64.9272 574.67 Q64.9272 580.145 61.8716 583.391 Q58.7843 586.606 53.6281 586.606 Q47.6125 586.606 44.5569 582.595 Q41.5014 578.553 41.5014 570.564 L41.5014 562.353 L40.9285 562.353 Q36.8862 562.353 34.6901 565.026 Q32.4621 567.668 32.4621 572.474 Q32.4621 575.53 33.1941 578.426 Q33.9262 581.322 35.3903 583.996 L29.9795 583.996 Q28.7381 580.781 28.1334 577.758 Q27.4968 574.734 27.4968 571.869 Q27.4968 564.135 31.5072 560.315 Q35.5176 556.496 43.6657 556.496 Z" fill="#000000" fill-rule="nonzero" fill-opacity="1" /><path clip-path="url(#clip830)" d="M18.2347 538.64 L28.3562 538.64 L28.3562 526.577 L32.9077 526.577 L32.9077 538.64 L52.2594 538.64 Q56.6199 538.64 57.8613 537.463 Q59.1026 536.253 59.1026 532.593 L59.1026 526.577 L64.0042 526.577 L64.0042 532.593 Q64.0042 539.372 61.4897 541.95 Q58.9434 544.529 52.2594 544.529 L32.9077 544.529 L32.9077 548.825 L28.3562 548.825 L28.3562 544.529 L18.2347 544.529 L18.2347 538.64 Z" fill="#000000" fill-rule="nonzero" fill-opacity="1" /><path clip-path="url(#clip830)" d="M44.7161 488.383 L47.5806 488.383 L47.5806 515.31 Q53.6281 514.928 56.8109 511.681 Q59.9619 508.403 59.9619 502.579 Q59.9619 499.205 59.1344 496.054 Q58.3069 492.871 56.6518 489.752 L62.1899 489.752 Q63.5267 492.903 64.227 496.213 Q64.9272 499.523 64.9272 502.929 Q64.9272 511.459 59.9619 516.456 Q54.9967 521.421 46.5303 521.421 Q37.7774 521.421 32.6531 516.71 Q27.4968 511.968 27.4968 503.947 Q27.4968 496.754 32.1438 492.584 Q36.7589 488.383 44.7161 488.383 M42.9973 494.239 Q38.1912 494.303 35.3266 496.945 Q32.4621 499.555 32.4621 503.883 Q32.4621 508.785 35.2312 511.745 Q38.0002 514.673 43.0292 515.119 L42.9973 494.239 Z" fill="#000000" fill-rule="nonzero" fill-opacity="1" /><path clip-path="url(#clip830)" d="M14.479 458.591 L14.479 445.096 L19.0304 445.096 L19.0304 452.735 L68.0464 452.735 L68.0464 445.096 L72.5979 445.096 L72.5979 458.591 L14.479 458.591 Z" fill="#000000" fill-rule="nonzero" fill-opacity="1" /><path clip-path="url(#clip830)" d="M58.5933 430.678 L58.5933 420.174 L22.3406 420.174 L24.6323 431.601 L18.7758 431.601 L16.4842 420.238 L16.4842 413.809 L58.5933 413.809 L58.5933 403.305 L64.0042 403.305 L64.0042 430.678 L58.5933 430.678 Z" fill="#000000" fill-rule="nonzero" fill-opacity="1" /><path clip-path="url(#clip830)" d="M16.4842 380.739 L16.4842 375.328 L70.0516 391.879 L70.0516 397.29 L16.4842 380.739 Z" fill="#000000" fill-rule="nonzero" fill-opacity="1" /><path clip-path="url(#clip830)" d="M29.4065 346.46 L34.9447 346.46 Q33.6716 348.942 33.035 351.616 Q32.3984 354.289 32.3984 357.154 Q32.3984 361.514 33.7352 363.711 Q35.072 365.875 37.7456 365.875 Q39.7826 365.875 40.9603 364.315 Q42.1061 362.756 43.1565 358.045 L43.6021 356.04 Q44.9389 349.802 47.3897 347.192 Q49.8086 344.55 54.1691 344.55 Q59.1344 344.55 62.0308 348.497 Q64.9272 352.412 64.9272 359.286 Q64.9272 362.151 64.3543 365.27 Q63.8132 368.358 62.6992 371.795 L56.6518 371.795 Q58.3387 368.549 59.198 365.398 Q60.0256 362.247 60.0256 359.159 Q60.0256 355.021 58.6251 352.793 Q57.1929 350.565 54.6147 350.565 Q52.2276 350.565 50.9545 352.189 Q49.6813 353.78 48.5037 359.223 L48.0262 361.26 Q46.8804 366.703 44.5251 369.121 Q42.138 371.54 38.0002 371.54 Q32.9713 371.54 30.2341 367.976 Q27.4968 364.411 27.4968 357.854 Q27.4968 354.608 27.9743 351.743 Q28.4517 348.879 29.4065 346.46 Z" fill="#000000" fill-rule="nonzero" fill-opacity="1" /><path clip-path="url(#clip830)" d="M14.479 321.538 L72.5979 321.538 L72.5979 335.033 L68.0464 335.033 L68.0464 327.426 L19.0304 327.426 L19.0304 335.033 L14.479 335.033 L14.479 321.538 Z" fill="#000000" fill-rule="nonzero" fill-opacity="1" /><polyline clip-path="url(#clip832)" style="stroke:#009af9; stroke-linecap:round; stroke-linejoin:round; stroke-width:8; stroke-opacity:1; fill:none" points="335.627,188.774 375.81,211.858 412.521,232.947 446.314,252.36 477.618,270.342 506.774,287.092 534.06,302.766 559.699,317.495 583.881,331.386 606.761,344.53 628.472,357.003 649.129,368.869 668.828,380.186 687.656,391.001 705.685,401.358 722.98,411.294 739.6,420.841 755.594,430.029 771.009,438.885 785.884,447.43 800.257,455.686 814.16,463.673 827.622,471.407 840.671,478.903 853.332,486.176 865.627,493.239 877.576,500.103 889.199,506.78 900.512,513.279 911.532,519.61 922.274,525.781 932.751,531.799 942.977,537.673 952.962,543.409 962.718,549.014 972.255,554.493 981.583,559.851 990.711,565.095 999.647,570.228 1008.4,575.256 1016.97,580.182 1025.38,585.011 1033.62,589.747 1041.71,594.392 1049.65,598.951 1057.44,603.426 1065.09,607.82 1072.6,612.137 1079.98,616.379 1087.24,620.549 1094.38,624.648 1101.4,628.68 1108.3,632.647 1115.1,636.55 1121.78,640.392 1128.37,644.174 1134.85,647.898 1141.24,651.567 1147.53,655.181 1153.73,658.743 1159.84,662.254 1165.87,665.714 1171.81,669.127 1177.66,672.492 1183.44,675.812 1189.14,679.087 1194.77,682.319 1200.32,685.508 1205.8,688.657 1211.21,691.765 1216.56,694.835 1221.83,697.866 1227.05,700.86 1232.19,703.818 1237.28,706.741 1242.31,709.629 1247.28,712.483 1252.19,715.304 1257.04,718.093 1261.84,720.851 1266.59,723.578 1271.29,726.274 1275.93,728.942 1280.52,731.58 1285.07,734.19 1289.56,736.773 1294.01,739.329 1298.41,741.858 1302.77,744.361 1307.08,746.839 1311.35,749.292 1315.58,751.721 1319.77,754.125 1323.91,756.507 1328.02,758.865 1332.08,761.201 1336.11,763.514 1340.1,765.806 1344.05,768.077 1347.97,770.326 1351.85,772.555 1355.7,774.764 1359.51,776.954 1363.28,779.123 1367.03,781.274 1370.74,783.406 1374.42,785.519 1378.06,787.615 1381.68,789.692 1385.27,791.752 1388.82,793.795 1392.35,795.821 1395.85,797.83 1399.32,799.823 1402.76,801.799 1406.17,803.76 1409.56,805.705 1412.91,807.635 1416.25,809.55 1419.56,811.45 1422.84,813.335 1426.09,815.205 1429.32,817.062 1432.53,818.904 1435.72,820.733 1438.87,822.548 1442.01,824.35 1445.12,826.138 1448.22,827.914 1451.28,829.676 1454.33,831.427 1457.35,833.164 1460.36,834.89 1463.34,836.603 1466.3,838.304 1469.24,839.994 1472.16,841.672 1475.07,843.338 1477.95,844.993 1480.81,846.637 1483.65,848.27 1486.48,849.893 1489.28,851.504 1492.07,853.105 1494.84,854.696 1497.59,856.276 1500.32,857.846 1503.04,859.406 1505.73,860.956 1508.42,862.497 1511.08,864.028 1513.73,865.549 1516.36,867.061 1518.98,868.563 1521.58,870.056 1524.16,871.541 1526.73,873.016 1529.28,874.482 1531.82,875.94 1534.34,877.389 1536.85,878.83 1539.34,880.262 1541.82,881.685 1544.28,883.101 1546.73,884.508 1549.17,885.907 1551.59,887.299 1554,888.682 1556.39,890.058 1558.77,891.426 1561.14,892.786 1563.5,894.139 1565.84,895.484 1568.17,896.822 1570.48,898.152 1572.79,899.476 1575.08,900.792 1577.36,902.101 1579.63,903.404 1581.88,904.699 1584.12,905.988 1586.35,907.269 1588.57,908.544 1590.78,909.813 1592.98,911.075 1595.16,912.33 1597.34,913.579 1599.5,914.822 1601.65,916.058 1603.8,917.288 1605.93,918.512 1608.05,919.73 1610.16,803.707 1612.25,804.913 1614.34,806.113 1616.42,807.307 1618.49,808.495 1620.55,809.678 1622.6,810.855 1624.64,812.026 1626.66,813.191 1628.68,814.351 1630.69,815.506 1632.69,816.655 1634.69,817.799 1636.67,818.937 1638.64,820.07 1640.6,821.198 1642.56,822.321 1644.5,823.439 1646.44,824.551 1648.37,825.658 1650.29,826.761 1652.2,827.858 1654.1,828.951 1655.99,830.039 1657.88,831.122 1659.75,832.2 1661.62,833.273 1663.48,834.342 1665.34,835.406 1667.18,836.465 1669.02,837.52 1670.84,838.571 1672.66,839.616 1674.48,840.658 1676.28,841.695 1678.08,842.727 1679.87,843.755 1681.65,844.779 1683.43,845.799 1685.19,846.814 1686.95,847.826 1688.71,848.833 1690.45,849.835 1692.19,850.834 1693.92,851.829 1695.65,852.82 1697.37,853.806 1699.08,854.789 1700.78,855.768 1702.48,856.743 1704.17,857.714 1705.85,858.681 1707.53,859.644 1709.2,860.604 1710.86,861.559 1712.52,862.512 1714.17,863.46 1715.81,864.405 1717.45,865.346 1719.09,866.283 1720.71,867.217 1722.33,868.147 1723.94,869.074 1725.55,869.997 1727.15,870.917 1728.75,871.834 1730.34,872.747 1731.92,873.656 1733.5,874.562 1735.07,875.465 1736.63,876.365 1738.19,877.261 1739.75,878.154 1741.3,879.043 1742.84,879.93 1744.38,880.813 1745.91,881.693 1747.44,882.57 1748.96,883.444 1750.47,884.314 1751.98,885.182 1753.49,886.046 1754.99,886.908 1756.48,887.766 1757.97,888.622 1759.45,889.474 1760.93,890.323 1762.41,891.17 1763.88,892.014 1765.34,892.854 1766.8,893.692 1768.25,894.527 1769.7,895.359 1771.14,896.188 1772.58,897.015 1774.02,897.838 1775.44,898.659 1776.87,899.478 1778.29,900.293 1779.7,901.106 1781.11,901.916 1782.52,902.723 1783.92,903.528 1785.31,904.33 1786.71,905.129 1788.09,905.926 1789.48,906.72 1790.85,907.512 1792.23,908.301 1793.6,909.087 1794.96,909.871 1796.32,910.653 1797.68,911.432 1799.03,912.209 1800.38,912.983 1801.72,913.754 1803.06,914.523 1804.39,915.29 1805.73,916.055 1807.05,916.817 1808.37,917.576 1809.69,918.334 1811.01,919.089 1812.32,919.841 1813.62,920.591 1814.92,921.34 1816.22,922.085 1817.52,922.829 1818.81,923.57 1820.09,924.309 1821.38,925.046 1822.65,925.78 1823.93,926.512 1825.2,927.243 1826.47,927.97 1827.73,928.696 1828.99,929.42 1830.25,930.141 1831.5,930.861 1832.75,931.578 1833.99,932.293 1835.23,933.006 1836.47,933.717 1837.71,934.426 1838.94,935.133 1840.16,935.838 1841.39,936.541 1842.61,937.242 1843.82,937.94 1845.04,938.637 1846.25,939.332 1847.45,940.025 1848.65,940.716 1849.85,941.405 1851.05,942.092 1852.24,942.777 1853.43,943.46 1854.62,944.141 1855.8,944.821 1856.98,945.498 1858.16,946.174 1859.33,946.847 1860.5,947.519 1861.66,948.189 1862.83,948.858 1863.99,949.524 1865.14,950.189 1866.3,950.851 1867.45,951.512 1868.6,952.172 1869.74,952.829 1870.88,953.485 1872.02,954.139 1873.16,954.791 1874.29,955.441 1875.42,956.09 1876.54,956.737 1877.67,957.382 1878.79,958.026 1879.9,958.668 1881.02,959.308 1882.13,959.946 1883.24,960.583 1884.34,961.218 1885.45,961.852 1886.55,962.484 1887.64,963.114 1888.74,963.743 1889.83,964.37 1890.92,964.995 1892,965.619 1893.09,966.241 1894.17,966.862 1895.25,967.481 1896.32,968.099 1897.39,968.715 1898.46,969.329 1899.53,969.942 1900.59,970.553 1901.66,971.163 1902.71,971.771 1903.77,972.378 1904.82,972.984 1905.88,973.587 1906.92,974.19 1907.97,974.791 1909.01,975.39 1910.05,975.988 1911.09,976.584 1912.13,977.179 1913.16,977.773 1914.19,978.365 1915.22,978.956 1916.25,979.545 1917.27,980.133 1918.29,980.719 1919.31,981.304 1920.32,981.888 1921.34,982.47 1922.35,983.051 1923.36,983.63 1924.36,984.208 1925.37,984.785 1926.37,985.36 1927.37,985.934 1928.37,986.507 1929.36,987.078 1930.35,987.648 1931.34,988.217 1932.33,988.784 1933.32,989.35 1934.3,989.915 1935.28,990.478 1936.26,991.041 1937.23,991.601 1938.21,992.161 1939.18,992.719 1940.15,993.276 1941.12,993.832 1942.08,994.386 1943.04,994.94 1944.01,995.492 1944.96,996.042 1945.92,996.592 1946.88,997.14 1947.83,997.687 1948.78,998.233 1949.73,998.777 1950.67,999.321 1951.62,999.863 1952.56,1000.4 1953.5,1000.94 1954.43,1001.48 1955.37,1002.02 1956.3,1002.56 1957.23,1003.09 1958.16,1003.62 1959.09,1004.16 1960.02,1004.69 1960.94,1005.22 1961.86,1005.75 1962.78,1006.28 1963.7,1006.8 1964.61,1007.33 1965.53,1007.85 1966.44,1008.38 1967.35,1008.9 1968.25,1009.42 1969.16,1009.94 1970.06,1010.46 1970.97,1010.98 1971.87,1011.5 1972.76,1012.01 1973.66,1012.53 1974.55,1013.04 1975.45,1013.55 1976.34,1014.06 1977.22,1014.57 1978.11,1015.08 1979,1015.59 1979.88,1016.1 1980.76,1016.61 1981.64,1017.11 1982.52,1017.62 1983.39,1018.12 1984.27,1018.62 1985.14,1019.12 1986.01,1019.62 1986.88,1020.12 1987.75,1020.62 1988.61,1021.12 1989.47,1021.61 1990.34,1022.11 1991.19,1022.6 1992.05,1023.09 1992.91,1023.58 1993.76,1024.08 1994.62,1024.57 1995.47,1025.05 1996.32,1025.54 1997.17,1026.03 1998.01,1026.52 1998.86,1027 1999.7,1027.49 2000.54,1027.97 2001.38,1028.45 2002.22,1028.93 2003.05,1029.41 2003.89,1029.89 2004.72,1030.37 2005.55,1030.85 2006.38,1031.32 2007.21,1031.8 2008.04,1032.27 2008.86,1032.75 2009.68,1033.22 2010.51,1033.69 2011.33,1034.16 2012.14,1034.63 2012.96,1035.1 2013.78,1035.57 2014.59,1036.04 2015.4,1036.51 2016.21,1036.97 2017.02,1037.44 2017.83,1037.9 2018.64,1038.36 2019.44,1038.83 2020.24,1039.29 2021.04,1039.75 2021.84,1040.21 2022.64,1040.67 2023.44,1041.12 2024.24,1041.58 2025.03,1042.04 2025.82,1042.49 2026.61,1042.95 2027.4,1043.4 2028.19,1043.85 2028.98,1044.3 2029.76,1044.76 2030.55,1045.21 2031.33,1045.66 2032.11,1046.1 2032.89,1046.55 2033.67,1047 2034.44,1047.44 2035.22,1047.89 2035.99,1048.33 2036.76,1048.78 2037.54,1049.22 2038.31,1049.66 2039.07,1050.1 2039.84,1050.54 2040.61,1050.98 2041.37,1051.42 2042.13,1051.86 2042.89,1052.3 2043.65,1052.74 2044.41,1053.17 2045.17,1053.61 2045.93,1054.04 2046.68,1054.47 2047.43,1054.91 2048.18,1055.34 2048.94,1055.77 2049.68,1056.2 2050.43,1056.63 2051.18,1057.06 2051.92,1057.49 2052.67,1057.91 2053.41,1058.34 2054.15,1058.77 2054.89,1059.19 2055.63,1059.62 2056.37,1060.04 2057.11,1060.46 2057.84,1060.89 2058.57,1061.31 2059.31,1061.73 2060.04,1062.15 2060.77,1062.57 2061.5,1062.99 2062.22,1063.4 2062.95,1063.82 2063.67,1064.24 2064.4,1064.65 2065.12,1065.07 2065.84,1065.48 2066.56,1065.9 2067.28,1066.31 2068,1066.72 2068.72,1067.13 2069.43,1067.54 2070.14,1067.95 2070.86,1068.36 2071.57,1068.77 2072.28,1069.18 2072.99,1069.59 2073.7,1069.99 2074.4,1070.4 2075.11,1070.81 2075.81,1071.21 2076.52,1071.61 2077.22,1072.02 2077.92,1072.42 2078.62,1072.82 2079.32,1073.22 2080.02,1073.62 2080.71,1074.02 2081.41,1074.42 2082.1,1074.82 2082.8,1075.22 2083.49,1075.62 2084.18,1076.02 2084.87,1076.41 2085.56,1076.81 2086.24,1077.2 2086.93,1077.6 2087.62,1077.99 2088.3,1078.38 2088.98,1078.78 2089.67,1079.17 2090.35,1079.56 2091.03,1079.95 2091.7,1080.34 2092.38,1080.73 2093.06,1081.12 2093.73,1081.5 2094.41,1081.89 2095.08,1082.28 2095.75,1082.67 2096.43,1083.05 2097.1,1083.44 2097.76,1083.82 2098.43,1084.2 2099.1,1084.59 2099.77,1084.97 2100.43,1085.35 2101.09,1085.73 2101.76,1086.11 2102.42,1086.49 2103.08,1086.87 2103.74,1087.25 2104.4,1087.63 2105.06,1088.01 2105.71,1088.39 2106.37,1088.76 2107.02,1089.14 2107.68,1089.51 2108.33,1089.89 2108.98,1090.26 2109.63,1090.64 2110.28,1091.01 2110.93,1091.38 2111.58,1091.75 2112.22,1092.13 2112.87,1092.5 2113.51,1092.87 2114.16,1093.24 2114.8,1093.61 2115.44,1093.98 2116.08,1094.34 2116.72,1094.71 2117.36,1095.08 2118,1095.44 2118.64,1095.81 2119.27,1096.18 2119.91,1096.54 2120.54,1096.91 2121.18,1097.27 2121.81,1097.63 2122.44,1097.99 2123.07,1098.36 2123.7,1098.72 2124.33,1099.08 2124.96,1099.44 2125.58,1099.8 2126.21,1100.16 2126.83,1100.52 2127.46,1100.88 2128.08,1101.23 2128.7,1101.59 2129.32,1101.95 2129.94,1102.31 2130.56,1102.66 2131.18,1103.02 2131.8,1103.37 2132.41,1103.73 2133.03,1104.08 2133.65,1104.43 2134.26,1104.79 2134.87,1105.14 2135.48,1105.49 2136.1,1105.84 2136.71,1106.19 2137.32,1106.54 2137.93,1106.89 2138.53,1107.24 2139.14,1107.59 2139.75,1107.94 2140.35,1108.28 2140.96,1108.63 2141.56,1108.98 2142.16,1109.32 2142.76,1109.67 2143.36,1110.02 2143.97,1110.36 2144.56,1110.7 2145.16,1111.05 2145.76,1111.39 2146.36,1111.73 2146.95,1112.08 2147.55,1112.42 2148.14,1112.76 2148.74,1113.1 2149.33,1113.44 2149.92,1113.78 2150.51,1114.12 2151.1,1114.46 2151.69,1114.8 2152.28,1115.14 2152.87,1115.47 2153.45,1115.81 2154.04,1116.15 2154.63,1116.48 2155.21,1116.82 2155.79,1117.16 2156.38,1117.49 2156.96,1117.82 2157.54,1118.16 2158.12,1118.49 2158.7,1118.83 2159.28,1119.16 2159.86,1119.49 2160.43,1119.82 2161.01,1120.15 2161.59,1120.48 2162.16,1120.81 2162.74,1121.14 2163.31,1121.47 2163.88,1121.8 2164.45,1122.13 2165.02,1122.46 2165.6,1122.79 2166.16,1123.11 2166.73,1123.44 2167.3,1123.77 2167.87,1124.09 2168.44,1124.42 2169,1124.74 2169.57,1125.07 2170.13,1125.39 2170.69,1125.72 2171.26,1126.04 2171.82,1126.36 2172.38,1126.68 2172.94,1127.01 2173.5,1127.33 2174.06,1127.65 2174.62,1127.97 2175.18,1128.29 2175.73,1128.61 2176.29,1128.93 2176.84,1129.25 2177.4,1129.57 2177.95,1129.89 2178.51,1130.2 2179.06,1130.52 2179.61,1130.84 2180.16,1131.15 2180.71,1131.47 2181.26,1131.79 2181.81,1132.1 2182.36,1132.42 2182.91,1132.73 2183.45,1133.05 2184,1133.36 2184.55,1133.67 2185.09,1133.99 2185.63,1134.3 2186.18,1134.61 2186.72,1134.92 2187.26,1135.23 2187.8,1135.54 2188.34,1135.86 2188.88,1136.17 2189.42,1136.48 2189.96,1136.78 2190.5,1137.09 2191.04,1137.4 2191.57,1137.71 2192.11,1138.02 2192.65,1138.33 2193.18,1138.63 2193.71,1138.94 2194.25,1139.25 2194.78,1139.55 2195.31,1139.86 2195.84,1140.16 2196.37,1140.47 2196.9,1140.77 2197.43,1141.08 2197.96,1141.38 2198.49,1141.68 2199.02,1141.98 2199.54,1142.29 2200.07,1142.59 2200.59,1142.89 2201.12,1143.19 2201.64,1143.49 2202.17,1143.79 2202.69,1144.09 2203.21,1144.39 2203.73,1144.69 2204.25,1144.99 2204.77,1145.29 2205.29,1145.59 2205.81,1145.89 2206.33,1146.19 2206.85,1146.48 2207.36,1146.78 2207.88,1147.08 2208.4,1147.37 2208.91,1147.67 2209.43,1147.96 2209.94,1148.26 2210.45,1148.55 2210.96,1148.85 2211.48,1149.14 2211.99,1149.44 2212.5,1149.73 2213.01,1150.02 2213.52,1150.32 2214.03,1150.61 2214.54,1150.9 2215.04,1151.19 2215.55,1151.48 2216.06,1151.77 2216.56,1152.07 2217.07,1152.36 2217.57,1152.65 2218.08,1152.94 2218.58,1153.22 2219.08,1153.51 2219.59,1153.8 2220.09,1154.09 2220.59,1154.38 2221.09,1154.67 2221.59,1154.95 2222.09,1155.24 2222.59,1155.53 2223.09,1155.81 2223.58,1156.1 2224.08,1156.38 2224.58,1156.67 2225.07,1156.95 2225.57,1157.24 2226.06,1157.52 2226.56,1157.81 2227.05,1158.09 2227.54,1158.37 2228.04,1158.66 2228.53,1158.94 2229.02,1159.22 2229.51,1159.5 2230,1159.78 2230.49,1160.07 2230.98,1160.35 2231.47,1160.63 2231.95,1160.91 2232.44,1161.19 2232.93,1161.47 2233.42,1161.75 2233.9,1162.03 2234.39,1162.3 2234.87,1162.58 2235.35,1162.86 2235.84,1163.14 2236.32,1163.42 2236.8,1163.69 2237.29,1163.97 2237.77,1164.25 2238.25,1164.52 2238.73,1164.8 2239.21,1165.07 2239.69,1165.35 2240.16,1165.62 2240.64,1165.9 2241.12,1166.17 2241.6,1166.45 2242.07,1166.72 2242.55,1166.99 2243.02,1167.27 2243.5,1167.54 2243.97,1167.81 2244.45,1168.08 2244.92,1168.36 2245.39,1168.63 2245.87,1168.9 2246.34,1169.17 2246.81,1169.44 2247.28,1169.71 2247.75,1169.98 2248.22,1170.25 2248.69,1170.52 2249.16,1170.79 2249.62,1171.06 2250.09,1171.33 2250.56,1171.59 2251.03,1171.86 2251.49,1172.13 2251.96,1172.4 2252.42,1172.67 2252.89,1172.93 2253.35,1173.2 2253.81,1173.46 2254.28,1173.73 2254.74,1174 2255.2,1174.26 2255.66,1174.53 2256.12,1174.79 2256.58,1175.06 2257.04,1175.32 2257.5,1175.58 2257.96,1175.85 2258.42,1176.11 2258.88,1176.37 2259.34,1176.64 2259.79,1176.9 2260.25,1177.16 2260.71,1177.42 2261.16,1177.69 2261.62,1177.95 2262.07,1178.21 2262.53,1178.47 2262.98,1178.73 2263.43,1178.99 2263.88,1179.25 2264.34,1179.51 2264.79,1179.77 2265.24,1180.03 2265.69,1180.29 2266.14,1180.55 2266.59,1180.8 2267.04,1181.06 2267.49,1181.32 2267.94,1181.58 2268.38,1181.83 2268.83,1182.09 2269.28,1182.35 2269.72,1182.6 2270.17,1182.86 2270.62,1183.12 2271.06,1183.37 2271.51,1183.63 2271.95,1183.88 2272.39,1184.14 2272.84,1184.39 2273.28,1184.65 2273.72,1184.9 2274.16,1185.15 2274.6,1185.41 2275.05,1185.66 2275.49,1185.91 2275.93,1186.17 2276.37,1186.42 2276.8,1186.67 2277.24,1186.92 2277.68,1187.18 2278.12,1187.43 2278.56,1187.68 2278.99,1187.93 2279.43,1188.18 2279.87,1188.43 2280.3,1188.68 2280.74,1188.93 2281.17,1189.18 2281.6,1189.43 2282.04,1189.68 2282.47,1189.93 2282.9,1190.18 2283.34,1190.42 2283.77,1190.67 2284.2,1190.92 2284.63,1191.17 2285.06,1191.41 2285.49,1191.66 2285.92,1191.91 2286.35,1192.16 2286.78,1192.4 2287.21,1192.65 2287.64,1192.89 2288.06,1193.14 2288.49,1193.38 2288.92,1193.63 2289.34,1193.87 2289.77,1194.12 2290.19,1194.36 2290.62,1194.61 2291.04,1194.85 2291.47,1195.1 2291.89,1195.34 2292.32,1195.58 2292.74,1195.83 2293.16,1196.07 2293.58,1196.31 2294,1196.55 "/>
<polyline clip-path="url(#clip832)" style="stroke:#e26f46; stroke-linecap:round; stroke-linejoin:round; stroke-width:8; stroke-opacity:1; fill:none" points="335.627,188.774 375.81,211.858 412.521,232.947 446.314,252.36 477.618,270.342 506.774,287.092 534.06,302.766 559.699,317.495 583.881,331.386 606.761,344.53 628.472,357.003 649.129,368.869 668.828,380.186 687.656,391.001 705.685,401.358 722.98,411.294 739.6,420.841 755.594,430.029 771.009,438.885 785.884,447.43 800.257,455.686 814.16,463.673 827.622,471.407 840.671,478.903 853.332,486.176 865.627,493.239 877.576,500.103 889.199,506.78 900.512,513.279 911.532,519.61 922.274,525.781 932.751,531.799 942.977,537.673 952.962,543.409 962.718,549.014 972.255,554.493 981.583,559.851 990.711,565.095 999.647,570.228 1008.4,575.256 1016.97,580.182 1025.38,585.011 1033.62,589.747 1041.71,594.392 1049.65,598.951 1057.44,603.426 1065.09,607.82 1072.6,612.137 1079.98,616.379 1087.24,620.549 1094.38,624.648 1101.4,628.68 1108.3,632.647 1115.1,636.55 1121.78,640.392 1128.37,644.174 1134.85,647.898 1141.24,651.567 1147.53,655.181 1153.73,658.743 1159.84,662.254 1165.87,665.714 1171.81,669.127 1177.66,672.492 1183.44,675.812 1189.14,679.087 1194.77,682.319 1200.32,685.508 1205.8,688.657 1211.21,691.765 1216.56,694.835 1221.83,697.866 1227.05,700.86 1232.19,703.818 1237.28,706.741 1242.31,709.629 1247.28,712.483 1252.19,715.304 1257.04,718.093 1261.84,720.851 1266.59,723.578 1271.29,726.274 1275.93,728.942 1280.52,731.58 1285.07,734.19 1289.56,736.773 1294.01,739.329 1298.41,741.858 1302.77,744.361 1307.08,746.839 1311.35,749.292 1315.58,751.721 1319.77,754.125 1323.91,756.507 1328.02,758.865 1332.08,761.201 1336.11,763.514 1340.1,765.806 1344.05,768.077 1347.97,770.326 1351.85,772.555 1355.7,774.764 1359.51,776.954 1363.28,779.123 1367.03,781.274 1370.74,783.406 1374.42,785.519 1378.06,787.615 1381.68,789.692 1385.27,791.752 1388.82,793.795 1392.35,795.821 1395.85,797.83 1399.32,799.822 1402.76,801.799 1406.17,803.76 1409.56,805.705 1412.91,807.634 1416.25,809.549 1419.56,811.448 1422.84,813.333 1426.09,815.204 1429.32,817.06 1432.53,818.902 1435.72,820.73 1438.87,822.544 1442.01,824.345 1445.12,826.133 1448.22,827.907 1451.28,829.668 1454.33,831.417 1457.35,833.152 1460.36,834.875 1463.34,836.586 1466.3,838.284 1469.24,839.97 1472.16,841.643 1475.07,843.304 1477.95,844.953 1480.81,846.59 1483.65,848.214 1486.48,849.826 1489.28,851.426 1492.07,853.013 1494.84,854.587 1497.59,856.149 1500.32,857.697 1503.04,859.231 1505.73,860.752 1508.42,862.258 1511.08,863.749 1513.73,865.224 1516.36,866.682 1518.98,868.124 1521.58,869.546 1524.16,870.949 1526.73,872.33 1529.28,873.689 1531.82,875.024 1534.34,876.331 1536.85,877.61 1539.34,878.858 1541.82,880.071 1544.28,881.246 1546.73,882.381 1549.17,883.47 1551.59,884.51 1554,885.495 1556.39,886.421 1558.77,887.282 1561.14,888.071 1563.5,888.782 1565.84,889.408 1568.17,889.941 1570.48,890.374 1572.79,890.699 1575.08,890.908 1577.36,890.993 1579.63,890.946 1581.88,890.759 1584.12,890.426 1586.35,889.942 1588.57,889.3 1590.78,888.499 1592.98,887.537 1595.16,886.414 1597.34,885.134 1599.5,883.701 1601.65,882.124 1603.8,880.413 1605.93,878.581 1608.05,876.644 1610.16,874.619 1612.25,872.526 1614.34,870.385 1616.42,868.218 1618.49,866.046 1620.55,863.891 1622.6,861.774 1624.64,859.714 1626.66,857.729 1628.68,855.834 1630.69,854.045 1632.69,852.371 1634.69,850.822 1636.67,849.404 1638.64,848.121 1640.6,846.975 1642.56,845.967 1644.5,845.095 1646.44,844.356 1648.37,843.747 1650.29,843.261 1652.2,842.893 1654.1,842.637 1655.99,842.486 1657.88,842.435 1659.75,842.475 1661.62,842.6 1663.48,842.804 1665.34,843.08 1667.18,843.423 1669.02,843.826 1670.84,844.285 1672.66,844.793 1674.48,845.348 1676.28,845.943 1678.08,846.575 1679.87,847.241 1681.65,847.937 1683.43,848.659 1685.19,849.405 1686.95,850.173 1688.71,850.96 1690.45,851.763 1692.19,852.582 1693.92,853.413 1695.65,854.256 1697.37,855.109 1699.08,855.971 1700.78,856.84 1702.48,857.715 1704.17,858.597 1705.85,859.482 1707.53,860.372 1709.2,861.265 1710.86,862.16 1712.52,863.057 1714.17,863.956 1715.81,864.856 1717.45,865.756 1719.09,866.656 1720.71,867.556 1722.33,868.456 1723.94,869.355 1725.55,870.253 1727.15,871.15 1728.75,872.046 1730.34,872.94 1731.92,873.832 1733.5,874.723 1735.07,875.612 1736.63,876.498 1738.19,877.383 1739.75,878.265 1741.3,879.145 1742.84,880.022 1744.38,880.898 1745.91,881.77 1747.44,882.641 1748.96,883.508 1750.47,884.373 1751.98,885.236 1753.49,886.096 1754.99,886.953 1756.48,887.807 1757.97,888.659 1759.45,889.508 1760.93,890.355 1762.41,891.199 1763.88,892.04 1765.34,892.878 1766.8,893.714 1768.25,894.547 1769.7,895.378 1771.14,896.205 1772.58,897.03 1774.02,897.853 1775.44,898.672 1776.87,899.49 1778.29,900.304 1779.7,901.116 1781.11,901.925 1782.52,902.732 1783.92,903.536 1785.31,904.337 1786.71,905.136 1788.09,905.932 1789.48,906.726 1790.85,907.517 1792.23,908.306 1793.6,909.092 1794.96,909.875 1796.32,910.657 1797.68,911.435 1799.03,912.212 1800.38,912.985 1801.72,913.757 1803.06,914.526 1804.39,915.292 1805.73,916.057 1807.05,916.819 1808.37,917.578 1809.69,918.335 1811.01,919.09 1812.32,919.843 1813.62,920.593 1814.92,921.341 1816.22,922.086 1817.52,922.83 1818.81,923.571 1820.09,924.31 1821.38,925.046 1822.65,925.781 1823.93,926.513 1825.2,927.243 1826.47,927.971 1827.73,928.697 1828.99,929.42 1830.25,930.142 1831.5,930.861 1832.75,931.578 1833.99,932.294 1835.23,933.007 1836.47,933.718 1837.71,934.427 1838.94,935.133 1840.16,935.838 1841.39,936.541 1842.61,937.242 1843.82,937.941 1845.04,938.637 1846.25,939.332 1847.45,940.025 1848.65,940.716 1849.85,941.405 1851.05,942.092 1852.24,942.777 1853.43,943.46 1854.62,944.141 1855.8,944.821 1856.98,945.498 1858.16,946.174 1859.33,946.848 1860.5,947.519 1861.66,948.189 1862.83,948.858 1863.99,949.524 1865.14,950.189 1866.3,950.851 1867.45,951.512 1868.6,952.172 1869.74,952.829 1870.88,953.485 1872.02,954.139 1873.16,954.791 1874.29,955.441 1875.42,956.09 1876.54,956.737 1877.67,957.382 1878.79,958.026 1879.9,958.668 1881.02,959.308 1882.13,959.946 1883.24,960.583 1884.34,961.218 1885.45,961.852 1886.55,962.484 1887.64,963.114 1888.74,963.743 1889.83,964.37 1890.92,964.995 1892,965.619 1893.09,966.241 1894.17,966.862 1895.25,967.481 1896.32,968.099 1897.39,968.715 1898.46,969.329 1899.53,969.942 1900.59,970.553 1901.66,971.163 1902.71,971.771 1903.77,972.378 1904.82,972.984 1905.88,973.587 1906.92,974.19 1907.97,974.791 1909.01,975.39 1910.05,975.988 1911.09,976.584 1912.13,977.179 1913.16,977.773 1914.19,978.365 1915.22,978.956 1916.25,979.545 1917.27,980.133 1918.29,980.719 1919.31,981.304 1920.32,981.888 1921.34,982.47 1922.35,983.051 1923.36,983.63 1924.36,984.208 1925.37,984.785 1926.37,985.36 1927.37,985.934 1928.37,986.507 1929.36,987.078 1930.35,987.648 1931.34,988.217 1932.33,988.784 1933.32,989.35 1934.3,989.915 1935.28,990.478 1936.26,991.041 1937.23,991.601 1938.21,992.161 1939.18,992.719 1940.15,993.276 1941.12,993.832 1942.08,994.386 1943.04,994.94 1944.01,995.492 1944.96,996.042 1945.92,996.592 1946.88,997.14 1947.83,997.687 1948.78,998.233 1949.73,998.777 1950.67,999.321 1951.62,999.863 1952.56,1000.4 1953.5,1000.94 1954.43,1001.48 1955.37,1002.02 1956.3,1002.56 1957.23,1003.09 1958.16,1003.62 1959.09,1004.16 1960.02,1004.69 1960.94,1005.22 1961.86,1005.75 1962.78,1006.28 1963.7,1006.8 1964.61,1007.33 1965.53,1007.85 1966.44,1008.38 1967.35,1008.9 1968.25,1009.42 1969.16,1009.94 1970.06,1010.46 1970.97,1010.98 1971.87,1011.5 1972.76,1012.01 1973.66,1012.53 1974.55,1013.04 1975.45,1013.55 1976.34,1014.06 1977.22,1014.57 1978.11,1015.08 1979,1015.59 1979.88,1016.1 1980.76,1016.61 1981.64,1017.11 1982.52,1017.62 1983.39,1018.12 1984.27,1018.62 1985.14,1019.12 1986.01,1019.62 1986.88,1020.12 1987.75,1020.62 1988.61,1021.12 1989.47,1021.61 1990.34,1022.11 1991.19,1022.6 1992.05,1023.09 1992.91,1023.58 1993.76,1024.08 1994.62,1024.57 1995.47,1025.05 1996.32,1025.54 1997.17,1026.03 1998.01,1026.52 1998.86,1027 1999.7,1027.49 2000.54,1027.97 2001.38,1028.45 2002.22,1028.93 2003.05,1029.41 2003.89,1029.89 2004.72,1030.37 2005.55,1030.85 2006.38,1031.32 2007.21,1031.8 2008.04,1032.27 2008.86,1032.75 2009.68,1033.22 2010.51,1033.69 2011.33,1034.16 2012.14,1034.63 2012.96,1035.1 2013.78,1035.57 2014.59,1036.04 2015.4,1036.51 2016.21,1036.97 2017.02,1037.44 2017.83,1037.9 2018.64,1038.36 2019.44,1038.83 2020.24,1039.29 2021.04,1039.75 2021.84,1040.21 2022.64,1040.67 2023.44,1041.12 2024.24,1041.58 2025.03,1042.04 2025.82,1042.49 2026.61,1042.95 2027.4,1043.4 2028.19,1043.85 2028.98,1044.3 2029.76,1044.76 2030.55,1045.21 2031.33,1045.66 2032.11,1046.1 2032.89,1046.55 2033.67,1047 2034.44,1047.44 2035.22,1047.89 2035.99,1048.33 2036.76,1048.78 2037.54,1049.22 2038.31,1049.66 2039.07,1050.1 2039.84,1050.54 2040.61,1050.98 2041.37,1051.42 2042.13,1051.86 2042.89,1052.3 2043.65,1052.74 2044.41,1053.17 2045.17,1053.61 2045.93,1054.04 2046.68,1054.47 2047.43,1054.91 2048.18,1055.34 2048.94,1055.77 2049.68,1056.2 2050.43,1056.63 2051.18,1057.06 2051.92,1057.49 2052.67,1057.91 2053.41,1058.34 2054.15,1058.77 2054.89,1059.19 2055.63,1059.62 2056.37,1060.04 2057.11,1060.46 2057.84,1060.89 2058.57,1061.31 2059.31,1061.73 2060.04,1062.15 2060.77,1062.57 2061.5,1062.99 2062.22,1063.4 2062.95,1063.82 2063.67,1064.24 2064.4,1064.65 2065.12,1065.07 2065.84,1065.48 2066.56,1065.9 2067.28,1066.31 2068,1066.72 2068.72,1067.13 2069.43,1067.54 2070.14,1067.95 2070.86,1068.36 2071.57,1068.77 2072.28,1069.18 2072.99,1069.59 2073.7,1069.99 2074.4,1070.4 2075.11,1070.81 2075.81,1071.21 2076.52,1071.61 2077.22,1072.02 2077.92,1072.42 2078.62,1072.82 2079.32,1073.22 2080.02,1073.62 2080.71,1074.02 2081.41,1074.42 2082.1,1074.82 2082.8,1075.22 2083.49,1075.62 2084.18,1076.02 2084.87,1076.41 2085.56,1076.81 2086.24,1077.2 2086.93,1077.6 2087.62,1077.99 2088.3,1078.38 2088.98,1078.78 2089.67,1079.17 2090.35,1079.56 2091.03,1079.95 2091.7,1080.34 2092.38,1080.73 2093.06,1081.12 2093.73,1081.5 2094.41,1081.89 2095.08,1082.28 2095.75,1082.67 2096.43,1083.05 2097.1,1083.44 2097.76,1083.82 2098.43,1084.2 2099.1,1084.59 2099.77,1084.97 2100.43,1085.35 2101.09,1085.73 2101.76,1086.11 2102.42,1086.49 2103.08,1086.87 2103.74,1087.25 2104.4,1087.63 2105.06,1088.01 2105.71,1088.39 2106.37,1088.76 2107.02,1089.14 2107.68,1089.51 2108.33,1089.89 2108.98,1090.26 2109.63,1090.64 2110.28,1091.01 2110.93,1091.38 2111.58,1091.75 2112.22,1092.13 2112.87,1092.5 2113.51,1092.87 2114.16,1093.24 2114.8,1093.61 2115.44,1093.98 2116.08,1094.34 2116.72,1094.71 2117.36,1095.08 2118,1095.44 2118.64,1095.81 2119.27,1096.18 2119.91,1096.54 2120.54,1096.91 2121.18,1097.27 2121.81,1097.63 2122.44,1097.99 2123.07,1098.36 2123.7,1098.72 2124.33,1099.08 2124.96,1099.44 2125.58,1099.8 2126.21,1100.16 2126.83,1100.52 2127.46,1100.88 2128.08,1101.23 2128.7,1101.59 2129.32,1101.95 2129.94,1102.31 2130.56,1102.66 2131.18,1103.02 2131.8,1103.37 2132.41,1103.73 2133.03,1104.08 2133.65,1104.43 2134.26,1104.79 2134.87,1105.14 2135.48,1105.49 2136.1,1105.84 2136.71,1106.19 2137.32,1106.54 2137.93,1106.89 2138.53,1107.24 2139.14,1107.59 2139.75,1107.94 2140.35,1108.28 2140.96,1108.63 2141.56,1108.98 2142.16,1109.32 2142.76,1109.67 2143.36,1110.02 2143.97,1110.36 2144.56,1110.7 2145.16,1111.05 2145.76,1111.39 2146.36,1111.73 2146.95,1112.08 2147.55,1112.42 2148.14,1112.76 2148.74,1113.1 2149.33,1113.44 2149.92,1113.78 2150.51,1114.12 2151.1,1114.46 2151.69,1114.8 2152.28,1115.14 2152.87,1115.47 2153.45,1115.81 2154.04,1116.15 2154.63,1116.48 2155.21,1116.82 2155.79,1117.16 2156.38,1117.49 2156.96,1117.82 2157.54,1118.16 2158.12,1118.49 2158.7,1118.83 2159.28,1119.16 2159.86,1119.49 2160.43,1119.82 2161.01,1120.15 2161.59,1120.48 2162.16,1120.81 2162.74,1121.14 2163.31,1121.47 2163.88,1121.8 2164.45,1122.13 2165.02,1122.46 2165.6,1122.79 2166.16,1123.11 2166.73,1123.44 2167.3,1123.77 2167.87,1124.09 2168.44,1124.42 2169,1124.74 2169.57,1125.07 2170.13,1125.39 2170.69,1125.72 2171.26,1126.04 2171.82,1126.36 2172.38,1126.68 2172.94,1127.01 2173.5,1127.33 2174.06,1127.65 2174.62,1127.97 2175.18,1128.29 2175.73,1128.61 2176.29,1128.93 2176.84,1129.25 2177.4,1129.57 2177.95,1129.89 2178.51,1130.2 2179.06,1130.52 2179.61,1130.84 2180.16,1131.15 2180.71,1131.47 2181.26,1131.79 2181.81,1132.1 2182.36,1132.42 2182.91,1132.73 2183.45,1133.05 2184,1133.36 2184.55,1133.67 2185.09,1133.99 2185.63,1134.3 2186.18,1134.61 2186.72,1134.92 2187.26,1135.23 2187.8,1135.54 2188.34,1135.86 2188.88,1136.17 2189.42,1136.48 2189.96,1136.78 2190.5,1137.09 2191.04,1137.4 2191.57,1137.71 2192.11,1138.02 2192.65,1138.33 2193.18,1138.63 2193.71,1138.94 2194.25,1139.25 2194.78,1139.55 2195.31,1139.86 2195.84,1140.16 2196.37,1140.47 2196.9,1140.77 2197.43,1141.08 2197.96,1141.38 2198.49,1141.68 2199.02,1141.98 2199.54,1142.29 2200.07,1142.59 2200.59,1142.89 2201.12,1143.19 2201.64,1143.49 2202.17,1143.79 2202.69,1144.09 2203.21,1144.39 2203.73,1144.69 2204.25,1144.99 2204.77,1145.29 2205.29,1145.59 2205.81,1145.89 2206.33,1146.19 2206.85,1146.48 2207.36,1146.78 2207.88,1147.08 2208.4,1147.37 2208.91,1147.67 2209.43,1147.96 2209.94,1148.26 2210.45,1148.55 2210.96,1148.85 2211.48,1149.14 2211.99,1149.44 2212.5,1149.73 2213.01,1150.02 2213.52,1150.32 2214.03,1150.61 2214.54,1150.9 2215.04,1151.19 2215.55,1151.48 2216.06,1151.77 2216.56,1152.07 2217.07,1152.36 2217.57,1152.65 2218.08,1152.94 2218.58,1153.22 2219.08,1153.51 2219.59,1153.8 2220.09,1154.09 2220.59,1154.38 2221.09,1154.67 2221.59,1154.95 2222.09,1155.24 2222.59,1155.53 2223.09,1155.81 2223.58,1156.1 2224.08,1156.38 2224.58,1156.67 2225.07,1156.95 2225.57,1157.24 2226.06,1157.52 2226.56,1157.81 2227.05,1158.09 2227.54,1158.37 2228.04,1158.66 2228.53,1158.94 2229.02,1159.22 2229.51,1159.5 2230,1159.78 2230.49,1160.07 2230.98,1160.35 2231.47,1160.63 2231.95,1160.91 2232.44,1161.19 2232.93,1161.47 2233.42,1161.75 2233.9,1162.03 2234.39,1162.3 2234.87,1162.58 2235.35,1162.86 2235.84,1163.14 2236.32,1163.42 2236.8,1163.69 2237.29,1163.97 2237.77,1164.25 2238.25,1164.52 2238.73,1164.8 2239.21,1165.07 2239.69,1165.35 2240.16,1165.62 2240.64,1165.9 2241.12,1166.17 2241.6,1166.45 2242.07,1166.72 2242.55,1166.99 2243.02,1167.27 2243.5,1167.54 2243.97,1167.81 2244.45,1168.08 2244.92,1168.36 2245.39,1168.63 2245.87,1168.9 2246.34,1169.17 2246.81,1169.44 2247.28,1169.71 2247.75,1169.98 2248.22,1170.25 2248.69,1170.52 2249.16,1170.79 2249.62,1171.06 2250.09,1171.33 2250.56,1171.59 2251.03,1171.86 2251.49,1172.13 2251.96,1172.4 2252.42,1172.67 2252.89,1172.93 2253.35,1173.2 2253.81,1173.46 2254.28,1173.73 2254.74,1174 2255.2,1174.26 2255.66,1174.53 2256.12,1174.79 2256.58,1175.06 2257.04,1175.32 2257.5,1175.58 2257.96,1175.85 2258.42,1176.11 2258.88,1176.37 2259.34,1176.64 2259.79,1176.9 2260.25,1177.16 2260.71,1177.42 2261.16,1177.69 2261.62,1177.95 2262.07,1178.21 2262.53,1178.47 2262.98,1178.73 2263.43,1178.99 2263.88,1179.25 2264.34,1179.51 2264.79,1179.77 2265.24,1180.03 2265.69,1180.29 2266.14,1180.55 2266.59,1180.8 2267.04,1181.06 2267.49,1181.32 2267.94,1181.58 2268.38,1181.83 2268.83,1182.09 2269.28,1182.35 2269.72,1182.6 2270.17,1182.86 2270.62,1183.12 2271.06,1183.37 2271.51,1183.63 2271.95,1183.88 2272.39,1184.14 2272.84,1184.39 2273.28,1184.65 2273.72,1184.9 2274.16,1185.15 2274.6,1185.41 2275.05,1185.66 2275.49,1185.91 2275.93,1186.17 2276.37,1186.42 2276.8,1186.67 2277.24,1186.92 2277.68,1187.18 2278.12,1187.43 2278.56,1187.68 2278.99,1187.93 2279.43,1188.18 2279.87,1188.43 2280.3,1188.68 2280.74,1188.93 2281.17,1189.18 2281.6,1189.43 2282.04,1189.68 2282.47,1189.93 2282.9,1190.18 2283.34,1190.42 2283.77,1190.67 2284.2,1190.92 2284.63,1191.17 2285.06,1191.41 2285.49,1191.66 2285.92,1191.91 2286.35,1192.16 2286.78,1192.4 2287.21,1192.65 2287.64,1192.89 2288.06,1193.14 2288.49,1193.38 2288.92,1193.63 2289.34,1193.87 2289.77,1194.12 2290.19,1194.36 2290.62,1194.61 2291.04,1194.85 2291.47,1195.1 2291.89,1195.34 2292.32,1195.58 2292.74,1195.83 2293.16,1196.07 2293.58,1196.31 2294,1196.55 "/>
<path clip-path="url(#clip830)" d="M1472.57 248.219 L2283.56 248.219 L2283.56 92.6992 L1472.57 92.6992  Z" fill="#ffffff" fill-rule="evenodd" fill-opacity="1"/>
<polyline clip-path="url(#clip830)" style="stroke:#000000; stroke-linecap:round; stroke-linejoin:round; stroke-width:4; stroke-opacity:1; fill:none" points="1472.57,248.219 2283.56,248.219 2283.56,92.6992 1472.57,92.6992 1472.57,248.219 "/>
<polyline clip-path="url(#clip830)" style="stroke:#009af9; stroke-linecap:round; stroke-linejoin:round; stroke-width:8; stroke-opacity:1; fill:none" points="1495.64,144.539 1634.03,144.539 "/>
<path clip-path="url(#clip830)" d="M1661.77 145.315 L1661.77 157.977 L1669.27 157.977 Q1673.04 157.977 1674.85 156.426 Q1676.68 154.852 1676.68 151.634 Q1676.68 148.393 1674.85 146.866 Q1673.04 145.315 1669.27 145.315 L1661.77 145.315 M1661.77 131.102 L1661.77 141.518 L1668.69 141.518 Q1672.12 141.518 1673.78 140.245 Q1675.47 138.949 1675.47 136.31 Q1675.47 133.694 1673.78 132.398 Q1672.12 131.102 1668.69 131.102 L1661.77 131.102 M1657.1 127.259 L1669.04 127.259 Q1674.39 127.259 1677.28 129.481 Q1680.17 131.704 1680.17 135.801 Q1680.17 138.972 1678.69 140.847 Q1677.21 142.722 1674.34 143.185 Q1677.79 143.926 1679.69 146.287 Q1681.61 148.625 1681.61 152.143 Q1681.61 156.773 1678.46 159.296 Q1675.31 161.819 1669.5 161.819 L1657.1 161.819 L1657.1 127.259 Z" fill="#000000" fill-rule="nonzero" fill-opacity="1" /><path clip-path="url(#clip830)" d="M1690.84 157.884 L1698.48 157.884 L1698.48 131.518 L1690.17 133.185 L1690.17 128.926 L1698.44 127.259 L1703.11 127.259 L1703.11 157.884 L1710.75 157.884 L1710.75 161.819 L1690.84 161.819 L1690.84 157.884 Z" fill="#000000" fill-rule="nonzero" fill-opacity="1" /><path clip-path="url(#clip830)" d="M1720.34 161.102 L1720.34 156.842 Q1722.09 157.676 1723.9 158.115 Q1725.71 158.555 1727.44 158.555 Q1732.07 158.555 1734.5 155.453 Q1736.96 152.328 1737.3 145.986 Q1735.96 147.977 1733.9 149.041 Q1731.84 150.106 1729.34 150.106 Q1724.15 150.106 1721.12 146.981 Q1718.11 143.833 1718.11 138.393 Q1718.11 133.069 1721.26 129.852 Q1724.41 126.634 1729.64 126.634 Q1735.64 126.634 1738.78 131.241 Q1741.96 135.824 1741.96 144.574 Q1741.96 152.745 1738.07 157.629 Q1734.2 162.49 1727.65 162.49 Q1725.89 162.49 1724.09 162.143 Q1722.28 161.796 1720.34 161.102 M1729.64 146.449 Q1732.79 146.449 1734.62 144.296 Q1736.47 142.143 1736.47 138.393 Q1736.47 134.667 1734.62 132.514 Q1732.79 130.338 1729.64 130.338 Q1726.49 130.338 1724.64 132.514 Q1722.81 134.667 1722.81 138.393 Q1722.81 142.143 1724.64 144.296 Q1726.49 146.449 1729.64 146.449 Z" fill="#000000" fill-rule="nonzero" fill-opacity="1" /><path clip-path="url(#clip830)" d="M1750.5 161.102 L1750.5 156.842 Q1752.26 157.676 1754.06 158.115 Q1755.87 158.555 1757.6 158.555 Q1762.23 158.555 1764.66 155.453 Q1767.12 152.328 1767.46 145.986 Q1766.12 147.977 1764.06 149.041 Q1762 150.106 1759.5 150.106 Q1754.32 150.106 1751.28 146.981 Q1748.28 143.833 1748.28 138.393 Q1748.28 133.069 1751.42 129.852 Q1754.57 126.634 1759.8 126.634 Q1765.8 126.634 1768.95 131.241 Q1772.12 135.824 1772.12 144.574 Q1772.12 152.745 1768.23 157.629 Q1764.36 162.49 1757.81 162.49 Q1756.05 162.49 1754.25 162.143 Q1752.44 161.796 1750.5 161.102 M1759.8 146.449 Q1762.95 146.449 1764.78 144.296 Q1766.63 142.143 1766.63 138.393 Q1766.63 134.667 1764.78 132.514 Q1762.95 130.338 1759.8 130.338 Q1756.65 130.338 1754.8 132.514 Q1752.97 134.667 1752.97 138.393 Q1752.97 142.143 1754.8 144.296 Q1756.65 146.449 1759.8 146.449 Z" fill="#000000" fill-rule="nonzero" fill-opacity="1" /><path clip-path="url(#clip830)" d="M1793.37 131.333 L1781.56 149.782 L1793.37 149.782 L1793.37 131.333 M1792.14 127.259 L1798.02 127.259 L1798.02 149.782 L1802.95 149.782 L1802.95 153.671 L1798.02 153.671 L1798.02 161.819 L1793.37 161.819 L1793.37 153.671 L1777.77 153.671 L1777.77 149.157 L1792.14 127.259 Z" fill="#000000" fill-rule="nonzero" fill-opacity="1" /><path clip-path="url(#clip830)" d="M1822.67 135.893 L1826.93 135.893 L1832.26 156.125 L1837.56 135.893 L1842.58 135.893 L1847.9 156.125 L1853.21 135.893 L1857.46 135.893 L1850.68 161.819 L1845.66 161.819 L1840.08 140.569 L1834.48 161.819 L1829.46 161.819 L1822.67 135.893 Z" fill="#000000" fill-rule="nonzero" fill-opacity="1" /><path clip-path="url(#clip830)" d="M1863.92 135.893 L1868.18 135.893 L1868.18 161.819 L1863.92 161.819 L1863.92 135.893 M1863.92 125.801 L1868.18 125.801 L1868.18 131.194 L1863.92 131.194 L1863.92 125.801 Z" fill="#000000" fill-rule="nonzero" fill-opacity="1" /><path clip-path="url(#clip830)" d="M1881.31 128.532 L1881.31 135.893 L1890.08 135.893 L1890.08 139.204 L1881.31 139.204 L1881.31 153.278 Q1881.31 156.449 1882.16 157.352 Q1883.04 158.254 1885.7 158.254 L1890.08 158.254 L1890.08 161.819 L1885.7 161.819 Q1880.77 161.819 1878.9 159.99 Q1877.02 158.139 1877.02 153.278 L1877.02 139.204 L1873.9 139.204 L1873.9 135.893 L1877.02 135.893 L1877.02 128.532 L1881.31 128.532 Z" fill="#000000" fill-rule="nonzero" fill-opacity="1" /><path clip-path="url(#clip830)" d="M1917.23 146.171 L1917.23 161.819 L1912.97 161.819 L1912.97 146.31 Q1912.97 142.629 1911.54 140.801 Q1910.1 138.972 1907.23 138.972 Q1903.78 138.972 1901.79 141.171 Q1899.8 143.37 1899.8 147.166 L1899.8 161.819 L1895.52 161.819 L1895.52 125.801 L1899.8 125.801 L1899.8 139.921 Q1901.33 137.583 1903.39 136.426 Q1905.47 135.268 1908.18 135.268 Q1912.65 135.268 1914.94 138.046 Q1917.23 140.801 1917.23 146.171 Z" fill="#000000" fill-rule="nonzero" fill-opacity="1" /><path clip-path="url(#clip830)" d="M1935.77 138.879 Q1932.35 138.879 1930.36 141.565 Q1928.37 144.227 1928.37 148.879 Q1928.37 153.532 1930.33 156.217 Q1932.33 158.879 1935.77 158.879 Q1939.18 158.879 1941.17 156.194 Q1943.16 153.509 1943.16 148.879 Q1943.16 144.273 1941.17 141.588 Q1939.18 138.879 1935.77 138.879 M1935.77 135.268 Q1941.33 135.268 1944.5 138.879 Q1947.67 142.491 1947.67 148.879 Q1947.67 155.245 1944.5 158.879 Q1941.33 162.49 1935.77 162.49 Q1930.2 162.49 1927.02 158.879 Q1923.88 155.245 1923.88 148.879 Q1923.88 142.491 1927.02 138.879 Q1930.2 135.268 1935.77 135.268 Z" fill="#000000" fill-rule="nonzero" fill-opacity="1" /><path clip-path="url(#clip830)" d="M1954.29 151.588 L1954.29 135.893 L1958.55 135.893 L1958.55 151.426 Q1958.55 155.106 1959.99 156.958 Q1961.42 158.787 1964.29 158.787 Q1967.74 158.787 1969.73 156.588 Q1971.75 154.389 1971.75 150.592 L1971.75 135.893 L1976.01 135.893 L1976.01 161.819 L1971.75 161.819 L1971.75 157.838 Q1970.2 160.199 1968.14 161.356 Q1966.1 162.49 1963.39 162.49 Q1958.92 162.49 1956.61 159.713 Q1954.29 156.935 1954.29 151.588 M1965.01 135.268 L1965.01 135.268 Z" fill="#000000" fill-rule="nonzero" fill-opacity="1" /><path clip-path="url(#clip830)" d="M1988.99 128.532 L1988.99 135.893 L1997.76 135.893 L1997.76 139.204 L1988.99 139.204 L1988.99 153.278 Q1988.99 156.449 1989.85 157.352 Q1990.73 158.254 1993.39 158.254 L1997.76 158.254 L1997.76 161.819 L1993.39 161.819 Q1988.46 161.819 1986.58 159.99 Q1984.71 158.139 1984.71 153.278 L1984.71 139.204 L1981.58 139.204 L1981.58 135.893 L1984.71 135.893 L1984.71 128.532 L1988.99 128.532 Z" fill="#000000" fill-rule="nonzero" fill-opacity="1" /><path clip-path="url(#clip830)" d="M2034.96 136.657 L2034.96 140.685 Q2033.16 139.759 2031.21 139.296 Q2029.27 138.833 2027.19 138.833 Q2024.01 138.833 2022.42 139.805 Q2020.84 140.778 2020.84 142.722 Q2020.84 144.204 2021.98 145.06 Q2023.11 145.893 2026.54 146.657 L2028 146.981 Q2032.53 147.954 2034.43 149.736 Q2036.35 151.495 2036.35 154.666 Q2036.35 158.278 2033.48 160.384 Q2030.63 162.49 2025.63 162.49 Q2023.55 162.49 2021.28 162.074 Q2019.04 161.68 2016.54 160.87 L2016.54 156.472 Q2018.9 157.699 2021.19 158.324 Q2023.48 158.926 2025.73 158.926 Q2028.74 158.926 2030.36 157.907 Q2031.98 156.866 2031.98 154.991 Q2031.98 153.254 2030.8 152.328 Q2029.64 151.403 2025.68 150.546 L2024.2 150.199 Q2020.24 149.366 2018.48 147.653 Q2016.72 145.916 2016.72 142.907 Q2016.72 139.25 2019.32 137.259 Q2021.91 135.268 2026.68 135.268 Q2029.04 135.268 2031.12 135.616 Q2033.2 135.963 2034.96 136.657 Z" fill="#000000" fill-rule="nonzero" fill-opacity="1" /><path clip-path="url(#clip830)" d="M2063.32 140.87 Q2064.92 138 2067.14 136.634 Q2069.36 135.268 2072.37 135.268 Q2076.42 135.268 2078.62 138.116 Q2080.82 140.94 2080.82 146.171 L2080.82 161.819 L2076.54 161.819 L2076.54 146.31 Q2076.54 142.583 2075.22 140.778 Q2073.9 138.972 2071.19 138.972 Q2067.88 138.972 2065.96 141.171 Q2064.04 143.37 2064.04 147.166 L2064.04 161.819 L2059.75 161.819 L2059.75 146.31 Q2059.75 142.56 2058.44 140.778 Q2057.12 138.972 2054.36 138.972 Q2051.1 138.972 2049.18 141.194 Q2047.25 143.393 2047.25 147.166 L2047.25 161.819 L2042.97 161.819 L2042.97 135.893 L2047.25 135.893 L2047.25 139.921 Q2048.71 137.537 2050.75 136.403 Q2052.79 135.268 2055.59 135.268 Q2058.41 135.268 2060.38 136.704 Q2062.37 138.139 2063.32 140.87 Z" fill="#000000" fill-rule="nonzero" fill-opacity="1" /><path clip-path="url(#clip830)" d="M2099.36 138.879 Q2095.94 138.879 2093.94 141.565 Q2091.95 144.227 2091.95 148.879 Q2091.95 153.532 2093.92 156.217 Q2095.91 158.879 2099.36 158.879 Q2102.76 158.879 2104.75 156.194 Q2106.75 153.509 2106.75 148.879 Q2106.75 144.273 2104.75 141.588 Q2102.76 138.879 2099.36 138.879 M2099.36 135.268 Q2104.92 135.268 2108.09 138.879 Q2111.26 142.491 2111.26 148.879 Q2111.26 155.245 2108.09 158.879 Q2104.92 162.49 2099.36 162.49 Q2093.78 162.49 2090.61 158.879 Q2087.46 155.245 2087.46 148.879 Q2087.46 142.491 2090.61 138.879 Q2093.78 135.268 2099.36 135.268 Z" fill="#000000" fill-rule="nonzero" fill-opacity="1" /><path clip-path="url(#clip830)" d="M2128.37 138.879 Q2124.94 138.879 2122.95 141.565 Q2120.96 144.227 2120.96 148.879 Q2120.96 153.532 2122.93 156.217 Q2124.92 158.879 2128.37 158.879 Q2131.77 158.879 2133.76 156.194 Q2135.75 153.509 2135.75 148.879 Q2135.75 144.273 2133.76 141.588 Q2131.77 138.879 2128.37 138.879 M2128.37 135.268 Q2133.92 135.268 2137.09 138.879 Q2140.26 142.491 2140.26 148.879 Q2140.26 155.245 2137.09 158.879 Q2133.92 162.49 2128.37 162.49 Q2122.79 162.49 2119.62 158.879 Q2116.47 155.245 2116.47 148.879 Q2116.47 142.491 2119.62 138.879 Q2122.79 135.268 2128.37 135.268 Z" fill="#000000" fill-rule="nonzero" fill-opacity="1" /><path clip-path="url(#clip830)" d="M2151.54 128.532 L2151.54 135.893 L2160.31 135.893 L2160.31 139.204 L2151.54 139.204 L2151.54 153.278 Q2151.54 156.449 2152.39 157.352 Q2153.27 158.254 2155.93 158.254 L2160.31 158.254 L2160.31 161.819 L2155.93 161.819 Q2151 161.819 2149.13 159.99 Q2147.25 158.139 2147.25 153.278 L2147.25 139.204 L2144.13 139.204 L2144.13 135.893 L2147.25 135.893 L2147.25 128.532 L2151.54 128.532 Z" fill="#000000" fill-rule="nonzero" fill-opacity="1" /><path clip-path="url(#clip830)" d="M2187.46 146.171 L2187.46 161.819 L2183.2 161.819 L2183.2 146.31 Q2183.2 142.629 2181.77 140.801 Q2180.33 138.972 2177.46 138.972 Q2174.01 138.972 2172.02 141.171 Q2170.03 143.37 2170.03 147.166 L2170.03 161.819 L2165.75 161.819 L2165.75 125.801 L2170.03 125.801 L2170.03 139.921 Q2171.56 137.583 2173.62 136.426 Q2175.7 135.268 2178.41 135.268 Q2182.88 135.268 2185.17 138.046 Q2187.46 140.801 2187.46 146.171 Z" fill="#000000" fill-rule="nonzero" fill-opacity="1" /><path clip-path="url(#clip830)" d="M2195.96 135.893 L2200.22 135.893 L2200.22 161.819 L2195.96 161.819 L2195.96 135.893 M2195.96 125.801 L2200.22 125.801 L2200.22 131.194 L2195.96 131.194 L2195.96 125.801 Z" fill="#000000" fill-rule="nonzero" fill-opacity="1" /><path clip-path="url(#clip830)" d="M2230.68 146.171 L2230.68 161.819 L2226.42 161.819 L2226.42 146.31 Q2226.42 142.629 2224.99 140.801 Q2223.55 138.972 2220.68 138.972 Q2217.23 138.972 2215.24 141.171 Q2213.25 143.37 2213.25 147.166 L2213.25 161.819 L2208.97 161.819 L2208.97 135.893 L2213.25 135.893 L2213.25 139.921 Q2214.78 137.583 2216.84 136.426 Q2218.92 135.268 2221.63 135.268 Q2226.1 135.268 2228.39 138.046 Q2230.68 140.801 2230.68 146.171 Z" fill="#000000" fill-rule="nonzero" fill-opacity="1" /><path clip-path="url(#clip830)" d="M2256.24 148.555 Q2256.24 143.926 2254.31 141.379 Q2252.42 138.833 2248.97 138.833 Q2245.54 138.833 2243.62 141.379 Q2241.72 143.926 2241.72 148.555 Q2241.72 153.162 2243.62 155.708 Q2245.54 158.254 2248.97 158.254 Q2252.42 158.254 2254.31 155.708 Q2256.24 153.162 2256.24 148.555 M2260.49 158.602 Q2260.49 165.222 2257.55 168.44 Q2254.61 171.68 2248.55 171.68 Q2246.3 171.68 2244.31 171.333 Q2242.32 171.009 2240.45 170.315 L2240.45 166.171 Q2242.32 167.19 2244.15 167.676 Q2245.98 168.162 2247.88 168.162 Q2252.07 168.162 2254.15 165.963 Q2256.24 163.787 2256.24 159.365 L2256.24 157.259 Q2254.92 159.551 2252.86 160.685 Q2250.8 161.819 2247.93 161.819 Q2243.16 161.819 2240.24 158.185 Q2237.32 154.551 2237.32 148.555 Q2237.32 142.537 2240.24 138.903 Q2243.16 135.268 2247.93 135.268 Q2250.8 135.268 2252.86 136.403 Q2254.92 137.537 2256.24 139.829 L2256.24 135.893 L2260.49 135.893 L2260.49 158.602 Z" fill="#000000" fill-rule="nonzero" fill-opacity="1" /><polyline clip-path="url(#clip830)" style="stroke:#e26f46; stroke-linecap:round; stroke-linejoin:round; stroke-width:8; stroke-opacity:1; fill:none" points="1495.64,196.379 1634.03,196.379 "/>
<path clip-path="url(#clip830)" d="M1661.77 197.155 L1661.77 209.817 L1669.27 209.817 Q1673.04 209.817 1674.85 208.266 Q1676.68 206.692 1676.68 203.474 Q1676.68 200.233 1674.85 198.706 Q1673.04 197.155 1669.27 197.155 L1661.77 197.155 M1661.77 182.942 L1661.77 193.358 L1668.69 193.358 Q1672.12 193.358 1673.78 192.085 Q1675.47 190.789 1675.47 188.15 Q1675.47 185.534 1673.78 184.238 Q1672.12 182.942 1668.69 182.942 L1661.77 182.942 M1657.1 179.099 L1669.04 179.099 Q1674.39 179.099 1677.28 181.321 Q1680.17 183.544 1680.17 187.641 Q1680.17 190.812 1678.69 192.687 Q1677.21 194.562 1674.34 195.025 Q1677.79 195.766 1679.69 198.127 Q1681.61 200.465 1681.61 203.983 Q1681.61 208.613 1678.46 211.136 Q1675.31 213.659 1669.5 213.659 L1657.1 213.659 L1657.1 179.099 Z" fill="#000000" fill-rule="nonzero" fill-opacity="1" /><path clip-path="url(#clip830)" d="M1690.84 209.724 L1698.48 209.724 L1698.48 183.358 L1690.17 185.025 L1690.17 180.766 L1698.44 179.099 L1703.11 179.099 L1703.11 209.724 L1710.75 209.724 L1710.75 213.659 L1690.84 213.659 L1690.84 209.724 Z" fill="#000000" fill-rule="nonzero" fill-opacity="1" /><path clip-path="url(#clip830)" d="M1720.34 212.942 L1720.34 208.682 Q1722.09 209.516 1723.9 209.955 Q1725.71 210.395 1727.44 210.395 Q1732.07 210.395 1734.5 207.293 Q1736.96 204.168 1737.3 197.826 Q1735.96 199.817 1733.9 200.881 Q1731.84 201.946 1729.34 201.946 Q1724.15 201.946 1721.12 198.821 Q1718.11 195.673 1718.11 190.233 Q1718.11 184.909 1721.26 181.692 Q1724.41 178.474 1729.64 178.474 Q1735.64 178.474 1738.78 183.081 Q1741.96 187.664 1741.96 196.414 Q1741.96 204.585 1738.07 209.469 Q1734.2 214.33 1727.65 214.33 Q1725.89 214.33 1724.09 213.983 Q1722.28 213.636 1720.34 212.942 M1729.64 198.289 Q1732.79 198.289 1734.62 196.136 Q1736.47 193.983 1736.47 190.233 Q1736.47 186.507 1734.62 184.354 Q1732.79 182.178 1729.64 182.178 Q1726.49 182.178 1724.64 184.354 Q1722.81 186.507 1722.81 190.233 Q1722.81 193.983 1724.64 196.136 Q1726.49 198.289 1729.64 198.289 Z" fill="#000000" fill-rule="nonzero" fill-opacity="1" /><path clip-path="url(#clip830)" d="M1750.5 212.942 L1750.5 208.682 Q1752.26 209.516 1754.06 209.955 Q1755.87 210.395 1757.6 210.395 Q1762.23 210.395 1764.66 207.293 Q1767.12 204.168 1767.46 197.826 Q1766.12 199.817 1764.06 200.881 Q1762 201.946 1759.5 201.946 Q1754.32 201.946 1751.28 198.821 Q1748.28 195.673 1748.28 190.233 Q1748.28 184.909 1751.42 181.692 Q1754.57 178.474 1759.8 178.474 Q1765.8 178.474 1768.95 183.081 Q1772.12 187.664 1772.12 196.414 Q1772.12 204.585 1768.23 209.469 Q1764.36 214.33 1757.81 214.33 Q1756.05 214.33 1754.25 213.983 Q1752.44 213.636 1750.5 212.942 M1759.8 198.289 Q1762.95 198.289 1764.78 196.136 Q1766.63 193.983 1766.63 190.233 Q1766.63 186.507 1764.78 184.354 Q1762.95 182.178 1759.8 182.178 Q1756.65 182.178 1754.8 184.354 Q1752.97 186.507 1752.97 190.233 Q1752.97 193.983 1754.8 196.136 Q1756.65 198.289 1759.8 198.289 Z" fill="#000000" fill-rule="nonzero" fill-opacity="1" /><path clip-path="url(#clip830)" d="M1793.37 183.173 L1781.56 201.622 L1793.37 201.622 L1793.37 183.173 M1792.14 179.099 L1798.02 179.099 L1798.02 201.622 L1802.95 201.622 L1802.95 205.511 L1798.02 205.511 L1798.02 213.659 L1793.37 213.659 L1793.37 205.511 L1777.77 205.511 L1777.77 200.997 L1792.14 179.099 Z" fill="#000000" fill-rule="nonzero" fill-opacity="1" /><path clip-path="url(#clip830)" d="M1822.67 187.733 L1826.93 187.733 L1832.26 207.965 L1837.56 187.733 L1842.58 187.733 L1847.9 207.965 L1853.21 187.733 L1857.46 187.733 L1850.68 213.659 L1845.66 213.659 L1840.08 192.409 L1834.48 213.659 L1829.46 213.659 L1822.67 187.733 Z" fill="#000000" fill-rule="nonzero" fill-opacity="1" /><path clip-path="url(#clip830)" d="M1863.92 187.733 L1868.18 187.733 L1868.18 213.659 L1863.92 213.659 L1863.92 187.733 M1863.92 177.641 L1868.18 177.641 L1868.18 183.034 L1863.92 183.034 L1863.92 177.641 Z" fill="#000000" fill-rule="nonzero" fill-opacity="1" /><path clip-path="url(#clip830)" d="M1881.31 180.372 L1881.31 187.733 L1890.08 187.733 L1890.08 191.044 L1881.31 191.044 L1881.31 205.118 Q1881.31 208.289 1882.16 209.192 Q1883.04 210.094 1885.7 210.094 L1890.08 210.094 L1890.08 213.659 L1885.7 213.659 Q1880.77 213.659 1878.9 211.83 Q1877.02 209.979 1877.02 205.118 L1877.02 191.044 L1873.9 191.044 L1873.9 187.733 L1877.02 187.733 L1877.02 180.372 L1881.31 180.372 Z" fill="#000000" fill-rule="nonzero" fill-opacity="1" /><path clip-path="url(#clip830)" d="M1917.23 198.011 L1917.23 213.659 L1912.97 213.659 L1912.97 198.15 Q1912.97 194.469 1911.54 192.641 Q1910.1 190.812 1907.23 190.812 Q1903.78 190.812 1901.79 193.011 Q1899.8 195.21 1899.8 199.006 L1899.8 213.659 L1895.52 213.659 L1895.52 177.641 L1899.8 177.641 L1899.8 191.761 Q1901.33 189.423 1903.39 188.266 Q1905.47 187.108 1908.18 187.108 Q1912.65 187.108 1914.94 189.886 Q1917.23 192.641 1917.23 198.011 Z" fill="#000000" fill-rule="nonzero" fill-opacity="1" /><path clip-path="url(#clip830)" d="M1957.32 188.497 L1957.32 192.525 Q1955.52 191.599 1953.57 191.136 Q1951.63 190.673 1949.55 190.673 Q1946.38 190.673 1944.78 191.645 Q1943.2 192.618 1943.2 194.562 Q1943.2 196.044 1944.34 196.9 Q1945.47 197.733 1948.9 198.497 L1950.36 198.821 Q1954.89 199.794 1956.79 201.576 Q1958.71 203.335 1958.71 206.506 Q1958.71 210.118 1955.84 212.224 Q1953 214.33 1948 214.33 Q1945.91 214.33 1943.64 213.914 Q1941.4 213.52 1938.9 212.71 L1938.9 208.312 Q1941.26 209.539 1943.55 210.164 Q1945.84 210.766 1948.09 210.766 Q1951.1 210.766 1952.72 209.747 Q1954.34 208.706 1954.34 206.831 Q1954.34 205.094 1953.16 204.168 Q1952 203.243 1948.04 202.386 L1946.56 202.039 Q1942.6 201.206 1940.84 199.493 Q1939.08 197.756 1939.08 194.747 Q1939.08 191.09 1941.68 189.099 Q1944.27 187.108 1949.04 187.108 Q1951.4 187.108 1953.48 187.456 Q1955.57 187.803 1957.32 188.497 Z" fill="#000000" fill-rule="nonzero" fill-opacity="1" /><path clip-path="url(#clip830)" d="M1985.68 192.71 Q1987.28 189.84 1989.5 188.474 Q1991.72 187.108 1994.73 187.108 Q1998.78 187.108 2000.98 189.956 Q2003.18 192.78 2003.18 198.011 L2003.18 213.659 L1998.9 213.659 L1998.9 198.15 Q1998.9 194.423 1997.58 192.618 Q1996.26 190.812 1993.55 190.812 Q1990.24 190.812 1988.32 193.011 Q1986.4 195.21 1986.4 199.006 L1986.4 213.659 L1982.12 213.659 L1982.12 198.15 Q1982.12 194.4 1980.8 192.618 Q1979.48 190.812 1976.72 190.812 Q1973.46 190.812 1971.54 193.034 Q1969.62 195.233 1969.62 199.006 L1969.62 213.659 L1965.33 213.659 L1965.33 187.733 L1969.62 187.733 L1969.62 191.761 Q1971.07 189.377 1973.11 188.243 Q1975.15 187.108 1977.95 187.108 Q1980.77 187.108 1982.74 188.544 Q1984.73 189.979 1985.68 192.71 Z" fill="#000000" fill-rule="nonzero" fill-opacity="1" /><path clip-path="url(#clip830)" d="M2021.72 190.719 Q2018.3 190.719 2016.31 193.405 Q2014.32 196.067 2014.32 200.719 Q2014.32 205.372 2016.28 208.057 Q2018.27 210.719 2021.72 210.719 Q2025.13 210.719 2027.12 208.034 Q2029.11 205.349 2029.11 200.719 Q2029.11 196.113 2027.12 193.428 Q2025.13 190.719 2021.72 190.719 M2021.72 187.108 Q2027.28 187.108 2030.45 190.719 Q2033.62 194.331 2033.62 200.719 Q2033.62 207.085 2030.45 210.719 Q2027.28 214.33 2021.72 214.33 Q2016.14 214.33 2012.97 210.719 Q2009.82 207.085 2009.82 200.719 Q2009.82 194.331 2012.97 190.719 Q2016.14 187.108 2021.72 187.108 Z" fill="#000000" fill-rule="nonzero" fill-opacity="1" /><path clip-path="url(#clip830)" d="M2050.73 190.719 Q2047.3 190.719 2045.31 193.405 Q2043.32 196.067 2043.32 200.719 Q2043.32 205.372 2045.29 208.057 Q2047.28 210.719 2050.73 210.719 Q2054.13 210.719 2056.12 208.034 Q2058.11 205.349 2058.11 200.719 Q2058.11 196.113 2056.12 193.428 Q2054.13 190.719 2050.73 190.719 M2050.73 187.108 Q2056.28 187.108 2059.45 190.719 Q2062.63 194.331 2062.63 200.719 Q2062.63 207.085 2059.45 210.719 Q2056.28 214.33 2050.73 214.33 Q2045.15 214.33 2041.98 210.719 Q2038.83 207.085 2038.83 200.719 Q2038.83 194.331 2041.98 190.719 Q2045.15 187.108 2050.73 187.108 Z" fill="#000000" fill-rule="nonzero" fill-opacity="1" /><path clip-path="url(#clip830)" d="M2073.9 180.372 L2073.9 187.733 L2082.67 187.733 L2082.67 191.044 L2073.9 191.044 L2073.9 205.118 Q2073.9 208.289 2074.75 209.192 Q2075.63 210.094 2078.3 210.094 L2082.67 210.094 L2082.67 213.659 L2078.3 213.659 Q2073.37 213.659 2071.49 211.83 Q2069.62 209.979 2069.62 205.118 L2069.62 191.044 L2066.49 191.044 L2066.49 187.733 L2069.62 187.733 L2069.62 180.372 L2073.9 180.372 Z" fill="#000000" fill-rule="nonzero" fill-opacity="1" /><path clip-path="url(#clip830)" d="M2109.82 198.011 L2109.82 213.659 L2105.56 213.659 L2105.56 198.15 Q2105.56 194.469 2104.13 192.641 Q2102.69 190.812 2099.82 190.812 Q2096.38 190.812 2094.38 193.011 Q2092.39 195.21 2092.39 199.006 L2092.39 213.659 L2088.11 213.659 L2088.11 177.641 L2092.39 177.641 L2092.39 191.761 Q2093.92 189.423 2095.98 188.266 Q2098.06 187.108 2100.77 187.108 Q2105.24 187.108 2107.53 189.886 Q2109.82 192.641 2109.82 198.011 Z" fill="#000000" fill-rule="nonzero" fill-opacity="1" /><path clip-path="url(#clip830)" d="M2118.32 187.733 L2122.58 187.733 L2122.58 213.659 L2118.32 213.659 L2118.32 187.733 M2118.32 177.641 L2122.58 177.641 L2122.58 183.034 L2118.32 183.034 L2118.32 177.641 Z" fill="#000000" fill-rule="nonzero" fill-opacity="1" /><path clip-path="url(#clip830)" d="M2153.04 198.011 L2153.04 213.659 L2148.78 213.659 L2148.78 198.15 Q2148.78 194.469 2147.35 192.641 Q2145.91 190.812 2143.04 190.812 Q2139.59 190.812 2137.6 193.011 Q2135.61 195.21 2135.61 199.006 L2135.61 213.659 L2131.33 213.659 L2131.33 187.733 L2135.61 187.733 L2135.61 191.761 Q2137.14 189.423 2139.2 188.266 Q2141.28 187.108 2143.99 187.108 Q2148.46 187.108 2150.75 189.886 Q2153.04 192.641 2153.04 198.011 Z" fill="#000000" fill-rule="nonzero" fill-opacity="1" /><path clip-path="url(#clip830)" d="M2178.6 200.395 Q2178.6 195.766 2176.68 193.219 Q2174.78 190.673 2171.33 190.673 Q2167.9 190.673 2165.98 193.219 Q2164.08 195.766 2164.08 200.395 Q2164.08 205.002 2165.98 207.548 Q2167.9 210.094 2171.33 210.094 Q2174.78 210.094 2176.68 207.548 Q2178.6 205.002 2178.6 200.395 M2182.86 210.442 Q2182.86 217.062 2179.92 220.28 Q2176.98 223.52 2170.91 223.52 Q2168.67 223.52 2166.68 223.173 Q2164.68 222.849 2162.81 222.155 L2162.81 218.011 Q2164.68 219.03 2166.51 219.516 Q2168.34 220.002 2170.24 220.002 Q2174.43 220.002 2176.51 217.803 Q2178.6 215.627 2178.6 211.205 L2178.6 209.099 Q2177.28 211.391 2175.22 212.525 Q2173.16 213.659 2170.29 213.659 Q2165.52 213.659 2162.6 210.025 Q2159.68 206.391 2159.68 200.395 Q2159.68 194.377 2162.6 190.743 Q2165.52 187.108 2170.29 187.108 Q2173.16 187.108 2175.22 188.243 Q2177.28 189.377 2178.6 191.669 L2178.6 187.733 L2182.86 187.733 L2182.86 210.442 Z" fill="#000000" fill-rule="nonzero" fill-opacity="1" /></svg>
