<?xml version="1.0" encoding="utf-8"?>
<svg xmlns="http://www.w3.org/2000/svg" xmlns:xlink="http://www.w3.org/1999/xlink" width="600" height="400" viewBox="0 0 2400 1600">
<defs>
  <clipPath id="clip890">
    <rect x="0" y="0" width="2400" height="1600"/>
  </clipPath>
</defs>
<path clip-path="url(#clip890)" d="M0 1600 L2400 1600 L2400 0 L0 0  Z" fill="#ffffff" fill-rule="evenodd" fill-opacity="1"/>
<defs>
  <clipPath id="clip891">
    <rect x="480" y="0" width="1681" height="1600"/>
  </clipPath>
</defs>
<path clip-path="url(#clip890)" d="M249.542 1423.18 L2352.76 1423.18 L2352.76 47.2441 L249.542 47.2441  Z" fill="#ffffff" fill-rule="evenodd" fill-opacity="1"/>
<defs>
  <clipPath id="clip892">
    <rect x="249" y="47" width="2104" height="1377"/>
  </clipPath>
</defs>
<polyline clip-path="url(#clip892)" style="stroke:#000000; stroke-linecap:round; stroke-linejoin:round; stroke-width:2; stroke-opacity:0.1; fill:none" points="381.218,1423.18 381.218,47.2441 "/>
<polyline clip-path="url(#clip892)" style="stroke:#000000; stroke-linecap:round; stroke-linejoin:round; stroke-width:2; stroke-opacity:0.1; fill:none" points="862.228,1423.18 862.228,47.2441 "/>
<polyline clip-path="url(#clip892)" style="stroke:#000000; stroke-linecap:round; stroke-linejoin:round; stroke-width:2; stroke-opacity:0.1; fill:none" points="1343.24,1423.18 1343.24,47.2441 "/>
<polyline clip-path="url(#clip892)" style="stroke:#000000; stroke-linecap:round; stroke-linejoin:round; stroke-width:2; stroke-opacity:0.1; fill:none" points="1824.25,1423.18 1824.25,47.2441 "/>
<polyline clip-path="url(#clip892)" style="stroke:#000000; stroke-linecap:round; stroke-linejoin:round; stroke-width:2; stroke-opacity:0.1; fill:none" points="2305.26,1423.18 2305.26,47.2441 "/>
<polyline clip-path="url(#clip890)" style="stroke:#000000; stroke-linecap:round; stroke-linejoin:round; stroke-width:4; stroke-opacity:1; fill:none" points="249.542,1423.18 2352.76,1423.18 "/>
<polyline clip-path="url(#clip890)" style="stroke:#000000; stroke-linecap:round; stroke-linejoin:round; stroke-width:4; stroke-opacity:1; fill:none" points="381.218,1423.18 381.218,1404.28 "/>
<polyline clip-path="url(#clip890)" style="stroke:#000000; stroke-linecap:round; stroke-linejoin:round; stroke-width:4; stroke-opacity:1; fill:none" points="862.228,1423.18 862.228,1404.28 "/>
<polyline clip-path="url(#clip890)" style="stroke:#000000; stroke-linecap:round; stroke-linejoin:round; stroke-width:4; stroke-opacity:1; fill:none" points="1343.24,1423.18 1343.24,1404.28 "/>
<polyline clip-path="url(#clip890)" style="stroke:#000000; stroke-linecap:round; stroke-linejoin:round; stroke-width:4; stroke-opacity:1; fill:none" points="1824.25,1423.18 1824.25,1404.28 "/>
<polyline clip-path="url(#clip890)" style="stroke:#000000; stroke-linecap:round; stroke-linejoin:round; stroke-width:4; stroke-opacity:1; fill:none" points="2305.26,1423.18 2305.26,1404.28 "/>
<path clip-path="url(#clip890)" d="M375.871 1481.64 L392.191 1481.64 L392.191 1485.58 L370.246 1485.58 L370.246 1481.64 Q372.908 1478.89 377.492 1474.26 Q382.098 1469.61 383.279 1468.27 Q385.524 1465.74 386.404 1464.01 Q387.306 1462.25 387.306 1460.56 Q387.306 1457.8 385.362 1456.07 Q383.441 1454.33 380.339 1454.33 Q378.14 1454.33 375.686 1455.09 Q373.255 1455.86 370.478 1457.41 L370.478 1452.69 Q373.302 1451.55 375.755 1450.97 Q378.209 1450.39 380.246 1450.39 Q385.616 1450.39 388.811 1453.08 Q392.005 1455.77 392.005 1460.26 Q392.005 1462.39 391.195 1464.31 Q390.408 1466.2 388.302 1468.8 Q387.723 1469.47 384.621 1472.69 Q381.519 1475.88 375.871 1481.64 Z" fill="#000000" fill-rule="nonzero" fill-opacity="1" /><path clip-path="url(#clip890)" d="M865.237 1455.09 L853.432 1473.54 L865.237 1473.54 L865.237 1455.09 M864.01 1451.02 L869.89 1451.02 L869.89 1473.54 L874.82 1473.54 L874.82 1477.43 L869.89 1477.43 L869.89 1485.58 L865.237 1485.58 L865.237 1477.43 L849.635 1477.43 L849.635 1472.92 L864.01 1451.02 Z" fill="#000000" fill-rule="nonzero" fill-opacity="1" /><path clip-path="url(#clip890)" d="M1343.64 1466.44 Q1340.49 1466.44 1338.64 1468.59 Q1336.81 1470.74 1336.81 1474.49 Q1336.81 1478.22 1338.64 1480.39 Q1340.49 1482.55 1343.64 1482.55 Q1346.79 1482.55 1348.62 1480.39 Q1350.47 1478.22 1350.47 1474.49 Q1350.47 1470.74 1348.62 1468.59 Q1346.79 1466.44 1343.64 1466.44 M1352.92 1451.78 L1352.92 1456.04 Q1351.17 1455.21 1349.36 1454.77 Q1347.58 1454.33 1345.82 1454.33 Q1341.19 1454.33 1338.74 1457.45 Q1336.3 1460.58 1335.96 1466.9 Q1337.32 1464.89 1339.38 1463.82 Q1341.44 1462.73 1343.92 1462.73 Q1349.13 1462.73 1352.14 1465.9 Q1355.17 1469.05 1355.17 1474.49 Q1355.17 1479.82 1352.02 1483.03 Q1348.87 1486.25 1343.64 1486.25 Q1337.65 1486.25 1334.48 1481.67 Q1331.3 1477.06 1331.3 1468.33 Q1331.3 1460.14 1335.19 1455.28 Q1339.08 1450.39 1345.63 1450.39 Q1347.39 1450.39 1349.17 1450.74 Q1350.98 1451.09 1352.92 1451.78 Z" fill="#000000" fill-rule="nonzero" fill-opacity="1" /><path clip-path="url(#clip890)" d="M1824.25 1469.17 Q1820.91 1469.17 1818.99 1470.95 Q1817.09 1472.73 1817.09 1475.86 Q1817.09 1478.98 1818.99 1480.77 Q1820.91 1482.55 1824.25 1482.55 Q1827.58 1482.55 1829.5 1480.77 Q1831.42 1478.96 1831.42 1475.86 Q1831.42 1472.73 1829.5 1470.95 Q1827.6 1469.17 1824.25 1469.17 M1819.57 1467.18 Q1816.56 1466.44 1814.87 1464.38 Q1813.21 1462.32 1813.21 1459.35 Q1813.21 1455.21 1816.14 1452.8 Q1819.11 1450.39 1824.25 1450.39 Q1829.41 1450.39 1832.35 1452.8 Q1835.29 1455.21 1835.29 1459.35 Q1835.29 1462.32 1833.6 1464.38 Q1831.93 1466.44 1828.95 1467.18 Q1832.33 1467.96 1834.2 1470.26 Q1836.1 1472.55 1836.1 1475.86 Q1836.1 1480.88 1833.02 1483.57 Q1829.96 1486.25 1824.25 1486.25 Q1818.53 1486.25 1815.45 1483.57 Q1812.39 1480.88 1812.39 1475.86 Q1812.39 1472.55 1814.29 1470.26 Q1816.19 1467.96 1819.57 1467.18 M1817.86 1459.79 Q1817.86 1462.48 1819.52 1463.98 Q1821.21 1465.49 1824.25 1465.49 Q1827.26 1465.49 1828.95 1463.98 Q1830.66 1462.48 1830.66 1459.79 Q1830.66 1457.11 1828.95 1455.6 Q1827.26 1454.1 1824.25 1454.1 Q1821.21 1454.1 1819.52 1455.6 Q1817.86 1457.11 1817.86 1459.79 Z" fill="#000000" fill-rule="nonzero" fill-opacity="1" /><path clip-path="url(#clip890)" d="M2279.94 1481.64 L2287.58 1481.64 L2287.58 1455.28 L2279.27 1456.95 L2279.27 1452.69 L2287.54 1451.02 L2292.21 1451.02 L2292.21 1481.64 L2299.85 1481.64 L2299.85 1485.58 L2279.94 1485.58 L2279.94 1481.64 Z" fill="#000000" fill-rule="nonzero" fill-opacity="1" /><path clip-path="url(#clip890)" d="M2319.3 1454.1 Q2315.68 1454.1 2313.86 1457.66 Q2312.05 1461.2 2312.05 1468.33 Q2312.05 1475.44 2313.86 1479.01 Q2315.68 1482.55 2319.3 1482.55 Q2322.93 1482.55 2324.74 1479.01 Q2326.56 1475.44 2326.56 1468.33 Q2326.56 1461.2 2324.74 1457.66 Q2322.93 1454.1 2319.3 1454.1 M2319.3 1450.39 Q2325.11 1450.39 2328.16 1455 Q2331.24 1459.58 2331.24 1468.33 Q2331.24 1477.06 2328.16 1481.67 Q2325.11 1486.25 2319.3 1486.25 Q2313.49 1486.25 2310.41 1481.67 Q2307.35 1477.06 2307.35 1468.33 Q2307.35 1459.58 2310.41 1455 Q2313.49 1450.39 2319.3 1450.39 Z" fill="#000000" fill-rule="nonzero" fill-opacity="1" /><path clip-path="url(#clip890)" d="M1073.22 1525.81 L1073.22 1562.76 L1080.99 1562.76 Q1090.83 1562.76 1095.38 1558.3 Q1099.96 1553.85 1099.96 1544.24 Q1099.96 1534.69 1095.38 1530.26 Q1090.83 1525.81 1080.99 1525.81 L1073.22 1525.81 M1066.8 1520.52 L1080 1520.52 Q1093.82 1520.52 1100.28 1526.28 Q1106.74 1532.01 1106.74 1544.24 Q1106.74 1556.52 1100.25 1562.28 Q1093.75 1568.04 1080 1568.04 L1066.8 1568.04 L1066.8 1520.52 Z" fill="#000000" fill-rule="nonzero" fill-opacity="1" /><path clip-path="url(#clip890)" d="M1116.73 1532.4 L1122.59 1532.4 L1122.59 1568.04 L1116.73 1568.04 L1116.73 1532.4 M1116.73 1518.52 L1122.59 1518.52 L1122.59 1525.93 L1116.73 1525.93 L1116.73 1518.52 Z" fill="#000000" fill-rule="nonzero" fill-opacity="1" /><path clip-path="url(#clip890)" d="M1151.05 1550.12 Q1143.95 1550.12 1141.21 1551.75 Q1138.47 1553.37 1138.47 1557.29 Q1138.47 1560.4 1140.51 1562.25 Q1142.58 1564.07 1146.11 1564.07 Q1150.98 1564.07 1153.91 1560.63 Q1156.87 1557.16 1156.87 1551.43 L1156.87 1550.12 L1151.05 1550.12 M1162.73 1547.71 L1162.73 1568.04 L1156.87 1568.04 L1156.87 1562.63 Q1154.87 1565.88 1151.87 1567.44 Q1148.88 1568.97 1144.55 1568.97 Q1139.08 1568.97 1135.83 1565.91 Q1132.62 1562.82 1132.62 1557.67 Q1132.62 1551.65 1136.63 1548.6 Q1140.67 1545.54 1148.66 1545.54 L1156.87 1545.54 L1156.87 1544.97 Q1156.87 1540.93 1154.2 1538.73 Q1151.55 1536.5 1146.75 1536.5 Q1143.69 1536.5 1140.8 1537.23 Q1137.9 1537.97 1135.23 1539.43 L1135.23 1534.02 Q1138.44 1532.78 1141.47 1532.17 Q1144.49 1531.54 1147.35 1531.54 Q1155.09 1531.54 1158.91 1535.55 Q1162.73 1539.56 1162.73 1547.71 Z" fill="#000000" fill-rule="nonzero" fill-opacity="1" /><path clip-path="url(#clip890)" d="M1202.54 1539.24 Q1204.74 1535.29 1207.8 1533.41 Q1210.85 1531.54 1214.99 1531.54 Q1220.56 1531.54 1223.58 1535.45 Q1226.61 1539.33 1226.61 1546.53 L1226.61 1568.04 L1220.72 1568.04 L1220.72 1546.72 Q1220.72 1541.59 1218.9 1539.11 Q1217.09 1536.63 1213.37 1536.63 Q1208.81 1536.63 1206.17 1539.65 Q1203.53 1542.68 1203.53 1547.9 L1203.53 1568.04 L1197.64 1568.04 L1197.64 1546.72 Q1197.64 1541.56 1195.83 1539.11 Q1194.01 1536.63 1190.23 1536.63 Q1185.74 1536.63 1183.1 1539.68 Q1180.46 1542.71 1180.46 1547.9 L1180.46 1568.04 L1174.57 1568.04 L1174.57 1532.4 L1180.46 1532.4 L1180.46 1537.93 Q1182.46 1534.66 1185.26 1533.1 Q1188.06 1531.54 1191.91 1531.54 Q1195.8 1531.54 1198.5 1533.51 Q1201.24 1535.48 1202.54 1539.24 Z" fill="#000000" fill-rule="nonzero" fill-opacity="1" /><path clip-path="url(#clip890)" d="M1268.78 1548.76 L1268.78 1551.62 L1241.85 1551.62 Q1242.23 1557.67 1245.48 1560.85 Q1248.76 1564 1254.58 1564 Q1257.96 1564 1261.11 1563.17 Q1264.29 1562.35 1267.41 1560.69 L1267.41 1566.23 Q1264.26 1567.57 1260.95 1568.27 Q1257.64 1568.97 1254.23 1568.97 Q1245.7 1568.97 1240.71 1564 Q1235.74 1559.04 1235.74 1550.57 Q1235.74 1541.82 1240.45 1536.69 Q1245.19 1531.54 1253.22 1531.54 Q1260.41 1531.54 1264.58 1536.18 Q1268.78 1540.8 1268.78 1548.76 M1262.92 1547.04 Q1262.86 1542.23 1260.22 1539.37 Q1257.61 1536.5 1253.28 1536.5 Q1248.38 1536.5 1245.42 1539.27 Q1242.49 1542.04 1242.04 1547.07 L1262.92 1547.04 Z" fill="#000000" fill-rule="nonzero" fill-opacity="1" /><path clip-path="url(#clip890)" d="M1284.18 1522.27 L1284.18 1532.4 L1296.25 1532.4 L1296.25 1536.95 L1284.18 1536.95 L1284.18 1556.3 Q1284.18 1560.66 1285.36 1561.9 Q1286.57 1563.14 1290.23 1563.14 L1296.25 1563.14 L1296.25 1568.04 L1290.23 1568.04 Q1283.45 1568.04 1280.87 1565.53 Q1278.3 1562.98 1278.3 1556.3 L1278.3 1536.95 L1274 1536.95 L1274 1532.4 L1278.3 1532.4 L1278.3 1522.27 L1284.18 1522.27 Z" fill="#000000" fill-rule="nonzero" fill-opacity="1" /><path clip-path="url(#clip890)" d="M1334.44 1548.76 L1334.44 1551.62 L1307.51 1551.62 Q1307.9 1557.67 1311.14 1560.85 Q1314.42 1564 1320.25 1564 Q1323.62 1564 1326.77 1563.17 Q1329.95 1562.35 1333.07 1560.69 L1333.07 1566.23 Q1329.92 1567.57 1326.61 1568.27 Q1323.3 1568.97 1319.9 1568.97 Q1311.37 1568.97 1306.37 1564 Q1301.4 1559.04 1301.4 1550.57 Q1301.4 1541.82 1306.11 1536.69 Q1310.86 1531.54 1318.88 1531.54 Q1326.07 1531.54 1330.24 1536.18 Q1334.44 1540.8 1334.44 1548.76 M1328.59 1547.04 Q1328.52 1542.23 1325.88 1539.37 Q1323.27 1536.5 1318.94 1536.5 Q1314.04 1536.5 1311.08 1539.27 Q1308.15 1542.04 1307.71 1547.07 L1328.59 1547.04 Z" fill="#000000" fill-rule="nonzero" fill-opacity="1" /><path clip-path="url(#clip890)" d="M1364.71 1537.87 Q1363.72 1537.3 1362.55 1537.04 Q1361.4 1536.76 1360 1536.76 Q1355.03 1536.76 1352.36 1540 Q1349.72 1543.22 1349.72 1549.27 L1349.72 1568.04 L1343.83 1568.04 L1343.83 1532.4 L1349.72 1532.4 L1349.72 1537.93 Q1351.57 1534.69 1354.53 1533.13 Q1357.49 1531.54 1361.72 1531.54 Q1362.32 1531.54 1363.06 1531.63 Q1363.79 1531.7 1364.68 1531.85 L1364.71 1537.87 Z" fill="#000000" fill-rule="nonzero" fill-opacity="1" /><path clip-path="url(#clip890)" d="M1405.64 1518.58 Q1401.38 1525.9 1399.31 1533.06 Q1397.24 1540.23 1397.24 1547.58 Q1397.24 1554.93 1399.31 1562.16 Q1401.41 1569.35 1405.64 1576.64 L1400.55 1576.64 Q1395.78 1569.16 1393.39 1561.93 Q1391.03 1554.71 1391.03 1547.58 Q1391.03 1540.48 1393.39 1533.29 Q1395.74 1526.09 1400.55 1518.58 L1405.64 1518.58 Z" fill="#000000" fill-rule="nonzero" fill-opacity="1" /><path clip-path="url(#clip890)" d="M1446.64 1546.53 L1446.64 1568.04 L1440.78 1568.04 L1440.78 1546.72 Q1440.78 1541.66 1438.81 1539.14 Q1436.83 1536.63 1432.89 1536.63 Q1428.14 1536.63 1425.41 1539.65 Q1422.67 1542.68 1422.67 1547.9 L1422.67 1568.04 L1416.78 1568.04 L1416.78 1532.4 L1422.67 1532.4 L1422.67 1537.93 Q1424.77 1534.72 1427.6 1533.13 Q1430.47 1531.54 1434.19 1531.54 Q1440.34 1531.54 1443.49 1535.36 Q1446.64 1539.14 1446.64 1546.53 Z" fill="#000000" fill-rule="nonzero" fill-opacity="1" /><path clip-path="url(#clip890)" d="M1486.07 1539.24 Q1488.27 1535.29 1491.32 1533.41 Q1494.38 1531.54 1498.52 1531.54 Q1504.09 1531.54 1507.11 1535.45 Q1510.14 1539.33 1510.14 1546.53 L1510.14 1568.04 L1504.25 1568.04 L1504.25 1546.72 Q1504.25 1541.59 1502.43 1539.11 Q1500.62 1536.63 1496.89 1536.63 Q1492.34 1536.63 1489.7 1539.65 Q1487.06 1542.68 1487.06 1547.9 L1487.06 1568.04 L1481.17 1568.04 L1481.17 1546.72 Q1481.17 1541.56 1479.36 1539.11 Q1477.54 1536.63 1473.76 1536.63 Q1469.27 1536.63 1466.63 1539.68 Q1463.98 1542.71 1463.98 1547.9 L1463.98 1568.04 L1458.1 1568.04 L1458.1 1532.4 L1463.98 1532.4 L1463.98 1537.93 Q1465.99 1534.66 1468.79 1533.1 Q1471.59 1531.54 1475.44 1531.54 Q1479.33 1531.54 1482.03 1533.51 Q1484.77 1535.48 1486.07 1539.24 Z" fill="#000000" fill-rule="nonzero" fill-opacity="1" /><path clip-path="url(#clip890)" d="M1520.89 1518.58 L1525.99 1518.58 Q1530.76 1526.09 1533.12 1533.29 Q1535.5 1540.48 1535.5 1547.58 Q1535.5 1554.71 1533.12 1561.93 Q1530.76 1569.16 1525.99 1576.64 L1520.89 1576.64 Q1525.13 1569.35 1527.2 1562.16 Q1529.3 1554.93 1529.3 1547.58 Q1529.3 1540.23 1527.2 1533.06 Q1525.13 1525.9 1520.89 1518.58 Z" fill="#000000" fill-rule="nonzero" fill-opacity="1" /><polyline clip-path="url(#clip892)" style="stroke:#000000; stroke-linecap:round; stroke-linejoin:round; stroke-width:2; stroke-opacity:0.1; fill:none" points="249.542,1384.26 2352.76,1384.26 "/>
<polyline clip-path="url(#clip892)" style="stroke:#000000; stroke-linecap:round; stroke-linejoin:round; stroke-width:2; stroke-opacity:0.1; fill:none" points="249.542,1059.74 2352.76,1059.74 "/>
<polyline clip-path="url(#clip892)" style="stroke:#000000; stroke-linecap:round; stroke-linejoin:round; stroke-width:2; stroke-opacity:0.1; fill:none" points="249.542,735.224 2352.76,735.224 "/>
<polyline clip-path="url(#clip892)" style="stroke:#000000; stroke-linecap:round; stroke-linejoin:round; stroke-width:2; stroke-opacity:0.1; fill:none" points="249.542,410.705 2352.76,410.705 "/>
<polyline clip-path="url(#clip892)" style="stroke:#000000; stroke-linecap:round; stroke-linejoin:round; stroke-width:2; stroke-opacity:0.1; fill:none" points="249.542,86.1857 2352.76,86.1857 "/>
<polyline clip-path="url(#clip890)" style="stroke:#000000; stroke-linecap:round; stroke-linejoin:round; stroke-width:4; stroke-opacity:1; fill:none" points="249.542,1423.18 249.542,47.2441 "/>
<polyline clip-path="url(#clip890)" style="stroke:#000000; stroke-linecap:round; stroke-linejoin:round; stroke-width:4; stroke-opacity:1; fill:none" points="249.542,1384.26 268.44,1384.26 "/>
<polyline clip-path="url(#clip890)" style="stroke:#000000; stroke-linecap:round; stroke-linejoin:round; stroke-width:4; stroke-opacity:1; fill:none" points="249.542,1059.74 268.44,1059.74 "/>
<polyline clip-path="url(#clip890)" style="stroke:#000000; stroke-linecap:round; stroke-linejoin:round; stroke-width:4; stroke-opacity:1; fill:none" points="249.542,735.224 268.44,735.224 "/>
<polyline clip-path="url(#clip890)" style="stroke:#000000; stroke-linecap:round; stroke-linejoin:round; stroke-width:4; stroke-opacity:1; fill:none" points="249.542,410.705 268.44,410.705 "/>
<polyline clip-path="url(#clip890)" style="stroke:#000000; stroke-linecap:round; stroke-linejoin:round; stroke-width:4; stroke-opacity:1; fill:none" points="249.542,86.1857 268.44,86.1857 "/>
<path clip-path="url(#clip890)" d="M126.205 1370.06 Q122.593 1370.06 120.765 1373.63 Q118.959 1377.17 118.959 1384.3 Q118.959 1391.4 120.765 1394.97 Q122.593 1398.51 126.205 1398.51 Q129.839 1398.51 131.644 1394.97 Q133.473 1391.4 133.473 1384.3 Q133.473 1377.17 131.644 1373.63 Q129.839 1370.06 126.205 1370.06 M126.205 1366.36 Q132.015 1366.36 135.07 1370.96 Q138.149 1375.55 138.149 1384.3 Q138.149 1393.02 135.07 1397.63 Q132.015 1402.21 126.205 1402.21 Q120.394 1402.21 117.316 1397.63 Q114.26 1393.02 114.26 1384.3 Q114.26 1375.55 117.316 1370.96 Q120.394 1366.36 126.205 1366.36 Z" fill="#000000" fill-rule="nonzero" fill-opacity="1" /><path clip-path="url(#clip890)" d="M146.366 1395.66 L151.251 1395.66 L151.251 1401.54 L146.366 1401.54 L146.366 1395.66 Z" fill="#000000" fill-rule="nonzero" fill-opacity="1" /><path clip-path="url(#clip890)" d="M171.436 1370.06 Q167.825 1370.06 165.996 1373.63 Q164.19 1377.17 164.19 1384.3 Q164.19 1391.4 165.996 1394.97 Q167.825 1398.51 171.436 1398.51 Q175.07 1398.51 176.876 1394.97 Q178.704 1391.4 178.704 1384.3 Q178.704 1377.17 176.876 1373.63 Q175.07 1370.06 171.436 1370.06 M171.436 1366.36 Q177.246 1366.36 180.301 1370.96 Q183.38 1375.55 183.38 1384.3 Q183.38 1393.02 180.301 1397.63 Q177.246 1402.21 171.436 1402.21 Q165.626 1402.21 162.547 1397.63 Q159.491 1393.02 159.491 1384.3 Q159.491 1375.55 162.547 1370.96 Q165.626 1366.36 171.436 1366.36 Z" fill="#000000" fill-rule="nonzero" fill-opacity="1" /><path clip-path="url(#clip890)" d="M201.598 1370.06 Q197.987 1370.06 196.158 1373.63 Q194.352 1377.17 194.352 1384.3 Q194.352 1391.4 196.158 1394.97 Q197.987 1398.51 201.598 1398.51 Q205.232 1398.51 207.037 1394.97 Q208.866 1391.4 208.866 1384.3 Q208.866 1377.17 207.037 1373.63 Q205.232 1370.06 201.598 1370.06 M201.598 1366.36 Q207.408 1366.36 210.463 1370.96 Q213.542 1375.55 213.542 1384.3 Q213.542 1393.02 210.463 1397.63 Q207.408 1402.21 201.598 1402.21 Q195.787 1402.21 192.709 1397.63 Q189.653 1393.02 189.653 1384.3 Q189.653 1375.55 192.709 1370.96 Q195.787 1366.36 201.598 1366.36 Z" fill="#000000" fill-rule="nonzero" fill-opacity="1" /><path clip-path="url(#clip890)" d="M127.2 1045.54 Q123.589 1045.54 121.76 1049.11 Q119.955 1052.65 119.955 1059.78 Q119.955 1066.88 121.76 1070.45 Q123.589 1073.99 127.2 1073.99 Q130.834 1073.99 132.64 1070.45 Q134.468 1066.88 134.468 1059.78 Q134.468 1052.65 132.64 1049.11 Q130.834 1045.54 127.2 1045.54 M127.2 1041.84 Q133.01 1041.84 136.066 1046.44 Q139.144 1051.03 139.144 1059.78 Q139.144 1068.5 136.066 1073.11 Q133.01 1077.69 127.2 1077.69 Q121.39 1077.69 118.311 1073.11 Q115.256 1068.5 115.256 1059.78 Q115.256 1051.03 118.311 1046.44 Q121.39 1041.84 127.2 1041.84 Z" fill="#000000" fill-rule="nonzero" fill-opacity="1" /><path clip-path="url(#clip890)" d="M147.362 1071.14 L152.246 1071.14 L152.246 1077.02 L147.362 1077.02 L147.362 1071.14 Z" fill="#000000" fill-rule="nonzero" fill-opacity="1" /><path clip-path="url(#clip890)" d="M166.459 1073.09 L182.778 1073.09 L182.778 1077.02 L160.834 1077.02 L160.834 1073.09 Q163.496 1070.33 168.079 1065.7 Q172.686 1061.05 173.866 1059.71 Q176.112 1057.18 176.991 1055.45 Q177.894 1053.69 177.894 1052 Q177.894 1049.25 175.95 1047.51 Q174.028 1045.77 170.927 1045.77 Q168.727 1045.77 166.274 1046.54 Q163.843 1047.3 161.065 1048.85 L161.065 1044.13 Q163.89 1043 166.343 1042.42 Q168.797 1041.84 170.834 1041.84 Q176.204 1041.84 179.399 1044.52 Q182.593 1047.21 182.593 1051.7 Q182.593 1053.83 181.783 1055.75 Q180.996 1057.65 178.889 1060.24 Q178.311 1060.91 175.209 1064.13 Q172.107 1067.32 166.459 1073.09 Z" fill="#000000" fill-rule="nonzero" fill-opacity="1" /><path clip-path="url(#clip890)" d="M192.639 1042.46 L210.996 1042.46 L210.996 1046.4 L196.922 1046.4 L196.922 1054.87 Q197.94 1054.52 198.959 1054.36 Q199.977 1054.18 200.996 1054.18 Q206.783 1054.18 210.162 1057.35 Q213.542 1060.52 213.542 1065.93 Q213.542 1071.51 210.07 1074.62 Q206.598 1077.69 200.278 1077.69 Q198.102 1077.69 195.834 1077.32 Q193.588 1076.95 191.181 1076.21 L191.181 1071.51 Q193.264 1072.65 195.487 1073.2 Q197.709 1073.76 200.186 1073.76 Q204.19 1073.76 206.528 1071.65 Q208.866 1069.55 208.866 1065.93 Q208.866 1062.32 206.528 1060.22 Q204.19 1058.11 200.186 1058.11 Q198.311 1058.11 196.436 1058.53 Q194.584 1058.94 192.639 1059.82 L192.639 1042.46 Z" fill="#000000" fill-rule="nonzero" fill-opacity="1" /><path clip-path="url(#clip890)" d="M126.205 721.022 Q122.593 721.022 120.765 724.587 Q118.959 728.129 118.959 735.258 Q118.959 742.365 120.765 745.93 Q122.593 749.471 126.205 749.471 Q129.839 749.471 131.644 745.93 Q133.473 742.365 133.473 735.258 Q133.473 728.129 131.644 724.587 Q129.839 721.022 126.205 721.022 M126.205 717.319 Q132.015 717.319 135.07 721.925 Q138.149 726.508 138.149 735.258 Q138.149 743.985 135.07 748.592 Q132.015 753.175 126.205 753.175 Q120.394 753.175 117.316 748.592 Q114.26 743.985 114.26 735.258 Q114.26 726.508 117.316 721.925 Q120.394 717.319 126.205 717.319 Z" fill="#000000" fill-rule="nonzero" fill-opacity="1" /><path clip-path="url(#clip890)" d="M146.366 746.624 L151.251 746.624 L151.251 752.504 L146.366 752.504 L146.366 746.624 Z" fill="#000000" fill-rule="nonzero" fill-opacity="1" /><path clip-path="url(#clip890)" d="M161.482 717.944 L179.839 717.944 L179.839 721.879 L165.765 721.879 L165.765 730.351 Q166.783 730.004 167.802 729.842 Q168.82 729.657 169.839 729.657 Q175.626 729.657 179.005 732.828 Q182.385 735.999 182.385 741.416 Q182.385 746.994 178.913 750.096 Q175.44 753.175 169.121 753.175 Q166.945 753.175 164.677 752.805 Q162.431 752.434 160.024 751.693 L160.024 746.994 Q162.107 748.129 164.329 748.684 Q166.552 749.24 169.028 749.24 Q173.033 749.24 175.371 747.133 Q177.709 745.027 177.709 741.416 Q177.709 737.805 175.371 735.698 Q173.033 733.592 169.028 733.592 Q167.153 733.592 165.278 734.008 Q163.427 734.425 161.482 735.305 L161.482 717.944 Z" fill="#000000" fill-rule="nonzero" fill-opacity="1" /><path clip-path="url(#clip890)" d="M201.598 721.022 Q197.987 721.022 196.158 724.587 Q194.352 728.129 194.352 735.258 Q194.352 742.365 196.158 745.93 Q197.987 749.471 201.598 749.471 Q205.232 749.471 207.037 745.93 Q208.866 742.365 208.866 735.258 Q208.866 728.129 207.037 724.587 Q205.232 721.022 201.598 721.022 M201.598 717.319 Q207.408 717.319 210.463 721.925 Q213.542 726.508 213.542 735.258 Q213.542 743.985 210.463 748.592 Q207.408 753.175 201.598 753.175 Q195.787 753.175 192.709 748.592 Q189.653 743.985 189.653 735.258 Q189.653 726.508 192.709 721.925 Q195.787 717.319 201.598 717.319 Z" fill="#000000" fill-rule="nonzero" fill-opacity="1" /><path clip-path="url(#clip890)" d="M127.2 396.503 Q123.589 396.503 121.76 400.068 Q119.955 403.61 119.955 410.739 Q119.955 417.846 121.76 421.411 Q123.589 424.952 127.2 424.952 Q130.834 424.952 132.64 421.411 Q134.468 417.846 134.468 410.739 Q134.468 403.61 132.64 400.068 Q130.834 396.503 127.2 396.503 M127.2 392.8 Q133.01 392.8 136.066 397.406 Q139.144 401.989 139.144 410.739 Q139.144 419.466 136.066 424.073 Q133.01 428.656 127.2 428.656 Q121.39 428.656 118.311 424.073 Q115.256 419.466 115.256 410.739 Q115.256 401.989 118.311 397.406 Q121.39 392.8 127.2 392.8 Z" fill="#000000" fill-rule="nonzero" fill-opacity="1" /><path clip-path="url(#clip890)" d="M147.362 422.105 L152.246 422.105 L152.246 427.985 L147.362 427.985 L147.362 422.105 Z" fill="#000000" fill-rule="nonzero" fill-opacity="1" /><path clip-path="url(#clip890)" d="M161.251 393.425 L183.473 393.425 L183.473 395.415 L170.927 427.985 L166.042 427.985 L177.848 397.36 L161.251 397.36 L161.251 393.425 Z" fill="#000000" fill-rule="nonzero" fill-opacity="1" /><path clip-path="url(#clip890)" d="M192.639 393.425 L210.996 393.425 L210.996 397.36 L196.922 397.36 L196.922 405.832 Q197.94 405.485 198.959 405.323 Q199.977 405.138 200.996 405.138 Q206.783 405.138 210.162 408.309 Q213.542 411.48 213.542 416.897 Q213.542 422.475 210.07 425.577 Q206.598 428.656 200.278 428.656 Q198.102 428.656 195.834 428.286 Q193.588 427.915 191.181 427.174 L191.181 422.475 Q193.264 423.61 195.487 424.165 Q197.709 424.721 200.186 424.721 Q204.19 424.721 206.528 422.614 Q208.866 420.508 208.866 416.897 Q208.866 413.286 206.528 411.179 Q204.19 409.073 200.186 409.073 Q198.311 409.073 196.436 409.489 Q194.584 409.906 192.639 410.786 L192.639 393.425 Z" fill="#000000" fill-rule="nonzero" fill-opacity="1" /><path clip-path="url(#clip890)" d="M117.015 99.5305 L124.654 99.5305 L124.654 73.1649 L116.343 74.8316 L116.343 70.5723 L124.607 68.9057 L129.283 68.9057 L129.283 99.5305 L136.922 99.5305 L136.922 103.466 L117.015 103.466 L117.015 99.5305 Z" fill="#000000" fill-rule="nonzero" fill-opacity="1" /><path clip-path="url(#clip890)" d="M146.366 97.5861 L151.251 97.5861 L151.251 103.466 L146.366 103.466 L146.366 97.5861 Z" fill="#000000" fill-rule="nonzero" fill-opacity="1" /><path clip-path="url(#clip890)" d="M171.436 71.9844 Q167.825 71.9844 165.996 75.5492 Q164.19 79.0908 164.19 86.2204 Q164.19 93.3268 165.996 96.8916 Q167.825 100.433 171.436 100.433 Q175.07 100.433 176.876 96.8916 Q178.704 93.3268 178.704 86.2204 Q178.704 79.0908 176.876 75.5492 Q175.07 71.9844 171.436 71.9844 M171.436 68.2807 Q177.246 68.2807 180.301 72.8871 Q183.38 77.4704 183.38 86.2204 Q183.38 94.9472 180.301 99.5537 Q177.246 104.137 171.436 104.137 Q165.626 104.137 162.547 99.5537 Q159.491 94.9472 159.491 86.2204 Q159.491 77.4704 162.547 72.8871 Q165.626 68.2807 171.436 68.2807 Z" fill="#000000" fill-rule="nonzero" fill-opacity="1" /><path clip-path="url(#clip890)" d="M201.598 71.9844 Q197.987 71.9844 196.158 75.5492 Q194.352 79.0908 194.352 86.2204 Q194.352 93.3268 196.158 96.8916 Q197.987 100.433 201.598 100.433 Q205.232 100.433 207.037 96.8916 Q208.866 93.3268 208.866 86.2204 Q208.866 79.0908 207.037 75.5492 Q205.232 71.9844 201.598 71.9844 M201.598 68.2807 Q207.408 68.2807 210.463 72.8871 Q213.542 77.4704 213.542 86.2204 Q213.542 94.9472 210.463 99.5537 Q207.408 104.137 201.598 104.137 Q195.787 104.137 192.709 99.5537 Q189.653 94.9472 189.653 86.2204 Q189.653 77.4704 192.709 72.8871 Q195.787 68.2807 201.598 68.2807 Z" fill="#000000" fill-rule="nonzero" fill-opacity="1" /><path clip-path="url(#clip890)" d="M22.818 1303.45 L46.4666 1312.17 L46.4666 1294.69 L22.818 1303.45 M16.4842 1307.08 L16.4842 1299.79 L64.0042 1281.68 L64.0042 1288.36 L51.8138 1292.69 L51.8138 1314.11 L64.0042 1318.44 L64.0042 1325.22 L16.4842 1307.08 Z" fill="#000000" fill-rule="nonzero" fill-opacity="1" /><path clip-path="url(#clip890)" d="M58.657 1269.33 L77.5631 1269.33 L77.5631 1275.21 L28.3562 1275.21 L28.3562 1269.33 L33.7671 1269.33 Q30.5842 1267.48 29.0564 1264.68 Q27.4968 1261.85 27.4968 1257.93 Q27.4968 1251.44 32.6531 1247.4 Q37.8093 1243.32 46.212 1243.32 Q54.6147 1243.32 59.771 1247.4 Q64.9272 1251.44 64.9272 1257.93 Q64.9272 1261.85 63.3994 1264.68 Q61.8398 1267.48 58.657 1269.33 M46.212 1249.4 Q39.7508 1249.4 36.0905 1252.08 Q32.3984 1254.72 32.3984 1259.36 Q32.3984 1264.01 36.0905 1266.68 Q39.7508 1269.33 46.212 1269.33 Q52.6732 1269.33 56.3653 1266.68 Q60.0256 1264.01 60.0256 1259.36 Q60.0256 1254.72 56.3653 1252.08 Q52.6732 1249.4 46.212 1249.4 Z" fill="#000000" fill-rule="nonzero" fill-opacity="1" /><path clip-path="url(#clip890)" d="M58.657 1227.95 L77.5631 1227.95 L77.5631 1233.84 L28.3562 1233.84 L28.3562 1227.95 L33.7671 1227.95 Q30.5842 1226.1 29.0564 1223.3 Q27.4968 1220.47 27.4968 1216.55 Q27.4968 1210.06 32.6531 1206.02 Q37.8093 1201.95 46.212 1201.95 Q54.6147 1201.95 59.771 1206.02 Q64.9272 1210.06 64.9272 1216.55 Q64.9272 1220.47 63.3994 1223.3 Q61.8398 1226.1 58.657 1227.95 M46.212 1208.02 Q39.7508 1208.02 36.0905 1210.7 Q32.3984 1213.34 32.3984 1217.99 Q32.3984 1222.63 36.0905 1225.31 Q39.7508 1227.95 46.212 1227.95 Q52.6732 1227.95 56.3653 1225.31 Q60.0256 1222.63 60.0256 1217.99 Q60.0256 1213.34 56.3653 1210.7 Q52.6732 1208.02 46.212 1208.02 Z" fill="#000000" fill-rule="nonzero" fill-opacity="1" /><path clip-path="url(#clip890)" d="M46.0847 1176.04 Q46.0847 1183.13 47.7079 1185.87 Q49.3312 1188.61 53.2461 1188.61 Q56.3653 1188.61 58.2114 1186.57 Q60.0256 1184.5 60.0256 1180.97 Q60.0256 1176.1 56.5881 1173.17 Q53.1188 1170.21 47.3897 1170.21 L46.0847 1170.21 L46.0847 1176.04 M43.6657 1164.36 L64.0042 1164.36 L64.0042 1170.21 L58.5933 1170.21 Q61.8398 1172.22 63.3994 1175.21 Q64.9272 1178.2 64.9272 1182.53 Q64.9272 1188 61.8716 1191.25 Q58.7843 1194.47 53.6281 1194.47 Q47.6125 1194.47 44.5569 1190.46 Q41.5014 1186.41 41.5014 1178.42 L41.5014 1170.21 L40.9285 1170.21 Q36.8862 1170.21 34.6901 1172.89 Q32.4621 1175.53 32.4621 1180.33 Q32.4621 1183.39 33.1941 1186.29 Q33.9262 1189.18 35.3903 1191.86 L29.9795 1191.86 Q28.7381 1188.64 28.1334 1185.62 Q27.4968 1182.59 27.4968 1179.73 Q27.4968 1171.99 31.5072 1168.18 Q35.5176 1164.36 43.6657 1164.36 Z" fill="#000000" fill-rule="nonzero" fill-opacity="1" /><path clip-path="url(#clip890)" d="M33.8307 1131.64 Q33.2578 1132.62 33.0032 1133.8 Q32.7167 1134.95 32.7167 1136.35 Q32.7167 1141.31 35.9632 1143.99 Q39.1779 1146.63 45.2253 1146.63 L64.0042 1146.63 L64.0042 1152.52 L28.3562 1152.52 L28.3562 1146.63 L33.8944 1146.63 Q30.6479 1144.78 29.0883 1141.82 Q27.4968 1138.86 27.4968 1134.63 Q27.4968 1134.02 27.5923 1133.29 Q27.656 1132.56 27.8151 1131.67 L33.8307 1131.64 Z" fill="#000000" fill-rule="nonzero" fill-opacity="1" /><path clip-path="url(#clip890)" d="M44.7161 1096.43 L47.5806 1096.43 L47.5806 1123.36 Q53.6281 1122.98 56.8109 1119.73 Q59.9619 1116.45 59.9619 1110.63 Q59.9619 1107.26 59.1344 1104.1 Q58.3069 1100.92 56.6518 1097.8 L62.1899 1097.8 Q63.5267 1100.95 64.227 1104.26 Q64.9272 1107.57 64.9272 1110.98 Q64.9272 1119.51 59.9619 1124.51 Q54.9967 1129.47 46.5303 1129.47 Q37.7774 1129.47 32.6531 1124.76 Q27.4968 1120.02 27.4968 1112 Q27.4968 1104.8 32.1438 1100.64 Q36.7589 1096.43 44.7161 1096.43 M42.9973 1102.29 Q38.1912 1102.35 35.3266 1105 Q32.4621 1107.61 32.4621 1111.93 Q32.4621 1116.84 35.2312 1119.8 Q38.0002 1122.72 43.0292 1123.17 L42.9973 1102.29 Z" fill="#000000" fill-rule="nonzero" fill-opacity="1" /><path clip-path="url(#clip890)" d="M42.4881 1057.19 L64.0042 1057.19 L64.0042 1063.05 L42.679 1063.05 Q37.6183 1063.05 35.1038 1065.02 Q32.5894 1066.99 32.5894 1070.94 Q32.5894 1075.68 35.6131 1078.42 Q38.6368 1081.16 43.8567 1081.16 L64.0042 1081.16 L64.0042 1087.04 L28.3562 1087.04 L28.3562 1081.16 L33.8944 1081.16 Q30.6797 1079.06 29.0883 1076.22 Q27.4968 1073.36 27.4968 1069.63 Q27.4968 1063.49 31.3163 1060.34 Q35.1038 1057.19 42.4881 1057.19 Z" fill="#000000" fill-rule="nonzero" fill-opacity="1" /><path clip-path="url(#clip890)" d="M18.2347 1039.72 L28.3562 1039.72 L28.3562 1027.65 L32.9077 1027.65 L32.9077 1039.72 L52.2594 1039.72 Q56.6199 1039.72 57.8613 1038.54 Q59.1026 1037.33 59.1026 1033.67 L59.1026 1027.65 L64.0042 1027.65 L64.0042 1033.67 Q64.0042 1040.45 61.4897 1043.03 Q58.9434 1045.6 52.2594 1045.6 L32.9077 1045.6 L32.9077 1049.9 L28.3562 1049.9 L28.3562 1045.6 L18.2347 1045.6 L18.2347 1039.72 Z" fill="#000000" fill-rule="nonzero" fill-opacity="1" /><path clip-path="url(#clip890)" d="M16.4842 998.975 L16.4842 990.318 L56.238 969.247 L16.4842 969.247 L16.4842 963.009 L64.0042 963.009 L64.0042 971.666 L24.2503 992.737 L64.0042 992.737 L64.0042 998.975 L16.4842 998.975 Z" fill="#000000" fill-rule="nonzero" fill-opacity="1" /><path clip-path="url(#clip890)" d="M49.9359 951.073 L28.3562 951.073 L28.3562 945.217 L49.7131 945.217 Q54.7739 945.217 57.3202 943.243 Q59.8346 941.27 59.8346 937.323 Q59.8346 932.581 56.8109 929.843 Q53.7872 927.074 48.5673 927.074 L28.3562 927.074 L28.3562 921.218 L64.0042 921.218 L64.0042 927.074 L58.5296 927.074 Q61.7762 929.207 63.3676 932.04 Q64.9272 934.841 64.9272 938.564 Q64.9272 944.707 61.1078 947.89 Q57.2883 951.073 49.9359 951.073 M27.4968 936.336 L27.4968 936.336 Z" fill="#000000" fill-rule="nonzero" fill-opacity="1" /><path clip-path="url(#clip890)" d="M29.7248 883.501 L35.1993 883.501 Q33.8307 885.984 33.1623 888.498 Q32.4621 890.981 32.4621 893.527 Q32.4621 899.224 36.0905 902.375 Q39.6872 905.526 46.212 905.526 Q52.7369 905.526 56.3653 902.375 Q59.9619 899.224 59.9619 893.527 Q59.9619 890.981 59.2935 888.498 Q58.5933 885.984 57.2247 883.501 L62.6355 883.501 Q63.7814 885.952 64.3543 888.594 Q64.9272 891.204 64.9272 894.164 Q64.9272 902.216 59.8664 906.959 Q54.8057 911.701 46.212 911.701 Q37.491 911.701 32.4939 906.927 Q27.4968 902.121 27.4968 893.782 Q27.4968 891.076 28.0697 888.498 Q28.6108 885.92 29.7248 883.501 Z" fill="#000000" fill-rule="nonzero" fill-opacity="1" /><path clip-path="url(#clip890)" d="M14.479 873.316 L14.479 867.46 L64.0042 867.46 L64.0042 873.316 L14.479 873.316 Z" fill="#000000" fill-rule="nonzero" fill-opacity="1" /><path clip-path="url(#clip890)" d="M44.7161 824.714 L47.5806 824.714 L47.5806 851.641 Q53.6281 851.259 56.8109 848.012 Q59.9619 844.734 59.9619 838.909 Q59.9619 835.536 59.1344 832.384 Q58.3069 829.202 56.6518 826.082 L62.1899 826.082 Q63.5267 829.233 64.227 832.544 Q64.9272 835.854 64.9272 839.259 Q64.9272 847.789 59.9619 852.787 Q54.9967 857.752 46.5303 857.752 Q37.7774 857.752 32.6531 853.041 Q27.4968 848.299 27.4968 840.278 Q27.4968 833.085 32.1438 828.915 Q36.7589 824.714 44.7161 824.714 M42.9973 830.57 Q38.1912 830.634 35.3266 833.276 Q32.4621 835.886 32.4621 840.214 Q32.4621 845.116 35.2312 848.076 Q38.0002 851.004 43.0292 851.45 L42.9973 830.57 Z" fill="#000000" fill-rule="nonzero" fill-opacity="1" /><path clip-path="url(#clip890)" d="M46.0847 798.901 Q46.0847 805.999 47.7079 808.736 Q49.3312 811.473 53.2461 811.473 Q56.3653 811.473 58.2114 809.436 Q60.0256 807.367 60.0256 803.834 Q60.0256 798.965 56.5881 796.036 Q53.1188 793.076 47.3897 793.076 L46.0847 793.076 L46.0847 798.901 M43.6657 787.22 L64.0042 787.22 L64.0042 793.076 L58.5933 793.076 Q61.8398 795.081 63.3994 798.073 Q64.9272 801.065 64.9272 805.394 Q64.9272 810.868 61.8716 814.115 Q58.7843 817.33 53.6281 817.33 Q47.6125 817.33 44.5569 813.319 Q41.5014 809.277 41.5014 801.288 L41.5014 793.076 L40.9285 793.076 Q36.8862 793.076 34.6901 795.75 Q32.4621 798.392 32.4621 803.198 Q32.4621 806.253 33.1941 809.15 Q33.9262 812.046 35.3903 814.72 L29.9795 814.72 Q28.7381 811.505 28.1334 808.481 Q27.4968 805.458 27.4968 802.593 Q27.4968 794.859 31.5072 791.039 Q35.5176 787.22 43.6657 787.22 Z" fill="#000000" fill-rule="nonzero" fill-opacity="1" /><path clip-path="url(#clip890)" d="M18.2347 769.364 L28.3562 769.364 L28.3562 757.301 L32.9077 757.301 L32.9077 769.364 L52.2594 769.364 Q56.6199 769.364 57.8613 768.186 Q59.1026 766.977 59.1026 763.317 L59.1026 757.301 L64.0042 757.301 L64.0042 763.317 Q64.0042 770.096 61.4897 772.674 Q58.9434 775.252 52.2594 775.252 L32.9077 775.252 L32.9077 779.549 L28.3562 779.549 L28.3562 775.252 L18.2347 775.252 L18.2347 769.364 Z" fill="#000000" fill-rule="nonzero" fill-opacity="1" /><path clip-path="url(#clip890)" d="M28.3562 749.598 L28.3562 743.742 L64.0042 743.742 L64.0042 749.598 L28.3562 749.598 M14.479 749.598 L14.479 743.742 L21.895 743.742 L21.895 749.598 L14.479 749.598 Z" fill="#000000" fill-rule="nonzero" fill-opacity="1" /><path clip-path="url(#clip890)" d="M32.4621 717.674 Q32.4621 722.385 36.1542 725.122 Q39.8145 727.86 46.212 727.86 Q52.6095 727.86 56.3017 725.154 Q59.9619 722.417 59.9619 717.674 Q59.9619 712.996 56.2698 710.258 Q52.5777 707.521 46.212 707.521 Q39.8781 707.521 36.186 710.258 Q32.4621 712.996 32.4621 717.674 M27.4968 717.674 Q27.4968 710.036 32.4621 705.675 Q37.4273 701.315 46.212 701.315 Q54.9649 701.315 59.9619 705.675 Q64.9272 710.036 64.9272 717.674 Q64.9272 725.345 59.9619 729.706 Q54.9649 734.034 46.212 734.034 Q37.4273 734.034 32.4621 729.706 Q27.4968 725.345 27.4968 717.674 Z" fill="#000000" fill-rule="nonzero" fill-opacity="1" /><path clip-path="url(#clip890)" d="M42.4881 661.975 L64.0042 661.975 L64.0042 667.831 L42.679 667.831 Q37.6183 667.831 35.1038 669.804 Q32.5894 671.778 32.5894 675.724 Q32.5894 680.467 35.6131 683.204 Q38.6368 685.941 43.8567 685.941 L64.0042 685.941 L64.0042 691.83 L28.3562 691.83 L28.3562 685.941 L33.8944 685.941 Q30.6797 683.841 29.0883 681.008 Q27.4968 678.143 27.4968 674.419 Q27.4968 668.277 31.3163 665.126 Q35.1038 661.975 42.4881 661.975 Z" fill="#000000" fill-rule="nonzero" fill-opacity="1" /><path clip-path="url(#clip890)" d="M41.7242 606.784 Q42.4244 604.715 44.7161 602.773 Q47.0077 600.8 51.0181 598.827 L64.0042 592.302 L64.0042 599.209 L51.8138 605.288 Q47.0395 607.643 45.48 609.871 Q43.9204 612.067 43.9204 615.887 L43.9204 622.889 L64.0042 622.889 L64.0042 629.318 L16.4842 629.318 L16.4842 614.805 Q16.4842 606.657 19.8898 602.646 Q23.2955 598.636 30.1704 598.636 Q34.6582 598.636 37.6183 600.736 Q40.5784 602.805 41.7242 606.784 M21.7677 622.889 L38.6368 622.889 L38.6368 614.805 Q38.6368 610.158 36.5043 607.802 Q34.34 605.415 30.1704 605.415 Q26.0009 605.415 23.9002 607.802 Q21.7677 610.158 21.7677 614.805 L21.7677 622.889 Z" fill="#000000" fill-rule="nonzero" fill-opacity="1" /><path clip-path="url(#clip890)" d="M46.0847 569.513 Q46.0847 576.61 47.7079 579.348 Q49.3312 582.085 53.2461 582.085 Q56.3653 582.085 58.2114 580.048 Q60.0256 577.979 60.0256 574.446 Q60.0256 569.576 56.5881 566.648 Q53.1188 563.688 47.3897 563.688 L46.0847 563.688 L46.0847 569.513 M43.6657 557.832 L64.0042 557.832 L64.0042 563.688 L58.5933 563.688 Q61.8398 565.693 63.3994 568.685 Q64.9272 571.677 64.9272 576.006 Q64.9272 581.48 61.8716 584.727 Q58.7843 587.941 53.6281 587.941 Q47.6125 587.941 44.5569 583.931 Q41.5014 579.889 41.5014 571.9 L41.5014 563.688 L40.9285 563.688 Q36.8862 563.688 34.6901 566.362 Q32.4621 569.003 32.4621 573.809 Q32.4621 576.865 33.1941 579.761 Q33.9262 582.658 35.3903 585.331 L29.9795 585.331 Q28.7381 582.117 28.1334 579.093 Q27.4968 576.069 27.4968 573.205 Q27.4968 565.47 31.5072 561.651 Q35.5176 557.832 43.6657 557.832 Z" fill="#000000" fill-rule="nonzero" fill-opacity="1" /><path clip-path="url(#clip890)" d="M18.2347 539.976 L28.3562 539.976 L28.3562 527.913 L32.9077 527.913 L32.9077 539.976 L52.2594 539.976 Q56.6199 539.976 57.8613 538.798 Q59.1026 537.589 59.1026 533.928 L59.1026 527.913 L64.0042 527.913 L64.0042 533.928 Q64.0042 540.708 61.4897 543.286 Q58.9434 545.864 52.2594 545.864 L32.9077 545.864 L32.9077 550.161 L28.3562 550.161 L28.3562 545.864 L18.2347 545.864 L18.2347 539.976 Z" fill="#000000" fill-rule="nonzero" fill-opacity="1" /><path clip-path="url(#clip890)" d="M44.7161 489.718 L47.5806 489.718 L47.5806 516.645 Q53.6281 516.263 56.8109 513.017 Q59.9619 509.739 59.9619 503.914 Q59.9619 500.54 59.1344 497.389 Q58.3069 494.206 56.6518 491.087 L62.1899 491.087 Q63.5267 494.238 64.227 497.548 Q64.9272 500.858 64.9272 504.264 Q64.9272 512.794 59.9619 517.791 Q54.9967 522.757 46.5303 522.757 Q37.7774 522.757 32.6531 518.046 Q27.4968 513.303 27.4968 505.283 Q27.4968 498.089 32.1438 493.92 Q36.7589 489.718 44.7161 489.718 M42.9973 495.575 Q38.1912 495.639 35.3266 498.28 Q32.4621 500.89 32.4621 505.219 Q32.4621 510.121 35.2312 513.081 Q38.0002 516.009 43.0292 516.454 L42.9973 495.575 Z" fill="#000000" fill-rule="nonzero" fill-opacity="1" /><path clip-path="url(#clip890)" d="M41.7242 436.597 Q42.4244 434.528 44.7161 432.586 Q47.0077 430.613 51.0181 428.64 L64.0042 422.115 L64.0042 429.021 L51.8138 435.101 Q47.0395 437.456 45.48 439.684 Q43.9204 441.88 43.9204 445.7 L43.9204 452.702 L64.0042 452.702 L64.0042 459.131 L16.4842 459.131 L16.4842 444.617 Q16.4842 436.469 19.8898 432.459 Q23.2955 428.449 30.1704 428.449 Q34.6582 428.449 37.6183 430.549 Q40.5784 432.618 41.7242 436.597 M21.7677 452.702 L38.6368 452.702 L38.6368 444.617 Q38.6368 439.97 36.5043 437.615 Q34.34 435.228 30.1704 435.228 Q26.0009 435.228 23.9002 437.615 Q21.7677 439.97 21.7677 444.617 L21.7677 452.702 Z" fill="#000000" fill-rule="nonzero" fill-opacity="1" /><path clip-path="url(#clip890)" d="M44.7161 386.53 L47.5806 386.53 L47.5806 413.457 Q53.6281 413.075 56.8109 409.829 Q59.9619 406.551 59.9619 400.726 Q59.9619 397.352 59.1344 394.201 Q58.3069 391.018 56.6518 387.899 L62.1899 387.899 Q63.5267 391.05 64.227 394.36 Q64.9272 397.67 64.9272 401.076 Q64.9272 409.606 59.9619 414.603 Q54.9967 419.568 46.5303 419.568 Q37.7774 419.568 32.6531 414.858 Q27.4968 410.115 27.4968 402.095 Q27.4968 394.901 32.1438 390.732 Q36.7589 386.53 44.7161 386.53 M42.9973 392.387 Q38.1912 392.45 35.3266 395.092 Q32.4621 397.702 32.4621 402.031 Q32.4621 406.932 35.2312 409.893 Q38.0002 412.821 43.0292 413.266 L42.9973 392.387 Z" fill="#000000" fill-rule="nonzero" fill-opacity="1" /><path clip-path="url(#clip890)" d="M33.7671 353.461 L14.479 353.461 L14.479 347.604 L64.0042 347.604 L64.0042 353.461 L58.657 353.461 Q61.8398 355.307 63.3994 358.139 Q64.9272 360.94 64.9272 364.887 Q64.9272 371.348 59.771 375.422 Q54.6147 379.464 46.212 379.464 Q37.8093 379.464 32.6531 375.422 Q27.4968 371.348 27.4968 364.887 Q27.4968 360.94 29.0564 358.139 Q30.5842 355.307 33.7671 353.461 M46.212 373.417 Q52.6732 373.417 56.3653 370.775 Q60.0256 368.102 60.0256 363.455 Q60.0256 358.808 56.3653 356.134 Q52.6732 353.461 46.212 353.461 Q39.7508 353.461 36.0905 356.134 Q32.3984 358.808 32.3984 363.455 Q32.3984 368.102 36.0905 370.775 Q39.7508 373.417 46.212 373.417 Z" fill="#000000" fill-rule="nonzero" fill-opacity="1" /><path clip-path="url(#clip890)" d="M49.9359 336.146 L28.3562 336.146 L28.3562 330.289 L49.7131 330.289 Q54.7739 330.289 57.3202 328.316 Q59.8346 326.343 59.8346 322.396 Q59.8346 317.653 56.8109 314.916 Q53.7872 312.147 48.5673 312.147 L28.3562 312.147 L28.3562 306.291 L64.0042 306.291 L64.0042 312.147 L58.5296 312.147 Q61.7762 314.28 63.3676 317.112 Q64.9272 319.913 64.9272 323.637 Q64.9272 329.78 61.1078 332.963 Q57.2883 336.146 49.9359 336.146 M27.4968 321.409 L27.4968 321.409 Z" fill="#000000" fill-rule="nonzero" fill-opacity="1" /><path clip-path="url(#clip890)" d="M29.7248 268.574 L35.1993 268.574 Q33.8307 271.056 33.1623 273.571 Q32.4621 276.054 32.4621 278.6 Q32.4621 284.297 36.0905 287.448 Q39.6872 290.599 46.212 290.599 Q52.7369 290.599 56.3653 287.448 Q59.9619 284.297 59.9619 278.6 Q59.9619 276.054 59.2935 273.571 Q58.5933 271.056 57.2247 268.574 L62.6355 268.574 Q63.7814 271.025 64.3543 273.666 Q64.9272 276.276 64.9272 279.236 Q64.9272 287.289 59.8664 292.031 Q54.8057 296.774 46.212 296.774 Q37.491 296.774 32.4939 292 Q27.4968 287.194 27.4968 278.854 Q27.4968 276.149 28.0697 273.571 Q28.6108 270.993 29.7248 268.574 Z" fill="#000000" fill-rule="nonzero" fill-opacity="1" /><path clip-path="url(#clip890)" d="M18.2347 252.596 L28.3562 252.596 L28.3562 240.533 L32.9077 240.533 L32.9077 252.596 L52.2594 252.596 Q56.6199 252.596 57.8613 251.418 Q59.1026 250.209 59.1026 246.548 L59.1026 240.533 L64.0042 240.533 L64.0042 246.548 Q64.0042 253.328 61.4897 255.906 Q58.9434 258.484 52.2594 258.484 L32.9077 258.484 L32.9077 262.781 L28.3562 262.781 L28.3562 258.484 L18.2347 258.484 L18.2347 252.596 Z" fill="#000000" fill-rule="nonzero" fill-opacity="1" /><path clip-path="url(#clip890)" d="M28.3562 232.83 L28.3562 226.974 L64.0042 226.974 L64.0042 232.83 L28.3562 232.83 M14.479 232.83 L14.479 226.974 L21.895 226.974 L21.895 232.83 L14.479 232.83 Z" fill="#000000" fill-rule="nonzero" fill-opacity="1" /><path clip-path="url(#clip890)" d="M32.4621 200.906 Q32.4621 205.617 36.1542 208.354 Q39.8145 211.092 46.212 211.092 Q52.6095 211.092 56.3017 208.386 Q59.9619 205.649 59.9619 200.906 Q59.9619 196.228 56.2698 193.49 Q52.5777 190.753 46.212 190.753 Q39.8781 190.753 36.186 193.49 Q32.4621 196.228 32.4621 200.906 M27.4968 200.906 Q27.4968 193.268 32.4621 188.907 Q37.4273 184.547 46.212 184.547 Q54.9649 184.547 59.9619 188.907 Q64.9272 193.268 64.9272 200.906 Q64.9272 208.577 59.9619 212.938 Q54.9649 217.266 46.212 217.266 Q37.4273 217.266 32.4621 212.938 Q27.4968 208.577 27.4968 200.906 Z" fill="#000000" fill-rule="nonzero" fill-opacity="1" /><path clip-path="url(#clip890)" d="M42.4881 145.206 L64.0042 145.206 L64.0042 151.063 L42.679 151.063 Q37.6183 151.063 35.1038 153.036 Q32.5894 155.01 32.5894 158.956 Q32.5894 163.699 35.6131 166.436 Q38.6368 169.173 43.8567 169.173 L64.0042 169.173 L64.0042 175.062 L28.3562 175.062 L28.3562 169.173 L33.8944 169.173 Q30.6797 167.073 29.0883 164.24 Q27.4968 161.375 27.4968 157.651 Q27.4968 151.508 31.3163 148.357 Q35.1038 145.206 42.4881 145.206 Z" fill="#000000" fill-rule="nonzero" fill-opacity="1" /><polyline clip-path="url(#clip892)" style="stroke:#009af9; stroke-linecap:round; stroke-linejoin:round; stroke-width:4; stroke-opacity:1; fill:none" points="309.067,86.1857 339.13,115.889 369.193,150.91 399.256,190.527 429.319,234.088 459.382,280.978 489.446,330.596 519.509,382.359 549.572,435.702 579.635,490.074 609.698,544.955 639.761,599.85 669.824,654.299 699.887,707.881 729.95,760.218 760.013,810.974 790.076,859.862 820.14,906.64 850.203,951.115 880.266,993.137 910.329,1032.6 940.392,1069.45 970.455,1103.65 1000.52,1135.21 1030.58,1164.18 1060.64,1190.62 1090.71,1214.62 1120.77,1236.29 1150.83,1255.75 1180.9,1273.14 1210.96,1288.59 1241.02,1302.25 1271.09,1314.26 1301.15,1324.78 1331.21,1333.94 1361.28,1341.87 1391.34,1348.71 1421.4,1354.57 1451.46,1359.58 1481.53,1363.83 1511.59,1367.42 1541.65,1370.45 1571.72,1372.97 1601.78,1375.08 1631.84,1376.83 1661.91,1378.27 1691.97,1379.45 1722.03,1380.42 1752.1,1381.2 1782.16,1381.84 1812.22,1382.35 1842.28,1382.76 1872.35,1383.09 1902.41,1383.35 1932.47,1383.55 1962.54,1383.72 1992.6,1383.84 2022.66,1383.94 2052.73,1384.02 2082.79,1384.08 2112.85,1384.12 2142.92,1384.16 2172.98,1384.18 2203.04,1384.2 2233.1,1384.22 2263.17,1384.23 2293.23,1384.24 "/>
</svg>
