<?xml version="1.0" encoding="utf-8"?>
<svg xmlns="http://www.w3.org/2000/svg" xmlns:xlink="http://www.w3.org/1999/xlink" width="600" height="400" viewBox="0 0 2400 1600">
<defs>
  <clipPath id="clip320">
    <rect x="0" y="0" width="2400" height="1600"/>
  </clipPath>
</defs>
<path clip-path="url(#clip320)" d="M0 1600 L2400 1600 L2400 0 L0 0  Z" fill="#ffffff" fill-rule="evenodd" fill-opacity="1"/>
<defs>
  <clipPath id="clip321">
    <rect x="480" y="0" width="1681" height="1600"/>
  </clipPath>
</defs>
<path clip-path="url(#clip320)" d="M340.028 1423.18 L2352.76 1423.18 L2352.76 47.2441 L340.028 47.2441  Z" fill="#ffffff" fill-rule="evenodd" fill-opacity="1"/>
<defs>
  <clipPath id="clip322">
    <rect x="340" y="47" width="2014" height="1377"/>
  </clipPath>
</defs>
<polyline clip-path="url(#clip322)" style="stroke:#000000; stroke-linecap:round; stroke-linejoin:round; stroke-width:2; stroke-opacity:0.1; fill:none" points="396.988,1423.18 396.988,47.2441 "/>
<polyline clip-path="url(#clip322)" style="stroke:#000000; stroke-linecap:round; stroke-linejoin:round; stroke-width:2; stroke-opacity:0.1; fill:none" points="776.749,1423.18 776.749,47.2441 "/>
<polyline clip-path="url(#clip322)" style="stroke:#000000; stroke-linecap:round; stroke-linejoin:round; stroke-width:2; stroke-opacity:0.1; fill:none" points="1156.51,1423.18 1156.51,47.2441 "/>
<polyline clip-path="url(#clip322)" style="stroke:#000000; stroke-linecap:round; stroke-linejoin:round; stroke-width:2; stroke-opacity:0.1; fill:none" points="1536.27,1423.18 1536.27,47.2441 "/>
<polyline clip-path="url(#clip322)" style="stroke:#000000; stroke-linecap:round; stroke-linejoin:round; stroke-width:2; stroke-opacity:0.1; fill:none" points="1916.03,1423.18 1916.03,47.2441 "/>
<polyline clip-path="url(#clip322)" style="stroke:#000000; stroke-linecap:round; stroke-linejoin:round; stroke-width:2; stroke-opacity:0.1; fill:none" points="2295.79,1423.18 2295.79,47.2441 "/>
<polyline clip-path="url(#clip320)" style="stroke:#000000; stroke-linecap:round; stroke-linejoin:round; stroke-width:4; stroke-opacity:1; fill:none" points="340.028,1423.18 2352.76,1423.18 "/>
<polyline clip-path="url(#clip320)" style="stroke:#000000; stroke-linecap:round; stroke-linejoin:round; stroke-width:4; stroke-opacity:1; fill:none" points="396.988,1423.18 396.988,1404.28 "/>
<polyline clip-path="url(#clip320)" style="stroke:#000000; stroke-linecap:round; stroke-linejoin:round; stroke-width:4; stroke-opacity:1; fill:none" points="776.749,1423.18 776.749,1404.28 "/>
<polyline clip-path="url(#clip320)" style="stroke:#000000; stroke-linecap:round; stroke-linejoin:round; stroke-width:4; stroke-opacity:1; fill:none" points="1156.51,1423.18 1156.51,1404.28 "/>
<polyline clip-path="url(#clip320)" style="stroke:#000000; stroke-linecap:round; stroke-linejoin:round; stroke-width:4; stroke-opacity:1; fill:none" points="1536.27,1423.18 1536.27,1404.28 "/>
<polyline clip-path="url(#clip320)" style="stroke:#000000; stroke-linecap:round; stroke-linejoin:round; stroke-width:4; stroke-opacity:1; fill:none" points="1916.03,1423.18 1916.03,1404.28 "/>
<polyline clip-path="url(#clip320)" style="stroke:#000000; stroke-linecap:round; stroke-linejoin:round; stroke-width:4; stroke-opacity:1; fill:none" points="2295.79,1423.18 2295.79,1404.28 "/>
<path clip-path="url(#clip320)" d="M396.988 1454.1 Q393.377 1454.1 391.548 1457.66 Q389.743 1461.2 389.743 1468.33 Q389.743 1475.44 391.548 1479.01 Q393.377 1482.55 396.988 1482.55 Q400.622 1482.55 402.428 1479.01 Q404.256 1475.44 404.256 1468.33 Q404.256 1461.2 402.428 1457.66 Q400.622 1454.1 396.988 1454.1 M396.988 1450.39 Q402.798 1450.39 405.854 1455 Q408.932 1459.58 408.932 1468.33 Q408.932 1477.06 405.854 1481.67 Q402.798 1486.25 396.988 1486.25 Q391.178 1486.25 388.099 1481.67 Q385.043 1477.06 385.043 1468.33 Q385.043 1459.58 388.099 1455 Q391.178 1450.39 396.988 1450.39 Z" fill="#000000" fill-rule="nonzero" fill-opacity="1" /><path clip-path="url(#clip320)" d="M767.131 1481.64 L774.77 1481.64 L774.77 1455.28 L766.459 1456.95 L766.459 1452.69 L774.723 1451.02 L779.399 1451.02 L779.399 1481.64 L787.038 1481.64 L787.038 1485.58 L767.131 1485.58 L767.131 1481.64 Z" fill="#000000" fill-rule="nonzero" fill-opacity="1" /><path clip-path="url(#clip320)" d="M1151.16 1481.64 L1167.48 1481.64 L1167.48 1485.58 L1145.54 1485.58 L1145.54 1481.64 Q1148.2 1478.89 1152.78 1474.26 Q1157.39 1469.61 1158.57 1468.27 Q1160.82 1465.74 1161.69 1464.01 Q1162.6 1462.25 1162.6 1460.56 Q1162.6 1457.8 1160.65 1456.07 Q1158.73 1454.33 1155.63 1454.33 Q1153.43 1454.33 1150.98 1455.09 Q1148.55 1455.86 1145.77 1457.41 L1145.77 1452.69 Q1148.59 1451.55 1151.05 1450.97 Q1153.5 1450.39 1155.54 1450.39 Q1160.91 1450.39 1164.1 1453.08 Q1167.3 1455.77 1167.3 1460.26 Q1167.3 1462.39 1166.49 1464.31 Q1165.7 1466.2 1163.59 1468.8 Q1163.01 1469.47 1159.91 1472.69 Q1156.81 1475.88 1151.16 1481.64 Z" fill="#000000" fill-rule="nonzero" fill-opacity="1" /><path clip-path="url(#clip320)" d="M1540.52 1466.95 Q1543.87 1467.66 1545.75 1469.93 Q1547.65 1472.2 1547.65 1475.53 Q1547.65 1480.65 1544.13 1483.45 Q1540.61 1486.25 1534.13 1486.25 Q1531.95 1486.25 1529.64 1485.81 Q1527.35 1485.39 1524.89 1484.54 L1524.89 1480.02 Q1526.84 1481.16 1529.15 1481.74 Q1531.47 1482.32 1533.99 1482.32 Q1538.39 1482.32 1540.68 1480.58 Q1542.99 1478.84 1542.99 1475.53 Q1542.99 1472.48 1540.84 1470.77 Q1538.71 1469.03 1534.89 1469.03 L1530.87 1469.03 L1530.87 1465.19 L1535.08 1465.19 Q1538.53 1465.19 1540.36 1463.82 Q1542.18 1462.43 1542.18 1459.84 Q1542.18 1457.18 1540.29 1455.77 Q1538.41 1454.33 1534.89 1454.33 Q1532.97 1454.33 1530.77 1454.75 Q1528.57 1455.16 1525.93 1456.04 L1525.93 1451.88 Q1528.6 1451.14 1530.91 1450.77 Q1533.25 1450.39 1535.31 1450.39 Q1540.63 1450.39 1543.74 1452.83 Q1546.84 1455.23 1546.84 1459.35 Q1546.84 1462.22 1545.19 1464.21 Q1543.55 1466.18 1540.52 1466.95 Z" fill="#000000" fill-rule="nonzero" fill-opacity="1" /><path clip-path="url(#clip320)" d="M1919.04 1455.09 L1907.23 1473.54 L1919.04 1473.54 L1919.04 1455.09 M1917.81 1451.02 L1923.69 1451.02 L1923.69 1473.54 L1928.62 1473.54 L1928.62 1477.43 L1923.69 1477.43 L1923.69 1485.58 L1919.04 1485.58 L1919.04 1477.43 L1903.44 1477.43 L1903.44 1472.92 L1917.81 1451.02 Z" fill="#000000" fill-rule="nonzero" fill-opacity="1" /><path clip-path="url(#clip320)" d="M2286.07 1451.02 L2304.43 1451.02 L2304.43 1454.96 L2290.35 1454.96 L2290.35 1463.43 Q2291.37 1463.08 2292.39 1462.92 Q2293.41 1462.73 2294.43 1462.73 Q2300.21 1462.73 2303.59 1465.9 Q2306.97 1469.08 2306.97 1474.49 Q2306.97 1480.07 2303.5 1483.17 Q2300.03 1486.25 2293.71 1486.25 Q2291.53 1486.25 2289.26 1485.88 Q2287.02 1485.51 2284.61 1484.77 L2284.61 1480.07 Q2286.69 1481.2 2288.92 1481.76 Q2291.14 1482.32 2293.62 1482.32 Q2297.62 1482.32 2299.96 1480.21 Q2302.3 1478.1 2302.3 1474.49 Q2302.3 1470.88 2299.96 1468.77 Q2297.62 1466.67 2293.62 1466.67 Q2291.74 1466.67 2289.87 1467.08 Q2288.01 1467.5 2286.07 1468.38 L2286.07 1451.02 Z" fill="#000000" fill-rule="nonzero" fill-opacity="1" /><path clip-path="url(#clip320)" d="M1128.8 1550.25 Q1128.8 1556.71 1131.44 1560.4 Q1134.11 1564.07 1138.76 1564.07 Q1143.41 1564.07 1146.08 1560.4 Q1148.75 1556.71 1148.75 1550.25 Q1148.75 1543.79 1146.08 1540.13 Q1143.41 1536.44 1138.76 1536.44 Q1134.11 1536.44 1131.44 1540.13 Q1128.8 1543.79 1128.8 1550.25 M1148.75 1562.7 Q1146.91 1565.88 1144.07 1567.44 Q1141.27 1568.97 1137.33 1568.97 Q1130.86 1568.97 1126.79 1563.81 Q1122.75 1558.65 1122.75 1550.25 Q1122.75 1541.85 1126.79 1536.69 Q1130.86 1531.54 1137.33 1531.54 Q1141.27 1531.54 1144.07 1533.1 Q1146.91 1534.62 1148.75 1537.81 L1148.75 1532.4 L1154.61 1532.4 L1154.61 1581.6 L1148.75 1581.6 L1148.75 1562.7 Z" fill="#000000" fill-rule="nonzero" fill-opacity="1" /><path clip-path="url(#clip320)" d="M1193.76 1578.87 L1193.76 1583.42 L1159.89 1583.42 L1159.89 1578.87 L1193.76 1578.87 Z" fill="#000000" fill-rule="nonzero" fill-opacity="1" /><path clip-path="url(#clip320)" d="M1221.99 1533.45 L1221.99 1538.98 Q1219.51 1537.71 1216.83 1537.07 Q1214.16 1536.44 1211.3 1536.44 Q1206.94 1536.44 1204.74 1537.77 Q1202.57 1539.11 1202.57 1541.79 Q1202.57 1543.82 1204.13 1545 Q1205.69 1546.15 1210.4 1547.2 L1212.41 1547.64 Q1218.65 1548.98 1221.26 1551.43 Q1223.9 1553.85 1223.9 1558.21 Q1223.9 1563.17 1219.95 1566.07 Q1216.04 1568.97 1209.16 1568.97 Q1206.3 1568.97 1203.18 1568.39 Q1200.09 1567.85 1196.65 1566.74 L1196.65 1560.69 Q1199.9 1562.38 1203.05 1563.24 Q1206.2 1564.07 1209.29 1564.07 Q1213.43 1564.07 1215.66 1562.66 Q1217.88 1561.23 1217.88 1558.65 Q1217.88 1556.27 1216.26 1554.99 Q1214.67 1553.72 1209.23 1552.54 L1207.19 1552.07 Q1201.75 1550.92 1199.33 1548.56 Q1196.91 1546.18 1196.91 1542.04 Q1196.91 1537.01 1200.47 1534.27 Q1204.04 1531.54 1210.6 1531.54 Q1213.84 1531.54 1216.71 1532.01 Q1219.57 1532.49 1221.99 1533.45 Z" fill="#000000" fill-rule="nonzero" fill-opacity="1" /><path clip-path="url(#clip320)" d="M1262.86 1546.53 L1262.86 1568.04 L1257 1568.04 L1257 1546.72 Q1257 1541.66 1255.03 1539.14 Q1253.05 1536.63 1249.11 1536.63 Q1244.37 1536.63 1241.63 1539.65 Q1238.89 1542.68 1238.89 1547.9 L1238.89 1568.04 L1233 1568.04 L1233 1532.4 L1238.89 1532.4 L1238.89 1537.93 Q1240.99 1534.72 1243.82 1533.13 Q1246.69 1531.54 1250.41 1531.54 Q1256.56 1531.54 1259.71 1535.36 Q1262.86 1539.14 1262.86 1546.53 Z" fill="#000000" fill-rule="nonzero" fill-opacity="1" /><path clip-path="url(#clip320)" d="M1288.35 1536.5 Q1283.64 1536.5 1280.9 1540.19 Q1278.17 1543.85 1278.17 1550.25 Q1278.17 1556.65 1280.87 1560.34 Q1283.61 1564 1288.35 1564 Q1293.03 1564 1295.77 1560.31 Q1298.51 1556.62 1298.51 1550.25 Q1298.51 1543.92 1295.77 1540.23 Q1293.03 1536.5 1288.35 1536.5 M1288.35 1531.54 Q1295.99 1531.54 1300.35 1536.5 Q1304.71 1541.47 1304.71 1550.25 Q1304.71 1559 1300.35 1564 Q1295.99 1568.97 1288.35 1568.97 Q1280.68 1568.97 1276.32 1564 Q1271.99 1559 1271.99 1550.25 Q1271.99 1541.47 1276.32 1536.5 Q1280.68 1531.54 1288.35 1531.54 Z" fill="#000000" fill-rule="nonzero" fill-opacity="1" /><path clip-path="url(#clip320)" d="M1311.01 1532.4 L1316.87 1532.4 L1324.19 1560.21 L1331.48 1532.4 L1338.39 1532.4 L1345.71 1560.21 L1353 1532.4 L1358.85 1532.4 L1349.53 1568.04 L1342.62 1568.04 L1334.95 1538.83 L1327.25 1568.04 L1320.34 1568.04 L1311.01 1532.4 Z" fill="#000000" fill-rule="nonzero" fill-opacity="1" /><path clip-path="url(#clip320)" d="M1387.91 1518.52 L1401.41 1518.52 L1401.41 1523.07 L1393.77 1523.07 L1393.77 1572.09 L1401.41 1572.09 L1401.41 1576.64 L1387.91 1576.64 L1387.91 1518.52 Z" fill="#000000" fill-rule="nonzero" fill-opacity="1" /><path clip-path="url(#clip320)" d="M1437.34 1549.81 Q1437.34 1543.44 1434.7 1539.94 Q1432.09 1536.44 1427.35 1536.44 Q1422.64 1536.44 1420 1539.94 Q1417.39 1543.44 1417.39 1549.81 Q1417.39 1556.14 1420 1559.64 Q1422.64 1563.14 1427.35 1563.14 Q1432.09 1563.14 1434.7 1559.64 Q1437.34 1556.14 1437.34 1549.81 M1443.2 1563.62 Q1443.2 1572.72 1439.16 1577.15 Q1435.11 1581.6 1426.77 1581.6 Q1423.69 1581.6 1420.95 1581.13 Q1418.21 1580.68 1415.63 1579.72 L1415.63 1574.03 Q1418.21 1575.43 1420.73 1576.1 Q1423.24 1576.76 1425.85 1576.76 Q1431.61 1576.76 1434.48 1573.74 Q1437.34 1570.75 1437.34 1564.67 L1437.34 1561.77 Q1435.53 1564.92 1432.69 1566.48 Q1429.86 1568.04 1425.92 1568.04 Q1419.36 1568.04 1415.35 1563.05 Q1411.34 1558.05 1411.34 1549.81 Q1411.34 1541.53 1415.35 1536.53 Q1419.36 1531.54 1425.92 1531.54 Q1429.86 1531.54 1432.69 1533.1 Q1435.53 1534.66 1437.34 1537.81 L1437.34 1532.4 L1443.2 1532.4 L1443.2 1563.62 Z" fill="#000000" fill-rule="nonzero" fill-opacity="1" /><path clip-path="url(#clip320)" d="M1465.67 1520.52 L1471.08 1520.52 L1454.53 1574.09 L1449.12 1574.09 L1465.67 1520.52 Z" fill="#000000" fill-rule="nonzero" fill-opacity="1" /><path clip-path="url(#clip320)" d="M1477 1518.52 L1482.89 1518.52 L1482.89 1547.77 L1500.36 1532.4 L1507.84 1532.4 L1488.94 1549.07 L1508.64 1568.04 L1501 1568.04 L1482.89 1550.63 L1482.89 1568.04 L1477 1568.04 L1477 1518.52 Z" fill="#000000" fill-rule="nonzero" fill-opacity="1" /><path clip-path="url(#clip320)" d="M1538.43 1549.81 Q1538.43 1543.44 1535.79 1539.94 Q1533.18 1536.44 1528.44 1536.44 Q1523.72 1536.44 1521.08 1539.94 Q1518.47 1543.44 1518.47 1549.81 Q1518.47 1556.14 1521.08 1559.64 Q1523.72 1563.14 1528.44 1563.14 Q1533.18 1563.14 1535.79 1559.64 Q1538.43 1556.14 1538.43 1549.81 M1544.29 1563.62 Q1544.29 1572.72 1540.24 1577.15 Q1536.2 1581.6 1527.86 1581.6 Q1524.77 1581.6 1522.04 1581.13 Q1519.3 1580.68 1516.72 1579.72 L1516.72 1574.03 Q1519.3 1575.43 1521.81 1576.1 Q1524.33 1576.76 1526.94 1576.76 Q1532.7 1576.76 1535.56 1573.74 Q1538.43 1570.75 1538.43 1564.67 L1538.43 1561.77 Q1536.62 1564.92 1533.78 1566.48 Q1530.95 1568.04 1527 1568.04 Q1520.45 1568.04 1516.44 1563.05 Q1512.43 1558.05 1512.43 1549.81 Q1512.43 1541.53 1516.44 1536.53 Q1520.45 1531.54 1527 1531.54 Q1530.95 1531.54 1533.78 1533.1 Q1536.62 1534.66 1538.43 1537.81 L1538.43 1532.4 L1544.29 1532.4 L1544.29 1563.62 Z" fill="#000000" fill-rule="nonzero" fill-opacity="1" /><path clip-path="url(#clip320)" d="M1570.03 1518.52 L1570.03 1576.64 L1556.54 1576.64 L1556.54 1572.09 L1564.15 1572.09 L1564.15 1523.07 L1556.54 1523.07 L1556.54 1518.52 L1570.03 1518.52 Z" fill="#000000" fill-rule="nonzero" fill-opacity="1" /><polyline clip-path="url(#clip322)" style="stroke:#000000; stroke-linecap:round; stroke-linejoin:round; stroke-width:2; stroke-opacity:0.1; fill:none" points="340.028,1384.24 2352.76,1384.24 "/>
<polyline clip-path="url(#clip322)" style="stroke:#000000; stroke-linecap:round; stroke-linejoin:round; stroke-width:2; stroke-opacity:0.1; fill:none" points="340.028,976.086 2352.76,976.086 "/>
<polyline clip-path="url(#clip322)" style="stroke:#000000; stroke-linecap:round; stroke-linejoin:round; stroke-width:2; stroke-opacity:0.1; fill:none" points="340.028,567.933 2352.76,567.933 "/>
<polyline clip-path="url(#clip322)" style="stroke:#000000; stroke-linecap:round; stroke-linejoin:round; stroke-width:2; stroke-opacity:0.1; fill:none" points="340.028,159.781 2352.76,159.781 "/>
<polyline clip-path="url(#clip320)" style="stroke:#000000; stroke-linecap:round; stroke-linejoin:round; stroke-width:4; stroke-opacity:1; fill:none" points="340.028,1423.18 340.028,47.2441 "/>
<polyline clip-path="url(#clip320)" style="stroke:#000000; stroke-linecap:round; stroke-linejoin:round; stroke-width:4; stroke-opacity:1; fill:none" points="340.028,1384.24 358.925,1384.24 "/>
<polyline clip-path="url(#clip320)" style="stroke:#000000; stroke-linecap:round; stroke-linejoin:round; stroke-width:4; stroke-opacity:1; fill:none" points="340.028,976.086 358.925,976.086 "/>
<polyline clip-path="url(#clip320)" style="stroke:#000000; stroke-linecap:round; stroke-linejoin:round; stroke-width:4; stroke-opacity:1; fill:none" points="340.028,567.933 358.925,567.933 "/>
<polyline clip-path="url(#clip320)" style="stroke:#000000; stroke-linecap:round; stroke-linejoin:round; stroke-width:4; stroke-opacity:1; fill:none" points="340.028,159.781 358.925,159.781 "/>
<path clip-path="url(#clip320)" d="M126.205 1370.04 Q122.593 1370.04 120.765 1373.6 Q118.959 1377.14 118.959 1384.27 Q118.959 1391.38 120.765 1394.94 Q122.593 1398.49 126.205 1398.49 Q129.839 1398.49 131.644 1394.94 Q133.473 1391.38 133.473 1384.27 Q133.473 1377.14 131.644 1373.6 Q129.839 1370.04 126.205 1370.04 M126.205 1366.33 Q132.015 1366.33 135.07 1370.94 Q138.149 1375.52 138.149 1384.27 Q138.149 1393 135.07 1397.61 Q132.015 1402.19 126.205 1402.19 Q120.394 1402.19 117.316 1397.61 Q114.26 1393 114.26 1384.27 Q114.26 1375.52 117.316 1370.94 Q120.394 1366.33 126.205 1366.33 Z" fill="#000000" fill-rule="nonzero" fill-opacity="1" /><path clip-path="url(#clip320)" d="M146.366 1395.64 L151.251 1395.64 L151.251 1401.52 L146.366 1401.52 L146.366 1395.64 Z" fill="#000000" fill-rule="nonzero" fill-opacity="1" /><path clip-path="url(#clip320)" d="M171.436 1370.04 Q167.825 1370.04 165.996 1373.6 Q164.19 1377.14 164.19 1384.27 Q164.19 1391.38 165.996 1394.94 Q167.825 1398.49 171.436 1398.49 Q175.07 1398.49 176.876 1394.94 Q178.704 1391.38 178.704 1384.27 Q178.704 1377.14 176.876 1373.6 Q175.07 1370.04 171.436 1370.04 M171.436 1366.33 Q177.246 1366.33 180.301 1370.94 Q183.38 1375.52 183.38 1384.27 Q183.38 1393 180.301 1397.61 Q177.246 1402.19 171.436 1402.19 Q165.626 1402.19 162.547 1397.61 Q159.491 1393 159.491 1384.27 Q159.491 1375.52 162.547 1370.94 Q165.626 1366.33 171.436 1366.33 Z" fill="#000000" fill-rule="nonzero" fill-opacity="1" /><path clip-path="url(#clip320)" d="M201.598 1370.04 Q197.987 1370.04 196.158 1373.6 Q194.352 1377.14 194.352 1384.27 Q194.352 1391.38 196.158 1394.94 Q197.987 1398.49 201.598 1398.49 Q205.232 1398.49 207.037 1394.94 Q208.866 1391.38 208.866 1384.27 Q208.866 1377.14 207.037 1373.6 Q205.232 1370.04 201.598 1370.04 M201.598 1366.33 Q207.408 1366.33 210.463 1370.94 Q213.542 1375.52 213.542 1384.27 Q213.542 1393 210.463 1397.61 Q207.408 1402.19 201.598 1402.19 Q195.787 1402.19 192.709 1397.61 Q189.653 1393 189.653 1384.27 Q189.653 1375.52 192.709 1370.94 Q195.787 1366.33 201.598 1366.33 Z" fill="#000000" fill-rule="nonzero" fill-opacity="1" /><path clip-path="url(#clip320)" d="M231.76 1370.04 Q228.148 1370.04 226.32 1373.6 Q224.514 1377.14 224.514 1384.27 Q224.514 1391.38 226.32 1394.94 Q228.148 1398.49 231.76 1398.49 Q235.394 1398.49 237.199 1394.94 Q239.028 1391.38 239.028 1384.27 Q239.028 1377.14 237.199 1373.6 Q235.394 1370.04 231.76 1370.04 M231.76 1366.33 Q237.57 1366.33 240.625 1370.94 Q243.704 1375.52 243.704 1384.27 Q243.704 1393 240.625 1397.61 Q237.57 1402.19 231.76 1402.19 Q225.949 1402.19 222.871 1397.61 Q219.815 1393 219.815 1384.27 Q219.815 1375.52 222.871 1370.94 Q225.949 1366.33 231.76 1366.33 Z" fill="#000000" fill-rule="nonzero" fill-opacity="1" /><path clip-path="url(#clip320)" d="M261.921 1370.04 Q258.31 1370.04 256.482 1373.6 Q254.676 1377.14 254.676 1384.27 Q254.676 1391.38 256.482 1394.94 Q258.31 1398.49 261.921 1398.49 Q265.556 1398.49 267.361 1394.94 Q269.19 1391.38 269.19 1384.27 Q269.19 1377.14 267.361 1373.6 Q265.556 1370.04 261.921 1370.04 M261.921 1366.33 Q267.732 1366.33 270.787 1370.94 Q273.866 1375.52 273.866 1384.27 Q273.866 1393 270.787 1397.61 Q267.732 1402.19 261.921 1402.19 Q256.111 1402.19 253.033 1397.61 Q249.977 1393 249.977 1384.27 Q249.977 1375.52 253.033 1370.94 Q256.111 1366.33 261.921 1366.33 Z" fill="#000000" fill-rule="nonzero" fill-opacity="1" /><path clip-path="url(#clip320)" d="M292.083 1370.04 Q288.472 1370.04 286.643 1373.6 Q284.838 1377.14 284.838 1384.27 Q284.838 1391.38 286.643 1394.94 Q288.472 1398.49 292.083 1398.49 Q295.718 1398.49 297.523 1394.94 Q299.352 1391.38 299.352 1384.27 Q299.352 1377.14 297.523 1373.6 Q295.718 1370.04 292.083 1370.04 M292.083 1366.33 Q297.893 1366.33 300.949 1370.94 Q304.028 1375.52 304.028 1384.27 Q304.028 1393 300.949 1397.61 Q297.893 1402.19 292.083 1402.19 Q286.273 1402.19 283.194 1397.61 Q280.139 1393 280.139 1384.27 Q280.139 1375.52 283.194 1370.94 Q286.273 1366.33 292.083 1366.33 Z" fill="#000000" fill-rule="nonzero" fill-opacity="1" /><path clip-path="url(#clip320)" d="M127.2 961.884 Q123.589 961.884 121.76 965.449 Q119.955 968.991 119.955 976.12 Q119.955 983.227 121.76 986.792 Q123.589 990.333 127.2 990.333 Q130.834 990.333 132.64 986.792 Q134.468 983.227 134.468 976.12 Q134.468 968.991 132.64 965.449 Q130.834 961.884 127.2 961.884 M127.2 958.181 Q133.01 958.181 136.066 962.787 Q139.144 967.37 139.144 976.12 Q139.144 984.847 136.066 989.454 Q133.01 994.037 127.2 994.037 Q121.39 994.037 118.311 989.454 Q115.256 984.847 115.256 976.12 Q115.256 967.37 118.311 962.787 Q121.39 958.181 127.2 958.181 Z" fill="#000000" fill-rule="nonzero" fill-opacity="1" /><path clip-path="url(#clip320)" d="M147.362 987.486 L152.246 987.486 L152.246 993.366 L147.362 993.366 L147.362 987.486 Z" fill="#000000" fill-rule="nonzero" fill-opacity="1" /><path clip-path="url(#clip320)" d="M172.431 961.884 Q168.82 961.884 166.991 965.449 Q165.186 968.991 165.186 976.12 Q165.186 983.227 166.991 986.792 Q168.82 990.333 172.431 990.333 Q176.065 990.333 177.871 986.792 Q179.7 983.227 179.7 976.12 Q179.7 968.991 177.871 965.449 Q176.065 961.884 172.431 961.884 M172.431 958.181 Q178.241 958.181 181.297 962.787 Q184.376 967.37 184.376 976.12 Q184.376 984.847 181.297 989.454 Q178.241 994.037 172.431 994.037 Q166.621 994.037 163.542 989.454 Q160.487 984.847 160.487 976.12 Q160.487 967.37 163.542 962.787 Q166.621 958.181 172.431 958.181 Z" fill="#000000" fill-rule="nonzero" fill-opacity="1" /><path clip-path="url(#clip320)" d="M202.593 961.884 Q198.982 961.884 197.153 965.449 Q195.348 968.991 195.348 976.12 Q195.348 983.227 197.153 986.792 Q198.982 990.333 202.593 990.333 Q206.227 990.333 208.033 986.792 Q209.861 983.227 209.861 976.12 Q209.861 968.991 208.033 965.449 Q206.227 961.884 202.593 961.884 M202.593 958.181 Q208.403 958.181 211.459 962.787 Q214.537 967.37 214.537 976.12 Q214.537 984.847 211.459 989.454 Q208.403 994.037 202.593 994.037 Q196.783 994.037 193.704 989.454 Q190.649 984.847 190.649 976.12 Q190.649 967.37 193.704 962.787 Q196.783 958.181 202.593 958.181 Z" fill="#000000" fill-rule="nonzero" fill-opacity="1" /><path clip-path="url(#clip320)" d="M232.755 961.884 Q229.144 961.884 227.315 965.449 Q225.51 968.991 225.51 976.12 Q225.51 983.227 227.315 986.792 Q229.144 990.333 232.755 990.333 Q236.389 990.333 238.195 986.792 Q240.023 983.227 240.023 976.12 Q240.023 968.991 238.195 965.449 Q236.389 961.884 232.755 961.884 M232.755 958.181 Q238.565 958.181 241.621 962.787 Q244.699 967.37 244.699 976.12 Q244.699 984.847 241.621 989.454 Q238.565 994.037 232.755 994.037 Q226.945 994.037 223.866 989.454 Q220.811 984.847 220.811 976.12 Q220.811 967.37 223.866 962.787 Q226.945 958.181 232.755 958.181 Z" fill="#000000" fill-rule="nonzero" fill-opacity="1" /><path clip-path="url(#clip320)" d="M262.917 961.884 Q259.306 961.884 257.477 965.449 Q255.671 968.991 255.671 976.12 Q255.671 983.227 257.477 986.792 Q259.306 990.333 262.917 990.333 Q266.551 990.333 268.357 986.792 Q270.185 983.227 270.185 976.12 Q270.185 968.991 268.357 965.449 Q266.551 961.884 262.917 961.884 M262.917 958.181 Q268.727 958.181 271.782 962.787 Q274.861 967.37 274.861 976.12 Q274.861 984.847 271.782 989.454 Q268.727 994.037 262.917 994.037 Q257.107 994.037 254.028 989.454 Q250.972 984.847 250.972 976.12 Q250.972 967.37 254.028 962.787 Q257.107 958.181 262.917 958.181 Z" fill="#000000" fill-rule="nonzero" fill-opacity="1" /><path clip-path="url(#clip320)" d="M283.125 958.806 L301.481 958.806 L301.481 962.741 L287.407 962.741 L287.407 971.213 Q288.426 970.866 289.444 970.704 Q290.463 970.519 291.481 970.519 Q297.268 970.519 300.648 973.69 Q304.028 976.861 304.028 982.278 Q304.028 987.856 300.555 990.958 Q297.083 994.037 290.764 994.037 Q288.588 994.037 286.319 993.667 Q284.074 993.296 281.667 992.556 L281.667 987.856 Q283.75 988.991 285.972 989.546 Q288.194 990.102 290.671 990.102 Q294.676 990.102 297.014 987.995 Q299.352 985.889 299.352 982.278 Q299.352 978.667 297.014 976.56 Q294.676 974.454 290.671 974.454 Q288.796 974.454 286.921 974.87 Q285.069 975.287 283.125 976.167 L283.125 958.806 Z" fill="#000000" fill-rule="nonzero" fill-opacity="1" /><path clip-path="url(#clip320)" d="M126.205 553.732 Q122.593 553.732 120.765 557.297 Q118.959 560.838 118.959 567.968 Q118.959 575.074 120.765 578.639 Q122.593 582.181 126.205 582.181 Q129.839 582.181 131.644 578.639 Q133.473 575.074 133.473 567.968 Q133.473 560.838 131.644 557.297 Q129.839 553.732 126.205 553.732 M126.205 550.028 Q132.015 550.028 135.07 554.635 Q138.149 559.218 138.149 567.968 Q138.149 576.695 135.07 581.301 Q132.015 585.884 126.205 585.884 Q120.394 585.884 117.316 581.301 Q114.26 576.695 114.26 567.968 Q114.26 559.218 117.316 554.635 Q120.394 550.028 126.205 550.028 Z" fill="#000000" fill-rule="nonzero" fill-opacity="1" /><path clip-path="url(#clip320)" d="M146.366 579.334 L151.251 579.334 L151.251 585.213 L146.366 585.213 L146.366 579.334 Z" fill="#000000" fill-rule="nonzero" fill-opacity="1" /><path clip-path="url(#clip320)" d="M171.436 553.732 Q167.825 553.732 165.996 557.297 Q164.19 560.838 164.19 567.968 Q164.19 575.074 165.996 578.639 Q167.825 582.181 171.436 582.181 Q175.07 582.181 176.876 578.639 Q178.704 575.074 178.704 567.968 Q178.704 560.838 176.876 557.297 Q175.07 553.732 171.436 553.732 M171.436 550.028 Q177.246 550.028 180.301 554.635 Q183.38 559.218 183.38 567.968 Q183.38 576.695 180.301 581.301 Q177.246 585.884 171.436 585.884 Q165.626 585.884 162.547 581.301 Q159.491 576.695 159.491 567.968 Q159.491 559.218 162.547 554.635 Q165.626 550.028 171.436 550.028 Z" fill="#000000" fill-rule="nonzero" fill-opacity="1" /><path clip-path="url(#clip320)" d="M201.598 553.732 Q197.987 553.732 196.158 557.297 Q194.352 560.838 194.352 567.968 Q194.352 575.074 196.158 578.639 Q197.987 582.181 201.598 582.181 Q205.232 582.181 207.037 578.639 Q208.866 575.074 208.866 567.968 Q208.866 560.838 207.037 557.297 Q205.232 553.732 201.598 553.732 M201.598 550.028 Q207.408 550.028 210.463 554.635 Q213.542 559.218 213.542 567.968 Q213.542 576.695 210.463 581.301 Q207.408 585.884 201.598 585.884 Q195.787 585.884 192.709 581.301 Q189.653 576.695 189.653 567.968 Q189.653 559.218 192.709 554.635 Q195.787 550.028 201.598 550.028 Z" fill="#000000" fill-rule="nonzero" fill-opacity="1" /><path clip-path="url(#clip320)" d="M231.76 553.732 Q228.148 553.732 226.32 557.297 Q224.514 560.838 224.514 567.968 Q224.514 575.074 226.32 578.639 Q228.148 582.181 231.76 582.181 Q235.394 582.181 237.199 578.639 Q239.028 575.074 239.028 567.968 Q239.028 560.838 237.199 557.297 Q235.394 553.732 231.76 553.732 M231.76 550.028 Q237.57 550.028 240.625 554.635 Q243.704 559.218 243.704 567.968 Q243.704 576.695 240.625 581.301 Q237.57 585.884 231.76 585.884 Q225.949 585.884 222.871 581.301 Q219.815 576.695 219.815 567.968 Q219.815 559.218 222.871 554.635 Q225.949 550.028 231.76 550.028 Z" fill="#000000" fill-rule="nonzero" fill-opacity="1" /><path clip-path="url(#clip320)" d="M252.732 581.278 L260.37 581.278 L260.37 554.912 L252.06 556.579 L252.06 552.32 L260.324 550.653 L265 550.653 L265 581.278 L272.639 581.278 L272.639 585.213 L252.732 585.213 L252.732 581.278 Z" fill="#000000" fill-rule="nonzero" fill-opacity="1" /><path clip-path="url(#clip320)" d="M292.083 553.732 Q288.472 553.732 286.643 557.297 Q284.838 560.838 284.838 567.968 Q284.838 575.074 286.643 578.639 Q288.472 582.181 292.083 582.181 Q295.718 582.181 297.523 578.639 Q299.352 575.074 299.352 567.968 Q299.352 560.838 297.523 557.297 Q295.718 553.732 292.083 553.732 M292.083 550.028 Q297.893 550.028 300.949 554.635 Q304.028 559.218 304.028 567.968 Q304.028 576.695 300.949 581.301 Q297.893 585.884 292.083 585.884 Q286.273 585.884 283.194 581.301 Q280.139 576.695 280.139 567.968 Q280.139 559.218 283.194 554.635 Q286.273 550.028 292.083 550.028 Z" fill="#000000" fill-rule="nonzero" fill-opacity="1" /><path clip-path="url(#clip320)" d="M127.2 145.579 Q123.589 145.579 121.76 149.144 Q119.955 152.686 119.955 159.815 Q119.955 166.922 121.76 170.487 Q123.589 174.028 127.2 174.028 Q130.834 174.028 132.64 170.487 Q134.468 166.922 134.468 159.815 Q134.468 152.686 132.64 149.144 Q130.834 145.579 127.2 145.579 M127.2 141.876 Q133.01 141.876 136.066 146.482 Q139.144 151.065 139.144 159.815 Q139.144 168.542 136.066 173.149 Q133.01 177.732 127.2 177.732 Q121.39 177.732 118.311 173.149 Q115.256 168.542 115.256 159.815 Q115.256 151.065 118.311 146.482 Q121.39 141.876 127.2 141.876 Z" fill="#000000" fill-rule="nonzero" fill-opacity="1" /><path clip-path="url(#clip320)" d="M147.362 171.181 L152.246 171.181 L152.246 177.061 L147.362 177.061 L147.362 171.181 Z" fill="#000000" fill-rule="nonzero" fill-opacity="1" /><path clip-path="url(#clip320)" d="M172.431 145.579 Q168.82 145.579 166.991 149.144 Q165.186 152.686 165.186 159.815 Q165.186 166.922 166.991 170.487 Q168.82 174.028 172.431 174.028 Q176.065 174.028 177.871 170.487 Q179.7 166.922 179.7 159.815 Q179.7 152.686 177.871 149.144 Q176.065 145.579 172.431 145.579 M172.431 141.876 Q178.241 141.876 181.297 146.482 Q184.376 151.065 184.376 159.815 Q184.376 168.542 181.297 173.149 Q178.241 177.732 172.431 177.732 Q166.621 177.732 163.542 173.149 Q160.487 168.542 160.487 159.815 Q160.487 151.065 163.542 146.482 Q166.621 141.876 172.431 141.876 Z" fill="#000000" fill-rule="nonzero" fill-opacity="1" /><path clip-path="url(#clip320)" d="M202.593 145.579 Q198.982 145.579 197.153 149.144 Q195.348 152.686 195.348 159.815 Q195.348 166.922 197.153 170.487 Q198.982 174.028 202.593 174.028 Q206.227 174.028 208.033 170.487 Q209.861 166.922 209.861 159.815 Q209.861 152.686 208.033 149.144 Q206.227 145.579 202.593 145.579 M202.593 141.876 Q208.403 141.876 211.459 146.482 Q214.537 151.065 214.537 159.815 Q214.537 168.542 211.459 173.149 Q208.403 177.732 202.593 177.732 Q196.783 177.732 193.704 173.149 Q190.649 168.542 190.649 159.815 Q190.649 151.065 193.704 146.482 Q196.783 141.876 202.593 141.876 Z" fill="#000000" fill-rule="nonzero" fill-opacity="1" /><path clip-path="url(#clip320)" d="M232.755 145.579 Q229.144 145.579 227.315 149.144 Q225.51 152.686 225.51 159.815 Q225.51 166.922 227.315 170.487 Q229.144 174.028 232.755 174.028 Q236.389 174.028 238.195 170.487 Q240.023 166.922 240.023 159.815 Q240.023 152.686 238.195 149.144 Q236.389 145.579 232.755 145.579 M232.755 141.876 Q238.565 141.876 241.621 146.482 Q244.699 151.065 244.699 159.815 Q244.699 168.542 241.621 173.149 Q238.565 177.732 232.755 177.732 Q226.945 177.732 223.866 173.149 Q220.811 168.542 220.811 159.815 Q220.811 151.065 223.866 146.482 Q226.945 141.876 232.755 141.876 Z" fill="#000000" fill-rule="nonzero" fill-opacity="1" /><path clip-path="url(#clip320)" d="M253.727 173.125 L261.366 173.125 L261.366 146.76 L253.056 148.426 L253.056 144.167 L261.32 142.501 L265.995 142.501 L265.995 173.125 L273.634 173.125 L273.634 177.061 L253.727 177.061 L253.727 173.125 Z" fill="#000000" fill-rule="nonzero" fill-opacity="1" /><path clip-path="url(#clip320)" d="M283.125 142.501 L301.481 142.501 L301.481 146.436 L287.407 146.436 L287.407 154.908 Q288.426 154.561 289.444 154.399 Q290.463 154.213 291.481 154.213 Q297.268 154.213 300.648 157.385 Q304.028 160.556 304.028 165.973 Q304.028 171.551 300.555 174.653 Q297.083 177.732 290.764 177.732 Q288.588 177.732 286.319 177.361 Q284.074 176.991 281.667 176.25 L281.667 171.551 Q283.75 172.686 285.972 173.241 Q288.194 173.797 290.671 173.797 Q294.676 173.797 297.014 171.69 Q299.352 169.584 299.352 165.973 Q299.352 162.362 297.014 160.255 Q294.676 158.149 290.671 158.149 Q288.796 158.149 286.921 158.565 Q285.069 158.982 283.125 159.862 L283.125 142.501 Z" fill="#000000" fill-rule="nonzero" fill-opacity="1" /><path clip-path="url(#clip320)" d="M29.4065 1265.73 L34.9447 1265.73 Q33.6716 1268.21 33.035 1270.89 Q32.3984 1273.56 32.3984 1276.42 Q32.3984 1280.78 33.7352 1282.98 Q35.072 1285.15 37.7456 1285.15 Q39.7826 1285.15 40.9603 1283.59 Q42.1061 1282.03 43.1565 1277.32 L43.6021 1275.31 Q44.9389 1269.07 47.3897 1266.46 Q49.8086 1263.82 54.1691 1263.82 Q59.1344 1263.82 62.0308 1267.77 Q64.9272 1271.68 64.9272 1278.56 Q64.9272 1281.42 64.3543 1284.54 Q63.8132 1287.63 62.6992 1291.07 L56.6518 1291.07 Q58.3387 1287.82 59.198 1284.67 Q60.0256 1281.52 60.0256 1278.43 Q60.0256 1274.29 58.6251 1272.06 Q57.1929 1269.84 54.6147 1269.84 Q52.2276 1269.84 50.9545 1271.46 Q49.6813 1273.05 48.5037 1278.49 L48.0262 1280.53 Q46.8804 1285.97 44.5251 1288.39 Q42.138 1290.81 38.0002 1290.81 Q32.9713 1290.81 30.2341 1287.25 Q27.4968 1283.68 27.4968 1277.12 Q27.4968 1273.88 27.9743 1271.01 Q28.4517 1268.15 29.4065 1265.73 Z" fill="#000000" fill-rule="nonzero" fill-opacity="1" /><path clip-path="url(#clip320)" d="M42.4881 1224.86 L64.0042 1224.86 L64.0042 1230.72 L42.679 1230.72 Q37.6183 1230.72 35.1038 1232.69 Q32.5894 1234.67 32.5894 1238.61 Q32.5894 1243.35 35.6131 1246.09 Q38.6368 1248.83 43.8567 1248.83 L64.0042 1248.83 L64.0042 1254.72 L28.3562 1254.72 L28.3562 1248.83 L33.8944 1248.83 Q30.6797 1246.73 29.0883 1243.9 Q27.4968 1241.03 27.4968 1237.31 Q27.4968 1231.16 31.3163 1228.01 Q35.1038 1224.86 42.4881 1224.86 Z" fill="#000000" fill-rule="nonzero" fill-opacity="1" /><path clip-path="url(#clip320)" d="M32.4621 1199.37 Q32.4621 1204.08 36.1542 1206.82 Q39.8145 1209.55 46.212 1209.55 Q52.6095 1209.55 56.3017 1206.85 Q59.9619 1204.11 59.9619 1199.37 Q59.9619 1194.69 56.2698 1191.95 Q52.5777 1189.21 46.212 1189.21 Q39.8781 1189.21 36.186 1191.95 Q32.4621 1194.69 32.4621 1199.37 M27.4968 1199.37 Q27.4968 1191.73 32.4621 1187.37 Q37.4273 1183.01 46.212 1183.01 Q54.9649 1183.01 59.9619 1187.37 Q64.9272 1191.73 64.9272 1199.37 Q64.9272 1207.04 59.9619 1211.4 Q54.9649 1215.73 46.212 1215.73 Q37.4273 1215.73 32.4621 1211.4 Q27.4968 1207.04 27.4968 1199.37 Z" fill="#000000" fill-rule="nonzero" fill-opacity="1" /><path clip-path="url(#clip320)" d="M28.3562 1176.71 L28.3562 1170.85 L56.1743 1163.53 L28.3562 1156.24 L28.3562 1149.33 L56.1743 1142.01 L28.3562 1134.72 L28.3562 1128.87 L64.0042 1138.19 L64.0042 1145.1 L34.7856 1152.77 L64.0042 1160.47 L64.0042 1167.38 L28.3562 1176.71 Z" fill="#000000" fill-rule="nonzero" fill-opacity="1" /><path clip-path="url(#clip320)" d="M43.5384 1122.95 L43.5384 1105.79 L48.7583 1105.79 L48.7583 1122.95 L43.5384 1122.95 Z" fill="#000000" fill-rule="nonzero" fill-opacity="1" /><path clip-path="url(#clip320)" d="M33.8307 1075.81 Q33.2578 1076.8 33.0032 1077.97 Q32.7167 1079.12 32.7167 1080.52 Q32.7167 1085.48 35.9632 1088.16 Q39.1779 1090.8 45.2253 1090.8 L64.0042 1090.8 L64.0042 1096.69 L28.3562 1096.69 L28.3562 1090.8 L33.8944 1090.8 Q30.6479 1088.95 29.0883 1085.99 Q27.4968 1083.03 27.4968 1078.8 Q27.4968 1078.2 27.5923 1077.46 Q27.656 1076.73 27.8151 1075.84 L33.8307 1075.81 Z" fill="#000000" fill-rule="nonzero" fill-opacity="1" /><path clip-path="url(#clip320)" d="M46.0847 1053.47 Q46.0847 1060.56 47.7079 1063.3 Q49.3312 1066.04 53.2461 1066.04 Q56.3653 1066.04 58.2114 1064 Q60.0256 1061.93 60.0256 1058.4 Q60.0256 1053.53 56.5881 1050.6 Q53.1188 1047.64 47.3897 1047.64 L46.0847 1047.64 L46.0847 1053.47 M43.6657 1041.78 L64.0042 1041.78 L64.0042 1047.64 L58.5933 1047.64 Q61.8398 1049.65 63.3994 1052.64 Q64.9272 1055.63 64.9272 1059.96 Q64.9272 1065.43 61.8716 1068.68 Q58.7843 1071.89 53.6281 1071.89 Q47.6125 1071.89 44.5569 1067.88 Q41.5014 1063.84 41.5014 1055.85 L41.5014 1047.64 L40.9285 1047.64 Q36.8862 1047.64 34.6901 1050.31 Q32.4621 1052.96 32.4621 1057.76 Q32.4621 1060.82 33.1941 1063.71 Q33.9262 1066.61 35.3903 1069.28 L29.9795 1069.28 Q28.7381 1066.07 28.1334 1063.05 Q27.4968 1060.02 27.4968 1057.16 Q27.4968 1049.42 31.5072 1045.6 Q35.5176 1041.78 43.6657 1041.78 Z" fill="#000000" fill-rule="nonzero" fill-opacity="1" /><path clip-path="url(#clip320)" d="M28.3562 1029.72 L28.3562 1023.86 L64.0042 1023.86 L64.0042 1029.72 L28.3562 1029.72 M14.479 1029.72 L14.479 1023.86 L21.895 1023.86 L21.895 1029.72 L14.479 1029.72 Z" fill="#000000" fill-rule="nonzero" fill-opacity="1" /><path clip-path="url(#clip320)" d="M42.4881 981.979 L64.0042 981.979 L64.0042 987.835 L42.679 987.835 Q37.6183 987.835 35.1038 989.808 Q32.5894 991.782 32.5894 995.729 Q32.5894 1000.47 35.6131 1003.21 Q38.6368 1005.95 43.8567 1005.95 L64.0042 1005.95 L64.0042 1011.83 L28.3562 1011.83 L28.3562 1005.95 L33.8944 1005.95 Q30.6797 1003.84 29.0883 1001.01 Q27.4968 998.147 27.4968 994.424 Q27.4968 988.281 31.3163 985.13 Q35.1038 981.979 42.4881 981.979 Z" fill="#000000" fill-rule="nonzero" fill-opacity="1" /><path clip-path="url(#clip320)" d="M46.0847 933.376 Q46.0847 940.474 47.7079 943.211 Q49.3312 945.949 53.2461 945.949 Q56.3653 945.949 58.2114 943.912 Q60.0256 941.843 60.0256 938.31 Q60.0256 933.44 56.5881 930.512 Q53.1188 927.552 47.3897 927.552 L46.0847 927.552 L46.0847 933.376 M43.6657 921.695 L64.0042 921.695 L64.0042 927.552 L58.5933 927.552 Q61.8398 929.557 63.3994 932.549 Q64.9272 935.541 64.9272 939.869 Q64.9272 945.344 61.8716 948.59 Q58.7843 951.805 53.6281 951.805 Q47.6125 951.805 44.5569 947.795 Q41.5014 943.753 41.5014 935.764 L41.5014 927.552 L40.9285 927.552 Q36.8862 927.552 34.6901 930.225 Q32.4621 932.867 32.4621 937.673 Q32.4621 940.729 33.1941 943.625 Q33.9262 946.522 35.3903 949.195 L29.9795 949.195 Q28.7381 945.981 28.1334 942.957 Q27.4968 939.933 27.4968 937.069 Q27.4968 929.334 31.5072 925.515 Q35.5176 921.695 43.6657 921.695 Z" fill="#000000" fill-rule="nonzero" fill-opacity="1" /><path clip-path="url(#clip320)" d="M29.7248 883.979 L35.1993 883.979 Q33.8307 886.461 33.1623 888.976 Q32.4621 891.458 32.4621 894.005 Q32.4621 899.702 36.0905 902.853 Q39.6872 906.004 46.212 906.004 Q52.7369 906.004 56.3653 902.853 Q59.9619 899.702 59.9619 894.005 Q59.9619 891.458 59.2935 888.976 Q58.5933 886.461 57.2247 883.979 L62.6355 883.979 Q63.7814 886.429 64.3543 889.071 Q64.9272 891.681 64.9272 894.641 Q64.9272 902.694 59.8664 907.436 Q54.8057 912.179 46.212 912.179 Q37.491 912.179 32.4939 907.404 Q27.4968 902.598 27.4968 894.259 Q27.4968 891.554 28.0697 888.976 Q28.6108 886.398 29.7248 883.979 Z" fill="#000000" fill-rule="nonzero" fill-opacity="1" /><path clip-path="url(#clip320)" d="M29.7248 848.14 L35.1993 848.14 Q33.8307 850.622 33.1623 853.137 Q32.4621 855.619 32.4621 858.166 Q32.4621 863.863 36.0905 867.014 Q39.6872 870.165 46.212 870.165 Q52.7369 870.165 56.3653 867.014 Q59.9619 863.863 59.9619 858.166 Q59.9619 855.619 59.2935 853.137 Q58.5933 850.622 57.2247 848.14 L62.6355 848.14 Q63.7814 850.59 64.3543 853.232 Q64.9272 855.842 64.9272 858.802 Q64.9272 866.855 59.8664 871.597 Q54.8057 876.34 46.212 876.34 Q37.491 876.34 32.4939 871.565 Q27.4968 866.759 27.4968 858.42 Q27.4968 855.715 28.0697 853.137 Q28.6108 850.559 29.7248 848.14 Z" fill="#000000" fill-rule="nonzero" fill-opacity="1" /><path clip-path="url(#clip320)" d="M33.8307 817.298 Q33.2578 818.284 33.0032 819.462 Q32.7167 820.608 32.7167 822.008 Q32.7167 826.974 35.9632 829.647 Q39.1779 832.289 45.2253 832.289 L64.0042 832.289 L64.0042 838.177 L28.3562 838.177 L28.3562 832.289 L33.8944 832.289 Q30.6479 830.443 29.0883 827.483 Q27.4968 824.523 27.4968 820.29 Q27.4968 819.685 27.5923 818.953 Q27.656 818.221 27.8151 817.33 L33.8307 817.298 Z" fill="#000000" fill-rule="nonzero" fill-opacity="1" /><path clip-path="url(#clip320)" d="M44.7161 782.095 L47.5806 782.095 L47.5806 809.022 Q53.6281 808.64 56.8109 805.394 Q59.9619 802.116 59.9619 796.291 Q59.9619 792.917 59.1344 789.766 Q58.3069 786.583 56.6518 783.464 L62.1899 783.464 Q63.5267 786.615 64.227 789.925 Q64.9272 793.235 64.9272 796.641 Q64.9272 805.171 59.9619 810.168 Q54.9967 815.133 46.5303 815.133 Q37.7774 815.133 32.6531 810.423 Q27.4968 805.68 27.4968 797.66 Q27.4968 790.466 32.1438 786.297 Q36.7589 782.095 44.7161 782.095 M42.9973 787.952 Q38.1912 788.016 35.3266 790.657 Q32.4621 793.267 32.4621 797.596 Q32.4621 802.497 35.2312 805.458 Q38.0002 808.386 43.0292 808.831 L42.9973 787.952 Z" fill="#000000" fill-rule="nonzero" fill-opacity="1" /><path clip-path="url(#clip320)" d="M18.2347 766.69 L28.3562 766.69 L28.3562 754.627 L32.9077 754.627 L32.9077 766.69 L52.2594 766.69 Q56.6199 766.69 57.8613 765.513 Q59.1026 764.303 59.1026 760.643 L59.1026 754.627 L64.0042 754.627 L64.0042 760.643 Q64.0042 767.422 61.4897 770.001 Q58.9434 772.579 52.2594 772.579 L32.9077 772.579 L32.9077 776.876 L28.3562 776.876 L28.3562 772.579 L18.2347 772.579 L18.2347 766.69 Z" fill="#000000" fill-rule="nonzero" fill-opacity="1" /><path clip-path="url(#clip320)" d="M28.3562 746.925 L28.3562 741.068 L64.0042 741.068 L64.0042 746.925 L28.3562 746.925 M14.479 746.925 L14.479 741.068 L21.895 741.068 L21.895 746.925 L14.479 746.925 Z" fill="#000000" fill-rule="nonzero" fill-opacity="1" /><path clip-path="url(#clip320)" d="M32.4621 715.001 Q32.4621 719.711 36.1542 722.449 Q39.8145 725.186 46.212 725.186 Q52.6095 725.186 56.3017 722.481 Q59.9619 719.743 59.9619 715.001 Q59.9619 710.322 56.2698 707.585 Q52.5777 704.848 46.212 704.848 Q39.8781 704.848 36.186 707.585 Q32.4621 710.322 32.4621 715.001 M27.4968 715.001 Q27.4968 707.362 32.4621 703.001 Q37.4273 698.641 46.212 698.641 Q54.9649 698.641 59.9619 703.001 Q64.9272 707.362 64.9272 715.001 Q64.9272 722.672 59.9619 727.032 Q54.9649 731.361 46.212 731.361 Q37.4273 731.361 32.4621 727.032 Q27.4968 722.672 27.4968 715.001 Z" fill="#000000" fill-rule="nonzero" fill-opacity="1" /><path clip-path="url(#clip320)" d="M42.4881 659.301 L64.0042 659.301 L64.0042 665.157 L42.679 665.157 Q37.6183 665.157 35.1038 667.131 Q32.5894 669.104 32.5894 673.051 Q32.5894 677.793 35.6131 680.531 Q38.6368 683.268 43.8567 683.268 L64.0042 683.268 L64.0042 689.156 L28.3562 689.156 L28.3562 683.268 L33.8944 683.268 Q30.6797 681.167 29.0883 678.334 Q27.4968 675.47 27.4968 671.746 Q27.4968 665.603 31.3163 662.452 Q35.1038 659.301 42.4881 659.301 Z" fill="#000000" fill-rule="nonzero" fill-opacity="1" /><path clip-path="url(#clip320)" d="M33.8307 606.243 Q33.2578 607.229 33.0032 608.407 Q32.7167 609.553 32.7167 610.953 Q32.7167 615.919 35.9632 618.592 Q39.1779 621.234 45.2253 621.234 L64.0042 621.234 L64.0042 627.122 L28.3562 627.122 L28.3562 621.234 L33.8944 621.234 Q30.6479 619.388 29.0883 616.428 Q27.4968 613.468 27.4968 609.235 Q27.4968 608.63 27.5923 607.898 Q27.656 607.166 27.8151 606.275 L33.8307 606.243 Z" fill="#000000" fill-rule="nonzero" fill-opacity="1" /><path clip-path="url(#clip320)" d="M46.0847 583.899 Q46.0847 590.997 47.7079 593.734 Q49.3312 596.471 53.2461 596.471 Q56.3653 596.471 58.2114 594.434 Q60.0256 592.366 60.0256 588.833 Q60.0256 583.963 56.5881 581.035 Q53.1188 578.075 47.3897 578.075 L46.0847 578.075 L46.0847 583.899 M43.6657 572.218 L64.0042 572.218 L64.0042 578.075 L58.5933 578.075 Q61.8398 580.08 63.3994 583.072 Q64.9272 586.063 64.9272 590.392 Q64.9272 595.867 61.8716 599.113 Q58.7843 602.328 53.6281 602.328 Q47.6125 602.328 44.5569 598.317 Q41.5014 594.275 41.5014 586.286 L41.5014 578.075 L40.9285 578.075 Q36.8862 578.075 34.6901 580.748 Q32.4621 583.39 32.4621 588.196 Q32.4621 591.252 33.1941 594.148 Q33.9262 597.044 35.3903 599.718 L29.9795 599.718 Q28.7381 596.503 28.1334 593.48 Q27.4968 590.456 27.4968 587.591 Q27.4968 579.857 31.5072 576.037 Q35.5176 572.218 43.6657 572.218 Z" fill="#000000" fill-rule="nonzero" fill-opacity="1" /><path clip-path="url(#clip320)" d="M18.2347 554.362 L28.3562 554.362 L28.3562 542.299 L32.9077 542.299 L32.9077 554.362 L52.2594 554.362 Q56.6199 554.362 57.8613 553.185 Q59.1026 551.975 59.1026 548.315 L59.1026 542.299 L64.0042 542.299 L64.0042 548.315 Q64.0042 555.094 61.4897 557.672 Q58.9434 560.251 52.2594 560.251 L32.9077 560.251 L32.9077 564.547 L28.3562 564.547 L28.3562 560.251 L18.2347 560.251 L18.2347 554.362 Z" fill="#000000" fill-rule="nonzero" fill-opacity="1" /><path clip-path="url(#clip320)" d="M44.7161 504.105 L47.5806 504.105 L47.5806 531.032 Q53.6281 530.65 56.8109 527.403 Q59.9619 524.125 59.9619 518.301 Q59.9619 514.927 59.1344 511.776 Q58.3069 508.593 56.6518 505.474 L62.1899 505.474 Q63.5267 508.625 64.227 511.935 Q64.9272 515.245 64.9272 518.651 Q64.9272 527.181 59.9619 532.178 Q54.9967 537.143 46.5303 537.143 Q37.7774 537.143 32.6531 532.432 Q27.4968 527.69 27.4968 519.669 Q27.4968 512.476 32.1438 508.306 Q36.7589 504.105 44.7161 504.105 M42.9973 509.961 Q38.1912 510.025 35.3266 512.667 Q32.4621 515.277 32.4621 519.605 Q32.4621 524.507 35.2312 527.467 Q38.0002 530.395 43.0292 530.841 L42.9973 509.961 Z" fill="#000000" fill-rule="nonzero" fill-opacity="1" /><path clip-path="url(#clip320)" d="M14.479 474.313 L14.479 460.818 L19.0304 460.818 L19.0304 468.457 L68.0464 468.457 L68.0464 460.818 L72.5979 460.818 L72.5979 474.313 L14.479 474.313 Z" fill="#000000" fill-rule="nonzero" fill-opacity="1" /><path clip-path="url(#clip320)" d="M58.5933 446.4 L58.5933 435.896 L22.3406 435.896 L24.6323 447.323 L18.7758 447.323 L16.4842 435.96 L16.4842 429.531 L58.5933 429.531 L58.5933 419.027 L64.0042 419.027 L64.0042 446.4 L58.5933 446.4 Z" fill="#000000" fill-rule="nonzero" fill-opacity="1" /><path clip-path="url(#clip320)" d="M16.4842 396.461 L16.4842 391.05 L70.0516 407.601 L70.0516 413.012 L16.4842 396.461 Z" fill="#000000" fill-rule="nonzero" fill-opacity="1" /><path clip-path="url(#clip320)" d="M29.4065 362.182 L34.9447 362.182 Q33.6716 364.664 33.035 367.338 Q32.3984 370.011 32.3984 372.876 Q32.3984 377.236 33.7352 379.433 Q35.072 381.597 37.7456 381.597 Q39.7826 381.597 40.9603 380.037 Q42.1061 378.478 43.1565 373.767 L43.6021 371.762 Q44.9389 365.524 47.3897 362.914 Q49.8086 360.272 54.1691 360.272 Q59.1344 360.272 62.0308 364.219 Q64.9272 368.133 64.9272 375.008 Q64.9272 377.873 64.3543 380.992 Q63.8132 384.08 62.6992 387.517 L56.6518 387.517 Q58.3387 384.271 59.198 381.12 Q60.0256 377.969 60.0256 374.881 Q60.0256 370.743 58.6251 368.515 Q57.1929 366.287 54.6147 366.287 Q52.2276 366.287 50.9545 367.911 Q49.6813 369.502 48.5037 374.945 L48.0262 376.982 Q46.8804 382.425 44.5251 384.843 Q42.138 387.262 38.0002 387.262 Q32.9713 387.262 30.2341 383.698 Q27.4968 380.133 27.4968 373.576 Q27.4968 370.33 27.9743 367.465 Q28.4517 364.601 29.4065 362.182 Z" fill="#000000" fill-rule="nonzero" fill-opacity="1" /><path clip-path="url(#clip320)" d="M14.479 337.26 L72.5979 337.26 L72.5979 350.755 L68.0464 350.755 L68.0464 343.148 L19.0304 343.148 L19.0304 350.755 L14.479 350.755 L14.479 337.26 Z" fill="#000000" fill-rule="nonzero" fill-opacity="1" /><path clip-path="url(#clip320)" d="M16.4842 311.129 L16.4842 270.929 L21.895 270.929 L21.895 287.798 L64.0042 287.798 L64.0042 294.259 L21.895 294.259 L21.895 311.129 L16.4842 311.129 Z" fill="#000000" fill-rule="nonzero" fill-opacity="1" /><path clip-path="url(#clip320)" d="M31.921 223.409 L43.6021 256.256 L55.2195 223.409 L61.0123 223.409 L46.212 264.213 L40.9285 264.213 L26.1282 223.409 L31.921 223.409 Z" fill="#000000" fill-rule="nonzero" fill-opacity="1" /><path clip-path="url(#clip320)" d="M20.7174 195.782 Q20.7174 200.747 25.6189 203.262 Q30.4887 205.744 40.2919 205.744 Q50.0633 205.744 54.9649 203.262 Q59.8346 200.747 59.8346 195.782 Q59.8346 190.785 54.9649 188.302 Q50.0633 185.788 40.2919 185.788 Q30.4887 185.788 25.6189 188.302 Q20.7174 190.785 20.7174 195.782 M15.6248 195.782 Q15.6248 187.793 21.9587 183.592 Q28.2607 179.358 40.2919 179.358 Q52.2913 179.358 58.6251 183.592 Q64.9272 187.793 64.9272 195.782 Q64.9272 203.771 58.6251 208.004 Q52.2913 212.206 40.2919 212.206 Q28.2607 212.206 21.9587 208.004 Q15.6248 203.771 15.6248 195.782 Z" fill="#000000" fill-rule="nonzero" fill-opacity="1" /><polyline clip-path="url(#clip322)" style="stroke:#009af9; stroke-linecap:round; stroke-linejoin:round; stroke-width:12; stroke-opacity:1; fill:none" points="396.992,1384.24 416.171,1384.19 435.351,1384.15 454.531,1384.12 473.711,1384.08 492.891,1384.04 512.07,1384.01 531.25,1383.97 550.43,1383.94 569.61,1383.91 588.79,1383.87 607.969,1383.84 627.149,1383.81 646.329,1383.77 665.509,1383.74 684.689,1383.71 703.868,1383.68 723.048,1383.64 742.228,1383.61 761.408,1383.58 780.588,1383.55 799.767,1383.52 818.947,1383.48 838.127,1383.45 857.307,1383.42 876.487,1383.39 895.666,1383.36 914.846,1383.33 934.026,1383.3 953.206,1383.27 972.386,1383.24 991.565,1383.21 1010.75,1383.18 1029.93,1383.15 1049.1,1383.11 1068.28,1383.08 1087.46,1383.05 1106.64,1383.02 1125.82,1382.99 1145,1382.96 1164.18,1382.93 1183.36,1382.9 1202.54,1382.87 1221.72,1382.84 1240.9,1382.81 1260.08,1382.79 1279.26,1382.76 1298.44,1382.73 1317.62,1382.7 1336.8,1382.67 1355.98,1382.64 1375.16,1382.61 1394.34,1382.58 1413.52,1382.55 1432.7,1382.52 1451.88,1382.49 1471.06,1382.46 1490.24,1382.43 1509.42,1382.4 1528.6,1382.38 1547.78,1382.35 1566.96,1382.32 1586.14,1382.29 1605.32,1382.26 1624.5,1382.23 1643.68,1382.2 1662.86,1382.17 1682.04,1382.14 1701.22,1382.12 1720.4,1382.09 1739.58,1382.06 1758.76,1382.03 1777.94,1382 1797.12,1381.97 1816.3,1381.94 1835.48,1381.92 1854.66,1381.89 1873.84,1381.86 1893.02,1381.83 1912.2,1381.8 1931.38,1381.77 1950.56,1381.75 1969.74,1381.72 1988.92,1381.69 2008.09,1381.66 2027.27,1381.63 2046.45,1381.61 2065.63,1381.58 2084.81,1381.55 2103.99,1381.52 2123.17,1381.49 2142.35,1381.47 2161.53,1381.44 2180.71,1381.41 2199.89,1381.38 2219.07,1381.35 2238.25,1381.33 2257.43,1381.3 2276.61,1381.27 2295.79,1381.24 "/>
<polyline clip-path="url(#clip322)" style="stroke:#e26f46; stroke-linecap:round; stroke-linejoin:round; stroke-width:12; stroke-opacity:1; fill:none" points="396.992,1384.24 416.171,1383.26 435.351,1382.44 454.531,1381.66 473.711,1380.91 492.891,1380.18 512.07,1379.47 531.25,1378.76 550.43,1378.07 569.61,1377.39 588.79,1376.71 607.969,1376.04 627.149,1375.37 646.329,1374.71 665.509,1374.06 684.689,1373.4 703.868,1372.76 723.048,1372.12 742.228,1371.48 761.408,1370.84 780.588,1370.21 799.767,1369.58 818.947,1368.95 838.127,1368.33 857.307,1367.71 876.487,1367.09 895.666,1366.47 914.846,1365.85 934.026,1365.24 953.206,1364.63 972.386,1364.02 991.565,1363.42 1010.75,1362.81 1029.93,1362.21 1049.1,1361.61 1068.28,1361.01 1087.46,1360.41 1106.64,1359.81 1125.82,1359.22 1145,1358.62 1164.18,1358.03 1183.36,1357.44 1202.54,1356.85 1221.72,1356.26 1240.9,1355.67 1260.08,1355.09 1279.26,1354.5 1298.44,1353.92 1317.62,1353.33 1336.8,1352.75 1355.98,1352.17 1375.16,1351.59 1394.34,1351.01 1413.52,1350.44 1432.7,1349.86 1451.88,1349.28 1471.06,1348.71 1490.24,1348.14 1509.42,1347.56 1528.6,1346.99 1547.78,1346.42 1566.96,1345.85 1586.14,1345.28 1605.32,1344.71 1624.5,1344.14 1643.68,1343.58 1662.86,1343.01 1682.04,1342.45 1701.22,1341.88 1720.4,1341.32 1739.58,1340.75 1758.76,1340.19 1777.94,1339.63 1797.12,1339.07 1816.3,1338.51 1835.48,1337.95 1854.66,1337.39 1873.84,1336.83 1893.02,1336.27 1912.2,1335.71 1931.38,1335.16 1950.56,1334.6 1969.74,1334.05 1988.92,1333.49 2008.09,1332.94 2027.27,1332.38 2046.45,1331.83 2065.63,1331.28 2084.81,1330.73 2103.99,1330.18 2123.17,1329.62 2142.35,1329.07 2161.53,1328.53 2180.71,1327.98 2199.89,1327.43 2219.07,1326.88 2238.25,1326.33 2257.43,1325.78 2276.61,1325.24 2295.79,1324.69 "/>
<polyline clip-path="url(#clip322)" style="stroke:#3da44d; stroke-linecap:round; stroke-linejoin:round; stroke-width:12; stroke-opacity:1; fill:none" points="396.992,1384.21 416.171,1359.43 435.351,1339.66 454.531,1321.32 473.711,1303.83 492.891,1286.93 512.07,1270.49 531.25,1254.4 550.43,1238.62 569.61,1223.1 588.79,1207.8 607.969,1192.69 627.149,1177.77 646.329,1163 665.509,1148.37 684.689,1133.87 703.868,1119.5 723.048,1105.24 742.228,1091.09 761.408,1077.03 780.588,1063.06 799.767,1049.18 818.947,1035.38 838.127,1021.66 857.307,1008.01 876.487,994.431 895.666,980.918 914.846,967.468 934.026,954.078 953.206,940.747 972.386,927.471 991.565,914.248 1010.75,901.076 1029.93,887.954 1049.1,874.88 1068.28,861.852 1087.46,848.868 1106.64,835.927 1125.82,823.028 1145,810.169 1164.18,797.35 1183.36,784.568 1202.54,771.823 1221.72,759.114 1240.9,746.44 1260.08,733.8 1279.26,721.193 1298.44,708.618 1317.62,696.074 1336.8,683.561 1355.98,671.078 1375.16,658.624 1394.34,646.199 1413.52,633.802 1432.7,621.431 1451.88,609.088 1471.06,596.77 1490.24,584.478 1509.42,572.211 1528.6,559.969 1547.78,547.751 1566.96,535.556 1586.14,523.384 1605.32,511.235 1624.5,499.108 1643.68,487.003 1662.86,474.919 1682.04,462.856 1701.22,450.814 1720.4,438.793 1739.58,426.791 1758.76,414.809 1777.94,402.846 1797.12,390.903 1816.3,378.978 1835.48,367.071 1854.66,355.183 1873.84,343.312 1893.02,331.459 1912.2,319.623 1931.38,307.804 1950.56,296.002 1969.74,284.216 1988.92,272.447 2008.09,260.694 2027.27,248.957 2046.45,237.235 2065.63,225.529 2084.81,213.838 2103.99,202.162 2123.17,190.501 2142.35,178.854 2161.53,167.222 2180.71,155.604 2199.89,144 2219.07,132.41 2238.25,120.834 2257.43,109.271 2276.61,97.7218 2295.79,86.1857 "/>
<path clip-path="url(#clip320)" d="M407.119 300.469 L894.987 300.469 L894.987 93.1086 L407.119 93.1086  Z" fill="#ffffff" fill-rule="evenodd" fill-opacity="1"/>
<polyline clip-path="url(#clip320)" style="stroke:#000000; stroke-linecap:round; stroke-linejoin:round; stroke-width:4; stroke-opacity:1; fill:none" points="407.119,300.469 894.987,300.469 894.987,93.1086 407.119,93.1086 407.119,300.469 "/>
<polyline clip-path="url(#clip320)" style="stroke:#009af9; stroke-linecap:round; stroke-linejoin:round; stroke-width:12; stroke-opacity:1; fill:none" points="429.482,144.949 563.664,144.949 "/>
<path clip-path="url(#clip320)" d="M590.426 149.289 Q590.426 153.988 592.347 156.673 Q594.292 159.335 597.671 159.335 Q601.051 159.335 602.995 156.673 Q604.94 153.988 604.94 149.289 Q604.94 144.59 602.995 141.928 Q601.051 139.243 597.671 139.243 Q594.292 139.243 592.347 141.928 Q590.426 144.59 590.426 149.289 M604.94 158.34 Q603.597 160.655 601.537 161.789 Q599.5 162.9 596.63 162.9 Q591.931 162.9 588.968 159.15 Q586.028 155.4 586.028 149.289 Q586.028 143.178 588.968 139.428 Q591.931 135.678 596.63 135.678 Q599.5 135.678 601.537 136.812 Q603.597 137.923 604.94 140.238 L604.94 136.303 L609.199 136.303 L609.199 172.09 L604.94 172.09 L604.94 158.34 Z" fill="#000000" fill-rule="nonzero" fill-opacity="1" /><path clip-path="url(#clip320)" d="M637.671 170.099 L637.671 173.409 L613.042 173.409 L613.042 170.099 L637.671 170.099 Z" fill="#000000" fill-rule="nonzero" fill-opacity="1" /><path clip-path="url(#clip320)" d="M656.699 140.284 Q655.981 139.868 655.125 139.682 Q654.291 139.474 653.273 139.474 Q649.662 139.474 647.717 141.835 Q645.796 144.173 645.796 148.571 L645.796 162.229 L641.514 162.229 L641.514 136.303 L645.796 136.303 L645.796 140.331 Q647.139 137.969 649.291 136.835 Q651.444 135.678 654.523 135.678 Q654.963 135.678 655.495 135.747 Q656.027 135.794 656.676 135.909 L656.699 140.284 Z" fill="#000000" fill-rule="nonzero" fill-opacity="1" /><path clip-path="url(#clip320)" d="M672.949 149.196 Q667.787 149.196 665.796 150.377 Q663.805 151.557 663.805 154.405 Q663.805 156.673 665.287 158.016 Q666.791 159.335 669.361 159.335 Q672.902 159.335 675.032 156.835 Q677.185 154.312 677.185 150.145 L677.185 149.196 L672.949 149.196 M681.444 147.437 L681.444 162.229 L677.185 162.229 L677.185 158.293 Q675.726 160.655 673.55 161.789 Q671.375 162.9 668.226 162.9 Q664.245 162.9 661.884 160.678 Q659.546 158.432 659.546 154.682 Q659.546 150.307 662.463 148.085 Q665.402 145.863 671.213 145.863 L677.185 145.863 L677.185 145.446 Q677.185 142.507 675.24 140.909 Q673.319 139.289 669.824 139.289 Q667.601 139.289 665.495 139.821 Q663.388 140.354 661.444 141.419 L661.444 137.483 Q663.782 136.581 665.981 136.141 Q668.18 135.678 670.263 135.678 Q675.888 135.678 678.666 138.594 Q681.444 141.511 681.444 147.437 Z" fill="#000000" fill-rule="nonzero" fill-opacity="1" /><path clip-path="url(#clip320)" d="M690.217 136.303 L694.476 136.303 L694.476 162.229 L690.217 162.229 L690.217 136.303 M690.217 126.21 L694.476 126.21 L694.476 131.604 L690.217 131.604 L690.217 126.21 Z" fill="#000000" fill-rule="nonzero" fill-opacity="1" /><path clip-path="url(#clip320)" d="M724.939 146.581 L724.939 162.229 L720.68 162.229 L720.68 146.719 Q720.68 143.039 719.245 141.21 Q717.809 139.382 714.939 139.382 Q711.49 139.382 709.499 141.581 Q707.509 143.78 707.509 147.576 L707.509 162.229 L703.226 162.229 L703.226 136.303 L707.509 136.303 L707.509 140.331 Q709.036 137.993 711.097 136.835 Q713.18 135.678 715.888 135.678 Q720.356 135.678 722.647 138.456 Q724.939 141.21 724.939 146.581 Z" fill="#000000" fill-rule="nonzero" fill-opacity="1" /><path clip-path="url(#clip320)" d="M733.99 140.701 L763.666 140.701 L763.666 144.59 L733.99 144.59 L733.99 140.701 M733.99 150.145 L763.666 150.145 L763.666 154.081 L733.99 154.081 L733.99 150.145 Z" fill="#000000" fill-rule="nonzero" fill-opacity="1" /><path clip-path="url(#clip320)" d="M774.568 158.293 L782.207 158.293 L782.207 131.928 L773.897 133.595 L773.897 129.335 L782.161 127.669 L786.837 127.669 L786.837 158.293 L794.476 158.293 L794.476 162.229 L774.568 162.229 L774.568 158.293 Z" fill="#000000" fill-rule="nonzero" fill-opacity="1" /><path clip-path="url(#clip320)" d="M825.494 148.201 L825.494 150.284 L805.911 150.284 Q806.189 154.682 808.55 156.997 Q810.934 159.289 815.17 159.289 Q817.624 159.289 819.915 158.687 Q822.23 158.085 824.499 156.881 L824.499 160.909 Q822.207 161.881 819.8 162.391 Q817.392 162.9 814.915 162.9 Q808.712 162.9 805.078 159.289 Q801.466 155.678 801.466 149.52 Q801.466 143.155 804.892 139.428 Q808.341 135.678 814.175 135.678 Q819.406 135.678 822.439 139.057 Q825.494 142.414 825.494 148.201 M821.235 146.951 Q821.189 143.456 819.267 141.372 Q817.369 139.289 814.221 139.289 Q810.656 139.289 808.503 141.303 Q806.374 143.317 806.05 146.974 L821.235 146.951 Z" fill="#000000" fill-rule="nonzero" fill-opacity="1" /><path clip-path="url(#clip320)" d="M830.332 147.344 L842.809 147.344 L842.809 151.141 L830.332 151.141 L830.332 147.344 Z" fill="#000000" fill-rule="nonzero" fill-opacity="1" /><path clip-path="url(#clip320)" d="M860.772 143.085 Q857.624 143.085 855.772 145.238 Q853.943 147.391 853.943 151.141 Q853.943 154.868 855.772 157.043 Q857.624 159.196 860.772 159.196 Q863.92 159.196 865.749 157.043 Q867.6 154.868 867.6 151.141 Q867.6 147.391 865.749 145.238 Q863.92 143.085 860.772 143.085 M870.054 128.433 L870.054 132.692 Q868.295 131.858 866.489 131.419 Q864.707 130.979 862.948 130.979 Q858.318 130.979 855.864 134.104 Q853.434 137.229 853.087 143.548 Q854.452 141.534 856.512 140.469 Q858.573 139.382 861.049 139.382 Q866.258 139.382 869.267 142.553 Q872.299 145.701 872.299 151.141 Q872.299 156.465 869.151 159.682 Q866.003 162.9 860.772 162.9 Q854.776 162.9 851.605 158.317 Q848.434 153.71 848.434 144.983 Q848.434 136.789 852.323 131.928 Q856.212 127.044 862.762 127.044 Q864.522 127.044 866.304 127.391 Q868.11 127.738 870.054 128.433 Z" fill="#000000" fill-rule="nonzero" fill-opacity="1" /><polyline clip-path="url(#clip320)" style="stroke:#e26f46; stroke-linecap:round; stroke-linejoin:round; stroke-width:12; stroke-opacity:1; fill:none" points="429.482,196.789 563.664,196.789 "/>
<path clip-path="url(#clip320)" d="M590.426 201.129 Q590.426 205.828 592.347 208.513 Q594.292 211.175 597.671 211.175 Q601.051 211.175 602.995 208.513 Q604.94 205.828 604.94 201.129 Q604.94 196.43 602.995 193.768 Q601.051 191.083 597.671 191.083 Q594.292 191.083 592.347 193.768 Q590.426 196.43 590.426 201.129 M604.94 210.18 Q603.597 212.495 601.537 213.629 Q599.5 214.74 596.63 214.74 Q591.931 214.74 588.968 210.99 Q586.028 207.24 586.028 201.129 Q586.028 195.018 588.968 191.268 Q591.931 187.518 596.63 187.518 Q599.5 187.518 601.537 188.652 Q603.597 189.763 604.94 192.078 L604.94 188.143 L609.199 188.143 L609.199 223.93 L604.94 223.93 L604.94 210.18 Z" fill="#000000" fill-rule="nonzero" fill-opacity="1" /><path clip-path="url(#clip320)" d="M637.671 221.939 L637.671 225.249 L613.042 225.249 L613.042 221.939 L637.671 221.939 Z" fill="#000000" fill-rule="nonzero" fill-opacity="1" /><path clip-path="url(#clip320)" d="M656.699 192.124 Q655.981 191.708 655.125 191.522 Q654.291 191.314 653.273 191.314 Q649.662 191.314 647.717 193.675 Q645.796 196.013 645.796 200.411 L645.796 214.069 L641.514 214.069 L641.514 188.143 L645.796 188.143 L645.796 192.171 Q647.139 189.809 649.291 188.675 Q651.444 187.518 654.523 187.518 Q654.963 187.518 655.495 187.587 Q656.027 187.634 656.676 187.749 L656.699 192.124 Z" fill="#000000" fill-rule="nonzero" fill-opacity="1" /><path clip-path="url(#clip320)" d="M672.949 201.036 Q667.787 201.036 665.796 202.217 Q663.805 203.397 663.805 206.245 Q663.805 208.513 665.287 209.856 Q666.791 211.175 669.361 211.175 Q672.902 211.175 675.032 208.675 Q677.185 206.152 677.185 201.985 L677.185 201.036 L672.949 201.036 M681.444 199.277 L681.444 214.069 L677.185 214.069 L677.185 210.133 Q675.726 212.495 673.55 213.629 Q671.375 214.74 668.226 214.74 Q664.245 214.74 661.884 212.518 Q659.546 210.272 659.546 206.522 Q659.546 202.147 662.463 199.925 Q665.402 197.703 671.213 197.703 L677.185 197.703 L677.185 197.286 Q677.185 194.347 675.24 192.749 Q673.319 191.129 669.824 191.129 Q667.601 191.129 665.495 191.661 Q663.388 192.194 661.444 193.259 L661.444 189.323 Q663.782 188.421 665.981 187.981 Q668.18 187.518 670.263 187.518 Q675.888 187.518 678.666 190.434 Q681.444 193.351 681.444 199.277 Z" fill="#000000" fill-rule="nonzero" fill-opacity="1" /><path clip-path="url(#clip320)" d="M690.217 188.143 L694.476 188.143 L694.476 214.069 L690.217 214.069 L690.217 188.143 M690.217 178.05 L694.476 178.05 L694.476 183.444 L690.217 183.444 L690.217 178.05 Z" fill="#000000" fill-rule="nonzero" fill-opacity="1" /><path clip-path="url(#clip320)" d="M724.939 198.421 L724.939 214.069 L720.68 214.069 L720.68 198.559 Q720.68 194.879 719.245 193.05 Q717.809 191.222 714.939 191.222 Q711.49 191.222 709.499 193.421 Q707.509 195.62 707.509 199.416 L707.509 214.069 L703.226 214.069 L703.226 188.143 L707.509 188.143 L707.509 192.171 Q709.036 189.833 711.097 188.675 Q713.18 187.518 715.888 187.518 Q720.356 187.518 722.647 190.296 Q724.939 193.05 724.939 198.421 Z" fill="#000000" fill-rule="nonzero" fill-opacity="1" /><path clip-path="url(#clip320)" d="M733.99 192.541 L763.666 192.541 L763.666 196.43 L733.99 196.43 L733.99 192.541 M733.99 201.985 L763.666 201.985 L763.666 205.921 L733.99 205.921 L733.99 201.985 Z" fill="#000000" fill-rule="nonzero" fill-opacity="1" /><path clip-path="url(#clip320)" d="M774.568 210.133 L782.207 210.133 L782.207 183.768 L773.897 185.435 L773.897 181.175 L782.161 179.509 L786.837 179.509 L786.837 210.133 L794.476 210.133 L794.476 214.069 L774.568 214.069 L774.568 210.133 Z" fill="#000000" fill-rule="nonzero" fill-opacity="1" /><path clip-path="url(#clip320)" d="M825.494 200.041 L825.494 202.124 L805.911 202.124 Q806.189 206.522 808.55 208.837 Q810.934 211.129 815.17 211.129 Q817.624 211.129 819.915 210.527 Q822.23 209.925 824.499 208.721 L824.499 212.749 Q822.207 213.721 819.8 214.231 Q817.392 214.74 814.915 214.74 Q808.712 214.74 805.078 211.129 Q801.466 207.518 801.466 201.36 Q801.466 194.995 804.892 191.268 Q808.341 187.518 814.175 187.518 Q819.406 187.518 822.439 190.897 Q825.494 194.254 825.494 200.041 M821.235 198.791 Q821.189 195.296 819.267 193.212 Q817.369 191.129 814.221 191.129 Q810.656 191.129 808.503 193.143 Q806.374 195.157 806.05 198.814 L821.235 198.791 Z" fill="#000000" fill-rule="nonzero" fill-opacity="1" /><path clip-path="url(#clip320)" d="M830.332 199.184 L842.809 199.184 L842.809 202.981 L830.332 202.981 L830.332 199.184 Z" fill="#000000" fill-rule="nonzero" fill-opacity="1" /><path clip-path="url(#clip320)" d="M850.239 179.509 L868.596 179.509 L868.596 183.444 L854.522 183.444 L854.522 191.916 Q855.54 191.569 856.559 191.407 Q857.577 191.222 858.596 191.222 Q864.383 191.222 867.762 194.393 Q871.142 197.564 871.142 202.981 Q871.142 208.559 867.67 211.661 Q864.198 214.74 857.878 214.74 Q855.702 214.74 853.434 214.37 Q851.188 213.999 848.781 213.258 L848.781 208.559 Q850.864 209.694 853.087 210.249 Q855.309 210.805 857.786 210.805 Q861.79 210.805 864.128 208.698 Q866.466 206.592 866.466 202.981 Q866.466 199.37 864.128 197.263 Q861.79 195.157 857.786 195.157 Q855.911 195.157 854.036 195.573 Q852.184 195.99 850.239 196.87 L850.239 179.509 Z" fill="#000000" fill-rule="nonzero" fill-opacity="1" /><polyline clip-path="url(#clip320)" style="stroke:#3da44d; stroke-linecap:round; stroke-linejoin:round; stroke-width:12; stroke-opacity:1; fill:none" points="429.482,248.629 563.664,248.629 "/>
<path clip-path="url(#clip320)" d="M590.426 252.969 Q590.426 257.668 592.347 260.353 Q594.292 263.015 597.671 263.015 Q601.051 263.015 602.995 260.353 Q604.94 257.668 604.94 252.969 Q604.94 248.27 602.995 245.608 Q601.051 242.923 597.671 242.923 Q594.292 242.923 592.347 245.608 Q590.426 248.27 590.426 252.969 M604.94 262.02 Q603.597 264.335 601.537 265.469 Q599.5 266.58 596.63 266.58 Q591.931 266.58 588.968 262.83 Q586.028 259.08 586.028 252.969 Q586.028 246.858 588.968 243.108 Q591.931 239.358 596.63 239.358 Q599.5 239.358 601.537 240.492 Q603.597 241.603 604.94 243.918 L604.94 239.983 L609.199 239.983 L609.199 275.77 L604.94 275.77 L604.94 262.02 Z" fill="#000000" fill-rule="nonzero" fill-opacity="1" /><path clip-path="url(#clip320)" d="M637.671 273.779 L637.671 277.089 L613.042 277.089 L613.042 273.779 L637.671 273.779 Z" fill="#000000" fill-rule="nonzero" fill-opacity="1" /><path clip-path="url(#clip320)" d="M656.699 243.964 Q655.981 243.548 655.125 243.362 Q654.291 243.154 653.273 243.154 Q649.662 243.154 647.717 245.515 Q645.796 247.853 645.796 252.251 L645.796 265.909 L641.514 265.909 L641.514 239.983 L645.796 239.983 L645.796 244.011 Q647.139 241.649 649.291 240.515 Q651.444 239.358 654.523 239.358 Q654.963 239.358 655.495 239.427 Q656.027 239.474 656.676 239.589 L656.699 243.964 Z" fill="#000000" fill-rule="nonzero" fill-opacity="1" /><path clip-path="url(#clip320)" d="M672.949 252.876 Q667.787 252.876 665.796 254.057 Q663.805 255.237 663.805 258.085 Q663.805 260.353 665.287 261.696 Q666.791 263.015 669.361 263.015 Q672.902 263.015 675.032 260.515 Q677.185 257.992 677.185 253.825 L677.185 252.876 L672.949 252.876 M681.444 251.117 L681.444 265.909 L677.185 265.909 L677.185 261.973 Q675.726 264.335 673.55 265.469 Q671.375 266.58 668.226 266.58 Q664.245 266.58 661.884 264.358 Q659.546 262.112 659.546 258.362 Q659.546 253.987 662.463 251.765 Q665.402 249.543 671.213 249.543 L677.185 249.543 L677.185 249.126 Q677.185 246.187 675.24 244.589 Q673.319 242.969 669.824 242.969 Q667.601 242.969 665.495 243.501 Q663.388 244.034 661.444 245.099 L661.444 241.163 Q663.782 240.261 665.981 239.821 Q668.18 239.358 670.263 239.358 Q675.888 239.358 678.666 242.274 Q681.444 245.191 681.444 251.117 Z" fill="#000000" fill-rule="nonzero" fill-opacity="1" /><path clip-path="url(#clip320)" d="M690.217 239.983 L694.476 239.983 L694.476 265.909 L690.217 265.909 L690.217 239.983 M690.217 229.89 L694.476 229.89 L694.476 235.284 L690.217 235.284 L690.217 229.89 Z" fill="#000000" fill-rule="nonzero" fill-opacity="1" /><path clip-path="url(#clip320)" d="M724.939 250.261 L724.939 265.909 L720.68 265.909 L720.68 250.399 Q720.68 246.719 719.245 244.89 Q717.809 243.062 714.939 243.062 Q711.49 243.062 709.499 245.261 Q707.509 247.46 707.509 251.256 L707.509 265.909 L703.226 265.909 L703.226 239.983 L707.509 239.983 L707.509 244.011 Q709.036 241.673 711.097 240.515 Q713.18 239.358 715.888 239.358 Q720.356 239.358 722.647 242.136 Q724.939 244.89 724.939 250.261 Z" fill="#000000" fill-rule="nonzero" fill-opacity="1" /><path clip-path="url(#clip320)" d="M733.99 244.381 L763.666 244.381 L763.666 248.27 L733.99 248.27 L733.99 244.381 M733.99 253.825 L763.666 253.825 L763.666 257.761 L733.99 257.761 L733.99 253.825 Z" fill="#000000" fill-rule="nonzero" fill-opacity="1" /><path clip-path="url(#clip320)" d="M774.568 261.973 L782.207 261.973 L782.207 235.608 L773.897 237.275 L773.897 233.015 L782.161 231.349 L786.837 231.349 L786.837 261.973 L794.476 261.973 L794.476 265.909 L774.568 265.909 L774.568 261.973 Z" fill="#000000" fill-rule="nonzero" fill-opacity="1" /><path clip-path="url(#clip320)" d="M825.494 251.881 L825.494 253.964 L805.911 253.964 Q806.189 258.362 808.55 260.677 Q810.934 262.969 815.17 262.969 Q817.624 262.969 819.915 262.367 Q822.23 261.765 824.499 260.561 L824.499 264.589 Q822.207 265.561 819.8 266.071 Q817.392 266.58 814.915 266.58 Q808.712 266.58 805.078 262.969 Q801.466 259.358 801.466 253.2 Q801.466 246.835 804.892 243.108 Q808.341 239.358 814.175 239.358 Q819.406 239.358 822.439 242.737 Q825.494 246.094 825.494 251.881 M821.235 250.631 Q821.189 247.136 819.267 245.052 Q817.369 242.969 814.221 242.969 Q810.656 242.969 808.503 244.983 Q806.374 246.997 806.05 250.654 L821.235 250.631 Z" fill="#000000" fill-rule="nonzero" fill-opacity="1" /><path clip-path="url(#clip320)" d="M830.332 251.024 L842.809 251.024 L842.809 254.821 L830.332 254.821 L830.332 251.024 Z" fill="#000000" fill-rule="nonzero" fill-opacity="1" /><path clip-path="url(#clip320)" d="M863.04 235.423 L851.235 253.872 L863.04 253.872 L863.04 235.423 M861.813 231.349 L867.693 231.349 L867.693 253.872 L872.623 253.872 L872.623 257.761 L867.693 257.761 L867.693 265.909 L863.04 265.909 L863.04 257.761 L847.438 257.761 L847.438 253.247 L861.813 231.349 Z" fill="#000000" fill-rule="nonzero" fill-opacity="1" /></svg>
