<?xml version="1.0" encoding="utf-8"?>
<svg xmlns="http://www.w3.org/2000/svg" xmlns:xlink="http://www.w3.org/1999/xlink" width="600" height="400" viewBox="0 0 2400 1600">
<defs>
  <clipPath id="clip470">
    <rect x="0" y="0" width="2400" height="1600"/>
  </clipPath>
</defs>
<path clip-path="url(#clip470)" d="M0 1600 L2400 1600 L2400 0 L0 0  Z" fill="#ffffff" fill-rule="evenodd" fill-opacity="1"/>
<defs>
  <clipPath id="clip471">
    <rect x="480" y="0" width="1681" height="1600"/>
  </clipPath>
</defs>
<path clip-path="url(#clip470)" d="M252.764 1410.9 L2352.76 1410.9 L2352.76 47.2441 L252.764 47.2441  Z" fill="#ffffff" fill-rule="evenodd" fill-opacity="1"/>
<defs>
  <clipPath id="clip472">
    <rect x="252" y="47" width="2101" height="1365"/>
  </clipPath>
</defs>
<polyline clip-path="url(#clip472)" style="stroke:#000000; stroke-linecap:round; stroke-linejoin:round; stroke-width:2; stroke-opacity:0.1; fill:none" points="312.198,1410.9 312.198,47.2441 "/>
<polyline clip-path="url(#clip472)" style="stroke:#000000; stroke-linecap:round; stroke-linejoin:round; stroke-width:2; stroke-opacity:0.1; fill:none" points="778.345,1410.9 778.345,47.2441 "/>
<polyline clip-path="url(#clip472)" style="stroke:#000000; stroke-linecap:round; stroke-linejoin:round; stroke-width:2; stroke-opacity:0.1; fill:none" points="1244.49,1410.9 1244.49,47.2441 "/>
<polyline clip-path="url(#clip472)" style="stroke:#000000; stroke-linecap:round; stroke-linejoin:round; stroke-width:2; stroke-opacity:0.1; fill:none" points="1710.64,1410.9 1710.64,47.2441 "/>
<polyline clip-path="url(#clip472)" style="stroke:#000000; stroke-linecap:round; stroke-linejoin:round; stroke-width:2; stroke-opacity:0.1; fill:none" points="2176.79,1410.9 2176.79,47.2441 "/>
<polyline clip-path="url(#clip470)" style="stroke:#000000; stroke-linecap:round; stroke-linejoin:round; stroke-width:4; stroke-opacity:1; fill:none" points="252.764,1410.9 2352.76,1410.9 "/>
<polyline clip-path="url(#clip470)" style="stroke:#000000; stroke-linecap:round; stroke-linejoin:round; stroke-width:4; stroke-opacity:1; fill:none" points="312.198,1410.9 312.198,1392 "/>
<polyline clip-path="url(#clip470)" style="stroke:#000000; stroke-linecap:round; stroke-linejoin:round; stroke-width:4; stroke-opacity:1; fill:none" points="778.345,1410.9 778.345,1392 "/>
<polyline clip-path="url(#clip470)" style="stroke:#000000; stroke-linecap:round; stroke-linejoin:round; stroke-width:4; stroke-opacity:1; fill:none" points="1244.49,1410.9 1244.49,1392 "/>
<polyline clip-path="url(#clip470)" style="stroke:#000000; stroke-linecap:round; stroke-linejoin:round; stroke-width:4; stroke-opacity:1; fill:none" points="1710.64,1410.9 1710.64,1392 "/>
<polyline clip-path="url(#clip470)" style="stroke:#000000; stroke-linecap:round; stroke-linejoin:round; stroke-width:4; stroke-opacity:1; fill:none" points="2176.79,1410.9 2176.79,1392 "/>
<path clip-path="url(#clip470)" d="M277.801 1485.02 L285.44 1485.02 L285.44 1458.66 L277.13 1460.32 L277.13 1456.06 L285.394 1454.4 L290.07 1454.4 L290.07 1485.02 L297.708 1485.02 L297.708 1488.96 L277.801 1488.96 L277.801 1485.02 Z" fill="#000000" fill-rule="nonzero" fill-opacity="1" /><path clip-path="url(#clip470)" d="M317.153 1457.48 Q313.542 1457.48 311.713 1461.04 Q309.907 1464.58 309.907 1471.71 Q309.907 1478.82 311.713 1482.38 Q313.542 1485.92 317.153 1485.92 Q320.787 1485.92 322.593 1482.38 Q324.421 1478.82 324.421 1471.71 Q324.421 1464.58 322.593 1461.04 Q320.787 1457.48 317.153 1457.48 M317.153 1453.77 Q322.963 1453.77 326.019 1458.38 Q329.097 1462.96 329.097 1471.71 Q329.097 1480.44 326.019 1485.04 Q322.963 1489.63 317.153 1489.63 Q311.343 1489.63 308.264 1485.04 Q305.208 1480.44 305.208 1471.71 Q305.208 1462.96 308.264 1458.38 Q311.343 1453.77 317.153 1453.77 Z" fill="#000000" fill-rule="nonzero" fill-opacity="1" /><path clip-path="url(#clip470)" d="M330.282 1433.47 L345.197 1433.47 L345.197 1436.66 L333.762 1436.66 L333.762 1443.55 Q334.589 1443.27 335.417 1443.13 Q336.244 1442.98 337.072 1442.98 Q341.774 1442.98 344.52 1445.56 Q347.265 1448.14 347.265 1452.54 Q347.265 1457.07 344.444 1459.59 Q341.623 1462.09 336.489 1462.09 Q334.721 1462.09 332.878 1461.79 Q331.053 1461.49 329.097 1460.89 L329.097 1457.07 Q330.79 1457.99 332.595 1458.44 Q334.401 1458.89 336.413 1458.89 Q339.667 1458.89 341.567 1457.18 Q343.466 1455.47 343.466 1452.54 Q343.466 1449.6 341.567 1447.89 Q339.667 1446.18 336.413 1446.18 Q334.89 1446.18 333.367 1446.52 Q331.862 1446.86 330.282 1447.57 L330.282 1433.47 Z" fill="#000000" fill-rule="nonzero" fill-opacity="1" /><path clip-path="url(#clip470)" d="M743.337 1485.02 L750.976 1485.02 L750.976 1458.66 L742.666 1460.32 L742.666 1456.06 L750.929 1454.4 L755.605 1454.4 L755.605 1485.02 L763.244 1485.02 L763.244 1488.96 L743.337 1488.96 L743.337 1485.02 Z" fill="#000000" fill-rule="nonzero" fill-opacity="1" /><path clip-path="url(#clip470)" d="M782.688 1457.48 Q779.077 1457.48 777.249 1461.04 Q775.443 1464.58 775.443 1471.71 Q775.443 1478.82 777.249 1482.38 Q779.077 1485.92 782.688 1485.92 Q786.323 1485.92 788.128 1482.38 Q789.957 1478.82 789.957 1471.71 Q789.957 1464.58 788.128 1461.04 Q786.323 1457.48 782.688 1457.48 M782.688 1453.77 Q788.499 1453.77 791.554 1458.38 Q794.633 1462.96 794.633 1471.71 Q794.633 1480.44 791.554 1485.04 Q788.499 1489.63 782.688 1489.63 Q776.878 1489.63 773.8 1485.04 Q770.744 1480.44 770.744 1471.71 Q770.744 1462.96 773.8 1458.38 Q776.878 1453.77 782.688 1453.77 Z" fill="#000000" fill-rule="nonzero" fill-opacity="1" /><path clip-path="url(#clip470)" d="M804.657 1445.99 Q802.1 1445.99 800.595 1447.74 Q799.109 1449.49 799.109 1452.54 Q799.109 1455.57 800.595 1457.33 Q802.1 1459.08 804.657 1459.08 Q807.215 1459.08 808.701 1457.33 Q810.206 1455.57 810.206 1452.54 Q810.206 1449.49 808.701 1447.74 Q807.215 1445.99 804.657 1445.99 M812.199 1434.09 L812.199 1437.55 Q810.77 1436.87 809.303 1436.51 Q807.855 1436.16 806.425 1436.16 Q802.664 1436.16 800.67 1438.69 Q798.695 1441.23 798.413 1446.37 Q799.523 1444.73 801.197 1443.87 Q802.871 1442.98 804.883 1442.98 Q809.115 1442.98 811.56 1445.56 Q814.024 1448.12 814.024 1452.54 Q814.024 1456.86 811.466 1459.48 Q808.908 1462.09 804.657 1462.09 Q799.786 1462.09 797.21 1458.37 Q794.633 1454.62 794.633 1447.53 Q794.633 1440.88 797.793 1436.93 Q800.952 1432.96 806.275 1432.96 Q807.704 1432.96 809.152 1433.24 Q810.619 1433.52 812.199 1434.09 Z" fill="#000000" fill-rule="nonzero" fill-opacity="1" /><path clip-path="url(#clip470)" d="M1210.15 1485.02 L1217.79 1485.02 L1217.79 1458.66 L1209.48 1460.32 L1209.48 1456.06 L1217.74 1454.4 L1222.42 1454.4 L1222.42 1485.02 L1230.06 1485.02 L1230.06 1488.96 L1210.15 1488.96 L1210.15 1485.02 Z" fill="#000000" fill-rule="nonzero" fill-opacity="1" /><path clip-path="url(#clip470)" d="M1249.5 1457.48 Q1245.89 1457.48 1244.06 1461.04 Q1242.26 1464.58 1242.26 1471.71 Q1242.26 1478.82 1244.06 1482.38 Q1245.89 1485.92 1249.5 1485.92 Q1253.14 1485.92 1254.94 1482.38 Q1256.77 1478.82 1256.77 1471.71 Q1256.77 1464.58 1254.94 1461.04 Q1253.14 1457.48 1249.5 1457.48 M1249.5 1453.77 Q1255.31 1453.77 1258.37 1458.38 Q1261.45 1462.96 1261.45 1471.71 Q1261.45 1480.44 1258.37 1485.04 Q1255.31 1489.63 1249.5 1489.63 Q1243.69 1489.63 1240.61 1485.04 Q1237.56 1480.44 1237.56 1471.71 Q1237.56 1462.96 1240.61 1458.38 Q1243.69 1453.77 1249.5 1453.77 Z" fill="#000000" fill-rule="nonzero" fill-opacity="1" /><path clip-path="url(#clip470)" d="M1261.45 1433.47 L1279.5 1433.47 L1279.5 1435.08 L1269.31 1461.55 L1265.34 1461.55 L1274.93 1436.66 L1261.45 1436.66 L1261.45 1433.47 Z" fill="#000000" fill-rule="nonzero" fill-opacity="1" /><path clip-path="url(#clip470)" d="M1675.7 1485.02 L1683.34 1485.02 L1683.34 1458.66 L1675.03 1460.32 L1675.03 1456.06 L1683.29 1454.4 L1687.97 1454.4 L1687.97 1485.02 L1695.6 1485.02 L1695.6 1488.96 L1675.7 1488.96 L1675.7 1485.02 Z" fill="#000000" fill-rule="nonzero" fill-opacity="1" /><path clip-path="url(#clip470)" d="M1715.05 1457.48 Q1711.44 1457.48 1709.61 1461.04 Q1707.8 1464.58 1707.8 1471.71 Q1707.8 1478.82 1709.61 1482.38 Q1711.44 1485.92 1715.05 1485.92 Q1718.68 1485.92 1720.49 1482.38 Q1722.32 1478.82 1722.32 1471.71 Q1722.32 1464.58 1720.49 1461.04 Q1718.68 1457.48 1715.05 1457.48 M1715.05 1453.77 Q1720.86 1453.77 1723.91 1458.38 Q1726.99 1462.96 1726.99 1471.71 Q1726.99 1480.44 1723.91 1485.04 Q1720.86 1489.63 1715.05 1489.63 Q1709.24 1489.63 1706.16 1485.04 Q1703.1 1480.44 1703.1 1471.71 Q1703.1 1462.96 1706.16 1458.38 Q1709.24 1453.77 1715.05 1453.77 Z" fill="#000000" fill-rule="nonzero" fill-opacity="1" /><path clip-path="url(#clip470)" d="M1736.62 1448.21 Q1733.91 1448.21 1732.35 1449.66 Q1730.81 1451.11 1730.81 1453.65 Q1730.81 1456.19 1732.35 1457.63 Q1733.91 1459.08 1736.62 1459.08 Q1739.33 1459.08 1740.89 1457.63 Q1742.45 1456.17 1742.45 1453.65 Q1742.45 1451.11 1740.89 1449.66 Q1739.35 1448.21 1736.62 1448.21 M1732.82 1446.59 Q1730.38 1445.99 1729.01 1444.32 Q1727.65 1442.64 1727.65 1440.24 Q1727.65 1436.87 1730.04 1434.91 Q1732.45 1432.96 1736.62 1432.96 Q1740.82 1432.96 1743.2 1434.91 Q1745.59 1436.87 1745.59 1440.24 Q1745.59 1442.64 1744.22 1444.32 Q1742.87 1445.99 1740.44 1446.59 Q1743.19 1447.23 1744.71 1449.1 Q1746.25 1450.96 1746.25 1453.65 Q1746.25 1457.73 1743.75 1459.91 Q1741.27 1462.09 1736.62 1462.09 Q1731.98 1462.09 1729.48 1459.91 Q1726.99 1457.73 1726.99 1453.65 Q1726.99 1450.96 1728.53 1449.1 Q1730.08 1447.23 1732.82 1446.59 M1731.43 1440.59 Q1731.43 1442.78 1732.79 1444 Q1734.16 1445.22 1736.62 1445.22 Q1739.07 1445.22 1740.44 1444 Q1741.83 1442.78 1741.83 1440.59 Q1741.83 1438.41 1740.44 1437.19 Q1739.07 1435.97 1736.62 1435.97 Q1734.16 1435.97 1732.79 1437.19 Q1731.43 1438.41 1731.43 1440.59 Z" fill="#000000" fill-rule="nonzero" fill-opacity="1" /><path clip-path="url(#clip470)" d="M2141.79 1485.02 L2149.43 1485.02 L2149.43 1458.66 L2141.12 1460.32 L2141.12 1456.06 L2149.38 1454.4 L2154.06 1454.4 L2154.06 1485.02 L2161.69 1485.02 L2161.69 1488.96 L2141.79 1488.96 L2141.79 1485.02 Z" fill="#000000" fill-rule="nonzero" fill-opacity="1" /><path clip-path="url(#clip470)" d="M2181.14 1457.48 Q2177.53 1457.48 2175.7 1461.04 Q2173.89 1464.58 2173.89 1471.71 Q2173.89 1478.82 2175.7 1482.38 Q2177.53 1485.92 2181.14 1485.92 Q2184.77 1485.92 2186.58 1482.38 Q2188.41 1478.82 2188.41 1471.71 Q2188.41 1464.58 2186.58 1461.04 Q2184.77 1457.48 2181.14 1457.48 M2181.14 1453.77 Q2186.95 1453.77 2190 1458.38 Q2193.08 1462.96 2193.08 1471.71 Q2193.08 1480.44 2190 1485.04 Q2186.95 1489.63 2181.14 1489.63 Q2175.33 1489.63 2172.25 1485.04 Q2169.19 1480.44 2169.19 1471.71 Q2169.19 1462.96 2172.25 1458.38 Q2175.33 1453.77 2181.14 1453.77 Z" fill="#000000" fill-rule="nonzero" fill-opacity="1" /><path clip-path="url(#clip470)" d="M2194.89 1460.96 L2194.89 1457.5 Q2196.32 1458.18 2197.79 1458.54 Q2199.25 1458.89 2200.66 1458.89 Q2204.42 1458.89 2206.4 1456.37 Q2208.39 1453.84 2208.67 1448.68 Q2207.58 1450.3 2205.91 1451.16 Q2204.24 1452.03 2202.2 1452.03 Q2197.99 1452.03 2195.53 1449.49 Q2193.08 1446.93 2193.08 1442.51 Q2193.08 1438.19 2195.64 1435.57 Q2198.2 1432.96 2202.45 1432.96 Q2207.32 1432.96 2209.88 1436.7 Q2212.46 1440.43 2212.46 1447.53 Q2212.46 1454.17 2209.3 1458.14 Q2206.15 1462.09 2200.83 1462.09 Q2199.4 1462.09 2197.94 1461.81 Q2196.47 1461.53 2194.89 1460.96 M2202.45 1449.06 Q2205.01 1449.06 2206.49 1447.31 Q2208 1445.56 2208 1442.51 Q2208 1439.48 2206.49 1437.74 Q2205.01 1435.97 2202.45 1435.97 Q2199.89 1435.97 2198.39 1437.74 Q2196.9 1439.48 2196.9 1442.51 Q2196.9 1445.56 2198.39 1447.31 Q2199.89 1449.06 2202.45 1449.06 Z" fill="#000000" fill-rule="nonzero" fill-opacity="1" /><path clip-path="url(#clip470)" d="M1054.88 1524.66 L1068.37 1524.66 L1068.37 1529.21 L1060.74 1529.21 L1060.74 1578.23 L1068.37 1578.23 L1068.37 1582.78 L1054.88 1582.78 L1054.88 1524.66 Z" fill="#000000" fill-rule="nonzero" fill-opacity="1" /><path clip-path="url(#clip470)" d="M1081.11 1526.67 L1087.54 1526.67 L1087.54 1546.14 L1110.9 1546.14 L1110.9 1526.67 L1117.33 1526.67 L1117.33 1574.19 L1110.9 1574.19 L1110.9 1551.56 L1087.54 1551.56 L1087.54 1574.19 L1081.11 1574.19 L1081.11 1526.67 Z" fill="#000000" fill-rule="nonzero" fill-opacity="1" /><path clip-path="url(#clip470)" d="M1136.23 1568.77 L1158.67 1568.77 L1158.67 1574.19 L1128.5 1574.19 L1128.5 1568.77 Q1132.16 1564.99 1138.46 1558.62 Q1144.79 1552.22 1146.42 1550.38 Q1149.51 1546.91 1150.72 1544.52 Q1151.96 1542.1 1151.96 1539.78 Q1151.96 1535.99 1149.28 1533.6 Q1146.64 1531.22 1142.38 1531.22 Q1139.35 1531.22 1135.98 1532.27 Q1132.64 1533.32 1128.82 1535.45 L1128.82 1528.96 Q1132.7 1527.4 1136.07 1526.6 Q1139.45 1525.81 1142.25 1525.81 Q1149.63 1525.81 1154.03 1529.5 Q1158.42 1533.19 1158.42 1539.37 Q1158.42 1542.29 1157.3 1544.94 Q1156.22 1547.54 1153.32 1551.11 Q1152.53 1552.03 1148.26 1556.46 Q1144 1560.85 1136.23 1568.77 Z" fill="#000000" fill-rule="nonzero" fill-opacity="1" /><path clip-path="url(#clip470)" d="M1200.08 1528.23 L1200.08 1534.5 Q1196.42 1532.74 1193.17 1531.89 Q1189.93 1531.03 1186.9 1531.03 Q1181.65 1531.03 1178.79 1533.06 Q1175.96 1535.1 1175.96 1538.86 Q1175.96 1542.01 1177.83 1543.63 Q1179.74 1545.22 1185.03 1546.21 L1188.91 1547 Q1196.1 1548.37 1199.51 1551.84 Q1202.95 1555.28 1202.95 1561.07 Q1202.95 1567.98 1198.3 1571.54 Q1193.68 1575.11 1184.74 1575.11 Q1181.37 1575.11 1177.55 1574.34 Q1173.76 1573.58 1169.68 1572.08 L1169.68 1565.46 Q1173.6 1567.66 1177.36 1568.77 Q1181.11 1569.89 1184.74 1569.89 Q1190.25 1569.89 1193.24 1567.72 Q1196.23 1565.56 1196.23 1561.55 Q1196.23 1558.05 1194.07 1556.08 Q1191.93 1554.1 1187.03 1553.11 L1183.12 1552.35 Q1175.92 1550.92 1172.71 1547.86 Q1169.49 1544.81 1169.49 1539.37 Q1169.49 1533.06 1173.92 1529.43 Q1178.37 1525.81 1186.17 1525.81 Q1189.51 1525.81 1192.98 1526.41 Q1196.45 1527.02 1200.08 1528.23 Z" fill="#000000" fill-rule="nonzero" fill-opacity="1" /><path clip-path="url(#clip470)" d="M1232.26 1531.03 Q1225.26 1531.03 1221.12 1536.25 Q1217.01 1541.47 1217.01 1550.47 Q1217.01 1559.45 1221.12 1564.67 Q1225.26 1569.89 1232.26 1569.89 Q1239.26 1569.89 1243.34 1564.67 Q1247.44 1559.45 1247.44 1550.47 Q1247.44 1541.47 1243.34 1536.25 Q1239.26 1531.03 1232.26 1531.03 M1232.26 1525.81 Q1242.25 1525.81 1248.24 1532.52 Q1254.22 1539.21 1254.22 1550.47 Q1254.22 1561.71 1248.24 1568.42 Q1242.25 1575.11 1232.26 1575.11 Q1222.23 1575.11 1216.22 1568.42 Q1210.23 1561.74 1210.23 1550.47 Q1210.23 1539.21 1216.22 1532.52 Q1222.23 1525.81 1232.26 1525.81 Z" fill="#000000" fill-rule="nonzero" fill-opacity="1" /><path clip-path="url(#clip470)" d="M1282.52 1532.27 L1266.28 1557.63 L1282.52 1557.63 L1282.52 1532.27 M1280.83 1526.67 L1288.91 1526.67 L1288.91 1557.63 L1295.69 1557.63 L1295.69 1562.98 L1288.91 1562.98 L1288.91 1574.19 L1282.52 1574.19 L1282.52 1562.98 L1261.06 1562.98 L1261.06 1556.78 L1280.83 1526.67 Z" fill="#000000" fill-rule="nonzero" fill-opacity="1" /><path clip-path="url(#clip470)" d="M1319.18 1524.66 L1319.18 1582.78 L1305.69 1582.78 L1305.69 1578.23 L1313.3 1578.23 L1313.3 1529.21 L1305.69 1529.21 L1305.69 1524.66 L1319.18 1524.66 Z" fill="#000000" fill-rule="nonzero" fill-opacity="1" /><path clip-path="url(#clip470)" d="M1365.72 1524.72 Q1361.45 1532.04 1359.38 1539.21 Q1357.31 1546.37 1357.31 1553.72 Q1357.31 1561.07 1359.38 1568.3 Q1361.48 1575.49 1365.72 1582.78 L1360.62 1582.78 Q1355.85 1575.3 1353.46 1568.07 Q1351.11 1560.85 1351.11 1553.72 Q1351.11 1546.62 1353.46 1539.43 Q1355.82 1532.24 1360.62 1524.72 L1365.72 1524.72 Z" fill="#000000" fill-rule="nonzero" fill-opacity="1" /><path clip-path="url(#clip470)" d="M1402.73 1539.91 L1402.73 1545.38 Q1400.25 1544.01 1397.74 1543.34 Q1395.25 1542.64 1392.71 1542.64 Q1387.01 1542.64 1383.86 1546.27 Q1380.71 1549.87 1380.71 1556.39 Q1380.71 1562.92 1383.86 1566.55 Q1387.01 1570.14 1392.71 1570.14 Q1395.25 1570.14 1397.74 1569.47 Q1400.25 1568.77 1402.73 1567.41 L1402.73 1572.82 Q1400.28 1573.96 1397.64 1574.54 Q1395.03 1575.11 1392.07 1575.11 Q1384.02 1575.11 1379.28 1570.05 Q1374.53 1564.99 1374.53 1556.39 Q1374.53 1547.67 1379.31 1542.68 Q1384.11 1537.68 1392.45 1537.68 Q1395.16 1537.68 1397.74 1538.25 Q1400.31 1538.79 1402.73 1539.91 Z" fill="#000000" fill-rule="nonzero" fill-opacity="1" /><path clip-path="url(#clip470)" d="M1440.67 1545.38 Q1442.87 1541.43 1445.92 1539.56 Q1448.98 1537.68 1453.12 1537.68 Q1458.69 1537.68 1461.71 1541.59 Q1464.74 1545.48 1464.74 1552.67 L1464.74 1574.19 L1458.85 1574.19 L1458.85 1552.86 Q1458.85 1547.74 1457.03 1545.25 Q1455.22 1542.77 1451.49 1542.77 Q1446.94 1542.77 1444.3 1545.79 Q1441.66 1548.82 1441.66 1554.04 L1441.66 1574.19 L1435.77 1574.19 L1435.77 1552.86 Q1435.77 1547.7 1433.96 1545.25 Q1432.14 1542.77 1428.36 1542.77 Q1423.87 1542.77 1421.23 1545.83 Q1418.58 1548.85 1418.58 1554.04 L1418.58 1574.19 L1412.7 1574.19 L1412.7 1538.54 L1418.58 1538.54 L1418.58 1544.08 Q1420.59 1540.8 1423.39 1539.24 Q1426.19 1537.68 1430.04 1537.68 Q1433.93 1537.68 1436.63 1539.65 Q1439.37 1541.62 1440.67 1545.38 Z" fill="#000000" fill-rule="nonzero" fill-opacity="1" /><path clip-path="url(#clip470)" d="M1474.63 1539.97 L1500.32 1539.97 L1500.32 1542.99 L1474.63 1542.99 L1474.63 1539.97 Z" fill="#000000" fill-rule="nonzero" fill-opacity="1" /><path clip-path="url(#clip470)" d="M1521.36 1538.54 Q1524.29 1539.11 1525.88 1540.86 Q1527.5 1542.58 1527.5 1545.19 Q1527.5 1549.14 1524.48 1551.27 Q1521.45 1553.4 1515.82 1553.4 Q1514.01 1553.4 1512 1553.08 Q1510.03 1552.73 1507.8 1552.1 L1507.8 1548.25 Q1509.45 1549.1 1511.33 1549.52 Q1513.24 1549.93 1515.37 1549.93 Q1518.84 1549.93 1520.75 1548.69 Q1522.66 1547.42 1522.66 1545.19 Q1522.66 1542.83 1520.88 1541.62 Q1519.13 1540.42 1515.69 1540.42 L1512.96 1540.42 L1512.96 1536.98 L1515.95 1536.98 Q1518.94 1536.98 1520.47 1535.99 Q1522.03 1534.97 1522.03 1533.06 Q1522.03 1531.22 1520.44 1530.26 Q1518.84 1529.28 1515.82 1529.28 Q1514.55 1529.28 1512.92 1529.56 Q1511.3 1529.85 1508.72 1530.58 L1508.72 1526.92 Q1511.05 1526.38 1513.08 1526.09 Q1515.12 1525.81 1516.87 1525.81 Q1521.45 1525.81 1524.13 1527.68 Q1526.83 1529.56 1526.83 1532.71 Q1526.83 1534.91 1525.4 1536.44 Q1523.97 1537.96 1521.36 1538.54 Z" fill="#000000" fill-rule="nonzero" fill-opacity="1" /><path clip-path="url(#clip470)" d="M1536.03 1524.72 L1541.12 1524.72 Q1545.9 1532.24 1548.25 1539.43 Q1550.64 1546.62 1550.64 1553.72 Q1550.64 1560.85 1548.25 1568.07 Q1545.9 1575.3 1541.12 1582.78 L1536.03 1582.78 Q1540.26 1575.49 1542.33 1568.3 Q1544.43 1561.07 1544.43 1553.72 Q1544.43 1546.37 1542.33 1539.21 Q1540.26 1532.04 1536.03 1524.72 Z" fill="#000000" fill-rule="nonzero" fill-opacity="1" /><polyline clip-path="url(#clip472)" style="stroke:#000000; stroke-linecap:round; stroke-linejoin:round; stroke-width:2; stroke-opacity:0.1; fill:none" points="252.764,1410.9 2352.76,1410.9 "/>
<polyline clip-path="url(#clip472)" style="stroke:#000000; stroke-linecap:round; stroke-linejoin:round; stroke-width:2; stroke-opacity:0.1; fill:none" points="252.764,1216.09 2352.76,1216.09 "/>
<polyline clip-path="url(#clip472)" style="stroke:#000000; stroke-linecap:round; stroke-linejoin:round; stroke-width:2; stroke-opacity:0.1; fill:none" points="252.764,1021.28 2352.76,1021.28 "/>
<polyline clip-path="url(#clip472)" style="stroke:#000000; stroke-linecap:round; stroke-linejoin:round; stroke-width:2; stroke-opacity:0.1; fill:none" points="252.764,826.474 2352.76,826.474 "/>
<polyline clip-path="url(#clip472)" style="stroke:#000000; stroke-linecap:round; stroke-linejoin:round; stroke-width:2; stroke-opacity:0.1; fill:none" points="252.764,631.667 2352.76,631.667 "/>
<polyline clip-path="url(#clip472)" style="stroke:#000000; stroke-linecap:round; stroke-linejoin:round; stroke-width:2; stroke-opacity:0.1; fill:none" points="252.764,436.859 2352.76,436.859 "/>
<polyline clip-path="url(#clip472)" style="stroke:#000000; stroke-linecap:round; stroke-linejoin:round; stroke-width:2; stroke-opacity:0.1; fill:none" points="252.764,242.052 2352.76,242.052 "/>
<polyline clip-path="url(#clip472)" style="stroke:#000000; stroke-linecap:round; stroke-linejoin:round; stroke-width:2; stroke-opacity:0.1; fill:none" points="252.764,47.2441 2352.76,47.2441 "/>
<polyline clip-path="url(#clip470)" style="stroke:#000000; stroke-linecap:round; stroke-linejoin:round; stroke-width:4; stroke-opacity:1; fill:none" points="252.764,1410.9 252.764,47.2441 "/>
<polyline clip-path="url(#clip470)" style="stroke:#000000; stroke-linecap:round; stroke-linejoin:round; stroke-width:4; stroke-opacity:1; fill:none" points="252.764,1410.9 271.662,1410.9 "/>
<polyline clip-path="url(#clip470)" style="stroke:#000000; stroke-linecap:round; stroke-linejoin:round; stroke-width:4; stroke-opacity:1; fill:none" points="252.764,1216.09 271.662,1216.09 "/>
<polyline clip-path="url(#clip470)" style="stroke:#000000; stroke-linecap:round; stroke-linejoin:round; stroke-width:4; stroke-opacity:1; fill:none" points="252.764,1021.28 271.662,1021.28 "/>
<polyline clip-path="url(#clip470)" style="stroke:#000000; stroke-linecap:round; stroke-linejoin:round; stroke-width:4; stroke-opacity:1; fill:none" points="252.764,826.474 271.662,826.474 "/>
<polyline clip-path="url(#clip470)" style="stroke:#000000; stroke-linecap:round; stroke-linejoin:round; stroke-width:4; stroke-opacity:1; fill:none" points="252.764,631.667 271.662,631.667 "/>
<polyline clip-path="url(#clip470)" style="stroke:#000000; stroke-linecap:round; stroke-linejoin:round; stroke-width:4; stroke-opacity:1; fill:none" points="252.764,436.859 271.662,436.859 "/>
<polyline clip-path="url(#clip470)" style="stroke:#000000; stroke-linecap:round; stroke-linejoin:round; stroke-width:4; stroke-opacity:1; fill:none" points="252.764,242.052 271.662,242.052 "/>
<polyline clip-path="url(#clip470)" style="stroke:#000000; stroke-linecap:round; stroke-linejoin:round; stroke-width:4; stroke-opacity:1; fill:none" points="252.764,47.2441 271.662,47.2441 "/>
<path clip-path="url(#clip470)" d="M114.931 1430.69 L122.57 1430.69 L122.57 1404.32 L114.26 1405.99 L114.26 1401.73 L122.524 1400.06 L127.2 1400.06 L127.2 1430.69 L134.839 1430.69 L134.839 1434.62 L114.931 1434.62 L114.931 1430.69 Z" fill="#000000" fill-rule="nonzero" fill-opacity="1" /><path clip-path="url(#clip470)" d="M154.283 1403.14 Q150.672 1403.14 148.843 1406.71 Q147.038 1410.25 147.038 1417.38 Q147.038 1424.49 148.843 1428.05 Q150.672 1431.59 154.283 1431.59 Q157.917 1431.59 159.723 1428.05 Q161.552 1424.49 161.552 1417.38 Q161.552 1410.25 159.723 1406.71 Q157.917 1403.14 154.283 1403.14 M154.283 1399.44 Q160.093 1399.44 163.149 1404.05 Q166.227 1408.63 166.227 1417.38 Q166.227 1426.11 163.149 1430.71 Q160.093 1435.3 154.283 1435.3 Q148.473 1435.3 145.394 1430.71 Q142.339 1426.11 142.339 1417.38 Q142.339 1408.63 145.394 1404.05 Q148.473 1399.44 154.283 1399.44 Z" fill="#000000" fill-rule="nonzero" fill-opacity="1" /><path clip-path="url(#clip470)" d="M166.227 1393.54 L190.339 1393.54 L190.339 1396.74 L166.227 1396.74 L166.227 1393.54 Z" fill="#000000" fill-rule="nonzero" fill-opacity="1" /><path clip-path="url(#clip470)" d="M208.978 1382.44 L199.386 1397.43 L208.978 1397.43 L208.978 1382.44 M207.981 1379.13 L212.758 1379.13 L212.758 1397.43 L216.764 1397.43 L216.764 1400.59 L212.758 1400.59 L212.758 1407.21 L208.978 1407.21 L208.978 1400.59 L196.301 1400.59 L196.301 1396.93 L207.981 1379.13 Z" fill="#000000" fill-rule="nonzero" fill-opacity="1" /><path clip-path="url(#clip470)" d="M115.853 1235.88 L123.492 1235.88 L123.492 1209.52 L115.182 1211.18 L115.182 1206.92 L123.446 1205.26 L128.121 1205.26 L128.121 1235.88 L135.76 1235.88 L135.76 1239.82 L115.853 1239.82 L115.853 1235.88 Z" fill="#000000" fill-rule="nonzero" fill-opacity="1" /><path clip-path="url(#clip470)" d="M155.205 1208.34 Q151.594 1208.34 149.765 1211.9 Q147.959 1215.44 147.959 1222.57 Q147.959 1229.68 149.765 1233.24 Q151.594 1236.78 155.205 1236.78 Q158.839 1236.78 160.644 1233.24 Q162.473 1229.68 162.473 1222.57 Q162.473 1215.44 160.644 1211.9 Q158.839 1208.34 155.205 1208.34 M155.205 1204.63 Q161.015 1204.63 164.07 1209.24 Q167.149 1213.82 167.149 1222.57 Q167.149 1231.3 164.07 1235.9 Q161.015 1240.49 155.205 1240.49 Q149.395 1240.49 146.316 1235.9 Q143.26 1231.3 143.26 1222.57 Q143.26 1213.82 146.316 1209.24 Q149.395 1204.63 155.205 1204.63 Z" fill="#000000" fill-rule="nonzero" fill-opacity="1" /><path clip-path="url(#clip470)" d="M167.149 1198.73 L191.261 1198.73 L191.261 1201.93 L167.149 1201.93 L167.149 1198.73 Z" fill="#000000" fill-rule="nonzero" fill-opacity="1" /><path clip-path="url(#clip470)" d="M210.971 1197.27 Q213.698 1197.85 215.222 1199.69 Q216.764 1201.54 216.764 1204.24 Q216.764 1208.4 213.905 1210.68 Q211.046 1212.95 205.78 1212.95 Q204.012 1212.95 202.132 1212.59 Q200.27 1212.26 198.276 1211.56 L198.276 1207.89 Q199.856 1208.81 201.737 1209.28 Q203.617 1209.75 205.667 1209.75 Q209.241 1209.75 211.103 1208.34 Q212.984 1206.93 212.984 1204.24 Q212.984 1201.76 211.234 1200.37 Q209.504 1198.96 206.401 1198.96 L203.128 1198.96 L203.128 1195.84 L206.551 1195.84 Q209.354 1195.84 210.84 1194.73 Q212.325 1193.6 212.325 1191.49 Q212.325 1189.33 210.783 1188.18 Q209.26 1187.02 206.401 1187.02 Q204.84 1187.02 203.053 1187.35 Q201.266 1187.69 199.122 1188.41 L199.122 1185.02 Q201.285 1184.42 203.166 1184.12 Q205.066 1183.82 206.739 1183.82 Q211.065 1183.82 213.585 1185.79 Q216.106 1187.75 216.106 1191.1 Q216.106 1193.43 214.77 1195.05 Q213.435 1196.65 210.971 1197.27 Z" fill="#000000" fill-rule="nonzero" fill-opacity="1" /><path clip-path="url(#clip470)" d="M116.624 1041.07 L124.263 1041.07 L124.263 1014.71 L115.953 1016.38 L115.953 1012.12 L124.217 1010.45 L128.893 1010.45 L128.893 1041.07 L136.531 1041.07 L136.531 1045.01 L116.624 1045.01 L116.624 1041.07 Z" fill="#000000" fill-rule="nonzero" fill-opacity="1" /><path clip-path="url(#clip470)" d="M155.976 1013.53 Q152.365 1013.53 150.536 1017.09 Q148.73 1020.63 148.73 1027.76 Q148.73 1034.87 150.536 1038.44 Q152.365 1041.98 155.976 1041.98 Q159.61 1041.98 161.416 1038.44 Q163.244 1034.87 163.244 1027.76 Q163.244 1020.63 161.416 1017.09 Q159.61 1013.53 155.976 1013.53 M155.976 1009.82 Q161.786 1009.82 164.841 1014.43 Q167.92 1019.01 167.92 1027.76 Q167.92 1036.49 164.841 1041.1 Q161.786 1045.68 155.976 1045.68 Q150.166 1045.68 147.087 1041.1 Q144.031 1036.49 144.031 1027.76 Q144.031 1019.01 147.087 1014.43 Q150.166 1009.82 155.976 1009.82 Z" fill="#000000" fill-rule="nonzero" fill-opacity="1" /><path clip-path="url(#clip470)" d="M167.92 1003.93 L192.032 1003.93 L192.032 1007.12 L167.92 1007.12 L167.92 1003.93 Z" fill="#000000" fill-rule="nonzero" fill-opacity="1" /><path clip-path="url(#clip470)" d="M203.504 1014.4 L216.764 1014.4 L216.764 1017.6 L198.934 1017.6 L198.934 1014.4 Q201.097 1012.16 204.821 1008.4 Q208.564 1004.62 209.523 1003.53 Q211.347 1001.48 212.062 1000.07 Q212.796 998.641 212.796 997.268 Q212.796 995.03 211.216 993.619 Q209.655 992.208 207.134 992.208 Q205.348 992.208 203.354 992.829 Q201.379 993.45 199.122 994.71 L199.122 990.873 Q201.417 989.951 203.41 989.481 Q205.404 989.011 207.059 989.011 Q211.423 989.011 214.018 991.193 Q216.613 993.374 216.613 997.023 Q216.613 998.753 215.955 1000.31 Q215.316 1001.86 213.604 1003.96 Q213.134 1004.51 210.614 1007.12 Q208.094 1009.72 203.504 1014.4 Z" fill="#000000" fill-rule="nonzero" fill-opacity="1" /><path clip-path="url(#clip470)" d="M116.323 846.267 L123.962 846.267 L123.962 819.901 L115.652 821.568 L115.652 817.308 L123.916 815.642 L128.592 815.642 L128.592 846.267 L136.231 846.267 L136.231 850.202 L116.323 850.202 L116.323 846.267 Z" fill="#000000" fill-rule="nonzero" fill-opacity="1" /><path clip-path="url(#clip470)" d="M155.675 818.72 Q152.064 818.72 150.235 822.285 Q148.43 825.827 148.43 832.956 Q148.43 840.063 150.235 843.628 Q152.064 847.169 155.675 847.169 Q159.309 847.169 161.115 843.628 Q162.943 840.063 162.943 832.956 Q162.943 825.827 161.115 822.285 Q159.309 818.72 155.675 818.72 M155.675 815.017 Q161.485 815.017 164.541 819.623 Q167.619 824.206 167.619 832.956 Q167.619 841.683 164.541 846.29 Q161.485 850.873 155.675 850.873 Q149.865 850.873 146.786 846.29 Q143.73 841.683 143.73 832.956 Q143.73 824.206 146.786 819.623 Q149.865 815.017 155.675 815.017 Z" fill="#000000" fill-rule="nonzero" fill-opacity="1" /><path clip-path="url(#clip470)" d="M167.619 809.118 L191.731 809.118 L191.731 812.315 L167.619 812.315 L167.619 809.118 Z" fill="#000000" fill-rule="nonzero" fill-opacity="1" /><path clip-path="url(#clip470)" d="M200.589 819.594 L206.796 819.594 L206.796 798.172 L200.044 799.526 L200.044 796.065 L206.758 794.711 L210.557 794.711 L210.557 819.594 L216.764 819.594 L216.764 822.791 L200.589 822.791 L200.589 819.594 Z" fill="#000000" fill-rule="nonzero" fill-opacity="1" /><path clip-path="url(#clip470)" d="M146.058 651.459 L153.697 651.459 L153.697 625.093 L145.387 626.76 L145.387 622.501 L153.651 620.834 L158.327 620.834 L158.327 651.459 L165.966 651.459 L165.966 655.394 L146.058 655.394 L146.058 651.459 Z" fill="#000000" fill-rule="nonzero" fill-opacity="1" /><path clip-path="url(#clip470)" d="M185.41 623.913 Q181.799 623.913 179.97 627.478 Q178.165 631.019 178.165 638.149 Q178.165 645.255 179.97 648.82 Q181.799 652.362 185.41 652.362 Q189.044 652.362 190.85 648.82 Q192.678 645.255 192.678 638.149 Q192.678 631.019 190.85 627.478 Q189.044 623.913 185.41 623.913 M185.41 620.209 Q191.22 620.209 194.276 624.816 Q197.354 629.399 197.354 638.149 Q197.354 646.876 194.276 651.482 Q191.22 656.066 185.41 656.066 Q179.6 656.066 176.521 651.482 Q173.466 646.876 173.466 638.149 Q173.466 629.399 176.521 624.816 Q179.6 620.209 185.41 620.209 Z" fill="#000000" fill-rule="nonzero" fill-opacity="1" /><path clip-path="url(#clip470)" d="M207.059 602.405 Q204.125 602.405 202.639 605.302 Q201.172 608.179 201.172 613.972 Q201.172 619.746 202.639 622.642 Q204.125 625.52 207.059 625.52 Q210.012 625.52 211.479 622.642 Q212.965 619.746 212.965 613.972 Q212.965 608.179 211.479 605.302 Q210.012 602.405 207.059 602.405 M207.059 599.396 Q211.78 599.396 214.263 603.139 Q216.764 606.863 216.764 613.972 Q216.764 621.063 214.263 624.805 Q211.78 628.529 207.059 628.529 Q202.338 628.529 199.837 624.805 Q197.354 621.063 197.354 613.972 Q197.354 606.863 199.837 603.139 Q202.338 599.396 207.059 599.396 Z" fill="#000000" fill-rule="nonzero" fill-opacity="1" /><path clip-path="url(#clip470)" d="M148.748 456.652 L156.387 456.652 L156.387 430.286 L148.077 431.953 L148.077 427.693 L156.34 426.027 L161.016 426.027 L161.016 456.652 L168.655 456.652 L168.655 460.587 L148.748 460.587 L148.748 456.652 Z" fill="#000000" fill-rule="nonzero" fill-opacity="1" /><path clip-path="url(#clip470)" d="M188.099 429.105 Q184.488 429.105 182.66 432.67 Q180.854 436.212 180.854 443.341 Q180.854 450.448 182.66 454.013 Q184.488 457.554 188.099 457.554 Q191.734 457.554 193.539 454.013 Q195.368 450.448 195.368 443.341 Q195.368 436.212 193.539 432.67 Q191.734 429.105 188.099 429.105 M188.099 425.402 Q193.91 425.402 196.965 430.008 Q200.044 434.591 200.044 443.341 Q200.044 452.068 196.965 456.675 Q193.91 461.258 188.099 461.258 Q182.289 461.258 179.211 456.675 Q176.155 452.068 176.155 443.341 Q176.155 434.591 179.211 430.008 Q182.289 425.402 188.099 425.402 Z" fill="#000000" fill-rule="nonzero" fill-opacity="1" /><path clip-path="url(#clip470)" d="M200.589 429.979 L206.796 429.979 L206.796 408.557 L200.044 409.911 L200.044 406.45 L206.758 405.096 L210.557 405.096 L210.557 429.979 L216.764 429.979 L216.764 433.176 L200.589 433.176 L200.589 429.979 Z" fill="#000000" fill-rule="nonzero" fill-opacity="1" /><path clip-path="url(#clip470)" d="M147.638 261.844 L155.277 261.844 L155.277 235.478 L146.967 237.145 L146.967 232.886 L155.231 231.219 L159.907 231.219 L159.907 261.844 L167.545 261.844 L167.545 265.779 L147.638 265.779 L147.638 261.844 Z" fill="#000000" fill-rule="nonzero" fill-opacity="1" /><path clip-path="url(#clip470)" d="M186.99 234.298 Q183.379 234.298 181.55 237.863 Q179.744 241.404 179.744 248.534 Q179.744 255.64 181.55 259.205 Q183.379 262.747 186.99 262.747 Q190.624 262.747 192.43 259.205 Q194.258 255.64 194.258 248.534 Q194.258 241.404 192.43 237.863 Q190.624 234.298 186.99 234.298 M186.99 230.594 Q192.8 230.594 195.855 235.201 Q198.934 239.784 198.934 248.534 Q198.934 257.261 195.855 261.867 Q192.8 266.45 186.99 266.45 Q181.18 266.45 178.101 261.867 Q175.045 257.261 175.045 248.534 Q175.045 239.784 178.101 235.201 Q181.18 230.594 186.99 230.594 Z" fill="#000000" fill-rule="nonzero" fill-opacity="1" /><path clip-path="url(#clip470)" d="M203.504 235.171 L216.764 235.171 L216.764 238.369 L198.934 238.369 L198.934 235.171 Q201.097 232.933 204.821 229.172 Q208.564 225.391 209.523 224.301 Q211.347 222.251 212.062 220.84 Q212.796 219.411 212.796 218.038 Q212.796 215.799 211.216 214.389 Q209.655 212.978 207.134 212.978 Q205.348 212.978 203.354 213.599 Q201.379 214.22 199.122 215.48 L199.122 211.643 Q201.417 210.721 203.41 210.251 Q205.404 209.781 207.059 209.781 Q211.423 209.781 214.018 211.963 Q216.613 214.144 216.613 217.793 Q216.613 219.523 215.955 221.084 Q215.316 222.627 213.604 224.733 Q213.134 225.279 210.614 227.893 Q208.094 230.488 203.504 235.171 Z" fill="#000000" fill-rule="nonzero" fill-opacity="1" /><path clip-path="url(#clip470)" d="M146.98 67.0365 L154.619 67.0365 L154.619 40.6709 L146.309 42.3376 L146.309 38.0784 L154.572 36.4117 L159.248 36.4117 L159.248 67.0365 L166.887 67.0365 L166.887 70.9717 L146.98 70.9717 L146.98 67.0365 Z" fill="#000000" fill-rule="nonzero" fill-opacity="1" /><path clip-path="url(#clip470)" d="M186.332 39.4904 Q182.72 39.4904 180.892 43.0552 Q179.086 46.5968 179.086 53.7264 Q179.086 60.8329 180.892 64.3977 Q182.72 67.9393 186.332 67.9393 Q189.966 67.9393 191.771 64.3977 Q193.6 60.8329 193.6 53.7264 Q193.6 46.5968 191.771 43.0552 Q189.966 39.4904 186.332 39.4904 M186.332 35.7867 Q192.142 35.7867 195.197 40.3932 Q198.276 44.9765 198.276 53.7264 Q198.276 62.4532 195.197 67.0597 Q192.142 71.643 186.332 71.643 Q180.521 71.643 177.443 67.0597 Q174.387 62.4532 174.387 53.7264 Q174.387 44.9765 177.443 40.3932 Q180.521 35.7867 186.332 35.7867 Z" fill="#000000" fill-rule="nonzero" fill-opacity="1" /><path clip-path="url(#clip470)" d="M210.971 28.421 Q213.698 29.0041 215.222 30.8472 Q216.764 32.6904 216.764 35.3987 Q216.764 39.5552 213.905 41.831 Q211.046 44.1067 205.78 44.1067 Q204.012 44.1067 202.132 43.7494 Q200.27 43.4108 198.276 42.7149 L198.276 39.0474 Q199.856 39.969 201.737 40.4392 Q203.617 40.9094 205.667 40.9094 Q209.241 40.9094 211.103 39.4988 Q212.984 38.0882 212.984 35.3987 Q212.984 32.9161 211.234 31.5243 Q209.504 30.1137 206.401 30.1137 L203.128 30.1137 L203.128 26.9916 L206.551 26.9916 Q209.354 26.9916 210.84 25.882 Q212.325 24.7535 212.325 22.6471 Q212.325 20.4842 210.783 19.3369 Q209.26 18.1708 206.401 18.1708 Q204.84 18.1708 203.053 18.5093 Q201.266 18.8479 199.122 19.5626 L199.122 16.1772 Q201.285 15.5753 203.166 15.2744 Q205.066 14.9735 206.739 14.9735 Q211.065 14.9735 213.585 16.9483 Q216.106 18.9043 216.106 22.2521 Q216.106 24.5843 214.77 26.2017 Q213.435 27.8004 210.971 28.421 Z" fill="#000000" fill-rule="nonzero" fill-opacity="1" /><path clip-path="url(#clip470)" d="M16.4842 1147.44 L16.4842 1138.78 L56.238 1117.71 L16.4842 1117.71 L16.4842 1111.47 L64.0042 1111.47 L64.0042 1120.13 L24.2503 1141.2 L64.0042 1141.2 L64.0042 1147.44 L16.4842 1147.44 Z" fill="#000000" fill-rule="nonzero" fill-opacity="1" /><path clip-path="url(#clip470)" d="M49.9359 1099.54 L28.3562 1099.54 L28.3562 1093.68 L49.7131 1093.68 Q54.7739 1093.68 57.3202 1091.71 Q59.8346 1089.74 59.8346 1085.79 Q59.8346 1081.05 56.8109 1078.31 Q53.7872 1075.54 48.5673 1075.54 L28.3562 1075.54 L28.3562 1069.68 L64.0042 1069.68 L64.0042 1075.54 L58.5296 1075.54 Q61.7762 1077.67 63.3676 1080.51 Q64.9272 1083.31 64.9272 1087.03 Q64.9272 1093.17 61.1078 1096.36 Q57.2883 1099.54 49.9359 1099.54 M27.4968 1084.8 L27.4968 1084.8 Z" fill="#000000" fill-rule="nonzero" fill-opacity="1" /><path clip-path="url(#clip470)" d="M29.7248 1031.97 L35.1993 1031.97 Q33.8307 1034.45 33.1623 1036.96 Q32.4621 1039.45 32.4621 1041.99 Q32.4621 1047.69 36.0905 1050.84 Q39.6872 1053.99 46.212 1053.99 Q52.7369 1053.99 56.3653 1050.84 Q59.9619 1047.69 59.9619 1041.99 Q59.9619 1039.45 59.2935 1036.96 Q58.5933 1034.45 57.2247 1031.97 L62.6355 1031.97 Q63.7814 1034.42 64.3543 1037.06 Q64.9272 1039.67 64.9272 1042.63 Q64.9272 1050.68 59.8664 1055.42 Q54.8057 1060.17 46.212 1060.17 Q37.491 1060.17 32.4939 1055.39 Q27.4968 1050.59 27.4968 1042.25 Q27.4968 1039.54 28.0697 1036.96 Q28.6108 1034.39 29.7248 1031.97 Z" fill="#000000" fill-rule="nonzero" fill-opacity="1" /><path clip-path="url(#clip470)" d="M14.479 1021.78 L14.479 1015.93 L64.0042 1015.93 L64.0042 1021.78 L14.479 1021.78 Z" fill="#000000" fill-rule="nonzero" fill-opacity="1" /><path clip-path="url(#clip470)" d="M44.7161 973.179 L47.5806 973.179 L47.5806 1000.11 Q53.6281 999.724 56.8109 996.478 Q59.9619 993.199 59.9619 987.375 Q59.9619 984.001 59.1344 980.85 Q58.3069 977.667 56.6518 974.548 L62.1899 974.548 Q63.5267 977.699 64.227 981.009 Q64.9272 984.319 64.9272 987.725 Q64.9272 996.255 59.9619 1001.25 Q54.9967 1006.22 46.5303 1006.22 Q37.7774 1006.22 32.6531 1001.51 Q27.4968 996.764 27.4968 988.743 Q27.4968 981.55 32.1438 977.381 Q36.7589 973.179 44.7161 973.179 M42.9973 979.036 Q38.1912 979.099 35.3266 981.741 Q32.4621 984.351 32.4621 988.68 Q32.4621 993.581 35.2312 996.541 Q38.0002 999.47 43.0292 999.915 L42.9973 979.036 Z" fill="#000000" fill-rule="nonzero" fill-opacity="1" /><path clip-path="url(#clip470)" d="M46.0847 947.366 Q46.0847 954.464 47.7079 957.201 Q49.3312 959.939 53.2461 959.939 Q56.3653 959.939 58.2114 957.902 Q60.0256 955.833 60.0256 952.3 Q60.0256 947.43 56.5881 944.502 Q53.1188 941.542 47.3897 941.542 L46.0847 941.542 L46.0847 947.366 M43.6657 935.685 L64.0042 935.685 L64.0042 941.542 L58.5933 941.542 Q61.8398 943.547 63.3994 946.539 Q64.9272 949.531 64.9272 953.859 Q64.9272 959.334 61.8716 962.58 Q58.7843 965.795 53.6281 965.795 Q47.6125 965.795 44.5569 961.785 Q41.5014 957.742 41.5014 949.754 L41.5014 941.542 L40.9285 941.542 Q36.8862 941.542 34.6901 944.215 Q32.4621 946.857 32.4621 951.663 Q32.4621 954.719 33.1941 957.615 Q33.9262 960.512 35.3903 963.185 L29.9795 963.185 Q28.7381 959.97 28.1334 956.947 Q27.4968 953.923 27.4968 951.058 Q27.4968 943.324 31.5072 939.505 Q35.5176 935.685 43.6657 935.685 Z" fill="#000000" fill-rule="nonzero" fill-opacity="1" /><path clip-path="url(#clip470)" d="M18.2347 917.829 L28.3562 917.829 L28.3562 905.766 L32.9077 905.766 L32.9077 917.829 L52.2594 917.829 Q56.6199 917.829 57.8613 916.652 Q59.1026 915.442 59.1026 911.782 L59.1026 905.766 L64.0042 905.766 L64.0042 911.782 Q64.0042 918.562 61.4897 921.14 Q58.9434 923.718 52.2594 923.718 L32.9077 923.718 L32.9077 928.015 L28.3562 928.015 L28.3562 923.718 L18.2347 923.718 L18.2347 917.829 Z" fill="#000000" fill-rule="nonzero" fill-opacity="1" /><path clip-path="url(#clip470)" d="M28.3562 898.064 L28.3562 892.208 L64.0042 892.208 L64.0042 898.064 L28.3562 898.064 M14.479 898.064 L14.479 892.208 L21.895 892.208 L21.895 898.064 L14.479 898.064 Z" fill="#000000" fill-rule="nonzero" fill-opacity="1" /><path clip-path="url(#clip470)" d="M32.4621 866.14 Q32.4621 870.851 36.1542 873.588 Q39.8145 876.325 46.212 876.325 Q52.6095 876.325 56.3017 873.62 Q59.9619 870.882 59.9619 866.14 Q59.9619 861.461 56.2698 858.724 Q52.5777 855.987 46.212 855.987 Q39.8781 855.987 36.186 858.724 Q32.4621 861.461 32.4621 866.14 M27.4968 866.14 Q27.4968 858.501 32.4621 854.141 Q37.4273 849.78 46.212 849.78 Q54.9649 849.78 59.9619 854.141 Q64.9272 858.501 64.9272 866.14 Q64.9272 873.811 59.9619 878.171 Q54.9649 882.5 46.212 882.5 Q37.4273 882.5 32.4621 878.171 Q27.4968 873.811 27.4968 866.14 Z" fill="#000000" fill-rule="nonzero" fill-opacity="1" /><path clip-path="url(#clip470)" d="M42.4881 810.44 L64.0042 810.44 L64.0042 816.296 L42.679 816.296 Q37.6183 816.296 35.1038 818.27 Q32.5894 820.243 32.5894 824.19 Q32.5894 828.932 35.6131 831.67 Q38.6368 834.407 43.8567 834.407 L64.0042 834.407 L64.0042 840.295 L28.3562 840.295 L28.3562 834.407 L33.8944 834.407 Q30.6797 832.306 29.0883 829.473 Q27.4968 826.609 27.4968 822.885 Q27.4968 816.742 31.3163 813.591 Q35.1038 810.44 42.4881 810.44 Z" fill="#000000" fill-rule="nonzero" fill-opacity="1" /><path clip-path="url(#clip470)" d="M33.8307 757.382 Q33.2578 758.369 33.0032 759.546 Q32.7167 760.692 32.7167 762.092 Q32.7167 767.058 35.9632 769.731 Q39.1779 772.373 45.2253 772.373 L64.0042 772.373 L64.0042 778.261 L28.3562 778.261 L28.3562 772.373 L33.8944 772.373 Q30.6479 770.527 29.0883 767.567 Q27.4968 764.607 27.4968 760.374 Q27.4968 759.769 27.5923 759.037 Q27.656 758.305 27.8151 757.414 L33.8307 757.382 Z" fill="#000000" fill-rule="nonzero" fill-opacity="1" /><path clip-path="url(#clip470)" d="M46.0847 735.038 Q46.0847 742.136 47.7079 744.873 Q49.3312 747.61 53.2461 747.61 Q56.3653 747.61 58.2114 745.573 Q60.0256 743.505 60.0256 739.972 Q60.0256 735.102 56.5881 732.174 Q53.1188 729.214 47.3897 729.214 L46.0847 729.214 L46.0847 735.038 M43.6657 723.357 L64.0042 723.357 L64.0042 729.214 L58.5933 729.214 Q61.8398 731.219 63.3994 734.211 Q64.9272 737.203 64.9272 741.531 Q64.9272 747.006 61.8716 750.252 Q58.7843 753.467 53.6281 753.467 Q47.6125 753.467 44.5569 749.457 Q41.5014 745.414 41.5014 737.425 L41.5014 729.214 L40.9285 729.214 Q36.8862 729.214 34.6901 731.887 Q32.4621 734.529 32.4621 739.335 Q32.4621 742.391 33.1941 745.287 Q33.9262 748.183 35.3903 750.857 L29.9795 750.857 Q28.7381 747.642 28.1334 744.619 Q27.4968 741.595 27.4968 738.73 Q27.4968 730.996 31.5072 727.177 Q35.5176 723.357 43.6657 723.357 Z" fill="#000000" fill-rule="nonzero" fill-opacity="1" /><path clip-path="url(#clip470)" d="M18.2347 705.501 L28.3562 705.501 L28.3562 693.438 L32.9077 693.438 L32.9077 705.501 L52.2594 705.501 Q56.6199 705.501 57.8613 704.324 Q59.1026 703.114 59.1026 699.454 L59.1026 693.438 L64.0042 693.438 L64.0042 699.454 Q64.0042 706.233 61.4897 708.812 Q58.9434 711.39 52.2594 711.39 L32.9077 711.39 L32.9077 715.686 L28.3562 715.686 L28.3562 711.39 L18.2347 711.39 L18.2347 705.501 Z" fill="#000000" fill-rule="nonzero" fill-opacity="1" /><path clip-path="url(#clip470)" d="M44.7161 655.244 L47.5806 655.244 L47.5806 682.171 Q53.6281 681.789 56.8109 678.543 Q59.9619 675.264 59.9619 669.44 Q59.9619 666.066 59.1344 662.915 Q58.3069 659.732 56.6518 656.613 L62.1899 656.613 Q63.5267 659.764 64.227 663.074 Q64.9272 666.384 64.9272 669.79 Q64.9272 678.32 59.9619 683.317 Q54.9967 688.282 46.5303 688.282 Q37.7774 688.282 32.6531 683.571 Q27.4968 678.829 27.4968 670.808 Q27.4968 663.615 32.1438 659.445 Q36.7589 655.244 44.7161 655.244 M42.9973 661.101 Q38.1912 661.164 35.3266 663.806 Q32.4621 666.416 32.4621 670.745 Q32.4621 675.646 35.2312 678.606 Q38.0002 681.534 43.0292 681.98 L42.9973 661.101 Z" fill="#000000" fill-rule="nonzero" fill-opacity="1" /><path clip-path="url(#clip470)" d="M14.5426 610.843 Q21.8632 615.108 29.0246 617.177 Q36.186 619.246 43.5384 619.246 Q50.8908 619.246 58.1159 617.177 Q65.3091 615.076 72.5979 610.843 L72.5979 615.936 Q65.1182 620.71 57.8931 623.097 Q50.668 625.453 43.5384 625.453 Q36.4406 625.453 29.2474 623.097 Q22.0542 620.742 14.5426 615.936 L14.5426 610.843 Z" fill="#000000" fill-rule="nonzero" fill-opacity="1" /><path clip-path="url(#clip470)" d="M29.7248 573.827 L35.1993 573.827 Q33.8307 576.309 33.1623 578.824 Q32.4621 581.306 32.4621 583.853 Q32.4621 589.55 36.0905 592.701 Q39.6872 595.852 46.212 595.852 Q52.7369 595.852 56.3653 592.701 Q59.9619 589.55 59.9619 583.853 Q59.9619 581.306 59.2935 578.824 Q58.5933 576.309 57.2247 573.827 L62.6355 573.827 Q63.7814 576.277 64.3543 578.919 Q64.9272 581.529 64.9272 584.489 Q64.9272 592.542 59.8664 597.284 Q54.8057 602.027 46.212 602.027 Q37.491 602.027 32.4939 597.252 Q27.4968 592.446 27.4968 584.107 Q27.4968 581.402 28.0697 578.824 Q28.6108 576.246 29.7248 573.827 Z" fill="#000000" fill-rule="nonzero" fill-opacity="1" /><path clip-path="url(#clip470)" d="M35.1993 535.887 Q31.2526 533.691 29.3747 530.635 Q27.4968 527.58 27.4968 523.442 Q27.4968 517.872 31.4117 514.848 Q35.2948 511.825 42.4881 511.825 L64.0042 511.825 L64.0042 517.713 L42.679 517.713 Q37.5546 517.713 35.072 519.527 Q32.5894 521.341 32.5894 525.065 Q32.5894 529.617 35.6131 532.259 Q38.6368 534.9 43.8567 534.9 L64.0042 534.9 L64.0042 540.789 L42.679 540.789 Q37.5228 540.789 35.072 542.603 Q32.5894 544.417 32.5894 548.205 Q32.5894 552.693 35.6449 555.334 Q38.6686 557.976 43.8567 557.976 L64.0042 557.976 L64.0042 563.864 L28.3562 563.864 L28.3562 557.976 L33.8944 557.976 Q30.616 555.971 29.0564 553.17 Q27.4968 550.369 27.4968 546.518 Q27.4968 542.635 29.4702 539.929 Q31.4436 537.192 35.1993 535.887 Z" fill="#000000" fill-rule="nonzero" fill-opacity="1" /><path clip-path="url(#clip470)" d="M29.7885 501.926 L29.7885 476.24 L32.8122 476.24 L32.8122 501.926 L29.7885 501.926 Z" fill="#000000" fill-rule="nonzero" fill-opacity="1" /><path clip-path="url(#clip470)" d="M28.3562 455.202 Q28.9291 452.274 30.6797 450.682 Q32.3984 449.059 35.0084 449.059 Q38.9551 449.059 41.0876 452.083 Q43.2201 455.106 43.2201 460.74 Q43.2201 462.554 42.9018 464.559 Q42.5517 466.533 41.9152 468.761 L38.0639 468.761 Q38.9233 467.106 39.337 465.228 Q39.7508 463.318 39.7508 461.186 Q39.7508 457.716 38.5095 455.806 Q37.2364 453.897 35.0084 453.897 Q32.6531 453.897 31.4436 455.679 Q30.2341 457.43 30.2341 460.867 L30.2341 463.604 L26.7966 463.604 L26.7966 460.613 Q26.7966 457.621 25.8099 456.093 Q24.7914 454.533 22.8817 454.533 Q21.0356 454.533 20.0808 456.125 Q19.0941 457.716 19.0941 460.74 Q19.0941 462.013 19.3806 463.636 Q19.667 465.26 20.3991 467.838 L16.7388 467.838 Q16.1977 465.514 15.9112 463.477 Q15.6248 461.44 15.6248 459.69 Q15.6248 455.106 17.5027 452.433 Q19.3806 449.727 22.5316 449.727 Q24.7277 449.727 26.2555 451.16 Q27.7833 452.592 28.3562 455.202 Z" fill="#000000" fill-rule="nonzero" fill-opacity="1" /><path clip-path="url(#clip470)" d="M29.4065 396.16 L34.9447 396.16 Q33.6716 398.642 33.035 401.316 Q32.3984 403.99 32.3984 406.854 Q32.3984 411.215 33.7352 413.411 Q35.072 415.575 37.7456 415.575 Q39.7826 415.575 40.9603 414.016 Q42.1061 412.456 43.1565 407.745 L43.6021 405.74 Q44.9389 399.502 47.3897 396.892 Q49.8086 394.25 54.1691 394.25 Q59.1344 394.25 62.0308 398.197 Q64.9272 402.112 64.9272 408.987 Q64.9272 411.851 64.3543 414.97 Q63.8132 418.058 62.6992 421.495 L56.6518 421.495 Q58.3387 418.249 59.198 415.098 Q60.0256 411.947 60.0256 408.859 Q60.0256 404.722 58.6251 402.494 Q57.1929 400.266 54.6147 400.266 Q52.2276 400.266 50.9545 401.889 Q49.6813 403.48 48.5037 408.923 L48.0262 410.96 Q46.8804 416.403 44.5251 418.822 Q42.138 421.241 38.0002 421.241 Q32.9713 421.241 30.2341 417.676 Q27.4968 414.111 27.4968 407.554 Q27.4968 404.308 27.9743 401.443 Q28.4517 398.579 29.4065 396.16 Z" fill="#000000" fill-rule="nonzero" fill-opacity="1" /><path clip-path="url(#clip470)" d="M29.7885 386.707 L29.7885 361.021 L32.8122 361.021 L32.8122 386.707 L29.7885 386.707 Z" fill="#000000" fill-rule="nonzero" fill-opacity="1" /><path clip-path="url(#clip470)" d="M39.2416 351.695 L39.2416 345.202 L19.7943 345.202 L21.0993 352.3 L17.4072 352.3 L16.1659 344.98 L16.1659 340.619 L39.2416 340.619 L39.2416 334.094 L42.7427 334.094 L42.7427 351.695 L39.2416 351.695 Z" fill="#000000" fill-rule="nonzero" fill-opacity="1" /><path clip-path="url(#clip470)" d="M14.5426 325.31 L14.5426 320.217 Q22.0542 315.443 29.2474 313.087 Q36.4406 310.7 43.5384 310.7 Q50.668 310.7 57.8931 313.087 Q65.1182 315.443 72.5979 320.217 L72.5979 325.31 Q65.3091 321.076 58.1159 319.007 Q50.8908 316.907 43.5384 316.907 Q36.186 316.907 29.0246 319.007 Q21.8632 321.076 14.5426 325.31 Z" fill="#000000" fill-rule="nonzero" fill-opacity="1" /><polyline clip-path="url(#clip472)" style="stroke:#1b9e77; stroke-linecap:round; stroke-linejoin:round; stroke-width:12; stroke-opacity:1; fill:none" points="312.198,1858.64 370.466,1762.34 428.734,1666.05 487.003,1569.75 545.271,1473.46 603.54,1377.16 661.808,1280.86 720.076,1184.57 778.345,1088.27 836.613,991.976 894.881,895.68 953.15,799.384 1011.42,703.088 1069.69,606.792 1127.95,510.496 1186.22,414.2 1244.49,317.904 1302.76,221.608 1361.03,125.312 1419.3,29.0156 1477.57,-67.2804 "/>
<polyline clip-path="url(#clip472)" style="stroke:#d95f02; stroke-linecap:round; stroke-linejoin:round; stroke-width:12; stroke-opacity:1; fill:none" points="545.271,1739.75 603.54,1643.46 661.808,1547.16 720.076,1450.87 778.345,1354.57 836.613,1258.27 894.881,1161.98 953.15,1065.68 1011.42,969.386 1069.69,873.09 1127.95,776.794 1186.22,680.498 1244.49,584.202 1302.76,487.906 1361.03,391.61 1419.3,295.314 1477.57,199.018 1535.83,102.722 1594.1,6.42581 1652.37,-89.8702 1710.64,-186.166 "/>
<polyline clip-path="url(#clip472)" style="stroke:#756fb3; stroke-linecap:round; stroke-linejoin:round; stroke-width:12; stroke-opacity:1; fill:none" points="545.271,2312.56 603.54,2216.26 661.808,2119.97 720.076,2023.67 778.345,1927.38 836.613,1831.08 894.881,1734.78 953.15,1638.49 1011.42,1542.19 1069.69,1445.9 1127.95,1349.6 1186.22,1253.3 1244.49,1157.01 1302.76,1060.71 1361.03,964.416 1419.3,868.12 1477.57,771.824 1535.83,675.528 1594.1,579.232 1652.37,482.936 1710.64,386.64 1768.91,290.344 1827.18,194.048 1885.44,97.7515 1943.71,1.45551 2001.98,-94.8405 2060.25,-191.137 2118.52,-287.433 2176.79,-383.729 "/>
<polyline clip-path="url(#clip472)" style="stroke:#e72989; stroke-linecap:round; stroke-linejoin:round; stroke-width:12; stroke-opacity:1; fill:none" points="1244.49,2131.4 1302.76,2035.1 1361.03,1938.81 1419.3,1842.51 1477.57,1746.21 1535.83,1649.92 1594.1,1553.62 1652.37,1457.33 1710.64,1361.03 1768.91,1264.73 1827.18,1168.44 1885.44,1072.14 1943.71,975.846 2001.98,879.549 2060.25,783.253 2118.52,686.957 2176.79,590.661 2235.05,494.365 2293.32,398.069 "/>
<polyline clip-path="url(#clip472)" style="stroke:#66a61e; stroke-linecap:round; stroke-linejoin:round; stroke-width:12; stroke-opacity:1; fill:none" points="1244.49,2728.87 1302.76,2632.57 1361.03,2536.27 1419.3,2439.98 1477.57,2343.68 1535.83,2247.39 1594.1,2151.09 1652.37,2054.79 1710.64,1958.5 1768.91,1862.2 1827.18,1765.91 1885.44,1669.61 1943.71,1573.31 2001.98,1477.02 2060.25,1380.72 2118.52,1284.43 2176.79,1188.13 2235.05,1091.83 2293.32,995.538 "/>
<circle clip-path="url(#clip472)" cx="885" cy="820.401" r="14.4" fill="#1b9e77" fill-rule="evenodd" fill-opacity="1" stroke="#000000" stroke-opacity="1" stroke-width="3.2"/>
<circle clip-path="url(#clip472)" cx="1085.33" cy="761.967" r="14.4" fill="#1b9e77" fill-rule="evenodd" fill-opacity="1" stroke="#000000" stroke-opacity="1" stroke-width="3.2"/>
<circle clip-path="url(#clip472)" cx="1267.99" cy="455.443" r="14.4" fill="#1b9e77" fill-rule="evenodd" fill-opacity="1" stroke="#000000" stroke-opacity="1" stroke-width="3.2"/>
<circle clip-path="url(#clip472)" cx="1203.87" cy="445.934" r="14.4" fill="#1b9e77" fill-rule="evenodd" fill-opacity="1" stroke="#000000" stroke-opacity="1" stroke-width="3.2"/>
<circle clip-path="url(#clip472)" cx="1064.12" cy="465.739" r="14.4" fill="#1b9e77" fill-rule="evenodd" fill-opacity="1" stroke="#000000" stroke-opacity="1" stroke-width="3.2"/>
<circle clip-path="url(#clip472)" cx="1097.38" cy="612.092" r="14.4" fill="#1b9e77" fill-rule="evenodd" fill-opacity="1" stroke="#000000" stroke-opacity="1" stroke-width="3.2"/>
<circle clip-path="url(#clip472)" cx="920.508" cy="892.727" r="14.4" fill="#1b9e77" fill-rule="evenodd" fill-opacity="1" stroke="#000000" stroke-opacity="1" stroke-width="3.2"/>
<circle clip-path="url(#clip472)" cx="1344.71" cy="202.174" r="14.4" fill="#1b9e77" fill-rule="evenodd" fill-opacity="1" stroke="#000000" stroke-opacity="1" stroke-width="3.2"/>
<circle clip-path="url(#clip472)" cx="1185.44" cy="355.166" r="14.4" fill="#1b9e77" fill-rule="evenodd" fill-opacity="1" stroke="#000000" stroke-opacity="1" stroke-width="3.2"/>
<circle clip-path="url(#clip472)" cx="859.929" cy="931.355" r="14.4" fill="#1b9e77" fill-rule="evenodd" fill-opacity="1" stroke="#000000" stroke-opacity="1" stroke-width="3.2"/>
<circle clip-path="url(#clip472)" cx="1253.4" cy="349.883" r="14.4" fill="#1b9e77" fill-rule="evenodd" fill-opacity="1" stroke="#000000" stroke-opacity="1" stroke-width="3.2"/>
<circle clip-path="url(#clip472)" cx="778.228" cy="1386.78" r="14.4" fill="#d95f02" fill-rule="evenodd" fill-opacity="1" stroke="#000000" stroke-opacity="1" stroke-width="3.2"/>
<circle clip-path="url(#clip472)" cx="1163.04" cy="917.384" r="14.4" fill="#d95f02" fill-rule="evenodd" fill-opacity="1" stroke="#000000" stroke-opacity="1" stroke-width="3.2"/>
<circle clip-path="url(#clip472)" cx="1112.48" cy="845.027" r="14.4" fill="#d95f02" fill-rule="evenodd" fill-opacity="1" stroke="#000000" stroke-opacity="1" stroke-width="3.2"/>
<circle clip-path="url(#clip472)" cx="1129.33" cy="728.143" r="14.4" fill="#d95f02" fill-rule="evenodd" fill-opacity="1" stroke="#000000" stroke-opacity="1" stroke-width="3.2"/>
<circle clip-path="url(#clip472)" cx="1161.63" cy="713.3" r="14.4" fill="#d95f02" fill-rule="evenodd" fill-opacity="1" stroke="#000000" stroke-opacity="1" stroke-width="3.2"/>
<circle clip-path="url(#clip472)" cx="1293.65" cy="572.297" r="14.4" fill="#d95f02" fill-rule="evenodd" fill-opacity="1" stroke="#000000" stroke-opacity="1" stroke-width="3.2"/>
<circle clip-path="url(#clip472)" cx="1226.23" cy="531.48" r="14.4" fill="#d95f02" fill-rule="evenodd" fill-opacity="1" stroke="#000000" stroke-opacity="1" stroke-width="3.2"/>
<circle clip-path="url(#clip472)" cx="1302.07" cy="396.042" r="14.4" fill="#d95f02" fill-rule="evenodd" fill-opacity="1" stroke="#000000" stroke-opacity="1" stroke-width="3.2"/>
<circle clip-path="url(#clip472)" cx="1455.15" cy="245.762" r="14.4" fill="#d95f02" fill-rule="evenodd" fill-opacity="1" stroke="#000000" stroke-opacity="1" stroke-width="3.2"/>
<circle clip-path="url(#clip472)" cx="1205.65" cy="1003.97" r="14.4" fill="#756fb3" fill-rule="evenodd" fill-opacity="1" stroke="#000000" stroke-opacity="1" stroke-width="3.2"/>
<circle clip-path="url(#clip472)" cx="1309.23" cy="972.696" r="14.4" fill="#756fb3" fill-rule="evenodd" fill-opacity="1" stroke="#000000" stroke-opacity="1" stroke-width="3.2"/>
<circle clip-path="url(#clip472)" cx="1365.88" cy="924.454" r="14.4" fill="#756fb3" fill-rule="evenodd" fill-opacity="1" stroke="#000000" stroke-opacity="1" stroke-width="3.2"/>
<circle clip-path="url(#clip472)" cx="1322.18" cy="948.514" r="14.4" fill="#756fb3" fill-rule="evenodd" fill-opacity="1" stroke="#000000" stroke-opacity="1" stroke-width="3.2"/>
<circle clip-path="url(#clip472)" cx="1493.75" cy="775.83" r="14.4" fill="#756fb3" fill-rule="evenodd" fill-opacity="1" stroke="#000000" stroke-opacity="1" stroke-width="3.2"/>
<circle clip-path="url(#clip472)" cx="1480.8" cy="609.866" r="14.4" fill="#756fb3" fill-rule="evenodd" fill-opacity="1" stroke="#000000" stroke-opacity="1" stroke-width="3.2"/>
<circle clip-path="url(#clip472)" cx="1905.99" cy="952.513" r="14.4" fill="#e72989" fill-rule="evenodd" fill-opacity="1" stroke="#000000" stroke-opacity="1" stroke-width="3.2"/>
<circle clip-path="url(#clip472)" cx="1979.45" cy="908.122" r="14.4" fill="#e72989" fill-rule="evenodd" fill-opacity="1" stroke="#000000" stroke-opacity="1" stroke-width="3.2"/>
<circle clip-path="url(#clip472)" cx="1984.61" cy="835.344" r="14.4" fill="#e72989" fill-rule="evenodd" fill-opacity="1" stroke="#000000" stroke-opacity="1" stroke-width="3.2"/>
<circle clip-path="url(#clip472)" cx="2051.47" cy="754.608" r="14.4" fill="#e72989" fill-rule="evenodd" fill-opacity="1" stroke="#000000" stroke-opacity="1" stroke-width="3.2"/>
<circle clip-path="url(#clip472)" cx="2125.24" cy="564.709" r="14.4" fill="#e72989" fill-rule="evenodd" fill-opacity="1" stroke="#000000" stroke-opacity="1" stroke-width="3.2"/>
<circle clip-path="url(#clip472)" cx="2257.34" cy="386.016" r="14.4" fill="#e72989" fill-rule="evenodd" fill-opacity="1" stroke="#000000" stroke-opacity="1" stroke-width="3.2"/>
<circle clip-path="url(#clip472)" cx="1942.95" cy="822.143" r="14.4" fill="#e72989" fill-rule="evenodd" fill-opacity="1" stroke="#000000" stroke-opacity="1" stroke-width="3.2"/>
<circle clip-path="url(#clip472)" cx="2090.25" cy="551.477" r="14.4" fill="#e72989" fill-rule="evenodd" fill-opacity="1" stroke="#000000" stroke-opacity="1" stroke-width="3.2"/>
<circle clip-path="url(#clip472)" cx="2038.25" cy="699.15" r="14.4" fill="#e72989" fill-rule="evenodd" fill-opacity="1" stroke="#000000" stroke-opacity="1" stroke-width="3.2"/>
<path clip-path="url(#clip470)" d="M1938.59 403.739 L2282.76 403.739 L2282.76 92.6992 L1938.59 92.6992  Z" fill="#ffffff" fill-rule="evenodd" fill-opacity="1"/>
<polyline clip-path="url(#clip470)" style="stroke:#000000; stroke-linecap:round; stroke-linejoin:round; stroke-width:4; stroke-opacity:1; fill:none" points="1938.59,403.739 2282.76,403.739 2282.76,92.6992 1938.59,92.6992 1938.59,403.739 "/>
<polyline clip-path="url(#clip470)" style="stroke:#1b9e77; stroke-linecap:round; stroke-linejoin:round; stroke-width:12; stroke-opacity:1; fill:none" points="1961.92,144.539 2101.92,144.539 "/>
<path clip-path="url(#clip470)" d="M2130.88 157.884 L2147.2 157.884 L2147.2 161.819 L2125.26 161.819 L2125.26 157.884 Q2127.92 155.129 2132.5 150.5 Q2137.11 145.847 2138.29 144.504 Q2140.53 141.981 2141.41 140.245 Q2142.32 138.486 2142.32 136.796 Q2142.32 134.042 2140.37 132.305 Q2138.45 130.569 2135.35 130.569 Q2133.15 130.569 2130.7 131.333 Q2128.27 132.097 2125.49 133.648 L2125.49 128.926 Q2128.31 127.792 2130.77 127.213 Q2133.22 126.634 2135.26 126.634 Q2140.63 126.634 2143.82 129.319 Q2147.02 132.005 2147.02 136.495 Q2147.02 138.625 2146.21 140.546 Q2145.42 142.444 2143.31 145.037 Q2142.73 145.708 2139.63 148.926 Q2136.53 152.12 2130.88 157.884 Z" fill="#000000" fill-rule="nonzero" fill-opacity="1" /><path clip-path="url(#clip470)" d="M2167.02 130.338 Q2163.4 130.338 2161.58 133.903 Q2159.77 137.444 2159.77 144.574 Q2159.77 151.68 2161.58 155.245 Q2163.4 158.787 2167.02 158.787 Q2170.65 158.787 2172.46 155.245 Q2174.28 151.68 2174.28 144.574 Q2174.28 137.444 2172.46 133.903 Q2170.65 130.338 2167.02 130.338 M2167.02 126.634 Q2172.83 126.634 2175.88 131.241 Q2178.96 135.824 2178.96 144.574 Q2178.96 153.301 2175.88 157.907 Q2172.83 162.49 2167.02 162.49 Q2161.21 162.49 2158.13 157.907 Q2155.07 153.301 2155.07 144.574 Q2155.07 135.824 2158.13 131.241 Q2161.21 126.634 2167.02 126.634 Z" fill="#000000" fill-rule="nonzero" fill-opacity="1" /><path clip-path="url(#clip470)" d="M2197.18 145.407 Q2193.84 145.407 2191.92 147.19 Q2190.03 148.972 2190.03 152.097 Q2190.03 155.222 2191.92 157.004 Q2193.84 158.787 2197.18 158.787 Q2200.51 158.787 2202.43 157.004 Q2204.35 155.199 2204.35 152.097 Q2204.35 148.972 2202.43 147.19 Q2200.53 145.407 2197.18 145.407 M2192.5 143.417 Q2189.49 142.676 2187.8 140.616 Q2186.14 138.555 2186.14 135.592 Q2186.14 131.449 2189.08 129.042 Q2192.04 126.634 2197.18 126.634 Q2202.34 126.634 2205.28 129.042 Q2208.22 131.449 2208.22 135.592 Q2208.22 138.555 2206.53 140.616 Q2204.86 142.676 2201.88 143.417 Q2205.26 144.204 2207.13 146.495 Q2209.03 148.787 2209.03 152.097 Q2209.03 157.12 2205.95 159.805 Q2202.9 162.49 2197.18 162.49 Q2191.46 162.49 2188.38 159.805 Q2185.33 157.12 2185.33 152.097 Q2185.33 148.787 2187.22 146.495 Q2189.12 144.204 2192.5 143.417 M2190.79 136.032 Q2190.79 138.717 2192.46 140.222 Q2194.15 141.727 2197.18 141.727 Q2200.19 141.727 2201.88 140.222 Q2203.59 138.717 2203.59 136.032 Q2203.59 133.347 2201.88 131.842 Q2200.19 130.338 2197.18 130.338 Q2194.15 130.338 2192.46 131.842 Q2190.79 133.347 2190.79 136.032 Z" fill="#000000" fill-rule="nonzero" fill-opacity="1" /><path clip-path="url(#clip470)" d="M2231.99 127.259 L2236.67 127.259 L2236.67 141.866 L2252.18 127.259 L2258.2 127.259 L2241.04 143.37 L2259.42 161.819 L2253.27 161.819 L2236.67 145.176 L2236.67 161.819 L2231.99 161.819 L2231.99 127.259 Z" fill="#000000" fill-rule="nonzero" fill-opacity="1" /><polyline clip-path="url(#clip470)" style="stroke:#d95f02; stroke-linecap:round; stroke-linejoin:round; stroke-width:12; stroke-opacity:1; fill:none" points="1961.92,196.379 2101.92,196.379 "/>
<path clip-path="url(#clip470)" d="M2130.88 209.724 L2147.2 209.724 L2147.2 213.659 L2125.26 213.659 L2125.26 209.724 Q2127.92 206.969 2132.5 202.34 Q2137.11 197.687 2138.29 196.344 Q2140.53 193.821 2141.41 192.085 Q2142.32 190.326 2142.32 188.636 Q2142.32 185.882 2140.37 184.145 Q2138.45 182.409 2135.35 182.409 Q2133.15 182.409 2130.7 183.173 Q2128.27 183.937 2125.49 185.488 L2125.49 180.766 Q2128.31 179.632 2130.77 179.053 Q2133.22 178.474 2135.26 178.474 Q2140.63 178.474 2143.82 181.159 Q2147.02 183.845 2147.02 188.335 Q2147.02 190.465 2146.21 192.386 Q2145.42 194.284 2143.31 196.877 Q2142.73 197.548 2139.63 200.766 Q2136.53 203.96 2130.88 209.724 Z" fill="#000000" fill-rule="nonzero" fill-opacity="1" /><path clip-path="url(#clip470)" d="M2161.04 209.724 L2177.36 209.724 L2177.36 213.659 L2155.42 213.659 L2155.42 209.724 Q2158.08 206.969 2162.66 202.34 Q2167.27 197.687 2168.45 196.344 Q2170.7 193.821 2171.58 192.085 Q2172.48 190.326 2172.48 188.636 Q2172.48 185.882 2170.53 184.145 Q2168.61 182.409 2165.51 182.409 Q2163.31 182.409 2160.86 183.173 Q2158.43 183.937 2155.65 185.488 L2155.65 180.766 Q2158.47 179.632 2160.93 179.053 Q2163.38 178.474 2165.42 178.474 Q2170.79 178.474 2173.98 181.159 Q2177.18 183.845 2177.18 188.335 Q2177.18 190.465 2176.37 192.386 Q2175.58 194.284 2173.47 196.877 Q2172.9 197.548 2169.79 200.766 Q2166.69 203.96 2161.04 209.724 Z" fill="#000000" fill-rule="nonzero" fill-opacity="1" /><path clip-path="url(#clip470)" d="M2201.34 195.025 Q2204.7 195.743 2206.58 198.011 Q2208.47 200.28 2208.47 203.613 Q2208.47 208.729 2204.96 211.53 Q2201.44 214.33 2194.96 214.33 Q2192.78 214.33 2190.46 213.891 Q2188.17 213.474 2185.72 212.618 L2185.72 208.104 Q2187.66 209.238 2189.98 209.817 Q2192.29 210.395 2194.82 210.395 Q2199.21 210.395 2201.51 208.659 Q2203.82 206.923 2203.82 203.613 Q2203.82 200.557 2201.67 198.844 Q2199.54 197.108 2195.72 197.108 L2191.69 197.108 L2191.69 193.266 L2195.9 193.266 Q2199.35 193.266 2201.18 191.9 Q2203.01 190.511 2203.01 187.919 Q2203.01 185.257 2201.11 183.845 Q2199.24 182.409 2195.72 182.409 Q2193.8 182.409 2191.6 182.826 Q2189.4 183.243 2186.76 184.122 L2186.76 179.956 Q2189.42 179.215 2191.74 178.845 Q2194.08 178.474 2196.14 178.474 Q2201.46 178.474 2204.56 180.905 Q2207.66 183.312 2207.66 187.432 Q2207.66 190.303 2206.02 192.294 Q2204.38 194.261 2201.34 195.025 Z" fill="#000000" fill-rule="nonzero" fill-opacity="1" /><path clip-path="url(#clip470)" d="M2231.99 179.099 L2236.67 179.099 L2236.67 193.706 L2252.18 179.099 L2258.2 179.099 L2241.04 195.21 L2259.42 213.659 L2253.27 213.659 L2236.67 197.016 L2236.67 213.659 L2231.99 213.659 L2231.99 179.099 Z" fill="#000000" fill-rule="nonzero" fill-opacity="1" /><polyline clip-path="url(#clip470)" style="stroke:#756fb3; stroke-linecap:round; stroke-linejoin:round; stroke-width:12; stroke-opacity:1; fill:none" points="1961.92,248.219 2101.92,248.219 "/>
<path clip-path="url(#clip470)" d="M2130.88 261.564 L2147.2 261.564 L2147.2 265.499 L2125.26 265.499 L2125.26 261.564 Q2127.92 258.809 2132.5 254.18 Q2137.11 249.527 2138.29 248.184 Q2140.53 245.661 2141.41 243.925 Q2142.32 242.166 2142.32 240.476 Q2142.32 237.722 2140.37 235.985 Q2138.45 234.249 2135.35 234.249 Q2133.15 234.249 2130.7 235.013 Q2128.27 235.777 2125.49 237.328 L2125.49 232.606 Q2128.31 231.472 2130.77 230.893 Q2133.22 230.314 2135.26 230.314 Q2140.63 230.314 2143.82 232.999 Q2147.02 235.685 2147.02 240.175 Q2147.02 242.305 2146.21 244.226 Q2145.42 246.124 2143.31 248.717 Q2142.73 249.388 2139.63 252.606 Q2136.53 255.8 2130.88 261.564 Z" fill="#000000" fill-rule="nonzero" fill-opacity="1" /><path clip-path="url(#clip470)" d="M2169.86 235.013 L2158.06 253.462 L2169.86 253.462 L2169.86 235.013 M2168.64 230.939 L2174.52 230.939 L2174.52 253.462 L2179.45 253.462 L2179.45 257.351 L2174.52 257.351 L2174.52 265.499 L2169.86 265.499 L2169.86 257.351 L2154.26 257.351 L2154.26 252.837 L2168.64 230.939 Z" fill="#000000" fill-rule="nonzero" fill-opacity="1" /><path clip-path="url(#clip470)" d="M2197.18 249.087 Q2193.84 249.087 2191.92 250.87 Q2190.03 252.652 2190.03 255.777 Q2190.03 258.902 2191.92 260.684 Q2193.84 262.467 2197.18 262.467 Q2200.51 262.467 2202.43 260.684 Q2204.35 258.879 2204.35 255.777 Q2204.35 252.652 2202.43 250.87 Q2200.53 249.087 2197.18 249.087 M2192.5 247.097 Q2189.49 246.356 2187.8 244.296 Q2186.14 242.235 2186.14 239.272 Q2186.14 235.129 2189.08 232.722 Q2192.04 230.314 2197.18 230.314 Q2202.34 230.314 2205.28 232.722 Q2208.22 235.129 2208.22 239.272 Q2208.22 242.235 2206.53 244.296 Q2204.86 246.356 2201.88 247.097 Q2205.26 247.884 2207.13 250.175 Q2209.03 252.467 2209.03 255.777 Q2209.03 260.8 2205.95 263.485 Q2202.9 266.17 2197.18 266.17 Q2191.46 266.17 2188.38 263.485 Q2185.33 260.8 2185.33 255.777 Q2185.33 252.467 2187.22 250.175 Q2189.12 247.884 2192.5 247.097 M2190.79 239.712 Q2190.79 242.397 2192.46 243.902 Q2194.15 245.407 2197.18 245.407 Q2200.19 245.407 2201.88 243.902 Q2203.59 242.397 2203.59 239.712 Q2203.59 237.027 2201.88 235.522 Q2200.19 234.018 2197.18 234.018 Q2194.15 234.018 2192.46 235.522 Q2190.79 237.027 2190.79 239.712 Z" fill="#000000" fill-rule="nonzero" fill-opacity="1" /><path clip-path="url(#clip470)" d="M2231.99 230.939 L2236.67 230.939 L2236.67 245.546 L2252.18 230.939 L2258.2 230.939 L2241.04 247.05 L2259.42 265.499 L2253.27 265.499 L2236.67 248.856 L2236.67 265.499 L2231.99 265.499 L2231.99 230.939 Z" fill="#000000" fill-rule="nonzero" fill-opacity="1" /><polyline clip-path="url(#clip470)" style="stroke:#e72989; stroke-linecap:round; stroke-linejoin:round; stroke-width:12; stroke-opacity:1; fill:none" points="1961.92,300.059 2101.92,300.059 "/>
<path clip-path="url(#clip470)" d="M2130.88 313.404 L2147.2 313.404 L2147.2 317.339 L2125.26 317.339 L2125.26 313.404 Q2127.92 310.649 2132.5 306.02 Q2137.11 301.367 2138.29 300.024 Q2140.53 297.501 2141.41 295.765 Q2142.32 294.006 2142.32 292.316 Q2142.32 289.562 2140.37 287.825 Q2138.45 286.089 2135.35 286.089 Q2133.15 286.089 2130.7 286.853 Q2128.27 287.617 2125.49 289.168 L2125.49 284.446 Q2128.31 283.312 2130.77 282.733 Q2133.22 282.154 2135.26 282.154 Q2140.63 282.154 2143.82 284.839 Q2147.02 287.525 2147.02 292.015 Q2147.02 294.145 2146.21 296.066 Q2145.42 297.964 2143.31 300.557 Q2142.73 301.228 2139.63 304.446 Q2136.53 307.64 2130.88 313.404 Z" fill="#000000" fill-rule="nonzero" fill-opacity="1" /><path clip-path="url(#clip470)" d="M2155.84 282.779 L2178.06 282.779 L2178.06 284.77 L2165.51 317.339 L2160.63 317.339 L2172.43 286.714 L2155.84 286.714 L2155.84 282.779 Z" fill="#000000" fill-rule="nonzero" fill-opacity="1" /><path clip-path="url(#clip470)" d="M2197.18 300.927 Q2193.84 300.927 2191.92 302.71 Q2190.03 304.492 2190.03 307.617 Q2190.03 310.742 2191.92 312.524 Q2193.84 314.307 2197.18 314.307 Q2200.51 314.307 2202.43 312.524 Q2204.35 310.719 2204.35 307.617 Q2204.35 304.492 2202.43 302.71 Q2200.53 300.927 2197.18 300.927 M2192.5 298.937 Q2189.49 298.196 2187.8 296.136 Q2186.14 294.075 2186.14 291.112 Q2186.14 286.969 2189.08 284.562 Q2192.04 282.154 2197.18 282.154 Q2202.34 282.154 2205.28 284.562 Q2208.22 286.969 2208.22 291.112 Q2208.22 294.075 2206.53 296.136 Q2204.86 298.196 2201.88 298.937 Q2205.26 299.724 2207.13 302.015 Q2209.03 304.307 2209.03 307.617 Q2209.03 312.64 2205.95 315.325 Q2202.9 318.01 2197.18 318.01 Q2191.46 318.01 2188.38 315.325 Q2185.33 312.64 2185.33 307.617 Q2185.33 304.307 2187.22 302.015 Q2189.12 299.724 2192.5 298.937 M2190.79 291.552 Q2190.79 294.237 2192.46 295.742 Q2194.15 297.247 2197.18 297.247 Q2200.19 297.247 2201.88 295.742 Q2203.59 294.237 2203.59 291.552 Q2203.59 288.867 2201.88 287.362 Q2200.19 285.858 2197.18 285.858 Q2194.15 285.858 2192.46 287.362 Q2190.79 288.867 2190.79 291.552 Z" fill="#000000" fill-rule="nonzero" fill-opacity="1" /><path clip-path="url(#clip470)" d="M2231.99 282.779 L2236.67 282.779 L2236.67 297.386 L2252.18 282.779 L2258.2 282.779 L2241.04 298.89 L2259.42 317.339 L2253.27 317.339 L2236.67 300.696 L2236.67 317.339 L2231.99 317.339 L2231.99 282.779 Z" fill="#000000" fill-rule="nonzero" fill-opacity="1" /><polyline clip-path="url(#clip470)" style="stroke:#66a61e; stroke-linecap:round; stroke-linejoin:round; stroke-width:12; stroke-opacity:1; fill:none" points="1961.92,351.899 2101.92,351.899 "/>
<path clip-path="url(#clip470)" d="M2130.88 365.244 L2147.2 365.244 L2147.2 369.179 L2125.26 369.179 L2125.26 365.244 Q2127.92 362.489 2132.5 357.86 Q2137.11 353.207 2138.29 351.864 Q2140.53 349.341 2141.41 347.605 Q2142.32 345.846 2142.32 344.156 Q2142.32 341.402 2140.37 339.665 Q2138.45 337.929 2135.35 337.929 Q2133.15 337.929 2130.7 338.693 Q2128.27 339.457 2125.49 341.008 L2125.49 336.286 Q2128.31 335.152 2130.77 334.573 Q2133.22 333.994 2135.26 333.994 Q2140.63 333.994 2143.82 336.679 Q2147.02 339.365 2147.02 343.855 Q2147.02 345.985 2146.21 347.906 Q2145.42 349.804 2143.31 352.397 Q2142.73 353.068 2139.63 356.286 Q2136.53 359.48 2130.88 365.244 Z" fill="#000000" fill-rule="nonzero" fill-opacity="1" /><path clip-path="url(#clip470)" d="M2157.15 368.462 L2157.15 364.202 Q2158.91 365.036 2160.72 365.475 Q2162.53 365.915 2164.26 365.915 Q2168.89 365.915 2171.32 362.813 Q2173.78 359.688 2174.12 353.346 Q2172.78 355.337 2170.72 356.401 Q2168.66 357.466 2166.16 357.466 Q2160.97 357.466 2157.94 354.341 Q2154.93 351.193 2154.93 345.753 Q2154.93 340.429 2158.08 337.212 Q2161.23 333.994 2166.46 333.994 Q2172.46 333.994 2175.6 338.601 Q2178.78 343.184 2178.78 351.934 Q2178.78 360.105 2174.89 364.989 Q2171.02 369.85 2164.47 369.85 Q2162.71 369.85 2160.9 369.503 Q2159.1 369.156 2157.15 368.462 M2166.46 353.809 Q2169.61 353.809 2171.44 351.656 Q2173.29 349.503 2173.29 345.753 Q2173.29 342.027 2171.44 339.874 Q2169.61 337.698 2166.46 337.698 Q2163.31 337.698 2161.46 339.874 Q2159.63 342.027 2159.63 345.753 Q2159.63 349.503 2161.46 351.656 Q2163.31 353.809 2166.46 353.809 Z" fill="#000000" fill-rule="nonzero" fill-opacity="1" /><path clip-path="url(#clip470)" d="M2191.21 365.244 L2207.53 365.244 L2207.53 369.179 L2185.58 369.179 L2185.58 365.244 Q2188.24 362.489 2192.83 357.86 Q2197.43 353.207 2198.61 351.864 Q2200.86 349.341 2201.74 347.605 Q2202.64 345.846 2202.64 344.156 Q2202.64 341.402 2200.7 339.665 Q2198.78 337.929 2195.67 337.929 Q2193.47 337.929 2191.02 338.693 Q2188.59 339.457 2185.81 341.008 L2185.81 336.286 Q2188.64 335.152 2191.09 334.573 Q2193.54 333.994 2195.58 333.994 Q2200.95 333.994 2204.15 336.679 Q2207.34 339.365 2207.34 343.855 Q2207.34 345.985 2206.53 347.906 Q2205.74 349.804 2203.64 352.397 Q2203.06 353.068 2199.96 356.286 Q2196.85 359.48 2191.21 365.244 Z" fill="#000000" fill-rule="nonzero" fill-opacity="1" /><path clip-path="url(#clip470)" d="M2231.99 334.619 L2236.67 334.619 L2236.67 349.226 L2252.18 334.619 L2258.2 334.619 L2241.04 350.73 L2259.42 369.179 L2253.27 369.179 L2236.67 352.536 L2236.67 369.179 L2231.99 369.179 L2231.99 334.619 Z" fill="#000000" fill-rule="nonzero" fill-opacity="1" /></svg>
