<?xml version="1.0" encoding="utf-8"?>
<svg xmlns="http://www.w3.org/2000/svg" xmlns:xlink="http://www.w3.org/1999/xlink" width="600" height="400" viewBox="0 0 2400 1600">
<defs>
  <clipPath id="clip620">
    <rect x="0" y="0" width="2400" height="1600"/>
  </clipPath>
</defs>
<path clip-path="url(#clip620)" d="
M0 1600 L2400 1600 L2400 0 L0 0  Z
  " fill="#ffffff" fill-rule="evenodd" fill-opacity="1"/>
<defs>
  <clipPath id="clip621">
    <rect x="480" y="0" width="1681" height="1600"/>
  </clipPath>
</defs>
<path clip-path="url(#clip620)" d="
M340.028 1423.18 L2352.76 1423.18 L2352.76 47.2441 L340.028 47.2441  Z
  " fill="#ffffff" fill-rule="evenodd" fill-opacity="1"/>
<defs>
  <clipPath id="clip622">
    <rect x="340" y="47" width="2014" height="1377"/>
  </clipPath>
</defs>
<polyline clip-path="url(#clip622)" style="stroke:#000000; stroke-linecap:butt; stroke-linejoin:round; stroke-width:2; stroke-opacity:0.1; fill:none" points="
  396.988,1423.18 396.988,47.2441 
  "/>
<polyline clip-path="url(#clip622)" style="stroke:#000000; stroke-linecap:butt; stroke-linejoin:round; stroke-width:2; stroke-opacity:0.1; fill:none" points="
  776.749,1423.18 776.749,47.2441 
  "/>
<polyline clip-path="url(#clip622)" style="stroke:#000000; stroke-linecap:butt; stroke-linejoin:round; stroke-width:2; stroke-opacity:0.1; fill:none" points="
  1156.51,1423.18 1156.51,47.2441 
  "/>
<polyline clip-path="url(#clip622)" style="stroke:#000000; stroke-linecap:butt; stroke-linejoin:round; stroke-width:2; stroke-opacity:0.1; fill:none" points="
  1536.27,1423.18 1536.27,47.2441 
  "/>
<polyline clip-path="url(#clip622)" style="stroke:#000000; stroke-linecap:butt; stroke-linejoin:round; stroke-width:2; stroke-opacity:0.1; fill:none" points="
  1916.03,1423.18 1916.03,47.2441 
  "/>
<polyline clip-path="url(#clip622)" style="stroke:#000000; stroke-linecap:butt; stroke-linejoin:round; stroke-width:2; stroke-opacity:0.1; fill:none" points="
  2295.79,1423.18 2295.79,47.2441 
  "/>
<polyline clip-path="url(#clip620)" style="stroke:#000000; stroke-linecap:butt; stroke-linejoin:round; stroke-width:4; stroke-opacity:1; fill:none" points="
  340.028,1423.18 2352.76,1423.18 
  "/>
<polyline clip-path="url(#clip620)" style="stroke:#000000; stroke-linecap:butt; stroke-linejoin:round; stroke-width:4; stroke-opacity:1; fill:none" points="
  396.988,1423.18 396.988,1404.28 
  "/>
<polyline clip-path="url(#clip620)" style="stroke:#000000; stroke-linecap:butt; stroke-linejoin:round; stroke-width:4; stroke-opacity:1; fill:none" points="
  776.749,1423.18 776.749,1404.28 
  "/>
<polyline clip-path="url(#clip620)" style="stroke:#000000; stroke-linecap:butt; stroke-linejoin:round; stroke-width:4; stroke-opacity:1; fill:none" points="
  1156.51,1423.18 1156.51,1404.28 
  "/>
<polyline clip-path="url(#clip620)" style="stroke:#000000; stroke-linecap:butt; stroke-linejoin:round; stroke-width:4; stroke-opacity:1; fill:none" points="
  1536.27,1423.18 1536.27,1404.28 
  "/>
<polyline clip-path="url(#clip620)" style="stroke:#000000; stroke-linecap:butt; stroke-linejoin:round; stroke-width:4; stroke-opacity:1; fill:none" points="
  1916.03,1423.18 1916.03,1404.28 
  "/>
<polyline clip-path="url(#clip620)" style="stroke:#000000; stroke-linecap:butt; stroke-linejoin:round; stroke-width:4; stroke-opacity:1; fill:none" points="
  2295.79,1423.18 2295.79,1404.28 
  "/>
<path clip-path="url(#clip620)" d="M396.988 1454.1 Q393.377 1454.1 391.548 1457.66 Q389.743 1461.2 389.743 1468.33 Q389.743 1475.44 391.548 1479.01 Q393.377 1482.55 396.988 1482.55 Q400.622 1482.55 402.428 1479.01 Q404.256 1475.44 404.256 1468.33 Q404.256 1461.2 402.428 1457.66 Q400.622 1454.1 396.988 1454.1 M396.988 1450.39 Q402.798 1450.39 405.854 1455 Q408.932 1459.58 408.932 1468.33 Q408.932 1477.06 405.854 1481.67 Q402.798 1486.25 396.988 1486.25 Q391.178 1486.25 388.099 1481.67 Q385.043 1477.06 385.043 1468.33 Q385.043 1459.58 388.099 1455 Q391.178 1450.39 396.988 1450.39 Z" fill="#000000" fill-rule="evenodd" fill-opacity="1" /><path clip-path="url(#clip620)" d="M767.131 1481.64 L774.77 1481.64 L774.77 1455.28 L766.459 1456.95 L766.459 1452.69 L774.723 1451.02 L779.399 1451.02 L779.399 1481.64 L787.038 1481.64 L787.038 1485.58 L767.131 1485.58 L767.131 1481.64 Z" fill="#000000" fill-rule="evenodd" fill-opacity="1" /><path clip-path="url(#clip620)" d="M1151.16 1481.64 L1167.48 1481.64 L1167.48 1485.58 L1145.54 1485.58 L1145.54 1481.64 Q1148.2 1478.89 1152.78 1474.26 Q1157.39 1469.61 1158.57 1468.27 Q1160.82 1465.74 1161.69 1464.01 Q1162.6 1462.25 1162.6 1460.56 Q1162.6 1457.8 1160.65 1456.07 Q1158.73 1454.33 1155.63 1454.33 Q1153.43 1454.33 1150.98 1455.09 Q1148.55 1455.86 1145.77 1457.41 L1145.77 1452.69 Q1148.59 1451.55 1151.05 1450.97 Q1153.5 1450.39 1155.54 1450.39 Q1160.91 1450.39 1164.1 1453.08 Q1167.3 1455.77 1167.3 1460.26 Q1167.3 1462.39 1166.49 1464.31 Q1165.7 1466.2 1163.59 1468.8 Q1163.01 1469.47 1159.91 1472.69 Q1156.81 1475.88 1151.16 1481.64 Z" fill="#000000" fill-rule="evenodd" fill-opacity="1" /><path clip-path="url(#clip620)" d="M1540.52 1466.95 Q1543.87 1467.66 1545.75 1469.93 Q1547.65 1472.2 1547.65 1475.53 Q1547.65 1480.65 1544.13 1483.45 Q1540.61 1486.25 1534.13 1486.25 Q1531.95 1486.25 1529.64 1485.81 Q1527.35 1485.39 1524.89 1484.54 L1524.89 1480.02 Q1526.84 1481.16 1529.15 1481.74 Q1531.47 1482.32 1533.99 1482.32 Q1538.39 1482.32 1540.68 1480.58 Q1542.99 1478.84 1542.99 1475.53 Q1542.99 1472.48 1540.84 1470.77 Q1538.71 1469.03 1534.89 1469.03 L1530.87 1469.03 L1530.87 1465.19 L1535.08 1465.19 Q1538.53 1465.19 1540.36 1463.82 Q1542.18 1462.43 1542.18 1459.84 Q1542.18 1457.18 1540.29 1455.77 Q1538.41 1454.33 1534.89 1454.33 Q1532.97 1454.33 1530.77 1454.75 Q1528.57 1455.16 1525.93 1456.04 L1525.93 1451.88 Q1528.6 1451.14 1530.91 1450.77 Q1533.25 1450.39 1535.31 1450.39 Q1540.63 1450.39 1543.74 1452.83 Q1546.84 1455.23 1546.84 1459.35 Q1546.84 1462.22 1545.19 1464.21 Q1543.55 1466.18 1540.52 1466.95 Z" fill="#000000" fill-rule="evenodd" fill-opacity="1" /><path clip-path="url(#clip620)" d="M1919.04 1455.09 L1907.23 1473.54 L1919.04 1473.54 L1919.04 1455.09 M1917.81 1451.02 L1923.69 1451.02 L1923.69 1473.54 L1928.62 1473.54 L1928.62 1477.43 L1923.69 1477.43 L1923.69 1485.58 L1919.04 1485.58 L1919.04 1477.43 L1903.44 1477.43 L1903.44 1472.92 L1917.81 1451.02 Z" fill="#000000" fill-rule="evenodd" fill-opacity="1" /><path clip-path="url(#clip620)" d="M2286.07 1451.02 L2304.43 1451.02 L2304.43 1454.96 L2290.35 1454.96 L2290.35 1463.43 Q2291.37 1463.08 2292.39 1462.92 Q2293.41 1462.73 2294.43 1462.73 Q2300.21 1462.73 2303.59 1465.9 Q2306.97 1469.08 2306.97 1474.49 Q2306.97 1480.07 2303.5 1483.17 Q2300.03 1486.25 2293.71 1486.25 Q2291.53 1486.25 2289.26 1485.88 Q2287.02 1485.51 2284.61 1484.77 L2284.61 1480.07 Q2286.69 1481.2 2288.92 1481.76 Q2291.14 1482.32 2293.62 1482.32 Q2297.62 1482.32 2299.96 1480.21 Q2302.3 1478.1 2302.3 1474.49 Q2302.3 1470.88 2299.96 1468.77 Q2297.62 1466.67 2293.62 1466.67 Q2291.74 1466.67 2289.87 1467.08 Q2288.01 1467.5 2286.07 1468.38 L2286.07 1451.02 Z" fill="#000000" fill-rule="evenodd" fill-opacity="1" /><path clip-path="url(#clip620)" d="M1128.8 1550.25 Q1128.8 1556.71 1131.44 1560.4 Q1134.11 1564.07 1138.76 1564.07 Q1143.41 1564.07 1146.08 1560.4 Q1148.75 1556.71 1148.75 1550.25 Q1148.75 1543.79 1146.08 1540.13 Q1143.41 1536.44 1138.76 1536.44 Q1134.11 1536.44 1131.44 1540.13 Q1128.8 1543.79 1128.8 1550.25 M1148.75 1562.7 Q1146.91 1565.88 1144.07 1567.44 Q1141.27 1568.97 1137.33 1568.97 Q1130.86 1568.97 1126.79 1563.81 Q1122.75 1558.65 1122.75 1550.25 Q1122.75 1541.85 1126.79 1536.69 Q1130.86 1531.54 1137.33 1531.54 Q1141.27 1531.54 1144.07 1533.1 Q1146.91 1534.62 1148.75 1537.81 L1148.75 1532.4 L1154.61 1532.4 L1154.61 1581.6 L1148.75 1581.6 L1148.75 1562.7 Z" fill="#000000" fill-rule="evenodd" fill-opacity="1" /><path clip-path="url(#clip620)" d="M1193.76 1578.87 L1193.76 1583.42 L1159.89 1583.42 L1159.89 1578.87 L1193.76 1578.87 Z" fill="#000000" fill-rule="evenodd" fill-opacity="1" /><path clip-path="url(#clip620)" d="M1221.99 1533.45 L1221.99 1538.98 Q1219.51 1537.71 1216.83 1537.07 Q1214.16 1536.44 1211.3 1536.44 Q1206.94 1536.44 1204.74 1537.77 Q1202.57 1539.11 1202.57 1541.79 Q1202.57 1543.82 1204.13 1545 Q1205.69 1546.15 1210.4 1547.2 L1212.41 1547.64 Q1218.65 1548.98 1221.26 1551.43 Q1223.9 1553.85 1223.9 1558.21 Q1223.9 1563.17 1219.95 1566.07 Q1216.04 1568.97 1209.16 1568.97 Q1206.3 1568.97 1203.18 1568.39 Q1200.09 1567.85 1196.65 1566.74 L1196.65 1560.69 Q1199.9 1562.38 1203.05 1563.24 Q1206.2 1564.07 1209.29 1564.07 Q1213.43 1564.07 1215.66 1562.66 Q1217.88 1561.23 1217.88 1558.65 Q1217.88 1556.27 1216.26 1554.99 Q1214.67 1553.72 1209.23 1552.54 L1207.19 1552.07 Q1201.75 1550.92 1199.33 1548.56 Q1196.91 1546.18 1196.91 1542.04 Q1196.91 1537.01 1200.47 1534.27 Q1204.04 1531.54 1210.6 1531.54 Q1213.84 1531.54 1216.71 1532.01 Q1219.57 1532.49 1221.99 1533.45 Z" fill="#000000" fill-rule="evenodd" fill-opacity="1" /><path clip-path="url(#clip620)" d="M1262.86 1546.53 L1262.86 1568.04 L1257 1568.04 L1257 1546.72 Q1257 1541.66 1255.03 1539.14 Q1253.05 1536.63 1249.11 1536.63 Q1244.37 1536.63 1241.63 1539.65 Q1238.89 1542.68 1238.89 1547.9 L1238.89 1568.04 L1233 1568.04 L1233 1532.4 L1238.89 1532.4 L1238.89 1537.93 Q1240.99 1534.72 1243.82 1533.13 Q1246.69 1531.54 1250.41 1531.54 Q1256.56 1531.54 1259.71 1535.36 Q1262.86 1539.14 1262.86 1546.53 Z" fill="#000000" fill-rule="evenodd" fill-opacity="1" /><path clip-path="url(#clip620)" d="M1288.35 1536.5 Q1283.64 1536.5 1280.9 1540.19 Q1278.17 1543.85 1278.17 1550.25 Q1278.17 1556.65 1280.87 1560.34 Q1283.61 1564 1288.35 1564 Q1293.03 1564 1295.77 1560.31 Q1298.51 1556.62 1298.51 1550.25 Q1298.51 1543.92 1295.77 1540.23 Q1293.03 1536.5 1288.35 1536.5 M1288.35 1531.54 Q1295.99 1531.54 1300.35 1536.5 Q1304.71 1541.47 1304.71 1550.25 Q1304.71 1559 1300.35 1564 Q1295.99 1568.97 1288.35 1568.97 Q1280.68 1568.97 1276.32 1564 Q1271.99 1559 1271.99 1550.25 Q1271.99 1541.47 1276.32 1536.5 Q1280.68 1531.54 1288.35 1531.54 Z" fill="#000000" fill-rule="evenodd" fill-opacity="1" /><path clip-path="url(#clip620)" d="M1311.01 1532.4 L1316.87 1532.4 L1324.19 1560.21 L1331.48 1532.4 L1338.39 1532.4 L1345.71 1560.21 L1353 1532.4 L1358.85 1532.4 L1349.53 1568.04 L1342.62 1568.04 L1334.95 1538.83 L1327.25 1568.04 L1320.34 1568.04 L1311.01 1532.4 Z" fill="#000000" fill-rule="evenodd" fill-opacity="1" /><path clip-path="url(#clip620)" d="M1387.91 1518.52 L1401.41 1518.52 L1401.41 1523.07 L1393.77 1523.07 L1393.77 1572.09 L1401.41 1572.09 L1401.41 1576.64 L1387.91 1576.64 L1387.91 1518.52 Z" fill="#000000" fill-rule="evenodd" fill-opacity="1" /><path clip-path="url(#clip620)" d="M1437.34 1549.81 Q1437.34 1543.44 1434.7 1539.94 Q1432.09 1536.44 1427.35 1536.44 Q1422.64 1536.44 1420 1539.94 Q1417.39 1543.44 1417.39 1549.81 Q1417.39 1556.14 1420 1559.64 Q1422.64 1563.14 1427.35 1563.14 Q1432.09 1563.14 1434.7 1559.64 Q1437.34 1556.14 1437.34 1549.81 M1443.2 1563.62 Q1443.2 1572.72 1439.16 1577.15 Q1435.11 1581.6 1426.77 1581.6 Q1423.69 1581.6 1420.95 1581.13 Q1418.21 1580.68 1415.63 1579.72 L1415.63 1574.03 Q1418.21 1575.43 1420.73 1576.1 Q1423.24 1576.76 1425.85 1576.76 Q1431.61 1576.76 1434.48 1573.74 Q1437.34 1570.75 1437.34 1564.67 L1437.34 1561.77 Q1435.53 1564.92 1432.69 1566.48 Q1429.86 1568.04 1425.92 1568.04 Q1419.36 1568.04 1415.35 1563.05 Q1411.34 1558.05 1411.34 1549.81 Q1411.34 1541.53 1415.35 1536.53 Q1419.36 1531.54 1425.92 1531.54 Q1429.86 1531.54 1432.69 1533.1 Q1435.53 1534.66 1437.34 1537.81 L1437.34 1532.4 L1443.2 1532.4 L1443.2 1563.62 Z" fill="#000000" fill-rule="evenodd" fill-opacity="1" /><path clip-path="url(#clip620)" d="M1465.67 1520.52 L1471.08 1520.52 L1454.53 1574.09 L1449.12 1574.09 L1465.67 1520.52 Z" fill="#000000" fill-rule="evenodd" fill-opacity="1" /><path clip-path="url(#clip620)" d="M1477 1518.52 L1482.89 1518.52 L1482.89 1547.77 L1500.36 1532.4 L1507.84 1532.4 L1488.94 1549.07 L1508.64 1568.04 L1501 1568.04 L1482.89 1550.63 L1482.89 1568.04 L1477 1568.04 L1477 1518.52 Z" fill="#000000" fill-rule="evenodd" fill-opacity="1" /><path clip-path="url(#clip620)" d="M1538.43 1549.81 Q1538.43 1543.44 1535.79 1539.94 Q1533.18 1536.44 1528.44 1536.44 Q1523.72 1536.44 1521.08 1539.94 Q1518.47 1543.44 1518.47 1549.81 Q1518.47 1556.14 1521.08 1559.64 Q1523.72 1563.14 1528.44 1563.14 Q1533.18 1563.14 1535.79 1559.64 Q1538.43 1556.14 1538.43 1549.81 M1544.29 1563.62 Q1544.29 1572.72 1540.24 1577.15 Q1536.2 1581.6 1527.86 1581.6 Q1524.77 1581.6 1522.04 1581.13 Q1519.3 1580.68 1516.72 1579.72 L1516.72 1574.03 Q1519.3 1575.43 1521.81 1576.1 Q1524.33 1576.76 1526.94 1576.76 Q1532.7 1576.76 1535.56 1573.74 Q1538.43 1570.75 1538.43 1564.67 L1538.43 1561.77 Q1536.62 1564.92 1533.78 1566.48 Q1530.95 1568.04 1527 1568.04 Q1520.45 1568.04 1516.44 1563.05 Q1512.43 1558.05 1512.43 1549.81 Q1512.43 1541.53 1516.44 1536.53 Q1520.45 1531.54 1527 1531.54 Q1530.95 1531.54 1533.78 1533.1 Q1536.62 1534.66 1538.43 1537.81 L1538.43 1532.4 L1544.29 1532.4 L1544.29 1563.62 Z" fill="#000000" fill-rule="evenodd" fill-opacity="1" /><path clip-path="url(#clip620)" d="M1570.03 1518.52 L1570.03 1576.64 L1556.54 1576.64 L1556.54 1572.09 L1564.15 1572.09 L1564.15 1523.07 L1556.54 1523.07 L1556.54 1518.52 L1570.03 1518.52 Z" fill="#000000" fill-rule="evenodd" fill-opacity="1" /><polyline clip-path="url(#clip622)" style="stroke:#000000; stroke-linecap:butt; stroke-linejoin:round; stroke-width:2; stroke-opacity:0.1; fill:none" points="
  340.028,1384.24 2352.76,1384.24 
  "/>
<polyline clip-path="url(#clip622)" style="stroke:#000000; stroke-linecap:butt; stroke-linejoin:round; stroke-width:2; stroke-opacity:0.1; fill:none" points="
  340.028,989.829 2352.76,989.829 
  "/>
<polyline clip-path="url(#clip622)" style="stroke:#000000; stroke-linecap:butt; stroke-linejoin:round; stroke-width:2; stroke-opacity:0.1; fill:none" points="
  340.028,595.42 2352.76,595.42 
  "/>
<polyline clip-path="url(#clip622)" style="stroke:#000000; stroke-linecap:butt; stroke-linejoin:round; stroke-width:2; stroke-opacity:0.1; fill:none" points="
  340.028,201.011 2352.76,201.011 
  "/>
<polyline clip-path="url(#clip620)" style="stroke:#000000; stroke-linecap:butt; stroke-linejoin:round; stroke-width:4; stroke-opacity:1; fill:none" points="
  340.028,1423.18 340.028,47.2441 
  "/>
<polyline clip-path="url(#clip620)" style="stroke:#000000; stroke-linecap:butt; stroke-linejoin:round; stroke-width:4; stroke-opacity:1; fill:none" points="
  340.028,1384.24 358.925,1384.24 
  "/>
<polyline clip-path="url(#clip620)" style="stroke:#000000; stroke-linecap:butt; stroke-linejoin:round; stroke-width:4; stroke-opacity:1; fill:none" points="
  340.028,989.829 358.925,989.829 
  "/>
<polyline clip-path="url(#clip620)" style="stroke:#000000; stroke-linecap:butt; stroke-linejoin:round; stroke-width:4; stroke-opacity:1; fill:none" points="
  340.028,595.42 358.925,595.42 
  "/>
<polyline clip-path="url(#clip620)" style="stroke:#000000; stroke-linecap:butt; stroke-linejoin:round; stroke-width:4; stroke-opacity:1; fill:none" points="
  340.028,201.011 358.925,201.011 
  "/>
<path clip-path="url(#clip620)" d="M126.205 1370.04 Q122.593 1370.04 120.765 1373.6 Q118.959 1377.14 118.959 1384.27 Q118.959 1391.38 120.765 1394.94 Q122.593 1398.49 126.205 1398.49 Q129.839 1398.49 131.644 1394.94 Q133.473 1391.38 133.473 1384.27 Q133.473 1377.14 131.644 1373.6 Q129.839 1370.04 126.205 1370.04 M126.205 1366.33 Q132.015 1366.33 135.07 1370.94 Q138.149 1375.52 138.149 1384.27 Q138.149 1393 135.07 1397.61 Q132.015 1402.19 126.205 1402.19 Q120.394 1402.19 117.316 1397.61 Q114.26 1393 114.26 1384.27 Q114.26 1375.52 117.316 1370.94 Q120.394 1366.33 126.205 1366.33 Z" fill="#000000" fill-rule="evenodd" fill-opacity="1" /><path clip-path="url(#clip620)" d="M146.366 1395.64 L151.251 1395.64 L151.251 1401.52 L146.366 1401.52 L146.366 1395.64 Z" fill="#000000" fill-rule="evenodd" fill-opacity="1" /><path clip-path="url(#clip620)" d="M171.436 1370.04 Q167.825 1370.04 165.996 1373.6 Q164.19 1377.14 164.19 1384.27 Q164.19 1391.38 165.996 1394.94 Q167.825 1398.49 171.436 1398.49 Q175.07 1398.49 176.876 1394.94 Q178.704 1391.38 178.704 1384.27 Q178.704 1377.14 176.876 1373.6 Q175.07 1370.04 171.436 1370.04 M171.436 1366.33 Q177.246 1366.33 180.301 1370.94 Q183.38 1375.52 183.38 1384.27 Q183.38 1393 180.301 1397.61 Q177.246 1402.19 171.436 1402.19 Q165.626 1402.19 162.547 1397.61 Q159.491 1393 159.491 1384.27 Q159.491 1375.52 162.547 1370.94 Q165.626 1366.33 171.436 1366.33 Z" fill="#000000" fill-rule="evenodd" fill-opacity="1" /><path clip-path="url(#clip620)" d="M201.598 1370.04 Q197.987 1370.04 196.158 1373.6 Q194.352 1377.14 194.352 1384.27 Q194.352 1391.38 196.158 1394.94 Q197.987 1398.49 201.598 1398.49 Q205.232 1398.49 207.037 1394.94 Q208.866 1391.38 208.866 1384.27 Q208.866 1377.14 207.037 1373.6 Q205.232 1370.04 201.598 1370.04 M201.598 1366.33 Q207.408 1366.33 210.463 1370.94 Q213.542 1375.52 213.542 1384.27 Q213.542 1393 210.463 1397.61 Q207.408 1402.19 201.598 1402.19 Q195.787 1402.19 192.709 1397.61 Q189.653 1393 189.653 1384.27 Q189.653 1375.52 192.709 1370.94 Q195.787 1366.33 201.598 1366.33 Z" fill="#000000" fill-rule="evenodd" fill-opacity="1" /><path clip-path="url(#clip620)" d="M231.76 1370.04 Q228.148 1370.04 226.32 1373.6 Q224.514 1377.14 224.514 1384.27 Q224.514 1391.38 226.32 1394.94 Q228.148 1398.49 231.76 1398.49 Q235.394 1398.49 237.199 1394.94 Q239.028 1391.38 239.028 1384.27 Q239.028 1377.14 237.199 1373.6 Q235.394 1370.04 231.76 1370.04 M231.76 1366.33 Q237.57 1366.33 240.625 1370.94 Q243.704 1375.52 243.704 1384.27 Q243.704 1393 240.625 1397.61 Q237.57 1402.19 231.76 1402.19 Q225.949 1402.19 222.871 1397.61 Q219.815 1393 219.815 1384.27 Q219.815 1375.52 222.871 1370.94 Q225.949 1366.33 231.76 1366.33 Z" fill="#000000" fill-rule="evenodd" fill-opacity="1" /><path clip-path="url(#clip620)" d="M261.921 1370.04 Q258.31 1370.04 256.482 1373.6 Q254.676 1377.14 254.676 1384.27 Q254.676 1391.38 256.482 1394.94 Q258.31 1398.49 261.921 1398.49 Q265.556 1398.49 267.361 1394.94 Q269.19 1391.38 269.19 1384.27 Q269.19 1377.14 267.361 1373.6 Q265.556 1370.04 261.921 1370.04 M261.921 1366.33 Q267.732 1366.33 270.787 1370.94 Q273.866 1375.52 273.866 1384.27 Q273.866 1393 270.787 1397.61 Q267.732 1402.19 261.921 1402.19 Q256.111 1402.19 253.033 1397.61 Q249.977 1393 249.977 1384.27 Q249.977 1375.52 253.033 1370.94 Q256.111 1366.33 261.921 1366.33 Z" fill="#000000" fill-rule="evenodd" fill-opacity="1" /><path clip-path="url(#clip620)" d="M292.083 1370.04 Q288.472 1370.04 286.643 1373.6 Q284.838 1377.14 284.838 1384.27 Q284.838 1391.38 286.643 1394.94 Q288.472 1398.49 292.083 1398.49 Q295.718 1398.49 297.523 1394.94 Q299.352 1391.38 299.352 1384.27 Q299.352 1377.14 297.523 1373.6 Q295.718 1370.04 292.083 1370.04 M292.083 1366.33 Q297.893 1366.33 300.949 1370.94 Q304.028 1375.52 304.028 1384.27 Q304.028 1393 300.949 1397.61 Q297.893 1402.19 292.083 1402.19 Q286.273 1402.19 283.194 1397.61 Q280.139 1393 280.139 1384.27 Q280.139 1375.52 283.194 1370.94 Q286.273 1366.33 292.083 1366.33 Z" fill="#000000" fill-rule="evenodd" fill-opacity="1" /><path clip-path="url(#clip620)" d="M127.2 975.628 Q123.589 975.628 121.76 979.193 Q119.955 982.734 119.955 989.864 Q119.955 996.97 121.76 1000.54 Q123.589 1004.08 127.2 1004.08 Q130.834 1004.08 132.64 1000.54 Q134.468 996.97 134.468 989.864 Q134.468 982.734 132.64 979.193 Q130.834 975.628 127.2 975.628 M127.2 971.924 Q133.01 971.924 136.066 976.531 Q139.144 981.114 139.144 989.864 Q139.144 998.591 136.066 1003.2 Q133.01 1007.78 127.2 1007.78 Q121.39 1007.78 118.311 1003.2 Q115.256 998.591 115.256 989.864 Q115.256 981.114 118.311 976.531 Q121.39 971.924 127.2 971.924 Z" fill="#000000" fill-rule="evenodd" fill-opacity="1" /><path clip-path="url(#clip620)" d="M147.362 1001.23 L152.246 1001.23 L152.246 1007.11 L147.362 1007.11 L147.362 1001.23 Z" fill="#000000" fill-rule="evenodd" fill-opacity="1" /><path clip-path="url(#clip620)" d="M172.431 975.628 Q168.82 975.628 166.991 979.193 Q165.186 982.734 165.186 989.864 Q165.186 996.97 166.991 1000.54 Q168.82 1004.08 172.431 1004.08 Q176.065 1004.08 177.871 1000.54 Q179.7 996.97 179.7 989.864 Q179.7 982.734 177.871 979.193 Q176.065 975.628 172.431 975.628 M172.431 971.924 Q178.241 971.924 181.297 976.531 Q184.376 981.114 184.376 989.864 Q184.376 998.591 181.297 1003.2 Q178.241 1007.78 172.431 1007.78 Q166.621 1007.78 163.542 1003.2 Q160.487 998.591 160.487 989.864 Q160.487 981.114 163.542 976.531 Q166.621 971.924 172.431 971.924 Z" fill="#000000" fill-rule="evenodd" fill-opacity="1" /><path clip-path="url(#clip620)" d="M202.593 975.628 Q198.982 975.628 197.153 979.193 Q195.348 982.734 195.348 989.864 Q195.348 996.97 197.153 1000.54 Q198.982 1004.08 202.593 1004.08 Q206.227 1004.08 208.033 1000.54 Q209.861 996.97 209.861 989.864 Q209.861 982.734 208.033 979.193 Q206.227 975.628 202.593 975.628 M202.593 971.924 Q208.403 971.924 211.459 976.531 Q214.537 981.114 214.537 989.864 Q214.537 998.591 211.459 1003.2 Q208.403 1007.78 202.593 1007.78 Q196.783 1007.78 193.704 1003.2 Q190.649 998.591 190.649 989.864 Q190.649 981.114 193.704 976.531 Q196.783 971.924 202.593 971.924 Z" fill="#000000" fill-rule="evenodd" fill-opacity="1" /><path clip-path="url(#clip620)" d="M232.755 975.628 Q229.144 975.628 227.315 979.193 Q225.51 982.734 225.51 989.864 Q225.51 996.97 227.315 1000.54 Q229.144 1004.08 232.755 1004.08 Q236.389 1004.08 238.195 1000.54 Q240.023 996.97 240.023 989.864 Q240.023 982.734 238.195 979.193 Q236.389 975.628 232.755 975.628 M232.755 971.924 Q238.565 971.924 241.621 976.531 Q244.699 981.114 244.699 989.864 Q244.699 998.591 241.621 1003.2 Q238.565 1007.78 232.755 1007.78 Q226.945 1007.78 223.866 1003.2 Q220.811 998.591 220.811 989.864 Q220.811 981.114 223.866 976.531 Q226.945 971.924 232.755 971.924 Z" fill="#000000" fill-rule="evenodd" fill-opacity="1" /><path clip-path="url(#clip620)" d="M262.917 975.628 Q259.306 975.628 257.477 979.193 Q255.671 982.734 255.671 989.864 Q255.671 996.97 257.477 1000.54 Q259.306 1004.08 262.917 1004.08 Q266.551 1004.08 268.357 1000.54 Q270.185 996.97 270.185 989.864 Q270.185 982.734 268.357 979.193 Q266.551 975.628 262.917 975.628 M262.917 971.924 Q268.727 971.924 271.782 976.531 Q274.861 981.114 274.861 989.864 Q274.861 998.591 271.782 1003.2 Q268.727 1007.78 262.917 1007.78 Q257.107 1007.78 254.028 1003.2 Q250.972 998.591 250.972 989.864 Q250.972 981.114 254.028 976.531 Q257.107 971.924 262.917 971.924 Z" fill="#000000" fill-rule="evenodd" fill-opacity="1" /><path clip-path="url(#clip620)" d="M283.125 972.549 L301.481 972.549 L301.481 976.484 L287.407 976.484 L287.407 984.956 Q288.426 984.609 289.444 984.447 Q290.463 984.262 291.481 984.262 Q297.268 984.262 300.648 987.433 Q304.028 990.605 304.028 996.021 Q304.028 1001.6 300.555 1004.7 Q297.083 1007.78 290.764 1007.78 Q288.588 1007.78 286.319 1007.41 Q284.074 1007.04 281.667 1006.3 L281.667 1001.6 Q283.75 1002.73 285.972 1003.29 Q288.194 1003.85 290.671 1003.85 Q294.676 1003.85 297.014 1001.74 Q299.352 999.632 299.352 996.021 Q299.352 992.41 297.014 990.304 Q294.676 988.197 290.671 988.197 Q288.796 988.197 286.921 988.614 Q285.069 989.03 283.125 989.91 L283.125 972.549 Z" fill="#000000" fill-rule="evenodd" fill-opacity="1" /><path clip-path="url(#clip620)" d="M126.205 581.219 Q122.593 581.219 120.765 584.783 Q118.959 588.325 118.959 595.455 Q118.959 602.561 120.765 606.126 Q122.593 609.668 126.205 609.668 Q129.839 609.668 131.644 606.126 Q133.473 602.561 133.473 595.455 Q133.473 588.325 131.644 584.783 Q129.839 581.219 126.205 581.219 M126.205 577.515 Q132.015 577.515 135.07 582.121 Q138.149 586.705 138.149 595.455 Q138.149 604.181 135.07 608.788 Q132.015 613.371 126.205 613.371 Q120.394 613.371 117.316 608.788 Q114.26 604.181 114.26 595.455 Q114.26 586.705 117.316 582.121 Q120.394 577.515 126.205 577.515 Z" fill="#000000" fill-rule="evenodd" fill-opacity="1" /><path clip-path="url(#clip620)" d="M146.366 606.82 L151.251 606.82 L151.251 612.7 L146.366 612.7 L146.366 606.82 Z" fill="#000000" fill-rule="evenodd" fill-opacity="1" /><path clip-path="url(#clip620)" d="M171.436 581.219 Q167.825 581.219 165.996 584.783 Q164.19 588.325 164.19 595.455 Q164.19 602.561 165.996 606.126 Q167.825 609.668 171.436 609.668 Q175.07 609.668 176.876 606.126 Q178.704 602.561 178.704 595.455 Q178.704 588.325 176.876 584.783 Q175.07 581.219 171.436 581.219 M171.436 577.515 Q177.246 577.515 180.301 582.121 Q183.38 586.705 183.38 595.455 Q183.38 604.181 180.301 608.788 Q177.246 613.371 171.436 613.371 Q165.626 613.371 162.547 608.788 Q159.491 604.181 159.491 595.455 Q159.491 586.705 162.547 582.121 Q165.626 577.515 171.436 577.515 Z" fill="#000000" fill-rule="evenodd" fill-opacity="1" /><path clip-path="url(#clip620)" d="M201.598 581.219 Q197.987 581.219 196.158 584.783 Q194.352 588.325 194.352 595.455 Q194.352 602.561 196.158 606.126 Q197.987 609.668 201.598 609.668 Q205.232 609.668 207.037 606.126 Q208.866 602.561 208.866 595.455 Q208.866 588.325 207.037 584.783 Q205.232 581.219 201.598 581.219 M201.598 577.515 Q207.408 577.515 210.463 582.121 Q213.542 586.705 213.542 595.455 Q213.542 604.181 210.463 608.788 Q207.408 613.371 201.598 613.371 Q195.787 613.371 192.709 608.788 Q189.653 604.181 189.653 595.455 Q189.653 586.705 192.709 582.121 Q195.787 577.515 201.598 577.515 Z" fill="#000000" fill-rule="evenodd" fill-opacity="1" /><path clip-path="url(#clip620)" d="M231.76 581.219 Q228.148 581.219 226.32 584.783 Q224.514 588.325 224.514 595.455 Q224.514 602.561 226.32 606.126 Q228.148 609.668 231.76 609.668 Q235.394 609.668 237.199 606.126 Q239.028 602.561 239.028 595.455 Q239.028 588.325 237.199 584.783 Q235.394 581.219 231.76 581.219 M231.76 577.515 Q237.57 577.515 240.625 582.121 Q243.704 586.705 243.704 595.455 Q243.704 604.181 240.625 608.788 Q237.57 613.371 231.76 613.371 Q225.949 613.371 222.871 608.788 Q219.815 604.181 219.815 595.455 Q219.815 586.705 222.871 582.121 Q225.949 577.515 231.76 577.515 Z" fill="#000000" fill-rule="evenodd" fill-opacity="1" /><path clip-path="url(#clip620)" d="M252.732 608.765 L260.37 608.765 L260.37 582.399 L252.06 584.066 L252.06 579.807 L260.324 578.14 L265 578.14 L265 608.765 L272.639 608.765 L272.639 612.7 L252.732 612.7 L252.732 608.765 Z" fill="#000000" fill-rule="evenodd" fill-opacity="1" /><path clip-path="url(#clip620)" d="M292.083 581.219 Q288.472 581.219 286.643 584.783 Q284.838 588.325 284.838 595.455 Q284.838 602.561 286.643 606.126 Q288.472 609.668 292.083 609.668 Q295.718 609.668 297.523 606.126 Q299.352 602.561 299.352 595.455 Q299.352 588.325 297.523 584.783 Q295.718 581.219 292.083 581.219 M292.083 577.515 Q297.893 577.515 300.949 582.121 Q304.028 586.705 304.028 595.455 Q304.028 604.181 300.949 608.788 Q297.893 613.371 292.083 613.371 Q286.273 613.371 283.194 608.788 Q280.139 604.181 280.139 595.455 Q280.139 586.705 283.194 582.121 Q286.273 577.515 292.083 577.515 Z" fill="#000000" fill-rule="evenodd" fill-opacity="1" /><path clip-path="url(#clip620)" d="M127.2 186.809 Q123.589 186.809 121.76 190.374 Q119.955 193.916 119.955 201.045 Q119.955 208.152 121.76 211.717 Q123.589 215.258 127.2 215.258 Q130.834 215.258 132.64 211.717 Q134.468 208.152 134.468 201.045 Q134.468 193.916 132.64 190.374 Q130.834 186.809 127.2 186.809 M127.2 183.106 Q133.01 183.106 136.066 187.712 Q139.144 192.295 139.144 201.045 Q139.144 209.772 136.066 214.379 Q133.01 218.962 127.2 218.962 Q121.39 218.962 118.311 214.379 Q115.256 209.772 115.256 201.045 Q115.256 192.295 118.311 187.712 Q121.39 183.106 127.2 183.106 Z" fill="#000000" fill-rule="evenodd" fill-opacity="1" /><path clip-path="url(#clip620)" d="M147.362 212.411 L152.246 212.411 L152.246 218.291 L147.362 218.291 L147.362 212.411 Z" fill="#000000" fill-rule="evenodd" fill-opacity="1" /><path clip-path="url(#clip620)" d="M172.431 186.809 Q168.82 186.809 166.991 190.374 Q165.186 193.916 165.186 201.045 Q165.186 208.152 166.991 211.717 Q168.82 215.258 172.431 215.258 Q176.065 215.258 177.871 211.717 Q179.7 208.152 179.7 201.045 Q179.7 193.916 177.871 190.374 Q176.065 186.809 172.431 186.809 M172.431 183.106 Q178.241 183.106 181.297 187.712 Q184.376 192.295 184.376 201.045 Q184.376 209.772 181.297 214.379 Q178.241 218.962 172.431 218.962 Q166.621 218.962 163.542 214.379 Q160.487 209.772 160.487 201.045 Q160.487 192.295 163.542 187.712 Q166.621 183.106 172.431 183.106 Z" fill="#000000" fill-rule="evenodd" fill-opacity="1" /><path clip-path="url(#clip620)" d="M202.593 186.809 Q198.982 186.809 197.153 190.374 Q195.348 193.916 195.348 201.045 Q195.348 208.152 197.153 211.717 Q198.982 215.258 202.593 215.258 Q206.227 215.258 208.033 211.717 Q209.861 208.152 209.861 201.045 Q209.861 193.916 208.033 190.374 Q206.227 186.809 202.593 186.809 M202.593 183.106 Q208.403 183.106 211.459 187.712 Q214.537 192.295 214.537 201.045 Q214.537 209.772 211.459 214.379 Q208.403 218.962 202.593 218.962 Q196.783 218.962 193.704 214.379 Q190.649 209.772 190.649 201.045 Q190.649 192.295 193.704 187.712 Q196.783 183.106 202.593 183.106 Z" fill="#000000" fill-rule="evenodd" fill-opacity="1" /><path clip-path="url(#clip620)" d="M232.755 186.809 Q229.144 186.809 227.315 190.374 Q225.51 193.916 225.51 201.045 Q225.51 208.152 227.315 211.717 Q229.144 215.258 232.755 215.258 Q236.389 215.258 238.195 211.717 Q240.023 208.152 240.023 201.045 Q240.023 193.916 238.195 190.374 Q236.389 186.809 232.755 186.809 M232.755 183.106 Q238.565 183.106 241.621 187.712 Q244.699 192.295 244.699 201.045 Q244.699 209.772 241.621 214.379 Q238.565 218.962 232.755 218.962 Q226.945 218.962 223.866 214.379 Q220.811 209.772 220.811 201.045 Q220.811 192.295 223.866 187.712 Q226.945 183.106 232.755 183.106 Z" fill="#000000" fill-rule="evenodd" fill-opacity="1" /><path clip-path="url(#clip620)" d="M253.727 214.356 L261.366 214.356 L261.366 187.99 L253.056 189.657 L253.056 185.397 L261.32 183.731 L265.995 183.731 L265.995 214.356 L273.634 214.356 L273.634 218.291 L253.727 218.291 L253.727 214.356 Z" fill="#000000" fill-rule="evenodd" fill-opacity="1" /><path clip-path="url(#clip620)" d="M283.125 183.731 L301.481 183.731 L301.481 187.666 L287.407 187.666 L287.407 196.138 Q288.426 195.791 289.444 195.629 Q290.463 195.444 291.481 195.444 Q297.268 195.444 300.648 198.615 Q304.028 201.786 304.028 207.203 Q304.028 212.781 300.555 215.883 Q297.083 218.962 290.764 218.962 Q288.588 218.962 286.319 218.592 Q284.074 218.221 281.667 217.481 L281.667 212.781 Q283.75 213.916 285.972 214.471 Q288.194 215.027 290.671 215.027 Q294.676 215.027 297.014 212.92 Q299.352 210.814 299.352 207.203 Q299.352 203.592 297.014 201.485 Q294.676 199.379 290.671 199.379 Q288.796 199.379 286.921 199.795 Q285.069 200.212 283.125 201.092 L283.125 183.731 Z" fill="#000000" fill-rule="evenodd" fill-opacity="1" /><path clip-path="url(#clip620)" d="M29.4065 1265.73 L34.9447 1265.73 Q33.6716 1268.21 33.035 1270.89 Q32.3984 1273.56 32.3984 1276.42 Q32.3984 1280.78 33.7352 1282.98 Q35.072 1285.15 37.7456 1285.15 Q39.7826 1285.15 40.9603 1283.59 Q42.1061 1282.03 43.1565 1277.32 L43.6021 1275.31 Q44.9389 1269.07 47.3897 1266.46 Q49.8086 1263.82 54.1691 1263.82 Q59.1344 1263.82 62.0308 1267.77 Q64.9272 1271.68 64.9272 1278.56 Q64.9272 1281.42 64.3543 1284.54 Q63.8132 1287.63 62.6992 1291.07 L56.6518 1291.07 Q58.3387 1287.82 59.198 1284.67 Q60.0256 1281.52 60.0256 1278.43 Q60.0256 1274.29 58.6251 1272.06 Q57.1929 1269.84 54.6147 1269.84 Q52.2276 1269.84 50.9545 1271.46 Q49.6813 1273.05 48.5037 1278.49 L48.0262 1280.53 Q46.8804 1285.97 44.5251 1288.39 Q42.138 1290.81 38.0002 1290.81 Q32.9713 1290.81 30.2341 1287.25 Q27.4968 1283.68 27.4968 1277.12 Q27.4968 1273.88 27.9743 1271.01 Q28.4517 1268.15 29.4065 1265.73 Z" fill="#000000" fill-rule="evenodd" fill-opacity="1" /><path clip-path="url(#clip620)" d="M42.4881 1224.86 L64.0042 1224.86 L64.0042 1230.72 L42.679 1230.72 Q37.6183 1230.72 35.1038 1232.69 Q32.5894 1234.67 32.5894 1238.61 Q32.5894 1243.35 35.6131 1246.09 Q38.6368 1248.83 43.8567 1248.83 L64.0042 1248.83 L64.0042 1254.72 L28.3562 1254.72 L28.3562 1248.83 L33.8944 1248.83 Q30.6797 1246.73 29.0883 1243.9 Q27.4968 1241.03 27.4968 1237.31 Q27.4968 1231.16 31.3163 1228.01 Q35.1038 1224.86 42.4881 1224.86 Z" fill="#000000" fill-rule="evenodd" fill-opacity="1" /><path clip-path="url(#clip620)" d="M32.4621 1199.37 Q32.4621 1204.08 36.1542 1206.82 Q39.8145 1209.55 46.212 1209.55 Q52.6095 1209.55 56.3017 1206.85 Q59.9619 1204.11 59.9619 1199.37 Q59.9619 1194.69 56.2698 1191.95 Q52.5777 1189.21 46.212 1189.21 Q39.8781 1189.21 36.186 1191.95 Q32.4621 1194.69 32.4621 1199.37 M27.4968 1199.37 Q27.4968 1191.73 32.4621 1187.37 Q37.4273 1183.01 46.212 1183.01 Q54.9649 1183.01 59.9619 1187.37 Q64.9272 1191.73 64.9272 1199.37 Q64.9272 1207.04 59.9619 1211.4 Q54.9649 1215.73 46.212 1215.73 Q37.4273 1215.73 32.4621 1211.4 Q27.4968 1207.04 27.4968 1199.37 Z" fill="#000000" fill-rule="evenodd" fill-opacity="1" /><path clip-path="url(#clip620)" d="M28.3562 1176.71 L28.3562 1170.85 L56.1743 1163.53 L28.3562 1156.24 L28.3562 1149.33 L56.1743 1142.01 L28.3562 1134.72 L28.3562 1128.87 L64.0042 1138.19 L64.0042 1145.1 L34.7856 1152.77 L64.0042 1160.47 L64.0042 1167.38 L28.3562 1176.71 Z" fill="#000000" fill-rule="evenodd" fill-opacity="1" /><path clip-path="url(#clip620)" d="M43.5384 1122.95 L43.5384 1105.79 L48.7583 1105.79 L48.7583 1122.95 L43.5384 1122.95 Z" fill="#000000" fill-rule="evenodd" fill-opacity="1" /><path clip-path="url(#clip620)" d="M33.8307 1075.81 Q33.2578 1076.8 33.0032 1077.97 Q32.7167 1079.12 32.7167 1080.52 Q32.7167 1085.48 35.9632 1088.16 Q39.1779 1090.8 45.2253 1090.8 L64.0042 1090.8 L64.0042 1096.69 L28.3562 1096.69 L28.3562 1090.8 L33.8944 1090.8 Q30.6479 1088.95 29.0883 1085.99 Q27.4968 1083.03 27.4968 1078.8 Q27.4968 1078.2 27.5923 1077.46 Q27.656 1076.73 27.8151 1075.84 L33.8307 1075.81 Z" fill="#000000" fill-rule="evenodd" fill-opacity="1" /><path clip-path="url(#clip620)" d="M46.0847 1053.47 Q46.0847 1060.56 47.7079 1063.3 Q49.3312 1066.04 53.2461 1066.04 Q56.3653 1066.04 58.2114 1064 Q60.0256 1061.93 60.0256 1058.4 Q60.0256 1053.53 56.5881 1050.6 Q53.1188 1047.64 47.3897 1047.64 L46.0847 1047.64 L46.0847 1053.47 M43.6657 1041.78 L64.0042 1041.78 L64.0042 1047.64 L58.5933 1047.64 Q61.8398 1049.65 63.3994 1052.64 Q64.9272 1055.63 64.9272 1059.96 Q64.9272 1065.43 61.8716 1068.68 Q58.7843 1071.89 53.6281 1071.89 Q47.6125 1071.89 44.5569 1067.88 Q41.5014 1063.84 41.5014 1055.85 L41.5014 1047.64 L40.9285 1047.64 Q36.8862 1047.64 34.6901 1050.31 Q32.4621 1052.96 32.4621 1057.76 Q32.4621 1060.82 33.1941 1063.71 Q33.9262 1066.61 35.3903 1069.28 L29.9795 1069.28 Q28.7381 1066.07 28.1334 1063.05 Q27.4968 1060.02 27.4968 1057.16 Q27.4968 1049.42 31.5072 1045.6 Q35.5176 1041.78 43.6657 1041.78 Z" fill="#000000" fill-rule="evenodd" fill-opacity="1" /><path clip-path="url(#clip620)" d="M28.3562 1029.72 L28.3562 1023.86 L64.0042 1023.86 L64.0042 1029.72 L28.3562 1029.72 M14.479 1029.72 L14.479 1023.86 L21.895 1023.86 L21.895 1029.72 L14.479 1029.72 Z" fill="#000000" fill-rule="evenodd" fill-opacity="1" /><path clip-path="url(#clip620)" d="M42.4881 981.979 L64.0042 981.979 L64.0042 987.835 L42.679 987.835 Q37.6183 987.835 35.1038 989.808 Q32.5894 991.782 32.5894 995.729 Q32.5894 1000.47 35.6131 1003.21 Q38.6368 1005.95 43.8567 1005.95 L64.0042 1005.95 L64.0042 1011.83 L28.3562 1011.83 L28.3562 1005.95 L33.8944 1005.95 Q30.6797 1003.84 29.0883 1001.01 Q27.4968 998.147 27.4968 994.424 Q27.4968 988.281 31.3163 985.13 Q35.1038 981.979 42.4881 981.979 Z" fill="#000000" fill-rule="evenodd" fill-opacity="1" /><path clip-path="url(#clip620)" d="M46.0847 933.376 Q46.0847 940.474 47.7079 943.211 Q49.3312 945.949 53.2461 945.949 Q56.3653 945.949 58.2114 943.912 Q60.0256 941.843 60.0256 938.31 Q60.0256 933.44 56.5881 930.512 Q53.1188 927.552 47.3897 927.552 L46.0847 927.552 L46.0847 933.376 M43.6657 921.695 L64.0042 921.695 L64.0042 927.552 L58.5933 927.552 Q61.8398 929.557 63.3994 932.549 Q64.9272 935.541 64.9272 939.869 Q64.9272 945.344 61.8716 948.59 Q58.7843 951.805 53.6281 951.805 Q47.6125 951.805 44.5569 947.795 Q41.5014 943.753 41.5014 935.764 L41.5014 927.552 L40.9285 927.552 Q36.8862 927.552 34.6901 930.225 Q32.4621 932.867 32.4621 937.673 Q32.4621 940.729 33.1941 943.625 Q33.9262 946.522 35.3903 949.195 L29.9795 949.195 Q28.7381 945.981 28.1334 942.957 Q27.4968 939.933 27.4968 937.069 Q27.4968 929.334 31.5072 925.515 Q35.5176 921.695 43.6657 921.695 Z" fill="#000000" fill-rule="evenodd" fill-opacity="1" /><path clip-path="url(#clip620)" d="M29.7248 883.979 L35.1993 883.979 Q33.8307 886.461 33.1623 888.976 Q32.4621 891.458 32.4621 894.005 Q32.4621 899.702 36.0905 902.853 Q39.6872 906.004 46.212 906.004 Q52.7369 906.004 56.3653 902.853 Q59.9619 899.702 59.9619 894.005 Q59.9619 891.458 59.2935 888.976 Q58.5933 886.461 57.2247 883.979 L62.6355 883.979 Q63.7814 886.429 64.3543 889.071 Q64.9272 891.681 64.9272 894.641 Q64.9272 902.694 59.8664 907.436 Q54.8057 912.179 46.212 912.179 Q37.491 912.179 32.4939 907.404 Q27.4968 902.598 27.4968 894.259 Q27.4968 891.554 28.0697 888.976 Q28.6108 886.398 29.7248 883.979 Z" fill="#000000" fill-rule="evenodd" fill-opacity="1" /><path clip-path="url(#clip620)" d="M29.7248 848.14 L35.1993 848.14 Q33.8307 850.622 33.1623 853.137 Q32.4621 855.619 32.4621 858.166 Q32.4621 863.863 36.0905 867.014 Q39.6872 870.165 46.212 870.165 Q52.7369 870.165 56.3653 867.014 Q59.9619 863.863 59.9619 858.166 Q59.9619 855.619 59.2935 853.137 Q58.5933 850.622 57.2247 848.14 L62.6355 848.14 Q63.7814 850.59 64.3543 853.232 Q64.9272 855.842 64.9272 858.802 Q64.9272 866.855 59.8664 871.597 Q54.8057 876.34 46.212 876.34 Q37.491 876.34 32.4939 871.565 Q27.4968 866.759 27.4968 858.42 Q27.4968 855.715 28.0697 853.137 Q28.6108 850.559 29.7248 848.14 Z" fill="#000000" fill-rule="evenodd" fill-opacity="1" /><path clip-path="url(#clip620)" d="M33.8307 817.298 Q33.2578 818.284 33.0032 819.462 Q32.7167 820.608 32.7167 822.008 Q32.7167 826.974 35.9632 829.647 Q39.1779 832.289 45.2253 832.289 L64.0042 832.289 L64.0042 838.177 L28.3562 838.177 L28.3562 832.289 L33.8944 832.289 Q30.6479 830.443 29.0883 827.483 Q27.4968 824.523 27.4968 820.29 Q27.4968 819.685 27.5923 818.953 Q27.656 818.221 27.8151 817.33 L33.8307 817.298 Z" fill="#000000" fill-rule="evenodd" fill-opacity="1" /><path clip-path="url(#clip620)" d="M44.7161 782.095 L47.5806 782.095 L47.5806 809.022 Q53.6281 808.64 56.8109 805.394 Q59.9619 802.116 59.9619 796.291 Q59.9619 792.917 59.1344 789.766 Q58.3069 786.583 56.6518 783.464 L62.1899 783.464 Q63.5267 786.615 64.227 789.925 Q64.9272 793.235 64.9272 796.641 Q64.9272 805.171 59.9619 810.168 Q54.9967 815.133 46.5303 815.133 Q37.7774 815.133 32.6531 810.423 Q27.4968 805.68 27.4968 797.66 Q27.4968 790.466 32.1438 786.297 Q36.7589 782.095 44.7161 782.095 M42.9973 787.952 Q38.1912 788.016 35.3266 790.657 Q32.4621 793.267 32.4621 797.596 Q32.4621 802.497 35.2312 805.458 Q38.0002 808.386 43.0292 808.831 L42.9973 787.952 Z" fill="#000000" fill-rule="evenodd" fill-opacity="1" /><path clip-path="url(#clip620)" d="M18.2347 766.69 L28.3562 766.69 L28.3562 754.627 L32.9077 754.627 L32.9077 766.69 L52.2594 766.69 Q56.6199 766.69 57.8613 765.513 Q59.1026 764.303 59.1026 760.643 L59.1026 754.627 L64.0042 754.627 L64.0042 760.643 Q64.0042 767.422 61.4897 770.001 Q58.9434 772.579 52.2594 772.579 L32.9077 772.579 L32.9077 776.876 L28.3562 776.876 L28.3562 772.579 L18.2347 772.579 L18.2347 766.69 Z" fill="#000000" fill-rule="evenodd" fill-opacity="1" /><path clip-path="url(#clip620)" d="M28.3562 746.925 L28.3562 741.068 L64.0042 741.068 L64.0042 746.925 L28.3562 746.925 M14.479 746.925 L14.479 741.068 L21.895 741.068 L21.895 746.925 L14.479 746.925 Z" fill="#000000" fill-rule="evenodd" fill-opacity="1" /><path clip-path="url(#clip620)" d="M32.4621 715.001 Q32.4621 719.711 36.1542 722.449 Q39.8145 725.186 46.212 725.186 Q52.6095 725.186 56.3017 722.481 Q59.9619 719.743 59.9619 715.001 Q59.9619 710.322 56.2698 707.585 Q52.5777 704.848 46.212 704.848 Q39.8781 704.848 36.186 707.585 Q32.4621 710.322 32.4621 715.001 M27.4968 715.001 Q27.4968 707.362 32.4621 703.001 Q37.4273 698.641 46.212 698.641 Q54.9649 698.641 59.9619 703.001 Q64.9272 707.362 64.9272 715.001 Q64.9272 722.672 59.9619 727.032 Q54.9649 731.361 46.212 731.361 Q37.4273 731.361 32.4621 727.032 Q27.4968 722.672 27.4968 715.001 Z" fill="#000000" fill-rule="evenodd" fill-opacity="1" /><path clip-path="url(#clip620)" d="M42.4881 659.301 L64.0042 659.301 L64.0042 665.157 L42.679 665.157 Q37.6183 665.157 35.1038 667.131 Q32.5894 669.104 32.5894 673.051 Q32.5894 677.793 35.6131 680.531 Q38.6368 683.268 43.8567 683.268 L64.0042 683.268 L64.0042 689.156 L28.3562 689.156 L28.3562 683.268 L33.8944 683.268 Q30.6797 681.167 29.0883 678.334 Q27.4968 675.47 27.4968 671.746 Q27.4968 665.603 31.3163 662.452 Q35.1038 659.301 42.4881 659.301 Z" fill="#000000" fill-rule="evenodd" fill-opacity="1" /><path clip-path="url(#clip620)" d="M33.8307 606.243 Q33.2578 607.229 33.0032 608.407 Q32.7167 609.553 32.7167 610.953 Q32.7167 615.919 35.9632 618.592 Q39.1779 621.234 45.2253 621.234 L64.0042 621.234 L64.0042 627.122 L28.3562 627.122 L28.3562 621.234 L33.8944 621.234 Q30.6479 619.388 29.0883 616.428 Q27.4968 613.468 27.4968 609.235 Q27.4968 608.63 27.5923 607.898 Q27.656 607.166 27.8151 606.275 L33.8307 606.243 Z" fill="#000000" fill-rule="evenodd" fill-opacity="1" /><path clip-path="url(#clip620)" d="M46.0847 583.899 Q46.0847 590.997 47.7079 593.734 Q49.3312 596.471 53.2461 596.471 Q56.3653 596.471 58.2114 594.434 Q60.0256 592.366 60.0256 588.833 Q60.0256 583.963 56.5881 581.035 Q53.1188 578.075 47.3897 578.075 L46.0847 578.075 L46.0847 583.899 M43.6657 572.218 L64.0042 572.218 L64.0042 578.075 L58.5933 578.075 Q61.8398 580.08 63.3994 583.072 Q64.9272 586.063 64.9272 590.392 Q64.9272 595.867 61.8716 599.113 Q58.7843 602.328 53.6281 602.328 Q47.6125 602.328 44.5569 598.317 Q41.5014 594.275 41.5014 586.286 L41.5014 578.075 L40.9285 578.075 Q36.8862 578.075 34.6901 580.748 Q32.4621 583.39 32.4621 588.196 Q32.4621 591.252 33.1941 594.148 Q33.9262 597.044 35.3903 599.718 L29.9795 599.718 Q28.7381 596.503 28.1334 593.48 Q27.4968 590.456 27.4968 587.591 Q27.4968 579.857 31.5072 576.037 Q35.5176 572.218 43.6657 572.218 Z" fill="#000000" fill-rule="evenodd" fill-opacity="1" /><path clip-path="url(#clip620)" d="M18.2347 554.362 L28.3562 554.362 L28.3562 542.299 L32.9077 542.299 L32.9077 554.362 L52.2594 554.362 Q56.6199 554.362 57.8613 553.185 Q59.1026 551.975 59.1026 548.315 L59.1026 542.299 L64.0042 542.299 L64.0042 548.315 Q64.0042 555.094 61.4897 557.672 Q58.9434 560.251 52.2594 560.251 L32.9077 560.251 L32.9077 564.547 L28.3562 564.547 L28.3562 560.251 L18.2347 560.251 L18.2347 554.362 Z" fill="#000000" fill-rule="evenodd" fill-opacity="1" /><path clip-path="url(#clip620)" d="M44.7161 504.105 L47.5806 504.105 L47.5806 531.032 Q53.6281 530.65 56.8109 527.403 Q59.9619 524.125 59.9619 518.301 Q59.9619 514.927 59.1344 511.776 Q58.3069 508.593 56.6518 505.474 L62.1899 505.474 Q63.5267 508.625 64.227 511.935 Q64.9272 515.245 64.9272 518.651 Q64.9272 527.181 59.9619 532.178 Q54.9967 537.143 46.5303 537.143 Q37.7774 537.143 32.6531 532.432 Q27.4968 527.69 27.4968 519.669 Q27.4968 512.476 32.1438 508.306 Q36.7589 504.105 44.7161 504.105 M42.9973 509.961 Q38.1912 510.025 35.3266 512.667 Q32.4621 515.277 32.4621 519.605 Q32.4621 524.507 35.2312 527.467 Q38.0002 530.395 43.0292 530.841 L42.9973 509.961 Z" fill="#000000" fill-rule="evenodd" fill-opacity="1" /><path clip-path="url(#clip620)" d="M14.479 474.313 L14.479 460.818 L19.0304 460.818 L19.0304 468.457 L68.0464 468.457 L68.0464 460.818 L72.5979 460.818 L72.5979 474.313 L14.479 474.313 Z" fill="#000000" fill-rule="evenodd" fill-opacity="1" /><path clip-path="url(#clip620)" d="M58.5933 446.4 L58.5933 435.896 L22.3406 435.896 L24.6323 447.323 L18.7758 447.323 L16.4842 435.96 L16.4842 429.531 L58.5933 429.531 L58.5933 419.027 L64.0042 419.027 L64.0042 446.4 L58.5933 446.4 Z" fill="#000000" fill-rule="evenodd" fill-opacity="1" /><path clip-path="url(#clip620)" d="M16.4842 396.461 L16.4842 391.05 L70.0516 407.601 L70.0516 413.012 L16.4842 396.461 Z" fill="#000000" fill-rule="evenodd" fill-opacity="1" /><path clip-path="url(#clip620)" d="M29.4065 362.182 L34.9447 362.182 Q33.6716 364.664 33.035 367.338 Q32.3984 370.011 32.3984 372.876 Q32.3984 377.236 33.7352 379.433 Q35.072 381.597 37.7456 381.597 Q39.7826 381.597 40.9603 380.037 Q42.1061 378.478 43.1565 373.767 L43.6021 371.762 Q44.9389 365.524 47.3897 362.914 Q49.8086 360.272 54.1691 360.272 Q59.1344 360.272 62.0308 364.219 Q64.9272 368.133 64.9272 375.008 Q64.9272 377.873 64.3543 380.992 Q63.8132 384.08 62.6992 387.517 L56.6518 387.517 Q58.3387 384.271 59.198 381.12 Q60.0256 377.969 60.0256 374.881 Q60.0256 370.743 58.6251 368.515 Q57.1929 366.287 54.6147 366.287 Q52.2276 366.287 50.9545 367.911 Q49.6813 369.502 48.5037 374.945 L48.0262 376.982 Q46.8804 382.425 44.5251 384.843 Q42.138 387.262 38.0002 387.262 Q32.9713 387.262 30.2341 383.698 Q27.4968 380.133 27.4968 373.576 Q27.4968 370.33 27.9743 367.465 Q28.4517 364.601 29.4065 362.182 Z" fill="#000000" fill-rule="evenodd" fill-opacity="1" /><path clip-path="url(#clip620)" d="M14.479 337.26 L72.5979 337.26 L72.5979 350.755 L68.0464 350.755 L68.0464 343.148 L19.0304 343.148 L19.0304 350.755 L14.479 350.755 L14.479 337.26 Z" fill="#000000" fill-rule="evenodd" fill-opacity="1" /><path clip-path="url(#clip620)" d="M16.4842 311.129 L16.4842 270.929 L21.895 270.929 L21.895 287.798 L64.0042 287.798 L64.0042 294.259 L21.895 294.259 L21.895 311.129 L16.4842 311.129 Z" fill="#000000" fill-rule="evenodd" fill-opacity="1" /><path clip-path="url(#clip620)" d="M31.921 223.409 L43.6021 256.256 L55.2195 223.409 L61.0123 223.409 L46.212 264.213 L40.9285 264.213 L26.1282 223.409 L31.921 223.409 Z" fill="#000000" fill-rule="evenodd" fill-opacity="1" /><path clip-path="url(#clip620)" d="M20.7174 195.782 Q20.7174 200.747 25.6189 203.262 Q30.4887 205.744 40.2919 205.744 Q50.0633 205.744 54.9649 203.262 Q59.8346 200.747 59.8346 195.782 Q59.8346 190.785 54.9649 188.302 Q50.0633 185.788 40.2919 185.788 Q30.4887 185.788 25.6189 188.302 Q20.7174 190.785 20.7174 195.782 M15.6248 195.782 Q15.6248 187.793 21.9587 183.592 Q28.2607 179.358 40.2919 179.358 Q52.2913 179.358 58.6251 183.592 Q64.9272 187.793 64.9272 195.782 Q64.9272 203.771 58.6251 208.004 Q52.2913 212.206 40.2919 212.206 Q28.2607 212.206 21.9587 208.004 Q15.6248 203.771 15.6248 195.782 Z" fill="#000000" fill-rule="evenodd" fill-opacity="1" /><polyline clip-path="url(#clip622)" style="stroke:#009af9; stroke-linecap:butt; stroke-linejoin:round; stroke-width:12; stroke-opacity:1; fill:none" points="
  396.992,1384.24 416.171,1384.2 435.351,1384.16 454.531,1384.12 473.711,1384.08 492.891,1384.05 512.07,1384.01 531.25,1383.98 550.43,1383.94 569.61,1383.91 
  588.79,1383.88 607.969,1383.84 627.149,1383.81 646.329,1383.77 665.509,1383.74 684.689,1383.71 703.868,1383.67 723.048,1383.64 742.228,1383.61 761.408,1383.58 
  780.588,1383.54 799.767,1383.51 818.947,1383.48 838.127,1383.45 857.307,1383.41 876.487,1383.38 895.666,1383.35 914.846,1383.32 934.026,1383.29 953.206,1383.25 
  972.386,1383.22 991.565,1383.19 1010.75,1383.16 1029.93,1383.13 1049.1,1383.09 1068.28,1383.06 1087.46,1383.03 1106.64,1383 1125.82,1382.97 1145,1382.94 
  1164.18,1382.91 1183.36,1382.87 1202.54,1382.84 1221.72,1382.81 1240.9,1382.78 1260.08,1382.75 1279.26,1382.72 1298.44,1382.69 1317.62,1382.66 1336.8,1382.62 
  1355.98,1382.59 1375.16,1382.56 1394.34,1382.53 1413.52,1382.5 1432.7,1382.47 1451.88,1382.44 1471.06,1382.41 1490.24,1382.38 1509.42,1382.35 1528.6,1382.32 
  1547.78,1382.29 1566.96,1382.25 1586.14,1382.22 1605.32,1382.19 1624.5,1382.16 1643.68,1382.13 1662.86,1382.1 1682.04,1382.07 1701.22,1382.04 1720.4,1382.01 
  1739.58,1381.98 1758.76,1381.95 1777.94,1381.92 1797.12,1381.89 1816.3,1381.86 1835.48,1381.83 1854.66,1381.8 1873.84,1381.77 1893.02,1381.74 1912.2,1381.71 
  1931.38,1381.68 1950.56,1381.65 1969.74,1381.62 1988.92,1381.59 2008.09,1381.56 2027.27,1381.53 2046.45,1381.5 2065.63,1381.47 2084.81,1381.44 2103.99,1381.41 
  2123.17,1381.38 2142.35,1381.35 2161.53,1381.32 2180.71,1381.29 2199.89,1381.26 2219.07,1381.23 2238.25,1381.2 2257.43,1381.17 2276.61,1381.14 2295.79,1381.11 
  
  "/>
<polyline clip-path="url(#clip622)" style="stroke:#e26f46; stroke-linecap:butt; stroke-linejoin:round; stroke-width:12; stroke-opacity:1; fill:none" points="
  396.992,1384.24 416.171,1383.3 435.351,1382.5 454.531,1381.74 473.711,1381 492.891,1380.28 512.07,1379.58 531.25,1378.88 550.43,1378.19 569.61,1377.51 
  588.79,1376.83 607.969,1376.16 627.149,1375.5 646.329,1374.84 665.509,1374.18 684.689,1373.53 703.868,1372.88 723.048,1372.23 742.228,1371.59 761.408,1370.95 
  780.588,1370.31 799.767,1369.68 818.947,1369.05 838.127,1368.42 857.307,1367.79 876.487,1367.16 895.666,1366.54 914.846,1365.92 934.026,1365.3 953.206,1364.68 
  972.386,1364.06 991.565,1363.45 1010.75,1362.83 1029.93,1362.22 1049.1,1361.61 1068.28,1361 1087.46,1360.39 1106.64,1359.79 1125.82,1359.18 1145,1358.58 
  1164.18,1357.97 1183.36,1357.37 1202.54,1356.77 1221.72,1356.17 1240.9,1355.57 1260.08,1354.97 1279.26,1354.37 1298.44,1353.78 1317.62,1353.18 1336.8,1352.59 
  1355.98,1352 1375.16,1351.4 1394.34,1350.81 1413.52,1350.22 1432.7,1349.63 1451.88,1349.04 1471.06,1348.45 1490.24,1347.86 1509.42,1347.28 1528.6,1346.69 
  1547.78,1346.11 1566.96,1345.52 1586.14,1344.94 1605.32,1344.35 1624.5,1343.77 1643.68,1343.19 1662.86,1342.61 1682.04,1342.02 1701.22,1341.44 1720.4,1340.86 
  1739.58,1340.29 1758.76,1339.71 1777.94,1339.13 1797.12,1338.55 1816.3,1337.97 1835.48,1337.4 1854.66,1336.82 1873.84,1336.25 1893.02,1335.67 1912.2,1335.1 
  1931.38,1334.52 1950.56,1333.95 1969.74,1333.38 1988.92,1332.81 2008.09,1332.24 2027.27,1331.66 2046.45,1331.09 2065.63,1330.52 2084.81,1329.95 2103.99,1329.38 
  2123.17,1328.81 2142.35,1328.25 2161.53,1327.68 2180.71,1327.11 2199.89,1326.54 2219.07,1325.98 2238.25,1325.41 2257.43,1324.84 2276.61,1324.28 2295.79,1323.71 
  
  "/>
<polyline clip-path="url(#clip622)" style="stroke:#3da44d; stroke-linecap:butt; stroke-linejoin:round; stroke-width:12; stroke-opacity:1; fill:none" points="
  396.992,1384.22 416.171,1360.39 435.351,1341.18 454.531,1323.28 473.711,1306.17 492.891,1289.6 512.07,1273.44 531.25,1257.62 550.43,1242.08 569.61,1226.77 
  588.79,1211.66 607.969,1196.74 627.149,1181.97 646.329,1167.35 665.509,1152.86 684.689,1138.49 703.868,1124.24 723.048,1110.08 742.228,1096.02 761.408,1082.05 
  780.588,1068.17 799.767,1054.36 818.947,1040.63 838.127,1026.96 857.307,1013.37 876.487,999.836 895.666,986.363 914.846,972.949 934.026,959.589 953.206,946.282 
  972.386,933.025 991.565,919.817 1010.75,906.656 1029.93,893.539 1049.1,880.466 1068.28,867.435 1087.46,854.445 1106.64,841.493 1125.82,828.579 1145,815.702 
  1164.18,802.861 1183.36,790.054 1202.54,777.28 1221.72,764.539 1240.9,751.83 1260.08,739.152 1279.26,726.503 1298.44,713.884 1317.62,701.293 1336.8,688.73 
  1355.98,676.195 1375.16,663.685 1394.34,651.202 1413.52,638.743 1432.7,626.31 1451.88,613.901 1471.06,601.515 1490.24,589.152 1509.42,576.812 1528.6,564.495 
  1547.78,552.199 1566.96,539.924 1586.14,527.671 1605.32,515.437 1624.5,503.224 1643.68,491.031 1662.86,478.857 1682.04,466.702 1701.22,454.566 1720.4,442.448 
  1739.58,430.349 1758.76,418.267 1777.94,406.202 1797.12,394.155 1816.3,382.125 1835.48,370.111 1854.66,358.114 1873.84,346.132 1893.02,334.167 1912.2,322.217 
  1931.38,310.283 1950.56,298.364 1969.74,286.46 1988.92,274.57 2008.09,262.695 2027.27,250.834 2046.45,238.988 2065.63,227.155 2084.81,215.336 2103.99,203.531 
  2123.17,191.739 2142.35,179.96 2161.53,168.195 2180.71,156.442 2199.89,144.702 2219.07,132.974 2238.25,121.259 2257.43,109.556 2276.61,97.8647 2295.79,86.1857 
  
  "/>
<path clip-path="url(#clip620)" d="
M1775.43 300.469 L2285.66 300.469 L2285.66 93.1086 L1775.43 93.1086  Z
  " fill="#ffffff" fill-rule="evenodd" fill-opacity="1"/>
<polyline clip-path="url(#clip620)" style="stroke:#000000; stroke-linecap:butt; stroke-linejoin:round; stroke-width:4; stroke-opacity:1; fill:none" points="
  1775.43,300.469 2285.66,300.469 2285.66,93.1086 1775.43,93.1086 1775.43,300.469 
  "/>
<polyline clip-path="url(#clip620)" style="stroke:#009af9; stroke-linecap:butt; stroke-linejoin:round; stroke-width:4; stroke-opacity:1; fill:none" points="
  1797.8,144.949 1931.98,144.949 
  "/>
<path clip-path="url(#clip620)" d="M1958.74 149.289 Q1958.74 153.988 1960.66 156.673 Q1962.61 159.335 1965.99 159.335 Q1969.37 159.335 1971.31 156.673 Q1973.25 153.988 1973.25 149.289 Q1973.25 144.59 1971.31 141.928 Q1969.37 139.243 1965.99 139.243 Q1962.61 139.243 1960.66 141.928 Q1958.74 144.59 1958.74 149.289 M1973.25 158.34 Q1971.91 160.655 1969.85 161.789 Q1967.81 162.9 1964.94 162.9 Q1960.24 162.9 1957.28 159.15 Q1954.34 155.4 1954.34 149.289 Q1954.34 143.178 1957.28 139.428 Q1960.24 135.678 1964.94 135.678 Q1967.81 135.678 1969.85 136.812 Q1971.91 137.923 1973.25 140.238 L1973.25 136.303 L1977.51 136.303 L1977.51 172.09 L1973.25 172.09 L1973.25 158.34 Z" fill="#000000" fill-rule="evenodd" fill-opacity="1" /><path clip-path="url(#clip620)" d="M2005.99 170.099 L2005.99 173.409 L1981.36 173.409 L1981.36 170.099 L2005.99 170.099 Z" fill="#000000" fill-rule="evenodd" fill-opacity="1" /><path clip-path="url(#clip620)" d="M2025.01 140.284 Q2024.3 139.868 2023.44 139.682 Q2022.61 139.474 2021.59 139.474 Q2017.98 139.474 2016.03 141.835 Q2014.11 144.173 2014.11 148.571 L2014.11 162.229 L2009.83 162.229 L2009.83 136.303 L2014.11 136.303 L2014.11 140.331 Q2015.45 137.969 2017.61 136.835 Q2019.76 135.678 2022.84 135.678 Q2023.28 135.678 2023.81 135.747 Q2024.34 135.794 2024.99 135.909 L2025.01 140.284 Z" fill="#000000" fill-rule="evenodd" fill-opacity="1" /><path clip-path="url(#clip620)" d="M2041.26 149.196 Q2036.1 149.196 2034.11 150.377 Q2032.12 151.557 2032.12 154.405 Q2032.12 156.673 2033.6 158.016 Q2035.11 159.335 2037.67 159.335 Q2041.22 159.335 2043.35 156.835 Q2045.5 154.312 2045.5 150.145 L2045.5 149.196 L2041.26 149.196 M2049.76 147.437 L2049.76 162.229 L2045.5 162.229 L2045.5 158.293 Q2044.04 160.655 2041.86 161.789 Q2039.69 162.9 2036.54 162.9 Q2032.56 162.9 2030.2 160.678 Q2027.86 158.432 2027.86 154.682 Q2027.86 150.307 2030.78 148.085 Q2033.72 145.863 2039.53 145.863 L2045.5 145.863 L2045.5 145.446 Q2045.5 142.507 2043.55 140.909 Q2041.63 139.289 2038.14 139.289 Q2035.92 139.289 2033.81 139.821 Q2031.7 140.354 2029.76 141.419 L2029.76 137.483 Q2032.1 136.581 2034.3 136.141 Q2036.49 135.678 2038.58 135.678 Q2044.2 135.678 2046.98 138.594 Q2049.76 141.511 2049.76 147.437 Z" fill="#000000" fill-rule="evenodd" fill-opacity="1" /><path clip-path="url(#clip620)" d="M2058.53 136.303 L2062.79 136.303 L2062.79 162.229 L2058.53 162.229 L2058.53 136.303 M2058.53 126.21 L2062.79 126.21 L2062.79 131.604 L2058.53 131.604 L2058.53 126.21 Z" fill="#000000" fill-rule="evenodd" fill-opacity="1" /><path clip-path="url(#clip620)" d="M2093.25 146.581 L2093.25 162.229 L2088.99 162.229 L2088.99 146.719 Q2088.99 143.039 2087.56 141.21 Q2086.12 139.382 2083.25 139.382 Q2079.8 139.382 2077.81 141.581 Q2075.82 143.78 2075.82 147.576 L2075.82 162.229 L2071.54 162.229 L2071.54 136.303 L2075.82 136.303 L2075.82 140.331 Q2077.35 137.993 2079.41 136.835 Q2081.49 135.678 2084.2 135.678 Q2088.67 135.678 2090.96 138.456 Q2093.25 141.21 2093.25 146.581 Z" fill="#000000" fill-rule="evenodd" fill-opacity="1" /><path clip-path="url(#clip620)" d="M2102.3 140.701 L2131.98 140.701 L2131.98 144.59 L2102.3 144.59 L2102.3 140.701 M2102.3 150.145 L2131.98 150.145 L2131.98 154.081 L2102.3 154.081 L2102.3 150.145 Z" fill="#000000" fill-rule="evenodd" fill-opacity="1" /><path clip-path="url(#clip620)" d="M2142.88 158.293 L2150.52 158.293 L2150.52 131.928 L2142.21 133.595 L2142.21 129.335 L2150.48 127.669 L2155.15 127.669 L2155.15 158.293 L2162.79 158.293 L2162.79 162.229 L2142.88 162.229 L2142.88 158.293 Z" fill="#000000" fill-rule="evenodd" fill-opacity="1" /><path clip-path="url(#clip620)" d="M2193.81 148.201 L2193.81 150.284 L2174.23 150.284 Q2174.5 154.682 2176.86 156.997 Q2179.25 159.289 2183.48 159.289 Q2185.94 159.289 2188.23 158.687 Q2190.54 158.085 2192.81 156.881 L2192.81 160.909 Q2190.52 161.881 2188.11 162.391 Q2185.71 162.9 2183.23 162.9 Q2177.03 162.9 2173.39 159.289 Q2169.78 155.678 2169.78 149.52 Q2169.78 143.155 2173.21 139.428 Q2176.66 135.678 2182.49 135.678 Q2187.72 135.678 2190.75 139.057 Q2193.81 142.414 2193.81 148.201 M2189.55 146.951 Q2189.5 143.456 2187.58 141.372 Q2185.68 139.289 2182.54 139.289 Q2178.97 139.289 2176.82 141.303 Q2174.69 143.317 2174.36 146.974 L2189.55 146.951 Z" fill="#000000" fill-rule="evenodd" fill-opacity="1" /><path clip-path="url(#clip620)" d="M2198.65 147.344 L2211.12 147.344 L2211.12 151.141 L2198.65 151.141 L2198.65 147.344 Z" fill="#000000" fill-rule="evenodd" fill-opacity="1" /><path clip-path="url(#clip620)" d="M2229.09 143.085 Q2225.94 143.085 2224.09 145.238 Q2222.26 147.391 2222.26 151.141 Q2222.26 154.868 2224.09 157.043 Q2225.94 159.196 2229.09 159.196 Q2232.23 159.196 2234.06 157.043 Q2235.91 154.868 2235.91 151.141 Q2235.91 147.391 2234.06 145.238 Q2232.23 143.085 2229.09 143.085 M2238.37 128.433 L2238.37 132.692 Q2236.61 131.858 2234.8 131.419 Q2233.02 130.979 2231.26 130.979 Q2226.63 130.979 2224.18 134.104 Q2221.75 137.229 2221.4 143.548 Q2222.77 141.534 2224.83 140.469 Q2226.89 139.382 2229.36 139.382 Q2234.57 139.382 2237.58 142.553 Q2240.61 145.701 2240.61 151.141 Q2240.61 156.465 2237.47 159.682 Q2234.32 162.9 2229.09 162.9 Q2223.09 162.9 2219.92 158.317 Q2216.75 153.71 2216.75 144.983 Q2216.75 136.789 2220.64 131.928 Q2224.53 127.044 2231.08 127.044 Q2232.84 127.044 2234.62 127.391 Q2236.42 127.738 2238.37 128.433 Z" fill="#000000" fill-rule="evenodd" fill-opacity="1" /><polyline clip-path="url(#clip620)" style="stroke:#e26f46; stroke-linecap:butt; stroke-linejoin:round; stroke-width:4; stroke-opacity:1; fill:none" points="
  1797.8,196.789 1931.98,196.789 
  "/>
<path clip-path="url(#clip620)" d="M1958.74 201.129 Q1958.74 205.828 1960.66 208.513 Q1962.61 211.175 1965.99 211.175 Q1969.37 211.175 1971.31 208.513 Q1973.25 205.828 1973.25 201.129 Q1973.25 196.43 1971.31 193.768 Q1969.37 191.083 1965.99 191.083 Q1962.61 191.083 1960.66 193.768 Q1958.74 196.43 1958.74 201.129 M1973.25 210.18 Q1971.91 212.495 1969.85 213.629 Q1967.81 214.74 1964.94 214.74 Q1960.24 214.74 1957.28 210.99 Q1954.34 207.24 1954.34 201.129 Q1954.34 195.018 1957.28 191.268 Q1960.24 187.518 1964.94 187.518 Q1967.81 187.518 1969.85 188.652 Q1971.91 189.763 1973.25 192.078 L1973.25 188.143 L1977.51 188.143 L1977.51 223.93 L1973.25 223.93 L1973.25 210.18 Z" fill="#000000" fill-rule="evenodd" fill-opacity="1" /><path clip-path="url(#clip620)" d="M2005.99 221.939 L2005.99 225.249 L1981.36 225.249 L1981.36 221.939 L2005.99 221.939 Z" fill="#000000" fill-rule="evenodd" fill-opacity="1" /><path clip-path="url(#clip620)" d="M2025.01 192.124 Q2024.3 191.708 2023.44 191.522 Q2022.61 191.314 2021.59 191.314 Q2017.98 191.314 2016.03 193.675 Q2014.11 196.013 2014.11 200.411 L2014.11 214.069 L2009.83 214.069 L2009.83 188.143 L2014.11 188.143 L2014.11 192.171 Q2015.45 189.809 2017.61 188.675 Q2019.76 187.518 2022.84 187.518 Q2023.28 187.518 2023.81 187.587 Q2024.34 187.634 2024.99 187.749 L2025.01 192.124 Z" fill="#000000" fill-rule="evenodd" fill-opacity="1" /><path clip-path="url(#clip620)" d="M2041.26 201.036 Q2036.1 201.036 2034.11 202.217 Q2032.12 203.397 2032.12 206.245 Q2032.12 208.513 2033.6 209.856 Q2035.11 211.175 2037.67 211.175 Q2041.22 211.175 2043.35 208.675 Q2045.5 206.152 2045.5 201.985 L2045.5 201.036 L2041.26 201.036 M2049.76 199.277 L2049.76 214.069 L2045.5 214.069 L2045.5 210.133 Q2044.04 212.495 2041.86 213.629 Q2039.69 214.74 2036.54 214.74 Q2032.56 214.74 2030.2 212.518 Q2027.86 210.272 2027.86 206.522 Q2027.86 202.147 2030.78 199.925 Q2033.72 197.703 2039.53 197.703 L2045.5 197.703 L2045.5 197.286 Q2045.5 194.347 2043.55 192.749 Q2041.63 191.129 2038.14 191.129 Q2035.92 191.129 2033.81 191.661 Q2031.7 192.194 2029.76 193.259 L2029.76 189.323 Q2032.1 188.421 2034.3 187.981 Q2036.49 187.518 2038.58 187.518 Q2044.2 187.518 2046.98 190.434 Q2049.76 193.351 2049.76 199.277 Z" fill="#000000" fill-rule="evenodd" fill-opacity="1" /><path clip-path="url(#clip620)" d="M2058.53 188.143 L2062.79 188.143 L2062.79 214.069 L2058.53 214.069 L2058.53 188.143 M2058.53 178.05 L2062.79 178.05 L2062.79 183.444 L2058.53 183.444 L2058.53 178.05 Z" fill="#000000" fill-rule="evenodd" fill-opacity="1" /><path clip-path="url(#clip620)" d="M2093.25 198.421 L2093.25 214.069 L2088.99 214.069 L2088.99 198.559 Q2088.99 194.879 2087.56 193.05 Q2086.12 191.222 2083.25 191.222 Q2079.8 191.222 2077.81 193.421 Q2075.82 195.62 2075.82 199.416 L2075.82 214.069 L2071.54 214.069 L2071.54 188.143 L2075.82 188.143 L2075.82 192.171 Q2077.35 189.833 2079.41 188.675 Q2081.49 187.518 2084.2 187.518 Q2088.67 187.518 2090.96 190.296 Q2093.25 193.05 2093.25 198.421 Z" fill="#000000" fill-rule="evenodd" fill-opacity="1" /><path clip-path="url(#clip620)" d="M2102.3 192.541 L2131.98 192.541 L2131.98 196.43 L2102.3 196.43 L2102.3 192.541 M2102.3 201.985 L2131.98 201.985 L2131.98 205.921 L2102.3 205.921 L2102.3 201.985 Z" fill="#000000" fill-rule="evenodd" fill-opacity="1" /><path clip-path="url(#clip620)" d="M2142.88 210.133 L2150.52 210.133 L2150.52 183.768 L2142.21 185.435 L2142.21 181.175 L2150.48 179.509 L2155.15 179.509 L2155.15 210.133 L2162.79 210.133 L2162.79 214.069 L2142.88 214.069 L2142.88 210.133 Z" fill="#000000" fill-rule="evenodd" fill-opacity="1" /><path clip-path="url(#clip620)" d="M2193.81 200.041 L2193.81 202.124 L2174.23 202.124 Q2174.5 206.522 2176.86 208.837 Q2179.25 211.129 2183.48 211.129 Q2185.94 211.129 2188.23 210.527 Q2190.54 209.925 2192.81 208.721 L2192.81 212.749 Q2190.52 213.721 2188.11 214.231 Q2185.71 214.74 2183.23 214.74 Q2177.03 214.74 2173.39 211.129 Q2169.78 207.518 2169.78 201.36 Q2169.78 194.995 2173.21 191.268 Q2176.66 187.518 2182.49 187.518 Q2187.72 187.518 2190.75 190.897 Q2193.81 194.254 2193.81 200.041 M2189.55 198.791 Q2189.5 195.296 2187.58 193.212 Q2185.68 191.129 2182.54 191.129 Q2178.97 191.129 2176.82 193.143 Q2174.69 195.157 2174.36 198.814 L2189.55 198.791 Z" fill="#000000" fill-rule="evenodd" fill-opacity="1" /><path clip-path="url(#clip620)" d="M2198.65 199.184 L2211.12 199.184 L2211.12 202.981 L2198.65 202.981 L2198.65 199.184 Z" fill="#000000" fill-rule="evenodd" fill-opacity="1" /><path clip-path="url(#clip620)" d="M2218.55 179.509 L2236.91 179.509 L2236.91 183.444 L2222.84 183.444 L2222.84 191.916 Q2223.85 191.569 2224.87 191.407 Q2225.89 191.222 2226.91 191.222 Q2232.7 191.222 2236.08 194.393 Q2239.46 197.564 2239.46 202.981 Q2239.46 208.559 2235.98 211.661 Q2232.51 214.74 2226.19 214.74 Q2224.02 214.74 2221.75 214.37 Q2219.5 213.999 2217.1 213.258 L2217.1 208.559 Q2219.18 209.694 2221.4 210.249 Q2223.62 210.805 2226.1 210.805 Q2230.1 210.805 2232.44 208.698 Q2234.78 206.592 2234.78 202.981 Q2234.78 199.37 2232.44 197.263 Q2230.1 195.157 2226.1 195.157 Q2224.22 195.157 2222.35 195.573 Q2220.5 195.99 2218.55 196.87 L2218.55 179.509 Z" fill="#000000" fill-rule="evenodd" fill-opacity="1" /><polyline clip-path="url(#clip620)" style="stroke:#3da44d; stroke-linecap:butt; stroke-linejoin:round; stroke-width:4; stroke-opacity:1; fill:none" points="
  1797.8,248.629 1931.98,248.629 
  "/>
<path clip-path="url(#clip620)" d="M1958.74 252.969 Q1958.74 257.668 1960.66 260.353 Q1962.61 263.015 1965.99 263.015 Q1969.37 263.015 1971.31 260.353 Q1973.25 257.668 1973.25 252.969 Q1973.25 248.27 1971.31 245.608 Q1969.37 242.923 1965.99 242.923 Q1962.61 242.923 1960.66 245.608 Q1958.74 248.27 1958.74 252.969 M1973.25 262.02 Q1971.91 264.335 1969.85 265.469 Q1967.81 266.58 1964.94 266.58 Q1960.24 266.58 1957.28 262.83 Q1954.34 259.08 1954.34 252.969 Q1954.34 246.858 1957.28 243.108 Q1960.24 239.358 1964.94 239.358 Q1967.81 239.358 1969.85 240.492 Q1971.91 241.603 1973.25 243.918 L1973.25 239.983 L1977.51 239.983 L1977.51 275.77 L1973.25 275.77 L1973.25 262.02 Z" fill="#000000" fill-rule="evenodd" fill-opacity="1" /><path clip-path="url(#clip620)" d="M2005.99 273.779 L2005.99 277.089 L1981.36 277.089 L1981.36 273.779 L2005.99 273.779 Z" fill="#000000" fill-rule="evenodd" fill-opacity="1" /><path clip-path="url(#clip620)" d="M2025.01 243.964 Q2024.3 243.548 2023.44 243.362 Q2022.61 243.154 2021.59 243.154 Q2017.98 243.154 2016.03 245.515 Q2014.11 247.853 2014.11 252.251 L2014.11 265.909 L2009.83 265.909 L2009.83 239.983 L2014.11 239.983 L2014.11 244.011 Q2015.45 241.649 2017.61 240.515 Q2019.76 239.358 2022.84 239.358 Q2023.28 239.358 2023.81 239.427 Q2024.34 239.474 2024.99 239.589 L2025.01 243.964 Z" fill="#000000" fill-rule="evenodd" fill-opacity="1" /><path clip-path="url(#clip620)" d="M2041.26 252.876 Q2036.1 252.876 2034.11 254.057 Q2032.12 255.237 2032.12 258.085 Q2032.12 260.353 2033.6 261.696 Q2035.11 263.015 2037.67 263.015 Q2041.22 263.015 2043.35 260.515 Q2045.5 257.992 2045.5 253.825 L2045.5 252.876 L2041.26 252.876 M2049.76 251.117 L2049.76 265.909 L2045.5 265.909 L2045.5 261.973 Q2044.04 264.335 2041.86 265.469 Q2039.69 266.58 2036.54 266.58 Q2032.56 266.58 2030.2 264.358 Q2027.86 262.112 2027.86 258.362 Q2027.86 253.987 2030.78 251.765 Q2033.72 249.543 2039.53 249.543 L2045.5 249.543 L2045.5 249.126 Q2045.5 246.187 2043.55 244.589 Q2041.63 242.969 2038.14 242.969 Q2035.92 242.969 2033.81 243.501 Q2031.7 244.034 2029.76 245.099 L2029.76 241.163 Q2032.1 240.261 2034.3 239.821 Q2036.49 239.358 2038.58 239.358 Q2044.2 239.358 2046.98 242.274 Q2049.76 245.191 2049.76 251.117 Z" fill="#000000" fill-rule="evenodd" fill-opacity="1" /><path clip-path="url(#clip620)" d="M2058.53 239.983 L2062.79 239.983 L2062.79 265.909 L2058.53 265.909 L2058.53 239.983 M2058.53 229.89 L2062.79 229.89 L2062.79 235.284 L2058.53 235.284 L2058.53 229.89 Z" fill="#000000" fill-rule="evenodd" fill-opacity="1" /><path clip-path="url(#clip620)" d="M2093.25 250.261 L2093.25 265.909 L2088.99 265.909 L2088.99 250.399 Q2088.99 246.719 2087.56 244.89 Q2086.12 243.062 2083.25 243.062 Q2079.8 243.062 2077.81 245.261 Q2075.82 247.46 2075.82 251.256 L2075.82 265.909 L2071.54 265.909 L2071.54 239.983 L2075.82 239.983 L2075.82 244.011 Q2077.35 241.673 2079.41 240.515 Q2081.49 239.358 2084.2 239.358 Q2088.67 239.358 2090.96 242.136 Q2093.25 244.89 2093.25 250.261 Z" fill="#000000" fill-rule="evenodd" fill-opacity="1" /><path clip-path="url(#clip620)" d="M2102.3 244.381 L2131.98 244.381 L2131.98 248.27 L2102.3 248.27 L2102.3 244.381 M2102.3 253.825 L2131.98 253.825 L2131.98 257.761 L2102.3 257.761 L2102.3 253.825 Z" fill="#000000" fill-rule="evenodd" fill-opacity="1" /><path clip-path="url(#clip620)" d="M2142.88 261.973 L2150.52 261.973 L2150.52 235.608 L2142.21 237.275 L2142.21 233.015 L2150.48 231.349 L2155.15 231.349 L2155.15 261.973 L2162.79 261.973 L2162.79 265.909 L2142.88 265.909 L2142.88 261.973 Z" fill="#000000" fill-rule="evenodd" fill-opacity="1" /><path clip-path="url(#clip620)" d="M2193.81 251.881 L2193.81 253.964 L2174.23 253.964 Q2174.5 258.362 2176.86 260.677 Q2179.25 262.969 2183.48 262.969 Q2185.94 262.969 2188.23 262.367 Q2190.54 261.765 2192.81 260.561 L2192.81 264.589 Q2190.52 265.561 2188.11 266.071 Q2185.71 266.58 2183.23 266.58 Q2177.03 266.58 2173.39 262.969 Q2169.78 259.358 2169.78 253.2 Q2169.78 246.835 2173.21 243.108 Q2176.66 239.358 2182.49 239.358 Q2187.72 239.358 2190.75 242.737 Q2193.81 246.094 2193.81 251.881 M2189.55 250.631 Q2189.5 247.136 2187.58 245.052 Q2185.68 242.969 2182.54 242.969 Q2178.97 242.969 2176.82 244.983 Q2174.69 246.997 2174.36 250.654 L2189.55 250.631 Z" fill="#000000" fill-rule="evenodd" fill-opacity="1" /><path clip-path="url(#clip620)" d="M2198.65 251.024 L2211.12 251.024 L2211.12 254.821 L2198.65 254.821 L2198.65 251.024 Z" fill="#000000" fill-rule="evenodd" fill-opacity="1" /><path clip-path="url(#clip620)" d="M2231.35 235.423 L2219.55 253.872 L2231.35 253.872 L2231.35 235.423 M2230.13 231.349 L2236.01 231.349 L2236.01 253.872 L2240.94 253.872 L2240.94 257.761 L2236.01 257.761 L2236.01 265.909 L2231.35 265.909 L2231.35 257.761 L2215.75 257.761 L2215.75 253.247 L2230.13 231.349 Z" fill="#000000" fill-rule="evenodd" fill-opacity="1" /></svg>
