<?xml version="1.0" encoding="utf-8"?>
<svg xmlns="http://www.w3.org/2000/svg" xmlns:xlink="http://www.w3.org/1999/xlink" width="600" height="400" viewBox="0 0 2400 1600">
<defs>
  <clipPath id="clip760">
    <rect x="0" y="0" width="2400" height="1600"/>
  </clipPath>
</defs>
<path clip-path="url(#clip760)" d="M0 1600 L2400 1600 L2400 0 L0 0  Z" fill="#ffffff" fill-rule="evenodd" fill-opacity="1"/>
<defs>
  <clipPath id="clip761">
    <rect x="480" y="0" width="1681" height="1600"/>
  </clipPath>
</defs>
<path clip-path="url(#clip760)" d="M211.325 1423.18 L2352.76 1423.18 L2352.76 47.2441 L211.325 47.2441  Z" fill="#ffffff" fill-rule="evenodd" fill-opacity="1"/>
<defs>
  <clipPath id="clip762">
    <rect x="211" y="47" width="2142" height="1377"/>
  </clipPath>
</defs>
<polyline clip-path="url(#clip762)" style="stroke:#000000; stroke-linecap:round; stroke-linejoin:round; stroke-width:2; stroke-opacity:0.1; fill:none" points="252.607,1423.18 252.607,47.2441 "/>
<polyline clip-path="url(#clip762)" style="stroke:#000000; stroke-linecap:round; stroke-linejoin:round; stroke-width:2; stroke-opacity:0.1; fill:none" points="630.039,1423.18 630.039,47.2441 "/>
<polyline clip-path="url(#clip762)" style="stroke:#000000; stroke-linecap:round; stroke-linejoin:round; stroke-width:2; stroke-opacity:0.1; fill:none" points="1007.47,1423.18 1007.47,47.2441 "/>
<polyline clip-path="url(#clip762)" style="stroke:#000000; stroke-linecap:round; stroke-linejoin:round; stroke-width:2; stroke-opacity:0.1; fill:none" points="1384.9,1423.18 1384.9,47.2441 "/>
<polyline clip-path="url(#clip762)" style="stroke:#000000; stroke-linecap:round; stroke-linejoin:round; stroke-width:2; stroke-opacity:0.1; fill:none" points="1762.34,1423.18 1762.34,47.2441 "/>
<polyline clip-path="url(#clip762)" style="stroke:#000000; stroke-linecap:round; stroke-linejoin:round; stroke-width:2; stroke-opacity:0.1; fill:none" points="2139.77,1423.18 2139.77,47.2441 "/>
<polyline clip-path="url(#clip760)" style="stroke:#000000; stroke-linecap:round; stroke-linejoin:round; stroke-width:4; stroke-opacity:1; fill:none" points="211.325,1423.18 2352.76,1423.18 "/>
<polyline clip-path="url(#clip760)" style="stroke:#000000; stroke-linecap:round; stroke-linejoin:round; stroke-width:4; stroke-opacity:1; fill:none" points="252.607,1423.18 252.607,1404.28 "/>
<polyline clip-path="url(#clip760)" style="stroke:#000000; stroke-linecap:round; stroke-linejoin:round; stroke-width:4; stroke-opacity:1; fill:none" points="630.039,1423.18 630.039,1404.28 "/>
<polyline clip-path="url(#clip760)" style="stroke:#000000; stroke-linecap:round; stroke-linejoin:round; stroke-width:4; stroke-opacity:1; fill:none" points="1007.47,1423.18 1007.47,1404.28 "/>
<polyline clip-path="url(#clip760)" style="stroke:#000000; stroke-linecap:round; stroke-linejoin:round; stroke-width:4; stroke-opacity:1; fill:none" points="1384.9,1423.18 1384.9,1404.28 "/>
<polyline clip-path="url(#clip760)" style="stroke:#000000; stroke-linecap:round; stroke-linejoin:round; stroke-width:4; stroke-opacity:1; fill:none" points="1762.34,1423.18 1762.34,1404.28 "/>
<polyline clip-path="url(#clip760)" style="stroke:#000000; stroke-linecap:round; stroke-linejoin:round; stroke-width:4; stroke-opacity:1; fill:none" points="2139.77,1423.18 2139.77,1404.28 "/>
<path clip-path="url(#clip760)" d="M214.91 1454.1 Q211.299 1454.1 209.47 1457.66 Q207.665 1461.2 207.665 1468.33 Q207.665 1475.44 209.47 1479.01 Q211.299 1482.55 214.91 1482.55 Q218.544 1482.55 220.35 1479.01 Q222.179 1475.44 222.179 1468.33 Q222.179 1461.2 220.35 1457.66 Q218.544 1454.1 214.91 1454.1 M214.91 1450.39 Q220.72 1450.39 223.776 1455 Q226.854 1459.58 226.854 1468.33 Q226.854 1477.06 223.776 1481.67 Q220.72 1486.25 214.91 1486.25 Q209.1 1486.25 206.021 1481.67 Q202.966 1477.06 202.966 1468.33 Q202.966 1459.58 206.021 1455 Q209.1 1450.39 214.91 1450.39 Z" fill="#000000" fill-rule="nonzero" fill-opacity="1" /><path clip-path="url(#clip760)" d="M235.072 1479.7 L239.956 1479.7 L239.956 1485.58 L235.072 1485.58 L235.072 1479.7 Z" fill="#000000" fill-rule="nonzero" fill-opacity="1" /><path clip-path="url(#clip760)" d="M250.952 1481.64 L258.59 1481.64 L258.59 1455.28 L250.28 1456.95 L250.28 1452.69 L258.544 1451.02 L263.22 1451.02 L263.22 1481.64 L270.859 1481.64 L270.859 1485.58 L250.952 1485.58 L250.952 1481.64 Z" fill="#000000" fill-rule="nonzero" fill-opacity="1" /><path clip-path="url(#clip760)" d="M290.303 1454.1 Q286.692 1454.1 284.863 1457.66 Q283.058 1461.2 283.058 1468.33 Q283.058 1475.44 284.863 1479.01 Q286.692 1482.55 290.303 1482.55 Q293.937 1482.55 295.743 1479.01 Q297.572 1475.44 297.572 1468.33 Q297.572 1461.2 295.743 1457.66 Q293.937 1454.1 290.303 1454.1 M290.303 1450.39 Q296.113 1450.39 299.169 1455 Q302.248 1459.58 302.248 1468.33 Q302.248 1477.06 299.169 1481.67 Q296.113 1486.25 290.303 1486.25 Q284.493 1486.25 281.414 1481.67 Q278.359 1477.06 278.359 1468.33 Q278.359 1459.58 281.414 1455 Q284.493 1450.39 290.303 1450.39 Z" fill="#000000" fill-rule="nonzero" fill-opacity="1" /><path clip-path="url(#clip760)" d="M592.84 1454.1 Q589.229 1454.1 587.4 1457.66 Q585.595 1461.2 585.595 1468.33 Q585.595 1475.44 587.4 1479.01 Q589.229 1482.55 592.84 1482.55 Q596.474 1482.55 598.28 1479.01 Q600.108 1475.44 600.108 1468.33 Q600.108 1461.2 598.28 1457.66 Q596.474 1454.1 592.84 1454.1 M592.84 1450.39 Q598.65 1450.39 601.706 1455 Q604.784 1459.58 604.784 1468.33 Q604.784 1477.06 601.706 1481.67 Q598.65 1486.25 592.84 1486.25 Q587.03 1486.25 583.951 1481.67 Q580.896 1477.06 580.896 1468.33 Q580.896 1459.58 583.951 1455 Q587.03 1450.39 592.84 1450.39 Z" fill="#000000" fill-rule="nonzero" fill-opacity="1" /><path clip-path="url(#clip760)" d="M613.002 1479.7 L617.886 1479.7 L617.886 1485.58 L613.002 1485.58 L613.002 1479.7 Z" fill="#000000" fill-rule="nonzero" fill-opacity="1" /><path clip-path="url(#clip760)" d="M628.881 1481.64 L636.52 1481.64 L636.52 1455.28 L628.21 1456.95 L628.21 1452.69 L636.474 1451.02 L641.15 1451.02 L641.15 1481.64 L648.789 1481.64 L648.789 1485.58 L628.881 1485.58 L628.881 1481.64 Z" fill="#000000" fill-rule="nonzero" fill-opacity="1" /><path clip-path="url(#clip760)" d="M658.279 1451.02 L676.636 1451.02 L676.636 1454.96 L662.562 1454.96 L662.562 1463.43 Q663.58 1463.08 664.599 1462.92 Q665.617 1462.73 666.636 1462.73 Q672.423 1462.73 675.802 1465.9 Q679.182 1469.08 679.182 1474.49 Q679.182 1480.07 675.71 1483.17 Q672.238 1486.25 665.918 1486.25 Q663.742 1486.25 661.474 1485.88 Q659.228 1485.51 656.821 1484.77 L656.821 1480.07 Q658.904 1481.2 661.127 1481.76 Q663.349 1482.32 665.826 1482.32 Q669.83 1482.32 672.168 1480.21 Q674.506 1478.1 674.506 1474.49 Q674.506 1470.88 672.168 1468.77 Q669.83 1466.67 665.826 1466.67 Q663.951 1466.67 662.076 1467.08 Q660.224 1467.5 658.279 1468.38 L658.279 1451.02 Z" fill="#000000" fill-rule="nonzero" fill-opacity="1" /><path clip-path="url(#clip760)" d="M969.774 1454.1 Q966.163 1454.1 964.335 1457.66 Q962.529 1461.2 962.529 1468.33 Q962.529 1475.44 964.335 1479.01 Q966.163 1482.55 969.774 1482.55 Q973.409 1482.55 975.214 1479.01 Q977.043 1475.44 977.043 1468.33 Q977.043 1461.2 975.214 1457.66 Q973.409 1454.1 969.774 1454.1 M969.774 1450.39 Q975.584 1450.39 978.64 1455 Q981.719 1459.58 981.719 1468.33 Q981.719 1477.06 978.64 1481.67 Q975.584 1486.25 969.774 1486.25 Q963.964 1486.25 960.885 1481.67 Q957.83 1477.06 957.83 1468.33 Q957.83 1459.58 960.885 1455 Q963.964 1450.39 969.774 1450.39 Z" fill="#000000" fill-rule="nonzero" fill-opacity="1" /><path clip-path="url(#clip760)" d="M989.936 1479.7 L994.82 1479.7 L994.82 1485.58 L989.936 1485.58 L989.936 1479.7 Z" fill="#000000" fill-rule="nonzero" fill-opacity="1" /><path clip-path="url(#clip760)" d="M1009.03 1481.64 L1025.35 1481.64 L1025.35 1485.58 L1003.41 1485.58 L1003.41 1481.64 Q1006.07 1478.89 1010.65 1474.26 Q1015.26 1469.61 1016.44 1468.27 Q1018.69 1465.74 1019.57 1464.01 Q1020.47 1462.25 1020.47 1460.56 Q1020.47 1457.8 1018.52 1456.07 Q1016.6 1454.33 1013.5 1454.33 Q1011.3 1454.33 1008.85 1455.09 Q1006.42 1455.86 1003.64 1457.41 L1003.64 1452.69 Q1006.46 1451.55 1008.92 1450.97 Q1011.37 1450.39 1013.41 1450.39 Q1018.78 1450.39 1021.97 1453.08 Q1025.17 1455.77 1025.17 1460.26 Q1025.17 1462.39 1024.36 1464.31 Q1023.57 1466.2 1021.46 1468.8 Q1020.89 1469.47 1017.78 1472.69 Q1014.68 1475.88 1009.03 1481.64 Z" fill="#000000" fill-rule="nonzero" fill-opacity="1" /><path clip-path="url(#clip760)" d="M1045.17 1454.1 Q1041.56 1454.1 1039.73 1457.66 Q1037.92 1461.2 1037.92 1468.33 Q1037.92 1475.44 1039.73 1479.01 Q1041.56 1482.55 1045.17 1482.55 Q1048.8 1482.55 1050.61 1479.01 Q1052.44 1475.44 1052.44 1468.33 Q1052.44 1461.2 1050.61 1457.66 Q1048.8 1454.1 1045.17 1454.1 M1045.17 1450.39 Q1050.98 1450.39 1054.03 1455 Q1057.11 1459.58 1057.11 1468.33 Q1057.11 1477.06 1054.03 1481.67 Q1050.98 1486.25 1045.17 1486.25 Q1039.36 1486.25 1036.28 1481.67 Q1033.22 1477.06 1033.22 1468.33 Q1033.22 1459.58 1036.28 1455 Q1039.36 1450.39 1045.17 1450.39 Z" fill="#000000" fill-rule="nonzero" fill-opacity="1" /><path clip-path="url(#clip760)" d="M1347.7 1454.1 Q1344.09 1454.1 1342.26 1457.66 Q1340.46 1461.2 1340.46 1468.33 Q1340.46 1475.44 1342.26 1479.01 Q1344.09 1482.55 1347.7 1482.55 Q1351.34 1482.55 1353.14 1479.01 Q1354.97 1475.44 1354.97 1468.33 Q1354.97 1461.2 1353.14 1457.66 Q1351.34 1454.1 1347.7 1454.1 M1347.7 1450.39 Q1353.51 1450.39 1356.57 1455 Q1359.65 1459.58 1359.65 1468.33 Q1359.65 1477.06 1356.57 1481.67 Q1353.51 1486.25 1347.7 1486.25 Q1341.89 1486.25 1338.82 1481.67 Q1335.76 1477.06 1335.76 1468.33 Q1335.76 1459.58 1338.82 1455 Q1341.89 1450.39 1347.7 1450.39 Z" fill="#000000" fill-rule="nonzero" fill-opacity="1" /><path clip-path="url(#clip760)" d="M1367.87 1479.7 L1372.75 1479.7 L1372.75 1485.58 L1367.87 1485.58 L1367.87 1479.7 Z" fill="#000000" fill-rule="nonzero" fill-opacity="1" /><path clip-path="url(#clip760)" d="M1386.96 1481.64 L1403.28 1481.64 L1403.28 1485.58 L1381.34 1485.58 L1381.34 1481.64 Q1384 1478.89 1388.58 1474.26 Q1393.19 1469.61 1394.37 1468.27 Q1396.62 1465.74 1397.5 1464.01 Q1398.4 1462.25 1398.4 1460.56 Q1398.4 1457.8 1396.45 1456.07 Q1394.53 1454.33 1391.43 1454.33 Q1389.23 1454.33 1386.78 1455.09 Q1384.35 1455.86 1381.57 1457.41 L1381.57 1452.69 Q1384.39 1451.55 1386.85 1450.97 Q1389.3 1450.39 1391.34 1450.39 Q1396.71 1450.39 1399.9 1453.08 Q1403.1 1455.77 1403.1 1460.26 Q1403.1 1462.39 1402.29 1464.31 Q1401.5 1466.2 1399.39 1468.8 Q1398.81 1469.47 1395.71 1472.69 Q1392.61 1475.88 1386.96 1481.64 Z" fill="#000000" fill-rule="nonzero" fill-opacity="1" /><path clip-path="url(#clip760)" d="M1413.14 1451.02 L1431.5 1451.02 L1431.5 1454.96 L1417.43 1454.96 L1417.43 1463.43 Q1418.44 1463.08 1419.46 1462.92 Q1420.48 1462.73 1421.5 1462.73 Q1427.29 1462.73 1430.67 1465.9 Q1434.05 1469.08 1434.05 1474.49 Q1434.05 1480.07 1430.57 1483.17 Q1427.1 1486.25 1420.78 1486.25 Q1418.61 1486.25 1416.34 1485.88 Q1414.09 1485.51 1411.69 1484.77 L1411.69 1480.07 Q1413.77 1481.2 1415.99 1481.76 Q1418.21 1482.32 1420.69 1482.32 Q1424.69 1482.32 1427.03 1480.21 Q1429.37 1478.1 1429.37 1474.49 Q1429.37 1470.88 1427.03 1468.77 Q1424.69 1466.67 1420.69 1466.67 Q1418.81 1466.67 1416.94 1467.08 Q1415.09 1467.5 1413.14 1468.38 L1413.14 1451.02 Z" fill="#000000" fill-rule="nonzero" fill-opacity="1" /><path clip-path="url(#clip760)" d="M1724.64 1454.1 Q1721.03 1454.1 1719.2 1457.66 Q1717.39 1461.2 1717.39 1468.33 Q1717.39 1475.44 1719.2 1479.01 Q1721.03 1482.55 1724.64 1482.55 Q1728.27 1482.55 1730.08 1479.01 Q1731.91 1475.44 1731.91 1468.33 Q1731.91 1461.2 1730.08 1457.66 Q1728.27 1454.1 1724.64 1454.1 M1724.64 1450.39 Q1730.45 1450.39 1733.5 1455 Q1736.58 1459.58 1736.58 1468.33 Q1736.58 1477.06 1733.5 1481.67 Q1730.45 1486.25 1724.64 1486.25 Q1718.83 1486.25 1715.75 1481.67 Q1712.69 1477.06 1712.69 1468.33 Q1712.69 1459.58 1715.75 1455 Q1718.83 1450.39 1724.64 1450.39 Z" fill="#000000" fill-rule="nonzero" fill-opacity="1" /><path clip-path="url(#clip760)" d="M1744.8 1479.7 L1749.68 1479.7 L1749.68 1485.58 L1744.8 1485.58 L1744.8 1479.7 Z" fill="#000000" fill-rule="nonzero" fill-opacity="1" /><path clip-path="url(#clip760)" d="M1774.04 1466.95 Q1777.39 1467.66 1779.27 1469.93 Q1781.17 1472.2 1781.17 1475.53 Q1781.17 1480.65 1777.65 1483.45 Q1774.13 1486.25 1767.65 1486.25 Q1765.47 1486.25 1763.16 1485.81 Q1760.87 1485.39 1758.41 1484.54 L1758.41 1480.02 Q1760.36 1481.16 1762.67 1481.74 Q1764.99 1482.32 1767.51 1482.32 Q1771.91 1482.32 1774.2 1480.58 Q1776.51 1478.84 1776.51 1475.53 Q1776.51 1472.48 1774.36 1470.77 Q1772.23 1469.03 1768.41 1469.03 L1764.38 1469.03 L1764.38 1465.19 L1768.6 1465.19 Q1772.05 1465.19 1773.87 1463.82 Q1775.7 1462.43 1775.7 1459.84 Q1775.7 1457.18 1773.8 1455.77 Q1771.93 1454.33 1768.41 1454.33 Q1766.49 1454.33 1764.29 1454.75 Q1762.09 1455.16 1759.45 1456.04 L1759.45 1451.88 Q1762.12 1451.14 1764.43 1450.77 Q1766.77 1450.39 1768.83 1450.39 Q1774.15 1450.39 1777.25 1452.83 Q1780.36 1455.23 1780.36 1459.35 Q1780.36 1462.22 1778.71 1464.21 Q1777.07 1466.18 1774.04 1466.95 Z" fill="#000000" fill-rule="nonzero" fill-opacity="1" /><path clip-path="url(#clip760)" d="M1800.03 1454.1 Q1796.42 1454.1 1794.59 1457.66 Q1792.79 1461.2 1792.79 1468.33 Q1792.79 1475.44 1794.59 1479.01 Q1796.42 1482.55 1800.03 1482.55 Q1803.67 1482.55 1805.47 1479.01 Q1807.3 1475.44 1807.3 1468.33 Q1807.3 1461.2 1805.47 1457.66 Q1803.67 1454.1 1800.03 1454.1 M1800.03 1450.39 Q1805.84 1450.39 1808.9 1455 Q1811.98 1459.58 1811.98 1468.33 Q1811.98 1477.06 1808.9 1481.67 Q1805.84 1486.25 1800.03 1486.25 Q1794.22 1486.25 1791.14 1481.67 Q1788.09 1477.06 1788.09 1468.33 Q1788.09 1459.58 1791.14 1455 Q1794.22 1450.39 1800.03 1450.39 Z" fill="#000000" fill-rule="nonzero" fill-opacity="1" /><path clip-path="url(#clip760)" d="M2102.57 1454.1 Q2098.96 1454.1 2097.13 1457.66 Q2095.32 1461.2 2095.32 1468.33 Q2095.32 1475.44 2097.13 1479.01 Q2098.96 1482.55 2102.57 1482.55 Q2106.2 1482.55 2108.01 1479.01 Q2109.84 1475.44 2109.84 1468.33 Q2109.84 1461.2 2108.01 1457.66 Q2106.2 1454.1 2102.57 1454.1 M2102.57 1450.39 Q2108.38 1450.39 2111.43 1455 Q2114.51 1459.58 2114.51 1468.33 Q2114.51 1477.06 2111.43 1481.67 Q2108.38 1486.25 2102.57 1486.25 Q2096.76 1486.25 2093.68 1481.67 Q2090.62 1477.06 2090.62 1468.33 Q2090.62 1459.58 2093.68 1455 Q2096.76 1450.39 2102.57 1450.39 Z" fill="#000000" fill-rule="nonzero" fill-opacity="1" /><path clip-path="url(#clip760)" d="M2122.73 1479.7 L2127.61 1479.7 L2127.61 1485.58 L2122.73 1485.58 L2122.73 1479.7 Z" fill="#000000" fill-rule="nonzero" fill-opacity="1" /><path clip-path="url(#clip760)" d="M2151.97 1466.95 Q2155.32 1467.66 2157.2 1469.93 Q2159.1 1472.2 2159.1 1475.53 Q2159.1 1480.65 2155.58 1483.45 Q2152.06 1486.25 2145.58 1486.25 Q2143.4 1486.25 2141.09 1485.81 Q2138.79 1485.39 2136.34 1484.54 L2136.34 1480.02 Q2138.29 1481.16 2140.6 1481.74 Q2142.92 1482.32 2145.44 1482.32 Q2149.84 1482.32 2152.13 1480.58 Q2154.44 1478.84 2154.44 1475.53 Q2154.44 1472.48 2152.29 1470.77 Q2150.16 1469.03 2146.34 1469.03 L2142.31 1469.03 L2142.31 1465.19 L2146.53 1465.19 Q2149.98 1465.19 2151.8 1463.82 Q2153.63 1462.43 2153.63 1459.84 Q2153.63 1457.18 2151.73 1455.77 Q2149.86 1454.33 2146.34 1454.33 Q2144.42 1454.33 2142.22 1454.75 Q2140.02 1455.16 2137.38 1456.04 L2137.38 1451.88 Q2140.04 1451.14 2142.36 1450.77 Q2144.7 1450.39 2146.76 1450.39 Q2152.08 1450.39 2155.18 1452.83 Q2158.29 1455.23 2158.29 1459.35 Q2158.29 1462.22 2156.64 1464.21 Q2155 1466.18 2151.97 1466.95 Z" fill="#000000" fill-rule="nonzero" fill-opacity="1" /><path clip-path="url(#clip760)" d="M2168.01 1451.02 L2186.36 1451.02 L2186.36 1454.96 L2172.29 1454.96 L2172.29 1463.43 Q2173.31 1463.08 2174.33 1462.92 Q2175.35 1462.73 2176.36 1462.73 Q2182.15 1462.73 2185.53 1465.9 Q2188.91 1469.08 2188.91 1474.49 Q2188.91 1480.07 2185.44 1483.17 Q2181.97 1486.25 2175.65 1486.25 Q2173.47 1486.25 2171.2 1485.88 Q2168.96 1485.51 2166.55 1484.77 L2166.55 1480.07 Q2168.63 1481.2 2170.85 1481.76 Q2173.08 1482.32 2175.55 1482.32 Q2179.56 1482.32 2181.9 1480.21 Q2184.23 1478.1 2184.23 1474.49 Q2184.23 1470.88 2181.9 1468.77 Q2179.56 1466.67 2175.55 1466.67 Q2173.68 1466.67 2171.8 1467.08 Q2169.95 1467.5 2168.01 1468.38 L2168.01 1451.02 Z" fill="#000000" fill-rule="nonzero" fill-opacity="1" /><path clip-path="url(#clip760)" d="M972.221 1525.81 L972.221 1562.76 L979.987 1562.76 Q989.823 1562.76 994.374 1558.3 Q998.957 1553.85 998.957 1544.24 Q998.957 1534.69 994.374 1530.26 Q989.823 1525.81 979.987 1525.81 L972.221 1525.81 M965.792 1520.52 L979.001 1520.52 Q992.814 1520.52 999.276 1526.28 Q1005.74 1532.01 1005.74 1544.24 Q1005.74 1556.52 999.244 1562.28 Q992.751 1568.04 979.001 1568.04 L965.792 1568.04 L965.792 1520.52 Z" fill="#000000" fill-rule="nonzero" fill-opacity="1" /><path clip-path="url(#clip760)" d="M1046.22 1548.76 L1046.22 1551.62 L1019.3 1551.62 Q1019.68 1557.67 1022.92 1560.85 Q1026.2 1564 1032.03 1564 Q1035.4 1564 1038.55 1563.17 Q1041.73 1562.35 1044.85 1560.69 L1044.85 1566.23 Q1041.7 1567.57 1038.39 1568.27 Q1035.08 1568.97 1031.68 1568.97 Q1023.15 1568.97 1018.15 1564 Q1013.18 1559.04 1013.18 1550.57 Q1013.18 1541.82 1017.9 1536.69 Q1022.64 1531.54 1030.66 1531.54 Q1037.85 1531.54 1042.02 1536.18 Q1046.22 1540.8 1046.22 1548.76 M1040.37 1547.04 Q1040.3 1542.23 1037.66 1539.37 Q1035.05 1536.5 1030.72 1536.5 Q1025.82 1536.5 1022.86 1539.27 Q1019.93 1542.04 1019.49 1547.07 L1040.37 1547.04 Z" fill="#000000" fill-rule="nonzero" fill-opacity="1" /><path clip-path="url(#clip760)" d="M1055.83 1518.52 L1061.69 1518.52 L1061.69 1568.04 L1055.83 1568.04 L1055.83 1518.52 Z" fill="#000000" fill-rule="nonzero" fill-opacity="1" /><path clip-path="url(#clip760)" d="M1079.74 1522.27 L1079.74 1532.4 L1091.8 1532.4 L1091.8 1536.95 L1079.74 1536.95 L1079.74 1556.3 Q1079.74 1560.66 1080.92 1561.9 Q1082.13 1563.14 1085.79 1563.14 L1091.8 1563.14 L1091.8 1568.04 L1085.79 1568.04 Q1079.01 1568.04 1076.43 1565.53 Q1073.85 1562.98 1073.85 1556.3 L1073.85 1536.95 L1069.55 1536.95 L1069.55 1532.4 L1073.85 1532.4 L1073.85 1522.27 L1079.74 1522.27 Z" fill="#000000" fill-rule="nonzero" fill-opacity="1" /><path clip-path="url(#clip760)" d="M1115.7 1550.12 Q1108.61 1550.12 1105.87 1551.75 Q1103.13 1553.37 1103.13 1557.29 Q1103.13 1560.4 1105.17 1562.25 Q1107.24 1564.07 1110.77 1564.07 Q1115.64 1564.07 1118.57 1560.63 Q1121.53 1557.16 1121.53 1551.43 L1121.53 1550.12 L1115.7 1550.12 M1127.39 1547.71 L1127.39 1568.04 L1121.53 1568.04 L1121.53 1562.63 Q1119.52 1565.88 1116.53 1567.44 Q1113.54 1568.97 1109.21 1568.97 Q1103.74 1568.97 1100.49 1565.91 Q1097.28 1562.82 1097.28 1557.67 Q1097.28 1551.65 1101.29 1548.6 Q1105.33 1545.54 1113.32 1545.54 L1121.53 1545.54 L1121.53 1544.97 Q1121.53 1540.93 1118.86 1538.73 Q1116.21 1536.5 1111.41 1536.5 Q1108.35 1536.5 1105.46 1537.23 Q1102.56 1537.97 1099.89 1539.43 L1099.89 1534.02 Q1103.1 1532.78 1106.12 1532.17 Q1109.15 1531.54 1112.01 1531.54 Q1119.75 1531.54 1123.57 1535.55 Q1127.39 1539.56 1127.39 1547.71 Z" fill="#000000" fill-rule="nonzero" fill-opacity="1" /><path clip-path="url(#clip760)" d="M1176.37 1550.12 Q1169.27 1550.12 1166.53 1551.75 Q1163.8 1553.37 1163.8 1557.29 Q1163.8 1560.4 1165.83 1562.25 Q1167.9 1564.07 1171.44 1564.07 Q1176.31 1564.07 1179.23 1560.63 Q1182.19 1557.16 1182.19 1551.43 L1182.19 1550.12 L1176.37 1550.12 M1188.05 1547.71 L1188.05 1568.04 L1182.19 1568.04 L1182.19 1562.63 Q1180.19 1565.88 1177.2 1567.44 Q1174.21 1568.97 1169.88 1568.97 Q1164.4 1568.97 1161.16 1565.91 Q1157.94 1562.82 1157.94 1557.67 Q1157.94 1551.65 1161.95 1548.6 Q1165.99 1545.54 1173.98 1545.54 L1182.19 1545.54 L1182.19 1544.97 Q1182.19 1540.93 1179.52 1538.73 Q1176.88 1536.5 1172.07 1536.5 Q1169.02 1536.5 1166.12 1537.23 Q1163.22 1537.97 1160.55 1539.43 L1160.55 1534.02 Q1163.77 1532.78 1166.79 1532.17 Q1169.81 1531.54 1172.68 1531.54 Q1180.41 1531.54 1184.23 1535.55 Q1188.05 1539.56 1188.05 1547.71 Z" fill="#000000" fill-rule="nonzero" fill-opacity="1" /><path clip-path="url(#clip760)" d="M1227.2 1578.87 L1227.2 1583.42 L1193.33 1583.42 L1193.33 1578.87 L1227.2 1578.87 Z" fill="#000000" fill-rule="nonzero" fill-opacity="1" /><path clip-path="url(#clip760)" d="M1229.3 1532.4 L1235.16 1532.4 L1242.48 1560.21 L1249.77 1532.4 L1256.67 1532.4 L1263.99 1560.21 L1271.28 1532.4 L1277.14 1532.4 L1267.81 1568.04 L1260.91 1568.04 L1253.24 1538.83 L1245.53 1568.04 L1238.63 1568.04 L1229.3 1532.4 Z" fill="#000000" fill-rule="nonzero" fill-opacity="1" /><path clip-path="url(#clip760)" d="M1306.2 1518.52 L1319.69 1518.52 L1319.69 1523.07 L1312.05 1523.07 L1312.05 1572.09 L1319.69 1572.09 L1319.69 1576.64 L1306.2 1576.64 L1306.2 1518.52 Z" fill="#000000" fill-rule="nonzero" fill-opacity="1" /><path clip-path="url(#clip760)" d="M1331.57 1553.98 L1331.57 1532.4 L1337.42 1532.4 L1337.42 1553.75 Q1337.42 1558.81 1339.4 1561.36 Q1341.37 1563.87 1345.32 1563.87 Q1350.06 1563.87 1352.8 1560.85 Q1355.56 1557.83 1355.56 1552.61 L1355.56 1532.4 L1361.42 1532.4 L1361.42 1568.04 L1355.56 1568.04 L1355.56 1562.57 Q1353.43 1565.82 1350.6 1567.41 Q1347.8 1568.97 1344.07 1568.97 Q1337.93 1568.97 1334.75 1565.15 Q1331.57 1561.33 1331.57 1553.98 M1346.3 1531.54 L1346.3 1531.54 Z" fill="#000000" fill-rule="nonzero" fill-opacity="1" /><path clip-path="url(#clip760)" d="M1403.12 1546.53 L1403.12 1568.04 L1397.26 1568.04 L1397.26 1546.72 Q1397.26 1541.66 1395.29 1539.14 Q1393.31 1536.63 1389.37 1536.63 Q1384.62 1536.63 1381.89 1539.65 Q1379.15 1542.68 1379.15 1547.9 L1379.15 1568.04 L1373.26 1568.04 L1373.26 1532.4 L1379.15 1532.4 L1379.15 1537.93 Q1381.25 1534.72 1384.08 1533.13 Q1386.95 1531.54 1390.67 1531.54 Q1396.81 1531.54 1399.96 1535.36 Q1403.12 1539.14 1403.12 1546.53 Z" fill="#000000" fill-rule="nonzero" fill-opacity="1" /><path clip-path="url(#clip760)" d="M1414.8 1532.4 L1420.65 1532.4 L1420.65 1568.04 L1414.8 1568.04 L1414.8 1532.4 M1414.8 1518.52 L1420.65 1518.52 L1420.65 1525.93 L1414.8 1525.93 L1414.8 1518.52 Z" fill="#000000" fill-rule="nonzero" fill-opacity="1" /><path clip-path="url(#clip760)" d="M1438.7 1522.27 L1438.7 1532.4 L1450.76 1532.4 L1450.76 1536.95 L1438.7 1536.95 L1438.7 1556.3 Q1438.7 1560.66 1439.88 1561.9 Q1441.09 1563.14 1444.75 1563.14 L1450.76 1563.14 L1450.76 1568.04 L1444.75 1568.04 Q1437.97 1568.04 1435.39 1565.53 Q1432.81 1562.98 1432.81 1556.3 L1432.81 1536.95 L1428.52 1536.95 L1428.52 1532.4 L1432.81 1532.4 L1432.81 1522.27 L1438.7 1522.27 Z" fill="#000000" fill-rule="nonzero" fill-opacity="1" /><path clip-path="url(#clip760)" d="M1458.47 1518.52 L1464.32 1518.52 L1464.32 1568.04 L1458.47 1568.04 L1458.47 1518.52 Z" fill="#000000" fill-rule="nonzero" fill-opacity="1" /><path clip-path="url(#clip760)" d="M1507.07 1548.76 L1507.07 1551.62 L1480.14 1551.62 Q1480.52 1557.67 1483.77 1560.85 Q1487.05 1564 1492.87 1564 Q1496.25 1564 1499.4 1563.17 Q1502.58 1562.35 1505.7 1560.69 L1505.7 1566.23 Q1502.55 1567.57 1499.24 1568.27 Q1495.93 1568.97 1492.52 1568.97 Q1483.99 1568.97 1479 1564 Q1474.03 1559.04 1474.03 1550.57 Q1474.03 1541.82 1478.74 1536.69 Q1483.48 1531.54 1491.5 1531.54 Q1498.7 1531.54 1502.87 1536.18 Q1507.07 1540.8 1507.07 1548.76 M1501.21 1547.04 Q1501.15 1542.23 1498.51 1539.37 Q1495.9 1536.5 1491.57 1536.5 Q1486.67 1536.5 1483.71 1539.27 Q1480.78 1542.04 1480.33 1547.07 L1501.21 1547.04 Z" fill="#000000" fill-rule="nonzero" fill-opacity="1" /><path clip-path="url(#clip760)" d="M1539.41 1533.45 L1539.41 1538.98 Q1536.92 1537.71 1534.25 1537.07 Q1531.58 1536.44 1528.71 1536.44 Q1524.35 1536.44 1522.15 1537.77 Q1519.99 1539.11 1519.99 1541.79 Q1519.99 1543.82 1521.55 1545 Q1523.11 1546.15 1527.82 1547.2 L1529.83 1547.64 Q1536.06 1548.98 1538.67 1551.43 Q1541.32 1553.85 1541.32 1558.21 Q1541.32 1563.17 1537.37 1566.07 Q1533.45 1568.97 1526.58 1568.97 Q1523.71 1568.97 1520.6 1568.39 Q1517.51 1567.85 1514.07 1566.74 L1514.07 1560.69 Q1517.32 1562.38 1520.47 1563.24 Q1523.62 1564.07 1526.71 1564.07 Q1530.84 1564.07 1533.07 1562.66 Q1535.3 1561.23 1535.3 1558.65 Q1535.3 1556.27 1533.68 1554.99 Q1532.09 1553.72 1526.64 1552.54 L1524.61 1552.07 Q1519.16 1550.92 1516.74 1548.56 Q1514.32 1546.18 1514.32 1542.04 Q1514.32 1537.01 1517.89 1534.27 Q1521.45 1531.54 1528.01 1531.54 Q1531.26 1531.54 1534.12 1532.01 Q1536.99 1532.49 1539.41 1533.45 Z" fill="#000000" fill-rule="nonzero" fill-opacity="1" /><path clip-path="url(#clip760)" d="M1573.37 1533.45 L1573.37 1538.98 Q1570.88 1537.71 1568.21 1537.07 Q1565.54 1536.44 1562.67 1536.44 Q1558.31 1536.44 1556.12 1537.77 Q1553.95 1539.11 1553.95 1541.79 Q1553.95 1543.82 1555.51 1545 Q1557.07 1546.15 1561.78 1547.2 L1563.79 1547.64 Q1570.02 1548.98 1572.63 1551.43 Q1575.28 1553.85 1575.28 1558.21 Q1575.28 1563.17 1571.33 1566.07 Q1567.41 1568.97 1560.54 1568.97 Q1557.68 1568.97 1554.56 1568.39 Q1551.47 1567.85 1548.03 1566.74 L1548.03 1560.69 Q1551.28 1562.38 1554.43 1563.24 Q1557.58 1564.07 1560.67 1564.07 Q1564.8 1564.07 1567.03 1562.66 Q1569.26 1561.23 1569.26 1558.65 Q1569.26 1556.27 1567.64 1554.99 Q1566.05 1553.72 1560.6 1552.54 L1558.57 1552.07 Q1553.12 1550.92 1550.7 1548.56 Q1548.29 1546.18 1548.29 1542.04 Q1548.29 1537.01 1551.85 1534.27 Q1555.42 1531.54 1561.97 1531.54 Q1565.22 1531.54 1568.08 1532.01 Q1570.95 1532.49 1573.37 1533.45 Z" fill="#000000" fill-rule="nonzero" fill-opacity="1" /><path clip-path="url(#clip760)" d="M1598.29 1518.52 L1598.29 1576.64 L1584.79 1576.64 L1584.79 1572.09 L1592.4 1572.09 L1592.4 1523.07 L1584.79 1523.07 L1584.79 1518.52 L1598.29 1518.52 Z" fill="#000000" fill-rule="nonzero" fill-opacity="1" /><polyline clip-path="url(#clip762)" style="stroke:#000000; stroke-linecap:round; stroke-linejoin:round; stroke-width:2; stroke-opacity:0.1; fill:none" points="211.325,1213.51 2352.76,1213.51 "/>
<polyline clip-path="url(#clip762)" style="stroke:#000000; stroke-linecap:round; stroke-linejoin:round; stroke-width:2; stroke-opacity:0.1; fill:none" points="211.325,946.381 2352.76,946.381 "/>
<polyline clip-path="url(#clip762)" style="stroke:#000000; stroke-linecap:round; stroke-linejoin:round; stroke-width:2; stroke-opacity:0.1; fill:none" points="211.325,679.248 2352.76,679.248 "/>
<polyline clip-path="url(#clip762)" style="stroke:#000000; stroke-linecap:round; stroke-linejoin:round; stroke-width:2; stroke-opacity:0.1; fill:none" points="211.325,412.115 2352.76,412.115 "/>
<polyline clip-path="url(#clip762)" style="stroke:#000000; stroke-linecap:round; stroke-linejoin:round; stroke-width:2; stroke-opacity:0.1; fill:none" points="211.325,144.981 2352.76,144.981 "/>
<polyline clip-path="url(#clip760)" style="stroke:#000000; stroke-linecap:round; stroke-linejoin:round; stroke-width:4; stroke-opacity:1; fill:none" points="211.325,1423.18 211.325,47.2441 "/>
<polyline clip-path="url(#clip760)" style="stroke:#000000; stroke-linecap:round; stroke-linejoin:round; stroke-width:4; stroke-opacity:1; fill:none" points="211.325,1213.51 230.222,1213.51 "/>
<polyline clip-path="url(#clip760)" style="stroke:#000000; stroke-linecap:round; stroke-linejoin:round; stroke-width:4; stroke-opacity:1; fill:none" points="211.325,946.381 230.222,946.381 "/>
<polyline clip-path="url(#clip760)" style="stroke:#000000; stroke-linecap:round; stroke-linejoin:round; stroke-width:4; stroke-opacity:1; fill:none" points="211.325,679.248 230.222,679.248 "/>
<polyline clip-path="url(#clip760)" style="stroke:#000000; stroke-linecap:round; stroke-linejoin:round; stroke-width:4; stroke-opacity:1; fill:none" points="211.325,412.115 230.222,412.115 "/>
<polyline clip-path="url(#clip760)" style="stroke:#000000; stroke-linecap:round; stroke-linejoin:round; stroke-width:4; stroke-opacity:1; fill:none" points="211.325,144.981 230.222,144.981 "/>
<path clip-path="url(#clip760)" d="M114.26 1213.97 L143.936 1213.97 L143.936 1217.9 L114.26 1217.9 L114.26 1213.97 Z" fill="#000000" fill-rule="nonzero" fill-opacity="1" /><path clip-path="url(#clip760)" d="M168.195 1212.16 Q171.552 1212.88 173.427 1215.15 Q175.325 1217.41 175.325 1220.75 Q175.325 1225.86 171.806 1228.66 Q168.288 1231.47 161.806 1231.47 Q159.63 1231.47 157.315 1231.03 Q155.024 1230.61 152.57 1229.75 L152.57 1225.24 Q154.515 1226.37 156.829 1226.95 Q159.144 1227.53 161.667 1227.53 Q166.065 1227.53 168.357 1225.79 Q170.672 1224.06 170.672 1220.75 Q170.672 1217.69 168.519 1215.98 Q166.39 1214.24 162.57 1214.24 L158.542 1214.24 L158.542 1210.4 L162.755 1210.4 Q166.204 1210.4 168.033 1209.04 Q169.862 1207.65 169.862 1205.05 Q169.862 1202.39 167.964 1200.98 Q166.089 1199.54 162.57 1199.54 Q160.649 1199.54 158.45 1199.96 Q156.251 1200.38 153.612 1201.26 L153.612 1197.09 Q156.274 1196.35 158.589 1195.98 Q160.927 1195.61 162.987 1195.61 Q168.311 1195.61 171.413 1198.04 Q174.514 1200.45 174.514 1204.57 Q174.514 1207.44 172.871 1209.43 Q171.227 1211.4 168.195 1212.16 Z" fill="#000000" fill-rule="nonzero" fill-opacity="1" /><path clip-path="url(#clip760)" d="M163.38 932.18 Q159.769 932.18 157.94 935.745 Q156.135 939.286 156.135 946.416 Q156.135 953.522 157.94 957.087 Q159.769 960.629 163.38 960.629 Q167.015 960.629 168.82 957.087 Q170.649 953.522 170.649 946.416 Q170.649 939.286 168.82 935.745 Q167.015 932.18 163.38 932.18 M163.38 928.476 Q169.19 928.476 172.246 933.083 Q175.325 937.666 175.325 946.416 Q175.325 955.143 172.246 959.749 Q169.19 964.332 163.38 964.332 Q157.57 964.332 154.491 959.749 Q151.436 955.143 151.436 946.416 Q151.436 937.666 154.491 933.083 Q157.57 928.476 163.38 928.476 Z" fill="#000000" fill-rule="nonzero" fill-opacity="1" /><path clip-path="url(#clip760)" d="M168.195 677.894 Q171.552 678.611 173.427 680.88 Q175.325 683.148 175.325 686.482 Q175.325 691.597 171.806 694.398 Q168.288 697.199 161.806 697.199 Q159.63 697.199 157.315 696.759 Q155.024 696.343 152.57 695.486 L152.57 690.972 Q154.515 692.107 156.829 692.685 Q159.144 693.264 161.667 693.264 Q166.065 693.264 168.357 691.528 Q170.672 689.792 170.672 686.482 Q170.672 683.426 168.519 681.713 Q166.39 679.977 162.57 679.977 L158.542 679.977 L158.542 676.134 L162.755 676.134 Q166.204 676.134 168.033 674.769 Q169.862 673.38 169.862 670.787 Q169.862 668.125 167.964 666.713 Q166.089 665.278 162.57 665.278 Q160.649 665.278 158.45 665.695 Q156.251 666.111 153.612 666.991 L153.612 662.824 Q156.274 662.084 158.589 661.713 Q160.927 661.343 162.987 661.343 Q168.311 661.343 171.413 663.773 Q174.514 666.181 174.514 670.301 Q174.514 673.172 172.871 675.162 Q171.227 677.13 168.195 677.894 Z" fill="#000000" fill-rule="nonzero" fill-opacity="1" /><path clip-path="url(#clip760)" d="M163.797 410.251 Q160.649 410.251 158.797 412.404 Q156.968 414.557 156.968 418.307 Q156.968 422.034 158.797 424.21 Q160.649 426.362 163.797 426.362 Q166.945 426.362 168.774 424.21 Q170.626 422.034 170.626 418.307 Q170.626 414.557 168.774 412.404 Q166.945 410.251 163.797 410.251 M173.079 395.599 L173.079 399.858 Q171.32 399.024 169.514 398.585 Q167.732 398.145 165.973 398.145 Q161.343 398.145 158.89 401.27 Q156.459 404.395 156.112 410.714 Q157.478 408.7 159.538 407.636 Q161.598 406.548 164.075 406.548 Q169.283 406.548 172.292 409.719 Q175.325 412.867 175.325 418.307 Q175.325 423.631 172.177 426.848 Q169.028 430.066 163.797 430.066 Q157.802 430.066 154.63 425.483 Q151.459 420.876 151.459 412.149 Q151.459 403.955 155.348 399.094 Q159.237 394.21 165.788 394.21 Q167.547 394.21 169.329 394.557 Q171.135 394.904 173.079 395.599 Z" fill="#000000" fill-rule="nonzero" fill-opacity="1" /><path clip-path="url(#clip760)" d="M153.704 161.544 L153.704 157.285 Q155.464 158.118 157.269 158.558 Q159.075 158.998 160.811 158.998 Q165.44 158.998 167.871 155.896 Q170.325 152.771 170.672 146.428 Q169.329 148.419 167.269 149.484 Q165.209 150.549 162.709 150.549 Q157.524 150.549 154.491 147.424 Q151.482 144.275 151.482 138.836 Q151.482 133.512 154.63 130.294 Q157.778 127.076 163.01 127.076 Q169.005 127.076 172.153 131.683 Q175.325 136.266 175.325 145.016 Q175.325 153.187 171.436 158.072 Q167.57 162.933 161.019 162.933 Q159.26 162.933 157.454 162.586 Q155.649 162.238 153.704 161.544 M163.01 146.891 Q166.158 146.891 167.987 144.738 Q169.839 142.586 169.839 138.836 Q169.839 135.109 167.987 132.956 Q166.158 130.78 163.01 130.78 Q159.862 130.78 158.01 132.956 Q156.181 135.109 156.181 138.836 Q156.181 142.586 158.01 144.738 Q159.862 146.891 163.01 146.891 Z" fill="#000000" fill-rule="nonzero" fill-opacity="1" /><path clip-path="url(#clip760)" d="M14.479 1087.95 L14.479 1082.1 L64.0042 1082.1 L64.0042 1087.95 L14.479 1087.95 Z" fill="#000000" fill-rule="nonzero" fill-opacity="1" /><path clip-path="url(#clip760)" d="M32.4621 1056.03 Q32.4621 1060.74 36.1542 1063.48 Q39.8145 1066.21 46.212 1066.21 Q52.6095 1066.21 56.3017 1063.51 Q59.9619 1060.77 59.9619 1056.03 Q59.9619 1051.35 56.2698 1048.61 Q52.5777 1045.87 46.212 1045.87 Q39.8781 1045.87 36.186 1048.61 Q32.4621 1051.35 32.4621 1056.03 M27.4968 1056.03 Q27.4968 1048.39 32.4621 1044.03 Q37.4273 1039.67 46.212 1039.67 Q54.9649 1039.67 59.9619 1044.03 Q64.9272 1048.39 64.9272 1056.03 Q64.9272 1063.7 59.9619 1068.06 Q54.9649 1072.39 46.212 1072.39 Q37.4273 1072.39 32.4621 1068.06 Q27.4968 1063.7 27.4968 1056.03 Z" fill="#000000" fill-rule="nonzero" fill-opacity="1" /><path clip-path="url(#clip760)" d="M45.7664 1006.5 Q39.4007 1006.5 35.8996 1009.14 Q32.3984 1011.75 32.3984 1016.5 Q32.3984 1021.21 35.8996 1023.85 Q39.4007 1026.46 45.7664 1026.46 Q52.1003 1026.46 55.6014 1023.85 Q59.1026 1021.21 59.1026 1016.5 Q59.1026 1011.75 55.6014 1009.14 Q52.1003 1006.5 45.7664 1006.5 M59.58 1000.65 Q68.683 1000.65 73.1071 1004.69 Q77.5631 1008.73 77.5631 1017.07 Q77.5631 1020.16 77.0857 1022.89 Q76.6401 1025.63 75.6852 1028.21 L69.9879 1028.21 Q71.3884 1025.63 72.0568 1023.12 Q72.7252 1020.6 72.7252 1017.99 Q72.7252 1012.23 69.7015 1009.37 Q66.7096 1006.5 60.6303 1006.5 L57.7339 1006.5 Q60.885 1008.32 62.4446 1011.15 Q64.0042 1013.98 64.0042 1017.93 Q64.0042 1024.49 59.0071 1028.5 Q54.01 1032.51 45.7664 1032.51 Q37.491 1032.51 32.4939 1028.5 Q27.4968 1024.49 27.4968 1017.93 Q27.4968 1013.98 29.0564 1011.15 Q30.616 1008.32 33.7671 1006.5 L28.3562 1006.5 L28.3562 1000.65 L59.58 1000.65 Z" fill="#000000" fill-rule="nonzero" fill-opacity="1" /><path clip-path="url(#clip760)" d="M58.5933 986.641 L58.5933 976.138 L22.3406 976.138 L24.6323 987.564 L18.7758 987.564 L16.4842 976.202 L16.4842 969.772 L58.5933 969.772 L58.5933 959.269 L64.0042 959.269 L64.0042 986.641 L58.5933 986.641 Z" fill="#000000" fill-rule="nonzero" fill-opacity="1" /><path clip-path="url(#clip760)" d="M20.7174 932.533 Q20.7174 937.498 25.6189 940.013 Q30.4887 942.495 40.2919 942.495 Q50.0633 942.495 54.9649 940.013 Q59.8346 937.498 59.8346 932.533 Q59.8346 927.536 54.9649 925.053 Q50.0633 922.539 40.2919 922.539 Q30.4887 922.539 25.6189 925.053 Q20.7174 927.536 20.7174 932.533 M15.6248 932.533 Q15.6248 924.544 21.9587 920.343 Q28.2607 916.109 40.2919 916.109 Q52.2913 916.109 58.6251 920.343 Q64.9272 924.544 64.9272 932.533 Q64.9272 940.522 58.6251 944.755 Q52.2913 948.956 40.2919 948.956 Q28.2607 948.956 21.9587 944.755 Q15.6248 940.522 15.6248 932.533 Z" fill="#000000" fill-rule="nonzero" fill-opacity="1" /><path clip-path="url(#clip760)" d="M14.5426 891.57 Q21.8632 895.835 29.0246 897.904 Q36.186 899.972 43.5384 899.972 Q50.8908 899.972 58.1159 897.904 Q65.3091 895.803 72.5979 891.57 L72.5979 896.662 Q65.1182 901.436 57.8931 903.824 Q50.668 906.179 43.5384 906.179 Q36.4406 906.179 29.2474 903.824 Q22.0542 901.468 14.5426 896.662 L14.5426 891.57 Z" fill="#000000" fill-rule="nonzero" fill-opacity="1" /><path clip-path="url(#clip760)" d="M16.4842 879.952 L16.4842 873.523 L60.694 873.523 Q69.2877 873.523 73.1708 876.801 Q77.0539 880.048 77.0539 887.273 L77.0539 889.724 L71.643 889.724 L71.643 887.718 Q71.643 883.453 69.2559 881.703 Q66.8687 879.952 60.694 879.952 L16.4842 879.952 Z" fill="#000000" fill-rule="nonzero" fill-opacity="1" /><path clip-path="url(#clip760)" d="M14.5426 861.905 L14.5426 856.813 Q22.0542 852.039 29.2474 849.683 Q36.4406 847.296 43.5384 847.296 Q50.668 847.296 57.8931 849.683 Q65.1182 852.039 72.5979 856.813 L72.5979 861.905 Q65.3091 857.672 58.1159 855.603 Q50.8908 853.503 43.5384 853.503 Q36.186 853.503 29.0246 855.603 Q21.8632 857.672 14.5426 861.905 Z" fill="#000000" fill-rule="nonzero" fill-opacity="1" /><path clip-path="url(#clip760)" d="M14.479 815.372 L14.479 801.877 L19.0304 801.877 L19.0304 809.516 L68.0464 809.516 L68.0464 801.877 L72.5979 801.877 L72.5979 815.372 L14.479 815.372 Z" fill="#000000" fill-rule="nonzero" fill-opacity="1" /><path clip-path="url(#clip760)" d="M29.7248 763.746 L35.1993 763.746 Q33.8307 766.229 33.1623 768.743 Q32.4621 771.226 32.4621 773.772 Q32.4621 779.47 36.0905 782.621 Q39.6872 785.772 46.212 785.772 Q52.7369 785.772 56.3653 782.621 Q59.9619 779.47 59.9619 773.772 Q59.9619 771.226 59.2935 768.743 Q58.5933 766.229 57.2247 763.746 L62.6355 763.746 Q63.7814 766.197 64.3543 768.839 Q64.9272 771.449 64.9272 774.409 Q64.9272 782.461 59.8664 787.204 Q54.8057 791.946 46.212 791.946 Q37.491 791.946 32.4939 787.172 Q27.4968 782.366 27.4968 774.027 Q27.4968 771.321 28.0697 768.743 Q28.6108 766.165 29.7248 763.746 Z" fill="#000000" fill-rule="nonzero" fill-opacity="1" /><path clip-path="url(#clip760)" d="M35.1993 725.807 Q31.2526 723.61 29.3747 720.555 Q27.4968 717.499 27.4968 713.362 Q27.4968 707.792 31.4117 704.768 Q35.2948 701.744 42.4881 701.744 L64.0042 701.744 L64.0042 707.633 L42.679 707.633 Q37.5546 707.633 35.072 709.447 Q32.5894 711.261 32.5894 714.985 Q32.5894 719.536 35.6131 722.178 Q38.6368 724.82 43.8567 724.82 L64.0042 724.82 L64.0042 730.708 L42.679 730.708 Q37.5228 730.708 35.072 732.522 Q32.5894 734.337 32.5894 738.124 Q32.5894 742.612 35.6449 745.254 Q38.6686 747.896 43.8567 747.896 L64.0042 747.896 L64.0042 753.784 L28.3562 753.784 L28.3562 747.896 L33.8944 747.896 Q30.616 745.89 29.0564 743.09 Q27.4968 740.289 27.4968 736.437 Q27.4968 732.554 29.4702 729.849 Q31.4436 727.112 35.1993 725.807 Z" fill="#000000" fill-rule="nonzero" fill-opacity="1" /><path clip-path="url(#clip760)" d="M16.4842 665.778 L34.2127 648.495 L34.2127 654.893 L21.6404 668.897 L34.2127 682.902 L34.2127 689.299 L16.4842 672.016 L16.4842 665.778 Z" fill="#000000" fill-rule="nonzero" fill-opacity="1" /><path clip-path="url(#clip760)" d="M43.5384 638.405 L43.5384 621.25 L48.7583 621.25 L48.7583 638.405 L43.5384 638.405 Z" fill="#000000" fill-rule="nonzero" fill-opacity="1" /><path clip-path="url(#clip760)" d="M58.5933 605.558 L58.5933 583.119 L64.0042 583.119 L64.0042 613.293 L58.5933 613.293 Q54.8057 609.632 48.44 603.33 Q42.0425 596.997 40.1964 595.373 Q36.7271 592.286 34.34 591.076 Q31.921 589.835 29.5975 589.835 Q25.8099 589.835 23.4228 592.509 Q21.0356 595.151 21.0356 599.416 Q21.0356 602.439 22.086 605.813 Q23.1363 609.155 25.2688 612.974 L18.7758 612.974 Q17.2162 609.091 16.4205 605.718 Q15.6248 602.344 15.6248 599.543 Q15.6248 592.159 19.3169 587.766 Q23.009 583.374 29.1837 583.374 Q32.112 583.374 34.7537 584.488 Q37.3637 585.57 40.9285 588.467 Q41.8515 589.262 46.2757 593.527 Q50.668 597.792 58.5933 605.558 Z" fill="#000000" fill-rule="nonzero" fill-opacity="1" /><path clip-path="url(#clip760)" d="M29.4065 527.006 L34.9447 527.006 Q33.6716 529.488 33.035 532.162 Q32.3984 534.835 32.3984 537.7 Q32.3984 542.061 33.7352 544.257 Q35.072 546.421 37.7456 546.421 Q39.7826 546.421 40.9603 544.861 Q42.1061 543.302 43.1565 538.591 L43.6021 536.586 Q44.9389 530.348 47.3897 527.738 Q49.8086 525.096 54.1691 525.096 Q59.1344 525.096 62.0308 529.043 Q64.9272 532.958 64.9272 539.833 Q64.9272 542.697 64.3543 545.816 Q63.8132 548.904 62.6992 552.341 L56.6518 552.341 Q58.3387 549.095 59.198 545.944 Q60.0256 542.793 60.0256 539.705 Q60.0256 535.567 58.6251 533.339 Q57.1929 531.111 54.6147 531.111 Q52.2276 531.111 50.9545 532.735 Q49.6813 534.326 48.5037 539.769 L48.0262 541.806 Q46.8804 547.249 44.5251 549.668 Q42.138 552.087 38.0002 552.087 Q32.9713 552.087 30.2341 548.522 Q27.4968 544.957 27.4968 538.4 Q27.4968 535.154 27.9743 532.289 Q28.4517 529.425 29.4065 527.006 Z" fill="#000000" fill-rule="nonzero" fill-opacity="1" /><path clip-path="url(#clip760)" d="M16.4842 491.485 L34.2127 474.202 L34.2127 480.6 L21.6404 494.604 L34.2127 508.609 L34.2127 515.006 L16.4842 497.723 L16.4842 491.485 Z" fill="#000000" fill-rule="nonzero" fill-opacity="1" /><path clip-path="url(#clip760)" d="M43.5384 464.112 L43.5384 446.957 L48.7583 446.957 L48.7583 464.112 L43.5384 464.112 Z" fill="#000000" fill-rule="nonzero" fill-opacity="1" /><path clip-path="url(#clip760)" d="M58.5933 435.69 L58.5933 425.186 L22.3406 425.186 L24.6323 436.613 L18.7758 436.613 L16.4842 425.25 L16.4842 418.82 L58.5933 418.82 L58.5933 408.317 L64.0042 408.317 L64.0042 435.69 L58.5933 435.69 Z" fill="#000000" fill-rule="nonzero" fill-opacity="1" /><path clip-path="url(#clip760)" d="M14.479 382.472 L72.5979 382.472 L72.5979 395.968 L68.0464 395.968 L68.0464 388.361 L19.0304 388.361 L19.0304 395.968 L14.479 395.968 L14.479 382.472 Z" fill="#000000" fill-rule="nonzero" fill-opacity="1" /><polyline clip-path="url(#clip762)" style="stroke:#009af9; stroke-linecap:round; stroke-linejoin:round; stroke-width:4; stroke-opacity:1; fill:none" points="2292.15,86.1857 2216.21,135.084 2141.48,183.205 2067.84,230.626 1995.17,277.421 1923.36,323.658 1852.33,369.4 1781.96,414.71 1712.18,459.645 1642.89,504.26 1574.02,548.607 1505.49,592.735 "/>
<circle clip-path="url(#clip762)" cx="527.453" cy="1259.71" r="14.4" fill="#000000" fill-rule="evenodd" fill-opacity="1" stroke="none"/>
<circle clip-path="url(#clip762)" cx="721" cy="1231.59" r="14.4" fill="#000000" fill-rule="evenodd" fill-opacity="1" stroke="none"/>
<circle clip-path="url(#clip762)" cx="1123.57" cy="749.546" r="14.4" fill="#000000" fill-rule="evenodd" fill-opacity="1" stroke="none"/>
<circle clip-path="url(#clip762)" cx="1301.64" cy="717.41" r="14.4" fill="#000000" fill-rule="evenodd" fill-opacity="1" stroke="none"/>
<circle clip-path="url(#clip762)" cx="1348.14" cy="745.529" r="14.4" fill="#000000" fill-rule="evenodd" fill-opacity="1" stroke="none"/>
<circle clip-path="url(#clip762)" cx="1363.62" cy="629.035" r="14.4" fill="#000000" fill-rule="evenodd" fill-opacity="1" stroke="none"/>
<circle clip-path="url(#clip762)" cx="1386.87" cy="661.171" r="14.4" fill="#000000" fill-rule="evenodd" fill-opacity="1" stroke="none"/>
<circle clip-path="url(#clip762)" cx="1394.57" cy="745.529" r="14.4" fill="#000000" fill-rule="evenodd" fill-opacity="1" stroke="none"/>
<circle clip-path="url(#clip762)" cx="1402.34" cy="608.95" r="14.4" fill="#000000" fill-rule="evenodd" fill-opacity="1" stroke="none"/>
<circle clip-path="url(#clip762)" cx="1410.04" cy="552.711" r="14.4" fill="#000000" fill-rule="evenodd" fill-opacity="1" stroke="none"/>
<circle clip-path="url(#clip762)" cx="1425.51" cy="633.052" r="14.4" fill="#000000" fill-rule="evenodd" fill-opacity="1" stroke="none"/>
<circle clip-path="url(#clip762)" cx="1441.06" cy="693.307" r="14.4" fill="#000000" fill-rule="evenodd" fill-opacity="1" stroke="none"/>
<circle clip-path="url(#clip762)" cx="1448.76" cy="576.813" r="14.4" fill="#000000" fill-rule="evenodd" fill-opacity="1" stroke="none"/>
<circle clip-path="url(#clip762)" cx="1456.54" cy="657.154" r="14.4" fill="#000000" fill-rule="evenodd" fill-opacity="1" stroke="none"/>
<circle clip-path="url(#clip762)" cx="1464.24" cy="608.95" r="14.4" fill="#000000" fill-rule="evenodd" fill-opacity="1" stroke="none"/>
<circle clip-path="url(#clip762)" cx="1464.24" cy="556.728" r="14.4" fill="#000000" fill-rule="evenodd" fill-opacity="1" stroke="none"/>
<circle clip-path="url(#clip762)" cx="1495.26" cy="645.103" r="14.4" fill="#000000" fill-rule="evenodd" fill-opacity="1" stroke="none"/>
<circle clip-path="url(#clip762)" cx="1495.26" cy="548.694" r="14.4" fill="#000000" fill-rule="evenodd" fill-opacity="1" stroke="none"/>
<circle clip-path="url(#clip762)" cx="1526.21" cy="584.847" r="14.4" fill="#000000" fill-rule="evenodd" fill-opacity="1" stroke="none"/>
<circle clip-path="url(#clip762)" cx="1533.91" cy="524.592" r="14.4" fill="#000000" fill-rule="evenodd" fill-opacity="1" stroke="none"/>
<circle clip-path="url(#clip762)" cx="1541.69" cy="584.847" r="14.4" fill="#000000" fill-rule="evenodd" fill-opacity="1" stroke="none"/>
<circle clip-path="url(#clip762)" cx="1541.69" cy="625.018" r="14.4" fill="#000000" fill-rule="evenodd" fill-opacity="1" stroke="none"/>
<circle clip-path="url(#clip762)" cx="1549.39" cy="400.063" r="14.4" fill="#000000" fill-rule="evenodd" fill-opacity="1" stroke="none"/>
<circle clip-path="url(#clip762)" cx="1564.94" cy="544.677" r="14.4" fill="#000000" fill-rule="evenodd" fill-opacity="1" stroke="none"/>
<circle clip-path="url(#clip762)" cx="1588.11" cy="556.728" r="14.4" fill="#000000" fill-rule="evenodd" fill-opacity="1" stroke="none"/>
<circle clip-path="url(#clip762)" cx="1595.89" cy="516.558" r="14.4" fill="#000000" fill-rule="evenodd" fill-opacity="1" stroke="none"/>
<circle clip-path="url(#clip762)" cx="1595.89" cy="504.506" r="14.4" fill="#000000" fill-rule="evenodd" fill-opacity="1" stroke="none"/>
<circle clip-path="url(#clip762)" cx="1595.89" cy="480.405" r="14.4" fill="#000000" fill-rule="evenodd" fill-opacity="1" stroke="none"/>
<circle clip-path="url(#clip762)" cx="1634.61" cy="596.899" r="14.4" fill="#000000" fill-rule="evenodd" fill-opacity="1" stroke="none"/>
<circle clip-path="url(#clip762)" cx="1642.31" cy="468.353" r="14.4" fill="#000000" fill-rule="evenodd" fill-opacity="1" stroke="none"/>
<circle clip-path="url(#clip762)" cx="1642.31" cy="444.251" r="14.4" fill="#000000" fill-rule="evenodd" fill-opacity="1" stroke="none"/>
<circle clip-path="url(#clip762)" cx="1657.79" cy="428.183" r="14.4" fill="#000000" fill-rule="evenodd" fill-opacity="1" stroke="none"/>
<circle clip-path="url(#clip762)" cx="1665.56" cy="536.643" r="14.4" fill="#000000" fill-rule="evenodd" fill-opacity="1" stroke="none"/>
<circle clip-path="url(#clip762)" cx="1665.56" cy="504.506" r="14.4" fill="#000000" fill-rule="evenodd" fill-opacity="1" stroke="none"/>
<circle clip-path="url(#clip762)" cx="1696.51" cy="456.302" r="14.4" fill="#000000" fill-rule="evenodd" fill-opacity="1" stroke="none"/>
<circle clip-path="url(#clip762)" cx="1696.51" cy="412.115" r="14.4" fill="#000000" fill-rule="evenodd" fill-opacity="1" stroke="none"/>
<circle clip-path="url(#clip762)" cx="1704.29" cy="488.438" r="14.4" fill="#000000" fill-rule="evenodd" fill-opacity="1" stroke="none"/>
<circle clip-path="url(#clip762)" cx="1711.99" cy="432.2" r="14.4" fill="#000000" fill-rule="evenodd" fill-opacity="1" stroke="none"/>
<circle clip-path="url(#clip762)" cx="1743.01" cy="464.337" r="14.4" fill="#000000" fill-rule="evenodd" fill-opacity="1" stroke="none"/>
<circle clip-path="url(#clip762)" cx="1743.01" cy="404.08" r="14.4" fill="#000000" fill-rule="evenodd" fill-opacity="1" stroke="none"/>
<circle clip-path="url(#clip762)" cx="1743.01" cy="432.2" r="14.4" fill="#000000" fill-rule="evenodd" fill-opacity="1" stroke="none"/>
<circle clip-path="url(#clip762)" cx="1758.49" cy="488.438" r="14.4" fill="#000000" fill-rule="evenodd" fill-opacity="1" stroke="none"/>
<circle clip-path="url(#clip762)" cx="1789.43" cy="396.047" r="14.4" fill="#000000" fill-rule="evenodd" fill-opacity="1" stroke="none"/>
<circle clip-path="url(#clip762)" cx="1797.21" cy="424.166" r="14.4" fill="#000000" fill-rule="evenodd" fill-opacity="1" stroke="none"/>
<circle clip-path="url(#clip762)" cx="1804.91" cy="452.285" r="14.4" fill="#000000" fill-rule="evenodd" fill-opacity="1" stroke="none"/>
<circle clip-path="url(#clip762)" cx="1812.68" cy="476.387" r="14.4" fill="#000000" fill-rule="evenodd" fill-opacity="1" stroke="none"/>
<circle clip-path="url(#clip762)" cx="1843.63" cy="404.08" r="14.4" fill="#000000" fill-rule="evenodd" fill-opacity="1" stroke="none"/>
<circle clip-path="url(#clip762)" cx="1843.63" cy="432.2" r="14.4" fill="#000000" fill-rule="evenodd" fill-opacity="1" stroke="none"/>
<circle clip-path="url(#clip762)" cx="1843.63" cy="452.285" r="14.4" fill="#000000" fill-rule="evenodd" fill-opacity="1" stroke="none"/>
<polyline clip-path="url(#clip762)" style="stroke:#ff0000; stroke-linecap:round; stroke-linejoin:round; stroke-width:4; stroke-opacity:1; fill:none" points="271.931,1384.24 2192,146.99 1154.59,817.836 "/>
<path clip-path="url(#clip760)" d="M282.706 300.469 L1049.67 300.469 L1049.67 93.1086 L282.706 93.1086  Z" fill="#ffffff" fill-rule="evenodd" fill-opacity="1"/>
<polyline clip-path="url(#clip760)" style="stroke:#000000; stroke-linecap:round; stroke-linejoin:round; stroke-width:4; stroke-opacity:1; fill:none" points="282.706,300.469 1049.67,300.469 1049.67,93.1086 282.706,93.1086 282.706,300.469 "/>
<polyline clip-path="url(#clip760)" style="stroke:#009af9; stroke-linecap:round; stroke-linejoin:round; stroke-width:4; stroke-opacity:1; fill:none" points="306.499,144.949 449.261,144.949 "/>
<path clip-path="url(#clip760)" d="M500.925 130.331 L500.925 135.261 Q498.564 133.062 495.879 131.974 Q493.217 130.886 490.208 130.886 Q484.282 130.886 481.134 134.52 Q477.986 138.132 477.986 144.983 Q477.986 151.812 481.134 155.446 Q484.282 159.057 490.208 159.057 Q493.217 159.057 495.879 157.969 Q498.564 156.881 500.925 154.682 L500.925 159.567 Q498.472 161.233 495.717 162.067 Q492.986 162.9 489.93 162.9 Q482.083 162.9 477.569 158.108 Q473.055 153.293 473.055 144.983 Q473.055 136.65 477.569 131.858 Q482.083 127.044 489.93 127.044 Q493.032 127.044 495.763 127.877 Q498.518 128.687 500.925 130.331 Z" fill="#000000" fill-rule="nonzero" fill-opacity="1" /><path clip-path="url(#clip760)" d="M507.962 126.21 L512.222 126.21 L512.222 162.229 L507.962 162.229 L507.962 126.21 Z" fill="#000000" fill-rule="nonzero" fill-opacity="1" /><path clip-path="url(#clip760)" d="M521.134 136.303 L525.393 136.303 L525.393 162.229 L521.134 162.229 L521.134 136.303 M521.134 126.21 L525.393 126.21 L525.393 131.604 L521.134 131.604 L521.134 126.21 Z" fill="#000000" fill-rule="nonzero" fill-opacity="1" /><path clip-path="url(#clip760)" d="M534.49 127.669 L541.458 127.669 L550.277 151.187 L559.143 127.669 L566.11 127.669 L566.11 162.229 L561.55 162.229 L561.55 131.882 L552.638 155.585 L547.939 155.585 L539.027 131.882 L539.027 162.229 L534.49 162.229 L534.49 127.669 Z" fill="#000000" fill-rule="nonzero" fill-opacity="1" /><path clip-path="url(#clip760)" d="M586.943 132.275 L580.601 149.474 L593.309 149.474 L586.943 132.275 M584.305 127.669 L589.605 127.669 L602.777 162.229 L597.916 162.229 L594.767 153.363 L579.189 153.363 L576.041 162.229 L571.11 162.229 L584.305 127.669 Z" fill="#000000" fill-rule="nonzero" fill-opacity="1" /><circle clip-path="url(#clip760)" cx="377.88" cy="196.789" r="20.48" fill="#000000" fill-rule="evenodd" fill-opacity="1" stroke="none"/>
<path clip-path="url(#clip760)" d="M477.338 210.18 L477.338 223.93 L473.055 223.93 L473.055 188.143 L477.338 188.143 L477.338 192.078 Q478.68 189.763 480.717 188.652 Q482.777 187.518 485.625 187.518 Q490.347 187.518 493.287 191.268 Q496.249 195.018 496.249 201.129 Q496.249 207.24 493.287 210.99 Q490.347 214.74 485.625 214.74 Q482.777 214.74 480.717 213.629 Q478.68 212.495 477.338 210.18 M491.828 201.129 Q491.828 196.43 489.884 193.768 Q487.962 191.083 484.583 191.083 Q481.203 191.083 479.259 193.768 Q477.338 196.43 477.338 201.129 Q477.338 205.828 479.259 208.513 Q481.203 211.175 484.583 211.175 Q487.962 211.175 489.884 208.513 Q491.828 205.828 491.828 201.129 Z" fill="#000000" fill-rule="nonzero" fill-opacity="1" /><path clip-path="url(#clip760)" d="M515.092 201.036 Q509.93 201.036 507.939 202.217 Q505.948 203.397 505.948 206.245 Q505.948 208.513 507.43 209.856 Q508.935 211.175 511.504 211.175 Q515.046 211.175 517.175 208.675 Q519.328 206.152 519.328 201.985 L519.328 201.036 L515.092 201.036 M523.587 199.277 L523.587 214.069 L519.328 214.069 L519.328 210.133 Q517.87 212.495 515.694 213.629 Q513.518 214.74 510.37 214.74 Q506.388 214.74 504.027 212.518 Q501.689 210.272 501.689 206.522 Q501.689 202.147 504.606 199.925 Q507.546 197.703 513.356 197.703 L519.328 197.703 L519.328 197.286 Q519.328 194.347 517.384 192.749 Q515.462 191.129 511.967 191.129 Q509.745 191.129 507.638 191.661 Q505.532 192.194 503.587 193.259 L503.587 189.323 Q505.925 188.421 508.124 187.981 Q510.323 187.518 512.407 187.518 Q518.032 187.518 520.81 190.434 Q523.587 193.351 523.587 199.277 Z" fill="#000000" fill-rule="nonzero" fill-opacity="1" /><path clip-path="url(#clip760)" d="M536.481 210.18 L536.481 223.93 L532.198 223.93 L532.198 188.143 L536.481 188.143 L536.481 192.078 Q537.823 189.763 539.86 188.652 Q541.921 187.518 544.768 187.518 Q549.49 187.518 552.43 191.268 Q555.393 195.018 555.393 201.129 Q555.393 207.24 552.43 210.99 Q549.49 214.74 544.768 214.74 Q541.921 214.74 539.86 213.629 Q537.823 212.495 536.481 210.18 M550.971 201.129 Q550.971 196.43 549.027 193.768 Q547.106 191.083 543.726 191.083 Q540.346 191.083 538.402 193.768 Q536.481 196.43 536.481 201.129 Q536.481 205.828 538.402 208.513 Q540.346 211.175 543.726 211.175 Q547.106 211.175 549.027 208.513 Q550.971 205.828 550.971 201.129 Z" fill="#000000" fill-rule="nonzero" fill-opacity="1" /><path clip-path="url(#clip760)" d="M584.629 200.041 L584.629 202.124 L565.045 202.124 Q565.323 206.522 567.684 208.837 Q570.069 211.129 574.305 211.129 Q576.758 211.129 579.05 210.527 Q581.365 209.925 583.633 208.721 L583.633 212.749 Q581.342 213.721 578.934 214.231 Q576.527 214.74 574.05 214.74 Q567.846 214.74 564.212 211.129 Q560.601 207.518 560.601 201.36 Q560.601 194.995 564.027 191.268 Q567.476 187.518 573.309 187.518 Q578.541 187.518 581.573 190.897 Q584.629 194.254 584.629 200.041 M580.369 198.791 Q580.323 195.296 578.402 193.212 Q576.504 191.129 573.356 191.129 Q569.791 191.129 567.638 193.143 Q565.508 195.157 565.184 198.814 L580.369 198.791 Z" fill="#000000" fill-rule="nonzero" fill-opacity="1" /><path clip-path="url(#clip760)" d="M606.642 192.124 Q605.925 191.708 605.068 191.522 Q604.235 191.314 603.216 191.314 Q599.605 191.314 597.661 193.675 Q595.74 196.013 595.74 200.411 L595.74 214.069 L591.457 214.069 L591.457 188.143 L595.74 188.143 L595.74 192.171 Q597.082 189.809 599.235 188.675 Q601.388 187.518 604.466 187.518 Q604.906 187.518 605.439 187.587 Q605.971 187.634 606.619 187.749 L606.642 192.124 Z" fill="#000000" fill-rule="nonzero" fill-opacity="1" /><path clip-path="url(#clip760)" d="M636.226 191.129 Q632.8 191.129 630.809 193.814 Q628.818 196.476 628.818 201.129 Q628.818 205.782 630.786 208.467 Q632.776 211.129 636.226 211.129 Q639.628 211.129 641.619 208.444 Q643.61 205.758 643.61 201.129 Q643.61 196.522 641.619 193.837 Q639.628 191.129 636.226 191.129 M636.226 187.518 Q641.781 187.518 644.952 191.129 Q648.124 194.74 648.124 201.129 Q648.124 207.495 644.952 211.129 Q641.781 214.74 636.226 214.74 Q630.647 214.74 627.476 211.129 Q624.327 207.495 624.327 201.129 Q624.327 194.74 627.476 191.129 Q630.647 187.518 636.226 187.518 Z" fill="#000000" fill-rule="nonzero" fill-opacity="1" /><path clip-path="url(#clip760)" d="M673.795 201.129 Q673.795 196.43 671.85 193.768 Q669.929 191.083 666.549 191.083 Q663.17 191.083 661.225 193.768 Q659.304 196.43 659.304 201.129 Q659.304 205.828 661.225 208.513 Q663.17 211.175 666.549 211.175 Q669.929 211.175 671.85 208.513 Q673.795 205.828 673.795 201.129 M659.304 192.078 Q660.647 189.763 662.684 188.652 Q664.744 187.518 667.591 187.518 Q672.313 187.518 675.253 191.268 Q678.216 195.018 678.216 201.129 Q678.216 207.24 675.253 210.99 Q672.313 214.74 667.591 214.74 Q664.744 214.74 662.684 213.629 Q660.647 212.495 659.304 210.18 L659.304 214.069 L655.022 214.069 L655.022 178.05 L659.304 178.05 L659.304 192.078 Z" fill="#000000" fill-rule="nonzero" fill-opacity="1" /><path clip-path="url(#clip760)" d="M701.804 188.907 L701.804 192.934 Q699.998 192.009 698.054 191.546 Q696.109 191.083 694.026 191.083 Q690.855 191.083 689.258 192.055 Q687.684 193.027 687.684 194.971 Q687.684 196.453 688.818 197.309 Q689.952 198.143 693.378 198.907 L694.836 199.231 Q699.373 200.203 701.272 201.985 Q703.193 203.745 703.193 206.916 Q703.193 210.527 700.322 212.633 Q697.475 214.74 692.475 214.74 Q690.392 214.74 688.123 214.323 Q685.878 213.93 683.378 213.12 L683.378 208.721 Q685.739 209.948 688.031 210.573 Q690.322 211.175 692.568 211.175 Q695.577 211.175 697.197 210.157 Q698.818 209.115 698.818 207.24 Q698.818 205.504 697.637 204.578 Q696.48 203.652 692.522 202.796 L691.04 202.448 Q687.082 201.615 685.323 199.902 Q683.563 198.166 683.563 195.157 Q683.563 191.499 686.156 189.509 Q688.748 187.518 693.517 187.518 Q695.878 187.518 697.961 187.865 Q700.045 188.212 701.804 188.907 Z" fill="#000000" fill-rule="nonzero" fill-opacity="1" /><path clip-path="url(#clip760)" d="M732.151 200.041 L732.151 202.124 L712.568 202.124 Q712.846 206.522 715.207 208.837 Q717.591 211.129 721.827 211.129 Q724.281 211.129 726.572 210.527 Q728.887 209.925 731.156 208.721 L731.156 212.749 Q728.864 213.721 726.457 214.231 Q724.049 214.74 721.572 214.74 Q715.369 214.74 711.734 211.129 Q708.123 207.518 708.123 201.36 Q708.123 194.995 711.549 191.268 Q714.998 187.518 720.832 187.518 Q726.063 187.518 729.095 190.897 Q732.151 194.254 732.151 200.041 M727.892 198.791 Q727.845 195.296 725.924 193.212 Q724.026 191.129 720.878 191.129 Q717.313 191.129 715.16 193.143 Q713.031 195.157 712.707 198.814 L727.892 198.791 Z" fill="#000000" fill-rule="nonzero" fill-opacity="1" /><path clip-path="url(#clip760)" d="M754.165 192.124 Q753.447 191.708 752.591 191.522 Q751.757 191.314 750.739 191.314 Q747.128 191.314 745.183 193.675 Q743.262 196.013 743.262 200.411 L743.262 214.069 L738.98 214.069 L738.98 188.143 L743.262 188.143 L743.262 192.171 Q744.605 189.809 746.757 188.675 Q748.91 187.518 751.989 187.518 Q752.429 187.518 752.961 187.587 Q753.493 187.634 754.142 187.749 L754.165 192.124 Z" fill="#000000" fill-rule="nonzero" fill-opacity="1" /><path clip-path="url(#clip760)" d="M755.577 188.143 L760.091 188.143 L768.192 209.902 L776.294 188.143 L780.808 188.143 L771.086 214.069 L765.299 214.069 L755.577 188.143 Z" fill="#000000" fill-rule="nonzero" fill-opacity="1" /><path clip-path="url(#clip760)" d="M798.47 201.036 Q793.308 201.036 791.317 202.217 Q789.327 203.397 789.327 206.245 Q789.327 208.513 790.808 209.856 Q792.313 211.175 794.882 211.175 Q798.424 211.175 800.553 208.675 Q802.706 206.152 802.706 201.985 L802.706 201.036 L798.47 201.036 M806.965 199.277 L806.965 214.069 L802.706 214.069 L802.706 210.133 Q801.248 212.495 799.072 213.629 Q796.896 214.74 793.748 214.74 Q789.766 214.74 787.405 212.518 Q785.067 210.272 785.067 206.522 Q785.067 202.147 787.984 199.925 Q790.924 197.703 796.734 197.703 L802.706 197.703 L802.706 197.286 Q802.706 194.347 800.762 192.749 Q798.84 191.129 795.345 191.129 Q793.123 191.129 791.016 191.661 Q788.91 192.194 786.965 193.259 L786.965 189.323 Q789.303 188.421 791.503 187.981 Q793.702 187.518 795.785 187.518 Q801.41 187.518 804.188 190.434 Q806.965 193.351 806.965 199.277 Z" fill="#000000" fill-rule="nonzero" fill-opacity="1" /><path clip-path="url(#clip760)" d="M819.951 180.782 L819.951 188.143 L828.725 188.143 L828.725 191.453 L819.951 191.453 L819.951 205.527 Q819.951 208.698 820.808 209.601 Q821.688 210.504 824.35 210.504 L828.725 210.504 L828.725 214.069 L824.35 214.069 Q819.419 214.069 817.544 212.24 Q815.669 210.388 815.669 205.527 L815.669 191.453 L812.544 191.453 L812.544 188.143 L815.669 188.143 L815.669 180.782 L819.951 180.782 Z" fill="#000000" fill-rule="nonzero" fill-opacity="1" /><path clip-path="url(#clip760)" d="M834.326 188.143 L838.586 188.143 L838.586 214.069 L834.326 214.069 L834.326 188.143 M834.326 178.05 L838.586 178.05 L838.586 183.444 L834.326 183.444 L834.326 178.05 Z" fill="#000000" fill-rule="nonzero" fill-opacity="1" /><path clip-path="url(#clip760)" d="M857.544 191.129 Q854.118 191.129 852.127 193.814 Q850.136 196.476 850.136 201.129 Q850.136 205.782 852.104 208.467 Q854.095 211.129 857.544 211.129 Q860.947 211.129 862.937 208.444 Q864.928 205.758 864.928 201.129 Q864.928 196.522 862.937 193.837 Q860.947 191.129 857.544 191.129 M857.544 187.518 Q863.099 187.518 866.271 191.129 Q869.442 194.74 869.442 201.129 Q869.442 207.495 866.271 211.129 Q863.099 214.74 857.544 214.74 Q851.965 214.74 848.794 211.129 Q845.646 207.495 845.646 201.129 Q845.646 194.74 848.794 191.129 Q851.965 187.518 857.544 187.518 Z" fill="#000000" fill-rule="nonzero" fill-opacity="1" /><path clip-path="url(#clip760)" d="M898.053 198.421 L898.053 214.069 L893.794 214.069 L893.794 198.559 Q893.794 194.879 892.358 193.05 Q890.923 191.222 888.053 191.222 Q884.604 191.222 882.613 193.421 Q880.622 195.62 880.622 199.416 L880.622 214.069 L876.34 214.069 L876.34 188.143 L880.622 188.143 L880.622 192.171 Q882.15 189.833 884.21 188.675 Q886.294 187.518 889.002 187.518 Q893.47 187.518 895.761 190.296 Q898.053 193.05 898.053 198.421 Z" fill="#000000" fill-rule="nonzero" fill-opacity="1" /><path clip-path="url(#clip760)" d="M923.076 188.907 L923.076 192.934 Q921.27 192.009 919.326 191.546 Q917.381 191.083 915.298 191.083 Q912.127 191.083 910.53 192.055 Q908.956 193.027 908.956 194.971 Q908.956 196.453 910.09 197.309 Q911.224 198.143 914.65 198.907 L916.108 199.231 Q920.645 200.203 922.543 201.985 Q924.465 203.745 924.465 206.916 Q924.465 210.527 921.594 212.633 Q918.747 214.74 913.747 214.74 Q911.664 214.74 909.395 214.323 Q907.15 213.93 904.65 213.12 L904.65 208.721 Q907.011 209.948 909.303 210.573 Q911.594 211.175 913.84 211.175 Q916.849 211.175 918.469 210.157 Q920.09 209.115 920.09 207.24 Q920.09 205.504 918.909 204.578 Q917.752 203.652 913.794 202.796 L912.312 202.448 Q908.354 201.615 906.594 199.902 Q904.835 198.166 904.835 195.157 Q904.835 191.499 907.428 189.509 Q910.02 187.518 914.789 187.518 Q917.15 187.518 919.233 187.865 Q921.317 188.212 923.076 188.907 Z" fill="#000000" fill-rule="nonzero" fill-opacity="1" /><polyline clip-path="url(#clip760)" style="stroke:#ff0000; stroke-linecap:round; stroke-linejoin:round; stroke-width:4; stroke-opacity:1; fill:none" points="306.499,248.629 449.261,248.629 "/>
<path clip-path="url(#clip760)" d="M477.338 262.02 L477.338 275.77 L473.055 275.77 L473.055 239.983 L477.338 239.983 L477.338 243.918 Q478.68 241.603 480.717 240.492 Q482.777 239.358 485.625 239.358 Q490.347 239.358 493.287 243.108 Q496.249 246.858 496.249 252.969 Q496.249 259.08 493.287 262.83 Q490.347 266.58 485.625 266.58 Q482.777 266.58 480.717 265.469 Q478.68 264.335 477.338 262.02 M491.828 252.969 Q491.828 248.27 489.884 245.608 Q487.962 242.923 484.583 242.923 Q481.203 242.923 479.259 245.608 Q477.338 248.27 477.338 252.969 Q477.338 257.668 479.259 260.353 Q481.203 263.015 484.583 263.015 Q487.962 263.015 489.884 260.353 Q491.828 257.668 491.828 252.969 Z" fill="#000000" fill-rule="nonzero" fill-opacity="1" /><path clip-path="url(#clip760)" d="M515.092 252.876 Q509.93 252.876 507.939 254.057 Q505.948 255.237 505.948 258.085 Q505.948 260.353 507.43 261.696 Q508.935 263.015 511.504 263.015 Q515.046 263.015 517.175 260.515 Q519.328 257.992 519.328 253.825 L519.328 252.876 L515.092 252.876 M523.587 251.117 L523.587 265.909 L519.328 265.909 L519.328 261.973 Q517.87 264.335 515.694 265.469 Q513.518 266.58 510.37 266.58 Q506.388 266.58 504.027 264.358 Q501.689 262.112 501.689 258.362 Q501.689 253.987 504.606 251.765 Q507.546 249.543 513.356 249.543 L519.328 249.543 L519.328 249.126 Q519.328 246.187 517.384 244.589 Q515.462 242.969 511.967 242.969 Q509.745 242.969 507.638 243.501 Q505.532 244.034 503.587 245.099 L503.587 241.163 Q505.925 240.261 508.124 239.821 Q510.323 239.358 512.407 239.358 Q518.032 239.358 520.81 242.274 Q523.587 245.191 523.587 251.117 Z" fill="#000000" fill-rule="nonzero" fill-opacity="1" /><path clip-path="url(#clip760)" d="M536.481 262.02 L536.481 275.77 L532.198 275.77 L532.198 239.983 L536.481 239.983 L536.481 243.918 Q537.823 241.603 539.86 240.492 Q541.921 239.358 544.768 239.358 Q549.49 239.358 552.43 243.108 Q555.393 246.858 555.393 252.969 Q555.393 259.08 552.43 262.83 Q549.49 266.58 544.768 266.58 Q541.921 266.58 539.86 265.469 Q537.823 264.335 536.481 262.02 M550.971 252.969 Q550.971 248.27 549.027 245.608 Q547.106 242.923 543.726 242.923 Q540.346 242.923 538.402 245.608 Q536.481 248.27 536.481 252.969 Q536.481 257.668 538.402 260.353 Q540.346 263.015 543.726 263.015 Q547.106 263.015 549.027 260.353 Q550.971 257.668 550.971 252.969 Z" fill="#000000" fill-rule="nonzero" fill-opacity="1" /><path clip-path="url(#clip760)" d="M584.629 251.881 L584.629 253.964 L565.045 253.964 Q565.323 258.362 567.684 260.677 Q570.069 262.969 574.305 262.969 Q576.758 262.969 579.05 262.367 Q581.365 261.765 583.633 260.561 L583.633 264.589 Q581.342 265.561 578.934 266.071 Q576.527 266.58 574.05 266.58 Q567.846 266.58 564.212 262.969 Q560.601 259.358 560.601 253.2 Q560.601 246.835 564.027 243.108 Q567.476 239.358 573.309 239.358 Q578.541 239.358 581.573 242.737 Q584.629 246.094 584.629 251.881 M580.369 250.631 Q580.323 247.136 578.402 245.052 Q576.504 242.969 573.356 242.969 Q569.791 242.969 567.638 244.983 Q565.508 246.997 565.184 250.654 L580.369 250.631 Z" fill="#000000" fill-rule="nonzero" fill-opacity="1" /><path clip-path="url(#clip760)" d="M606.642 243.964 Q605.925 243.548 605.068 243.362 Q604.235 243.154 603.216 243.154 Q599.605 243.154 597.661 245.515 Q595.74 247.853 595.74 252.251 L595.74 265.909 L591.457 265.909 L591.457 239.983 L595.74 239.983 L595.74 244.011 Q597.082 241.649 599.235 240.515 Q601.388 239.358 604.466 239.358 Q604.906 239.358 605.439 239.427 Q605.971 239.474 606.619 239.589 L606.642 243.964 Z" fill="#000000" fill-rule="nonzero" fill-opacity="1" /><path clip-path="url(#clip760)" d="M630.3 262.02 L630.3 275.77 L626.017 275.77 L626.017 239.983 L630.3 239.983 L630.3 243.918 Q631.642 241.603 633.679 240.492 Q635.739 239.358 638.587 239.358 Q643.309 239.358 646.249 243.108 Q649.212 246.858 649.212 252.969 Q649.212 259.08 646.249 262.83 Q643.309 266.58 638.587 266.58 Q635.739 266.58 633.679 265.469 Q631.642 264.335 630.3 262.02 M644.79 252.969 Q644.79 248.27 642.846 245.608 Q640.925 242.923 637.545 242.923 Q634.165 242.923 632.221 245.608 Q630.3 248.27 630.3 252.969 Q630.3 257.668 632.221 260.353 Q634.165 263.015 637.545 263.015 Q640.925 263.015 642.846 260.353 Q644.79 257.668 644.79 252.969 Z" fill="#000000" fill-rule="nonzero" fill-opacity="1" /><path clip-path="url(#clip760)" d="M668.054 252.876 Q662.892 252.876 660.901 254.057 Q658.911 255.237 658.911 258.085 Q658.911 260.353 660.392 261.696 Q661.897 263.015 664.466 263.015 Q668.008 263.015 670.137 260.515 Q672.29 257.992 672.29 253.825 L672.29 252.876 L668.054 252.876 M676.549 251.117 L676.549 265.909 L672.29 265.909 L672.29 261.973 Q670.832 264.335 668.656 265.469 Q666.48 266.58 663.332 266.58 Q659.35 266.58 656.989 264.358 Q654.651 262.112 654.651 258.362 Q654.651 253.987 657.568 251.765 Q660.508 249.543 666.318 249.543 L672.29 249.543 L672.29 249.126 Q672.29 246.187 670.346 244.589 Q668.424 242.969 664.929 242.969 Q662.707 242.969 660.6 243.501 Q658.494 244.034 656.55 245.099 L656.55 241.163 Q658.887 240.261 661.087 239.821 Q663.286 239.358 665.369 239.358 Q670.994 239.358 673.772 242.274 Q676.549 245.191 676.549 251.117 Z" fill="#000000" fill-rule="nonzero" fill-opacity="1" /><path clip-path="url(#clip760)" d="M700.346 243.964 Q699.628 243.548 698.772 243.362 Q697.938 243.154 696.92 243.154 Q693.309 243.154 691.364 245.515 Q689.443 247.853 689.443 252.251 L689.443 265.909 L685.16 265.909 L685.16 239.983 L689.443 239.983 L689.443 244.011 Q690.785 241.649 692.938 240.515 Q695.091 239.358 698.17 239.358 Q698.609 239.358 699.142 239.427 Q699.674 239.474 700.322 239.589 L700.346 243.964 Z" fill="#000000" fill-rule="nonzero" fill-opacity="1" /><path clip-path="url(#clip760)" d="M716.595 252.876 Q711.433 252.876 709.443 254.057 Q707.452 255.237 707.452 258.085 Q707.452 260.353 708.933 261.696 Q710.438 263.015 713.008 263.015 Q716.549 263.015 718.679 260.515 Q720.832 257.992 720.832 253.825 L720.832 252.876 L716.595 252.876 M725.091 251.117 L725.091 265.909 L720.832 265.909 L720.832 261.973 Q719.373 264.335 717.197 265.469 Q715.021 266.58 711.873 266.58 Q707.892 266.58 705.531 264.358 Q703.193 262.112 703.193 258.362 Q703.193 253.987 706.109 251.765 Q709.049 249.543 714.859 249.543 L720.832 249.543 L720.832 249.126 Q720.832 246.187 718.887 244.589 Q716.966 242.969 713.471 242.969 Q711.248 242.969 709.142 243.501 Q707.035 244.034 705.091 245.099 L705.091 241.163 Q707.429 240.261 709.628 239.821 Q711.827 239.358 713.91 239.358 Q719.535 239.358 722.313 242.274 Q725.091 245.191 725.091 251.117 Z" fill="#000000" fill-rule="nonzero" fill-opacity="1" /><path clip-path="url(#clip760)" d="M754.049 244.96 Q755.646 242.089 757.868 240.724 Q760.091 239.358 763.1 239.358 Q767.151 239.358 769.35 242.205 Q771.549 245.029 771.549 250.261 L771.549 265.909 L767.267 265.909 L767.267 250.399 Q767.267 246.673 765.947 244.867 Q764.628 243.062 761.919 243.062 Q758.609 243.062 756.688 245.261 Q754.767 247.46 754.767 251.256 L754.767 265.909 L750.484 265.909 L750.484 250.399 Q750.484 246.649 749.165 244.867 Q747.845 243.062 745.091 243.062 Q741.827 243.062 739.906 245.284 Q737.984 247.483 737.984 251.256 L737.984 265.909 L733.702 265.909 L733.702 239.983 L737.984 239.983 L737.984 244.011 Q739.443 241.626 741.48 240.492 Q743.517 239.358 746.318 239.358 Q749.142 239.358 751.109 240.793 Q753.1 242.228 754.049 244.96 Z" fill="#000000" fill-rule="nonzero" fill-opacity="1" /><path clip-path="url(#clip760)" d="M802.22 251.881 L802.22 253.964 L782.637 253.964 Q782.915 258.362 785.276 260.677 Q787.66 262.969 791.896 262.969 Q794.35 262.969 796.641 262.367 Q798.956 261.765 801.225 260.561 L801.225 264.589 Q798.933 265.561 796.526 266.071 Q794.118 266.58 791.641 266.58 Q785.438 266.58 781.803 262.969 Q778.192 259.358 778.192 253.2 Q778.192 246.835 781.618 243.108 Q785.067 239.358 790.901 239.358 Q796.132 239.358 799.164 242.737 Q802.22 246.094 802.22 251.881 M797.961 250.631 Q797.915 247.136 795.993 245.052 Q794.095 242.969 790.947 242.969 Q787.382 242.969 785.229 244.983 Q783.1 246.997 782.776 250.654 L797.961 250.631 Z" fill="#000000" fill-rule="nonzero" fill-opacity="1" /><path clip-path="url(#clip760)" d="M813.424 232.622 L813.424 239.983 L822.197 239.983 L822.197 243.293 L813.424 243.293 L813.424 257.367 Q813.424 260.538 814.28 261.441 Q815.16 262.344 817.822 262.344 L822.197 262.344 L822.197 265.909 L817.822 265.909 Q812.891 265.909 811.016 264.08 Q809.141 262.228 809.141 257.367 L809.141 243.293 L806.016 243.293 L806.016 239.983 L809.141 239.983 L809.141 232.622 L813.424 232.622 Z" fill="#000000" fill-rule="nonzero" fill-opacity="1" /><path clip-path="url(#clip760)" d="M849.974 251.881 L849.974 253.964 L830.391 253.964 Q830.669 258.362 833.03 260.677 Q835.414 262.969 839.65 262.969 Q842.104 262.969 844.396 262.367 Q846.711 261.765 848.979 260.561 L848.979 264.589 Q846.687 265.561 844.28 266.071 Q841.873 266.58 839.396 266.58 Q833.192 266.58 829.558 262.969 Q825.947 259.358 825.947 253.2 Q825.947 246.835 829.373 243.108 Q832.822 239.358 838.655 239.358 Q843.886 239.358 846.919 242.737 Q849.974 246.094 849.974 251.881 M845.715 250.631 Q845.669 247.136 843.748 245.052 Q841.849 242.969 838.701 242.969 Q835.137 242.969 832.984 244.983 Q830.854 246.997 830.53 250.654 L845.715 250.631 Z" fill="#000000" fill-rule="nonzero" fill-opacity="1" /><path clip-path="url(#clip760)" d="M871.988 243.964 Q871.271 243.548 870.414 243.362 Q869.581 243.154 868.562 243.154 Q864.951 243.154 863.007 245.515 Q861.085 247.853 861.085 252.251 L861.085 265.909 L856.803 265.909 L856.803 239.983 L861.085 239.983 L861.085 244.011 Q862.428 241.649 864.581 240.515 Q866.734 239.358 869.812 239.358 Q870.252 239.358 870.784 239.427 Q871.317 239.474 871.965 239.589 L871.988 243.964 Z" fill="#000000" fill-rule="nonzero" fill-opacity="1" /><path clip-path="url(#clip760)" d="M876.456 239.983 L880.715 239.983 L880.715 265.909 L876.456 265.909 L876.456 239.983 M876.456 229.89 L880.715 229.89 L880.715 235.284 L876.456 235.284 L876.456 229.89 Z" fill="#000000" fill-rule="nonzero" fill-opacity="1" /><path clip-path="url(#clip760)" d="M887.775 239.983 L908.007 239.983 L908.007 243.872 L891.988 262.506 L908.007 262.506 L908.007 265.909 L887.196 265.909 L887.196 262.02 L903.215 243.386 L887.775 243.386 L887.775 239.983 Z" fill="#000000" fill-rule="nonzero" fill-opacity="1" /><path clip-path="url(#clip760)" d="M926.293 252.876 Q921.131 252.876 919.141 254.057 Q917.15 255.237 917.15 258.085 Q917.15 260.353 918.631 261.696 Q920.136 263.015 922.706 263.015 Q926.247 263.015 928.377 260.515 Q930.53 257.992 930.53 253.825 L930.53 252.876 L926.293 252.876 M934.789 251.117 L934.789 265.909 L930.53 265.909 L930.53 261.973 Q929.071 264.335 926.895 265.469 Q924.719 266.58 921.571 266.58 Q917.59 266.58 915.229 264.358 Q912.891 262.112 912.891 258.362 Q912.891 253.987 915.807 251.765 Q918.747 249.543 924.557 249.543 L930.53 249.543 L930.53 249.126 Q930.53 246.187 928.585 244.589 Q926.664 242.969 923.168 242.969 Q920.946 242.969 918.84 243.501 Q916.733 244.034 914.789 245.099 L914.789 241.163 Q917.127 240.261 919.326 239.821 Q921.525 239.358 923.608 239.358 Q929.233 239.358 932.011 242.274 Q934.789 245.191 934.789 251.117 Z" fill="#000000" fill-rule="nonzero" fill-opacity="1" /><path clip-path="url(#clip760)" d="M947.775 232.622 L947.775 239.983 L956.548 239.983 L956.548 243.293 L947.775 243.293 L947.775 257.367 Q947.775 260.538 948.631 261.441 Q949.511 262.344 952.173 262.344 L956.548 262.344 L956.548 265.909 L952.173 265.909 Q947.242 265.909 945.367 264.08 Q943.492 262.228 943.492 257.367 L943.492 243.293 L940.367 243.293 L940.367 239.983 L943.492 239.983 L943.492 232.622 L947.775 232.622 Z" fill="#000000" fill-rule="nonzero" fill-opacity="1" /><path clip-path="url(#clip760)" d="M962.15 239.983 L966.409 239.983 L966.409 265.909 L962.15 265.909 L962.15 239.983 M962.15 229.89 L966.409 229.89 L966.409 235.284 L962.15 235.284 L962.15 229.89 Z" fill="#000000" fill-rule="nonzero" fill-opacity="1" /><path clip-path="url(#clip760)" d="M985.367 242.969 Q981.941 242.969 979.951 245.654 Q977.96 248.316 977.96 252.969 Q977.96 257.622 979.927 260.307 Q981.918 262.969 985.367 262.969 Q988.77 262.969 990.761 260.284 Q992.751 257.598 992.751 252.969 Q992.751 248.362 990.761 245.677 Q988.77 242.969 985.367 242.969 M985.367 239.358 Q990.923 239.358 994.094 242.969 Q997.265 246.58 997.265 252.969 Q997.265 259.335 994.094 262.969 Q990.923 266.58 985.367 266.58 Q979.789 266.58 976.617 262.969 Q973.469 259.335 973.469 252.969 Q973.469 246.58 976.617 242.969 Q979.789 239.358 985.367 239.358 Z" fill="#000000" fill-rule="nonzero" fill-opacity="1" /><path clip-path="url(#clip760)" d="M1025.88 250.261 L1025.88 265.909 L1021.62 265.909 L1021.62 250.399 Q1021.62 246.719 1020.18 244.89 Q1018.75 243.062 1015.88 243.062 Q1012.43 243.062 1010.44 245.261 Q1008.45 247.46 1008.45 251.256 L1008.45 265.909 L1004.16 265.909 L1004.16 239.983 L1008.45 239.983 L1008.45 244.011 Q1009.97 241.673 1012.03 240.515 Q1014.12 239.358 1016.83 239.358 Q1021.29 239.358 1023.58 242.136 Q1025.88 244.89 1025.88 250.261 Z" fill="#000000" fill-rule="nonzero" fill-opacity="1" /></svg>
