<?xml version="1.0" encoding="utf-8"?>
<svg xmlns="http://www.w3.org/2000/svg" xmlns:xlink="http://www.w3.org/1999/xlink" width="600" height="400" viewBox="0 0 2400 1600">
<defs>
  <clipPath id="clip410">
    <rect x="0" y="0" width="2400" height="1600"/>
  </clipPath>
</defs>
<path clip-path="url(#clip410)" d="
M0 1600 L2400 1600 L2400 0 L0 0  Z
  " fill="#ffffff" fill-rule="evenodd" fill-opacity="1"/>
<defs>
  <clipPath id="clip411">
    <rect x="480" y="0" width="1681" height="1600"/>
  </clipPath>
</defs>
<path clip-path="url(#clip410)" d="
M370.509 1423.18 L2352.76 1423.18 L2352.76 47.2441 L370.509 47.2441  Z
  " fill="#ffffff" fill-rule="evenodd" fill-opacity="1"/>
<defs>
  <clipPath id="clip412">
    <rect x="370" y="47" width="1983" height="1377"/>
  </clipPath>
</defs>
<polyline clip-path="url(#clip412)" style="stroke:#000000; stroke-linecap:butt; stroke-linejoin:round; stroke-width:2; stroke-opacity:0.1; fill:none" points="
  426.607,1423.18 426.607,47.2441 
  "/>
<polyline clip-path="url(#clip412)" style="stroke:#000000; stroke-linecap:butt; stroke-linejoin:round; stroke-width:2; stroke-opacity:0.1; fill:none" points="
  800.616,1423.18 800.616,47.2441 
  "/>
<polyline clip-path="url(#clip412)" style="stroke:#000000; stroke-linecap:butt; stroke-linejoin:round; stroke-width:2; stroke-opacity:0.1; fill:none" points="
  1174.63,1423.18 1174.63,47.2441 
  "/>
<polyline clip-path="url(#clip412)" style="stroke:#000000; stroke-linecap:butt; stroke-linejoin:round; stroke-width:2; stroke-opacity:0.1; fill:none" points="
  1548.64,1423.18 1548.64,47.2441 
  "/>
<polyline clip-path="url(#clip412)" style="stroke:#000000; stroke-linecap:butt; stroke-linejoin:round; stroke-width:2; stroke-opacity:0.1; fill:none" points="
  1922.65,1423.18 1922.65,47.2441 
  "/>
<polyline clip-path="url(#clip412)" style="stroke:#000000; stroke-linecap:butt; stroke-linejoin:round; stroke-width:2; stroke-opacity:0.1; fill:none" points="
  2296.65,1423.18 2296.65,47.2441 
  "/>
<polyline clip-path="url(#clip410)" style="stroke:#000000; stroke-linecap:butt; stroke-linejoin:round; stroke-width:4; stroke-opacity:1; fill:none" points="
  370.509,1423.18 2352.76,1423.18 
  "/>
<polyline clip-path="url(#clip410)" style="stroke:#000000; stroke-linecap:butt; stroke-linejoin:round; stroke-width:4; stroke-opacity:1; fill:none" points="
  426.607,1423.18 426.607,1404.28 
  "/>
<polyline clip-path="url(#clip410)" style="stroke:#000000; stroke-linecap:butt; stroke-linejoin:round; stroke-width:4; stroke-opacity:1; fill:none" points="
  800.616,1423.18 800.616,1404.28 
  "/>
<polyline clip-path="url(#clip410)" style="stroke:#000000; stroke-linecap:butt; stroke-linejoin:round; stroke-width:4; stroke-opacity:1; fill:none" points="
  1174.63,1423.18 1174.63,1404.28 
  "/>
<polyline clip-path="url(#clip410)" style="stroke:#000000; stroke-linecap:butt; stroke-linejoin:round; stroke-width:4; stroke-opacity:1; fill:none" points="
  1548.64,1423.18 1548.64,1404.28 
  "/>
<polyline clip-path="url(#clip410)" style="stroke:#000000; stroke-linecap:butt; stroke-linejoin:round; stroke-width:4; stroke-opacity:1; fill:none" points="
  1922.65,1423.18 1922.65,1404.28 
  "/>
<polyline clip-path="url(#clip410)" style="stroke:#000000; stroke-linecap:butt; stroke-linejoin:round; stroke-width:4; stroke-opacity:1; fill:none" points="
  2296.65,1423.18 2296.65,1404.28 
  "/>
<path clip-path="url(#clip410)" d="M426.607 1454.1 Q422.996 1454.1 421.167 1457.66 Q419.362 1461.2 419.362 1468.33 Q419.362 1475.44 421.167 1479.01 Q422.996 1482.55 426.607 1482.55 Q430.241 1482.55 432.047 1479.01 Q433.875 1475.44 433.875 1468.33 Q433.875 1461.2 432.047 1457.66 Q430.241 1454.1 426.607 1454.1 M426.607 1450.39 Q432.417 1450.39 435.473 1455 Q438.551 1459.58 438.551 1468.33 Q438.551 1477.06 435.473 1481.67 Q432.417 1486.25 426.607 1486.25 Q420.797 1486.25 417.718 1481.67 Q414.662 1477.06 414.662 1468.33 Q414.662 1459.58 417.718 1455 Q420.797 1450.39 426.607 1450.39 Z" fill="#000000" fill-rule="evenodd" fill-opacity="1" /><path clip-path="url(#clip410)" d="M790.998 1481.64 L798.637 1481.64 L798.637 1455.28 L790.327 1456.95 L790.327 1452.69 L798.591 1451.02 L803.267 1451.02 L803.267 1481.64 L810.906 1481.64 L810.906 1485.58 L790.998 1485.58 L790.998 1481.64 Z" fill="#000000" fill-rule="evenodd" fill-opacity="1" /><path clip-path="url(#clip410)" d="M1169.28 1481.64 L1185.6 1481.64 L1185.6 1485.58 L1163.65 1485.58 L1163.65 1481.64 Q1166.32 1478.89 1170.9 1474.26 Q1175.51 1469.61 1176.69 1468.27 Q1178.93 1465.74 1179.81 1464.01 Q1180.71 1462.25 1180.71 1460.56 Q1180.71 1457.8 1178.77 1456.07 Q1176.85 1454.33 1173.75 1454.33 Q1171.55 1454.33 1169.09 1455.09 Q1166.66 1455.86 1163.89 1457.41 L1163.89 1452.69 Q1166.71 1451.55 1169.16 1450.97 Q1171.62 1450.39 1173.65 1450.39 Q1179.02 1450.39 1182.22 1453.08 Q1185.41 1455.77 1185.41 1460.26 Q1185.41 1462.39 1184.6 1464.31 Q1183.82 1466.2 1181.71 1468.8 Q1181.13 1469.47 1178.03 1472.69 Q1174.93 1475.88 1169.28 1481.64 Z" fill="#000000" fill-rule="evenodd" fill-opacity="1" /><path clip-path="url(#clip410)" d="M1552.88 1466.95 Q1556.24 1467.66 1558.11 1469.93 Q1560.01 1472.2 1560.01 1475.53 Q1560.01 1480.65 1556.49 1483.45 Q1552.98 1486.25 1546.49 1486.25 Q1544.32 1486.25 1542 1485.81 Q1539.71 1485.39 1537.26 1484.54 L1537.26 1480.02 Q1539.2 1481.16 1541.52 1481.74 Q1543.83 1482.32 1546.36 1482.32 Q1550.75 1482.32 1553.05 1480.58 Q1555.36 1478.84 1555.36 1475.53 Q1555.36 1472.48 1553.21 1470.77 Q1551.08 1469.03 1547.26 1469.03 L1543.23 1469.03 L1543.23 1465.19 L1547.44 1465.19 Q1550.89 1465.19 1552.72 1463.82 Q1554.55 1462.43 1554.55 1459.84 Q1554.55 1457.18 1552.65 1455.77 Q1550.78 1454.33 1547.26 1454.33 Q1545.34 1454.33 1543.14 1454.75 Q1540.94 1455.16 1538.3 1456.04 L1538.3 1451.88 Q1540.96 1451.14 1543.28 1450.77 Q1545.61 1450.39 1547.67 1450.39 Q1553 1450.39 1556.1 1452.83 Q1559.2 1455.23 1559.2 1459.35 Q1559.2 1462.22 1557.56 1464.21 Q1555.92 1466.18 1552.88 1466.95 Z" fill="#000000" fill-rule="evenodd" fill-opacity="1" /><path clip-path="url(#clip410)" d="M1925.65 1455.09 L1913.85 1473.54 L1925.65 1473.54 L1925.65 1455.09 M1924.43 1451.02 L1930.31 1451.02 L1930.31 1473.54 L1935.24 1473.54 L1935.24 1477.43 L1930.31 1477.43 L1930.31 1485.58 L1925.65 1485.58 L1925.65 1477.43 L1910.05 1477.43 L1910.05 1472.92 L1924.43 1451.02 Z" fill="#000000" fill-rule="evenodd" fill-opacity="1" /><path clip-path="url(#clip410)" d="M2286.93 1451.02 L2305.29 1451.02 L2305.29 1454.96 L2291.21 1454.96 L2291.21 1463.43 Q2292.23 1463.08 2293.25 1462.92 Q2294.27 1462.73 2295.29 1462.73 Q2301.08 1462.73 2304.46 1465.9 Q2307.84 1469.08 2307.84 1474.49 Q2307.84 1480.07 2304.36 1483.17 Q2300.89 1486.25 2294.57 1486.25 Q2292.4 1486.25 2290.13 1485.88 Q2287.88 1485.51 2285.47 1484.77 L2285.47 1480.07 Q2287.56 1481.2 2289.78 1481.76 Q2292 1482.32 2294.48 1482.32 Q2298.48 1482.32 2300.82 1480.21 Q2303.16 1478.1 2303.16 1474.49 Q2303.16 1470.88 2300.82 1468.77 Q2298.48 1466.67 2294.48 1466.67 Q2292.6 1466.67 2290.73 1467.08 Q2288.88 1467.5 2286.93 1468.38 L2286.93 1451.02 Z" fill="#000000" fill-rule="evenodd" fill-opacity="1" /><path clip-path="url(#clip410)" d="M1051.4 1550.25 Q1051.4 1556.71 1054.04 1560.4 Q1056.72 1564.07 1061.36 1564.07 Q1066.01 1564.07 1068.68 1560.4 Q1071.36 1556.71 1071.36 1550.25 Q1071.36 1543.79 1068.68 1540.13 Q1066.01 1536.44 1061.36 1536.44 Q1056.72 1536.44 1054.04 1540.13 Q1051.4 1543.79 1051.4 1550.25 M1071.36 1562.7 Q1069.51 1565.88 1066.68 1567.44 Q1063.88 1568.97 1059.93 1568.97 Q1053.47 1568.97 1049.39 1563.81 Q1045.35 1558.65 1045.35 1550.25 Q1045.35 1541.85 1049.39 1536.69 Q1053.47 1531.54 1059.93 1531.54 Q1063.88 1531.54 1066.68 1533.1 Q1069.51 1534.62 1071.36 1537.81 L1071.36 1532.4 L1077.21 1532.4 L1077.21 1581.6 L1071.36 1581.6 L1071.36 1562.7 Z" fill="#000000" fill-rule="evenodd" fill-opacity="1" /><path clip-path="url(#clip410)" d="M1116.36 1578.87 L1116.36 1583.42 L1082.5 1583.42 L1082.5 1578.87 L1116.36 1578.87 Z" fill="#000000" fill-rule="evenodd" fill-opacity="1" /><path clip-path="url(#clip410)" d="M1121.87 1518.52 L1127.72 1518.52 L1127.72 1568.04 L1121.87 1568.04 L1121.87 1518.52 Z" fill="#000000" fill-rule="evenodd" fill-opacity="1" /><path clip-path="url(#clip410)" d="M1139.98 1532.4 L1145.84 1532.4 L1145.84 1568.04 L1139.98 1568.04 L1139.98 1532.4 M1139.98 1518.52 L1145.84 1518.52 L1145.84 1525.93 L1139.98 1525.93 L1139.98 1518.52 Z" fill="#000000" fill-rule="evenodd" fill-opacity="1" /><path clip-path="url(#clip410)" d="M1161.59 1550.25 Q1161.59 1556.71 1164.23 1560.4 Q1166.91 1564.07 1171.55 1564.07 Q1176.2 1564.07 1178.87 1560.4 Q1181.55 1556.71 1181.55 1550.25 Q1181.55 1543.79 1178.87 1540.13 Q1176.2 1536.44 1171.55 1536.44 Q1166.91 1536.44 1164.23 1540.13 Q1161.59 1543.79 1161.59 1550.25 M1181.55 1562.7 Q1179.7 1565.88 1176.87 1567.44 Q1174.07 1568.97 1170.12 1568.97 Q1163.66 1568.97 1159.59 1563.81 Q1155.54 1558.65 1155.54 1550.25 Q1155.54 1541.85 1159.59 1536.69 Q1163.66 1531.54 1170.12 1531.54 Q1174.07 1531.54 1176.87 1533.1 Q1179.7 1534.62 1181.55 1537.81 L1181.55 1532.4 L1187.4 1532.4 L1187.4 1581.6 L1181.55 1581.6 L1181.55 1562.7 Z" fill="#000000" fill-rule="evenodd" fill-opacity="1" /><path clip-path="url(#clip410)" d="M1234 1536.5 Q1229.29 1536.5 1226.55 1540.19 Q1223.82 1543.85 1223.82 1550.25 Q1223.82 1556.65 1226.52 1560.34 Q1229.26 1564 1234 1564 Q1238.68 1564 1241.42 1560.31 Q1244.15 1556.62 1244.15 1550.25 Q1244.15 1543.92 1241.42 1540.23 Q1238.68 1536.5 1234 1536.5 M1234 1531.54 Q1241.64 1531.54 1246 1536.5 Q1250.36 1541.47 1250.36 1550.25 Q1250.36 1559 1246 1564 Q1241.64 1568.97 1234 1568.97 Q1226.33 1568.97 1221.97 1564 Q1217.64 1559 1217.64 1550.25 Q1217.64 1541.47 1221.97 1536.5 Q1226.33 1531.54 1234 1531.54 Z" fill="#000000" fill-rule="evenodd" fill-opacity="1" /><path clip-path="url(#clip410)" d="M1280.72 1537.87 Q1279.74 1537.3 1278.56 1537.04 Q1277.41 1536.76 1276.01 1536.76 Q1271.05 1536.76 1268.37 1540 Q1265.73 1543.22 1265.73 1549.27 L1265.73 1568.04 L1259.84 1568.04 L1259.84 1532.4 L1265.73 1532.4 L1265.73 1537.93 Q1267.58 1534.69 1270.54 1533.13 Q1273.5 1531.54 1277.73 1531.54 Q1278.34 1531.54 1279.07 1531.63 Q1279.8 1531.7 1280.69 1531.85 L1280.72 1537.87 Z" fill="#000000" fill-rule="evenodd" fill-opacity="1" /><path clip-path="url(#clip410)" d="M1311.09 1550.25 Q1311.09 1556.71 1313.73 1560.4 Q1316.4 1564.07 1321.05 1564.07 Q1325.7 1564.07 1328.37 1560.4 Q1331.05 1556.71 1331.05 1550.25 Q1331.05 1543.79 1328.37 1540.13 Q1325.7 1536.44 1321.05 1536.44 Q1316.4 1536.44 1313.73 1540.13 Q1311.09 1543.79 1311.09 1550.25 M1331.05 1562.7 Q1329.2 1565.88 1326.37 1567.44 Q1323.57 1568.97 1319.62 1568.97 Q1313.16 1568.97 1309.08 1563.81 Q1305.04 1558.65 1305.04 1550.25 Q1305.04 1541.85 1309.08 1536.69 Q1313.16 1531.54 1319.62 1531.54 Q1323.57 1531.54 1326.37 1533.1 Q1329.2 1534.62 1331.05 1537.81 L1331.05 1532.4 L1336.9 1532.4 L1336.9 1581.6 L1331.05 1581.6 L1331.05 1562.7 Z" fill="#000000" fill-rule="evenodd" fill-opacity="1" /><path clip-path="url(#clip410)" d="M1376.05 1578.87 L1376.05 1583.42 L1342.19 1583.42 L1342.19 1578.87 L1376.05 1578.87 Z" fill="#000000" fill-rule="evenodd" fill-opacity="1" /><path clip-path="url(#clip410)" d="M1381.56 1532.4 L1387.41 1532.4 L1387.41 1568.04 L1381.56 1568.04 L1381.56 1532.4 M1381.56 1518.52 L1387.41 1518.52 L1387.41 1525.93 L1381.56 1525.93 L1381.56 1518.52 Z" fill="#000000" fill-rule="evenodd" fill-opacity="1" /><path clip-path="url(#clip410)" d="M1425.32 1533.76 L1425.32 1539.24 Q1422.84 1537.87 1420.32 1537.2 Q1417.84 1536.5 1415.3 1536.5 Q1409.6 1536.5 1406.45 1540.13 Q1403.3 1543.73 1403.3 1550.25 Q1403.3 1556.78 1406.45 1560.4 Q1409.6 1564 1415.3 1564 Q1417.84 1564 1420.32 1563.33 Q1422.84 1562.63 1425.32 1561.26 L1425.32 1566.68 Q1422.87 1567.82 1420.23 1568.39 Q1417.62 1568.97 1414.66 1568.97 Q1406.61 1568.97 1401.86 1563.91 Q1397.12 1558.85 1397.12 1550.25 Q1397.12 1541.53 1401.9 1536.53 Q1406.7 1531.54 1415.04 1531.54 Q1417.75 1531.54 1420.32 1532.11 Q1422.9 1532.65 1425.32 1533.76 Z" fill="#000000" fill-rule="evenodd" fill-opacity="1" /><path clip-path="url(#clip410)" d="M1466 1548.76 L1466 1551.62 L1439.07 1551.62 Q1439.45 1557.67 1442.7 1560.85 Q1445.98 1564 1451.8 1564 Q1455.18 1564 1458.33 1563.17 Q1461.51 1562.35 1464.63 1560.69 L1464.63 1566.23 Q1461.48 1567.57 1458.17 1568.27 Q1454.86 1568.97 1451.45 1568.97 Q1442.92 1568.97 1437.93 1564 Q1432.96 1559.04 1432.96 1550.57 Q1432.96 1541.82 1437.67 1536.69 Q1442.41 1531.54 1450.43 1531.54 Q1457.63 1531.54 1461.8 1536.18 Q1466 1540.8 1466 1548.76 M1460.14 1547.04 Q1460.08 1542.23 1457.44 1539.37 Q1454.83 1536.5 1450.5 1536.5 Q1445.6 1536.5 1442.64 1539.27 Q1439.71 1542.04 1439.26 1547.07 L1460.14 1547.04 Z" fill="#000000" fill-rule="evenodd" fill-opacity="1" /><path clip-path="url(#clip410)" d="M1495.79 1518.52 L1509.29 1518.52 L1509.29 1523.07 L1501.65 1523.07 L1501.65 1572.09 L1509.29 1572.09 L1509.29 1576.64 L1495.79 1576.64 L1495.79 1518.52 Z" fill="#000000" fill-rule="evenodd" fill-opacity="1" /><path clip-path="url(#clip410)" d="M1545.22 1549.81 Q1545.22 1543.44 1542.58 1539.94 Q1539.97 1536.44 1535.23 1536.44 Q1530.51 1536.44 1527.87 1539.94 Q1525.26 1543.44 1525.26 1549.81 Q1525.26 1556.14 1527.87 1559.64 Q1530.51 1563.14 1535.23 1563.14 Q1539.97 1563.14 1542.58 1559.64 Q1545.22 1556.14 1545.22 1549.81 M1551.08 1563.62 Q1551.08 1572.72 1547.03 1577.15 Q1542.99 1581.6 1534.65 1581.6 Q1531.57 1581.6 1528.83 1581.13 Q1526.09 1580.68 1523.51 1579.72 L1523.51 1574.03 Q1526.09 1575.43 1528.61 1576.1 Q1531.12 1576.76 1533.73 1576.76 Q1539.49 1576.76 1542.35 1573.74 Q1545.22 1570.75 1545.22 1564.67 L1545.22 1561.77 Q1543.41 1564.92 1540.57 1566.48 Q1537.74 1568.04 1533.79 1568.04 Q1527.24 1568.04 1523.23 1563.05 Q1519.22 1558.05 1519.22 1549.81 Q1519.22 1541.53 1523.23 1536.53 Q1527.24 1531.54 1533.79 1531.54 Q1537.74 1531.54 1540.57 1533.1 Q1543.41 1534.66 1545.22 1537.81 L1545.22 1532.4 L1551.08 1532.4 L1551.08 1563.62 Z" fill="#000000" fill-rule="evenodd" fill-opacity="1" /><path clip-path="url(#clip410)" d="M1573.55 1520.52 L1578.96 1520.52 L1562.41 1574.09 L1557 1574.09 L1573.55 1520.52 Z" fill="#000000" fill-rule="evenodd" fill-opacity="1" /><path clip-path="url(#clip410)" d="M1584.88 1518.52 L1590.77 1518.52 L1590.77 1547.77 L1608.24 1532.4 L1615.72 1532.4 L1596.81 1549.07 L1616.52 1568.04 L1608.88 1568.04 L1590.77 1550.63 L1590.77 1568.04 L1584.88 1568.04 L1584.88 1518.52 Z" fill="#000000" fill-rule="evenodd" fill-opacity="1" /><path clip-path="url(#clip410)" d="M1646.31 1549.81 Q1646.31 1543.44 1643.67 1539.94 Q1641.06 1536.44 1636.31 1536.44 Q1631.6 1536.44 1628.96 1539.94 Q1626.35 1543.44 1626.35 1549.81 Q1626.35 1556.14 1628.96 1559.64 Q1631.6 1563.14 1636.31 1563.14 Q1641.06 1563.14 1643.67 1559.64 Q1646.31 1556.14 1646.31 1549.81 M1652.16 1563.62 Q1652.16 1572.72 1648.12 1577.15 Q1644.08 1581.6 1635.74 1581.6 Q1632.65 1581.6 1629.92 1581.13 Q1627.18 1580.68 1624.6 1579.72 L1624.6 1574.03 Q1627.18 1575.43 1629.69 1576.1 Q1632.21 1576.76 1634.82 1576.76 Q1640.58 1576.76 1643.44 1573.74 Q1646.31 1570.75 1646.31 1564.67 L1646.31 1561.77 Q1644.49 1564.92 1641.66 1566.48 Q1638.83 1568.04 1634.88 1568.04 Q1628.32 1568.04 1624.31 1563.05 Q1620.3 1558.05 1620.3 1549.81 Q1620.3 1541.53 1624.31 1536.53 Q1628.32 1531.54 1634.88 1531.54 Q1638.83 1531.54 1641.66 1533.1 Q1644.49 1534.66 1646.31 1537.81 L1646.31 1532.4 L1652.16 1532.4 L1652.16 1563.62 Z" fill="#000000" fill-rule="evenodd" fill-opacity="1" /><path clip-path="url(#clip410)" d="M1677.91 1518.52 L1677.91 1576.64 L1664.42 1576.64 L1664.42 1572.09 L1672.02 1572.09 L1672.02 1523.07 L1664.42 1523.07 L1664.42 1518.52 L1677.91 1518.52 Z" fill="#000000" fill-rule="evenodd" fill-opacity="1" /><polyline clip-path="url(#clip412)" style="stroke:#000000; stroke-linecap:butt; stroke-linejoin:round; stroke-width:2; stroke-opacity:0.1; fill:none" points="
  370.509,1384.24 2352.76,1384.24 
  "/>
<polyline clip-path="url(#clip412)" style="stroke:#000000; stroke-linecap:butt; stroke-linejoin:round; stroke-width:2; stroke-opacity:0.1; fill:none" points="
  370.509,1191.17 2352.76,1191.17 
  "/>
<polyline clip-path="url(#clip412)" style="stroke:#000000; stroke-linecap:butt; stroke-linejoin:round; stroke-width:2; stroke-opacity:0.1; fill:none" points="
  370.509,998.098 2352.76,998.098 
  "/>
<polyline clip-path="url(#clip412)" style="stroke:#000000; stroke-linecap:butt; stroke-linejoin:round; stroke-width:2; stroke-opacity:0.1; fill:none" points="
  370.509,805.028 2352.76,805.028 
  "/>
<polyline clip-path="url(#clip412)" style="stroke:#000000; stroke-linecap:butt; stroke-linejoin:round; stroke-width:2; stroke-opacity:0.1; fill:none" points="
  370.509,611.958 2352.76,611.958 
  "/>
<polyline clip-path="url(#clip412)" style="stroke:#000000; stroke-linecap:butt; stroke-linejoin:round; stroke-width:2; stroke-opacity:0.1; fill:none" points="
  370.509,418.888 2352.76,418.888 
  "/>
<polyline clip-path="url(#clip412)" style="stroke:#000000; stroke-linecap:butt; stroke-linejoin:round; stroke-width:2; stroke-opacity:0.1; fill:none" points="
  370.509,225.818 2352.76,225.818 
  "/>
<polyline clip-path="url(#clip410)" style="stroke:#000000; stroke-linecap:butt; stroke-linejoin:round; stroke-width:4; stroke-opacity:1; fill:none" points="
  370.509,1423.18 370.509,47.2441 
  "/>
<polyline clip-path="url(#clip410)" style="stroke:#000000; stroke-linecap:butt; stroke-linejoin:round; stroke-width:4; stroke-opacity:1; fill:none" points="
  370.509,1384.24 389.407,1384.24 
  "/>
<polyline clip-path="url(#clip410)" style="stroke:#000000; stroke-linecap:butt; stroke-linejoin:round; stroke-width:4; stroke-opacity:1; fill:none" points="
  370.509,1191.17 389.407,1191.17 
  "/>
<polyline clip-path="url(#clip410)" style="stroke:#000000; stroke-linecap:butt; stroke-linejoin:round; stroke-width:4; stroke-opacity:1; fill:none" points="
  370.509,998.098 389.407,998.098 
  "/>
<polyline clip-path="url(#clip410)" style="stroke:#000000; stroke-linecap:butt; stroke-linejoin:round; stroke-width:4; stroke-opacity:1; fill:none" points="
  370.509,805.028 389.407,805.028 
  "/>
<polyline clip-path="url(#clip410)" style="stroke:#000000; stroke-linecap:butt; stroke-linejoin:round; stroke-width:4; stroke-opacity:1; fill:none" points="
  370.509,611.958 389.407,611.958 
  "/>
<polyline clip-path="url(#clip410)" style="stroke:#000000; stroke-linecap:butt; stroke-linejoin:round; stroke-width:4; stroke-opacity:1; fill:none" points="
  370.509,418.888 389.407,418.888 
  "/>
<polyline clip-path="url(#clip410)" style="stroke:#000000; stroke-linecap:butt; stroke-linejoin:round; stroke-width:4; stroke-opacity:1; fill:none" points="
  370.509,225.818 389.407,225.818 
  "/>
<path clip-path="url(#clip410)" d="M322.565 1370.04 Q318.954 1370.04 317.125 1373.6 Q315.32 1377.14 315.32 1384.27 Q315.32 1391.38 317.125 1394.94 Q318.954 1398.49 322.565 1398.49 Q326.199 1398.49 328.005 1394.94 Q329.833 1391.38 329.833 1384.27 Q329.833 1377.14 328.005 1373.6 Q326.199 1370.04 322.565 1370.04 M322.565 1366.33 Q328.375 1366.33 331.431 1370.94 Q334.509 1375.52 334.509 1384.27 Q334.509 1393 331.431 1397.61 Q328.375 1402.19 322.565 1402.19 Q316.755 1402.19 313.676 1397.61 Q310.621 1393 310.621 1384.27 Q310.621 1375.52 313.676 1370.94 Q316.755 1366.33 322.565 1366.33 Z" fill="#000000" fill-rule="evenodd" fill-opacity="1" /><path clip-path="url(#clip410)" d="M117.825 1210.96 L125.464 1210.96 L125.464 1184.6 L117.154 1186.26 L117.154 1182 L125.418 1180.34 L130.093 1180.34 L130.093 1210.96 L137.732 1210.96 L137.732 1214.9 L117.825 1214.9 L117.825 1210.96 Z" fill="#000000" fill-rule="evenodd" fill-opacity="1" /><path clip-path="url(#clip410)" d="M147.177 1209.02 L152.061 1209.02 L152.061 1214.9 L147.177 1214.9 L147.177 1209.02 Z" fill="#000000" fill-rule="evenodd" fill-opacity="1" /><path clip-path="url(#clip410)" d="M172.246 1183.41 Q168.635 1183.41 166.806 1186.98 Q165.001 1190.52 165.001 1197.65 Q165.001 1204.76 166.806 1208.32 Q168.635 1211.86 172.246 1211.86 Q175.88 1211.86 177.686 1208.32 Q179.514 1204.76 179.514 1197.65 Q179.514 1190.52 177.686 1186.98 Q175.88 1183.41 172.246 1183.41 M172.246 1179.71 Q178.056 1179.71 181.112 1184.32 Q184.19 1188.9 184.19 1197.65 Q184.19 1206.38 181.112 1210.98 Q178.056 1215.57 172.246 1215.57 Q166.436 1215.57 163.357 1210.98 Q160.302 1206.38 160.302 1197.65 Q160.302 1188.9 163.357 1184.32 Q166.436 1179.71 172.246 1179.71 Z" fill="#000000" fill-rule="evenodd" fill-opacity="1" /><path clip-path="url(#clip410)" d="M220.579 1189.43 L210 1200.06 L220.579 1210.64 L217.824 1213.44 L207.199 1202.81 L196.575 1213.44 L193.843 1210.64 L204.399 1200.06 L193.843 1189.43 L196.575 1186.63 L207.199 1197.26 L217.824 1186.63 L220.579 1189.43 Z" fill="#000000" fill-rule="evenodd" fill-opacity="1" /><path clip-path="url(#clip410)" d="M232.94 1210.96 L240.579 1210.96 L240.579 1184.6 L232.269 1186.26 L232.269 1182 L240.533 1180.34 L245.209 1180.34 L245.209 1210.96 L252.847 1210.96 L252.847 1214.9 L232.94 1214.9 L232.94 1210.96 Z" fill="#000000" fill-rule="evenodd" fill-opacity="1" /><path clip-path="url(#clip410)" d="M272.292 1183.41 Q268.681 1183.41 266.852 1186.98 Q265.046 1190.52 265.046 1197.65 Q265.046 1204.76 266.852 1208.32 Q268.681 1211.86 272.292 1211.86 Q275.926 1211.86 277.732 1208.32 Q279.56 1204.76 279.56 1197.65 Q279.56 1190.52 277.732 1186.98 Q275.926 1183.41 272.292 1183.41 M272.292 1179.71 Q278.102 1179.71 281.157 1184.32 Q284.236 1188.9 284.236 1197.65 Q284.236 1206.38 281.157 1210.98 Q278.102 1215.57 272.292 1215.57 Q266.482 1215.57 263.403 1210.98 Q260.347 1206.38 260.347 1197.65 Q260.347 1188.9 263.403 1184.32 Q266.482 1179.71 272.292 1179.71 Z" fill="#000000" fill-rule="evenodd" fill-opacity="1" /><path clip-path="url(#clip410)" d="M284.236 1173.81 L308.348 1173.81 L308.348 1177.01 L284.236 1177.01 L284.236 1173.81 Z" fill="#000000" fill-rule="evenodd" fill-opacity="1" /><path clip-path="url(#clip410)" d="M325.143 1171.93 Q322.585 1171.93 321.081 1173.68 Q319.595 1175.43 319.595 1178.48 Q319.595 1181.5 321.081 1183.27 Q322.585 1185.02 325.143 1185.02 Q327.701 1185.02 329.187 1183.27 Q330.691 1181.5 330.691 1178.48 Q330.691 1175.43 329.187 1173.68 Q327.701 1171.93 325.143 1171.93 M332.685 1160.03 L332.685 1163.49 Q331.256 1162.81 329.789 1162.45 Q328.34 1162.09 326.911 1162.09 Q323.149 1162.09 321.156 1164.63 Q319.181 1167.17 318.899 1172.31 Q320.008 1170.67 321.682 1169.81 Q323.356 1168.92 325.369 1168.92 Q329.6 1168.92 332.045 1171.5 Q334.509 1174.06 334.509 1178.48 Q334.509 1182.8 331.951 1185.42 Q329.394 1188.03 325.143 1188.03 Q320.272 1188.03 317.695 1184.31 Q315.118 1180.56 315.118 1173.47 Q315.118 1166.82 318.278 1162.87 Q321.438 1158.9 326.76 1158.9 Q328.19 1158.9 329.638 1159.18 Q331.105 1159.46 332.685 1160.03 Z" fill="#000000" fill-rule="evenodd" fill-opacity="1" /><path clip-path="url(#clip410)" d="M121.043 1017.89 L137.362 1017.89 L137.362 1021.83 L115.418 1021.83 L115.418 1017.89 Q118.08 1015.14 122.663 1010.51 Q127.269 1005.85 128.45 1004.51 Q130.695 1001.99 131.575 1000.25 Q132.478 998.493 132.478 996.803 Q132.478 994.048 130.533 992.312 Q128.612 990.576 125.51 990.576 Q123.311 990.576 120.857 991.34 Q118.427 992.104 115.649 993.655 L115.649 988.932 Q118.473 987.798 120.927 987.219 Q123.38 986.641 125.418 986.641 Q130.788 986.641 133.982 989.326 Q137.177 992.011 137.177 996.502 Q137.177 998.631 136.367 1000.55 Q135.579 1002.45 133.473 1005.04 Q132.894 1005.71 129.792 1008.93 Q126.691 1012.13 121.043 1017.89 Z" fill="#000000" fill-rule="evenodd" fill-opacity="1" /><path clip-path="url(#clip410)" d="M147.177 1015.95 L152.061 1015.95 L152.061 1021.83 L147.177 1021.83 L147.177 1015.95 Z" fill="#000000" fill-rule="evenodd" fill-opacity="1" /><path clip-path="url(#clip410)" d="M172.246 990.344 Q168.635 990.344 166.806 993.909 Q165.001 997.451 165.001 1004.58 Q165.001 1011.69 166.806 1015.25 Q168.635 1018.79 172.246 1018.79 Q175.88 1018.79 177.686 1015.25 Q179.514 1011.69 179.514 1004.58 Q179.514 997.451 177.686 993.909 Q175.88 990.344 172.246 990.344 M172.246 986.641 Q178.056 986.641 181.112 991.247 Q184.19 995.831 184.19 1004.58 Q184.19 1013.31 181.112 1017.91 Q178.056 1022.5 172.246 1022.5 Q166.436 1022.5 163.357 1017.91 Q160.302 1013.31 160.302 1004.58 Q160.302 995.831 163.357 991.247 Q166.436 986.641 172.246 986.641 Z" fill="#000000" fill-rule="evenodd" fill-opacity="1" /><path clip-path="url(#clip410)" d="M220.579 996.363 L210 1006.99 L220.579 1017.57 L217.824 1020.37 L207.199 1009.74 L196.575 1020.37 L193.843 1017.57 L204.399 1006.99 L193.843 996.363 L196.575 993.562 L207.199 1004.19 L217.824 993.562 L220.579 996.363 Z" fill="#000000" fill-rule="evenodd" fill-opacity="1" /><path clip-path="url(#clip410)" d="M232.94 1017.89 L240.579 1017.89 L240.579 991.525 L232.269 993.192 L232.269 988.932 L240.533 987.266 L245.209 987.266 L245.209 1017.89 L252.847 1017.89 L252.847 1021.83 L232.94 1021.83 L232.94 1017.89 Z" fill="#000000" fill-rule="evenodd" fill-opacity="1" /><path clip-path="url(#clip410)" d="M272.292 990.344 Q268.681 990.344 266.852 993.909 Q265.046 997.451 265.046 1004.58 Q265.046 1011.69 266.852 1015.25 Q268.681 1018.79 272.292 1018.79 Q275.926 1018.79 277.732 1015.25 Q279.56 1011.69 279.56 1004.58 Q279.56 997.451 277.732 993.909 Q275.926 990.344 272.292 990.344 M272.292 986.641 Q278.102 986.641 281.157 991.247 Q284.236 995.831 284.236 1004.58 Q284.236 1013.31 281.157 1017.91 Q278.102 1022.5 272.292 1022.5 Q266.482 1022.5 263.403 1017.91 Q260.347 1013.31 260.347 1004.58 Q260.347 995.831 263.403 991.247 Q266.482 986.641 272.292 986.641 Z" fill="#000000" fill-rule="evenodd" fill-opacity="1" /><path clip-path="url(#clip410)" d="M284.236 980.742 L308.348 980.742 L308.348 983.939 L284.236 983.939 L284.236 980.742 Z" fill="#000000" fill-rule="evenodd" fill-opacity="1" /><path clip-path="url(#clip410)" d="M325.143 978.861 Q322.585 978.861 321.081 980.61 Q319.595 982.36 319.595 985.406 Q319.595 988.434 321.081 990.202 Q322.585 991.952 325.143 991.952 Q327.701 991.952 329.187 990.202 Q330.691 988.434 330.691 985.406 Q330.691 982.36 329.187 980.61 Q327.701 978.861 325.143 978.861 M332.685 966.956 L332.685 970.417 Q331.256 969.74 329.789 969.382 Q328.34 969.025 326.911 969.025 Q323.149 969.025 321.156 971.564 Q319.181 974.103 318.899 979.237 Q320.008 977.601 321.682 976.736 Q323.356 975.852 325.369 975.852 Q329.6 975.852 332.045 978.429 Q334.509 980.987 334.509 985.406 Q334.509 989.732 331.951 992.346 Q329.394 994.961 325.143 994.961 Q320.272 994.961 317.695 991.237 Q315.118 987.494 315.118 980.404 Q315.118 973.746 318.278 969.796 Q321.438 965.828 326.76 965.828 Q328.19 965.828 329.638 966.11 Q331.105 966.392 332.685 966.956 Z" fill="#000000" fill-rule="evenodd" fill-opacity="1" /><path clip-path="url(#clip410)" d="M131.181 810.122 Q134.538 810.839 136.413 813.108 Q138.311 815.376 138.311 818.709 Q138.311 823.825 134.792 826.626 Q131.274 829.427 124.793 829.427 Q122.617 829.427 120.302 828.987 Q118.01 828.571 115.556 827.714 L115.556 823.2 Q117.501 824.334 119.816 824.913 Q122.13 825.492 124.654 825.492 Q129.052 825.492 131.343 823.756 Q133.658 822.02 133.658 818.709 Q133.658 815.654 131.505 813.941 Q129.376 812.205 125.556 812.205 L121.529 812.205 L121.529 808.362 L125.742 808.362 Q129.191 808.362 131.019 806.997 Q132.848 805.608 132.848 803.015 Q132.848 800.353 130.95 798.941 Q129.075 797.506 125.556 797.506 Q123.635 797.506 121.436 797.923 Q119.237 798.339 116.598 799.219 L116.598 795.052 Q119.26 794.311 121.575 793.941 Q123.913 793.571 125.973 793.571 Q131.297 793.571 134.399 796.001 Q137.501 798.409 137.501 802.529 Q137.501 805.399 135.857 807.39 Q134.214 809.358 131.181 810.122 Z" fill="#000000" fill-rule="evenodd" fill-opacity="1" /><path clip-path="url(#clip410)" d="M147.177 822.876 L152.061 822.876 L152.061 828.756 L147.177 828.756 L147.177 822.876 Z" fill="#000000" fill-rule="evenodd" fill-opacity="1" /><path clip-path="url(#clip410)" d="M172.246 797.274 Q168.635 797.274 166.806 800.839 Q165.001 804.381 165.001 811.51 Q165.001 818.617 166.806 822.182 Q168.635 825.723 172.246 825.723 Q175.88 825.723 177.686 822.182 Q179.514 818.617 179.514 811.51 Q179.514 804.381 177.686 800.839 Q175.88 797.274 172.246 797.274 M172.246 793.571 Q178.056 793.571 181.112 798.177 Q184.19 802.76 184.19 811.51 Q184.19 820.237 181.112 824.844 Q178.056 829.427 172.246 829.427 Q166.436 829.427 163.357 824.844 Q160.302 820.237 160.302 811.51 Q160.302 802.76 163.357 798.177 Q166.436 793.571 172.246 793.571 Z" fill="#000000" fill-rule="evenodd" fill-opacity="1" /><path clip-path="url(#clip410)" d="M220.579 803.293 L210 813.918 L220.579 824.496 L217.824 827.297 L207.199 816.672 L196.575 827.297 L193.843 824.496 L204.399 813.918 L193.843 803.293 L196.575 800.492 L207.199 811.117 L217.824 800.492 L220.579 803.293 Z" fill="#000000" fill-rule="evenodd" fill-opacity="1" /><path clip-path="url(#clip410)" d="M232.94 824.821 L240.579 824.821 L240.579 798.455 L232.269 800.122 L232.269 795.862 L240.533 794.196 L245.209 794.196 L245.209 824.821 L252.847 824.821 L252.847 828.756 L232.94 828.756 L232.94 824.821 Z" fill="#000000" fill-rule="evenodd" fill-opacity="1" /><path clip-path="url(#clip410)" d="M272.292 797.274 Q268.681 797.274 266.852 800.839 Q265.046 804.381 265.046 811.51 Q265.046 818.617 266.852 822.182 Q268.681 825.723 272.292 825.723 Q275.926 825.723 277.732 822.182 Q279.56 818.617 279.56 811.51 Q279.56 804.381 277.732 800.839 Q275.926 797.274 272.292 797.274 M272.292 793.571 Q278.102 793.571 281.157 798.177 Q284.236 802.76 284.236 811.51 Q284.236 820.237 281.157 824.844 Q278.102 829.427 272.292 829.427 Q266.482 829.427 263.403 824.844 Q260.347 820.237 260.347 811.51 Q260.347 802.76 263.403 798.177 Q266.482 793.571 272.292 793.571 Z" fill="#000000" fill-rule="evenodd" fill-opacity="1" /><path clip-path="url(#clip410)" d="M284.236 787.672 L308.348 787.672 L308.348 790.869 L284.236 790.869 L284.236 787.672 Z" fill="#000000" fill-rule="evenodd" fill-opacity="1" /><path clip-path="url(#clip410)" d="M325.143 785.791 Q322.585 785.791 321.081 787.54 Q319.595 789.29 319.595 792.336 Q319.595 795.364 321.081 797.132 Q322.585 798.881 325.143 798.881 Q327.701 798.881 329.187 797.132 Q330.691 795.364 330.691 792.336 Q330.691 789.29 329.187 787.54 Q327.701 785.791 325.143 785.791 M332.685 773.886 L332.685 777.347 Q331.256 776.67 329.789 776.312 Q328.34 775.955 326.911 775.955 Q323.149 775.955 321.156 778.494 Q319.181 781.033 318.899 786.167 Q320.008 784.531 321.682 783.666 Q323.356 782.782 325.369 782.782 Q329.6 782.782 332.045 785.359 Q334.509 787.917 334.509 792.336 Q334.509 796.662 331.951 799.276 Q329.394 801.891 325.143 801.891 Q320.272 801.891 317.695 798.167 Q315.118 794.424 315.118 787.334 Q315.118 780.676 318.278 776.726 Q321.438 772.757 326.76 772.757 Q328.19 772.757 329.638 773.04 Q331.105 773.322 332.685 773.886 Z" fill="#000000" fill-rule="evenodd" fill-opacity="1" /><path clip-path="url(#clip410)" d="M129.862 605.2 L118.056 623.649 L129.862 623.649 L129.862 605.2 M128.635 601.126 L134.515 601.126 L134.515 623.649 L139.445 623.649 L139.445 627.538 L134.515 627.538 L134.515 635.686 L129.862 635.686 L129.862 627.538 L114.26 627.538 L114.26 623.024 L128.635 601.126 Z" fill="#000000" fill-rule="evenodd" fill-opacity="1" /><path clip-path="url(#clip410)" d="M147.177 629.806 L152.061 629.806 L152.061 635.686 L147.177 635.686 L147.177 629.806 Z" fill="#000000" fill-rule="evenodd" fill-opacity="1" /><path clip-path="url(#clip410)" d="M172.246 604.204 Q168.635 604.204 166.806 607.769 Q165.001 611.311 165.001 618.44 Q165.001 625.547 166.806 629.112 Q168.635 632.653 172.246 632.653 Q175.88 632.653 177.686 629.112 Q179.514 625.547 179.514 618.44 Q179.514 611.311 177.686 607.769 Q175.88 604.204 172.246 604.204 M172.246 600.501 Q178.056 600.501 181.112 605.107 Q184.19 609.69 184.19 618.44 Q184.19 627.167 181.112 631.774 Q178.056 636.357 172.246 636.357 Q166.436 636.357 163.357 631.774 Q160.302 627.167 160.302 618.44 Q160.302 609.69 163.357 605.107 Q166.436 600.501 172.246 600.501 Z" fill="#000000" fill-rule="evenodd" fill-opacity="1" /><path clip-path="url(#clip410)" d="M220.579 610.223 L210 620.848 L220.579 631.426 L217.824 634.227 L207.199 623.602 L196.575 634.227 L193.843 631.426 L204.399 620.848 L193.843 610.223 L196.575 607.422 L207.199 618.047 L217.824 607.422 L220.579 610.223 Z" fill="#000000" fill-rule="evenodd" fill-opacity="1" /><path clip-path="url(#clip410)" d="M232.94 631.75 L240.579 631.75 L240.579 605.385 L232.269 607.052 L232.269 602.792 L240.533 601.126 L245.209 601.126 L245.209 631.75 L252.847 631.75 L252.847 635.686 L232.94 635.686 L232.94 631.75 Z" fill="#000000" fill-rule="evenodd" fill-opacity="1" /><path clip-path="url(#clip410)" d="M272.292 604.204 Q268.681 604.204 266.852 607.769 Q265.046 611.311 265.046 618.44 Q265.046 625.547 266.852 629.112 Q268.681 632.653 272.292 632.653 Q275.926 632.653 277.732 629.112 Q279.56 625.547 279.56 618.44 Q279.56 611.311 277.732 607.769 Q275.926 604.204 272.292 604.204 M272.292 600.501 Q278.102 600.501 281.157 605.107 Q284.236 609.69 284.236 618.44 Q284.236 627.167 281.157 631.774 Q278.102 636.357 272.292 636.357 Q266.482 636.357 263.403 631.774 Q260.347 627.167 260.347 618.44 Q260.347 609.69 263.403 605.107 Q266.482 600.501 272.292 600.501 Z" fill="#000000" fill-rule="evenodd" fill-opacity="1" /><path clip-path="url(#clip410)" d="M284.236 594.602 L308.348 594.602 L308.348 597.799 L284.236 597.799 L284.236 594.602 Z" fill="#000000" fill-rule="evenodd" fill-opacity="1" /><path clip-path="url(#clip410)" d="M325.143 592.721 Q322.585 592.721 321.081 594.47 Q319.595 596.219 319.595 599.266 Q319.595 602.294 321.081 604.062 Q322.585 605.811 325.143 605.811 Q327.701 605.811 329.187 604.062 Q330.691 602.294 330.691 599.266 Q330.691 596.219 329.187 594.47 Q327.701 592.721 325.143 592.721 M332.685 580.816 L332.685 584.277 Q331.256 583.599 329.789 583.242 Q328.34 582.885 326.911 582.885 Q323.149 582.885 321.156 585.424 Q319.181 587.963 318.899 593.097 Q320.008 591.461 321.682 590.596 Q323.356 589.712 325.369 589.712 Q329.6 589.712 332.045 592.289 Q334.509 594.846 334.509 599.266 Q334.509 603.592 331.951 606.206 Q329.394 608.821 325.143 608.821 Q320.272 608.821 317.695 605.097 Q315.118 601.354 315.118 594.263 Q315.118 587.605 318.278 583.656 Q321.438 579.687 326.76 579.687 Q328.19 579.687 329.638 579.97 Q331.105 580.252 332.685 580.816 Z" fill="#000000" fill-rule="evenodd" fill-opacity="1" /><path clip-path="url(#clip410)" d="M117.061 408.056 L135.417 408.056 L135.417 411.991 L121.343 411.991 L121.343 420.463 Q122.362 420.116 123.38 419.954 Q124.399 419.768 125.418 419.768 Q131.205 419.768 134.584 422.94 Q137.964 426.111 137.964 431.528 Q137.964 437.106 134.492 440.208 Q131.019 443.287 124.7 443.287 Q122.524 443.287 120.255 442.917 Q118.01 442.546 115.603 441.805 L115.603 437.106 Q117.686 438.241 119.908 438.796 Q122.13 439.352 124.607 439.352 Q128.612 439.352 130.95 437.245 Q133.288 435.139 133.288 431.528 Q133.288 427.917 130.95 425.81 Q128.612 423.704 124.607 423.704 Q122.732 423.704 120.857 424.12 Q119.006 424.537 117.061 425.417 L117.061 408.056 Z" fill="#000000" fill-rule="evenodd" fill-opacity="1" /><path clip-path="url(#clip410)" d="M147.177 436.736 L152.061 436.736 L152.061 442.616 L147.177 442.616 L147.177 436.736 Z" fill="#000000" fill-rule="evenodd" fill-opacity="1" /><path clip-path="url(#clip410)" d="M172.246 411.134 Q168.635 411.134 166.806 414.699 Q165.001 418.241 165.001 425.37 Q165.001 432.477 166.806 436.042 Q168.635 439.583 172.246 439.583 Q175.88 439.583 177.686 436.042 Q179.514 432.477 179.514 425.37 Q179.514 418.241 177.686 414.699 Q175.88 411.134 172.246 411.134 M172.246 407.431 Q178.056 407.431 181.112 412.037 Q184.19 416.62 184.19 425.37 Q184.19 434.097 181.112 438.704 Q178.056 443.287 172.246 443.287 Q166.436 443.287 163.357 438.704 Q160.302 434.097 160.302 425.37 Q160.302 416.62 163.357 412.037 Q166.436 407.431 172.246 407.431 Z" fill="#000000" fill-rule="evenodd" fill-opacity="1" /><path clip-path="url(#clip410)" d="M220.579 417.153 L210 427.778 L220.579 438.356 L217.824 441.157 L207.199 430.532 L196.575 441.157 L193.843 438.356 L204.399 427.778 L193.843 417.153 L196.575 414.352 L207.199 424.977 L217.824 414.352 L220.579 417.153 Z" fill="#000000" fill-rule="evenodd" fill-opacity="1" /><path clip-path="url(#clip410)" d="M232.94 438.68 L240.579 438.68 L240.579 412.315 L232.269 413.981 L232.269 409.722 L240.533 408.056 L245.209 408.056 L245.209 438.68 L252.847 438.68 L252.847 442.616 L232.94 442.616 L232.94 438.68 Z" fill="#000000" fill-rule="evenodd" fill-opacity="1" /><path clip-path="url(#clip410)" d="M272.292 411.134 Q268.681 411.134 266.852 414.699 Q265.046 418.241 265.046 425.37 Q265.046 432.477 266.852 436.042 Q268.681 439.583 272.292 439.583 Q275.926 439.583 277.732 436.042 Q279.56 432.477 279.56 425.37 Q279.56 418.241 277.732 414.699 Q275.926 411.134 272.292 411.134 M272.292 407.431 Q278.102 407.431 281.157 412.037 Q284.236 416.62 284.236 425.37 Q284.236 434.097 281.157 438.704 Q278.102 443.287 272.292 443.287 Q266.482 443.287 263.403 438.704 Q260.347 434.097 260.347 425.37 Q260.347 416.62 263.403 412.037 Q266.482 407.431 272.292 407.431 Z" fill="#000000" fill-rule="evenodd" fill-opacity="1" /><path clip-path="url(#clip410)" d="M284.236 401.532 L308.348 401.532 L308.348 404.729 L284.236 404.729 L284.236 401.532 Z" fill="#000000" fill-rule="evenodd" fill-opacity="1" /><path clip-path="url(#clip410)" d="M325.143 399.651 Q322.585 399.651 321.081 401.4 Q319.595 403.149 319.595 406.196 Q319.595 409.224 321.081 410.992 Q322.585 412.741 325.143 412.741 Q327.701 412.741 329.187 410.992 Q330.691 409.224 330.691 406.196 Q330.691 403.149 329.187 401.4 Q327.701 399.651 325.143 399.651 M332.685 387.746 L332.685 391.206 Q331.256 390.529 329.789 390.172 Q328.34 389.815 326.911 389.815 Q323.149 389.815 321.156 392.354 Q319.181 394.893 318.899 400.027 Q320.008 398.391 321.682 397.526 Q323.356 396.642 325.369 396.642 Q329.6 396.642 332.045 399.219 Q334.509 401.776 334.509 406.196 Q334.509 410.522 331.951 413.136 Q329.394 415.751 325.143 415.751 Q320.272 415.751 317.695 412.027 Q315.118 408.284 315.118 401.193 Q315.118 394.535 318.278 390.586 Q321.438 386.617 326.76 386.617 Q328.19 386.617 329.638 386.899 Q331.105 387.182 332.685 387.746 Z" fill="#000000" fill-rule="evenodd" fill-opacity="1" /><path clip-path="url(#clip410)" d="M127.593 230.402 Q124.445 230.402 122.593 232.555 Q120.765 234.708 120.765 238.458 Q120.765 242.184 122.593 244.36 Q124.445 246.513 127.593 246.513 Q130.742 246.513 132.57 244.36 Q134.422 242.184 134.422 238.458 Q134.422 234.708 132.57 232.555 Q130.742 230.402 127.593 230.402 M136.876 215.749 L136.876 220.009 Q135.117 219.175 133.311 218.736 Q131.529 218.296 129.769 218.296 Q125.14 218.296 122.686 221.421 Q120.255 224.546 119.908 230.865 Q121.274 228.851 123.334 227.786 Q125.394 226.698 127.871 226.698 Q133.08 226.698 136.089 229.87 Q139.121 233.018 139.121 238.458 Q139.121 243.782 135.973 246.999 Q132.825 250.217 127.593 250.217 Q121.598 250.217 118.427 245.634 Q115.256 241.027 115.256 232.3 Q115.256 224.106 119.144 219.245 Q123.033 214.361 129.584 214.361 Q131.343 214.361 133.126 214.708 Q134.931 215.055 136.876 215.749 Z" fill="#000000" fill-rule="evenodd" fill-opacity="1" /><path clip-path="url(#clip410)" d="M147.177 243.666 L152.061 243.666 L152.061 249.546 L147.177 249.546 L147.177 243.666 Z" fill="#000000" fill-rule="evenodd" fill-opacity="1" /><path clip-path="url(#clip410)" d="M172.246 218.064 Q168.635 218.064 166.806 221.629 Q165.001 225.171 165.001 232.3 Q165.001 239.407 166.806 242.971 Q168.635 246.513 172.246 246.513 Q175.88 246.513 177.686 242.971 Q179.514 239.407 179.514 232.3 Q179.514 225.171 177.686 221.629 Q175.88 218.064 172.246 218.064 M172.246 214.361 Q178.056 214.361 181.112 218.967 Q184.19 223.55 184.19 232.3 Q184.19 241.027 181.112 245.634 Q178.056 250.217 172.246 250.217 Q166.436 250.217 163.357 245.634 Q160.302 241.027 160.302 232.3 Q160.302 223.55 163.357 218.967 Q166.436 214.361 172.246 214.361 Z" fill="#000000" fill-rule="evenodd" fill-opacity="1" /><path clip-path="url(#clip410)" d="M220.579 224.083 L210 234.708 L220.579 245.286 L217.824 248.087 L207.199 237.462 L196.575 248.087 L193.843 245.286 L204.399 234.708 L193.843 224.083 L196.575 221.282 L207.199 231.907 L217.824 221.282 L220.579 224.083 Z" fill="#000000" fill-rule="evenodd" fill-opacity="1" /><path clip-path="url(#clip410)" d="M232.94 245.61 L240.579 245.61 L240.579 219.245 L232.269 220.911 L232.269 216.652 L240.533 214.986 L245.209 214.986 L245.209 245.61 L252.847 245.61 L252.847 249.546 L232.94 249.546 L232.94 245.61 Z" fill="#000000" fill-rule="evenodd" fill-opacity="1" /><path clip-path="url(#clip410)" d="M272.292 218.064 Q268.681 218.064 266.852 221.629 Q265.046 225.171 265.046 232.3 Q265.046 239.407 266.852 242.971 Q268.681 246.513 272.292 246.513 Q275.926 246.513 277.732 242.971 Q279.56 239.407 279.56 232.3 Q279.56 225.171 277.732 221.629 Q275.926 218.064 272.292 218.064 M272.292 214.361 Q278.102 214.361 281.157 218.967 Q284.236 223.55 284.236 232.3 Q284.236 241.027 281.157 245.634 Q278.102 250.217 272.292 250.217 Q266.482 250.217 263.403 245.634 Q260.347 241.027 260.347 232.3 Q260.347 223.55 263.403 218.967 Q266.482 214.361 272.292 214.361 Z" fill="#000000" fill-rule="evenodd" fill-opacity="1" /><path clip-path="url(#clip410)" d="M284.236 208.462 L308.348 208.462 L308.348 211.659 L284.236 211.659 L284.236 208.462 Z" fill="#000000" fill-rule="evenodd" fill-opacity="1" /><path clip-path="url(#clip410)" d="M325.143 206.581 Q322.585 206.581 321.081 208.33 Q319.595 210.079 319.595 213.126 Q319.595 216.154 321.081 217.922 Q322.585 219.671 325.143 219.671 Q327.701 219.671 329.187 217.922 Q330.691 216.154 330.691 213.126 Q330.691 210.079 329.187 208.33 Q327.701 206.581 325.143 206.581 M332.685 194.676 L332.685 198.136 Q331.256 197.459 329.789 197.102 Q328.34 196.745 326.911 196.745 Q323.149 196.745 321.156 199.284 Q319.181 201.823 318.899 206.957 Q320.008 205.321 321.682 204.456 Q323.356 203.572 325.369 203.572 Q329.6 203.572 332.045 206.149 Q334.509 208.706 334.509 213.126 Q334.509 217.452 331.951 220.066 Q329.394 222.681 325.143 222.681 Q320.272 222.681 317.695 218.957 Q315.118 215.214 315.118 208.123 Q315.118 201.465 318.278 197.516 Q321.438 193.547 326.76 193.547 Q328.19 193.547 329.638 193.829 Q331.105 194.112 332.685 194.676 Z" fill="#000000" fill-rule="evenodd" fill-opacity="1" /><path clip-path="url(#clip410)" d="M46.0847 1124.32 Q46.0847 1131.41 47.7079 1134.15 Q49.3312 1136.89 53.2461 1136.89 Q56.3653 1136.89 58.2114 1134.85 Q60.0256 1132.78 60.0256 1129.25 Q60.0256 1124.38 56.5881 1121.45 Q53.1188 1118.49 47.3897 1118.49 L46.0847 1118.49 L46.0847 1124.32 M43.6657 1112.63 L64.0042 1112.63 L64.0042 1118.49 L58.5933 1118.49 Q61.8398 1120.5 63.3994 1123.49 Q64.9272 1126.48 64.9272 1130.81 Q64.9272 1136.28 61.8716 1139.53 Q58.7843 1142.74 53.6281 1142.74 Q47.6125 1142.74 44.5569 1138.73 Q41.5014 1134.69 41.5014 1126.7 L41.5014 1118.49 L40.9285 1118.49 Q36.8862 1118.49 34.6901 1121.16 Q32.4621 1123.81 32.4621 1128.61 Q32.4621 1131.67 33.1941 1134.56 Q33.9262 1137.46 35.3903 1140.13 L29.9795 1140.13 Q28.7381 1136.92 28.1334 1133.9 Q27.4968 1130.87 27.4968 1128.01 Q27.4968 1120.27 31.5072 1116.45 Q35.5176 1112.63 43.6657 1112.63 Z" fill="#000000" fill-rule="evenodd" fill-opacity="1" /><path clip-path="url(#clip410)" d="M49.9359 1101.18 L28.3562 1101.18 L28.3562 1095.32 L49.7131 1095.32 Q54.7739 1095.32 57.3202 1093.35 Q59.8346 1091.37 59.8346 1087.43 Q59.8346 1082.68 56.8109 1079.95 Q53.7872 1077.18 48.5673 1077.18 L28.3562 1077.18 L28.3562 1071.32 L64.0042 1071.32 L64.0042 1077.18 L58.5296 1077.18 Q61.7762 1079.31 63.3676 1082.14 Q64.9272 1084.94 64.9272 1088.67 Q64.9272 1094.81 61.1078 1097.99 Q57.2883 1101.18 49.9359 1101.18 M27.4968 1086.44 L27.4968 1086.44 Z" fill="#000000" fill-rule="evenodd" fill-opacity="1" /><path clip-path="url(#clip410)" d="M18.2347 1053.47 L28.3562 1053.47 L28.3562 1041.4 L32.9077 1041.4 L32.9077 1053.47 L52.2594 1053.47 Q56.6199 1053.47 57.8613 1052.29 Q59.1026 1051.08 59.1026 1047.42 L59.1026 1041.4 L64.0042 1041.4 L64.0042 1047.42 Q64.0042 1054.2 61.4897 1056.78 Q58.9434 1059.35 52.2594 1059.35 L32.9077 1059.35 L32.9077 1063.65 L28.3562 1063.65 L28.3562 1059.35 L18.2347 1059.35 L18.2347 1053.47 Z" fill="#000000" fill-rule="evenodd" fill-opacity="1" /><path clip-path="url(#clip410)" d="M32.4621 1019.89 Q32.4621 1024.6 36.1542 1027.33 Q39.8145 1030.07 46.212 1030.07 Q52.6095 1030.07 56.3017 1027.37 Q59.9619 1024.63 59.9619 1019.89 Q59.9619 1015.21 56.2698 1012.47 Q52.5777 1009.73 46.212 1009.73 Q39.8781 1009.73 36.186 1012.47 Q32.4621 1015.21 32.4621 1019.89 M27.4968 1019.89 Q27.4968 1012.25 32.4621 1007.89 Q37.4273 1003.53 46.212 1003.53 Q54.9649 1003.53 59.9619 1007.89 Q64.9272 1012.25 64.9272 1019.89 Q64.9272 1027.56 59.9619 1031.92 Q54.9649 1036.25 46.212 1036.25 Q37.4273 1036.25 32.4621 1031.92 Q27.4968 1027.56 27.4968 1019.89 Z" fill="#000000" fill-rule="evenodd" fill-opacity="1" /><path clip-path="url(#clip410)" d="M29.7248 968.165 L35.1993 968.165 Q33.8307 970.648 33.1623 973.162 Q32.4621 975.645 32.4621 978.191 Q32.4621 983.888 36.0905 987.039 Q39.6872 990.19 46.212 990.19 Q52.7369 990.19 56.3653 987.039 Q59.9619 983.888 59.9619 978.191 Q59.9619 975.645 59.2935 973.162 Q58.5933 970.648 57.2247 968.165 L62.6355 968.165 Q63.7814 970.616 64.3543 973.258 Q64.9272 975.868 64.9272 978.828 Q64.9272 986.88 59.8664 991.623 Q54.8057 996.365 46.212 996.365 Q37.491 996.365 32.4939 991.591 Q27.4968 986.785 27.4968 978.446 Q27.4968 975.74 28.0697 973.162 Q28.6108 970.584 29.7248 968.165 Z" fill="#000000" fill-rule="evenodd" fill-opacity="1" /><path clip-path="url(#clip410)" d="M32.4621 944.166 Q32.4621 948.877 36.1542 951.614 Q39.8145 954.351 46.212 954.351 Q52.6095 954.351 56.3017 951.646 Q59.9619 948.909 59.9619 944.166 Q59.9619 939.487 56.2698 936.75 Q52.5777 934.013 46.212 934.013 Q39.8781 934.013 36.186 936.75 Q32.4621 939.487 32.4621 944.166 M27.4968 944.166 Q27.4968 936.527 32.4621 932.167 Q37.4273 927.806 46.212 927.806 Q54.9649 927.806 59.9619 932.167 Q64.9272 936.527 64.9272 944.166 Q64.9272 951.837 59.9619 956.197 Q54.9649 960.526 46.212 960.526 Q37.4273 960.526 32.4621 956.197 Q27.4968 951.837 27.4968 944.166 Z" fill="#000000" fill-rule="evenodd" fill-opacity="1" /><path clip-path="url(#clip410)" d="M42.4881 888.466 L64.0042 888.466 L64.0042 894.323 L42.679 894.323 Q37.6183 894.323 35.1038 896.296 Q32.5894 898.27 32.5894 902.216 Q32.5894 906.959 35.6131 909.696 Q38.6368 912.433 43.8567 912.433 L64.0042 912.433 L64.0042 918.322 L28.3562 918.322 L28.3562 912.433 L33.8944 912.433 Q30.6797 910.333 29.0883 907.5 Q27.4968 904.635 27.4968 900.911 Q27.4968 894.768 31.3163 891.617 Q35.1038 888.466 42.4881 888.466 Z" fill="#000000" fill-rule="evenodd" fill-opacity="1" /><path clip-path="url(#clip410)" d="M28.3562 880.987 L28.3562 874.78 L58.275 863.64 L28.3562 852.5 L28.3562 846.294 L64.0042 859.662 L64.0042 867.619 L28.3562 880.987 Z" fill="#000000" fill-rule="evenodd" fill-opacity="1" /><path clip-path="url(#clip410)" d="M44.7161 807.717 L47.5806 807.717 L47.5806 834.644 Q53.6281 834.262 56.8109 831.016 Q59.9619 827.738 59.9619 821.913 Q59.9619 818.539 59.1344 815.388 Q58.3069 812.205 56.6518 809.086 L62.1899 809.086 Q63.5267 812.237 64.227 815.547 Q64.9272 818.857 64.9272 822.263 Q64.9272 830.793 59.9619 835.79 Q54.9967 840.755 46.5303 840.755 Q37.7774 840.755 32.6531 836.045 Q27.4968 831.302 27.4968 823.282 Q27.4968 816.088 32.1438 811.919 Q36.7589 807.717 44.7161 807.717 M42.9973 813.574 Q38.1912 813.637 35.3266 816.279 Q32.4621 818.889 32.4621 823.218 Q32.4621 828.119 35.2312 831.08 Q38.0002 834.008 43.0292 834.453 L42.9973 813.574 Z" fill="#000000" fill-rule="evenodd" fill-opacity="1" /><path clip-path="url(#clip410)" d="M33.8307 777.448 Q33.2578 778.435 33.0032 779.613 Q32.7167 780.759 32.7167 782.159 Q32.7167 787.124 35.9632 789.798 Q39.1779 792.44 45.2253 792.44 L64.0042 792.44 L64.0042 798.328 L28.3562 798.328 L28.3562 792.44 L33.8944 792.44 Q30.6479 790.594 29.0883 787.634 Q27.4968 784.674 27.4968 780.44 Q27.4968 779.836 27.5923 779.104 Q27.656 778.371 27.8151 777.48 L33.8307 777.448 Z" fill="#000000" fill-rule="evenodd" fill-opacity="1" /><path clip-path="url(#clip410)" d="M29.4065 748.58 L34.9447 748.58 Q33.6716 751.063 33.035 753.736 Q32.3984 756.41 32.3984 759.274 Q32.3984 763.635 33.7352 765.831 Q35.072 767.995 37.7456 767.995 Q39.7826 767.995 40.9603 766.436 Q42.1061 764.876 43.1565 760.166 L43.6021 758.16 Q44.9389 751.922 47.3897 749.312 Q49.8086 746.67 54.1691 746.67 Q59.1344 746.67 62.0308 750.617 Q64.9272 754.532 64.9272 761.407 Q64.9272 764.271 64.3543 767.391 Q63.8132 770.478 62.6992 773.915 L56.6518 773.915 Q58.3387 770.669 59.198 767.518 Q60.0256 764.367 60.0256 761.28 Q60.0256 757.142 58.6251 754.914 Q57.1929 752.686 54.6147 752.686 Q52.2276 752.686 50.9545 754.309 Q49.6813 755.901 48.5037 761.343 L48.0262 763.38 Q46.8804 768.823 44.5251 771.242 Q42.138 773.661 38.0002 773.661 Q32.9713 773.661 30.2341 770.096 Q27.4968 766.531 27.4968 759.975 Q27.4968 756.728 27.9743 753.863 Q28.4517 750.999 29.4065 748.58 Z" fill="#000000" fill-rule="evenodd" fill-opacity="1" /><path clip-path="url(#clip410)" d="M28.3562 737.344 L28.3562 731.488 L64.0042 731.488 L64.0042 737.344 L28.3562 737.344 M14.479 737.344 L14.479 731.488 L21.895 731.488 L21.895 737.344 L14.479 737.344 Z" fill="#000000" fill-rule="evenodd" fill-opacity="1" /><path clip-path="url(#clip410)" d="M32.4621 705.42 Q32.4621 710.131 36.1542 712.868 Q39.8145 715.606 46.212 715.606 Q52.6095 715.606 56.3017 712.9 Q59.9619 710.163 59.9619 705.42 Q59.9619 700.742 56.2698 698.004 Q52.5777 695.267 46.212 695.267 Q39.8781 695.267 36.186 698.004 Q32.4621 700.742 32.4621 705.42 M27.4968 705.42 Q27.4968 697.782 32.4621 693.421 Q37.4273 689.061 46.212 689.061 Q54.9649 689.061 59.9619 693.421 Q64.9272 697.782 64.9272 705.42 Q64.9272 713.091 59.9619 717.452 Q54.9649 721.78 46.212 721.78 Q37.4273 721.78 32.4621 717.452 Q27.4968 713.091 27.4968 705.42 Z" fill="#000000" fill-rule="evenodd" fill-opacity="1" /><path clip-path="url(#clip410)" d="M42.4881 649.721 L64.0042 649.721 L64.0042 655.577 L42.679 655.577 Q37.6183 655.577 35.1038 657.55 Q32.5894 659.524 32.5894 663.47 Q32.5894 668.213 35.6131 670.95 Q38.6368 673.687 43.8567 673.687 L64.0042 673.687 L64.0042 679.576 L28.3562 679.576 L28.3562 673.687 L33.8944 673.687 Q30.6797 671.587 29.0883 668.754 Q27.4968 665.889 27.4968 662.165 Q27.4968 656.023 31.3163 652.872 Q35.1038 649.721 42.4881 649.721 Z" fill="#000000" fill-rule="evenodd" fill-opacity="1" /><path clip-path="url(#clip410)" d="M33.8307 596.662 Q33.2578 597.649 33.0032 598.827 Q32.7167 599.973 32.7167 601.373 Q32.7167 606.338 35.9632 609.012 Q39.1779 611.654 45.2253 611.654 L64.0042 611.654 L64.0042 617.542 L28.3562 617.542 L28.3562 611.654 L33.8944 611.654 Q30.6479 609.808 29.0883 606.847 Q27.4968 603.887 27.4968 599.654 Q27.4968 599.05 27.5923 598.317 Q27.656 597.585 27.8151 596.694 L33.8307 596.662 Z" fill="#000000" fill-rule="evenodd" fill-opacity="1" /><path clip-path="url(#clip410)" d="M46.0847 574.319 Q46.0847 581.416 47.7079 584.154 Q49.3312 586.891 53.2461 586.891 Q56.3653 586.891 58.2114 584.854 Q60.0256 582.785 60.0256 579.252 Q60.0256 574.382 56.5881 571.454 Q53.1188 568.494 47.3897 568.494 L46.0847 568.494 L46.0847 574.319 M43.6657 562.638 L64.0042 562.638 L64.0042 568.494 L58.5933 568.494 Q61.8398 570.499 63.3994 573.491 Q64.9272 576.483 64.9272 580.812 Q64.9272 586.286 61.8716 589.533 Q58.7843 592.747 53.6281 592.747 Q47.6125 592.747 44.5569 588.737 Q41.5014 584.695 41.5014 576.706 L41.5014 568.494 L40.9285 568.494 Q36.8862 568.494 34.6901 571.168 Q32.4621 573.809 32.4621 578.616 Q32.4621 581.671 33.1941 584.568 Q33.9262 587.464 35.3903 590.138 L29.9795 590.138 Q28.7381 586.923 28.1334 583.899 Q27.4968 580.875 27.4968 578.011 Q27.4968 570.277 31.5072 566.457 Q35.5176 562.638 43.6657 562.638 Z" fill="#000000" fill-rule="evenodd" fill-opacity="1" /><path clip-path="url(#clip410)" d="M18.2347 544.782 L28.3562 544.782 L28.3562 532.719 L32.9077 532.719 L32.9077 544.782 L52.2594 544.782 Q56.6199 544.782 57.8613 543.604 Q59.1026 542.395 59.1026 538.734 L59.1026 532.719 L64.0042 532.719 L64.0042 538.734 Q64.0042 545.514 61.4897 548.092 Q58.9434 550.67 52.2594 550.67 L32.9077 550.67 L32.9077 554.967 L28.3562 554.967 L28.3562 550.67 L18.2347 550.67 L18.2347 544.782 Z" fill="#000000" fill-rule="evenodd" fill-opacity="1" /><path clip-path="url(#clip410)" d="M44.7161 494.525 L47.5806 494.525 L47.5806 521.452 Q53.6281 521.07 56.8109 517.823 Q59.9619 514.545 59.9619 508.72 Q59.9619 505.346 59.1344 502.195 Q58.3069 499.012 56.6518 495.893 L62.1899 495.893 Q63.5267 499.044 64.227 502.354 Q64.9272 505.665 64.9272 509.07 Q64.9272 517.6 59.9619 522.597 Q54.9967 527.563 46.5303 527.563 Q37.7774 527.563 32.6531 522.852 Q27.4968 518.11 27.4968 510.089 Q27.4968 502.896 32.1438 498.726 Q36.7589 494.525 44.7161 494.525 M42.9973 500.381 Q38.1912 500.445 35.3266 503.086 Q32.4621 505.696 32.4621 510.025 Q32.4621 514.927 35.2312 517.887 Q38.0002 520.815 43.0292 521.261 L42.9973 500.381 Z" fill="#000000" fill-rule="evenodd" fill-opacity="1" /><path clip-path="url(#clip410)" d="M14.479 464.733 L14.479 451.238 L19.0304 451.238 L19.0304 458.877 L68.0464 458.877 L68.0464 451.238 L72.5979 451.238 L72.5979 464.733 L14.479 464.733 Z" fill="#000000" fill-rule="evenodd" fill-opacity="1" /><path clip-path="url(#clip410)" d="M58.5933 436.819 L58.5933 426.316 L22.3406 426.316 L24.6323 437.742 L18.7758 437.742 L16.4842 426.38 L16.4842 419.95 L58.5933 419.95 L58.5933 409.447 L64.0042 409.447 L64.0042 436.819 L58.5933 436.819 Z" fill="#000000" fill-rule="evenodd" fill-opacity="1" /><path clip-path="url(#clip410)" d="M16.4842 386.881 L16.4842 381.47 L70.0516 398.02 L70.0516 403.431 L16.4842 386.881 Z" fill="#000000" fill-rule="evenodd" fill-opacity="1" /><path clip-path="url(#clip410)" d="M29.4065 352.601 L34.9447 352.601 Q33.6716 355.084 33.035 357.757 Q32.3984 360.431 32.3984 363.296 Q32.3984 367.656 33.7352 369.852 Q35.072 372.017 37.7456 372.017 Q39.7826 372.017 40.9603 370.457 Q42.1061 368.897 43.1565 364.187 L43.6021 362.182 Q44.9389 355.943 47.3897 353.333 Q49.8086 350.691 54.1691 350.691 Q59.1344 350.691 62.0308 354.638 Q64.9272 358.553 64.9272 365.428 Q64.9272 368.293 64.3543 371.412 Q63.8132 374.499 62.6992 377.937 L56.6518 377.937 Q58.3387 374.69 59.198 371.539 Q60.0256 368.388 60.0256 365.301 Q60.0256 361.163 58.6251 358.935 Q57.1929 356.707 54.6147 356.707 Q52.2276 356.707 50.9545 358.33 Q49.6813 359.922 48.5037 365.364 L48.0262 367.401 Q46.8804 372.844 44.5251 375.263 Q42.138 377.682 38.0002 377.682 Q32.9713 377.682 30.2341 374.117 Q27.4968 370.552 27.4968 363.996 Q27.4968 360.749 27.9743 357.885 Q28.4517 355.02 29.4065 352.601 Z" fill="#000000" fill-rule="evenodd" fill-opacity="1" /><path clip-path="url(#clip410)" d="M14.479 327.679 L72.5979 327.679 L72.5979 341.175 L68.0464 341.175 L68.0464 333.568 L19.0304 333.568 L19.0304 341.175 L14.479 341.175 L14.479 327.679 Z" fill="#000000" fill-rule="evenodd" fill-opacity="1" /><polyline clip-path="url(#clip412)" style="stroke:#009af9; stroke-linecap:butt; stroke-linejoin:round; stroke-width:12; stroke-opacity:1; fill:none" points="
  426.611,1384.24 445.5,1384.24 464.389,1384.24 483.279,1384.24 502.168,1384.24 521.057,1384.24 539.947,1384.24 558.836,1384.24 577.725,1384.24 596.615,1384.24 
  615.504,1383.26 634.393,1373.51 653.283,1363.76 672.172,1354.01 691.061,1344.26 709.951,1334.51 728.84,1324.76 747.729,1315 766.619,1305.25 785.508,1295.5 
  804.397,1285.75 823.287,1276 842.176,1266.25 861.065,1256.5 879.955,1246.75 898.844,1237 917.733,1227.25 936.623,1217.49 955.512,1207.74 974.401,1197.99 
  993.291,1188.24 1012.18,1178.49 1031.07,1168.74 1049.96,1158.99 1068.85,1149.24 1087.74,1139.49 1106.63,1129.74 1125.52,1119.98 1144.41,1110.23 1163.29,1100.48 
  1182.18,1090.73 1201.07,1080.98 1219.96,1071.23 1238.85,1061.48 1257.74,1051.73 1276.63,1041.98 1295.52,1032.23 1314.41,1022.47 1333.3,1012.72 1352.19,1002.97 
  1371.08,993.222 1389.97,983.471 1408.86,973.72 1427.75,963.969 1446.63,954.218 1465.52,944.467 1484.41,934.716 1503.3,924.965 1522.19,915.214 1541.08,905.463 
  1559.97,895.712 1578.86,885.961 1597.75,876.21 1616.64,866.459 1635.53,856.708 1654.42,846.957 1673.31,837.206 1692.2,827.455 1711.09,817.704 1729.97,807.953 
  1748.86,798.202 1767.75,788.451 1786.64,778.7 1805.53,768.949 1824.42,759.198 1843.31,749.447 1862.2,739.696 1881.09,729.945 1899.98,720.194 1918.87,710.443 
  1937.76,700.692 1956.65,690.941 1975.54,681.19 1994.43,671.439 2013.31,661.688 2032.2,651.937 2051.09,642.186 2069.98,632.435 2088.87,622.684 2107.76,612.933 
  2126.65,603.182 2145.54,593.431 2164.43,583.68 2183.32,573.929 2202.21,564.178 2221.1,554.427 2239.99,544.676 2258.88,534.925 2277.77,525.174 2296.65,515.423 
  
  "/>
<polyline clip-path="url(#clip412)" style="stroke:#e26f46; stroke-linecap:butt; stroke-linejoin:round; stroke-width:12; stroke-opacity:1; fill:none" points="
  426.611,1384.06 445.5,1264 464.389,1212.02 483.279,1172.46 502.168,1139.4 521.057,1110.52 539.947,1084.64 558.836,1061.06 577.725,1039.32 596.615,1019.08 
  615.504,1000.12 634.393,982.256 653.283,965.351 672.172,949.294 691.061,933.994 709.951,919.376 728.84,905.379 747.729,891.95 766.619,879.043 785.508,866.618 
  804.397,854.642 823.287,843.085 842.176,831.919 861.065,821.121 879.955,810.67 898.844,800.547 917.733,790.735 936.623,781.217 955.512,771.98 974.401,763.011 
  993.291,754.297 1012.18,745.828 1031.07,737.593 1049.96,729.584 1068.85,721.791 1087.74,714.206 1106.63,706.823 1125.52,699.633 1144.41,692.631 1163.29,685.81 
  1182.18,679.164 1201.07,672.688 1219.96,666.377 1238.85,660.226 1257.74,654.23 1276.63,648.386 1295.52,642.688 1314.41,637.134 1333.3,631.719 1352.19,626.44 
  1371.08,621.294 1389.97,616.278 1408.86,611.388 1427.75,606.621 1446.63,601.975 1465.52,597.448 1484.41,593.036 1503.3,588.737 1522.19,584.549 1541.08,580.47 
  1559.97,576.498 1578.86,572.63 1597.75,568.864 1616.64,565.2 1635.53,561.634 1654.42,558.165 1673.31,554.791 1692.2,551.511 1711.09,548.324 1729.97,545.226 
  1748.86,542.218 1767.75,539.298 1786.64,536.464 1805.53,533.715 1824.42,531.05 1843.31,528.467 1862.2,525.965 1881.09,523.543 1899.98,521.201 1918.87,518.936 
  1937.76,516.747 1956.65,514.635 1975.54,512.597 1994.43,510.633 2013.31,508.741 2032.2,506.922 2051.09,505.173 2069.98,503.494 2088.87,501.884 2107.76,500.343 
  2126.65,498.869 2145.54,497.462 2164.43,496.121 2183.32,494.845 2202.21,493.633 2221.1,492.485 2239.99,491.4 2258.88,490.377 2277.77,489.416 2296.65,488.516 
  
  "/>
<polyline clip-path="url(#clip412)" style="stroke:#3da44d; stroke-linecap:butt; stroke-linejoin:round; stroke-width:12; stroke-opacity:1; fill:none" points="
  426.611,1384.02 445.5,1238.56 464.389,1175.56 483.279,1127.58 502.168,1087.46 521.057,1052.4 539.947,1020.98 558.836,992.33 577.725,965.894 596.615,941.282 
  615.504,918.21 634.393,896.461 653.283,875.867 672.172,856.296 691.061,837.637 709.951,819.801 728.84,802.711 747.729,786.305 766.619,770.528 785.508,755.331 
  804.397,740.674 823.287,726.519 842.176,712.836 861.065,699.595 879.955,686.77 898.844,674.339 917.733,662.281 936.623,650.576 955.512,639.208 974.401,628.161 
  993.291,617.421 1012.18,606.974 1031.07,596.808 1049.96,586.912 1068.85,577.275 1087.74,567.887 1106.63,558.741 1125.52,549.826 1144.41,541.135 1163.29,532.661 
  1182.18,524.396 1201.07,516.335 1219.96,508.471 1238.85,500.798 1257.74,493.31 1276.63,486.004 1295.52,478.872 1314.41,471.912 1333.3,465.118 1352.19,458.487 
  1371.08,452.013 1389.97,445.694 1408.86,439.526 1427.75,433.505 1446.63,427.629 1465.52,421.893 1484.41,416.295 1503.3,410.832 1522.19,405.5 1541.08,400.299 
  1559.97,395.224 1578.86,390.274 1597.75,385.445 1616.64,380.737 1635.53,376.146 1654.42,371.67 1673.31,367.308 1692.2,363.057 1711.09,358.915 1729.97,354.882 
  1748.86,350.954 1767.75,347.13 1786.64,343.409 1805.53,339.789 1824.42,336.268 1843.31,332.846 1862.2,329.519 1881.09,326.288 1899.98,323.15 1918.87,320.104 
  1937.76,317.15 1956.65,314.285 1975.54,311.509 1994.43,308.82 2013.31,306.218 2032.2,303.7 2051.09,301.267 2069.98,298.916 2088.87,296.648 2107.76,294.46 
  2126.65,292.352 2145.54,290.323 2164.43,288.373 2183.32,286.499 2202.21,284.702 2221.1,282.98 2239.99,281.333 2258.88,279.759 2277.77,278.258 2296.65,276.83 
  
  "/>
<polyline clip-path="url(#clip412)" style="stroke:#c271d2; stroke-linecap:butt; stroke-linejoin:round; stroke-width:12; stroke-opacity:1; fill:none" points="
  426.611,1383.98 445.5,1215.58 464.389,1142.63 483.279,1087.05 502.168,1040.57 521.057,999.936 539.947,963.503 558.836,930.276 577.725,899.608 596.615,871.047 
  615.504,844.263 634.393,819.008 653.283,795.087 672.172,772.345 691.061,750.656 709.951,729.916 728.84,710.037 747.729,690.947 766.619,672.58 785.508,654.883 
  804.397,637.808 823.287,621.312 842.176,605.359 861.065,589.915 879.955,574.951 898.844,560.439 917.733,546.357 936.623,532.682 955.512,519.394 974.401,506.475 
  993.291,493.909 1012.18,481.68 1031.07,469.775 1049.96,458.179 1068.85,446.881 1087.74,435.87 1106.63,425.136 1125.52,414.668 1144.41,404.457 1163.29,394.495 
  1182.18,384.774 1201.07,375.286 1219.96,366.024 1238.85,356.982 1257.74,348.153 1276.63,339.53 1295.52,331.109 1314.41,322.885 1333.3,314.851 1352.19,307.003 
  1371.08,299.337 1389.97,291.847 1408.86,284.531 1427.75,277.383 1446.63,270.4 1465.52,263.579 1484.41,256.916 1503.3,250.407 1522.19,244.049 1541.08,237.839 
  1559.97,231.775 1578.86,225.853 1597.75,220.071 1616.64,214.426 1635.53,208.915 1654.42,203.537 1673.31,198.288 1692.2,193.167 1711.09,188.171 1729.97,183.298 
  1748.86,178.546 1767.75,173.913 1786.64,169.397 1805.53,164.997 1824.42,160.711 1843.31,156.536 1862.2,152.472 1881.09,148.516 1899.98,144.667 1918.87,140.923 
  1937.76,137.284 1956.65,133.747 1975.54,130.311 1994.43,126.975 2013.31,123.737 2032.2,120.596 2051.09,117.552 2069.98,114.602 2088.87,111.745 2107.76,108.981 
  2126.65,106.308 2145.54,103.726 2164.43,101.232 2183.32,98.8264 2202.21,96.5077 2221.1,94.2751 2239.99,92.1275 2258.88,90.064 2277.77,88.0837 2296.65,86.1857 
  
  "/>
<path clip-path="url(#clip410)" d="
M1749.93 352.309 L2286.68 352.309 L2286.68 93.1086 L1749.93 93.1086  Z
  " fill="#ffffff" fill-rule="evenodd" fill-opacity="1"/>
<polyline clip-path="url(#clip410)" style="stroke:#000000; stroke-linecap:butt; stroke-linejoin:round; stroke-width:4; stroke-opacity:1; fill:none" points="
  1749.93,352.309 2286.68,352.309 2286.68,93.1086 1749.93,93.1086 1749.93,352.309 
  "/>
<polyline clip-path="url(#clip410)" style="stroke:#009af9; stroke-linecap:butt; stroke-linejoin:round; stroke-width:4; stroke-opacity:1; fill:none" points="
  1771.95,144.949 1904.1,144.949 
  "/>
<path clip-path="url(#clip410)" d="M1942.52 146.025 Q1944.02 146.534 1945.43 148.201 Q1946.87 149.868 1948.3 152.784 L1953.05 162.229 L1948.03 162.229 L1943.6 153.363 Q1941.89 149.891 1940.27 148.756 Q1938.67 147.622 1935.9 147.622 L1930.8 147.622 L1930.8 162.229 L1926.13 162.229 L1926.13 127.669 L1936.68 127.669 Q1942.61 127.669 1945.53 130.145 Q1948.44 132.622 1948.44 137.622 Q1948.44 140.886 1946.92 143.039 Q1945.41 145.192 1942.52 146.025 M1930.8 131.511 L1930.8 143.78 L1936.68 143.78 Q1940.06 143.78 1941.78 142.229 Q1943.51 140.655 1943.51 137.622 Q1943.51 134.59 1941.78 133.062 Q1940.06 131.511 1936.68 131.511 L1930.8 131.511 Z" fill="#000000" fill-rule="evenodd" fill-opacity="1" /><path clip-path="url(#clip410)" d="M1969.62 149.196 Q1964.46 149.196 1962.47 150.377 Q1960.48 151.557 1960.48 154.405 Q1960.48 156.673 1961.96 158.016 Q1963.47 159.335 1966.04 159.335 Q1969.58 159.335 1971.71 156.835 Q1973.86 154.312 1973.86 150.145 L1973.86 149.196 L1969.62 149.196 M1978.12 147.437 L1978.12 162.229 L1973.86 162.229 L1973.86 158.293 Q1972.4 160.655 1970.23 161.789 Q1968.05 162.9 1964.9 162.9 Q1960.92 162.9 1958.56 160.678 Q1956.22 158.432 1956.22 154.682 Q1956.22 150.307 1959.14 148.085 Q1962.08 145.863 1967.89 145.863 L1973.86 145.863 L1973.86 145.446 Q1973.86 142.507 1971.91 140.909 Q1969.99 139.289 1966.5 139.289 Q1964.28 139.289 1962.17 139.821 Q1960.06 140.354 1958.12 141.419 L1958.12 137.483 Q1960.46 136.581 1962.66 136.141 Q1964.85 135.678 1966.94 135.678 Q1972.56 135.678 1975.34 138.594 Q1978.12 141.511 1978.12 147.437 Z" fill="#000000" fill-rule="evenodd" fill-opacity="1" /><path clip-path="url(#clip410)" d="M1986.89 136.303 L1991.15 136.303 L1991.15 162.229 L1986.89 162.229 L1986.89 136.303 M1986.89 126.21 L1991.15 126.21 L1991.15 131.604 L1986.89 131.604 L1986.89 126.21 Z" fill="#000000" fill-rule="evenodd" fill-opacity="1" /><path clip-path="url(#clip410)" d="M2021.61 146.581 L2021.61 162.229 L2017.35 162.229 L2017.35 146.719 Q2017.35 143.039 2015.92 141.21 Q2014.48 139.382 2011.61 139.382 Q2008.16 139.382 2006.17 141.581 Q2004.18 143.78 2004.18 147.576 L2004.18 162.229 L1999.9 162.229 L1999.9 136.303 L2004.18 136.303 L2004.18 140.331 Q2005.71 137.993 2007.77 136.835 Q2009.85 135.678 2012.56 135.678 Q2017.03 135.678 2019.32 138.456 Q2021.61 141.21 2021.61 146.581 Z" fill="#000000" fill-rule="evenodd" fill-opacity="1" /><polyline clip-path="url(#clip410)" style="stroke:#e26f46; stroke-linecap:butt; stroke-linejoin:round; stroke-width:4; stroke-opacity:1; fill:none" points="
  1771.95,196.789 1904.1,196.789 
  "/>
<path clip-path="url(#clip410)" d="M1948.37 180.643 L1948.37 185.203 Q1945.71 183.93 1943.35 183.305 Q1940.99 182.68 1938.79 182.68 Q1934.97 182.68 1932.89 184.161 Q1930.83 185.643 1930.83 188.374 Q1930.83 190.666 1932.19 191.847 Q1933.58 193.004 1937.42 193.722 L1940.25 194.3 Q1945.48 195.296 1947.96 197.819 Q1950.46 200.319 1950.46 204.532 Q1950.46 209.555 1947.08 212.147 Q1943.72 214.74 1937.22 214.74 Q1934.76 214.74 1931.98 214.184 Q1929.23 213.629 1926.27 212.541 L1926.27 207.726 Q1929.11 209.323 1931.85 210.133 Q1934.58 210.944 1937.22 210.944 Q1941.22 210.944 1943.4 209.37 Q1945.57 207.796 1945.57 204.879 Q1945.57 202.333 1944 200.897 Q1942.45 199.462 1938.88 198.745 L1936.04 198.189 Q1930.8 197.147 1928.47 194.925 Q1926.13 192.703 1926.13 188.745 Q1926.13 184.161 1929.35 181.522 Q1932.59 178.884 1938.26 178.884 Q1940.69 178.884 1943.21 179.323 Q1945.73 179.763 1948.37 180.643 Z" fill="#000000" fill-rule="evenodd" fill-opacity="1" /><path clip-path="url(#clip410)" d="M1979.11 198.421 L1979.11 214.069 L1974.85 214.069 L1974.85 198.559 Q1974.85 194.879 1973.42 193.05 Q1971.98 191.222 1969.11 191.222 Q1965.66 191.222 1963.67 193.421 Q1961.68 195.62 1961.68 199.416 L1961.68 214.069 L1957.4 214.069 L1957.4 188.143 L1961.68 188.143 L1961.68 192.171 Q1963.21 189.833 1965.27 188.675 Q1967.35 187.518 1970.06 187.518 Q1974.53 187.518 1976.82 190.296 Q1979.11 193.05 1979.11 198.421 Z" fill="#000000" fill-rule="evenodd" fill-opacity="1" /><path clip-path="url(#clip410)" d="M1997.66 191.129 Q1994.23 191.129 1992.24 193.814 Q1990.25 196.476 1990.25 201.129 Q1990.25 205.782 1992.22 208.467 Q1994.21 211.129 1997.66 211.129 Q2001.06 211.129 2003.05 208.444 Q2005.04 205.758 2005.04 201.129 Q2005.04 196.522 2003.05 193.837 Q2001.06 191.129 1997.66 191.129 M1997.66 187.518 Q2003.21 187.518 2006.38 191.129 Q2009.55 194.74 2009.55 201.129 Q2009.55 207.495 2006.38 211.129 Q2003.21 214.74 1997.66 214.74 Q1992.08 214.74 1988.91 211.129 Q1985.76 207.495 1985.76 201.129 Q1985.76 194.74 1988.91 191.129 Q1992.08 187.518 1997.66 187.518 Z" fill="#000000" fill-rule="evenodd" fill-opacity="1" /><path clip-path="url(#clip410)" d="M2014.14 188.143 L2018.4 188.143 L2023.72 208.374 L2029.02 188.143 L2034.04 188.143 L2039.37 208.374 L2044.67 188.143 L2048.93 188.143 L2042.15 214.069 L2037.12 214.069 L2031.54 192.819 L2025.94 214.069 L2020.92 214.069 L2014.14 188.143 Z" fill="#000000" fill-rule="evenodd" fill-opacity="1" /><path clip-path="url(#clip410)" d="M2065.85 179.509 L2095.09 179.509 L2095.09 183.444 L2082.82 183.444 L2082.82 214.069 L2078.12 214.069 L2078.12 183.444 L2065.85 183.444 L2065.85 179.509 Z" fill="#000000" fill-rule="evenodd" fill-opacity="1" /><path clip-path="url(#clip410)" d="M2099.97 192.541 L2129.65 192.541 L2129.65 196.43 L2099.97 196.43 L2099.97 192.541 M2099.97 201.985 L2129.65 201.985 L2129.65 205.921 L2099.97 205.921 L2099.97 201.985 Z" fill="#000000" fill-rule="evenodd" fill-opacity="1" /><path clip-path="url(#clip410)" d="M2136.98 199.184 L2149.46 199.184 L2149.46 202.981 L2136.98 202.981 L2136.98 199.184 Z" fill="#000000" fill-rule="evenodd" fill-opacity="1" /><path clip-path="url(#clip410)" d="M2156.89 179.509 L2175.25 179.509 L2175.25 183.444 L2161.17 183.444 L2161.17 191.916 Q2162.19 191.569 2163.21 191.407 Q2164.23 191.222 2165.25 191.222 Q2171.03 191.222 2174.41 194.393 Q2177.79 197.564 2177.79 202.981 Q2177.79 208.559 2174.32 211.661 Q2170.85 214.74 2164.53 214.74 Q2162.35 214.74 2160.09 214.37 Q2157.84 213.999 2155.43 213.258 L2155.43 208.559 Q2157.52 209.694 2159.74 210.249 Q2161.96 210.805 2164.44 210.805 Q2168.44 210.805 2170.78 208.698 Q2173.12 206.592 2173.12 202.981 Q2173.12 199.37 2170.78 197.263 Q2168.44 195.157 2164.44 195.157 Q2162.56 195.157 2160.69 195.573 Q2158.84 195.99 2156.89 196.87 L2156.89 179.509 Z" fill="#000000" fill-rule="evenodd" fill-opacity="1" /><path clip-path="url(#clip410)" d="M2212.47 182.171 L2212.47 187.101 Q2210.11 184.902 2207.42 183.814 Q2204.76 182.726 2201.75 182.726 Q2195.83 182.726 2192.68 186.36 Q2189.53 189.972 2189.53 196.823 Q2189.53 203.652 2192.68 207.286 Q2195.83 210.897 2201.75 210.897 Q2204.76 210.897 2207.42 209.809 Q2210.11 208.721 2212.47 206.522 L2212.47 211.407 Q2210.02 213.073 2207.26 213.907 Q2204.53 214.74 2201.47 214.74 Q2193.63 214.74 2189.11 209.948 Q2184.6 205.133 2184.6 196.823 Q2184.6 188.49 2189.11 183.698 Q2193.63 178.884 2201.47 178.884 Q2204.58 178.884 2207.31 179.717 Q2210.06 180.527 2212.47 182.171 Z" fill="#000000" fill-rule="evenodd" fill-opacity="1" /><polyline clip-path="url(#clip410)" style="stroke:#3da44d; stroke-linecap:butt; stroke-linejoin:round; stroke-width:4; stroke-opacity:1; fill:none" points="
  1771.95,248.629 1904.1,248.629 
  "/>
<path clip-path="url(#clip410)" d="M1948.37 232.483 L1948.37 237.043 Q1945.71 235.77 1943.35 235.145 Q1940.99 234.52 1938.79 234.52 Q1934.97 234.52 1932.89 236.001 Q1930.83 237.483 1930.83 240.214 Q1930.83 242.506 1932.19 243.687 Q1933.58 244.844 1937.42 245.562 L1940.25 246.14 Q1945.48 247.136 1947.96 249.659 Q1950.46 252.159 1950.46 256.372 Q1950.46 261.395 1947.08 263.987 Q1943.72 266.58 1937.22 266.58 Q1934.76 266.58 1931.98 266.024 Q1929.23 265.469 1926.27 264.381 L1926.27 259.566 Q1929.11 261.163 1931.85 261.973 Q1934.58 262.784 1937.22 262.784 Q1941.22 262.784 1943.4 261.21 Q1945.57 259.636 1945.57 256.719 Q1945.57 254.173 1944 252.737 Q1942.45 251.302 1938.88 250.585 L1936.04 250.029 Q1930.8 248.987 1928.47 246.765 Q1926.13 244.543 1926.13 240.585 Q1926.13 236.001 1929.35 233.362 Q1932.59 230.724 1938.26 230.724 Q1940.69 230.724 1943.21 231.163 Q1945.73 231.603 1948.37 232.483 Z" fill="#000000" fill-rule="evenodd" fill-opacity="1" /><path clip-path="url(#clip410)" d="M1979.11 250.261 L1979.11 265.909 L1974.85 265.909 L1974.85 250.399 Q1974.85 246.719 1973.42 244.89 Q1971.98 243.062 1969.11 243.062 Q1965.66 243.062 1963.67 245.261 Q1961.68 247.46 1961.68 251.256 L1961.68 265.909 L1957.4 265.909 L1957.4 239.983 L1961.68 239.983 L1961.68 244.011 Q1963.21 241.673 1965.27 240.515 Q1967.35 239.358 1970.06 239.358 Q1974.53 239.358 1976.82 242.136 Q1979.11 244.89 1979.11 250.261 Z" fill="#000000" fill-rule="evenodd" fill-opacity="1" /><path clip-path="url(#clip410)" d="M1997.66 242.969 Q1994.23 242.969 1992.24 245.654 Q1990.25 248.316 1990.25 252.969 Q1990.25 257.622 1992.22 260.307 Q1994.21 262.969 1997.66 262.969 Q2001.06 262.969 2003.05 260.284 Q2005.04 257.598 2005.04 252.969 Q2005.04 248.362 2003.05 245.677 Q2001.06 242.969 1997.66 242.969 M1997.66 239.358 Q2003.21 239.358 2006.38 242.969 Q2009.55 246.58 2009.55 252.969 Q2009.55 259.335 2006.38 262.969 Q2003.21 266.58 1997.66 266.58 Q1992.08 266.58 1988.91 262.969 Q1985.76 259.335 1985.76 252.969 Q1985.76 246.58 1988.91 242.969 Q1992.08 239.358 1997.66 239.358 Z" fill="#000000" fill-rule="evenodd" fill-opacity="1" /><path clip-path="url(#clip410)" d="M2014.14 239.983 L2018.4 239.983 L2023.72 260.214 L2029.02 239.983 L2034.04 239.983 L2039.37 260.214 L2044.67 239.983 L2048.93 239.983 L2042.15 265.909 L2037.12 265.909 L2031.54 244.659 L2025.94 265.909 L2020.92 265.909 L2014.14 239.983 Z" fill="#000000" fill-rule="evenodd" fill-opacity="1" /><path clip-path="url(#clip410)" d="M2065.85 231.349 L2095.09 231.349 L2095.09 235.284 L2082.82 235.284 L2082.82 265.909 L2078.12 265.909 L2078.12 235.284 L2065.85 235.284 L2065.85 231.349 Z" fill="#000000" fill-rule="evenodd" fill-opacity="1" /><path clip-path="url(#clip410)" d="M2099.97 244.381 L2129.65 244.381 L2129.65 248.27 L2099.97 248.27 L2099.97 244.381 M2099.97 253.825 L2129.65 253.825 L2129.65 257.761 L2099.97 257.761 L2099.97 253.825 Z" fill="#000000" fill-rule="evenodd" fill-opacity="1" /><path clip-path="url(#clip410)" d="M2136.98 251.024 L2149.46 251.024 L2149.46 254.821 L2136.98 254.821 L2136.98 251.024 Z" fill="#000000" fill-rule="evenodd" fill-opacity="1" /><path clip-path="url(#clip410)" d="M2157.65 261.973 L2165.29 261.973 L2165.29 235.608 L2156.98 237.275 L2156.98 233.015 L2165.25 231.349 L2169.92 231.349 L2169.92 261.973 L2177.56 261.973 L2177.56 265.909 L2157.65 265.909 L2157.65 261.973 Z" fill="#000000" fill-rule="evenodd" fill-opacity="1" /><path clip-path="url(#clip410)" d="M2187.05 231.349 L2205.41 231.349 L2205.41 235.284 L2191.34 235.284 L2191.34 243.756 Q2192.35 243.409 2193.37 243.247 Q2194.39 243.062 2195.41 243.062 Q2201.2 243.062 2204.58 246.233 Q2207.96 249.404 2207.96 254.821 Q2207.96 260.399 2204.48 263.501 Q2201.01 266.58 2194.69 266.58 Q2192.52 266.58 2190.25 266.21 Q2188 265.839 2185.59 265.098 L2185.59 260.399 Q2187.68 261.534 2189.9 262.089 Q2192.12 262.645 2194.6 262.645 Q2198.6 262.645 2200.94 260.538 Q2203.28 258.432 2203.28 254.821 Q2203.28 251.21 2200.94 249.103 Q2198.6 246.997 2194.6 246.997 Q2192.72 246.997 2190.85 247.413 Q2189 247.83 2187.05 248.71 L2187.05 231.349 Z" fill="#000000" fill-rule="evenodd" fill-opacity="1" /><path clip-path="url(#clip410)" d="M2242.63 234.011 L2242.63 238.941 Q2240.27 236.742 2237.58 235.654 Q2234.92 234.566 2231.91 234.566 Q2225.99 234.566 2222.84 238.2 Q2219.69 241.812 2219.69 248.663 Q2219.69 255.492 2222.84 259.126 Q2225.99 262.737 2231.91 262.737 Q2234.92 262.737 2237.58 261.649 Q2240.27 260.561 2242.63 258.362 L2242.63 263.247 Q2240.18 264.913 2237.42 265.747 Q2234.69 266.58 2231.64 266.58 Q2223.79 266.58 2219.27 261.788 Q2214.76 256.973 2214.76 248.663 Q2214.76 240.33 2219.27 235.538 Q2223.79 230.724 2231.64 230.724 Q2234.74 230.724 2237.47 231.557 Q2240.22 232.367 2242.63 234.011 Z" fill="#000000" fill-rule="evenodd" fill-opacity="1" /><polyline clip-path="url(#clip410)" style="stroke:#c271d2; stroke-linecap:butt; stroke-linejoin:round; stroke-width:4; stroke-opacity:1; fill:none" points="
  1771.95,300.469 1904.1,300.469 
  "/>
<path clip-path="url(#clip410)" d="M1948.37 284.323 L1948.37 288.883 Q1945.71 287.61 1943.35 286.985 Q1940.99 286.36 1938.79 286.36 Q1934.97 286.36 1932.89 287.841 Q1930.83 289.323 1930.83 292.054 Q1930.83 294.346 1932.19 295.527 Q1933.58 296.684 1937.42 297.402 L1940.25 297.98 Q1945.48 298.976 1947.96 301.499 Q1950.46 303.999 1950.46 308.212 Q1950.46 313.235 1947.08 315.827 Q1943.72 318.42 1937.22 318.42 Q1934.76 318.42 1931.98 317.864 Q1929.23 317.309 1926.27 316.221 L1926.27 311.406 Q1929.11 313.003 1931.85 313.813 Q1934.58 314.624 1937.22 314.624 Q1941.22 314.624 1943.4 313.05 Q1945.57 311.476 1945.57 308.559 Q1945.57 306.013 1944 304.577 Q1942.45 303.142 1938.88 302.425 L1936.04 301.869 Q1930.8 300.827 1928.47 298.605 Q1926.13 296.383 1926.13 292.425 Q1926.13 287.841 1929.35 285.202 Q1932.59 282.564 1938.26 282.564 Q1940.69 282.564 1943.21 283.003 Q1945.73 283.443 1948.37 284.323 Z" fill="#000000" fill-rule="evenodd" fill-opacity="1" /><path clip-path="url(#clip410)" d="M1979.11 302.101 L1979.11 317.749 L1974.85 317.749 L1974.85 302.239 Q1974.85 298.559 1973.42 296.73 Q1971.98 294.902 1969.11 294.902 Q1965.66 294.902 1963.67 297.101 Q1961.68 299.3 1961.68 303.096 L1961.68 317.749 L1957.4 317.749 L1957.4 291.823 L1961.68 291.823 L1961.68 295.851 Q1963.21 293.513 1965.27 292.355 Q1967.35 291.198 1970.06 291.198 Q1974.53 291.198 1976.82 293.976 Q1979.11 296.73 1979.11 302.101 Z" fill="#000000" fill-rule="evenodd" fill-opacity="1" /><path clip-path="url(#clip410)" d="M1997.66 294.809 Q1994.23 294.809 1992.24 297.494 Q1990.25 300.156 1990.25 304.809 Q1990.25 309.462 1992.22 312.147 Q1994.21 314.809 1997.66 314.809 Q2001.06 314.809 2003.05 312.124 Q2005.04 309.438 2005.04 304.809 Q2005.04 300.202 2003.05 297.517 Q2001.06 294.809 1997.66 294.809 M1997.66 291.198 Q2003.21 291.198 2006.38 294.809 Q2009.55 298.42 2009.55 304.809 Q2009.55 311.175 2006.38 314.809 Q2003.21 318.42 1997.66 318.42 Q1992.08 318.42 1988.91 314.809 Q1985.76 311.175 1985.76 304.809 Q1985.76 298.42 1988.91 294.809 Q1992.08 291.198 1997.66 291.198 Z" fill="#000000" fill-rule="evenodd" fill-opacity="1" /><path clip-path="url(#clip410)" d="M2014.14 291.823 L2018.4 291.823 L2023.72 312.054 L2029.02 291.823 L2034.04 291.823 L2039.37 312.054 L2044.67 291.823 L2048.93 291.823 L2042.15 317.749 L2037.12 317.749 L2031.54 296.499 L2025.94 317.749 L2020.92 317.749 L2014.14 291.823 Z" fill="#000000" fill-rule="evenodd" fill-opacity="1" /><path clip-path="url(#clip410)" d="M2065.85 283.189 L2095.09 283.189 L2095.09 287.124 L2082.82 287.124 L2082.82 317.749 L2078.12 317.749 L2078.12 287.124 L2065.85 287.124 L2065.85 283.189 Z" fill="#000000" fill-rule="evenodd" fill-opacity="1" /><path clip-path="url(#clip410)" d="M2099.97 296.221 L2129.65 296.221 L2129.65 300.11 L2099.97 300.11 L2099.97 296.221 M2099.97 305.665 L2129.65 305.665 L2129.65 309.601 L2099.97 309.601 L2099.97 305.665 Z" fill="#000000" fill-rule="evenodd" fill-opacity="1" /><path clip-path="url(#clip410)" d="M2136.98 302.864 L2149.46 302.864 L2149.46 306.661 L2136.98 306.661 L2136.98 302.864 Z" fill="#000000" fill-rule="evenodd" fill-opacity="1" /><path clip-path="url(#clip410)" d="M2160.87 313.813 L2177.19 313.813 L2177.19 317.749 L2155.25 317.749 L2155.25 313.813 Q2157.91 311.059 2162.49 306.429 Q2167.1 301.776 2168.28 300.434 Q2170.52 297.911 2171.4 296.175 Q2172.31 294.415 2172.31 292.726 Q2172.31 289.971 2170.36 288.235 Q2168.44 286.499 2165.34 286.499 Q2163.14 286.499 2160.69 287.263 Q2158.26 288.027 2155.48 289.577 L2155.48 284.855 Q2158.3 283.721 2160.76 283.142 Q2163.21 282.564 2165.25 282.564 Q2170.62 282.564 2173.81 285.249 Q2177.01 287.934 2177.01 292.425 Q2177.01 294.554 2176.2 296.476 Q2175.41 298.374 2173.3 300.966 Q2172.72 301.638 2169.62 304.855 Q2166.52 308.05 2160.87 313.813 Z" fill="#000000" fill-rule="evenodd" fill-opacity="1" /><path clip-path="url(#clip410)" d="M2187.05 283.189 L2205.41 283.189 L2205.41 287.124 L2191.34 287.124 L2191.34 295.596 Q2192.35 295.249 2193.37 295.087 Q2194.39 294.902 2195.41 294.902 Q2201.2 294.902 2204.58 298.073 Q2207.96 301.244 2207.96 306.661 Q2207.96 312.239 2204.48 315.341 Q2201.01 318.42 2194.69 318.42 Q2192.52 318.42 2190.25 318.05 Q2188 317.679 2185.59 316.938 L2185.59 312.239 Q2187.68 313.374 2189.9 313.929 Q2192.12 314.485 2194.6 314.485 Q2198.6 314.485 2200.94 312.378 Q2203.28 310.272 2203.28 306.661 Q2203.28 303.05 2200.94 300.943 Q2198.6 298.837 2194.6 298.837 Q2192.72 298.837 2190.85 299.253 Q2189 299.67 2187.05 300.55 L2187.05 283.189 Z" fill="#000000" fill-rule="evenodd" fill-opacity="1" /><path clip-path="url(#clip410)" d="M2242.63 285.851 L2242.63 290.781 Q2240.27 288.582 2237.58 287.494 Q2234.92 286.406 2231.91 286.406 Q2225.99 286.406 2222.84 290.04 Q2219.69 293.652 2219.69 300.503 Q2219.69 307.332 2222.84 310.966 Q2225.99 314.577 2231.91 314.577 Q2234.92 314.577 2237.58 313.489 Q2240.27 312.401 2242.63 310.202 L2242.63 315.087 Q2240.18 316.753 2237.42 317.587 Q2234.69 318.42 2231.64 318.42 Q2223.79 318.42 2219.27 313.628 Q2214.76 308.813 2214.76 300.503 Q2214.76 292.17 2219.27 287.378 Q2223.79 282.564 2231.64 282.564 Q2234.74 282.564 2237.47 283.397 Q2240.22 284.207 2242.63 285.851 Z" fill="#000000" fill-rule="evenodd" fill-opacity="1" /></svg>
