<?xml version="1.0" encoding="utf-8"?>
<svg xmlns="http://www.w3.org/2000/svg" xmlns:xlink="http://www.w3.org/1999/xlink" width="600" height="400" viewBox="0 0 2400 1600">
<defs>
  <clipPath id="clip620">
    <rect x="0" y="0" width="2400" height="1600"/>
  </clipPath>
</defs>
<path clip-path="url(#clip620)" d="
M0 1600 L2400 1600 L2400 0 L0 0  Z
  " fill="#ffffff" fill-rule="evenodd" fill-opacity="1"/>
<defs>
  <clipPath id="clip621">
    <rect x="480" y="0" width="1681" height="1600"/>
  </clipPath>
</defs>
<path clip-path="url(#clip620)" d="
M340.028 1423.18 L2352.76 1423.18 L2352.76 47.2441 L340.028 47.2441  Z
  " fill="#ffffff" fill-rule="evenodd" fill-opacity="1"/>
<defs>
  <clipPath id="clip622">
    <rect x="340" y="47" width="2014" height="1377"/>
  </clipPath>
</defs>
<polyline clip-path="url(#clip622)" style="stroke:#000000; stroke-linecap:butt; stroke-linejoin:round; stroke-width:2; stroke-opacity:0.1; fill:none" points="
  396.988,1423.18 396.988,47.2441 
  "/>
<polyline clip-path="url(#clip622)" style="stroke:#000000; stroke-linecap:butt; stroke-linejoin:round; stroke-width:2; stroke-opacity:0.1; fill:none" points="
  776.749,1423.18 776.749,47.2441 
  "/>
<polyline clip-path="url(#clip622)" style="stroke:#000000; stroke-linecap:butt; stroke-linejoin:round; stroke-width:2; stroke-opacity:0.1; fill:none" points="
  1156.51,1423.18 1156.51,47.2441 
  "/>
<polyline clip-path="url(#clip622)" style="stroke:#000000; stroke-linecap:butt; stroke-linejoin:round; stroke-width:2; stroke-opacity:0.1; fill:none" points="
  1536.27,1423.18 1536.27,47.2441 
  "/>
<polyline clip-path="url(#clip622)" style="stroke:#000000; stroke-linecap:butt; stroke-linejoin:round; stroke-width:2; stroke-opacity:0.1; fill:none" points="
  1916.03,1423.18 1916.03,47.2441 
  "/>
<polyline clip-path="url(#clip622)" style="stroke:#000000; stroke-linecap:butt; stroke-linejoin:round; stroke-width:2; stroke-opacity:0.1; fill:none" points="
  2295.79,1423.18 2295.79,47.2441 
  "/>
<polyline clip-path="url(#clip620)" style="stroke:#000000; stroke-linecap:butt; stroke-linejoin:round; stroke-width:4; stroke-opacity:1; fill:none" points="
  340.028,1423.18 2352.76,1423.18 
  "/>
<polyline clip-path="url(#clip620)" style="stroke:#000000; stroke-linecap:butt; stroke-linejoin:round; stroke-width:4; stroke-opacity:1; fill:none" points="
  396.988,1423.18 396.988,1404.28 
  "/>
<polyline clip-path="url(#clip620)" style="stroke:#000000; stroke-linecap:butt; stroke-linejoin:round; stroke-width:4; stroke-opacity:1; fill:none" points="
  776.749,1423.18 776.749,1404.28 
  "/>
<polyline clip-path="url(#clip620)" style="stroke:#000000; stroke-linecap:butt; stroke-linejoin:round; stroke-width:4; stroke-opacity:1; fill:none" points="
  1156.51,1423.18 1156.51,1404.28 
  "/>
<polyline clip-path="url(#clip620)" style="stroke:#000000; stroke-linecap:butt; stroke-linejoin:round; stroke-width:4; stroke-opacity:1; fill:none" points="
  1536.27,1423.18 1536.27,1404.28 
  "/>
<polyline clip-path="url(#clip620)" style="stroke:#000000; stroke-linecap:butt; stroke-linejoin:round; stroke-width:4; stroke-opacity:1; fill:none" points="
  1916.03,1423.18 1916.03,1404.28 
  "/>
<polyline clip-path="url(#clip620)" style="stroke:#000000; stroke-linecap:butt; stroke-linejoin:round; stroke-width:4; stroke-opacity:1; fill:none" points="
  2295.79,1423.18 2295.79,1404.28 
  "/>
<path clip-path="url(#clip620)" d="M396.988 1454.1 Q393.377 1454.1 391.548 1457.66 Q389.743 1461.2 389.743 1468.33 Q389.743 1475.44 391.548 1479.01 Q393.377 1482.55 396.988 1482.55 Q400.622 1482.55 402.428 1479.01 Q404.256 1475.44 404.256 1468.33 Q404.256 1461.2 402.428 1457.66 Q400.622 1454.1 396.988 1454.1 M396.988 1450.39 Q402.798 1450.39 405.854 1455 Q408.932 1459.58 408.932 1468.33 Q408.932 1477.06 405.854 1481.67 Q402.798 1486.25 396.988 1486.25 Q391.178 1486.25 388.099 1481.67 Q385.043 1477.06 385.043 1468.33 Q385.043 1459.58 388.099 1455 Q391.178 1450.39 396.988 1450.39 Z" fill="#000000" fill-rule="evenodd" fill-opacity="1" /><path clip-path="url(#clip620)" d="M767.131 1481.64 L774.77 1481.64 L774.77 1455.28 L766.459 1456.95 L766.459 1452.69 L774.723 1451.02 L779.399 1451.02 L779.399 1481.64 L787.038 1481.64 L787.038 1485.58 L767.131 1485.58 L767.131 1481.64 Z" fill="#000000" fill-rule="evenodd" fill-opacity="1" /><path clip-path="url(#clip620)" d="M1151.16 1481.64 L1167.48 1481.64 L1167.48 1485.58 L1145.54 1485.58 L1145.54 1481.64 Q1148.2 1478.89 1152.78 1474.26 Q1157.39 1469.61 1158.57 1468.27 Q1160.82 1465.74 1161.69 1464.01 Q1162.6 1462.25 1162.6 1460.56 Q1162.6 1457.8 1160.65 1456.07 Q1158.73 1454.33 1155.63 1454.33 Q1153.43 1454.33 1150.98 1455.09 Q1148.55 1455.86 1145.77 1457.41 L1145.77 1452.69 Q1148.59 1451.55 1151.05 1450.97 Q1153.5 1450.39 1155.54 1450.39 Q1160.91 1450.39 1164.1 1453.08 Q1167.3 1455.77 1167.3 1460.26 Q1167.3 1462.39 1166.49 1464.31 Q1165.7 1466.2 1163.59 1468.8 Q1163.01 1469.47 1159.91 1472.69 Q1156.81 1475.88 1151.16 1481.64 Z" fill="#000000" fill-rule="evenodd" fill-opacity="1" /><path clip-path="url(#clip620)" d="M1540.52 1466.95 Q1543.87 1467.66 1545.75 1469.93 Q1547.65 1472.2 1547.65 1475.53 Q1547.65 1480.65 1544.13 1483.45 Q1540.61 1486.25 1534.13 1486.25 Q1531.95 1486.25 1529.64 1485.81 Q1527.35 1485.39 1524.89 1484.54 L1524.89 1480.02 Q1526.84 1481.16 1529.15 1481.74 Q1531.47 1482.32 1533.99 1482.32 Q1538.39 1482.32 1540.68 1480.58 Q1542.99 1478.84 1542.99 1475.53 Q1542.99 1472.48 1540.84 1470.77 Q1538.71 1469.03 1534.89 1469.03 L1530.87 1469.03 L1530.87 1465.19 L1535.08 1465.19 Q1538.53 1465.19 1540.36 1463.82 Q1542.18 1462.43 1542.18 1459.84 Q1542.18 1457.18 1540.29 1455.77 Q1538.41 1454.33 1534.89 1454.33 Q1532.97 1454.33 1530.77 1454.75 Q1528.57 1455.16 1525.93 1456.04 L1525.93 1451.88 Q1528.6 1451.14 1530.91 1450.77 Q1533.25 1450.39 1535.31 1450.39 Q1540.63 1450.39 1543.74 1452.83 Q1546.84 1455.23 1546.84 1459.35 Q1546.84 1462.22 1545.19 1464.21 Q1543.55 1466.18 1540.52 1466.95 Z" fill="#000000" fill-rule="evenodd" fill-opacity="1" /><path clip-path="url(#clip620)" d="M1919.04 1455.09 L1907.23 1473.54 L1919.04 1473.54 L1919.04 1455.09 M1917.81 1451.02 L1923.69 1451.02 L1923.69 1473.54 L1928.62 1473.54 L1928.62 1477.43 L1923.69 1477.43 L1923.69 1485.58 L1919.04 1485.58 L1919.04 1477.43 L1903.44 1477.43 L1903.44 1472.92 L1917.81 1451.02 Z" fill="#000000" fill-rule="evenodd" fill-opacity="1" /><path clip-path="url(#clip620)" d="M2286.07 1451.02 L2304.43 1451.02 L2304.43 1454.96 L2290.35 1454.96 L2290.35 1463.43 Q2291.37 1463.08 2292.39 1462.92 Q2293.41 1462.73 2294.43 1462.73 Q2300.21 1462.73 2303.59 1465.9 Q2306.97 1469.08 2306.97 1474.49 Q2306.97 1480.07 2303.5 1483.17 Q2300.03 1486.25 2293.71 1486.25 Q2291.53 1486.25 2289.26 1485.88 Q2287.02 1485.51 2284.61 1484.77 L2284.61 1480.07 Q2286.69 1481.2 2288.92 1481.76 Q2291.14 1482.32 2293.62 1482.32 Q2297.62 1482.32 2299.96 1480.21 Q2302.3 1478.1 2302.3 1474.49 Q2302.3 1470.88 2299.96 1468.77 Q2297.62 1466.67 2293.62 1466.67 Q2291.74 1466.67 2289.87 1467.08 Q2288.01 1467.5 2286.07 1468.38 L2286.07 1451.02 Z" fill="#000000" fill-rule="evenodd" fill-opacity="1" /><path clip-path="url(#clip620)" d="M1128.8 1550.25 Q1128.8 1556.71 1131.44 1560.4 Q1134.11 1564.07 1138.76 1564.07 Q1143.41 1564.07 1146.08 1560.4 Q1148.75 1556.71 1148.75 1550.25 Q1148.75 1543.79 1146.08 1540.13 Q1143.41 1536.44 1138.76 1536.44 Q1134.11 1536.44 1131.44 1540.13 Q1128.8 1543.79 1128.8 1550.25 M1148.75 1562.7 Q1146.91 1565.88 1144.07 1567.44 Q1141.27 1568.97 1137.33 1568.97 Q1130.86 1568.97 1126.79 1563.81 Q1122.75 1558.65 1122.75 1550.25 Q1122.75 1541.85 1126.79 1536.69 Q1130.86 1531.54 1137.33 1531.54 Q1141.27 1531.54 1144.07 1533.1 Q1146.91 1534.62 1148.75 1537.81 L1148.75 1532.4 L1154.61 1532.4 L1154.61 1581.6 L1148.75 1581.6 L1148.75 1562.7 Z" fill="#000000" fill-rule="evenodd" fill-opacity="1" /><path clip-path="url(#clip620)" d="M1193.76 1578.87 L1193.76 1583.42 L1159.89 1583.42 L1159.89 1578.87 L1193.76 1578.87 Z" fill="#000000" fill-rule="evenodd" fill-opacity="1" /><path clip-path="url(#clip620)" d="M1221.99 1533.45 L1221.99 1538.98 Q1219.51 1537.71 1216.83 1537.07 Q1214.16 1536.44 1211.3 1536.44 Q1206.94 1536.44 1204.74 1537.77 Q1202.57 1539.11 1202.57 1541.79 Q1202.57 1543.82 1204.13 1545 Q1205.69 1546.15 1210.4 1547.2 L1212.41 1547.64 Q1218.65 1548.98 1221.26 1551.43 Q1223.9 1553.85 1223.9 1558.21 Q1223.9 1563.17 1219.95 1566.07 Q1216.04 1568.97 1209.16 1568.97 Q1206.3 1568.97 1203.18 1568.39 Q1200.09 1567.85 1196.65 1566.74 L1196.65 1560.69 Q1199.9 1562.38 1203.05 1563.24 Q1206.2 1564.07 1209.29 1564.07 Q1213.43 1564.07 1215.66 1562.66 Q1217.88 1561.23 1217.88 1558.65 Q1217.88 1556.27 1216.26 1554.99 Q1214.67 1553.72 1209.23 1552.54 L1207.19 1552.07 Q1201.75 1550.92 1199.33 1548.56 Q1196.91 1546.18 1196.91 1542.04 Q1196.91 1537.01 1200.47 1534.27 Q1204.04 1531.54 1210.6 1531.54 Q1213.84 1531.54 1216.71 1532.01 Q1219.57 1532.49 1221.99 1533.45 Z" fill="#000000" fill-rule="evenodd" fill-opacity="1" /><path clip-path="url(#clip620)" d="M1262.86 1546.53 L1262.86 1568.04 L1257 1568.04 L1257 1546.72 Q1257 1541.66 1255.03 1539.14 Q1253.05 1536.63 1249.11 1536.63 Q1244.37 1536.63 1241.63 1539.65 Q1238.89 1542.68 1238.89 1547.9 L1238.89 1568.04 L1233 1568.04 L1233 1532.4 L1238.89 1532.4 L1238.89 1537.93 Q1240.99 1534.72 1243.82 1533.13 Q1246.69 1531.54 1250.41 1531.54 Q1256.56 1531.54 1259.71 1535.36 Q1262.86 1539.14 1262.86 1546.53 Z" fill="#000000" fill-rule="evenodd" fill-opacity="1" /><path clip-path="url(#clip620)" d="M1288.35 1536.5 Q1283.64 1536.5 1280.9 1540.19 Q1278.17 1543.85 1278.17 1550.25 Q1278.17 1556.65 1280.87 1560.34 Q1283.61 1564 1288.35 1564 Q1293.03 1564 1295.77 1560.31 Q1298.51 1556.62 1298.51 1550.25 Q1298.51 1543.92 1295.77 1540.23 Q1293.03 1536.5 1288.35 1536.5 M1288.35 1531.54 Q1295.99 1531.54 1300.35 1536.5 Q1304.71 1541.47 1304.71 1550.25 Q1304.71 1559 1300.35 1564 Q1295.99 1568.97 1288.35 1568.97 Q1280.68 1568.97 1276.32 1564 Q1271.99 1559 1271.99 1550.25 Q1271.99 1541.47 1276.32 1536.5 Q1280.68 1531.54 1288.35 1531.54 Z" fill="#000000" fill-rule="evenodd" fill-opacity="1" /><path clip-path="url(#clip620)" d="M1311.01 1532.4 L1316.87 1532.4 L1324.19 1560.21 L1331.48 1532.4 L1338.39 1532.4 L1345.71 1560.21 L1353 1532.4 L1358.85 1532.4 L1349.53 1568.04 L1342.62 1568.04 L1334.95 1538.83 L1327.25 1568.04 L1320.34 1568.04 L1311.01 1532.4 Z" fill="#000000" fill-rule="evenodd" fill-opacity="1" /><path clip-path="url(#clip620)" d="M1387.91 1518.52 L1401.41 1518.52 L1401.41 1523.07 L1393.77 1523.07 L1393.77 1572.09 L1401.41 1572.09 L1401.41 1576.64 L1387.91 1576.64 L1387.91 1518.52 Z" fill="#000000" fill-rule="evenodd" fill-opacity="1" /><path clip-path="url(#clip620)" d="M1437.34 1549.81 Q1437.34 1543.44 1434.7 1539.94 Q1432.09 1536.44 1427.35 1536.44 Q1422.64 1536.44 1420 1539.94 Q1417.39 1543.44 1417.39 1549.81 Q1417.39 1556.14 1420 1559.64 Q1422.64 1563.14 1427.35 1563.14 Q1432.09 1563.14 1434.7 1559.64 Q1437.34 1556.14 1437.34 1549.81 M1443.2 1563.62 Q1443.2 1572.72 1439.16 1577.15 Q1435.11 1581.6 1426.77 1581.6 Q1423.69 1581.6 1420.95 1581.13 Q1418.21 1580.68 1415.63 1579.72 L1415.63 1574.03 Q1418.21 1575.43 1420.73 1576.1 Q1423.24 1576.76 1425.85 1576.76 Q1431.61 1576.76 1434.48 1573.74 Q1437.34 1570.75 1437.34 1564.67 L1437.34 1561.77 Q1435.53 1564.92 1432.69 1566.48 Q1429.86 1568.04 1425.92 1568.04 Q1419.36 1568.04 1415.35 1563.05 Q1411.34 1558.05 1411.34 1549.81 Q1411.34 1541.53 1415.35 1536.53 Q1419.36 1531.54 1425.92 1531.54 Q1429.86 1531.54 1432.69 1533.1 Q1435.53 1534.66 1437.34 1537.81 L1437.34 1532.4 L1443.2 1532.4 L1443.2 1563.62 Z" fill="#000000" fill-rule="evenodd" fill-opacity="1" /><path clip-path="url(#clip620)" d="M1465.67 1520.52 L1471.08 1520.52 L1454.53 1574.09 L1449.12 1574.09 L1465.67 1520.52 Z" fill="#000000" fill-rule="evenodd" fill-opacity="1" /><path clip-path="url(#clip620)" d="M1477 1518.52 L1482.89 1518.52 L1482.89 1547.77 L1500.36 1532.4 L1507.84 1532.4 L1488.94 1549.07 L1508.64 1568.04 L1501 1568.04 L1482.89 1550.63 L1482.89 1568.04 L1477 1568.04 L1477 1518.52 Z" fill="#000000" fill-rule="evenodd" fill-opacity="1" /><path clip-path="url(#clip620)" d="M1538.43 1549.81 Q1538.43 1543.44 1535.79 1539.94 Q1533.18 1536.44 1528.44 1536.44 Q1523.72 1536.44 1521.08 1539.94 Q1518.47 1543.44 1518.47 1549.81 Q1518.47 1556.14 1521.08 1559.64 Q1523.72 1563.14 1528.44 1563.14 Q1533.18 1563.14 1535.79 1559.64 Q1538.43 1556.14 1538.43 1549.81 M1544.29 1563.62 Q1544.29 1572.72 1540.24 1577.15 Q1536.2 1581.6 1527.86 1581.6 Q1524.77 1581.6 1522.04 1581.13 Q1519.3 1580.68 1516.72 1579.72 L1516.72 1574.03 Q1519.3 1575.43 1521.81 1576.1 Q1524.33 1576.76 1526.94 1576.76 Q1532.7 1576.76 1535.56 1573.74 Q1538.43 1570.75 1538.43 1564.67 L1538.43 1561.77 Q1536.62 1564.92 1533.78 1566.48 Q1530.95 1568.04 1527 1568.04 Q1520.45 1568.04 1516.44 1563.05 Q1512.43 1558.05 1512.43 1549.81 Q1512.43 1541.53 1516.44 1536.53 Q1520.45 1531.54 1527 1531.54 Q1530.95 1531.54 1533.78 1533.1 Q1536.62 1534.66 1538.43 1537.81 L1538.43 1532.4 L1544.29 1532.4 L1544.29 1563.62 Z" fill="#000000" fill-rule="evenodd" fill-opacity="1" /><path clip-path="url(#clip620)" d="M1570.03 1518.52 L1570.03 1576.64 L1556.54 1576.64 L1556.54 1572.09 L1564.15 1572.09 L1564.15 1523.07 L1556.54 1523.07 L1556.54 1518.52 L1570.03 1518.52 Z" fill="#000000" fill-rule="evenodd" fill-opacity="1" /><polyline clip-path="url(#clip622)" style="stroke:#000000; stroke-linecap:butt; stroke-linejoin:round; stroke-width:2; stroke-opacity:0.1; fill:none" points="
  340.028,1384.24 2352.76,1384.24 
  "/>
<polyline clip-path="url(#clip622)" style="stroke:#000000; stroke-linecap:butt; stroke-linejoin:round; stroke-width:2; stroke-opacity:0.1; fill:none" points="
  340.028,963.918 2352.76,963.918 
  "/>
<polyline clip-path="url(#clip622)" style="stroke:#000000; stroke-linecap:butt; stroke-linejoin:round; stroke-width:2; stroke-opacity:0.1; fill:none" points="
  340.028,543.596 2352.76,543.596 
  "/>
<polyline clip-path="url(#clip622)" style="stroke:#000000; stroke-linecap:butt; stroke-linejoin:round; stroke-width:2; stroke-opacity:0.1; fill:none" points="
  340.028,123.274 2352.76,123.274 
  "/>
<polyline clip-path="url(#clip620)" style="stroke:#000000; stroke-linecap:butt; stroke-linejoin:round; stroke-width:4; stroke-opacity:1; fill:none" points="
  340.028,1423.18 340.028,47.2441 
  "/>
<polyline clip-path="url(#clip620)" style="stroke:#000000; stroke-linecap:butt; stroke-linejoin:round; stroke-width:4; stroke-opacity:1; fill:none" points="
  340.028,1384.24 358.925,1384.24 
  "/>
<polyline clip-path="url(#clip620)" style="stroke:#000000; stroke-linecap:butt; stroke-linejoin:round; stroke-width:4; stroke-opacity:1; fill:none" points="
  340.028,963.918 358.925,963.918 
  "/>
<polyline clip-path="url(#clip620)" style="stroke:#000000; stroke-linecap:butt; stroke-linejoin:round; stroke-width:4; stroke-opacity:1; fill:none" points="
  340.028,543.596 358.925,543.596 
  "/>
<polyline clip-path="url(#clip620)" style="stroke:#000000; stroke-linecap:butt; stroke-linejoin:round; stroke-width:4; stroke-opacity:1; fill:none" points="
  340.028,123.274 358.925,123.274 
  "/>
<path clip-path="url(#clip620)" d="M126.205 1370.04 Q122.593 1370.04 120.765 1373.6 Q118.959 1377.15 118.959 1384.27 Q118.959 1391.38 120.765 1394.95 Q122.593 1398.49 126.205 1398.49 Q129.839 1398.49 131.644 1394.95 Q133.473 1391.38 133.473 1384.27 Q133.473 1377.15 131.644 1373.6 Q129.839 1370.04 126.205 1370.04 M126.205 1366.34 Q132.015 1366.34 135.07 1370.94 Q138.149 1375.53 138.149 1384.27 Q138.149 1393 135.07 1397.61 Q132.015 1402.19 126.205 1402.19 Q120.394 1402.19 117.316 1397.61 Q114.26 1393 114.26 1384.27 Q114.26 1375.53 117.316 1370.94 Q120.394 1366.34 126.205 1366.34 Z" fill="#000000" fill-rule="evenodd" fill-opacity="1" /><path clip-path="url(#clip620)" d="M146.366 1395.64 L151.251 1395.64 L151.251 1401.52 L146.366 1401.52 L146.366 1395.64 Z" fill="#000000" fill-rule="evenodd" fill-opacity="1" /><path clip-path="url(#clip620)" d="M171.436 1370.04 Q167.825 1370.04 165.996 1373.6 Q164.19 1377.15 164.19 1384.27 Q164.19 1391.38 165.996 1394.95 Q167.825 1398.49 171.436 1398.49 Q175.07 1398.49 176.876 1394.95 Q178.704 1391.38 178.704 1384.27 Q178.704 1377.15 176.876 1373.6 Q175.07 1370.04 171.436 1370.04 M171.436 1366.34 Q177.246 1366.34 180.301 1370.94 Q183.38 1375.53 183.38 1384.27 Q183.38 1393 180.301 1397.61 Q177.246 1402.19 171.436 1402.19 Q165.626 1402.19 162.547 1397.61 Q159.491 1393 159.491 1384.27 Q159.491 1375.53 162.547 1370.94 Q165.626 1366.34 171.436 1366.34 Z" fill="#000000" fill-rule="evenodd" fill-opacity="1" /><path clip-path="url(#clip620)" d="M201.598 1370.04 Q197.987 1370.04 196.158 1373.6 Q194.352 1377.15 194.352 1384.27 Q194.352 1391.38 196.158 1394.95 Q197.987 1398.49 201.598 1398.49 Q205.232 1398.49 207.037 1394.95 Q208.866 1391.38 208.866 1384.27 Q208.866 1377.15 207.037 1373.6 Q205.232 1370.04 201.598 1370.04 M201.598 1366.34 Q207.408 1366.34 210.463 1370.94 Q213.542 1375.53 213.542 1384.27 Q213.542 1393 210.463 1397.61 Q207.408 1402.19 201.598 1402.19 Q195.787 1402.19 192.709 1397.61 Q189.653 1393 189.653 1384.27 Q189.653 1375.53 192.709 1370.94 Q195.787 1366.34 201.598 1366.34 Z" fill="#000000" fill-rule="evenodd" fill-opacity="1" /><path clip-path="url(#clip620)" d="M231.76 1370.04 Q228.148 1370.04 226.32 1373.6 Q224.514 1377.15 224.514 1384.27 Q224.514 1391.38 226.32 1394.95 Q228.148 1398.49 231.76 1398.49 Q235.394 1398.49 237.199 1394.95 Q239.028 1391.38 239.028 1384.27 Q239.028 1377.15 237.199 1373.6 Q235.394 1370.04 231.76 1370.04 M231.76 1366.34 Q237.57 1366.34 240.625 1370.94 Q243.704 1375.53 243.704 1384.27 Q243.704 1393 240.625 1397.61 Q237.57 1402.19 231.76 1402.19 Q225.949 1402.19 222.871 1397.61 Q219.815 1393 219.815 1384.27 Q219.815 1375.53 222.871 1370.94 Q225.949 1366.34 231.76 1366.34 Z" fill="#000000" fill-rule="evenodd" fill-opacity="1" /><path clip-path="url(#clip620)" d="M261.921 1370.04 Q258.31 1370.04 256.482 1373.6 Q254.676 1377.15 254.676 1384.27 Q254.676 1391.38 256.482 1394.95 Q258.31 1398.49 261.921 1398.49 Q265.556 1398.49 267.361 1394.95 Q269.19 1391.38 269.19 1384.27 Q269.19 1377.15 267.361 1373.6 Q265.556 1370.04 261.921 1370.04 M261.921 1366.34 Q267.732 1366.34 270.787 1370.94 Q273.866 1375.53 273.866 1384.27 Q273.866 1393 270.787 1397.61 Q267.732 1402.19 261.921 1402.19 Q256.111 1402.19 253.033 1397.61 Q249.977 1393 249.977 1384.27 Q249.977 1375.53 253.033 1370.94 Q256.111 1366.34 261.921 1366.34 Z" fill="#000000" fill-rule="evenodd" fill-opacity="1" /><path clip-path="url(#clip620)" d="M292.083 1370.04 Q288.472 1370.04 286.643 1373.6 Q284.838 1377.15 284.838 1384.27 Q284.838 1391.38 286.643 1394.95 Q288.472 1398.49 292.083 1398.49 Q295.718 1398.49 297.523 1394.95 Q299.352 1391.38 299.352 1384.27 Q299.352 1377.15 297.523 1373.6 Q295.718 1370.04 292.083 1370.04 M292.083 1366.34 Q297.893 1366.34 300.949 1370.94 Q304.028 1375.53 304.028 1384.27 Q304.028 1393 300.949 1397.61 Q297.893 1402.19 292.083 1402.19 Q286.273 1402.19 283.194 1397.61 Q280.139 1393 280.139 1384.27 Q280.139 1375.53 283.194 1370.94 Q286.273 1366.34 292.083 1366.34 Z" fill="#000000" fill-rule="evenodd" fill-opacity="1" /><path clip-path="url(#clip620)" d="M127.2 949.717 Q123.589 949.717 121.76 953.281 Q119.955 956.823 119.955 963.953 Q119.955 971.059 121.76 974.624 Q123.589 978.166 127.2 978.166 Q130.834 978.166 132.64 974.624 Q134.468 971.059 134.468 963.953 Q134.468 956.823 132.64 953.281 Q130.834 949.717 127.2 949.717 M127.2 946.013 Q133.01 946.013 136.066 950.619 Q139.144 955.203 139.144 963.953 Q139.144 972.68 136.066 977.286 Q133.01 981.869 127.2 981.869 Q121.39 981.869 118.311 977.286 Q115.256 972.68 115.256 963.953 Q115.256 955.203 118.311 950.619 Q121.39 946.013 127.2 946.013 Z" fill="#000000" fill-rule="evenodd" fill-opacity="1" /><path clip-path="url(#clip620)" d="M147.362 975.318 L152.246 975.318 L152.246 981.198 L147.362 981.198 L147.362 975.318 Z" fill="#000000" fill-rule="evenodd" fill-opacity="1" /><path clip-path="url(#clip620)" d="M172.431 949.717 Q168.82 949.717 166.991 953.281 Q165.186 956.823 165.186 963.953 Q165.186 971.059 166.991 974.624 Q168.82 978.166 172.431 978.166 Q176.065 978.166 177.871 974.624 Q179.7 971.059 179.7 963.953 Q179.7 956.823 177.871 953.281 Q176.065 949.717 172.431 949.717 M172.431 946.013 Q178.241 946.013 181.297 950.619 Q184.376 955.203 184.376 963.953 Q184.376 972.68 181.297 977.286 Q178.241 981.869 172.431 981.869 Q166.621 981.869 163.542 977.286 Q160.487 972.68 160.487 963.953 Q160.487 955.203 163.542 950.619 Q166.621 946.013 172.431 946.013 Z" fill="#000000" fill-rule="evenodd" fill-opacity="1" /><path clip-path="url(#clip620)" d="M202.593 949.717 Q198.982 949.717 197.153 953.281 Q195.348 956.823 195.348 963.953 Q195.348 971.059 197.153 974.624 Q198.982 978.166 202.593 978.166 Q206.227 978.166 208.033 974.624 Q209.861 971.059 209.861 963.953 Q209.861 956.823 208.033 953.281 Q206.227 949.717 202.593 949.717 M202.593 946.013 Q208.403 946.013 211.459 950.619 Q214.537 955.203 214.537 963.953 Q214.537 972.68 211.459 977.286 Q208.403 981.869 202.593 981.869 Q196.783 981.869 193.704 977.286 Q190.649 972.68 190.649 963.953 Q190.649 955.203 193.704 950.619 Q196.783 946.013 202.593 946.013 Z" fill="#000000" fill-rule="evenodd" fill-opacity="1" /><path clip-path="url(#clip620)" d="M232.755 949.717 Q229.144 949.717 227.315 953.281 Q225.51 956.823 225.51 963.953 Q225.51 971.059 227.315 974.624 Q229.144 978.166 232.755 978.166 Q236.389 978.166 238.195 974.624 Q240.023 971.059 240.023 963.953 Q240.023 956.823 238.195 953.281 Q236.389 949.717 232.755 949.717 M232.755 946.013 Q238.565 946.013 241.621 950.619 Q244.699 955.203 244.699 963.953 Q244.699 972.68 241.621 977.286 Q238.565 981.869 232.755 981.869 Q226.945 981.869 223.866 977.286 Q220.811 972.68 220.811 963.953 Q220.811 955.203 223.866 950.619 Q226.945 946.013 232.755 946.013 Z" fill="#000000" fill-rule="evenodd" fill-opacity="1" /><path clip-path="url(#clip620)" d="M262.917 949.717 Q259.306 949.717 257.477 953.281 Q255.671 956.823 255.671 963.953 Q255.671 971.059 257.477 974.624 Q259.306 978.166 262.917 978.166 Q266.551 978.166 268.357 974.624 Q270.185 971.059 270.185 963.953 Q270.185 956.823 268.357 953.281 Q266.551 949.717 262.917 949.717 M262.917 946.013 Q268.727 946.013 271.782 950.619 Q274.861 955.203 274.861 963.953 Q274.861 972.68 271.782 977.286 Q268.727 981.869 262.917 981.869 Q257.107 981.869 254.028 977.286 Q250.972 972.68 250.972 963.953 Q250.972 955.203 254.028 950.619 Q257.107 946.013 262.917 946.013 Z" fill="#000000" fill-rule="evenodd" fill-opacity="1" /><path clip-path="url(#clip620)" d="M283.125 946.638 L301.481 946.638 L301.481 950.573 L287.407 950.573 L287.407 959.045 Q288.426 958.698 289.444 958.536 Q290.463 958.351 291.481 958.351 Q297.268 958.351 300.648 961.522 Q304.028 964.693 304.028 970.11 Q304.028 975.689 300.555 978.791 Q297.083 981.869 290.764 981.869 Q288.588 981.869 286.319 981.499 Q284.074 981.129 281.667 980.388 L281.667 975.689 Q283.75 976.823 285.972 977.379 Q288.194 977.934 290.671 977.934 Q294.676 977.934 297.014 975.828 Q299.352 973.721 299.352 970.11 Q299.352 966.499 297.014 964.393 Q294.676 962.286 290.671 962.286 Q288.796 962.286 286.921 962.703 Q285.069 963.119 283.125 963.999 L283.125 946.638 Z" fill="#000000" fill-rule="evenodd" fill-opacity="1" /><path clip-path="url(#clip620)" d="M126.205 529.394 Q122.593 529.394 120.765 532.959 Q118.959 536.501 118.959 543.63 Q118.959 550.737 120.765 554.302 Q122.593 557.843 126.205 557.843 Q129.839 557.843 131.644 554.302 Q133.473 550.737 133.473 543.63 Q133.473 536.501 131.644 532.959 Q129.839 529.394 126.205 529.394 M126.205 525.691 Q132.015 525.691 135.07 530.297 Q138.149 534.881 138.149 543.63 Q138.149 552.357 135.07 556.964 Q132.015 561.547 126.205 561.547 Q120.394 561.547 117.316 556.964 Q114.26 552.357 114.26 543.63 Q114.26 534.881 117.316 530.297 Q120.394 525.691 126.205 525.691 Z" fill="#000000" fill-rule="evenodd" fill-opacity="1" /><path clip-path="url(#clip620)" d="M146.366 554.996 L151.251 554.996 L151.251 560.876 L146.366 560.876 L146.366 554.996 Z" fill="#000000" fill-rule="evenodd" fill-opacity="1" /><path clip-path="url(#clip620)" d="M171.436 529.394 Q167.825 529.394 165.996 532.959 Q164.19 536.501 164.19 543.63 Q164.19 550.737 165.996 554.302 Q167.825 557.843 171.436 557.843 Q175.07 557.843 176.876 554.302 Q178.704 550.737 178.704 543.63 Q178.704 536.501 176.876 532.959 Q175.07 529.394 171.436 529.394 M171.436 525.691 Q177.246 525.691 180.301 530.297 Q183.38 534.881 183.38 543.63 Q183.38 552.357 180.301 556.964 Q177.246 561.547 171.436 561.547 Q165.626 561.547 162.547 556.964 Q159.491 552.357 159.491 543.63 Q159.491 534.881 162.547 530.297 Q165.626 525.691 171.436 525.691 Z" fill="#000000" fill-rule="evenodd" fill-opacity="1" /><path clip-path="url(#clip620)" d="M201.598 529.394 Q197.987 529.394 196.158 532.959 Q194.352 536.501 194.352 543.63 Q194.352 550.737 196.158 554.302 Q197.987 557.843 201.598 557.843 Q205.232 557.843 207.037 554.302 Q208.866 550.737 208.866 543.63 Q208.866 536.501 207.037 532.959 Q205.232 529.394 201.598 529.394 M201.598 525.691 Q207.408 525.691 210.463 530.297 Q213.542 534.881 213.542 543.63 Q213.542 552.357 210.463 556.964 Q207.408 561.547 201.598 561.547 Q195.787 561.547 192.709 556.964 Q189.653 552.357 189.653 543.63 Q189.653 534.881 192.709 530.297 Q195.787 525.691 201.598 525.691 Z" fill="#000000" fill-rule="evenodd" fill-opacity="1" /><path clip-path="url(#clip620)" d="M231.76 529.394 Q228.148 529.394 226.32 532.959 Q224.514 536.501 224.514 543.63 Q224.514 550.737 226.32 554.302 Q228.148 557.843 231.76 557.843 Q235.394 557.843 237.199 554.302 Q239.028 550.737 239.028 543.63 Q239.028 536.501 237.199 532.959 Q235.394 529.394 231.76 529.394 M231.76 525.691 Q237.57 525.691 240.625 530.297 Q243.704 534.881 243.704 543.63 Q243.704 552.357 240.625 556.964 Q237.57 561.547 231.76 561.547 Q225.949 561.547 222.871 556.964 Q219.815 552.357 219.815 543.63 Q219.815 534.881 222.871 530.297 Q225.949 525.691 231.76 525.691 Z" fill="#000000" fill-rule="evenodd" fill-opacity="1" /><path clip-path="url(#clip620)" d="M252.732 556.941 L260.37 556.941 L260.37 530.575 L252.06 532.242 L252.06 527.982 L260.324 526.316 L265 526.316 L265 556.941 L272.639 556.941 L272.639 560.876 L252.732 560.876 L252.732 556.941 Z" fill="#000000" fill-rule="evenodd" fill-opacity="1" /><path clip-path="url(#clip620)" d="M292.083 529.394 Q288.472 529.394 286.643 532.959 Q284.838 536.501 284.838 543.63 Q284.838 550.737 286.643 554.302 Q288.472 557.843 292.083 557.843 Q295.718 557.843 297.523 554.302 Q299.352 550.737 299.352 543.63 Q299.352 536.501 297.523 532.959 Q295.718 529.394 292.083 529.394 M292.083 525.691 Q297.893 525.691 300.949 530.297 Q304.028 534.881 304.028 543.63 Q304.028 552.357 300.949 556.964 Q297.893 561.547 292.083 561.547 Q286.273 561.547 283.194 556.964 Q280.139 552.357 280.139 543.63 Q280.139 534.881 283.194 530.297 Q286.273 525.691 292.083 525.691 Z" fill="#000000" fill-rule="evenodd" fill-opacity="1" /><path clip-path="url(#clip620)" d="M127.2 109.072 Q123.589 109.072 121.76 112.637 Q119.955 116.179 119.955 123.308 Q119.955 130.415 121.76 133.979 Q123.589 137.521 127.2 137.521 Q130.834 137.521 132.64 133.979 Q134.468 130.415 134.468 123.308 Q134.468 116.179 132.64 112.637 Q130.834 109.072 127.2 109.072 M127.2 105.369 Q133.01 105.369 136.066 109.975 Q139.144 114.558 139.144 123.308 Q139.144 132.035 136.066 136.642 Q133.01 141.225 127.2 141.225 Q121.39 141.225 118.311 136.642 Q115.256 132.035 115.256 123.308 Q115.256 114.558 118.311 109.975 Q121.39 105.369 127.2 105.369 Z" fill="#000000" fill-rule="evenodd" fill-opacity="1" /><path clip-path="url(#clip620)" d="M147.362 134.674 L152.246 134.674 L152.246 140.554 L147.362 140.554 L147.362 134.674 Z" fill="#000000" fill-rule="evenodd" fill-opacity="1" /><path clip-path="url(#clip620)" d="M172.431 109.072 Q168.82 109.072 166.991 112.637 Q165.186 116.179 165.186 123.308 Q165.186 130.415 166.991 133.979 Q168.82 137.521 172.431 137.521 Q176.065 137.521 177.871 133.979 Q179.7 130.415 179.7 123.308 Q179.7 116.179 177.871 112.637 Q176.065 109.072 172.431 109.072 M172.431 105.369 Q178.241 105.369 181.297 109.975 Q184.376 114.558 184.376 123.308 Q184.376 132.035 181.297 136.642 Q178.241 141.225 172.431 141.225 Q166.621 141.225 163.542 136.642 Q160.487 132.035 160.487 123.308 Q160.487 114.558 163.542 109.975 Q166.621 105.369 172.431 105.369 Z" fill="#000000" fill-rule="evenodd" fill-opacity="1" /><path clip-path="url(#clip620)" d="M202.593 109.072 Q198.982 109.072 197.153 112.637 Q195.348 116.179 195.348 123.308 Q195.348 130.415 197.153 133.979 Q198.982 137.521 202.593 137.521 Q206.227 137.521 208.033 133.979 Q209.861 130.415 209.861 123.308 Q209.861 116.179 208.033 112.637 Q206.227 109.072 202.593 109.072 M202.593 105.369 Q208.403 105.369 211.459 109.975 Q214.537 114.558 214.537 123.308 Q214.537 132.035 211.459 136.642 Q208.403 141.225 202.593 141.225 Q196.783 141.225 193.704 136.642 Q190.649 132.035 190.649 123.308 Q190.649 114.558 193.704 109.975 Q196.783 105.369 202.593 105.369 Z" fill="#000000" fill-rule="evenodd" fill-opacity="1" /><path clip-path="url(#clip620)" d="M232.755 109.072 Q229.144 109.072 227.315 112.637 Q225.51 116.179 225.51 123.308 Q225.51 130.415 227.315 133.979 Q229.144 137.521 232.755 137.521 Q236.389 137.521 238.195 133.979 Q240.023 130.415 240.023 123.308 Q240.023 116.179 238.195 112.637 Q236.389 109.072 232.755 109.072 M232.755 105.369 Q238.565 105.369 241.621 109.975 Q244.699 114.558 244.699 123.308 Q244.699 132.035 241.621 136.642 Q238.565 141.225 232.755 141.225 Q226.945 141.225 223.866 136.642 Q220.811 132.035 220.811 123.308 Q220.811 114.558 223.866 109.975 Q226.945 105.369 232.755 105.369 Z" fill="#000000" fill-rule="evenodd" fill-opacity="1" /><path clip-path="url(#clip620)" d="M253.727 136.618 L261.366 136.618 L261.366 110.253 L253.056 111.919 L253.056 107.66 L261.32 105.994 L265.995 105.994 L265.995 136.618 L273.634 136.618 L273.634 140.554 L253.727 140.554 L253.727 136.618 Z" fill="#000000" fill-rule="evenodd" fill-opacity="1" /><path clip-path="url(#clip620)" d="M283.125 105.994 L301.481 105.994 L301.481 109.929 L287.407 109.929 L287.407 118.401 Q288.426 118.054 289.444 117.892 Q290.463 117.706 291.481 117.706 Q297.268 117.706 300.648 120.878 Q304.028 124.049 304.028 129.466 Q304.028 135.044 300.555 138.146 Q297.083 141.225 290.764 141.225 Q288.588 141.225 286.319 140.854 Q284.074 140.484 281.667 139.743 L281.667 135.044 Q283.75 136.179 285.972 136.734 Q288.194 137.29 290.671 137.29 Q294.676 137.29 297.014 135.183 Q299.352 133.077 299.352 129.466 Q299.352 125.855 297.014 123.748 Q294.676 121.642 290.671 121.642 Q288.796 121.642 286.921 122.058 Q285.069 122.475 283.125 123.355 L283.125 105.994 Z" fill="#000000" fill-rule="evenodd" fill-opacity="1" /><path clip-path="url(#clip620)" d="M29.4065 1034.59 L34.9447 1034.59 Q33.6716 1037.07 33.035 1039.75 Q32.3984 1042.42 32.3984 1045.29 Q32.3984 1049.65 33.7352 1051.84 Q35.072 1054.01 37.7456 1054.01 Q39.7826 1054.01 40.9603 1052.45 Q42.1061 1050.89 43.1565 1046.18 L43.6021 1044.17 Q44.9389 1037.93 47.3897 1035.32 Q49.8086 1032.68 54.1691 1032.68 Q59.1344 1032.68 62.0308 1036.63 Q64.9272 1040.54 64.9272 1047.42 Q64.9272 1050.28 64.3543 1053.4 Q63.8132 1056.49 62.6992 1059.93 L56.6518 1059.93 Q58.3387 1056.68 59.198 1053.53 Q60.0256 1050.38 60.0256 1047.29 Q60.0256 1043.15 58.6251 1040.93 Q57.1929 1038.7 54.6147 1038.7 Q52.2276 1038.7 50.9545 1040.32 Q49.6813 1041.91 48.5037 1047.35 L48.0262 1049.39 Q46.8804 1054.83 44.5251 1057.25 Q42.138 1059.67 38.0002 1059.67 Q32.9713 1059.67 30.2341 1056.11 Q27.4968 1052.54 27.4968 1045.99 Q27.4968 1042.74 27.9743 1039.87 Q28.4517 1037.01 29.4065 1034.59 Z" fill="#000000" fill-rule="evenodd" fill-opacity="1" /><path clip-path="url(#clip620)" d="M42.4881 993.723 L64.0042 993.723 L64.0042 999.58 L42.679 999.58 Q37.6183 999.58 35.1038 1001.55 Q32.5894 1003.53 32.5894 1007.47 Q32.5894 1012.22 35.6131 1014.95 Q38.6368 1017.69 43.8567 1017.69 L64.0042 1017.69 L64.0042 1023.58 L28.3562 1023.58 L28.3562 1017.69 L33.8944 1017.69 Q30.6797 1015.59 29.0883 1012.76 Q27.4968 1009.89 27.4968 1006.17 Q27.4968 1000.03 31.3163 996.874 Q35.1038 993.723 42.4881 993.723 Z" fill="#000000" fill-rule="evenodd" fill-opacity="1" /><path clip-path="url(#clip620)" d="M32.4621 968.229 Q32.4621 972.939 36.1542 975.677 Q39.8145 978.414 46.212 978.414 Q52.6095 978.414 56.3017 975.708 Q59.9619 972.971 59.9619 968.229 Q59.9619 963.55 56.2698 960.813 Q52.5777 958.075 46.212 958.075 Q39.8781 958.075 36.186 960.813 Q32.4621 963.55 32.4621 968.229 M27.4968 968.229 Q27.4968 960.59 32.4621 956.229 Q37.4273 951.869 46.212 951.869 Q54.9649 951.869 59.9619 956.229 Q64.9272 960.59 64.9272 968.229 Q64.9272 975.899 59.9619 980.26 Q54.9649 984.589 46.212 984.589 Q37.4273 984.589 32.4621 980.26 Q27.4968 975.899 27.4968 968.229 Z" fill="#000000" fill-rule="evenodd" fill-opacity="1" /><path clip-path="url(#clip620)" d="M28.3562 945.567 L28.3562 939.71 L56.1743 932.39 L28.3562 925.101 L28.3562 918.194 L56.1743 910.874 L28.3562 903.585 L28.3562 897.728 L64.0042 907.054 L64.0042 913.961 L34.7856 921.632 L64.0042 929.334 L64.0042 936.241 L28.3562 945.567 Z" fill="#000000" fill-rule="evenodd" fill-opacity="1" /><path clip-path="url(#clip620)" d="M35.1993 840.373 Q31.2526 838.177 29.3747 835.122 Q27.4968 832.066 27.4968 827.928 Q27.4968 822.358 31.4117 819.335 Q35.2948 816.311 42.4881 816.311 L64.0042 816.311 L64.0042 822.199 L42.679 822.199 Q37.5546 822.199 35.072 824.014 Q32.5894 825.828 32.5894 829.552 Q32.5894 834.103 35.6131 836.745 Q38.6368 839.387 43.8567 839.387 L64.0042 839.387 L64.0042 845.275 L42.679 845.275 Q37.5228 845.275 35.072 847.089 Q32.5894 848.903 32.5894 852.691 Q32.5894 857.179 35.6449 859.821 Q38.6686 862.462 43.8567 862.462 L64.0042 862.462 L64.0042 868.351 L28.3562 868.351 L28.3562 862.462 L33.8944 862.462 Q30.616 860.457 29.0564 857.656 Q27.4968 854.855 27.4968 851.004 Q27.4968 847.121 29.4702 844.416 Q31.4436 841.678 35.1993 840.373 Z" fill="#000000" fill-rule="evenodd" fill-opacity="1" /><path clip-path="url(#clip620)" d="M44.7161 774.138 L47.5806 774.138 L47.5806 801.065 Q53.6281 800.683 56.8109 797.437 Q59.9619 794.158 59.9619 788.334 Q59.9619 784.96 59.1344 781.809 Q58.3069 778.626 56.6518 775.507 L62.1899 775.507 Q63.5267 778.658 64.227 781.968 Q64.9272 785.278 64.9272 788.684 Q64.9272 797.214 59.9619 802.211 Q54.9967 807.176 46.5303 807.176 Q37.7774 807.176 32.6531 802.466 Q27.4968 797.723 27.4968 789.702 Q27.4968 782.509 32.1438 778.34 Q36.7589 774.138 44.7161 774.138 M42.9973 779.995 Q38.1912 780.058 35.3266 782.7 Q32.4621 785.31 32.4621 789.639 Q32.4621 794.54 35.2312 797.5 Q38.0002 800.429 43.0292 800.874 L42.9973 779.995 Z" fill="#000000" fill-rule="evenodd" fill-opacity="1" /><path clip-path="url(#clip620)" d="M14.479 764.526 L14.479 758.67 L64.0042 758.67 L64.0042 764.526 L14.479 764.526 Z" fill="#000000" fill-rule="evenodd" fill-opacity="1" /><path clip-path="url(#clip620)" d="M18.2347 740.623 L28.3562 740.623 L28.3562 728.56 L32.9077 728.56 L32.9077 740.623 L52.2594 740.623 Q56.6199 740.623 57.8613 739.445 Q59.1026 738.236 59.1026 734.575 L59.1026 728.56 L64.0042 728.56 L64.0042 734.575 Q64.0042 741.355 61.4897 743.933 Q58.9434 746.511 52.2594 746.511 L32.9077 746.511 L32.9077 750.808 L28.3562 750.808 L28.3562 746.511 L18.2347 746.511 L18.2347 740.623 Z" fill="#000000" fill-rule="evenodd" fill-opacity="1" /><path clip-path="url(#clip620)" d="M33.8307 679.48 Q33.2578 680.467 33.0032 681.645 Q32.7167 682.79 32.7167 684.191 Q32.7167 689.156 35.9632 691.83 Q39.1779 694.471 45.2253 694.471 L64.0042 694.471 L64.0042 700.36 L28.3562 700.36 L28.3562 694.471 L33.8944 694.471 Q30.6479 692.625 29.0883 689.665 Q27.4968 686.705 27.4968 682.472 Q27.4968 681.867 27.5923 681.135 Q27.656 680.403 27.8151 679.512 L33.8307 679.48 Z" fill="#000000" fill-rule="evenodd" fill-opacity="1" /><path clip-path="url(#clip620)" d="M46.0847 657.137 Q46.0847 664.234 47.7079 666.972 Q49.3312 669.709 53.2461 669.709 Q56.3653 669.709 58.2114 667.672 Q60.0256 665.603 60.0256 662.07 Q60.0256 657.2 56.5881 654.272 Q53.1188 651.312 47.3897 651.312 L46.0847 651.312 L46.0847 657.137 M43.6657 645.456 L64.0042 645.456 L64.0042 651.312 L58.5933 651.312 Q61.8398 653.317 63.3994 656.309 Q64.9272 659.301 64.9272 663.63 Q64.9272 669.104 61.8716 672.351 Q58.7843 675.565 53.6281 675.565 Q47.6125 675.565 44.5569 671.555 Q41.5014 667.513 41.5014 659.524 L41.5014 651.312 L40.9285 651.312 Q36.8862 651.312 34.6901 653.986 Q32.4621 656.627 32.4621 661.433 Q32.4621 664.489 33.1941 667.385 Q33.9262 670.282 35.3903 672.955 L29.9795 672.955 Q28.7381 669.741 28.1334 666.717 Q27.4968 663.693 27.4968 660.829 Q27.4968 653.094 31.5072 649.275 Q35.5176 645.456 43.6657 645.456 Z" fill="#000000" fill-rule="evenodd" fill-opacity="1" /><path clip-path="url(#clip620)" d="M18.2347 627.6 L28.3562 627.6 L28.3562 615.537 L32.9077 615.537 L32.9077 627.6 L52.2594 627.6 Q56.6199 627.6 57.8613 626.422 Q59.1026 625.213 59.1026 621.552 L59.1026 615.537 L64.0042 615.537 L64.0042 621.552 Q64.0042 628.332 61.4897 630.91 Q58.9434 633.488 52.2594 633.488 L32.9077 633.488 L32.9077 637.785 L28.3562 637.785 L28.3562 633.488 L18.2347 633.488 L18.2347 627.6 Z" fill="#000000" fill-rule="evenodd" fill-opacity="1" /><path clip-path="url(#clip620)" d="M44.7161 577.342 L47.5806 577.342 L47.5806 604.269 Q53.6281 603.887 56.8109 600.641 Q59.9619 597.363 59.9619 591.538 Q59.9619 588.164 59.1344 585.013 Q58.3069 581.83 56.6518 578.711 L62.1899 578.711 Q63.5267 581.862 64.227 585.172 Q64.9272 588.482 64.9272 591.888 Q64.9272 600.418 59.9619 605.415 Q54.9967 610.38 46.5303 610.38 Q37.7774 610.38 32.6531 605.67 Q27.4968 600.927 27.4968 592.907 Q27.4968 585.713 32.1438 581.544 Q36.7589 577.342 44.7161 577.342 M42.9973 583.199 Q38.1912 583.263 35.3266 585.904 Q32.4621 588.514 32.4621 592.843 Q32.4621 597.745 35.2312 600.705 Q38.0002 603.633 43.0292 604.078 L42.9973 583.199 Z" fill="#000000" fill-rule="evenodd" fill-opacity="1" /><path clip-path="url(#clip620)" d="M14.479 547.551 L14.479 534.056 L19.0304 534.056 L19.0304 541.694 L68.0464 541.694 L68.0464 534.056 L72.5979 534.056 L72.5979 547.551 L14.479 547.551 Z" fill="#000000" fill-rule="evenodd" fill-opacity="1" /><path clip-path="url(#clip620)" d="M58.5933 519.637 L58.5933 509.134 L22.3406 509.134 L24.6323 520.56 L18.7758 520.56 L16.4842 509.198 L16.4842 502.768 L58.5933 502.768 L58.5933 492.265 L64.0042 492.265 L64.0042 519.637 L58.5933 519.637 Z" fill="#000000" fill-rule="evenodd" fill-opacity="1" /><path clip-path="url(#clip620)" d="M16.4842 469.698 L16.4842 464.287 L70.0516 480.838 L70.0516 486.249 L16.4842 469.698 Z" fill="#000000" fill-rule="evenodd" fill-opacity="1" /><path clip-path="url(#clip620)" d="M29.4065 435.419 L34.9447 435.419 Q33.6716 437.902 33.035 440.575 Q32.3984 443.249 32.3984 446.113 Q32.3984 450.474 33.7352 452.67 Q35.072 454.834 37.7456 454.834 Q39.7826 454.834 40.9603 453.275 Q42.1061 451.715 43.1565 447.005 L43.6021 444.999 Q44.9389 438.761 47.3897 436.151 Q49.8086 433.509 54.1691 433.509 Q59.1344 433.509 62.0308 437.456 Q64.9272 441.371 64.9272 448.246 Q64.9272 451.11 64.3543 454.23 Q63.8132 457.317 62.6992 460.755 L56.6518 460.755 Q58.3387 457.508 59.198 454.357 Q60.0256 451.206 60.0256 448.119 Q60.0256 443.981 58.6251 441.753 Q57.1929 439.525 54.6147 439.525 Q52.2276 439.525 50.9545 441.148 Q49.6813 442.74 48.5037 448.182 L48.0262 450.219 Q46.8804 455.662 44.5251 458.081 Q42.138 460.5 38.0002 460.5 Q32.9713 460.5 30.2341 456.935 Q27.4968 453.37 27.4968 446.814 Q27.4968 443.567 27.9743 440.703 Q28.4517 437.838 29.4065 435.419 Z" fill="#000000" fill-rule="evenodd" fill-opacity="1" /><path clip-path="url(#clip620)" d="M14.479 410.497 L72.5979 410.497 L72.5979 423.993 L68.0464 423.993 L68.0464 416.386 L19.0304 416.386 L19.0304 423.993 L14.479 423.993 L14.479 410.497 Z" fill="#000000" fill-rule="evenodd" fill-opacity="1" /><polyline clip-path="url(#clip622)" style="stroke:#009af9; stroke-linecap:butt; stroke-linejoin:round; stroke-width:12; stroke-opacity:1; fill:none" points="
  396.992,1384.24 416.171,1378.52 435.351,1373.26 454.531,1368.17 473.711,1363.17 492.891,1358.25 512.07,1353.39 531.25,1348.57 550.43,1343.8 569.61,1339.05 
  588.79,1334.34 607.969,1329.66 627.149,1325 646.329,1320.36 665.509,1315.75 684.689,1311.15 703.868,1306.57 723.048,1302.01 742.228,1297.46 761.408,1292.93 
  780.588,1288.41 799.767,1283.9 818.947,1279.41 838.127,1274.92 857.307,1270.45 876.487,1265.99 895.666,1261.54 914.846,1257.1 934.026,1252.67 953.206,1248.24 
  972.386,1243.83 991.565,1239.42 1010.75,1235.03 1029.93,1230.64 1049.1,1226.25 1068.28,1221.88 1087.46,1217.51 1106.64,1213.15 1125.82,1208.8 1145,1204.45 
  1164.18,1200.11 1183.36,1195.77 1202.54,1191.44 1221.72,1187.12 1240.9,1182.8 1260.08,1178.49 1279.26,1174.18 1298.44,1169.88 1317.62,1165.59 1336.8,1161.29 
  1355.98,1157.01 1375.16,1152.73 1394.34,1148.45 1413.52,1144.18 1432.7,1139.91 1451.88,1135.65 1471.06,1131.39 1490.24,1127.14 1509.42,1122.89 1528.6,1118.64 
  1547.78,1114.4 1566.96,1110.16 1586.14,1105.93 1605.32,1101.7 1624.5,1097.47 1643.68,1093.25 1662.86,1089.03 1682.04,1084.82 1701.22,1080.6 1720.4,1076.4 
  1739.58,1072.19 1758.76,1067.99 1777.94,1063.79 1797.12,1059.6 1816.3,1055.41 1835.48,1051.22 1854.66,1047.03 1873.84,1042.85 1893.02,1038.67 1912.2,1034.5 
  1931.38,1030.32 1950.56,1026.15 1969.74,1021.99 1988.92,1017.82 2008.09,1013.66 2027.27,1009.5 2046.45,1005.35 2065.63,1001.19 2084.81,997.042 2103.99,992.894 
  2123.17,988.749 2142.35,984.606 2161.53,980.466 2180.71,976.329 2199.89,972.194 2219.07,968.061 2238.25,963.931 2257.43,959.804 2276.61,955.678 2295.79,951.555 
  
  "/>
<polyline clip-path="url(#clip622)" style="stroke:#e26f46; stroke-linecap:butt; stroke-linejoin:round; stroke-width:12; stroke-opacity:1; fill:none" points="
  396.992,1384.24 416.171,1372.79 435.351,1362.28 454.531,1352.09 473.711,1342.1 492.891,1332.26 512.07,1322.54 531.25,1312.9 550.43,1303.35 569.61,1293.87 
  588.79,1284.45 607.969,1275.08 627.149,1265.76 646.329,1256.49 665.509,1247.26 684.689,1238.06 703.868,1228.9 723.048,1219.77 742.228,1210.68 761.408,1201.61 
  780.588,1192.57 799.767,1183.56 818.947,1174.57 838.127,1165.6 857.307,1156.66 876.487,1147.74 895.666,1138.84 914.846,1129.95 934.026,1121.09 953.206,1112.25 
  972.386,1103.42 991.565,1094.61 1010.75,1085.81 1029.93,1077.03 1049.1,1068.27 1068.28,1059.52 1087.46,1050.78 1106.64,1042.06 1125.82,1033.35 1145,1024.66 
  1164.18,1015.97 1183.36,1007.3 1202.54,998.645 1221.72,989.998 1240.9,981.363 1260.08,972.739 1279.26,964.126 1298.44,955.523 1317.62,946.931 1336.8,938.349 
  1355.98,929.777 1375.16,921.214 1394.34,912.661 1413.52,904.118 1432.7,895.583 1451.88,887.057 1471.06,878.541 1490.24,870.032 1509.42,861.532 1528.6,853.041 
  1547.78,844.558 1566.96,836.082 1586.14,827.615 1605.32,819.155 1624.5,810.702 1643.68,802.258 1662.86,793.82 1682.04,785.39 1701.22,776.967 1720.4,768.551 
  1739.58,760.141 1758.76,751.739 1777.94,743.343 1797.12,734.954 1816.3,726.571 1835.48,718.194 1854.66,709.824 1873.84,701.46 1893.02,693.102 1912.2,684.751 
  1931.38,676.405 1950.56,668.065 1969.74,659.731 1988.92,651.402 2008.09,643.08 2027.27,634.762 2046.45,626.451 2065.63,618.144 2084.81,609.844 2103.99,601.548 
  2123.17,593.258 2142.35,584.972 2161.53,576.692 2180.71,568.417 2199.89,560.147 2219.07,551.882 2238.25,543.622 2257.43,535.367 2276.61,527.116 2295.79,518.871 
  
  "/>
<polyline clip-path="url(#clip622)" style="stroke:#3da44d; stroke-linecap:butt; stroke-linejoin:round; stroke-width:12; stroke-opacity:1; fill:none" points="
  396.992,1384.23 416.171,1367.07 435.351,1351.3 454.531,1336.02 473.711,1321.03 492.891,1306.27 512.07,1291.68 531.25,1277.24 550.43,1262.91 569.61,1248.68 
  588.79,1234.55 607.969,1220.5 627.149,1206.52 646.329,1192.61 665.509,1178.76 684.689,1164.97 703.868,1151.23 723.048,1137.54 742.228,1123.9 761.408,1110.3 
  780.588,1096.74 799.767,1083.22 818.947,1069.73 838.127,1056.29 857.307,1042.87 876.487,1029.49 895.666,1016.13 914.846,1002.81 934.026,989.516 953.206,976.248 
  972.386,963.006 991.565,949.789 1010.75,936.596 1029.93,923.427 1049.1,910.28 1068.28,897.156 1087.46,884.052 1106.64,870.97 1125.82,857.907 1145,844.864 
  1164.18,831.84 1183.36,818.835 1202.54,805.847 1221.72,792.877 1240.9,779.925 1260.08,766.989 1279.26,754.069 1298.44,741.165 1317.62,728.276 1336.8,715.403 
  1355.98,702.545 1375.16,689.701 1394.34,676.872 1413.52,664.056 1432.7,651.254 1451.88,638.466 1471.06,625.691 1490.24,612.928 1509.42,600.179 1528.6,587.441 
  1547.78,574.716 1566.96,562.003 1586.14,549.302 1605.32,536.612 1624.5,523.934 1643.68,511.266 1662.86,498.61 1682.04,485.965 1701.22,473.33 1720.4,460.706 
  1739.58,448.092 1758.76,435.488 1777.94,422.894 1797.12,410.31 1816.3,397.736 1835.48,385.171 1854.66,372.616 1873.84,360.07 1893.02,347.534 1912.2,335.006 
  1931.38,322.487 1950.56,309.977 1969.74,297.476 1988.92,284.983 2008.09,272.499 2027.27,260.023 2046.45,247.556 2065.63,235.097 2084.81,222.645 2103.99,210.202 
  2123.17,197.766 2142.35,185.339 2161.53,172.918 2180.71,160.506 2199.89,148.101 2219.07,135.703 2238.25,123.313 2257.43,110.93 2276.61,98.5544 2295.79,86.1857 
  
  "/>
<path clip-path="url(#clip620)" d="
M1932.52 300.469 L2285.66 300.469 L2285.66 93.1086 L1932.52 93.1086  Z
  " fill="#ffffff" fill-rule="evenodd" fill-opacity="1"/>
<polyline clip-path="url(#clip620)" style="stroke:#000000; stroke-linecap:butt; stroke-linejoin:round; stroke-width:4; stroke-opacity:1; fill:none" points="
  1932.52,300.469 2285.66,300.469 2285.66,93.1086 1932.52,93.1086 1932.52,300.469 
  "/>
<polyline clip-path="url(#clip620)" style="stroke:#009af9; stroke-linecap:butt; stroke-linejoin:round; stroke-width:4; stroke-opacity:1; fill:none" points="
  1954.88,144.949 2089.06,144.949 
  "/>
<path clip-path="url(#clip620)" d="M2111.42 127.669 L2140.66 127.669 L2140.66 131.604 L2128.39 131.604 L2128.39 162.229 L2123.69 162.229 L2123.69 131.604 L2111.42 131.604 L2111.42 127.669 Z" fill="#000000" fill-rule="evenodd" fill-opacity="1" /><path clip-path="url(#clip620)" d="M2145.54 140.701 L2175.22 140.701 L2175.22 144.59 L2145.54 144.59 L2145.54 140.701 M2145.54 150.145 L2175.22 150.145 L2175.22 154.081 L2145.54 154.081 L2145.54 150.145 Z" fill="#000000" fill-rule="evenodd" fill-opacity="1" /><path clip-path="url(#clip620)" d="M2189.34 158.293 L2205.66 158.293 L2205.66 162.229 L2183.72 162.229 L2183.72 158.293 Q2186.38 155.539 2190.96 150.909 Q2195.57 146.256 2196.75 144.914 Q2198.99 142.391 2199.87 140.655 Q2200.78 138.895 2200.78 137.206 Q2200.78 134.451 2198.83 132.715 Q2196.91 130.979 2193.81 130.979 Q2191.61 130.979 2189.16 131.743 Q2186.72 132.507 2183.95 134.057 L2183.95 129.335 Q2186.77 128.201 2189.22 127.622 Q2191.68 127.044 2193.72 127.044 Q2199.09 127.044 2202.28 129.729 Q2205.47 132.414 2205.47 136.905 Q2205.47 139.034 2204.66 140.956 Q2203.88 142.854 2201.77 145.446 Q2201.19 146.118 2198.09 149.335 Q2194.99 152.53 2189.34 158.293 Z" fill="#000000" fill-rule="evenodd" fill-opacity="1" /><path clip-path="url(#clip620)" d="M2240.94 130.331 L2240.94 135.261 Q2238.58 133.062 2235.89 131.974 Q2233.23 130.886 2230.22 130.886 Q2224.29 130.886 2221.15 134.52 Q2218 138.132 2218 144.983 Q2218 151.812 2221.15 155.446 Q2224.29 159.057 2230.22 159.057 Q2233.23 159.057 2235.89 157.969 Q2238.58 156.881 2240.94 154.682 L2240.94 159.567 Q2238.48 161.233 2235.73 162.067 Q2233 162.9 2229.94 162.9 Q2222.1 162.9 2217.58 158.108 Q2213.07 153.293 2213.07 144.983 Q2213.07 136.65 2217.58 131.858 Q2222.1 127.044 2229.94 127.044 Q2233.04 127.044 2235.78 127.877 Q2238.53 128.687 2240.94 130.331 Z" fill="#000000" fill-rule="evenodd" fill-opacity="1" /><polyline clip-path="url(#clip620)" style="stroke:#e26f46; stroke-linecap:butt; stroke-linejoin:round; stroke-width:4; stroke-opacity:1; fill:none" points="
  1954.88,196.789 2089.06,196.789 
  "/>
<path clip-path="url(#clip620)" d="M2111.42 179.509 L2140.66 179.509 L2140.66 183.444 L2128.39 183.444 L2128.39 214.069 L2123.69 214.069 L2123.69 183.444 L2111.42 183.444 L2111.42 179.509 Z" fill="#000000" fill-rule="evenodd" fill-opacity="1" /><path clip-path="url(#clip620)" d="M2145.54 192.541 L2175.22 192.541 L2175.22 196.43 L2145.54 196.43 L2145.54 192.541 M2145.54 201.985 L2175.22 201.985 L2175.22 205.921 L2145.54 205.921 L2145.54 201.985 Z" fill="#000000" fill-rule="evenodd" fill-opacity="1" /><path clip-path="url(#clip620)" d="M2198.16 183.583 L2186.35 202.032 L2198.16 202.032 L2198.16 183.583 M2196.93 179.509 L2202.81 179.509 L2202.81 202.032 L2207.74 202.032 L2207.74 205.921 L2202.81 205.921 L2202.81 214.069 L2198.16 214.069 L2198.16 205.921 L2182.56 205.921 L2182.56 201.407 L2196.93 179.509 Z" fill="#000000" fill-rule="evenodd" fill-opacity="1" /><path clip-path="url(#clip620)" d="M2240.94 182.171 L2240.94 187.101 Q2238.58 184.902 2235.89 183.814 Q2233.23 182.726 2230.22 182.726 Q2224.29 182.726 2221.15 186.36 Q2218 189.972 2218 196.823 Q2218 203.652 2221.15 207.286 Q2224.29 210.897 2230.22 210.897 Q2233.23 210.897 2235.89 209.809 Q2238.58 208.721 2240.94 206.522 L2240.94 211.407 Q2238.48 213.073 2235.73 213.907 Q2233 214.74 2229.94 214.74 Q2222.1 214.74 2217.58 209.948 Q2213.07 205.133 2213.07 196.823 Q2213.07 188.49 2217.58 183.698 Q2222.1 178.884 2229.94 178.884 Q2233.04 178.884 2235.78 179.717 Q2238.53 180.527 2240.94 182.171 Z" fill="#000000" fill-rule="evenodd" fill-opacity="1" /><polyline clip-path="url(#clip620)" style="stroke:#3da44d; stroke-linecap:butt; stroke-linejoin:round; stroke-width:4; stroke-opacity:1; fill:none" points="
  1954.88,248.629 2089.06,248.629 
  "/>
<path clip-path="url(#clip620)" d="M2111.42 231.349 L2140.66 231.349 L2140.66 235.284 L2128.39 235.284 L2128.39 265.909 L2123.69 265.909 L2123.69 235.284 L2111.42 235.284 L2111.42 231.349 Z" fill="#000000" fill-rule="evenodd" fill-opacity="1" /><path clip-path="url(#clip620)" d="M2145.54 244.381 L2175.22 244.381 L2175.22 248.27 L2145.54 248.27 L2145.54 244.381 M2145.54 253.825 L2175.22 253.825 L2175.22 257.761 L2145.54 257.761 L2145.54 253.825 Z" fill="#000000" fill-rule="evenodd" fill-opacity="1" /><path clip-path="url(#clip620)" d="M2195.89 246.765 Q2192.74 246.765 2190.89 248.918 Q2189.06 251.071 2189.06 254.821 Q2189.06 258.548 2190.89 260.723 Q2192.74 262.876 2195.89 262.876 Q2199.04 262.876 2200.87 260.723 Q2202.72 258.548 2202.72 254.821 Q2202.72 251.071 2200.87 248.918 Q2199.04 246.765 2195.89 246.765 M2205.17 232.113 L2205.17 236.372 Q2203.41 235.538 2201.61 235.099 Q2199.83 234.659 2198.07 234.659 Q2193.44 234.659 2190.98 237.784 Q2188.55 240.909 2188.21 247.228 Q2189.57 245.214 2191.63 244.149 Q2193.69 243.062 2196.17 243.062 Q2201.38 243.062 2204.39 246.233 Q2207.42 249.381 2207.42 254.821 Q2207.42 260.145 2204.27 263.362 Q2201.12 266.58 2195.89 266.58 Q2189.9 266.58 2186.72 261.997 Q2183.55 257.39 2183.55 248.663 Q2183.55 240.469 2187.44 235.608 Q2191.33 230.724 2197.88 230.724 Q2199.64 230.724 2201.42 231.071 Q2203.23 231.418 2205.17 232.113 Z" fill="#000000" fill-rule="evenodd" fill-opacity="1" /><path clip-path="url(#clip620)" d="M2240.94 234.011 L2240.94 238.941 Q2238.58 236.742 2235.89 235.654 Q2233.23 234.566 2230.22 234.566 Q2224.29 234.566 2221.15 238.2 Q2218 241.812 2218 248.663 Q2218 255.492 2221.15 259.126 Q2224.29 262.737 2230.22 262.737 Q2233.23 262.737 2235.89 261.649 Q2238.58 260.561 2240.94 258.362 L2240.94 263.247 Q2238.48 264.913 2235.73 265.747 Q2233 266.58 2229.94 266.58 Q2222.1 266.58 2217.58 261.788 Q2213.07 256.973 2213.07 248.663 Q2213.07 240.33 2217.58 235.538 Q2222.1 230.724 2229.94 230.724 Q2233.04 230.724 2235.78 231.557 Q2238.53 232.367 2240.94 234.011 Z" fill="#000000" fill-rule="evenodd" fill-opacity="1" /></svg>
