<?xml version="1.0" encoding="utf-8"?>
<svg xmlns="http://www.w3.org/2000/svg" xmlns:xlink="http://www.w3.org/1999/xlink" width="600" height="400" viewBox="0 0 2400 1600">
<defs>
  <clipPath id="clip590">
    <rect x="0" y="0" width="2400" height="1600"/>
  </clipPath>
</defs>
<path clip-path="url(#clip590)" d="
M0 1600 L2400 1600 L2400 0 L0 0  Z
  " fill="#ffffff" fill-rule="evenodd" fill-opacity="1"/>
<defs>
  <clipPath id="clip591">
    <rect x="480" y="0" width="1681" height="1600"/>
  </clipPath>
</defs>
<path clip-path="url(#clip590)" d="
M406.583 1423.18 L2352.76 1423.18 L2352.76 47.2441 L406.583 47.2441  Z
  " fill="#ffffff" fill-rule="evenodd" fill-opacity="1"/>
<defs>
  <clipPath id="clip592">
    <rect x="406" y="47" width="1947" height="1377"/>
  </clipPath>
</defs>
<polyline clip-path="url(#clip592)" style="stroke:#000000; stroke-linecap:butt; stroke-linejoin:round; stroke-width:2; stroke-opacity:0.1; fill:none" points="
  461.659,1423.18 461.659,47.2441 
  "/>
<polyline clip-path="url(#clip592)" style="stroke:#000000; stroke-linecap:butt; stroke-linejoin:round; stroke-width:2; stroke-opacity:0.1; fill:none" points="
  828.863,1423.18 828.863,47.2441 
  "/>
<polyline clip-path="url(#clip592)" style="stroke:#000000; stroke-linecap:butt; stroke-linejoin:round; stroke-width:2; stroke-opacity:0.1; fill:none" points="
  1196.07,1423.18 1196.07,47.2441 
  "/>
<polyline clip-path="url(#clip592)" style="stroke:#000000; stroke-linecap:butt; stroke-linejoin:round; stroke-width:2; stroke-opacity:0.1; fill:none" points="
  1563.27,1423.18 1563.27,47.2441 
  "/>
<polyline clip-path="url(#clip592)" style="stroke:#000000; stroke-linecap:butt; stroke-linejoin:round; stroke-width:2; stroke-opacity:0.1; fill:none" points="
  1930.47,1423.18 1930.47,47.2441 
  "/>
<polyline clip-path="url(#clip592)" style="stroke:#000000; stroke-linecap:butt; stroke-linejoin:round; stroke-width:2; stroke-opacity:0.1; fill:none" points="
  2297.68,1423.18 2297.68,47.2441 
  "/>
<polyline clip-path="url(#clip590)" style="stroke:#000000; stroke-linecap:butt; stroke-linejoin:round; stroke-width:4; stroke-opacity:1; fill:none" points="
  406.583,1423.18 2352.76,1423.18 
  "/>
<polyline clip-path="url(#clip590)" style="stroke:#000000; stroke-linecap:butt; stroke-linejoin:round; stroke-width:4; stroke-opacity:1; fill:none" points="
  461.659,1423.18 461.659,1404.28 
  "/>
<polyline clip-path="url(#clip590)" style="stroke:#000000; stroke-linecap:butt; stroke-linejoin:round; stroke-width:4; stroke-opacity:1; fill:none" points="
  828.863,1423.18 828.863,1404.28 
  "/>
<polyline clip-path="url(#clip590)" style="stroke:#000000; stroke-linecap:butt; stroke-linejoin:round; stroke-width:4; stroke-opacity:1; fill:none" points="
  1196.07,1423.18 1196.07,1404.28 
  "/>
<polyline clip-path="url(#clip590)" style="stroke:#000000; stroke-linecap:butt; stroke-linejoin:round; stroke-width:4; stroke-opacity:1; fill:none" points="
  1563.27,1423.18 1563.27,1404.28 
  "/>
<polyline clip-path="url(#clip590)" style="stroke:#000000; stroke-linecap:butt; stroke-linejoin:round; stroke-width:4; stroke-opacity:1; fill:none" points="
  1930.47,1423.18 1930.47,1404.28 
  "/>
<polyline clip-path="url(#clip590)" style="stroke:#000000; stroke-linecap:butt; stroke-linejoin:round; stroke-width:4; stroke-opacity:1; fill:none" points="
  2297.68,1423.18 2297.68,1404.28 
  "/>
<path clip-path="url(#clip590)" d="M461.659 1454.1 Q458.048 1454.1 456.219 1457.66 Q454.414 1461.2 454.414 1468.33 Q454.414 1475.44 456.219 1479.01 Q458.048 1482.55 461.659 1482.55 Q465.294 1482.55 467.099 1479.01 Q468.928 1475.44 468.928 1468.33 Q468.928 1461.2 467.099 1457.66 Q465.294 1454.1 461.659 1454.1 M461.659 1450.39 Q467.469 1450.39 470.525 1455 Q473.604 1459.58 473.604 1468.33 Q473.604 1477.06 470.525 1481.67 Q467.469 1486.25 461.659 1486.25 Q455.849 1486.25 452.77 1481.67 Q449.715 1477.06 449.715 1468.33 Q449.715 1459.58 452.77 1455 Q455.849 1450.39 461.659 1450.39 Z" fill="#000000" fill-rule="evenodd" fill-opacity="1" /><path clip-path="url(#clip590)" d="M819.245 1481.64 L826.883 1481.64 L826.883 1455.28 L818.573 1456.95 L818.573 1452.69 L826.837 1451.02 L831.513 1451.02 L831.513 1481.64 L839.152 1481.64 L839.152 1485.58 L819.245 1485.58 L819.245 1481.64 Z" fill="#000000" fill-rule="evenodd" fill-opacity="1" /><path clip-path="url(#clip590)" d="M1190.72 1481.64 L1207.04 1481.64 L1207.04 1485.58 L1185.09 1485.58 L1185.09 1481.64 Q1187.76 1478.89 1192.34 1474.26 Q1196.95 1469.61 1198.13 1468.27 Q1200.37 1465.74 1201.25 1464.01 Q1202.15 1462.25 1202.15 1460.56 Q1202.15 1457.8 1200.21 1456.07 Q1198.29 1454.33 1195.19 1454.33 Q1192.99 1454.33 1190.53 1455.09 Q1188.1 1455.86 1185.33 1457.41 L1185.33 1452.69 Q1188.15 1451.55 1190.6 1450.97 Q1193.06 1450.39 1195.09 1450.39 Q1200.46 1450.39 1203.66 1453.08 Q1206.85 1455.77 1206.85 1460.26 Q1206.85 1462.39 1206.04 1464.31 Q1205.26 1466.2 1203.15 1468.8 Q1202.57 1469.47 1199.47 1472.69 Q1196.37 1475.88 1190.72 1481.64 Z" fill="#000000" fill-rule="evenodd" fill-opacity="1" /><path clip-path="url(#clip590)" d="M1567.52 1466.95 Q1570.87 1467.66 1572.75 1469.93 Q1574.65 1472.2 1574.65 1475.53 Q1574.65 1480.65 1571.13 1483.45 Q1567.61 1486.25 1561.13 1486.25 Q1558.95 1486.25 1556.64 1485.81 Q1554.35 1485.39 1551.89 1484.54 L1551.89 1480.02 Q1553.84 1481.16 1556.15 1481.74 Q1558.47 1482.32 1560.99 1482.32 Q1565.39 1482.32 1567.68 1480.58 Q1569.99 1478.84 1569.99 1475.53 Q1569.99 1472.48 1567.84 1470.77 Q1565.71 1469.03 1561.89 1469.03 L1557.86 1469.03 L1557.86 1465.19 L1562.08 1465.19 Q1565.53 1465.19 1567.35 1463.82 Q1569.18 1462.43 1569.18 1459.84 Q1569.18 1457.18 1567.29 1455.77 Q1565.41 1454.33 1561.89 1454.33 Q1559.97 1454.33 1557.77 1454.75 Q1555.57 1455.16 1552.93 1456.04 L1552.93 1451.88 Q1555.6 1451.14 1557.91 1450.77 Q1560.25 1450.39 1562.31 1450.39 Q1567.63 1450.39 1570.73 1452.83 Q1573.84 1455.23 1573.84 1459.35 Q1573.84 1462.22 1572.19 1464.21 Q1570.55 1466.18 1567.52 1466.95 Z" fill="#000000" fill-rule="evenodd" fill-opacity="1" /><path clip-path="url(#clip590)" d="M1933.48 1455.09 L1921.68 1473.54 L1933.48 1473.54 L1933.48 1455.09 M1932.25 1451.02 L1938.13 1451.02 L1938.13 1473.54 L1943.06 1473.54 L1943.06 1477.43 L1938.13 1477.43 L1938.13 1485.58 L1933.48 1485.58 L1933.48 1477.43 L1917.88 1477.43 L1917.88 1472.92 L1932.25 1451.02 Z" fill="#000000" fill-rule="evenodd" fill-opacity="1" /><path clip-path="url(#clip590)" d="M2287.95 1451.02 L2306.31 1451.02 L2306.31 1454.96 L2292.24 1454.96 L2292.24 1463.43 Q2293.25 1463.08 2294.27 1462.92 Q2295.29 1462.73 2296.31 1462.73 Q2302.1 1462.73 2305.48 1465.9 Q2308.86 1469.08 2308.86 1474.49 Q2308.86 1480.07 2305.38 1483.17 Q2301.91 1486.25 2295.59 1486.25 Q2293.42 1486.25 2291.15 1485.88 Q2288.9 1485.51 2286.5 1484.77 L2286.5 1480.07 Q2288.58 1481.2 2290.8 1481.76 Q2293.02 1482.32 2295.5 1482.32 Q2299.5 1482.32 2301.84 1480.21 Q2304.18 1478.1 2304.18 1474.49 Q2304.18 1470.88 2301.84 1468.77 Q2299.5 1466.67 2295.5 1466.67 Q2293.62 1466.67 2291.75 1467.08 Q2289.9 1467.5 2287.95 1468.38 L2287.95 1451.02 Z" fill="#000000" fill-rule="evenodd" fill-opacity="1" /><path clip-path="url(#clip590)" d="M1162.07 1550.25 Q1162.07 1556.71 1164.72 1560.4 Q1167.39 1564.07 1172.04 1564.07 Q1176.68 1564.07 1179.36 1560.4 Q1182.03 1556.71 1182.03 1550.25 Q1182.03 1543.79 1179.36 1540.13 Q1176.68 1536.44 1172.04 1536.44 Q1167.39 1536.44 1164.72 1540.13 Q1162.07 1543.79 1162.07 1550.25 M1182.03 1562.7 Q1180.18 1565.88 1177.35 1567.44 Q1174.55 1568.97 1170.6 1568.97 Q1164.14 1568.97 1160.07 1563.81 Q1156.03 1558.65 1156.03 1550.25 Q1156.03 1541.85 1160.07 1536.69 Q1164.14 1531.54 1170.6 1531.54 Q1174.55 1531.54 1177.35 1533.1 Q1180.18 1534.62 1182.03 1537.81 L1182.03 1532.4 L1187.89 1532.4 L1187.89 1581.6 L1182.03 1581.6 L1182.03 1562.7 Z" fill="#000000" fill-rule="evenodd" fill-opacity="1" /><path clip-path="url(#clip590)" d="M1227.04 1578.87 L1227.04 1583.42 L1193.17 1583.42 L1193.17 1578.87 L1227.04 1578.87 Z" fill="#000000" fill-rule="evenodd" fill-opacity="1" /><path clip-path="url(#clip590)" d="M1255.27 1533.45 L1255.27 1538.98 Q1252.78 1537.71 1250.11 1537.07 Q1247.44 1536.44 1244.57 1536.44 Q1240.21 1536.44 1238.02 1537.77 Q1235.85 1539.11 1235.85 1541.79 Q1235.85 1543.82 1237.41 1545 Q1238.97 1546.15 1243.68 1547.2 L1245.69 1547.64 Q1251.93 1548.98 1254.54 1551.43 Q1257.18 1553.85 1257.18 1558.21 Q1257.18 1563.17 1253.23 1566.07 Q1249.32 1568.97 1242.44 1568.97 Q1239.58 1568.97 1236.46 1568.39 Q1233.37 1567.85 1229.93 1566.74 L1229.93 1560.69 Q1233.18 1562.38 1236.33 1563.24 Q1239.48 1564.07 1242.57 1564.07 Q1246.71 1564.07 1248.93 1562.66 Q1251.16 1561.23 1251.16 1558.65 Q1251.16 1556.27 1249.54 1554.99 Q1247.95 1553.72 1242.5 1552.54 L1240.47 1552.07 Q1235.02 1550.92 1232.61 1548.56 Q1230.19 1546.18 1230.19 1542.04 Q1230.19 1537.01 1233.75 1534.27 Q1237.32 1531.54 1243.87 1531.54 Q1247.12 1531.54 1249.98 1532.01 Q1252.85 1532.49 1255.27 1533.45 Z" fill="#000000" fill-rule="evenodd" fill-opacity="1" /><path clip-path="url(#clip590)" d="M1296.14 1546.53 L1296.14 1568.04 L1290.28 1568.04 L1290.28 1546.72 Q1290.28 1541.66 1288.31 1539.14 Q1286.33 1536.63 1282.39 1536.63 Q1277.64 1536.63 1274.91 1539.65 Q1272.17 1542.68 1272.17 1547.9 L1272.17 1568.04 L1266.28 1568.04 L1266.28 1532.4 L1272.17 1532.4 L1272.17 1537.93 Q1274.27 1534.72 1277.1 1533.13 Q1279.97 1531.54 1283.69 1531.54 Q1289.83 1531.54 1292.98 1535.36 Q1296.14 1539.14 1296.14 1546.53 Z" fill="#000000" fill-rule="evenodd" fill-opacity="1" /><path clip-path="url(#clip590)" d="M1321.63 1536.5 Q1316.92 1536.5 1314.18 1540.19 Q1311.44 1543.85 1311.44 1550.25 Q1311.44 1556.65 1314.15 1560.34 Q1316.89 1564 1321.63 1564 Q1326.31 1564 1329.05 1560.31 Q1331.78 1556.62 1331.78 1550.25 Q1331.78 1543.92 1329.05 1540.23 Q1326.31 1536.5 1321.63 1536.5 M1321.63 1531.54 Q1329.27 1531.54 1333.63 1536.5 Q1337.99 1541.47 1337.99 1550.25 Q1337.99 1559 1333.63 1564 Q1329.27 1568.97 1321.63 1568.97 Q1313.96 1568.97 1309.6 1564 Q1305.27 1559 1305.27 1550.25 Q1305.27 1541.47 1309.6 1536.5 Q1313.96 1531.54 1321.63 1531.54 Z" fill="#000000" fill-rule="evenodd" fill-opacity="1" /><path clip-path="url(#clip590)" d="M1344.29 1532.4 L1350.15 1532.4 L1357.47 1560.21 L1364.76 1532.4 L1371.66 1532.4 L1378.98 1560.21 L1386.27 1532.4 L1392.13 1532.4 L1382.8 1568.04 L1375.9 1568.04 L1368.23 1538.83 L1360.52 1568.04 L1353.62 1568.04 L1344.29 1532.4 Z" fill="#000000" fill-rule="evenodd" fill-opacity="1" /><path clip-path="url(#clip590)" d="M1421.19 1518.52 L1434.68 1518.52 L1434.68 1523.07 L1427.05 1523.07 L1427.05 1572.09 L1434.68 1572.09 L1434.68 1576.64 L1421.19 1576.64 L1421.19 1518.52 Z" fill="#000000" fill-rule="evenodd" fill-opacity="1" /><path clip-path="url(#clip590)" d="M1470.62 1549.81 Q1470.62 1543.44 1467.98 1539.94 Q1465.37 1536.44 1460.63 1536.44 Q1455.91 1536.44 1453.27 1539.94 Q1450.66 1543.44 1450.66 1549.81 Q1450.66 1556.14 1453.27 1559.64 Q1455.91 1563.14 1460.63 1563.14 Q1465.37 1563.14 1467.98 1559.64 Q1470.62 1556.14 1470.62 1549.81 M1476.48 1563.62 Q1476.48 1572.72 1472.43 1577.15 Q1468.39 1581.6 1460.05 1581.6 Q1456.96 1581.6 1454.23 1581.13 Q1451.49 1580.68 1448.91 1579.72 L1448.91 1574.03 Q1451.49 1575.43 1454 1576.1 Q1456.52 1576.76 1459.13 1576.76 Q1464.89 1576.76 1467.75 1573.74 Q1470.62 1570.75 1470.62 1564.67 L1470.62 1561.77 Q1468.81 1564.92 1465.97 1566.48 Q1463.14 1568.04 1459.19 1568.04 Q1452.64 1568.04 1448.63 1563.05 Q1444.62 1558.05 1444.62 1549.81 Q1444.62 1541.53 1448.63 1536.53 Q1452.64 1531.54 1459.19 1531.54 Q1463.14 1531.54 1465.97 1533.1 Q1468.81 1534.66 1470.62 1537.81 L1470.62 1532.4 L1476.48 1532.4 L1476.48 1563.62 Z" fill="#000000" fill-rule="evenodd" fill-opacity="1" /><path clip-path="url(#clip590)" d="M1498.95 1520.52 L1504.36 1520.52 L1487.81 1574.09 L1482.4 1574.09 L1498.95 1520.52 Z" fill="#000000" fill-rule="evenodd" fill-opacity="1" /><path clip-path="url(#clip590)" d="M1510.28 1518.52 L1516.17 1518.52 L1516.17 1547.77 L1533.64 1532.4 L1541.12 1532.4 L1522.21 1549.07 L1541.92 1568.04 L1534.28 1568.04 L1516.17 1550.63 L1516.17 1568.04 L1510.28 1568.04 L1510.28 1518.52 Z" fill="#000000" fill-rule="evenodd" fill-opacity="1" /><path clip-path="url(#clip590)" d="M1571.71 1549.81 Q1571.71 1543.44 1569.06 1539.94 Q1566.45 1536.44 1561.71 1536.44 Q1557 1536.44 1554.36 1539.94 Q1551.75 1543.44 1551.75 1549.81 Q1551.75 1556.14 1554.36 1559.64 Q1557 1563.14 1561.71 1563.14 Q1566.45 1563.14 1569.06 1559.64 Q1571.71 1556.14 1571.71 1549.81 M1577.56 1563.62 Q1577.56 1572.72 1573.52 1577.15 Q1569.48 1581.6 1561.14 1581.6 Q1558.05 1581.6 1555.31 1581.13 Q1552.58 1580.68 1550 1579.72 L1550 1574.03 Q1552.58 1575.43 1555.09 1576.1 Q1557.61 1576.76 1560.22 1576.76 Q1565.98 1576.76 1568.84 1573.74 Q1571.71 1570.75 1571.71 1564.67 L1571.71 1561.77 Q1569.89 1564.92 1567.06 1566.48 Q1564.23 1568.04 1560.28 1568.04 Q1553.72 1568.04 1549.71 1563.05 Q1545.7 1558.05 1545.7 1549.81 Q1545.7 1541.53 1549.71 1536.53 Q1553.72 1531.54 1560.28 1531.54 Q1564.23 1531.54 1567.06 1533.1 Q1569.89 1534.66 1571.71 1537.81 L1571.71 1532.4 L1577.56 1532.4 L1577.56 1563.62 Z" fill="#000000" fill-rule="evenodd" fill-opacity="1" /><path clip-path="url(#clip590)" d="M1603.31 1518.52 L1603.31 1576.64 L1589.82 1576.64 L1589.82 1572.09 L1597.42 1572.09 L1597.42 1523.07 L1589.82 1523.07 L1589.82 1518.52 L1603.31 1518.52 Z" fill="#000000" fill-rule="evenodd" fill-opacity="1" /><polyline clip-path="url(#clip592)" style="stroke:#000000; stroke-linecap:butt; stroke-linejoin:round; stroke-width:2; stroke-opacity:0.1; fill:none" points="
  406.583,1154.72 2352.76,1154.72 
  "/>
<polyline clip-path="url(#clip592)" style="stroke:#000000; stroke-linecap:butt; stroke-linejoin:round; stroke-width:2; stroke-opacity:0.1; fill:none" points="
  406.583,810.063 2352.76,810.063 
  "/>
<polyline clip-path="url(#clip592)" style="stroke:#000000; stroke-linecap:butt; stroke-linejoin:round; stroke-width:2; stroke-opacity:0.1; fill:none" points="
  406.583,465.407 2352.76,465.407 
  "/>
<polyline clip-path="url(#clip592)" style="stroke:#000000; stroke-linecap:butt; stroke-linejoin:round; stroke-width:2; stroke-opacity:0.1; fill:none" points="
  406.583,120.752 2352.76,120.752 
  "/>
<polyline clip-path="url(#clip590)" style="stroke:#000000; stroke-linecap:butt; stroke-linejoin:round; stroke-width:4; stroke-opacity:1; fill:none" points="
  406.583,1423.18 406.583,47.2441 
  "/>
<polyline clip-path="url(#clip590)" style="stroke:#000000; stroke-linecap:butt; stroke-linejoin:round; stroke-width:4; stroke-opacity:1; fill:none" points="
  406.583,1154.72 425.48,1154.72 
  "/>
<polyline clip-path="url(#clip590)" style="stroke:#000000; stroke-linecap:butt; stroke-linejoin:round; stroke-width:4; stroke-opacity:1; fill:none" points="
  406.583,810.063 425.48,810.063 
  "/>
<polyline clip-path="url(#clip590)" style="stroke:#000000; stroke-linecap:butt; stroke-linejoin:round; stroke-width:4; stroke-opacity:1; fill:none" points="
  406.583,465.407 425.48,465.407 
  "/>
<polyline clip-path="url(#clip590)" style="stroke:#000000; stroke-linecap:butt; stroke-linejoin:round; stroke-width:4; stroke-opacity:1; fill:none" points="
  406.583,120.752 425.48,120.752 
  "/>
<path clip-path="url(#clip590)" d="M114.26 1161.62 L143.936 1161.62 L143.936 1165.55 L114.26 1165.55 L114.26 1161.62 Z" fill="#000000" fill-rule="evenodd" fill-opacity="1" /><path clip-path="url(#clip590)" d="M166.876 1147.96 L155.07 1166.41 L166.876 1166.41 L166.876 1147.96 M165.649 1143.89 L171.528 1143.89 L171.528 1166.41 L176.459 1166.41 L176.459 1170.3 L171.528 1170.3 L171.528 1178.45 L166.876 1178.45 L166.876 1170.3 L151.274 1170.3 L151.274 1165.78 L165.649 1143.89 Z" fill="#000000" fill-rule="evenodd" fill-opacity="1" /><path clip-path="url(#clip590)" d="M184.19 1172.57 L189.075 1172.57 L189.075 1178.45 L184.19 1178.45 L184.19 1172.57 Z" fill="#000000" fill-rule="evenodd" fill-opacity="1" /><path clip-path="url(#clip590)" d="M209.26 1146.96 Q205.649 1146.96 203.82 1150.53 Q202.014 1154.07 202.014 1161.2 Q202.014 1168.31 203.82 1171.87 Q205.649 1175.41 209.26 1175.41 Q212.894 1175.41 214.699 1171.87 Q216.528 1168.31 216.528 1161.2 Q216.528 1154.07 214.699 1150.53 Q212.894 1146.96 209.26 1146.96 M209.26 1143.26 Q215.07 1143.26 218.125 1147.87 Q221.204 1152.45 221.204 1161.2 Q221.204 1169.93 218.125 1174.53 Q215.07 1179.12 209.26 1179.12 Q203.449 1179.12 200.371 1174.53 Q197.315 1169.93 197.315 1161.2 Q197.315 1152.45 200.371 1147.87 Q203.449 1143.26 209.26 1143.26 Z" fill="#000000" fill-rule="evenodd" fill-opacity="1" /><path clip-path="url(#clip590)" d="M257.593 1152.98 L247.014 1163.61 L257.593 1174.19 L254.838 1176.99 L244.213 1166.36 L233.588 1176.99 L230.857 1174.19 L241.412 1163.61 L230.857 1152.98 L233.588 1150.18 L244.213 1160.81 L254.838 1150.18 L257.593 1152.98 Z" fill="#000000" fill-rule="evenodd" fill-opacity="1" /><path clip-path="url(#clip590)" d="M269.954 1174.51 L277.593 1174.51 L277.593 1148.14 L269.282 1149.81 L269.282 1145.55 L277.546 1143.89 L282.222 1143.89 L282.222 1174.51 L289.861 1174.51 L289.861 1178.45 L269.954 1178.45 L269.954 1174.51 Z" fill="#000000" fill-rule="evenodd" fill-opacity="1" /><path clip-path="url(#clip590)" d="M309.305 1146.96 Q305.694 1146.96 303.866 1150.53 Q302.06 1154.07 302.06 1161.2 Q302.06 1168.31 303.866 1171.87 Q305.694 1175.41 309.305 1175.41 Q312.94 1175.41 314.745 1171.87 Q316.574 1168.31 316.574 1161.2 Q316.574 1154.07 314.745 1150.53 Q312.94 1146.96 309.305 1146.96 M309.305 1143.26 Q315.116 1143.26 318.171 1147.87 Q321.25 1152.45 321.25 1161.2 Q321.25 1169.93 318.171 1174.53 Q315.116 1179.12 309.305 1179.12 Q303.495 1179.12 300.417 1174.53 Q297.361 1169.93 297.361 1161.2 Q297.361 1152.45 300.417 1147.87 Q303.495 1143.26 309.305 1143.26 Z" fill="#000000" fill-rule="evenodd" fill-opacity="1" /><path clip-path="url(#clip590)" d="M321.25 1137.36 L345.361 1137.36 L345.361 1140.56 L321.25 1140.56 L321.25 1137.36 Z" fill="#000000" fill-rule="evenodd" fill-opacity="1" /><path clip-path="url(#clip590)" d="M353.599 1122.96 L368.514 1122.96 L368.514 1126.15 L357.079 1126.15 L357.079 1133.04 Q357.906 1132.75 358.734 1132.62 Q359.561 1132.47 360.389 1132.47 Q365.091 1132.47 367.837 1135.05 Q370.583 1137.63 370.583 1142.03 Q370.583 1146.56 367.761 1149.08 Q364.94 1151.58 359.806 1151.58 Q358.038 1151.58 356.195 1151.28 Q354.37 1150.98 352.414 1150.38 L352.414 1146.56 Q354.107 1147.48 355.913 1147.93 Q357.718 1148.38 359.73 1148.38 Q362.984 1148.38 364.884 1146.67 Q366.783 1144.96 366.783 1142.03 Q366.783 1139.09 364.884 1137.38 Q362.984 1135.67 359.73 1135.67 Q358.207 1135.67 356.684 1136.01 Q355.179 1136.35 353.599 1137.06 L353.599 1122.96 Z" fill="#000000" fill-rule="evenodd" fill-opacity="1" /><path clip-path="url(#clip590)" d="M114.26 816.962 L143.936 816.962 L143.936 820.897 L114.26 820.897 L114.26 816.962 Z" fill="#000000" fill-rule="evenodd" fill-opacity="1" /><path clip-path="url(#clip590)" d="M158.056 829.855 L174.376 829.855 L174.376 833.79 L152.431 833.79 L152.431 829.855 Q155.093 827.1 159.677 822.471 Q164.283 817.818 165.464 816.476 Q167.709 813.952 168.589 812.216 Q169.491 810.457 169.491 808.767 Q169.491 806.013 167.547 804.277 Q165.626 802.54 162.524 802.54 Q160.325 802.54 157.871 803.304 Q155.44 804.068 152.663 805.619 L152.663 800.897 Q155.487 799.763 157.94 799.184 Q160.394 798.605 162.431 798.605 Q167.802 798.605 170.996 801.29 Q174.19 803.976 174.19 808.466 Q174.19 810.596 173.38 812.517 Q172.593 814.415 170.487 817.008 Q169.908 817.679 166.806 820.897 Q163.704 824.091 158.056 829.855 Z" fill="#000000" fill-rule="evenodd" fill-opacity="1" /><path clip-path="url(#clip590)" d="M184.19 827.911 L189.075 827.911 L189.075 833.79 L184.19 833.79 L184.19 827.911 Z" fill="#000000" fill-rule="evenodd" fill-opacity="1" /><path clip-path="url(#clip590)" d="M209.26 802.309 Q205.649 802.309 203.82 805.874 Q202.014 809.415 202.014 816.545 Q202.014 823.651 203.82 827.216 Q205.649 830.758 209.26 830.758 Q212.894 830.758 214.699 827.216 Q216.528 823.651 216.528 816.545 Q216.528 809.415 214.699 805.874 Q212.894 802.309 209.26 802.309 M209.26 798.605 Q215.07 798.605 218.125 803.212 Q221.204 807.795 221.204 816.545 Q221.204 825.272 218.125 829.878 Q215.07 834.462 209.26 834.462 Q203.449 834.462 200.371 829.878 Q197.315 825.272 197.315 816.545 Q197.315 807.795 200.371 803.212 Q203.449 798.605 209.26 798.605 Z" fill="#000000" fill-rule="evenodd" fill-opacity="1" /><path clip-path="url(#clip590)" d="M257.593 808.327 L247.014 818.952 L257.593 829.531 L254.838 832.332 L244.213 821.707 L233.588 832.332 L230.857 829.531 L241.412 818.952 L230.857 808.327 L233.588 805.527 L244.213 816.151 L254.838 805.527 L257.593 808.327 Z" fill="#000000" fill-rule="evenodd" fill-opacity="1" /><path clip-path="url(#clip590)" d="M269.954 829.855 L277.593 829.855 L277.593 803.49 L269.282 805.156 L269.282 800.897 L277.546 799.23 L282.222 799.23 L282.222 829.855 L289.861 829.855 L289.861 833.79 L269.954 833.79 L269.954 829.855 Z" fill="#000000" fill-rule="evenodd" fill-opacity="1" /><path clip-path="url(#clip590)" d="M309.305 802.309 Q305.694 802.309 303.866 805.874 Q302.06 809.415 302.06 816.545 Q302.06 823.651 303.866 827.216 Q305.694 830.758 309.305 830.758 Q312.94 830.758 314.745 827.216 Q316.574 823.651 316.574 816.545 Q316.574 809.415 314.745 805.874 Q312.94 802.309 309.305 802.309 M309.305 798.605 Q315.116 798.605 318.171 803.212 Q321.25 807.795 321.25 816.545 Q321.25 825.272 318.171 829.878 Q315.116 834.462 309.305 834.462 Q303.495 834.462 300.417 829.878 Q297.361 825.272 297.361 816.545 Q297.361 807.795 300.417 803.212 Q303.495 798.605 309.305 798.605 Z" fill="#000000" fill-rule="evenodd" fill-opacity="1" /><path clip-path="url(#clip590)" d="M321.25 792.707 L345.361 792.707 L345.361 795.904 L321.25 795.904 L321.25 792.707 Z" fill="#000000" fill-rule="evenodd" fill-opacity="1" /><path clip-path="url(#clip590)" d="M353.599 778.3 L368.514 778.3 L368.514 781.497 L357.079 781.497 L357.079 788.381 Q357.906 788.099 358.734 787.967 Q359.561 787.817 360.389 787.817 Q365.091 787.817 367.837 790.393 Q370.583 792.97 370.583 797.371 Q370.583 801.904 367.761 804.424 Q364.94 806.925 359.806 806.925 Q358.038 806.925 356.195 806.624 Q354.37 806.323 352.414 805.722 L352.414 801.904 Q354.107 802.825 355.913 803.277 Q357.718 803.728 359.73 803.728 Q362.984 803.728 364.884 802.016 Q366.783 800.305 366.783 797.371 Q366.783 794.437 364.884 792.725 Q362.984 791.014 359.73 791.014 Q358.207 791.014 356.684 791.352 Q355.179 791.691 353.599 792.406 L353.599 778.3 Z" fill="#000000" fill-rule="evenodd" fill-opacity="1" /><path clip-path="url(#clip590)" d="M358.638 451.206 Q355.027 451.206 353.198 454.771 Q351.393 458.312 351.393 465.442 Q351.393 472.548 353.198 476.113 Q355.027 479.655 358.638 479.655 Q362.272 479.655 364.078 476.113 Q365.907 472.548 365.907 465.442 Q365.907 458.312 364.078 454.771 Q362.272 451.206 358.638 451.206 M358.638 447.502 Q364.448 447.502 367.504 452.109 Q370.583 456.692 370.583 465.442 Q370.583 474.169 367.504 478.775 Q364.448 483.359 358.638 483.359 Q352.828 483.359 349.749 478.775 Q346.694 474.169 346.694 465.442 Q346.694 456.692 349.749 452.109 Q352.828 447.502 358.638 447.502 Z" fill="#000000" fill-rule="evenodd" fill-opacity="1" /><path clip-path="url(#clip590)" d="M158.056 140.544 L174.376 140.544 L174.376 144.479 L152.431 144.479 L152.431 140.544 Q155.093 137.79 159.677 133.16 Q164.283 128.507 165.464 127.165 Q167.709 124.642 168.589 122.905 Q169.491 121.146 169.491 119.456 Q169.491 116.702 167.547 114.966 Q165.626 113.23 162.524 113.23 Q160.325 113.23 157.871 113.993 Q155.44 114.757 152.663 116.308 L152.663 111.586 Q155.487 110.452 157.94 109.873 Q160.394 109.294 162.431 109.294 Q167.802 109.294 170.996 111.98 Q174.19 114.665 174.19 119.155 Q174.19 121.285 173.38 123.206 Q172.593 125.104 170.487 127.697 Q169.908 128.368 166.806 131.586 Q163.704 134.78 158.056 140.544 Z" fill="#000000" fill-rule="evenodd" fill-opacity="1" /><path clip-path="url(#clip590)" d="M184.19 138.6 L189.075 138.6 L189.075 144.479 L184.19 144.479 L184.19 138.6 Z" fill="#000000" fill-rule="evenodd" fill-opacity="1" /><path clip-path="url(#clip590)" d="M209.26 112.998 Q205.649 112.998 203.82 116.563 Q202.014 120.105 202.014 127.234 Q202.014 134.341 203.82 137.905 Q205.649 141.447 209.26 141.447 Q212.894 141.447 214.699 137.905 Q216.528 134.341 216.528 127.234 Q216.528 120.105 214.699 116.563 Q212.894 112.998 209.26 112.998 M209.26 109.294 Q215.07 109.294 218.125 113.901 Q221.204 118.484 221.204 127.234 Q221.204 135.961 218.125 140.567 Q215.07 145.151 209.26 145.151 Q203.449 145.151 200.371 140.567 Q197.315 135.961 197.315 127.234 Q197.315 118.484 200.371 113.901 Q203.449 109.294 209.26 109.294 Z" fill="#000000" fill-rule="evenodd" fill-opacity="1" /><path clip-path="url(#clip590)" d="M257.593 119.017 L247.014 129.641 L257.593 140.22 L254.838 143.021 L244.213 132.396 L233.588 143.021 L230.857 140.22 L241.412 129.641 L230.857 119.017 L233.588 116.216 L244.213 126.841 L254.838 116.216 L257.593 119.017 Z" fill="#000000" fill-rule="evenodd" fill-opacity="1" /><path clip-path="url(#clip590)" d="M269.954 140.544 L277.593 140.544 L277.593 114.179 L269.282 115.845 L269.282 111.586 L277.546 109.919 L282.222 109.919 L282.222 140.544 L289.861 140.544 L289.861 144.479 L269.954 144.479 L269.954 140.544 Z" fill="#000000" fill-rule="evenodd" fill-opacity="1" /><path clip-path="url(#clip590)" d="M309.305 112.998 Q305.694 112.998 303.866 116.563 Q302.06 120.105 302.06 127.234 Q302.06 134.341 303.866 137.905 Q305.694 141.447 309.305 141.447 Q312.94 141.447 314.745 137.905 Q316.574 134.341 316.574 127.234 Q316.574 120.105 314.745 116.563 Q312.94 112.998 309.305 112.998 M309.305 109.294 Q315.116 109.294 318.171 113.901 Q321.25 118.484 321.25 127.234 Q321.25 135.961 318.171 140.567 Q315.116 145.151 309.305 145.151 Q303.495 145.151 300.417 140.567 Q297.361 135.961 297.361 127.234 Q297.361 118.484 300.417 113.901 Q303.495 109.294 309.305 109.294 Z" fill="#000000" fill-rule="evenodd" fill-opacity="1" /><path clip-path="url(#clip590)" d="M321.25 103.396 L345.361 103.396 L345.361 106.593 L321.25 106.593 L321.25 103.396 Z" fill="#000000" fill-rule="evenodd" fill-opacity="1" /><path clip-path="url(#clip590)" d="M353.599 88.989 L368.514 88.989 L368.514 92.1863 L357.079 92.1863 L357.079 99.0699 Q357.906 98.7878 358.734 98.6562 Q359.561 98.5057 360.389 98.5057 Q365.091 98.5057 367.837 101.082 Q370.583 103.659 370.583 108.06 Q370.583 112.593 367.761 115.113 Q364.94 117.614 359.806 117.614 Q358.038 117.614 356.195 117.313 Q354.37 117.013 352.414 116.411 L352.414 112.593 Q354.107 113.514 355.913 113.966 Q357.718 114.417 359.73 114.417 Q362.984 114.417 364.884 112.706 Q366.783 110.994 366.783 108.06 Q366.783 105.126 364.884 103.415 Q362.984 101.703 359.73 101.703 Q358.207 101.703 356.684 102.042 Q355.179 102.38 353.599 103.095 L353.599 88.989 Z" fill="#000000" fill-rule="evenodd" fill-opacity="1" /><path clip-path="url(#clip590)" d="M29.4065 1331.74 L34.9447 1331.74 Q33.6716 1334.22 33.035 1336.9 Q32.3984 1339.57 32.3984 1342.44 Q32.3984 1346.8 33.7352 1348.99 Q35.072 1351.16 37.7456 1351.16 Q39.7826 1351.16 40.9603 1349.6 Q42.1061 1348.04 43.1565 1343.33 L43.6021 1341.32 Q44.9389 1335.08 47.3897 1332.47 Q49.8086 1329.83 54.1691 1329.83 Q59.1344 1329.83 62.0308 1333.78 Q64.9272 1337.69 64.9272 1344.57 Q64.9272 1347.43 64.3543 1350.55 Q63.8132 1353.64 62.6992 1357.08 L56.6518 1357.08 Q58.3387 1353.83 59.198 1350.68 Q60.0256 1347.53 60.0256 1344.44 Q60.0256 1340.3 58.6251 1338.08 Q57.1929 1335.85 54.6147 1335.85 Q52.2276 1335.85 50.9545 1337.47 Q49.6813 1339.06 48.5037 1344.51 L48.0262 1346.54 Q46.8804 1351.99 44.5251 1354.4 Q42.138 1356.82 38.0002 1356.82 Q32.9713 1356.82 30.2341 1353.26 Q27.4968 1349.69 27.4968 1343.14 Q27.4968 1339.89 27.9743 1337.03 Q28.4517 1334.16 29.4065 1331.74 Z" fill="#000000" fill-rule="evenodd" fill-opacity="1" /><path clip-path="url(#clip590)" d="M42.4881 1290.87 L64.0042 1290.87 L64.0042 1296.73 L42.679 1296.73 Q37.6183 1296.73 35.1038 1298.7 Q32.5894 1300.68 32.5894 1304.62 Q32.5894 1309.37 35.6131 1312.1 Q38.6368 1314.84 43.8567 1314.84 L64.0042 1314.84 L64.0042 1320.73 L28.3562 1320.73 L28.3562 1314.84 L33.8944 1314.84 Q30.6797 1312.74 29.0883 1309.91 Q27.4968 1307.04 27.4968 1303.32 Q27.4968 1297.18 31.3163 1294.03 Q35.1038 1290.87 42.4881 1290.87 Z" fill="#000000" fill-rule="evenodd" fill-opacity="1" /><path clip-path="url(#clip590)" d="M32.4621 1265.38 Q32.4621 1270.09 36.1542 1272.83 Q39.8145 1275.56 46.212 1275.56 Q52.6095 1275.56 56.3017 1272.86 Q59.9619 1270.12 59.9619 1265.38 Q59.9619 1260.7 56.2698 1257.96 Q52.5777 1255.23 46.212 1255.23 Q39.8781 1255.23 36.186 1257.96 Q32.4621 1260.7 32.4621 1265.38 M27.4968 1265.38 Q27.4968 1257.74 32.4621 1253.38 Q37.4273 1249.02 46.212 1249.02 Q54.9649 1249.02 59.9619 1253.38 Q64.9272 1257.74 64.9272 1265.38 Q64.9272 1273.05 59.9619 1277.41 Q54.9649 1281.74 46.212 1281.74 Q37.4273 1281.74 32.4621 1277.41 Q27.4968 1273.05 27.4968 1265.38 Z" fill="#000000" fill-rule="evenodd" fill-opacity="1" /><path clip-path="url(#clip590)" d="M28.3562 1242.72 L28.3562 1236.86 L56.1743 1229.54 L28.3562 1222.25 L28.3562 1215.35 L56.1743 1208.02 L28.3562 1200.74 L28.3562 1194.88 L64.0042 1204.21 L64.0042 1211.11 L34.7856 1218.78 L64.0042 1226.49 L64.0042 1233.39 L28.3562 1242.72 Z" fill="#000000" fill-rule="evenodd" fill-opacity="1" /><path clip-path="url(#clip590)" d="M33.7671 1141.82 L14.479 1141.82 L14.479 1135.97 L64.0042 1135.97 L64.0042 1141.82 L58.657 1141.82 Q61.8398 1143.67 63.3994 1146.5 Q64.9272 1149.3 64.9272 1153.25 Q64.9272 1159.71 59.771 1163.78 Q54.6147 1167.83 46.212 1167.83 Q37.8093 1167.83 32.6531 1163.78 Q27.4968 1159.71 27.4968 1153.25 Q27.4968 1149.3 29.0564 1146.5 Q30.5842 1143.67 33.7671 1141.82 M46.212 1161.78 Q52.6732 1161.78 56.3653 1159.14 Q60.0256 1156.46 60.0256 1151.82 Q60.0256 1147.17 56.3653 1144.5 Q52.6732 1141.82 46.212 1141.82 Q39.7508 1141.82 36.0905 1144.5 Q32.3984 1147.17 32.3984 1151.82 Q32.3984 1156.46 36.0905 1159.14 Q39.7508 1161.78 46.212 1161.78 Z" fill="#000000" fill-rule="evenodd" fill-opacity="1" /><path clip-path="url(#clip590)" d="M44.7161 1093.41 L47.5806 1093.41 L47.5806 1120.34 Q53.6281 1119.96 56.8109 1116.71 Q59.9619 1113.43 59.9619 1107.61 Q59.9619 1104.23 59.1344 1101.08 Q58.3069 1097.9 56.6518 1094.78 L62.1899 1094.78 Q63.5267 1097.93 64.227 1101.24 Q64.9272 1104.55 64.9272 1107.96 Q64.9272 1116.49 59.9619 1121.48 Q54.9967 1126.45 46.5303 1126.45 Q37.7774 1126.45 32.6531 1121.74 Q27.4968 1117 27.4968 1108.97 Q27.4968 1101.78 32.1438 1097.61 Q36.7589 1093.41 44.7161 1093.41 M42.9973 1099.27 Q38.1912 1099.33 35.3266 1101.97 Q32.4621 1104.58 32.4621 1108.91 Q32.4621 1113.81 35.2312 1116.77 Q38.0002 1119.7 43.0292 1120.15 L42.9973 1099.27 Z" fill="#000000" fill-rule="evenodd" fill-opacity="1" /><path clip-path="url(#clip590)" d="M58.657 1078.13 L77.5631 1078.13 L77.5631 1084.02 L28.3562 1084.02 L28.3562 1078.13 L33.7671 1078.13 Q30.5842 1076.29 29.0564 1073.49 Q27.4968 1070.65 27.4968 1066.74 Q27.4968 1060.24 32.6531 1056.2 Q37.8093 1052.13 46.212 1052.13 Q54.6147 1052.13 59.771 1056.2 Q64.9272 1060.24 64.9272 1066.74 Q64.9272 1070.65 63.3994 1073.49 Q61.8398 1076.29 58.657 1078.13 M46.212 1058.21 Q39.7508 1058.21 36.0905 1060.88 Q32.3984 1063.52 32.3984 1068.17 Q32.3984 1072.82 36.0905 1075.49 Q39.7508 1078.13 46.212 1078.13 Q52.6732 1078.13 56.3653 1075.49 Q60.0256 1072.82 60.0256 1068.17 Q60.0256 1063.52 56.3653 1060.88 Q52.6732 1058.21 46.212 1058.21 Z" fill="#000000" fill-rule="evenodd" fill-opacity="1" /><path clip-path="url(#clip590)" d="M32.4621 1028.61 Q32.4621 1033.32 36.1542 1036.06 Q39.8145 1038.79 46.212 1038.79 Q52.6095 1038.79 56.3017 1036.09 Q59.9619 1033.35 59.9619 1028.61 Q59.9619 1023.93 56.2698 1021.19 Q52.5777 1018.45 46.212 1018.45 Q39.8781 1018.45 36.186 1021.19 Q32.4621 1023.93 32.4621 1028.61 M27.4968 1028.61 Q27.4968 1020.97 32.4621 1016.61 Q37.4273 1012.25 46.212 1012.25 Q54.9649 1012.25 59.9619 1016.61 Q64.9272 1020.97 64.9272 1028.61 Q64.9272 1036.28 59.9619 1040.64 Q54.9649 1044.97 46.212 1044.97 Q37.4273 1044.97 32.4621 1040.64 Q27.4968 1036.28 27.4968 1028.61 Z" fill="#000000" fill-rule="evenodd" fill-opacity="1" /><path clip-path="url(#clip590)" d="M29.4065 979.814 L34.9447 979.814 Q33.6716 982.297 33.035 984.97 Q32.3984 987.644 32.3984 990.509 Q32.3984 994.869 33.7352 997.065 Q35.072 999.23 37.7456 999.23 Q39.7826 999.23 40.9603 997.67 Q42.1061 996.11 43.1565 991.4 L43.6021 989.395 Q44.9389 983.156 47.3897 980.546 Q49.8086 977.905 54.1691 977.905 Q59.1344 977.905 62.0308 981.851 Q64.9272 985.766 64.9272 992.641 Q64.9272 995.506 64.3543 998.625 Q63.8132 1001.71 62.6992 1005.15 L56.6518 1005.15 Q58.3387 1001.9 59.198 998.752 Q60.0256 995.601 60.0256 992.514 Q60.0256 988.376 58.6251 986.148 Q57.1929 983.92 54.6147 983.92 Q52.2276 983.92 50.9545 985.543 Q49.6813 987.135 48.5037 992.577 L48.0262 994.615 Q46.8804 1000.06 44.5251 1002.48 Q42.138 1004.9 38.0002 1004.9 Q32.9713 1004.9 30.2341 1001.33 Q27.4968 997.766 27.4968 991.209 Q27.4968 987.962 27.9743 985.098 Q28.4517 982.233 29.4065 979.814 Z" fill="#000000" fill-rule="evenodd" fill-opacity="1" /><path clip-path="url(#clip590)" d="M28.3562 968.579 L28.3562 962.722 L64.0042 962.722 L64.0042 968.579 L28.3562 968.579 M14.479 968.579 L14.479 962.722 L21.895 962.722 L21.895 968.579 L14.479 968.579 Z" fill="#000000" fill-rule="evenodd" fill-opacity="1" /><path clip-path="url(#clip590)" d="M18.2347 944.676 L28.3562 944.676 L28.3562 932.613 L32.9077 932.613 L32.9077 944.676 L52.2594 944.676 Q56.6199 944.676 57.8613 943.498 Q59.1026 942.288 59.1026 938.628 L59.1026 932.613 L64.0042 932.613 L64.0042 938.628 Q64.0042 945.408 61.4897 947.986 Q58.9434 950.564 52.2594 950.564 L32.9077 950.564 L32.9077 954.861 L28.3562 954.861 L28.3562 950.564 L18.2347 950.564 L18.2347 944.676 Z" fill="#000000" fill-rule="evenodd" fill-opacity="1" /><path clip-path="url(#clip590)" d="M28.3562 924.91 L28.3562 919.054 L64.0042 919.054 L64.0042 924.91 L28.3562 924.91 M14.479 924.91 L14.479 919.054 L21.895 919.054 L21.895 924.91 L14.479 924.91 Z" fill="#000000" fill-rule="evenodd" fill-opacity="1" /><path clip-path="url(#clip590)" d="M32.4621 892.986 Q32.4621 897.697 36.1542 900.434 Q39.8145 903.171 46.212 903.171 Q52.6095 903.171 56.3017 900.466 Q59.9619 897.728 59.9619 892.986 Q59.9619 888.307 56.2698 885.57 Q52.5777 882.833 46.212 882.833 Q39.8781 882.833 36.186 885.57 Q32.4621 888.307 32.4621 892.986 M27.4968 892.986 Q27.4968 885.347 32.4621 880.987 Q37.4273 876.626 46.212 876.626 Q54.9649 876.626 59.9619 880.987 Q64.9272 885.347 64.9272 892.986 Q64.9272 900.657 59.9619 905.017 Q54.9649 909.346 46.212 909.346 Q37.4273 909.346 32.4621 905.017 Q27.4968 900.657 27.4968 892.986 Z" fill="#000000" fill-rule="evenodd" fill-opacity="1" /><path clip-path="url(#clip590)" d="M42.4881 837.286 L64.0042 837.286 L64.0042 843.143 L42.679 843.143 Q37.6183 843.143 35.1038 845.116 Q32.5894 847.089 32.5894 851.036 Q32.5894 855.778 35.6131 858.516 Q38.6368 861.253 43.8567 861.253 L64.0042 861.253 L64.0042 867.141 L28.3562 867.141 L28.3562 861.253 L33.8944 861.253 Q30.6797 859.152 29.0883 856.32 Q27.4968 853.455 27.4968 849.731 Q27.4968 843.588 31.3163 840.437 Q35.1038 837.286 42.4881 837.286 Z" fill="#000000" fill-rule="evenodd" fill-opacity="1" /><path clip-path="url(#clip590)" d="M29.4065 782.159 L34.9447 782.159 Q33.6716 784.642 33.035 787.315 Q32.3984 789.989 32.3984 792.853 Q32.3984 797.214 33.7352 799.41 Q35.072 801.574 37.7456 801.574 Q39.7826 801.574 40.9603 800.015 Q42.1061 798.455 43.1565 793.745 L43.6021 791.739 Q44.9389 785.501 47.3897 782.891 Q49.8086 780.249 54.1691 780.249 Q59.1344 780.249 62.0308 784.196 Q64.9272 788.111 64.9272 794.986 Q64.9272 797.851 64.3543 800.97 Q63.8132 804.057 62.6992 807.495 L56.6518 807.495 Q58.3387 804.248 59.198 801.097 Q60.0256 797.946 60.0256 794.859 Q60.0256 790.721 58.6251 788.493 Q57.1929 786.265 54.6147 786.265 Q52.2276 786.265 50.9545 787.888 Q49.6813 789.48 48.5037 794.922 L48.0262 796.959 Q46.8804 802.402 44.5251 804.821 Q42.138 807.24 38.0002 807.24 Q32.9713 807.24 30.2341 803.675 Q27.4968 800.11 27.4968 793.554 Q27.4968 790.307 27.9743 787.443 Q28.4517 784.578 29.4065 782.159 Z" fill="#000000" fill-rule="evenodd" fill-opacity="1" /><path clip-path="url(#clip590)" d="M49.9359 771.528 L28.3562 771.528 L28.3562 765.672 L49.7131 765.672 Q54.7739 765.672 57.3202 763.699 Q59.8346 761.725 59.8346 757.778 Q59.8346 753.036 56.8109 750.299 Q53.7872 747.53 48.5673 747.53 L28.3562 747.53 L28.3562 741.673 L64.0042 741.673 L64.0042 747.53 L58.5296 747.53 Q61.7762 749.662 63.3676 752.495 Q64.9272 755.296 64.9272 759.02 Q64.9272 765.163 61.1078 768.345 Q57.2883 771.528 49.9359 771.528 M27.4968 756.792 L27.4968 756.792 Z" fill="#000000" fill-rule="evenodd" fill-opacity="1" /><path clip-path="url(#clip590)" d="M46.212 704.02 Q39.7508 704.02 36.0905 706.694 Q32.3984 709.335 32.3984 713.982 Q32.3984 718.629 36.0905 721.303 Q39.7508 723.945 46.212 723.945 Q52.6732 723.945 56.3653 721.303 Q60.0256 718.629 60.0256 713.982 Q60.0256 709.335 56.3653 706.694 Q52.6732 704.02 46.212 704.02 M33.7671 723.945 Q30.5842 722.099 29.0564 719.298 Q27.4968 716.465 27.4968 712.55 Q27.4968 706.057 32.6531 702.015 Q37.8093 697.941 46.212 697.941 Q54.6147 697.941 59.771 702.015 Q64.9272 706.057 64.9272 712.55 Q64.9272 716.465 63.3994 719.298 Q61.8398 722.099 58.657 723.945 L64.0042 723.945 L64.0042 729.833 L14.479 729.833 L14.479 723.945 L33.7671 723.945 Z" fill="#000000" fill-rule="evenodd" fill-opacity="1" /><path clip-path="url(#clip590)" d="M14.479 688.233 L14.479 682.377 L64.0042 682.377 L64.0042 688.233 L14.479 688.233 Z" fill="#000000" fill-rule="evenodd" fill-opacity="1" /><path clip-path="url(#clip590)" d="M28.3562 670.123 L28.3562 664.266 L64.0042 664.266 L64.0042 670.123 L28.3562 670.123 M14.479 670.123 L14.479 664.266 L21.895 664.266 L21.895 670.123 L14.479 670.123 Z" fill="#000000" fill-rule="evenodd" fill-opacity="1" /><path clip-path="url(#clip590)" d="M35.1993 624.258 Q31.2526 622.062 29.3747 619.006 Q27.4968 615.95 27.4968 611.813 Q27.4968 606.243 31.4117 603.219 Q35.2948 600.195 42.4881 600.195 L64.0042 600.195 L64.0042 606.084 L42.679 606.084 Q37.5546 606.084 35.072 607.898 Q32.5894 609.712 32.5894 613.436 Q32.5894 617.987 35.6131 620.629 Q38.6368 623.271 43.8567 623.271 L64.0042 623.271 L64.0042 629.159 L42.679 629.159 Q37.5228 629.159 35.072 630.974 Q32.5894 632.788 32.5894 636.575 Q32.5894 641.063 35.6449 643.705 Q38.6686 646.347 43.8567 646.347 L64.0042 646.347 L64.0042 652.235 L28.3562 652.235 L28.3562 646.347 L33.8944 646.347 Q30.616 644.342 29.0564 641.541 Q27.4968 638.74 27.4968 634.888 Q27.4968 631.005 29.4702 628.3 Q31.4436 625.563 35.1993 624.258 Z" fill="#000000" fill-rule="evenodd" fill-opacity="1" /><path clip-path="url(#clip590)" d="M46.0847 572.314 Q46.0847 579.411 47.7079 582.149 Q49.3312 584.886 53.2461 584.886 Q56.3653 584.886 58.2114 582.849 Q60.0256 580.78 60.0256 577.247 Q60.0256 572.377 56.5881 569.449 Q53.1188 566.489 47.3897 566.489 L46.0847 566.489 L46.0847 572.314 M43.6657 560.632 L64.0042 560.632 L64.0042 566.489 L58.5933 566.489 Q61.8398 568.494 63.3994 571.486 Q64.9272 574.478 64.9272 578.807 Q64.9272 584.281 61.8716 587.528 Q58.7843 590.742 53.6281 590.742 Q47.6125 590.742 44.5569 586.732 Q41.5014 582.69 41.5014 574.701 L41.5014 566.489 L40.9285 566.489 Q36.8862 566.489 34.6901 569.163 Q32.4621 571.804 32.4621 576.61 Q32.4621 579.666 33.1941 582.562 Q33.9262 585.459 35.3903 588.132 L29.9795 588.132 Q28.7381 584.918 28.1334 581.894 Q27.4968 578.87 27.4968 576.006 Q27.4968 568.271 31.5072 564.452 Q35.5176 560.632 43.6657 560.632 Z" fill="#000000" fill-rule="evenodd" fill-opacity="1" /><path clip-path="url(#clip590)" d="M18.2347 542.777 L28.3562 542.777 L28.3562 530.714 L32.9077 530.714 L32.9077 542.777 L52.2594 542.777 Q56.6199 542.777 57.8613 541.599 Q59.1026 540.39 59.1026 536.729 L59.1026 530.714 L64.0042 530.714 L64.0042 536.729 Q64.0042 543.509 61.4897 546.087 Q58.9434 548.665 52.2594 548.665 L32.9077 548.665 L32.9077 552.962 L28.3562 552.962 L28.3562 548.665 L18.2347 548.665 L18.2347 542.777 Z" fill="#000000" fill-rule="evenodd" fill-opacity="1" /><path clip-path="url(#clip590)" d="M28.3562 523.011 L28.3562 517.155 L64.0042 517.155 L64.0042 523.011 L28.3562 523.011 M14.479 523.011 L14.479 517.155 L21.895 517.155 L21.895 523.011 L14.479 523.011 Z" fill="#000000" fill-rule="evenodd" fill-opacity="1" /><path clip-path="url(#clip590)" d="M32.4621 491.087 Q32.4621 495.798 36.1542 498.535 Q39.8145 501.272 46.212 501.272 Q52.6095 501.272 56.3017 498.567 Q59.9619 495.83 59.9619 491.087 Q59.9619 486.408 56.2698 483.671 Q52.5777 480.934 46.212 480.934 Q39.8781 480.934 36.186 483.671 Q32.4621 486.408 32.4621 491.087 M27.4968 491.087 Q27.4968 483.448 32.4621 479.088 Q37.4273 474.727 46.212 474.727 Q54.9649 474.727 59.9619 479.088 Q64.9272 483.448 64.9272 491.087 Q64.9272 498.758 59.9619 503.118 Q54.9649 507.447 46.212 507.447 Q37.4273 507.447 32.4621 503.118 Q27.4968 498.758 27.4968 491.087 Z" fill="#000000" fill-rule="evenodd" fill-opacity="1" /><path clip-path="url(#clip590)" d="M42.4881 435.387 L64.0042 435.387 L64.0042 441.244 L42.679 441.244 Q37.6183 441.244 35.1038 443.217 Q32.5894 445.19 32.5894 449.137 Q32.5894 453.88 35.6131 456.617 Q38.6368 459.354 43.8567 459.354 L64.0042 459.354 L64.0042 465.242 L28.3562 465.242 L28.3562 459.354 L33.8944 459.354 Q30.6797 457.253 29.0883 454.421 Q27.4968 451.556 27.4968 447.832 Q27.4968 441.689 31.3163 438.538 Q35.1038 435.387 42.4881 435.387 Z" fill="#000000" fill-rule="evenodd" fill-opacity="1" /><path clip-path="url(#clip590)" d="M33.8307 382.329 Q33.2578 383.316 33.0032 384.493 Q32.7167 385.639 32.7167 387.04 Q32.7167 392.005 35.9632 394.678 Q39.1779 397.32 45.2253 397.32 L64.0042 397.32 L64.0042 403.209 L28.3562 403.209 L28.3562 397.32 L33.8944 397.32 Q30.6479 395.474 29.0883 392.514 Q27.4968 389.554 27.4968 385.321 Q27.4968 384.716 27.5923 383.984 Q27.656 383.252 27.8151 382.361 L33.8307 382.329 Z" fill="#000000" fill-rule="evenodd" fill-opacity="1" /><path clip-path="url(#clip590)" d="M46.0847 359.985 Q46.0847 367.083 47.7079 369.82 Q49.3312 372.558 53.2461 372.558 Q56.3653 372.558 58.2114 370.521 Q60.0256 368.452 60.0256 364.919 Q60.0256 360.049 56.5881 357.121 Q53.1188 354.161 47.3897 354.161 L46.0847 354.161 L46.0847 359.985 M43.6657 348.304 L64.0042 348.304 L64.0042 354.161 L58.5933 354.161 Q61.8398 356.166 63.3994 359.158 Q64.9272 362.15 64.9272 366.478 Q64.9272 371.953 61.8716 375.199 Q58.7843 378.414 53.6281 378.414 Q47.6125 378.414 44.5569 374.404 Q41.5014 370.361 41.5014 362.373 L41.5014 354.161 L40.9285 354.161 Q36.8862 354.161 34.6901 356.834 Q32.4621 359.476 32.4621 364.282 Q32.4621 367.338 33.1941 370.234 Q33.9262 373.131 35.3903 375.804 L29.9795 375.804 Q28.7381 372.589 28.1334 369.566 Q27.4968 366.542 27.4968 363.678 Q27.4968 355.943 31.5072 352.124 Q35.5176 348.304 43.6657 348.304 Z" fill="#000000" fill-rule="evenodd" fill-opacity="1" /><path clip-path="url(#clip590)" d="M18.2347 330.449 L28.3562 330.449 L28.3562 318.385 L32.9077 318.385 L32.9077 330.449 L52.2594 330.449 Q56.6199 330.449 57.8613 329.271 Q59.1026 328.061 59.1026 324.401 L59.1026 318.385 L64.0042 318.385 L64.0042 324.401 Q64.0042 331.181 61.4897 333.759 Q58.9434 336.337 52.2594 336.337 L32.9077 336.337 L32.9077 340.634 L28.3562 340.634 L28.3562 336.337 L18.2347 336.337 L18.2347 330.449 Z" fill="#000000" fill-rule="evenodd" fill-opacity="1" /><path clip-path="url(#clip590)" d="M44.7161 280.191 L47.5806 280.191 L47.5806 307.118 Q53.6281 306.736 56.8109 303.49 Q59.9619 300.211 59.9619 294.387 Q59.9619 291.013 59.1344 287.862 Q58.3069 284.679 56.6518 281.56 L62.1899 281.56 Q63.5267 284.711 64.227 288.021 Q64.9272 291.331 64.9272 294.737 Q64.9272 303.267 59.9619 308.264 Q54.9967 313.229 46.5303 313.229 Q37.7774 313.229 32.6531 308.519 Q27.4968 303.776 27.4968 295.755 Q27.4968 288.562 32.1438 284.393 Q36.7589 280.191 44.7161 280.191 M42.9973 286.048 Q38.1912 286.111 35.3266 288.753 Q32.4621 291.363 32.4621 295.692 Q32.4621 300.593 35.2312 303.553 Q38.0002 306.482 43.0292 306.927 L42.9973 286.048 Z" fill="#000000" fill-rule="evenodd" fill-opacity="1" /><path clip-path="url(#clip590)" d="M14.479 250.4 L14.479 236.904 L19.0304 236.904 L19.0304 244.543 L68.0464 244.543 L68.0464 236.904 L72.5979 236.904 L72.5979 250.4 L14.479 250.4 Z" fill="#000000" fill-rule="evenodd" fill-opacity="1" /><path clip-path="url(#clip590)" d="M58.5933 222.486 L58.5933 211.983 L22.3406 211.983 L24.6323 223.409 L18.7758 223.409 L16.4842 212.046 L16.4842 205.617 L58.5933 205.617 L58.5933 195.114 L64.0042 195.114 L64.0042 222.486 L58.5933 222.486 Z" fill="#000000" fill-rule="evenodd" fill-opacity="1" /><path clip-path="url(#clip590)" d="M16.4842 172.547 L16.4842 167.136 L70.0516 183.687 L70.0516 189.098 L16.4842 172.547 Z" fill="#000000" fill-rule="evenodd" fill-opacity="1" /><path clip-path="url(#clip590)" d="M29.4065 138.268 L34.9447 138.268 Q33.6716 140.75 33.035 143.424 Q32.3984 146.098 32.3984 148.962 Q32.3984 153.323 33.7352 155.519 Q35.072 157.683 37.7456 157.683 Q39.7826 157.683 40.9603 156.124 Q42.1061 154.564 43.1565 149.853 L43.6021 147.848 Q44.9389 141.61 47.3897 139 Q49.8086 136.358 54.1691 136.358 Q59.1344 136.358 62.0308 140.305 Q64.9272 144.22 64.9272 151.095 Q64.9272 153.959 64.3543 157.078 Q63.8132 160.166 62.6992 163.603 L56.6518 163.603 Q58.3387 160.357 59.198 157.206 Q60.0256 154.055 60.0256 150.967 Q60.0256 146.83 58.6251 144.602 Q57.1929 142.374 54.6147 142.374 Q52.2276 142.374 50.9545 143.997 Q49.6813 145.588 48.5037 151.031 L48.0262 153.068 Q46.8804 158.511 44.5251 160.93 Q42.138 163.349 38.0002 163.349 Q32.9713 163.349 30.2341 159.784 Q27.4968 156.219 27.4968 149.662 Q27.4968 146.416 27.9743 143.551 Q28.4517 140.687 29.4065 138.268 Z" fill="#000000" fill-rule="evenodd" fill-opacity="1" /><path clip-path="url(#clip590)" d="M14.479 113.346 L72.5979 113.346 L72.5979 126.841 L68.0464 126.841 L68.0464 119.234 L19.0304 119.234 L19.0304 126.841 L14.479 126.841 L14.479 113.346 Z" fill="#000000" fill-rule="evenodd" fill-opacity="1" /><polyline clip-path="url(#clip592)" style="stroke:#009af9; stroke-linecap:butt; stroke-linejoin:round; stroke-width:12; stroke-opacity:1; fill:none" points="
  461.663,465.411 480.209,477.558 498.754,488.714 517.3,499.53 535.845,510.133 554.391,520.58 572.936,530.905 591.482,541.13 610.028,551.271 628.573,561.338 
  647.119,571.341 665.664,581.286 684.21,591.179 702.756,601.024 721.301,610.826 739.847,620.588 758.392,630.313 776.938,640.003 795.483,649.66 814.029,659.286 
  832.575,668.884 851.12,678.454 869.666,687.998 888.211,697.517 906.757,707.013 925.302,716.486 943.848,725.937 962.394,735.368 980.939,744.779 999.485,754.171 
  1018.03,763.544 1036.58,772.9 1055.12,782.238 1073.67,791.56 1092.21,800.866 1110.76,810.156 1129.3,819.432 1147.85,828.692 1166.4,837.939 1184.94,847.171 
  1203.49,856.39 1222.03,865.597 1240.58,874.79 1259.12,883.971 1277.67,893.14 1296.21,902.297 1314.76,911.443 1333.31,920.577 1351.85,929.7 1370.4,938.813 
  1388.94,947.915 1407.49,957.007 1426.03,966.089 1444.58,975.161 1463.12,984.223 1481.67,993.276 1500.22,1002.32 1518.76,1011.35 1537.31,1020.38 1555.85,1029.4 
  1574.4,1038.4 1592.94,1047.4 1611.49,1056.39 1630.03,1065.38 1648.58,1074.35 1667.13,1083.32 1685.67,1092.28 1704.22,1101.23 1722.76,1110.17 1741.31,1119.11 
  1759.85,1128.04 1778.4,1136.96 1796.94,1145.88 1815.49,1154.79 1834.04,1163.69 1852.58,1172.58 1871.13,1181.47 1889.67,1190.35 1908.22,1199.23 1926.76,1208.09 
  1945.31,1216.96 1963.86,1225.81 1982.4,1234.66 2000.95,1243.51 2019.49,1252.34 2038.04,1261.18 2056.58,1270 2075.13,1278.82 2093.67,1287.64 2112.22,1296.44 
  2130.77,1305.25 2149.31,1314.05 2167.86,1322.84 2186.4,1331.63 2204.95,1340.41 2223.49,1349.18 2242.04,1357.95 2260.58,1366.72 2279.13,1375.48 2297.68,1384.24 
  
  "/>
<polyline clip-path="url(#clip592)" style="stroke:#e26f46; stroke-linecap:butt; stroke-linejoin:round; stroke-width:12; stroke-opacity:1; fill:none" points="
  461.663,465.405 480.209,460.39 498.754,455.784 517.3,451.319 535.845,446.942 554.391,442.629 572.936,438.367 591.482,434.146 610.028,429.961 628.573,425.805 
  647.119,421.676 665.664,417.571 684.21,413.488 702.756,409.424 721.301,405.378 739.847,401.349 758.392,397.335 776.938,393.335 795.483,389.349 814.029,385.376 
  832.575,381.415 851.12,377.465 869.666,373.526 888.211,369.597 906.757,365.677 925.302,361.768 943.848,357.867 962.394,353.974 980.939,350.09 999.485,346.214 
  1018.03,342.345 1036.58,338.484 1055.12,334.63 1073.67,330.782 1092.21,326.942 1110.76,323.107 1129.3,319.279 1147.85,315.457 1166.4,311.641 1184.94,307.831 
  1203.49,304.026 1222.03,300.226 1240.58,296.432 1259.12,292.643 1277.67,288.859 1296.21,285.08 1314.76,281.305 1333.31,277.535 1351.85,273.77 1370.4,270.009 
  1388.94,266.253 1407.49,262.5 1426.03,258.752 1444.58,255.008 1463.12,251.268 1481.67,247.532 1500.22,243.8 1518.76,240.071 1537.31,236.347 1555.85,232.626 
  1574.4,228.908 1592.94,225.194 1611.49,221.483 1630.03,217.776 1648.58,214.072 1667.13,210.371 1685.67,206.674 1704.22,202.98 1722.76,199.288 1741.31,195.6 
  1759.85,191.915 1778.4,188.233 1796.94,184.554 1815.49,180.877 1834.04,177.204 1852.58,173.533 1871.13,169.865 1889.67,166.2 1908.22,162.537 1926.76,158.878 
  1945.31,155.22 1963.86,151.566 1982.4,147.913 2000.95,144.264 2019.49,140.616 2038.04,136.972 2056.58,133.329 2075.13,129.689 2093.67,126.052 2112.22,122.416 
  2130.77,118.784 2149.31,115.153 2167.86,111.524 2186.4,107.898 2204.95,104.274 2223.49,100.652 2242.04,97.0323 2260.58,93.4147 2279.13,89.7991 2297.68,86.1857 
  
  "/>
<path clip-path="url(#clip590)" d="
M1975.81 248.629 L2287.88 248.629 L2287.88 93.1086 L1975.81 93.1086  Z
  " fill="#ffffff" fill-rule="evenodd" fill-opacity="1"/>
<polyline clip-path="url(#clip590)" style="stroke:#000000; stroke-linecap:butt; stroke-linejoin:round; stroke-width:4; stroke-opacity:1; fill:none" points="
  1975.81,248.629 2287.88,248.629 2287.88,93.1086 1975.81,93.1086 1975.81,248.629 
  "/>
<polyline clip-path="url(#clip590)" style="stroke:#009af9; stroke-linecap:butt; stroke-linejoin:round; stroke-width:4; stroke-opacity:1; fill:none" points="
  1997.43,144.949 2127.18,144.949 
  "/>
<path clip-path="url(#clip590)" d="M2148.8 127.669 L2178.04 127.669 L2178.04 131.604 L2165.77 131.604 L2165.77 162.229 L2161.07 162.229 L2161.07 131.604 L2148.8 131.604 L2148.8 127.669 Z" fill="#000000" fill-rule="evenodd" fill-opacity="1" /><path clip-path="url(#clip590)" d="M2212.6 138.895 L2188.71 147.391 L2212.6 155.84 L2212.6 160.053 L2182.92 149.289 L2182.92 145.446 L2212.6 134.682 L2212.6 138.895 Z" fill="#000000" fill-rule="evenodd" fill-opacity="1" /><path clip-path="url(#clip590)" d="M2232.69 130.747 Q2229.08 130.747 2227.25 134.312 Q2225.45 137.854 2225.45 144.983 Q2225.45 152.09 2227.25 155.655 Q2229.08 159.196 2232.69 159.196 Q2236.33 159.196 2238.13 155.655 Q2239.96 152.09 2239.96 144.983 Q2239.96 137.854 2238.13 134.312 Q2236.33 130.747 2232.69 130.747 M2232.69 127.044 Q2238.5 127.044 2241.56 131.65 Q2244.64 136.233 2244.64 144.983 Q2244.64 153.71 2241.56 158.317 Q2238.5 162.9 2232.69 162.9 Q2226.88 162.9 2223.8 158.317 Q2220.75 153.71 2220.75 144.983 Q2220.75 136.233 2223.8 131.65 Q2226.88 127.044 2232.69 127.044 Z" fill="#000000" fill-rule="evenodd" fill-opacity="1" /><polyline clip-path="url(#clip590)" style="stroke:#e26f46; stroke-linecap:butt; stroke-linejoin:round; stroke-width:4; stroke-opacity:1; fill:none" points="
  1997.43,196.789 2127.18,196.789 
  "/>
<path clip-path="url(#clip590)" d="M2148.8 179.509 L2178.04 179.509 L2178.04 183.444 L2165.77 183.444 L2165.77 214.069 L2161.07 214.069 L2161.07 183.444 L2148.8 183.444 L2148.8 179.509 Z" fill="#000000" fill-rule="evenodd" fill-opacity="1" /><path clip-path="url(#clip590)" d="M2182.92 190.735 L2182.92 186.522 L2212.6 197.286 L2212.6 201.129 L2182.92 211.893 L2182.92 207.68 L2206.76 199.231 L2182.92 190.735 Z" fill="#000000" fill-rule="evenodd" fill-opacity="1" /><path clip-path="url(#clip590)" d="M2232.69 182.587 Q2229.08 182.587 2227.25 186.152 Q2225.45 189.694 2225.45 196.823 Q2225.45 203.93 2227.25 207.495 Q2229.08 211.036 2232.69 211.036 Q2236.33 211.036 2238.13 207.495 Q2239.96 203.93 2239.96 196.823 Q2239.96 189.694 2238.13 186.152 Q2236.33 182.587 2232.69 182.587 M2232.69 178.884 Q2238.5 178.884 2241.56 183.49 Q2244.64 188.073 2244.64 196.823 Q2244.64 205.55 2241.56 210.157 Q2238.5 214.74 2232.69 214.74 Q2226.88 214.74 2223.8 210.157 Q2220.75 205.55 2220.75 196.823 Q2220.75 188.073 2223.8 183.49 Q2226.88 178.884 2232.69 178.884 Z" fill="#000000" fill-rule="evenodd" fill-opacity="1" /></svg>
