<?xml version="1.0" encoding="utf-8"?>
<svg xmlns="http://www.w3.org/2000/svg" xmlns:xlink="http://www.w3.org/1999/xlink" width="600" height="400" viewBox="0 0 2400 1600">
<defs>
  <clipPath id="clip150">
    <rect x="0" y="0" width="2400" height="1600"/>
  </clipPath>
</defs>
<path clip-path="url(#clip150)" d="
M0 1600 L2400 1600 L2400 0 L0 0  Z
  " fill="#ffffff" fill-rule="evenodd" fill-opacity="1"/>
<defs>
  <clipPath id="clip151">
    <rect x="480" y="0" width="1681" height="1600"/>
  </clipPath>
</defs>
<path clip-path="url(#clip150)" d="
M310.352 1423.18 L2352.76 1423.18 L2352.76 47.2441 L310.352 47.2441  Z
  " fill="#ffffff" fill-rule="evenodd" fill-opacity="1"/>
<defs>
  <clipPath id="clip152">
    <rect x="310" y="47" width="2043" height="1377"/>
  </clipPath>
</defs>
<polyline clip-path="url(#clip152)" style="stroke:#000000; stroke-linecap:butt; stroke-linejoin:round; stroke-width:2; stroke-opacity:0.1; fill:none" points="
  368.152,1423.18 368.152,47.2441 
  "/>
<polyline clip-path="url(#clip152)" style="stroke:#000000; stroke-linecap:butt; stroke-linejoin:round; stroke-width:2; stroke-opacity:0.1; fill:none" points="
  753.512,1423.18 753.512,47.2441 
  "/>
<polyline clip-path="url(#clip152)" style="stroke:#000000; stroke-linecap:butt; stroke-linejoin:round; stroke-width:2; stroke-opacity:0.1; fill:none" points="
  1138.87,1423.18 1138.87,47.2441 
  "/>
<polyline clip-path="url(#clip152)" style="stroke:#000000; stroke-linecap:butt; stroke-linejoin:round; stroke-width:2; stroke-opacity:0.1; fill:none" points="
  1524.23,1423.18 1524.23,47.2441 
  "/>
<polyline clip-path="url(#clip152)" style="stroke:#000000; stroke-linecap:butt; stroke-linejoin:round; stroke-width:2; stroke-opacity:0.1; fill:none" points="
  1909.59,1423.18 1909.59,47.2441 
  "/>
<polyline clip-path="url(#clip152)" style="stroke:#000000; stroke-linecap:butt; stroke-linejoin:round; stroke-width:2; stroke-opacity:0.1; fill:none" points="
  2294.95,1423.18 2294.95,47.2441 
  "/>
<polyline clip-path="url(#clip150)" style="stroke:#000000; stroke-linecap:butt; stroke-linejoin:round; stroke-width:4; stroke-opacity:1; fill:none" points="
  310.352,1423.18 2352.76,1423.18 
  "/>
<polyline clip-path="url(#clip150)" style="stroke:#000000; stroke-linecap:butt; stroke-linejoin:round; stroke-width:4; stroke-opacity:1; fill:none" points="
  368.152,1423.18 368.152,1404.28 
  "/>
<polyline clip-path="url(#clip150)" style="stroke:#000000; stroke-linecap:butt; stroke-linejoin:round; stroke-width:4; stroke-opacity:1; fill:none" points="
  753.512,1423.18 753.512,1404.28 
  "/>
<polyline clip-path="url(#clip150)" style="stroke:#000000; stroke-linecap:butt; stroke-linejoin:round; stroke-width:4; stroke-opacity:1; fill:none" points="
  1138.87,1423.18 1138.87,1404.28 
  "/>
<polyline clip-path="url(#clip150)" style="stroke:#000000; stroke-linecap:butt; stroke-linejoin:round; stroke-width:4; stroke-opacity:1; fill:none" points="
  1524.23,1423.18 1524.23,1404.28 
  "/>
<polyline clip-path="url(#clip150)" style="stroke:#000000; stroke-linecap:butt; stroke-linejoin:round; stroke-width:4; stroke-opacity:1; fill:none" points="
  1909.59,1423.18 1909.59,1404.28 
  "/>
<polyline clip-path="url(#clip150)" style="stroke:#000000; stroke-linecap:butt; stroke-linejoin:round; stroke-width:4; stroke-opacity:1; fill:none" points="
  2294.95,1423.18 2294.95,1404.28 
  "/>
<path clip-path="url(#clip150)" d="M368.152 1452.37 Q364.541 1452.37 362.712 1455.94 Q360.907 1459.48 360.907 1466.61 Q360.907 1473.71 362.712 1477.28 Q364.541 1480.82 368.152 1480.82 Q371.786 1480.82 373.592 1477.28 Q375.42 1473.71 375.42 1466.61 Q375.42 1459.48 373.592 1455.94 Q371.786 1452.37 368.152 1452.37 M368.152 1448.67 Q373.962 1448.67 377.018 1453.27 Q380.096 1457.86 380.096 1466.61 Q380.096 1475.33 377.018 1479.94 Q373.962 1484.52 368.152 1484.52 Q362.342 1484.52 359.263 1479.94 Q356.208 1475.33 356.208 1466.61 Q356.208 1457.86 359.263 1453.27 Q362.342 1448.67 368.152 1448.67 Z" fill="#000000" fill-rule="evenodd" fill-opacity="1" /><path clip-path="url(#clip150)" d="M743.894 1479.92 L751.533 1479.92 L751.533 1453.55 L743.223 1455.22 L743.223 1450.96 L751.486 1449.29 L756.162 1449.29 L756.162 1479.92 L763.801 1479.92 L763.801 1483.85 L743.894 1483.85 L743.894 1479.92 Z" fill="#000000" fill-rule="evenodd" fill-opacity="1" /><path clip-path="url(#clip150)" d="M1133.52 1479.92 L1149.84 1479.92 L1149.84 1483.85 L1127.9 1483.85 L1127.9 1479.92 Q1130.56 1477.16 1135.15 1472.53 Q1139.75 1467.88 1140.93 1466.54 Q1143.18 1464.01 1144.06 1462.28 Q1144.96 1460.52 1144.96 1458.83 Q1144.96 1456.07 1143.02 1454.34 Q1141.09 1452.6 1137.99 1452.6 Q1135.79 1452.6 1133.34 1453.37 Q1130.91 1454.13 1128.13 1455.68 L1128.13 1450.96 Q1130.96 1449.82 1133.41 1449.25 Q1135.86 1448.67 1137.9 1448.67 Q1143.27 1448.67 1146.46 1451.35 Q1149.66 1454.04 1149.66 1458.53 Q1149.66 1460.66 1148.85 1462.58 Q1148.06 1464.48 1145.96 1467.07 Q1145.38 1467.74 1142.27 1470.96 Q1139.17 1474.15 1133.52 1479.92 Z" fill="#000000" fill-rule="evenodd" fill-opacity="1" /><path clip-path="url(#clip150)" d="M1528.48 1465.22 Q1531.84 1465.94 1533.71 1468.2 Q1535.61 1470.47 1535.61 1473.81 Q1535.61 1478.92 1532.09 1481.72 Q1528.57 1484.52 1522.09 1484.52 Q1519.91 1484.52 1517.6 1484.08 Q1515.31 1483.67 1512.85 1482.81 L1512.85 1478.3 Q1514.8 1479.43 1517.11 1480.01 Q1519.43 1480.59 1521.95 1480.59 Q1526.35 1480.59 1528.64 1478.85 Q1530.96 1477.12 1530.96 1473.81 Q1530.96 1470.75 1528.8 1469.04 Q1526.67 1467.3 1522.85 1467.3 L1518.83 1467.3 L1518.83 1463.46 L1523.04 1463.46 Q1526.49 1463.46 1528.32 1462.09 Q1530.15 1460.7 1530.15 1458.11 Q1530.15 1455.45 1528.25 1454.04 Q1526.37 1452.6 1522.85 1452.6 Q1520.93 1452.6 1518.73 1453.02 Q1516.54 1453.44 1513.9 1454.31 L1513.9 1450.15 Q1516.56 1449.41 1518.87 1449.04 Q1521.21 1448.67 1523.27 1448.67 Q1528.6 1448.67 1531.7 1451.1 Q1534.8 1453.5 1534.8 1457.63 Q1534.8 1460.5 1533.16 1462.49 Q1531.51 1464.45 1528.48 1465.22 Z" fill="#000000" fill-rule="evenodd" fill-opacity="1" /><path clip-path="url(#clip150)" d="M1912.6 1453.37 L1900.8 1471.81 L1912.6 1471.81 L1912.6 1453.37 M1911.37 1449.29 L1917.25 1449.29 L1917.25 1471.81 L1922.18 1471.81 L1922.18 1475.7 L1917.25 1475.7 L1917.25 1483.85 L1912.6 1483.85 L1912.6 1475.7 L1897 1475.7 L1897 1471.19 L1911.37 1449.29 Z" fill="#000000" fill-rule="evenodd" fill-opacity="1" /><path clip-path="url(#clip150)" d="M2285.23 1449.29 L2303.59 1449.29 L2303.59 1453.23 L2289.51 1453.23 L2289.51 1461.7 Q2290.53 1461.35 2291.55 1461.19 Q2292.57 1461 2293.59 1461 Q2299.37 1461 2302.75 1464.18 Q2306.13 1467.35 2306.13 1472.76 Q2306.13 1478.34 2302.66 1481.44 Q2299.19 1484.52 2292.87 1484.52 Q2290.69 1484.52 2288.42 1484.15 Q2286.18 1483.78 2283.77 1483.04 L2283.77 1478.34 Q2285.85 1479.48 2288.08 1480.03 Q2290.3 1480.59 2292.78 1480.59 Q2296.78 1480.59 2299.12 1478.48 Q2301.46 1476.38 2301.46 1472.76 Q2301.46 1469.15 2299.12 1467.05 Q2296.78 1464.94 2292.78 1464.94 Q2290.9 1464.94 2289.03 1465.36 Q2287.17 1465.77 2285.23 1466.65 L2285.23 1449.29 Z" fill="#000000" fill-rule="evenodd" fill-opacity="1" /><path clip-path="url(#clip150)" d="M959.828 1550.25 Q959.828 1556.71 962.47 1560.4 Q965.144 1564.07 969.791 1564.07 Q974.438 1564.07 977.111 1560.4 Q979.785 1556.71 979.785 1550.25 Q979.785 1543.79 977.111 1540.13 Q974.438 1536.44 969.791 1536.44 Q965.144 1536.44 962.47 1540.13 Q959.828 1543.79 959.828 1550.25 M979.785 1562.7 Q977.939 1565.88 975.106 1567.44 Q972.305 1568.97 968.359 1568.97 Q961.897 1568.97 957.823 1563.81 Q953.781 1558.65 953.781 1550.25 Q953.781 1541.85 957.823 1536.69 Q961.897 1531.54 968.359 1531.54 Q972.305 1531.54 975.106 1533.1 Q977.939 1534.62 979.785 1537.81 L979.785 1532.4 L985.641 1532.4 L985.641 1581.6 L979.785 1581.6 L979.785 1562.7 Z" fill="#000000" fill-rule="evenodd" fill-opacity="1" /><path clip-path="url(#clip150)" d="M1024.79 1578.87 L1024.79 1583.42 L990.925 1583.42 L990.925 1578.87 L1024.79 1578.87 Z" fill="#000000" fill-rule="evenodd" fill-opacity="1" /><path clip-path="url(#clip150)" d="M1050.95 1537.87 Q1049.97 1537.3 1048.79 1537.04 Q1047.64 1536.76 1046.24 1536.76 Q1041.28 1536.76 1038.6 1540 Q1035.96 1543.22 1035.96 1549.27 L1035.96 1568.04 L1030.07 1568.04 L1030.07 1532.4 L1035.96 1532.4 L1035.96 1537.93 Q1037.81 1534.69 1040.77 1533.13 Q1043.73 1531.54 1047.96 1531.54 Q1048.57 1531.54 1049.3 1531.63 Q1050.03 1531.7 1050.92 1531.85 L1050.95 1537.87 Z" fill="#000000" fill-rule="evenodd" fill-opacity="1" /><path clip-path="url(#clip150)" d="M1073.3 1550.12 Q1066.2 1550.12 1063.46 1551.75 Q1060.72 1553.37 1060.72 1557.29 Q1060.72 1560.4 1062.76 1562.25 Q1064.83 1564.07 1068.36 1564.07 Q1073.23 1564.07 1076.16 1560.63 Q1079.12 1557.16 1079.12 1551.43 L1079.12 1550.12 L1073.3 1550.12 M1084.98 1547.71 L1084.98 1568.04 L1079.12 1568.04 L1079.12 1562.63 Q1077.12 1565.88 1074.12 1567.44 Q1071.13 1568.97 1066.8 1568.97 Q1061.33 1568.97 1058.08 1565.91 Q1054.87 1562.82 1054.87 1557.67 Q1054.87 1551.65 1058.88 1548.6 Q1062.92 1545.54 1070.91 1545.54 L1079.12 1545.54 L1079.12 1544.97 Q1079.12 1540.93 1076.45 1538.73 Q1073.81 1536.5 1069 1536.5 Q1065.94 1536.5 1063.05 1537.23 Q1060.15 1537.97 1057.48 1539.43 L1057.48 1534.02 Q1060.69 1532.78 1063.72 1532.17 Q1066.74 1531.54 1069.61 1531.54 Q1077.34 1531.54 1081.16 1535.55 Q1084.98 1539.56 1084.98 1547.71 Z" fill="#000000" fill-rule="evenodd" fill-opacity="1" /><path clip-path="url(#clip150)" d="M1097.04 1532.4 L1102.9 1532.4 L1102.9 1568.04 L1097.04 1568.04 L1097.04 1532.4 M1097.04 1518.52 L1102.9 1518.52 L1102.9 1525.93 L1097.04 1525.93 L1097.04 1518.52 Z" fill="#000000" fill-rule="evenodd" fill-opacity="1" /><path clip-path="url(#clip150)" d="M1144.78 1546.53 L1144.78 1568.04 L1138.93 1568.04 L1138.93 1546.72 Q1138.93 1541.66 1136.95 1539.14 Q1134.98 1536.63 1131.03 1536.63 Q1126.29 1536.63 1123.55 1539.65 Q1120.82 1542.68 1120.82 1547.9 L1120.82 1568.04 L1114.93 1568.04 L1114.93 1532.4 L1120.82 1532.4 L1120.82 1537.93 Q1122.92 1534.72 1125.75 1533.13 Q1128.62 1531.54 1132.34 1531.54 Q1138.48 1531.54 1141.63 1535.36 Q1144.78 1539.14 1144.78 1546.53 Z" fill="#000000" fill-rule="evenodd" fill-opacity="1" /><path clip-path="url(#clip150)" d="M1191 1536.5 Q1186.29 1536.5 1183.55 1540.19 Q1180.81 1543.85 1180.81 1550.25 Q1180.81 1556.65 1183.52 1560.34 Q1186.26 1564 1191 1564 Q1195.68 1564 1198.42 1560.31 Q1201.15 1556.62 1201.15 1550.25 Q1201.15 1543.92 1198.42 1540.23 Q1195.68 1536.5 1191 1536.5 M1191 1531.54 Q1198.64 1531.54 1203 1536.5 Q1207.36 1541.47 1207.36 1550.25 Q1207.36 1559 1203 1564 Q1198.64 1568.97 1191 1568.97 Q1183.33 1568.97 1178.97 1564 Q1174.64 1559 1174.64 1550.25 Q1174.64 1541.47 1178.97 1536.5 Q1183.33 1531.54 1191 1531.54 Z" fill="#000000" fill-rule="evenodd" fill-opacity="1" /><path clip-path="url(#clip150)" d="M1237.72 1537.87 Q1236.74 1537.3 1235.56 1537.04 Q1234.41 1536.76 1233.01 1536.76 Q1228.05 1536.76 1225.37 1540 Q1222.73 1543.22 1222.73 1549.27 L1222.73 1568.04 L1216.84 1568.04 L1216.84 1532.4 L1222.73 1532.4 L1222.73 1537.93 Q1224.58 1534.69 1227.54 1533.13 Q1230.5 1531.54 1234.73 1531.54 Q1235.34 1531.54 1236.07 1531.63 Q1236.8 1531.7 1237.69 1531.85 L1237.72 1537.87 Z" fill="#000000" fill-rule="evenodd" fill-opacity="1" /><path clip-path="url(#clip150)" d="M1268.09 1550.25 Q1268.09 1556.71 1270.73 1560.4 Q1273.4 1564.07 1278.05 1564.07 Q1282.7 1564.07 1285.37 1560.4 Q1288.04 1556.71 1288.04 1550.25 Q1288.04 1543.79 1285.37 1540.13 Q1282.7 1536.44 1278.05 1536.44 Q1273.4 1536.44 1270.73 1540.13 Q1268.09 1543.79 1268.09 1550.25 M1288.04 1562.7 Q1286.2 1565.88 1283.37 1567.44 Q1280.56 1568.97 1276.62 1568.97 Q1270.16 1568.97 1266.08 1563.81 Q1262.04 1558.65 1262.04 1550.25 Q1262.04 1541.85 1266.08 1536.69 Q1270.16 1531.54 1276.62 1531.54 Q1280.56 1531.54 1283.37 1533.1 Q1286.2 1534.62 1288.04 1537.81 L1288.04 1532.4 L1293.9 1532.4 L1293.9 1581.6 L1288.04 1581.6 L1288.04 1562.7 Z" fill="#000000" fill-rule="evenodd" fill-opacity="1" /><path clip-path="url(#clip150)" d="M1333.05 1578.87 L1333.05 1583.42 L1299.18 1583.42 L1299.18 1578.87 L1333.05 1578.87 Z" fill="#000000" fill-rule="evenodd" fill-opacity="1" /><path clip-path="url(#clip150)" d="M1361.28 1533.45 L1361.28 1538.98 Q1358.8 1537.71 1356.13 1537.07 Q1353.45 1536.44 1350.59 1536.44 Q1346.23 1536.44 1344.03 1537.77 Q1341.87 1539.11 1341.87 1541.79 Q1341.87 1543.82 1343.43 1545 Q1344.99 1546.15 1349.7 1547.2 L1351.7 1547.64 Q1357.94 1548.98 1360.55 1551.43 Q1363.19 1553.85 1363.19 1558.21 Q1363.19 1563.17 1359.24 1566.07 Q1355.33 1568.97 1348.45 1568.97 Q1345.59 1568.97 1342.47 1568.39 Q1339.38 1567.85 1335.95 1566.74 L1335.95 1560.69 Q1339.19 1562.38 1342.34 1563.24 Q1345.49 1564.07 1348.58 1564.07 Q1352.72 1564.07 1354.95 1562.66 Q1357.18 1561.23 1357.18 1558.65 Q1357.18 1556.27 1355.55 1554.99 Q1353.96 1553.72 1348.52 1552.54 L1346.48 1552.07 Q1341.04 1550.92 1338.62 1548.56 Q1336.2 1546.18 1336.2 1542.04 Q1336.2 1537.01 1339.77 1534.27 Q1343.33 1531.54 1349.89 1531.54 Q1353.13 1531.54 1356 1532.01 Q1358.86 1532.49 1361.28 1533.45 Z" fill="#000000" fill-rule="evenodd" fill-opacity="1" /><path clip-path="url(#clip150)" d="M1402.15 1546.53 L1402.15 1568.04 L1396.29 1568.04 L1396.29 1546.72 Q1396.29 1541.66 1394.32 1539.14 Q1392.35 1536.63 1388.4 1536.63 Q1383.66 1536.63 1380.92 1539.65 Q1378.18 1542.68 1378.18 1547.9 L1378.18 1568.04 L1372.29 1568.04 L1372.29 1532.4 L1378.18 1532.4 L1378.18 1537.93 Q1380.28 1534.72 1383.12 1533.13 Q1385.98 1531.54 1389.7 1531.54 Q1395.85 1531.54 1399 1535.36 Q1402.15 1539.14 1402.15 1546.53 Z" fill="#000000" fill-rule="evenodd" fill-opacity="1" /><path clip-path="url(#clip150)" d="M1427.64 1536.5 Q1422.93 1536.5 1420.2 1540.19 Q1417.46 1543.85 1417.46 1550.25 Q1417.46 1556.65 1420.16 1560.34 Q1422.9 1564 1427.64 1564 Q1432.32 1564 1435.06 1560.31 Q1437.8 1556.62 1437.8 1550.25 Q1437.8 1543.92 1435.06 1540.23 Q1432.32 1536.5 1427.64 1536.5 M1427.64 1531.54 Q1435.28 1531.54 1439.64 1536.5 Q1444 1541.47 1444 1550.25 Q1444 1559 1439.64 1564 Q1435.28 1568.97 1427.64 1568.97 Q1419.97 1568.97 1415.61 1564 Q1411.28 1559 1411.28 1550.25 Q1411.28 1541.47 1415.61 1536.5 Q1419.97 1531.54 1427.64 1531.54 Z" fill="#000000" fill-rule="evenodd" fill-opacity="1" /><path clip-path="url(#clip150)" d="M1450.31 1532.4 L1456.16 1532.4 L1463.48 1560.21 L1470.77 1532.4 L1477.68 1532.4 L1485 1560.21 L1492.29 1532.4 L1498.14 1532.4 L1488.82 1568.04 L1481.91 1568.04 L1474.24 1538.83 L1466.54 1568.04 L1459.63 1568.04 L1450.31 1532.4 Z" fill="#000000" fill-rule="evenodd" fill-opacity="1" /><path clip-path="url(#clip150)" d="M1527.2 1518.52 L1540.7 1518.52 L1540.7 1523.07 L1533.06 1523.07 L1533.06 1572.09 L1540.7 1572.09 L1540.7 1576.64 L1527.2 1576.64 L1527.2 1518.52 Z" fill="#000000" fill-rule="evenodd" fill-opacity="1" /><path clip-path="url(#clip150)" d="M1576.63 1549.81 Q1576.63 1543.44 1573.99 1539.94 Q1571.38 1536.44 1566.64 1536.44 Q1561.93 1536.44 1559.29 1539.94 Q1556.68 1543.44 1556.68 1549.81 Q1556.68 1556.14 1559.29 1559.64 Q1561.93 1563.14 1566.64 1563.14 Q1571.38 1563.14 1573.99 1559.64 Q1576.63 1556.14 1576.63 1549.81 M1582.49 1563.62 Q1582.49 1572.72 1578.45 1577.15 Q1574.41 1581.6 1566.07 1581.6 Q1562.98 1581.6 1560.24 1581.13 Q1557.5 1580.68 1554.93 1579.72 L1554.93 1574.03 Q1557.5 1575.43 1560.02 1576.1 Q1562.53 1576.76 1565.14 1576.76 Q1570.9 1576.76 1573.77 1573.74 Q1576.63 1570.75 1576.63 1564.67 L1576.63 1561.77 Q1574.82 1564.92 1571.99 1566.48 Q1569.15 1568.04 1565.21 1568.04 Q1558.65 1568.04 1554.64 1563.05 Q1550.63 1558.05 1550.63 1549.81 Q1550.63 1541.53 1554.64 1536.53 Q1558.65 1531.54 1565.21 1531.54 Q1569.15 1531.54 1571.99 1533.1 Q1574.82 1534.66 1576.63 1537.81 L1576.63 1532.4 L1582.49 1532.4 L1582.49 1563.62 Z" fill="#000000" fill-rule="evenodd" fill-opacity="1" /><path clip-path="url(#clip150)" d="M1604.96 1520.52 L1610.37 1520.52 L1593.82 1574.09 L1588.41 1574.09 L1604.96 1520.52 Z" fill="#000000" fill-rule="evenodd" fill-opacity="1" /><path clip-path="url(#clip150)" d="M1616.29 1518.52 L1622.18 1518.52 L1622.18 1547.77 L1639.65 1532.4 L1647.13 1532.4 L1628.23 1549.07 L1647.93 1568.04 L1640.29 1568.04 L1622.18 1550.63 L1622.18 1568.04 L1616.29 1568.04 L1616.29 1518.52 Z" fill="#000000" fill-rule="evenodd" fill-opacity="1" /><path clip-path="url(#clip150)" d="M1677.72 1549.81 Q1677.72 1543.44 1675.08 1539.94 Q1672.47 1536.44 1667.73 1536.44 Q1663.02 1536.44 1660.37 1539.94 Q1657.76 1543.44 1657.76 1549.81 Q1657.76 1556.14 1660.37 1559.64 Q1663.02 1563.14 1667.73 1563.14 Q1672.47 1563.14 1675.08 1559.64 Q1677.72 1556.14 1677.72 1549.81 M1683.58 1563.62 Q1683.58 1572.72 1679.54 1577.15 Q1675.49 1581.6 1667.15 1581.6 Q1664.07 1581.6 1661.33 1581.13 Q1658.59 1580.68 1656.01 1579.72 L1656.01 1574.03 Q1658.59 1575.43 1661.11 1576.1 Q1663.62 1576.76 1666.23 1576.76 Q1671.99 1576.76 1674.86 1573.74 Q1677.72 1570.75 1677.72 1564.67 L1677.72 1561.77 Q1675.91 1564.92 1673.07 1566.48 Q1670.24 1568.04 1666.29 1568.04 Q1659.74 1568.04 1655.73 1563.05 Q1651.72 1558.05 1651.72 1549.81 Q1651.72 1541.53 1655.73 1536.53 Q1659.74 1531.54 1666.29 1531.54 Q1670.24 1531.54 1673.07 1533.1 Q1675.91 1534.66 1677.72 1537.81 L1677.72 1532.4 L1683.58 1532.4 L1683.58 1563.62 Z" fill="#000000" fill-rule="evenodd" fill-opacity="1" /><path clip-path="url(#clip150)" d="M1709.33 1518.52 L1709.33 1576.64 L1695.83 1576.64 L1695.83 1572.09 L1703.44 1572.09 L1703.44 1523.07 L1695.83 1523.07 L1695.83 1518.52 L1709.33 1518.52 Z" fill="#000000" fill-rule="evenodd" fill-opacity="1" /><polyline clip-path="url(#clip152)" style="stroke:#000000; stroke-linecap:butt; stroke-linejoin:round; stroke-width:2; stroke-opacity:0.1; fill:none" points="
  310.352,1384.24 2352.76,1384.24 
  "/>
<polyline clip-path="url(#clip152)" style="stroke:#000000; stroke-linecap:butt; stroke-linejoin:round; stroke-width:2; stroke-opacity:0.1; fill:none" points="
  310.352,1085.85 2352.76,1085.85 
  "/>
<polyline clip-path="url(#clip152)" style="stroke:#000000; stroke-linecap:butt; stroke-linejoin:round; stroke-width:2; stroke-opacity:0.1; fill:none" points="
  310.352,787.468 2352.76,787.468 
  "/>
<polyline clip-path="url(#clip152)" style="stroke:#000000; stroke-linecap:butt; stroke-linejoin:round; stroke-width:2; stroke-opacity:0.1; fill:none" points="
  310.352,489.082 2352.76,489.082 
  "/>
<polyline clip-path="url(#clip152)" style="stroke:#000000; stroke-linecap:butt; stroke-linejoin:round; stroke-width:2; stroke-opacity:0.1; fill:none" points="
  310.352,190.697 2352.76,190.697 
  "/>
<polyline clip-path="url(#clip150)" style="stroke:#000000; stroke-linecap:butt; stroke-linejoin:round; stroke-width:4; stroke-opacity:1; fill:none" points="
  310.352,1423.18 310.352,47.2441 
  "/>
<polyline clip-path="url(#clip150)" style="stroke:#000000; stroke-linecap:butt; stroke-linejoin:round; stroke-width:4; stroke-opacity:1; fill:none" points="
  310.352,1384.24 329.25,1384.24 
  "/>
<polyline clip-path="url(#clip150)" style="stroke:#000000; stroke-linecap:butt; stroke-linejoin:round; stroke-width:4; stroke-opacity:1; fill:none" points="
  310.352,1085.85 329.25,1085.85 
  "/>
<polyline clip-path="url(#clip150)" style="stroke:#000000; stroke-linecap:butt; stroke-linejoin:round; stroke-width:4; stroke-opacity:1; fill:none" points="
  310.352,787.468 329.25,787.468 
  "/>
<polyline clip-path="url(#clip150)" style="stroke:#000000; stroke-linecap:butt; stroke-linejoin:round; stroke-width:4; stroke-opacity:1; fill:none" points="
  310.352,489.082 329.25,489.082 
  "/>
<polyline clip-path="url(#clip150)" style="stroke:#000000; stroke-linecap:butt; stroke-linejoin:round; stroke-width:4; stroke-opacity:1; fill:none" points="
  310.352,190.697 329.25,190.697 
  "/>
<path clip-path="url(#clip150)" d="M126.691 1370.04 Q123.08 1370.04 121.251 1373.6 Q119.445 1377.14 119.445 1384.27 Q119.445 1391.38 121.251 1394.94 Q123.08 1398.49 126.691 1398.49 Q130.325 1398.49 132.13 1394.94 Q133.959 1391.38 133.959 1384.27 Q133.959 1377.14 132.13 1373.6 Q130.325 1370.04 126.691 1370.04 M126.691 1366.33 Q132.501 1366.33 135.556 1370.94 Q138.635 1375.52 138.635 1384.27 Q138.635 1393 135.556 1397.61 Q132.501 1402.19 126.691 1402.19 Q120.88 1402.19 117.802 1397.61 Q114.746 1393 114.746 1384.27 Q114.746 1375.52 117.802 1370.94 Q120.88 1366.33 126.691 1366.33 Z" fill="#000000" fill-rule="evenodd" fill-opacity="1" /><path clip-path="url(#clip150)" d="M146.853 1395.64 L151.737 1395.64 L151.737 1401.52 L146.853 1401.52 L146.853 1395.64 Z" fill="#000000" fill-rule="evenodd" fill-opacity="1" /><path clip-path="url(#clip150)" d="M171.922 1370.04 Q168.311 1370.04 166.482 1373.6 Q164.677 1377.14 164.677 1384.27 Q164.677 1391.38 166.482 1394.94 Q168.311 1398.49 171.922 1398.49 Q175.556 1398.49 177.362 1394.94 Q179.19 1391.38 179.19 1384.27 Q179.19 1377.14 177.362 1373.6 Q175.556 1370.04 171.922 1370.04 M171.922 1366.33 Q177.732 1366.33 180.788 1370.94 Q183.866 1375.52 183.866 1384.27 Q183.866 1393 180.788 1397.61 Q177.732 1402.19 171.922 1402.19 Q166.112 1402.19 163.033 1397.61 Q159.978 1393 159.978 1384.27 Q159.978 1375.52 163.033 1370.94 Q166.112 1366.33 171.922 1366.33 Z" fill="#000000" fill-rule="evenodd" fill-opacity="1" /><path clip-path="url(#clip150)" d="M202.084 1370.04 Q198.473 1370.04 196.644 1373.6 Q194.838 1377.14 194.838 1384.27 Q194.838 1391.38 196.644 1394.94 Q198.473 1398.49 202.084 1398.49 Q205.718 1398.49 207.524 1394.94 Q209.352 1391.38 209.352 1384.27 Q209.352 1377.14 207.524 1373.6 Q205.718 1370.04 202.084 1370.04 M202.084 1366.33 Q207.894 1366.33 210.949 1370.94 Q214.028 1375.52 214.028 1384.27 Q214.028 1393 210.949 1397.61 Q207.894 1402.19 202.084 1402.19 Q196.274 1402.19 193.195 1397.61 Q190.139 1393 190.139 1384.27 Q190.139 1375.52 193.195 1370.94 Q196.274 1366.33 202.084 1366.33 Z" fill="#000000" fill-rule="evenodd" fill-opacity="1" /><path clip-path="url(#clip150)" d="M232.246 1370.04 Q228.635 1370.04 226.806 1373.6 Q225 1377.14 225 1384.27 Q225 1391.38 226.806 1394.94 Q228.635 1398.49 232.246 1398.49 Q235.88 1398.49 237.685 1394.94 Q239.514 1391.38 239.514 1384.27 Q239.514 1377.14 237.685 1373.6 Q235.88 1370.04 232.246 1370.04 M232.246 1366.33 Q238.056 1366.33 241.111 1370.94 Q244.19 1375.52 244.19 1384.27 Q244.19 1393 241.111 1397.61 Q238.056 1402.19 232.246 1402.19 Q226.435 1402.19 223.357 1397.61 Q220.301 1393 220.301 1384.27 Q220.301 1375.52 223.357 1370.94 Q226.435 1366.33 232.246 1366.33 Z" fill="#000000" fill-rule="evenodd" fill-opacity="1" /><path clip-path="url(#clip150)" d="M262.408 1370.04 Q258.796 1370.04 256.968 1373.6 Q255.162 1377.14 255.162 1384.27 Q255.162 1391.38 256.968 1394.94 Q258.796 1398.49 262.408 1398.49 Q266.042 1398.49 267.847 1394.94 Q269.676 1391.38 269.676 1384.27 Q269.676 1377.14 267.847 1373.6 Q266.042 1370.04 262.408 1370.04 M262.408 1366.33 Q268.218 1366.33 271.273 1370.94 Q274.352 1375.52 274.352 1384.27 Q274.352 1393 271.273 1397.61 Q268.218 1402.19 262.408 1402.19 Q256.597 1402.19 253.519 1397.61 Q250.463 1393 250.463 1384.27 Q250.463 1375.52 253.519 1370.94 Q256.597 1366.33 262.408 1366.33 Z" fill="#000000" fill-rule="evenodd" fill-opacity="1" /><path clip-path="url(#clip150)" d="M128.288 1071.65 Q124.677 1071.65 122.848 1075.22 Q121.043 1078.76 121.043 1085.89 Q121.043 1092.99 122.848 1096.56 Q124.677 1100.1 128.288 1100.1 Q131.922 1100.1 133.728 1096.56 Q135.556 1092.99 135.556 1085.89 Q135.556 1078.76 133.728 1075.22 Q131.922 1071.65 128.288 1071.65 M128.288 1067.95 Q134.098 1067.95 137.154 1072.55 Q140.232 1077.14 140.232 1085.89 Q140.232 1094.61 137.154 1099.22 Q134.098 1103.8 128.288 1103.8 Q122.478 1103.8 119.399 1099.22 Q116.343 1094.61 116.343 1085.89 Q116.343 1077.14 119.399 1072.55 Q122.478 1067.95 128.288 1067.95 Z" fill="#000000" fill-rule="evenodd" fill-opacity="1" /><path clip-path="url(#clip150)" d="M148.45 1097.25 L153.334 1097.25 L153.334 1103.13 L148.45 1103.13 L148.45 1097.25 Z" fill="#000000" fill-rule="evenodd" fill-opacity="1" /><path clip-path="url(#clip150)" d="M173.519 1071.65 Q169.908 1071.65 168.079 1075.22 Q166.274 1078.76 166.274 1085.89 Q166.274 1092.99 168.079 1096.56 Q169.908 1100.1 173.519 1100.1 Q177.153 1100.1 178.959 1096.56 Q180.788 1092.99 180.788 1085.89 Q180.788 1078.76 178.959 1075.22 Q177.153 1071.65 173.519 1071.65 M173.519 1067.95 Q179.329 1067.95 182.385 1072.55 Q185.463 1077.14 185.463 1085.89 Q185.463 1094.61 182.385 1099.22 Q179.329 1103.8 173.519 1103.8 Q167.709 1103.8 164.63 1099.22 Q161.575 1094.61 161.575 1085.89 Q161.575 1077.14 164.63 1072.55 Q167.709 1067.95 173.519 1067.95 Z" fill="#000000" fill-rule="evenodd" fill-opacity="1" /><path clip-path="url(#clip150)" d="M203.681 1071.65 Q200.07 1071.65 198.241 1075.22 Q196.436 1078.76 196.436 1085.89 Q196.436 1092.99 198.241 1096.56 Q200.07 1100.1 203.681 1100.1 Q207.315 1100.1 209.121 1096.56 Q210.949 1092.99 210.949 1085.89 Q210.949 1078.76 209.121 1075.22 Q207.315 1071.65 203.681 1071.65 M203.681 1067.95 Q209.491 1067.95 212.547 1072.55 Q215.625 1077.14 215.625 1085.89 Q215.625 1094.61 212.547 1099.22 Q209.491 1103.8 203.681 1103.8 Q197.871 1103.8 194.792 1099.22 Q191.737 1094.61 191.737 1085.89 Q191.737 1077.14 194.792 1072.55 Q197.871 1067.95 203.681 1067.95 Z" fill="#000000" fill-rule="evenodd" fill-opacity="1" /><path clip-path="url(#clip150)" d="M233.843 1071.65 Q230.232 1071.65 228.403 1075.22 Q226.598 1078.76 226.598 1085.89 Q226.598 1092.99 228.403 1096.56 Q230.232 1100.1 233.843 1100.1 Q237.477 1100.1 239.283 1096.56 Q241.111 1092.99 241.111 1085.89 Q241.111 1078.76 239.283 1075.22 Q237.477 1071.65 233.843 1071.65 M233.843 1067.95 Q239.653 1067.95 242.709 1072.55 Q245.787 1077.14 245.787 1085.89 Q245.787 1094.61 242.709 1099.22 Q239.653 1103.8 233.843 1103.8 Q228.033 1103.8 224.954 1099.22 Q221.898 1094.61 221.898 1085.89 Q221.898 1077.14 224.954 1072.55 Q228.033 1067.95 233.843 1067.95 Z" fill="#000000" fill-rule="evenodd" fill-opacity="1" /><path clip-path="url(#clip150)" d="M258.033 1099.2 L274.352 1099.2 L274.352 1103.13 L252.408 1103.13 L252.408 1099.2 Q255.07 1096.44 259.653 1091.81 Q264.259 1087.16 265.44 1085.82 Q267.685 1083.3 268.565 1081.56 Q269.468 1079.8 269.468 1078.11 Q269.468 1075.36 267.523 1073.62 Q265.602 1071.88 262.5 1071.88 Q260.301 1071.88 257.847 1072.65 Q255.417 1073.41 252.639 1074.96 L252.639 1070.24 Q255.463 1069.11 257.917 1068.53 Q260.37 1067.95 262.408 1067.95 Q267.778 1067.95 270.972 1070.63 Q274.167 1073.32 274.167 1077.81 Q274.167 1079.94 273.357 1081.86 Q272.569 1083.76 270.463 1086.35 Q269.884 1087.02 266.782 1090.24 Q263.681 1093.43 258.033 1099.2 Z" fill="#000000" fill-rule="evenodd" fill-opacity="1" /><path clip-path="url(#clip150)" d="M126.205 773.266 Q122.593 773.266 120.765 776.831 Q118.959 780.373 118.959 787.502 Q118.959 794.609 120.765 798.174 Q122.593 801.715 126.205 801.715 Q129.839 801.715 131.644 798.174 Q133.473 794.609 133.473 787.502 Q133.473 780.373 131.644 776.831 Q129.839 773.266 126.205 773.266 M126.205 769.563 Q132.015 769.563 135.07 774.169 Q138.149 778.753 138.149 787.502 Q138.149 796.229 135.07 800.836 Q132.015 805.419 126.205 805.419 Q120.394 805.419 117.316 800.836 Q114.26 796.229 114.26 787.502 Q114.26 778.753 117.316 774.169 Q120.394 769.563 126.205 769.563 Z" fill="#000000" fill-rule="evenodd" fill-opacity="1" /><path clip-path="url(#clip150)" d="M146.366 798.868 L151.251 798.868 L151.251 804.748 L146.366 804.748 L146.366 798.868 Z" fill="#000000" fill-rule="evenodd" fill-opacity="1" /><path clip-path="url(#clip150)" d="M171.436 773.266 Q167.825 773.266 165.996 776.831 Q164.19 780.373 164.19 787.502 Q164.19 794.609 165.996 798.174 Q167.825 801.715 171.436 801.715 Q175.07 801.715 176.876 798.174 Q178.704 794.609 178.704 787.502 Q178.704 780.373 176.876 776.831 Q175.07 773.266 171.436 773.266 M171.436 769.563 Q177.246 769.563 180.301 774.169 Q183.38 778.753 183.38 787.502 Q183.38 796.229 180.301 800.836 Q177.246 805.419 171.436 805.419 Q165.626 805.419 162.547 800.836 Q159.491 796.229 159.491 787.502 Q159.491 778.753 162.547 774.169 Q165.626 769.563 171.436 769.563 Z" fill="#000000" fill-rule="evenodd" fill-opacity="1" /><path clip-path="url(#clip150)" d="M201.598 773.266 Q197.987 773.266 196.158 776.831 Q194.352 780.373 194.352 787.502 Q194.352 794.609 196.158 798.174 Q197.987 801.715 201.598 801.715 Q205.232 801.715 207.037 798.174 Q208.866 794.609 208.866 787.502 Q208.866 780.373 207.037 776.831 Q205.232 773.266 201.598 773.266 M201.598 769.563 Q207.408 769.563 210.463 774.169 Q213.542 778.753 213.542 787.502 Q213.542 796.229 210.463 800.836 Q207.408 805.419 201.598 805.419 Q195.787 805.419 192.709 800.836 Q189.653 796.229 189.653 787.502 Q189.653 778.753 192.709 774.169 Q195.787 769.563 201.598 769.563 Z" fill="#000000" fill-rule="evenodd" fill-opacity="1" /><path clip-path="url(#clip150)" d="M231.76 773.266 Q228.148 773.266 226.32 776.831 Q224.514 780.373 224.514 787.502 Q224.514 794.609 226.32 798.174 Q228.148 801.715 231.76 801.715 Q235.394 801.715 237.199 798.174 Q239.028 794.609 239.028 787.502 Q239.028 780.373 237.199 776.831 Q235.394 773.266 231.76 773.266 M231.76 769.563 Q237.57 769.563 240.625 774.169 Q243.704 778.753 243.704 787.502 Q243.704 796.229 240.625 800.836 Q237.57 805.419 231.76 805.419 Q225.949 805.419 222.871 800.836 Q219.815 796.229 219.815 787.502 Q219.815 778.753 222.871 774.169 Q225.949 769.563 231.76 769.563 Z" fill="#000000" fill-rule="evenodd" fill-opacity="1" /><path clip-path="url(#clip150)" d="M264.769 774.262 L252.963 792.711 L264.769 792.711 L264.769 774.262 M263.542 770.188 L269.421 770.188 L269.421 792.711 L274.352 792.711 L274.352 796.6 L269.421 796.6 L269.421 804.748 L264.769 804.748 L264.769 796.6 L249.167 796.6 L249.167 792.086 L263.542 770.188 Z" fill="#000000" fill-rule="evenodd" fill-opacity="1" /><path clip-path="url(#clip150)" d="M126.529 474.881 Q122.918 474.881 121.089 478.446 Q119.283 481.988 119.283 489.117 Q119.283 496.224 121.089 499.788 Q122.918 503.33 126.529 503.33 Q130.163 503.33 131.968 499.788 Q133.797 496.224 133.797 489.117 Q133.797 481.988 131.968 478.446 Q130.163 474.881 126.529 474.881 M126.529 471.177 Q132.339 471.177 135.394 475.784 Q138.473 480.367 138.473 489.117 Q138.473 497.844 135.394 502.45 Q132.339 507.034 126.529 507.034 Q120.718 507.034 117.64 502.45 Q114.584 497.844 114.584 489.117 Q114.584 480.367 117.64 475.784 Q120.718 471.177 126.529 471.177 Z" fill="#000000" fill-rule="evenodd" fill-opacity="1" /><path clip-path="url(#clip150)" d="M146.691 500.483 L151.575 500.483 L151.575 506.362 L146.691 506.362 L146.691 500.483 Z" fill="#000000" fill-rule="evenodd" fill-opacity="1" /><path clip-path="url(#clip150)" d="M171.76 474.881 Q168.149 474.881 166.32 478.446 Q164.515 481.988 164.515 489.117 Q164.515 496.224 166.32 499.788 Q168.149 503.33 171.76 503.33 Q175.394 503.33 177.2 499.788 Q179.028 496.224 179.028 489.117 Q179.028 481.988 177.2 478.446 Q175.394 474.881 171.76 474.881 M171.76 471.177 Q177.57 471.177 180.626 475.784 Q183.704 480.367 183.704 489.117 Q183.704 497.844 180.626 502.45 Q177.57 507.034 171.76 507.034 Q165.95 507.034 162.871 502.45 Q159.815 497.844 159.815 489.117 Q159.815 480.367 162.871 475.784 Q165.95 471.177 171.76 471.177 Z" fill="#000000" fill-rule="evenodd" fill-opacity="1" /><path clip-path="url(#clip150)" d="M201.922 474.881 Q198.311 474.881 196.482 478.446 Q194.676 481.988 194.676 489.117 Q194.676 496.224 196.482 499.788 Q198.311 503.33 201.922 503.33 Q205.556 503.33 207.362 499.788 Q209.19 496.224 209.19 489.117 Q209.19 481.988 207.362 478.446 Q205.556 474.881 201.922 474.881 M201.922 471.177 Q207.732 471.177 210.787 475.784 Q213.866 480.367 213.866 489.117 Q213.866 497.844 210.787 502.45 Q207.732 507.034 201.922 507.034 Q196.112 507.034 193.033 502.45 Q189.977 497.844 189.977 489.117 Q189.977 480.367 193.033 475.784 Q196.112 471.177 201.922 471.177 Z" fill="#000000" fill-rule="evenodd" fill-opacity="1" /><path clip-path="url(#clip150)" d="M232.084 474.881 Q228.473 474.881 226.644 478.446 Q224.838 481.988 224.838 489.117 Q224.838 496.224 226.644 499.788 Q228.473 503.33 232.084 503.33 Q235.718 503.33 237.523 499.788 Q239.352 496.224 239.352 489.117 Q239.352 481.988 237.523 478.446 Q235.718 474.881 232.084 474.881 M232.084 471.177 Q237.894 471.177 240.949 475.784 Q244.028 480.367 244.028 489.117 Q244.028 497.844 240.949 502.45 Q237.894 507.034 232.084 507.034 Q226.273 507.034 223.195 502.45 Q220.139 497.844 220.139 489.117 Q220.139 480.367 223.195 475.784 Q226.273 471.177 232.084 471.177 Z" fill="#000000" fill-rule="evenodd" fill-opacity="1" /><path clip-path="url(#clip150)" d="M262.824 487.219 Q259.676 487.219 257.824 489.372 Q255.996 491.525 255.996 495.275 Q255.996 499.001 257.824 501.177 Q259.676 503.33 262.824 503.33 Q265.972 503.33 267.801 501.177 Q269.653 499.001 269.653 495.275 Q269.653 491.525 267.801 489.372 Q265.972 487.219 262.824 487.219 M272.107 472.566 L272.107 476.826 Q270.347 475.992 268.542 475.552 Q266.759 475.113 265 475.113 Q260.37 475.113 257.917 478.238 Q255.486 481.363 255.139 487.682 Q256.505 485.668 258.565 484.603 Q260.625 483.515 263.102 483.515 Q268.31 483.515 271.32 486.687 Q274.352 489.835 274.352 495.275 Q274.352 500.599 271.204 503.816 Q268.056 507.034 262.824 507.034 Q256.829 507.034 253.658 502.45 Q250.486 497.844 250.486 489.117 Q250.486 480.923 254.375 476.062 Q258.264 471.177 264.815 471.177 Q266.574 471.177 268.357 471.525 Q270.162 471.872 272.107 472.566 Z" fill="#000000" fill-rule="evenodd" fill-opacity="1" /><path clip-path="url(#clip150)" d="M126.783 176.496 Q123.172 176.496 121.343 180.061 Q119.538 183.602 119.538 190.732 Q119.538 197.838 121.343 201.403 Q123.172 204.945 126.783 204.945 Q130.417 204.945 132.223 201.403 Q134.052 197.838 134.052 190.732 Q134.052 183.602 132.223 180.061 Q130.417 176.496 126.783 176.496 M126.783 172.792 Q132.593 172.792 135.649 177.399 Q138.728 181.982 138.728 190.732 Q138.728 199.459 135.649 204.065 Q132.593 208.649 126.783 208.649 Q120.973 208.649 117.894 204.065 Q114.839 199.459 114.839 190.732 Q114.839 181.982 117.894 177.399 Q120.973 172.792 126.783 172.792 Z" fill="#000000" fill-rule="evenodd" fill-opacity="1" /><path clip-path="url(#clip150)" d="M146.945 202.098 L151.829 202.098 L151.829 207.977 L146.945 207.977 L146.945 202.098 Z" fill="#000000" fill-rule="evenodd" fill-opacity="1" /><path clip-path="url(#clip150)" d="M172.014 176.496 Q168.403 176.496 166.575 180.061 Q164.769 183.602 164.769 190.732 Q164.769 197.838 166.575 201.403 Q168.403 204.945 172.014 204.945 Q175.649 204.945 177.454 201.403 Q179.283 197.838 179.283 190.732 Q179.283 183.602 177.454 180.061 Q175.649 176.496 172.014 176.496 M172.014 172.792 Q177.825 172.792 180.88 177.399 Q183.959 181.982 183.959 190.732 Q183.959 199.459 180.88 204.065 Q177.825 208.649 172.014 208.649 Q166.204 208.649 163.126 204.065 Q160.07 199.459 160.07 190.732 Q160.07 181.982 163.126 177.399 Q166.204 172.792 172.014 172.792 Z" fill="#000000" fill-rule="evenodd" fill-opacity="1" /><path clip-path="url(#clip150)" d="M202.176 176.496 Q198.565 176.496 196.737 180.061 Q194.931 183.602 194.931 190.732 Q194.931 197.838 196.737 201.403 Q198.565 204.945 202.176 204.945 Q205.811 204.945 207.616 201.403 Q209.445 197.838 209.445 190.732 Q209.445 183.602 207.616 180.061 Q205.811 176.496 202.176 176.496 M202.176 172.792 Q207.987 172.792 211.042 177.399 Q214.121 181.982 214.121 190.732 Q214.121 199.459 211.042 204.065 Q207.987 208.649 202.176 208.649 Q196.366 208.649 193.288 204.065 Q190.232 199.459 190.232 190.732 Q190.232 181.982 193.288 177.399 Q196.366 172.792 202.176 172.792 Z" fill="#000000" fill-rule="evenodd" fill-opacity="1" /><path clip-path="url(#clip150)" d="M232.338 176.496 Q228.727 176.496 226.898 180.061 Q225.093 183.602 225.093 190.732 Q225.093 197.838 226.898 201.403 Q228.727 204.945 232.338 204.945 Q235.972 204.945 237.778 201.403 Q239.607 197.838 239.607 190.732 Q239.607 183.602 237.778 180.061 Q235.972 176.496 232.338 176.496 M232.338 172.792 Q238.148 172.792 241.204 177.399 Q244.283 181.982 244.283 190.732 Q244.283 199.459 241.204 204.065 Q238.148 208.649 232.338 208.649 Q226.528 208.649 223.449 204.065 Q220.394 199.459 220.394 190.732 Q220.394 181.982 223.449 177.399 Q226.528 172.792 232.338 172.792 Z" fill="#000000" fill-rule="evenodd" fill-opacity="1" /><path clip-path="url(#clip150)" d="M262.5 191.565 Q259.167 191.565 257.246 193.348 Q255.347 195.13 255.347 198.255 Q255.347 201.38 257.246 203.162 Q259.167 204.945 262.5 204.945 Q265.833 204.945 267.755 203.162 Q269.676 201.357 269.676 198.255 Q269.676 195.13 267.755 193.348 Q265.857 191.565 262.5 191.565 M257.824 189.575 Q254.815 188.834 253.125 186.774 Q251.458 184.713 251.458 181.751 Q251.458 177.607 254.398 175.2 Q257.361 172.792 262.5 172.792 Q267.662 172.792 270.602 175.2 Q273.542 177.607 273.542 181.751 Q273.542 184.713 271.852 186.774 Q270.185 188.834 267.199 189.575 Q270.579 190.362 272.454 192.653 Q274.352 194.945 274.352 198.255 Q274.352 203.278 271.273 205.963 Q268.218 208.649 262.5 208.649 Q256.783 208.649 253.704 205.963 Q250.648 203.278 250.648 198.255 Q250.648 194.945 252.546 192.653 Q254.445 190.362 257.824 189.575 M256.111 182.19 Q256.111 184.875 257.778 186.38 Q259.468 187.885 262.5 187.885 Q265.509 187.885 267.199 186.38 Q268.912 184.875 268.912 182.19 Q268.912 179.505 267.199 178.001 Q265.509 176.496 262.5 176.496 Q259.468 176.496 257.778 178.001 Q256.111 179.505 256.111 182.19 Z" fill="#000000" fill-rule="evenodd" fill-opacity="1" /><path clip-path="url(#clip150)" d="M46.0847 1173.43 Q46.0847 1180.52 47.7079 1183.26 Q49.3312 1186 53.2461 1186 Q56.3653 1186 58.2114 1183.96 Q60.0256 1181.89 60.0256 1178.36 Q60.0256 1173.49 56.5881 1170.56 Q53.1188 1167.6 47.3897 1167.6 L46.0847 1167.6 L46.0847 1173.43 M43.6657 1161.75 L64.0042 1161.75 L64.0042 1167.6 L58.5933 1167.6 Q61.8398 1169.61 63.3994 1172.6 Q64.9272 1175.59 64.9272 1179.92 Q64.9272 1185.39 61.8716 1188.64 Q58.7843 1191.86 53.6281 1191.86 Q47.6125 1191.86 44.5569 1187.85 Q41.5014 1183.8 41.5014 1175.81 L41.5014 1167.6 L40.9285 1167.6 Q36.8862 1167.6 34.6901 1170.28 Q32.4621 1172.92 32.4621 1177.72 Q32.4621 1180.78 33.1941 1183.68 Q33.9262 1186.57 35.3903 1189.25 L29.9795 1189.25 Q28.7381 1186.03 28.1334 1183.01 Q27.4968 1179.98 27.4968 1177.12 Q27.4968 1169.38 31.5072 1165.57 Q35.5176 1161.75 43.6657 1161.75 Z" fill="#000000" fill-rule="evenodd" fill-opacity="1" /><path clip-path="url(#clip150)" d="M29.7248 1124.03 L35.1993 1124.03 Q33.8307 1126.51 33.1623 1129.03 Q32.4621 1131.51 32.4621 1134.06 Q32.4621 1139.75 36.0905 1142.9 Q39.6872 1146.05 46.212 1146.05 Q52.7369 1146.05 56.3653 1142.9 Q59.9619 1139.75 59.9619 1134.06 Q59.9619 1131.51 59.2935 1129.03 Q58.5933 1126.51 57.2247 1124.03 L62.6355 1124.03 Q63.7814 1126.48 64.3543 1129.12 Q64.9272 1131.73 64.9272 1134.69 Q64.9272 1142.74 59.8664 1147.49 Q54.8057 1152.23 46.212 1152.23 Q37.491 1152.23 32.4939 1147.46 Q27.4968 1142.65 27.4968 1134.31 Q27.4968 1131.6 28.0697 1129.03 Q28.6108 1126.45 29.7248 1124.03 Z" fill="#000000" fill-rule="evenodd" fill-opacity="1" /><path clip-path="url(#clip150)" d="M29.7248 1088.19 L35.1993 1088.19 Q33.8307 1090.67 33.1623 1093.19 Q32.4621 1095.67 32.4621 1098.22 Q32.4621 1103.91 36.0905 1107.06 Q39.6872 1110.22 46.212 1110.22 Q52.7369 1110.22 56.3653 1107.06 Q59.9619 1103.91 59.9619 1098.22 Q59.9619 1095.67 59.2935 1093.19 Q58.5933 1090.67 57.2247 1088.19 L62.6355 1088.19 Q63.7814 1090.64 64.3543 1093.28 Q64.9272 1095.89 64.9272 1098.85 Q64.9272 1106.91 59.8664 1111.65 Q54.8057 1116.39 46.212 1116.39 Q37.491 1116.39 32.4939 1111.62 Q27.4968 1106.81 27.4968 1098.47 Q27.4968 1095.77 28.0697 1093.19 Q28.6108 1090.61 29.7248 1088.19 Z" fill="#000000" fill-rule="evenodd" fill-opacity="1" /><path clip-path="url(#clip150)" d="M33.8307 1057.35 Q33.2578 1058.34 33.0032 1059.51 Q32.7167 1060.66 32.7167 1062.06 Q32.7167 1067.02 35.9632 1069.7 Q39.1779 1072.34 45.2253 1072.34 L64.0042 1072.34 L64.0042 1078.23 L28.3562 1078.23 L28.3562 1072.34 L33.8944 1072.34 Q30.6479 1070.49 29.0883 1067.53 Q27.4968 1064.57 27.4968 1060.34 Q27.4968 1059.74 27.5923 1059 Q27.656 1058.27 27.8151 1057.38 L33.8307 1057.35 Z" fill="#000000" fill-rule="evenodd" fill-opacity="1" /><path clip-path="url(#clip150)" d="M44.7161 1022.15 L47.5806 1022.15 L47.5806 1049.07 Q53.6281 1048.69 56.8109 1045.44 Q59.9619 1042.17 59.9619 1036.34 Q59.9619 1032.97 59.1344 1029.82 Q58.3069 1026.63 56.6518 1023.51 L62.1899 1023.51 Q63.5267 1026.67 64.227 1029.98 Q64.9272 1033.29 64.9272 1036.69 Q64.9272 1045.22 59.9619 1050.22 Q54.9967 1055.18 46.5303 1055.18 Q37.7774 1055.18 32.6531 1050.47 Q27.4968 1045.73 27.4968 1037.71 Q27.4968 1030.52 32.1438 1026.35 Q36.7589 1022.15 44.7161 1022.15 M42.9973 1028 Q38.1912 1028.07 35.3266 1030.71 Q32.4621 1033.32 32.4621 1037.65 Q32.4621 1042.55 35.2312 1045.51 Q38.0002 1048.44 43.0292 1048.88 L42.9973 1028 Z" fill="#000000" fill-rule="evenodd" fill-opacity="1" /><path clip-path="url(#clip150)" d="M18.2347 1006.74 L28.3562 1006.74 L28.3562 994.678 L32.9077 994.678 L32.9077 1006.74 L52.2594 1006.74 Q56.6199 1006.74 57.8613 1005.56 Q59.1026 1004.35 59.1026 1000.69 L59.1026 994.678 L64.0042 994.678 L64.0042 1000.69 Q64.0042 1007.47 61.4897 1010.05 Q58.9434 1012.63 52.2594 1012.63 L32.9077 1012.63 L32.9077 1016.93 L28.3562 1016.93 L28.3562 1012.63 L18.2347 1012.63 L18.2347 1006.74 Z" fill="#000000" fill-rule="evenodd" fill-opacity="1" /><path clip-path="url(#clip150)" d="M28.3562 986.976 L28.3562 981.119 L64.0042 981.119 L64.0042 986.976 L28.3562 986.976 M14.479 986.976 L14.479 981.119 L21.895 981.119 L21.895 986.976 L14.479 986.976 Z" fill="#000000" fill-rule="evenodd" fill-opacity="1" /><path clip-path="url(#clip150)" d="M32.4621 955.052 Q32.4621 959.762 36.1542 962.5 Q39.8145 965.237 46.212 965.237 Q52.6095 965.237 56.3017 962.531 Q59.9619 959.794 59.9619 955.052 Q59.9619 950.373 56.2698 947.636 Q52.5777 944.898 46.212 944.898 Q39.8781 944.898 36.186 947.636 Q32.4621 950.373 32.4621 955.052 M27.4968 955.052 Q27.4968 947.413 32.4621 943.052 Q37.4273 938.692 46.212 938.692 Q54.9649 938.692 59.9619 943.052 Q64.9272 947.413 64.9272 955.052 Q64.9272 962.722 59.9619 967.083 Q54.9649 971.412 46.212 971.412 Q37.4273 971.412 32.4621 967.083 Q27.4968 962.722 27.4968 955.052 Z" fill="#000000" fill-rule="evenodd" fill-opacity="1" /><path clip-path="url(#clip150)" d="M42.4881 899.352 L64.0042 899.352 L64.0042 905.208 L42.679 905.208 Q37.6183 905.208 35.1038 907.182 Q32.5894 909.155 32.5894 913.102 Q32.5894 917.844 35.6131 920.581 Q38.6368 923.319 43.8567 923.319 L64.0042 923.319 L64.0042 929.207 L28.3562 929.207 L28.3562 923.319 L33.8944 923.319 Q30.6797 921.218 29.0883 918.385 Q27.4968 915.521 27.4968 911.797 Q27.4968 905.654 31.3163 902.503 Q35.1038 899.352 42.4881 899.352 Z" fill="#000000" fill-rule="evenodd" fill-opacity="1" /><path clip-path="url(#clip150)" d="M33.8307 846.294 Q33.2578 847.28 33.0032 848.458 Q32.7167 849.604 32.7167 851.004 Q32.7167 855.969 35.9632 858.643 Q39.1779 861.285 45.2253 861.285 L64.0042 861.285 L64.0042 867.173 L28.3562 867.173 L28.3562 861.285 L33.8944 861.285 Q30.6479 859.439 29.0883 856.479 Q27.4968 853.519 27.4968 849.285 Q27.4968 848.681 27.5923 847.949 Q27.656 847.217 27.8151 846.325 L33.8307 846.294 Z" fill="#000000" fill-rule="evenodd" fill-opacity="1" /><path clip-path="url(#clip150)" d="M46.0847 823.95 Q46.0847 831.048 47.7079 833.785 Q49.3312 836.522 53.2461 836.522 Q56.3653 836.522 58.2114 834.485 Q60.0256 832.416 60.0256 828.883 Q60.0256 824.014 56.5881 821.085 Q53.1188 818.125 47.3897 818.125 L46.0847 818.125 L46.0847 823.95 M43.6657 812.269 L64.0042 812.269 L64.0042 818.125 L58.5933 818.125 Q61.8398 820.13 63.3994 823.122 Q64.9272 826.114 64.9272 830.443 Q64.9272 835.917 61.8716 839.164 Q58.7843 842.379 53.6281 842.379 Q47.6125 842.379 44.5569 838.368 Q41.5014 834.326 41.5014 826.337 L41.5014 818.125 L40.9285 818.125 Q36.8862 818.125 34.6901 820.799 Q32.4621 823.441 32.4621 828.247 Q32.4621 831.302 33.1941 834.199 Q33.9262 837.095 35.3903 839.769 L29.9795 839.769 Q28.7381 836.554 28.1334 833.53 Q27.4968 830.507 27.4968 827.642 Q27.4968 819.908 31.5072 816.088 Q35.5176 812.269 43.6657 812.269 Z" fill="#000000" fill-rule="evenodd" fill-opacity="1" /><path clip-path="url(#clip150)" d="M28.3562 800.206 L28.3562 794.349 L64.0042 794.349 L64.0042 800.206 L28.3562 800.206 M14.479 800.206 L14.479 794.349 L21.895 794.349 L21.895 800.206 L14.479 800.206 Z" fill="#000000" fill-rule="evenodd" fill-opacity="1" /><path clip-path="url(#clip150)" d="M42.4881 752.463 L64.0042 752.463 L64.0042 758.319 L42.679 758.319 Q37.6183 758.319 35.1038 760.293 Q32.5894 762.266 32.5894 766.213 Q32.5894 770.955 35.6131 773.693 Q38.6368 776.43 43.8567 776.43 L64.0042 776.43 L64.0042 782.318 L28.3562 782.318 L28.3562 776.43 L33.8944 776.43 Q30.6797 774.329 29.0883 771.496 Q27.4968 768.632 27.4968 764.908 Q27.4968 758.765 31.3163 755.614 Q35.1038 752.463 42.4881 752.463 Z" fill="#000000" fill-rule="evenodd" fill-opacity="1" /><path clip-path="url(#clip150)" d="M29.4065 697.336 L34.9447 697.336 Q33.6716 699.819 33.035 702.492 Q32.3984 705.166 32.3984 708.03 Q32.3984 712.391 33.7352 714.587 Q35.072 716.751 37.7456 716.751 Q39.7826 716.751 40.9603 715.192 Q42.1061 713.632 43.1565 708.922 L43.6021 706.916 Q44.9389 700.678 47.3897 698.068 Q49.8086 695.426 54.1691 695.426 Q59.1344 695.426 62.0308 699.373 Q64.9272 703.288 64.9272 710.163 Q64.9272 713.027 64.3543 716.147 Q63.8132 719.234 62.6992 722.672 L56.6518 722.672 Q58.3387 719.425 59.198 716.274 Q60.0256 713.123 60.0256 710.036 Q60.0256 705.898 58.6251 703.67 Q57.1929 701.442 54.6147 701.442 Q52.2276 701.442 50.9545 703.065 Q49.6813 704.657 48.5037 710.099 L48.0262 712.136 Q46.8804 717.579 44.5251 719.998 Q42.138 722.417 38.0002 722.417 Q32.9713 722.417 30.2341 718.852 Q27.4968 715.287 27.4968 708.731 Q27.4968 705.484 27.9743 702.62 Q28.4517 699.755 29.4065 697.336 Z" fill="#000000" fill-rule="evenodd" fill-opacity="1" /><path clip-path="url(#clip150)" d="M28.3562 686.101 L28.3562 680.244 L64.0042 680.244 L64.0042 686.101 L28.3562 686.101 M14.479 686.101 L14.479 680.244 L21.895 680.244 L21.895 686.101 L14.479 686.101 Z" fill="#000000" fill-rule="evenodd" fill-opacity="1" /><path clip-path="url(#clip150)" d="M42.4881 638.358 L64.0042 638.358 L64.0042 644.214 L42.679 644.214 Q37.6183 644.214 35.1038 646.188 Q32.5894 648.161 32.5894 652.108 Q32.5894 656.85 35.6131 659.587 Q38.6368 662.325 43.8567 662.325 L64.0042 662.325 L64.0042 668.213 L28.3562 668.213 L28.3562 662.325 L33.8944 662.325 Q30.6797 660.224 29.0883 657.391 Q27.4968 654.527 27.4968 650.803 Q27.4968 644.66 31.3163 641.509 Q35.1038 638.358 42.4881 638.358 Z" fill="#000000" fill-rule="evenodd" fill-opacity="1" /><path clip-path="url(#clip150)" d="M14.479 626.899 L14.479 621.011 L43.7294 621.011 L28.3562 603.537 L28.3562 596.058 L45.0344 614.964 L64.0042 595.262 L64.0042 602.901 L46.5939 621.011 L64.0042 621.011 L64.0042 626.899 L14.479 626.899 Z" fill="#000000" fill-rule="evenodd" fill-opacity="1" /><path clip-path="url(#clip150)" d="M33.8307 547.551 Q33.2578 548.538 33.0032 549.715 Q32.7167 550.861 32.7167 552.262 Q32.7167 557.227 35.9632 559.9 Q39.1779 562.542 45.2253 562.542 L64.0042 562.542 L64.0042 568.43 L28.3562 568.43 L28.3562 562.542 L33.8944 562.542 Q30.6479 560.696 29.0883 557.736 Q27.4968 554.776 27.4968 550.543 Q27.4968 549.938 27.5923 549.206 Q27.656 548.474 27.8151 547.583 L33.8307 547.551 Z" fill="#000000" fill-rule="evenodd" fill-opacity="1" /><path clip-path="url(#clip150)" d="M46.0847 525.207 Q46.0847 532.305 47.7079 535.042 Q49.3312 537.78 53.2461 537.78 Q56.3653 537.78 58.2114 535.743 Q60.0256 533.674 60.0256 530.141 Q60.0256 525.271 56.5881 522.343 Q53.1188 519.383 47.3897 519.383 L46.0847 519.383 L46.0847 525.207 M43.6657 513.526 L64.0042 513.526 L64.0042 519.383 L58.5933 519.383 Q61.8398 521.388 63.3994 524.38 Q64.9272 527.372 64.9272 531.7 Q64.9272 537.175 61.8716 540.421 Q58.7843 543.636 53.6281 543.636 Q47.6125 543.636 44.5569 539.626 Q41.5014 535.583 41.5014 527.594 L41.5014 519.383 L40.9285 519.383 Q36.8862 519.383 34.6901 522.056 Q32.4621 524.698 32.4621 529.504 Q32.4621 532.56 33.1941 535.456 Q33.9262 538.352 35.3903 541.026 L29.9795 541.026 Q28.7381 537.811 28.1334 534.788 Q27.4968 531.764 27.4968 528.899 Q27.4968 521.165 31.5072 517.346 Q35.5176 513.526 43.6657 513.526 Z" fill="#000000" fill-rule="evenodd" fill-opacity="1" /><path clip-path="url(#clip150)" d="M18.2347 495.67 L28.3562 495.67 L28.3562 483.607 L32.9077 483.607 L32.9077 495.67 L52.2594 495.67 Q56.6199 495.67 57.8613 494.493 Q59.1026 493.283 59.1026 489.623 L59.1026 483.607 L64.0042 483.607 L64.0042 489.623 Q64.0042 496.402 61.4897 498.981 Q58.9434 501.559 52.2594 501.559 L32.9077 501.559 L32.9077 505.856 L28.3562 505.856 L28.3562 501.559 L18.2347 501.559 L18.2347 495.67 Z" fill="#000000" fill-rule="evenodd" fill-opacity="1" /><path clip-path="url(#clip150)" d="M44.7161 445.413 L47.5806 445.413 L47.5806 472.34 Q53.6281 471.958 56.8109 468.712 Q59.9619 465.433 59.9619 459.609 Q59.9619 456.235 59.1344 453.084 Q58.3069 449.901 56.6518 446.782 L62.1899 446.782 Q63.5267 449.933 64.227 453.243 Q64.9272 456.553 64.9272 459.959 Q64.9272 468.489 59.9619 473.486 Q54.9967 478.451 46.5303 478.451 Q37.7774 478.451 32.6531 473.741 Q27.4968 468.998 27.4968 460.977 Q27.4968 453.784 32.1438 449.615 Q36.7589 445.413 44.7161 445.413 M42.9973 451.27 Q38.1912 451.333 35.3266 453.975 Q32.4621 456.585 32.4621 460.914 Q32.4621 465.815 35.2312 468.775 Q38.0002 471.704 43.0292 472.149 L42.9973 451.27 Z" fill="#000000" fill-rule="evenodd" fill-opacity="1" /><path clip-path="url(#clip150)" d="M14.479 415.622 L14.479 402.126 L19.0304 402.126 L19.0304 409.765 L68.0464 409.765 L68.0464 402.126 L72.5979 402.126 L72.5979 415.622 L14.479 415.622 Z" fill="#000000" fill-rule="evenodd" fill-opacity="1" /><path clip-path="url(#clip150)" d="M58.5933 387.708 L58.5933 377.205 L22.3406 377.205 L24.6323 388.631 L18.7758 388.631 L16.4842 377.268 L16.4842 370.839 L58.5933 370.839 L58.5933 360.336 L64.0042 360.336 L64.0042 387.708 L58.5933 387.708 Z" fill="#000000" fill-rule="evenodd" fill-opacity="1" /><path clip-path="url(#clip150)" d="M16.4842 337.769 L16.4842 332.358 L70.0516 348.909 L70.0516 354.32 L16.4842 337.769 Z" fill="#000000" fill-rule="evenodd" fill-opacity="1" /><path clip-path="url(#clip150)" d="M29.4065 303.49 L34.9447 303.49 Q33.6716 305.972 33.035 308.646 Q32.3984 311.32 32.3984 314.184 Q32.3984 318.545 33.7352 320.741 Q35.072 322.905 37.7456 322.905 Q39.7826 322.905 40.9603 321.346 Q42.1061 319.786 43.1565 315.075 L43.6021 313.07 Q44.9389 306.832 47.3897 304.222 Q49.8086 301.58 54.1691 301.58 Q59.1344 301.58 62.0308 305.527 Q64.9272 309.442 64.9272 316.317 Q64.9272 319.181 64.3543 322.3 Q63.8132 325.388 62.6992 328.825 L56.6518 328.825 Q58.3387 325.579 59.198 322.428 Q60.0256 319.277 60.0256 316.189 Q60.0256 312.052 58.6251 309.824 Q57.1929 307.596 54.6147 307.596 Q52.2276 307.596 50.9545 309.219 Q49.6813 310.81 48.5037 316.253 L48.0262 318.29 Q46.8804 323.733 44.5251 326.152 Q42.138 328.571 38.0002 328.571 Q32.9713 328.571 30.2341 325.006 Q27.4968 321.441 27.4968 314.884 Q27.4968 311.638 27.9743 308.773 Q28.4517 305.909 29.4065 303.49 Z" fill="#000000" fill-rule="evenodd" fill-opacity="1" /><path clip-path="url(#clip150)" d="M14.479 278.568 L72.5979 278.568 L72.5979 292.063 L68.0464 292.063 L68.0464 284.456 L19.0304 284.456 L19.0304 292.063 L14.479 292.063 L14.479 278.568 Z" fill="#000000" fill-rule="evenodd" fill-opacity="1" /><polyline clip-path="url(#clip152)" style="stroke:#009af9; stroke-linecap:butt; stroke-linejoin:round; stroke-width:12; stroke-opacity:1; fill:none" points="
  368.156,1384.24 387.618,1384 407.081,1383.51 426.544,1382.84 446.006,1382.01 465.469,1381.03 484.931,1379.92 504.394,1378.7 523.856,1377.35 543.319,1375.9 
  562.782,1374.34 582.244,1372.69 601.707,1370.93 621.169,1369.08 640.632,1367.14 660.095,1365.12 679.557,1363 699.02,1360.8 718.482,1358.52 737.945,1356.16 
  757.408,1353.72 776.87,1351.2 796.333,1348.61 815.795,1345.94 835.258,1343.2 854.72,1340.38 874.183,1337.49 893.646,1334.54 913.108,1331.51 932.571,1328.42 
  952.033,1325.26 971.496,1322.03 990.959,1318.74 1010.42,1315.38 1029.88,1311.95 1049.35,1308.47 1068.81,1304.92 1088.27,1301.31 1107.73,1297.63 1127.2,1293.9 
  1146.66,1290.11 1166.12,1286.25 1185.58,1282.34 1205.05,1278.37 1224.51,1274.34 1243.97,1270.25 1263.43,1266.11 1282.9,1261.9 1302.36,1257.65 1321.82,1253.33 
  1341.29,1248.96 1360.75,1244.54 1380.21,1240.06 1399.67,1235.53 1419.14,1230.94 1438.6,1226.3 1458.06,1221.61 1477.52,1216.87 1496.99,1212.07 1516.45,1207.22 
  1535.91,1202.32 1555.37,1197.37 1574.84,1192.36 1594.3,1187.31 1613.76,1182.2 1633.22,1177.05 1652.69,1171.84 1672.15,1166.59 1691.61,1161.29 1711.07,1155.93 
  1730.54,1150.53 1750,1145.08 1769.46,1139.59 1788.92,1134.04 1808.39,1128.45 1827.85,1122.81 1847.31,1117.12 1866.78,1111.38 1886.24,1105.6 1905.7,1099.77 
  1925.16,1093.9 1944.63,1087.98 1964.09,1082.01 1983.55,1076 2003.01,1069.94 2022.48,1063.84 2041.94,1057.69 2061.4,1051.5 2080.86,1045.26 2100.33,1038.98 
  2119.79,1032.65 2139.25,1026.28 2158.71,1019.87 2178.18,1013.41 2197.64,1006.91 2217.1,1000.37 2236.56,993.779 2256.03,987.148 2275.49,980.474 2294.95,973.758 
  
  "/>
<polyline clip-path="url(#clip152)" style="stroke:#e26f46; stroke-linecap:butt; stroke-linejoin:round; stroke-width:12; stroke-opacity:1; fill:none" points="
  368.156,1384.24 387.618,1383.82 407.081,1382.95 426.544,1381.75 446.006,1380.27 465.469,1378.53 484.931,1376.57 504.394,1374.38 523.856,1371.99 543.319,1369.41 
  562.782,1366.64 582.244,1363.7 601.707,1360.58 621.169,1357.29 640.632,1353.84 660.095,1350.23 679.557,1346.47 699.02,1342.56 718.482,1338.51 737.945,1334.31 
  757.408,1329.97 776.87,1325.49 796.333,1320.88 815.795,1316.13 835.258,1311.25 854.72,1306.25 874.183,1301.12 893.646,1295.86 913.108,1290.48 932.571,1284.98 
  952.033,1279.35 971.496,1273.61 990.959,1267.76 1010.42,1261.78 1029.88,1255.7 1049.35,1249.5 1068.81,1243.19 1088.27,1236.76 1107.73,1230.23 1127.2,1223.59 
  1146.66,1216.85 1166.12,1209.99 1185.58,1203.03 1205.05,1195.97 1224.51,1188.81 1243.97,1181.54 1263.43,1174.17 1282.9,1166.69 1302.36,1159.12 1321.82,1151.45 
  1341.29,1143.68 1360.75,1135.82 1380.21,1127.85 1399.67,1119.79 1419.14,1111.64 1438.6,1103.39 1458.06,1095.04 1477.52,1086.6 1496.99,1078.07 1516.45,1069.45 
  1535.91,1060.73 1555.37,1051.93 1574.84,1043.03 1594.3,1034.04 1613.76,1024.96 1633.22,1015.8 1652.69,1006.54 1672.15,997.197 1691.61,987.766 1711.07,978.248 
  1730.54,968.644 1750,958.953 1769.46,949.176 1788.92,939.315 1808.39,929.368 1827.85,919.338 1847.31,909.223 1866.78,899.025 1886.24,888.743 1905.7,878.379 
  1925.16,867.933 1944.63,857.405 1964.09,846.795 1983.55,836.104 2003.01,825.332 2022.48,814.479 2041.94,803.547 2061.4,792.535 2080.86,781.443 2100.33,770.273 
  2119.79,759.023 2139.25,747.696 2158.71,736.29 2178.18,724.806 2197.64,713.245 2217.1,701.607 2236.56,689.892 2256.03,678.101 2275.49,666.233 2294.95,654.29 
  
  "/>
<polyline clip-path="url(#clip152)" style="stroke:#3da44d; stroke-linecap:butt; stroke-linejoin:round; stroke-width:12; stroke-opacity:1; fill:none" points="
  368.156,1384.24 387.618,1383.5 407.081,1381.95 426.544,1379.81 446.006,1377.18 465.469,1374.09 484.931,1370.6 504.394,1366.71 523.856,1362.47 543.319,1357.87 
  562.782,1352.95 582.244,1347.71 601.707,1342.16 621.169,1336.31 640.632,1330.18 660.095,1323.77 679.557,1317.08 699.02,1310.13 718.482,1302.92 737.945,1295.45 
  757.408,1287.73 776.87,1279.77 796.333,1271.56 815.795,1263.12 835.258,1254.45 854.72,1245.55 874.183,1236.42 893.646,1227.07 913.108,1217.51 932.571,1207.72 
  952.033,1197.72 971.496,1187.52 990.959,1177.1 1010.42,1166.48 1029.88,1155.66 1049.35,1144.63 1068.81,1133.41 1088.27,1121.99 1107.73,1110.37 1127.2,1098.57 
  1146.66,1086.57 1166.12,1074.38 1185.58,1062.01 1205.05,1049.45 1224.51,1036.7 1243.97,1023.78 1263.43,1010.67 1282.9,997.386 1302.36,983.922 1321.82,970.281 
  1341.29,956.466 1360.75,942.477 1380.21,928.315 1399.67,913.982 1419.14,899.479 1438.6,884.807 1458.06,869.968 1477.52,854.962 1496.99,839.79 1516.45,824.454 
  1535.91,808.955 1555.37,793.293 1574.84,777.471 1594.3,761.487 1613.76,745.345 1633.22,729.044 1652.69,712.586 1672.15,695.971 1691.61,679.2 1711.07,662.274 
  1730.54,645.195 1750,627.962 1769.46,610.577 1788.92,593.04 1808.39,575.353 1827.85,557.515 1847.31,539.528 1866.78,521.393 1886.24,503.11 1905.7,484.68 
  1925.16,466.103 1944.63,447.381 1964.09,428.513 1983.55,409.502 2003.01,390.346 2022.48,371.048 2041.94,351.607 2061.4,332.024 2080.86,312.3 2100.33,292.436 
  2119.79,272.431 2139.25,252.288 2158.71,232.005 2178.18,211.584 2197.64,191.025 2217.1,170.33 2236.56,149.497 2256.03,128.529 2275.49,107.425 2294.95,86.1857 
  
  "/>
<path clip-path="url(#clip150)" d="
M1794.5 300.469 L2284.68 300.469 L2284.68 93.1086 L1794.5 93.1086  Z
  " fill="#ffffff" fill-rule="evenodd" fill-opacity="1"/>
<polyline clip-path="url(#clip150)" style="stroke:#000000; stroke-linecap:butt; stroke-linejoin:round; stroke-width:4; stroke-opacity:1; fill:none" points="
  1794.5,300.469 2284.68,300.469 2284.68,93.1086 1794.5,93.1086 1794.5,300.469 
  "/>
<polyline clip-path="url(#clip150)" style="stroke:#009af9; stroke-linecap:butt; stroke-linejoin:round; stroke-width:4; stroke-opacity:1; fill:none" points="
  1817.2,144.949 1953.36,144.949 
  "/>
<path clip-path="url(#clip150)" d="M1980.45 149.289 Q1980.45 153.988 1982.37 156.673 Q1984.31 159.335 1987.69 159.335 Q1991.07 159.335 1993.02 156.673 Q1994.96 153.988 1994.96 149.289 Q1994.96 144.59 1993.02 141.928 Q1991.07 139.243 1987.69 139.243 Q1984.31 139.243 1982.37 141.928 Q1980.45 144.59 1980.45 149.289 M1994.96 158.34 Q1993.62 160.655 1991.56 161.789 Q1989.52 162.9 1986.65 162.9 Q1981.95 162.9 1978.99 159.15 Q1976.05 155.4 1976.05 149.289 Q1976.05 143.178 1978.99 139.428 Q1981.95 135.678 1986.65 135.678 Q1989.52 135.678 1991.56 136.812 Q1993.62 137.923 1994.96 140.238 L1994.96 136.303 L1999.22 136.303 L1999.22 172.09 L1994.96 172.09 L1994.96 158.34 Z" fill="#000000" fill-rule="evenodd" fill-opacity="1" /><path clip-path="url(#clip150)" d="M2027.69 170.099 L2027.69 173.409 L2003.06 173.409 L2003.06 170.099 L2027.69 170.099 Z" fill="#000000" fill-rule="evenodd" fill-opacity="1" /><path clip-path="url(#clip150)" d="M2031.7 136.303 L2035.96 136.303 L2035.96 162.229 L2031.7 162.229 L2031.7 136.303 M2031.7 126.21 L2035.96 126.21 L2035.96 131.604 L2031.7 131.604 L2031.7 126.21 Z" fill="#000000" fill-rule="evenodd" fill-opacity="1" /><path clip-path="url(#clip150)" d="M2063.53 137.298 L2063.53 141.28 Q2061.72 140.284 2059.89 139.798 Q2058.09 139.289 2056.23 139.289 Q2052.09 139.289 2049.8 141.928 Q2047.51 144.544 2047.51 149.289 Q2047.51 154.034 2049.8 156.673 Q2052.09 159.289 2056.23 159.289 Q2058.09 159.289 2059.89 158.803 Q2061.72 158.293 2063.53 157.298 L2063.53 161.233 Q2061.74 162.067 2059.82 162.483 Q2057.92 162.9 2055.77 162.9 Q2049.92 162.9 2046.47 159.219 Q2043.02 155.539 2043.02 149.289 Q2043.02 142.946 2046.49 139.312 Q2049.98 135.678 2056.05 135.678 Q2058.02 135.678 2059.89 136.095 Q2061.77 136.488 2063.53 137.298 Z" fill="#000000" fill-rule="evenodd" fill-opacity="1" /><path clip-path="url(#clip150)" d="M2093.11 148.201 L2093.11 150.284 L2073.53 150.284 Q2073.8 154.682 2076.16 156.997 Q2078.55 159.289 2082.79 159.289 Q2085.24 159.289 2087.53 158.687 Q2089.85 158.085 2092.11 156.881 L2092.11 160.909 Q2089.82 161.881 2087.41 162.391 Q2085.01 162.9 2082.53 162.9 Q2076.33 162.9 2072.69 159.289 Q2069.08 155.678 2069.08 149.52 Q2069.08 143.155 2072.51 139.428 Q2075.96 135.678 2081.79 135.678 Q2087.02 135.678 2090.05 139.057 Q2093.11 142.414 2093.11 148.201 M2088.85 146.951 Q2088.8 143.456 2086.88 141.372 Q2084.98 139.289 2081.84 139.289 Q2078.27 139.289 2076.12 141.303 Q2073.99 143.317 2073.66 146.974 L2088.85 146.951 Z" fill="#000000" fill-rule="evenodd" fill-opacity="1" /><path clip-path="url(#clip150)" d="M2100.66 140.701 L2130.33 140.701 L2130.33 144.59 L2100.66 144.59 L2100.66 140.701 M2100.66 150.145 L2130.33 150.145 L2130.33 154.081 L2100.66 154.081 L2100.66 150.145 Z" fill="#000000" fill-rule="evenodd" fill-opacity="1" /><path clip-path="url(#clip150)" d="M2141.23 158.293 L2148.87 158.293 L2148.87 131.928 L2140.56 133.595 L2140.56 129.335 L2148.83 127.669 L2153.5 127.669 L2153.5 158.293 L2161.14 158.293 L2161.14 162.229 L2141.23 162.229 L2141.23 158.293 Z" fill="#000000" fill-rule="evenodd" fill-opacity="1" /><path clip-path="url(#clip150)" d="M2192.16 148.201 L2192.16 150.284 L2172.58 150.284 Q2172.85 154.682 2175.22 156.997 Q2177.6 159.289 2181.84 159.289 Q2184.29 159.289 2186.58 158.687 Q2188.9 158.085 2191.16 156.881 L2191.16 160.909 Q2188.87 161.881 2186.47 162.391 Q2184.06 162.9 2181.58 162.9 Q2175.38 162.9 2171.74 159.289 Q2168.13 155.678 2168.13 149.52 Q2168.13 143.155 2171.56 139.428 Q2175.01 135.678 2180.84 135.678 Q2186.07 135.678 2189.1 139.057 Q2192.16 142.414 2192.16 148.201 M2187.9 146.951 Q2187.85 143.456 2185.93 141.372 Q2184.03 139.289 2180.89 139.289 Q2177.32 139.289 2175.17 141.303 Q2173.04 143.317 2172.72 146.974 L2187.9 146.951 Z" fill="#000000" fill-rule="evenodd" fill-opacity="1" /><path clip-path="url(#clip150)" d="M2197 147.344 L2209.47 147.344 L2209.47 151.141 L2197 151.141 L2197 147.344 Z" fill="#000000" fill-rule="evenodd" fill-opacity="1" /><path clip-path="url(#clip150)" d="M2227.44 143.085 Q2224.29 143.085 2222.44 145.238 Q2220.61 147.391 2220.61 151.141 Q2220.61 154.868 2222.44 157.043 Q2224.29 159.196 2227.44 159.196 Q2230.59 159.196 2232.41 157.043 Q2234.27 154.868 2234.27 151.141 Q2234.27 147.391 2232.41 145.238 Q2230.59 143.085 2227.44 143.085 M2236.72 128.433 L2236.72 132.692 Q2234.96 131.858 2233.15 131.419 Q2231.37 130.979 2229.61 130.979 Q2224.98 130.979 2222.53 134.104 Q2220.1 137.229 2219.75 143.548 Q2221.12 141.534 2223.18 140.469 Q2225.24 139.382 2227.72 139.382 Q2232.92 139.382 2235.93 142.553 Q2238.96 145.701 2238.96 151.141 Q2238.96 156.465 2235.82 159.682 Q2232.67 162.9 2227.44 162.9 Q2221.44 162.9 2218.27 158.317 Q2215.1 153.71 2215.1 144.983 Q2215.1 136.789 2218.99 131.928 Q2222.88 127.044 2229.43 127.044 Q2231.19 127.044 2232.97 127.391 Q2234.78 127.738 2236.72 128.433 Z" fill="#000000" fill-rule="evenodd" fill-opacity="1" /><polyline clip-path="url(#clip150)" style="stroke:#e26f46; stroke-linecap:butt; stroke-linejoin:round; stroke-width:4; stroke-opacity:1; fill:none" points="
  1817.2,196.789 1953.36,196.789 
  "/>
<path clip-path="url(#clip150)" d="M1980.45 201.129 Q1980.45 205.828 1982.37 208.513 Q1984.31 211.175 1987.69 211.175 Q1991.07 211.175 1993.02 208.513 Q1994.96 205.828 1994.96 201.129 Q1994.96 196.43 1993.02 193.768 Q1991.07 191.083 1987.69 191.083 Q1984.31 191.083 1982.37 193.768 Q1980.45 196.43 1980.45 201.129 M1994.96 210.18 Q1993.62 212.495 1991.56 213.629 Q1989.52 214.74 1986.65 214.74 Q1981.95 214.74 1978.99 210.99 Q1976.05 207.24 1976.05 201.129 Q1976.05 195.018 1978.99 191.268 Q1981.95 187.518 1986.65 187.518 Q1989.52 187.518 1991.56 188.652 Q1993.62 189.763 1994.96 192.078 L1994.96 188.143 L1999.22 188.143 L1999.22 223.93 L1994.96 223.93 L1994.96 210.18 Z" fill="#000000" fill-rule="evenodd" fill-opacity="1" /><path clip-path="url(#clip150)" d="M2027.69 221.939 L2027.69 225.249 L2003.06 225.249 L2003.06 221.939 L2027.69 221.939 Z" fill="#000000" fill-rule="evenodd" fill-opacity="1" /><path clip-path="url(#clip150)" d="M2031.7 188.143 L2035.96 188.143 L2035.96 214.069 L2031.7 214.069 L2031.7 188.143 M2031.7 178.05 L2035.96 178.05 L2035.96 183.444 L2031.7 183.444 L2031.7 178.05 Z" fill="#000000" fill-rule="evenodd" fill-opacity="1" /><path clip-path="url(#clip150)" d="M2063.53 189.138 L2063.53 193.12 Q2061.72 192.124 2059.89 191.638 Q2058.09 191.129 2056.23 191.129 Q2052.09 191.129 2049.8 193.768 Q2047.51 196.384 2047.51 201.129 Q2047.51 205.874 2049.8 208.513 Q2052.09 211.129 2056.23 211.129 Q2058.09 211.129 2059.89 210.643 Q2061.72 210.133 2063.53 209.138 L2063.53 213.073 Q2061.74 213.907 2059.82 214.323 Q2057.92 214.74 2055.77 214.74 Q2049.92 214.74 2046.47 211.059 Q2043.02 207.379 2043.02 201.129 Q2043.02 194.786 2046.49 191.152 Q2049.98 187.518 2056.05 187.518 Q2058.02 187.518 2059.89 187.935 Q2061.77 188.328 2063.53 189.138 Z" fill="#000000" fill-rule="evenodd" fill-opacity="1" /><path clip-path="url(#clip150)" d="M2093.11 200.041 L2093.11 202.124 L2073.53 202.124 Q2073.8 206.522 2076.16 208.837 Q2078.55 211.129 2082.79 211.129 Q2085.24 211.129 2087.53 210.527 Q2089.85 209.925 2092.11 208.721 L2092.11 212.749 Q2089.82 213.721 2087.41 214.231 Q2085.01 214.74 2082.53 214.74 Q2076.33 214.74 2072.69 211.129 Q2069.08 207.518 2069.08 201.36 Q2069.08 194.995 2072.51 191.268 Q2075.96 187.518 2081.79 187.518 Q2087.02 187.518 2090.05 190.897 Q2093.11 194.254 2093.11 200.041 M2088.85 198.791 Q2088.8 195.296 2086.88 193.212 Q2084.98 191.129 2081.84 191.129 Q2078.27 191.129 2076.12 193.143 Q2073.99 195.157 2073.66 198.814 L2088.85 198.791 Z" fill="#000000" fill-rule="evenodd" fill-opacity="1" /><path clip-path="url(#clip150)" d="M2100.66 192.541 L2130.33 192.541 L2130.33 196.43 L2100.66 196.43 L2100.66 192.541 M2100.66 201.985 L2130.33 201.985 L2130.33 205.921 L2100.66 205.921 L2100.66 201.985 Z" fill="#000000" fill-rule="evenodd" fill-opacity="1" /><path clip-path="url(#clip150)" d="M2141.23 210.133 L2148.87 210.133 L2148.87 183.768 L2140.56 185.435 L2140.56 181.175 L2148.83 179.509 L2153.5 179.509 L2153.5 210.133 L2161.14 210.133 L2161.14 214.069 L2141.23 214.069 L2141.23 210.133 Z" fill="#000000" fill-rule="evenodd" fill-opacity="1" /><path clip-path="url(#clip150)" d="M2192.16 200.041 L2192.16 202.124 L2172.58 202.124 Q2172.85 206.522 2175.22 208.837 Q2177.6 211.129 2181.84 211.129 Q2184.29 211.129 2186.58 210.527 Q2188.9 209.925 2191.16 208.721 L2191.16 212.749 Q2188.87 213.721 2186.47 214.231 Q2184.06 214.74 2181.58 214.74 Q2175.38 214.74 2171.74 211.129 Q2168.13 207.518 2168.13 201.36 Q2168.13 194.995 2171.56 191.268 Q2175.01 187.518 2180.84 187.518 Q2186.07 187.518 2189.1 190.897 Q2192.16 194.254 2192.16 200.041 M2187.9 198.791 Q2187.85 195.296 2185.93 193.212 Q2184.03 191.129 2180.89 191.129 Q2177.32 191.129 2175.17 193.143 Q2173.04 195.157 2172.72 198.814 L2187.9 198.791 Z" fill="#000000" fill-rule="evenodd" fill-opacity="1" /><path clip-path="url(#clip150)" d="M2197 199.184 L2209.47 199.184 L2209.47 202.981 L2197 202.981 L2197 199.184 Z" fill="#000000" fill-rule="evenodd" fill-opacity="1" /><path clip-path="url(#clip150)" d="M2216.9 179.509 L2235.26 179.509 L2235.26 183.444 L2221.19 183.444 L2221.19 191.916 Q2222.21 191.569 2223.22 191.407 Q2224.24 191.222 2225.26 191.222 Q2231.05 191.222 2234.43 194.393 Q2237.81 197.564 2237.81 202.981 Q2237.81 208.559 2234.34 211.661 Q2230.86 214.74 2224.54 214.74 Q2222.37 214.74 2220.1 214.37 Q2217.85 213.999 2215.45 213.258 L2215.45 208.559 Q2217.53 209.694 2219.75 210.249 Q2221.97 210.805 2224.45 210.805 Q2228.46 210.805 2230.79 208.698 Q2233.13 206.592 2233.13 202.981 Q2233.13 199.37 2230.79 197.263 Q2228.46 195.157 2224.45 195.157 Q2222.58 195.157 2220.7 195.573 Q2218.85 195.99 2216.9 196.87 L2216.9 179.509 Z" fill="#000000" fill-rule="evenodd" fill-opacity="1" /><polyline clip-path="url(#clip150)" style="stroke:#3da44d; stroke-linecap:butt; stroke-linejoin:round; stroke-width:4; stroke-opacity:1; fill:none" points="
  1817.2,248.629 1953.36,248.629 
  "/>
<path clip-path="url(#clip150)" d="M1980.45 252.969 Q1980.45 257.668 1982.37 260.353 Q1984.31 263.015 1987.69 263.015 Q1991.07 263.015 1993.02 260.353 Q1994.96 257.668 1994.96 252.969 Q1994.96 248.27 1993.02 245.608 Q1991.07 242.923 1987.69 242.923 Q1984.31 242.923 1982.37 245.608 Q1980.45 248.27 1980.45 252.969 M1994.96 262.02 Q1993.62 264.335 1991.56 265.469 Q1989.52 266.58 1986.65 266.58 Q1981.95 266.58 1978.99 262.83 Q1976.05 259.08 1976.05 252.969 Q1976.05 246.858 1978.99 243.108 Q1981.95 239.358 1986.65 239.358 Q1989.52 239.358 1991.56 240.492 Q1993.62 241.603 1994.96 243.918 L1994.96 239.983 L1999.22 239.983 L1999.22 275.77 L1994.96 275.77 L1994.96 262.02 Z" fill="#000000" fill-rule="evenodd" fill-opacity="1" /><path clip-path="url(#clip150)" d="M2027.69 273.779 L2027.69 277.089 L2003.06 277.089 L2003.06 273.779 L2027.69 273.779 Z" fill="#000000" fill-rule="evenodd" fill-opacity="1" /><path clip-path="url(#clip150)" d="M2031.7 239.983 L2035.96 239.983 L2035.96 265.909 L2031.7 265.909 L2031.7 239.983 M2031.7 229.89 L2035.96 229.89 L2035.96 235.284 L2031.7 235.284 L2031.7 229.89 Z" fill="#000000" fill-rule="evenodd" fill-opacity="1" /><path clip-path="url(#clip150)" d="M2063.53 240.978 L2063.53 244.96 Q2061.72 243.964 2059.89 243.478 Q2058.09 242.969 2056.23 242.969 Q2052.09 242.969 2049.8 245.608 Q2047.51 248.224 2047.51 252.969 Q2047.51 257.714 2049.8 260.353 Q2052.09 262.969 2056.23 262.969 Q2058.09 262.969 2059.89 262.483 Q2061.72 261.973 2063.53 260.978 L2063.53 264.913 Q2061.74 265.747 2059.82 266.163 Q2057.92 266.58 2055.77 266.58 Q2049.92 266.58 2046.47 262.899 Q2043.02 259.219 2043.02 252.969 Q2043.02 246.626 2046.49 242.992 Q2049.98 239.358 2056.05 239.358 Q2058.02 239.358 2059.89 239.775 Q2061.77 240.168 2063.53 240.978 Z" fill="#000000" fill-rule="evenodd" fill-opacity="1" /><path clip-path="url(#clip150)" d="M2093.11 251.881 L2093.11 253.964 L2073.53 253.964 Q2073.8 258.362 2076.16 260.677 Q2078.55 262.969 2082.79 262.969 Q2085.24 262.969 2087.53 262.367 Q2089.85 261.765 2092.11 260.561 L2092.11 264.589 Q2089.82 265.561 2087.41 266.071 Q2085.01 266.58 2082.53 266.58 Q2076.33 266.58 2072.69 262.969 Q2069.08 259.358 2069.08 253.2 Q2069.08 246.835 2072.51 243.108 Q2075.96 239.358 2081.79 239.358 Q2087.02 239.358 2090.05 242.737 Q2093.11 246.094 2093.11 251.881 M2088.85 250.631 Q2088.8 247.136 2086.88 245.052 Q2084.98 242.969 2081.84 242.969 Q2078.27 242.969 2076.12 244.983 Q2073.99 246.997 2073.66 250.654 L2088.85 250.631 Z" fill="#000000" fill-rule="evenodd" fill-opacity="1" /><path clip-path="url(#clip150)" d="M2100.66 244.381 L2130.33 244.381 L2130.33 248.27 L2100.66 248.27 L2100.66 244.381 M2100.66 253.825 L2130.33 253.825 L2130.33 257.761 L2100.66 257.761 L2100.66 253.825 Z" fill="#000000" fill-rule="evenodd" fill-opacity="1" /><path clip-path="url(#clip150)" d="M2141.23 261.973 L2148.87 261.973 L2148.87 235.608 L2140.56 237.275 L2140.56 233.015 L2148.83 231.349 L2153.5 231.349 L2153.5 261.973 L2161.14 261.973 L2161.14 265.909 L2141.23 265.909 L2141.23 261.973 Z" fill="#000000" fill-rule="evenodd" fill-opacity="1" /><path clip-path="url(#clip150)" d="M2192.16 251.881 L2192.16 253.964 L2172.58 253.964 Q2172.85 258.362 2175.22 260.677 Q2177.6 262.969 2181.84 262.969 Q2184.29 262.969 2186.58 262.367 Q2188.9 261.765 2191.16 260.561 L2191.16 264.589 Q2188.87 265.561 2186.47 266.071 Q2184.06 266.58 2181.58 266.58 Q2175.38 266.58 2171.74 262.969 Q2168.13 259.358 2168.13 253.2 Q2168.13 246.835 2171.56 243.108 Q2175.01 239.358 2180.84 239.358 Q2186.07 239.358 2189.1 242.737 Q2192.16 246.094 2192.16 251.881 M2187.9 250.631 Q2187.85 247.136 2185.93 245.052 Q2184.03 242.969 2180.89 242.969 Q2177.32 242.969 2175.17 244.983 Q2173.04 246.997 2172.72 250.654 L2187.9 250.631 Z" fill="#000000" fill-rule="evenodd" fill-opacity="1" /><path clip-path="url(#clip150)" d="M2197 251.024 L2209.47 251.024 L2209.47 254.821 L2197 254.821 L2197 251.024 Z" fill="#000000" fill-rule="evenodd" fill-opacity="1" /><path clip-path="url(#clip150)" d="M2229.71 235.423 L2217.9 253.872 L2229.71 253.872 L2229.71 235.423 M2228.48 231.349 L2234.36 231.349 L2234.36 253.872 L2239.29 253.872 L2239.29 257.761 L2234.36 257.761 L2234.36 265.909 L2229.71 265.909 L2229.71 257.761 L2214.1 257.761 L2214.1 253.247 L2228.48 231.349 Z" fill="#000000" fill-rule="evenodd" fill-opacity="1" /></svg>
