<?xml version="1.0" encoding="utf-8"?>
<svg xmlns="http://www.w3.org/2000/svg" xmlns:xlink="http://www.w3.org/1999/xlink" width="600" height="400" viewBox="0 0 2400 1600">
<defs>
  <clipPath id="clip910">
    <rect x="0" y="0" width="2400" height="1600"/>
  </clipPath>
</defs>
<path clip-path="url(#clip910)" d="M0 1600 L2400 1600 L2400 0 L0 0  Z" fill="#ffffff" fill-rule="evenodd" fill-opacity="1"/>
<defs>
  <clipPath id="clip911">
    <rect x="480" y="0" width="1681" height="1600"/>
  </clipPath>
</defs>
<path clip-path="url(#clip910)" d="M340.028 1423.18 L2352.76 1423.18 L2352.76 47.2441 L340.028 47.2441  Z" fill="#ffffff" fill-rule="evenodd" fill-opacity="1"/>
<defs>
  <clipPath id="clip912">
    <rect x="340" y="47" width="2014" height="1377"/>
  </clipPath>
</defs>
<polyline clip-path="url(#clip912)" style="stroke:#000000; stroke-linecap:round; stroke-linejoin:round; stroke-width:2; stroke-opacity:0.1; fill:none" points="396.988,1423.18 396.988,47.2441 "/>
<polyline clip-path="url(#clip912)" style="stroke:#000000; stroke-linecap:round; stroke-linejoin:round; stroke-width:2; stroke-opacity:0.1; fill:none" points="776.749,1423.18 776.749,47.2441 "/>
<polyline clip-path="url(#clip912)" style="stroke:#000000; stroke-linecap:round; stroke-linejoin:round; stroke-width:2; stroke-opacity:0.1; fill:none" points="1156.51,1423.18 1156.51,47.2441 "/>
<polyline clip-path="url(#clip912)" style="stroke:#000000; stroke-linecap:round; stroke-linejoin:round; stroke-width:2; stroke-opacity:0.1; fill:none" points="1536.27,1423.18 1536.27,47.2441 "/>
<polyline clip-path="url(#clip912)" style="stroke:#000000; stroke-linecap:round; stroke-linejoin:round; stroke-width:2; stroke-opacity:0.1; fill:none" points="1916.03,1423.18 1916.03,47.2441 "/>
<polyline clip-path="url(#clip912)" style="stroke:#000000; stroke-linecap:round; stroke-linejoin:round; stroke-width:2; stroke-opacity:0.1; fill:none" points="2295.79,1423.18 2295.79,47.2441 "/>
<polyline clip-path="url(#clip910)" style="stroke:#000000; stroke-linecap:round; stroke-linejoin:round; stroke-width:4; stroke-opacity:1; fill:none" points="340.028,1423.18 2352.76,1423.18 "/>
<polyline clip-path="url(#clip910)" style="stroke:#000000; stroke-linecap:round; stroke-linejoin:round; stroke-width:4; stroke-opacity:1; fill:none" points="396.988,1423.18 396.988,1404.28 "/>
<polyline clip-path="url(#clip910)" style="stroke:#000000; stroke-linecap:round; stroke-linejoin:round; stroke-width:4; stroke-opacity:1; fill:none" points="776.749,1423.18 776.749,1404.28 "/>
<polyline clip-path="url(#clip910)" style="stroke:#000000; stroke-linecap:round; stroke-linejoin:round; stroke-width:4; stroke-opacity:1; fill:none" points="1156.51,1423.18 1156.51,1404.28 "/>
<polyline clip-path="url(#clip910)" style="stroke:#000000; stroke-linecap:round; stroke-linejoin:round; stroke-width:4; stroke-opacity:1; fill:none" points="1536.27,1423.18 1536.27,1404.28 "/>
<polyline clip-path="url(#clip910)" style="stroke:#000000; stroke-linecap:round; stroke-linejoin:round; stroke-width:4; stroke-opacity:1; fill:none" points="1916.03,1423.18 1916.03,1404.28 "/>
<polyline clip-path="url(#clip910)" style="stroke:#000000; stroke-linecap:round; stroke-linejoin:round; stroke-width:4; stroke-opacity:1; fill:none" points="2295.79,1423.18 2295.79,1404.28 "/>
<path clip-path="url(#clip910)" d="M396.988 1454.1 Q393.377 1454.1 391.548 1457.66 Q389.743 1461.2 389.743 1468.33 Q389.743 1475.44 391.548 1479.01 Q393.377 1482.55 396.988 1482.55 Q400.622 1482.55 402.428 1479.01 Q404.256 1475.44 404.256 1468.33 Q404.256 1461.2 402.428 1457.66 Q400.622 1454.1 396.988 1454.1 M396.988 1450.39 Q402.798 1450.39 405.854 1455 Q408.932 1459.58 408.932 1468.33 Q408.932 1477.06 405.854 1481.67 Q402.798 1486.25 396.988 1486.25 Q391.178 1486.25 388.099 1481.67 Q385.043 1477.06 385.043 1468.33 Q385.043 1459.58 388.099 1455 Q391.178 1450.39 396.988 1450.39 Z" fill="#000000" fill-rule="nonzero" fill-opacity="1" /><path clip-path="url(#clip910)" d="M767.131 1481.64 L774.77 1481.64 L774.77 1455.28 L766.459 1456.95 L766.459 1452.69 L774.723 1451.02 L779.399 1451.02 L779.399 1481.64 L787.038 1481.64 L787.038 1485.58 L767.131 1485.58 L767.131 1481.64 Z" fill="#000000" fill-rule="nonzero" fill-opacity="1" /><path clip-path="url(#clip910)" d="M1151.16 1481.64 L1167.48 1481.64 L1167.48 1485.58 L1145.54 1485.58 L1145.54 1481.64 Q1148.2 1478.89 1152.78 1474.26 Q1157.39 1469.61 1158.57 1468.27 Q1160.82 1465.74 1161.69 1464.01 Q1162.6 1462.25 1162.6 1460.56 Q1162.6 1457.8 1160.65 1456.07 Q1158.73 1454.33 1155.63 1454.33 Q1153.43 1454.33 1150.98 1455.09 Q1148.55 1455.86 1145.77 1457.41 L1145.77 1452.69 Q1148.59 1451.55 1151.05 1450.97 Q1153.5 1450.39 1155.54 1450.39 Q1160.91 1450.39 1164.1 1453.08 Q1167.3 1455.77 1167.3 1460.26 Q1167.3 1462.39 1166.49 1464.31 Q1165.7 1466.2 1163.59 1468.8 Q1163.01 1469.47 1159.91 1472.69 Q1156.81 1475.88 1151.16 1481.64 Z" fill="#000000" fill-rule="nonzero" fill-opacity="1" /><path clip-path="url(#clip910)" d="M1540.52 1466.95 Q1543.87 1467.66 1545.75 1469.93 Q1547.65 1472.2 1547.65 1475.53 Q1547.65 1480.65 1544.13 1483.45 Q1540.61 1486.25 1534.13 1486.25 Q1531.95 1486.25 1529.64 1485.81 Q1527.35 1485.39 1524.89 1484.54 L1524.89 1480.02 Q1526.84 1481.16 1529.15 1481.74 Q1531.47 1482.32 1533.99 1482.32 Q1538.39 1482.32 1540.68 1480.58 Q1542.99 1478.84 1542.99 1475.53 Q1542.99 1472.48 1540.84 1470.77 Q1538.71 1469.03 1534.89 1469.03 L1530.87 1469.03 L1530.87 1465.19 L1535.08 1465.19 Q1538.53 1465.19 1540.36 1463.82 Q1542.18 1462.43 1542.18 1459.84 Q1542.18 1457.18 1540.29 1455.77 Q1538.41 1454.33 1534.89 1454.33 Q1532.97 1454.33 1530.77 1454.75 Q1528.57 1455.16 1525.93 1456.04 L1525.93 1451.88 Q1528.6 1451.14 1530.91 1450.77 Q1533.25 1450.39 1535.31 1450.39 Q1540.63 1450.39 1543.74 1452.83 Q1546.84 1455.23 1546.84 1459.35 Q1546.84 1462.22 1545.19 1464.21 Q1543.55 1466.18 1540.52 1466.95 Z" fill="#000000" fill-rule="nonzero" fill-opacity="1" /><path clip-path="url(#clip910)" d="M1919.04 1455.09 L1907.23 1473.54 L1919.04 1473.54 L1919.04 1455.09 M1917.81 1451.02 L1923.69 1451.02 L1923.69 1473.54 L1928.62 1473.54 L1928.62 1477.43 L1923.69 1477.43 L1923.69 1485.58 L1919.04 1485.58 L1919.04 1477.43 L1903.44 1477.43 L1903.44 1472.92 L1917.81 1451.02 Z" fill="#000000" fill-rule="nonzero" fill-opacity="1" /><path clip-path="url(#clip910)" d="M2286.07 1451.02 L2304.43 1451.02 L2304.43 1454.96 L2290.35 1454.96 L2290.35 1463.43 Q2291.37 1463.08 2292.39 1462.92 Q2293.41 1462.73 2294.43 1462.73 Q2300.21 1462.73 2303.59 1465.9 Q2306.97 1469.08 2306.97 1474.49 Q2306.97 1480.07 2303.5 1483.17 Q2300.03 1486.25 2293.71 1486.25 Q2291.53 1486.25 2289.26 1485.88 Q2287.02 1485.51 2284.61 1484.77 L2284.61 1480.07 Q2286.69 1481.2 2288.92 1481.76 Q2291.14 1482.32 2293.62 1482.32 Q2297.62 1482.32 2299.96 1480.21 Q2302.3 1478.1 2302.3 1474.49 Q2302.3 1470.88 2299.96 1468.77 Q2297.62 1466.67 2293.62 1466.67 Q2291.74 1466.67 2289.87 1467.08 Q2288.01 1467.5 2286.07 1468.38 L2286.07 1451.02 Z" fill="#000000" fill-rule="nonzero" fill-opacity="1" /><path clip-path="url(#clip910)" d="M1128.8 1550.25 Q1128.8 1556.71 1131.44 1560.4 Q1134.11 1564.07 1138.76 1564.07 Q1143.41 1564.07 1146.08 1560.4 Q1148.75 1556.71 1148.75 1550.25 Q1148.75 1543.79 1146.08 1540.13 Q1143.41 1536.44 1138.76 1536.44 Q1134.11 1536.44 1131.44 1540.13 Q1128.8 1543.79 1128.8 1550.25 M1148.75 1562.7 Q1146.91 1565.88 1144.07 1567.44 Q1141.27 1568.97 1137.33 1568.97 Q1130.86 1568.97 1126.79 1563.81 Q1122.75 1558.65 1122.75 1550.25 Q1122.75 1541.85 1126.79 1536.69 Q1130.86 1531.54 1137.33 1531.54 Q1141.27 1531.54 1144.07 1533.1 Q1146.91 1534.62 1148.75 1537.81 L1148.75 1532.4 L1154.61 1532.4 L1154.61 1581.6 L1148.75 1581.6 L1148.75 1562.7 Z" fill="#000000" fill-rule="nonzero" fill-opacity="1" /><path clip-path="url(#clip910)" d="M1193.76 1578.87 L1193.76 1583.42 L1159.89 1583.42 L1159.89 1578.87 L1193.76 1578.87 Z" fill="#000000" fill-rule="nonzero" fill-opacity="1" /><path clip-path="url(#clip910)" d="M1221.99 1533.45 L1221.99 1538.98 Q1219.51 1537.71 1216.83 1537.07 Q1214.16 1536.44 1211.3 1536.44 Q1206.94 1536.44 1204.74 1537.77 Q1202.57 1539.11 1202.57 1541.79 Q1202.57 1543.82 1204.13 1545 Q1205.69 1546.15 1210.4 1547.2 L1212.41 1547.64 Q1218.65 1548.98 1221.26 1551.43 Q1223.9 1553.85 1223.9 1558.21 Q1223.9 1563.17 1219.95 1566.07 Q1216.04 1568.97 1209.16 1568.97 Q1206.3 1568.97 1203.18 1568.39 Q1200.09 1567.85 1196.65 1566.74 L1196.65 1560.69 Q1199.9 1562.38 1203.05 1563.24 Q1206.2 1564.07 1209.29 1564.07 Q1213.43 1564.07 1215.66 1562.66 Q1217.88 1561.23 1217.88 1558.65 Q1217.88 1556.27 1216.26 1554.99 Q1214.67 1553.72 1209.23 1552.54 L1207.19 1552.07 Q1201.75 1550.92 1199.33 1548.56 Q1196.91 1546.18 1196.91 1542.04 Q1196.91 1537.01 1200.47 1534.27 Q1204.04 1531.54 1210.6 1531.54 Q1213.84 1531.54 1216.71 1532.01 Q1219.57 1532.49 1221.99 1533.45 Z" fill="#000000" fill-rule="nonzero" fill-opacity="1" /><path clip-path="url(#clip910)" d="M1262.86 1546.53 L1262.86 1568.04 L1257 1568.04 L1257 1546.72 Q1257 1541.66 1255.03 1539.14 Q1253.05 1536.63 1249.11 1536.63 Q1244.37 1536.63 1241.63 1539.65 Q1238.89 1542.68 1238.89 1547.9 L1238.89 1568.04 L1233 1568.04 L1233 1532.4 L1238.89 1532.4 L1238.89 1537.93 Q1240.99 1534.72 1243.82 1533.13 Q1246.69 1531.54 1250.41 1531.54 Q1256.56 1531.54 1259.71 1535.36 Q1262.86 1539.14 1262.86 1546.53 Z" fill="#000000" fill-rule="nonzero" fill-opacity="1" /><path clip-path="url(#clip910)" d="M1288.35 1536.5 Q1283.64 1536.5 1280.9 1540.19 Q1278.17 1543.85 1278.17 1550.25 Q1278.17 1556.65 1280.87 1560.34 Q1283.61 1564 1288.35 1564 Q1293.03 1564 1295.77 1560.31 Q1298.51 1556.62 1298.51 1550.25 Q1298.51 1543.92 1295.77 1540.23 Q1293.03 1536.5 1288.35 1536.5 M1288.35 1531.54 Q1295.99 1531.54 1300.35 1536.5 Q1304.71 1541.47 1304.71 1550.25 Q1304.71 1559 1300.35 1564 Q1295.99 1568.97 1288.35 1568.97 Q1280.68 1568.97 1276.32 1564 Q1271.99 1559 1271.99 1550.25 Q1271.99 1541.47 1276.32 1536.5 Q1280.68 1531.54 1288.35 1531.54 Z" fill="#000000" fill-rule="nonzero" fill-opacity="1" /><path clip-path="url(#clip910)" d="M1311.01 1532.4 L1316.87 1532.4 L1324.19 1560.21 L1331.48 1532.4 L1338.39 1532.4 L1345.71 1560.21 L1353 1532.4 L1358.85 1532.4 L1349.53 1568.04 L1342.62 1568.04 L1334.95 1538.83 L1327.25 1568.04 L1320.34 1568.04 L1311.01 1532.4 Z" fill="#000000" fill-rule="nonzero" fill-opacity="1" /><path clip-path="url(#clip910)" d="M1387.91 1518.52 L1401.41 1518.52 L1401.41 1523.07 L1393.77 1523.07 L1393.77 1572.09 L1401.41 1572.09 L1401.41 1576.64 L1387.91 1576.64 L1387.91 1518.52 Z" fill="#000000" fill-rule="nonzero" fill-opacity="1" /><path clip-path="url(#clip910)" d="M1437.34 1549.81 Q1437.34 1543.44 1434.7 1539.94 Q1432.09 1536.44 1427.35 1536.44 Q1422.64 1536.44 1420 1539.94 Q1417.39 1543.44 1417.39 1549.81 Q1417.39 1556.14 1420 1559.64 Q1422.64 1563.14 1427.35 1563.14 Q1432.09 1563.14 1434.7 1559.64 Q1437.34 1556.14 1437.34 1549.81 M1443.2 1563.62 Q1443.2 1572.72 1439.16 1577.15 Q1435.11 1581.6 1426.77 1581.6 Q1423.69 1581.6 1420.95 1581.13 Q1418.21 1580.68 1415.63 1579.72 L1415.63 1574.03 Q1418.21 1575.43 1420.73 1576.1 Q1423.24 1576.76 1425.85 1576.76 Q1431.61 1576.76 1434.48 1573.74 Q1437.34 1570.75 1437.34 1564.67 L1437.34 1561.77 Q1435.53 1564.92 1432.69 1566.48 Q1429.86 1568.04 1425.92 1568.04 Q1419.36 1568.04 1415.35 1563.05 Q1411.34 1558.05 1411.34 1549.81 Q1411.34 1541.53 1415.35 1536.53 Q1419.36 1531.54 1425.92 1531.54 Q1429.86 1531.54 1432.69 1533.1 Q1435.53 1534.66 1437.34 1537.81 L1437.34 1532.4 L1443.2 1532.4 L1443.2 1563.62 Z" fill="#000000" fill-rule="nonzero" fill-opacity="1" /><path clip-path="url(#clip910)" d="M1465.67 1520.52 L1471.08 1520.52 L1454.53 1574.09 L1449.12 1574.09 L1465.67 1520.52 Z" fill="#000000" fill-rule="nonzero" fill-opacity="1" /><path clip-path="url(#clip910)" d="M1477 1518.52 L1482.89 1518.52 L1482.89 1547.77 L1500.36 1532.4 L1507.84 1532.4 L1488.94 1549.07 L1508.64 1568.04 L1501 1568.04 L1482.89 1550.63 L1482.89 1568.04 L1477 1568.04 L1477 1518.52 Z" fill="#000000" fill-rule="nonzero" fill-opacity="1" /><path clip-path="url(#clip910)" d="M1538.43 1549.81 Q1538.43 1543.44 1535.79 1539.94 Q1533.18 1536.44 1528.44 1536.44 Q1523.72 1536.44 1521.08 1539.94 Q1518.47 1543.44 1518.47 1549.81 Q1518.47 1556.14 1521.08 1559.64 Q1523.72 1563.14 1528.44 1563.14 Q1533.18 1563.14 1535.79 1559.64 Q1538.43 1556.14 1538.43 1549.81 M1544.29 1563.62 Q1544.29 1572.72 1540.24 1577.15 Q1536.2 1581.6 1527.86 1581.6 Q1524.77 1581.6 1522.04 1581.13 Q1519.3 1580.68 1516.72 1579.72 L1516.72 1574.03 Q1519.3 1575.43 1521.81 1576.1 Q1524.33 1576.76 1526.94 1576.76 Q1532.7 1576.76 1535.56 1573.74 Q1538.43 1570.75 1538.43 1564.67 L1538.43 1561.77 Q1536.62 1564.92 1533.78 1566.48 Q1530.95 1568.04 1527 1568.04 Q1520.45 1568.04 1516.44 1563.05 Q1512.43 1558.05 1512.43 1549.81 Q1512.43 1541.53 1516.44 1536.53 Q1520.45 1531.54 1527 1531.54 Q1530.95 1531.54 1533.78 1533.1 Q1536.62 1534.66 1538.43 1537.81 L1538.43 1532.4 L1544.29 1532.4 L1544.29 1563.62 Z" fill="#000000" fill-rule="nonzero" fill-opacity="1" /><path clip-path="url(#clip910)" d="M1570.03 1518.52 L1570.03 1576.64 L1556.54 1576.64 L1556.54 1572.09 L1564.15 1572.09 L1564.15 1523.07 L1556.54 1523.07 L1556.54 1518.52 L1570.03 1518.52 Z" fill="#000000" fill-rule="nonzero" fill-opacity="1" /><polyline clip-path="url(#clip912)" style="stroke:#000000; stroke-linecap:round; stroke-linejoin:round; stroke-width:2; stroke-opacity:0.1; fill:none" points="340.028,1384.24 2352.76,1384.24 "/>
<polyline clip-path="url(#clip912)" style="stroke:#000000; stroke-linecap:round; stroke-linejoin:round; stroke-width:2; stroke-opacity:0.1; fill:none" points="340.028,1093.07 2352.76,1093.07 "/>
<polyline clip-path="url(#clip912)" style="stroke:#000000; stroke-linecap:round; stroke-linejoin:round; stroke-width:2; stroke-opacity:0.1; fill:none" points="340.028,801.9 2352.76,801.9 "/>
<polyline clip-path="url(#clip912)" style="stroke:#000000; stroke-linecap:round; stroke-linejoin:round; stroke-width:2; stroke-opacity:0.1; fill:none" points="340.028,510.73 2352.76,510.73 "/>
<polyline clip-path="url(#clip912)" style="stroke:#000000; stroke-linecap:round; stroke-linejoin:round; stroke-width:2; stroke-opacity:0.1; fill:none" points="340.028,219.561 2352.76,219.561 "/>
<polyline clip-path="url(#clip910)" style="stroke:#000000; stroke-linecap:round; stroke-linejoin:round; stroke-width:4; stroke-opacity:1; fill:none" points="340.028,1423.18 340.028,47.2441 "/>
<polyline clip-path="url(#clip910)" style="stroke:#000000; stroke-linecap:round; stroke-linejoin:round; stroke-width:4; stroke-opacity:1; fill:none" points="340.028,1384.24 358.925,1384.24 "/>
<polyline clip-path="url(#clip910)" style="stroke:#000000; stroke-linecap:round; stroke-linejoin:round; stroke-width:4; stroke-opacity:1; fill:none" points="340.028,1093.07 358.925,1093.07 "/>
<polyline clip-path="url(#clip910)" style="stroke:#000000; stroke-linecap:round; stroke-linejoin:round; stroke-width:4; stroke-opacity:1; fill:none" points="340.028,801.9 358.925,801.9 "/>
<polyline clip-path="url(#clip910)" style="stroke:#000000; stroke-linecap:round; stroke-linejoin:round; stroke-width:4; stroke-opacity:1; fill:none" points="340.028,510.73 358.925,510.73 "/>
<polyline clip-path="url(#clip910)" style="stroke:#000000; stroke-linecap:round; stroke-linejoin:round; stroke-width:4; stroke-opacity:1; fill:none" points="340.028,219.561 358.925,219.561 "/>
<path clip-path="url(#clip910)" d="M126.205 1370.04 Q122.593 1370.04 120.765 1373.6 Q118.959 1377.15 118.959 1384.28 Q118.959 1391.38 120.765 1394.95 Q122.593 1398.49 126.205 1398.49 Q129.839 1398.49 131.644 1394.95 Q133.473 1391.38 133.473 1384.28 Q133.473 1377.15 131.644 1373.6 Q129.839 1370.04 126.205 1370.04 M126.205 1366.34 Q132.015 1366.34 135.07 1370.94 Q138.149 1375.53 138.149 1384.28 Q138.149 1393 135.07 1397.61 Q132.015 1402.19 126.205 1402.19 Q120.394 1402.19 117.316 1397.61 Q114.26 1393 114.26 1384.28 Q114.26 1375.53 117.316 1370.94 Q120.394 1366.34 126.205 1366.34 Z" fill="#000000" fill-rule="nonzero" fill-opacity="1" /><path clip-path="url(#clip910)" d="M146.366 1395.64 L151.251 1395.64 L151.251 1401.52 L146.366 1401.52 L146.366 1395.64 Z" fill="#000000" fill-rule="nonzero" fill-opacity="1" /><path clip-path="url(#clip910)" d="M171.436 1370.04 Q167.825 1370.04 165.996 1373.6 Q164.19 1377.15 164.19 1384.28 Q164.19 1391.38 165.996 1394.95 Q167.825 1398.49 171.436 1398.49 Q175.07 1398.49 176.876 1394.95 Q178.704 1391.38 178.704 1384.28 Q178.704 1377.15 176.876 1373.6 Q175.07 1370.04 171.436 1370.04 M171.436 1366.34 Q177.246 1366.34 180.301 1370.94 Q183.38 1375.53 183.38 1384.28 Q183.38 1393 180.301 1397.61 Q177.246 1402.19 171.436 1402.19 Q165.626 1402.19 162.547 1397.61 Q159.491 1393 159.491 1384.28 Q159.491 1375.53 162.547 1370.94 Q165.626 1366.34 171.436 1366.34 Z" fill="#000000" fill-rule="nonzero" fill-opacity="1" /><path clip-path="url(#clip910)" d="M201.598 1370.04 Q197.987 1370.04 196.158 1373.6 Q194.352 1377.15 194.352 1384.28 Q194.352 1391.38 196.158 1394.95 Q197.987 1398.49 201.598 1398.49 Q205.232 1398.49 207.037 1394.95 Q208.866 1391.38 208.866 1384.28 Q208.866 1377.15 207.037 1373.6 Q205.232 1370.04 201.598 1370.04 M201.598 1366.34 Q207.408 1366.34 210.463 1370.94 Q213.542 1375.53 213.542 1384.28 Q213.542 1393 210.463 1397.61 Q207.408 1402.19 201.598 1402.19 Q195.787 1402.19 192.709 1397.61 Q189.653 1393 189.653 1384.28 Q189.653 1375.53 192.709 1370.94 Q195.787 1366.34 201.598 1366.34 Z" fill="#000000" fill-rule="nonzero" fill-opacity="1" /><path clip-path="url(#clip910)" d="M231.76 1370.04 Q228.148 1370.04 226.32 1373.6 Q224.514 1377.15 224.514 1384.28 Q224.514 1391.38 226.32 1394.95 Q228.148 1398.49 231.76 1398.49 Q235.394 1398.49 237.199 1394.95 Q239.028 1391.38 239.028 1384.28 Q239.028 1377.15 237.199 1373.6 Q235.394 1370.04 231.76 1370.04 M231.76 1366.34 Q237.57 1366.34 240.625 1370.94 Q243.704 1375.53 243.704 1384.28 Q243.704 1393 240.625 1397.61 Q237.57 1402.19 231.76 1402.19 Q225.949 1402.19 222.871 1397.61 Q219.815 1393 219.815 1384.28 Q219.815 1375.53 222.871 1370.94 Q225.949 1366.34 231.76 1366.34 Z" fill="#000000" fill-rule="nonzero" fill-opacity="1" /><path clip-path="url(#clip910)" d="M261.921 1370.04 Q258.31 1370.04 256.482 1373.6 Q254.676 1377.15 254.676 1384.28 Q254.676 1391.38 256.482 1394.95 Q258.31 1398.49 261.921 1398.49 Q265.556 1398.49 267.361 1394.95 Q269.19 1391.38 269.19 1384.28 Q269.19 1377.15 267.361 1373.6 Q265.556 1370.04 261.921 1370.04 M261.921 1366.34 Q267.732 1366.34 270.787 1370.94 Q273.866 1375.53 273.866 1384.28 Q273.866 1393 270.787 1397.61 Q267.732 1402.19 261.921 1402.19 Q256.111 1402.19 253.033 1397.61 Q249.977 1393 249.977 1384.28 Q249.977 1375.53 253.033 1370.94 Q256.111 1366.34 261.921 1366.34 Z" fill="#000000" fill-rule="nonzero" fill-opacity="1" /><path clip-path="url(#clip910)" d="M292.083 1370.04 Q288.472 1370.04 286.643 1373.6 Q284.838 1377.15 284.838 1384.28 Q284.838 1391.38 286.643 1394.95 Q288.472 1398.49 292.083 1398.49 Q295.718 1398.49 297.523 1394.95 Q299.352 1391.38 299.352 1384.28 Q299.352 1377.15 297.523 1373.6 Q295.718 1370.04 292.083 1370.04 M292.083 1366.34 Q297.893 1366.34 300.949 1370.94 Q304.028 1375.53 304.028 1384.28 Q304.028 1393 300.949 1397.61 Q297.893 1402.19 292.083 1402.19 Q286.273 1402.19 283.194 1397.61 Q280.139 1393 280.139 1384.28 Q280.139 1375.53 283.194 1370.94 Q286.273 1366.34 292.083 1366.34 Z" fill="#000000" fill-rule="nonzero" fill-opacity="1" /><path clip-path="url(#clip910)" d="M127.2 1078.87 Q123.589 1078.87 121.76 1082.43 Q119.955 1085.98 119.955 1093.11 Q119.955 1100.21 121.76 1103.78 Q123.589 1107.32 127.2 1107.32 Q130.834 1107.32 132.64 1103.78 Q134.468 1100.21 134.468 1093.11 Q134.468 1085.98 132.64 1082.43 Q130.834 1078.87 127.2 1078.87 M127.2 1075.17 Q133.01 1075.17 136.066 1079.77 Q139.144 1084.36 139.144 1093.11 Q139.144 1101.83 136.066 1106.44 Q133.01 1111.02 127.2 1111.02 Q121.39 1111.02 118.311 1106.44 Q115.256 1101.83 115.256 1093.11 Q115.256 1084.36 118.311 1079.77 Q121.39 1075.17 127.2 1075.17 Z" fill="#000000" fill-rule="nonzero" fill-opacity="1" /><path clip-path="url(#clip910)" d="M147.362 1104.47 L152.246 1104.47 L152.246 1110.35 L147.362 1110.35 L147.362 1104.47 Z" fill="#000000" fill-rule="nonzero" fill-opacity="1" /><path clip-path="url(#clip910)" d="M172.431 1078.87 Q168.82 1078.87 166.991 1082.43 Q165.186 1085.98 165.186 1093.11 Q165.186 1100.21 166.991 1103.78 Q168.82 1107.32 172.431 1107.32 Q176.065 1107.32 177.871 1103.78 Q179.7 1100.21 179.7 1093.11 Q179.7 1085.98 177.871 1082.43 Q176.065 1078.87 172.431 1078.87 M172.431 1075.17 Q178.241 1075.17 181.297 1079.77 Q184.376 1084.36 184.376 1093.11 Q184.376 1101.83 181.297 1106.44 Q178.241 1111.02 172.431 1111.02 Q166.621 1111.02 163.542 1106.44 Q160.487 1101.83 160.487 1093.11 Q160.487 1084.36 163.542 1079.77 Q166.621 1075.17 172.431 1075.17 Z" fill="#000000" fill-rule="nonzero" fill-opacity="1" /><path clip-path="url(#clip910)" d="M202.593 1078.87 Q198.982 1078.87 197.153 1082.43 Q195.348 1085.98 195.348 1093.11 Q195.348 1100.21 197.153 1103.78 Q198.982 1107.32 202.593 1107.32 Q206.227 1107.32 208.033 1103.78 Q209.861 1100.21 209.861 1093.11 Q209.861 1085.98 208.033 1082.43 Q206.227 1078.87 202.593 1078.87 M202.593 1075.17 Q208.403 1075.17 211.459 1079.77 Q214.537 1084.36 214.537 1093.11 Q214.537 1101.83 211.459 1106.44 Q208.403 1111.02 202.593 1111.02 Q196.783 1111.02 193.704 1106.44 Q190.649 1101.83 190.649 1093.11 Q190.649 1084.36 193.704 1079.77 Q196.783 1075.17 202.593 1075.17 Z" fill="#000000" fill-rule="nonzero" fill-opacity="1" /><path clip-path="url(#clip910)" d="M232.755 1078.87 Q229.144 1078.87 227.315 1082.43 Q225.51 1085.98 225.51 1093.11 Q225.51 1100.21 227.315 1103.78 Q229.144 1107.32 232.755 1107.32 Q236.389 1107.32 238.195 1103.78 Q240.023 1100.21 240.023 1093.11 Q240.023 1085.98 238.195 1082.43 Q236.389 1078.87 232.755 1078.87 M232.755 1075.17 Q238.565 1075.17 241.621 1079.77 Q244.699 1084.36 244.699 1093.11 Q244.699 1101.83 241.621 1106.44 Q238.565 1111.02 232.755 1111.02 Q226.945 1111.02 223.866 1106.44 Q220.811 1101.83 220.811 1093.11 Q220.811 1084.36 223.866 1079.77 Q226.945 1075.17 232.755 1075.17 Z" fill="#000000" fill-rule="nonzero" fill-opacity="1" /><path clip-path="url(#clip910)" d="M256.945 1106.42 L273.264 1106.42 L273.264 1110.35 L251.32 1110.35 L251.32 1106.42 Q253.982 1103.66 258.565 1099.03 Q263.171 1094.38 264.352 1093.04 Q266.597 1090.51 267.477 1088.78 Q268.38 1087.02 268.38 1085.33 Q268.38 1082.57 266.435 1080.84 Q264.514 1079.1 261.412 1079.1 Q259.213 1079.1 256.759 1079.86 Q254.329 1080.63 251.551 1082.18 L251.551 1077.46 Q254.375 1076.32 256.829 1075.74 Q259.283 1075.17 261.32 1075.17 Q266.69 1075.17 269.884 1077.85 Q273.079 1080.54 273.079 1085.03 Q273.079 1087.16 272.269 1089.08 Q271.482 1090.98 269.375 1093.57 Q268.796 1094.24 265.695 1097.46 Q262.593 1100.65 256.945 1106.42 Z" fill="#000000" fill-rule="nonzero" fill-opacity="1" /><path clip-path="url(#clip910)" d="M283.125 1075.79 L301.481 1075.79 L301.481 1079.73 L287.407 1079.73 L287.407 1088.2 Q288.426 1087.85 289.444 1087.69 Q290.463 1087.5 291.481 1087.5 Q297.268 1087.5 300.648 1090.67 Q304.028 1093.85 304.028 1099.26 Q304.028 1104.84 300.555 1107.94 Q297.083 1111.02 290.764 1111.02 Q288.588 1111.02 286.319 1110.65 Q284.074 1110.28 281.667 1109.54 L281.667 1104.84 Q283.75 1105.98 285.972 1106.53 Q288.194 1107.09 290.671 1107.09 Q294.676 1107.09 297.014 1104.98 Q299.352 1102.87 299.352 1099.26 Q299.352 1095.65 297.014 1093.54 Q294.676 1091.44 290.671 1091.44 Q288.796 1091.44 286.921 1091.86 Q285.069 1092.27 283.125 1093.15 L283.125 1075.79 Z" fill="#000000" fill-rule="nonzero" fill-opacity="1" /><path clip-path="url(#clip910)" d="M126.205 787.699 Q122.593 787.699 120.765 791.264 Q118.959 794.806 118.959 801.935 Q118.959 809.042 120.765 812.606 Q122.593 816.148 126.205 816.148 Q129.839 816.148 131.644 812.606 Q133.473 809.042 133.473 801.935 Q133.473 794.806 131.644 791.264 Q129.839 787.699 126.205 787.699 M126.205 783.995 Q132.015 783.995 135.07 788.602 Q138.149 793.185 138.149 801.935 Q138.149 810.662 135.07 815.268 Q132.015 819.852 126.205 819.852 Q120.394 819.852 117.316 815.268 Q114.26 810.662 114.26 801.935 Q114.26 793.185 117.316 788.602 Q120.394 783.995 126.205 783.995 Z" fill="#000000" fill-rule="nonzero" fill-opacity="1" /><path clip-path="url(#clip910)" d="M146.366 813.301 L151.251 813.301 L151.251 819.18 L146.366 819.18 L146.366 813.301 Z" fill="#000000" fill-rule="nonzero" fill-opacity="1" /><path clip-path="url(#clip910)" d="M171.436 787.699 Q167.825 787.699 165.996 791.264 Q164.19 794.806 164.19 801.935 Q164.19 809.042 165.996 812.606 Q167.825 816.148 171.436 816.148 Q175.07 816.148 176.876 812.606 Q178.704 809.042 178.704 801.935 Q178.704 794.806 176.876 791.264 Q175.07 787.699 171.436 787.699 M171.436 783.995 Q177.246 783.995 180.301 788.602 Q183.38 793.185 183.38 801.935 Q183.38 810.662 180.301 815.268 Q177.246 819.852 171.436 819.852 Q165.626 819.852 162.547 815.268 Q159.491 810.662 159.491 801.935 Q159.491 793.185 162.547 788.602 Q165.626 783.995 171.436 783.995 Z" fill="#000000" fill-rule="nonzero" fill-opacity="1" /><path clip-path="url(#clip910)" d="M201.598 787.699 Q197.987 787.699 196.158 791.264 Q194.352 794.806 194.352 801.935 Q194.352 809.042 196.158 812.606 Q197.987 816.148 201.598 816.148 Q205.232 816.148 207.037 812.606 Q208.866 809.042 208.866 801.935 Q208.866 794.806 207.037 791.264 Q205.232 787.699 201.598 787.699 M201.598 783.995 Q207.408 783.995 210.463 788.602 Q213.542 793.185 213.542 801.935 Q213.542 810.662 210.463 815.268 Q207.408 819.852 201.598 819.852 Q195.787 819.852 192.709 815.268 Q189.653 810.662 189.653 801.935 Q189.653 793.185 192.709 788.602 Q195.787 783.995 201.598 783.995 Z" fill="#000000" fill-rule="nonzero" fill-opacity="1" /><path clip-path="url(#clip910)" d="M231.76 787.699 Q228.148 787.699 226.32 791.264 Q224.514 794.806 224.514 801.935 Q224.514 809.042 226.32 812.606 Q228.148 816.148 231.76 816.148 Q235.394 816.148 237.199 812.606 Q239.028 809.042 239.028 801.935 Q239.028 794.806 237.199 791.264 Q235.394 787.699 231.76 787.699 M231.76 783.995 Q237.57 783.995 240.625 788.602 Q243.704 793.185 243.704 801.935 Q243.704 810.662 240.625 815.268 Q237.57 819.852 231.76 819.852 Q225.949 819.852 222.871 815.268 Q219.815 810.662 219.815 801.935 Q219.815 793.185 222.871 788.602 Q225.949 783.995 231.76 783.995 Z" fill="#000000" fill-rule="nonzero" fill-opacity="1" /><path clip-path="url(#clip910)" d="M251.968 784.62 L270.324 784.62 L270.324 788.556 L256.25 788.556 L256.25 797.028 Q257.269 796.681 258.287 796.518 Q259.306 796.333 260.324 796.333 Q266.111 796.333 269.491 799.505 Q272.87 802.676 272.87 808.092 Q272.87 813.671 269.398 816.773 Q265.926 819.852 259.607 819.852 Q257.431 819.852 255.162 819.481 Q252.917 819.111 250.509 818.37 L250.509 813.671 Q252.593 814.805 254.815 815.361 Q257.037 815.917 259.514 815.917 Q263.519 815.917 265.857 813.81 Q268.195 811.704 268.195 808.092 Q268.195 804.481 265.857 802.375 Q263.519 800.268 259.514 800.268 Q257.639 800.268 255.764 800.685 Q253.912 801.102 251.968 801.981 L251.968 784.62 Z" fill="#000000" fill-rule="nonzero" fill-opacity="1" /><path clip-path="url(#clip910)" d="M292.083 787.699 Q288.472 787.699 286.643 791.264 Q284.838 794.806 284.838 801.935 Q284.838 809.042 286.643 812.606 Q288.472 816.148 292.083 816.148 Q295.718 816.148 297.523 812.606 Q299.352 809.042 299.352 801.935 Q299.352 794.806 297.523 791.264 Q295.718 787.699 292.083 787.699 M292.083 783.995 Q297.893 783.995 300.949 788.602 Q304.028 793.185 304.028 801.935 Q304.028 810.662 300.949 815.268 Q297.893 819.852 292.083 819.852 Q286.273 819.852 283.194 815.268 Q280.139 810.662 280.139 801.935 Q280.139 793.185 283.194 788.602 Q286.273 783.995 292.083 783.995 Z" fill="#000000" fill-rule="nonzero" fill-opacity="1" /><path clip-path="url(#clip910)" d="M127.2 496.529 Q123.589 496.529 121.76 500.094 Q119.955 503.636 119.955 510.765 Q119.955 517.872 121.76 521.436 Q123.589 524.978 127.2 524.978 Q130.834 524.978 132.64 521.436 Q134.468 517.872 134.468 510.765 Q134.468 503.636 132.64 500.094 Q130.834 496.529 127.2 496.529 M127.2 492.825 Q133.01 492.825 136.066 497.432 Q139.144 502.015 139.144 510.765 Q139.144 519.492 136.066 524.098 Q133.01 528.682 127.2 528.682 Q121.39 528.682 118.311 524.098 Q115.256 519.492 115.256 510.765 Q115.256 502.015 118.311 497.432 Q121.39 492.825 127.2 492.825 Z" fill="#000000" fill-rule="nonzero" fill-opacity="1" /><path clip-path="url(#clip910)" d="M147.362 522.131 L152.246 522.131 L152.246 528.01 L147.362 528.01 L147.362 522.131 Z" fill="#000000" fill-rule="nonzero" fill-opacity="1" /><path clip-path="url(#clip910)" d="M172.431 496.529 Q168.82 496.529 166.991 500.094 Q165.186 503.636 165.186 510.765 Q165.186 517.872 166.991 521.436 Q168.82 524.978 172.431 524.978 Q176.065 524.978 177.871 521.436 Q179.7 517.872 179.7 510.765 Q179.7 503.636 177.871 500.094 Q176.065 496.529 172.431 496.529 M172.431 492.825 Q178.241 492.825 181.297 497.432 Q184.376 502.015 184.376 510.765 Q184.376 519.492 181.297 524.098 Q178.241 528.682 172.431 528.682 Q166.621 528.682 163.542 524.098 Q160.487 519.492 160.487 510.765 Q160.487 502.015 163.542 497.432 Q166.621 492.825 172.431 492.825 Z" fill="#000000" fill-rule="nonzero" fill-opacity="1" /><path clip-path="url(#clip910)" d="M202.593 496.529 Q198.982 496.529 197.153 500.094 Q195.348 503.636 195.348 510.765 Q195.348 517.872 197.153 521.436 Q198.982 524.978 202.593 524.978 Q206.227 524.978 208.033 521.436 Q209.861 517.872 209.861 510.765 Q209.861 503.636 208.033 500.094 Q206.227 496.529 202.593 496.529 M202.593 492.825 Q208.403 492.825 211.459 497.432 Q214.537 502.015 214.537 510.765 Q214.537 519.492 211.459 524.098 Q208.403 528.682 202.593 528.682 Q196.783 528.682 193.704 524.098 Q190.649 519.492 190.649 510.765 Q190.649 502.015 193.704 497.432 Q196.783 492.825 202.593 492.825 Z" fill="#000000" fill-rule="nonzero" fill-opacity="1" /><path clip-path="url(#clip910)" d="M232.755 496.529 Q229.144 496.529 227.315 500.094 Q225.51 503.636 225.51 510.765 Q225.51 517.872 227.315 521.436 Q229.144 524.978 232.755 524.978 Q236.389 524.978 238.195 521.436 Q240.023 517.872 240.023 510.765 Q240.023 503.636 238.195 500.094 Q236.389 496.529 232.755 496.529 M232.755 492.825 Q238.565 492.825 241.621 497.432 Q244.699 502.015 244.699 510.765 Q244.699 519.492 241.621 524.098 Q238.565 528.682 232.755 528.682 Q226.945 528.682 223.866 524.098 Q220.811 519.492 220.811 510.765 Q220.811 502.015 223.866 497.432 Q226.945 492.825 232.755 492.825 Z" fill="#000000" fill-rule="nonzero" fill-opacity="1" /><path clip-path="url(#clip910)" d="M251.736 493.45 L273.958 493.45 L273.958 495.441 L261.412 528.01 L256.528 528.01 L268.333 497.386 L251.736 497.386 L251.736 493.45 Z" fill="#000000" fill-rule="nonzero" fill-opacity="1" /><path clip-path="url(#clip910)" d="M283.125 493.45 L301.481 493.45 L301.481 497.386 L287.407 497.386 L287.407 505.858 Q288.426 505.511 289.444 505.349 Q290.463 505.163 291.481 505.163 Q297.268 505.163 300.648 508.335 Q304.028 511.506 304.028 516.923 Q304.028 522.501 300.555 525.603 Q297.083 528.682 290.764 528.682 Q288.588 528.682 286.319 528.311 Q284.074 527.941 281.667 527.2 L281.667 522.501 Q283.75 523.635 285.972 524.191 Q288.194 524.747 290.671 524.747 Q294.676 524.747 297.014 522.64 Q299.352 520.534 299.352 516.923 Q299.352 513.311 297.014 511.205 Q294.676 509.099 290.671 509.099 Q288.796 509.099 286.921 509.515 Q285.069 509.932 283.125 510.811 L283.125 493.45 Z" fill="#000000" fill-rule="nonzero" fill-opacity="1" /><path clip-path="url(#clip910)" d="M126.205 205.359 Q122.593 205.359 120.765 208.924 Q118.959 212.466 118.959 219.595 Q118.959 226.702 120.765 230.266 Q122.593 233.808 126.205 233.808 Q129.839 233.808 131.644 230.266 Q133.473 226.702 133.473 219.595 Q133.473 212.466 131.644 208.924 Q129.839 205.359 126.205 205.359 M126.205 201.656 Q132.015 201.656 135.07 206.262 Q138.149 210.845 138.149 219.595 Q138.149 228.322 135.07 232.928 Q132.015 237.512 126.205 237.512 Q120.394 237.512 117.316 232.928 Q114.26 228.322 114.26 219.595 Q114.26 210.845 117.316 206.262 Q120.394 201.656 126.205 201.656 Z" fill="#000000" fill-rule="nonzero" fill-opacity="1" /><path clip-path="url(#clip910)" d="M146.366 230.961 L151.251 230.961 L151.251 236.841 L146.366 236.841 L146.366 230.961 Z" fill="#000000" fill-rule="nonzero" fill-opacity="1" /><path clip-path="url(#clip910)" d="M171.436 205.359 Q167.825 205.359 165.996 208.924 Q164.19 212.466 164.19 219.595 Q164.19 226.702 165.996 230.266 Q167.825 233.808 171.436 233.808 Q175.07 233.808 176.876 230.266 Q178.704 226.702 178.704 219.595 Q178.704 212.466 176.876 208.924 Q175.07 205.359 171.436 205.359 M171.436 201.656 Q177.246 201.656 180.301 206.262 Q183.38 210.845 183.38 219.595 Q183.38 228.322 180.301 232.928 Q177.246 237.512 171.436 237.512 Q165.626 237.512 162.547 232.928 Q159.491 228.322 159.491 219.595 Q159.491 210.845 162.547 206.262 Q165.626 201.656 171.436 201.656 Z" fill="#000000" fill-rule="nonzero" fill-opacity="1" /><path clip-path="url(#clip910)" d="M201.598 205.359 Q197.987 205.359 196.158 208.924 Q194.352 212.466 194.352 219.595 Q194.352 226.702 196.158 230.266 Q197.987 233.808 201.598 233.808 Q205.232 233.808 207.037 230.266 Q208.866 226.702 208.866 219.595 Q208.866 212.466 207.037 208.924 Q205.232 205.359 201.598 205.359 M201.598 201.656 Q207.408 201.656 210.463 206.262 Q213.542 210.845 213.542 219.595 Q213.542 228.322 210.463 232.928 Q207.408 237.512 201.598 237.512 Q195.787 237.512 192.709 232.928 Q189.653 228.322 189.653 219.595 Q189.653 210.845 192.709 206.262 Q195.787 201.656 201.598 201.656 Z" fill="#000000" fill-rule="nonzero" fill-opacity="1" /><path clip-path="url(#clip910)" d="M222.57 232.905 L230.209 232.905 L230.209 206.54 L221.898 208.206 L221.898 203.947 L230.162 202.281 L234.838 202.281 L234.838 232.905 L242.477 232.905 L242.477 236.841 L222.57 236.841 L222.57 232.905 Z" fill="#000000" fill-rule="nonzero" fill-opacity="1" /><path clip-path="url(#clip910)" d="M261.921 205.359 Q258.31 205.359 256.482 208.924 Q254.676 212.466 254.676 219.595 Q254.676 226.702 256.482 230.266 Q258.31 233.808 261.921 233.808 Q265.556 233.808 267.361 230.266 Q269.19 226.702 269.19 219.595 Q269.19 212.466 267.361 208.924 Q265.556 205.359 261.921 205.359 M261.921 201.656 Q267.732 201.656 270.787 206.262 Q273.866 210.845 273.866 219.595 Q273.866 228.322 270.787 232.928 Q267.732 237.512 261.921 237.512 Q256.111 237.512 253.033 232.928 Q249.977 228.322 249.977 219.595 Q249.977 210.845 253.033 206.262 Q256.111 201.656 261.921 201.656 Z" fill="#000000" fill-rule="nonzero" fill-opacity="1" /><path clip-path="url(#clip910)" d="M292.083 205.359 Q288.472 205.359 286.643 208.924 Q284.838 212.466 284.838 219.595 Q284.838 226.702 286.643 230.266 Q288.472 233.808 292.083 233.808 Q295.718 233.808 297.523 230.266 Q299.352 226.702 299.352 219.595 Q299.352 212.466 297.523 208.924 Q295.718 205.359 292.083 205.359 M292.083 201.656 Q297.893 201.656 300.949 206.262 Q304.028 210.845 304.028 219.595 Q304.028 228.322 300.949 232.928 Q297.893 237.512 292.083 237.512 Q286.273 237.512 283.194 232.928 Q280.139 228.322 280.139 219.595 Q280.139 210.845 283.194 206.262 Q286.273 201.656 292.083 201.656 Z" fill="#000000" fill-rule="nonzero" fill-opacity="1" /><path clip-path="url(#clip910)" d="M29.4065 1034.59 L34.9447 1034.59 Q33.6716 1037.07 33.035 1039.75 Q32.3984 1042.42 32.3984 1045.29 Q32.3984 1049.65 33.7352 1051.84 Q35.072 1054.01 37.7456 1054.01 Q39.7826 1054.01 40.9603 1052.45 Q42.1061 1050.89 43.1565 1046.18 L43.6021 1044.17 Q44.9389 1037.93 47.3897 1035.32 Q49.8086 1032.68 54.1691 1032.68 Q59.1344 1032.68 62.0308 1036.63 Q64.9272 1040.54 64.9272 1047.42 Q64.9272 1050.28 64.3543 1053.4 Q63.8132 1056.49 62.6992 1059.93 L56.6518 1059.93 Q58.3387 1056.68 59.198 1053.53 Q60.0256 1050.38 60.0256 1047.29 Q60.0256 1043.15 58.6251 1040.93 Q57.1929 1038.7 54.6147 1038.7 Q52.2276 1038.7 50.9545 1040.32 Q49.6813 1041.91 48.5037 1047.35 L48.0262 1049.39 Q46.8804 1054.83 44.5251 1057.25 Q42.138 1059.67 38.0002 1059.67 Q32.9713 1059.67 30.2341 1056.11 Q27.4968 1052.54 27.4968 1045.99 Q27.4968 1042.74 27.9743 1039.87 Q28.4517 1037.01 29.4065 1034.59 Z" fill="#000000" fill-rule="nonzero" fill-opacity="1" /><path clip-path="url(#clip910)" d="M42.4881 993.723 L64.0042 993.723 L64.0042 999.58 L42.679 999.58 Q37.6183 999.58 35.1038 1001.55 Q32.5894 1003.53 32.5894 1007.47 Q32.5894 1012.22 35.6131 1014.95 Q38.6368 1017.69 43.8567 1017.69 L64.0042 1017.69 L64.0042 1023.58 L28.3562 1023.58 L28.3562 1017.69 L33.8944 1017.69 Q30.6797 1015.59 29.0883 1012.76 Q27.4968 1009.89 27.4968 1006.17 Q27.4968 1000.03 31.3163 996.874 Q35.1038 993.723 42.4881 993.723 Z" fill="#000000" fill-rule="nonzero" fill-opacity="1" /><path clip-path="url(#clip910)" d="M32.4621 968.229 Q32.4621 972.939 36.1542 975.677 Q39.8145 978.414 46.212 978.414 Q52.6095 978.414 56.3017 975.708 Q59.9619 972.971 59.9619 968.229 Q59.9619 963.55 56.2698 960.813 Q52.5777 958.075 46.212 958.075 Q39.8781 958.075 36.186 960.813 Q32.4621 963.55 32.4621 968.229 M27.4968 968.229 Q27.4968 960.59 32.4621 956.229 Q37.4273 951.869 46.212 951.869 Q54.9649 951.869 59.9619 956.229 Q64.9272 960.59 64.9272 968.229 Q64.9272 975.899 59.9619 980.26 Q54.9649 984.589 46.212 984.589 Q37.4273 984.589 32.4621 980.26 Q27.4968 975.899 27.4968 968.229 Z" fill="#000000" fill-rule="nonzero" fill-opacity="1" /><path clip-path="url(#clip910)" d="M28.3562 945.567 L28.3562 939.71 L56.1743 932.39 L28.3562 925.101 L28.3562 918.194 L56.1743 910.874 L28.3562 903.585 L28.3562 897.728 L64.0042 907.054 L64.0042 913.961 L34.7856 921.632 L64.0042 929.334 L64.0042 936.241 L28.3562 945.567 Z" fill="#000000" fill-rule="nonzero" fill-opacity="1" /><path clip-path="url(#clip910)" d="M35.1993 840.373 Q31.2526 838.177 29.3747 835.122 Q27.4968 832.066 27.4968 827.928 Q27.4968 822.358 31.4117 819.335 Q35.2948 816.311 42.4881 816.311 L64.0042 816.311 L64.0042 822.199 L42.679 822.199 Q37.5546 822.199 35.072 824.014 Q32.5894 825.828 32.5894 829.552 Q32.5894 834.103 35.6131 836.745 Q38.6368 839.387 43.8567 839.387 L64.0042 839.387 L64.0042 845.275 L42.679 845.275 Q37.5228 845.275 35.072 847.089 Q32.5894 848.903 32.5894 852.691 Q32.5894 857.179 35.6449 859.821 Q38.6686 862.462 43.8567 862.462 L64.0042 862.462 L64.0042 868.351 L28.3562 868.351 L28.3562 862.462 L33.8944 862.462 Q30.616 860.457 29.0564 857.656 Q27.4968 854.855 27.4968 851.004 Q27.4968 847.121 29.4702 844.416 Q31.4436 841.678 35.1993 840.373 Z" fill="#000000" fill-rule="nonzero" fill-opacity="1" /><path clip-path="url(#clip910)" d="M44.7161 774.138 L47.5806 774.138 L47.5806 801.065 Q53.6281 800.683 56.8109 797.437 Q59.9619 794.158 59.9619 788.334 Q59.9619 784.96 59.1344 781.809 Q58.3069 778.626 56.6518 775.507 L62.1899 775.507 Q63.5267 778.658 64.227 781.968 Q64.9272 785.278 64.9272 788.684 Q64.9272 797.214 59.9619 802.211 Q54.9967 807.176 46.5303 807.176 Q37.7774 807.176 32.6531 802.466 Q27.4968 797.723 27.4968 789.702 Q27.4968 782.509 32.1438 778.34 Q36.7589 774.138 44.7161 774.138 M42.9973 779.995 Q38.1912 780.058 35.3266 782.7 Q32.4621 785.31 32.4621 789.639 Q32.4621 794.54 35.2312 797.5 Q38.0002 800.429 43.0292 800.874 L42.9973 779.995 Z" fill="#000000" fill-rule="nonzero" fill-opacity="1" /><path clip-path="url(#clip910)" d="M14.479 764.526 L14.479 758.67 L64.0042 758.67 L64.0042 764.526 L14.479 764.526 Z" fill="#000000" fill-rule="nonzero" fill-opacity="1" /><path clip-path="url(#clip910)" d="M18.2347 740.623 L28.3562 740.623 L28.3562 728.56 L32.9077 728.56 L32.9077 740.623 L52.2594 740.623 Q56.6199 740.623 57.8613 739.445 Q59.1026 738.236 59.1026 734.575 L59.1026 728.56 L64.0042 728.56 L64.0042 734.575 Q64.0042 741.355 61.4897 743.933 Q58.9434 746.511 52.2594 746.511 L32.9077 746.511 L32.9077 750.808 L28.3562 750.808 L28.3562 746.511 L18.2347 746.511 L18.2347 740.623 Z" fill="#000000" fill-rule="nonzero" fill-opacity="1" /><path clip-path="url(#clip910)" d="M33.8307 679.48 Q33.2578 680.467 33.0032 681.645 Q32.7167 682.79 32.7167 684.191 Q32.7167 689.156 35.9632 691.83 Q39.1779 694.471 45.2253 694.471 L64.0042 694.471 L64.0042 700.36 L28.3562 700.36 L28.3562 694.471 L33.8944 694.471 Q30.6479 692.625 29.0883 689.665 Q27.4968 686.705 27.4968 682.472 Q27.4968 681.867 27.5923 681.135 Q27.656 680.403 27.8151 679.512 L33.8307 679.48 Z" fill="#000000" fill-rule="nonzero" fill-opacity="1" /><path clip-path="url(#clip910)" d="M46.0847 657.137 Q46.0847 664.234 47.7079 666.972 Q49.3312 669.709 53.2461 669.709 Q56.3653 669.709 58.2114 667.672 Q60.0256 665.603 60.0256 662.07 Q60.0256 657.2 56.5881 654.272 Q53.1188 651.312 47.3897 651.312 L46.0847 651.312 L46.0847 657.137 M43.6657 645.456 L64.0042 645.456 L64.0042 651.312 L58.5933 651.312 Q61.8398 653.317 63.3994 656.309 Q64.9272 659.301 64.9272 663.63 Q64.9272 669.104 61.8716 672.351 Q58.7843 675.565 53.6281 675.565 Q47.6125 675.565 44.5569 671.555 Q41.5014 667.513 41.5014 659.524 L41.5014 651.312 L40.9285 651.312 Q36.8862 651.312 34.6901 653.986 Q32.4621 656.627 32.4621 661.433 Q32.4621 664.489 33.1941 667.385 Q33.9262 670.282 35.3903 672.955 L29.9795 672.955 Q28.7381 669.741 28.1334 666.717 Q27.4968 663.693 27.4968 660.829 Q27.4968 653.094 31.5072 649.275 Q35.5176 645.456 43.6657 645.456 Z" fill="#000000" fill-rule="nonzero" fill-opacity="1" /><path clip-path="url(#clip910)" d="M18.2347 627.6 L28.3562 627.6 L28.3562 615.537 L32.9077 615.537 L32.9077 627.6 L52.2594 627.6 Q56.6199 627.6 57.8613 626.422 Q59.1026 625.213 59.1026 621.552 L59.1026 615.537 L64.0042 615.537 L64.0042 621.552 Q64.0042 628.332 61.4897 630.91 Q58.9434 633.488 52.2594 633.488 L32.9077 633.488 L32.9077 637.785 L28.3562 637.785 L28.3562 633.488 L18.2347 633.488 L18.2347 627.6 Z" fill="#000000" fill-rule="nonzero" fill-opacity="1" /><path clip-path="url(#clip910)" d="M44.7161 577.342 L47.5806 577.342 L47.5806 604.269 Q53.6281 603.887 56.8109 600.641 Q59.9619 597.363 59.9619 591.538 Q59.9619 588.164 59.1344 585.013 Q58.3069 581.83 56.6518 578.711 L62.1899 578.711 Q63.5267 581.862 64.227 585.172 Q64.9272 588.482 64.9272 591.888 Q64.9272 600.418 59.9619 605.415 Q54.9967 610.38 46.5303 610.38 Q37.7774 610.38 32.6531 605.67 Q27.4968 600.927 27.4968 592.907 Q27.4968 585.713 32.1438 581.544 Q36.7589 577.342 44.7161 577.342 M42.9973 583.199 Q38.1912 583.263 35.3266 585.904 Q32.4621 588.514 32.4621 592.843 Q32.4621 597.745 35.2312 600.705 Q38.0002 603.633 43.0292 604.078 L42.9973 583.199 Z" fill="#000000" fill-rule="nonzero" fill-opacity="1" /><path clip-path="url(#clip910)" d="M14.479 547.551 L14.479 534.056 L19.0304 534.056 L19.0304 541.694 L68.0464 541.694 L68.0464 534.056 L72.5979 534.056 L72.5979 547.551 L14.479 547.551 Z" fill="#000000" fill-rule="nonzero" fill-opacity="1" /><path clip-path="url(#clip910)" d="M58.5933 519.637 L58.5933 509.134 L22.3406 509.134 L24.6323 520.56 L18.7758 520.56 L16.4842 509.198 L16.4842 502.768 L58.5933 502.768 L58.5933 492.265 L64.0042 492.265 L64.0042 519.637 L58.5933 519.637 Z" fill="#000000" fill-rule="nonzero" fill-opacity="1" /><path clip-path="url(#clip910)" d="M16.4842 469.698 L16.4842 464.287 L70.0516 480.838 L70.0516 486.249 L16.4842 469.698 Z" fill="#000000" fill-rule="nonzero" fill-opacity="1" /><path clip-path="url(#clip910)" d="M29.4065 435.419 L34.9447 435.419 Q33.6716 437.902 33.035 440.575 Q32.3984 443.249 32.3984 446.113 Q32.3984 450.474 33.7352 452.67 Q35.072 454.834 37.7456 454.834 Q39.7826 454.834 40.9603 453.275 Q42.1061 451.715 43.1565 447.005 L43.6021 444.999 Q44.9389 438.761 47.3897 436.151 Q49.8086 433.509 54.1691 433.509 Q59.1344 433.509 62.0308 437.456 Q64.9272 441.371 64.9272 448.246 Q64.9272 451.11 64.3543 454.23 Q63.8132 457.317 62.6992 460.755 L56.6518 460.755 Q58.3387 457.508 59.198 454.357 Q60.0256 451.206 60.0256 448.119 Q60.0256 443.981 58.6251 441.753 Q57.1929 439.525 54.6147 439.525 Q52.2276 439.525 50.9545 441.148 Q49.6813 442.74 48.5037 448.182 L48.0262 450.219 Q46.8804 455.662 44.5251 458.081 Q42.138 460.5 38.0002 460.5 Q32.9713 460.5 30.2341 456.935 Q27.4968 453.37 27.4968 446.814 Q27.4968 443.567 27.9743 440.703 Q28.4517 437.838 29.4065 435.419 Z" fill="#000000" fill-rule="nonzero" fill-opacity="1" /><path clip-path="url(#clip910)" d="M14.479 410.497 L72.5979 410.497 L72.5979 423.993 L68.0464 423.993 L68.0464 416.386 L19.0304 416.386 L19.0304 423.993 L14.479 423.993 L14.479 410.497 Z" fill="#000000" fill-rule="nonzero" fill-opacity="1" /><polyline clip-path="url(#clip912)" style="stroke:#009af9; stroke-linecap:round; stroke-linejoin:round; stroke-width:12; stroke-opacity:1; fill:none" points="396.992,1384.24 416.171,1378.37 435.351,1372.99 454.531,1367.77 473.711,1362.65 492.891,1357.61 512.07,1352.63 531.25,1347.69 550.43,1342.8 569.61,1337.94 588.79,1333.12 607.969,1328.32 627.149,1323.54 646.329,1318.79 665.509,1314.06 684.689,1309.35 703.868,1304.66 723.048,1299.98 742.228,1295.32 761.408,1290.68 780.588,1286.05 799.767,1281.43 818.947,1276.82 838.127,1272.23 857.307,1267.65 876.487,1263.08 895.666,1258.52 914.846,1253.97 934.026,1249.43 953.206,1244.89 972.386,1240.37 991.565,1235.86 1010.75,1231.35 1029.93,1226.85 1049.1,1222.36 1068.28,1217.88 1087.46,1213.4 1106.64,1208.94 1125.82,1204.47 1145,1200.02 1164.18,1195.57 1183.36,1191.13 1202.54,1186.69 1221.72,1182.26 1240.9,1177.84 1260.08,1173.42 1279.26,1169.01 1298.44,1164.6 1317.62,1160.2 1336.8,1155.8 1355.98,1151.41 1375.16,1147.02 1394.34,1142.64 1413.52,1138.26 1432.7,1133.89 1451.88,1129.52 1471.06,1125.16 1490.24,1120.8 1509.42,1116.45 1528.6,1112.1 1547.78,1107.75 1566.96,1103.41 1586.14,1099.07 1605.32,1094.74 1624.5,1090.41 1643.68,1086.08 1662.86,1081.76 1682.04,1077.44 1701.22,1073.12 1720.4,1068.81 1739.58,1064.5 1758.76,1060.2 1777.94,1055.9 1797.12,1051.6 1816.3,1047.3 1835.48,1043.01 1854.66,1038.72 1873.84,1034.44 1893.02,1030.16 1912.2,1025.88 1931.38,1021.6 1950.56,1017.33 1969.74,1013.06 1988.92,1008.79 2008.09,1004.53 2027.27,1000.27 2046.45,996.008 2065.63,991.752 2084.81,987.5 2103.99,983.25 2123.17,979.002 2142.35,974.757 2161.53,970.515 2180.71,966.276 2199.89,962.039 2219.07,957.804 2238.25,953.572 2257.43,949.343 2276.61,945.116 2295.79,940.891 "/>
<polyline clip-path="url(#clip912)" style="stroke:#e26f46; stroke-linecap:round; stroke-linejoin:round; stroke-width:12; stroke-opacity:1; fill:none" points="396.992,1384.24 416.171,1372.65 435.351,1362.01 454.531,1351.7 473.711,1341.59 492.891,1331.63 512.07,1321.79 531.25,1312.04 550.43,1302.37 569.61,1292.77 588.79,1283.24 607.969,1273.76 627.149,1264.32 646.329,1254.94 665.509,1245.59 684.689,1236.29 703.868,1227.01 723.048,1217.78 742.228,1208.57 761.408,1199.39 780.588,1190.24 799.767,1181.12 818.947,1172.02 838.127,1162.95 857.307,1153.9 876.487,1144.86 895.666,1135.85 914.846,1126.86 934.026,1117.89 953.206,1108.94 972.386,1100 991.565,1091.09 1010.75,1082.18 1029.93,1073.3 1049.1,1064.43 1068.28,1055.57 1087.46,1046.73 1106.64,1037.9 1125.82,1029.09 1145,1020.28 1164.18,1011.5 1183.36,1002.72 1202.54,993.956 1221.72,985.204 1240.9,976.464 1260.08,967.735 1279.26,959.017 1298.44,950.309 1317.62,941.612 1336.8,932.926 1355.98,924.249 1375.16,915.582 1394.34,906.925 1413.52,898.278 1432.7,889.639 1451.88,881.01 1471.06,872.389 1490.24,863.777 1509.42,855.174 1528.6,846.579 1547.78,837.992 1566.96,829.413 1586.14,820.843 1605.32,812.28 1624.5,803.725 1643.68,795.177 1662.86,786.637 1682.04,778.104 1701.22,769.578 1720.4,761.059 1739.58,752.547 1758.76,744.042 1777.94,735.544 1797.12,727.053 1816.3,718.568 1835.48,710.089 1854.66,701.617 1873.84,693.151 1893.02,684.692 1912.2,676.238 1931.38,667.791 1950.56,659.349 1969.74,650.913 1988.92,642.483 2008.09,634.059 2027.27,625.641 2046.45,617.228 2065.63,608.82 2084.81,600.418 2103.99,592.021 2123.17,583.63 2142.35,575.244 2161.53,566.863 2180.71,558.487 2199.89,550.116 2219.07,541.751 2238.25,533.39 2257.43,525.034 2276.61,516.683 2295.79,508.336 "/>
<polyline clip-path="url(#clip912)" style="stroke:#3da44d; stroke-linecap:round; stroke-linejoin:round; stroke-width:12; stroke-opacity:1; fill:none" points="396.992,1384.23 416.171,1367.07 435.351,1351.3 454.531,1336.02 473.711,1321.04 492.891,1306.28 512.07,1291.69 531.25,1277.24 550.43,1262.91 569.61,1248.69 588.79,1234.56 607.969,1220.51 627.149,1206.53 646.329,1192.62 665.509,1178.77 684.689,1164.98 703.868,1151.24 723.048,1137.55 742.228,1123.91 761.408,1110.3 780.588,1096.75 799.767,1083.23 818.947,1069.74 838.127,1056.29 857.307,1042.88 876.487,1029.49 895.666,1016.14 914.846,1002.82 934.026,989.524 953.206,976.255 972.386,963.013 991.565,949.796 1010.75,936.604 1029.93,923.434 1049.1,910.288 1068.28,897.163 1087.46,884.06 1106.64,870.977 1125.82,857.915 1145,844.872 1164.18,831.848 1183.36,818.842 1202.54,805.855 1221.72,792.885 1240.9,779.932 1260.08,766.996 1279.26,754.076 1298.44,741.172 1317.62,728.284 1336.8,715.41 1355.98,702.552 1375.16,689.708 1394.34,676.879 1413.52,664.063 1432.7,651.261 1451.88,638.473 1471.06,625.697 1490.24,612.935 1509.42,600.185 1528.6,587.447 1547.78,574.722 1566.96,562.009 1586.14,549.308 1605.32,536.618 1624.5,523.939 1643.68,511.272 1662.86,498.615 1682.04,485.97 1701.22,473.335 1720.4,460.711 1739.58,448.097 1758.76,435.493 1777.94,422.899 1797.12,410.315 1816.3,397.74 1835.48,385.176 1854.66,372.62 1873.84,360.074 1893.02,347.537 1912.2,335.009 1931.38,322.491 1950.56,309.981 1969.74,297.479 1988.92,284.986 2008.09,272.502 2027.27,260.026 2046.45,247.558 2065.63,235.099 2084.81,222.647 2103.99,210.204 2123.17,197.768 2142.35,185.34 2161.53,172.92 2180.71,160.507 2199.89,148.102 2219.07,135.704 2238.25,123.314 2257.43,110.931 2276.61,98.5546 2295.79,86.1857 "/>
<path clip-path="url(#clip910)" d="M407.119 300.469 L737.905 300.469 L737.905 93.1086 L407.119 93.1086  Z" fill="#ffffff" fill-rule="evenodd" fill-opacity="1"/>
<polyline clip-path="url(#clip910)" style="stroke:#000000; stroke-linecap:round; stroke-linejoin:round; stroke-width:4; stroke-opacity:1; fill:none" points="407.119,300.469 737.905,300.469 737.905,93.1086 407.119,93.1086 407.119,300.469 "/>
<polyline clip-path="url(#clip910)" style="stroke:#009af9; stroke-linecap:round; stroke-linejoin:round; stroke-width:12; stroke-opacity:1; fill:none" points="429.482,144.949 563.664,144.949 "/>
<path clip-path="url(#clip910)" d="M586.028 127.669 L615.264 127.669 L615.264 131.604 L602.995 131.604 L602.995 162.229 L598.296 162.229 L598.296 131.604 L586.028 131.604 L586.028 127.669 Z" fill="#000000" fill-rule="nonzero" fill-opacity="1" /><path clip-path="url(#clip910)" d="M620.148 140.701 L649.824 140.701 L649.824 144.59 L620.148 144.59 L620.148 140.701 M620.148 150.145 L649.824 150.145 L649.824 154.081 L620.148 154.081 L620.148 150.145 Z" fill="#000000" fill-rule="nonzero" fill-opacity="1" /><path clip-path="url(#clip910)" d="M663.944 158.293 L680.263 158.293 L680.263 162.229 L658.319 162.229 L658.319 158.293 Q660.981 155.539 665.564 150.909 Q670.171 146.256 671.351 144.914 Q673.597 142.391 674.476 140.655 Q675.379 138.895 675.379 137.206 Q675.379 134.451 673.435 132.715 Q671.513 130.979 668.412 130.979 Q666.213 130.979 663.759 131.743 Q661.328 132.507 658.551 134.057 L658.551 129.335 Q661.375 128.201 663.828 127.622 Q666.282 127.044 668.319 127.044 Q673.689 127.044 676.884 129.729 Q680.078 132.414 680.078 136.905 Q680.078 139.034 679.268 140.956 Q678.481 142.854 676.375 145.446 Q675.796 146.118 672.694 149.335 Q669.592 152.53 663.944 158.293 Z" fill="#000000" fill-rule="nonzero" fill-opacity="1" /><path clip-path="url(#clip910)" d="M715.541 130.331 L715.541 135.261 Q713.18 133.062 710.495 131.974 Q707.833 130.886 704.823 130.886 Q698.898 130.886 695.749 134.52 Q692.601 138.132 692.601 144.983 Q692.601 151.812 695.749 155.446 Q698.898 159.057 704.823 159.057 Q707.833 159.057 710.495 157.969 Q713.18 156.881 715.541 154.682 L715.541 159.567 Q713.087 161.233 710.333 162.067 Q707.601 162.9 704.546 162.9 Q696.698 162.9 692.185 158.108 Q687.671 153.293 687.671 144.983 Q687.671 136.65 692.185 131.858 Q696.698 127.044 704.546 127.044 Q707.647 127.044 710.379 127.877 Q713.134 128.687 715.541 130.331 Z" fill="#000000" fill-rule="nonzero" fill-opacity="1" /><polyline clip-path="url(#clip910)" style="stroke:#e26f46; stroke-linecap:round; stroke-linejoin:round; stroke-width:12; stroke-opacity:1; fill:none" points="429.482,196.789 563.664,196.789 "/>
<path clip-path="url(#clip910)" d="M586.028 179.509 L615.264 179.509 L615.264 183.444 L602.995 183.444 L602.995 214.069 L598.296 214.069 L598.296 183.444 L586.028 183.444 L586.028 179.509 Z" fill="#000000" fill-rule="nonzero" fill-opacity="1" /><path clip-path="url(#clip910)" d="M620.148 192.541 L649.824 192.541 L649.824 196.43 L620.148 196.43 L620.148 192.541 M620.148 201.985 L649.824 201.985 L649.824 205.921 L620.148 205.921 L620.148 201.985 Z" fill="#000000" fill-rule="nonzero" fill-opacity="1" /><path clip-path="url(#clip910)" d="M672.763 183.583 L660.958 202.032 L672.763 202.032 L672.763 183.583 M671.537 179.509 L677.416 179.509 L677.416 202.032 L682.347 202.032 L682.347 205.921 L677.416 205.921 L677.416 214.069 L672.763 214.069 L672.763 205.921 L657.162 205.921 L657.162 201.407 L671.537 179.509 Z" fill="#000000" fill-rule="nonzero" fill-opacity="1" /><path clip-path="url(#clip910)" d="M715.541 182.171 L715.541 187.101 Q713.18 184.902 710.495 183.814 Q707.833 182.726 704.823 182.726 Q698.898 182.726 695.749 186.36 Q692.601 189.972 692.601 196.823 Q692.601 203.652 695.749 207.286 Q698.898 210.897 704.823 210.897 Q707.833 210.897 710.495 209.809 Q713.18 208.721 715.541 206.522 L715.541 211.407 Q713.087 213.073 710.333 213.907 Q707.601 214.74 704.546 214.74 Q696.698 214.74 692.185 209.948 Q687.671 205.133 687.671 196.823 Q687.671 188.49 692.185 183.698 Q696.698 178.884 704.546 178.884 Q707.647 178.884 710.379 179.717 Q713.134 180.527 715.541 182.171 Z" fill="#000000" fill-rule="nonzero" fill-opacity="1" /><polyline clip-path="url(#clip910)" style="stroke:#3da44d; stroke-linecap:round; stroke-linejoin:round; stroke-width:12; stroke-opacity:1; fill:none" points="429.482,248.629 563.664,248.629 "/>
<path clip-path="url(#clip910)" d="M586.028 231.349 L615.264 231.349 L615.264 235.284 L602.995 235.284 L602.995 265.909 L598.296 265.909 L598.296 235.284 L586.028 235.284 L586.028 231.349 Z" fill="#000000" fill-rule="nonzero" fill-opacity="1" /><path clip-path="url(#clip910)" d="M620.148 244.381 L649.824 244.381 L649.824 248.27 L620.148 248.27 L620.148 244.381 M620.148 253.825 L649.824 253.825 L649.824 257.761 L620.148 257.761 L620.148 253.825 Z" fill="#000000" fill-rule="nonzero" fill-opacity="1" /><path clip-path="url(#clip910)" d="M670.495 246.765 Q667.347 246.765 665.495 248.918 Q663.666 251.071 663.666 254.821 Q663.666 258.548 665.495 260.723 Q667.347 262.876 670.495 262.876 Q673.643 262.876 675.472 260.723 Q677.324 258.548 677.324 254.821 Q677.324 251.071 675.472 248.918 Q673.643 246.765 670.495 246.765 M679.777 232.113 L679.777 236.372 Q678.018 235.538 676.212 235.099 Q674.43 234.659 672.671 234.659 Q668.041 234.659 665.588 237.784 Q663.157 240.909 662.81 247.228 Q664.176 245.214 666.236 244.149 Q668.296 243.062 670.773 243.062 Q675.981 243.062 678.99 246.233 Q682.023 249.381 682.023 254.821 Q682.023 260.145 678.875 263.362 Q675.726 266.58 670.495 266.58 Q664.5 266.58 661.328 261.997 Q658.157 257.39 658.157 248.663 Q658.157 240.469 662.046 235.608 Q665.935 230.724 672.486 230.724 Q674.245 230.724 676.027 231.071 Q677.833 231.418 679.777 232.113 Z" fill="#000000" fill-rule="nonzero" fill-opacity="1" /><path clip-path="url(#clip910)" d="M715.541 234.011 L715.541 238.941 Q713.18 236.742 710.495 235.654 Q707.833 234.566 704.823 234.566 Q698.898 234.566 695.749 238.2 Q692.601 241.812 692.601 248.663 Q692.601 255.492 695.749 259.126 Q698.898 262.737 704.823 262.737 Q707.833 262.737 710.495 261.649 Q713.18 260.561 715.541 258.362 L715.541 263.247 Q713.087 264.913 710.333 265.747 Q707.601 266.58 704.546 266.58 Q696.698 266.58 692.185 261.788 Q687.671 256.973 687.671 248.663 Q687.671 240.33 692.185 235.538 Q696.698 230.724 704.546 230.724 Q707.647 230.724 710.379 231.557 Q713.134 232.367 715.541 234.011 Z" fill="#000000" fill-rule="nonzero" fill-opacity="1" /></svg>
