<?xml version="1.0" encoding="utf-8"?>
<svg xmlns="http://www.w3.org/2000/svg" xmlns:xlink="http://www.w3.org/1999/xlink" width="600" height="400" viewBox="0 0 2400 1600">
<defs>
  <clipPath id="clip600">
    <rect x="0" y="0" width="2400" height="1600"/>
  </clipPath>
</defs>
<path clip-path="url(#clip600)" d="M0 1600 L2400 1600 L2400 0 L0 0  Z" fill="#ffffff" fill-rule="evenodd" fill-opacity="1"/>
<defs>
  <clipPath id="clip601">
    <rect x="480" y="0" width="1681" height="1600"/>
  </clipPath>
</defs>
<path clip-path="url(#clip600)" d="M214.002 1423.18 L2352.76 1423.18 L2352.76 123.472 L214.002 123.472  Z" fill="#ffffff" fill-rule="evenodd" fill-opacity="1"/>
<defs>
  <clipPath id="clip602">
    <rect x="214" y="123" width="2140" height="1301"/>
  </clipPath>
</defs>
<polyline clip-path="url(#clip602)" style="stroke:#000000; stroke-linecap:round; stroke-linejoin:round; stroke-width:2; stroke-opacity:0.1; fill:none" points="274.529,1423.18 274.529,123.472 "/>
<polyline clip-path="url(#clip602)" style="stroke:#000000; stroke-linecap:round; stroke-linejoin:round; stroke-width:2; stroke-opacity:0.1; fill:none" points="678.068,1423.18 678.068,123.472 "/>
<polyline clip-path="url(#clip602)" style="stroke:#000000; stroke-linecap:round; stroke-linejoin:round; stroke-width:2; stroke-opacity:0.1; fill:none" points="1081.61,1423.18 1081.61,123.472 "/>
<polyline clip-path="url(#clip602)" style="stroke:#000000; stroke-linecap:round; stroke-linejoin:round; stroke-width:2; stroke-opacity:0.1; fill:none" points="1485.15,1423.18 1485.15,123.472 "/>
<polyline clip-path="url(#clip602)" style="stroke:#000000; stroke-linecap:round; stroke-linejoin:round; stroke-width:2; stroke-opacity:0.1; fill:none" points="1888.69,1423.18 1888.69,123.472 "/>
<polyline clip-path="url(#clip602)" style="stroke:#000000; stroke-linecap:round; stroke-linejoin:round; stroke-width:2; stroke-opacity:0.1; fill:none" points="2292.23,1423.18 2292.23,123.472 "/>
<polyline clip-path="url(#clip600)" style="stroke:#000000; stroke-linecap:round; stroke-linejoin:round; stroke-width:4; stroke-opacity:1; fill:none" points="214.002,1423.18 2352.76,1423.18 "/>
<polyline clip-path="url(#clip600)" style="stroke:#000000; stroke-linecap:round; stroke-linejoin:round; stroke-width:4; stroke-opacity:1; fill:none" points="274.529,1423.18 274.529,1404.28 "/>
<polyline clip-path="url(#clip600)" style="stroke:#000000; stroke-linecap:round; stroke-linejoin:round; stroke-width:4; stroke-opacity:1; fill:none" points="678.068,1423.18 678.068,1404.28 "/>
<polyline clip-path="url(#clip600)" style="stroke:#000000; stroke-linecap:round; stroke-linejoin:round; stroke-width:4; stroke-opacity:1; fill:none" points="1081.61,1423.18 1081.61,1404.28 "/>
<polyline clip-path="url(#clip600)" style="stroke:#000000; stroke-linecap:round; stroke-linejoin:round; stroke-width:4; stroke-opacity:1; fill:none" points="1485.15,1423.18 1485.15,1404.28 "/>
<polyline clip-path="url(#clip600)" style="stroke:#000000; stroke-linecap:round; stroke-linejoin:round; stroke-width:4; stroke-opacity:1; fill:none" points="1888.69,1423.18 1888.69,1404.28 "/>
<polyline clip-path="url(#clip600)" style="stroke:#000000; stroke-linecap:round; stroke-linejoin:round; stroke-width:4; stroke-opacity:1; fill:none" points="2292.23,1423.18 2292.23,1404.28 "/>
<path clip-path="url(#clip600)" d="M274.529 1454.1 Q270.918 1454.1 269.089 1457.66 Q267.284 1461.2 267.284 1468.33 Q267.284 1475.44 269.089 1479.01 Q270.918 1482.55 274.529 1482.55 Q278.163 1482.55 279.969 1479.01 Q281.798 1475.44 281.798 1468.33 Q281.798 1461.2 279.969 1457.66 Q278.163 1454.1 274.529 1454.1 M274.529 1450.39 Q280.339 1450.39 283.395 1455 Q286.474 1459.58 286.474 1468.33 Q286.474 1477.06 283.395 1481.67 Q280.339 1486.25 274.529 1486.25 Q268.719 1486.25 265.64 1481.67 Q262.585 1477.06 262.585 1468.33 Q262.585 1459.58 265.64 1455 Q268.719 1450.39 274.529 1450.39 Z" fill="#000000" fill-rule="nonzero" fill-opacity="1" /><path clip-path="url(#clip600)" d="M668.45 1481.64 L676.089 1481.64 L676.089 1455.28 L667.779 1456.95 L667.779 1452.69 L676.043 1451.02 L680.719 1451.02 L680.719 1481.64 L688.358 1481.64 L688.358 1485.58 L668.45 1485.58 L668.45 1481.64 Z" fill="#000000" fill-rule="nonzero" fill-opacity="1" /><path clip-path="url(#clip600)" d="M1076.26 1481.64 L1092.58 1481.64 L1092.58 1485.58 L1070.64 1485.58 L1070.64 1481.64 Q1073.3 1478.89 1077.88 1474.26 Q1082.49 1469.61 1083.67 1468.27 Q1085.91 1465.74 1086.79 1464.01 Q1087.7 1462.25 1087.7 1460.56 Q1087.7 1457.8 1085.75 1456.07 Q1083.83 1454.33 1080.73 1454.33 Q1078.53 1454.33 1076.08 1455.09 Q1073.64 1455.86 1070.87 1457.41 L1070.87 1452.69 Q1073.69 1451.55 1076.14 1450.97 Q1078.6 1450.39 1080.64 1450.39 Q1086.01 1450.39 1089.2 1453.08 Q1092.39 1455.77 1092.39 1460.26 Q1092.39 1462.39 1091.58 1464.31 Q1090.8 1466.2 1088.69 1468.8 Q1088.11 1469.47 1085.01 1472.69 Q1081.91 1475.88 1076.26 1481.64 Z" fill="#000000" fill-rule="nonzero" fill-opacity="1" /><path clip-path="url(#clip600)" d="M1489.39 1466.95 Q1492.75 1467.66 1494.63 1469.93 Q1496.52 1472.2 1496.52 1475.53 Q1496.52 1480.65 1493.01 1483.45 Q1489.49 1486.25 1483.01 1486.25 Q1480.83 1486.25 1478.51 1485.81 Q1476.22 1485.39 1473.77 1484.54 L1473.77 1480.02 Q1475.71 1481.16 1478.03 1481.74 Q1480.34 1482.32 1482.87 1482.32 Q1487.26 1482.32 1489.56 1480.58 Q1491.87 1478.84 1491.87 1475.53 Q1491.87 1472.48 1489.72 1470.77 Q1487.59 1469.03 1483.77 1469.03 L1479.74 1469.03 L1479.74 1465.19 L1483.95 1465.19 Q1487.4 1465.19 1489.23 1463.82 Q1491.06 1462.43 1491.06 1459.84 Q1491.06 1457.18 1489.16 1455.77 Q1487.29 1454.33 1483.77 1454.33 Q1481.85 1454.33 1479.65 1454.75 Q1477.45 1455.16 1474.81 1456.04 L1474.81 1451.88 Q1477.47 1451.14 1479.79 1450.77 Q1482.13 1450.39 1484.19 1450.39 Q1489.51 1450.39 1492.61 1452.83 Q1495.71 1455.23 1495.71 1459.35 Q1495.71 1462.22 1494.07 1464.21 Q1492.43 1466.18 1489.39 1466.95 Z" fill="#000000" fill-rule="nonzero" fill-opacity="1" /><path clip-path="url(#clip600)" d="M1891.7 1455.09 L1879.89 1473.54 L1891.7 1473.54 L1891.7 1455.09 M1890.47 1451.02 L1896.35 1451.02 L1896.35 1473.54 L1901.28 1473.54 L1901.28 1477.43 L1896.35 1477.43 L1896.35 1485.58 L1891.7 1485.58 L1891.7 1477.43 L1876.09 1477.43 L1876.09 1472.92 L1890.47 1451.02 Z" fill="#000000" fill-rule="nonzero" fill-opacity="1" /><path clip-path="url(#clip600)" d="M2282.5 1451.02 L2300.86 1451.02 L2300.86 1454.96 L2286.79 1454.96 L2286.79 1463.43 Q2287.8 1463.08 2288.82 1462.92 Q2289.84 1462.73 2290.86 1462.73 Q2296.65 1462.73 2300.03 1465.9 Q2303.41 1469.08 2303.41 1474.49 Q2303.41 1480.07 2299.93 1483.17 Q2296.46 1486.25 2290.14 1486.25 Q2287.97 1486.25 2285.7 1485.88 Q2283.45 1485.51 2281.04 1484.77 L2281.04 1480.07 Q2283.13 1481.2 2285.35 1481.76 Q2287.57 1482.32 2290.05 1482.32 Q2294.05 1482.32 2296.39 1480.21 Q2298.73 1478.1 2298.73 1474.49 Q2298.73 1470.88 2296.39 1468.77 Q2294.05 1466.67 2290.05 1466.67 Q2288.17 1466.67 2286.3 1467.08 Q2284.45 1467.5 2282.5 1468.38 L2282.5 1451.02 Z" fill="#000000" fill-rule="nonzero" fill-opacity="1" /><path clip-path="url(#clip600)" d="M1076.57 1550.25 Q1076.57 1556.71 1079.22 1560.4 Q1081.89 1564.07 1086.54 1564.07 Q1091.18 1564.07 1093.86 1560.4 Q1096.53 1556.71 1096.53 1550.25 Q1096.53 1543.79 1093.86 1540.13 Q1091.18 1536.44 1086.54 1536.44 Q1081.89 1536.44 1079.22 1540.13 Q1076.57 1543.79 1076.57 1550.25 M1096.53 1562.7 Q1094.68 1565.88 1091.85 1567.44 Q1089.05 1568.97 1085.1 1568.97 Q1078.64 1568.97 1074.57 1563.81 Q1070.53 1558.65 1070.53 1550.25 Q1070.53 1541.85 1074.57 1536.69 Q1078.64 1531.54 1085.1 1531.54 Q1089.05 1531.54 1091.85 1533.1 Q1094.68 1534.62 1096.53 1537.81 L1096.53 1532.4 L1102.39 1532.4 L1102.39 1581.6 L1096.53 1581.6 L1096.53 1562.7 Z" fill="#000000" fill-rule="nonzero" fill-opacity="1" /><path clip-path="url(#clip600)" d="M1141.54 1578.87 L1141.54 1583.42 L1107.67 1583.42 L1107.67 1578.87 L1141.54 1578.87 Z" fill="#000000" fill-rule="nonzero" fill-opacity="1" /><path clip-path="url(#clip600)" d="M1167.7 1537.87 Q1166.71 1537.3 1165.53 1537.04 Q1164.39 1536.76 1162.99 1536.76 Q1158.02 1536.76 1155.35 1540 Q1152.71 1543.22 1152.71 1549.27 L1152.71 1568.04 L1146.82 1568.04 L1146.82 1532.4 L1152.71 1532.4 L1152.71 1537.93 Q1154.55 1534.69 1157.51 1533.13 Q1160.47 1531.54 1164.71 1531.54 Q1165.31 1531.54 1166.04 1531.63 Q1166.78 1531.7 1167.67 1531.85 L1167.7 1537.87 Z" fill="#000000" fill-rule="nonzero" fill-opacity="1" /><path clip-path="url(#clip600)" d="M1190.04 1550.12 Q1182.94 1550.12 1180.21 1551.75 Q1177.47 1553.37 1177.47 1557.29 Q1177.47 1560.4 1179.51 1562.25 Q1181.58 1564.07 1185.11 1564.07 Q1189.98 1564.07 1192.91 1560.63 Q1195.87 1557.16 1195.87 1551.43 L1195.87 1550.12 L1190.04 1550.12 M1201.72 1547.71 L1201.72 1568.04 L1195.87 1568.04 L1195.87 1562.63 Q1193.86 1565.88 1190.87 1567.44 Q1187.88 1568.97 1183.55 1568.97 Q1178.07 1568.97 1174.83 1565.91 Q1171.61 1562.82 1171.61 1557.67 Q1171.61 1551.65 1175.62 1548.6 Q1179.67 1545.54 1187.65 1545.54 L1195.87 1545.54 L1195.87 1544.97 Q1195.87 1540.93 1193.19 1538.73 Q1190.55 1536.5 1185.75 1536.5 Q1182.69 1536.5 1179.79 1537.23 Q1176.9 1537.97 1174.22 1539.43 L1174.22 1534.02 Q1177.44 1532.78 1180.46 1532.17 Q1183.49 1531.54 1186.35 1531.54 Q1194.08 1531.54 1197.9 1535.55 Q1201.72 1539.56 1201.72 1547.71 Z" fill="#000000" fill-rule="nonzero" fill-opacity="1" /><path clip-path="url(#clip600)" d="M1213.79 1532.4 L1219.64 1532.4 L1219.64 1568.04 L1213.79 1568.04 L1213.79 1532.4 M1213.79 1518.52 L1219.64 1518.52 L1219.64 1525.93 L1213.79 1525.93 L1213.79 1518.52 Z" fill="#000000" fill-rule="nonzero" fill-opacity="1" /><path clip-path="url(#clip600)" d="M1261.53 1546.53 L1261.53 1568.04 L1255.67 1568.04 L1255.67 1546.72 Q1255.67 1541.66 1253.7 1539.14 Q1251.73 1536.63 1247.78 1536.63 Q1243.04 1536.63 1240.3 1539.65 Q1237.56 1542.68 1237.56 1547.9 L1237.56 1568.04 L1231.67 1568.04 L1231.67 1532.4 L1237.56 1532.4 L1237.56 1537.93 Q1239.66 1534.72 1242.5 1533.13 Q1245.36 1531.54 1249.08 1531.54 Q1255.23 1531.54 1258.38 1535.36 Q1261.53 1539.14 1261.53 1546.53 Z" fill="#000000" fill-rule="nonzero" fill-opacity="1" /><path clip-path="url(#clip600)" d="M1293.39 1518.52 L1306.88 1518.52 L1306.88 1523.07 L1299.25 1523.07 L1299.25 1572.09 L1306.88 1572.09 L1306.88 1576.64 L1293.39 1576.64 L1293.39 1518.52 Z" fill="#000000" fill-rule="nonzero" fill-opacity="1" /><path clip-path="url(#clip600)" d="M1342.82 1549.81 Q1342.82 1543.44 1340.18 1539.94 Q1337.57 1536.44 1332.82 1536.44 Q1328.11 1536.44 1325.47 1539.94 Q1322.86 1543.44 1322.86 1549.81 Q1322.86 1556.14 1325.47 1559.64 Q1328.11 1563.14 1332.82 1563.14 Q1337.57 1563.14 1340.18 1559.64 Q1342.82 1556.14 1342.82 1549.81 M1348.68 1563.62 Q1348.68 1572.72 1344.63 1577.15 Q1340.59 1581.6 1332.25 1581.6 Q1329.16 1581.6 1326.43 1581.13 Q1323.69 1580.68 1321.11 1579.72 L1321.11 1574.03 Q1323.69 1575.43 1326.2 1576.1 Q1328.72 1576.76 1331.33 1576.76 Q1337.09 1576.76 1339.95 1573.74 Q1342.82 1570.75 1342.82 1564.67 L1342.82 1561.77 Q1341 1564.92 1338.17 1566.48 Q1335.34 1568.04 1331.39 1568.04 Q1324.84 1568.04 1320.83 1563.05 Q1316.82 1558.05 1316.82 1549.81 Q1316.82 1541.53 1320.83 1536.53 Q1324.84 1531.54 1331.39 1531.54 Q1335.34 1531.54 1338.17 1533.1 Q1341 1534.66 1342.82 1537.81 L1342.82 1532.4 L1348.68 1532.4 L1348.68 1563.62 Z" fill="#000000" fill-rule="nonzero" fill-opacity="1" /><path clip-path="url(#clip600)" d="M1371.15 1520.52 L1376.56 1520.52 L1360.01 1574.09 L1354.6 1574.09 L1371.15 1520.52 Z" fill="#000000" fill-rule="nonzero" fill-opacity="1" /><path clip-path="url(#clip600)" d="M1403.2 1518.52 L1409.09 1518.52 L1409.09 1547.77 L1426.56 1532.4 L1434.04 1532.4 L1415.13 1549.07 L1434.84 1568.04 L1427.2 1568.04 L1409.09 1550.63 L1409.09 1568.04 L1403.2 1568.04 L1403.2 1518.52 Z" fill="#000000" fill-rule="nonzero" fill-opacity="1" /><path clip-path="url(#clip600)" d="M1464.63 1549.81 Q1464.63 1543.44 1461.98 1539.94 Q1459.38 1536.44 1454.63 1536.44 Q1449.92 1536.44 1447.28 1539.94 Q1444.67 1543.44 1444.67 1549.81 Q1444.67 1556.14 1447.28 1559.64 Q1449.92 1563.14 1454.63 1563.14 Q1459.38 1563.14 1461.98 1559.64 Q1464.63 1556.14 1464.63 1549.81 M1470.48 1563.62 Q1470.48 1572.72 1466.44 1577.15 Q1462.4 1581.6 1454.06 1581.6 Q1450.97 1581.6 1448.24 1581.13 Q1445.5 1580.68 1442.92 1579.72 L1442.92 1574.03 Q1445.5 1575.43 1448.01 1576.1 Q1450.53 1576.76 1453.14 1576.76 Q1458.9 1576.76 1461.76 1573.74 Q1464.63 1570.75 1464.63 1564.67 L1464.63 1561.77 Q1462.81 1564.92 1459.98 1566.48 Q1457.15 1568.04 1453.2 1568.04 Q1446.64 1568.04 1442.63 1563.05 Q1438.62 1558.05 1438.62 1549.81 Q1438.62 1541.53 1442.63 1536.53 Q1446.64 1531.54 1453.2 1531.54 Q1457.15 1531.54 1459.98 1533.1 Q1462.81 1534.66 1464.63 1537.81 L1464.63 1532.4 L1470.48 1532.4 L1470.48 1563.62 Z" fill="#000000" fill-rule="nonzero" fill-opacity="1" /><path clip-path="url(#clip600)" d="M1496.23 1518.52 L1496.23 1576.64 L1482.74 1576.64 L1482.74 1572.09 L1490.34 1572.09 L1490.34 1523.07 L1482.74 1523.07 L1482.74 1518.52 L1496.23 1518.52 Z" fill="#000000" fill-rule="nonzero" fill-opacity="1" /><polyline clip-path="url(#clip602)" style="stroke:#000000; stroke-linecap:round; stroke-linejoin:round; stroke-width:2; stroke-opacity:0.1; fill:none" points="214.002,1224.63 2352.76,1224.63 "/>
<polyline clip-path="url(#clip602)" style="stroke:#000000; stroke-linecap:round; stroke-linejoin:round; stroke-width:2; stroke-opacity:0.1; fill:none" points="214.002,961.437 2352.76,961.437 "/>
<polyline clip-path="url(#clip602)" style="stroke:#000000; stroke-linecap:round; stroke-linejoin:round; stroke-width:2; stroke-opacity:0.1; fill:none" points="214.002,698.244 2352.76,698.244 "/>
<polyline clip-path="url(#clip602)" style="stroke:#000000; stroke-linecap:round; stroke-linejoin:round; stroke-width:2; stroke-opacity:0.1; fill:none" points="214.002,435.052 2352.76,435.052 "/>
<polyline clip-path="url(#clip602)" style="stroke:#000000; stroke-linecap:round; stroke-linejoin:round; stroke-width:2; stroke-opacity:0.1; fill:none" points="214.002,171.86 2352.76,171.86 "/>
<polyline clip-path="url(#clip600)" style="stroke:#000000; stroke-linecap:round; stroke-linejoin:round; stroke-width:4; stroke-opacity:1; fill:none" points="214.002,1423.18 214.002,123.472 "/>
<polyline clip-path="url(#clip600)" style="stroke:#000000; stroke-linecap:round; stroke-linejoin:round; stroke-width:4; stroke-opacity:1; fill:none" points="214.002,1224.63 232.9,1224.63 "/>
<polyline clip-path="url(#clip600)" style="stroke:#000000; stroke-linecap:round; stroke-linejoin:round; stroke-width:4; stroke-opacity:1; fill:none" points="214.002,961.437 232.9,961.437 "/>
<polyline clip-path="url(#clip600)" style="stroke:#000000; stroke-linecap:round; stroke-linejoin:round; stroke-width:4; stroke-opacity:1; fill:none" points="214.002,698.244 232.9,698.244 "/>
<polyline clip-path="url(#clip600)" style="stroke:#000000; stroke-linecap:round; stroke-linejoin:round; stroke-width:4; stroke-opacity:1; fill:none" points="214.002,435.052 232.9,435.052 "/>
<polyline clip-path="url(#clip600)" style="stroke:#000000; stroke-linecap:round; stroke-linejoin:round; stroke-width:4; stroke-opacity:1; fill:none" points="214.002,171.86 232.9,171.86 "/>
<path clip-path="url(#clip600)" d="M51.6634 1244.42 L59.3023 1244.42 L59.3023 1218.06 L50.9921 1219.72 L50.9921 1215.46 L59.256 1213.8 L63.9319 1213.8 L63.9319 1244.42 L71.5707 1244.42 L71.5707 1248.36 L51.6634 1248.36 L51.6634 1244.42 Z" fill="#000000" fill-rule="nonzero" fill-opacity="1" /><path clip-path="url(#clip600)" d="M91.0151 1216.88 Q87.404 1216.88 85.5753 1220.44 Q83.7697 1223.98 83.7697 1231.11 Q83.7697 1238.22 85.5753 1241.78 Q87.404 1245.32 91.0151 1245.32 Q94.6493 1245.32 96.4548 1241.78 Q98.2835 1238.22 98.2835 1231.11 Q98.2835 1223.98 96.4548 1220.44 Q94.6493 1216.88 91.0151 1216.88 M91.0151 1213.17 Q96.8252 1213.17 99.8808 1217.78 Q102.959 1222.36 102.959 1231.11 Q102.959 1239.84 99.8808 1244.44 Q96.8252 1249.03 91.0151 1249.03 Q85.2049 1249.03 82.1262 1244.44 Q79.0707 1239.84 79.0707 1231.11 Q79.0707 1222.36 82.1262 1217.78 Q85.2049 1213.17 91.0151 1213.17 Z" fill="#000000" fill-rule="nonzero" fill-opacity="1" /><path clip-path="url(#clip600)" d="M102.959 1207.27 L127.071 1207.27 L127.071 1210.47 L102.959 1210.47 L102.959 1207.27 Z" fill="#000000" fill-rule="nonzero" fill-opacity="1" /><path clip-path="url(#clip600)" d="M135.309 1192.87 L150.223 1192.87 L150.223 1196.06 L138.788 1196.06 L138.788 1202.95 Q139.616 1202.66 140.443 1202.53 Q141.271 1202.38 142.098 1202.38 Q146.8 1202.38 149.546 1204.96 Q152.292 1207.54 152.292 1211.94 Q152.292 1216.47 149.471 1218.99 Q146.65 1221.49 141.515 1221.49 Q139.747 1221.49 137.904 1221.19 Q136.08 1220.89 134.124 1220.29 L134.124 1216.47 Q135.817 1217.39 137.622 1217.84 Q139.428 1218.29 141.44 1218.29 Q144.694 1218.29 146.593 1216.58 Q148.493 1214.87 148.493 1211.94 Q148.493 1209 146.593 1207.29 Q144.694 1205.58 141.44 1205.58 Q139.917 1205.58 138.393 1205.92 Q136.889 1206.26 135.309 1206.97 L135.309 1192.87 Z" fill="#000000" fill-rule="nonzero" fill-opacity="1" /><path clip-path="url(#clip600)" d="M170.216 1196.18 L160.624 1211.17 L170.216 1211.17 L170.216 1196.18 M169.219 1192.87 L173.996 1192.87 L173.996 1211.17 L178.002 1211.17 L178.002 1214.33 L173.996 1214.33 L173.996 1220.95 L170.216 1220.95 L170.216 1214.33 L157.54 1214.33 L157.54 1210.66 L169.219 1192.87 Z" fill="#000000" fill-rule="nonzero" fill-opacity="1" /><path clip-path="url(#clip600)" d="M52.585 981.229 L60.2238 981.229 L60.2238 954.863 L51.9137 956.53 L51.9137 952.271 L60.1776 950.604 L64.8535 950.604 L64.8535 981.229 L72.4923 981.229 L72.4923 985.164 L52.585 985.164 L52.585 981.229 Z" fill="#000000" fill-rule="nonzero" fill-opacity="1" /><path clip-path="url(#clip600)" d="M91.9366 953.683 Q88.3255 953.683 86.4969 957.248 Q84.6913 960.789 84.6913 967.919 Q84.6913 975.025 86.4969 978.59 Q88.3255 982.132 91.9366 982.132 Q95.5709 982.132 97.3764 978.59 Q99.2051 975.025 99.2051 967.919 Q99.2051 960.789 97.3764 957.248 Q95.5709 953.683 91.9366 953.683 M91.9366 949.979 Q97.7468 949.979 100.802 954.586 Q103.881 959.169 103.881 967.919 Q103.881 976.646 100.802 981.252 Q97.7468 985.836 91.9366 985.836 Q86.1265 985.836 83.0478 981.252 Q79.9923 976.646 79.9923 967.919 Q79.9923 959.169 83.0478 954.586 Q86.1265 949.979 91.9366 949.979 Z" fill="#000000" fill-rule="nonzero" fill-opacity="1" /><path clip-path="url(#clip600)" d="M103.881 944.081 L127.993 944.081 L127.993 947.278 L103.881 947.278 L103.881 944.081 Z" fill="#000000" fill-rule="nonzero" fill-opacity="1" /><path clip-path="url(#clip600)" d="M136.23 929.674 L151.145 929.674 L151.145 932.871 L139.71 932.871 L139.71 939.755 Q140.537 939.473 141.365 939.341 Q142.192 939.191 143.02 939.191 Q147.722 939.191 150.468 941.767 Q153.214 944.344 153.214 948.745 Q153.214 953.278 150.393 955.798 Q147.571 958.299 142.437 958.299 Q140.669 958.299 138.826 957.998 Q137.002 957.697 135.045 957.096 L135.045 953.278 Q136.738 954.199 138.544 954.651 Q140.349 955.102 142.362 955.102 Q145.615 955.102 147.515 953.39 Q149.415 951.679 149.415 948.745 Q149.415 945.811 147.515 944.099 Q145.615 942.388 142.362 942.388 Q140.838 942.388 139.315 942.726 Q137.81 943.065 136.23 943.78 L136.23 929.674 Z" fill="#000000" fill-rule="nonzero" fill-opacity="1" /><path clip-path="url(#clip600)" d="M172.21 942.614 Q174.937 943.197 176.46 945.04 Q178.002 946.883 178.002 949.591 Q178.002 953.748 175.144 956.023 Q172.285 958.299 167.019 958.299 Q165.251 958.299 163.37 957.942 Q161.508 957.603 159.514 956.907 L159.514 953.24 Q161.094 954.162 162.975 954.632 Q164.856 955.102 166.906 955.102 Q170.479 955.102 172.341 953.691 Q174.222 952.281 174.222 949.591 Q174.222 947.109 172.473 945.717 Q170.743 944.306 167.639 944.306 L164.367 944.306 L164.367 941.184 L167.79 941.184 Q170.592 941.184 172.078 940.075 Q173.564 938.946 173.564 936.84 Q173.564 934.677 172.022 933.529 Q170.498 932.363 167.639 932.363 Q166.078 932.363 164.292 932.702 Q162.505 933.04 160.361 933.755 L160.361 930.37 Q162.524 929.768 164.404 929.467 Q166.304 929.166 167.978 929.166 Q172.304 929.166 174.824 931.141 Q177.344 933.097 177.344 936.445 Q177.344 938.777 176.009 940.394 Q174.673 941.993 172.21 942.614 Z" fill="#000000" fill-rule="nonzero" fill-opacity="1" /><path clip-path="url(#clip600)" d="M53.3561 718.037 L60.995 718.037 L60.995 691.671 L52.6848 693.338 L52.6848 689.079 L60.9487 687.412 L65.6246 687.412 L65.6246 718.037 L73.2634 718.037 L73.2634 721.972 L53.3561 721.972 L53.3561 718.037 Z" fill="#000000" fill-rule="nonzero" fill-opacity="1" /><path clip-path="url(#clip600)" d="M92.7078 690.491 Q89.0967 690.491 87.268 694.055 Q85.4624 697.597 85.4624 704.727 Q85.4624 711.833 87.268 715.398 Q89.0967 718.939 92.7078 718.939 Q96.342 718.939 98.1475 715.398 Q99.9762 711.833 99.9762 704.727 Q99.9762 697.597 98.1475 694.055 Q96.342 690.491 92.7078 690.491 M92.7078 686.787 Q98.5179 686.787 101.573 691.393 Q104.652 695.977 104.652 704.727 Q104.652 713.453 101.573 718.06 Q98.5179 722.643 92.7078 722.643 Q86.8976 722.643 83.8189 718.06 Q80.7634 713.453 80.7634 704.727 Q80.7634 695.977 83.8189 691.393 Q86.8976 686.787 92.7078 686.787 Z" fill="#000000" fill-rule="nonzero" fill-opacity="1" /><path clip-path="url(#clip600)" d="M104.652 680.888 L128.764 680.888 L128.764 684.086 L104.652 684.086 L104.652 680.888 Z" fill="#000000" fill-rule="nonzero" fill-opacity="1" /><path clip-path="url(#clip600)" d="M137.002 666.481 L151.916 666.481 L151.916 669.679 L140.481 669.679 L140.481 676.562 Q141.308 676.28 142.136 676.149 Q142.964 675.998 143.791 675.998 Q148.493 675.998 151.239 678.575 Q153.985 681.152 153.985 685.553 Q153.985 690.085 151.164 692.605 Q148.343 695.107 143.208 695.107 Q141.44 695.107 139.597 694.806 Q137.773 694.505 135.817 693.903 L135.817 690.085 Q137.509 691.007 139.315 691.458 Q141.12 691.91 143.133 691.91 Q146.387 691.91 148.286 690.198 Q150.186 688.487 150.186 685.553 Q150.186 682.619 148.286 680.907 Q146.387 679.196 143.133 679.196 Q141.609 679.196 140.086 679.534 Q138.581 679.873 137.002 680.587 L137.002 666.481 Z" fill="#000000" fill-rule="nonzero" fill-opacity="1" /><path clip-path="url(#clip600)" d="M164.743 691.364 L178.002 691.364 L178.002 694.561 L160.173 694.561 L160.173 691.364 Q162.336 689.126 166.06 685.364 Q169.802 681.584 170.761 680.493 Q172.586 678.443 173.3 677.033 Q174.034 675.603 174.034 674.23 Q174.034 671.992 172.454 670.582 Q170.893 669.171 168.373 669.171 Q166.586 669.171 164.593 669.792 Q162.618 670.412 160.361 671.672 L160.361 667.836 Q162.655 666.914 164.649 666.444 Q166.643 665.974 168.298 665.974 Q172.661 665.974 175.257 668.155 Q177.852 670.337 177.852 673.986 Q177.852 675.716 177.194 677.277 Q176.554 678.819 174.843 680.926 Q174.373 681.471 171.852 684.086 Q169.332 686.681 164.743 691.364 Z" fill="#000000" fill-rule="nonzero" fill-opacity="1" /><path clip-path="url(#clip600)" d="M53.0552 454.844 L60.694 454.844 L60.694 428.479 L52.3839 430.145 L52.3839 425.886 L60.6477 424.22 L65.3236 424.22 L65.3236 454.844 L72.9625 454.844 L72.9625 458.78 L53.0552 458.78 L53.0552 454.844 Z" fill="#000000" fill-rule="nonzero" fill-opacity="1" /><path clip-path="url(#clip600)" d="M92.4068 427.298 Q88.7957 427.298 86.967 430.863 Q85.1615 434.405 85.1615 441.534 Q85.1615 448.641 86.967 452.206 Q88.7957 455.747 92.4068 455.747 Q96.0411 455.747 97.8466 452.206 Q99.6753 448.641 99.6753 441.534 Q99.6753 434.405 97.8466 430.863 Q96.0411 427.298 92.4068 427.298 M92.4068 423.595 Q98.217 423.595 101.273 428.201 Q104.351 432.784 104.351 441.534 Q104.351 450.261 101.273 454.868 Q98.217 459.451 92.4068 459.451 Q86.5967 459.451 83.518 454.868 Q80.4625 450.261 80.4625 441.534 Q80.4625 432.784 83.518 428.201 Q86.5967 423.595 92.4068 423.595 Z" fill="#000000" fill-rule="nonzero" fill-opacity="1" /><path clip-path="url(#clip600)" d="M104.351 417.696 L128.463 417.696 L128.463 420.893 L104.351 420.893 L104.351 417.696 Z" fill="#000000" fill-rule="nonzero" fill-opacity="1" /><path clip-path="url(#clip600)" d="M136.701 403.289 L151.615 403.289 L151.615 406.486 L140.18 406.486 L140.18 413.37 Q141.008 413.088 141.835 412.956 Q142.663 412.806 143.49 412.806 Q148.192 412.806 150.938 415.383 Q153.684 417.959 153.684 422.36 Q153.684 426.893 150.863 429.413 Q148.042 431.915 142.907 431.915 Q141.139 431.915 139.296 431.614 Q137.472 431.313 135.516 430.711 L135.516 426.893 Q137.208 427.814 139.014 428.266 Q140.819 428.717 142.832 428.717 Q146.086 428.717 147.985 427.006 Q149.885 425.294 149.885 422.36 Q149.885 419.426 147.985 417.715 Q146.086 416.003 142.832 416.003 Q141.308 416.003 139.785 416.342 Q138.28 416.68 136.701 417.395 L136.701 403.289 Z" fill="#000000" fill-rule="nonzero" fill-opacity="1" /><path clip-path="url(#clip600)" d="M161.828 428.172 L168.034 428.172 L168.034 406.75 L161.282 408.104 L161.282 404.643 L167.997 403.289 L171.796 403.289 L171.796 428.172 L178.002 428.172 L178.002 431.369 L161.828 431.369 L161.828 428.172 Z" fill="#000000" fill-rule="nonzero" fill-opacity="1" /><path clip-path="url(#clip600)" d="M52.0584 191.652 L59.6972 191.652 L59.6972 165.286 L51.3871 166.953 L51.3871 162.694 L59.6509 161.027 L64.3268 161.027 L64.3268 191.652 L71.9657 191.652 L71.9657 195.587 L52.0584 195.587 L52.0584 191.652 Z" fill="#000000" fill-rule="nonzero" fill-opacity="1" /><path clip-path="url(#clip600)" d="M91.41 164.106 Q87.7989 164.106 85.9702 167.671 Q84.1647 171.212 84.1647 178.342 Q84.1647 185.448 85.9702 189.013 Q87.7989 192.555 91.41 192.555 Q95.0443 192.555 96.8498 189.013 Q98.6785 185.448 98.6785 178.342 Q98.6785 171.212 96.8498 167.671 Q95.0443 164.106 91.41 164.106 M91.41 160.402 Q97.2202 160.402 100.276 165.009 Q103.354 169.592 103.354 178.342 Q103.354 187.069 100.276 191.675 Q97.2202 196.259 91.41 196.259 Q85.5999 196.259 82.5212 191.675 Q79.4656 187.069 79.4656 178.342 Q79.4656 169.592 82.5212 165.009 Q85.5999 160.402 91.41 160.402 Z" fill="#000000" fill-rule="nonzero" fill-opacity="1" /><path clip-path="url(#clip600)" d="M103.354 154.504 L127.466 154.504 L127.466 157.701 L103.354 157.701 L103.354 154.504 Z" fill="#000000" fill-rule="nonzero" fill-opacity="1" /><path clip-path="url(#clip600)" d="M135.704 140.097 L150.618 140.097 L150.618 143.294 L139.183 143.294 L139.183 150.178 Q140.011 149.896 140.838 149.764 Q141.666 149.614 142.493 149.614 Q147.195 149.614 149.941 152.19 Q152.687 154.767 152.687 159.168 Q152.687 163.701 149.866 166.221 Q147.045 168.722 141.91 168.722 Q140.142 168.722 138.299 168.421 Q136.475 168.12 134.519 167.519 L134.519 163.701 Q136.212 164.622 138.017 165.074 Q139.823 165.525 141.835 165.525 Q145.089 165.525 146.988 163.813 Q148.888 162.102 148.888 159.168 Q148.888 156.234 146.988 154.522 Q145.089 152.811 141.835 152.811 Q140.312 152.811 138.788 153.149 Q137.284 153.488 135.704 154.203 L135.704 140.097 Z" fill="#000000" fill-rule="nonzero" fill-opacity="1" /><path clip-path="url(#clip600)" d="M168.298 142.598 Q165.364 142.598 163.878 145.495 Q162.411 148.372 162.411 154.165 Q162.411 159.939 163.878 162.835 Q165.364 165.713 168.298 165.713 Q171.25 165.713 172.717 162.835 Q174.203 159.939 174.203 154.165 Q174.203 148.372 172.717 145.495 Q171.25 142.598 168.298 142.598 M168.298 139.589 Q173.018 139.589 175.501 143.332 Q178.002 147.056 178.002 154.165 Q178.002 161.256 175.501 164.998 Q173.018 168.722 168.298 168.722 Q163.577 168.722 161.075 164.998 Q158.593 161.256 158.593 154.165 Q158.593 147.056 161.075 143.332 Q163.577 139.589 168.298 139.589 Z" fill="#000000" fill-rule="nonzero" fill-opacity="1" /><path clip-path="url(#clip600)" d="M607.344 20.1573 L590.735 65.7705 L623.993 65.7705 L607.344 20.1573 M579.636 72.576 L602.726 12.096 L612.003 12.096 L635.052 72.576 L579.636 72.576 Z" fill="#000000" fill-rule="nonzero" fill-opacity="1" /><path clip-path="url(#clip600)" d="M670.255 12.096 L681.273 12.096 L708.09 62.6918 L708.09 12.096 L716.03 12.096 L716.03 72.576 L705.011 72.576 L678.194 21.9802 L678.194 72.576 L670.255 72.576 L670.255 12.096 Z" fill="#000000" fill-rule="nonzero" fill-opacity="1" /><path clip-path="url(#clip600)" d="M731.221 54.671 L731.221 27.2059 L738.674 27.2059 L738.674 54.3874 Q738.674 60.8284 741.186 64.0691 Q743.697 67.2693 748.721 67.2693 Q754.756 67.2693 758.24 63.421 Q761.764 59.5726 761.764 52.9291 L761.764 27.2059 L769.218 27.2059 L769.218 72.576 L761.764 72.576 L761.764 65.6084 Q759.05 69.7404 755.445 71.7658 Q751.88 73.7508 747.141 73.7508 Q739.322 73.7508 735.272 68.8897 Q731.221 64.0286 731.221 54.671 M749.976 26.1121 L749.976 26.1121 Z" fill="#000000" fill-rule="nonzero" fill-opacity="1" /><path clip-path="url(#clip600)" d="M819.895 35.9153 Q822.69 30.8922 826.579 28.5022 Q830.468 26.1121 835.734 26.1121 Q842.823 26.1121 846.671 31.0947 Q850.52 36.0368 850.52 45.1919 L850.52 72.576 L843.026 72.576 L843.026 45.4349 Q843.026 38.913 840.717 35.7533 Q838.408 32.5936 833.668 32.5936 Q827.875 32.5936 824.513 36.4419 Q821.151 40.2903 821.151 46.9338 L821.151 72.576 L813.657 72.576 L813.657 45.4349 Q813.657 38.8725 811.348 35.7533 Q809.039 32.5936 804.218 32.5936 Q798.506 32.5936 795.144 36.4824 Q791.782 40.3308 791.782 46.9338 L791.782 72.576 L784.288 72.576 L784.288 27.2059 L791.782 27.2059 L791.782 34.2544 Q794.334 30.082 797.899 28.0971 Q801.463 26.1121 806.365 26.1121 Q811.307 26.1121 814.75 28.6237 Q818.234 31.1352 819.895 35.9153 Z" fill="#000000" fill-rule="nonzero" fill-opacity="1" /><path clip-path="url(#clip600)" d="M897.956 49.9314 Q897.956 41.7081 894.553 37.0496 Q891.191 32.3505 885.277 32.3505 Q879.362 32.3505 875.959 37.0496 Q872.597 41.7081 872.597 49.9314 Q872.597 58.1548 875.959 62.8538 Q879.362 67.5124 885.277 67.5124 Q891.191 67.5124 894.553 62.8538 Q897.956 58.1548 897.956 49.9314 M872.597 34.0924 Q874.947 30.0415 878.512 28.0971 Q882.117 26.1121 887.099 26.1121 Q895.363 26.1121 900.508 32.6746 Q905.693 39.2371 905.693 49.9314 Q905.693 60.6258 900.508 67.1883 Q895.363 73.7508 887.099 73.7508 Q882.117 73.7508 878.512 71.8063 Q874.947 69.8214 872.597 65.7705 L872.597 72.576 L865.103 72.576 L865.103 9.54393 L872.597 9.54393 L872.597 34.0924 Z" fill="#000000" fill-rule="nonzero" fill-opacity="1" /><path clip-path="url(#clip600)" d="M956.856 48.0275 L956.856 51.6733 L922.585 51.6733 Q923.071 59.3701 927.203 63.421 Q931.376 67.4314 938.789 67.4314 Q943.083 67.4314 947.093 66.3781 Q951.144 65.3249 955.114 63.2184 L955.114 70.267 Q951.104 71.9684 946.891 72.8596 Q942.678 73.7508 938.343 73.7508 Q927.487 73.7508 921.127 67.4314 Q914.808 61.1119 914.808 50.3365 Q914.808 39.1965 920.803 32.6746 Q926.839 26.1121 937.047 26.1121 Q946.202 26.1121 951.509 32.0264 Q956.856 37.9003 956.856 48.0275 M949.402 45.84 Q949.321 39.7232 945.959 36.0774 Q942.637 32.4315 937.128 32.4315 Q930.89 32.4315 927.122 35.9558 Q923.396 39.4801 922.828 45.8805 L949.402 45.84 Z" fill="#000000" fill-rule="nonzero" fill-opacity="1" /><path clip-path="url(#clip600)" d="M995.38 34.1734 Q994.124 33.4443 992.626 33.1202 Q991.167 32.7556 989.385 32.7556 Q983.065 32.7556 979.663 36.8875 Q976.3 40.9789 976.3 48.6757 L976.3 72.576 L968.806 72.576 L968.806 27.2059 L976.3 27.2059 L976.3 34.2544 Q978.65 30.1225 982.417 28.1376 Q986.185 26.1121 991.572 26.1121 Q992.342 26.1121 993.274 26.2337 Q994.205 26.3147 995.34 26.5172 L995.38 34.1734 Z" fill="#000000" fill-rule="nonzero" fill-opacity="1" /><path clip-path="url(#clip600)" d="M1075.18 16.7545 L1075.18 25.383 Q1071.05 21.5346 1066.35 19.6307 Q1061.69 17.7268 1056.43 17.7268 Q1046.06 17.7268 1040.55 24.0867 Q1035.04 30.4061 1035.04 42.3968 Q1035.04 54.3469 1040.55 60.7069 Q1046.06 67.0263 1056.43 67.0263 Q1061.69 67.0263 1066.35 65.1223 Q1071.05 63.2184 1075.18 59.3701 L1075.18 67.9175 Q1070.89 70.8341 1066.07 72.2924 Q1061.29 73.7508 1055.94 73.7508 Q1042.21 73.7508 1034.31 65.3654 Q1026.41 56.9395 1026.41 42.3968 Q1026.41 27.8135 1034.31 19.4281 Q1042.21 11.0023 1055.94 11.0023 Q1061.37 11.0023 1066.15 12.4606 Q1070.97 13.8784 1075.18 16.7545 Z" fill="#000000" fill-rule="nonzero" fill-opacity="1" /><path clip-path="url(#clip600)" d="M1105.08 32.4315 Q1099.08 32.4315 1095.6 37.1306 Q1092.12 41.7891 1092.12 49.9314 Q1092.12 58.0738 1095.56 62.7728 Q1099.04 67.4314 1105.08 67.4314 Q1111.03 67.4314 1114.52 62.7323 Q1118 58.0333 1118 49.9314 Q1118 41.8701 1114.52 37.1711 Q1111.03 32.4315 1105.08 32.4315 M1105.08 26.1121 Q1114.8 26.1121 1120.35 32.4315 Q1125.9 38.7509 1125.9 49.9314 Q1125.9 61.0714 1120.35 67.4314 Q1114.8 73.7508 1105.08 73.7508 Q1095.32 73.7508 1089.77 67.4314 Q1084.26 61.0714 1084.26 49.9314 Q1084.26 38.7509 1089.77 32.4315 Q1095.32 26.1121 1105.08 26.1121 Z" fill="#000000" fill-rule="nonzero" fill-opacity="1" /><path clip-path="url(#clip600)" d="M1175.97 45.1919 L1175.97 72.576 L1168.52 72.576 L1168.52 45.4349 Q1168.52 38.994 1166 35.7938 Q1163.49 32.5936 1158.47 32.5936 Q1152.43 32.5936 1148.95 36.4419 Q1145.47 40.2903 1145.47 46.9338 L1145.47 72.576 L1137.97 72.576 L1137.97 27.2059 L1145.47 27.2059 L1145.47 34.2544 Q1148.14 30.163 1151.75 28.1376 Q1155.39 26.1121 1160.13 26.1121 Q1167.95 26.1121 1171.96 30.9732 Q1175.97 35.7938 1175.97 45.1919 Z" fill="#000000" fill-rule="nonzero" fill-opacity="1" /><path clip-path="url(#clip600)" d="M1223.49 28.9478 L1223.49 35.9153 Q1220.33 34.1734 1217.13 33.3227 Q1213.97 32.4315 1210.73 32.4315 Q1203.48 32.4315 1199.46 37.0496 Q1195.45 41.6271 1195.45 49.9314 Q1195.45 58.2358 1199.46 62.8538 Q1203.48 67.4314 1210.73 67.4314 Q1213.97 67.4314 1217.13 66.5807 Q1220.33 65.6895 1223.49 63.9476 L1223.49 70.8341 Q1220.37 72.2924 1217.01 73.0216 Q1213.68 73.7508 1209.92 73.7508 Q1199.67 73.7508 1193.63 67.3098 Q1187.6 60.8689 1187.6 49.9314 Q1187.6 38.832 1193.67 32.472 Q1199.79 26.1121 1210.4 26.1121 Q1213.85 26.1121 1217.13 26.8413 Q1220.41 27.5299 1223.49 28.9478 Z" fill="#000000" fill-rule="nonzero" fill-opacity="1" /><path clip-path="url(#clip600)" d="M1275.26 48.0275 L1275.26 51.6733 L1240.99 51.6733 Q1241.47 59.3701 1245.6 63.421 Q1249.78 67.4314 1257.19 67.4314 Q1261.48 67.4314 1265.49 66.3781 Q1269.55 65.3249 1273.52 63.2184 L1273.52 70.267 Q1269.5 71.9684 1265.29 72.8596 Q1261.08 73.7508 1256.74 73.7508 Q1245.89 73.7508 1239.53 67.4314 Q1233.21 61.1119 1233.21 50.3365 Q1233.21 39.1965 1239.2 32.6746 Q1245.24 26.1121 1255.45 26.1121 Q1264.6 26.1121 1269.91 32.0264 Q1275.26 37.9003 1275.26 48.0275 M1267.8 45.84 Q1267.72 39.7232 1264.36 36.0774 Q1261.04 32.4315 1255.53 32.4315 Q1249.29 32.4315 1245.52 35.9558 Q1241.8 39.4801 1241.23 45.8805 L1267.8 45.84 Z" fill="#000000" fill-rule="nonzero" fill-opacity="1" /><path clip-path="url(#clip600)" d="M1325.2 45.1919 L1325.2 72.576 L1317.75 72.576 L1317.75 45.4349 Q1317.75 38.994 1315.24 35.7938 Q1312.73 32.5936 1307.7 32.5936 Q1301.67 32.5936 1298.19 36.4419 Q1294.7 40.2903 1294.7 46.9338 L1294.7 72.576 L1287.21 72.576 L1287.21 27.2059 L1294.7 27.2059 L1294.7 34.2544 Q1297.38 30.163 1300.98 28.1376 Q1304.63 26.1121 1309.37 26.1121 Q1317.18 26.1121 1321.19 30.9732 Q1325.2 35.7938 1325.2 45.1919 Z" fill="#000000" fill-rule="nonzero" fill-opacity="1" /><path clip-path="url(#clip600)" d="M1347.44 14.324 L1347.44 27.2059 L1362.8 27.2059 L1362.8 32.9987 L1347.44 32.9987 L1347.44 57.6282 Q1347.44 63.1779 1348.94 64.7578 Q1350.48 66.3376 1355.14 66.3376 L1362.8 66.3376 L1362.8 72.576 L1355.14 72.576 Q1346.51 72.576 1343.23 69.3758 Q1339.95 66.1351 1339.95 57.6282 L1339.95 32.9987 L1334.48 32.9987 L1334.48 27.2059 L1339.95 27.2059 L1339.95 14.324 L1347.44 14.324 Z" fill="#000000" fill-rule="nonzero" fill-opacity="1" /><path clip-path="url(#clip600)" d="M1398.89 34.1734 Q1397.63 33.4443 1396.14 33.1202 Q1394.68 32.7556 1392.9 32.7556 Q1386.58 32.7556 1383.17 36.8875 Q1379.81 40.9789 1379.81 48.6757 L1379.81 72.576 L1372.32 72.576 L1372.32 27.2059 L1379.81 27.2059 L1379.81 34.2544 Q1382.16 30.1225 1385.93 28.1376 Q1389.7 26.1121 1395.08 26.1121 Q1395.85 26.1121 1396.78 26.2337 Q1397.72 26.3147 1398.85 26.5172 L1398.89 34.1734 Z" fill="#000000" fill-rule="nonzero" fill-opacity="1" /><path clip-path="url(#clip600)" d="M1427.33 49.7694 Q1418.29 49.7694 1414.81 51.8354 Q1411.33 53.9013 1411.33 58.8839 Q1411.33 62.8538 1413.92 65.2034 Q1416.55 67.5124 1421.05 67.5124 Q1427.25 67.5124 1430.97 63.1374 Q1434.74 58.7219 1434.74 51.4303 L1434.74 49.7694 L1427.33 49.7694 M1442.19 46.6907 L1442.19 72.576 L1434.74 72.576 L1434.74 65.6895 Q1432.19 69.8214 1428.38 71.8063 Q1424.57 73.7508 1419.06 73.7508 Q1412.1 73.7508 1407.96 69.8619 Q1403.87 65.9325 1403.87 59.3701 Q1403.87 51.7138 1408.98 47.825 Q1414.12 43.9361 1424.29 43.9361 L1434.74 43.9361 L1434.74 43.2069 Q1434.74 38.0623 1431.34 35.2672 Q1427.98 32.4315 1421.86 32.4315 Q1417.97 32.4315 1414.28 33.3632 Q1410.6 34.295 1407.2 36.1584 L1407.2 29.2718 Q1411.29 27.692 1415.13 26.9223 Q1418.98 26.1121 1422.63 26.1121 Q1432.47 26.1121 1437.33 31.2163 Q1442.19 36.3204 1442.19 46.6907 Z" fill="#000000" fill-rule="nonzero" fill-opacity="1" /><path clip-path="url(#clip600)" d="M1464.92 14.324 L1464.92 27.2059 L1480.27 27.2059 L1480.27 32.9987 L1464.92 32.9987 L1464.92 57.6282 Q1464.92 63.1779 1466.42 64.7578 Q1467.96 66.3376 1472.62 66.3376 L1480.27 66.3376 L1480.27 72.576 L1472.62 72.576 Q1463.99 72.576 1460.71 69.3758 Q1457.43 66.1351 1457.43 57.6282 L1457.43 32.9987 L1451.96 32.9987 L1451.96 27.2059 L1457.43 27.2059 L1457.43 14.324 L1464.92 14.324 Z" fill="#000000" fill-rule="nonzero" fill-opacity="1" /><path clip-path="url(#clip600)" d="M1490.08 27.2059 L1497.53 27.2059 L1497.53 72.576 L1490.08 72.576 L1490.08 27.2059 M1490.08 9.54393 L1497.53 9.54393 L1497.53 18.9825 L1490.08 18.9825 L1490.08 9.54393 Z" fill="#000000" fill-rule="nonzero" fill-opacity="1" /><path clip-path="url(#clip600)" d="M1530.71 32.4315 Q1524.71 32.4315 1521.23 37.1306 Q1517.74 41.7891 1517.74 49.9314 Q1517.74 58.0738 1521.19 62.7728 Q1524.67 67.4314 1530.71 67.4314 Q1536.66 67.4314 1540.15 62.7323 Q1543.63 58.0333 1543.63 49.9314 Q1543.63 41.8701 1540.15 37.1711 Q1536.66 32.4315 1530.71 32.4315 M1530.71 26.1121 Q1540.43 26.1121 1545.98 32.4315 Q1551.53 38.7509 1551.53 49.9314 Q1551.53 61.0714 1545.98 67.4314 Q1540.43 73.7508 1530.71 73.7508 Q1520.94 73.7508 1515.39 67.4314 Q1509.89 61.0714 1509.89 49.9314 Q1509.89 38.7509 1515.39 32.4315 Q1520.94 26.1121 1530.71 26.1121 Z" fill="#000000" fill-rule="nonzero" fill-opacity="1" /><path clip-path="url(#clip600)" d="M1601.6 45.1919 L1601.6 72.576 L1594.14 72.576 L1594.14 45.4349 Q1594.14 38.994 1591.63 35.7938 Q1589.12 32.5936 1584.1 32.5936 Q1578.06 32.5936 1574.58 36.4419 Q1571.09 40.2903 1571.09 46.9338 L1571.09 72.576 L1563.6 72.576 L1563.6 27.2059 L1571.09 27.2059 L1571.09 34.2544 Q1573.77 30.163 1577.37 28.1376 Q1581.02 26.1121 1585.76 26.1121 Q1593.58 26.1121 1597.59 30.9732 Q1601.6 35.7938 1601.6 45.1919 Z" fill="#000000" fill-rule="nonzero" fill-opacity="1" /><path clip-path="url(#clip600)" d="M1656.08 12.096 L1662.97 12.096 L1641.9 80.2727 L1635.02 80.2727 L1656.08 12.096 Z" fill="#000000" fill-rule="nonzero" fill-opacity="1" /><path clip-path="url(#clip600)" d="M1733.74 14.0809 L1733.74 22.0612 Q1729.08 19.8332 1724.95 18.7395 Q1720.82 17.6457 1716.97 17.6457 Q1710.28 17.6457 1706.64 20.2383 Q1703.03 22.8309 1703.03 27.611 Q1703.03 31.6214 1705.42 33.6873 Q1707.85 35.7128 1714.58 36.9686 L1719.52 37.9813 Q1728.67 39.7232 1733.01 44.1387 Q1737.38 48.5136 1737.38 55.8863 Q1737.38 64.6767 1731.47 69.2137 Q1725.6 73.7508 1714.21 73.7508 Q1709.92 73.7508 1705.06 72.7785 Q1700.24 71.8063 1695.05 69.9024 L1695.05 61.4765 Q1700.03 64.2716 1704.81 65.6895 Q1709.6 67.1073 1714.21 67.1073 Q1721.22 67.1073 1725.03 64.3527 Q1728.84 61.598 1728.84 56.4939 Q1728.84 52.0379 1726.08 49.5264 Q1723.37 47.0148 1717.13 45.759 L1712.15 44.7868 Q1702.99 42.9639 1698.9 39.075 Q1694.81 35.1862 1694.81 28.2591 Q1694.81 20.2383 1700.44 15.6203 Q1706.11 11.0023 1716.04 11.0023 Q1720.29 11.0023 1724.7 11.7719 Q1729.12 12.5416 1733.74 14.0809 Z" fill="#000000" fill-rule="nonzero" fill-opacity="1" /><path clip-path="url(#clip600)" d="M1788.63 48.0275 L1788.63 51.6733 L1754.36 51.6733 Q1754.84 59.3701 1758.98 63.421 Q1763.15 67.4314 1770.56 67.4314 Q1774.86 67.4314 1778.87 66.3781 Q1782.92 65.3249 1786.89 63.2184 L1786.89 70.267 Q1782.88 71.9684 1778.66 72.8596 Q1774.45 73.7508 1770.12 73.7508 Q1759.26 73.7508 1752.9 67.4314 Q1746.58 61.1119 1746.58 50.3365 Q1746.58 39.1965 1752.58 32.6746 Q1758.61 26.1121 1768.82 26.1121 Q1777.97 26.1121 1783.28 32.0264 Q1788.63 37.9003 1788.63 48.0275 M1781.17 45.84 Q1781.09 39.7232 1777.73 36.0774 Q1774.41 32.4315 1768.9 32.4315 Q1762.66 32.4315 1758.89 35.9558 Q1755.17 39.4801 1754.6 45.8805 L1781.17 45.84 Z" fill="#000000" fill-rule="nonzero" fill-opacity="1" /><path clip-path="url(#clip600)" d="M1833.51 28.9478 L1833.51 35.9153 Q1830.35 34.1734 1827.15 33.3227 Q1823.99 32.4315 1820.75 32.4315 Q1813.5 32.4315 1809.49 37.0496 Q1805.48 41.6271 1805.48 49.9314 Q1805.48 58.2358 1809.49 62.8538 Q1813.5 67.4314 1820.75 67.4314 Q1823.99 67.4314 1827.15 66.5807 Q1830.35 65.6895 1833.51 63.9476 L1833.51 70.8341 Q1830.39 72.2924 1827.03 73.0216 Q1823.71 73.7508 1819.94 73.7508 Q1809.69 73.7508 1803.66 67.3098 Q1797.62 60.8689 1797.62 49.9314 Q1797.62 38.832 1803.7 32.472 Q1809.81 26.1121 1820.43 26.1121 Q1823.87 26.1121 1827.15 26.8413 Q1830.43 27.5299 1833.51 28.9478 Z" fill="#000000" fill-rule="nonzero" fill-opacity="1" /><path clip-path="url(#clip600)" d="M1864.06 32.4315 Q1858.06 32.4315 1854.58 37.1306 Q1851.09 41.7891 1851.09 49.9314 Q1851.09 58.0738 1854.54 62.7728 Q1858.02 67.4314 1864.06 67.4314 Q1870.01 67.4314 1873.49 62.7323 Q1876.98 58.0333 1876.98 49.9314 Q1876.98 41.8701 1873.49 37.1711 Q1870.01 32.4315 1864.06 32.4315 M1864.06 26.1121 Q1873.78 26.1121 1879.33 32.4315 Q1884.88 38.7509 1884.88 49.9314 Q1884.88 61.0714 1879.33 67.4314 Q1873.78 73.7508 1864.06 73.7508 Q1854.29 73.7508 1848.74 67.4314 Q1843.23 61.0714 1843.23 49.9314 Q1843.23 38.7509 1848.74 32.4315 Q1854.29 26.1121 1864.06 26.1121 Z" fill="#000000" fill-rule="nonzero" fill-opacity="1" /><path clip-path="url(#clip600)" d="M1934.95 45.1919 L1934.95 72.576 L1927.49 72.576 L1927.49 45.4349 Q1927.49 38.994 1924.98 35.7938 Q1922.47 32.5936 1917.45 32.5936 Q1911.41 32.5936 1907.93 36.4419 Q1904.44 40.2903 1904.44 46.9338 L1904.44 72.576 L1896.95 72.576 L1896.95 27.2059 L1904.44 27.2059 L1904.44 34.2544 Q1907.12 30.163 1910.72 28.1376 Q1914.37 26.1121 1919.11 26.1121 Q1926.93 26.1121 1930.94 30.9732 Q1934.95 35.7938 1934.95 45.1919 Z" fill="#000000" fill-rule="nonzero" fill-opacity="1" /><path clip-path="url(#clip600)" d="M1979.67 34.0924 L1979.67 9.54393 L1987.12 9.54393 L1987.12 72.576 L1979.67 72.576 L1979.67 65.7705 Q1977.32 69.8214 1973.71 71.8063 Q1970.15 73.7508 1965.13 73.7508 Q1956.9 73.7508 1951.72 67.1883 Q1946.57 60.6258 1946.57 49.9314 Q1946.57 39.2371 1951.72 32.6746 Q1956.9 26.1121 1965.13 26.1121 Q1970.15 26.1121 1973.71 28.0971 Q1977.32 30.0415 1979.67 34.0924 M1954.27 49.9314 Q1954.27 58.1548 1957.63 62.8538 Q1961.03 67.5124 1966.95 67.5124 Q1972.86 67.5124 1976.27 62.8538 Q1979.67 58.1548 1979.67 49.9314 Q1979.67 41.7081 1976.27 37.0496 Q1972.86 32.3505 1966.95 32.3505 Q1961.03 32.3505 1957.63 37.0496 Q1954.27 41.7081 1954.27 49.9314 Z" fill="#000000" fill-rule="nonzero" fill-opacity="1" /><polyline clip-path="url(#clip602)" style="stroke:#009af9; stroke-linecap:round; stroke-linejoin:round; stroke-width:12; stroke-opacity:1; fill:none" points="274.533,1160.21 294.914,510.399 315.295,457.587 335.675,426.692 356.056,404.772 376.437,387.768 396.818,373.876 417.198,362.129 437.579,351.954 457.96,342.979 478.34,334.951 498.721,327.688 519.102,321.058 539.483,314.958 559.863,309.311 580.244,304.054 600.625,299.136 621.006,294.516 641.386,290.161 661.767,286.041 682.148,282.132 702.528,278.414 722.909,274.869 743.29,271.482 763.671,268.239 784.051,265.128 804.432,262.14 824.813,259.264 845.194,256.493 865.574,253.819 885.955,251.235 906.336,248.737 926.716,246.317 947.097,243.972 967.478,241.698 987.859,239.489 1008.24,237.342 1028.62,235.254 1049,233.222 1069.38,231.243 1089.76,229.313 1110.14,227.432 1130.52,225.596 1150.9,223.802 1171.29,222.051 1191.67,220.338 1212.05,218.663 1232.43,217.025 1252.81,215.42 1273.19,213.849 1293.57,212.309 1313.95,210.8 1334.33,209.321 1354.71,207.869 1375.09,206.445 1395.47,205.047 1415.85,203.674 1436.23,202.325 1456.62,201 1477,199.697 1497.38,198.416 1517.76,197.157 1538.14,195.918 1558.52,194.698 1578.9,193.498 1599.28,192.317 1619.66,191.153 1640.04,190.008 1660.42,188.879 1680.8,187.766 1701.18,186.67 1721.56,185.589 1741.95,184.523 1762.33,183.472 1782.71,182.435 1803.09,181.412 1823.47,180.403 1843.85,179.407 1864.23,178.424 1884.61,177.453 1904.99,176.494 1925.37,175.548 1945.75,174.613 1966.13,173.689 1986.51,172.776 2006.89,171.875 2027.28,170.983 2047.66,170.102 2068.04,169.232 2088.42,168.371 2108.8,167.519 2129.18,166.677 2149.56,165.844 2169.94,165.02 2190.32,164.205 2210.7,163.399 2231.08,162.601 2251.46,161.811 2271.84,161.03 2292.23,160.256 "/>
<polyline clip-path="url(#clip602)" style="stroke:#e26f46; stroke-linecap:round; stroke-linejoin:round; stroke-width:12; stroke-opacity:1; fill:none" points="274.533,1272.78 294.914,622.975 315.295,570.163 335.675,539.269 356.056,517.348 376.437,500.345 396.818,486.452 417.198,474.706 437.579,464.531 457.96,455.555 478.34,447.527 498.721,440.264 519.102,433.634 539.483,427.535 559.863,421.888 580.244,416.63 600.625,411.712 621.006,407.093 641.386,402.737 661.767,398.617 682.148,394.709 702.528,390.991 722.909,387.446 743.29,384.058 763.671,380.815 784.051,377.705 804.432,374.716 824.813,371.84 845.194,369.069 865.574,366.395 885.955,363.812 906.336,361.313 926.716,358.894 947.097,356.549 967.478,354.274 987.859,352.065 1008.24,349.918 1028.62,347.83 1049,345.798 1069.38,343.819 1089.76,341.89 1110.14,340.008 1130.52,338.172 1150.9,336.379 1171.29,334.627 1191.67,332.914 1212.05,331.24 1232.43,329.601 1252.81,327.997 1273.19,326.425 1293.57,324.886 1313.95,323.377 1334.33,321.897 1354.71,320.446 1375.09,319.021 1395.47,317.623 1415.85,316.25 1436.23,314.901 1456.62,313.576 1477,312.273 1497.38,310.993 1517.76,309.733 1538.14,308.494 1558.52,307.275 1578.9,306.075 1599.28,304.893 1619.66,303.73 1640.04,302.584 1660.42,301.455 1680.8,300.342 1701.18,299.246 1721.56,298.165 1741.95,297.099 1762.33,296.048 1782.71,295.012 1803.09,293.989 1823.47,292.979 1843.85,291.983 1864.23,291 1884.61,290.029 1904.99,289.071 1925.37,288.124 1945.75,287.189 1966.13,286.265 1986.51,285.353 2006.89,284.451 2027.28,283.56 2047.66,282.679 2068.04,281.808 2088.42,280.947 2108.8,280.095 2129.18,279.253 2149.56,278.421 2169.94,277.597 2190.32,276.782 2210.7,275.975 2231.08,275.177 2251.46,274.388 2271.84,273.606 2292.23,272.833 "/>
<polyline clip-path="url(#clip602)" style="stroke:#3da44d; stroke-linecap:round; stroke-linejoin:round; stroke-width:12; stroke-opacity:1; fill:none" points="274.533,1386.4 294.914,736.588 315.295,683.776 335.675,652.881 356.056,630.961 376.437,613.958 396.818,600.065 417.198,588.319 437.579,578.143 457.96,569.168 478.34,561.14 498.721,553.877 519.102,547.247 539.483,541.148 559.863,535.5 580.244,530.243 600.625,525.325 621.006,520.706 641.386,516.35 661.767,512.23 682.148,508.321 702.528,504.604 722.909,501.059 743.29,497.671 763.671,494.428 784.051,491.318 804.432,488.329 824.813,485.453 845.194,482.682 865.574,480.008 885.955,477.424 906.336,474.926 926.716,472.507 947.097,470.162 967.478,467.887 987.859,465.678 1008.24,463.531 1028.62,461.443 1049,459.411 1069.38,457.432 1089.76,455.503 1110.14,453.621 1130.52,451.785 1150.9,449.992 1171.29,448.24 1191.67,446.527 1212.05,444.853 1232.43,443.214 1252.81,441.609 1273.19,440.038 1293.57,438.499 1313.95,436.99 1334.33,435.51 1354.71,434.059 1375.09,432.634 1395.47,431.236 1415.85,429.863 1436.23,428.514 1456.62,427.189 1477,425.886 1497.38,424.606 1517.76,423.346 1538.14,422.107 1558.52,420.888 1578.9,419.688 1599.28,418.506 1619.66,417.343 1640.04,416.197 1660.42,415.068 1680.8,413.955 1701.18,412.859 1721.56,411.778 1741.95,410.712 1762.33,409.661 1782.71,408.624 1803.09,407.602 1823.47,406.592 1843.85,405.596 1864.23,404.613 1884.61,403.642 1904.99,402.684 1925.37,401.737 1945.75,400.802 1966.13,399.878 1986.51,398.966 2006.89,398.064 2027.28,397.173 2047.66,396.292 2068.04,395.421 2088.42,394.56 2108.8,393.708 2129.18,392.866 2149.56,392.034 2169.94,391.21 2190.32,390.395 2210.7,389.588 2231.08,388.79 2251.46,388.001 2271.84,387.219 2292.23,386.446 "/>
<path clip-path="url(#clip600)" d="M1948.49 374.156 L2281.46 374.156 L2281.46 166.796 L1948.49 166.796  Z" fill="#ffffff" fill-rule="evenodd" fill-opacity="1"/>
<polyline clip-path="url(#clip600)" style="stroke:#000000; stroke-linecap:round; stroke-linejoin:round; stroke-width:4; stroke-opacity:1; fill:none" points="1948.49,374.156 2281.46,374.156 2281.46,166.796 1948.49,166.796 1948.49,374.156 "/>
<polyline clip-path="url(#clip600)" style="stroke:#009af9; stroke-linecap:round; stroke-linejoin:round; stroke-width:12; stroke-opacity:1; fill:none" points="1972.26,218.636 2114.84,218.636 "/>
<path clip-path="url(#clip600)" d="M2144.23 231.981 L2160.55 231.981 L2160.55 235.916 L2138.6 235.916 L2138.6 231.981 Q2141.27 229.226 2145.85 224.596 Q2150.46 219.944 2151.64 218.601 Q2153.88 216.078 2154.76 214.342 Q2155.66 212.583 2155.66 210.893 Q2155.66 208.138 2153.72 206.402 Q2151.8 204.666 2148.7 204.666 Q2146.5 204.666 2144.04 205.43 Q2141.61 206.194 2138.84 207.745 L2138.84 203.022 Q2141.66 201.888 2144.11 201.309 Q2146.57 200.731 2148.6 200.731 Q2153.97 200.731 2157.17 203.416 Q2160.36 206.101 2160.36 210.592 Q2160.36 212.721 2159.55 214.643 Q2158.77 216.541 2156.66 219.133 Q2156.08 219.805 2152.98 223.022 Q2149.88 226.217 2144.23 231.981 Z" fill="#000000" fill-rule="nonzero" fill-opacity="1" /><path clip-path="url(#clip600)" d="M2183.21 205.43 L2171.4 223.879 L2183.21 223.879 L2183.21 205.43 M2181.98 201.356 L2187.86 201.356 L2187.86 223.879 L2192.79 223.879 L2192.79 227.768 L2187.86 227.768 L2187.86 235.916 L2183.21 235.916 L2183.21 227.768 L2167.61 227.768 L2167.61 223.254 L2181.98 201.356 Z" fill="#000000" fill-rule="nonzero" fill-opacity="1" /><path clip-path="url(#clip600)" d="M2200.66 235.198 L2200.66 230.939 Q2202.42 231.772 2204.23 232.212 Q2206.03 232.652 2207.77 232.652 Q2212.4 232.652 2214.83 229.55 Q2217.28 226.425 2217.63 220.082 Q2216.29 222.073 2214.23 223.138 Q2212.17 224.203 2209.67 224.203 Q2204.48 224.203 2201.45 221.078 Q2198.44 217.93 2198.44 212.49 Q2198.44 207.166 2201.59 203.948 Q2204.74 200.731 2209.97 200.731 Q2215.96 200.731 2219.11 205.337 Q2222.28 209.92 2222.28 218.67 Q2222.28 226.842 2218.39 231.726 Q2214.53 236.587 2207.98 236.587 Q2206.22 236.587 2204.41 236.24 Q2202.61 235.893 2200.66 235.198 M2209.97 220.545 Q2213.12 220.545 2214.95 218.393 Q2216.8 216.24 2216.8 212.49 Q2216.8 208.763 2214.95 206.61 Q2213.12 204.434 2209.97 204.434 Q2206.82 204.434 2204.97 206.61 Q2203.14 208.763 2203.14 212.49 Q2203.14 216.24 2204.97 218.393 Q2206.82 220.545 2209.97 220.545 Z" fill="#000000" fill-rule="nonzero" fill-opacity="1" /><path clip-path="url(#clip600)" d="M2230.27 201.356 L2234.95 201.356 L2234.95 215.962 L2250.45 201.356 L2256.47 201.356 L2239.32 217.467 L2257.7 235.916 L2251.54 235.916 L2234.95 219.272 L2234.95 235.916 L2230.27 235.916 L2230.27 201.356 Z" fill="#000000" fill-rule="nonzero" fill-opacity="1" /><polyline clip-path="url(#clip600)" style="stroke:#e26f46; stroke-linecap:round; stroke-linejoin:round; stroke-width:12; stroke-opacity:1; fill:none" points="1972.26,270.476 2114.84,270.476 "/>
<path clip-path="url(#clip600)" d="M2144.23 283.821 L2160.55 283.821 L2160.55 287.756 L2138.6 287.756 L2138.6 283.821 Q2141.27 281.066 2145.85 276.436 Q2150.46 271.784 2151.64 270.441 Q2153.88 267.918 2154.76 266.182 Q2155.66 264.423 2155.66 262.733 Q2155.66 259.978 2153.72 258.242 Q2151.8 256.506 2148.7 256.506 Q2146.5 256.506 2144.04 257.27 Q2141.61 258.034 2138.84 259.585 L2138.84 254.862 Q2141.66 253.728 2144.11 253.149 Q2146.57 252.571 2148.6 252.571 Q2153.97 252.571 2157.17 255.256 Q2160.36 257.941 2160.36 262.432 Q2160.36 264.561 2159.55 266.483 Q2158.77 268.381 2156.66 270.973 Q2156.08 271.645 2152.98 274.862 Q2149.88 278.057 2144.23 283.821 Z" fill="#000000" fill-rule="nonzero" fill-opacity="1" /><path clip-path="url(#clip600)" d="M2170.41 253.196 L2188.77 253.196 L2188.77 257.131 L2174.69 257.131 L2174.69 265.603 Q2175.71 265.256 2176.73 265.094 Q2177.75 264.909 2178.77 264.909 Q2184.55 264.909 2187.93 268.08 Q2191.31 271.251 2191.31 276.668 Q2191.31 282.246 2187.84 285.348 Q2184.37 288.427 2178.05 288.427 Q2175.87 288.427 2173.6 288.057 Q2171.36 287.686 2168.95 286.946 L2168.95 282.246 Q2171.03 283.381 2173.26 283.936 Q2175.48 284.492 2177.96 284.492 Q2181.96 284.492 2184.3 282.385 Q2186.64 280.279 2186.64 276.668 Q2186.64 273.057 2184.3 270.95 Q2181.96 268.844 2177.96 268.844 Q2176.08 268.844 2174.21 269.26 Q2172.35 269.677 2170.41 270.557 L2170.41 253.196 Z" fill="#000000" fill-rule="nonzero" fill-opacity="1" /><path clip-path="url(#clip600)" d="M2210.52 256.274 Q2206.91 256.274 2205.08 259.839 Q2203.28 263.381 2203.28 270.51 Q2203.28 277.617 2205.08 281.182 Q2206.91 284.723 2210.52 284.723 Q2214.16 284.723 2215.96 281.182 Q2217.79 277.617 2217.79 270.51 Q2217.79 263.381 2215.96 259.839 Q2214.16 256.274 2210.52 256.274 M2210.52 252.571 Q2216.33 252.571 2219.39 257.177 Q2222.47 261.76 2222.47 270.51 Q2222.47 279.237 2219.39 283.844 Q2216.33 288.427 2210.52 288.427 Q2204.71 288.427 2201.64 283.844 Q2198.58 279.237 2198.58 270.51 Q2198.58 261.76 2201.64 257.177 Q2204.71 252.571 2210.52 252.571 Z" fill="#000000" fill-rule="nonzero" fill-opacity="1" /><path clip-path="url(#clip600)" d="M2230.27 253.196 L2234.95 253.196 L2234.95 267.802 L2250.45 253.196 L2256.47 253.196 L2239.32 269.307 L2257.7 287.756 L2251.54 287.756 L2234.95 271.112 L2234.95 287.756 L2230.27 287.756 L2230.27 253.196 Z" fill="#000000" fill-rule="nonzero" fill-opacity="1" /><polyline clip-path="url(#clip600)" style="stroke:#3da44d; stroke-linecap:round; stroke-linejoin:round; stroke-width:12; stroke-opacity:1; fill:none" points="1972.26,322.316 2114.84,322.316 "/>
<path clip-path="url(#clip600)" d="M2144.23 335.661 L2160.55 335.661 L2160.55 339.596 L2138.6 339.596 L2138.6 335.661 Q2141.27 332.906 2145.85 328.276 Q2150.46 323.624 2151.64 322.281 Q2153.88 319.758 2154.76 318.022 Q2155.66 316.263 2155.66 314.573 Q2155.66 311.818 2153.72 310.082 Q2151.8 308.346 2148.7 308.346 Q2146.5 308.346 2144.04 309.11 Q2141.61 309.874 2138.84 311.425 L2138.84 306.702 Q2141.66 305.568 2144.11 304.989 Q2146.57 304.411 2148.6 304.411 Q2153.97 304.411 2157.17 307.096 Q2160.36 309.781 2160.36 314.272 Q2160.36 316.401 2159.55 318.323 Q2158.77 320.221 2156.66 322.813 Q2156.08 323.485 2152.98 326.702 Q2149.88 329.897 2144.23 335.661 Z" fill="#000000" fill-rule="nonzero" fill-opacity="1" /><path clip-path="url(#clip600)" d="M2170.41 305.036 L2188.77 305.036 L2188.77 308.971 L2174.69 308.971 L2174.69 317.443 Q2175.71 317.096 2176.73 316.934 Q2177.75 316.749 2178.77 316.749 Q2184.55 316.749 2187.93 319.92 Q2191.31 323.091 2191.31 328.508 Q2191.31 334.086 2187.84 337.188 Q2184.37 340.267 2178.05 340.267 Q2175.87 340.267 2173.6 339.897 Q2171.36 339.526 2168.95 338.786 L2168.95 334.086 Q2171.03 335.221 2173.26 335.776 Q2175.48 336.332 2177.96 336.332 Q2181.96 336.332 2184.3 334.225 Q2186.64 332.119 2186.64 328.508 Q2186.64 324.897 2184.3 322.79 Q2181.96 320.684 2177.96 320.684 Q2176.08 320.684 2174.21 321.1 Q2172.35 321.517 2170.41 322.397 L2170.41 305.036 Z" fill="#000000" fill-rule="nonzero" fill-opacity="1" /><path clip-path="url(#clip600)" d="M2201.33 335.661 L2208.97 335.661 L2208.97 309.295 L2200.66 310.962 L2200.66 306.702 L2208.93 305.036 L2213.6 305.036 L2213.6 335.661 L2221.24 335.661 L2221.24 339.596 L2201.33 339.596 L2201.33 335.661 Z" fill="#000000" fill-rule="nonzero" fill-opacity="1" /><path clip-path="url(#clip600)" d="M2230.27 305.036 L2234.95 305.036 L2234.95 319.642 L2250.45 305.036 L2256.47 305.036 L2239.32 321.147 L2257.7 339.596 L2251.54 339.596 L2234.95 322.952 L2234.95 339.596 L2230.27 339.596 L2230.27 305.036 Z" fill="#000000" fill-rule="nonzero" fill-opacity="1" /></svg>
