<?xml version="1.0" encoding="utf-8"?>
<svg xmlns="http://www.w3.org/2000/svg" xmlns:xlink="http://www.w3.org/1999/xlink" width="600" height="400" viewBox="0 0 2400 1600">
<defs>
  <clipPath id="clip570">
    <rect x="0" y="0" width="2400" height="1600"/>
  </clipPath>
</defs>
<path clip-path="url(#clip570)" d="M0 1600 L2400 1600 L2400 0 L0 0  Z" fill="#ffffff" fill-rule="evenodd" fill-opacity="1"/>
<defs>
  <clipPath id="clip571">
    <rect x="480" y="0" width="1681" height="1600"/>
  </clipPath>
</defs>
<path clip-path="url(#clip570)" d="M213.607 1423.18 L2352.76 1423.18 L2352.76 123.472 L213.607 123.472  Z" fill="#ffffff" fill-rule="evenodd" fill-opacity="1"/>
<defs>
  <clipPath id="clip572">
    <rect x="213" y="123" width="2140" height="1301"/>
  </clipPath>
</defs>
<polyline clip-path="url(#clip572)" style="stroke:#000000; stroke-linecap:round; stroke-linejoin:round; stroke-width:2; stroke-opacity:0.1; fill:none" points="274.145,1423.18 274.145,123.472 "/>
<polyline clip-path="url(#clip572)" style="stroke:#000000; stroke-linecap:round; stroke-linejoin:round; stroke-width:2; stroke-opacity:0.1; fill:none" points="677.759,1423.18 677.759,123.472 "/>
<polyline clip-path="url(#clip572)" style="stroke:#000000; stroke-linecap:round; stroke-linejoin:round; stroke-width:2; stroke-opacity:0.1; fill:none" points="1081.37,1423.18 1081.37,123.472 "/>
<polyline clip-path="url(#clip572)" style="stroke:#000000; stroke-linecap:round; stroke-linejoin:round; stroke-width:2; stroke-opacity:0.1; fill:none" points="1484.99,1423.18 1484.99,123.472 "/>
<polyline clip-path="url(#clip572)" style="stroke:#000000; stroke-linecap:round; stroke-linejoin:round; stroke-width:2; stroke-opacity:0.1; fill:none" points="1888.6,1423.18 1888.6,123.472 "/>
<polyline clip-path="url(#clip572)" style="stroke:#000000; stroke-linecap:round; stroke-linejoin:round; stroke-width:2; stroke-opacity:0.1; fill:none" points="2292.21,1423.18 2292.21,123.472 "/>
<polyline clip-path="url(#clip570)" style="stroke:#000000; stroke-linecap:round; stroke-linejoin:round; stroke-width:4; stroke-opacity:1; fill:none" points="213.607,1423.18 2352.76,1423.18 "/>
<polyline clip-path="url(#clip570)" style="stroke:#000000; stroke-linecap:round; stroke-linejoin:round; stroke-width:4; stroke-opacity:1; fill:none" points="274.145,1423.18 274.145,1404.28 "/>
<polyline clip-path="url(#clip570)" style="stroke:#000000; stroke-linecap:round; stroke-linejoin:round; stroke-width:4; stroke-opacity:1; fill:none" points="677.759,1423.18 677.759,1404.28 "/>
<polyline clip-path="url(#clip570)" style="stroke:#000000; stroke-linecap:round; stroke-linejoin:round; stroke-width:4; stroke-opacity:1; fill:none" points="1081.37,1423.18 1081.37,1404.28 "/>
<polyline clip-path="url(#clip570)" style="stroke:#000000; stroke-linecap:round; stroke-linejoin:round; stroke-width:4; stroke-opacity:1; fill:none" points="1484.99,1423.18 1484.99,1404.28 "/>
<polyline clip-path="url(#clip570)" style="stroke:#000000; stroke-linecap:round; stroke-linejoin:round; stroke-width:4; stroke-opacity:1; fill:none" points="1888.6,1423.18 1888.6,1404.28 "/>
<polyline clip-path="url(#clip570)" style="stroke:#000000; stroke-linecap:round; stroke-linejoin:round; stroke-width:4; stroke-opacity:1; fill:none" points="2292.21,1423.18 2292.21,1404.28 "/>
<path clip-path="url(#clip570)" d="M274.145 1454.1 Q270.534 1454.1 268.706 1457.66 Q266.9 1461.2 266.9 1468.33 Q266.9 1475.44 268.706 1479.01 Q270.534 1482.55 274.145 1482.55 Q277.78 1482.55 279.585 1479.01 Q281.414 1475.44 281.414 1468.33 Q281.414 1461.2 279.585 1457.66 Q277.78 1454.1 274.145 1454.1 M274.145 1450.39 Q279.956 1450.39 283.011 1455 Q286.09 1459.58 286.09 1468.33 Q286.09 1477.06 283.011 1481.67 Q279.956 1486.25 274.145 1486.25 Q268.335 1486.25 265.257 1481.67 Q262.201 1477.06 262.201 1468.33 Q262.201 1459.58 265.257 1455 Q268.335 1450.39 274.145 1450.39 Z" fill="#000000" fill-rule="nonzero" fill-opacity="1" /><path clip-path="url(#clip570)" d="M668.141 1481.64 L675.78 1481.64 L675.78 1455.28 L667.47 1456.95 L667.47 1452.69 L675.734 1451.02 L680.41 1451.02 L680.41 1481.64 L688.048 1481.64 L688.048 1485.58 L668.141 1485.58 L668.141 1481.64 Z" fill="#000000" fill-rule="nonzero" fill-opacity="1" /><path clip-path="url(#clip570)" d="M1076.03 1481.64 L1092.34 1481.64 L1092.34 1485.58 L1070.4 1485.58 L1070.4 1481.64 Q1073.06 1478.89 1077.65 1474.26 Q1082.25 1469.61 1083.43 1468.27 Q1085.68 1465.74 1086.56 1464.01 Q1087.46 1462.25 1087.46 1460.56 Q1087.46 1457.8 1085.52 1456.07 Q1083.6 1454.33 1080.49 1454.33 Q1078.29 1454.33 1075.84 1455.09 Q1073.41 1455.86 1070.63 1457.41 L1070.63 1452.69 Q1073.46 1451.55 1075.91 1450.97 Q1078.36 1450.39 1080.4 1450.39 Q1085.77 1450.39 1088.97 1453.08 Q1092.16 1455.77 1092.16 1460.26 Q1092.16 1462.39 1091.35 1464.31 Q1090.56 1466.2 1088.46 1468.8 Q1087.88 1469.47 1084.78 1472.69 Q1081.67 1475.88 1076.03 1481.64 Z" fill="#000000" fill-rule="nonzero" fill-opacity="1" /><path clip-path="url(#clip570)" d="M1489.23 1466.95 Q1492.59 1467.66 1494.47 1469.93 Q1496.36 1472.2 1496.36 1475.53 Q1496.36 1480.65 1492.85 1483.45 Q1489.33 1486.25 1482.85 1486.25 Q1480.67 1486.25 1478.35 1485.81 Q1476.06 1485.39 1473.61 1484.54 L1473.61 1480.02 Q1475.55 1481.16 1477.87 1481.74 Q1480.18 1482.32 1482.71 1482.32 Q1487.1 1482.32 1489.4 1480.58 Q1491.71 1478.84 1491.71 1475.53 Q1491.71 1472.48 1489.56 1470.77 Q1487.43 1469.03 1483.61 1469.03 L1479.58 1469.03 L1479.58 1465.19 L1483.79 1465.19 Q1487.24 1465.19 1489.07 1463.82 Q1490.9 1462.43 1490.9 1459.84 Q1490.9 1457.18 1489 1455.77 Q1487.13 1454.33 1483.61 1454.33 Q1481.69 1454.33 1479.49 1454.75 Q1477.29 1455.16 1474.65 1456.04 L1474.65 1451.88 Q1477.31 1451.14 1479.63 1450.77 Q1481.97 1450.39 1484.03 1450.39 Q1489.35 1450.39 1492.45 1452.83 Q1495.55 1455.23 1495.55 1459.35 Q1495.55 1462.22 1493.91 1464.21 Q1492.27 1466.18 1489.23 1466.95 Z" fill="#000000" fill-rule="nonzero" fill-opacity="1" /><path clip-path="url(#clip570)" d="M1891.61 1455.09 L1879.8 1473.54 L1891.61 1473.54 L1891.61 1455.09 M1890.38 1451.02 L1896.26 1451.02 L1896.26 1473.54 L1901.19 1473.54 L1901.19 1477.43 L1896.26 1477.43 L1896.26 1485.58 L1891.61 1485.58 L1891.61 1477.43 L1876.01 1477.43 L1876.01 1472.92 L1890.38 1451.02 Z" fill="#000000" fill-rule="nonzero" fill-opacity="1" /><path clip-path="url(#clip570)" d="M2282.49 1451.02 L2300.85 1451.02 L2300.85 1454.96 L2286.77 1454.96 L2286.77 1463.43 Q2287.79 1463.08 2288.81 1462.92 Q2289.83 1462.73 2290.85 1462.73 Q2296.64 1462.73 2300.01 1465.9 Q2303.39 1469.08 2303.39 1474.49 Q2303.39 1480.07 2299.92 1483.17 Q2296.45 1486.25 2290.13 1486.25 Q2287.95 1486.25 2285.69 1485.88 Q2283.44 1485.51 2281.03 1484.77 L2281.03 1480.07 Q2283.12 1481.2 2285.34 1481.76 Q2287.56 1482.32 2290.04 1482.32 Q2294.04 1482.32 2296.38 1480.21 Q2298.72 1478.1 2298.72 1474.49 Q2298.72 1470.88 2296.38 1468.77 Q2294.04 1466.67 2290.04 1466.67 Q2288.16 1466.67 2286.29 1467.08 Q2284.44 1467.5 2282.49 1468.38 L2282.49 1451.02 Z" fill="#000000" fill-rule="nonzero" fill-opacity="1" /><path clip-path="url(#clip570)" d="M1076.38 1550.25 Q1076.38 1556.71 1079.02 1560.4 Q1081.69 1564.07 1086.34 1564.07 Q1090.99 1564.07 1093.66 1560.4 Q1096.33 1556.71 1096.33 1550.25 Q1096.33 1543.79 1093.66 1540.13 Q1090.99 1536.44 1086.34 1536.44 Q1081.69 1536.44 1079.02 1540.13 Q1076.38 1543.79 1076.38 1550.25 M1096.33 1562.7 Q1094.49 1565.88 1091.65 1567.44 Q1088.85 1568.97 1084.91 1568.97 Q1078.44 1568.97 1074.37 1563.81 Q1070.33 1558.65 1070.33 1550.25 Q1070.33 1541.85 1074.37 1536.69 Q1078.44 1531.54 1084.91 1531.54 Q1088.85 1531.54 1091.65 1533.1 Q1094.49 1534.62 1096.33 1537.81 L1096.33 1532.4 L1102.19 1532.4 L1102.19 1581.6 L1096.33 1581.6 L1096.33 1562.7 Z" fill="#000000" fill-rule="nonzero" fill-opacity="1" /><path clip-path="url(#clip570)" d="M1141.34 1578.87 L1141.34 1583.42 L1107.47 1583.42 L1107.47 1578.87 L1141.34 1578.87 Z" fill="#000000" fill-rule="nonzero" fill-opacity="1" /><path clip-path="url(#clip570)" d="M1167.5 1537.87 Q1166.51 1537.3 1165.34 1537.04 Q1164.19 1536.76 1162.79 1536.76 Q1157.83 1536.76 1155.15 1540 Q1152.51 1543.22 1152.51 1549.27 L1152.51 1568.04 L1146.62 1568.04 L1146.62 1532.4 L1152.51 1532.4 L1152.51 1537.93 Q1154.36 1534.69 1157.32 1533.13 Q1160.28 1531.54 1164.51 1531.54 Q1165.11 1531.54 1165.85 1531.63 Q1166.58 1531.7 1167.47 1531.85 L1167.5 1537.87 Z" fill="#000000" fill-rule="nonzero" fill-opacity="1" /><path clip-path="url(#clip570)" d="M1189.84 1550.12 Q1182.75 1550.12 1180.01 1551.75 Q1177.27 1553.37 1177.27 1557.29 Q1177.27 1560.4 1179.31 1562.25 Q1181.38 1564.07 1184.91 1564.07 Q1189.78 1564.07 1192.71 1560.63 Q1195.67 1557.16 1195.67 1551.43 L1195.67 1550.12 L1189.84 1550.12 M1201.53 1547.71 L1201.53 1568.04 L1195.67 1568.04 L1195.67 1562.63 Q1193.66 1565.88 1190.67 1567.44 Q1187.68 1568.97 1183.35 1568.97 Q1177.88 1568.97 1174.63 1565.91 Q1171.42 1562.82 1171.42 1557.67 Q1171.42 1551.65 1175.43 1548.6 Q1179.47 1545.54 1187.46 1545.54 L1195.67 1545.54 L1195.67 1544.97 Q1195.67 1540.93 1193 1538.73 Q1190.35 1536.5 1185.55 1536.5 Q1182.49 1536.5 1179.6 1537.23 Q1176.7 1537.97 1174.03 1539.43 L1174.03 1534.02 Q1177.24 1532.78 1180.26 1532.17 Q1183.29 1531.54 1186.15 1531.54 Q1193.89 1531.54 1197.71 1535.55 Q1201.53 1539.56 1201.53 1547.71 Z" fill="#000000" fill-rule="nonzero" fill-opacity="1" /><path clip-path="url(#clip570)" d="M1213.59 1532.4 L1219.45 1532.4 L1219.45 1568.04 L1213.59 1568.04 L1213.59 1532.4 M1213.59 1518.52 L1219.45 1518.52 L1219.45 1525.93 L1213.59 1525.93 L1213.59 1518.52 Z" fill="#000000" fill-rule="nonzero" fill-opacity="1" /><path clip-path="url(#clip570)" d="M1261.33 1546.53 L1261.33 1568.04 L1255.47 1568.04 L1255.47 1546.72 Q1255.47 1541.66 1253.5 1539.14 Q1251.53 1536.63 1247.58 1536.63 Q1242.84 1536.63 1240.1 1539.65 Q1237.36 1542.68 1237.36 1547.9 L1237.36 1568.04 L1231.48 1568.04 L1231.48 1532.4 L1237.36 1532.4 L1237.36 1537.93 Q1239.47 1534.72 1242.3 1533.13 Q1245.16 1531.54 1248.89 1531.54 Q1255.03 1531.54 1258.18 1535.36 Q1261.33 1539.14 1261.33 1546.53 Z" fill="#000000" fill-rule="nonzero" fill-opacity="1" /><path clip-path="url(#clip570)" d="M1293.19 1518.52 L1306.69 1518.52 L1306.69 1523.07 L1299.05 1523.07 L1299.05 1572.09 L1306.69 1572.09 L1306.69 1576.64 L1293.19 1576.64 L1293.19 1518.52 Z" fill="#000000" fill-rule="nonzero" fill-opacity="1" /><path clip-path="url(#clip570)" d="M1342.62 1549.81 Q1342.62 1543.44 1339.98 1539.94 Q1337.37 1536.44 1332.63 1536.44 Q1327.92 1536.44 1325.27 1539.94 Q1322.66 1543.44 1322.66 1549.81 Q1322.66 1556.14 1325.27 1559.64 Q1327.92 1563.14 1332.63 1563.14 Q1337.37 1563.14 1339.98 1559.64 Q1342.62 1556.14 1342.62 1549.81 M1348.48 1563.62 Q1348.48 1572.72 1344.44 1577.15 Q1340.39 1581.6 1332.05 1581.6 Q1328.97 1581.6 1326.23 1581.13 Q1323.49 1580.68 1320.91 1579.72 L1320.91 1574.03 Q1323.49 1575.43 1326.01 1576.1 Q1328.52 1576.76 1331.13 1576.76 Q1336.89 1576.76 1339.76 1573.74 Q1342.62 1570.75 1342.62 1564.67 L1342.62 1561.77 Q1340.81 1564.92 1337.97 1566.48 Q1335.14 1568.04 1331.2 1568.04 Q1324.64 1568.04 1320.63 1563.05 Q1316.62 1558.05 1316.62 1549.81 Q1316.62 1541.53 1320.63 1536.53 Q1324.64 1531.54 1331.2 1531.54 Q1335.14 1531.54 1337.97 1533.1 Q1340.81 1534.66 1342.62 1537.81 L1342.62 1532.4 L1348.48 1532.4 L1348.48 1563.62 Z" fill="#000000" fill-rule="nonzero" fill-opacity="1" /><path clip-path="url(#clip570)" d="M1370.95 1520.52 L1376.36 1520.52 L1359.81 1574.09 L1354.4 1574.09 L1370.95 1520.52 Z" fill="#000000" fill-rule="nonzero" fill-opacity="1" /><path clip-path="url(#clip570)" d="M1403 1518.52 L1408.89 1518.52 L1408.89 1547.77 L1426.36 1532.4 L1433.84 1532.4 L1414.94 1549.07 L1434.64 1568.04 L1427 1568.04 L1408.89 1550.63 L1408.89 1568.04 L1403 1568.04 L1403 1518.52 Z" fill="#000000" fill-rule="nonzero" fill-opacity="1" /><path clip-path="url(#clip570)" d="M1464.43 1549.81 Q1464.43 1543.44 1461.79 1539.94 Q1459.18 1536.44 1454.44 1536.44 Q1449.72 1536.44 1447.08 1539.94 Q1444.47 1543.44 1444.47 1549.81 Q1444.47 1556.14 1447.08 1559.64 Q1449.72 1563.14 1454.44 1563.14 Q1459.18 1563.14 1461.79 1559.64 Q1464.43 1556.14 1464.43 1549.81 M1470.29 1563.62 Q1470.29 1572.72 1466.24 1577.15 Q1462.2 1581.6 1453.86 1581.6 Q1450.77 1581.6 1448.04 1581.13 Q1445.3 1580.68 1442.72 1579.72 L1442.72 1574.03 Q1445.3 1575.43 1447.81 1576.1 Q1450.33 1576.76 1452.94 1576.76 Q1458.7 1576.76 1461.56 1573.74 Q1464.43 1570.75 1464.43 1564.67 L1464.43 1561.77 Q1462.62 1564.92 1459.78 1566.48 Q1456.95 1568.04 1453 1568.04 Q1446.45 1568.04 1442.44 1563.05 Q1438.43 1558.05 1438.43 1549.81 Q1438.43 1541.53 1442.44 1536.53 Q1446.45 1531.54 1453 1531.54 Q1456.95 1531.54 1459.78 1533.1 Q1462.62 1534.66 1464.43 1537.81 L1464.43 1532.4 L1470.29 1532.4 L1470.29 1563.62 Z" fill="#000000" fill-rule="nonzero" fill-opacity="1" /><path clip-path="url(#clip570)" d="M1496.04 1518.52 L1496.04 1576.64 L1482.54 1576.64 L1482.54 1572.09 L1490.15 1572.09 L1490.15 1523.07 L1482.54 1523.07 L1482.54 1518.52 L1496.04 1518.52 Z" fill="#000000" fill-rule="nonzero" fill-opacity="1" /><polyline clip-path="url(#clip572)" style="stroke:#000000; stroke-linecap:round; stroke-linejoin:round; stroke-width:2; stroke-opacity:0.1; fill:none" points="213.607,858.864 2352.76,858.864 "/>
<polyline clip-path="url(#clip572)" style="stroke:#000000; stroke-linecap:round; stroke-linejoin:round; stroke-width:2; stroke-opacity:0.1; fill:none" points="213.607,266.966 2352.76,266.966 "/>
<polyline clip-path="url(#clip570)" style="stroke:#000000; stroke-linecap:round; stroke-linejoin:round; stroke-width:4; stroke-opacity:1; fill:none" points="213.607,1423.18 213.607,123.472 "/>
<polyline clip-path="url(#clip570)" style="stroke:#000000; stroke-linecap:round; stroke-linejoin:round; stroke-width:4; stroke-opacity:1; fill:none" points="213.607,858.864 232.505,858.864 "/>
<polyline clip-path="url(#clip570)" style="stroke:#000000; stroke-linecap:round; stroke-linejoin:round; stroke-width:4; stroke-opacity:1; fill:none" points="213.607,266.966 232.505,266.966 "/>
<path clip-path="url(#clip570)" d="M52.4722 878.656 L60.111 878.656 L60.111 852.291 L51.8009 853.958 L51.8009 849.698 L60.0647 848.032 L64.7406 848.032 L64.7406 878.656 L72.3795 878.656 L72.3795 882.592 L52.4722 882.592 L52.4722 878.656 Z" fill="#000000" fill-rule="nonzero" fill-opacity="1" /><path clip-path="url(#clip570)" d="M91.8238 851.11 Q88.2127 851.11 86.384 854.675 Q84.5785 858.217 84.5785 865.346 Q84.5785 872.453 86.384 876.018 Q88.2127 879.559 91.8238 879.559 Q95.458 879.559 97.2636 876.018 Q99.0923 872.453 99.0923 865.346 Q99.0923 858.217 97.2636 854.675 Q95.458 851.11 91.8238 851.11 M91.8238 847.407 Q97.6339 847.407 100.689 852.013 Q103.768 856.596 103.768 865.346 Q103.768 874.073 100.689 878.68 Q97.6339 883.263 91.8238 883.263 Q86.0136 883.263 82.935 878.68 Q79.8794 874.073 79.8794 865.346 Q79.8794 856.596 82.935 852.013 Q86.0136 847.407 91.8238 847.407 Z" fill="#000000" fill-rule="nonzero" fill-opacity="1" /><path clip-path="url(#clip570)" d="M103.768 841.508 L127.88 841.508 L127.88 844.705 L103.768 844.705 L103.768 841.508 Z" fill="#000000" fill-rule="nonzero" fill-opacity="1" /><path clip-path="url(#clip570)" d="M144.675 839.627 Q142.117 839.627 140.613 841.376 Q139.127 843.125 139.127 846.172 Q139.127 849.2 140.613 850.968 Q142.117 852.717 144.675 852.717 Q147.233 852.717 148.719 850.968 Q150.223 849.2 150.223 846.172 Q150.223 843.125 148.719 841.376 Q147.233 839.627 144.675 839.627 M152.217 827.722 L152.217 831.183 Q150.788 830.505 149.321 830.148 Q147.872 829.791 146.443 829.791 Q142.681 829.791 140.688 832.33 Q138.713 834.869 138.431 840.003 Q139.541 838.367 141.214 837.502 Q142.888 836.618 144.901 836.618 Q149.133 836.618 151.578 839.195 Q154.041 841.753 154.041 846.172 Q154.041 850.498 151.483 853.112 Q148.926 855.727 144.675 855.727 Q139.804 855.727 137.227 852.003 Q134.651 848.26 134.651 841.169 Q134.651 834.512 137.81 830.562 Q140.97 826.593 146.293 826.593 Q147.722 826.593 149.17 826.876 Q150.637 827.158 152.217 827.722 Z" fill="#000000" fill-rule="nonzero" fill-opacity="1" /><path clip-path="url(#clip570)" d="M160.624 827.101 L175.539 827.101 L175.539 830.299 L164.103 830.299 L164.103 837.182 Q164.931 836.9 165.759 836.768 Q166.586 836.618 167.414 836.618 Q172.116 836.618 174.862 839.195 Q177.607 841.771 177.607 846.172 Q177.607 850.705 174.786 853.225 Q171.965 855.727 166.831 855.727 Q165.063 855.727 163.22 855.426 Q161.395 855.125 159.439 854.523 L159.439 850.705 Q161.132 851.627 162.937 852.078 Q164.743 852.529 166.755 852.529 Q170.009 852.529 171.909 850.818 Q173.808 849.106 173.808 846.172 Q173.808 843.238 171.909 841.527 Q170.009 839.815 166.755 839.815 Q165.232 839.815 163.709 840.154 Q162.204 840.492 160.624 841.207 L160.624 827.101 Z" fill="#000000" fill-rule="nonzero" fill-opacity="1" /><path clip-path="url(#clip570)" d="M51.6634 286.758 L59.3023 286.758 L59.3023 260.393 L50.9921 262.059 L50.9921 257.8 L59.256 256.134 L63.9319 256.134 L63.9319 286.758 L71.5707 286.758 L71.5707 290.694 L51.6634 290.694 L51.6634 286.758 Z" fill="#000000" fill-rule="nonzero" fill-opacity="1" /><path clip-path="url(#clip570)" d="M91.0151 259.212 Q87.404 259.212 85.5753 262.777 Q83.7697 266.319 83.7697 273.448 Q83.7697 280.555 85.5753 284.12 Q87.404 287.661 91.0151 287.661 Q94.6493 287.661 96.4548 284.12 Q98.2835 280.555 98.2835 273.448 Q98.2835 266.319 96.4548 262.777 Q94.6493 259.212 91.0151 259.212 M91.0151 255.509 Q96.8252 255.509 99.8808 260.115 Q102.959 264.698 102.959 273.448 Q102.959 282.175 99.8808 286.782 Q96.8252 291.365 91.0151 291.365 Q85.2049 291.365 82.1262 286.782 Q79.0707 282.175 79.0707 273.448 Q79.0707 264.698 82.1262 260.115 Q85.2049 255.509 91.0151 255.509 Z" fill="#000000" fill-rule="nonzero" fill-opacity="1" /><path clip-path="url(#clip570)" d="M102.959 249.61 L127.071 249.61 L127.071 252.807 L102.959 252.807 L102.959 249.61 Z" fill="#000000" fill-rule="nonzero" fill-opacity="1" /><path clip-path="url(#clip570)" d="M143.866 247.729 Q141.308 247.729 139.804 249.478 Q138.318 251.227 138.318 254.274 Q138.318 257.302 139.804 259.07 Q141.308 260.819 143.866 260.819 Q146.424 260.819 147.91 259.07 Q149.415 257.302 149.415 254.274 Q149.415 251.227 147.91 249.478 Q146.424 247.729 143.866 247.729 M151.408 235.824 L151.408 239.284 Q149.979 238.607 148.512 238.25 Q147.064 237.893 145.634 237.893 Q141.873 237.893 139.879 240.432 Q137.904 242.971 137.622 248.105 Q138.732 246.469 140.406 245.604 Q142.08 244.72 144.092 244.72 Q148.324 244.72 150.769 247.297 Q153.233 249.854 153.233 254.274 Q153.233 258.6 150.675 261.214 Q148.117 263.829 143.866 263.829 Q138.995 263.829 136.418 260.105 Q133.842 256.362 133.842 249.271 Q133.842 242.613 137.002 238.664 Q140.161 234.695 145.484 234.695 Q146.913 234.695 148.361 234.977 Q149.828 235.26 151.408 235.824 Z" fill="#000000" fill-rule="nonzero" fill-opacity="1" /><path clip-path="url(#clip570)" d="M167.903 237.705 Q164.969 237.705 163.483 240.601 Q162.016 243.479 162.016 249.271 Q162.016 255.045 163.483 257.942 Q164.969 260.819 167.903 260.819 Q170.855 260.819 172.322 257.942 Q173.808 255.045 173.808 249.271 Q173.808 243.479 172.322 240.601 Q170.855 237.705 167.903 237.705 M167.903 234.695 Q172.623 234.695 175.106 238.438 Q177.607 242.162 177.607 249.271 Q177.607 256.362 175.106 260.105 Q172.623 263.829 167.903 263.829 Q163.182 263.829 160.68 260.105 Q158.198 256.362 158.198 249.271 Q158.198 242.162 160.68 238.438 Q163.182 234.695 167.903 234.695 Z" fill="#000000" fill-rule="nonzero" fill-opacity="1" /><path clip-path="url(#clip570)" d="M975.981 20.1573 L959.373 65.7705 L992.631 65.7705 L975.981 20.1573 M948.273 72.576 L971.363 12.096 L980.64 12.096 L1003.69 72.576 L948.273 72.576 Z" fill="#000000" fill-rule="nonzero" fill-opacity="1" /><path clip-path="url(#clip570)" d="M1038.89 12.096 L1051.09 12.096 L1066.52 53.2532 L1082.03 12.096 L1094.23 12.096 L1094.23 72.576 L1086.25 72.576 L1086.25 19.4686 L1070.65 60.9499 L1062.43 60.9499 L1046.83 19.4686 L1046.83 72.576 L1038.89 72.576 L1038.89 12.096 Z" fill="#000000" fill-rule="nonzero" fill-opacity="1" /><path clip-path="url(#clip570)" d="M1130.77 49.7694 Q1121.73 49.7694 1118.25 51.8354 Q1114.77 53.9013 1114.77 58.8839 Q1114.77 62.8538 1117.36 65.2034 Q1119.99 67.5124 1124.49 67.5124 Q1130.69 67.5124 1134.41 63.1374 Q1138.18 58.7219 1138.18 51.4303 L1138.18 49.7694 L1130.77 49.7694 M1145.63 46.6907 L1145.63 72.576 L1138.18 72.576 L1138.18 65.6895 Q1135.63 69.8214 1131.82 71.8063 Q1128.01 73.7508 1122.5 73.7508 Q1115.54 73.7508 1111.4 69.8619 Q1107.31 65.9325 1107.31 59.3701 Q1107.31 51.7138 1112.42 47.825 Q1117.56 43.9361 1127.73 43.9361 L1138.18 43.9361 L1138.18 43.2069 Q1138.18 38.0623 1134.78 35.2672 Q1131.41 32.4315 1125.3 32.4315 Q1121.41 32.4315 1117.72 33.3632 Q1114.04 34.295 1110.63 36.1584 L1110.63 29.2718 Q1114.72 27.692 1118.57 26.9223 Q1122.42 26.1121 1126.07 26.1121 Q1135.91 26.1121 1140.77 31.2163 Q1145.63 36.3204 1145.63 46.6907 Z" fill="#000000" fill-rule="nonzero" fill-opacity="1" /><path clip-path="url(#clip570)" d="M1189.91 28.5427 L1189.91 35.5912 Q1186.75 33.9709 1183.35 33.1607 Q1179.94 32.3505 1176.3 32.3505 Q1170.75 32.3505 1167.95 34.0519 Q1165.2 35.7533 1165.2 39.156 Q1165.2 41.7486 1167.18 43.2475 Q1169.17 44.7058 1175.16 46.0426 L1177.72 46.6097 Q1185.66 48.3111 1188.98 51.4303 Q1192.34 54.509 1192.34 60.0587 Q1192.34 66.3781 1187.32 70.0644 Q1182.33 73.7508 1173.58 73.7508 Q1169.94 73.7508 1165.97 73.0216 Q1162.04 72.3329 1157.66 70.9151 L1157.66 63.2184 Q1161.8 65.3654 1165.81 66.4591 Q1169.82 67.5124 1173.75 67.5124 Q1179.01 67.5124 1181.85 65.73 Q1184.68 63.9071 1184.68 60.6258 Q1184.68 57.5877 1182.62 55.9673 Q1180.59 54.3469 1173.67 52.8481 L1171.07 52.2405 Q1164.15 50.7821 1161.07 47.7845 Q1157.99 44.7463 1157.99 39.4801 Q1157.99 33.0797 1162.53 29.5959 Q1167.06 26.1121 1175.41 26.1121 Q1179.54 26.1121 1183.19 26.7198 Q1186.83 27.3274 1189.91 28.5427 Z" fill="#000000" fill-rule="nonzero" fill-opacity="1" /><path clip-path="url(#clip570)" d="M1233.13 28.5427 L1233.13 35.5912 Q1229.97 33.9709 1226.57 33.1607 Q1223.17 32.3505 1219.52 32.3505 Q1213.97 32.3505 1211.18 34.0519 Q1208.42 35.7533 1208.42 39.156 Q1208.42 41.7486 1210.41 43.2475 Q1212.39 44.7058 1218.39 46.0426 L1220.94 46.6097 Q1228.88 48.3111 1232.2 51.4303 Q1235.56 54.509 1235.56 60.0587 Q1235.56 66.3781 1230.54 70.0644 Q1225.56 73.7508 1216.81 73.7508 Q1213.16 73.7508 1209.19 73.0216 Q1205.26 72.3329 1200.89 70.9151 L1200.89 63.2184 Q1205.02 65.3654 1209.03 66.4591 Q1213.04 67.5124 1216.97 67.5124 Q1222.24 67.5124 1225.07 65.73 Q1227.91 63.9071 1227.91 60.6258 Q1227.91 57.5877 1225.84 55.9673 Q1223.82 54.3469 1216.89 52.8481 L1214.3 52.2405 Q1207.37 50.7821 1204.29 47.7845 Q1201.21 44.7463 1201.21 39.4801 Q1201.21 33.0797 1205.75 29.5959 Q1210.29 26.1121 1218.63 26.1121 Q1222.76 26.1121 1226.41 26.7198 Q1230.05 27.3274 1233.13 28.5427 Z" fill="#000000" fill-rule="nonzero" fill-opacity="1" /><path clip-path="url(#clip570)" d="M1287.05 12.096 L1293.94 12.096 L1272.87 80.2727 L1265.99 80.2727 L1287.05 12.096 Z" fill="#000000" fill-rule="nonzero" fill-opacity="1" /><path clip-path="url(#clip570)" d="M1364.71 14.0809 L1364.71 22.0612 Q1360.05 19.8332 1355.92 18.7395 Q1351.78 17.6457 1347.94 17.6457 Q1341.25 17.6457 1337.61 20.2383 Q1334 22.8309 1334 27.611 Q1334 31.6214 1336.39 33.6873 Q1338.82 35.7128 1345.55 36.9686 L1350.49 37.9813 Q1359.64 39.7232 1363.98 44.1387 Q1368.35 48.5136 1368.35 55.8863 Q1368.35 64.6767 1362.44 69.2137 Q1356.56 73.7508 1345.18 73.7508 Q1340.89 73.7508 1336.03 72.7785 Q1331.21 71.8063 1326.02 69.9024 L1326.02 61.4765 Q1331 64.2716 1335.78 65.6895 Q1340.56 67.1073 1345.18 67.1073 Q1352.19 67.1073 1356 64.3527 Q1359.8 61.598 1359.8 56.4939 Q1359.8 52.0379 1357.05 49.5264 Q1354.34 47.0148 1348.1 45.759 L1343.11 44.7868 Q1333.96 42.9639 1329.87 39.075 Q1325.78 35.1862 1325.78 28.2591 Q1325.78 20.2383 1331.41 15.6203 Q1337.08 11.0023 1347 11.0023 Q1351.26 11.0023 1355.67 11.7719 Q1360.09 12.5416 1364.71 14.0809 Z" fill="#000000" fill-rule="nonzero" fill-opacity="1" /><path clip-path="url(#clip570)" d="M1419.6 48.0275 L1419.6 51.6733 L1385.33 51.6733 Q1385.81 59.3701 1389.94 63.421 Q1394.12 67.4314 1401.53 67.4314 Q1405.82 67.4314 1409.83 66.3781 Q1413.88 65.3249 1417.85 63.2184 L1417.85 70.267 Q1413.84 71.9684 1409.63 72.8596 Q1405.42 73.7508 1401.08 73.7508 Q1390.23 73.7508 1383.87 67.4314 Q1377.55 61.1119 1377.55 50.3365 Q1377.55 39.1965 1383.54 32.6746 Q1389.58 26.1121 1399.79 26.1121 Q1408.94 26.1121 1414.25 32.0264 Q1419.6 37.9003 1419.6 48.0275 M1412.14 45.84 Q1412.06 39.7232 1408.7 36.0774 Q1405.38 32.4315 1399.87 32.4315 Q1393.63 32.4315 1389.86 35.9558 Q1386.14 39.4801 1385.57 45.8805 L1412.14 45.84 Z" fill="#000000" fill-rule="nonzero" fill-opacity="1" /><path clip-path="url(#clip570)" d="M1464.48 28.9478 L1464.48 35.9153 Q1461.32 34.1734 1458.12 33.3227 Q1454.96 32.4315 1451.72 32.4315 Q1444.47 32.4315 1440.46 37.0496 Q1436.45 41.6271 1436.45 49.9314 Q1436.45 58.2358 1440.46 62.8538 Q1444.47 67.4314 1451.72 67.4314 Q1454.96 67.4314 1458.12 66.5807 Q1461.32 65.6895 1464.48 63.9476 L1464.48 70.8341 Q1461.36 72.2924 1458 73.0216 Q1454.68 73.7508 1450.91 73.7508 Q1440.66 73.7508 1434.62 67.3098 Q1428.59 60.8689 1428.59 49.9314 Q1428.59 38.832 1434.67 32.472 Q1440.78 26.1121 1451.4 26.1121 Q1454.84 26.1121 1458.12 26.8413 Q1461.4 27.5299 1464.48 28.9478 Z" fill="#000000" fill-rule="nonzero" fill-opacity="1" /><path clip-path="url(#clip570)" d="M1495.02 32.4315 Q1489.03 32.4315 1485.54 37.1306 Q1482.06 41.7891 1482.06 49.9314 Q1482.06 58.0738 1485.5 62.7728 Q1488.99 67.4314 1495.02 67.4314 Q1500.98 67.4314 1504.46 62.7323 Q1507.95 58.0333 1507.95 49.9314 Q1507.95 41.8701 1504.46 37.1711 Q1500.98 32.4315 1495.02 32.4315 M1495.02 26.1121 Q1504.75 26.1121 1510.3 32.4315 Q1515.85 38.7509 1515.85 49.9314 Q1515.85 61.0714 1510.3 67.4314 Q1504.75 73.7508 1495.02 73.7508 Q1485.26 73.7508 1479.71 67.4314 Q1474.2 61.0714 1474.2 49.9314 Q1474.2 38.7509 1479.71 32.4315 Q1485.26 26.1121 1495.02 26.1121 Z" fill="#000000" fill-rule="nonzero" fill-opacity="1" /><path clip-path="url(#clip570)" d="M1565.91 45.1919 L1565.91 72.576 L1558.46 72.576 L1558.46 45.4349 Q1558.46 38.994 1555.95 35.7938 Q1553.44 32.5936 1548.41 32.5936 Q1542.38 32.5936 1538.9 36.4419 Q1535.41 40.2903 1535.41 46.9338 L1535.41 72.576 L1527.92 72.576 L1527.92 27.2059 L1535.41 27.2059 L1535.41 34.2544 Q1538.08 30.163 1541.69 28.1376 Q1545.34 26.1121 1550.08 26.1121 Q1557.89 26.1121 1561.9 30.9732 Q1565.91 35.7938 1565.91 45.1919 Z" fill="#000000" fill-rule="nonzero" fill-opacity="1" /><path clip-path="url(#clip570)" d="M1610.64 34.0924 L1610.64 9.54393 L1618.09 9.54393 L1618.09 72.576 L1610.64 72.576 L1610.64 65.7705 Q1608.29 69.8214 1604.68 71.8063 Q1601.12 73.7508 1596.09 73.7508 Q1587.87 73.7508 1582.69 67.1883 Q1577.54 60.6258 1577.54 49.9314 Q1577.54 39.2371 1582.69 32.6746 Q1587.87 26.1121 1596.09 26.1121 Q1601.12 26.1121 1604.68 28.0971 Q1608.29 30.0415 1610.64 34.0924 M1585.24 49.9314 Q1585.24 58.1548 1588.6 62.8538 Q1592 67.5124 1597.92 67.5124 Q1603.83 67.5124 1607.23 62.8538 Q1610.64 58.1548 1610.64 49.9314 Q1610.64 41.7081 1607.23 37.0496 Q1603.83 32.3505 1597.92 32.3505 Q1592 32.3505 1588.6 37.0496 Q1585.24 41.7081 1585.24 49.9314 Z" fill="#000000" fill-rule="nonzero" fill-opacity="1" /><polyline clip-path="url(#clip572)" style="stroke:#009af9; stroke-linecap:round; stroke-linejoin:round; stroke-width:12; stroke-opacity:1; fill:none" points="274.149,1284.66 294.534,553.977 314.918,494.593 335.303,459.853 355.687,435.204 376.072,416.084 396.456,400.462 416.841,387.254 437.225,375.813 457.61,365.721 477.994,356.693 498.379,348.526 518.763,341.071 539.148,334.212 559.532,327.862 579.917,321.951 600.301,316.421 620.686,311.226 641.07,306.329 661.455,301.696 681.839,297.301 702.224,293.12 722.608,289.134 742.993,285.325 763.377,281.679 783.762,278.181 804.146,274.82 824.531,271.586 844.915,268.47 865.3,265.463 885.684,262.558 906.069,259.749 926.453,257.028 946.838,254.392 967.222,251.834 987.607,249.35 1007.99,246.936 1028.38,244.588 1048.76,242.303 1069.14,240.078 1089.53,237.908 1109.91,235.792 1130.3,233.728 1150.68,231.711 1171.07,229.741 1191.45,227.816 1211.84,225.933 1232.22,224.09 1252.6,222.286 1272.99,220.519 1293.37,218.788 1313.76,217.091 1334.14,215.427 1354.53,213.795 1374.91,212.194 1395.3,210.621 1415.68,209.077 1436.07,207.561 1456.45,206.071 1476.83,204.606 1497.22,203.166 1517.6,201.749 1537.99,200.356 1558.37,198.985 1578.76,197.636 1599.14,196.307 1619.53,194.999 1639.91,193.71 1660.29,192.441 1680.68,191.19 1701.06,189.957 1721.45,188.742 1741.83,187.543 1762.22,186.361 1782.6,185.196 1802.99,184.045 1823.37,182.91 1843.76,181.79 1864.14,180.685 1884.52,179.593 1904.91,178.515 1925.29,177.451 1945.68,176.4 1966.06,175.361 1986.45,174.335 2006.83,173.321 2027.22,172.319 2047.6,171.328 2067.98,170.349 2088.37,169.38 2108.75,168.423 2129.14,167.476 2149.52,166.54 2169.91,165.613 2190.29,164.697 2210.68,163.79 2231.06,162.893 2251.44,162.005 2271.83,161.126 2292.21,160.256 "/>
<polyline clip-path="url(#clip572)" style="stroke:#e26f46; stroke-linecap:round; stroke-linejoin:round; stroke-width:12; stroke-opacity:1; fill:none" points="274.149,1335.29 294.534,604.612 314.918,545.227 335.303,510.488 355.687,485.839 376.072,466.719 396.456,451.097 416.841,437.889 437.225,426.448 457.61,416.356 477.994,407.328 498.379,399.161 518.763,391.706 539.148,384.847 559.532,378.497 579.917,372.586 600.301,367.056 620.686,361.861 641.07,356.964 661.455,352.331 681.839,347.936 702.224,343.755 722.608,339.769 742.993,335.96 763.377,332.314 783.762,328.816 804.146,325.455 824.531,322.221 844.915,319.105 865.3,316.098 885.684,313.193 906.069,310.384 926.453,307.663 946.838,305.027 967.222,302.469 987.607,299.985 1007.99,297.571 1028.38,295.223 1048.76,292.938 1069.14,290.713 1089.53,288.543 1109.91,286.427 1130.3,284.363 1150.68,282.346 1171.07,280.376 1191.45,278.451 1211.84,276.568 1232.22,274.725 1252.6,272.921 1272.99,271.154 1293.37,269.423 1313.76,267.726 1334.14,266.062 1354.53,264.43 1374.91,262.829 1395.3,261.256 1415.68,259.712 1436.07,258.196 1456.45,256.706 1476.83,255.241 1497.22,253.801 1517.6,252.384 1537.99,250.991 1558.37,249.62 1578.76,248.271 1599.14,246.942 1619.53,245.634 1639.91,244.345 1660.29,243.076 1680.68,241.825 1701.06,240.592 1721.45,239.377 1741.83,238.178 1762.22,236.996 1782.6,235.831 1802.99,234.68 1823.37,233.545 1843.76,232.425 1864.14,231.32 1884.52,230.228 1904.91,229.15 1925.29,228.086 1945.68,227.035 1966.06,225.996 1986.45,224.97 2006.83,223.956 2027.22,222.954 2047.6,221.963 2067.98,220.984 2088.37,220.015 2108.75,219.058 2129.14,218.111 2149.52,217.175 2169.91,216.248 2190.29,215.332 2210.68,214.425 2231.06,213.528 2251.44,212.64 2271.83,211.761 2292.21,210.891 "/>
<polyline clip-path="url(#clip572)" style="stroke:#3da44d; stroke-linecap:round; stroke-linejoin:round; stroke-width:12; stroke-opacity:1; fill:none" points="274.149,1386.4 294.534,655.713 314.918,596.329 335.303,561.589 355.687,536.94 376.072,517.821 396.456,502.199 416.841,488.991 437.225,477.549 457.61,467.457 477.994,458.429 498.379,450.263 518.763,442.807 539.148,435.949 559.532,429.599 579.917,423.687 600.301,418.157 620.686,412.962 641.07,408.065 661.455,403.432 681.839,399.037 702.224,394.856 722.608,390.87 742.993,387.061 763.377,383.415 783.762,379.917 804.146,376.556 824.531,373.322 844.915,370.206 865.3,367.199 885.684,364.295 906.069,361.485 926.453,358.765 946.838,356.128 967.222,353.57 987.607,351.086 1007.99,348.672 1028.38,346.325 1048.76,344.04 1069.14,341.814 1089.53,339.644 1109.91,337.529 1130.3,335.464 1150.68,333.448 1171.07,331.478 1191.45,329.552 1211.84,327.669 1232.22,325.826 1252.6,324.022 1272.99,322.255 1293.37,320.524 1313.76,318.827 1334.14,317.164 1354.53,315.531 1374.91,313.93 1395.3,312.358 1415.68,310.814 1436.07,309.297 1456.45,307.807 1476.83,306.342 1497.22,304.902 1517.6,303.486 1537.99,302.092 1558.37,300.721 1578.76,299.372 1599.14,298.043 1619.53,296.735 1639.91,295.447 1660.29,294.177 1680.68,292.926 1701.06,291.693 1721.45,290.478 1741.83,289.28 1762.22,288.098 1782.6,286.932 1802.99,285.782 1823.37,284.647 1843.76,283.527 1864.14,282.421 1884.52,281.329 1904.91,280.252 1925.29,279.187 1945.68,278.136 1966.06,277.097 1986.45,276.071 2006.83,275.057 2027.22,274.055 2047.6,273.064 2067.98,272.085 2088.37,271.117 2108.75,270.159 2129.14,269.212 2149.52,268.276 2169.91,267.35 2190.29,266.433 2210.68,265.526 2231.06,264.629 2251.44,263.741 2271.83,262.862 2292.21,261.993 "/>
<path clip-path="url(#clip570)" d="M1948.44 374.156 L2281.45 374.156 L2281.45 166.796 L1948.44 166.796  Z" fill="#ffffff" fill-rule="evenodd" fill-opacity="1"/>
<polyline clip-path="url(#clip570)" style="stroke:#000000; stroke-linecap:round; stroke-linejoin:round; stroke-width:4; stroke-opacity:1; fill:none" points="1948.44,374.156 2281.45,374.156 2281.45,166.796 1948.44,166.796 1948.44,374.156 "/>
<polyline clip-path="url(#clip570)" style="stroke:#009af9; stroke-linecap:round; stroke-linejoin:round; stroke-width:12; stroke-opacity:1; fill:none" points="1972.21,218.636 2114.82,218.636 "/>
<path clip-path="url(#clip570)" d="M2144.21 231.981 L2160.53 231.981 L2160.53 235.916 L2138.59 235.916 L2138.59 231.981 Q2141.25 229.226 2145.83 224.596 Q2150.44 219.944 2151.62 218.601 Q2153.86 216.078 2154.74 214.342 Q2155.65 212.583 2155.65 210.893 Q2155.65 208.138 2153.7 206.402 Q2151.78 204.666 2148.68 204.666 Q2146.48 204.666 2144.03 205.43 Q2141.6 206.194 2138.82 207.745 L2138.82 203.022 Q2141.64 201.888 2144.1 201.309 Q2146.55 200.731 2148.59 200.731 Q2153.96 200.731 2157.15 203.416 Q2160.35 206.101 2160.35 210.592 Q2160.35 212.721 2159.54 214.643 Q2158.75 216.541 2156.64 219.133 Q2156.06 219.805 2152.96 223.022 Q2149.86 226.217 2144.21 231.981 Z" fill="#000000" fill-rule="nonzero" fill-opacity="1" /><path clip-path="url(#clip570)" d="M2183.19 205.43 L2171.39 223.879 L2183.19 223.879 L2183.19 205.43 M2181.97 201.356 L2187.85 201.356 L2187.85 223.879 L2192.78 223.879 L2192.78 227.768 L2187.85 227.768 L2187.85 235.916 L2183.19 235.916 L2183.19 227.768 L2167.59 227.768 L2167.59 223.254 L2181.97 201.356 Z" fill="#000000" fill-rule="nonzero" fill-opacity="1" /><path clip-path="url(#clip570)" d="M2200.65 235.198 L2200.65 230.939 Q2202.41 231.772 2204.21 232.212 Q2206.02 232.652 2207.75 232.652 Q2212.38 232.652 2214.81 229.55 Q2217.27 226.425 2217.61 220.082 Q2216.27 222.073 2214.21 223.138 Q2212.15 224.203 2209.65 224.203 Q2204.47 224.203 2201.43 221.078 Q2198.42 217.93 2198.42 212.49 Q2198.42 207.166 2201.57 203.948 Q2204.72 200.731 2209.95 200.731 Q2215.95 200.731 2219.09 205.337 Q2222.27 209.92 2222.27 218.67 Q2222.27 226.842 2218.38 231.726 Q2214.51 236.587 2207.96 236.587 Q2206.2 236.587 2204.4 236.24 Q2202.59 235.893 2200.65 235.198 M2209.95 220.545 Q2213.1 220.545 2214.93 218.393 Q2216.78 216.24 2216.78 212.49 Q2216.78 208.763 2214.93 206.61 Q2213.1 204.434 2209.95 204.434 Q2206.8 204.434 2204.95 206.61 Q2203.12 208.763 2203.12 212.49 Q2203.12 216.24 2204.95 218.393 Q2206.8 220.545 2209.95 220.545 Z" fill="#000000" fill-rule="nonzero" fill-opacity="1" /><path clip-path="url(#clip570)" d="M2230.25 201.356 L2234.93 201.356 L2234.93 215.962 L2250.44 201.356 L2256.46 201.356 L2239.3 217.467 L2257.68 235.916 L2251.53 235.916 L2234.93 219.272 L2234.93 235.916 L2230.25 235.916 L2230.25 201.356 Z" fill="#000000" fill-rule="nonzero" fill-opacity="1" /><polyline clip-path="url(#clip570)" style="stroke:#e26f46; stroke-linecap:round; stroke-linejoin:round; stroke-width:12; stroke-opacity:1; fill:none" points="1972.21,270.476 2114.82,270.476 "/>
<path clip-path="url(#clip570)" d="M2144.21 283.821 L2160.53 283.821 L2160.53 287.756 L2138.59 287.756 L2138.59 283.821 Q2141.25 281.066 2145.83 276.436 Q2150.44 271.784 2151.62 270.441 Q2153.86 267.918 2154.74 266.182 Q2155.65 264.423 2155.65 262.733 Q2155.65 259.978 2153.7 258.242 Q2151.78 256.506 2148.68 256.506 Q2146.48 256.506 2144.03 257.27 Q2141.6 258.034 2138.82 259.585 L2138.82 254.862 Q2141.64 253.728 2144.1 253.149 Q2146.55 252.571 2148.59 252.571 Q2153.96 252.571 2157.15 255.256 Q2160.35 257.941 2160.35 262.432 Q2160.35 264.561 2159.54 266.483 Q2158.75 268.381 2156.64 270.973 Q2156.06 271.645 2152.96 274.862 Q2149.86 278.057 2144.21 283.821 Z" fill="#000000" fill-rule="nonzero" fill-opacity="1" /><path clip-path="url(#clip570)" d="M2170.39 253.196 L2188.75 253.196 L2188.75 257.131 L2174.67 257.131 L2174.67 265.603 Q2175.69 265.256 2176.71 265.094 Q2177.73 264.909 2178.75 264.909 Q2184.53 264.909 2187.91 268.08 Q2191.29 271.251 2191.29 276.668 Q2191.29 282.246 2187.82 285.348 Q2184.35 288.427 2178.03 288.427 Q2175.85 288.427 2173.59 288.057 Q2171.34 287.686 2168.93 286.946 L2168.93 282.246 Q2171.02 283.381 2173.24 283.936 Q2175.46 284.492 2177.94 284.492 Q2181.94 284.492 2184.28 282.385 Q2186.62 280.279 2186.62 276.668 Q2186.62 273.057 2184.28 270.95 Q2181.94 268.844 2177.94 268.844 Q2176.06 268.844 2174.19 269.26 Q2172.34 269.677 2170.39 270.557 L2170.39 253.196 Z" fill="#000000" fill-rule="nonzero" fill-opacity="1" /><path clip-path="url(#clip570)" d="M2210.51 256.274 Q2206.9 256.274 2205.07 259.839 Q2203.26 263.381 2203.26 270.51 Q2203.26 277.617 2205.07 281.182 Q2206.9 284.723 2210.51 284.723 Q2214.14 284.723 2215.95 281.182 Q2217.78 277.617 2217.78 270.51 Q2217.78 263.381 2215.95 259.839 Q2214.14 256.274 2210.51 256.274 M2210.51 252.571 Q2216.32 252.571 2219.37 257.177 Q2222.45 261.76 2222.45 270.51 Q2222.45 279.237 2219.37 283.844 Q2216.32 288.427 2210.51 288.427 Q2204.7 288.427 2201.62 283.844 Q2198.56 279.237 2198.56 270.51 Q2198.56 261.76 2201.62 257.177 Q2204.7 252.571 2210.51 252.571 Z" fill="#000000" fill-rule="nonzero" fill-opacity="1" /><path clip-path="url(#clip570)" d="M2230.25 253.196 L2234.93 253.196 L2234.93 267.802 L2250.44 253.196 L2256.46 253.196 L2239.3 269.307 L2257.68 287.756 L2251.53 287.756 L2234.93 271.112 L2234.93 287.756 L2230.25 287.756 L2230.25 253.196 Z" fill="#000000" fill-rule="nonzero" fill-opacity="1" /><polyline clip-path="url(#clip570)" style="stroke:#3da44d; stroke-linecap:round; stroke-linejoin:round; stroke-width:12; stroke-opacity:1; fill:none" points="1972.21,322.316 2114.82,322.316 "/>
<path clip-path="url(#clip570)" d="M2144.21 335.661 L2160.53 335.661 L2160.53 339.596 L2138.59 339.596 L2138.59 335.661 Q2141.25 332.906 2145.83 328.276 Q2150.44 323.624 2151.62 322.281 Q2153.86 319.758 2154.74 318.022 Q2155.65 316.263 2155.65 314.573 Q2155.65 311.818 2153.7 310.082 Q2151.78 308.346 2148.68 308.346 Q2146.48 308.346 2144.03 309.11 Q2141.6 309.874 2138.82 311.425 L2138.82 306.702 Q2141.64 305.568 2144.1 304.989 Q2146.55 304.411 2148.59 304.411 Q2153.96 304.411 2157.15 307.096 Q2160.35 309.781 2160.35 314.272 Q2160.35 316.401 2159.54 318.323 Q2158.75 320.221 2156.64 322.813 Q2156.06 323.485 2152.96 326.702 Q2149.86 329.897 2144.21 335.661 Z" fill="#000000" fill-rule="nonzero" fill-opacity="1" /><path clip-path="url(#clip570)" d="M2170.39 305.036 L2188.75 305.036 L2188.75 308.971 L2174.67 308.971 L2174.67 317.443 Q2175.69 317.096 2176.71 316.934 Q2177.73 316.749 2178.75 316.749 Q2184.53 316.749 2187.91 319.92 Q2191.29 323.091 2191.29 328.508 Q2191.29 334.086 2187.82 337.188 Q2184.35 340.267 2178.03 340.267 Q2175.85 340.267 2173.59 339.897 Q2171.34 339.526 2168.93 338.786 L2168.93 334.086 Q2171.02 335.221 2173.24 335.776 Q2175.46 336.332 2177.94 336.332 Q2181.94 336.332 2184.28 334.225 Q2186.62 332.119 2186.62 328.508 Q2186.62 324.897 2184.28 322.79 Q2181.94 320.684 2177.94 320.684 Q2176.06 320.684 2174.19 321.1 Q2172.34 321.517 2170.39 322.397 L2170.39 305.036 Z" fill="#000000" fill-rule="nonzero" fill-opacity="1" /><path clip-path="url(#clip570)" d="M2201.32 335.661 L2208.96 335.661 L2208.96 309.295 L2200.65 310.962 L2200.65 306.702 L2208.91 305.036 L2213.59 305.036 L2213.59 335.661 L2221.22 335.661 L2221.22 339.596 L2201.32 339.596 L2201.32 335.661 Z" fill="#000000" fill-rule="nonzero" fill-opacity="1" /><path clip-path="url(#clip570)" d="M2230.25 305.036 L2234.93 305.036 L2234.93 319.642 L2250.44 305.036 L2256.46 305.036 L2239.3 321.147 L2257.68 339.596 L2251.53 339.596 L2234.93 322.952 L2234.93 339.596 L2230.25 339.596 L2230.25 305.036 Z" fill="#000000" fill-rule="nonzero" fill-opacity="1" /></svg>
