<?xml version="1.0" encoding="utf-8"?>
<svg xmlns="http://www.w3.org/2000/svg" xmlns:xlink="http://www.w3.org/1999/xlink" width="600" height="400" viewBox="0 0 2400 1600">
<defs>
  <clipPath id="clip540">
    <rect x="0" y="0" width="2400" height="1600"/>
  </clipPath>
</defs>
<path clip-path="url(#clip540)" d="M0 1600 L2400 1600 L2400 0 L0 0  Z" fill="#ffffff" fill-rule="evenodd" fill-opacity="1"/>
<defs>
  <clipPath id="clip541">
    <rect x="480" y="0" width="1681" height="1600"/>
  </clipPath>
</defs>
<path clip-path="url(#clip540)" d="M279.704 1423.18 L2352.76 1423.18 L2352.76 47.2441 L279.704 47.2441  Z" fill="#ffffff" fill-rule="evenodd" fill-opacity="1"/>
<defs>
  <clipPath id="clip542">
    <rect x="279" y="47" width="2074" height="1377"/>
  </clipPath>
</defs>
<polyline clip-path="url(#clip542)" style="stroke:#000000; stroke-linecap:round; stroke-linejoin:round; stroke-width:2; stroke-opacity:0.1; fill:none" points="338.371,1423.18 338.371,47.2441 "/>
<polyline clip-path="url(#clip542)" style="stroke:#000000; stroke-linecap:round; stroke-linejoin:round; stroke-width:2; stroke-opacity:0.1; fill:none" points="729.514,1423.18 729.514,47.2441 "/>
<polyline clip-path="url(#clip542)" style="stroke:#000000; stroke-linecap:round; stroke-linejoin:round; stroke-width:2; stroke-opacity:0.1; fill:none" points="1120.66,1423.18 1120.66,47.2441 "/>
<polyline clip-path="url(#clip542)" style="stroke:#000000; stroke-linecap:round; stroke-linejoin:round; stroke-width:2; stroke-opacity:0.1; fill:none" points="1511.8,1423.18 1511.8,47.2441 "/>
<polyline clip-path="url(#clip542)" style="stroke:#000000; stroke-linecap:round; stroke-linejoin:round; stroke-width:2; stroke-opacity:0.1; fill:none" points="1902.94,1423.18 1902.94,47.2441 "/>
<polyline clip-path="url(#clip542)" style="stroke:#000000; stroke-linecap:round; stroke-linejoin:round; stroke-width:2; stroke-opacity:0.1; fill:none" points="2294.08,1423.18 2294.08,47.2441 "/>
<polyline clip-path="url(#clip540)" style="stroke:#000000; stroke-linecap:round; stroke-linejoin:round; stroke-width:4; stroke-opacity:1; fill:none" points="279.704,1423.18 2352.76,1423.18 "/>
<polyline clip-path="url(#clip540)" style="stroke:#000000; stroke-linecap:round; stroke-linejoin:round; stroke-width:4; stroke-opacity:1; fill:none" points="338.371,1423.18 338.371,1404.28 "/>
<polyline clip-path="url(#clip540)" style="stroke:#000000; stroke-linecap:round; stroke-linejoin:round; stroke-width:4; stroke-opacity:1; fill:none" points="729.514,1423.18 729.514,1404.28 "/>
<polyline clip-path="url(#clip540)" style="stroke:#000000; stroke-linecap:round; stroke-linejoin:round; stroke-width:4; stroke-opacity:1; fill:none" points="1120.66,1423.18 1120.66,1404.28 "/>
<polyline clip-path="url(#clip540)" style="stroke:#000000; stroke-linecap:round; stroke-linejoin:round; stroke-width:4; stroke-opacity:1; fill:none" points="1511.8,1423.18 1511.8,1404.28 "/>
<polyline clip-path="url(#clip540)" style="stroke:#000000; stroke-linecap:round; stroke-linejoin:round; stroke-width:4; stroke-opacity:1; fill:none" points="1902.94,1423.18 1902.94,1404.28 "/>
<polyline clip-path="url(#clip540)" style="stroke:#000000; stroke-linecap:round; stroke-linejoin:round; stroke-width:4; stroke-opacity:1; fill:none" points="2294.08,1423.18 2294.08,1404.28 "/>
<path clip-path="url(#clip540)" d="M338.371 1454.1 Q334.76 1454.1 332.931 1457.66 Q331.126 1461.2 331.126 1468.33 Q331.126 1475.44 332.931 1479.01 Q334.76 1482.55 338.371 1482.55 Q342.006 1482.55 343.811 1479.01 Q345.64 1475.44 345.64 1468.33 Q345.64 1461.2 343.811 1457.66 Q342.006 1454.1 338.371 1454.1 M338.371 1450.39 Q344.181 1450.39 347.237 1455 Q350.316 1459.58 350.316 1468.33 Q350.316 1477.06 347.237 1481.67 Q344.181 1486.25 338.371 1486.25 Q332.561 1486.25 329.482 1481.67 Q326.427 1477.06 326.427 1468.33 Q326.427 1459.58 329.482 1455 Q332.561 1450.39 338.371 1450.39 Z" fill="#000000" fill-rule="nonzero" fill-opacity="1" /><path clip-path="url(#clip540)" d="M719.896 1481.64 L727.535 1481.64 L727.535 1455.28 L719.225 1456.95 L719.225 1452.69 L727.488 1451.02 L732.164 1451.02 L732.164 1481.64 L739.803 1481.64 L739.803 1485.58 L719.896 1485.58 L719.896 1481.64 Z" fill="#000000" fill-rule="nonzero" fill-opacity="1" /><path clip-path="url(#clip540)" d="M1115.31 1481.64 L1131.63 1481.64 L1131.63 1485.58 L1109.68 1485.58 L1109.68 1481.64 Q1112.35 1478.89 1116.93 1474.26 Q1121.54 1469.61 1122.72 1468.27 Q1124.96 1465.74 1125.84 1464.01 Q1126.74 1462.25 1126.74 1460.56 Q1126.74 1457.8 1124.8 1456.07 Q1122.88 1454.33 1119.78 1454.33 Q1117.58 1454.33 1115.12 1455.09 Q1112.69 1455.86 1109.92 1457.41 L1109.92 1452.69 Q1112.74 1451.55 1115.19 1450.97 Q1117.65 1450.39 1119.68 1450.39 Q1125.05 1450.39 1128.25 1453.08 Q1131.44 1455.77 1131.44 1460.26 Q1131.44 1462.39 1130.63 1464.31 Q1129.85 1466.2 1127.74 1468.8 Q1127.16 1469.47 1124.06 1472.69 Q1120.96 1475.88 1115.31 1481.64 Z" fill="#000000" fill-rule="nonzero" fill-opacity="1" /><path clip-path="url(#clip540)" d="M1516.05 1466.95 Q1519.4 1467.66 1521.28 1469.93 Q1523.18 1472.2 1523.18 1475.53 Q1523.18 1480.65 1519.66 1483.45 Q1516.14 1486.25 1509.66 1486.25 Q1507.48 1486.25 1505.17 1485.81 Q1502.88 1485.39 1500.42 1484.54 L1500.42 1480.02 Q1502.37 1481.16 1504.68 1481.74 Q1507 1482.32 1509.52 1482.32 Q1513.92 1482.32 1516.21 1480.58 Q1518.52 1478.84 1518.52 1475.53 Q1518.52 1472.48 1516.37 1470.77 Q1514.24 1469.03 1510.42 1469.03 L1506.39 1469.03 L1506.39 1465.19 L1510.61 1465.19 Q1514.06 1465.19 1515.88 1463.82 Q1517.71 1462.43 1517.71 1459.84 Q1517.71 1457.18 1515.82 1455.77 Q1513.94 1454.33 1510.42 1454.33 Q1508.5 1454.33 1506.3 1454.75 Q1504.1 1455.16 1501.46 1456.04 L1501.46 1451.88 Q1504.13 1451.14 1506.44 1450.77 Q1508.78 1450.39 1510.84 1450.39 Q1516.16 1450.39 1519.26 1452.83 Q1522.37 1455.23 1522.37 1459.35 Q1522.37 1462.22 1520.72 1464.21 Q1519.08 1466.18 1516.05 1466.95 Z" fill="#000000" fill-rule="nonzero" fill-opacity="1" /><path clip-path="url(#clip540)" d="M1905.95 1455.09 L1894.15 1473.54 L1905.95 1473.54 L1905.95 1455.09 M1904.72 1451.02 L1910.6 1451.02 L1910.6 1473.54 L1915.53 1473.54 L1915.53 1477.43 L1910.6 1477.43 L1910.6 1485.58 L1905.95 1485.58 L1905.95 1477.43 L1890.35 1477.43 L1890.35 1472.92 L1904.72 1451.02 Z" fill="#000000" fill-rule="nonzero" fill-opacity="1" /><path clip-path="url(#clip540)" d="M2284.36 1451.02 L2302.72 1451.02 L2302.72 1454.96 L2288.64 1454.96 L2288.64 1463.43 Q2289.66 1463.08 2290.68 1462.92 Q2291.7 1462.73 2292.72 1462.73 Q2298.51 1462.73 2301.89 1465.9 Q2305.27 1469.08 2305.27 1474.49 Q2305.27 1480.07 2301.79 1483.17 Q2298.32 1486.25 2292 1486.25 Q2289.83 1486.25 2287.56 1485.88 Q2285.31 1485.51 2282.9 1484.77 L2282.9 1480.07 Q2284.99 1481.2 2287.21 1481.76 Q2289.43 1482.32 2291.91 1482.32 Q2295.91 1482.32 2298.25 1480.21 Q2300.59 1478.1 2300.59 1474.49 Q2300.59 1470.88 2298.25 1468.77 Q2295.91 1466.67 2291.91 1466.67 Q2290.03 1466.67 2288.16 1467.08 Q2286.31 1467.5 2284.36 1468.38 L2284.36 1451.02 Z" fill="#000000" fill-rule="nonzero" fill-opacity="1" /><path clip-path="url(#clip540)" d="M1098.63 1550.25 Q1098.63 1556.71 1101.28 1560.4 Q1103.95 1564.07 1108.6 1564.07 Q1113.24 1564.07 1115.92 1560.4 Q1118.59 1556.71 1118.59 1550.25 Q1118.59 1543.79 1115.92 1540.13 Q1113.24 1536.44 1108.6 1536.44 Q1103.95 1536.44 1101.28 1540.13 Q1098.63 1543.79 1098.63 1550.25 M1118.59 1562.7 Q1116.74 1565.88 1113.91 1567.44 Q1111.11 1568.97 1107.16 1568.97 Q1100.7 1568.97 1096.63 1563.81 Q1092.59 1558.65 1092.59 1550.25 Q1092.59 1541.85 1096.63 1536.69 Q1100.7 1531.54 1107.16 1531.54 Q1111.11 1531.54 1113.91 1533.1 Q1116.74 1534.62 1118.59 1537.81 L1118.59 1532.4 L1124.45 1532.4 L1124.45 1581.6 L1118.59 1581.6 L1118.59 1562.7 Z" fill="#000000" fill-rule="nonzero" fill-opacity="1" /><path clip-path="url(#clip540)" d="M1163.6 1578.87 L1163.6 1583.42 L1129.73 1583.42 L1129.73 1578.87 L1163.6 1578.87 Z" fill="#000000" fill-rule="nonzero" fill-opacity="1" /><path clip-path="url(#clip540)" d="M1191.83 1533.45 L1191.83 1538.98 Q1189.35 1537.71 1186.67 1537.07 Q1184 1536.44 1181.13 1536.44 Q1176.77 1536.44 1174.58 1537.77 Q1172.41 1539.11 1172.41 1541.79 Q1172.41 1543.82 1173.97 1545 Q1175.53 1546.15 1180.24 1547.2 L1182.25 1547.64 Q1188.49 1548.98 1191.1 1551.43 Q1193.74 1553.85 1193.74 1558.21 Q1193.74 1563.17 1189.79 1566.07 Q1185.88 1568.97 1179 1568.97 Q1176.14 1568.97 1173.02 1568.39 Q1169.93 1567.85 1166.49 1566.74 L1166.49 1560.69 Q1169.74 1562.38 1172.89 1563.24 Q1176.04 1564.07 1179.13 1564.07 Q1183.27 1564.07 1185.49 1562.66 Q1187.72 1561.23 1187.72 1558.65 Q1187.72 1556.27 1186.1 1554.99 Q1184.51 1553.72 1179.06 1552.54 L1177.03 1552.07 Q1171.59 1550.92 1169.17 1548.56 Q1166.75 1546.18 1166.75 1542.04 Q1166.75 1537.01 1170.31 1534.27 Q1173.88 1531.54 1180.43 1531.54 Q1183.68 1531.54 1186.54 1532.01 Q1189.41 1532.49 1191.83 1533.45 Z" fill="#000000" fill-rule="nonzero" fill-opacity="1" /><path clip-path="url(#clip540)" d="M1232.7 1546.53 L1232.7 1568.04 L1226.84 1568.04 L1226.84 1546.72 Q1226.84 1541.66 1224.87 1539.14 Q1222.89 1536.63 1218.95 1536.63 Q1214.2 1536.63 1211.47 1539.65 Q1208.73 1542.68 1208.73 1547.9 L1208.73 1568.04 L1202.84 1568.04 L1202.84 1532.4 L1208.73 1532.4 L1208.73 1537.93 Q1210.83 1534.72 1213.66 1533.13 Q1216.53 1531.54 1220.25 1531.54 Q1226.39 1531.54 1229.54 1535.36 Q1232.7 1539.14 1232.7 1546.53 Z" fill="#000000" fill-rule="nonzero" fill-opacity="1" /><path clip-path="url(#clip540)" d="M1258.19 1536.5 Q1253.48 1536.5 1250.74 1540.19 Q1248.01 1543.85 1248.01 1550.25 Q1248.01 1556.65 1250.71 1560.34 Q1253.45 1564 1258.19 1564 Q1262.87 1564 1265.61 1560.31 Q1268.34 1556.62 1268.34 1550.25 Q1268.34 1543.92 1265.61 1540.23 Q1262.87 1536.5 1258.19 1536.5 M1258.19 1531.54 Q1265.83 1531.54 1270.19 1536.5 Q1274.55 1541.47 1274.55 1550.25 Q1274.55 1559 1270.19 1564 Q1265.83 1568.97 1258.19 1568.97 Q1250.52 1568.97 1246.16 1564 Q1241.83 1559 1241.83 1550.25 Q1241.83 1541.47 1246.16 1536.5 Q1250.52 1531.54 1258.19 1531.54 Z" fill="#000000" fill-rule="nonzero" fill-opacity="1" /><path clip-path="url(#clip540)" d="M1280.85 1532.4 L1286.71 1532.4 L1294.03 1560.21 L1301.32 1532.4 L1308.23 1532.4 L1315.55 1560.21 L1322.83 1532.4 L1328.69 1532.4 L1319.37 1568.04 L1312.46 1568.04 L1304.79 1538.83 L1297.09 1568.04 L1290.18 1568.04 L1280.85 1532.4 Z" fill="#000000" fill-rule="nonzero" fill-opacity="1" /><path clip-path="url(#clip540)" d="M1357.75 1518.52 L1371.25 1518.52 L1371.25 1523.07 L1363.61 1523.07 L1363.61 1572.09 L1371.25 1572.09 L1371.25 1576.64 L1357.75 1576.64 L1357.75 1518.52 Z" fill="#000000" fill-rule="nonzero" fill-opacity="1" /><path clip-path="url(#clip540)" d="M1407.18 1549.81 Q1407.18 1543.44 1404.54 1539.94 Q1401.93 1536.44 1397.19 1536.44 Q1392.48 1536.44 1389.83 1539.94 Q1387.22 1543.44 1387.22 1549.81 Q1387.22 1556.14 1389.83 1559.64 Q1392.48 1563.14 1397.19 1563.14 Q1401.93 1563.14 1404.54 1559.64 Q1407.18 1556.14 1407.18 1549.81 M1413.04 1563.62 Q1413.04 1572.72 1408.99 1577.15 Q1404.95 1581.6 1396.61 1581.6 Q1393.53 1581.6 1390.79 1581.13 Q1388.05 1580.68 1385.47 1579.72 L1385.47 1574.03 Q1388.05 1575.43 1390.57 1576.1 Q1393.08 1576.76 1395.69 1576.76 Q1401.45 1576.76 1404.32 1573.74 Q1407.18 1570.75 1407.18 1564.67 L1407.18 1561.77 Q1405.37 1564.92 1402.53 1566.48 Q1399.7 1568.04 1395.75 1568.04 Q1389.2 1568.04 1385.19 1563.05 Q1381.18 1558.05 1381.18 1549.81 Q1381.18 1541.53 1385.19 1536.53 Q1389.2 1531.54 1395.75 1531.54 Q1399.7 1531.54 1402.53 1533.1 Q1405.37 1534.66 1407.18 1537.81 L1407.18 1532.4 L1413.04 1532.4 L1413.04 1563.62 Z" fill="#000000" fill-rule="nonzero" fill-opacity="1" /><path clip-path="url(#clip540)" d="M1435.51 1520.52 L1440.92 1520.52 L1424.37 1574.09 L1418.96 1574.09 L1435.51 1520.52 Z" fill="#000000" fill-rule="nonzero" fill-opacity="1" /><path clip-path="url(#clip540)" d="M1446.84 1518.52 L1452.73 1518.52 L1452.73 1547.77 L1470.2 1532.4 L1477.68 1532.4 L1458.77 1549.07 L1478.48 1568.04 L1470.84 1568.04 L1452.73 1550.63 L1452.73 1568.04 L1446.84 1568.04 L1446.84 1518.52 Z" fill="#000000" fill-rule="nonzero" fill-opacity="1" /><path clip-path="url(#clip540)" d="M1508.27 1549.81 Q1508.27 1543.44 1505.63 1539.94 Q1503.02 1536.44 1498.27 1536.44 Q1493.56 1536.44 1490.92 1539.94 Q1488.31 1543.44 1488.31 1549.81 Q1488.31 1556.14 1490.92 1559.64 Q1493.56 1563.14 1498.27 1563.14 Q1503.02 1563.14 1505.63 1559.64 Q1508.27 1556.14 1508.27 1549.81 M1514.12 1563.62 Q1514.12 1572.72 1510.08 1577.15 Q1506.04 1581.6 1497.7 1581.6 Q1494.61 1581.6 1491.88 1581.13 Q1489.14 1580.68 1486.56 1579.72 L1486.56 1574.03 Q1489.14 1575.43 1491.65 1576.1 Q1494.17 1576.76 1496.78 1576.76 Q1502.54 1576.76 1505.4 1573.74 Q1508.27 1570.75 1508.27 1564.67 L1508.27 1561.77 Q1506.45 1564.92 1503.62 1566.48 Q1500.79 1568.04 1496.84 1568.04 Q1490.28 1568.04 1486.27 1563.05 Q1482.26 1558.05 1482.26 1549.81 Q1482.26 1541.53 1486.27 1536.53 Q1490.28 1531.54 1496.84 1531.54 Q1500.79 1531.54 1503.62 1533.1 Q1506.45 1534.66 1508.27 1537.81 L1508.27 1532.4 L1514.12 1532.4 L1514.12 1563.62 Z" fill="#000000" fill-rule="nonzero" fill-opacity="1" /><path clip-path="url(#clip540)" d="M1539.87 1518.52 L1539.87 1576.64 L1526.38 1576.64 L1526.38 1572.09 L1533.98 1572.09 L1533.98 1523.07 L1526.38 1523.07 L1526.38 1518.52 L1539.87 1518.52 Z" fill="#000000" fill-rule="nonzero" fill-opacity="1" /><polyline clip-path="url(#clip542)" style="stroke:#000000; stroke-linecap:round; stroke-linejoin:round; stroke-width:2; stroke-opacity:0.1; fill:none" points="279.704,1384.24 2352.76,1384.24 "/>
<polyline clip-path="url(#clip542)" style="stroke:#000000; stroke-linecap:round; stroke-linejoin:round; stroke-width:2; stroke-opacity:0.1; fill:none" points="279.704,1038.63 2352.76,1038.63 "/>
<polyline clip-path="url(#clip542)" style="stroke:#000000; stroke-linecap:round; stroke-linejoin:round; stroke-width:2; stroke-opacity:0.1; fill:none" points="279.704,693.029 2352.76,693.029 "/>
<polyline clip-path="url(#clip542)" style="stroke:#000000; stroke-linecap:round; stroke-linejoin:round; stroke-width:2; stroke-opacity:0.1; fill:none" points="279.704,347.425 2352.76,347.425 "/>
<polyline clip-path="url(#clip540)" style="stroke:#000000; stroke-linecap:round; stroke-linejoin:round; stroke-width:4; stroke-opacity:1; fill:none" points="279.704,1423.18 279.704,47.2441 "/>
<polyline clip-path="url(#clip540)" style="stroke:#000000; stroke-linecap:round; stroke-linejoin:round; stroke-width:4; stroke-opacity:1; fill:none" points="279.704,1384.24 298.602,1384.24 "/>
<polyline clip-path="url(#clip540)" style="stroke:#000000; stroke-linecap:round; stroke-linejoin:round; stroke-width:4; stroke-opacity:1; fill:none" points="279.704,1038.63 298.602,1038.63 "/>
<polyline clip-path="url(#clip540)" style="stroke:#000000; stroke-linecap:round; stroke-linejoin:round; stroke-width:4; stroke-opacity:1; fill:none" points="279.704,693.029 298.602,693.029 "/>
<polyline clip-path="url(#clip540)" style="stroke:#000000; stroke-linecap:round; stroke-linejoin:round; stroke-width:4; stroke-opacity:1; fill:none" points="279.704,347.425 298.602,347.425 "/>
<path clip-path="url(#clip540)" d="M126.205 1370.04 Q122.593 1370.04 120.765 1373.6 Q118.959 1377.14 118.959 1384.27 Q118.959 1391.38 120.765 1394.94 Q122.593 1398.49 126.205 1398.49 Q129.839 1398.49 131.644 1394.94 Q133.473 1391.38 133.473 1384.27 Q133.473 1377.14 131.644 1373.6 Q129.839 1370.04 126.205 1370.04 M126.205 1366.33 Q132.015 1366.33 135.07 1370.94 Q138.149 1375.52 138.149 1384.27 Q138.149 1393 135.07 1397.61 Q132.015 1402.19 126.205 1402.19 Q120.394 1402.19 117.316 1397.61 Q114.26 1393 114.26 1384.27 Q114.26 1375.52 117.316 1370.94 Q120.394 1366.33 126.205 1366.33 Z" fill="#000000" fill-rule="nonzero" fill-opacity="1" /><path clip-path="url(#clip540)" d="M146.366 1395.64 L151.251 1395.64 L151.251 1401.52 L146.366 1401.52 L146.366 1395.64 Z" fill="#000000" fill-rule="nonzero" fill-opacity="1" /><path clip-path="url(#clip540)" d="M171.436 1370.04 Q167.825 1370.04 165.996 1373.6 Q164.19 1377.14 164.19 1384.27 Q164.19 1391.38 165.996 1394.94 Q167.825 1398.49 171.436 1398.49 Q175.07 1398.49 176.876 1394.94 Q178.704 1391.38 178.704 1384.27 Q178.704 1377.14 176.876 1373.6 Q175.07 1370.04 171.436 1370.04 M171.436 1366.33 Q177.246 1366.33 180.301 1370.94 Q183.38 1375.52 183.38 1384.27 Q183.38 1393 180.301 1397.61 Q177.246 1402.19 171.436 1402.19 Q165.626 1402.19 162.547 1397.61 Q159.491 1393 159.491 1384.27 Q159.491 1375.52 162.547 1370.94 Q165.626 1366.33 171.436 1366.33 Z" fill="#000000" fill-rule="nonzero" fill-opacity="1" /><path clip-path="url(#clip540)" d="M201.598 1370.04 Q197.987 1370.04 196.158 1373.6 Q194.352 1377.14 194.352 1384.27 Q194.352 1391.38 196.158 1394.94 Q197.987 1398.49 201.598 1398.49 Q205.232 1398.49 207.037 1394.94 Q208.866 1391.38 208.866 1384.27 Q208.866 1377.14 207.037 1373.6 Q205.232 1370.04 201.598 1370.04 M201.598 1366.33 Q207.408 1366.33 210.463 1370.94 Q213.542 1375.52 213.542 1384.27 Q213.542 1393 210.463 1397.61 Q207.408 1402.19 201.598 1402.19 Q195.787 1402.19 192.709 1397.61 Q189.653 1393 189.653 1384.27 Q189.653 1375.52 192.709 1370.94 Q195.787 1366.33 201.598 1366.33 Z" fill="#000000" fill-rule="nonzero" fill-opacity="1" /><path clip-path="url(#clip540)" d="M231.76 1370.04 Q228.148 1370.04 226.32 1373.6 Q224.514 1377.14 224.514 1384.27 Q224.514 1391.38 226.32 1394.94 Q228.148 1398.49 231.76 1398.49 Q235.394 1398.49 237.199 1394.94 Q239.028 1391.38 239.028 1384.27 Q239.028 1377.14 237.199 1373.6 Q235.394 1370.04 231.76 1370.04 M231.76 1366.33 Q237.57 1366.33 240.625 1370.94 Q243.704 1375.52 243.704 1384.27 Q243.704 1393 240.625 1397.61 Q237.57 1402.19 231.76 1402.19 Q225.949 1402.19 222.871 1397.61 Q219.815 1393 219.815 1384.27 Q219.815 1375.52 222.871 1370.94 Q225.949 1366.33 231.76 1366.33 Z" fill="#000000" fill-rule="nonzero" fill-opacity="1" /><path clip-path="url(#clip540)" d="M127.431 1024.43 Q123.82 1024.43 121.992 1028 Q120.186 1031.54 120.186 1038.67 Q120.186 1045.78 121.992 1049.34 Q123.82 1052.88 127.431 1052.88 Q131.066 1052.88 132.871 1049.34 Q134.7 1045.78 134.7 1038.67 Q134.7 1031.54 132.871 1028 Q131.066 1024.43 127.431 1024.43 M127.431 1020.73 Q133.242 1020.73 136.297 1025.34 Q139.376 1029.92 139.376 1038.67 Q139.376 1047.4 136.297 1052 Q133.242 1056.59 127.431 1056.59 Q121.621 1056.59 118.543 1052 Q115.487 1047.4 115.487 1038.67 Q115.487 1029.92 118.543 1025.34 Q121.621 1020.73 127.431 1020.73 Z" fill="#000000" fill-rule="nonzero" fill-opacity="1" /><path clip-path="url(#clip540)" d="M147.593 1050.03 L152.478 1050.03 L152.478 1055.91 L147.593 1055.91 L147.593 1050.03 Z" fill="#000000" fill-rule="nonzero" fill-opacity="1" /><path clip-path="url(#clip540)" d="M172.663 1024.43 Q169.052 1024.43 167.223 1028 Q165.417 1031.54 165.417 1038.67 Q165.417 1045.78 167.223 1049.34 Q169.052 1052.88 172.663 1052.88 Q176.297 1052.88 178.102 1049.34 Q179.931 1045.78 179.931 1038.67 Q179.931 1031.54 178.102 1028 Q176.297 1024.43 172.663 1024.43 M172.663 1020.73 Q178.473 1020.73 181.528 1025.34 Q184.607 1029.92 184.607 1038.67 Q184.607 1047.4 181.528 1052 Q178.473 1056.59 172.663 1056.59 Q166.852 1056.59 163.774 1052 Q160.718 1047.4 160.718 1038.67 Q160.718 1029.92 163.774 1025.34 Q166.852 1020.73 172.663 1020.73 Z" fill="#000000" fill-rule="nonzero" fill-opacity="1" /><path clip-path="url(#clip540)" d="M202.824 1024.43 Q199.213 1024.43 197.385 1028 Q195.579 1031.54 195.579 1038.67 Q195.579 1045.78 197.385 1049.34 Q199.213 1052.88 202.824 1052.88 Q206.459 1052.88 208.264 1049.34 Q210.093 1045.78 210.093 1038.67 Q210.093 1031.54 208.264 1028 Q206.459 1024.43 202.824 1024.43 M202.824 1020.73 Q208.635 1020.73 211.69 1025.34 Q214.769 1029.92 214.769 1038.67 Q214.769 1047.4 211.69 1052 Q208.635 1056.59 202.824 1056.59 Q197.014 1056.59 193.936 1052 Q190.88 1047.4 190.88 1038.67 Q190.88 1029.92 193.936 1025.34 Q197.014 1020.73 202.824 1020.73 Z" fill="#000000" fill-rule="nonzero" fill-opacity="1" /><path clip-path="url(#clip540)" d="M223.797 1051.98 L231.435 1051.98 L231.435 1025.61 L223.125 1027.28 L223.125 1023.02 L231.389 1021.35 L236.065 1021.35 L236.065 1051.98 L243.704 1051.98 L243.704 1055.91 L223.797 1055.91 L223.797 1051.98 Z" fill="#000000" fill-rule="nonzero" fill-opacity="1" /><path clip-path="url(#clip540)" d="M127.802 678.828 Q124.191 678.828 122.362 682.393 Q120.556 685.935 120.556 693.064 Q120.556 700.171 122.362 703.735 Q124.191 707.277 127.802 707.277 Q131.436 707.277 133.242 703.735 Q135.07 700.171 135.07 693.064 Q135.07 685.935 133.242 682.393 Q131.436 678.828 127.802 678.828 M127.802 675.124 Q133.612 675.124 136.667 679.731 Q139.746 684.314 139.746 693.064 Q139.746 701.791 136.667 706.397 Q133.612 710.981 127.802 710.981 Q121.992 710.981 118.913 706.397 Q115.857 701.791 115.857 693.064 Q115.857 684.314 118.913 679.731 Q121.992 675.124 127.802 675.124 Z" fill="#000000" fill-rule="nonzero" fill-opacity="1" /><path clip-path="url(#clip540)" d="M147.964 704.43 L152.848 704.43 L152.848 710.309 L147.964 710.309 L147.964 704.43 Z" fill="#000000" fill-rule="nonzero" fill-opacity="1" /><path clip-path="url(#clip540)" d="M173.033 678.828 Q169.422 678.828 167.593 682.393 Q165.788 685.935 165.788 693.064 Q165.788 700.171 167.593 703.735 Q169.422 707.277 173.033 707.277 Q176.667 707.277 178.473 703.735 Q180.301 700.171 180.301 693.064 Q180.301 685.935 178.473 682.393 Q176.667 678.828 173.033 678.828 M173.033 675.124 Q178.843 675.124 181.899 679.731 Q184.977 684.314 184.977 693.064 Q184.977 701.791 181.899 706.397 Q178.843 710.981 173.033 710.981 Q167.223 710.981 164.144 706.397 Q161.089 701.791 161.089 693.064 Q161.089 684.314 164.144 679.731 Q167.223 675.124 173.033 675.124 Z" fill="#000000" fill-rule="nonzero" fill-opacity="1" /><path clip-path="url(#clip540)" d="M203.195 678.828 Q199.584 678.828 197.755 682.393 Q195.95 685.935 195.95 693.064 Q195.95 700.171 197.755 703.735 Q199.584 707.277 203.195 707.277 Q206.829 707.277 208.635 703.735 Q210.463 700.171 210.463 693.064 Q210.463 685.935 208.635 682.393 Q206.829 678.828 203.195 678.828 M203.195 675.124 Q209.005 675.124 212.061 679.731 Q215.139 684.314 215.139 693.064 Q215.139 701.791 212.061 706.397 Q209.005 710.981 203.195 710.981 Q197.385 710.981 194.306 706.397 Q191.25 701.791 191.25 693.064 Q191.25 684.314 194.306 679.731 Q197.385 675.124 203.195 675.124 Z" fill="#000000" fill-rule="nonzero" fill-opacity="1" /><path clip-path="url(#clip540)" d="M227.385 706.374 L243.704 706.374 L243.704 710.309 L221.76 710.309 L221.76 706.374 Q224.422 703.62 229.005 698.99 Q233.611 694.337 234.792 692.995 Q237.037 690.472 237.917 688.735 Q238.82 686.976 238.82 685.286 Q238.82 682.532 236.875 680.796 Q234.954 679.06 231.852 679.06 Q229.653 679.06 227.199 679.823 Q224.769 680.587 221.991 682.138 L221.991 677.416 Q224.815 676.282 227.269 675.703 Q229.723 675.124 231.76 675.124 Q237.13 675.124 240.324 677.81 Q243.519 680.495 243.519 684.986 Q243.519 687.115 242.709 689.036 Q241.922 690.935 239.815 693.527 Q239.236 694.198 236.135 697.416 Q233.033 700.61 227.385 706.374 Z" fill="#000000" fill-rule="nonzero" fill-opacity="1" /><path clip-path="url(#clip540)" d="M126.853 333.223 Q123.242 333.223 121.413 336.788 Q119.607 340.33 119.607 347.459 Q119.607 354.566 121.413 358.131 Q123.242 361.672 126.853 361.672 Q130.487 361.672 132.292 358.131 Q134.121 354.566 134.121 347.459 Q134.121 340.33 132.292 336.788 Q130.487 333.223 126.853 333.223 M126.853 329.52 Q132.663 329.52 135.718 334.126 Q138.797 338.71 138.797 347.459 Q138.797 356.186 135.718 360.793 Q132.663 365.376 126.853 365.376 Q121.043 365.376 117.964 360.793 Q114.908 356.186 114.908 347.459 Q114.908 338.71 117.964 334.126 Q121.043 329.52 126.853 329.52 Z" fill="#000000" fill-rule="nonzero" fill-opacity="1" /><path clip-path="url(#clip540)" d="M147.015 358.825 L151.899 358.825 L151.899 364.705 L147.015 364.705 L147.015 358.825 Z" fill="#000000" fill-rule="nonzero" fill-opacity="1" /><path clip-path="url(#clip540)" d="M172.084 333.223 Q168.473 333.223 166.644 336.788 Q164.839 340.33 164.839 347.459 Q164.839 354.566 166.644 358.131 Q168.473 361.672 172.084 361.672 Q175.718 361.672 177.524 358.131 Q179.352 354.566 179.352 347.459 Q179.352 340.33 177.524 336.788 Q175.718 333.223 172.084 333.223 M172.084 329.52 Q177.894 329.52 180.95 334.126 Q184.028 338.71 184.028 347.459 Q184.028 356.186 180.95 360.793 Q177.894 365.376 172.084 365.376 Q166.274 365.376 163.195 360.793 Q160.14 356.186 160.14 347.459 Q160.14 338.71 163.195 334.126 Q166.274 329.52 172.084 329.52 Z" fill="#000000" fill-rule="nonzero" fill-opacity="1" /><path clip-path="url(#clip540)" d="M202.246 333.223 Q198.635 333.223 196.806 336.788 Q195 340.33 195 347.459 Q195 354.566 196.806 358.131 Q198.635 361.672 202.246 361.672 Q205.88 361.672 207.686 358.131 Q209.514 354.566 209.514 347.459 Q209.514 340.33 207.686 336.788 Q205.88 333.223 202.246 333.223 M202.246 329.52 Q208.056 329.52 211.111 334.126 Q214.19 338.71 214.19 347.459 Q214.19 356.186 211.111 360.793 Q208.056 365.376 202.246 365.376 Q196.436 365.376 193.357 360.793 Q190.301 356.186 190.301 347.459 Q190.301 338.71 193.357 334.126 Q196.436 329.52 202.246 329.52 Z" fill="#000000" fill-rule="nonzero" fill-opacity="1" /><path clip-path="url(#clip540)" d="M236.574 346.071 Q239.931 346.788 241.806 349.057 Q243.704 351.325 243.704 354.658 Q243.704 359.774 240.185 362.575 Q236.667 365.376 230.185 365.376 Q228.01 365.376 225.695 364.936 Q223.403 364.52 220.949 363.663 L220.949 359.149 Q222.894 360.283 225.209 360.862 Q227.523 361.441 230.047 361.441 Q234.445 361.441 236.736 359.705 Q239.051 357.969 239.051 354.658 Q239.051 351.603 236.898 349.89 Q234.769 348.154 230.949 348.154 L226.922 348.154 L226.922 344.311 L231.135 344.311 Q234.584 344.311 236.412 342.946 Q238.241 341.557 238.241 338.964 Q238.241 336.302 236.343 334.89 Q234.468 333.455 230.949 333.455 Q229.028 333.455 226.829 333.872 Q224.63 334.288 221.991 335.168 L221.991 331.001 Q224.653 330.26 226.968 329.89 Q229.306 329.52 231.366 329.52 Q236.69 329.52 239.792 331.95 Q242.894 334.358 242.894 338.478 Q242.894 341.348 241.25 343.339 Q239.607 345.307 236.574 346.071 Z" fill="#000000" fill-rule="nonzero" fill-opacity="1" /><path clip-path="url(#clip540)" d="M29.4065 1034.59 L34.9447 1034.59 Q33.6716 1037.07 33.035 1039.75 Q32.3984 1042.42 32.3984 1045.29 Q32.3984 1049.65 33.7352 1051.84 Q35.072 1054.01 37.7456 1054.01 Q39.7826 1054.01 40.9603 1052.45 Q42.1061 1050.89 43.1565 1046.18 L43.6021 1044.17 Q44.9389 1037.93 47.3897 1035.32 Q49.8086 1032.68 54.1691 1032.68 Q59.1344 1032.68 62.0308 1036.63 Q64.9272 1040.54 64.9272 1047.42 Q64.9272 1050.28 64.3543 1053.4 Q63.8132 1056.49 62.6992 1059.93 L56.6518 1059.93 Q58.3387 1056.68 59.198 1053.53 Q60.0256 1050.38 60.0256 1047.29 Q60.0256 1043.15 58.6251 1040.93 Q57.1929 1038.7 54.6147 1038.7 Q52.2276 1038.7 50.9545 1040.32 Q49.6813 1041.91 48.5037 1047.35 L48.0262 1049.39 Q46.8804 1054.83 44.5251 1057.25 Q42.138 1059.67 38.0002 1059.67 Q32.9713 1059.67 30.2341 1056.11 Q27.4968 1052.54 27.4968 1045.99 Q27.4968 1042.74 27.9743 1039.87 Q28.4517 1037.01 29.4065 1034.59 Z" fill="#000000" fill-rule="nonzero" fill-opacity="1" /><path clip-path="url(#clip540)" d="M42.4881 993.723 L64.0042 993.723 L64.0042 999.58 L42.679 999.58 Q37.6183 999.58 35.1038 1001.55 Q32.5894 1003.53 32.5894 1007.47 Q32.5894 1012.22 35.6131 1014.95 Q38.6368 1017.69 43.8567 1017.69 L64.0042 1017.69 L64.0042 1023.58 L28.3562 1023.58 L28.3562 1017.69 L33.8944 1017.69 Q30.6797 1015.59 29.0883 1012.76 Q27.4968 1009.89 27.4968 1006.17 Q27.4968 1000.03 31.3163 996.874 Q35.1038 993.723 42.4881 993.723 Z" fill="#000000" fill-rule="nonzero" fill-opacity="1" /><path clip-path="url(#clip540)" d="M32.4621 968.229 Q32.4621 972.939 36.1542 975.677 Q39.8145 978.414 46.212 978.414 Q52.6095 978.414 56.3017 975.708 Q59.9619 972.971 59.9619 968.229 Q59.9619 963.55 56.2698 960.813 Q52.5777 958.075 46.212 958.075 Q39.8781 958.075 36.186 960.813 Q32.4621 963.55 32.4621 968.229 M27.4968 968.229 Q27.4968 960.59 32.4621 956.229 Q37.4273 951.869 46.212 951.869 Q54.9649 951.869 59.9619 956.229 Q64.9272 960.59 64.9272 968.229 Q64.9272 975.899 59.9619 980.26 Q54.9649 984.589 46.212 984.589 Q37.4273 984.589 32.4621 980.26 Q27.4968 975.899 27.4968 968.229 Z" fill="#000000" fill-rule="nonzero" fill-opacity="1" /><path clip-path="url(#clip540)" d="M28.3562 945.567 L28.3562 939.71 L56.1743 932.39 L28.3562 925.101 L28.3562 918.194 L56.1743 910.874 L28.3562 903.585 L28.3562 897.728 L64.0042 907.054 L64.0042 913.961 L34.7856 921.632 L64.0042 929.334 L64.0042 936.241 L28.3562 945.567 Z" fill="#000000" fill-rule="nonzero" fill-opacity="1" /><path clip-path="url(#clip540)" d="M35.1993 840.373 Q31.2526 838.177 29.3747 835.122 Q27.4968 832.066 27.4968 827.928 Q27.4968 822.358 31.4117 819.335 Q35.2948 816.311 42.4881 816.311 L64.0042 816.311 L64.0042 822.199 L42.679 822.199 Q37.5546 822.199 35.072 824.014 Q32.5894 825.828 32.5894 829.552 Q32.5894 834.103 35.6131 836.745 Q38.6368 839.387 43.8567 839.387 L64.0042 839.387 L64.0042 845.275 L42.679 845.275 Q37.5228 845.275 35.072 847.089 Q32.5894 848.903 32.5894 852.691 Q32.5894 857.179 35.6449 859.821 Q38.6686 862.462 43.8567 862.462 L64.0042 862.462 L64.0042 868.351 L28.3562 868.351 L28.3562 862.462 L33.8944 862.462 Q30.616 860.457 29.0564 857.656 Q27.4968 854.855 27.4968 851.004 Q27.4968 847.121 29.4702 844.416 Q31.4436 841.678 35.1993 840.373 Z" fill="#000000" fill-rule="nonzero" fill-opacity="1" /><path clip-path="url(#clip540)" d="M44.7161 774.138 L47.5806 774.138 L47.5806 801.065 Q53.6281 800.683 56.8109 797.437 Q59.9619 794.158 59.9619 788.334 Q59.9619 784.96 59.1344 781.809 Q58.3069 778.626 56.6518 775.507 L62.1899 775.507 Q63.5267 778.658 64.227 781.968 Q64.9272 785.278 64.9272 788.684 Q64.9272 797.214 59.9619 802.211 Q54.9967 807.176 46.5303 807.176 Q37.7774 807.176 32.6531 802.466 Q27.4968 797.723 27.4968 789.702 Q27.4968 782.509 32.1438 778.34 Q36.7589 774.138 44.7161 774.138 M42.9973 779.995 Q38.1912 780.058 35.3266 782.7 Q32.4621 785.31 32.4621 789.639 Q32.4621 794.54 35.2312 797.5 Q38.0002 800.429 43.0292 800.874 L42.9973 779.995 Z" fill="#000000" fill-rule="nonzero" fill-opacity="1" /><path clip-path="url(#clip540)" d="M14.479 764.526 L14.479 758.67 L64.0042 758.67 L64.0042 764.526 L14.479 764.526 Z" fill="#000000" fill-rule="nonzero" fill-opacity="1" /><path clip-path="url(#clip540)" d="M18.2347 740.623 L28.3562 740.623 L28.3562 728.56 L32.9077 728.56 L32.9077 740.623 L52.2594 740.623 Q56.6199 740.623 57.8613 739.445 Q59.1026 738.236 59.1026 734.575 L59.1026 728.56 L64.0042 728.56 L64.0042 734.575 Q64.0042 741.355 61.4897 743.933 Q58.9434 746.511 52.2594 746.511 L32.9077 746.511 L32.9077 750.808 L28.3562 750.808 L28.3562 746.511 L18.2347 746.511 L18.2347 740.623 Z" fill="#000000" fill-rule="nonzero" fill-opacity="1" /><path clip-path="url(#clip540)" d="M33.8307 679.48 Q33.2578 680.467 33.0032 681.645 Q32.7167 682.79 32.7167 684.191 Q32.7167 689.156 35.9632 691.83 Q39.1779 694.471 45.2253 694.471 L64.0042 694.471 L64.0042 700.36 L28.3562 700.36 L28.3562 694.471 L33.8944 694.471 Q30.6479 692.625 29.0883 689.665 Q27.4968 686.705 27.4968 682.472 Q27.4968 681.867 27.5923 681.135 Q27.656 680.403 27.8151 679.512 L33.8307 679.48 Z" fill="#000000" fill-rule="nonzero" fill-opacity="1" /><path clip-path="url(#clip540)" d="M46.0847 657.137 Q46.0847 664.234 47.7079 666.972 Q49.3312 669.709 53.2461 669.709 Q56.3653 669.709 58.2114 667.672 Q60.0256 665.603 60.0256 662.07 Q60.0256 657.2 56.5881 654.272 Q53.1188 651.312 47.3897 651.312 L46.0847 651.312 L46.0847 657.137 M43.6657 645.456 L64.0042 645.456 L64.0042 651.312 L58.5933 651.312 Q61.8398 653.317 63.3994 656.309 Q64.9272 659.301 64.9272 663.63 Q64.9272 669.104 61.8716 672.351 Q58.7843 675.565 53.6281 675.565 Q47.6125 675.565 44.5569 671.555 Q41.5014 667.513 41.5014 659.524 L41.5014 651.312 L40.9285 651.312 Q36.8862 651.312 34.6901 653.986 Q32.4621 656.627 32.4621 661.433 Q32.4621 664.489 33.1941 667.385 Q33.9262 670.282 35.3903 672.955 L29.9795 672.955 Q28.7381 669.741 28.1334 666.717 Q27.4968 663.693 27.4968 660.829 Q27.4968 653.094 31.5072 649.275 Q35.5176 645.456 43.6657 645.456 Z" fill="#000000" fill-rule="nonzero" fill-opacity="1" /><path clip-path="url(#clip540)" d="M18.2347 627.6 L28.3562 627.6 L28.3562 615.537 L32.9077 615.537 L32.9077 627.6 L52.2594 627.6 Q56.6199 627.6 57.8613 626.422 Q59.1026 625.213 59.1026 621.552 L59.1026 615.537 L64.0042 615.537 L64.0042 621.552 Q64.0042 628.332 61.4897 630.91 Q58.9434 633.488 52.2594 633.488 L32.9077 633.488 L32.9077 637.785 L28.3562 637.785 L28.3562 633.488 L18.2347 633.488 L18.2347 627.6 Z" fill="#000000" fill-rule="nonzero" fill-opacity="1" /><path clip-path="url(#clip540)" d="M44.7161 577.342 L47.5806 577.342 L47.5806 604.269 Q53.6281 603.887 56.8109 600.641 Q59.9619 597.363 59.9619 591.538 Q59.9619 588.164 59.1344 585.013 Q58.3069 581.83 56.6518 578.711 L62.1899 578.711 Q63.5267 581.862 64.227 585.172 Q64.9272 588.482 64.9272 591.888 Q64.9272 600.418 59.9619 605.415 Q54.9967 610.38 46.5303 610.38 Q37.7774 610.38 32.6531 605.67 Q27.4968 600.927 27.4968 592.907 Q27.4968 585.713 32.1438 581.544 Q36.7589 577.342 44.7161 577.342 M42.9973 583.199 Q38.1912 583.263 35.3266 585.904 Q32.4621 588.514 32.4621 592.843 Q32.4621 597.745 35.2312 600.705 Q38.0002 603.633 43.0292 604.078 L42.9973 583.199 Z" fill="#000000" fill-rule="nonzero" fill-opacity="1" /><path clip-path="url(#clip540)" d="M14.479 547.551 L14.479 534.056 L19.0304 534.056 L19.0304 541.694 L68.0464 541.694 L68.0464 534.056 L72.5979 534.056 L72.5979 547.551 L14.479 547.551 Z" fill="#000000" fill-rule="nonzero" fill-opacity="1" /><path clip-path="url(#clip540)" d="M58.5933 519.637 L58.5933 509.134 L22.3406 509.134 L24.6323 520.56 L18.7758 520.56 L16.4842 509.198 L16.4842 502.768 L58.5933 502.768 L58.5933 492.265 L64.0042 492.265 L64.0042 519.637 L58.5933 519.637 Z" fill="#000000" fill-rule="nonzero" fill-opacity="1" /><path clip-path="url(#clip540)" d="M16.4842 469.698 L16.4842 464.287 L70.0516 480.838 L70.0516 486.249 L16.4842 469.698 Z" fill="#000000" fill-rule="nonzero" fill-opacity="1" /><path clip-path="url(#clip540)" d="M29.4065 435.419 L34.9447 435.419 Q33.6716 437.902 33.035 440.575 Q32.3984 443.249 32.3984 446.113 Q32.3984 450.474 33.7352 452.67 Q35.072 454.834 37.7456 454.834 Q39.7826 454.834 40.9603 453.275 Q42.1061 451.715 43.1565 447.005 L43.6021 444.999 Q44.9389 438.761 47.3897 436.151 Q49.8086 433.509 54.1691 433.509 Q59.1344 433.509 62.0308 437.456 Q64.9272 441.371 64.9272 448.246 Q64.9272 451.11 64.3543 454.23 Q63.8132 457.317 62.6992 460.755 L56.6518 460.755 Q58.3387 457.508 59.198 454.357 Q60.0256 451.206 60.0256 448.119 Q60.0256 443.981 58.6251 441.753 Q57.1929 439.525 54.6147 439.525 Q52.2276 439.525 50.9545 441.148 Q49.6813 442.74 48.5037 448.182 L48.0262 450.219 Q46.8804 455.662 44.5251 458.081 Q42.138 460.5 38.0002 460.5 Q32.9713 460.5 30.2341 456.935 Q27.4968 453.37 27.4968 446.814 Q27.4968 443.567 27.9743 440.703 Q28.4517 437.838 29.4065 435.419 Z" fill="#000000" fill-rule="nonzero" fill-opacity="1" /><path clip-path="url(#clip540)" d="M14.479 410.497 L72.5979 410.497 L72.5979 423.993 L68.0464 423.993 L68.0464 416.386 L19.0304 416.386 L19.0304 423.993 L14.479 423.993 L14.479 410.497 Z" fill="#000000" fill-rule="nonzero" fill-opacity="1" /><polyline clip-path="url(#clip542)" style="stroke:#0000ff; stroke-linecap:round; stroke-linejoin:round; stroke-width:12; stroke-opacity:1; fill:none" points="338.375,1384.24 358.13,1382.5 377.884,1380.9 397.639,1379.35 417.394,1377.83 437.148,1376.34 456.903,1374.86 476.658,1373.39 496.412,1371.94 516.167,1370.5 535.922,1369.07 555.676,1367.64 575.431,1366.23 595.186,1364.82 614.94,1363.41 634.695,1362.02 654.449,1360.62 674.204,1359.24 693.959,1357.85 713.713,1356.48 733.468,1355.1 753.223,1353.73 772.977,1352.36 792.732,1351 812.487,1349.64 832.241,1348.29 851.996,1346.93 871.75,1345.58 891.505,1344.23 911.26,1342.89 931.014,1341.55 950.769,1340.21 970.524,1338.87 990.278,1337.54 1010.03,1336.2 1029.79,1334.87 1049.54,1333.55 1069.3,1332.22 1089.05,1330.9 1108.81,1329.57 1128.56,1328.25 1148.32,1326.94 1168.07,1325.62 1187.82,1324.3 1207.58,1322.99 1227.33,1321.68 1247.09,1320.37 1266.84,1319.06 1286.6,1317.76 1306.35,1316.45 1326.11,1315.15 1345.86,1313.85 1365.62,1312.55 1385.37,1311.25 1405.13,1309.95 1424.88,1308.65 1444.64,1307.36 1464.39,1306.07 1484.14,1304.77 1503.9,1303.48 1523.65,1302.19 1543.41,1300.91 1563.16,1299.62 1582.92,1298.33 1602.67,1297.05 1622.43,1295.76 1642.18,1294.48 1661.94,1293.2 1681.69,1291.92 1701.45,1290.64 1721.2,1289.36 1740.95,1288.08 1760.71,1286.81 1780.46,1285.53 1800.22,1284.26 1819.97,1282.98 1839.73,1281.71 1859.48,1280.44 1879.24,1279.17 1898.99,1277.9 1918.75,1276.63 1938.5,1275.36 1958.26,1274.1 1978.01,1272.83 1997.77,1271.56 2017.52,1270.3 2037.27,1269.04 2057.03,1267.77 2076.78,1266.51 2096.54,1265.25 2116.29,1263.99 2136.05,1262.73 2155.8,1261.47 2175.56,1260.21 2195.31,1258.96 2215.07,1257.7 2234.82,1256.44 2254.58,1255.19 2274.33,1253.93 2294.08,1252.68 "/>
<polyline clip-path="url(#clip542)" style="stroke:#ff0000; stroke-linecap:round; stroke-linejoin:round; stroke-width:12; stroke-opacity:1; fill:none" points="338.375,1384.24 358.13,1380.8 377.884,1377.64 397.639,1374.58 417.394,1371.58 437.148,1368.63 456.903,1365.71 476.658,1362.81 496.412,1359.95 516.167,1357.1 535.922,1354.27 555.676,1351.45 575.431,1348.65 595.186,1345.87 614.94,1343.1 634.695,1340.34 654.449,1337.58 674.204,1334.84 693.959,1332.11 713.713,1329.39 733.468,1326.67 753.223,1323.97 772.977,1321.27 792.732,1318.57 812.487,1315.89 832.241,1313.21 851.996,1310.53 871.75,1307.87 891.505,1305.2 911.26,1302.55 931.014,1299.9 950.769,1297.25 970.524,1294.61 990.278,1291.97 1010.03,1289.34 1029.79,1286.71 1049.54,1284.09 1069.3,1281.47 1089.05,1278.85 1108.81,1276.24 1128.56,1273.63 1148.32,1271.03 1168.07,1268.43 1187.82,1265.83 1207.58,1263.24 1227.33,1260.65 1247.09,1258.06 1266.84,1255.48 1286.6,1252.89 1306.35,1250.32 1326.11,1247.74 1345.86,1245.17 1365.62,1242.6 1385.37,1240.04 1405.13,1237.47 1424.88,1234.91 1444.64,1232.35 1464.39,1229.8 1484.14,1227.24 1503.9,1224.69 1523.65,1222.15 1543.41,1219.6 1563.16,1217.06 1582.92,1214.52 1602.67,1211.98 1622.43,1209.44 1642.18,1206.91 1661.94,1204.38 1681.69,1201.85 1701.45,1199.32 1721.2,1196.79 1740.95,1194.27 1760.71,1191.75 1780.46,1189.23 1800.22,1186.71 1819.97,1184.19 1839.73,1181.68 1859.48,1179.17 1879.24,1176.66 1898.99,1174.15 1918.75,1171.64 1938.5,1169.14 1958.26,1166.63 1978.01,1164.13 1997.77,1161.63 2017.52,1159.13 2037.27,1156.64 2057.03,1154.14 2076.78,1151.65 2096.54,1149.16 2116.29,1146.67 2136.05,1144.18 2155.8,1141.69 2175.56,1139.21 2195.31,1136.72 2215.07,1134.24 2234.82,1131.76 2254.58,1129.28 2274.33,1126.8 2294.08,1124.32 "/>
<polyline clip-path="url(#clip542)" style="stroke:#008000; stroke-linecap:round; stroke-linejoin:round; stroke-width:12; stroke-opacity:1; fill:none" points="338.375,1384.24 358.13,1379.14 377.884,1374.47 397.639,1369.93 417.394,1365.48 437.148,1361.1 456.903,1356.78 476.658,1352.49 496.412,1348.24 516.167,1344.02 535.922,1339.82 555.676,1335.65 575.431,1331.5 595.186,1327.38 614.94,1323.27 634.695,1319.18 654.449,1315.1 674.204,1311.04 693.959,1306.99 713.713,1302.95 733.468,1298.93 753.223,1294.92 772.977,1290.92 792.732,1286.92 812.487,1282.94 832.241,1278.97 851.996,1275.01 871.75,1271.06 891.505,1267.11 911.26,1263.17 931.014,1259.24 950.769,1255.32 970.524,1251.41 990.278,1247.5 1010.03,1243.6 1029.79,1239.7 1049.54,1235.82 1069.3,1231.93 1089.05,1228.06 1108.81,1224.19 1128.56,1220.32 1148.32,1216.46 1168.07,1212.61 1187.82,1208.76 1207.58,1204.92 1227.33,1201.08 1247.09,1197.25 1266.84,1193.42 1286.6,1189.59 1306.35,1185.77 1326.11,1181.96 1345.86,1178.14 1365.62,1174.34 1385.37,1170.53 1405.13,1166.74 1424.88,1162.94 1444.64,1159.15 1464.39,1155.36 1484.14,1151.58 1503.9,1147.8 1523.65,1144.02 1543.41,1140.25 1563.16,1136.48 1582.92,1132.72 1602.67,1128.95 1622.43,1125.2 1642.18,1121.44 1661.94,1117.69 1681.69,1113.94 1701.45,1110.19 1721.2,1106.45 1740.95,1102.71 1760.71,1098.97 1780.46,1095.24 1800.22,1091.51 1819.97,1087.78 1839.73,1084.05 1859.48,1080.33 1879.24,1076.61 1898.99,1072.89 1918.75,1069.18 1938.5,1065.47 1958.26,1061.76 1978.01,1058.05 1997.77,1054.34 2017.52,1050.64 2037.27,1046.94 2057.03,1043.24 2076.78,1039.55 2096.54,1035.86 2116.29,1032.17 2136.05,1028.48 2155.8,1024.79 2175.56,1021.11 2195.31,1017.43 2215.07,1013.75 2234.82,1010.07 2254.58,1006.4 2274.33,1002.73 2294.08,999.057 "/>
<polyline clip-path="url(#clip542)" style="stroke:#0000ff; stroke-linecap:round; stroke-linejoin:round; stroke-width:12; stroke-opacity:1; fill:none" stroke-dasharray="48, 30" points="338.375,1379.44 358.13,1300.07 377.884,1277.36 397.639,1261.18 417.394,1248.15 437.148,1237.04 456.903,1227.25 476.658,1218.42 496.412,1210.35 516.167,1202.88 535.922,1195.9 555.676,1189.34 575.431,1183.13 595.186,1177.23 614.94,1171.6 634.695,1166.2 654.449,1161.02 674.204,1156.03 693.959,1151.22 713.713,1146.56 733.468,1142.05 753.223,1137.67 772.977,1133.41 792.732,1129.27 812.487,1125.23 832.241,1121.29 851.996,1117.44 871.75,1113.68 891.505,1110 911.26,1106.4 931.014,1102.87 950.769,1099.41 970.524,1096.01 990.278,1092.67 1010.03,1089.4 1029.79,1086.18 1049.54,1083.01 1069.3,1079.89 1089.05,1076.82 1108.81,1073.8 1128.56,1070.83 1148.32,1067.89 1168.07,1065 1187.82,1062.15 1207.58,1059.33 1227.33,1056.56 1247.09,1053.82 1266.84,1051.11 1286.6,1048.44 1306.35,1045.8 1326.11,1043.19 1345.86,1040.61 1365.62,1038.06 1385.37,1035.53 1405.13,1033.04 1424.88,1030.57 1444.64,1028.13 1464.39,1025.71 1484.14,1023.32 1503.9,1020.95 1523.65,1018.61 1543.41,1016.29 1563.16,1013.99 1582.92,1011.71 1602.67,1009.45 1622.43,1007.22 1642.18,1005 1661.94,1002.81 1681.69,1000.63 1701.45,998.47 1721.2,996.33 1740.95,994.208 1760.71,992.104 1780.46,990.017 1800.22,987.947 1819.97,985.894 1839.73,983.857 1859.48,981.836 1879.24,979.83 1898.99,977.84 1918.75,975.865 1938.5,973.905 1958.26,971.959 1978.01,970.028 1997.77,968.111 2017.52,966.207 2037.27,964.317 2057.03,962.441 2076.78,960.577 2096.54,958.727 2116.29,956.889 2136.05,955.064 2155.8,953.251 2175.56,951.45 2195.31,949.661 2215.07,947.881 2234.82,946.119 2254.58,944.365 2274.33,942.622 2294.08,940.89 "/>
<polyline clip-path="url(#clip542)" style="stroke:#ff0000; stroke-linecap:round; stroke-linejoin:round; stroke-width:12; stroke-opacity:1; fill:none" stroke-dasharray="48, 30" points="338.375,1374.76 358.13,1217.95 377.884,1173.08 397.639,1141.12 417.394,1115.38 437.148,1093.43 456.903,1074.08 476.658,1056.65 496.412,1040.7 516.167,1025.93 535.922,1012.14 555.676,999.178 575.431,986.913 595.186,975.255 614.94,964.129 634.695,953.475 654.449,943.241 674.204,933.385 693.959,923.872 713.713,914.671 733.468,905.755 753.223,897.102 772.977,888.69 792.732,880.504 812.487,872.526 832.241,864.742 851.996,857.141 871.75,849.71 891.505,842.441 911.26,835.322 931.014,828.347 950.769,821.507 970.524,814.795 990.278,808.205 1010.03,801.731 1029.79,795.368 1049.54,789.11 1069.3,782.953 1089.05,776.892 1108.81,770.923 1128.56,765.043 1148.32,759.248 1168.07,753.535 1187.82,747.9 1207.58,742.341 1227.33,736.855 1247.09,731.44 1266.84,726.093 1286.6,720.811 1306.35,715.593 1326.11,710.437 1345.86,705.34 1365.62,700.301 1385.37,695.318 1405.13,690.39 1424.88,685.517 1444.64,680.691 1464.39,675.917 1484.14,671.191 1503.9,666.513 1523.65,661.882 1543.41,657.295 1563.16,652.752 1582.92,648.251 1602.67,643.793 1622.43,639.375 1642.18,634.997 1661.94,630.658 1681.69,626.356 1701.45,622.093 1721.2,617.865 1740.95,613.673 1760.71,609.516 1780.46,605.393 1800.22,601.304 1819.97,597.247 1839.73,593.222 1859.48,589.229 1879.24,585.267 1898.99,581.336 1918.75,577.434 1938.5,573.561 1958.26,569.717 1978.01,565.902 1997.77,562.114 2017.52,558.353 2037.27,554.619 2057.03,550.912 2076.78,547.231 2096.54,543.575 2116.29,539.944 2136.05,536.338 2155.8,532.756 2175.56,529.198 2195.31,525.664 2215.07,522.147 2234.82,518.665 2254.58,515.2 2274.33,511.757 2294.08,508.336 "/>
<polyline clip-path="url(#clip542)" style="stroke:#008000; stroke-linecap:round; stroke-linejoin:round; stroke-width:12; stroke-opacity:1; fill:none" stroke-dasharray="48, 30" points="338.375,1370.2 358.13,1137.81 377.884,1071.31 397.639,1023.95 417.394,985.801 437.148,953.272 456.903,924.597 476.658,898.761 496.412,875.122 516.167,853.243 535.922,832.811 555.676,813.595 575.431,795.418 595.186,778.141 614.94,761.653 634.695,745.863 654.449,730.697 674.204,716.092 693.959,701.994 713.713,688.358 733.468,675.145 753.223,662.321 772.977,649.856 792.732,637.724 812.487,625.9 832.241,614.366 851.996,603.101 871.75,592.089 891.505,581.316 911.26,570.766 931.014,560.429 950.769,550.292 970.524,540.346 990.278,530.58 1010.03,520.986 1029.79,511.556 1049.54,502.281 1069.3,493.156 1089.05,484.174 1108.81,475.329 1128.56,466.615 1148.32,458.027 1168.07,449.56 1187.82,441.21 1207.58,432.972 1227.33,424.842 1247.09,416.817 1266.84,408.892 1286.6,401.065 1306.35,393.333 1326.11,385.691 1345.86,378.138 1365.62,370.671 1385.37,363.286 1405.13,355.983 1424.88,348.76 1444.64,341.609 1464.39,334.534 1484.14,327.531 1503.9,320.598 1523.65,313.734 1543.41,306.937 1563.16,300.204 1582.92,293.535 1602.67,286.927 1622.43,280.38 1642.18,273.892 1661.94,267.462 1681.69,261.087 1701.45,254.768 1721.2,248.503 1740.95,242.291 1760.71,236.13 1780.46,230.02 1800.22,223.96 1819.97,217.948 1839.73,211.984 1859.48,206.067 1879.24,200.195 1898.99,194.368 1918.75,188.586 1938.5,182.847 1958.26,177.15 1978.01,171.496 1997.77,165.882 2017.52,160.309 2037.27,154.776 2057.03,149.282 2076.78,143.826 2096.54,138.408 2116.29,133.027 2136.05,127.683 2155.8,122.375 2175.56,117.103 2195.31,111.866 2215.07,106.654 2234.82,101.494 2254.58,96.3581 2274.33,91.2556 2294.08,86.1857 "/>
<path clip-path="url(#clip540)" d="M348.806 455.989 L782.383 455.989 L782.383 93.1086 L348.806 93.1086  Z" fill="#ffffff" fill-rule="evenodd" fill-opacity="1"/>
<polyline clip-path="url(#clip540)" style="stroke:#000000; stroke-linecap:round; stroke-linejoin:round; stroke-width:4; stroke-opacity:1; fill:none" points="348.806,455.989 782.383,455.989 782.383,93.1086 348.806,93.1086 348.806,455.989 "/>
<polyline clip-path="url(#clip540)" style="stroke:#0000ff; stroke-linecap:round; stroke-linejoin:round; stroke-width:12; stroke-opacity:1; fill:none" points="371.84,144.949 510.043,144.949 "/>
<path clip-path="url(#clip540)" d="M533.748 158.293 L541.387 158.293 L541.387 131.928 L533.077 133.595 L533.077 129.335 L541.341 127.669 L546.017 127.669 L546.017 158.293 L553.656 158.293 L553.656 162.229 L533.748 162.229 L533.748 158.293 Z" fill="#000000" fill-rule="nonzero" fill-opacity="1" /><path clip-path="url(#clip540)" d="M562.683 127.669 L569.651 127.669 L578.47 151.187 L587.336 127.669 L594.303 127.669 L594.303 162.229 L589.743 162.229 L589.743 131.882 L580.831 155.585 L576.132 155.585 L567.22 131.882 L567.22 162.229 L562.683 162.229 L562.683 127.669 Z" fill="#000000" fill-rule="nonzero" fill-opacity="1" /><path clip-path="url(#clip540)" d="M604.489 156.349 L609.373 156.349 L609.373 162.229 L604.489 162.229 L604.489 156.349 M604.489 137.715 L609.373 137.715 L609.373 143.594 L604.489 143.594 L604.489 137.715 Z" fill="#000000" fill-rule="nonzero" fill-opacity="1" /><path clip-path="url(#clip540)" d="M629.836 127.669 L659.072 127.669 L659.072 131.604 L646.803 131.604 L646.803 162.229 L642.104 162.229 L642.104 131.604 L629.836 131.604 L629.836 127.669 Z" fill="#000000" fill-rule="nonzero" fill-opacity="1" /><path clip-path="url(#clip540)" d="M663.956 140.701 L693.632 140.701 L693.632 144.59 L663.956 144.59 L663.956 140.701 M663.956 150.145 L693.632 150.145 L693.632 154.081 L663.956 154.081 L663.956 150.145 Z" fill="#000000" fill-rule="nonzero" fill-opacity="1" /><path clip-path="url(#clip540)" d="M707.752 158.293 L724.071 158.293 L724.071 162.229 L702.127 162.229 L702.127 158.293 Q704.789 155.539 709.372 150.909 Q713.979 146.256 715.159 144.914 Q717.405 142.391 718.284 140.655 Q719.187 138.895 719.187 137.206 Q719.187 134.451 717.243 132.715 Q715.321 130.979 712.219 130.979 Q710.02 130.979 707.567 131.743 Q705.136 132.507 702.358 134.057 L702.358 129.335 Q705.182 128.201 707.636 127.622 Q710.09 127.044 712.127 127.044 Q717.497 127.044 720.692 129.729 Q723.886 132.414 723.886 136.905 Q723.886 139.034 723.076 140.956 Q722.289 142.854 720.182 145.446 Q719.604 146.118 716.502 149.335 Q713.4 152.53 707.752 158.293 Z" fill="#000000" fill-rule="nonzero" fill-opacity="1" /><path clip-path="url(#clip540)" d="M759.349 130.331 L759.349 135.261 Q756.988 133.062 754.303 131.974 Q751.641 130.886 748.631 130.886 Q742.705 130.886 739.557 134.52 Q736.409 138.132 736.409 144.983 Q736.409 151.812 739.557 155.446 Q742.705 159.057 748.631 159.057 Q751.641 159.057 754.303 157.969 Q756.988 156.881 759.349 154.682 L759.349 159.567 Q756.895 161.233 754.141 162.067 Q751.409 162.9 748.354 162.9 Q740.506 162.9 735.993 158.108 Q731.479 153.293 731.479 144.983 Q731.479 136.65 735.993 131.858 Q740.506 127.044 748.354 127.044 Q751.455 127.044 754.187 127.877 Q756.941 128.687 759.349 130.331 Z" fill="#000000" fill-rule="nonzero" fill-opacity="1" /><polyline clip-path="url(#clip540)" style="stroke:#ff0000; stroke-linecap:round; stroke-linejoin:round; stroke-width:12; stroke-opacity:1; fill:none" points="371.84,196.789 510.043,196.789 "/>
<path clip-path="url(#clip540)" d="M533.748 210.133 L541.387 210.133 L541.387 183.768 L533.077 185.435 L533.077 181.175 L541.341 179.509 L546.017 179.509 L546.017 210.133 L553.656 210.133 L553.656 214.069 L533.748 214.069 L533.748 210.133 Z" fill="#000000" fill-rule="nonzero" fill-opacity="1" /><path clip-path="url(#clip540)" d="M562.683 179.509 L569.651 179.509 L578.47 203.027 L587.336 179.509 L594.303 179.509 L594.303 214.069 L589.743 214.069 L589.743 183.722 L580.831 207.425 L576.132 207.425 L567.22 183.722 L567.22 214.069 L562.683 214.069 L562.683 179.509 Z" fill="#000000" fill-rule="nonzero" fill-opacity="1" /><path clip-path="url(#clip540)" d="M604.489 208.189 L609.373 208.189 L609.373 214.069 L604.489 214.069 L604.489 208.189 M604.489 189.555 L609.373 189.555 L609.373 195.434 L604.489 195.434 L604.489 189.555 Z" fill="#000000" fill-rule="nonzero" fill-opacity="1" /><path clip-path="url(#clip540)" d="M629.836 179.509 L659.072 179.509 L659.072 183.444 L646.803 183.444 L646.803 214.069 L642.104 214.069 L642.104 183.444 L629.836 183.444 L629.836 179.509 Z" fill="#000000" fill-rule="nonzero" fill-opacity="1" /><path clip-path="url(#clip540)" d="M663.956 192.541 L693.632 192.541 L693.632 196.43 L663.956 196.43 L663.956 192.541 M663.956 201.985 L693.632 201.985 L693.632 205.921 L663.956 205.921 L663.956 201.985 Z" fill="#000000" fill-rule="nonzero" fill-opacity="1" /><path clip-path="url(#clip540)" d="M716.571 183.583 L704.766 202.032 L716.571 202.032 L716.571 183.583 M715.344 179.509 L721.224 179.509 L721.224 202.032 L726.155 202.032 L726.155 205.921 L721.224 205.921 L721.224 214.069 L716.571 214.069 L716.571 205.921 L700.97 205.921 L700.97 201.407 L715.344 179.509 Z" fill="#000000" fill-rule="nonzero" fill-opacity="1" /><path clip-path="url(#clip540)" d="M759.349 182.171 L759.349 187.101 Q756.988 184.902 754.303 183.814 Q751.641 182.726 748.631 182.726 Q742.705 182.726 739.557 186.36 Q736.409 189.972 736.409 196.823 Q736.409 203.652 739.557 207.286 Q742.705 210.897 748.631 210.897 Q751.641 210.897 754.303 209.809 Q756.988 208.721 759.349 206.522 L759.349 211.407 Q756.895 213.073 754.141 213.907 Q751.409 214.74 748.354 214.74 Q740.506 214.74 735.993 209.948 Q731.479 205.133 731.479 196.823 Q731.479 188.49 735.993 183.698 Q740.506 178.884 748.354 178.884 Q751.455 178.884 754.187 179.717 Q756.941 180.527 759.349 182.171 Z" fill="#000000" fill-rule="nonzero" fill-opacity="1" /><polyline clip-path="url(#clip540)" style="stroke:#008000; stroke-linecap:round; stroke-linejoin:round; stroke-width:12; stroke-opacity:1; fill:none" points="371.84,248.629 510.043,248.629 "/>
<path clip-path="url(#clip540)" d="M533.748 261.973 L541.387 261.973 L541.387 235.608 L533.077 237.275 L533.077 233.015 L541.341 231.349 L546.017 231.349 L546.017 261.973 L553.656 261.973 L553.656 265.909 L533.748 265.909 L533.748 261.973 Z" fill="#000000" fill-rule="nonzero" fill-opacity="1" /><path clip-path="url(#clip540)" d="M562.683 231.349 L569.651 231.349 L578.47 254.867 L587.336 231.349 L594.303 231.349 L594.303 265.909 L589.743 265.909 L589.743 235.562 L580.831 259.265 L576.132 259.265 L567.22 235.562 L567.22 265.909 L562.683 265.909 L562.683 231.349 Z" fill="#000000" fill-rule="nonzero" fill-opacity="1" /><path clip-path="url(#clip540)" d="M604.489 260.029 L609.373 260.029 L609.373 265.909 L604.489 265.909 L604.489 260.029 M604.489 241.395 L609.373 241.395 L609.373 247.274 L604.489 247.274 L604.489 241.395 Z" fill="#000000" fill-rule="nonzero" fill-opacity="1" /><path clip-path="url(#clip540)" d="M629.836 231.349 L659.072 231.349 L659.072 235.284 L646.803 235.284 L646.803 265.909 L642.104 265.909 L642.104 235.284 L629.836 235.284 L629.836 231.349 Z" fill="#000000" fill-rule="nonzero" fill-opacity="1" /><path clip-path="url(#clip540)" d="M663.956 244.381 L693.632 244.381 L693.632 248.27 L663.956 248.27 L663.956 244.381 M663.956 253.825 L693.632 253.825 L693.632 257.761 L663.956 257.761 L663.956 253.825 Z" fill="#000000" fill-rule="nonzero" fill-opacity="1" /><path clip-path="url(#clip540)" d="M714.303 246.765 Q711.155 246.765 709.303 248.918 Q707.474 251.071 707.474 254.821 Q707.474 258.548 709.303 260.723 Q711.155 262.876 714.303 262.876 Q717.451 262.876 719.28 260.723 Q721.131 258.548 721.131 254.821 Q721.131 251.071 719.28 248.918 Q717.451 246.765 714.303 246.765 M723.585 232.113 L723.585 236.372 Q721.826 235.538 720.02 235.099 Q718.238 234.659 716.479 234.659 Q711.849 234.659 709.395 237.784 Q706.965 240.909 706.618 247.228 Q707.983 245.214 710.044 244.149 Q712.104 243.062 714.581 243.062 Q719.789 243.062 722.798 246.233 Q725.831 249.381 725.831 254.821 Q725.831 260.145 722.682 263.362 Q719.534 266.58 714.303 266.58 Q708.307 266.58 705.136 261.997 Q701.965 257.39 701.965 248.663 Q701.965 240.469 705.854 235.608 Q709.743 230.724 716.294 230.724 Q718.053 230.724 719.835 231.071 Q721.641 231.418 723.585 232.113 Z" fill="#000000" fill-rule="nonzero" fill-opacity="1" /><path clip-path="url(#clip540)" d="M759.349 234.011 L759.349 238.941 Q756.988 236.742 754.303 235.654 Q751.641 234.566 748.631 234.566 Q742.705 234.566 739.557 238.2 Q736.409 241.812 736.409 248.663 Q736.409 255.492 739.557 259.126 Q742.705 262.737 748.631 262.737 Q751.641 262.737 754.303 261.649 Q756.988 260.561 759.349 258.362 L759.349 263.247 Q756.895 264.913 754.141 265.747 Q751.409 266.58 748.354 266.58 Q740.506 266.58 735.993 261.788 Q731.479 256.973 731.479 248.663 Q731.479 240.33 735.993 235.538 Q740.506 230.724 748.354 230.724 Q751.455 230.724 754.187 231.557 Q756.941 232.367 759.349 234.011 Z" fill="#000000" fill-rule="nonzero" fill-opacity="1" /><polyline clip-path="url(#clip540)" style="stroke:#0000ff; stroke-linecap:round; stroke-linejoin:round; stroke-width:12; stroke-opacity:1; fill:none" stroke-dasharray="48, 30" points="371.84,300.469 510.043,300.469 "/>
<path clip-path="url(#clip540)" d="M537.753 287.031 L537.753 300.017 L543.632 300.017 Q546.896 300.017 548.679 298.327 Q550.461 296.638 550.461 293.513 Q550.461 290.411 548.679 288.721 Q546.896 287.031 543.632 287.031 L537.753 287.031 M533.077 283.189 L543.632 283.189 Q549.443 283.189 552.406 285.827 Q555.392 288.443 555.392 293.513 Q555.392 298.628 552.406 301.244 Q549.443 303.86 543.632 303.86 L537.753 303.86 L537.753 317.749 L533.077 317.749 L533.077 283.189 Z" fill="#000000" fill-rule="nonzero" fill-opacity="1" /><path clip-path="url(#clip540)" d="M576.248 299.114 Q579.604 299.832 581.479 302.101 Q583.378 304.369 583.378 307.702 Q583.378 312.818 579.859 315.619 Q576.341 318.42 569.859 318.42 Q567.683 318.42 565.368 317.98 Q563.077 317.563 560.623 316.707 L560.623 312.193 Q562.568 313.327 564.882 313.906 Q567.197 314.485 569.72 314.485 Q574.118 314.485 576.41 312.749 Q578.725 311.013 578.725 307.702 Q578.725 304.647 576.572 302.934 Q574.442 301.198 570.623 301.198 L566.595 301.198 L566.595 297.355 L570.808 297.355 Q574.257 297.355 576.086 295.989 Q577.915 294.601 577.915 292.008 Q577.915 289.346 576.017 287.934 Q574.142 286.499 570.623 286.499 Q568.702 286.499 566.503 286.915 Q564.304 287.332 561.665 288.212 L561.665 284.045 Q564.327 283.304 566.642 282.934 Q568.98 282.564 571.04 282.564 Q576.364 282.564 579.466 284.994 Q582.567 287.402 582.567 291.522 Q582.567 294.392 580.924 296.383 Q579.28 298.351 576.248 299.114 Z" fill="#000000" fill-rule="nonzero" fill-opacity="1" /><path clip-path="url(#clip540)" d="M592.729 311.869 L597.614 311.869 L597.614 317.749 L592.729 317.749 L592.729 311.869 M592.729 293.235 L597.614 293.235 L597.614 299.114 L592.729 299.114 L592.729 293.235 Z" fill="#000000" fill-rule="nonzero" fill-opacity="1" /><path clip-path="url(#clip540)" d="M618.076 283.189 L647.312 283.189 L647.312 287.124 L635.044 287.124 L635.044 317.749 L630.345 317.749 L630.345 287.124 L618.076 287.124 L618.076 283.189 Z" fill="#000000" fill-rule="nonzero" fill-opacity="1" /><path clip-path="url(#clip540)" d="M652.197 296.221 L681.872 296.221 L681.872 300.11 L652.197 300.11 L652.197 296.221 M652.197 305.665 L681.872 305.665 L681.872 309.601 L652.197 309.601 L652.197 305.665 Z" fill="#000000" fill-rule="nonzero" fill-opacity="1" /><path clip-path="url(#clip540)" d="M695.993 313.813 L712.312 313.813 L712.312 317.749 L690.368 317.749 L690.368 313.813 Q693.03 311.059 697.613 306.429 Q702.22 301.776 703.4 300.434 Q705.645 297.911 706.525 296.175 Q707.428 294.415 707.428 292.726 Q707.428 289.971 705.483 288.235 Q703.562 286.499 700.46 286.499 Q698.261 286.499 695.808 287.263 Q693.377 288.027 690.599 289.577 L690.599 284.855 Q693.423 283.721 695.877 283.142 Q698.331 282.564 700.368 282.564 Q705.738 282.564 708.932 285.249 Q712.127 287.934 712.127 292.425 Q712.127 294.554 711.317 296.476 Q710.53 298.374 708.423 300.966 Q707.845 301.638 704.743 304.855 Q701.641 308.05 695.993 313.813 Z" fill="#000000" fill-rule="nonzero" fill-opacity="1" /><path clip-path="url(#clip540)" d="M747.59 285.851 L747.59 290.781 Q745.229 288.582 742.543 287.494 Q739.881 286.406 736.872 286.406 Q730.946 286.406 727.798 290.04 Q724.65 293.652 724.65 300.503 Q724.65 307.332 727.798 310.966 Q730.946 314.577 736.872 314.577 Q739.881 314.577 742.543 313.489 Q745.229 312.401 747.59 310.202 L747.59 315.087 Q745.136 316.753 742.381 317.587 Q739.65 318.42 736.594 318.42 Q728.747 318.42 724.233 313.628 Q719.719 308.813 719.719 300.503 Q719.719 292.17 724.233 287.378 Q728.747 282.564 736.594 282.564 Q739.696 282.564 742.428 283.397 Q745.182 284.207 747.59 285.851 Z" fill="#000000" fill-rule="nonzero" fill-opacity="1" /><polyline clip-path="url(#clip540)" style="stroke:#ff0000; stroke-linecap:round; stroke-linejoin:round; stroke-width:12; stroke-opacity:1; fill:none" stroke-dasharray="48, 30" points="371.84,352.309 510.043,352.309 "/>
<path clip-path="url(#clip540)" d="M537.753 338.871 L537.753 351.857 L543.632 351.857 Q546.896 351.857 548.679 350.167 Q550.461 348.478 550.461 345.353 Q550.461 342.251 548.679 340.561 Q546.896 338.871 543.632 338.871 L537.753 338.871 M533.077 335.029 L543.632 335.029 Q549.443 335.029 552.406 337.667 Q555.392 340.283 555.392 345.353 Q555.392 350.468 552.406 353.084 Q549.443 355.7 543.632 355.7 L537.753 355.7 L537.753 369.589 L533.077 369.589 L533.077 335.029 Z" fill="#000000" fill-rule="nonzero" fill-opacity="1" /><path clip-path="url(#clip540)" d="M576.248 350.954 Q579.604 351.672 581.479 353.941 Q583.378 356.209 583.378 359.542 Q583.378 364.658 579.859 367.459 Q576.341 370.26 569.859 370.26 Q567.683 370.26 565.368 369.82 Q563.077 369.403 560.623 368.547 L560.623 364.033 Q562.568 365.167 564.882 365.746 Q567.197 366.325 569.72 366.325 Q574.118 366.325 576.41 364.589 Q578.725 362.853 578.725 359.542 Q578.725 356.487 576.572 354.774 Q574.442 353.038 570.623 353.038 L566.595 353.038 L566.595 349.195 L570.808 349.195 Q574.257 349.195 576.086 347.829 Q577.915 346.441 577.915 343.848 Q577.915 341.186 576.017 339.774 Q574.142 338.339 570.623 338.339 Q568.702 338.339 566.503 338.755 Q564.304 339.172 561.665 340.052 L561.665 335.885 Q564.327 335.144 566.642 334.774 Q568.98 334.404 571.04 334.404 Q576.364 334.404 579.466 336.834 Q582.567 339.242 582.567 343.362 Q582.567 346.232 580.924 348.223 Q579.28 350.191 576.248 350.954 Z" fill="#000000" fill-rule="nonzero" fill-opacity="1" /><path clip-path="url(#clip540)" d="M592.729 363.709 L597.614 363.709 L597.614 369.589 L592.729 369.589 L592.729 363.709 M592.729 345.075 L597.614 345.075 L597.614 350.954 L592.729 350.954 L592.729 345.075 Z" fill="#000000" fill-rule="nonzero" fill-opacity="1" /><path clip-path="url(#clip540)" d="M618.076 335.029 L647.312 335.029 L647.312 338.964 L635.044 338.964 L635.044 369.589 L630.345 369.589 L630.345 338.964 L618.076 338.964 L618.076 335.029 Z" fill="#000000" fill-rule="nonzero" fill-opacity="1" /><path clip-path="url(#clip540)" d="M652.197 348.061 L681.872 348.061 L681.872 351.95 L652.197 351.95 L652.197 348.061 M652.197 357.505 L681.872 357.505 L681.872 361.441 L652.197 361.441 L652.197 357.505 Z" fill="#000000" fill-rule="nonzero" fill-opacity="1" /><path clip-path="url(#clip540)" d="M704.812 339.103 L693.007 357.552 L704.812 357.552 L704.812 339.103 M703.585 335.029 L709.465 335.029 L709.465 357.552 L714.395 357.552 L714.395 361.441 L709.465 361.441 L709.465 369.589 L704.812 369.589 L704.812 361.441 L689.21 361.441 L689.21 356.927 L703.585 335.029 Z" fill="#000000" fill-rule="nonzero" fill-opacity="1" /><path clip-path="url(#clip540)" d="M747.59 337.691 L747.59 342.621 Q745.229 340.422 742.543 339.334 Q739.881 338.246 736.872 338.246 Q730.946 338.246 727.798 341.88 Q724.65 345.492 724.65 352.343 Q724.65 359.172 727.798 362.806 Q730.946 366.417 736.872 366.417 Q739.881 366.417 742.543 365.329 Q745.229 364.241 747.59 362.042 L747.59 366.927 Q745.136 368.593 742.381 369.427 Q739.65 370.26 736.594 370.26 Q728.747 370.26 724.233 365.468 Q719.719 360.653 719.719 352.343 Q719.719 344.01 724.233 339.218 Q728.747 334.404 736.594 334.404 Q739.696 334.404 742.428 335.237 Q745.182 336.047 747.59 337.691 Z" fill="#000000" fill-rule="nonzero" fill-opacity="1" /><polyline clip-path="url(#clip540)" style="stroke:#008000; stroke-linecap:round; stroke-linejoin:round; stroke-width:12; stroke-opacity:1; fill:none" stroke-dasharray="48, 30" points="371.84,404.149 510.043,404.149 "/>
<path clip-path="url(#clip540)" d="M537.753 390.711 L537.753 403.697 L543.632 403.697 Q546.896 403.697 548.679 402.007 Q550.461 400.318 550.461 397.193 Q550.461 394.091 548.679 392.401 Q546.896 390.711 543.632 390.711 L537.753 390.711 M533.077 386.869 L543.632 386.869 Q549.443 386.869 552.406 389.507 Q555.392 392.123 555.392 397.193 Q555.392 402.308 552.406 404.924 Q549.443 407.54 543.632 407.54 L537.753 407.54 L537.753 421.429 L533.077 421.429 L533.077 386.869 Z" fill="#000000" fill-rule="nonzero" fill-opacity="1" /><path clip-path="url(#clip540)" d="M576.248 402.794 Q579.604 403.512 581.479 405.781 Q583.378 408.049 583.378 411.382 Q583.378 416.498 579.859 419.299 Q576.341 422.1 569.859 422.1 Q567.683 422.1 565.368 421.66 Q563.077 421.243 560.623 420.387 L560.623 415.873 Q562.568 417.007 564.882 417.586 Q567.197 418.165 569.72 418.165 Q574.118 418.165 576.41 416.429 Q578.725 414.693 578.725 411.382 Q578.725 408.327 576.572 406.614 Q574.442 404.878 570.623 404.878 L566.595 404.878 L566.595 401.035 L570.808 401.035 Q574.257 401.035 576.086 399.669 Q577.915 398.281 577.915 395.688 Q577.915 393.026 576.017 391.614 Q574.142 390.179 570.623 390.179 Q568.702 390.179 566.503 390.595 Q564.304 391.012 561.665 391.892 L561.665 387.725 Q564.327 386.984 566.642 386.614 Q568.98 386.244 571.04 386.244 Q576.364 386.244 579.466 388.674 Q582.567 391.082 582.567 395.202 Q582.567 398.072 580.924 400.063 Q579.28 402.031 576.248 402.794 Z" fill="#000000" fill-rule="nonzero" fill-opacity="1" /><path clip-path="url(#clip540)" d="M592.729 415.549 L597.614 415.549 L597.614 421.429 L592.729 421.429 L592.729 415.549 M592.729 396.915 L597.614 396.915 L597.614 402.794 L592.729 402.794 L592.729 396.915 Z" fill="#000000" fill-rule="nonzero" fill-opacity="1" /><path clip-path="url(#clip540)" d="M618.076 386.869 L647.312 386.869 L647.312 390.804 L635.044 390.804 L635.044 421.429 L630.345 421.429 L630.345 390.804 L618.076 390.804 L618.076 386.869 Z" fill="#000000" fill-rule="nonzero" fill-opacity="1" /><path clip-path="url(#clip540)" d="M652.197 399.901 L681.872 399.901 L681.872 403.79 L652.197 403.79 L652.197 399.901 M652.197 409.345 L681.872 409.345 L681.872 413.281 L652.197 413.281 L652.197 409.345 Z" fill="#000000" fill-rule="nonzero" fill-opacity="1" /><path clip-path="url(#clip540)" d="M702.544 402.285 Q699.395 402.285 697.544 404.438 Q695.715 406.591 695.715 410.341 Q695.715 414.068 697.544 416.243 Q699.395 418.396 702.544 418.396 Q705.692 418.396 707.52 416.243 Q709.372 414.068 709.372 410.341 Q709.372 406.591 707.52 404.438 Q705.692 402.285 702.544 402.285 M711.826 387.633 L711.826 391.892 Q710.067 391.058 708.261 390.619 Q706.479 390.179 704.72 390.179 Q700.09 390.179 697.636 393.304 Q695.206 396.429 694.858 402.748 Q696.224 400.734 698.284 399.669 Q700.345 398.582 702.821 398.582 Q708.03 398.582 711.039 401.753 Q714.071 404.901 714.071 410.341 Q714.071 415.665 710.923 418.882 Q707.775 422.1 702.544 422.1 Q696.548 422.1 693.377 417.517 Q690.206 412.91 690.206 404.183 Q690.206 395.989 694.095 391.128 Q697.983 386.244 704.534 386.244 Q706.294 386.244 708.076 386.591 Q709.882 386.938 711.826 387.633 Z" fill="#000000" fill-rule="nonzero" fill-opacity="1" /><path clip-path="url(#clip540)" d="M747.59 389.531 L747.59 394.461 Q745.229 392.262 742.543 391.174 Q739.881 390.086 736.872 390.086 Q730.946 390.086 727.798 393.72 Q724.65 397.332 724.65 404.183 Q724.65 411.012 727.798 414.646 Q730.946 418.257 736.872 418.257 Q739.881 418.257 742.543 417.169 Q745.229 416.081 747.59 413.882 L747.59 418.767 Q745.136 420.433 742.381 421.267 Q739.65 422.1 736.594 422.1 Q728.747 422.1 724.233 417.308 Q719.719 412.493 719.719 404.183 Q719.719 395.85 724.233 391.058 Q728.747 386.244 736.594 386.244 Q739.696 386.244 742.428 387.077 Q745.182 387.887 747.59 389.531 Z" fill="#000000" fill-rule="nonzero" fill-opacity="1" /></svg>
