<?xml version="1.0" encoding="utf-8"?>
<svg xmlns="http://www.w3.org/2000/svg" xmlns:xlink="http://www.w3.org/1999/xlink" width="600" height="400" viewBox="0 0 2400 1600">
<defs>
  <clipPath id="clip500">
    <rect x="0" y="0" width="2400" height="1600"/>
  </clipPath>
</defs>
<path clip-path="url(#clip500)" d="M0 1600 L2400 1600 L2400 0 L0 0  Z" fill="#ffffff" fill-rule="evenodd" fill-opacity="1"/>
<defs>
  <clipPath id="clip501">
    <rect x="1029" y="944" width="599" height="493"/>
  </clipPath>
</defs>
<path clip-path="url(#clip500)" d="M398.649 1423.18 L2352.76 1423.18 L2352.76 47.2441 L398.649 47.2441  Z" fill="#ffffff" fill-rule="evenodd" fill-opacity="1"/>
<defs>
  <clipPath id="clip502">
    <rect x="398" y="47" width="1955" height="1377"/>
  </clipPath>
</defs>
<polyline clip-path="url(#clip502)" style="stroke:#000000; stroke-linecap:round; stroke-linejoin:round; stroke-width:2; stroke-opacity:0.1; fill:none" points="453.941,1423.18 453.941,47.2441 "/>
<polyline clip-path="url(#clip502)" style="stroke:#000000; stroke-linecap:round; stroke-linejoin:round; stroke-width:2; stroke-opacity:0.1; fill:none" points="1068.44,1423.18 1068.44,47.2441 "/>
<polyline clip-path="url(#clip502)" style="stroke:#000000; stroke-linecap:round; stroke-linejoin:round; stroke-width:2; stroke-opacity:0.1; fill:none" points="1682.95,1423.18 1682.95,47.2441 "/>
<polyline clip-path="url(#clip502)" style="stroke:#000000; stroke-linecap:round; stroke-linejoin:round; stroke-width:2; stroke-opacity:0.1; fill:none" points="2297.45,1423.18 2297.45,47.2441 "/>
<polyline clip-path="url(#clip502)" style="stroke:#000000; stroke-linecap:round; stroke-linejoin:round; stroke-width:2; stroke-opacity:0.1; fill:none" points="398.649,1384.24 2352.76,1384.24 "/>
<polyline clip-path="url(#clip502)" style="stroke:#000000; stroke-linecap:round; stroke-linejoin:round; stroke-width:2; stroke-opacity:0.1; fill:none" points="398.649,1060.99 2352.76,1060.99 "/>
<polyline clip-path="url(#clip502)" style="stroke:#000000; stroke-linecap:round; stroke-linejoin:round; stroke-width:2; stroke-opacity:0.1; fill:none" points="398.649,737.751 2352.76,737.751 "/>
<polyline clip-path="url(#clip502)" style="stroke:#000000; stroke-linecap:round; stroke-linejoin:round; stroke-width:2; stroke-opacity:0.1; fill:none" points="398.649,414.508 2352.76,414.508 "/>
<polyline clip-path="url(#clip502)" style="stroke:#000000; stroke-linecap:round; stroke-linejoin:round; stroke-width:2; stroke-opacity:0.1; fill:none" points="398.649,91.2647 2352.76,91.2647 "/>
<polyline clip-path="url(#clip500)" style="stroke:#000000; stroke-linecap:round; stroke-linejoin:round; stroke-width:4; stroke-opacity:1; fill:none" points="398.649,1423.18 2352.76,1423.18 "/>
<polyline clip-path="url(#clip500)" style="stroke:#000000; stroke-linecap:round; stroke-linejoin:round; stroke-width:4; stroke-opacity:1; fill:none" points="453.941,1423.18 453.941,1404.28 "/>
<polyline clip-path="url(#clip500)" style="stroke:#000000; stroke-linecap:round; stroke-linejoin:round; stroke-width:4; stroke-opacity:1; fill:none" points="1068.44,1423.18 1068.44,1404.28 "/>
<polyline clip-path="url(#clip500)" style="stroke:#000000; stroke-linecap:round; stroke-linejoin:round; stroke-width:4; stroke-opacity:1; fill:none" points="1682.95,1423.18 1682.95,1404.28 "/>
<polyline clip-path="url(#clip500)" style="stroke:#000000; stroke-linecap:round; stroke-linejoin:round; stroke-width:4; stroke-opacity:1; fill:none" points="2297.45,1423.18 2297.45,1404.28 "/>
<path clip-path="url(#clip500)" d="M431.326 1454.1 Q427.715 1454.1 425.886 1457.66 Q424.08 1461.2 424.08 1468.33 Q424.08 1475.44 425.886 1479.01 Q427.715 1482.55 431.326 1482.55 Q434.96 1482.55 436.765 1479.01 Q438.594 1475.44 438.594 1468.33 Q438.594 1461.2 436.765 1457.66 Q434.96 1454.1 431.326 1454.1 M431.326 1450.39 Q437.136 1450.39 440.191 1455 Q443.27 1459.58 443.27 1468.33 Q443.27 1477.06 440.191 1481.67 Q437.136 1486.25 431.326 1486.25 Q425.515 1486.25 422.437 1481.67 Q419.381 1477.06 419.381 1468.33 Q419.381 1459.58 422.437 1455 Q425.515 1450.39 431.326 1450.39 Z" fill="#000000" fill-rule="nonzero" fill-opacity="1" /><path clip-path="url(#clip500)" d="M451.488 1479.7 L456.372 1479.7 L456.372 1485.58 L451.488 1485.58 L451.488 1479.7 Z" fill="#000000" fill-rule="nonzero" fill-opacity="1" /><path clip-path="url(#clip500)" d="M476.557 1454.1 Q472.946 1454.1 471.117 1457.66 Q469.312 1461.2 469.312 1468.33 Q469.312 1475.44 471.117 1479.01 Q472.946 1482.55 476.557 1482.55 Q480.191 1482.55 481.997 1479.01 Q483.825 1475.44 483.825 1468.33 Q483.825 1461.2 481.997 1457.66 Q480.191 1454.1 476.557 1454.1 M476.557 1450.39 Q482.367 1450.39 485.423 1455 Q488.501 1459.58 488.501 1468.33 Q488.501 1477.06 485.423 1481.67 Q482.367 1486.25 476.557 1486.25 Q470.747 1486.25 467.668 1481.67 Q464.612 1477.06 464.612 1468.33 Q464.612 1459.58 467.668 1455 Q470.747 1450.39 476.557 1450.39 Z" fill="#000000" fill-rule="nonzero" fill-opacity="1" /><path clip-path="url(#clip500)" d="M1046.33 1454.1 Q1042.72 1454.1 1040.89 1457.66 Q1039.08 1461.2 1039.08 1468.33 Q1039.08 1475.44 1040.89 1479.01 Q1042.72 1482.55 1046.33 1482.55 Q1049.96 1482.55 1051.77 1479.01 Q1053.6 1475.44 1053.6 1468.33 Q1053.6 1461.2 1051.77 1457.66 Q1049.96 1454.1 1046.33 1454.1 M1046.33 1450.39 Q1052.14 1450.39 1055.19 1455 Q1058.27 1459.58 1058.27 1468.33 Q1058.27 1477.06 1055.19 1481.67 Q1052.14 1486.25 1046.33 1486.25 Q1040.52 1486.25 1037.44 1481.67 Q1034.38 1477.06 1034.38 1468.33 Q1034.38 1459.58 1037.44 1455 Q1040.52 1450.39 1046.33 1450.39 Z" fill="#000000" fill-rule="nonzero" fill-opacity="1" /><path clip-path="url(#clip500)" d="M1066.49 1479.7 L1071.37 1479.7 L1071.37 1485.58 L1066.49 1485.58 L1066.49 1479.7 Z" fill="#000000" fill-rule="nonzero" fill-opacity="1" /><path clip-path="url(#clip500)" d="M1081.6 1451.02 L1099.96 1451.02 L1099.96 1454.96 L1085.89 1454.96 L1085.89 1463.43 Q1086.91 1463.08 1087.92 1462.92 Q1088.94 1462.73 1089.96 1462.73 Q1095.75 1462.73 1099.13 1465.9 Q1102.51 1469.08 1102.51 1474.49 Q1102.51 1480.07 1099.03 1483.17 Q1095.56 1486.25 1089.24 1486.25 Q1087.07 1486.25 1084.8 1485.88 Q1082.55 1485.51 1080.15 1484.77 L1080.15 1480.07 Q1082.23 1481.2 1084.45 1481.76 Q1086.67 1482.32 1089.15 1482.32 Q1093.15 1482.32 1095.49 1480.21 Q1097.83 1478.1 1097.83 1474.49 Q1097.83 1470.88 1095.49 1468.77 Q1093.15 1466.67 1089.15 1466.67 Q1087.28 1466.67 1085.4 1467.08 Q1083.55 1467.5 1081.6 1468.38 L1081.6 1451.02 Z" fill="#000000" fill-rule="nonzero" fill-opacity="1" /><path clip-path="url(#clip500)" d="M1650.1 1481.64 L1657.74 1481.64 L1657.74 1455.28 L1649.43 1456.95 L1649.43 1452.69 L1657.69 1451.02 L1662.37 1451.02 L1662.37 1481.64 L1670.01 1481.64 L1670.01 1485.58 L1650.1 1485.58 L1650.1 1481.64 Z" fill="#000000" fill-rule="nonzero" fill-opacity="1" /><path clip-path="url(#clip500)" d="M1679.45 1479.7 L1684.34 1479.7 L1684.34 1485.58 L1679.45 1485.58 L1679.45 1479.7 Z" fill="#000000" fill-rule="nonzero" fill-opacity="1" /><path clip-path="url(#clip500)" d="M1704.52 1454.1 Q1700.91 1454.1 1699.08 1457.66 Q1697.28 1461.2 1697.28 1468.33 Q1697.28 1475.44 1699.08 1479.01 Q1700.91 1482.55 1704.52 1482.55 Q1708.16 1482.55 1709.96 1479.01 Q1711.79 1475.44 1711.79 1468.33 Q1711.79 1461.2 1709.96 1457.66 Q1708.16 1454.1 1704.52 1454.1 M1704.52 1450.39 Q1710.33 1450.39 1713.39 1455 Q1716.47 1459.58 1716.47 1468.33 Q1716.47 1477.06 1713.39 1481.67 Q1710.33 1486.25 1704.52 1486.25 Q1698.71 1486.25 1695.63 1481.67 Q1692.58 1477.06 1692.58 1468.33 Q1692.58 1459.58 1695.63 1455 Q1698.71 1450.39 1704.52 1450.39 Z" fill="#000000" fill-rule="nonzero" fill-opacity="1" /><path clip-path="url(#clip500)" d="M2265.1 1481.64 L2272.74 1481.64 L2272.74 1455.28 L2264.43 1456.95 L2264.43 1452.69 L2272.69 1451.02 L2277.37 1451.02 L2277.37 1481.64 L2285.01 1481.64 L2285.01 1485.58 L2265.1 1485.58 L2265.1 1481.64 Z" fill="#000000" fill-rule="nonzero" fill-opacity="1" /><path clip-path="url(#clip500)" d="M2294.45 1479.7 L2299.34 1479.7 L2299.34 1485.58 L2294.45 1485.58 L2294.45 1479.7 Z" fill="#000000" fill-rule="nonzero" fill-opacity="1" /><path clip-path="url(#clip500)" d="M2309.57 1451.02 L2327.93 1451.02 L2327.93 1454.96 L2313.85 1454.96 L2313.85 1463.43 Q2314.87 1463.08 2315.89 1462.92 Q2316.91 1462.73 2317.93 1462.73 Q2323.71 1462.73 2327.09 1465.9 Q2330.47 1469.08 2330.47 1474.49 Q2330.47 1480.07 2327 1483.17 Q2323.53 1486.25 2317.21 1486.25 Q2315.03 1486.25 2312.76 1485.88 Q2310.52 1485.51 2308.11 1484.77 L2308.11 1480.07 Q2310.19 1481.2 2312.42 1481.76 Q2314.64 1482.32 2317.12 1482.32 Q2321.12 1482.32 2323.46 1480.21 Q2325.8 1478.1 2325.8 1474.49 Q2325.8 1470.88 2323.46 1468.77 Q2321.12 1466.67 2317.12 1466.67 Q2315.24 1466.67 2313.37 1467.08 Q2311.51 1467.5 2309.57 1468.38 L2309.57 1451.02 Z" fill="#000000" fill-rule="nonzero" fill-opacity="1" /><path clip-path="url(#clip500)" d="M1206.31 1550.25 Q1206.31 1556.71 1208.95 1560.4 Q1211.63 1564.07 1216.27 1564.07 Q1220.92 1564.07 1223.59 1560.4 Q1226.27 1556.71 1226.27 1550.25 Q1226.27 1543.79 1223.59 1540.13 Q1220.92 1536.44 1216.27 1536.44 Q1211.63 1536.44 1208.95 1540.13 Q1206.31 1543.79 1206.31 1550.25 M1226.27 1562.7 Q1224.42 1565.88 1221.59 1567.44 Q1218.79 1568.97 1214.84 1568.97 Q1208.38 1568.97 1204.31 1563.81 Q1200.26 1558.65 1200.26 1550.25 Q1200.26 1541.85 1204.31 1536.69 Q1208.38 1531.54 1214.84 1531.54 Q1218.79 1531.54 1221.59 1533.1 Q1224.42 1534.62 1226.27 1537.81 L1226.27 1532.4 L1232.12 1532.4 L1232.12 1581.6 L1226.27 1581.6 L1226.27 1562.7 Z" fill="#000000" fill-rule="nonzero" fill-opacity="1" /><path clip-path="url(#clip500)" d="M1271.27 1578.87 L1271.27 1583.42 L1237.41 1583.42 L1237.41 1578.87 L1271.27 1578.87 Z" fill="#000000" fill-rule="nonzero" fill-opacity="1" /><path clip-path="url(#clip500)" d="M1276.78 1518.52 L1282.64 1518.52 L1282.64 1568.04 L1276.78 1568.04 L1276.78 1518.52 Z" fill="#000000" fill-rule="nonzero" fill-opacity="1" /><path clip-path="url(#clip500)" d="M1320.54 1533.76 L1320.54 1539.24 Q1318.06 1537.87 1315.55 1537.2 Q1313.06 1536.5 1310.52 1536.5 Q1304.82 1536.5 1301.67 1540.13 Q1298.52 1543.73 1298.52 1550.25 Q1298.52 1556.78 1301.67 1560.4 Q1304.82 1564 1310.52 1564 Q1313.06 1564 1315.55 1563.33 Q1318.06 1562.63 1320.54 1561.26 L1320.54 1566.68 Q1318.09 1567.82 1315.45 1568.39 Q1312.84 1568.97 1309.88 1568.97 Q1301.83 1568.97 1297.09 1563.91 Q1292.34 1558.85 1292.34 1550.25 Q1292.34 1541.53 1297.12 1536.53 Q1301.92 1531.54 1310.26 1531.54 Q1312.97 1531.54 1315.55 1532.11 Q1318.12 1532.65 1320.54 1533.76 Z" fill="#000000" fill-rule="nonzero" fill-opacity="1" /><path clip-path="url(#clip500)" d="M1330.73 1518.52 L1336.58 1518.52 L1336.58 1568.04 L1330.73 1568.04 L1330.73 1518.52 Z" fill="#000000" fill-rule="nonzero" fill-opacity="1" /><path clip-path="url(#clip500)" d="M1369.02 1518.52 L1382.51 1518.52 L1382.51 1523.07 L1374.87 1523.07 L1374.87 1572.09 L1382.51 1572.09 L1382.51 1576.64 L1369.02 1576.64 L1369.02 1518.52 Z" fill="#000000" fill-rule="nonzero" fill-opacity="1" /><path clip-path="url(#clip500)" d="M1418.45 1549.81 Q1418.45 1543.44 1415.81 1539.94 Q1413.2 1536.44 1408.45 1536.44 Q1403.74 1536.44 1401.1 1539.94 Q1398.49 1543.44 1398.49 1549.81 Q1398.49 1556.14 1401.1 1559.64 Q1403.74 1563.14 1408.45 1563.14 Q1413.2 1563.14 1415.81 1559.64 Q1418.45 1556.14 1418.45 1549.81 M1424.3 1563.62 Q1424.3 1572.72 1420.26 1577.15 Q1416.22 1581.6 1407.88 1581.6 Q1404.79 1581.6 1402.06 1581.13 Q1399.32 1580.68 1396.74 1579.72 L1396.74 1574.03 Q1399.32 1575.43 1401.83 1576.1 Q1404.35 1576.76 1406.96 1576.76 Q1412.72 1576.76 1415.58 1573.74 Q1418.45 1570.75 1418.45 1564.67 L1418.45 1561.77 Q1416.63 1564.92 1413.8 1566.48 Q1410.97 1568.04 1407.02 1568.04 Q1400.46 1568.04 1396.45 1563.05 Q1392.44 1558.05 1392.44 1549.81 Q1392.44 1541.53 1396.45 1536.53 Q1400.46 1531.54 1407.02 1531.54 Q1410.97 1531.54 1413.8 1533.1 Q1416.63 1534.66 1418.45 1537.81 L1418.45 1532.4 L1424.3 1532.4 L1424.3 1563.62 Z" fill="#000000" fill-rule="nonzero" fill-opacity="1" /><path clip-path="url(#clip500)" d="M1446.78 1520.52 L1452.19 1520.52 L1435.64 1574.09 L1430.22 1574.09 L1446.78 1520.52 Z" fill="#000000" fill-rule="nonzero" fill-opacity="1" /><path clip-path="url(#clip500)" d="M1458.11 1518.52 L1463.99 1518.52 L1463.99 1547.77 L1481.47 1532.4 L1488.95 1532.4 L1470.04 1549.07 L1489.74 1568.04 L1482.11 1568.04 L1463.99 1550.63 L1463.99 1568.04 L1458.11 1568.04 L1458.11 1518.52 Z" fill="#000000" fill-rule="nonzero" fill-opacity="1" /><path clip-path="url(#clip500)" d="M1519.54 1549.81 Q1519.54 1543.44 1516.89 1539.94 Q1514.28 1536.44 1509.54 1536.44 Q1504.83 1536.44 1502.19 1539.94 Q1499.58 1543.44 1499.58 1549.81 Q1499.58 1556.14 1502.19 1559.64 Q1504.83 1563.14 1509.54 1563.14 Q1514.28 1563.14 1516.89 1559.64 Q1519.54 1556.14 1519.54 1549.81 M1525.39 1563.62 Q1525.39 1572.72 1521.35 1577.15 Q1517.31 1581.6 1508.97 1581.6 Q1505.88 1581.6 1503.14 1581.13 Q1500.41 1580.68 1497.83 1579.72 L1497.83 1574.03 Q1500.41 1575.43 1502.92 1576.1 Q1505.44 1576.76 1508.05 1576.76 Q1513.81 1576.76 1516.67 1573.74 Q1519.54 1570.75 1519.54 1564.67 L1519.54 1561.77 Q1517.72 1564.92 1514.89 1566.48 Q1512.06 1568.04 1508.11 1568.04 Q1501.55 1568.04 1497.54 1563.05 Q1493.53 1558.05 1493.53 1549.81 Q1493.53 1541.53 1497.54 1536.53 Q1501.55 1531.54 1508.11 1531.54 Q1512.06 1531.54 1514.89 1533.1 Q1517.72 1534.66 1519.54 1537.81 L1519.54 1532.4 L1525.39 1532.4 L1525.39 1563.62 Z" fill="#000000" fill-rule="nonzero" fill-opacity="1" /><path clip-path="url(#clip500)" d="M1551.14 1518.52 L1551.14 1576.64 L1537.65 1576.64 L1537.65 1572.09 L1545.25 1572.09 L1545.25 1523.07 L1537.65 1523.07 L1537.65 1518.52 L1551.14 1518.52 Z" fill="#000000" fill-rule="nonzero" fill-opacity="1" /><polyline clip-path="url(#clip500)" style="stroke:#000000; stroke-linecap:round; stroke-linejoin:round; stroke-width:4; stroke-opacity:1; fill:none" points="398.649,1423.18 398.649,47.2441 "/>
<polyline clip-path="url(#clip500)" style="stroke:#000000; stroke-linecap:round; stroke-linejoin:round; stroke-width:4; stroke-opacity:1; fill:none" points="398.649,1384.24 417.546,1384.24 "/>
<polyline clip-path="url(#clip500)" style="stroke:#000000; stroke-linecap:round; stroke-linejoin:round; stroke-width:4; stroke-opacity:1; fill:none" points="398.649,1060.99 417.546,1060.99 "/>
<polyline clip-path="url(#clip500)" style="stroke:#000000; stroke-linecap:round; stroke-linejoin:round; stroke-width:4; stroke-opacity:1; fill:none" points="398.649,737.751 417.546,737.751 "/>
<polyline clip-path="url(#clip500)" style="stroke:#000000; stroke-linecap:round; stroke-linejoin:round; stroke-width:4; stroke-opacity:1; fill:none" points="398.649,414.508 417.546,414.508 "/>
<polyline clip-path="url(#clip500)" style="stroke:#000000; stroke-linecap:round; stroke-linejoin:round; stroke-width:4; stroke-opacity:1; fill:none" points="398.649,91.2647 417.546,91.2647 "/>
<path clip-path="url(#clip500)" d="M350.704 1370.04 Q347.093 1370.04 345.264 1373.6 Q343.459 1377.14 343.459 1384.27 Q343.459 1391.38 345.264 1394.94 Q347.093 1398.49 350.704 1398.49 Q354.338 1398.49 356.144 1394.94 Q357.973 1391.38 357.973 1384.27 Q357.973 1377.14 356.144 1373.6 Q354.338 1370.04 350.704 1370.04 M350.704 1366.33 Q356.514 1366.33 359.57 1370.94 Q362.649 1375.52 362.649 1384.27 Q362.649 1393 359.57 1397.61 Q356.514 1402.19 350.704 1402.19 Q344.894 1402.19 341.815 1397.61 Q338.76 1393 338.76 1384.27 Q338.76 1375.52 341.815 1370.94 Q344.894 1366.33 350.704 1366.33 Z" fill="#000000" fill-rule="nonzero" fill-opacity="1" /><path clip-path="url(#clip500)" d="M119.885 1080.79 L136.204 1080.79 L136.204 1084.72 L114.26 1084.72 L114.26 1080.79 Q116.922 1078.03 121.505 1073.4 Q126.112 1068.75 127.292 1067.41 Q129.538 1064.88 130.417 1063.15 Q131.32 1061.39 131.32 1059.7 Q131.32 1056.94 129.376 1055.21 Q127.455 1053.47 124.353 1053.47 Q122.154 1053.47 119.7 1054.24 Q117.269 1055 114.492 1056.55 L114.492 1051.83 Q117.316 1050.69 119.769 1050.12 Q122.223 1049.54 124.26 1049.54 Q129.63 1049.54 132.825 1052.22 Q136.019 1054.91 136.019 1059.4 Q136.019 1061.53 135.209 1063.45 Q134.422 1065.35 132.316 1067.94 Q131.737 1068.61 128.635 1071.83 Q125.533 1075.02 119.885 1080.79 Z" fill="#000000" fill-rule="nonzero" fill-opacity="1" /><path clip-path="url(#clip500)" d="M146.019 1078.84 L150.903 1078.84 L150.903 1084.72 L146.019 1084.72 L146.019 1078.84 Z" fill="#000000" fill-rule="nonzero" fill-opacity="1" /><path clip-path="url(#clip500)" d="M161.135 1050.16 L179.491 1050.16 L179.491 1054.1 L165.417 1054.1 L165.417 1062.57 Q166.436 1062.22 167.454 1062.06 Q168.473 1061.88 169.491 1061.88 Q175.278 1061.88 178.658 1065.05 Q182.038 1068.22 182.038 1073.63 Q182.038 1079.21 178.565 1082.32 Q175.093 1085.39 168.774 1085.39 Q166.598 1085.39 164.329 1085.02 Q162.084 1084.65 159.677 1083.91 L159.677 1079.21 Q161.76 1080.35 163.982 1080.9 Q166.204 1081.46 168.681 1081.46 Q172.686 1081.46 175.024 1079.35 Q177.362 1077.25 177.362 1073.63 Q177.362 1070.02 175.024 1067.92 Q172.686 1065.81 168.681 1065.81 Q166.806 1065.81 164.931 1066.23 Q163.079 1066.64 161.135 1067.52 L161.135 1050.16 Z" fill="#000000" fill-rule="nonzero" fill-opacity="1" /><path clip-path="url(#clip500)" d="M201.25 1053.24 Q197.639 1053.24 195.811 1056.81 Q194.005 1060.35 194.005 1067.48 Q194.005 1074.58 195.811 1078.15 Q197.639 1081.69 201.25 1081.69 Q204.885 1081.69 206.69 1078.15 Q208.519 1074.58 208.519 1067.48 Q208.519 1060.35 206.69 1056.81 Q204.885 1053.24 201.25 1053.24 M201.25 1049.54 Q207.061 1049.54 210.116 1054.14 Q213.195 1058.73 213.195 1067.48 Q213.195 1076.2 210.116 1080.81 Q207.061 1085.39 201.25 1085.39 Q195.44 1085.39 192.362 1080.81 Q189.306 1076.2 189.306 1067.48 Q189.306 1058.73 192.362 1054.14 Q195.44 1049.54 201.25 1049.54 Z" fill="#000000" fill-rule="nonzero" fill-opacity="1" /><path clip-path="url(#clip500)" d="M249.584 1059.26 L239.005 1069.88 L249.584 1080.46 L246.829 1083.26 L236.204 1072.64 L225.579 1083.26 L222.848 1080.46 L233.403 1069.88 L222.848 1059.26 L225.579 1056.46 L236.204 1067.08 L246.829 1056.46 L249.584 1059.26 Z" fill="#000000" fill-rule="nonzero" fill-opacity="1" /><path clip-path="url(#clip500)" d="M261.945 1080.79 L269.583 1080.79 L269.583 1054.42 L261.273 1056.09 L261.273 1051.83 L269.537 1050.16 L274.213 1050.16 L274.213 1080.79 L281.852 1080.79 L281.852 1084.72 L261.945 1084.72 L261.945 1080.79 Z" fill="#000000" fill-rule="nonzero" fill-opacity="1" /><path clip-path="url(#clip500)" d="M301.296 1053.24 Q297.685 1053.24 295.856 1056.81 Q294.051 1060.35 294.051 1067.48 Q294.051 1074.58 295.856 1078.15 Q297.685 1081.69 301.296 1081.69 Q304.93 1081.69 306.736 1078.15 Q308.565 1074.58 308.565 1067.48 Q308.565 1060.35 306.736 1056.81 Q304.93 1053.24 301.296 1053.24 M301.296 1049.54 Q307.106 1049.54 310.162 1054.14 Q313.241 1058.73 313.241 1067.48 Q313.241 1076.2 310.162 1080.81 Q307.106 1085.39 301.296 1085.39 Q295.486 1085.39 292.407 1080.81 Q289.352 1076.2 289.352 1067.48 Q289.352 1058.73 292.407 1054.14 Q295.486 1049.54 301.296 1049.54 Z" fill="#000000" fill-rule="nonzero" fill-opacity="1" /><path clip-path="url(#clip500)" d="M313.241 1043.64 L337.352 1043.64 L337.352 1046.84 L313.241 1046.84 L313.241 1043.64 Z" fill="#000000" fill-rule="nonzero" fill-opacity="1" /><path clip-path="url(#clip500)" d="M344.593 1029.23 L362.649 1029.23 L362.649 1030.85 L352.455 1057.31 L348.486 1057.31 L358.078 1032.43 L344.593 1032.43 L344.593 1029.23 Z" fill="#000000" fill-rule="nonzero" fill-opacity="1" /><path clip-path="url(#clip500)" d="M115.904 726.919 L134.26 726.919 L134.26 730.854 L120.186 730.854 L120.186 739.326 Q121.205 738.979 122.223 738.817 Q123.242 738.632 124.26 738.632 Q130.047 738.632 133.427 741.803 Q136.806 744.975 136.806 750.391 Q136.806 755.97 133.334 759.072 Q129.862 762.15 123.543 762.15 Q121.367 762.15 119.098 761.78 Q116.853 761.41 114.445 760.669 L114.445 755.97 Q116.529 757.104 118.751 757.66 Q120.973 758.215 123.45 758.215 Q127.455 758.215 129.792 756.109 Q132.13 754.002 132.13 750.391 Q132.13 746.78 129.792 744.674 Q127.455 742.567 123.45 742.567 Q121.575 742.567 119.7 742.984 Q117.848 743.4 115.904 744.28 L115.904 726.919 Z" fill="#000000" fill-rule="nonzero" fill-opacity="1" /><path clip-path="url(#clip500)" d="M146.019 755.599 L150.903 755.599 L150.903 761.479 L146.019 761.479 L146.019 755.599 Z" fill="#000000" fill-rule="nonzero" fill-opacity="1" /><path clip-path="url(#clip500)" d="M171.089 729.998 Q167.477 729.998 165.649 733.563 Q163.843 737.104 163.843 744.234 Q163.843 751.34 165.649 754.905 Q167.477 758.447 171.089 758.447 Q174.723 758.447 176.528 754.905 Q178.357 751.34 178.357 744.234 Q178.357 737.104 176.528 733.563 Q174.723 729.998 171.089 729.998 M171.089 726.294 Q176.899 726.294 179.954 730.901 Q183.033 735.484 183.033 744.234 Q183.033 752.961 179.954 757.567 Q176.899 762.15 171.089 762.15 Q165.278 762.15 162.2 757.567 Q159.144 752.961 159.144 744.234 Q159.144 735.484 162.2 730.901 Q165.278 726.294 171.089 726.294 Z" fill="#000000" fill-rule="nonzero" fill-opacity="1" /><path clip-path="url(#clip500)" d="M201.25 729.998 Q197.639 729.998 195.811 733.563 Q194.005 737.104 194.005 744.234 Q194.005 751.34 195.811 754.905 Q197.639 758.447 201.25 758.447 Q204.885 758.447 206.69 754.905 Q208.519 751.34 208.519 744.234 Q208.519 737.104 206.69 733.563 Q204.885 729.998 201.25 729.998 M201.25 726.294 Q207.061 726.294 210.116 730.901 Q213.195 735.484 213.195 744.234 Q213.195 752.961 210.116 757.567 Q207.061 762.15 201.25 762.15 Q195.44 762.15 192.362 757.567 Q189.306 752.961 189.306 744.234 Q189.306 735.484 192.362 730.901 Q195.44 726.294 201.25 726.294 Z" fill="#000000" fill-rule="nonzero" fill-opacity="1" /><path clip-path="url(#clip500)" d="M249.584 736.016 L239.005 746.641 L249.584 757.22 L246.829 760.021 L236.204 749.396 L225.579 760.021 L222.848 757.22 L233.403 746.641 L222.848 736.016 L225.579 733.215 L236.204 743.84 L246.829 733.215 L249.584 736.016 Z" fill="#000000" fill-rule="nonzero" fill-opacity="1" /><path clip-path="url(#clip500)" d="M261.945 757.544 L269.583 757.544 L269.583 731.178 L261.273 732.845 L261.273 728.586 L269.537 726.919 L274.213 726.919 L274.213 757.544 L281.852 757.544 L281.852 761.479 L261.945 761.479 L261.945 757.544 Z" fill="#000000" fill-rule="nonzero" fill-opacity="1" /><path clip-path="url(#clip500)" d="M301.296 729.998 Q297.685 729.998 295.856 733.563 Q294.051 737.104 294.051 744.234 Q294.051 751.34 295.856 754.905 Q297.685 758.447 301.296 758.447 Q304.93 758.447 306.736 754.905 Q308.565 751.34 308.565 744.234 Q308.565 737.104 306.736 733.563 Q304.93 729.998 301.296 729.998 M301.296 726.294 Q307.106 726.294 310.162 730.901 Q313.241 735.484 313.241 744.234 Q313.241 752.961 310.162 757.567 Q307.106 762.15 301.296 762.15 Q295.486 762.15 292.407 757.567 Q289.352 752.961 289.352 744.234 Q289.352 735.484 292.407 730.901 Q295.486 726.294 301.296 726.294 Z" fill="#000000" fill-rule="nonzero" fill-opacity="1" /><path clip-path="url(#clip500)" d="M313.241 720.395 L337.352 720.395 L337.352 723.593 L313.241 723.593 L313.241 720.395 Z" fill="#000000" fill-rule="nonzero" fill-opacity="1" /><path clip-path="url(#clip500)" d="M344.593 705.989 L362.649 705.989 L362.649 707.606 L352.455 734.069 L348.486 734.069 L358.078 709.186 L344.593 709.186 L344.593 705.989 Z" fill="#000000" fill-rule="nonzero" fill-opacity="1" /><path clip-path="url(#clip500)" d="M114.677 403.676 L136.899 403.676 L136.899 405.666 L124.353 438.236 L119.468 438.236 L131.274 407.611 L114.677 407.611 L114.677 403.676 Z" fill="#000000" fill-rule="nonzero" fill-opacity="1" /><path clip-path="url(#clip500)" d="M146.019 432.356 L150.903 432.356 L150.903 438.236 L146.019 438.236 L146.019 432.356 Z" fill="#000000" fill-rule="nonzero" fill-opacity="1" /><path clip-path="url(#clip500)" d="M161.135 403.676 L179.491 403.676 L179.491 407.611 L165.417 407.611 L165.417 416.083 Q166.436 415.736 167.454 415.574 Q168.473 415.389 169.491 415.389 Q175.278 415.389 178.658 418.56 Q182.038 421.731 182.038 427.148 Q182.038 432.726 178.565 435.828 Q175.093 438.907 168.774 438.907 Q166.598 438.907 164.329 438.537 Q162.084 438.166 159.677 437.426 L159.677 432.726 Q161.76 433.861 163.982 434.416 Q166.204 434.972 168.681 434.972 Q172.686 434.972 175.024 432.865 Q177.362 430.759 177.362 427.148 Q177.362 423.537 175.024 421.43 Q172.686 419.324 168.681 419.324 Q166.806 419.324 164.931 419.74 Q163.079 420.157 161.135 421.037 L161.135 403.676 Z" fill="#000000" fill-rule="nonzero" fill-opacity="1" /><path clip-path="url(#clip500)" d="M201.25 406.754 Q197.639 406.754 195.811 410.319 Q194.005 413.861 194.005 420.99 Q194.005 428.097 195.811 431.662 Q197.639 435.203 201.25 435.203 Q204.885 435.203 206.69 431.662 Q208.519 428.097 208.519 420.99 Q208.519 413.861 206.69 410.319 Q204.885 406.754 201.25 406.754 M201.25 403.051 Q207.061 403.051 210.116 407.657 Q213.195 412.24 213.195 420.99 Q213.195 429.717 210.116 434.324 Q207.061 438.907 201.25 438.907 Q195.44 438.907 192.362 434.324 Q189.306 429.717 189.306 420.99 Q189.306 412.24 192.362 407.657 Q195.44 403.051 201.25 403.051 Z" fill="#000000" fill-rule="nonzero" fill-opacity="1" /><path clip-path="url(#clip500)" d="M249.584 412.773 L239.005 423.398 L249.584 433.976 L246.829 436.777 L236.204 426.152 L225.579 436.777 L222.848 433.976 L233.403 423.398 L222.848 412.773 L225.579 409.972 L236.204 420.597 L246.829 409.972 L249.584 412.773 Z" fill="#000000" fill-rule="nonzero" fill-opacity="1" /><path clip-path="url(#clip500)" d="M261.945 434.301 L269.583 434.301 L269.583 407.935 L261.273 409.602 L261.273 405.342 L269.537 403.676 L274.213 403.676 L274.213 434.301 L281.852 434.301 L281.852 438.236 L261.945 438.236 L261.945 434.301 Z" fill="#000000" fill-rule="nonzero" fill-opacity="1" /><path clip-path="url(#clip500)" d="M301.296 406.754 Q297.685 406.754 295.856 410.319 Q294.051 413.861 294.051 420.99 Q294.051 428.097 295.856 431.662 Q297.685 435.203 301.296 435.203 Q304.93 435.203 306.736 431.662 Q308.565 428.097 308.565 420.99 Q308.565 413.861 306.736 410.319 Q304.93 406.754 301.296 406.754 M301.296 403.051 Q307.106 403.051 310.162 407.657 Q313.241 412.24 313.241 420.99 Q313.241 429.717 310.162 434.324 Q307.106 438.907 301.296 438.907 Q295.486 438.907 292.407 434.324 Q289.352 429.717 289.352 420.99 Q289.352 412.24 292.407 407.657 Q295.486 403.051 301.296 403.051 Z" fill="#000000" fill-rule="nonzero" fill-opacity="1" /><path clip-path="url(#clip500)" d="M313.241 397.152 L337.352 397.152 L337.352 400.349 L313.241 400.349 L313.241 397.152 Z" fill="#000000" fill-rule="nonzero" fill-opacity="1" /><path clip-path="url(#clip500)" d="M344.593 382.745 L362.649 382.745 L362.649 384.363 L352.455 410.825 L348.486 410.825 L358.078 385.943 L344.593 385.943 L344.593 382.745 Z" fill="#000000" fill-rule="nonzero" fill-opacity="1" /><path clip-path="url(#clip500)" d="M115.802 111.057 L123.441 111.057 L123.441 84.6916 L115.131 86.3582 L115.131 82.099 L123.395 80.4323 L128.071 80.4323 L128.071 111.057 L135.71 111.057 L135.71 114.992 L115.802 114.992 L115.802 111.057 Z" fill="#000000" fill-rule="nonzero" fill-opacity="1" /><path clip-path="url(#clip500)" d="M145.154 109.113 L150.038 109.113 L150.038 114.992 L145.154 114.992 L145.154 109.113 Z" fill="#000000" fill-rule="nonzero" fill-opacity="1" /><path clip-path="url(#clip500)" d="M170.223 83.511 Q166.612 83.511 164.784 87.0758 Q162.978 90.6175 162.978 97.7471 Q162.978 104.853 164.784 108.418 Q166.612 111.96 170.223 111.96 Q173.858 111.96 175.663 108.418 Q177.492 104.853 177.492 97.7471 Q177.492 90.6175 175.663 87.0758 Q173.858 83.511 170.223 83.511 M170.223 79.8073 Q176.034 79.8073 179.089 84.4138 Q182.168 88.9971 182.168 97.7471 Q182.168 106.474 179.089 111.08 Q176.034 115.664 170.223 115.664 Q164.413 115.664 161.335 111.08 Q158.279 106.474 158.279 97.7471 Q158.279 88.9971 161.335 84.4138 Q164.413 79.8073 170.223 79.8073 Z" fill="#000000" fill-rule="nonzero" fill-opacity="1" /><path clip-path="url(#clip500)" d="M200.385 83.511 Q196.774 83.511 194.945 87.0758 Q193.14 90.6175 193.14 97.7471 Q193.14 104.853 194.945 108.418 Q196.774 111.96 200.385 111.96 Q204.02 111.96 205.825 108.418 Q207.654 104.853 207.654 97.7471 Q207.654 90.6175 205.825 87.0758 Q204.02 83.511 200.385 83.511 M200.385 79.8073 Q206.195 79.8073 209.251 84.4138 Q212.33 88.9971 212.33 97.7471 Q212.33 106.474 209.251 111.08 Q206.195 115.664 200.385 115.664 Q194.575 115.664 191.496 111.08 Q188.441 106.474 188.441 97.7471 Q188.441 88.9971 191.496 84.4138 Q194.575 79.8073 200.385 79.8073 Z" fill="#000000" fill-rule="nonzero" fill-opacity="1" /><path clip-path="url(#clip500)" d="M248.718 89.5295 L238.14 100.154 L248.718 110.733 L245.964 113.534 L235.339 102.909 L224.714 113.534 L221.982 110.733 L232.538 100.154 L221.982 89.5295 L224.714 86.7286 L235.339 97.3535 L245.964 86.7286 L248.718 89.5295 Z" fill="#000000" fill-rule="nonzero" fill-opacity="1" /><path clip-path="url(#clip500)" d="M261.079 111.057 L268.718 111.057 L268.718 84.6916 L260.408 86.3582 L260.408 82.099 L268.672 80.4323 L273.348 80.4323 L273.348 111.057 L280.987 111.057 L280.987 114.992 L261.079 114.992 L261.079 111.057 Z" fill="#000000" fill-rule="nonzero" fill-opacity="1" /><path clip-path="url(#clip500)" d="M300.431 83.511 Q296.82 83.511 294.991 87.0758 Q293.186 90.6175 293.186 97.7471 Q293.186 104.853 294.991 108.418 Q296.82 111.96 300.431 111.96 Q304.065 111.96 305.871 108.418 Q307.7 104.853 307.7 97.7471 Q307.7 90.6175 305.871 87.0758 Q304.065 83.511 300.431 83.511 M300.431 79.8073 Q306.241 79.8073 309.297 84.4138 Q312.375 88.9971 312.375 97.7471 Q312.375 106.474 309.297 111.08 Q306.241 115.664 300.431 115.664 Q294.621 115.664 291.542 111.08 Q288.487 106.474 288.487 97.7471 Q288.487 88.9971 291.542 84.4138 Q294.621 79.8073 300.431 79.8073 Z" fill="#000000" fill-rule="nonzero" fill-opacity="1" /><path clip-path="url(#clip500)" d="M312.375 73.9087 L336.487 73.9087 L336.487 77.106 L312.375 77.106 L312.375 73.9087 Z" fill="#000000" fill-rule="nonzero" fill-opacity="1" /><path clip-path="url(#clip500)" d="M353.282 72.0279 Q350.724 72.0279 349.22 73.777 Q347.734 75.5261 347.734 78.573 Q347.734 81.6011 349.22 83.369 Q350.724 85.1181 353.282 85.1181 Q355.84 85.1181 357.326 83.369 Q358.831 81.6011 358.831 78.573 Q358.831 75.5261 357.326 73.777 Q355.84 72.0279 353.282 72.0279 M360.824 60.1226 L360.824 63.5832 Q359.395 62.9061 357.928 62.5488 Q356.48 62.1914 355.05 62.1914 Q351.289 62.1914 349.295 64.7305 Q347.32 67.2695 347.038 72.4041 Q348.148 70.7678 349.822 69.9026 Q351.496 69.0187 353.508 69.0187 Q357.74 69.0187 360.185 71.5953 Q362.649 74.1532 362.649 78.573 Q362.649 82.8988 360.091 85.5131 Q357.533 88.1274 353.282 88.1274 Q348.411 88.1274 345.834 84.4034 Q343.258 80.6607 343.258 73.5701 Q343.258 66.9122 346.417 62.9626 Q349.577 58.9941 354.9 58.9941 Q356.329 58.9941 357.777 59.2762 Q359.244 59.5584 360.824 60.1226 Z" fill="#000000" fill-rule="nonzero" fill-opacity="1" /><path clip-path="url(#clip500)" d="M46.0847 1124.32 Q46.0847 1131.41 47.7079 1134.15 Q49.3312 1136.89 53.2461 1136.89 Q56.3653 1136.89 58.2114 1134.85 Q60.0256 1132.78 60.0256 1129.25 Q60.0256 1124.38 56.5881 1121.45 Q53.1188 1118.49 47.3897 1118.49 L46.0847 1118.49 L46.0847 1124.32 M43.6657 1112.63 L64.0042 1112.63 L64.0042 1118.49 L58.5933 1118.49 Q61.8398 1120.5 63.3994 1123.49 Q64.9272 1126.48 64.9272 1130.81 Q64.9272 1136.28 61.8716 1139.53 Q58.7843 1142.74 53.6281 1142.74 Q47.6125 1142.74 44.5569 1138.73 Q41.5014 1134.69 41.5014 1126.7 L41.5014 1118.49 L40.9285 1118.49 Q36.8862 1118.49 34.6901 1121.16 Q32.4621 1123.81 32.4621 1128.61 Q32.4621 1131.67 33.1941 1134.56 Q33.9262 1137.46 35.3903 1140.13 L29.9795 1140.13 Q28.7381 1136.92 28.1334 1133.9 Q27.4968 1130.87 27.4968 1128.01 Q27.4968 1120.27 31.5072 1116.45 Q35.5176 1112.63 43.6657 1112.63 Z" fill="#000000" fill-rule="nonzero" fill-opacity="1" /><path clip-path="url(#clip500)" d="M49.9359 1101.18 L28.3562 1101.18 L28.3562 1095.32 L49.7131 1095.32 Q54.7739 1095.32 57.3202 1093.35 Q59.8346 1091.37 59.8346 1087.43 Q59.8346 1082.68 56.8109 1079.95 Q53.7872 1077.18 48.5673 1077.18 L28.3562 1077.18 L28.3562 1071.32 L64.0042 1071.32 L64.0042 1077.18 L58.5296 1077.18 Q61.7762 1079.31 63.3676 1082.14 Q64.9272 1084.94 64.9272 1088.67 Q64.9272 1094.81 61.1078 1097.99 Q57.2883 1101.18 49.9359 1101.18 M27.4968 1086.44 L27.4968 1086.44 Z" fill="#000000" fill-rule="nonzero" fill-opacity="1" /><path clip-path="url(#clip500)" d="M18.2347 1053.47 L28.3562 1053.47 L28.3562 1041.4 L32.9077 1041.4 L32.9077 1053.47 L52.2594 1053.47 Q56.6199 1053.47 57.8613 1052.29 Q59.1026 1051.08 59.1026 1047.42 L59.1026 1041.4 L64.0042 1041.4 L64.0042 1047.42 Q64.0042 1054.2 61.4897 1056.78 Q58.9434 1059.35 52.2594 1059.35 L32.9077 1059.35 L32.9077 1063.65 L28.3562 1063.65 L28.3562 1059.35 L18.2347 1059.35 L18.2347 1053.47 Z" fill="#000000" fill-rule="nonzero" fill-opacity="1" /><path clip-path="url(#clip500)" d="M32.4621 1019.89 Q32.4621 1024.6 36.1542 1027.33 Q39.8145 1030.07 46.212 1030.07 Q52.6095 1030.07 56.3017 1027.37 Q59.9619 1024.63 59.9619 1019.89 Q59.9619 1015.21 56.2698 1012.47 Q52.5777 1009.73 46.212 1009.73 Q39.8781 1009.73 36.186 1012.47 Q32.4621 1015.21 32.4621 1019.89 M27.4968 1019.89 Q27.4968 1012.25 32.4621 1007.89 Q37.4273 1003.53 46.212 1003.53 Q54.9649 1003.53 59.9619 1007.89 Q64.9272 1012.25 64.9272 1019.89 Q64.9272 1027.56 59.9619 1031.92 Q54.9649 1036.25 46.212 1036.25 Q37.4273 1036.25 32.4621 1031.92 Q27.4968 1027.56 27.4968 1019.89 Z" fill="#000000" fill-rule="nonzero" fill-opacity="1" /><path clip-path="url(#clip500)" d="M29.7248 968.165 L35.1993 968.165 Q33.8307 970.648 33.1623 973.162 Q32.4621 975.645 32.4621 978.191 Q32.4621 983.888 36.0905 987.039 Q39.6872 990.19 46.212 990.19 Q52.7369 990.19 56.3653 987.039 Q59.9619 983.888 59.9619 978.191 Q59.9619 975.645 59.2935 973.162 Q58.5933 970.648 57.2247 968.165 L62.6355 968.165 Q63.7814 970.616 64.3543 973.258 Q64.9272 975.868 64.9272 978.828 Q64.9272 986.88 59.8664 991.623 Q54.8057 996.365 46.212 996.365 Q37.491 996.365 32.4939 991.591 Q27.4968 986.785 27.4968 978.446 Q27.4968 975.74 28.0697 973.162 Q28.6108 970.584 29.7248 968.165 Z" fill="#000000" fill-rule="nonzero" fill-opacity="1" /><path clip-path="url(#clip500)" d="M32.4621 944.166 Q32.4621 948.877 36.1542 951.614 Q39.8145 954.351 46.212 954.351 Q52.6095 954.351 56.3017 951.646 Q59.9619 948.909 59.9619 944.166 Q59.9619 939.487 56.2698 936.75 Q52.5777 934.013 46.212 934.013 Q39.8781 934.013 36.186 936.75 Q32.4621 939.487 32.4621 944.166 M27.4968 944.166 Q27.4968 936.527 32.4621 932.167 Q37.4273 927.806 46.212 927.806 Q54.9649 927.806 59.9619 932.167 Q64.9272 936.527 64.9272 944.166 Q64.9272 951.837 59.9619 956.197 Q54.9649 960.526 46.212 960.526 Q37.4273 960.526 32.4621 956.197 Q27.4968 951.837 27.4968 944.166 Z" fill="#000000" fill-rule="nonzero" fill-opacity="1" /><path clip-path="url(#clip500)" d="M42.4881 888.466 L64.0042 888.466 L64.0042 894.323 L42.679 894.323 Q37.6183 894.323 35.1038 896.296 Q32.5894 898.27 32.5894 902.216 Q32.5894 906.959 35.6131 909.696 Q38.6368 912.433 43.8567 912.433 L64.0042 912.433 L64.0042 918.322 L28.3562 918.322 L28.3562 912.433 L33.8944 912.433 Q30.6797 910.333 29.0883 907.5 Q27.4968 904.635 27.4968 900.911 Q27.4968 894.768 31.3163 891.617 Q35.1038 888.466 42.4881 888.466 Z" fill="#000000" fill-rule="nonzero" fill-opacity="1" /><path clip-path="url(#clip500)" d="M28.3562 880.987 L28.3562 874.78 L58.275 863.64 L28.3562 852.5 L28.3562 846.294 L64.0042 859.662 L64.0042 867.619 L28.3562 880.987 Z" fill="#000000" fill-rule="nonzero" fill-opacity="1" /><path clip-path="url(#clip500)" d="M44.7161 807.717 L47.5806 807.717 L47.5806 834.644 Q53.6281 834.262 56.8109 831.016 Q59.9619 827.738 59.9619 821.913 Q59.9619 818.539 59.1344 815.388 Q58.3069 812.205 56.6518 809.086 L62.1899 809.086 Q63.5267 812.237 64.227 815.547 Q64.9272 818.857 64.9272 822.263 Q64.9272 830.793 59.9619 835.79 Q54.9967 840.755 46.5303 840.755 Q37.7774 840.755 32.6531 836.045 Q27.4968 831.302 27.4968 823.282 Q27.4968 816.088 32.1438 811.919 Q36.7589 807.717 44.7161 807.717 M42.9973 813.574 Q38.1912 813.637 35.3266 816.279 Q32.4621 818.889 32.4621 823.218 Q32.4621 828.119 35.2312 831.08 Q38.0002 834.008 43.0292 834.453 L42.9973 813.574 Z" fill="#000000" fill-rule="nonzero" fill-opacity="1" /><path clip-path="url(#clip500)" d="M33.8307 777.448 Q33.2578 778.435 33.0032 779.613 Q32.7167 780.759 32.7167 782.159 Q32.7167 787.124 35.9632 789.798 Q39.1779 792.44 45.2253 792.44 L64.0042 792.44 L64.0042 798.328 L28.3562 798.328 L28.3562 792.44 L33.8944 792.44 Q30.6479 790.594 29.0883 787.634 Q27.4968 784.674 27.4968 780.44 Q27.4968 779.836 27.5923 779.104 Q27.656 778.371 27.8151 777.48 L33.8307 777.448 Z" fill="#000000" fill-rule="nonzero" fill-opacity="1" /><path clip-path="url(#clip500)" d="M29.4065 748.58 L34.9447 748.58 Q33.6716 751.063 33.035 753.736 Q32.3984 756.41 32.3984 759.274 Q32.3984 763.635 33.7352 765.831 Q35.072 767.995 37.7456 767.995 Q39.7826 767.995 40.9603 766.436 Q42.1061 764.876 43.1565 760.166 L43.6021 758.16 Q44.9389 751.922 47.3897 749.312 Q49.8086 746.67 54.1691 746.67 Q59.1344 746.67 62.0308 750.617 Q64.9272 754.532 64.9272 761.407 Q64.9272 764.271 64.3543 767.391 Q63.8132 770.478 62.6992 773.915 L56.6518 773.915 Q58.3387 770.669 59.198 767.518 Q60.0256 764.367 60.0256 761.28 Q60.0256 757.142 58.6251 754.914 Q57.1929 752.686 54.6147 752.686 Q52.2276 752.686 50.9545 754.309 Q49.6813 755.901 48.5037 761.343 L48.0262 763.38 Q46.8804 768.823 44.5251 771.242 Q42.138 773.661 38.0002 773.661 Q32.9713 773.661 30.2341 770.096 Q27.4968 766.531 27.4968 759.975 Q27.4968 756.728 27.9743 753.863 Q28.4517 750.999 29.4065 748.58 Z" fill="#000000" fill-rule="nonzero" fill-opacity="1" /><path clip-path="url(#clip500)" d="M28.3562 737.344 L28.3562 731.488 L64.0042 731.488 L64.0042 737.344 L28.3562 737.344 M14.479 737.344 L14.479 731.488 L21.895 731.488 L21.895 737.344 L14.479 737.344 Z" fill="#000000" fill-rule="nonzero" fill-opacity="1" /><path clip-path="url(#clip500)" d="M32.4621 705.42 Q32.4621 710.131 36.1542 712.868 Q39.8145 715.606 46.212 715.606 Q52.6095 715.606 56.3017 712.9 Q59.9619 710.163 59.9619 705.42 Q59.9619 700.742 56.2698 698.004 Q52.5777 695.267 46.212 695.267 Q39.8781 695.267 36.186 698.004 Q32.4621 700.742 32.4621 705.42 M27.4968 705.42 Q27.4968 697.782 32.4621 693.421 Q37.4273 689.061 46.212 689.061 Q54.9649 689.061 59.9619 693.421 Q64.9272 697.782 64.9272 705.42 Q64.9272 713.091 59.9619 717.452 Q54.9649 721.78 46.212 721.78 Q37.4273 721.78 32.4621 717.452 Q27.4968 713.091 27.4968 705.42 Z" fill="#000000" fill-rule="nonzero" fill-opacity="1" /><path clip-path="url(#clip500)" d="M42.4881 649.721 L64.0042 649.721 L64.0042 655.577 L42.679 655.577 Q37.6183 655.577 35.1038 657.55 Q32.5894 659.524 32.5894 663.47 Q32.5894 668.213 35.6131 670.95 Q38.6368 673.687 43.8567 673.687 L64.0042 673.687 L64.0042 679.576 L28.3562 679.576 L28.3562 673.687 L33.8944 673.687 Q30.6797 671.587 29.0883 668.754 Q27.4968 665.889 27.4968 662.165 Q27.4968 656.023 31.3163 652.872 Q35.1038 649.721 42.4881 649.721 Z" fill="#000000" fill-rule="nonzero" fill-opacity="1" /><path clip-path="url(#clip500)" d="M33.8307 596.662 Q33.2578 597.649 33.0032 598.827 Q32.7167 599.973 32.7167 601.373 Q32.7167 606.338 35.9632 609.012 Q39.1779 611.654 45.2253 611.654 L64.0042 611.654 L64.0042 617.542 L28.3562 617.542 L28.3562 611.654 L33.8944 611.654 Q30.6479 609.808 29.0883 606.847 Q27.4968 603.887 27.4968 599.654 Q27.4968 599.05 27.5923 598.317 Q27.656 597.585 27.8151 596.694 L33.8307 596.662 Z" fill="#000000" fill-rule="nonzero" fill-opacity="1" /><path clip-path="url(#clip500)" d="M46.0847 574.319 Q46.0847 581.416 47.7079 584.154 Q49.3312 586.891 53.2461 586.891 Q56.3653 586.891 58.2114 584.854 Q60.0256 582.785 60.0256 579.252 Q60.0256 574.382 56.5881 571.454 Q53.1188 568.494 47.3897 568.494 L46.0847 568.494 L46.0847 574.319 M43.6657 562.638 L64.0042 562.638 L64.0042 568.494 L58.5933 568.494 Q61.8398 570.499 63.3994 573.491 Q64.9272 576.483 64.9272 580.812 Q64.9272 586.286 61.8716 589.533 Q58.7843 592.747 53.6281 592.747 Q47.6125 592.747 44.5569 588.737 Q41.5014 584.695 41.5014 576.706 L41.5014 568.494 L40.9285 568.494 Q36.8862 568.494 34.6901 571.168 Q32.4621 573.809 32.4621 578.616 Q32.4621 581.671 33.1941 584.568 Q33.9262 587.464 35.3903 590.138 L29.9795 590.138 Q28.7381 586.923 28.1334 583.899 Q27.4968 580.875 27.4968 578.011 Q27.4968 570.277 31.5072 566.457 Q35.5176 562.638 43.6657 562.638 Z" fill="#000000" fill-rule="nonzero" fill-opacity="1" /><path clip-path="url(#clip500)" d="M18.2347 544.782 L28.3562 544.782 L28.3562 532.719 L32.9077 532.719 L32.9077 544.782 L52.2594 544.782 Q56.6199 544.782 57.8613 543.604 Q59.1026 542.395 59.1026 538.734 L59.1026 532.719 L64.0042 532.719 L64.0042 538.734 Q64.0042 545.514 61.4897 548.092 Q58.9434 550.67 52.2594 550.67 L32.9077 550.67 L32.9077 554.967 L28.3562 554.967 L28.3562 550.67 L18.2347 550.67 L18.2347 544.782 Z" fill="#000000" fill-rule="nonzero" fill-opacity="1" /><path clip-path="url(#clip500)" d="M44.7161 494.525 L47.5806 494.525 L47.5806 521.452 Q53.6281 521.07 56.8109 517.823 Q59.9619 514.545 59.9619 508.72 Q59.9619 505.346 59.1344 502.195 Q58.3069 499.012 56.6518 495.893 L62.1899 495.893 Q63.5267 499.044 64.227 502.354 Q64.9272 505.665 64.9272 509.07 Q64.9272 517.6 59.9619 522.597 Q54.9967 527.563 46.5303 527.563 Q37.7774 527.563 32.6531 522.852 Q27.4968 518.11 27.4968 510.089 Q27.4968 502.896 32.1438 498.726 Q36.7589 494.525 44.7161 494.525 M42.9973 500.381 Q38.1912 500.445 35.3266 503.086 Q32.4621 505.696 32.4621 510.025 Q32.4621 514.927 35.2312 517.887 Q38.0002 520.815 43.0292 521.261 L42.9973 500.381 Z" fill="#000000" fill-rule="nonzero" fill-opacity="1" /><path clip-path="url(#clip500)" d="M14.479 464.733 L14.479 451.238 L19.0304 451.238 L19.0304 458.877 L68.0464 458.877 L68.0464 451.238 L72.5979 451.238 L72.5979 464.733 L14.479 464.733 Z" fill="#000000" fill-rule="nonzero" fill-opacity="1" /><path clip-path="url(#clip500)" d="M58.5933 436.819 L58.5933 426.316 L22.3406 426.316 L24.6323 437.742 L18.7758 437.742 L16.4842 426.38 L16.4842 419.95 L58.5933 419.95 L58.5933 409.447 L64.0042 409.447 L64.0042 436.819 L58.5933 436.819 Z" fill="#000000" fill-rule="nonzero" fill-opacity="1" /><path clip-path="url(#clip500)" d="M16.4842 386.881 L16.4842 381.47 L70.0516 398.02 L70.0516 403.431 L16.4842 386.881 Z" fill="#000000" fill-rule="nonzero" fill-opacity="1" /><path clip-path="url(#clip500)" d="M29.4065 352.601 L34.9447 352.601 Q33.6716 355.084 33.035 357.757 Q32.3984 360.431 32.3984 363.296 Q32.3984 367.656 33.7352 369.852 Q35.072 372.017 37.7456 372.017 Q39.7826 372.017 40.9603 370.457 Q42.1061 368.897 43.1565 364.187 L43.6021 362.182 Q44.9389 355.943 47.3897 353.333 Q49.8086 350.691 54.1691 350.691 Q59.1344 350.691 62.0308 354.638 Q64.9272 358.553 64.9272 365.428 Q64.9272 368.293 64.3543 371.412 Q63.8132 374.499 62.6992 377.937 L56.6518 377.937 Q58.3387 374.69 59.198 371.539 Q60.0256 368.388 60.0256 365.301 Q60.0256 361.163 58.6251 358.935 Q57.1929 356.707 54.6147 356.707 Q52.2276 356.707 50.9545 358.33 Q49.6813 359.922 48.5037 365.364 L48.0262 367.401 Q46.8804 372.844 44.5251 375.263 Q42.138 377.682 38.0002 377.682 Q32.9713 377.682 30.2341 374.117 Q27.4968 370.552 27.4968 363.996 Q27.4968 360.749 27.9743 357.885 Q28.4517 355.02 29.4065 352.601 Z" fill="#000000" fill-rule="nonzero" fill-opacity="1" /><path clip-path="url(#clip500)" d="M14.479 327.679 L72.5979 327.679 L72.5979 341.175 L68.0464 341.175 L68.0464 333.568 L19.0304 333.568 L19.0304 341.175 L14.479 341.175 L14.479 327.679 Z" fill="#000000" fill-rule="nonzero" fill-opacity="1" /><polyline clip-path="url(#clip502)" style="stroke:#009af9; stroke-linecap:round; stroke-linejoin:round; stroke-width:8; stroke-opacity:1; fill:none" points="453.954,1384.24 455.799,1384.24 457.644,1384.24 459.49,1384.24 461.335,1384.24 463.18,1384.24 465.026,1384.24 466.871,1384.24 468.716,1384.24 470.562,1384.24 472.407,1384.24 474.252,1384.24 476.098,1384.24 477.943,1384.24 479.788,1384.24 481.634,1384.24 483.479,1384.24 485.324,1384.24 487.17,1384.24 489.015,1384.24 490.86,1384.24 492.706,1384.24 494.551,1384.24 496.396,1384.24 498.242,1384.24 500.087,1384.24 501.932,1384.24 503.778,1384.24 505.623,1384.24 507.468,1384.24 509.314,1384.24 511.159,1384.24 513.004,1384.24 514.85,1384.24 516.695,1384.24 518.541,1384.24 520.386,1384.24 522.231,1384.24 524.077,1384.24 525.922,1384.24 527.767,1384.24 529.613,1384.24 531.458,1384.24 533.303,1384.24 535.149,1384.24 536.994,1384.24 538.839,1384.24 540.685,1384.24 542.53,1384.24 544.375,1384.24 546.221,1384.24 548.066,1384.24 549.911,1384.24 551.757,1384.24 553.602,1384.24 555.447,1384.24 557.293,1384.24 559.138,1384.24 560.983,1384.24 562.829,1384.24 564.674,1384.24 566.519,1384.24 568.365,1384.24 570.21,1384.24 572.055,1384.24 573.901,1384.24 575.746,1384.24 577.591,1384.24 579.437,1384.24 581.282,1384.24 583.128,1384.24 584.973,1384.24 586.818,1384.24 588.664,1384.24 590.509,1384.24 592.354,1384.24 594.2,1384.24 596.045,1384.24 597.89,1384.24 599.736,1384.24 601.581,1384.24 603.426,1384.24 605.272,1384.24 607.117,1384.24 608.962,1384.24 610.808,1384.24 612.653,1384.24 614.498,1384.24 616.344,1384.24 618.189,1384.24 620.034,1384.24 621.88,1384.24 623.725,1384.24 625.57,1384.24 627.416,1384.24 629.261,1384.24 631.106,1384.24 632.952,1384.24 634.797,1384.24 636.642,1384.24 638.488,1384.24 640.333,1384.24 642.178,1384.24 644.024,1384.24 645.869,1384.24 647.715,1384.24 649.56,1384.24 651.405,1384.24 653.251,1384.24 655.096,1384.24 656.941,1384.24 658.787,1384.24 660.632,1384.24 662.477,1384.24 664.323,1384.24 666.168,1384.24 668.013,1384.24 669.859,1384.24 671.704,1384.24 673.549,1384.24 675.395,1384.24 677.24,1384.24 679.085,1384.24 680.931,1384.24 682.776,1384.24 684.621,1384.24 686.467,1384.24 688.312,1384.24 690.157,1384.24 692.003,1384.24 693.848,1384.24 695.693,1384.24 697.539,1384.24 699.384,1384.24 701.229,1384.24 703.075,1384.24 704.92,1384.24 706.765,1384.24 708.611,1384.24 710.456,1384.24 712.302,1384.24 714.147,1384.24 715.992,1384.24 717.838,1384.24 719.683,1384.24 721.528,1384.24 723.374,1384.24 725.219,1384.24 727.064,1384.24 728.91,1384.24 730.755,1384.24 732.6,1384.24 734.446,1384.24 736.291,1384.24 738.136,1384.24 739.982,1384.24 741.827,1384.24 743.672,1384.24 745.518,1384.24 747.363,1384.24 749.208,1384.24 751.054,1384.24 752.899,1384.24 754.744,1384.24 756.59,1384.24 758.435,1384.24 760.28,1384.24 762.126,1384.24 763.971,1384.24 765.816,1384.24 767.662,1384.24 769.507,1384.24 771.352,1384.24 773.198,1384.24 775.043,1384.24 776.889,1384.24 778.734,1384.24 780.579,1384.24 782.425,1384.24 784.27,1384.24 786.115,1384.24 787.961,1384.24 789.806,1384.24 791.651,1384.24 793.497,1384.24 795.342,1384.24 797.187,1384.24 799.033,1384.24 800.878,1384.24 802.723,1384.24 804.569,1384.24 806.414,1384.24 808.259,1384.24 810.105,1384.24 811.95,1384.24 813.795,1384.24 815.641,1384.24 817.486,1384.24 819.331,1384.24 821.177,1384.24 823.022,1384.24 824.867,1384.24 826.713,1384.24 828.558,1384.24 830.403,1384.24 832.249,1384.24 834.094,1384.24 835.939,1384.24 837.785,1384.24 839.63,1384.24 841.475,1384.24 843.321,1384.24 845.166,1384.24 847.012,1384.24 848.857,1384.24 850.702,1384.24 852.548,1384.24 854.393,1384.24 856.238,1384.24 858.084,1384.24 859.929,1384.24 861.774,1384.24 863.62,1384.24 865.465,1384.24 867.31,1384.24 869.156,1384.24 871.001,1384.24 872.846,1384.24 874.692,1384.24 876.537,1384.24 878.382,1384.24 880.228,1384.24 882.073,1384.24 883.918,1384.24 885.764,1384.24 887.609,1384.24 889.454,1384.24 891.3,1384.24 893.145,1384.24 894.99,1384.24 896.836,1384.24 898.681,1384.24 900.526,1384.24 902.372,1384.24 904.217,1384.24 906.062,1384.24 907.908,1384.24 909.753,1384.24 911.599,1384.24 913.444,1384.24 915.289,1384.24 917.135,1384.24 918.98,1384.24 920.825,1384.24 922.671,1384.24 924.516,1384.24 926.361,1384.24 928.207,1384.24 930.052,1384.24 931.897,1384.24 933.743,1384.24 935.588,1384.24 937.433,1384.24 939.279,1384.24 941.124,1384.24 942.969,1384.24 944.815,1384.24 946.66,1384.24 948.505,1384.24 950.351,1384.24 952.196,1384.24 954.041,1384.24 955.887,1384.24 957.732,1384.24 959.577,1384.24 961.423,1384.24 963.268,1384.24 965.113,1384.24 966.959,1384.24 968.804,1384.24 970.649,1384.24 972.495,1384.24 974.34,1384.24 976.186,1384.24 978.031,1384.24 979.876,1384.24 981.722,1384.24 983.567,1384.24 985.412,1384.24 987.258,1384.24 989.103,1384.24 990.948,1384.24 992.794,1384.24 994.639,1384.24 996.484,1384.24 998.33,1384.24 1000.17,1384.24 1002.02,1384.24 1003.87,1384.24 1005.71,1384.24 1007.56,1384.24 1009.4,1384.24 1011.25,1384.24 1013.09,1384.24 1014.94,1384.24 1016.78,1384.24 1018.63,1384.24 1020.47,1384.24 1022.32,1384.24 1024.16,1384.24 1026.01,1384.24 1027.86,1384.24 1029.7,1384.24 1031.55,1384.24 1033.39,1384.24 1035.24,1384.24 1037.08,1384.24 1038.93,1384.24 1040.77,1384.24 1042.62,1384.24 1044.46,1384.24 1046.31,1384.24 1048.15,1384.24 1050,1384.24 1051.84,1384.24 1053.69,1384.24 1055.54,1384.24 1057.38,1384.24 1059.23,1384.24 1061.07,1384.24 1062.92,1384.24 1064.76,1384.24 1066.61,1384.24 1068.45,1384.23 1070.3,1382.29 1072.14,1380.35 1073.99,1378.41 1075.83,1376.46 1077.68,1374.52 1079.52,1372.58 1081.37,1370.64 1083.22,1368.7 1085.06,1366.76 1086.91,1364.82 1088.75,1362.87 1090.6,1360.93 1092.44,1358.99 1094.29,1357.05 1096.13,1355.11 1097.98,1353.17 1099.82,1351.23 1101.67,1349.28 1103.51,1347.34 1105.36,1345.4 1107.2,1343.46 1109.05,1341.52 1110.9,1339.58 1112.74,1337.64 1114.59,1335.69 1116.43,1333.75 1118.28,1331.81 1120.12,1329.87 1121.97,1327.93 1123.81,1325.99 1125.66,1324.05 1127.5,1322.11 1129.35,1320.16 1131.19,1318.22 1133.04,1316.28 1134.89,1314.34 1136.73,1312.4 1138.58,1310.46 1140.42,1308.52 1142.27,1306.57 1144.11,1304.63 1145.96,1302.69 1147.8,1300.75 1149.65,1298.81 1151.49,1296.87 1153.34,1294.93 1155.18,1292.98 1157.03,1291.04 1158.87,1289.1 1160.72,1287.16 1162.57,1285.22 1164.41,1283.28 1166.26,1281.34 1168.1,1279.39 1169.95,1277.45 1171.79,1275.51 1173.64,1273.57 1175.48,1271.63 1177.33,1269.69 1179.17,1267.75 1181.02,1265.8 1182.86,1263.86 1184.71,1261.92 1186.55,1259.98 1188.4,1258.04 1190.25,1256.1 1192.09,1254.16 1193.94,1252.22 1195.78,1250.27 1197.63,1248.33 1199.47,1246.39 1201.32,1244.45 1203.16,1242.51 1205.01,1240.57 1206.85,1238.63 1208.7,1236.68 1210.54,1234.74 1212.39,1232.8 1214.23,1230.86 1216.08,1228.92 1217.93,1226.98 1219.77,1225.04 1221.62,1223.09 1223.46,1221.15 1225.31,1219.21 1227.15,1217.27 1229,1215.33 1230.84,1213.39 1232.69,1211.45 1234.53,1209.5 1236.38,1207.56 1238.22,1205.62 1240.07,1203.68 1241.91,1201.74 1243.76,1199.8 1245.61,1197.86 1247.45,1195.91 1249.3,1193.97 1251.14,1192.03 1252.99,1190.09 1254.83,1188.15 1256.68,1186.21 1258.52,1184.27 1260.37,1182.33 1262.21,1180.38 1264.06,1178.44 1265.9,1176.5 1267.75,1174.56 1269.6,1172.62 1271.44,1170.68 1273.29,1168.74 1275.13,1166.79 1276.98,1164.85 1278.82,1162.91 1280.67,1160.97 1282.51,1159.03 1284.36,1157.09 1286.2,1155.15 1288.05,1153.2 1289.89,1151.26 1291.74,1149.32 1293.58,1147.38 1295.43,1145.44 1297.28,1143.5 1299.12,1141.56 1300.97,1139.61 1302.81,1137.67 1304.66,1135.73 1306.5,1133.79 1308.35,1131.85 1310.19,1129.91 1312.04,1127.97 1313.88,1126.02 1315.73,1124.08 1317.57,1122.14 1319.42,1120.2 1321.26,1118.26 1323.11,1116.32 1324.96,1114.38 1326.8,1112.44 1328.65,1110.49 1330.49,1108.55 1332.34,1106.61 1334.18,1104.67 1336.03,1102.73 1337.87,1100.79 1339.72,1098.85 1341.56,1096.9 1343.41,1094.96 1345.25,1093.02 1347.1,1091.08 1348.94,1089.14 1350.79,1087.2 1352.64,1085.26 1354.48,1083.31 1356.33,1081.37 1358.17,1079.43 1360.02,1077.49 1361.86,1075.55 1363.71,1073.61 1365.55,1071.67 1367.4,1069.72 1369.24,1067.78 1371.09,1065.84 1372.93,1063.9 1374.78,1061.96 1376.62,1060.02 1378.47,1058.08 1380.32,1056.13 1382.16,1054.19 1384.01,1052.25 1385.85,1050.31 1387.7,1048.37 1389.54,1046.43 1391.39,1044.49 1393.23,1042.55 1395.08,1040.6 1396.92,1038.66 1398.77,1036.72 1400.61,1034.78 1402.46,1032.84 1404.31,1030.9 1406.15,1028.96 1408,1027.01 1409.84,1025.07 1411.69,1023.13 1413.53,1021.19 1415.38,1019.25 1417.22,1017.31 1419.07,1015.37 1420.91,1013.42 1422.76,1011.48 1424.6,1009.54 1426.45,1007.6 1428.29,1005.66 1430.14,1003.72 1431.99,1001.78 1433.83,999.835 1435.68,997.893 1437.52,995.952 1439.37,994.011 1441.21,992.069 1443.06,990.128 1444.9,988.186 1446.75,986.245 1448.59,984.304 1450.44,982.362 1452.28,980.421 1454.13,978.479 1455.97,976.538 1457.82,974.597 1459.67,972.655 1461.51,970.714 1463.36,968.772 1465.2,966.831 1467.05,964.89 1468.89,962.948 1470.74,961.007 1472.58,959.066 1474.43,957.124 1476.27,955.183 1478.12,953.241 1479.96,951.3 1481.81,949.359 1483.65,947.417 1485.5,945.476 1487.35,943.534 1489.19,941.593 1491.04,939.652 1492.88,937.71 1494.73,935.769 1496.57,933.827 1498.42,931.886 1500.26,929.945 1502.11,928.003 1503.95,926.062 1505.8,924.121 1507.64,922.179 1509.49,920.238 1511.33,918.296 1513.18,916.355 1515.03,914.414 1516.87,912.472 1518.72,910.531 1520.56,908.589 1522.41,906.648 1524.25,904.707 1526.1,902.765 1527.94,900.824 1529.79,898.882 1531.63,896.941 1533.48,895 1535.32,893.058 1537.17,891.117 1539.02,889.176 1540.86,887.234 1542.71,885.293 1544.55,883.351 1546.4,881.41 1548.24,879.469 1550.09,877.527 1551.93,875.586 1553.78,873.644 1555.62,871.703 1557.47,869.762 1559.31,867.82 1561.16,865.879 1563,863.937 1564.85,861.996 1566.7,860.055 1568.54,858.113 1570.39,856.172 1572.23,854.231 1574.08,852.289 1575.92,850.348 1577.77,848.406 1579.61,846.465 1581.46,844.524 1583.3,842.582 1585.15,840.641 1586.99,838.699 1588.84,836.758 1590.68,834.817 1592.53,832.875 1594.38,830.934 1596.22,828.992 1598.07,827.051 1599.91,825.11 1601.76,823.168 1603.6,821.227 1605.45,819.286 1607.29,817.344 1609.14,815.403 1610.98,813.461 1612.83,811.52 1614.67,809.579 1616.52,807.637 1618.36,805.696 1620.21,803.754 1622.06,801.813 1623.9,799.872 1625.75,797.93 1627.59,795.989 1629.44,794.047 1631.28,792.106 1633.13,790.165 1634.97,788.223 1636.82,786.282 1638.66,784.341 1640.51,782.399 1642.35,780.458 1644.2,778.516 1646.04,776.575 1647.89,774.634 1649.74,772.692 1651.58,770.751 1653.43,768.809 1655.27,766.868 1657.12,764.927 1658.96,762.985 1660.81,761.044 1662.65,759.102 1664.5,757.161 1666.34,755.22 1668.19,753.278 1670.03,751.337 1671.88,749.396 1673.73,747.454 1675.57,745.513 1677.42,743.571 1679.26,741.63 1681.11,739.689 1682.95,737.747 1684.8,735.806 1686.64,733.864 1688.49,731.923 1690.33,729.982 1692.18,728.04 1694.02,726.099 1695.87,724.157 1697.71,722.216 1699.56,720.275 1701.41,718.333 1703.25,716.392 1705.1,714.451 1706.94,712.509 1708.79,710.568 1710.63,708.626 1712.48,706.685 1714.32,704.744 1716.17,702.802 1718.01,700.861 1719.86,698.919 1721.7,696.978 1723.55,695.037 1725.39,693.095 1727.24,691.154 1729.09,689.212 1730.93,687.271 1732.78,685.33 1734.62,683.388 1736.47,681.447 1738.31,679.506 1740.16,677.564 1742,675.623 1743.85,673.681 1745.69,671.74 1747.54,669.799 1749.38,667.857 1751.23,665.916 1753.07,663.974 1754.92,662.033 1756.77,660.092 1758.61,658.15 1760.46,656.209 1762.3,654.267 1764.15,652.326 1765.99,650.385 1767.84,648.443 1769.68,646.502 1771.53,644.561 1773.37,642.619 1775.22,640.678 1777.06,638.736 1778.91,636.795 1780.75,634.854 1782.6,632.912 1784.45,630.971 1786.29,629.029 1788.14,627.088 1789.98,625.147 1791.83,623.205 1793.67,621.264 1795.52,619.322 1797.36,617.381 1799.21,615.44 1801.05,613.498 1802.9,611.557 1804.74,609.616 1806.59,607.674 1808.44,605.733 1810.28,603.791 1812.13,601.85 1813.97,599.909 1815.82,597.967 1817.66,596.026 1819.51,594.084 1821.35,592.143 1823.2,590.202 1825.04,588.26 1826.89,586.319 1828.73,584.377 1830.58,582.436 1832.42,580.495 1834.27,578.553 1836.12,576.612 1837.96,574.671 1839.81,572.729 1841.65,570.788 1843.5,568.846 1845.34,566.905 1847.19,564.964 1849.03,563.022 1850.88,561.081 1852.72,559.139 1854.57,557.198 1856.41,555.257 1858.26,553.315 1860.1,551.374 1861.95,549.432 1863.8,547.491 1865.64,545.55 1867.49,543.608 1869.33,541.667 1871.18,539.726 1873.02,537.784 1874.87,535.843 1876.71,533.901 1878.56,531.96 1880.4,530.019 1882.25,528.077 1884.09,526.136 1885.94,524.194 1887.78,522.253 1889.63,520.312 1891.48,518.37 1893.32,516.429 1895.17,514.487 1897.01,512.546 1898.86,510.605 1900.7,508.663 1902.55,506.722 1904.39,504.781 1906.24,502.839 1908.08,500.898 1909.93,498.956 1911.77,497.015 1913.62,495.074 1915.47,493.132 1917.31,491.191 1919.16,489.249 1921,487.308 1922.85,485.367 1924.69,483.425 1926.54,481.484 1928.38,479.542 1930.23,477.601 1932.07,475.66 1933.92,473.718 1935.76,471.777 1937.61,469.836 1939.45,467.894 1941.3,465.953 1943.15,464.011 1944.99,462.07 1946.84,460.129 1948.68,458.187 1950.53,456.246 1952.37,454.304 1954.22,452.363 1956.06,450.422 1957.91,448.48 1959.75,446.539 1961.6,444.597 1963.44,442.656 1965.29,440.715 1967.13,438.773 1968.98,436.832 1970.83,434.891 1972.67,432.949 1974.52,431.008 1976.36,429.066 1978.21,427.125 1980.05,425.184 1981.9,423.242 1983.74,421.301 1985.59,419.359 1987.43,417.418 1989.28,415.477 1991.12,413.535 1992.97,411.594 1994.81,409.652 1996.66,407.711 1998.51,405.77 2000.35,403.828 2002.2,401.887 2004.04,399.946 2005.89,398.004 2007.73,396.063 2009.58,394.121 2011.42,392.18 2013.27,390.239 2015.11,388.297 2016.96,386.356 2018.8,384.414 2020.65,382.473 2022.49,380.532 2024.34,378.59 2026.19,376.649 2028.03,374.707 2029.88,372.766 2031.72,370.825 2033.57,368.883 2035.41,366.942 2037.26,365.001 2039.1,363.059 2040.95,361.118 2042.79,359.176 2044.64,357.235 2046.48,355.294 2048.33,353.352 2050.18,351.411 2052.02,349.469 2053.87,347.528 2055.71,345.587 2057.56,343.645 2059.4,341.704 2061.25,339.762 2063.09,337.821 2064.94,335.88 2066.78,333.938 2068.63,331.997 2070.47,330.056 2072.32,328.114 2074.16,326.173 2076.01,324.231 2077.86,322.29 2079.7,320.349 2081.55,318.407 2083.39,316.466 2085.24,314.524 2087.08,312.583 2088.93,310.642 2090.77,308.7 2092.62,306.759 2094.46,304.817 2096.31,302.876 2098.15,300.935 2100,298.993 2101.84,297.052 2103.69,295.111 2105.54,293.169 2107.38,291.228 2109.23,289.286 2111.07,287.345 2112.92,285.404 2114.76,283.462 2116.61,281.521 2118.45,279.579 2120.3,277.638 2122.14,275.697 2123.99,273.755 2125.83,271.814 2127.68,269.872 2129.52,267.931 2131.37,265.99 2133.22,264.048 2135.06,262.107 2136.91,260.166 2138.75,258.224 2140.6,256.283 2142.44,254.341 2144.29,252.4 2146.13,250.459 2147.98,248.517 2149.82,246.576 2151.67,244.634 2153.51,242.693 2155.36,240.752 2157.2,238.81 2159.05,236.869 2160.9,234.927 2162.74,232.986 2164.59,231.045 2166.43,229.103 2168.28,227.162 2170.12,225.221 2171.97,223.279 2173.81,221.338 2175.66,219.396 2177.5,217.455 2179.35,215.514 2181.19,213.572 2183.04,211.631 2184.89,209.689 2186.73,207.748 2188.58,205.807 2190.42,203.865 2192.27,201.924 2194.11,199.982 2195.96,198.041 2197.8,196.1 2199.65,194.158 2201.49,192.217 2203.34,190.276 2205.18,188.334 2207.03,186.393 2208.87,184.451 2210.72,182.51 2212.57,180.569 2214.41,178.627 2216.26,176.686 2218.1,174.744 2219.95,172.803 2221.79,170.862 2223.64,168.92 2225.48,166.979 2227.33,165.038 2229.17,163.096 2231.02,161.155 2232.86,159.213 2234.71,157.272 2236.55,155.331 2238.4,153.389 2240.25,151.448 2242.09,149.506 2243.94,147.565 2245.78,145.624 2247.63,143.682 2249.47,141.741 2251.32,139.799 2253.16,137.858 2255.01,135.917 2256.85,133.975 2258.7,132.034 2260.54,130.093 2262.39,128.151 2264.23,126.21 2266.08,124.268 2267.93,122.327 2269.77,120.386 2271.62,118.444 2273.46,116.503 2275.31,114.561 2277.15,112.62 2279,110.679 2280.84,108.737 2282.69,106.796 2284.53,104.854 2286.38,102.913 2288.22,100.972 2290.07,99.0303 2291.91,97.0889 2293.76,95.1475 2295.61,93.2061 2297.45,91.2647 "/>
<polyline clip-path="url(#clip502)" style="stroke:#e26f46; stroke-linecap:round; stroke-linejoin:round; stroke-width:8; stroke-opacity:1; fill:none" points="453.954,1384.24 455.799,1383.97 457.644,1383.71 459.49,1383.44 461.335,1383.17 463.18,1382.91 465.026,1382.64 466.871,1382.36 468.716,1382.09 470.562,1381.82 472.407,1381.54 474.252,1381.26 476.098,1380.98 477.943,1380.7 479.788,1380.42 481.634,1380.14 483.479,1379.85 485.324,1379.57 487.17,1379.28 489.015,1378.99 490.86,1378.7 492.706,1378.41 494.551,1378.12 496.396,1377.82 498.242,1377.52 500.087,1377.23 501.932,1376.93 503.778,1376.63 505.623,1376.32 507.468,1376.02 509.314,1375.71 511.159,1375.41 513.004,1375.1 514.85,1374.79 516.695,1374.47 518.541,1374.16 520.386,1373.85 522.231,1373.53 524.077,1373.21 525.922,1372.89 527.767,1372.57 529.613,1372.25 531.458,1371.92 533.303,1371.6 535.149,1371.27 536.994,1370.94 538.839,1370.61 540.685,1370.27 542.53,1369.94 544.375,1369.6 546.221,1369.27 548.066,1368.93 549.911,1368.58 551.757,1368.24 553.602,1367.9 555.447,1367.55 557.293,1367.2 559.138,1366.85 560.983,1366.5 562.829,1366.15 564.674,1365.79 566.519,1365.44 568.365,1365.08 570.21,1364.72 572.055,1364.36 573.901,1363.99 575.746,1363.63 577.591,1363.26 579.437,1362.89 581.282,1362.52 583.128,1362.15 584.973,1361.77 586.818,1361.4 588.664,1361.02 590.509,1360.64 592.354,1360.26 594.2,1359.87 596.045,1359.49 597.89,1359.1 599.736,1358.71 601.581,1358.32 603.426,1357.93 605.272,1357.53 607.117,1357.13 608.962,1356.73 610.808,1356.33 612.653,1355.93 614.498,1355.53 616.344,1355.12 618.189,1354.71 620.034,1354.3 621.88,1353.89 623.725,1353.48 625.57,1353.06 627.416,1352.64 629.261,1352.22 631.106,1351.8 632.952,1351.38 634.797,1350.95 636.642,1350.52 638.488,1350.09 640.333,1349.66 642.178,1349.23 644.024,1348.79 645.869,1348.35 647.715,1347.91 649.56,1347.47 651.405,1347.02 653.251,1346.58 655.096,1346.13 656.941,1345.68 658.787,1345.23 660.632,1344.77 662.477,1344.32 664.323,1343.86 666.168,1343.4 668.013,1342.93 669.859,1342.47 671.704,1342 673.549,1341.53 675.395,1341.06 677.24,1340.59 679.085,1340.11 680.931,1339.63 682.776,1339.15 684.621,1338.67 686.467,1338.18 688.312,1337.7 690.157,1337.21 692.003,1336.72 693.848,1336.22 695.693,1335.73 697.539,1335.23 699.384,1334.73 701.229,1334.23 703.075,1333.72 704.92,1333.22 706.765,1332.71 708.611,1332.2 710.456,1331.68 712.302,1331.17 714.147,1330.65 715.992,1330.13 717.838,1329.61 719.683,1329.08 721.528,1328.56 723.374,1328.03 725.219,1327.49 727.064,1326.96 728.91,1326.42 730.755,1325.88 732.6,1325.34 734.446,1324.8 736.291,1324.25 738.136,1323.71 739.982,1323.16 741.827,1322.6 743.672,1322.05 745.518,1321.49 747.363,1320.93 749.208,1320.37 751.054,1319.8 752.899,1319.23 754.744,1318.66 756.59,1318.09 758.435,1317.52 760.28,1316.94 762.126,1316.36 763.971,1315.78 765.816,1315.19 767.662,1314.61 769.507,1314.02 771.352,1313.43 773.198,1312.83 775.043,1312.24 776.889,1311.64 778.734,1311.04 780.579,1310.43 782.425,1309.82 784.27,1309.22 786.115,1308.6 787.961,1307.99 789.806,1307.37 791.651,1306.75 793.497,1306.13 795.342,1305.51 797.187,1304.88 799.033,1304.25 800.878,1303.62 802.723,1302.98 804.569,1302.35 806.414,1301.71 808.259,1301.07 810.105,1300.42 811.95,1299.77 813.795,1299.12 815.641,1298.47 817.486,1297.81 819.331,1297.16 821.177,1296.5 823.022,1295.83 824.867,1295.17 826.713,1294.5 828.558,1293.83 830.403,1293.15 832.249,1292.48 834.094,1291.8 835.939,1291.12 837.785,1290.43 839.63,1289.75 841.475,1289.06 843.321,1288.37 845.166,1287.67 847.012,1286.97 848.857,1286.27 850.702,1285.57 852.548,1284.86 854.393,1284.16 856.238,1283.44 858.084,1282.73 859.929,1282.01 861.774,1281.29 863.62,1280.57 865.465,1279.85 867.31,1279.12 869.156,1278.39 871.001,1277.66 872.846,1276.92 874.692,1276.18 876.537,1275.44 878.382,1274.7 880.228,1273.95 882.073,1273.2 883.918,1272.45 885.764,1271.7 887.609,1270.94 889.454,1270.18 891.3,1269.41 893.145,1268.65 894.99,1267.88 896.836,1267.11 898.681,1266.33 900.526,1265.56 902.372,1264.78 904.217,1263.99 906.062,1263.21 907.908,1262.42 909.753,1261.63 911.599,1260.83 913.444,1260.04 915.289,1259.24 917.135,1258.44 918.98,1257.63 920.825,1256.82 922.671,1256.01 924.516,1255.2 926.361,1254.38 928.207,1253.56 930.052,1252.74 931.897,1251.91 933.743,1251.09 935.588,1250.25 937.433,1249.42 939.279,1248.58 941.124,1247.74 942.969,1246.9 944.815,1246.06 946.66,1245.21 948.505,1244.36 950.351,1243.5 952.196,1242.65 954.041,1241.79 955.887,1240.92 957.732,1240.06 959.577,1239.19 961.423,1238.32 963.268,1237.45 965.113,1236.57 966.959,1235.69 968.804,1234.81 970.649,1233.92 972.495,1233.03 974.34,1232.14 976.186,1231.25 978.031,1230.35 979.876,1229.45 981.722,1228.55 983.567,1227.64 985.412,1226.73 987.258,1225.82 989.103,1224.91 990.948,1223.99 992.794,1223.07 994.639,1222.15 996.484,1221.22 998.33,1220.29 1000.17,1219.36 1002.02,1218.42 1003.87,1217.49 1005.71,1216.54 1007.56,1215.6 1009.4,1214.65 1011.25,1213.71 1013.09,1212.75 1014.94,1211.8 1016.78,1210.84 1018.63,1209.88 1020.47,1208.91 1022.32,1207.95 1024.16,1206.98 1026.01,1206 1027.86,1205.03 1029.7,1204.05 1031.55,1203.07 1033.39,1202.08 1035.24,1201.1 1037.08,1200.11 1038.93,1199.11 1040.77,1198.12 1042.62,1197.12 1044.46,1196.12 1046.31,1195.11 1048.15,1194.1 1050,1193.09 1051.84,1192.08 1053.69,1191.06 1055.54,1190.04 1057.38,1189.02 1059.23,1188 1061.07,1186.97 1062.92,1185.94 1064.76,1184.9 1066.61,1183.87 1068.45,1182.83 1070.3,1181.78 1072.14,1180.74 1073.99,1179.69 1075.83,1178.64 1077.68,1177.58 1079.52,1176.53 1081.37,1175.47 1083.22,1174.4 1085.06,1173.34 1086.91,1172.27 1088.75,1171.2 1090.6,1170.12 1092.44,1169.05 1094.29,1167.97 1096.13,1166.88 1097.98,1165.8 1099.82,1164.71 1101.67,1163.62 1103.51,1162.52 1105.36,1161.43 1107.2,1160.33 1109.05,1159.22 1110.9,1158.12 1112.74,1157.01 1114.59,1155.9 1116.43,1154.78 1118.28,1153.66 1120.12,1152.54 1121.97,1151.42 1123.81,1150.29 1125.66,1149.17 1127.5,1148.03 1129.35,1146.9 1131.19,1145.76 1133.04,1144.62 1134.89,1143.48 1136.73,1142.33 1138.58,1141.19 1140.42,1140.03 1142.27,1138.88 1144.11,1137.72 1145.96,1136.56 1147.8,1135.4 1149.65,1134.23 1151.49,1133.07 1153.34,1131.9 1155.18,1130.72 1157.03,1129.55 1158.87,1128.37 1160.72,1127.18 1162.57,1126 1164.41,1124.81 1166.26,1123.62 1168.1,1122.43 1169.95,1121.23 1171.79,1120.03 1173.64,1118.83 1175.48,1117.63 1177.33,1116.42 1179.17,1115.21 1181.02,1114 1182.86,1112.78 1184.71,1111.56 1186.55,1110.34 1188.4,1109.12 1190.25,1107.89 1192.09,1106.67 1193.94,1105.43 1195.78,1104.2 1197.63,1102.96 1199.47,1101.72 1201.32,1100.48 1203.16,1099.24 1205.01,1097.99 1206.85,1096.74 1208.7,1095.49 1210.54,1094.23 1212.39,1092.97 1214.23,1091.71 1216.08,1090.45 1217.93,1089.18 1219.77,1087.91 1221.62,1086.64 1223.46,1085.37 1225.31,1084.09 1227.15,1082.81 1229,1081.53 1230.84,1080.24 1232.69,1078.96 1234.53,1077.67 1236.38,1076.37 1238.22,1075.08 1240.07,1073.78 1241.91,1072.48 1243.76,1071.18 1245.61,1069.87 1247.45,1068.56 1249.3,1067.25 1251.14,1065.94 1252.99,1064.63 1254.83,1063.31 1256.68,1061.99 1258.52,1060.66 1260.37,1059.34 1262.21,1058.01 1264.06,1056.68 1265.9,1055.35 1267.75,1054.01 1269.6,1052.67 1271.44,1051.33 1273.29,1049.99 1275.13,1048.64 1276.98,1047.29 1278.82,1045.94 1280.67,1044.59 1282.51,1043.23 1284.36,1041.88 1286.2,1040.52 1288.05,1039.15 1289.89,1037.79 1291.74,1036.42 1293.58,1035.05 1295.43,1033.68 1297.28,1032.3 1299.12,1030.92 1300.97,1029.54 1302.81,1028.16 1304.66,1026.78 1306.5,1025.39 1308.35,1024 1310.19,1022.61 1312.04,1021.21 1313.88,1019.82 1315.73,1018.42 1317.57,1017.02 1319.42,1015.61 1321.26,1014.21 1323.11,1012.8 1324.96,1011.39 1326.8,1009.98 1328.65,1008.56 1330.49,1007.14 1332.34,1005.72 1334.18,1004.3 1336.03,1002.88 1337.87,1001.45 1339.72,1000.02 1341.56,998.591 1343.41,997.158 1345.25,995.722 1347.1,994.284 1348.94,992.844 1350.79,991.402 1352.64,989.957 1354.48,988.51 1356.33,987.061 1358.17,985.61 1360.02,984.157 1361.86,982.701 1363.71,981.243 1365.55,979.783 1367.4,978.321 1369.24,976.857 1371.09,975.39 1372.93,973.922 1374.78,972.451 1376.62,970.978 1378.47,969.503 1380.32,968.026 1382.16,966.547 1384.01,965.065 1385.85,963.582 1387.7,962.096 1389.54,960.609 1391.39,959.119 1393.23,957.627 1395.08,956.133 1396.92,954.637 1398.77,953.139 1400.61,951.639 1402.46,950.137 1404.31,948.633 1406.15,947.127 1408,945.618 1409.84,944.108 1411.69,942.596 1413.53,941.082 1415.38,939.565 1417.22,938.047 1419.07,936.527 1420.91,935.005 1422.76,933.481 1424.6,931.955 1426.45,930.426 1428.29,928.896 1430.14,927.364 1431.99,925.83 1433.83,924.295 1435.68,922.757 1437.52,921.217 1439.37,919.676 1441.21,918.132 1443.06,916.587 1444.9,915.039 1446.75,913.49 1448.59,911.939 1450.44,910.386 1452.28,908.831 1454.13,907.275 1455.97,905.716 1457.82,904.156 1459.67,902.594 1461.51,901.03 1463.36,899.464 1465.2,897.896 1467.05,896.327 1468.89,894.756 1470.74,893.183 1472.58,891.608 1474.43,890.031 1476.27,888.453 1478.12,886.873 1479.96,885.291 1481.81,883.707 1483.65,882.122 1485.5,880.535 1487.35,878.946 1489.19,877.355 1491.04,875.763 1492.88,874.169 1494.73,872.573 1496.57,870.975 1498.42,869.376 1500.26,867.775 1502.11,866.173 1503.95,864.568 1505.8,862.963 1507.64,861.355 1509.49,859.746 1511.33,858.135 1513.18,856.522 1515.03,854.908 1516.87,853.292 1518.72,851.675 1520.56,850.056 1522.41,848.435 1524.25,846.813 1526.1,845.189 1527.94,843.564 1529.79,841.937 1531.63,840.308 1533.48,838.678 1535.32,837.046 1537.17,835.413 1539.02,833.778 1540.86,832.142 1542.71,830.504 1544.55,828.864 1546.4,827.223 1548.24,825.581 1550.09,823.937 1551.93,822.291 1553.78,820.644 1555.62,818.996 1557.47,817.346 1559.31,815.694 1561.16,814.041 1563,812.387 1564.85,810.731 1566.7,809.073 1568.54,807.415 1570.39,805.754 1572.23,804.092 1574.08,802.429 1575.92,800.765 1577.77,799.099 1579.61,797.431 1581.46,795.762 1583.3,794.092 1585.15,792.421 1586.99,790.747 1588.84,789.073 1590.68,787.397 1592.53,785.72 1594.38,784.042 1596.22,782.362 1598.07,780.68 1599.91,778.998 1601.76,777.314 1603.6,775.628 1605.45,773.942 1607.29,772.254 1609.14,770.565 1610.98,768.874 1612.83,767.182 1614.67,765.489 1616.52,763.794 1618.36,762.099 1620.21,760.402 1622.06,758.703 1623.9,757.004 1625.75,755.303 1627.59,753.6 1629.44,751.897 1631.28,750.192 1633.13,748.486 1634.97,746.779 1636.82,745.071 1638.66,743.361 1640.51,741.65 1642.35,739.938 1644.2,738.225 1646.04,736.511 1647.89,734.795 1649.74,733.078 1651.58,731.36 1653.43,729.641 1655.27,727.92 1657.12,726.199 1658.96,724.476 1660.81,722.752 1662.65,721.027 1664.5,719.301 1666.34,717.573 1668.19,715.845 1670.03,714.115 1671.88,712.384 1673.73,710.652 1675.57,708.919 1677.42,707.185 1679.26,705.45 1681.11,703.714 1682.95,701.976 1684.8,700.238 1686.64,698.498 1688.49,696.757 1690.33,695.015 1692.18,693.273 1694.02,691.529 1695.87,689.784 1697.71,688.038 1699.56,686.29 1701.41,684.542 1703.25,682.793 1705.1,681.043 1706.94,679.292 1708.79,677.539 1710.63,675.786 1712.48,674.032 1714.32,672.276 1716.17,670.52 1718.01,668.762 1719.86,667.004 1721.7,665.245 1723.55,663.484 1725.39,661.723 1727.24,659.961 1729.09,658.197 1730.93,656.433 1732.78,654.668 1734.62,652.902 1736.47,651.135 1738.31,649.367 1740.16,647.598 1742,645.828 1743.85,644.057 1745.69,642.285 1747.54,640.512 1749.38,638.738 1751.23,636.964 1753.07,635.188 1754.92,633.412 1756.77,631.634 1758.61,629.856 1760.46,628.077 1762.3,626.297 1764.15,624.516 1765.99,622.734 1767.84,620.952 1769.68,619.168 1771.53,617.384 1773.37,615.599 1775.22,613.812 1777.06,612.025 1778.91,610.238 1780.75,608.449 1782.6,606.659 1784.45,604.869 1786.29,603.078 1788.14,601.286 1789.98,599.493 1791.83,597.699 1793.67,595.905 1795.52,594.109 1797.36,592.313 1799.21,590.516 1801.05,588.719 1802.9,586.92 1804.74,585.121 1806.59,583.321 1808.44,581.52 1810.28,579.718 1812.13,577.916 1813.97,576.112 1815.82,574.309 1817.66,572.504 1819.51,570.698 1821.35,568.892 1823.2,567.085 1825.04,565.277 1826.89,563.469 1828.73,561.659 1830.58,559.849 1832.42,558.039 1834.27,556.227 1836.12,554.415 1837.96,552.602 1839.81,550.788 1841.65,548.974 1843.5,547.159 1845.34,545.343 1847.19,543.527 1849.03,541.71 1850.88,539.892 1852.72,538.073 1854.57,536.254 1856.41,534.434 1858.26,532.613 1860.1,530.792 1861.95,528.97 1863.8,527.148 1865.64,525.324 1867.49,523.5 1869.33,521.676 1871.18,519.85 1873.02,518.024 1874.87,516.198 1876.71,514.371 1878.56,512.543 1880.4,510.714 1882.25,508.885 1884.09,507.055 1885.94,505.225 1887.78,503.394 1889.63,501.562 1891.48,499.73 1893.32,497.897 1895.17,496.063 1897.01,494.229 1898.86,492.395 1900.7,490.559 1902.55,488.723 1904.39,486.887 1906.24,485.05 1908.08,483.212 1909.93,481.374 1911.77,479.535 1913.62,477.695 1915.47,475.855 1917.31,474.014 1919.16,472.173 1921,470.331 1922.85,468.489 1924.69,466.646 1926.54,464.803 1928.38,462.959 1930.23,461.114 1932.07,459.269 1933.92,457.423 1935.76,455.577 1937.61,453.73 1939.45,451.883 1941.3,450.035 1943.15,448.187 1944.99,446.338 1946.84,444.489 1948.68,442.639 1950.53,440.788 1952.37,438.937 1954.22,437.086 1956.06,435.234 1957.91,433.381 1959.75,431.528 1961.6,429.674 1963.44,427.82 1965.29,425.966 1967.13,424.111 1968.98,422.255 1970.83,420.399 1972.67,418.543 1974.52,416.686 1976.36,414.828 1978.21,412.97 1980.05,411.112 1981.9,409.253 1983.74,407.393 1985.59,405.534 1987.43,403.673 1989.28,401.812 1991.12,399.951 1992.97,398.089 1994.81,396.227 1996.66,394.365 1998.51,392.502 2000.35,390.638 2002.2,388.774 2004.04,386.91 2005.89,385.045 2007.73,383.179 2009.58,381.314 2011.42,379.447 2013.27,377.581 2015.11,375.714 2016.96,373.846 2018.8,371.978 2020.65,370.11 2022.49,368.241 2024.34,366.372 2026.19,364.503 2028.03,362.633 2029.88,360.762 2031.72,358.891 2033.57,357.02 2035.41,355.149 2037.26,353.276 2039.1,351.404 2040.95,349.531 2042.79,347.658 2044.64,345.784 2046.48,343.91 2048.33,342.036 2050.18,340.161 2052.02,338.286 2053.87,336.41 2055.71,334.534 2057.56,332.658 2059.4,330.781 2061.25,328.904 2063.09,327.027 2064.94,325.149 2066.78,323.271 2068.63,321.392 2070.47,319.513 2072.32,317.634 2074.16,315.755 2076.01,313.875 2077.86,311.994 2079.7,310.114 2081.55,308.232 2083.39,306.351 2085.24,304.469 2087.08,302.587 2088.93,300.705 2090.77,298.822 2092.62,296.939 2094.46,295.055 2096.31,293.172 2098.15,291.287 2100,289.403 2101.84,287.518 2103.69,285.633 2105.54,283.748 2107.38,281.862 2109.23,279.976 2111.07,278.089 2112.92,276.203 2114.76,274.315 2116.61,272.428 2118.45,270.54 2120.3,268.652 2122.14,266.764 2123.99,264.875 2125.83,262.986 2127.68,261.097 2129.52,259.208 2131.37,257.318 2133.22,255.428 2135.06,253.537 2136.91,251.647 2138.75,249.755 2140.6,247.864 2142.44,245.973 2144.29,244.081 2146.13,242.188 2147.98,240.296 2149.82,238.403 2151.67,236.51 2153.51,234.617 2155.36,232.723 2157.2,230.829 2159.05,228.935 2160.9,227.041 2162.74,225.146 2164.59,223.251 2166.43,221.356 2168.28,219.46 2170.12,217.564 2171.97,215.668 2173.81,213.772 2175.66,211.875 2177.5,209.978 2179.35,208.081 2181.19,206.184 2183.04,204.286 2184.89,202.388 2186.73,200.49 2188.58,198.592 2190.42,196.693 2192.27,194.794 2194.11,192.895 2195.96,190.996 2197.8,189.096 2199.65,187.196 2201.49,185.296 2203.34,183.395 2205.18,181.495 2207.03,179.594 2208.87,177.693 2210.72,175.792 2212.57,173.89 2214.41,171.988 2216.26,170.086 2218.1,168.184 2219.95,166.281 2221.79,164.379 2223.64,162.476 2225.48,160.572 2227.33,158.669 2229.17,156.765 2231.02,154.862 2232.86,152.958 2234.71,151.053 2236.55,149.149 2238.4,147.244 2240.25,145.339 2242.09,143.434 2243.94,141.529 2245.78,139.623 2247.63,137.717 2249.47,135.811 2251.32,133.905 2253.16,131.999 2255.01,130.092 2256.85,128.185 2258.7,126.278 2260.54,124.371 2262.39,122.463 2264.23,120.556 2266.08,118.648 2267.93,116.74 2269.77,114.832 2271.62,112.923 2273.46,111.015 2275.31,109.106 2277.15,107.197 2279,105.288 2280.84,103.378 2282.69,101.469 2284.53,99.5591 2286.38,97.6491 2288.22,95.739 2290.07,93.8287 2291.91,91.9182 2293.76,90.0076 2295.61,88.0967 2297.45,86.1857 "/>
<path clip-path="url(#clip500)" d="M463.785 248.629 L1261.16 248.629 L1261.16 93.1086 L463.785 93.1086  Z" fill="#ffffff" fill-rule="evenodd" fill-opacity="1"/>
<polyline clip-path="url(#clip500)" style="stroke:#000000; stroke-linecap:round; stroke-linejoin:round; stroke-width:4; stroke-opacity:1; fill:none" points="463.785,248.629 1261.16,248.629 1261.16,93.1086 463.785,93.1086 463.785,248.629 "/>
<polyline clip-path="url(#clip500)" style="stroke:#009af9; stroke-linecap:round; stroke-linejoin:round; stroke-width:8; stroke-opacity:1; fill:none" points="485.498,144.949 615.772,144.949 "/>
<path clip-path="url(#clip500)" d="M637.484 127.669 L642.16 127.669 L642.16 142.275 L657.669 127.669 L663.687 127.669 L646.535 143.78 L664.914 162.229 L658.757 162.229 L642.16 145.585 L642.16 162.229 L637.484 162.229 L637.484 127.669 Z" fill="#000000" fill-rule="nonzero" fill-opacity="1" /><path clip-path="url(#clip500)" d="M669.799 158.293 L677.437 158.293 L677.437 131.928 L669.127 133.595 L669.127 129.335 L677.391 127.669 L682.067 127.669 L682.067 158.293 L689.706 158.293 L689.706 162.229 L669.799 162.229 L669.799 158.293 Z" fill="#000000" fill-rule="nonzero" fill-opacity="1" /><path clip-path="url(#clip500)" d="M699.289 161.511 L699.289 157.252 Q701.048 158.085 702.854 158.525 Q704.659 158.965 706.396 158.965 Q711.025 158.965 713.456 155.863 Q715.909 152.738 716.257 146.395 Q714.914 148.386 712.854 149.451 Q710.794 150.516 708.294 150.516 Q703.109 150.516 700.076 147.391 Q697.067 144.243 697.067 138.803 Q697.067 133.479 700.215 130.261 Q703.363 127.044 708.595 127.044 Q714.59 127.044 717.738 131.65 Q720.909 136.233 720.909 144.983 Q720.909 153.155 717.021 158.039 Q713.155 162.9 706.604 162.9 Q704.845 162.9 703.039 162.553 Q701.234 162.205 699.289 161.511 M708.595 146.858 Q711.743 146.858 713.571 144.706 Q715.423 142.553 715.423 138.803 Q715.423 135.076 713.571 132.923 Q711.743 130.747 708.595 130.747 Q705.447 130.747 703.595 132.923 Q701.766 135.076 701.766 138.803 Q701.766 142.553 703.595 144.706 Q705.447 146.858 708.595 146.858 Z" fill="#000000" fill-rule="nonzero" fill-opacity="1" /><path clip-path="url(#clip500)" d="M739.891 143.085 Q736.743 143.085 734.891 145.238 Q733.062 147.391 733.062 151.141 Q733.062 154.868 734.891 157.043 Q736.743 159.196 739.891 159.196 Q743.039 159.196 744.868 157.043 Q746.719 154.868 746.719 151.141 Q746.719 147.391 744.868 145.238 Q743.039 143.085 739.891 143.085 M749.173 128.433 L749.173 132.692 Q747.414 131.858 745.608 131.419 Q743.826 130.979 742.067 130.979 Q737.437 130.979 734.983 134.104 Q732.553 137.229 732.206 143.548 Q733.571 141.534 735.632 140.469 Q737.692 139.382 740.169 139.382 Q745.377 139.382 748.386 142.553 Q751.418 145.701 751.418 151.141 Q751.418 156.465 748.27 159.682 Q745.122 162.9 739.891 162.9 Q733.895 162.9 730.724 158.317 Q727.553 153.71 727.553 144.983 Q727.553 136.789 731.442 131.928 Q735.331 127.044 741.882 127.044 Q743.641 127.044 745.423 127.391 Q747.229 127.738 749.173 128.433 Z" fill="#000000" fill-rule="nonzero" fill-opacity="1" /><path clip-path="url(#clip500)" d="M759.613 161.511 L759.613 157.252 Q761.372 158.085 763.178 158.525 Q764.983 158.965 766.719 158.965 Q771.349 158.965 773.779 155.863 Q776.233 152.738 776.58 146.395 Q775.238 148.386 773.178 149.451 Q771.117 150.516 768.617 150.516 Q763.432 150.516 760.4 147.391 Q757.391 144.243 757.391 138.803 Q757.391 133.479 760.539 130.261 Q763.687 127.044 768.918 127.044 Q774.914 127.044 778.062 131.65 Q781.233 136.233 781.233 144.983 Q781.233 153.155 777.344 158.039 Q773.479 162.9 766.928 162.9 Q765.168 162.9 763.363 162.553 Q761.557 162.205 759.613 161.511 M768.918 146.858 Q772.067 146.858 773.895 144.706 Q775.747 142.553 775.747 138.803 Q775.747 135.076 773.895 132.923 Q772.067 130.747 768.918 130.747 Q765.77 130.747 763.918 132.923 Q762.09 135.076 762.09 138.803 Q762.09 142.553 763.918 144.706 Q765.77 146.858 768.918 146.858 Z" fill="#000000" fill-rule="nonzero" fill-opacity="1" /><path clip-path="url(#clip500)" d="M801.627 136.303 L805.886 136.303 L811.21 156.534 L816.511 136.303 L821.534 136.303 L826.858 156.534 L832.159 136.303 L836.418 136.303 L829.636 162.229 L824.613 162.229 L819.034 140.979 L813.432 162.229 L808.409 162.229 L801.627 136.303 Z" fill="#000000" fill-rule="nonzero" fill-opacity="1" /><path clip-path="url(#clip500)" d="M842.876 136.303 L847.136 136.303 L847.136 162.229 L842.876 162.229 L842.876 136.303 M842.876 126.21 L847.136 126.21 L847.136 131.604 L842.876 131.604 L842.876 126.21 Z" fill="#000000" fill-rule="nonzero" fill-opacity="1" /><path clip-path="url(#clip500)" d="M860.261 128.942 L860.261 136.303 L869.034 136.303 L869.034 139.613 L860.261 139.613 L860.261 153.687 Q860.261 156.858 861.117 157.761 Q861.997 158.664 864.659 158.664 L869.034 158.664 L869.034 162.229 L864.659 162.229 Q859.728 162.229 857.853 160.4 Q855.978 158.548 855.978 153.687 L855.978 139.613 L852.853 139.613 L852.853 136.303 L855.978 136.303 L855.978 128.942 L860.261 128.942 Z" fill="#000000" fill-rule="nonzero" fill-opacity="1" /><path clip-path="url(#clip500)" d="M896.186 146.581 L896.186 162.229 L891.927 162.229 L891.927 146.719 Q891.927 143.039 890.492 141.21 Q889.057 139.382 886.186 139.382 Q882.737 139.382 880.747 141.581 Q878.756 143.78 878.756 147.576 L878.756 162.229 L874.473 162.229 L874.473 126.21 L878.756 126.21 L878.756 140.331 Q880.284 137.993 882.344 136.835 Q884.427 135.678 887.135 135.678 Q891.603 135.678 893.895 138.456 Q896.186 141.21 896.186 146.581 Z" fill="#000000" fill-rule="nonzero" fill-opacity="1" /><path clip-path="url(#clip500)" d="M914.728 139.289 Q911.302 139.289 909.311 141.974 Q907.32 144.636 907.32 149.289 Q907.32 153.942 909.288 156.627 Q911.279 159.289 914.728 159.289 Q918.131 159.289 920.121 156.604 Q922.112 153.918 922.112 149.289 Q922.112 144.682 920.121 141.997 Q918.131 139.289 914.728 139.289 M914.728 135.678 Q920.283 135.678 923.455 139.289 Q926.626 142.9 926.626 149.289 Q926.626 155.655 923.455 159.289 Q920.283 162.9 914.728 162.9 Q909.149 162.9 905.978 159.289 Q902.83 155.655 902.83 149.289 Q902.83 142.9 905.978 139.289 Q909.149 135.678 914.728 135.678 Z" fill="#000000" fill-rule="nonzero" fill-opacity="1" /><path clip-path="url(#clip500)" d="M933.246 151.997 L933.246 136.303 L937.505 136.303 L937.505 151.835 Q937.505 155.516 938.941 157.368 Q940.376 159.196 943.246 159.196 Q946.695 159.196 948.686 156.997 Q950.7 154.798 950.7 151.002 L950.7 136.303 L954.959 136.303 L954.959 162.229 L950.7 162.229 L950.7 158.247 Q949.149 160.608 947.089 161.766 Q945.052 162.9 942.343 162.9 Q937.876 162.9 935.561 160.122 Q933.246 157.344 933.246 151.997 M943.964 135.678 L943.964 135.678 Z" fill="#000000" fill-rule="nonzero" fill-opacity="1" /><path clip-path="url(#clip500)" d="M967.945 128.942 L967.945 136.303 L976.718 136.303 L976.718 139.613 L967.945 139.613 L967.945 153.687 Q967.945 156.858 968.802 157.761 Q969.681 158.664 972.343 158.664 L976.718 158.664 L976.718 162.229 L972.343 162.229 Q967.413 162.229 965.538 160.4 Q963.663 158.548 963.663 153.687 L963.663 139.613 L960.538 139.613 L960.538 136.303 L963.663 136.303 L963.663 128.942 L967.945 128.942 Z" fill="#000000" fill-rule="nonzero" fill-opacity="1" /><path clip-path="url(#clip500)" d="M1013.92 137.067 L1013.92 141.094 Q1012.11 140.169 1010.17 139.706 Q1008.22 139.243 1006.14 139.243 Q1002.97 139.243 1001.37 140.215 Q999.797 141.187 999.797 143.131 Q999.797 144.613 1000.93 145.469 Q1002.07 146.303 1005.49 147.067 L1006.95 147.391 Q1011.49 148.363 1013.38 150.145 Q1015.31 151.905 1015.31 155.076 Q1015.31 158.687 1012.44 160.793 Q1009.59 162.9 1004.59 162.9 Q1002.51 162.9 1000.24 162.483 Q997.991 162.09 995.491 161.28 L995.491 156.881 Q997.852 158.108 1000.14 158.733 Q1002.44 159.335 1004.68 159.335 Q1007.69 159.335 1009.31 158.317 Q1010.93 157.275 1010.93 155.4 Q1010.93 153.664 1009.75 152.738 Q1008.59 151.812 1004.63 150.956 L1003.15 150.608 Q999.195 149.775 997.436 148.062 Q995.676 146.326 995.676 143.317 Q995.676 139.659 998.269 137.669 Q1000.86 135.678 1005.63 135.678 Q1007.99 135.678 1010.07 136.025 Q1012.16 136.372 1013.92 137.067 Z" fill="#000000" fill-rule="nonzero" fill-opacity="1" /><path clip-path="url(#clip500)" d="M1042.27 141.28 Q1043.87 138.409 1046.09 137.044 Q1048.32 135.678 1051.32 135.678 Q1055.38 135.678 1057.57 138.525 Q1059.77 141.349 1059.77 146.581 L1059.77 162.229 L1055.49 162.229 L1055.49 146.719 Q1055.49 142.993 1054.17 141.187 Q1052.85 139.382 1050.14 139.382 Q1046.83 139.382 1044.91 141.581 Q1042.99 143.78 1042.99 147.576 L1042.99 162.229 L1038.71 162.229 L1038.71 146.719 Q1038.71 142.969 1037.39 141.187 Q1036.07 139.382 1033.32 139.382 Q1030.05 139.382 1028.13 141.604 Q1026.21 143.803 1026.21 147.576 L1026.21 162.229 L1021.93 162.229 L1021.93 136.303 L1026.21 136.303 L1026.21 140.331 Q1027.67 137.946 1029.7 136.812 Q1031.74 135.678 1034.54 135.678 Q1037.37 135.678 1039.33 137.113 Q1041.32 138.548 1042.27 141.28 Z" fill="#000000" fill-rule="nonzero" fill-opacity="1" /><path clip-path="url(#clip500)" d="M1078.31 139.289 Q1074.89 139.289 1072.9 141.974 Q1070.91 144.636 1070.91 149.289 Q1070.91 153.942 1072.88 156.627 Q1074.87 159.289 1078.31 159.289 Q1081.72 159.289 1083.71 156.604 Q1085.7 153.918 1085.7 149.289 Q1085.7 144.682 1083.71 141.997 Q1081.72 139.289 1078.31 139.289 M1078.31 135.678 Q1083.87 135.678 1087.04 139.289 Q1090.21 142.9 1090.21 149.289 Q1090.21 155.655 1087.04 159.289 Q1083.87 162.9 1078.31 162.9 Q1072.74 162.9 1069.56 159.289 Q1066.42 155.655 1066.42 149.289 Q1066.42 142.9 1069.56 139.289 Q1072.74 135.678 1078.31 135.678 Z" fill="#000000" fill-rule="nonzero" fill-opacity="1" /><path clip-path="url(#clip500)" d="M1107.32 139.289 Q1103.89 139.289 1101.9 141.974 Q1099.91 144.636 1099.91 149.289 Q1099.91 153.942 1101.88 156.627 Q1103.87 159.289 1107.32 159.289 Q1110.72 159.289 1112.71 156.604 Q1114.7 153.918 1114.7 149.289 Q1114.7 144.682 1112.71 141.997 Q1110.72 139.289 1107.32 139.289 M1107.32 135.678 Q1112.87 135.678 1116.05 139.289 Q1119.22 142.9 1119.22 149.289 Q1119.22 155.655 1116.05 159.289 Q1112.87 162.9 1107.32 162.9 Q1101.74 162.9 1098.57 159.289 Q1095.42 155.655 1095.42 149.289 Q1095.42 142.9 1098.57 139.289 Q1101.74 135.678 1107.32 135.678 Z" fill="#000000" fill-rule="nonzero" fill-opacity="1" /><path clip-path="url(#clip500)" d="M1130.49 128.942 L1130.49 136.303 L1139.26 136.303 L1139.26 139.613 L1130.49 139.613 L1130.49 153.687 Q1130.49 156.858 1131.35 157.761 Q1132.23 158.664 1134.89 158.664 L1139.26 158.664 L1139.26 162.229 L1134.89 162.229 Q1129.96 162.229 1128.08 160.4 Q1126.21 158.548 1126.21 153.687 L1126.21 139.613 L1123.08 139.613 L1123.08 136.303 L1126.21 136.303 L1126.21 128.942 L1130.49 128.942 Z" fill="#000000" fill-rule="nonzero" fill-opacity="1" /><path clip-path="url(#clip500)" d="M1166.42 146.581 L1166.42 162.229 L1162.16 162.229 L1162.16 146.719 Q1162.16 143.039 1160.72 141.21 Q1159.29 139.382 1156.42 139.382 Q1152.97 139.382 1150.98 141.581 Q1148.99 143.78 1148.99 147.576 L1148.99 162.229 L1144.7 162.229 L1144.7 126.21 L1148.99 126.21 L1148.99 140.331 Q1150.51 137.993 1152.57 136.835 Q1154.66 135.678 1157.37 135.678 Q1161.83 135.678 1164.12 138.456 Q1166.42 141.21 1166.42 146.581 Z" fill="#000000" fill-rule="nonzero" fill-opacity="1" /><path clip-path="url(#clip500)" d="M1174.91 136.303 L1179.17 136.303 L1179.17 162.229 L1174.91 162.229 L1174.91 136.303 M1174.91 126.21 L1179.17 126.21 L1179.17 131.604 L1174.91 131.604 L1174.91 126.21 Z" fill="#000000" fill-rule="nonzero" fill-opacity="1" /><path clip-path="url(#clip500)" d="M1209.63 146.581 L1209.63 162.229 L1205.37 162.229 L1205.37 146.719 Q1205.37 143.039 1203.94 141.21 Q1202.5 139.382 1199.63 139.382 Q1196.18 139.382 1194.19 141.581 Q1192.2 143.78 1192.2 147.576 L1192.2 162.229 L1187.92 162.229 L1187.92 136.303 L1192.2 136.303 L1192.2 140.331 Q1193.73 137.993 1195.79 136.835 Q1197.87 135.678 1200.58 135.678 Q1205.05 135.678 1207.34 138.456 Q1209.63 141.21 1209.63 146.581 Z" fill="#000000" fill-rule="nonzero" fill-opacity="1" /><path clip-path="url(#clip500)" d="M1235.19 148.965 Q1235.19 144.335 1233.27 141.789 Q1231.37 139.243 1227.92 139.243 Q1224.49 139.243 1222.57 141.789 Q1220.68 144.335 1220.68 148.965 Q1220.68 153.571 1222.57 156.118 Q1224.49 158.664 1227.92 158.664 Q1231.37 158.664 1233.27 156.118 Q1235.19 153.571 1235.19 148.965 M1239.45 159.011 Q1239.45 165.631 1236.51 168.849 Q1233.57 172.09 1227.5 172.09 Q1225.26 172.09 1223.27 171.742 Q1221.28 171.418 1219.4 170.724 L1219.4 166.58 Q1221.28 167.599 1223.11 168.085 Q1224.93 168.571 1226.83 168.571 Q1231.02 168.571 1233.11 166.372 Q1235.19 164.196 1235.19 159.775 L1235.19 157.668 Q1233.87 159.96 1231.81 161.094 Q1229.75 162.229 1226.88 162.229 Q1222.11 162.229 1219.19 158.594 Q1216.28 154.96 1216.28 148.965 Q1216.28 142.946 1219.19 139.312 Q1222.11 135.678 1226.88 135.678 Q1229.75 135.678 1231.81 136.812 Q1233.87 137.946 1235.19 140.238 L1235.19 136.303 L1239.45 136.303 L1239.45 159.011 Z" fill="#000000" fill-rule="nonzero" fill-opacity="1" /><polyline clip-path="url(#clip500)" style="stroke:#e26f46; stroke-linecap:round; stroke-linejoin:round; stroke-width:8; stroke-opacity:1; fill:none" points="485.498,196.789 615.772,196.789 "/>
<path clip-path="url(#clip500)" d="M637.484 179.509 L642.16 179.509 L642.16 194.115 L657.669 179.509 L663.687 179.509 L646.535 195.62 L664.914 214.069 L658.757 214.069 L642.16 197.425 L642.16 214.069 L637.484 214.069 L637.484 179.509 Z" fill="#000000" fill-rule="nonzero" fill-opacity="1" /><path clip-path="url(#clip500)" d="M669.799 210.133 L677.437 210.133 L677.437 183.768 L669.127 185.435 L669.127 181.175 L677.391 179.509 L682.067 179.509 L682.067 210.133 L689.706 210.133 L689.706 214.069 L669.799 214.069 L669.799 210.133 Z" fill="#000000" fill-rule="nonzero" fill-opacity="1" /><path clip-path="url(#clip500)" d="M699.289 213.351 L699.289 209.092 Q701.048 209.925 702.854 210.365 Q704.659 210.805 706.396 210.805 Q711.025 210.805 713.456 207.703 Q715.909 204.578 716.257 198.235 Q714.914 200.226 712.854 201.291 Q710.794 202.356 708.294 202.356 Q703.109 202.356 700.076 199.231 Q697.067 196.083 697.067 190.643 Q697.067 185.319 700.215 182.101 Q703.363 178.884 708.595 178.884 Q714.59 178.884 717.738 183.49 Q720.909 188.073 720.909 196.823 Q720.909 204.995 717.021 209.879 Q713.155 214.74 706.604 214.74 Q704.845 214.74 703.039 214.393 Q701.234 214.045 699.289 213.351 M708.595 198.698 Q711.743 198.698 713.571 196.546 Q715.423 194.393 715.423 190.643 Q715.423 186.916 713.571 184.763 Q711.743 182.587 708.595 182.587 Q705.447 182.587 703.595 184.763 Q701.766 186.916 701.766 190.643 Q701.766 194.393 703.595 196.546 Q705.447 198.698 708.595 198.698 Z" fill="#000000" fill-rule="nonzero" fill-opacity="1" /><path clip-path="url(#clip500)" d="M739.891 194.925 Q736.743 194.925 734.891 197.078 Q733.062 199.231 733.062 202.981 Q733.062 206.708 734.891 208.883 Q736.743 211.036 739.891 211.036 Q743.039 211.036 744.868 208.883 Q746.719 206.708 746.719 202.981 Q746.719 199.231 744.868 197.078 Q743.039 194.925 739.891 194.925 M749.173 180.273 L749.173 184.532 Q747.414 183.698 745.608 183.259 Q743.826 182.819 742.067 182.819 Q737.437 182.819 734.983 185.944 Q732.553 189.069 732.206 195.388 Q733.571 193.374 735.632 192.309 Q737.692 191.222 740.169 191.222 Q745.377 191.222 748.386 194.393 Q751.418 197.541 751.418 202.981 Q751.418 208.305 748.27 211.522 Q745.122 214.74 739.891 214.74 Q733.895 214.74 730.724 210.157 Q727.553 205.55 727.553 196.823 Q727.553 188.629 731.442 183.768 Q735.331 178.884 741.882 178.884 Q743.641 178.884 745.423 179.231 Q747.229 179.578 749.173 180.273 Z" fill="#000000" fill-rule="nonzero" fill-opacity="1" /><path clip-path="url(#clip500)" d="M759.613 213.351 L759.613 209.092 Q761.372 209.925 763.178 210.365 Q764.983 210.805 766.719 210.805 Q771.349 210.805 773.779 207.703 Q776.233 204.578 776.58 198.235 Q775.238 200.226 773.178 201.291 Q771.117 202.356 768.617 202.356 Q763.432 202.356 760.4 199.231 Q757.391 196.083 757.391 190.643 Q757.391 185.319 760.539 182.101 Q763.687 178.884 768.918 178.884 Q774.914 178.884 778.062 183.49 Q781.233 188.073 781.233 196.823 Q781.233 204.995 777.344 209.879 Q773.479 214.74 766.928 214.74 Q765.168 214.74 763.363 214.393 Q761.557 214.045 759.613 213.351 M768.918 198.698 Q772.067 198.698 773.895 196.546 Q775.747 194.393 775.747 190.643 Q775.747 186.916 773.895 184.763 Q772.067 182.587 768.918 182.587 Q765.77 182.587 763.918 184.763 Q762.09 186.916 762.09 190.643 Q762.09 194.393 763.918 196.546 Q765.77 198.698 768.918 198.698 Z" fill="#000000" fill-rule="nonzero" fill-opacity="1" /><path clip-path="url(#clip500)" d="M801.627 188.143 L805.886 188.143 L811.21 208.374 L816.511 188.143 L821.534 188.143 L826.858 208.374 L832.159 188.143 L836.418 188.143 L829.636 214.069 L824.613 214.069 L819.034 192.819 L813.432 214.069 L808.409 214.069 L801.627 188.143 Z" fill="#000000" fill-rule="nonzero" fill-opacity="1" /><path clip-path="url(#clip500)" d="M842.876 188.143 L847.136 188.143 L847.136 214.069 L842.876 214.069 L842.876 188.143 M842.876 178.05 L847.136 178.05 L847.136 183.444 L842.876 183.444 L842.876 178.05 Z" fill="#000000" fill-rule="nonzero" fill-opacity="1" /><path clip-path="url(#clip500)" d="M860.261 180.782 L860.261 188.143 L869.034 188.143 L869.034 191.453 L860.261 191.453 L860.261 205.527 Q860.261 208.698 861.117 209.601 Q861.997 210.504 864.659 210.504 L869.034 210.504 L869.034 214.069 L864.659 214.069 Q859.728 214.069 857.853 212.24 Q855.978 210.388 855.978 205.527 L855.978 191.453 L852.853 191.453 L852.853 188.143 L855.978 188.143 L855.978 180.782 L860.261 180.782 Z" fill="#000000" fill-rule="nonzero" fill-opacity="1" /><path clip-path="url(#clip500)" d="M896.186 198.421 L896.186 214.069 L891.927 214.069 L891.927 198.559 Q891.927 194.879 890.492 193.05 Q889.057 191.222 886.186 191.222 Q882.737 191.222 880.747 193.421 Q878.756 195.62 878.756 199.416 L878.756 214.069 L874.473 214.069 L874.473 178.05 L878.756 178.05 L878.756 192.171 Q880.284 189.833 882.344 188.675 Q884.427 187.518 887.135 187.518 Q891.603 187.518 893.895 190.296 Q896.186 193.05 896.186 198.421 Z" fill="#000000" fill-rule="nonzero" fill-opacity="1" /><path clip-path="url(#clip500)" d="M936.279 188.907 L936.279 192.934 Q934.473 192.009 932.529 191.546 Q930.584 191.083 928.501 191.083 Q925.33 191.083 923.732 192.055 Q922.158 193.027 922.158 194.971 Q922.158 196.453 923.293 197.309 Q924.427 198.143 927.853 198.907 L929.311 199.231 Q933.848 200.203 935.746 201.985 Q937.667 203.745 937.667 206.916 Q937.667 210.527 934.797 212.633 Q931.95 214.74 926.95 214.74 Q924.867 214.74 922.598 214.323 Q920.353 213.93 917.853 213.12 L917.853 208.721 Q920.214 209.948 922.506 210.573 Q924.797 211.175 927.043 211.175 Q930.052 211.175 931.672 210.157 Q933.293 209.115 933.293 207.24 Q933.293 205.504 932.112 204.578 Q930.955 203.652 926.996 202.796 L925.515 202.448 Q921.556 201.615 919.797 199.902 Q918.038 198.166 918.038 195.157 Q918.038 191.499 920.631 189.509 Q923.223 187.518 927.992 187.518 Q930.353 187.518 932.436 187.865 Q934.519 188.212 936.279 188.907 Z" fill="#000000" fill-rule="nonzero" fill-opacity="1" /><path clip-path="url(#clip500)" d="M964.635 193.12 Q966.232 190.249 968.454 188.884 Q970.677 187.518 973.686 187.518 Q977.737 187.518 979.936 190.365 Q982.135 193.189 982.135 198.421 L982.135 214.069 L977.852 214.069 L977.852 198.559 Q977.852 194.833 976.533 193.027 Q975.214 191.222 972.505 191.222 Q969.195 191.222 967.274 193.421 Q965.353 195.62 965.353 199.416 L965.353 214.069 L961.07 214.069 L961.07 198.559 Q961.07 194.809 959.751 193.027 Q958.431 191.222 955.677 191.222 Q952.413 191.222 950.492 193.444 Q948.57 195.643 948.57 199.416 L948.57 214.069 L944.288 214.069 L944.288 188.143 L948.57 188.143 L948.57 192.171 Q950.029 189.786 952.066 188.652 Q954.103 187.518 956.904 187.518 Q959.728 187.518 961.695 188.953 Q963.686 190.388 964.635 193.12 Z" fill="#000000" fill-rule="nonzero" fill-opacity="1" /><path clip-path="url(#clip500)" d="M1000.68 191.129 Q997.251 191.129 995.26 193.814 Q993.269 196.476 993.269 201.129 Q993.269 205.782 995.237 208.467 Q997.227 211.129 1000.68 211.129 Q1004.08 211.129 1006.07 208.444 Q1008.06 205.758 1008.06 201.129 Q1008.06 196.522 1006.07 193.837 Q1004.08 191.129 1000.68 191.129 M1000.68 187.518 Q1006.23 187.518 1009.4 191.129 Q1012.57 194.74 1012.57 201.129 Q1012.57 207.495 1009.4 211.129 Q1006.23 214.74 1000.68 214.74 Q995.098 214.74 991.926 211.129 Q988.778 207.495 988.778 201.129 Q988.778 194.74 991.926 191.129 Q995.098 187.518 1000.68 187.518 Z" fill="#000000" fill-rule="nonzero" fill-opacity="1" /><path clip-path="url(#clip500)" d="M1029.68 191.129 Q1026.25 191.129 1024.26 193.814 Q1022.27 196.476 1022.27 201.129 Q1022.27 205.782 1024.24 208.467 Q1026.23 211.129 1029.68 211.129 Q1033.08 211.129 1035.07 208.444 Q1037.07 205.758 1037.07 201.129 Q1037.07 196.522 1035.07 193.837 Q1033.08 191.129 1029.68 191.129 M1029.68 187.518 Q1035.24 187.518 1038.41 191.129 Q1041.58 194.74 1041.58 201.129 Q1041.58 207.495 1038.41 211.129 Q1035.24 214.74 1029.68 214.74 Q1024.1 214.74 1020.93 211.129 Q1017.78 207.495 1017.78 201.129 Q1017.78 194.74 1020.93 191.129 Q1024.1 187.518 1029.68 187.518 Z" fill="#000000" fill-rule="nonzero" fill-opacity="1" /><path clip-path="url(#clip500)" d="M1052.85 180.782 L1052.85 188.143 L1061.63 188.143 L1061.63 191.453 L1052.85 191.453 L1052.85 205.527 Q1052.85 208.698 1053.71 209.601 Q1054.59 210.504 1057.25 210.504 L1061.63 210.504 L1061.63 214.069 L1057.25 214.069 Q1052.32 214.069 1050.44 212.24 Q1048.57 210.388 1048.57 205.527 L1048.57 191.453 L1045.44 191.453 L1045.44 188.143 L1048.57 188.143 L1048.57 180.782 L1052.85 180.782 Z" fill="#000000" fill-rule="nonzero" fill-opacity="1" /><path clip-path="url(#clip500)" d="M1088.78 198.421 L1088.78 214.069 L1084.52 214.069 L1084.52 198.559 Q1084.52 194.879 1083.08 193.05 Q1081.65 191.222 1078.78 191.222 Q1075.33 191.222 1073.34 193.421 Q1071.35 195.62 1071.35 199.416 L1071.35 214.069 L1067.06 214.069 L1067.06 178.05 L1071.35 178.05 L1071.35 192.171 Q1072.88 189.833 1074.94 188.675 Q1077.02 187.518 1079.73 187.518 Q1084.19 187.518 1086.49 190.296 Q1088.78 193.05 1088.78 198.421 Z" fill="#000000" fill-rule="nonzero" fill-opacity="1" /><path clip-path="url(#clip500)" d="M1097.27 188.143 L1101.53 188.143 L1101.53 214.069 L1097.27 214.069 L1097.27 188.143 M1097.27 178.05 L1101.53 178.05 L1101.53 183.444 L1097.27 183.444 L1097.27 178.05 Z" fill="#000000" fill-rule="nonzero" fill-opacity="1" /><path clip-path="url(#clip500)" d="M1132 198.421 L1132 214.069 L1127.74 214.069 L1127.74 198.559 Q1127.74 194.879 1126.3 193.05 Q1124.87 191.222 1122 191.222 Q1118.55 191.222 1116.56 193.421 Q1114.56 195.62 1114.56 199.416 L1114.56 214.069 L1110.28 214.069 L1110.28 188.143 L1114.56 188.143 L1114.56 192.171 Q1116.09 189.833 1118.15 188.675 Q1120.24 187.518 1122.94 187.518 Q1127.41 187.518 1129.7 190.296 Q1132 193.05 1132 198.421 Z" fill="#000000" fill-rule="nonzero" fill-opacity="1" /><path clip-path="url(#clip500)" d="M1157.55 200.805 Q1157.55 196.175 1155.63 193.629 Q1153.73 191.083 1150.28 191.083 Q1146.86 191.083 1144.93 193.629 Q1143.04 196.175 1143.04 200.805 Q1143.04 205.411 1144.93 207.958 Q1146.86 210.504 1150.28 210.504 Q1153.73 210.504 1155.63 207.958 Q1157.55 205.411 1157.55 200.805 M1161.81 210.851 Q1161.81 217.471 1158.87 220.689 Q1155.93 223.93 1149.87 223.93 Q1147.62 223.93 1145.63 223.582 Q1143.64 223.258 1141.76 222.564 L1141.76 218.42 Q1143.64 219.439 1145.47 219.925 Q1147.3 220.411 1149.19 220.411 Q1153.38 220.411 1155.47 218.212 Q1157.55 216.036 1157.55 211.615 L1157.55 209.508 Q1156.23 211.8 1154.17 212.934 Q1152.11 214.069 1149.24 214.069 Q1144.47 214.069 1141.56 210.434 Q1138.64 206.8 1138.64 200.805 Q1138.64 194.786 1141.56 191.152 Q1144.47 187.518 1149.24 187.518 Q1152.11 187.518 1154.17 188.652 Q1156.23 189.786 1157.55 192.078 L1157.55 188.143 L1161.81 188.143 L1161.81 210.851 Z" fill="#000000" fill-rule="nonzero" fill-opacity="1" /></svg>
