<?xml version="1.0" encoding="utf-8"?>
<svg xmlns="http://www.w3.org/2000/svg" xmlns:xlink="http://www.w3.org/1999/xlink" width="600" height="400" viewBox="0 0 2400 1600">
<defs>
  <clipPath id="clip070">
    <rect x="0" y="0" width="2400" height="1600"/>
  </clipPath>
</defs>
<path clip-path="url(#clip070)" d="
M0 1600 L2400 1600 L2400 0 L0 0  Z
  " fill="#ffffff" fill-rule="evenodd" fill-opacity="1"/>
<defs>
  <clipPath id="clip071">
    <rect x="480" y="0" width="1681" height="1600"/>
  </clipPath>
</defs>
<path clip-path="url(#clip070)" d="
M437.685 1423.18 L2352.76 1423.18 L2352.76 47.2441 L437.685 47.2441  Z
  " fill="#ffffff" fill-rule="evenodd" fill-opacity="1"/>
<defs>
  <clipPath id="clip072">
    <rect x="437" y="47" width="1916" height="1377"/>
  </clipPath>
</defs>
<polyline clip-path="url(#clip072)" style="stroke:#000000; stroke-linecap:round; stroke-linejoin:round; stroke-width:2; stroke-opacity:0.1; fill:none" points="
  491.881,1423.18 491.881,47.2441 
  "/>
<polyline clip-path="url(#clip072)" style="stroke:#000000; stroke-linecap:round; stroke-linejoin:round; stroke-width:2; stroke-opacity:0.1; fill:none" points="
  853.216,1423.18 853.216,47.2441 
  "/>
<polyline clip-path="url(#clip072)" style="stroke:#000000; stroke-linecap:round; stroke-linejoin:round; stroke-width:2; stroke-opacity:0.1; fill:none" points="
  1214.55,1423.18 1214.55,47.2441 
  "/>
<polyline clip-path="url(#clip072)" style="stroke:#000000; stroke-linecap:round; stroke-linejoin:round; stroke-width:2; stroke-opacity:0.1; fill:none" points="
  1575.89,1423.18 1575.89,47.2441 
  "/>
<polyline clip-path="url(#clip072)" style="stroke:#000000; stroke-linecap:round; stroke-linejoin:round; stroke-width:2; stroke-opacity:0.1; fill:none" points="
  1937.22,1423.18 1937.22,47.2441 
  "/>
<polyline clip-path="url(#clip072)" style="stroke:#000000; stroke-linecap:round; stroke-linejoin:round; stroke-width:2; stroke-opacity:0.1; fill:none" points="
  2298.56,1423.18 2298.56,47.2441 
  "/>
<polyline clip-path="url(#clip070)" style="stroke:#000000; stroke-linecap:round; stroke-linejoin:round; stroke-width:4; stroke-opacity:1; fill:none" points="
  437.685,1423.18 2352.76,1423.18 
  "/>
<polyline clip-path="url(#clip070)" style="stroke:#000000; stroke-linecap:round; stroke-linejoin:round; stroke-width:4; stroke-opacity:1; fill:none" points="
  491.881,1423.18 491.881,1404.28 
  "/>
<polyline clip-path="url(#clip070)" style="stroke:#000000; stroke-linecap:round; stroke-linejoin:round; stroke-width:4; stroke-opacity:1; fill:none" points="
  853.216,1423.18 853.216,1404.28 
  "/>
<polyline clip-path="url(#clip070)" style="stroke:#000000; stroke-linecap:round; stroke-linejoin:round; stroke-width:4; stroke-opacity:1; fill:none" points="
  1214.55,1423.18 1214.55,1404.28 
  "/>
<polyline clip-path="url(#clip070)" style="stroke:#000000; stroke-linecap:round; stroke-linejoin:round; stroke-width:4; stroke-opacity:1; fill:none" points="
  1575.89,1423.18 1575.89,1404.28 
  "/>
<polyline clip-path="url(#clip070)" style="stroke:#000000; stroke-linecap:round; stroke-linejoin:round; stroke-width:4; stroke-opacity:1; fill:none" points="
  1937.22,1423.18 1937.22,1404.28 
  "/>
<polyline clip-path="url(#clip070)" style="stroke:#000000; stroke-linecap:round; stroke-linejoin:round; stroke-width:4; stroke-opacity:1; fill:none" points="
  2298.56,1423.18 2298.56,1404.28 
  "/>
<path clip-path="url(#clip070)" d="M491.881 1454.1 Q488.27 1454.1 486.442 1457.66 Q484.636 1461.2 484.636 1468.33 Q484.636 1475.44 486.442 1479.01 Q488.27 1482.55 491.881 1482.55 Q495.516 1482.55 497.321 1479.01 Q499.15 1475.44 499.15 1468.33 Q499.15 1461.2 497.321 1457.66 Q495.516 1454.1 491.881 1454.1 M491.881 1450.39 Q497.691 1450.39 500.747 1455 Q503.826 1459.58 503.826 1468.33 Q503.826 1477.06 500.747 1481.67 Q497.691 1486.25 491.881 1486.25 Q486.071 1486.25 482.993 1481.67 Q479.937 1477.06 479.937 1468.33 Q479.937 1459.58 482.993 1455 Q486.071 1450.39 491.881 1450.39 Z" fill="#000000" fill-rule="evenodd" fill-opacity="1" /><path clip-path="url(#clip070)" d="M843.598 1481.64 L851.237 1481.64 L851.237 1455.28 L842.927 1456.95 L842.927 1452.69 L851.191 1451.02 L855.867 1451.02 L855.867 1481.64 L863.506 1481.64 L863.506 1485.58 L843.598 1485.58 L843.598 1481.64 Z" fill="#000000" fill-rule="evenodd" fill-opacity="1" /><path clip-path="url(#clip070)" d="M1209.2 1481.64 L1225.52 1481.64 L1225.52 1485.58 L1203.58 1485.58 L1203.58 1481.64 Q1206.24 1478.89 1210.82 1474.26 Q1215.43 1469.61 1216.61 1468.27 Q1218.86 1465.74 1219.74 1464.01 Q1220.64 1462.25 1220.64 1460.56 Q1220.64 1457.8 1218.69 1456.07 Q1216.77 1454.33 1213.67 1454.33 Q1211.47 1454.33 1209.02 1455.09 Q1206.59 1455.86 1203.81 1457.41 L1203.81 1452.69 Q1206.63 1451.55 1209.09 1450.97 Q1211.54 1450.39 1213.58 1450.39 Q1218.95 1450.39 1222.14 1453.08 Q1225.34 1455.77 1225.34 1460.26 Q1225.34 1462.39 1224.53 1464.31 Q1223.74 1466.2 1221.63 1468.8 Q1221.06 1469.47 1217.95 1472.69 Q1214.85 1475.88 1209.2 1481.64 Z" fill="#000000" fill-rule="evenodd" fill-opacity="1" /><path clip-path="url(#clip070)" d="M1580.13 1466.95 Q1583.49 1467.66 1585.37 1469.93 Q1587.26 1472.2 1587.26 1475.53 Q1587.26 1480.65 1583.74 1483.45 Q1580.23 1486.25 1573.74 1486.25 Q1571.57 1486.25 1569.25 1485.81 Q1566.96 1485.39 1564.51 1484.54 L1564.51 1480.02 Q1566.45 1481.16 1568.77 1481.74 Q1571.08 1482.32 1573.61 1482.32 Q1578 1482.32 1580.3 1480.58 Q1582.61 1478.84 1582.61 1475.53 Q1582.61 1472.48 1580.46 1470.77 Q1578.33 1469.03 1574.51 1469.03 L1570.48 1469.03 L1570.48 1465.19 L1574.69 1465.19 Q1578.14 1465.19 1579.97 1463.82 Q1581.8 1462.43 1581.8 1459.84 Q1581.8 1457.18 1579.9 1455.77 Q1578.03 1454.33 1574.51 1454.33 Q1572.59 1454.33 1570.39 1454.75 Q1568.19 1455.16 1565.55 1456.04 L1565.55 1451.88 Q1568.21 1451.14 1570.53 1450.77 Q1572.87 1450.39 1574.93 1450.39 Q1580.25 1450.39 1583.35 1452.83 Q1586.45 1455.23 1586.45 1459.35 Q1586.45 1462.22 1584.81 1464.21 Q1583.17 1466.18 1580.13 1466.95 Z" fill="#000000" fill-rule="evenodd" fill-opacity="1" /><path clip-path="url(#clip070)" d="M1940.23 1455.09 L1928.42 1473.54 L1940.23 1473.54 L1940.23 1455.09 M1939 1451.02 L1944.88 1451.02 L1944.88 1473.54 L1949.81 1473.54 L1949.81 1477.43 L1944.88 1477.43 L1944.88 1485.58 L1940.23 1485.58 L1940.23 1477.43 L1924.63 1477.43 L1924.63 1472.92 L1939 1451.02 Z" fill="#000000" fill-rule="evenodd" fill-opacity="1" /><path clip-path="url(#clip070)" d="M2288.83 1451.02 L2307.19 1451.02 L2307.19 1454.96 L2293.12 1454.96 L2293.12 1463.43 Q2294.13 1463.08 2295.15 1462.92 Q2296.17 1462.73 2297.19 1462.73 Q2302.98 1462.73 2306.36 1465.9 Q2309.74 1469.08 2309.74 1474.49 Q2309.74 1480.07 2306.26 1483.17 Q2302.79 1486.25 2296.47 1486.25 Q2294.3 1486.25 2292.03 1485.88 Q2289.78 1485.51 2287.38 1484.77 L2287.38 1480.07 Q2289.46 1481.2 2291.68 1481.76 Q2293.9 1482.32 2296.38 1482.32 Q2300.38 1482.32 2302.72 1480.21 Q2305.06 1478.1 2305.06 1474.49 Q2305.06 1470.88 2302.72 1468.77 Q2300.38 1466.67 2296.38 1466.67 Q2294.5 1466.67 2292.63 1467.08 Q2290.78 1467.5 2288.83 1468.38 L2288.83 1451.02 Z" fill="#000000" fill-rule="evenodd" fill-opacity="1" /><path clip-path="url(#clip070)" d="M1198.77 1550.25 Q1198.77 1556.71 1201.42 1560.4 Q1204.09 1564.07 1208.74 1564.07 Q1213.38 1564.07 1216.06 1560.4 Q1218.73 1556.71 1218.73 1550.25 Q1218.73 1543.79 1216.06 1540.13 Q1213.38 1536.44 1208.74 1536.44 Q1204.09 1536.44 1201.42 1540.13 Q1198.77 1543.79 1198.77 1550.25 M1218.73 1562.7 Q1216.89 1565.88 1214.05 1567.44 Q1211.25 1568.97 1207.3 1568.97 Q1200.84 1568.97 1196.77 1563.81 Q1192.73 1558.65 1192.73 1550.25 Q1192.73 1541.85 1196.77 1536.69 Q1200.84 1531.54 1207.3 1531.54 Q1211.25 1531.54 1214.05 1533.1 Q1216.89 1534.62 1218.73 1537.81 L1218.73 1532.4 L1224.59 1532.4 L1224.59 1581.6 L1218.73 1581.6 L1218.73 1562.7 Z" fill="#000000" fill-rule="evenodd" fill-opacity="1" /><path clip-path="url(#clip070)" d="M1263.74 1578.87 L1263.74 1583.42 L1229.87 1583.42 L1229.87 1578.87 L1263.74 1578.87 Z" fill="#000000" fill-rule="evenodd" fill-opacity="1" /><path clip-path="url(#clip070)" d="M1289.9 1537.87 Q1288.91 1537.3 1287.74 1537.04 Q1286.59 1536.76 1285.19 1536.76 Q1280.22 1536.76 1277.55 1540 Q1274.91 1543.22 1274.91 1549.27 L1274.91 1568.04 L1269.02 1568.04 L1269.02 1532.4 L1274.91 1532.4 L1274.91 1537.93 Q1276.75 1534.69 1279.71 1533.13 Q1282.67 1531.54 1286.91 1531.54 Q1287.51 1531.54 1288.24 1531.63 Q1288.98 1531.7 1289.87 1531.85 L1289.9 1537.87 Z" fill="#000000" fill-rule="evenodd" fill-opacity="1" /><path clip-path="url(#clip070)" d="M1312.24 1550.12 Q1305.15 1550.12 1302.41 1551.75 Q1299.67 1553.37 1299.67 1557.29 Q1299.67 1560.4 1301.71 1562.25 Q1303.78 1564.07 1307.31 1564.07 Q1312.18 1564.07 1315.11 1560.63 Q1318.07 1557.16 1318.07 1551.43 L1318.07 1550.12 L1312.24 1550.12 M1323.92 1547.71 L1323.92 1568.04 L1318.07 1568.04 L1318.07 1562.63 Q1316.06 1565.88 1313.07 1567.44 Q1310.08 1568.97 1305.75 1568.97 Q1300.28 1568.97 1297.03 1565.91 Q1293.81 1562.82 1293.81 1557.67 Q1293.81 1551.65 1297.83 1548.6 Q1301.87 1545.54 1309.86 1545.54 L1318.07 1545.54 L1318.07 1544.97 Q1318.07 1540.93 1315.39 1538.73 Q1312.75 1536.5 1307.95 1536.5 Q1304.89 1536.5 1301.99 1537.23 Q1299.1 1537.97 1296.42 1539.43 L1296.42 1534.02 Q1299.64 1532.78 1302.66 1532.17 Q1305.69 1531.54 1308.55 1531.54 Q1316.29 1531.54 1320.11 1535.55 Q1323.92 1539.56 1323.92 1547.71 Z" fill="#000000" fill-rule="evenodd" fill-opacity="1" /><path clip-path="url(#clip070)" d="M1335.99 1532.4 L1341.84 1532.4 L1341.84 1568.04 L1335.99 1568.04 L1335.99 1532.4 M1335.99 1518.52 L1341.84 1518.52 L1341.84 1525.93 L1335.99 1525.93 L1335.99 1518.52 Z" fill="#000000" fill-rule="evenodd" fill-opacity="1" /><path clip-path="url(#clip070)" d="M1383.73 1546.53 L1383.73 1568.04 L1377.87 1568.04 L1377.87 1546.72 Q1377.87 1541.66 1375.9 1539.14 Q1373.93 1536.63 1369.98 1536.63 Q1365.24 1536.63 1362.5 1539.65 Q1359.76 1542.68 1359.76 1547.9 L1359.76 1568.04 L1353.88 1568.04 L1353.88 1532.4 L1359.76 1532.4 L1359.76 1537.93 Q1361.86 1534.72 1364.7 1533.13 Q1367.56 1531.54 1371.29 1531.54 Q1377.43 1531.54 1380.58 1535.36 Q1383.73 1539.14 1383.73 1546.53 Z" fill="#000000" fill-rule="evenodd" fill-opacity="1" /><path clip-path="url(#clip070)" d="M1415.59 1518.52 L1429.09 1518.52 L1429.09 1523.07 L1421.45 1523.07 L1421.45 1572.09 L1429.09 1572.09 L1429.09 1576.64 L1415.59 1576.64 L1415.59 1518.52 Z" fill="#000000" fill-rule="evenodd" fill-opacity="1" /><path clip-path="url(#clip070)" d="M1465.02 1549.81 Q1465.02 1543.44 1462.38 1539.94 Q1459.77 1536.44 1455.03 1536.44 Q1450.32 1536.44 1447.67 1539.94 Q1445.06 1543.44 1445.06 1549.81 Q1445.06 1556.14 1447.67 1559.64 Q1450.32 1563.14 1455.03 1563.14 Q1459.77 1563.14 1462.38 1559.64 Q1465.02 1556.14 1465.02 1549.81 M1470.88 1563.62 Q1470.88 1572.72 1466.83 1577.15 Q1462.79 1581.6 1454.45 1581.6 Q1451.37 1581.6 1448.63 1581.13 Q1445.89 1580.68 1443.31 1579.72 L1443.31 1574.03 Q1445.89 1575.43 1448.41 1576.1 Q1450.92 1576.76 1453.53 1576.76 Q1459.29 1576.76 1462.16 1573.74 Q1465.02 1570.75 1465.02 1564.67 L1465.02 1561.77 Q1463.21 1564.92 1460.37 1566.48 Q1457.54 1568.04 1453.59 1568.04 Q1447.04 1568.04 1443.03 1563.05 Q1439.02 1558.05 1439.02 1549.81 Q1439.02 1541.53 1443.03 1536.53 Q1447.04 1531.54 1453.59 1531.54 Q1457.54 1531.54 1460.37 1533.1 Q1463.21 1534.66 1465.02 1537.81 L1465.02 1532.4 L1470.88 1532.4 L1470.88 1563.62 Z" fill="#000000" fill-rule="evenodd" fill-opacity="1" /><path clip-path="url(#clip070)" d="M1493.35 1520.52 L1498.76 1520.52 L1482.21 1574.09 L1476.8 1574.09 L1493.35 1520.52 Z" fill="#000000" fill-rule="evenodd" fill-opacity="1" /><path clip-path="url(#clip070)" d="M1504.68 1518.52 L1510.57 1518.52 L1510.57 1547.77 L1528.04 1532.4 L1535.52 1532.4 L1516.61 1549.07 L1536.32 1568.04 L1528.68 1568.04 L1510.57 1550.63 L1510.57 1568.04 L1504.68 1568.04 L1504.68 1518.52 Z" fill="#000000" fill-rule="evenodd" fill-opacity="1" /><path clip-path="url(#clip070)" d="M1566.11 1549.81 Q1566.11 1543.44 1563.47 1539.94 Q1560.86 1536.44 1556.11 1536.44 Q1551.4 1536.44 1548.76 1539.94 Q1546.15 1543.44 1546.15 1549.81 Q1546.15 1556.14 1548.76 1559.64 Q1551.4 1563.14 1556.11 1563.14 Q1560.86 1563.14 1563.47 1559.64 Q1566.11 1556.14 1566.11 1549.81 M1571.96 1563.62 Q1571.96 1572.72 1567.92 1577.15 Q1563.88 1581.6 1555.54 1581.6 Q1552.45 1581.6 1549.72 1581.13 Q1546.98 1580.68 1544.4 1579.72 L1544.4 1574.03 Q1546.98 1575.43 1549.49 1576.1 Q1552.01 1576.76 1554.62 1576.76 Q1560.38 1576.76 1563.24 1573.74 Q1566.11 1570.75 1566.11 1564.67 L1566.11 1561.77 Q1564.29 1564.92 1561.46 1566.48 Q1558.63 1568.04 1554.68 1568.04 Q1548.12 1568.04 1544.11 1563.05 Q1540.1 1558.05 1540.1 1549.81 Q1540.1 1541.53 1544.11 1536.53 Q1548.12 1531.54 1554.68 1531.54 Q1558.63 1531.54 1561.46 1533.1 Q1564.29 1534.66 1566.11 1537.81 L1566.11 1532.4 L1571.96 1532.4 L1571.96 1563.62 Z" fill="#000000" fill-rule="evenodd" fill-opacity="1" /><path clip-path="url(#clip070)" d="M1597.71 1518.52 L1597.71 1576.64 L1584.22 1576.64 L1584.22 1572.09 L1591.83 1572.09 L1591.83 1523.07 L1584.22 1523.07 L1584.22 1518.52 L1597.71 1518.52 Z" fill="#000000" fill-rule="evenodd" fill-opacity="1" /><polyline clip-path="url(#clip072)" style="stroke:#000000; stroke-linecap:round; stroke-linejoin:round; stroke-width:2; stroke-opacity:0.1; fill:none" points="
  437.685,1310.83 2352.76,1310.83 
  "/>
<polyline clip-path="url(#clip072)" style="stroke:#000000; stroke-linecap:round; stroke-linejoin:round; stroke-width:2; stroke-opacity:0.1; fill:none" points="
  437.685,1004.61 2352.76,1004.61 
  "/>
<polyline clip-path="url(#clip072)" style="stroke:#000000; stroke-linecap:round; stroke-linejoin:round; stroke-width:2; stroke-opacity:0.1; fill:none" points="
  437.685,698.382 2352.76,698.382 
  "/>
<polyline clip-path="url(#clip072)" style="stroke:#000000; stroke-linecap:round; stroke-linejoin:round; stroke-width:2; stroke-opacity:0.1; fill:none" points="
  437.685,392.157 2352.76,392.157 
  "/>
<polyline clip-path="url(#clip072)" style="stroke:#000000; stroke-linecap:round; stroke-linejoin:round; stroke-width:2; stroke-opacity:0.1; fill:none" points="
  437.685,85.9327 2352.76,85.9327 
  "/>
<polyline clip-path="url(#clip070)" style="stroke:#000000; stroke-linecap:round; stroke-linejoin:round; stroke-width:4; stroke-opacity:1; fill:none" points="
  437.685,1423.18 437.685,47.2441 
  "/>
<polyline clip-path="url(#clip070)" style="stroke:#000000; stroke-linecap:round; stroke-linejoin:round; stroke-width:4; stroke-opacity:1; fill:none" points="
  437.685,1310.83 456.582,1310.83 
  "/>
<polyline clip-path="url(#clip070)" style="stroke:#000000; stroke-linecap:round; stroke-linejoin:round; stroke-width:4; stroke-opacity:1; fill:none" points="
  437.685,1004.61 456.582,1004.61 
  "/>
<polyline clip-path="url(#clip070)" style="stroke:#000000; stroke-linecap:round; stroke-linejoin:round; stroke-width:4; stroke-opacity:1; fill:none" points="
  437.685,698.382 456.582,698.382 
  "/>
<polyline clip-path="url(#clip070)" style="stroke:#000000; stroke-linecap:round; stroke-linejoin:round; stroke-width:4; stroke-opacity:1; fill:none" points="
  437.685,392.157 456.582,392.157 
  "/>
<polyline clip-path="url(#clip070)" style="stroke:#000000; stroke-linecap:round; stroke-linejoin:round; stroke-width:4; stroke-opacity:1; fill:none" points="
  437.685,85.9327 456.582,85.9327 
  "/>
<path clip-path="url(#clip070)" d="M115.201 1317.73 L144.876 1317.73 L144.876 1321.67 L115.201 1321.67 L115.201 1317.73 Z" fill="#000000" fill-rule="evenodd" fill-opacity="1" /><path clip-path="url(#clip070)" d="M158.997 1330.62 L175.316 1330.62 L175.316 1334.56 L153.372 1334.56 L153.372 1330.62 Q156.034 1327.87 160.617 1323.24 Q165.223 1318.59 166.404 1317.24 Q168.649 1314.72 169.529 1312.98 Q170.432 1311.23 170.432 1309.54 Q170.432 1306.78 168.487 1305.04 Q166.566 1303.31 163.464 1303.31 Q161.265 1303.31 158.811 1304.07 Q156.381 1304.84 153.603 1306.39 L153.603 1301.67 Q156.427 1300.53 158.881 1299.95 Q161.335 1299.37 163.372 1299.37 Q168.742 1299.37 171.936 1302.06 Q175.131 1304.74 175.131 1309.23 Q175.131 1311.36 174.321 1313.29 Q173.534 1315.18 171.427 1317.78 Q170.848 1318.45 167.747 1321.67 Q164.645 1324.86 158.997 1330.62 Z" fill="#000000" fill-rule="evenodd" fill-opacity="1" /><path clip-path="url(#clip070)" d="M185.131 1328.68 L190.015 1328.68 L190.015 1334.56 L185.131 1334.56 L185.131 1328.68 Z" fill="#000000" fill-rule="evenodd" fill-opacity="1" /><path clip-path="url(#clip070)" d="M210.2 1303.08 Q206.589 1303.08 204.76 1306.64 Q202.955 1310.18 202.955 1317.31 Q202.955 1324.42 204.76 1327.98 Q206.589 1331.53 210.2 1331.53 Q213.834 1331.53 215.64 1327.98 Q217.469 1324.42 217.469 1317.31 Q217.469 1310.18 215.64 1306.64 Q213.834 1303.08 210.2 1303.08 M210.2 1299.37 Q216.01 1299.37 219.066 1303.98 Q222.144 1308.56 222.144 1317.31 Q222.144 1326.04 219.066 1330.65 Q216.01 1335.23 210.2 1335.23 Q204.39 1335.23 201.311 1330.65 Q198.256 1326.04 198.256 1317.31 Q198.256 1308.56 201.311 1303.98 Q204.39 1299.37 210.2 1299.37 Z" fill="#000000" fill-rule="evenodd" fill-opacity="1" /><path clip-path="url(#clip070)" d="M240.362 1303.08 Q236.751 1303.08 234.922 1306.64 Q233.117 1310.18 233.117 1317.31 Q233.117 1324.42 234.922 1327.98 Q236.751 1331.53 240.362 1331.53 Q243.996 1331.53 245.802 1327.98 Q247.63 1324.42 247.63 1317.31 Q247.63 1310.18 245.802 1306.64 Q243.996 1303.08 240.362 1303.08 M240.362 1299.37 Q246.172 1299.37 249.228 1303.98 Q252.306 1308.56 252.306 1317.31 Q252.306 1326.04 249.228 1330.65 Q246.172 1335.23 240.362 1335.23 Q234.552 1335.23 231.473 1330.65 Q228.418 1326.04 228.418 1317.31 Q228.418 1308.56 231.473 1303.98 Q234.552 1299.37 240.362 1299.37 Z" fill="#000000" fill-rule="evenodd" fill-opacity="1" /><path clip-path="url(#clip070)" d="M288.695 1309.1 L278.116 1319.72 L288.695 1330.3 L285.94 1333.1 L275.315 1322.48 L264.69 1333.1 L261.959 1330.3 L272.515 1319.72 L261.959 1309.1 L264.69 1306.29 L275.315 1316.92 L285.94 1306.29 L288.695 1309.1 Z" fill="#000000" fill-rule="evenodd" fill-opacity="1" /><path clip-path="url(#clip070)" d="M301.056 1330.62 L308.695 1330.62 L308.695 1304.26 L300.385 1305.92 L300.385 1301.67 L308.649 1300 L313.324 1300 L313.324 1330.62 L320.963 1330.62 L320.963 1334.56 L301.056 1334.56 L301.056 1330.62 Z" fill="#000000" fill-rule="evenodd" fill-opacity="1" /><path clip-path="url(#clip070)" d="M340.408 1303.08 Q336.797 1303.08 334.968 1306.64 Q333.162 1310.18 333.162 1317.31 Q333.162 1324.42 334.968 1327.98 Q336.797 1331.53 340.408 1331.53 Q344.042 1331.53 345.847 1327.98 Q347.676 1324.42 347.676 1317.31 Q347.676 1310.18 345.847 1306.64 Q344.042 1303.08 340.408 1303.08 M340.408 1299.37 Q346.218 1299.37 349.273 1303.98 Q352.352 1308.56 352.352 1317.31 Q352.352 1326.04 349.273 1330.65 Q346.218 1335.23 340.408 1335.23 Q334.598 1335.23 331.519 1330.65 Q328.463 1326.04 328.463 1317.31 Q328.463 1308.56 331.519 1303.98 Q334.598 1299.37 340.408 1299.37 Z" fill="#000000" fill-rule="evenodd" fill-opacity="1" /><path clip-path="url(#clip070)" d="M352.352 1293.48 L376.464 1293.48 L376.464 1296.67 L352.352 1296.67 L352.352 1293.48 Z" fill="#000000" fill-rule="evenodd" fill-opacity="1" /><path clip-path="url(#clip070)" d="M384.701 1279.07 L399.616 1279.07 L399.616 1282.27 L388.181 1282.27 L388.181 1289.15 Q389.008 1288.87 389.836 1288.74 Q390.663 1288.58 391.491 1288.58 Q396.193 1288.58 398.939 1291.16 Q401.685 1293.74 401.685 1298.14 Q401.685 1302.67 398.864 1305.19 Q396.043 1307.69 390.908 1307.69 Q389.14 1307.69 387.297 1307.39 Q385.473 1307.09 383.517 1306.49 L383.517 1302.67 Q385.209 1303.59 387.015 1304.04 Q388.82 1304.5 390.833 1304.5 Q394.086 1304.5 395.986 1302.78 Q397.886 1301.07 397.886 1298.14 Q397.886 1295.21 395.986 1293.49 Q394.086 1291.78 390.833 1291.78 Q389.309 1291.78 387.786 1292.12 Q386.281 1292.46 384.701 1293.17 L384.701 1279.07 Z" fill="#000000" fill-rule="evenodd" fill-opacity="1" /><path clip-path="url(#clip070)" d="M115.201 1011.51 L144.876 1011.51 L144.876 1015.44 L115.201 1015.44 L115.201 1011.51 Z" fill="#000000" fill-rule="evenodd" fill-opacity="1" /><path clip-path="url(#clip070)" d="M155.779 1024.4 L163.418 1024.4 L163.418 998.033 L155.108 999.7 L155.108 995.441 L163.372 993.774 L168.047 993.774 L168.047 1024.4 L175.686 1024.4 L175.686 1028.33 L155.779 1028.33 L155.779 1024.4 Z" fill="#000000" fill-rule="evenodd" fill-opacity="1" /><path clip-path="url(#clip070)" d="M185.131 1022.45 L190.015 1022.45 L190.015 1028.33 L185.131 1028.33 L185.131 1022.45 Z" fill="#000000" fill-rule="evenodd" fill-opacity="1" /><path clip-path="url(#clip070)" d="M200.246 993.774 L218.603 993.774 L218.603 997.709 L204.529 997.709 L204.529 1006.18 Q205.547 1005.83 206.566 1005.67 Q207.584 1005.49 208.603 1005.49 Q214.39 1005.49 217.769 1008.66 Q221.149 1011.83 221.149 1017.25 Q221.149 1022.82 217.677 1025.93 Q214.205 1029.01 207.885 1029.01 Q205.709 1029.01 203.441 1028.63 Q201.195 1028.26 198.788 1027.52 L198.788 1022.82 Q200.871 1023.96 203.094 1024.51 Q205.316 1025.07 207.793 1025.07 Q211.797 1025.07 214.135 1022.96 Q216.473 1020.86 216.473 1017.25 Q216.473 1013.64 214.135 1011.53 Q211.797 1009.42 207.793 1009.42 Q205.918 1009.42 204.043 1009.84 Q202.191 1010.26 200.246 1011.14 L200.246 993.774 Z" fill="#000000" fill-rule="evenodd" fill-opacity="1" /><path clip-path="url(#clip070)" d="M240.362 996.853 Q236.751 996.853 234.922 1000.42 Q233.117 1003.96 233.117 1011.09 Q233.117 1018.2 234.922 1021.76 Q236.751 1025.3 240.362 1025.3 Q243.996 1025.3 245.802 1021.76 Q247.63 1018.2 247.63 1011.09 Q247.63 1003.96 245.802 1000.42 Q243.996 996.853 240.362 996.853 M240.362 993.149 Q246.172 993.149 249.228 997.756 Q252.306 1002.34 252.306 1011.09 Q252.306 1019.82 249.228 1024.42 Q246.172 1029.01 240.362 1029.01 Q234.552 1029.01 231.473 1024.42 Q228.418 1019.82 228.418 1011.09 Q228.418 1002.34 231.473 997.756 Q234.552 993.149 240.362 993.149 Z" fill="#000000" fill-rule="evenodd" fill-opacity="1" /><path clip-path="url(#clip070)" d="M288.695 1002.87 L278.116 1013.5 L288.695 1024.07 L285.94 1026.88 L275.315 1016.25 L264.69 1026.88 L261.959 1024.07 L272.515 1013.5 L261.959 1002.87 L264.69 1000.07 L275.315 1010.7 L285.94 1000.07 L288.695 1002.87 Z" fill="#000000" fill-rule="evenodd" fill-opacity="1" /><path clip-path="url(#clip070)" d="M301.056 1024.4 L308.695 1024.4 L308.695 998.033 L300.385 999.7 L300.385 995.441 L308.649 993.774 L313.324 993.774 L313.324 1024.4 L320.963 1024.4 L320.963 1028.33 L301.056 1028.33 L301.056 1024.4 Z" fill="#000000" fill-rule="evenodd" fill-opacity="1" /><path clip-path="url(#clip070)" d="M340.408 996.853 Q336.797 996.853 334.968 1000.42 Q333.162 1003.96 333.162 1011.09 Q333.162 1018.2 334.968 1021.76 Q336.797 1025.3 340.408 1025.3 Q344.042 1025.3 345.847 1021.76 Q347.676 1018.2 347.676 1011.09 Q347.676 1003.96 345.847 1000.42 Q344.042 996.853 340.408 996.853 M340.408 993.149 Q346.218 993.149 349.273 997.756 Q352.352 1002.34 352.352 1011.09 Q352.352 1019.82 349.273 1024.42 Q346.218 1029.01 340.408 1029.01 Q334.598 1029.01 331.519 1024.42 Q328.463 1019.82 328.463 1011.09 Q328.463 1002.34 331.519 997.756 Q334.598 993.149 340.408 993.149 Z" fill="#000000" fill-rule="evenodd" fill-opacity="1" /><path clip-path="url(#clip070)" d="M352.352 987.25 L376.464 987.25 L376.464 990.448 L352.352 990.448 L352.352 987.25 Z" fill="#000000" fill-rule="evenodd" fill-opacity="1" /><path clip-path="url(#clip070)" d="M384.701 972.844 L399.616 972.844 L399.616 976.041 L388.181 976.041 L388.181 982.925 Q389.008 982.643 389.836 982.511 Q390.663 982.36 391.491 982.36 Q396.193 982.36 398.939 984.937 Q401.685 987.514 401.685 991.915 Q401.685 996.447 398.864 998.968 Q396.043 1001.47 390.908 1001.47 Q389.14 1001.47 387.297 1001.17 Q385.473 1000.87 383.517 1000.27 L383.517 996.447 Q385.209 997.369 387.015 997.82 Q388.82 998.272 390.833 998.272 Q394.086 998.272 395.986 996.56 Q397.886 994.849 397.886 991.915 Q397.886 988.981 395.986 987.269 Q394.086 985.558 390.833 985.558 Q389.309 985.558 387.786 985.896 Q386.281 986.235 384.701 986.949 L384.701 972.844 Z" fill="#000000" fill-rule="evenodd" fill-opacity="1" /><path clip-path="url(#clip070)" d="M115.201 705.281 L144.876 705.281 L144.876 709.216 L115.201 709.216 L115.201 705.281 Z" fill="#000000" fill-rule="evenodd" fill-opacity="1" /><path clip-path="url(#clip070)" d="M155.779 718.174 L163.418 718.174 L163.418 691.809 L155.108 693.475 L155.108 689.216 L163.372 687.549 L168.047 687.549 L168.047 718.174 L175.686 718.174 L175.686 722.109 L155.779 722.109 L155.779 718.174 Z" fill="#000000" fill-rule="evenodd" fill-opacity="1" /><path clip-path="url(#clip070)" d="M185.131 716.23 L190.015 716.23 L190.015 722.109 L185.131 722.109 L185.131 716.23 Z" fill="#000000" fill-rule="evenodd" fill-opacity="1" /><path clip-path="url(#clip070)" d="M210.2 690.628 Q206.589 690.628 204.76 694.193 Q202.955 697.735 202.955 704.864 Q202.955 711.971 204.76 715.535 Q206.589 719.077 210.2 719.077 Q213.834 719.077 215.64 715.535 Q217.469 711.971 217.469 704.864 Q217.469 697.735 215.64 694.193 Q213.834 690.628 210.2 690.628 M210.2 686.924 Q216.01 686.924 219.066 691.531 Q222.144 696.114 222.144 704.864 Q222.144 713.591 219.066 718.197 Q216.01 722.781 210.2 722.781 Q204.39 722.781 201.311 718.197 Q198.256 713.591 198.256 704.864 Q198.256 696.114 201.311 691.531 Q204.39 686.924 210.2 686.924 Z" fill="#000000" fill-rule="evenodd" fill-opacity="1" /><path clip-path="url(#clip070)" d="M240.362 690.628 Q236.751 690.628 234.922 694.193 Q233.117 697.735 233.117 704.864 Q233.117 711.971 234.922 715.535 Q236.751 719.077 240.362 719.077 Q243.996 719.077 245.802 715.535 Q247.63 711.971 247.63 704.864 Q247.63 697.735 245.802 694.193 Q243.996 690.628 240.362 690.628 M240.362 686.924 Q246.172 686.924 249.228 691.531 Q252.306 696.114 252.306 704.864 Q252.306 713.591 249.228 718.197 Q246.172 722.781 240.362 722.781 Q234.552 722.781 231.473 718.197 Q228.418 713.591 228.418 704.864 Q228.418 696.114 231.473 691.531 Q234.552 686.924 240.362 686.924 Z" fill="#000000" fill-rule="evenodd" fill-opacity="1" /><path clip-path="url(#clip070)" d="M288.695 696.647 L278.116 707.272 L288.695 717.85 L285.94 720.651 L275.315 710.026 L264.69 720.651 L261.959 717.85 L272.515 707.272 L261.959 696.647 L264.69 693.846 L275.315 704.471 L285.94 693.846 L288.695 696.647 Z" fill="#000000" fill-rule="evenodd" fill-opacity="1" /><path clip-path="url(#clip070)" d="M301.056 718.174 L308.695 718.174 L308.695 691.809 L300.385 693.475 L300.385 689.216 L308.649 687.549 L313.324 687.549 L313.324 718.174 L320.963 718.174 L320.963 722.109 L301.056 722.109 L301.056 718.174 Z" fill="#000000" fill-rule="evenodd" fill-opacity="1" /><path clip-path="url(#clip070)" d="M340.408 690.628 Q336.797 690.628 334.968 694.193 Q333.162 697.735 333.162 704.864 Q333.162 711.971 334.968 715.535 Q336.797 719.077 340.408 719.077 Q344.042 719.077 345.847 715.535 Q347.676 711.971 347.676 704.864 Q347.676 697.735 345.847 694.193 Q344.042 690.628 340.408 690.628 M340.408 686.924 Q346.218 686.924 349.273 691.531 Q352.352 696.114 352.352 704.864 Q352.352 713.591 349.273 718.197 Q346.218 722.781 340.408 722.781 Q334.598 722.781 331.519 718.197 Q328.463 713.591 328.463 704.864 Q328.463 696.114 331.519 691.531 Q334.598 686.924 340.408 686.924 Z" fill="#000000" fill-rule="evenodd" fill-opacity="1" /><path clip-path="url(#clip070)" d="M352.352 681.026 L376.464 681.026 L376.464 684.223 L352.352 684.223 L352.352 681.026 Z" fill="#000000" fill-rule="evenodd" fill-opacity="1" /><path clip-path="url(#clip070)" d="M384.701 666.619 L399.616 666.619 L399.616 669.816 L388.181 669.816 L388.181 676.7 Q389.008 676.418 389.836 676.286 Q390.663 676.136 391.491 676.136 Q396.193 676.136 398.939 678.712 Q401.685 681.289 401.685 685.69 Q401.685 690.223 398.864 692.743 Q396.043 695.245 390.908 695.245 Q389.14 695.245 387.297 694.944 Q385.473 694.643 383.517 694.041 L383.517 690.223 Q385.209 691.144 387.015 691.596 Q388.82 692.047 390.833 692.047 Q394.086 692.047 395.986 690.336 Q397.886 688.624 397.886 685.69 Q397.886 682.756 395.986 681.045 Q394.086 679.333 390.833 679.333 Q389.309 679.333 387.786 679.672 Q386.281 680.01 384.701 680.725 L384.701 666.619 Z" fill="#000000" fill-rule="evenodd" fill-opacity="1" /><path clip-path="url(#clip070)" d="M114.26 399.056 L143.936 399.056 L143.936 402.991 L114.26 402.991 L114.26 399.056 Z" fill="#000000" fill-rule="evenodd" fill-opacity="1" /><path clip-path="url(#clip070)" d="M154.075 381.325 L172.431 381.325 L172.431 385.26 L158.357 385.26 L158.357 393.732 Q159.376 393.385 160.394 393.223 Q161.413 393.038 162.431 393.038 Q168.218 393.038 171.598 396.209 Q174.977 399.38 174.977 404.797 Q174.977 410.376 171.505 413.478 Q168.033 416.556 161.714 416.556 Q159.538 416.556 157.269 416.186 Q155.024 415.815 152.616 415.075 L152.616 410.376 Q154.7 411.51 156.922 412.065 Q159.144 412.621 161.621 412.621 Q165.626 412.621 167.964 410.515 Q170.302 408.408 170.302 404.797 Q170.302 401.186 167.964 399.079 Q165.626 396.973 161.621 396.973 Q159.746 396.973 157.871 397.39 Q156.019 397.806 154.075 398.686 L154.075 381.325 Z" fill="#000000" fill-rule="evenodd" fill-opacity="1" /><path clip-path="url(#clip070)" d="M184.19 410.005 L189.075 410.005 L189.075 415.885 L184.19 415.885 L184.19 410.005 Z" fill="#000000" fill-rule="evenodd" fill-opacity="1" /><path clip-path="url(#clip070)" d="M209.26 384.404 Q205.649 384.404 203.82 387.968 Q202.014 391.51 202.014 398.64 Q202.014 405.746 203.82 409.311 Q205.649 412.853 209.26 412.853 Q212.894 412.853 214.699 409.311 Q216.528 405.746 216.528 398.64 Q216.528 391.51 214.699 387.968 Q212.894 384.404 209.26 384.404 M209.26 380.7 Q215.07 380.7 218.125 385.306 Q221.204 389.89 221.204 398.64 Q221.204 407.366 218.125 411.973 Q215.07 416.556 209.26 416.556 Q203.449 416.556 200.371 411.973 Q197.315 407.366 197.315 398.64 Q197.315 389.89 200.371 385.306 Q203.449 380.7 209.26 380.7 Z" fill="#000000" fill-rule="evenodd" fill-opacity="1" /><path clip-path="url(#clip070)" d="M239.422 384.404 Q235.81 384.404 233.982 387.968 Q232.176 391.51 232.176 398.64 Q232.176 405.746 233.982 409.311 Q235.81 412.853 239.422 412.853 Q243.056 412.853 244.861 409.311 Q246.69 405.746 246.69 398.64 Q246.69 391.51 244.861 387.968 Q243.056 384.404 239.422 384.404 M239.422 380.7 Q245.232 380.7 248.287 385.306 Q251.366 389.89 251.366 398.64 Q251.366 407.366 248.287 411.973 Q245.232 416.556 239.422 416.556 Q233.611 416.556 230.533 411.973 Q227.477 407.366 227.477 398.64 Q227.477 389.89 230.533 385.306 Q233.611 380.7 239.422 380.7 Z" fill="#000000" fill-rule="evenodd" fill-opacity="1" /><path clip-path="url(#clip070)" d="M287.755 390.422 L277.176 401.047 L287.755 411.626 L285 414.427 L274.375 403.802 L263.75 414.427 L261.019 411.626 L271.574 401.047 L261.019 390.422 L263.75 387.621 L274.375 398.246 L285 387.621 L287.755 390.422 Z" fill="#000000" fill-rule="evenodd" fill-opacity="1" /><path clip-path="url(#clip070)" d="M300.116 411.95 L307.754 411.95 L307.754 385.584 L299.444 387.251 L299.444 382.992 L307.708 381.325 L312.384 381.325 L312.384 411.95 L320.023 411.95 L320.023 415.885 L300.116 415.885 L300.116 411.95 Z" fill="#000000" fill-rule="evenodd" fill-opacity="1" /><path clip-path="url(#clip070)" d="M339.467 384.404 Q335.856 384.404 334.027 387.968 Q332.222 391.51 332.222 398.64 Q332.222 405.746 334.027 409.311 Q335.856 412.853 339.467 412.853 Q343.102 412.853 344.907 409.311 Q346.736 405.746 346.736 398.64 Q346.736 391.51 344.907 387.968 Q343.102 384.404 339.467 384.404 M339.467 380.7 Q345.277 380.7 348.333 385.306 Q351.412 389.89 351.412 398.64 Q351.412 407.366 348.333 411.973 Q345.277 416.556 339.467 416.556 Q333.657 416.556 330.578 411.973 Q327.523 407.366 327.523 398.64 Q327.523 389.89 330.578 385.306 Q333.657 380.7 339.467 380.7 Z" fill="#000000" fill-rule="evenodd" fill-opacity="1" /><path clip-path="url(#clip070)" d="M351.412 374.801 L375.523 374.801 L375.523 377.999 L351.412 377.999 L351.412 374.801 Z" fill="#000000" fill-rule="evenodd" fill-opacity="1" /><path clip-path="url(#clip070)" d="M392.319 372.92 Q389.761 372.92 388.256 374.67 Q386.77 376.419 386.77 379.466 Q386.77 382.494 388.256 384.262 Q389.761 386.011 392.319 386.011 Q394.876 386.011 396.362 384.262 Q397.867 382.494 397.867 379.466 Q397.867 376.419 396.362 374.67 Q394.876 372.92 392.319 372.92 M399.86 361.015 L399.86 364.476 Q398.431 363.799 396.964 363.441 Q395.516 363.084 394.086 363.084 Q390.325 363.084 388.331 365.623 Q386.357 368.162 386.074 373.297 Q387.184 371.66 388.858 370.795 Q390.532 369.911 392.544 369.911 Q396.776 369.911 399.221 372.488 Q401.685 375.046 401.685 379.466 Q401.685 383.791 399.127 386.406 Q396.569 389.02 392.319 389.02 Q387.447 389.02 384.871 385.296 Q382.294 381.553 382.294 374.463 Q382.294 367.805 385.454 363.855 Q388.613 359.887 393.936 359.887 Q395.365 359.887 396.814 360.169 Q398.281 360.451 399.86 361.015 Z" fill="#000000" fill-rule="evenodd" fill-opacity="1" /><path clip-path="url(#clip070)" d="M389.74 71.7314 Q386.129 71.7314 384.301 75.2962 Q382.495 78.8378 382.495 85.9674 Q382.495 93.0739 384.301 96.6387 Q386.129 100.18 389.74 100.18 Q393.375 100.18 395.18 96.6387 Q397.009 93.0739 397.009 85.9674 Q397.009 78.8378 395.18 75.2962 Q393.375 71.7314 389.74 71.7314 M389.74 68.0277 Q395.551 68.0277 398.606 72.6342 Q401.685 77.2175 401.685 85.9674 Q401.685 94.6942 398.606 99.3007 Q395.551 103.884 389.74 103.884 Q383.93 103.884 380.852 99.3007 Q377.796 94.6942 377.796 85.9674 Q377.796 77.2175 380.852 72.6342 Q383.93 68.0277 389.74 68.0277 Z" fill="#000000" fill-rule="evenodd" fill-opacity="1" /><path clip-path="url(#clip070)" d="M33.8307 1138.81 Q33.2578 1139.8 33.0032 1140.98 Q32.7167 1142.12 32.7167 1143.52 Q32.7167 1148.49 35.9632 1151.16 Q39.1779 1153.8 45.2253 1153.8 L64.0042 1153.8 L64.0042 1159.69 L28.3562 1159.69 L28.3562 1153.8 L33.8944 1153.8 Q30.6479 1151.96 29.0883 1149 Q27.4968 1146.04 27.4968 1141.81 Q27.4968 1141.2 27.5923 1140.47 Q27.656 1139.74 27.8151 1138.85 L33.8307 1138.81 Z" fill="#000000" fill-rule="evenodd" fill-opacity="1" /><path clip-path="url(#clip070)" d="M46.0847 1116.47 Q46.0847 1123.57 47.7079 1126.31 Q49.3312 1129.04 53.2461 1129.04 Q56.3653 1129.04 58.2114 1127.01 Q60.0256 1124.94 60.0256 1121.4 Q60.0256 1116.53 56.5881 1113.61 Q53.1188 1110.65 47.3897 1110.65 L46.0847 1110.65 L46.0847 1116.47 M43.6657 1104.79 L64.0042 1104.79 L64.0042 1110.65 L58.5933 1110.65 Q61.8398 1112.65 63.3994 1115.64 Q64.9272 1118.63 64.9272 1122.96 Q64.9272 1128.44 61.8716 1131.68 Q58.7843 1134.9 53.6281 1134.9 Q47.6125 1134.9 44.5569 1130.89 Q41.5014 1126.85 41.5014 1118.86 L41.5014 1110.65 L40.9285 1110.65 Q36.8862 1110.65 34.6901 1113.32 Q32.4621 1115.96 32.4621 1120.77 Q32.4621 1123.82 33.1941 1126.72 Q33.9262 1129.62 35.3903 1132.29 L29.9795 1132.29 Q28.7381 1129.07 28.1334 1126.05 Q27.4968 1123.03 27.4968 1120.16 Q27.4968 1112.43 31.5072 1108.61 Q35.5176 1104.79 43.6657 1104.79 Z" fill="#000000" fill-rule="evenodd" fill-opacity="1" /><path clip-path="url(#clip070)" d="M28.3562 1092.73 L28.3562 1086.87 L64.0042 1086.87 L64.0042 1092.73 L28.3562 1092.73 M14.479 1092.73 L14.479 1086.87 L21.895 1086.87 L21.895 1092.73 L14.479 1092.73 Z" fill="#000000" fill-rule="evenodd" fill-opacity="1" /><path clip-path="url(#clip070)" d="M42.4881 1044.98 L64.0042 1044.98 L64.0042 1050.84 L42.679 1050.84 Q37.6183 1050.84 35.1038 1052.81 Q32.5894 1054.79 32.5894 1058.73 Q32.5894 1063.48 35.6131 1066.21 Q38.6368 1068.95 43.8567 1068.95 L64.0042 1068.95 L64.0042 1074.84 L28.3562 1074.84 L28.3562 1068.95 L33.8944 1068.95 Q30.6797 1066.85 29.0883 1064.02 Q27.4968 1061.15 27.4968 1057.43 Q27.4968 1051.29 31.3163 1048.13 Q35.1038 1044.98 42.4881 1044.98 Z" fill="#000000" fill-rule="evenodd" fill-opacity="1" /><path clip-path="url(#clip070)" d="M44.7161 982.09 L47.5806 982.09 L47.5806 1009.02 Q53.6281 1008.63 56.8109 1005.39 Q59.9619 1002.11 59.9619 996.286 Q59.9619 992.912 59.1344 989.761 Q58.3069 986.578 56.6518 983.459 L62.1899 983.459 Q63.5267 986.61 64.227 989.92 Q64.9272 993.23 64.9272 996.636 Q64.9272 1005.17 59.9619 1010.16 Q54.9967 1015.13 46.5303 1015.13 Q37.7774 1015.13 32.6531 1010.42 Q27.4968 1005.67 27.4968 997.654 Q27.4968 990.461 32.1438 986.291 Q36.7589 982.09 44.7161 982.09 M42.9973 987.946 Q38.1912 988.01 35.3266 990.652 Q32.4621 993.262 32.4621 997.59 Q32.4621 1002.49 35.2312 1005.45 Q38.0002 1008.38 43.0292 1008.83 L42.9973 987.946 Z" fill="#000000" fill-rule="evenodd" fill-opacity="1" /><path clip-path="url(#clip070)" d="M28.3562 976.679 L28.3562 970.473 L58.275 959.333 L28.3562 948.193 L28.3562 941.986 L64.0042 955.354 L64.0042 963.311 L28.3562 976.679 Z" fill="#000000" fill-rule="evenodd" fill-opacity="1" /><path clip-path="url(#clip070)" d="M46.0847 917.701 Q46.0847 924.799 47.7079 927.536 Q49.3312 930.273 53.2461 930.273 Q56.3653 930.273 58.2114 928.236 Q60.0256 926.167 60.0256 922.634 Q60.0256 917.765 56.5881 914.836 Q53.1188 911.876 47.3897 911.876 L46.0847 911.876 L46.0847 917.701 M43.6657 906.02 L64.0042 906.02 L64.0042 911.876 L58.5933 911.876 Q61.8398 913.881 63.3994 916.873 Q64.9272 919.865 64.9272 924.194 Q64.9272 929.668 61.8716 932.915 Q58.7843 936.13 53.6281 936.13 Q47.6125 936.13 44.5569 932.119 Q41.5014 928.077 41.5014 920.088 L41.5014 911.876 L40.9285 911.876 Q36.8862 911.876 34.6901 914.55 Q32.4621 917.192 32.4621 921.998 Q32.4621 925.053 33.1941 927.95 Q33.9262 930.846 35.3903 933.52 L29.9795 933.52 Q28.7381 930.305 28.1334 927.281 Q27.4968 924.258 27.4968 921.393 Q27.4968 913.659 31.5072 909.839 Q35.5176 906.02 43.6657 906.02 Z" fill="#000000" fill-rule="evenodd" fill-opacity="1" /><path clip-path="url(#clip070)" d="M58.657 888.291 L77.5631 888.291 L77.5631 894.18 L28.3562 894.18 L28.3562 888.291 L33.7671 888.291 Q30.5842 886.445 29.0564 883.644 Q27.4968 880.812 27.4968 876.897 Q27.4968 870.404 32.6531 866.361 Q37.8093 862.287 46.212 862.287 Q54.6147 862.287 59.771 866.361 Q64.9272 870.404 64.9272 876.897 Q64.9272 880.812 63.3994 883.644 Q61.8398 886.445 58.657 888.291 M46.212 868.367 Q39.7508 868.367 36.0905 871.04 Q32.3984 873.682 32.3984 878.329 Q32.3984 882.976 36.0905 885.65 Q39.7508 888.291 46.212 888.291 Q52.6732 888.291 56.3653 885.65 Q60.0256 882.976 60.0256 878.329 Q60.0256 873.682 56.3653 871.04 Q52.6732 868.367 46.212 868.367 Z" fill="#000000" fill-rule="evenodd" fill-opacity="1" /><path clip-path="url(#clip070)" d="M32.4621 838.766 Q32.4621 843.477 36.1542 846.214 Q39.8145 848.951 46.212 848.951 Q52.6095 848.951 56.3017 846.246 Q59.9619 843.509 59.9619 838.766 Q59.9619 834.087 56.2698 831.35 Q52.5777 828.613 46.212 828.613 Q39.8781 828.613 36.186 831.35 Q32.4621 834.087 32.4621 838.766 M27.4968 838.766 Q27.4968 831.127 32.4621 826.767 Q37.4273 822.406 46.212 822.406 Q54.9649 822.406 59.9619 826.767 Q64.9272 831.127 64.9272 838.766 Q64.9272 846.437 59.9619 850.797 Q54.9649 855.126 46.212 855.126 Q37.4273 855.126 32.4621 850.797 Q27.4968 846.437 27.4968 838.766 Z" fill="#000000" fill-rule="evenodd" fill-opacity="1" /><path clip-path="url(#clip070)" d="M33.8307 792.042 Q33.2578 793.028 33.0032 794.206 Q32.7167 795.352 32.7167 796.752 Q32.7167 801.718 35.9632 804.391 Q39.1779 807.033 45.2253 807.033 L64.0042 807.033 L64.0042 812.921 L28.3562 812.921 L28.3562 807.033 L33.8944 807.033 Q30.6479 805.187 29.0883 802.227 Q27.4968 799.267 27.4968 795.034 Q27.4968 794.429 27.5923 793.697 Q27.656 792.965 27.8151 792.074 L33.8307 792.042 Z" fill="#000000" fill-rule="evenodd" fill-opacity="1" /><path clip-path="url(#clip070)" d="M46.0847 769.698 Q46.0847 776.796 47.7079 779.533 Q49.3312 782.27 53.2461 782.27 Q56.3653 782.27 58.2114 780.233 Q60.0256 778.165 60.0256 774.632 Q60.0256 769.762 56.5881 766.834 Q53.1188 763.874 47.3897 763.874 L46.0847 763.874 L46.0847 769.698 M43.6657 758.017 L64.0042 758.017 L64.0042 763.874 L58.5933 763.874 Q61.8398 765.879 63.3994 768.871 Q64.9272 771.863 64.9272 776.191 Q64.9272 781.666 61.8716 784.912 Q58.7843 788.127 53.6281 788.127 Q47.6125 788.127 44.5569 784.117 Q41.5014 780.074 41.5014 772.085 L41.5014 763.874 L40.9285 763.874 Q36.8862 763.874 34.6901 766.547 Q32.4621 769.189 32.4621 773.995 Q32.4621 777.051 33.1941 779.947 Q33.9262 782.843 35.3903 785.517 L29.9795 785.517 Q28.7381 782.302 28.1334 779.279 Q27.4968 776.255 27.4968 773.39 Q27.4968 765.656 31.5072 761.837 Q35.5176 758.017 43.6657 758.017 Z" fill="#000000" fill-rule="evenodd" fill-opacity="1" /><path clip-path="url(#clip070)" d="M18.2347 740.161 L28.3562 740.161 L28.3562 728.098 L32.9077 728.098 L32.9077 740.161 L52.2594 740.161 Q56.6199 740.161 57.8613 738.984 Q59.1026 737.774 59.1026 734.114 L59.1026 728.098 L64.0042 728.098 L64.0042 734.114 Q64.0042 740.893 61.4897 743.471 Q58.9434 746.05 52.2594 746.05 L32.9077 746.05 L32.9077 750.346 L28.3562 750.346 L28.3562 746.05 L18.2347 746.05 L18.2347 740.161 Z" fill="#000000" fill-rule="evenodd" fill-opacity="1" /><path clip-path="url(#clip070)" d="M28.3562 720.396 L28.3562 714.539 L64.0042 714.539 L64.0042 720.396 L28.3562 720.396 M14.479 720.396 L14.479 714.539 L21.895 714.539 L21.895 720.396 L14.479 720.396 Z" fill="#000000" fill-rule="evenodd" fill-opacity="1" /><path clip-path="url(#clip070)" d="M32.4621 688.472 Q32.4621 693.182 36.1542 695.92 Q39.8145 698.657 46.212 698.657 Q52.6095 698.657 56.3017 695.951 Q59.9619 693.214 59.9619 688.472 Q59.9619 683.793 56.2698 681.056 Q52.5777 678.318 46.212 678.318 Q39.8781 678.318 36.186 681.056 Q32.4621 683.793 32.4621 688.472 M27.4968 688.472 Q27.4968 680.833 32.4621 676.472 Q37.4273 672.112 46.212 672.112 Q54.9649 672.112 59.9619 676.472 Q64.9272 680.833 64.9272 688.472 Q64.9272 696.142 59.9619 700.503 Q54.9649 704.832 46.212 704.832 Q37.4273 704.832 32.4621 700.503 Q27.4968 696.142 27.4968 688.472 Z" fill="#000000" fill-rule="evenodd" fill-opacity="1" /><path clip-path="url(#clip070)" d="M42.4881 632.772 L64.0042 632.772 L64.0042 638.628 L42.679 638.628 Q37.6183 638.628 35.1038 640.602 Q32.5894 642.575 32.5894 646.522 Q32.5894 651.264 35.6131 654.001 Q38.6368 656.739 43.8567 656.739 L64.0042 656.739 L64.0042 662.627 L28.3562 662.627 L28.3562 656.739 L33.8944 656.739 Q30.6797 654.638 29.0883 651.805 Q27.4968 648.941 27.4968 645.217 Q27.4968 639.074 31.3163 635.923 Q35.1038 632.772 42.4881 632.772 Z" fill="#000000" fill-rule="evenodd" fill-opacity="1" /><path clip-path="url(#clip070)" d="M33.8307 579.714 Q33.2578 580.7 33.0032 581.878 Q32.7167 583.024 32.7167 584.424 Q32.7167 589.39 35.9632 592.063 Q39.1779 594.705 45.2253 594.705 L64.0042 594.705 L64.0042 600.593 L28.3562 600.593 L28.3562 594.705 L33.8944 594.705 Q30.6479 592.859 29.0883 589.899 Q27.4968 586.939 27.4968 582.706 Q27.4968 582.101 27.5923 581.369 Q27.656 580.637 27.8151 579.745 L33.8307 579.714 Z" fill="#000000" fill-rule="evenodd" fill-opacity="1" /><path clip-path="url(#clip070)" d="M46.0847 557.37 Q46.0847 564.468 47.7079 567.205 Q49.3312 569.942 53.2461 569.942 Q56.3653 569.942 58.2114 567.905 Q60.0256 565.836 60.0256 562.303 Q60.0256 557.434 56.5881 554.505 Q53.1188 551.545 47.3897 551.545 L46.0847 551.545 L46.0847 557.37 M43.6657 545.689 L64.0042 545.689 L64.0042 551.545 L58.5933 551.545 Q61.8398 553.551 63.3994 556.542 Q64.9272 559.534 64.9272 563.863 Q64.9272 569.338 61.8716 572.584 Q58.7843 575.799 53.6281 575.799 Q47.6125 575.799 44.5569 571.788 Q41.5014 567.746 41.5014 559.757 L41.5014 551.545 L40.9285 551.545 Q36.8862 551.545 34.6901 554.219 Q32.4621 556.861 32.4621 561.667 Q32.4621 564.722 33.1941 567.619 Q33.9262 570.515 35.3903 573.189 L29.9795 573.189 Q28.7381 569.974 28.1334 566.95 Q27.4968 563.927 27.4968 561.062 Q27.4968 553.328 31.5072 549.508 Q35.5176 545.689 43.6657 545.689 Z" fill="#000000" fill-rule="evenodd" fill-opacity="1" /><path clip-path="url(#clip070)" d="M18.2347 527.833 L28.3562 527.833 L28.3562 515.77 L32.9077 515.77 L32.9077 527.833 L52.2594 527.833 Q56.6199 527.833 57.8613 526.656 Q59.1026 525.446 59.1026 521.786 L59.1026 515.77 L64.0042 515.77 L64.0042 521.786 Q64.0042 528.565 61.4897 531.143 Q58.9434 533.721 52.2594 533.721 L32.9077 533.721 L32.9077 538.018 L28.3562 538.018 L28.3562 533.721 L18.2347 533.721 L18.2347 527.833 Z" fill="#000000" fill-rule="evenodd" fill-opacity="1" /><path clip-path="url(#clip070)" d="M44.7161 477.576 L47.5806 477.576 L47.5806 504.503 Q53.6281 504.121 56.8109 500.874 Q59.9619 497.596 59.9619 491.771 Q59.9619 488.398 59.1344 485.247 Q58.3069 482.064 56.6518 478.945 L62.1899 478.945 Q63.5267 482.096 64.227 485.406 Q64.9272 488.716 64.9272 492.122 Q64.9272 500.652 59.9619 505.649 Q54.9967 510.614 46.5303 510.614 Q37.7774 510.614 32.6531 505.903 Q27.4968 501.161 27.4968 493.14 Q27.4968 485.947 32.1438 481.777 Q36.7589 477.576 44.7161 477.576 M42.9973 483.432 Q38.1912 483.496 35.3266 486.138 Q32.4621 488.748 32.4621 493.076 Q32.4621 497.978 35.2312 500.938 Q38.0002 503.866 43.0292 504.312 L42.9973 483.432 Z" fill="#000000" fill-rule="evenodd" fill-opacity="1" /><path clip-path="url(#clip070)" d="M14.479 447.784 L14.479 434.289 L19.0304 434.289 L19.0304 441.928 L68.0464 441.928 L68.0464 434.289 L72.5979 434.289 L72.5979 447.784 L14.479 447.784 Z" fill="#000000" fill-rule="evenodd" fill-opacity="1" /><path clip-path="url(#clip070)" d="M58.5933 419.871 L58.5933 409.367 L22.3406 409.367 L24.6323 420.794 L18.7758 420.794 L16.4842 409.431 L16.4842 403.002 L58.5933 403.002 L58.5933 392.498 L64.0042 392.498 L64.0042 419.871 L58.5933 419.871 Z" fill="#000000" fill-rule="evenodd" fill-opacity="1" /><path clip-path="url(#clip070)" d="M16.4842 369.932 L16.4842 364.521 L70.0516 381.072 L70.0516 386.483 L16.4842 369.932 Z" fill="#000000" fill-rule="evenodd" fill-opacity="1" /><path clip-path="url(#clip070)" d="M29.4065 335.652 L34.9447 335.652 Q33.6716 338.135 33.035 340.809 Q32.3984 343.482 32.3984 346.347 Q32.3984 350.707 33.7352 352.904 Q35.072 355.068 37.7456 355.068 Q39.7826 355.068 40.9603 353.508 Q42.1061 351.949 43.1565 347.238 L43.6021 345.233 Q44.9389 338.994 47.3897 336.385 Q49.8086 333.743 54.1691 333.743 Q59.1344 333.743 62.0308 337.69 Q64.9272 341.604 64.9272 348.479 Q64.9272 351.344 64.3543 354.463 Q63.8132 357.551 62.6992 360.988 L56.6518 360.988 Q58.3387 357.741 59.198 354.59 Q60.0256 351.439 60.0256 348.352 Q60.0256 344.214 58.6251 341.986 Q57.1929 339.758 54.6147 339.758 Q52.2276 339.758 50.9545 341.382 Q49.6813 342.973 48.5037 348.416 L48.0262 350.453 Q46.8804 355.895 44.5251 358.314 Q42.138 360.733 38.0002 360.733 Q32.9713 360.733 30.2341 357.169 Q27.4968 353.604 27.4968 347.047 Q27.4968 343.801 27.9743 340.936 Q28.4517 338.071 29.4065 335.652 Z" fill="#000000" fill-rule="evenodd" fill-opacity="1" /><path clip-path="url(#clip070)" d="M14.479 310.731 L72.5979 310.731 L72.5979 324.226 L68.0464 324.226 L68.0464 316.619 L19.0304 316.619 L19.0304 324.226 L14.479 324.226 L14.479 310.731 Z" fill="#000000" fill-rule="evenodd" fill-opacity="1" /><polyline clip-path="url(#clip072)" style="stroke:#009af9; stroke-linecap:round; stroke-linejoin:round; stroke-width:12; stroke-opacity:1; fill:none" points="
  491.885,86.3091 510.134,150.346 528.383,186.286 546.633,216.19 564.882,242.768 583.131,267.126 601.38,289.856 619.629,311.319 637.879,331.755 656.128,351.335 
  674.377,370.187 692.626,388.407 710.875,406.072 729.125,423.245 747.374,439.975 765.623,456.304 783.872,472.27 802.121,487.901 820.371,503.224 838.62,518.263 
  856.869,533.037 875.118,547.564 893.367,561.859 911.617,575.938 929.866,589.811 948.115,603.492 966.364,616.989 984.613,630.314 1002.86,643.473 1021.11,656.476 
  1039.36,669.328 1057.61,682.038 1075.86,694.611 1094.11,707.053 1112.36,719.37 1130.61,731.565 1148.86,743.644 1167.11,755.612 1185.35,767.471 1203.6,779.227 
  1221.85,790.882 1240.1,802.44 1258.35,813.904 1276.6,825.277 1294.85,836.563 1313.1,847.763 1331.35,858.88 1349.6,869.916 1367.85,880.875 1386.1,891.757 
  1404.34,902.566 1422.59,913.302 1440.84,923.969 1459.09,934.568 1477.34,945.1 1495.59,955.567 1513.84,965.971 1532.09,976.313 1550.34,986.595 1568.59,996.818 
  1586.84,1006.98 1605.09,1017.09 1623.34,1027.15 1641.58,1037.15 1659.83,1047.09 1678.08,1056.99 1696.33,1066.84 1714.58,1076.63 1732.83,1086.38 1751.08,1096.08 
  1769.33,1105.73 1787.58,1115.34 1805.83,1124.9 1824.08,1134.42 1842.33,1143.9 1860.57,1153.33 1878.82,1162.72 1897.07,1172.07 1915.32,1181.38 1933.57,1190.65 
  1951.82,1199.88 1970.07,1209.08 1988.32,1218.23 2006.57,1227.35 2024.82,1236.43 2043.07,1245.48 2061.32,1254.49 2079.57,1263.47 2097.81,1272.41 2116.06,1281.32 
  2134.31,1290.19 2152.56,1299.03 2170.81,1307.85 2189.06,1316.62 2207.31,1325.37 2225.56,1334.09 2243.81,1342.78 2262.06,1351.43 2280.31,1360.06 2298.56,1368.66 
  
  "/>
<polyline clip-path="url(#clip072)" style="stroke:#e26f46; stroke-linecap:round; stroke-linejoin:round; stroke-width:12; stroke-opacity:1; fill:none" points="
  491.885,86.1857 510.134,140.732 528.383,173.427 546.633,201.178 564.882,226.163 583.131,249.285 601.38,271.03 619.629,291.696 637.879,311.483 656.128,330.535 
  674.377,348.958 692.626,366.834 710.875,384.227 729.125,401.191 747.374,417.768 765.623,433.994 783.872,449.9 802.121,465.511 820.371,480.851 838.62,495.939 
  856.869,510.793 875.118,525.427 893.367,539.855 911.617,554.09 929.866,568.143 948.115,582.023 966.364,595.739 984.613,609.3 1002.86,622.713 1021.11,635.985 
  1039.36,649.122 1057.61,662.131 1075.86,675.016 1094.11,687.783 1112.36,700.436 1130.61,712.98 1148.86,725.418 1167.11,737.756 1185.35,749.995 1203.6,762.14 
  1221.85,774.194 1240.1,786.159 1258.35,798.039 1276.6,809.835 1294.85,821.552 1313.1,833.19 1331.35,844.753 1349.6,856.242 1367.85,867.66 1386.1,879.008 
  1404.34,890.288 1422.59,901.503 1440.84,912.653 1459.09,923.74 1477.34,934.766 1495.59,945.733 1513.84,956.641 1532.09,967.493 1550.34,978.288 1568.59,989.03 
  1586.84,999.718 1605.09,1010.35 1623.34,1020.94 1641.58,1031.48 1659.83,1041.96 1678.08,1052.4 1696.33,1062.79 1714.58,1073.14 1732.83,1083.44 1751.08,1093.7 
  1769.33,1103.91 1787.58,1114.08 1805.83,1124.21 1824.08,1134.3 1842.33,1144.35 1860.57,1154.36 1878.82,1164.33 1897.07,1174.26 1915.32,1184.16 1933.57,1194.01 
  1951.82,1203.84 1970.07,1213.62 1988.32,1223.37 2006.57,1233.09 2024.82,1242.77 2043.07,1252.42 2061.32,1262.03 2079.57,1271.61 2097.81,1281.17 2116.06,1290.68 
  2134.31,1300.17 2152.56,1309.63 2170.81,1319.06 2189.06,1328.46 2207.31,1337.82 2225.56,1347.16 2243.81,1356.47 2262.06,1365.76 2280.31,1375.01 2298.56,1384.24 
  
  "/>
<path clip-path="url(#clip070)" d="
M1700.44 248.629 L2288.92 248.629 L2288.92 93.1086 L1700.44 93.1086  Z
  " fill="#ffffff" fill-rule="evenodd" fill-opacity="1"/>
<polyline clip-path="url(#clip070)" style="stroke:#000000; stroke-linecap:round; stroke-linejoin:round; stroke-width:4; stroke-opacity:1; fill:none" points="
  1700.44,248.629 2288.92,248.629 2288.92,93.1086 1700.44,93.1086 1700.44,248.629 
  "/>
<polyline clip-path="url(#clip070)" style="stroke:#009af9; stroke-linecap:round; stroke-linejoin:round; stroke-width:4; stroke-opacity:1; fill:none" points="
  1721.72,144.949 1849.39,144.949 
  "/>
<path clip-path="url(#clip070)" d="M1898.54 130.331 L1898.54 135.261 Q1896.18 133.062 1893.49 131.974 Q1890.83 130.886 1887.82 130.886 Q1881.9 130.886 1878.75 134.52 Q1875.6 138.132 1875.6 144.983 Q1875.6 151.812 1878.75 155.446 Q1881.9 159.057 1887.82 159.057 Q1890.83 159.057 1893.49 157.969 Q1896.18 156.881 1898.54 154.682 L1898.54 159.567 Q1896.09 161.233 1893.33 162.067 Q1890.6 162.9 1887.55 162.9 Q1879.7 162.9 1875.18 158.108 Q1870.67 153.293 1870.67 144.983 Q1870.67 136.65 1875.18 131.858 Q1879.7 127.044 1887.55 127.044 Q1890.65 127.044 1893.38 127.877 Q1896.13 128.687 1898.54 130.331 Z" fill="#000000" fill-rule="evenodd" fill-opacity="1" /><path clip-path="url(#clip070)" d="M1905.58 126.21 L1909.84 126.21 L1909.84 162.229 L1905.58 162.229 L1905.58 126.21 Z" fill="#000000" fill-rule="evenodd" fill-opacity="1" /><path clip-path="url(#clip070)" d="M1918.75 136.303 L1923.01 136.303 L1923.01 162.229 L1918.75 162.229 L1918.75 136.303 M1918.75 126.21 L1923.01 126.21 L1923.01 131.604 L1918.75 131.604 L1918.75 126.21 Z" fill="#000000" fill-rule="evenodd" fill-opacity="1" /><path clip-path="url(#clip070)" d="M1952.11 141.28 Q1953.7 138.409 1955.92 137.044 Q1958.15 135.678 1961.16 135.678 Q1965.21 135.678 1967.41 138.525 Q1969.61 141.349 1969.61 146.581 L1969.61 162.229 L1965.32 162.229 L1965.32 146.719 Q1965.32 142.993 1964 141.187 Q1962.68 139.382 1959.98 139.382 Q1956.67 139.382 1954.74 141.581 Q1952.82 143.78 1952.82 147.576 L1952.82 162.229 L1948.54 162.229 L1948.54 146.719 Q1948.54 142.969 1947.22 141.187 Q1945.9 139.382 1943.15 139.382 Q1939.88 139.382 1937.96 141.604 Q1936.04 143.803 1936.04 147.576 L1936.04 162.229 L1931.76 162.229 L1931.76 136.303 L1936.04 136.303 L1936.04 140.331 Q1937.5 137.946 1939.54 136.812 Q1941.57 135.678 1944.37 135.678 Q1947.2 135.678 1949.17 137.113 Q1951.16 138.548 1952.11 141.28 Z" fill="#000000" fill-rule="evenodd" fill-opacity="1" /><path clip-path="url(#clip070)" d="M1989.88 149.196 Q1984.72 149.196 1982.73 150.377 Q1980.74 151.557 1980.74 154.405 Q1980.74 156.673 1982.22 158.016 Q1983.73 159.335 1986.3 159.335 Q1989.84 159.335 1991.97 156.835 Q1994.12 154.312 1994.12 150.145 L1994.12 149.196 L1989.88 149.196 M1998.38 147.437 L1998.38 162.229 L1994.12 162.229 L1994.12 158.293 Q1992.66 160.655 1990.48 161.789 Q1988.31 162.9 1985.16 162.9 Q1981.18 162.9 1978.82 160.678 Q1976.48 158.432 1976.48 154.682 Q1976.48 150.307 1979.4 148.085 Q1982.34 145.863 1988.15 145.863 L1994.12 145.863 L1994.12 145.446 Q1994.12 142.507 1992.17 140.909 Q1990.25 139.289 1986.76 139.289 Q1984.54 139.289 1982.43 139.821 Q1980.32 140.354 1978.38 141.419 L1978.38 137.483 Q1980.72 136.581 1982.92 136.141 Q1985.11 135.678 1987.2 135.678 Q1992.82 135.678 1995.6 138.594 Q1998.38 141.511 1998.38 147.437 Z" fill="#000000" fill-rule="evenodd" fill-opacity="1" /><path clip-path="url(#clip070)" d="M2011.36 128.942 L2011.36 136.303 L2020.14 136.303 L2020.14 139.613 L2011.36 139.613 L2011.36 153.687 Q2011.36 156.858 2012.22 157.761 Q2013.1 158.664 2015.76 158.664 L2020.14 158.664 L2020.14 162.229 L2015.76 162.229 Q2010.83 162.229 2008.96 160.4 Q2007.08 158.548 2007.08 153.687 L2007.08 139.613 L2003.96 139.613 L2003.96 136.303 L2007.08 136.303 L2007.08 128.942 L2011.36 128.942 Z" fill="#000000" fill-rule="evenodd" fill-opacity="1" /><path clip-path="url(#clip070)" d="M2047.92 148.201 L2047.92 150.284 L2028.33 150.284 Q2028.61 154.682 2030.97 156.997 Q2033.35 159.289 2037.59 159.289 Q2040.04 159.289 2042.34 158.687 Q2044.65 158.085 2046.92 156.881 L2046.92 160.909 Q2044.63 161.881 2042.22 162.391 Q2039.81 162.9 2037.34 162.9 Q2031.13 162.9 2027.5 159.289 Q2023.89 155.678 2023.89 149.52 Q2023.89 143.155 2027.31 139.428 Q2030.76 135.678 2036.6 135.678 Q2041.83 135.678 2044.86 139.057 Q2047.92 142.414 2047.92 148.201 M2043.66 146.951 Q2043.61 143.456 2041.69 141.372 Q2039.79 139.289 2036.64 139.289 Q2033.08 139.289 2030.92 141.303 Q2028.79 143.317 2028.47 146.974 L2043.66 146.951 Z" fill="#000000" fill-rule="evenodd" fill-opacity="1" /><path clip-path="url(#clip070)" d="M2055.09 127.669 L2062.06 127.669 L2070.88 151.187 L2079.74 127.669 L2086.71 127.669 L2086.71 162.229 L2082.15 162.229 L2082.15 131.882 L2073.24 155.585 L2068.54 155.585 L2059.63 131.882 L2059.63 162.229 L2055.09 162.229 L2055.09 127.669 Z" fill="#000000" fill-rule="evenodd" fill-opacity="1" /><path clip-path="url(#clip070)" d="M2107.59 149.196 Q2102.43 149.196 2100.44 150.377 Q2098.45 151.557 2098.45 154.405 Q2098.45 156.673 2099.93 158.016 Q2101.43 159.335 2104 159.335 Q2107.54 159.335 2109.67 156.835 Q2111.83 154.312 2111.83 150.145 L2111.83 149.196 L2107.59 149.196 M2116.09 147.437 L2116.09 162.229 L2111.83 162.229 L2111.83 158.293 Q2110.37 160.655 2108.19 161.789 Q2106.02 162.9 2102.87 162.9 Q2098.89 162.9 2096.53 160.678 Q2094.19 158.432 2094.19 154.682 Q2094.19 150.307 2097.1 148.085 Q2100.04 145.863 2105.85 145.863 L2111.83 145.863 L2111.83 145.446 Q2111.83 142.507 2109.88 140.909 Q2107.96 139.289 2104.47 139.289 Q2102.24 139.289 2100.14 139.821 Q2098.03 140.354 2096.09 141.419 L2096.09 137.483 Q2098.42 136.581 2100.62 136.141 Q2102.82 135.678 2104.91 135.678 Q2110.53 135.678 2113.31 138.594 Q2116.09 141.511 2116.09 147.437 Z" fill="#000000" fill-rule="evenodd" fill-opacity="1" /><path clip-path="url(#clip070)" d="M2143.52 137.298 L2143.52 141.28 Q2141.71 140.284 2139.88 139.798 Q2138.08 139.289 2136.22 139.289 Q2132.08 139.289 2129.79 141.928 Q2127.5 144.544 2127.5 149.289 Q2127.5 154.034 2129.79 156.673 Q2132.08 159.289 2136.22 159.289 Q2138.08 159.289 2139.88 158.803 Q2141.71 158.293 2143.52 157.298 L2143.52 161.233 Q2141.73 162.067 2139.81 162.483 Q2137.91 162.9 2135.76 162.9 Q2129.91 162.9 2126.46 159.219 Q2123.01 155.539 2123.01 149.289 Q2123.01 142.946 2126.48 139.312 Q2129.97 135.678 2136.04 135.678 Q2138.01 135.678 2139.88 136.095 Q2141.76 136.488 2143.52 137.298 Z" fill="#000000" fill-rule="evenodd" fill-opacity="1" /><path clip-path="url(#clip070)" d="M2172.47 146.581 L2172.47 162.229 L2168.22 162.229 L2168.22 146.719 Q2168.22 143.039 2166.78 141.21 Q2165.34 139.382 2162.47 139.382 Q2159.03 139.382 2157.03 141.581 Q2155.04 143.78 2155.04 147.576 L2155.04 162.229 L2150.76 162.229 L2150.76 126.21 L2155.04 126.21 L2155.04 140.331 Q2156.57 137.993 2158.63 136.835 Q2160.72 135.678 2163.42 135.678 Q2167.89 135.678 2170.18 138.456 Q2172.47 141.21 2172.47 146.581 Z" fill="#000000" fill-rule="evenodd" fill-opacity="1" /><path clip-path="url(#clip070)" d="M2180.97 136.303 L2185.23 136.303 L2185.23 162.229 L2180.97 162.229 L2180.97 136.303 M2180.97 126.21 L2185.23 126.21 L2185.23 131.604 L2180.97 131.604 L2180.97 126.21 Z" fill="#000000" fill-rule="evenodd" fill-opacity="1" /><path clip-path="url(#clip070)" d="M2215.69 146.581 L2215.69 162.229 L2211.43 162.229 L2211.43 146.719 Q2211.43 143.039 2210 141.21 Q2208.56 139.382 2205.69 139.382 Q2202.24 139.382 2200.25 141.581 Q2198.26 143.78 2198.26 147.576 L2198.26 162.229 L2193.98 162.229 L2193.98 136.303 L2198.26 136.303 L2198.26 140.331 Q2199.79 137.993 2201.85 136.835 Q2203.93 135.678 2206.64 135.678 Q2211.11 135.678 2213.4 138.456 Q2215.69 141.21 2215.69 146.581 Z" fill="#000000" fill-rule="evenodd" fill-opacity="1" /><path clip-path="url(#clip070)" d="M2246.36 148.201 L2246.36 150.284 L2226.78 150.284 Q2227.06 154.682 2229.42 156.997 Q2231.8 159.289 2236.04 159.289 Q2238.49 159.289 2240.78 158.687 Q2243.1 158.085 2245.37 156.881 L2245.37 160.909 Q2243.08 161.881 2240.67 162.391 Q2238.26 162.9 2235.78 162.9 Q2229.58 162.9 2225.95 159.289 Q2222.34 155.678 2222.34 149.52 Q2222.34 143.155 2225.76 139.428 Q2229.21 135.678 2235.04 135.678 Q2240.28 135.678 2243.31 139.057 Q2246.36 142.414 2246.36 148.201 M2242.1 146.951 Q2242.06 143.456 2240.14 141.372 Q2238.24 139.289 2235.09 139.289 Q2231.53 139.289 2229.37 141.303 Q2227.24 143.317 2226.92 146.974 L2242.1 146.951 Z" fill="#000000" fill-rule="evenodd" fill-opacity="1" /><polyline clip-path="url(#clip070)" style="stroke:#e26f46; stroke-linecap:round; stroke-linejoin:round; stroke-width:4; stroke-opacity:1; fill:none" points="
  1721.72,196.789 1849.39,196.789 
  "/>
<path clip-path="url(#clip070)" d="M1894.7 200.041 L1894.7 202.124 L1875.12 202.124 Q1875.39 206.522 1877.75 208.837 Q1880.14 211.129 1884.37 211.129 Q1886.83 211.129 1889.12 210.527 Q1891.43 209.925 1893.7 208.721 L1893.7 212.749 Q1891.41 213.721 1889 214.231 Q1886.6 214.74 1884.12 214.74 Q1877.92 214.74 1874.28 211.129 Q1870.67 207.518 1870.67 201.36 Q1870.67 194.995 1874.1 191.268 Q1877.55 187.518 1883.38 187.518 Q1888.61 187.518 1891.64 190.897 Q1894.7 194.254 1894.7 200.041 M1890.44 198.791 Q1890.39 195.296 1888.47 193.212 Q1886.57 191.129 1883.43 191.129 Q1879.86 191.129 1877.71 193.143 Q1875.58 195.157 1875.25 198.814 L1890.44 198.791 Z" fill="#000000" fill-rule="evenodd" fill-opacity="1" /><path clip-path="url(#clip070)" d="M1921.87 193.12 Q1923.47 190.249 1925.69 188.884 Q1927.92 187.518 1930.92 187.518 Q1934.98 187.518 1937.17 190.365 Q1939.37 193.189 1939.37 198.421 L1939.37 214.069 L1935.09 214.069 L1935.09 198.559 Q1935.09 194.833 1933.77 193.027 Q1932.45 191.222 1929.74 191.222 Q1926.43 191.222 1924.51 193.421 Q1922.59 195.62 1922.59 199.416 L1922.59 214.069 L1918.31 214.069 L1918.31 198.559 Q1918.31 194.809 1916.99 193.027 Q1915.67 191.222 1912.92 191.222 Q1909.65 191.222 1907.73 193.444 Q1905.81 195.643 1905.81 199.416 L1905.81 214.069 L1901.53 214.069 L1901.53 188.143 L1905.81 188.143 L1905.81 192.171 Q1907.27 189.786 1909.3 188.652 Q1911.34 187.518 1914.14 187.518 Q1916.97 187.518 1918.93 188.953 Q1920.92 190.388 1921.87 193.12 Z" fill="#000000" fill-rule="evenodd" fill-opacity="1" /><path clip-path="url(#clip070)" d="M1951.99 210.18 L1951.99 223.93 L1947.71 223.93 L1947.71 188.143 L1951.99 188.143 L1951.99 192.078 Q1953.33 189.763 1955.37 188.652 Q1957.43 187.518 1960.28 187.518 Q1965 187.518 1967.94 191.268 Q1970.9 195.018 1970.9 201.129 Q1970.9 207.24 1967.94 210.99 Q1965 214.74 1960.28 214.74 Q1957.43 214.74 1955.37 213.629 Q1953.33 212.495 1951.99 210.18 M1966.48 201.129 Q1966.48 196.43 1964.54 193.768 Q1962.61 191.083 1959.23 191.083 Q1955.86 191.083 1953.91 193.768 Q1951.99 196.43 1951.99 201.129 Q1951.99 205.828 1953.91 208.513 Q1955.86 211.175 1959.23 211.175 Q1962.61 211.175 1964.54 208.513 Q1966.48 205.828 1966.48 201.129 Z" fill="#000000" fill-rule="evenodd" fill-opacity="1" /><path clip-path="url(#clip070)" d="M1977.96 188.143 L1982.22 188.143 L1982.22 214.069 L1977.96 214.069 L1977.96 188.143 M1977.96 178.05 L1982.22 178.05 L1982.22 183.444 L1977.96 183.444 L1977.96 178.05 Z" fill="#000000" fill-rule="evenodd" fill-opacity="1" /><path clip-path="url(#clip070)" d="M2006.16 192.124 Q2005.44 191.708 2004.58 191.522 Q2003.75 191.314 2002.73 191.314 Q1999.12 191.314 1997.17 193.675 Q1995.25 196.013 1995.25 200.411 L1995.25 214.069 L1990.97 214.069 L1990.97 188.143 L1995.25 188.143 L1995.25 192.171 Q1996.6 189.809 1998.75 188.675 Q2000.9 187.518 2003.98 187.518 Q2004.42 187.518 2004.95 187.587 Q2005.48 187.634 2006.13 187.749 L2006.16 192.124 Z" fill="#000000" fill-rule="evenodd" fill-opacity="1" /><path clip-path="url(#clip070)" d="M2010.62 188.143 L2014.88 188.143 L2014.88 214.069 L2010.62 214.069 L2010.62 188.143 M2010.62 178.05 L2014.88 178.05 L2014.88 183.444 L2010.62 183.444 L2010.62 178.05 Z" fill="#000000" fill-rule="evenodd" fill-opacity="1" /><path clip-path="url(#clip070)" d="M2042.45 189.138 L2042.45 193.12 Q2040.65 192.124 2038.82 191.638 Q2037.01 191.129 2035.16 191.129 Q2031.02 191.129 2028.73 193.768 Q2026.43 196.384 2026.43 201.129 Q2026.43 205.874 2028.73 208.513 Q2031.02 211.129 2035.16 211.129 Q2037.01 211.129 2038.82 210.643 Q2040.65 210.133 2042.45 209.138 L2042.45 213.073 Q2040.67 213.907 2038.75 214.323 Q2036.85 214.74 2034.7 214.74 Q2028.84 214.74 2025.39 211.059 Q2021.94 207.379 2021.94 201.129 Q2021.94 194.786 2025.42 191.152 Q2028.91 187.518 2034.98 187.518 Q2036.94 187.518 2038.82 187.935 Q2040.69 188.328 2042.45 189.138 Z" fill="#000000" fill-rule="evenodd" fill-opacity="1" /><path clip-path="url(#clip070)" d="M2061.64 201.036 Q2056.48 201.036 2054.49 202.217 Q2052.5 203.397 2052.5 206.245 Q2052.5 208.513 2053.98 209.856 Q2055.48 211.175 2058.05 211.175 Q2061.6 211.175 2063.73 208.675 Q2065.88 206.152 2065.88 201.985 L2065.88 201.036 L2061.64 201.036 M2070.14 199.277 L2070.14 214.069 L2065.88 214.069 L2065.88 210.133 Q2064.42 212.495 2062.24 213.629 Q2060.07 214.74 2056.92 214.74 Q2052.94 214.74 2050.58 212.518 Q2048.24 210.272 2048.24 206.522 Q2048.24 202.147 2051.16 199.925 Q2054.1 197.703 2059.91 197.703 L2065.88 197.703 L2065.88 197.286 Q2065.88 194.347 2063.93 192.749 Q2062.01 191.129 2058.52 191.129 Q2056.29 191.129 2054.19 191.661 Q2052.08 192.194 2050.14 193.259 L2050.14 189.323 Q2052.48 188.421 2054.67 187.981 Q2056.87 187.518 2058.96 187.518 Q2064.58 187.518 2067.36 190.434 Q2070.14 193.351 2070.14 199.277 Z" fill="#000000" fill-rule="evenodd" fill-opacity="1" /><path clip-path="url(#clip070)" d="M2078.91 178.05 L2083.17 178.05 L2083.17 214.069 L2078.91 214.069 L2078.91 178.05 Z" fill="#000000" fill-rule="evenodd" fill-opacity="1" /></svg>
