<?xml version="1.0" encoding="utf-8"?>
<svg xmlns="http://www.w3.org/2000/svg" xmlns:xlink="http://www.w3.org/1999/xlink" width="600" height="400" viewBox="0 0 2400 1600">
<defs>
  <clipPath id="clip020">
    <rect x="0" y="0" width="2400" height="1600"/>
  </clipPath>
</defs>
<path clip-path="url(#clip020)" d="M0 1600 L2400 1600 L2400 0 L0 0  Z" fill="#ffffff" fill-rule="evenodd" fill-opacity="1"/>
<defs>
  <clipPath id="clip021">
    <rect x="480" y="0" width="1681" height="1600"/>
  </clipPath>
</defs>
<path clip-path="url(#clip020)" d="M219.866 1423.18 L2352.76 1423.18 L2352.76 47.2441 L219.866 47.2441  Z" fill="#ffffff" fill-rule="evenodd" fill-opacity="1"/>
<defs>
  <clipPath id="clip022">
    <rect x="219" y="47" width="2134" height="1377"/>
  </clipPath>
</defs>
<polyline clip-path="url(#clip022)" style="stroke:#000000; stroke-linecap:round; stroke-linejoin:round; stroke-width:2; stroke-opacity:0.1; fill:none" points="280.231,1423.18 280.231,47.2441 "/>
<polyline clip-path="url(#clip022)" style="stroke:#000000; stroke-linecap:round; stroke-linejoin:round; stroke-width:2; stroke-opacity:0.1; fill:none" points="682.663,1423.18 682.663,47.2441 "/>
<polyline clip-path="url(#clip022)" style="stroke:#000000; stroke-linecap:round; stroke-linejoin:round; stroke-width:2; stroke-opacity:0.1; fill:none" points="1085.1,1423.18 1085.1,47.2441 "/>
<polyline clip-path="url(#clip022)" style="stroke:#000000; stroke-linecap:round; stroke-linejoin:round; stroke-width:2; stroke-opacity:0.1; fill:none" points="1487.53,1423.18 1487.53,47.2441 "/>
<polyline clip-path="url(#clip022)" style="stroke:#000000; stroke-linecap:round; stroke-linejoin:round; stroke-width:2; stroke-opacity:0.1; fill:none" points="1889.96,1423.18 1889.96,47.2441 "/>
<polyline clip-path="url(#clip022)" style="stroke:#000000; stroke-linecap:round; stroke-linejoin:round; stroke-width:2; stroke-opacity:0.1; fill:none" points="2292.39,1423.18 2292.39,47.2441 "/>
<polyline clip-path="url(#clip022)" style="stroke:#000000; stroke-linecap:round; stroke-linejoin:round; stroke-width:2; stroke-opacity:0.1; fill:none" points="219.866,1333.81 2352.76,1333.81 "/>
<polyline clip-path="url(#clip022)" style="stroke:#000000; stroke-linecap:round; stroke-linejoin:round; stroke-width:2; stroke-opacity:0.1; fill:none" points="219.866,1125.44 2352.76,1125.44 "/>
<polyline clip-path="url(#clip022)" style="stroke:#000000; stroke-linecap:round; stroke-linejoin:round; stroke-width:2; stroke-opacity:0.1; fill:none" points="219.866,917.073 2352.76,917.073 "/>
<polyline clip-path="url(#clip022)" style="stroke:#000000; stroke-linecap:round; stroke-linejoin:round; stroke-width:2; stroke-opacity:0.1; fill:none" points="219.866,708.702 2352.76,708.702 "/>
<polyline clip-path="url(#clip022)" style="stroke:#000000; stroke-linecap:round; stroke-linejoin:round; stroke-width:2; stroke-opacity:0.1; fill:none" points="219.866,500.331 2352.76,500.331 "/>
<polyline clip-path="url(#clip022)" style="stroke:#000000; stroke-linecap:round; stroke-linejoin:round; stroke-width:2; stroke-opacity:0.1; fill:none" points="219.866,291.96 2352.76,291.96 "/>
<polyline clip-path="url(#clip022)" style="stroke:#000000; stroke-linecap:round; stroke-linejoin:round; stroke-width:2; stroke-opacity:0.1; fill:none" points="219.866,83.5897 2352.76,83.5897 "/>
<polyline clip-path="url(#clip020)" style="stroke:#000000; stroke-linecap:round; stroke-linejoin:round; stroke-width:4; stroke-opacity:1; fill:none" points="219.866,1423.18 2352.76,1423.18 "/>
<polyline clip-path="url(#clip020)" style="stroke:#000000; stroke-linecap:round; stroke-linejoin:round; stroke-width:4; stroke-opacity:1; fill:none" points="280.231,1423.18 280.231,1404.28 "/>
<polyline clip-path="url(#clip020)" style="stroke:#000000; stroke-linecap:round; stroke-linejoin:round; stroke-width:4; stroke-opacity:1; fill:none" points="682.663,1423.18 682.663,1404.28 "/>
<polyline clip-path="url(#clip020)" style="stroke:#000000; stroke-linecap:round; stroke-linejoin:round; stroke-width:4; stroke-opacity:1; fill:none" points="1085.1,1423.18 1085.1,1404.28 "/>
<polyline clip-path="url(#clip020)" style="stroke:#000000; stroke-linecap:round; stroke-linejoin:round; stroke-width:4; stroke-opacity:1; fill:none" points="1487.53,1423.18 1487.53,1404.28 "/>
<polyline clip-path="url(#clip020)" style="stroke:#000000; stroke-linecap:round; stroke-linejoin:round; stroke-width:4; stroke-opacity:1; fill:none" points="1889.96,1423.18 1889.96,1404.28 "/>
<polyline clip-path="url(#clip020)" style="stroke:#000000; stroke-linecap:round; stroke-linejoin:round; stroke-width:4; stroke-opacity:1; fill:none" points="2292.39,1423.18 2292.39,1404.28 "/>
<path clip-path="url(#clip020)" d="M280.231 1454.1 Q276.62 1454.1 274.791 1457.66 Q272.986 1461.2 272.986 1468.33 Q272.986 1475.44 274.791 1479.01 Q276.62 1482.55 280.231 1482.55 Q283.865 1482.55 285.671 1479.01 Q287.5 1475.44 287.5 1468.33 Q287.5 1461.2 285.671 1457.66 Q283.865 1454.1 280.231 1454.1 M280.231 1450.39 Q286.041 1450.39 289.097 1455 Q292.175 1459.58 292.175 1468.33 Q292.175 1477.06 289.097 1481.67 Q286.041 1486.25 280.231 1486.25 Q274.421 1486.25 271.342 1481.67 Q268.287 1477.06 268.287 1468.33 Q268.287 1459.58 271.342 1455 Q274.421 1450.39 280.231 1450.39 Z" fill="#000000" fill-rule="nonzero" fill-opacity="1" /><path clip-path="url(#clip020)" d="M627.189 1481.64 L634.828 1481.64 L634.828 1455.28 L626.518 1456.95 L626.518 1452.69 L634.781 1451.02 L639.457 1451.02 L639.457 1481.64 L647.096 1481.64 L647.096 1485.58 L627.189 1485.58 L627.189 1481.64 Z" fill="#000000" fill-rule="nonzero" fill-opacity="1" /><path clip-path="url(#clip020)" d="M666.54 1454.1 Q662.929 1454.1 661.101 1457.66 Q659.295 1461.2 659.295 1468.33 Q659.295 1475.44 661.101 1479.01 Q662.929 1482.55 666.54 1482.55 Q670.175 1482.55 671.98 1479.01 Q673.809 1475.44 673.809 1468.33 Q673.809 1461.2 671.98 1457.66 Q670.175 1454.1 666.54 1454.1 M666.54 1450.39 Q672.351 1450.39 675.406 1455 Q678.485 1459.58 678.485 1468.33 Q678.485 1477.06 675.406 1481.67 Q672.351 1486.25 666.54 1486.25 Q660.73 1486.25 657.652 1481.67 Q654.596 1477.06 654.596 1468.33 Q654.596 1459.58 657.652 1455 Q660.73 1450.39 666.54 1450.39 Z" fill="#000000" fill-rule="nonzero" fill-opacity="1" /><path clip-path="url(#clip020)" d="M696.702 1454.1 Q693.091 1454.1 691.263 1457.66 Q689.457 1461.2 689.457 1468.33 Q689.457 1475.44 691.263 1479.01 Q693.091 1482.55 696.702 1482.55 Q700.337 1482.55 702.142 1479.01 Q703.971 1475.44 703.971 1468.33 Q703.971 1461.2 702.142 1457.66 Q700.337 1454.1 696.702 1454.1 M696.702 1450.39 Q702.513 1450.39 705.568 1455 Q708.647 1459.58 708.647 1468.33 Q708.647 1477.06 705.568 1481.67 Q702.513 1486.25 696.702 1486.25 Q690.892 1486.25 687.814 1481.67 Q684.758 1477.06 684.758 1468.33 Q684.758 1459.58 687.814 1455 Q690.892 1450.39 696.702 1450.39 Z" fill="#000000" fill-rule="nonzero" fill-opacity="1" /><path clip-path="url(#clip020)" d="M726.864 1454.1 Q723.253 1454.1 721.424 1457.66 Q719.619 1461.2 719.619 1468.33 Q719.619 1475.44 721.424 1479.01 Q723.253 1482.55 726.864 1482.55 Q730.498 1482.55 732.304 1479.01 Q734.133 1475.44 734.133 1468.33 Q734.133 1461.2 732.304 1457.66 Q730.498 1454.1 726.864 1454.1 M726.864 1450.39 Q732.674 1450.39 735.73 1455 Q738.809 1459.58 738.809 1468.33 Q738.809 1477.06 735.73 1481.67 Q732.674 1486.25 726.864 1486.25 Q721.054 1486.25 717.975 1481.67 Q714.92 1477.06 714.92 1468.33 Q714.92 1459.58 717.975 1455 Q721.054 1450.39 726.864 1450.39 Z" fill="#000000" fill-rule="nonzero" fill-opacity="1" /><path clip-path="url(#clip020)" d="M1033.71 1481.64 L1050.03 1481.64 L1050.03 1485.58 L1028.08 1485.58 L1028.08 1481.64 Q1030.74 1478.89 1035.33 1474.26 Q1039.93 1469.61 1041.11 1468.27 Q1043.36 1465.74 1044.24 1464.01 Q1045.14 1462.25 1045.14 1460.56 Q1045.14 1457.8 1043.2 1456.07 Q1041.28 1454.33 1038.17 1454.33 Q1035.97 1454.33 1033.52 1455.09 Q1031.09 1455.86 1028.31 1457.41 L1028.31 1452.69 Q1031.14 1451.55 1033.59 1450.97 Q1036.04 1450.39 1038.08 1450.39 Q1043.45 1450.39 1046.65 1453.08 Q1049.84 1455.77 1049.84 1460.26 Q1049.84 1462.39 1049.03 1464.31 Q1048.24 1466.2 1046.14 1468.8 Q1045.56 1469.47 1042.46 1472.69 Q1039.35 1475.88 1033.71 1481.64 Z" fill="#000000" fill-rule="nonzero" fill-opacity="1" /><path clip-path="url(#clip020)" d="M1069.84 1454.1 Q1066.23 1454.1 1064.4 1457.66 Q1062.6 1461.2 1062.6 1468.33 Q1062.6 1475.44 1064.4 1479.01 Q1066.23 1482.55 1069.84 1482.55 Q1073.47 1482.55 1075.28 1479.01 Q1077.11 1475.44 1077.11 1468.33 Q1077.11 1461.2 1075.28 1457.66 Q1073.47 1454.1 1069.84 1454.1 M1069.84 1450.39 Q1075.65 1450.39 1078.71 1455 Q1081.78 1459.58 1081.78 1468.33 Q1081.78 1477.06 1078.71 1481.67 Q1075.65 1486.25 1069.84 1486.25 Q1064.03 1486.25 1060.95 1481.67 Q1057.9 1477.06 1057.9 1468.33 Q1057.9 1459.58 1060.95 1455 Q1064.03 1450.39 1069.84 1450.39 Z" fill="#000000" fill-rule="nonzero" fill-opacity="1" /><path clip-path="url(#clip020)" d="M1100 1454.1 Q1096.39 1454.1 1094.56 1457.66 Q1092.76 1461.2 1092.76 1468.33 Q1092.76 1475.44 1094.56 1479.01 Q1096.39 1482.55 1100 1482.55 Q1103.64 1482.55 1105.44 1479.01 Q1107.27 1475.44 1107.27 1468.33 Q1107.27 1461.2 1105.44 1457.66 Q1103.64 1454.1 1100 1454.1 M1100 1450.39 Q1105.81 1450.39 1108.87 1455 Q1111.95 1459.58 1111.95 1468.33 Q1111.95 1477.06 1108.87 1481.67 Q1105.81 1486.25 1100 1486.25 Q1094.19 1486.25 1091.11 1481.67 Q1088.06 1477.06 1088.06 1468.33 Q1088.06 1459.58 1091.11 1455 Q1094.19 1450.39 1100 1450.39 Z" fill="#000000" fill-rule="nonzero" fill-opacity="1" /><path clip-path="url(#clip020)" d="M1130.16 1454.1 Q1126.55 1454.1 1124.72 1457.66 Q1122.92 1461.2 1122.92 1468.33 Q1122.92 1475.44 1124.72 1479.01 Q1126.55 1482.55 1130.16 1482.55 Q1133.8 1482.55 1135.6 1479.01 Q1137.43 1475.44 1137.43 1468.33 Q1137.43 1461.2 1135.6 1457.66 Q1133.8 1454.1 1130.16 1454.1 M1130.16 1450.39 Q1135.97 1450.39 1139.03 1455 Q1142.11 1459.58 1142.11 1468.33 Q1142.11 1477.06 1139.03 1481.67 Q1135.97 1486.25 1130.16 1486.25 Q1124.35 1486.25 1121.28 1481.67 Q1118.22 1477.06 1118.22 1468.33 Q1118.22 1459.58 1121.28 1455 Q1124.35 1450.39 1130.16 1450.39 Z" fill="#000000" fill-rule="nonzero" fill-opacity="1" /><path clip-path="url(#clip020)" d="M1446.21 1466.95 Q1449.56 1467.66 1451.44 1469.93 Q1453.34 1472.2 1453.34 1475.53 Q1453.34 1480.65 1449.82 1483.45 Q1446.3 1486.25 1439.82 1486.25 Q1437.64 1486.25 1435.33 1485.81 Q1433.04 1485.39 1430.58 1484.54 L1430.58 1480.02 Q1432.53 1481.16 1434.84 1481.74 Q1437.16 1482.32 1439.68 1482.32 Q1444.08 1482.32 1446.37 1480.58 Q1448.68 1478.84 1448.68 1475.53 Q1448.68 1472.48 1446.53 1470.77 Q1444.4 1469.03 1440.58 1469.03 L1436.56 1469.03 L1436.56 1465.19 L1440.77 1465.19 Q1444.22 1465.19 1446.05 1463.82 Q1447.87 1462.43 1447.87 1459.84 Q1447.87 1457.18 1445.98 1455.77 Q1444.1 1454.33 1440.58 1454.33 Q1438.66 1454.33 1436.46 1454.75 Q1434.26 1455.16 1431.62 1456.04 L1431.62 1451.88 Q1434.29 1451.14 1436.6 1450.77 Q1438.94 1450.39 1441 1450.39 Q1446.32 1450.39 1449.43 1452.83 Q1452.53 1455.23 1452.53 1459.35 Q1452.53 1462.22 1450.88 1464.21 Q1449.24 1466.18 1446.21 1466.95 Z" fill="#000000" fill-rule="nonzero" fill-opacity="1" /><path clip-path="url(#clip020)" d="M1472.2 1454.1 Q1468.59 1454.1 1466.76 1457.66 Q1464.96 1461.2 1464.96 1468.33 Q1464.96 1475.44 1466.76 1479.01 Q1468.59 1482.55 1472.2 1482.55 Q1475.84 1482.55 1477.64 1479.01 Q1479.47 1475.44 1479.47 1468.33 Q1479.47 1461.2 1477.64 1457.66 Q1475.84 1454.1 1472.2 1454.1 M1472.2 1450.39 Q1478.01 1450.39 1481.07 1455 Q1484.15 1459.58 1484.15 1468.33 Q1484.15 1477.06 1481.07 1481.67 Q1478.01 1486.25 1472.2 1486.25 Q1466.39 1486.25 1463.31 1481.67 Q1460.26 1477.06 1460.26 1468.33 Q1460.26 1459.58 1463.31 1455 Q1466.39 1450.39 1472.2 1450.39 Z" fill="#000000" fill-rule="nonzero" fill-opacity="1" /><path clip-path="url(#clip020)" d="M1502.36 1454.1 Q1498.75 1454.1 1496.93 1457.66 Q1495.12 1461.2 1495.12 1468.33 Q1495.12 1475.44 1496.93 1479.01 Q1498.75 1482.55 1502.36 1482.55 Q1506 1482.55 1507.8 1479.01 Q1509.63 1475.44 1509.63 1468.33 Q1509.63 1461.2 1507.8 1457.66 Q1506 1454.1 1502.36 1454.1 M1502.36 1450.39 Q1508.18 1450.39 1511.23 1455 Q1514.31 1459.58 1514.31 1468.33 Q1514.31 1477.06 1511.23 1481.67 Q1508.18 1486.25 1502.36 1486.25 Q1496.55 1486.25 1493.48 1481.67 Q1490.42 1477.06 1490.42 1468.33 Q1490.42 1459.58 1493.48 1455 Q1496.55 1450.39 1502.36 1450.39 Z" fill="#000000" fill-rule="nonzero" fill-opacity="1" /><path clip-path="url(#clip020)" d="M1532.53 1454.1 Q1528.92 1454.1 1527.09 1457.66 Q1525.28 1461.2 1525.28 1468.33 Q1525.28 1475.44 1527.09 1479.01 Q1528.92 1482.55 1532.53 1482.55 Q1536.16 1482.55 1537.97 1479.01 Q1539.8 1475.44 1539.8 1468.33 Q1539.8 1461.2 1537.97 1457.66 Q1536.16 1454.1 1532.53 1454.1 M1532.53 1450.39 Q1538.34 1450.39 1541.39 1455 Q1544.47 1459.58 1544.47 1468.33 Q1544.47 1477.06 1541.39 1481.67 Q1538.34 1486.25 1532.53 1486.25 Q1526.72 1486.25 1523.64 1481.67 Q1520.58 1477.06 1520.58 1468.33 Q1520.58 1459.58 1523.64 1455 Q1526.72 1450.39 1532.53 1450.39 Z" fill="#000000" fill-rule="nonzero" fill-opacity="1" /><path clip-path="url(#clip020)" d="M1847.97 1455.09 L1836.16 1473.54 L1847.97 1473.54 L1847.97 1455.09 M1846.74 1451.02 L1852.62 1451.02 L1852.62 1473.54 L1857.55 1473.54 L1857.55 1477.43 L1852.62 1477.43 L1852.62 1485.58 L1847.97 1485.58 L1847.97 1477.43 L1832.37 1477.43 L1832.37 1472.92 L1846.74 1451.02 Z" fill="#000000" fill-rule="nonzero" fill-opacity="1" /><path clip-path="url(#clip020)" d="M1875.28 1454.1 Q1871.67 1454.1 1869.84 1457.66 Q1868.04 1461.2 1868.04 1468.33 Q1868.04 1475.44 1869.84 1479.01 Q1871.67 1482.55 1875.28 1482.55 Q1878.92 1482.55 1880.72 1479.01 Q1882.55 1475.44 1882.55 1468.33 Q1882.55 1461.2 1880.72 1457.66 Q1878.92 1454.1 1875.28 1454.1 M1875.28 1450.39 Q1881.09 1450.39 1884.15 1455 Q1887.23 1459.58 1887.23 1468.33 Q1887.23 1477.06 1884.15 1481.67 Q1881.09 1486.25 1875.28 1486.25 Q1869.47 1486.25 1866.39 1481.67 Q1863.34 1477.06 1863.34 1468.33 Q1863.34 1459.58 1866.39 1455 Q1869.47 1450.39 1875.28 1450.39 Z" fill="#000000" fill-rule="nonzero" fill-opacity="1" /><path clip-path="url(#clip020)" d="M1905.45 1454.1 Q1901.83 1454.1 1900.01 1457.66 Q1898.2 1461.2 1898.2 1468.33 Q1898.2 1475.44 1900.01 1479.01 Q1901.83 1482.55 1905.45 1482.55 Q1909.08 1482.55 1910.88 1479.01 Q1912.71 1475.44 1912.71 1468.33 Q1912.71 1461.2 1910.88 1457.66 Q1909.08 1454.1 1905.45 1454.1 M1905.45 1450.39 Q1911.26 1450.39 1914.31 1455 Q1917.39 1459.58 1917.39 1468.33 Q1917.39 1477.06 1914.31 1481.67 Q1911.26 1486.25 1905.45 1486.25 Q1899.63 1486.25 1896.56 1481.67 Q1893.5 1477.06 1893.5 1468.33 Q1893.5 1459.58 1896.56 1455 Q1899.63 1450.39 1905.45 1450.39 Z" fill="#000000" fill-rule="nonzero" fill-opacity="1" /><path clip-path="url(#clip020)" d="M1935.61 1454.1 Q1932 1454.1 1930.17 1457.66 Q1928.36 1461.2 1928.36 1468.33 Q1928.36 1475.44 1930.17 1479.01 Q1932 1482.55 1935.61 1482.55 Q1939.24 1482.55 1941.05 1479.01 Q1942.88 1475.44 1942.88 1468.33 Q1942.88 1461.2 1941.05 1457.66 Q1939.24 1454.1 1935.61 1454.1 M1935.61 1450.39 Q1941.42 1450.39 1944.47 1455 Q1947.55 1459.58 1947.55 1468.33 Q1947.55 1477.06 1944.47 1481.67 Q1941.42 1486.25 1935.61 1486.25 Q1929.8 1486.25 1926.72 1481.67 Q1923.66 1477.06 1923.66 1468.33 Q1923.66 1459.58 1926.72 1455 Q1929.8 1450.39 1935.61 1450.39 Z" fill="#000000" fill-rule="nonzero" fill-opacity="1" /><path clip-path="url(#clip020)" d="M2236.93 1451.02 L2255.28 1451.02 L2255.28 1454.96 L2241.21 1454.96 L2241.21 1463.43 Q2242.23 1463.08 2243.25 1462.92 Q2244.27 1462.73 2245.28 1462.73 Q2251.07 1462.73 2254.45 1465.9 Q2257.83 1469.08 2257.83 1474.49 Q2257.83 1480.07 2254.36 1483.17 Q2250.89 1486.25 2244.57 1486.25 Q2242.39 1486.25 2240.12 1485.88 Q2237.88 1485.51 2235.47 1484.77 L2235.47 1480.07 Q2237.55 1481.2 2239.78 1481.76 Q2242 1482.32 2244.47 1482.32 Q2248.48 1482.32 2250.82 1480.21 Q2253.16 1478.1 2253.16 1474.49 Q2253.16 1470.88 2250.82 1468.77 Q2248.48 1466.67 2244.47 1466.67 Q2242.6 1466.67 2240.72 1467.08 Q2238.87 1467.5 2236.93 1468.38 L2236.93 1451.02 Z" fill="#000000" fill-rule="nonzero" fill-opacity="1" /><path clip-path="url(#clip020)" d="M2277.04 1454.1 Q2273.43 1454.1 2271.6 1457.66 Q2269.8 1461.2 2269.8 1468.33 Q2269.8 1475.44 2271.6 1479.01 Q2273.43 1482.55 2277.04 1482.55 Q2280.68 1482.55 2282.48 1479.01 Q2284.31 1475.44 2284.31 1468.33 Q2284.31 1461.2 2282.48 1457.66 Q2280.68 1454.1 2277.04 1454.1 M2277.04 1450.39 Q2282.85 1450.39 2285.91 1455 Q2288.99 1459.58 2288.99 1468.33 Q2288.99 1477.06 2285.91 1481.67 Q2282.85 1486.25 2277.04 1486.25 Q2271.23 1486.25 2268.16 1481.67 Q2265.1 1477.06 2265.1 1468.33 Q2265.1 1459.58 2268.16 1455 Q2271.23 1450.39 2277.04 1450.39 Z" fill="#000000" fill-rule="nonzero" fill-opacity="1" /><path clip-path="url(#clip020)" d="M2307.21 1454.1 Q2303.59 1454.1 2301.77 1457.66 Q2299.96 1461.2 2299.96 1468.33 Q2299.96 1475.44 2301.77 1479.01 Q2303.59 1482.55 2307.21 1482.55 Q2310.84 1482.55 2312.65 1479.01 Q2314.47 1475.44 2314.47 1468.33 Q2314.47 1461.2 2312.65 1457.66 Q2310.84 1454.1 2307.21 1454.1 M2307.21 1450.39 Q2313.02 1450.39 2316.07 1455 Q2319.15 1459.58 2319.15 1468.33 Q2319.15 1477.06 2316.07 1481.67 Q2313.02 1486.25 2307.21 1486.25 Q2301.4 1486.25 2298.32 1481.67 Q2295.26 1477.06 2295.26 1468.33 Q2295.26 1459.58 2298.32 1455 Q2301.4 1450.39 2307.21 1450.39 Z" fill="#000000" fill-rule="nonzero" fill-opacity="1" /><path clip-path="url(#clip020)" d="M2337.37 1454.1 Q2333.76 1454.1 2331.93 1457.66 Q2330.12 1461.2 2330.12 1468.33 Q2330.12 1475.44 2331.93 1479.01 Q2333.76 1482.55 2337.37 1482.55 Q2341 1482.55 2342.81 1479.01 Q2344.64 1475.44 2344.64 1468.33 Q2344.64 1461.2 2342.81 1457.66 Q2341 1454.1 2337.37 1454.1 M2337.37 1450.39 Q2343.18 1450.39 2346.23 1455 Q2349.31 1459.58 2349.31 1468.33 Q2349.31 1477.06 2346.23 1481.67 Q2343.18 1486.25 2337.37 1486.25 Q2331.56 1486.25 2328.48 1481.67 Q2325.42 1477.06 2325.42 1468.33 Q2325.42 1459.58 2328.48 1455 Q2331.56 1450.39 2337.37 1450.39 Z" fill="#000000" fill-rule="nonzero" fill-opacity="1" /><path clip-path="url(#clip020)" d="M531.863 1520.52 L541.444 1520.52 L553.571 1552.86 L565.761 1520.52 L575.341 1520.52 L575.341 1568.04 L569.071 1568.04 L569.071 1526.32 L556.817 1558.91 L550.356 1558.91 L538.102 1526.32 L538.102 1568.04 L531.863 1568.04 L531.863 1520.52 Z" fill="#000000" fill-rule="nonzero" fill-opacity="1" /><path clip-path="url(#clip020)" d="M601.663 1536.5 Q596.953 1536.5 594.216 1540.19 Q591.478 1543.85 591.478 1550.25 Q591.478 1556.65 594.184 1560.34 Q596.921 1564 601.663 1564 Q606.342 1564 609.079 1560.31 Q611.817 1556.62 611.817 1550.25 Q611.817 1543.92 609.079 1540.23 Q606.342 1536.5 601.663 1536.5 M601.663 1531.54 Q609.302 1531.54 613.663 1536.5 Q618.023 1541.47 618.023 1550.25 Q618.023 1559 613.663 1564 Q609.302 1568.97 601.663 1568.97 Q593.993 1568.97 589.632 1564 Q585.304 1559 585.304 1550.25 Q585.304 1541.47 589.632 1536.5 Q593.993 1531.54 601.663 1531.54 Z" fill="#000000" fill-rule="nonzero" fill-opacity="1" /><path clip-path="url(#clip020)" d="M651.189 1537.81 L651.189 1518.52 L657.045 1518.52 L657.045 1568.04 L651.189 1568.04 L651.189 1562.7 Q649.343 1565.88 646.51 1567.44 Q643.709 1568.97 639.762 1568.97 Q633.301 1568.97 629.227 1563.81 Q625.185 1558.65 625.185 1550.25 Q625.185 1541.85 629.227 1536.69 Q633.301 1531.54 639.762 1531.54 Q643.709 1531.54 646.51 1533.1 Q649.343 1534.62 651.189 1537.81 M631.232 1550.25 Q631.232 1556.71 633.874 1560.4 Q636.547 1564.07 641.194 1564.07 Q645.841 1564.07 648.515 1560.4 Q651.189 1556.71 651.189 1550.25 Q651.189 1543.79 648.515 1540.13 Q645.841 1536.44 641.194 1536.44 Q636.547 1536.44 633.874 1540.13 Q631.232 1543.79 631.232 1550.25 Z" fill="#000000" fill-rule="nonzero" fill-opacity="1" /><path clip-path="url(#clip020)" d="M699.6 1548.76 L699.6 1551.62 L672.673 1551.62 Q673.055 1557.67 676.301 1560.85 Q679.58 1564 685.404 1564 Q688.778 1564 691.929 1563.17 Q695.112 1562.35 698.231 1560.69 L698.231 1566.23 Q695.08 1567.57 691.77 1568.27 Q688.46 1568.97 685.054 1568.97 Q676.524 1568.97 671.527 1564 Q666.562 1559.04 666.562 1550.57 Q666.562 1541.82 671.272 1536.69 Q676.015 1531.54 684.036 1531.54 Q691.229 1531.54 695.398 1536.18 Q699.6 1540.8 699.6 1548.76 M693.743 1547.04 Q693.68 1542.23 691.038 1539.37 Q688.428 1536.5 684.099 1536.5 Q679.198 1536.5 676.238 1539.27 Q673.309 1542.04 672.864 1547.07 L693.743 1547.04 Z" fill="#000000" fill-rule="nonzero" fill-opacity="1" /><path clip-path="url(#clip020)" d="M736.298 1562.63 L758.737 1562.63 L758.737 1568.04 L728.564 1568.04 L728.564 1562.63 Q732.224 1558.85 738.526 1552.48 Q744.86 1546.08 746.483 1544.24 Q749.571 1540.77 750.78 1538.38 Q752.021 1535.96 752.021 1533.64 Q752.021 1529.85 749.348 1527.46 Q746.706 1525.08 742.441 1525.08 Q739.417 1525.08 736.043 1526.13 Q732.701 1527.18 728.882 1529.31 L728.882 1522.82 Q732.765 1521.26 736.139 1520.46 Q739.513 1519.66 742.314 1519.66 Q749.698 1519.66 754.09 1523.36 Q758.483 1527.05 758.483 1533.22 Q758.483 1536.15 757.369 1538.79 Q756.286 1541.4 753.39 1544.97 Q752.594 1545.89 748.329 1550.32 Q744.064 1554.71 736.298 1562.63 Z" fill="#000000" fill-rule="nonzero" fill-opacity="1" /><path clip-path="url(#clip020)" d="M808.326 1550.12 Q801.228 1550.12 798.491 1551.75 Q795.754 1553.37 795.754 1557.29 Q795.754 1560.4 797.791 1562.25 Q799.86 1564.07 803.393 1564.07 Q808.262 1564.07 811.191 1560.63 Q814.151 1557.16 814.151 1551.43 L814.151 1550.12 L808.326 1550.12 M820.007 1547.71 L820.007 1568.04 L814.151 1568.04 L814.151 1562.63 Q812.146 1565.88 809.154 1567.44 Q806.162 1568.97 801.833 1568.97 Q796.359 1568.97 793.112 1565.91 Q789.897 1562.82 789.897 1557.67 Q789.897 1551.65 793.908 1548.6 Q797.95 1545.54 805.939 1545.54 L814.151 1545.54 L814.151 1544.97 Q814.151 1540.93 811.477 1538.73 Q808.835 1536.5 804.029 1536.5 Q800.974 1536.5 798.077 1537.23 Q795.181 1537.97 792.507 1539.43 L792.507 1534.02 Q795.722 1532.78 798.746 1532.17 Q801.769 1531.54 804.634 1531.54 Q812.368 1531.54 816.188 1535.55 Q820.007 1539.56 820.007 1547.71 Z" fill="#000000" fill-rule="nonzero" fill-opacity="1" /><path clip-path="url(#clip020)" d="M862.562 1548.76 L862.562 1551.62 L835.635 1551.62 Q836.017 1557.67 839.263 1560.85 Q842.542 1564 848.366 1564 Q851.74 1564 854.891 1563.17 Q858.074 1562.35 861.193 1560.69 L861.193 1566.23 Q858.042 1567.57 854.732 1568.27 Q851.422 1568.97 848.016 1568.97 Q839.486 1568.97 834.489 1564 Q829.524 1559.04 829.524 1550.57 Q829.524 1541.82 834.235 1536.69 Q838.977 1531.54 846.998 1531.54 Q854.191 1531.54 858.361 1536.18 Q862.562 1540.8 862.562 1548.76 M856.705 1547.04 Q856.642 1542.23 854 1539.37 Q851.39 1536.5 847.061 1536.5 Q842.16 1536.5 839.2 1539.27 Q836.272 1542.04 835.826 1547.07 L856.705 1547.04 Z" fill="#000000" fill-rule="nonzero" fill-opacity="1" /><path clip-path="url(#clip020)" d="M892.831 1537.87 Q891.844 1537.3 890.667 1537.04 Q889.521 1536.76 888.12 1536.76 Q883.155 1536.76 880.481 1540 Q877.84 1543.22 877.84 1549.27 L877.84 1568.04 L871.951 1568.04 L871.951 1532.4 L877.84 1532.4 L877.84 1537.93 Q879.686 1534.69 882.646 1533.13 Q885.606 1531.54 889.839 1531.54 Q890.444 1531.54 891.176 1531.63 Q891.908 1531.7 892.799 1531.85 L892.831 1537.87 Z" fill="#000000" fill-rule="nonzero" fill-opacity="1" /><path clip-path="url(#clip020)" d="M911.355 1536.5 Q906.644 1536.5 903.907 1540.19 Q901.17 1543.85 901.17 1550.25 Q901.17 1556.65 903.875 1560.34 Q906.613 1564 911.355 1564 Q916.034 1564 918.771 1560.31 Q921.508 1556.62 921.508 1550.25 Q921.508 1543.92 918.771 1540.23 Q916.034 1536.5 911.355 1536.5 M911.355 1531.54 Q918.994 1531.54 923.354 1536.5 Q927.715 1541.47 927.715 1550.25 Q927.715 1559 923.354 1564 Q918.994 1568.97 911.355 1568.97 Q903.684 1568.97 899.324 1564 Q894.995 1559 894.995 1550.25 Q894.995 1541.47 899.324 1536.5 Q903.684 1531.54 911.355 1531.54 Z" fill="#000000" fill-rule="nonzero" fill-opacity="1" /><path clip-path="url(#clip020)" d="M960.148 1533.45 L960.148 1538.98 Q957.666 1537.71 954.992 1537.07 Q952.318 1536.44 949.454 1536.44 Q945.093 1536.44 942.897 1537.77 Q940.733 1539.11 940.733 1541.79 Q940.733 1543.82 942.292 1545 Q943.852 1546.15 948.563 1547.2 L950.568 1547.64 Q956.806 1548.98 959.416 1551.43 Q962.058 1553.85 962.058 1558.21 Q962.058 1563.17 958.111 1566.07 Q954.196 1568.97 947.321 1568.97 Q944.457 1568.97 941.338 1568.39 Q938.25 1567.85 934.813 1566.74 L934.813 1560.69 Q938.059 1562.38 941.21 1563.24 Q944.361 1564.07 947.449 1564.07 Q951.586 1564.07 953.814 1562.66 Q956.042 1561.23 956.042 1558.65 Q956.042 1556.27 954.419 1554.99 Q952.828 1553.72 947.385 1552.54 L945.348 1552.07 Q939.905 1550.92 937.486 1548.56 Q935.067 1546.18 935.067 1542.04 Q935.067 1537.01 938.632 1534.27 Q942.197 1531.54 948.754 1531.54 Q952 1531.54 954.865 1532.01 Q957.729 1532.49 960.148 1533.45 Z" fill="#000000" fill-rule="nonzero" fill-opacity="1" /><path clip-path="url(#clip020)" d="M985.197 1536.5 Q980.487 1536.5 977.749 1540.19 Q975.012 1543.85 975.012 1550.25 Q975.012 1556.65 977.718 1560.34 Q980.455 1564 985.197 1564 Q989.876 1564 992.613 1560.31 Q995.351 1556.62 995.351 1550.25 Q995.351 1543.92 992.613 1540.23 Q989.876 1536.5 985.197 1536.5 M985.197 1531.54 Q992.836 1531.54 997.197 1536.5 Q1001.56 1541.47 1001.56 1550.25 Q1001.56 1559 997.197 1564 Q992.836 1568.97 985.197 1568.97 Q977.527 1568.97 973.166 1564 Q968.837 1559 968.837 1550.25 Q968.837 1541.47 973.166 1536.5 Q977.527 1531.54 985.197 1531.54 Z" fill="#000000" fill-rule="nonzero" fill-opacity="1" /><path clip-path="url(#clip020)" d="M1011.26 1518.52 L1017.12 1518.52 L1017.12 1568.04 L1011.26 1568.04 L1011.26 1518.52 Z" fill="#000000" fill-rule="nonzero" fill-opacity="1" /><path clip-path="url(#clip020)" d="M1079.73 1546.53 L1079.73 1568.04 L1073.87 1568.04 L1073.87 1546.72 Q1073.87 1541.66 1071.9 1539.14 Q1069.92 1536.63 1065.98 1536.63 Q1061.24 1536.63 1058.5 1539.65 Q1055.76 1542.68 1055.76 1547.9 L1055.76 1568.04 L1049.87 1568.04 L1049.87 1532.4 L1055.76 1532.4 L1055.76 1537.93 Q1057.86 1534.72 1060.69 1533.13 Q1063.56 1531.54 1067.28 1531.54 Q1073.43 1531.54 1076.58 1535.36 Q1079.73 1539.14 1079.73 1546.53 Z" fill="#000000" fill-rule="nonzero" fill-opacity="1" /><path clip-path="url(#clip020)" d="M1090.8 1553.98 L1090.8 1532.4 L1096.66 1532.4 L1096.66 1553.75 Q1096.66 1558.81 1098.63 1561.36 Q1100.61 1563.87 1104.55 1563.87 Q1109.3 1563.87 1112.03 1560.85 Q1114.8 1557.83 1114.8 1552.61 L1114.8 1532.4 L1120.66 1532.4 L1120.66 1568.04 L1114.8 1568.04 L1114.8 1562.57 Q1112.67 1565.82 1109.84 1567.41 Q1107.04 1568.97 1103.31 1568.97 Q1097.17 1568.97 1093.99 1565.15 Q1090.8 1561.33 1090.8 1553.98 M1105.54 1531.54 L1105.54 1531.54 Z" fill="#000000" fill-rule="nonzero" fill-opacity="1" /><path clip-path="url(#clip020)" d="M1160.48 1539.24 Q1162.67 1535.29 1165.73 1533.41 Q1168.78 1531.54 1172.92 1531.54 Q1178.49 1531.54 1181.52 1535.45 Q1184.54 1539.33 1184.54 1546.53 L1184.54 1568.04 L1178.65 1568.04 L1178.65 1546.72 Q1178.65 1541.59 1176.84 1539.11 Q1175.02 1536.63 1171.3 1536.63 Q1166.75 1536.63 1164.11 1539.65 Q1161.46 1542.68 1161.46 1547.9 L1161.46 1568.04 L1155.58 1568.04 L1155.58 1546.72 Q1155.58 1541.56 1153.76 1539.11 Q1151.95 1536.63 1148.16 1536.63 Q1143.67 1536.63 1141.03 1539.68 Q1138.39 1542.71 1138.39 1547.9 L1138.39 1568.04 L1132.5 1568.04 L1132.5 1532.4 L1138.39 1532.4 L1138.39 1537.93 Q1140.39 1534.66 1143.19 1533.1 Q1145.99 1531.54 1149.85 1531.54 Q1153.73 1531.54 1156.43 1533.51 Q1159.17 1535.48 1160.48 1539.24 Z" fill="#000000" fill-rule="nonzero" fill-opacity="1" /><path clip-path="url(#clip020)" d="M1221.81 1550.25 Q1221.81 1543.79 1219.14 1540.13 Q1216.5 1536.44 1211.85 1536.44 Q1207.2 1536.44 1204.53 1540.13 Q1201.89 1543.79 1201.89 1550.25 Q1201.89 1556.71 1204.53 1560.4 Q1207.2 1564.07 1211.85 1564.07 Q1216.5 1564.07 1219.14 1560.4 Q1221.81 1556.71 1221.81 1550.25 M1201.89 1537.81 Q1203.73 1534.62 1206.53 1533.1 Q1209.37 1531.54 1213.28 1531.54 Q1219.77 1531.54 1223.82 1536.69 Q1227.89 1541.85 1227.89 1550.25 Q1227.89 1558.65 1223.82 1563.81 Q1219.77 1568.97 1213.28 1568.97 Q1209.37 1568.97 1206.53 1567.44 Q1203.73 1565.88 1201.89 1562.7 L1201.89 1568.04 L1196 1568.04 L1196 1518.52 L1201.89 1518.52 L1201.89 1537.81 Z" fill="#000000" fill-rule="nonzero" fill-opacity="1" /><path clip-path="url(#clip020)" d="M1268.09 1548.76 L1268.09 1551.62 L1241.16 1551.62 Q1241.54 1557.67 1244.79 1560.85 Q1248.07 1564 1253.89 1564 Q1257.27 1564 1260.42 1563.17 Q1263.6 1562.35 1266.72 1560.69 L1266.72 1566.23 Q1263.57 1567.57 1260.26 1568.27 Q1256.95 1568.97 1253.54 1568.97 Q1245.01 1568.97 1240.02 1564 Q1235.05 1559.04 1235.05 1550.57 Q1235.05 1541.82 1239.76 1536.69 Q1244.5 1531.54 1252.53 1531.54 Q1259.72 1531.54 1263.89 1536.18 Q1268.09 1540.8 1268.09 1548.76 M1262.23 1547.04 Q1262.17 1542.23 1259.53 1539.37 Q1256.92 1536.5 1252.59 1536.5 Q1247.69 1536.5 1244.73 1539.27 Q1241.8 1542.04 1241.35 1547.07 L1262.23 1547.04 Z" fill="#000000" fill-rule="nonzero" fill-opacity="1" /><path clip-path="url(#clip020)" d="M1298.36 1537.87 Q1297.37 1537.3 1296.19 1537.04 Q1295.05 1536.76 1293.65 1536.76 Q1288.68 1536.76 1286.01 1540 Q1283.37 1543.22 1283.37 1549.27 L1283.37 1568.04 L1277.48 1568.04 L1277.48 1532.4 L1283.37 1532.4 L1283.37 1537.93 Q1285.21 1534.69 1288.17 1533.13 Q1291.13 1531.54 1295.37 1531.54 Q1295.97 1531.54 1296.7 1531.63 Q1297.44 1531.7 1298.33 1531.85 L1298.36 1537.87 Z" fill="#000000" fill-rule="nonzero" fill-opacity="1" /><path clip-path="url(#clip020)" d="M1350.88 1533.76 L1350.88 1539.24 Q1348.39 1537.87 1345.88 1537.2 Q1343.4 1536.5 1340.85 1536.5 Q1335.15 1536.5 1332 1540.13 Q1328.85 1543.73 1328.85 1550.25 Q1328.85 1556.78 1332 1560.4 Q1335.15 1564 1340.85 1564 Q1343.4 1564 1345.88 1563.33 Q1348.39 1562.63 1350.88 1561.26 L1350.88 1566.68 Q1348.42 1567.82 1345.78 1568.39 Q1343.17 1568.97 1340.21 1568.97 Q1332.16 1568.97 1327.42 1563.91 Q1322.68 1558.85 1322.68 1550.25 Q1322.68 1541.53 1327.45 1536.53 Q1332.26 1531.54 1340.59 1531.54 Q1343.3 1531.54 1345.88 1532.11 Q1348.46 1532.65 1350.88 1533.76 Z" fill="#000000" fill-rule="nonzero" fill-opacity="1" /><path clip-path="url(#clip020)" d="M1374.87 1536.5 Q1370.16 1536.5 1367.43 1540.19 Q1364.69 1543.85 1364.69 1550.25 Q1364.69 1556.65 1367.39 1560.34 Q1370.13 1564 1374.87 1564 Q1379.55 1564 1382.29 1560.31 Q1385.03 1556.62 1385.03 1550.25 Q1385.03 1543.92 1382.29 1540.23 Q1379.55 1536.5 1374.87 1536.5 M1374.87 1531.54 Q1382.51 1531.54 1386.87 1536.5 Q1391.23 1541.47 1391.23 1550.25 Q1391.23 1559 1386.87 1564 Q1382.51 1568.97 1374.87 1568.97 Q1367.2 1568.97 1362.84 1564 Q1358.51 1559 1358.51 1550.25 Q1358.51 1541.47 1362.84 1536.5 Q1367.2 1531.54 1374.87 1531.54 Z" fill="#000000" fill-rule="nonzero" fill-opacity="1" /><path clip-path="url(#clip020)" d="M1430.57 1546.53 L1430.57 1568.04 L1424.72 1568.04 L1424.72 1546.72 Q1424.72 1541.66 1422.74 1539.14 Q1420.77 1536.63 1416.82 1536.63 Q1412.08 1536.63 1409.34 1539.65 Q1406.61 1542.68 1406.61 1547.9 L1406.61 1568.04 L1400.72 1568.04 L1400.72 1532.4 L1406.61 1532.4 L1406.61 1537.93 Q1408.71 1534.72 1411.54 1533.13 Q1414.41 1531.54 1418.13 1531.54 Q1424.27 1531.54 1427.42 1535.36 Q1430.57 1539.14 1430.57 1546.53 Z" fill="#000000" fill-rule="nonzero" fill-opacity="1" /><path clip-path="url(#clip020)" d="M1467.91 1533.76 L1467.91 1539.24 Q1465.43 1537.87 1462.91 1537.2 Q1460.43 1536.5 1457.88 1536.5 Q1452.19 1536.5 1449.03 1540.13 Q1445.88 1543.73 1445.88 1550.25 Q1445.88 1556.78 1449.03 1560.4 Q1452.19 1564 1457.88 1564 Q1460.43 1564 1462.91 1563.33 Q1465.43 1562.63 1467.91 1561.26 L1467.91 1566.68 Q1465.46 1567.82 1462.82 1568.39 Q1460.21 1568.97 1457.25 1568.97 Q1449.19 1568.97 1444.45 1563.91 Q1439.71 1558.85 1439.71 1550.25 Q1439.71 1541.53 1444.48 1536.53 Q1449.29 1531.54 1457.63 1531.54 Q1460.33 1531.54 1462.91 1532.11 Q1465.49 1532.65 1467.91 1533.76 Z" fill="#000000" fill-rule="nonzero" fill-opacity="1" /><path clip-path="url(#clip020)" d="M1508.59 1548.76 L1508.59 1551.62 L1481.66 1551.62 Q1482.04 1557.67 1485.29 1560.85 Q1488.57 1564 1494.39 1564 Q1497.76 1564 1500.91 1563.17 Q1504.1 1562.35 1507.22 1560.69 L1507.22 1566.23 Q1504.07 1567.57 1500.76 1568.27 Q1497.45 1568.97 1494.04 1568.97 Q1485.51 1568.97 1480.51 1564 Q1475.55 1559.04 1475.55 1550.57 Q1475.55 1541.82 1480.26 1536.69 Q1485 1531.54 1493.02 1531.54 Q1500.21 1531.54 1504.38 1536.18 Q1508.59 1540.8 1508.59 1548.76 M1502.73 1547.04 Q1502.67 1542.23 1500.02 1539.37 Q1497.41 1536.5 1493.09 1536.5 Q1488.18 1536.5 1485.22 1539.27 Q1482.3 1542.04 1481.85 1547.07 L1502.73 1547.04 Z" fill="#000000" fill-rule="nonzero" fill-opacity="1" /><path clip-path="url(#clip020)" d="M1547.83 1546.53 L1547.83 1568.04 L1541.97 1568.04 L1541.97 1546.72 Q1541.97 1541.66 1540 1539.14 Q1538.03 1536.63 1534.08 1536.63 Q1529.34 1536.63 1526.6 1539.65 Q1523.86 1542.68 1523.86 1547.9 L1523.86 1568.04 L1517.98 1568.04 L1517.98 1532.4 L1523.86 1532.4 L1523.86 1537.93 Q1525.96 1534.72 1528.8 1533.13 Q1531.66 1531.54 1535.39 1531.54 Q1541.53 1531.54 1544.68 1535.36 Q1547.83 1539.14 1547.83 1546.53 Z" fill="#000000" fill-rule="nonzero" fill-opacity="1" /><path clip-path="url(#clip020)" d="M1565.3 1522.27 L1565.3 1532.4 L1577.37 1532.4 L1577.37 1536.95 L1565.3 1536.95 L1565.3 1556.3 Q1565.3 1560.66 1566.48 1561.9 Q1567.69 1563.14 1571.35 1563.14 L1577.37 1563.14 L1577.37 1568.04 L1571.35 1568.04 Q1564.57 1568.04 1561.99 1565.53 Q1559.42 1562.98 1559.42 1556.3 L1559.42 1536.95 L1555.12 1536.95 L1555.12 1532.4 L1559.42 1532.4 L1559.42 1522.27 L1565.3 1522.27 Z" fill="#000000" fill-rule="nonzero" fill-opacity="1" /><path clip-path="url(#clip020)" d="M1605.73 1537.87 Q1604.74 1537.3 1603.56 1537.04 Q1602.42 1536.76 1601.02 1536.76 Q1596.05 1536.76 1593.38 1540 Q1590.74 1543.22 1590.74 1549.27 L1590.74 1568.04 L1584.85 1568.04 L1584.85 1532.4 L1590.74 1532.4 L1590.74 1537.93 Q1592.58 1534.69 1595.54 1533.13 Q1598.5 1531.54 1602.73 1531.54 Q1603.34 1531.54 1604.07 1531.63 Q1604.8 1531.7 1605.69 1531.85 L1605.73 1537.87 Z" fill="#000000" fill-rule="nonzero" fill-opacity="1" /><path clip-path="url(#clip020)" d="M1628.07 1550.12 Q1620.97 1550.12 1618.23 1551.75 Q1615.5 1553.37 1615.5 1557.29 Q1615.5 1560.4 1617.53 1562.25 Q1619.6 1564.07 1623.14 1564.07 Q1628.01 1564.07 1630.93 1560.63 Q1633.89 1557.16 1633.89 1551.43 L1633.89 1550.12 L1628.07 1550.12 M1639.75 1547.71 L1639.75 1568.04 L1633.89 1568.04 L1633.89 1562.63 Q1631.89 1565.88 1628.9 1567.44 Q1625.91 1568.97 1621.58 1568.97 Q1616.1 1568.97 1612.86 1565.91 Q1609.64 1562.82 1609.64 1557.67 Q1609.64 1551.65 1613.65 1548.6 Q1617.69 1545.54 1625.68 1545.54 L1633.89 1545.54 L1633.89 1544.97 Q1633.89 1540.93 1631.22 1538.73 Q1628.58 1536.5 1623.77 1536.5 Q1620.72 1536.5 1617.82 1537.23 Q1614.92 1537.97 1612.25 1539.43 L1612.25 1534.02 Q1615.47 1532.78 1618.49 1532.17 Q1621.51 1531.54 1624.38 1531.54 Q1632.11 1531.54 1635.93 1535.55 Q1639.75 1539.56 1639.75 1547.71 Z" fill="#000000" fill-rule="nonzero" fill-opacity="1" /><path clip-path="url(#clip020)" d="M1657.61 1522.27 L1657.61 1532.4 L1669.67 1532.4 L1669.67 1536.95 L1657.61 1536.95 L1657.61 1556.3 Q1657.61 1560.66 1658.78 1561.9 Q1659.99 1563.14 1663.65 1563.14 L1669.67 1563.14 L1669.67 1568.04 L1663.65 1568.04 Q1656.87 1568.04 1654.3 1565.53 Q1651.72 1562.98 1651.72 1556.3 L1651.72 1536.95 L1647.42 1536.95 L1647.42 1532.4 L1651.72 1532.4 L1651.72 1522.27 L1657.61 1522.27 Z" fill="#000000" fill-rule="nonzero" fill-opacity="1" /><path clip-path="url(#clip020)" d="M1677.37 1532.4 L1683.23 1532.4 L1683.23 1568.04 L1677.37 1568.04 L1677.37 1532.4 M1677.37 1518.52 L1683.23 1518.52 L1683.23 1525.93 L1677.37 1525.93 L1677.37 1518.52 Z" fill="#000000" fill-rule="nonzero" fill-opacity="1" /><path clip-path="url(#clip020)" d="M1709.3 1536.5 Q1704.59 1536.5 1701.85 1540.19 Q1699.11 1543.85 1699.11 1550.25 Q1699.11 1556.65 1701.82 1560.34 Q1704.55 1564 1709.3 1564 Q1713.98 1564 1716.71 1560.31 Q1719.45 1556.62 1719.45 1550.25 Q1719.45 1543.92 1716.71 1540.23 Q1713.98 1536.5 1709.3 1536.5 M1709.3 1531.54 Q1716.94 1531.54 1721.3 1536.5 Q1725.66 1541.47 1725.66 1550.25 Q1725.66 1559 1721.3 1564 Q1716.94 1568.97 1709.3 1568.97 Q1701.63 1568.97 1697.27 1564 Q1692.94 1559 1692.94 1550.25 Q1692.94 1541.47 1697.27 1536.5 Q1701.63 1531.54 1709.3 1531.54 Z" fill="#000000" fill-rule="nonzero" fill-opacity="1" /><path clip-path="url(#clip020)" d="M1765 1546.53 L1765 1568.04 L1759.14 1568.04 L1759.14 1546.72 Q1759.14 1541.66 1757.17 1539.14 Q1755.19 1536.63 1751.25 1536.63 Q1746.5 1536.63 1743.77 1539.65 Q1741.03 1542.68 1741.03 1547.9 L1741.03 1568.04 L1735.14 1568.04 L1735.14 1532.4 L1741.03 1532.4 L1741.03 1537.93 Q1743.13 1534.72 1745.96 1533.13 Q1748.83 1531.54 1752.55 1531.54 Q1758.69 1531.54 1761.85 1535.36 Q1765 1539.14 1765 1546.53 Z" fill="#000000" fill-rule="nonzero" fill-opacity="1" /><path clip-path="url(#clip020)" d="M1796.86 1518.52 L1810.35 1518.52 L1810.35 1523.07 L1802.71 1523.07 L1802.71 1572.09 L1810.35 1572.09 L1810.35 1576.64 L1796.86 1576.64 L1796.86 1518.52 Z" fill="#000000" fill-rule="nonzero" fill-opacity="1" /><path clip-path="url(#clip020)" d="M1824.77 1562.63 L1835.27 1562.63 L1835.27 1526.38 L1823.85 1528.67 L1823.85 1522.82 L1835.21 1520.52 L1841.64 1520.52 L1841.64 1562.63 L1852.14 1562.63 L1852.14 1568.04 L1824.77 1568.04 L1824.77 1562.63 Z" fill="#000000" fill-rule="nonzero" fill-opacity="1" /><path clip-path="url(#clip020)" d="M1874.71 1520.52 L1880.12 1520.52 L1863.57 1574.09 L1858.16 1574.09 L1874.71 1520.52 Z" fill="#000000" fill-rule="nonzero" fill-opacity="1" /><path clip-path="url(#clip020)" d="M1911.92 1533.76 L1911.92 1539.24 Q1909.43 1537.87 1906.92 1537.2 Q1904.44 1536.5 1901.89 1536.5 Q1896.19 1536.5 1893.04 1540.13 Q1889.89 1543.73 1889.89 1550.25 Q1889.89 1556.78 1893.04 1560.4 Q1896.19 1564 1901.89 1564 Q1904.44 1564 1906.92 1563.33 Q1909.43 1562.63 1911.92 1561.26 L1911.92 1566.68 Q1909.47 1567.82 1906.82 1568.39 Q1904.21 1568.97 1901.25 1568.97 Q1893.2 1568.97 1888.46 1563.91 Q1883.72 1558.85 1883.72 1550.25 Q1883.72 1541.53 1888.49 1536.53 Q1893.3 1531.54 1901.64 1531.54 Q1904.34 1531.54 1906.92 1532.11 Q1909.5 1532.65 1911.92 1533.76 Z" fill="#000000" fill-rule="nonzero" fill-opacity="1" /><path clip-path="url(#clip020)" d="M1949.86 1539.24 Q1952.05 1535.29 1955.11 1533.41 Q1958.16 1531.54 1962.3 1531.54 Q1967.87 1531.54 1970.9 1535.45 Q1973.92 1539.33 1973.92 1546.53 L1973.92 1568.04 L1968.03 1568.04 L1968.03 1546.72 Q1968.03 1541.59 1966.22 1539.11 Q1964.4 1536.63 1960.68 1536.63 Q1956.13 1536.63 1953.48 1539.65 Q1950.84 1542.68 1950.84 1547.9 L1950.84 1568.04 L1944.95 1568.04 L1944.95 1546.72 Q1944.95 1541.56 1943.14 1539.11 Q1941.33 1536.63 1937.54 1536.63 Q1933.05 1536.63 1930.41 1539.68 Q1927.77 1542.71 1927.77 1547.9 L1927.77 1568.04 L1921.88 1568.04 L1921.88 1532.4 L1927.77 1532.4 L1927.77 1537.93 Q1929.77 1534.66 1932.57 1533.1 Q1935.37 1531.54 1939.23 1531.54 Q1943.11 1531.54 1945.81 1533.51 Q1948.55 1535.48 1949.86 1539.24 Z" fill="#000000" fill-rule="nonzero" fill-opacity="1" /><path clip-path="url(#clip020)" d="M2005.91 1542.42 Q2010.52 1543.41 2013.1 1546.53 Q2015.71 1549.65 2015.71 1554.23 Q2015.71 1561.26 2010.87 1565.12 Q2006.03 1568.97 1997.12 1568.97 Q1994.13 1568.97 1990.95 1568.36 Q1987.8 1567.79 1984.42 1566.61 L1984.42 1560.4 Q1987.1 1561.96 1990.28 1562.76 Q1993.46 1563.56 1996.93 1563.56 Q2002.98 1563.56 2006.13 1561.17 Q2009.31 1558.78 2009.31 1554.23 Q2009.31 1550.03 2006.35 1547.67 Q2003.42 1545.29 1998.17 1545.29 L1992.63 1545.29 L1992.63 1540 L1998.43 1540 Q2003.17 1540 2005.68 1538.13 Q2008.2 1536.22 2008.2 1532.65 Q2008.2 1528.99 2005.59 1527.05 Q2003.01 1525.08 1998.17 1525.08 Q1995.53 1525.08 1992.51 1525.65 Q1989.48 1526.22 1985.85 1527.43 L1985.85 1521.7 Q1989.51 1520.68 1992.7 1520.17 Q1995.91 1519.66 1998.75 1519.66 Q2006.07 1519.66 2010.33 1523.01 Q2014.6 1526.32 2014.6 1531.98 Q2014.6 1535.93 2012.34 1538.67 Q2010.08 1541.37 2005.91 1542.42 Z" fill="#000000" fill-rule="nonzero" fill-opacity="1" /><path clip-path="url(#clip020)" d="M2040.76 1518.52 L2040.76 1576.64 L2027.26 1576.64 L2027.26 1572.09 L2034.87 1572.09 L2034.87 1523.07 L2027.26 1523.07 L2027.26 1518.52 L2040.76 1518.52 Z" fill="#000000" fill-rule="nonzero" fill-opacity="1" /><polyline clip-path="url(#clip020)" style="stroke:#000000; stroke-linecap:round; stroke-linejoin:round; stroke-width:4; stroke-opacity:1; fill:none" points="219.866,1423.18 219.866,47.2441 "/>
<polyline clip-path="url(#clip020)" style="stroke:#000000; stroke-linecap:round; stroke-linejoin:round; stroke-width:4; stroke-opacity:1; fill:none" points="219.866,1333.81 238.764,1333.81 "/>
<polyline clip-path="url(#clip020)" style="stroke:#000000; stroke-linecap:round; stroke-linejoin:round; stroke-width:4; stroke-opacity:1; fill:none" points="219.866,1125.44 238.764,1125.44 "/>
<polyline clip-path="url(#clip020)" style="stroke:#000000; stroke-linecap:round; stroke-linejoin:round; stroke-width:4; stroke-opacity:1; fill:none" points="219.866,917.073 238.764,917.073 "/>
<polyline clip-path="url(#clip020)" style="stroke:#000000; stroke-linecap:round; stroke-linejoin:round; stroke-width:4; stroke-opacity:1; fill:none" points="219.866,708.702 238.764,708.702 "/>
<polyline clip-path="url(#clip020)" style="stroke:#000000; stroke-linecap:round; stroke-linejoin:round; stroke-width:4; stroke-opacity:1; fill:none" points="219.866,500.331 238.764,500.331 "/>
<polyline clip-path="url(#clip020)" style="stroke:#000000; stroke-linecap:round; stroke-linejoin:round; stroke-width:4; stroke-opacity:1; fill:none" points="219.866,291.96 238.764,291.96 "/>
<polyline clip-path="url(#clip020)" style="stroke:#000000; stroke-linecap:round; stroke-linejoin:round; stroke-width:4; stroke-opacity:1; fill:none" points="219.866,83.5897 238.764,83.5897 "/>
<path clip-path="url(#clip020)" d="M128.288 1319.61 Q124.677 1319.61 122.848 1323.18 Q121.043 1326.72 121.043 1333.85 Q121.043 1340.96 122.848 1344.52 Q124.677 1348.06 128.288 1348.06 Q131.922 1348.06 133.728 1344.52 Q135.556 1340.96 135.556 1333.85 Q135.556 1326.72 133.728 1323.18 Q131.922 1319.61 128.288 1319.61 M128.288 1315.91 Q134.098 1315.91 137.154 1320.52 Q140.232 1325.1 140.232 1333.85 Q140.232 1342.58 137.154 1347.18 Q134.098 1351.77 128.288 1351.77 Q122.478 1351.77 119.399 1347.18 Q116.343 1342.58 116.343 1333.85 Q116.343 1325.1 119.399 1320.52 Q122.478 1315.91 128.288 1315.91 Z" fill="#000000" fill-rule="nonzero" fill-opacity="1" /><path clip-path="url(#clip020)" d="M148.45 1345.21 L153.334 1345.21 L153.334 1351.09 L148.45 1351.09 L148.45 1345.21 Z" fill="#000000" fill-rule="nonzero" fill-opacity="1" /><path clip-path="url(#clip020)" d="M167.547 1347.16 L183.866 1347.16 L183.866 1351.09 L161.922 1351.09 L161.922 1347.16 Q164.584 1344.4 169.167 1339.77 Q173.774 1335.12 174.954 1333.78 Q177.2 1331.26 178.079 1329.52 Q178.982 1327.76 178.982 1326.07 Q178.982 1323.32 177.038 1321.58 Q175.116 1319.84 172.014 1319.84 Q169.815 1319.84 167.362 1320.61 Q164.931 1321.37 162.153 1322.92 L162.153 1318.2 Q164.977 1317.07 167.431 1316.49 Q169.885 1315.91 171.922 1315.91 Q177.292 1315.91 180.487 1318.59 Q183.681 1321.28 183.681 1325.77 Q183.681 1327.9 182.871 1329.82 Q182.084 1331.72 179.977 1334.31 Q179.399 1334.98 176.297 1338.2 Q173.195 1341.4 167.547 1347.16 Z" fill="#000000" fill-rule="nonzero" fill-opacity="1" /><path clip-path="url(#clip020)" d="M127.339 1111.24 Q123.728 1111.24 121.899 1114.81 Q120.093 1118.35 120.093 1125.48 Q120.093 1132.58 121.899 1136.15 Q123.728 1139.69 127.339 1139.69 Q130.973 1139.69 132.779 1136.15 Q134.607 1132.58 134.607 1125.48 Q134.607 1118.35 132.779 1114.81 Q130.973 1111.24 127.339 1111.24 M127.339 1107.54 Q133.149 1107.54 136.204 1112.14 Q139.283 1116.73 139.283 1125.48 Q139.283 1134.2 136.204 1138.81 Q133.149 1143.39 127.339 1143.39 Q121.529 1143.39 118.45 1138.81 Q115.394 1134.2 115.394 1125.48 Q115.394 1116.73 118.45 1112.14 Q121.529 1107.54 127.339 1107.54 Z" fill="#000000" fill-rule="nonzero" fill-opacity="1" /><path clip-path="url(#clip020)" d="M147.501 1136.84 L152.385 1136.84 L152.385 1142.72 L147.501 1142.72 L147.501 1136.84 Z" fill="#000000" fill-rule="nonzero" fill-opacity="1" /><path clip-path="url(#clip020)" d="M176.737 1124.09 Q180.093 1124.81 181.968 1127.08 Q183.866 1129.34 183.866 1132.68 Q183.866 1137.79 180.348 1140.59 Q176.829 1143.39 170.348 1143.39 Q168.172 1143.39 165.857 1142.95 Q163.565 1142.54 161.112 1141.68 L161.112 1137.17 Q163.056 1138.3 165.371 1138.88 Q167.686 1139.46 170.209 1139.46 Q174.607 1139.46 176.899 1137.72 Q179.214 1135.99 179.214 1132.68 Q179.214 1129.62 177.061 1127.91 Q174.931 1126.17 171.112 1126.17 L167.084 1126.17 L167.084 1122.33 L171.297 1122.33 Q174.746 1122.33 176.575 1120.96 Q178.403 1119.58 178.403 1116.98 Q178.403 1114.32 176.505 1112.91 Q174.63 1111.47 171.112 1111.47 Q169.19 1111.47 166.991 1111.89 Q164.792 1112.31 162.153 1113.19 L162.153 1109.02 Q164.815 1108.28 167.13 1107.91 Q169.468 1107.54 171.528 1107.54 Q176.852 1107.54 179.954 1109.97 Q183.056 1112.38 183.056 1116.5 Q183.056 1119.37 181.413 1121.36 Q179.769 1123.33 176.737 1124.09 Z" fill="#000000" fill-rule="nonzero" fill-opacity="1" /><path clip-path="url(#clip020)" d="M126.205 902.871 Q122.593 902.871 120.765 906.436 Q118.959 909.978 118.959 917.107 Q118.959 924.214 120.765 927.779 Q122.593 931.32 126.205 931.32 Q129.839 931.32 131.644 927.779 Q133.473 924.214 133.473 917.107 Q133.473 909.978 131.644 906.436 Q129.839 902.871 126.205 902.871 M126.205 899.168 Q132.015 899.168 135.07 903.774 Q138.149 908.357 138.149 917.107 Q138.149 925.834 135.07 930.441 Q132.015 935.024 126.205 935.024 Q120.394 935.024 117.316 930.441 Q114.26 925.834 114.26 917.107 Q114.26 908.357 117.316 903.774 Q120.394 899.168 126.205 899.168 Z" fill="#000000" fill-rule="nonzero" fill-opacity="1" /><path clip-path="url(#clip020)" d="M146.366 928.473 L151.251 928.473 L151.251 934.353 L146.366 934.353 L146.366 928.473 Z" fill="#000000" fill-rule="nonzero" fill-opacity="1" /><path clip-path="url(#clip020)" d="M174.283 903.867 L162.477 922.316 L174.283 922.316 L174.283 903.867 M173.056 899.793 L178.936 899.793 L178.936 922.316 L183.866 922.316 L183.866 926.204 L178.936 926.204 L178.936 934.353 L174.283 934.353 L174.283 926.204 L158.681 926.204 L158.681 921.691 L173.056 899.793 Z" fill="#000000" fill-rule="nonzero" fill-opacity="1" /><path clip-path="url(#clip020)" d="M127.686 694.501 Q124.075 694.501 122.246 698.065 Q120.441 701.607 120.441 708.737 Q120.441 715.843 122.246 719.408 Q124.075 722.949 127.686 722.949 Q131.32 722.949 133.126 719.408 Q134.954 715.843 134.954 708.737 Q134.954 701.607 133.126 698.065 Q131.32 694.501 127.686 694.501 M127.686 690.797 Q133.496 690.797 136.552 695.403 Q139.63 699.987 139.63 708.737 Q139.63 717.463 136.552 722.07 Q133.496 726.653 127.686 726.653 Q121.876 726.653 118.797 722.07 Q115.742 717.463 115.742 708.737 Q115.742 699.987 118.797 695.403 Q121.876 690.797 127.686 690.797 Z" fill="#000000" fill-rule="nonzero" fill-opacity="1" /><path clip-path="url(#clip020)" d="M147.848 720.102 L152.732 720.102 L152.732 725.982 L147.848 725.982 L147.848 720.102 Z" fill="#000000" fill-rule="nonzero" fill-opacity="1" /><path clip-path="url(#clip020)" d="M162.964 691.422 L181.32 691.422 L181.32 695.357 L167.246 695.357 L167.246 703.829 Q168.264 703.482 169.283 703.32 Q170.302 703.135 171.32 703.135 Q177.107 703.135 180.487 706.306 Q183.866 709.477 183.866 714.894 Q183.866 720.473 180.394 723.574 Q176.922 726.653 170.602 726.653 Q168.427 726.653 166.158 726.283 Q163.913 725.912 161.505 725.172 L161.505 720.473 Q163.589 721.607 165.811 722.162 Q168.033 722.718 170.51 722.718 Q174.514 722.718 176.852 720.612 Q179.19 718.505 179.19 714.894 Q179.19 711.283 176.852 709.176 Q174.514 707.07 170.51 707.07 Q168.635 707.07 166.76 707.487 Q164.908 707.903 162.964 708.783 L162.964 691.422 Z" fill="#000000" fill-rule="nonzero" fill-opacity="1" /><path clip-path="url(#clip020)" d="M126.529 486.13 Q122.918 486.13 121.089 489.695 Q119.283 493.236 119.283 500.366 Q119.283 507.472 121.089 511.037 Q122.918 514.579 126.529 514.579 Q130.163 514.579 131.968 511.037 Q133.797 507.472 133.797 500.366 Q133.797 493.236 131.968 489.695 Q130.163 486.13 126.529 486.13 M126.529 482.426 Q132.339 482.426 135.394 487.033 Q138.473 491.616 138.473 500.366 Q138.473 509.093 135.394 513.699 Q132.339 518.282 126.529 518.282 Q120.718 518.282 117.64 513.699 Q114.584 509.093 114.584 500.366 Q114.584 491.616 117.64 487.033 Q120.718 482.426 126.529 482.426 Z" fill="#000000" fill-rule="nonzero" fill-opacity="1" /><path clip-path="url(#clip020)" d="M146.691 511.732 L151.575 511.732 L151.575 517.611 L146.691 517.611 L146.691 511.732 Z" fill="#000000" fill-rule="nonzero" fill-opacity="1" /><path clip-path="url(#clip020)" d="M172.339 498.468 Q169.19 498.468 167.339 500.62 Q165.51 502.773 165.51 506.523 Q165.51 510.25 167.339 512.426 Q169.19 514.579 172.339 514.579 Q175.487 514.579 177.315 512.426 Q179.167 510.25 179.167 506.523 Q179.167 502.773 177.315 500.62 Q175.487 498.468 172.339 498.468 M181.621 483.815 L181.621 488.074 Q179.862 487.241 178.056 486.801 Q176.274 486.361 174.514 486.361 Q169.885 486.361 167.431 489.486 Q165.001 492.611 164.653 498.931 Q166.019 496.917 168.079 495.852 Q170.139 494.764 172.616 494.764 Q177.825 494.764 180.834 497.935 Q183.866 501.083 183.866 506.523 Q183.866 511.847 180.718 515.065 Q177.57 518.282 172.339 518.282 Q166.343 518.282 163.172 513.699 Q160.001 509.093 160.001 500.366 Q160.001 492.171 163.89 487.31 Q167.778 482.426 174.329 482.426 Q176.089 482.426 177.871 482.773 Q179.676 483.121 181.621 483.815 Z" fill="#000000" fill-rule="nonzero" fill-opacity="1" /><path clip-path="url(#clip020)" d="M127.593 277.759 Q123.982 277.759 122.154 281.324 Q120.348 284.866 120.348 291.995 Q120.348 299.102 122.154 302.666 Q123.982 306.208 127.593 306.208 Q131.228 306.208 133.033 302.666 Q134.862 299.102 134.862 291.995 Q134.862 284.866 133.033 281.324 Q131.228 277.759 127.593 277.759 M127.593 274.055 Q133.404 274.055 136.459 278.662 Q139.538 283.245 139.538 291.995 Q139.538 300.722 136.459 305.328 Q133.404 309.912 127.593 309.912 Q121.783 309.912 118.705 305.328 Q115.649 300.722 115.649 291.995 Q115.649 283.245 118.705 278.662 Q121.783 274.055 127.593 274.055 Z" fill="#000000" fill-rule="nonzero" fill-opacity="1" /><path clip-path="url(#clip020)" d="M147.755 303.361 L152.64 303.361 L152.64 309.24 L147.755 309.24 L147.755 303.361 Z" fill="#000000" fill-rule="nonzero" fill-opacity="1" /><path clip-path="url(#clip020)" d="M161.644 274.68 L183.866 274.68 L183.866 276.671 L171.32 309.24 L166.436 309.24 L178.241 278.616 L161.644 278.616 L161.644 274.68 Z" fill="#000000" fill-rule="nonzero" fill-opacity="1" /><path clip-path="url(#clip020)" d="M126.783 69.3884 Q123.172 69.3884 121.343 72.9532 Q119.538 76.4948 119.538 83.6244 Q119.538 90.7309 121.343 94.2957 Q123.172 97.8373 126.783 97.8373 Q130.417 97.8373 132.223 94.2957 Q134.052 90.7309 134.052 83.6244 Q134.052 76.4948 132.223 72.9532 Q130.417 69.3884 126.783 69.3884 M126.783 65.6847 Q132.593 65.6847 135.649 70.2911 Q138.728 74.8745 138.728 83.6244 Q138.728 92.3512 135.649 96.9577 Q132.593 101.541 126.783 101.541 Q120.973 101.541 117.894 96.9577 Q114.839 92.3512 114.839 83.6244 Q114.839 74.8745 117.894 70.2911 Q120.973 65.6847 126.783 65.6847 Z" fill="#000000" fill-rule="nonzero" fill-opacity="1" /><path clip-path="url(#clip020)" d="M146.945 94.9901 L151.829 94.9901 L151.829 100.87 L146.945 100.87 L146.945 94.9901 Z" fill="#000000" fill-rule="nonzero" fill-opacity="1" /><path clip-path="url(#clip020)" d="M172.014 84.4577 Q168.681 84.4577 166.76 86.2401 Q164.862 88.0225 164.862 91.1475 Q164.862 94.2725 166.76 96.0549 Q168.681 97.8373 172.014 97.8373 Q175.348 97.8373 177.269 96.0549 Q179.19 94.2494 179.19 91.1475 Q179.19 88.0225 177.269 86.2401 Q175.371 84.4577 172.014 84.4577 M167.339 82.467 Q164.329 81.7263 162.64 79.6661 Q160.973 77.6059 160.973 74.643 Q160.973 70.4995 163.913 68.0921 Q166.876 65.6847 172.014 65.6847 Q177.176 65.6847 180.116 68.0921 Q183.056 70.4995 183.056 74.643 Q183.056 77.6059 181.366 79.6661 Q179.7 81.7263 176.714 82.467 Q180.093 83.254 181.968 85.5457 Q183.866 87.8374 183.866 91.1475 Q183.866 96.1706 180.788 98.8558 Q177.732 101.541 172.014 101.541 Q166.297 101.541 163.218 98.8558 Q160.163 96.1706 160.163 91.1475 Q160.163 87.8374 162.061 85.5457 Q163.959 83.254 167.339 82.467 M165.626 75.0828 Q165.626 77.768 167.292 79.2726 Q168.982 80.7772 172.014 80.7772 Q175.024 80.7772 176.714 79.2726 Q178.426 77.768 178.426 75.0828 Q178.426 72.3976 176.714 70.893 Q175.024 69.3884 172.014 69.3884 Q168.982 69.3884 167.292 70.893 Q165.626 72.3976 165.626 75.0828 Z" fill="#000000" fill-rule="nonzero" fill-opacity="1" /><path clip-path="url(#clip020)" d="M16.4842 1284.94 L16.4842 1275.36 L48.8219 1263.23 L16.4842 1251.04 L16.4842 1241.46 L64.0042 1241.46 L64.0042 1247.73 L22.277 1247.73 L54.8694 1259.98 L54.8694 1266.45 L22.277 1278.7 L64.0042 1278.7 L64.0042 1284.94 L16.4842 1284.94 Z" fill="#000000" fill-rule="nonzero" fill-opacity="1" /><path clip-path="url(#clip020)" d="M32.4621 1215.14 Q32.4621 1219.85 36.1542 1222.59 Q39.8145 1225.32 46.212 1225.32 Q52.6095 1225.32 56.3017 1222.62 Q59.9619 1219.88 59.9619 1215.14 Q59.9619 1210.46 56.2698 1207.72 Q52.5777 1204.99 46.212 1204.99 Q39.8781 1204.99 36.186 1207.72 Q32.4621 1210.46 32.4621 1215.14 M27.4968 1215.14 Q27.4968 1207.5 32.4621 1203.14 Q37.4273 1198.78 46.212 1198.78 Q54.9649 1198.78 59.9619 1203.14 Q64.9272 1207.5 64.9272 1215.14 Q64.9272 1222.81 59.9619 1227.17 Q54.9649 1231.5 46.212 1231.5 Q37.4273 1231.5 32.4621 1227.17 Q27.4968 1222.81 27.4968 1215.14 Z" fill="#000000" fill-rule="nonzero" fill-opacity="1" /><path clip-path="url(#clip020)" d="M33.7671 1165.61 L14.479 1165.61 L14.479 1159.76 L64.0042 1159.76 L64.0042 1165.61 L58.657 1165.61 Q61.8398 1167.46 63.3994 1170.29 Q64.9272 1173.09 64.9272 1177.04 Q64.9272 1183.5 59.771 1187.57 Q54.6147 1191.62 46.212 1191.62 Q37.8093 1191.62 32.6531 1187.57 Q27.4968 1183.5 27.4968 1177.04 Q27.4968 1173.09 29.0564 1170.29 Q30.5842 1167.46 33.7671 1165.61 M46.212 1185.57 Q52.6732 1185.57 56.3653 1182.93 Q60.0256 1180.25 60.0256 1175.61 Q60.0256 1170.96 56.3653 1168.29 Q52.6732 1165.61 46.212 1165.61 Q39.7508 1165.61 36.0905 1168.29 Q32.3984 1170.96 32.3984 1175.61 Q32.3984 1180.25 36.0905 1182.93 Q39.7508 1185.57 46.212 1185.57 Z" fill="#000000" fill-rule="nonzero" fill-opacity="1" /><path clip-path="url(#clip020)" d="M44.7161 1117.2 L47.5806 1117.2 L47.5806 1144.13 Q53.6281 1143.75 56.8109 1140.5 Q59.9619 1137.22 59.9619 1131.4 Q59.9619 1128.02 59.1344 1124.87 Q58.3069 1121.69 56.6518 1118.57 L62.1899 1118.57 Q63.5267 1121.72 64.227 1125.03 Q64.9272 1128.34 64.9272 1131.75 Q64.9272 1140.28 59.9619 1145.27 Q54.9967 1150.24 46.5303 1150.24 Q37.7774 1150.24 32.6531 1145.53 Q27.4968 1140.79 27.4968 1132.77 Q27.4968 1125.57 32.1438 1121.4 Q36.7589 1117.2 44.7161 1117.2 M42.9973 1123.06 Q38.1912 1123.12 35.3266 1125.76 Q32.4621 1128.37 32.4621 1132.7 Q32.4621 1137.6 35.2312 1140.56 Q38.0002 1143.49 43.0292 1143.94 L42.9973 1123.06 Z" fill="#000000" fill-rule="nonzero" fill-opacity="1" /><path clip-path="url(#clip020)" d="M58.5933 1084.93 L58.5933 1074.42 L22.3406 1074.42 L24.6323 1085.85 L18.7758 1085.85 L16.4842 1074.49 L16.4842 1068.06 L58.5933 1068.06 L58.5933 1057.56 L64.0042 1057.56 L64.0042 1084.93 L58.5933 1084.93 Z" fill="#000000" fill-rule="nonzero" fill-opacity="1" /><path clip-path="url(#clip020)" d="M42.4881 995.044 L64.0042 995.044 L64.0042 1000.9 L42.679 1000.9 Q37.6183 1000.9 35.1038 1002.87 Q32.5894 1004.85 32.5894 1008.79 Q32.5894 1013.54 35.6131 1016.27 Q38.6368 1019.01 43.8567 1019.01 L64.0042 1019.01 L64.0042 1024.9 L28.3562 1024.9 L28.3562 1019.01 L33.8944 1019.01 Q30.6797 1016.91 29.0883 1014.08 Q27.4968 1011.21 27.4968 1007.49 Q27.4968 1001.35 31.3163 998.195 Q35.1038 995.044 42.4881 995.044 Z" fill="#000000" fill-rule="nonzero" fill-opacity="1" /><path clip-path="url(#clip020)" d="M49.9359 983.968 L28.3562 983.968 L28.3562 978.111 L49.7131 978.111 Q54.7739 978.111 57.3202 976.138 Q59.8346 974.165 59.8346 970.218 Q59.8346 965.475 56.8109 962.738 Q53.7872 959.969 48.5673 959.969 L28.3562 959.969 L28.3562 954.113 L64.0042 954.113 L64.0042 959.969 L58.5296 959.969 Q61.7762 962.102 63.3676 964.934 Q64.9272 967.735 64.9272 971.459 Q64.9272 977.602 61.1078 980.785 Q57.2883 983.968 49.9359 983.968 M27.4968 969.231 L27.4968 969.231 Z" fill="#000000" fill-rule="nonzero" fill-opacity="1" /><path clip-path="url(#clip020)" d="M35.1993 914.295 Q31.2526 912.099 29.3747 909.044 Q27.4968 905.988 27.4968 901.85 Q27.4968 896.28 31.4117 893.257 Q35.2948 890.233 42.4881 890.233 L64.0042 890.233 L64.0042 896.121 L42.679 896.121 Q37.5546 896.121 35.072 897.935 Q32.5894 899.75 32.5894 903.474 Q32.5894 908.025 35.6131 910.667 Q38.6368 913.309 43.8567 913.309 L64.0042 913.309 L64.0042 919.197 L42.679 919.197 Q37.5228 919.197 35.072 921.011 Q32.5894 922.825 32.5894 926.613 Q32.5894 931.101 35.6449 933.742 Q38.6686 936.384 43.8567 936.384 L64.0042 936.384 L64.0042 942.272 L28.3562 942.272 L28.3562 936.384 L33.8944 936.384 Q30.616 934.379 29.0564 931.578 Q27.4968 928.777 27.4968 924.926 Q27.4968 921.043 29.4702 918.337 Q31.4436 915.6 35.1993 914.295 Z" fill="#000000" fill-rule="nonzero" fill-opacity="1" /><path clip-path="url(#clip020)" d="M46.212 852.962 Q39.7508 852.962 36.0905 855.635 Q32.3984 858.277 32.3984 862.924 Q32.3984 867.571 36.0905 870.245 Q39.7508 872.886 46.212 872.886 Q52.6732 872.886 56.3653 870.245 Q60.0256 867.571 60.0256 862.924 Q60.0256 858.277 56.3653 855.635 Q52.6732 852.962 46.212 852.962 M33.7671 872.886 Q30.5842 871.04 29.0564 868.239 Q27.4968 865.407 27.4968 861.492 Q27.4968 854.999 32.6531 850.956 Q37.8093 846.882 46.212 846.882 Q54.6147 846.882 59.771 850.956 Q64.9272 854.999 64.9272 861.492 Q64.9272 865.407 63.3994 868.239 Q61.8398 871.04 58.657 872.886 L64.0042 872.886 L64.0042 878.775 L14.479 878.775 L14.479 872.886 L33.7671 872.886 Z" fill="#000000" fill-rule="nonzero" fill-opacity="1" /><path clip-path="url(#clip020)" d="M44.7161 806.683 L47.5806 806.683 L47.5806 833.61 Q53.6281 833.228 56.8109 829.981 Q59.9619 826.703 59.9619 820.878 Q59.9619 817.505 59.1344 814.354 Q58.3069 811.171 56.6518 808.052 L62.1899 808.052 Q63.5267 811.203 64.227 814.513 Q64.9272 817.823 64.9272 821.229 Q64.9272 829.759 59.9619 834.756 Q54.9967 839.721 46.5303 839.721 Q37.7774 839.721 32.6531 835.01 Q27.4968 830.268 27.4968 822.247 Q27.4968 815.054 32.1438 810.884 Q36.7589 806.683 44.7161 806.683 M42.9973 812.539 Q38.1912 812.603 35.3266 815.245 Q32.4621 817.855 32.4621 822.183 Q32.4621 827.085 35.2312 830.045 Q38.0002 832.973 43.0292 833.419 L42.9973 812.539 Z" fill="#000000" fill-rule="nonzero" fill-opacity="1" /><path clip-path="url(#clip020)" d="M33.8307 776.414 Q33.2578 777.401 33.0032 778.578 Q32.7167 779.724 32.7167 781.125 Q32.7167 786.09 35.9632 788.763 Q39.1779 791.405 45.2253 791.405 L64.0042 791.405 L64.0042 797.294 L28.3562 797.294 L28.3562 791.405 L33.8944 791.405 Q30.6479 789.559 29.0883 786.599 Q27.4968 783.639 27.4968 779.406 Q27.4968 778.801 27.5923 778.069 Q27.656 777.337 27.8151 776.446 L33.8307 776.414 Z" fill="#000000" fill-rule="nonzero" fill-opacity="1" /><path clip-path="url(#clip020)" d="M14.479 731.504 L19.3487 731.504 L19.3487 737.106 Q19.3487 740.257 20.6219 741.498 Q21.895 742.708 25.2052 742.708 L28.3562 742.708 L28.3562 733.064 L32.9077 733.064 L32.9077 742.708 L64.0042 742.708 L64.0042 748.596 L32.9077 748.596 L32.9077 754.198 L28.3562 754.198 L28.3562 748.596 L25.8736 748.596 Q19.9216 748.596 17.2162 745.827 Q14.479 743.058 14.479 737.042 L14.479 731.504 Z" fill="#000000" fill-rule="nonzero" fill-opacity="1" /><path clip-path="url(#clip020)" d="M33.8307 705.946 Q33.2578 706.932 33.0032 708.11 Q32.7167 709.256 32.7167 710.656 Q32.7167 715.622 35.9632 718.295 Q39.1779 720.937 45.2253 720.937 L64.0042 720.937 L64.0042 726.825 L28.3562 726.825 L28.3562 720.937 L33.8944 720.937 Q30.6479 719.091 29.0883 716.131 Q27.4968 713.171 27.4968 708.938 Q27.4968 708.333 27.5923 707.601 Q27.656 706.869 27.8151 705.977 L33.8307 705.946 Z" fill="#000000" fill-rule="nonzero" fill-opacity="1" /><path clip-path="url(#clip020)" d="M46.0847 683.602 Q46.0847 690.7 47.7079 693.437 Q49.3312 696.174 53.2461 696.174 Q56.3653 696.174 58.2114 694.137 Q60.0256 692.068 60.0256 688.535 Q60.0256 683.666 56.5881 680.737 Q53.1188 677.777 47.3897 677.777 L46.0847 677.777 L46.0847 683.602 M43.6657 671.921 L64.0042 671.921 L64.0042 677.777 L58.5933 677.777 Q61.8398 679.783 63.3994 682.774 Q64.9272 685.766 64.9272 690.095 Q64.9272 695.57 61.8716 698.816 Q58.7843 702.031 53.6281 702.031 Q47.6125 702.031 44.5569 698.02 Q41.5014 693.978 41.5014 685.989 L41.5014 677.777 L40.9285 677.777 Q36.8862 677.777 34.6901 680.451 Q32.4621 683.093 32.4621 687.899 Q32.4621 690.954 33.1941 693.851 Q33.9262 696.747 35.3903 699.421 L29.9795 699.421 Q28.7381 696.206 28.1334 693.182 Q27.4968 690.159 27.4968 687.294 Q27.4968 679.56 31.5072 675.74 Q35.5176 671.921 43.6657 671.921 Z" fill="#000000" fill-rule="nonzero" fill-opacity="1" /><path clip-path="url(#clip020)" d="M29.7248 634.204 L35.1993 634.204 Q33.8307 636.687 33.1623 639.201 Q32.4621 641.684 32.4621 644.23 Q32.4621 649.927 36.0905 653.078 Q39.6872 656.229 46.212 656.229 Q52.7369 656.229 56.3653 653.078 Q59.9619 649.927 59.9619 644.23 Q59.9619 641.684 59.2935 639.201 Q58.5933 636.687 57.2247 634.204 L62.6355 634.204 Q63.7814 636.655 64.3543 639.297 Q64.9272 641.907 64.9272 644.867 Q64.9272 652.919 59.8664 657.662 Q54.8057 662.404 46.212 662.404 Q37.491 662.404 32.4939 657.63 Q27.4968 652.824 27.4968 644.485 Q27.4968 641.779 28.0697 639.201 Q28.6108 636.623 29.7248 634.204 Z" fill="#000000" fill-rule="nonzero" fill-opacity="1" /><path clip-path="url(#clip020)" d="M18.2347 618.226 L28.3562 618.226 L28.3562 606.163 L32.9077 606.163 L32.9077 618.226 L52.2594 618.226 Q56.6199 618.226 57.8613 617.049 Q59.1026 615.839 59.1026 612.179 L59.1026 606.163 L64.0042 606.163 L64.0042 612.179 Q64.0042 618.958 61.4897 621.536 Q58.9434 624.114 52.2594 624.114 L32.9077 624.114 L32.9077 628.411 L28.3562 628.411 L28.3562 624.114 L18.2347 624.114 L18.2347 618.226 Z" fill="#000000" fill-rule="nonzero" fill-opacity="1" /><path clip-path="url(#clip020)" d="M28.3562 598.461 L28.3562 592.604 L64.0042 592.604 L64.0042 598.461 L28.3562 598.461 M14.479 598.461 L14.479 592.604 L21.895 592.604 L21.895 598.461 L14.479 598.461 Z" fill="#000000" fill-rule="nonzero" fill-opacity="1" /><path clip-path="url(#clip020)" d="M32.4621 566.537 Q32.4621 571.247 36.1542 573.985 Q39.8145 576.722 46.212 576.722 Q52.6095 576.722 56.3017 574.016 Q59.9619 571.279 59.9619 566.537 Q59.9619 561.858 56.2698 559.121 Q52.5777 556.383 46.212 556.383 Q39.8781 556.383 36.186 559.121 Q32.4621 561.858 32.4621 566.537 M27.4968 566.537 Q27.4968 558.898 32.4621 554.537 Q37.4273 550.177 46.212 550.177 Q54.9649 550.177 59.9619 554.537 Q64.9272 558.898 64.9272 566.537 Q64.9272 574.207 59.9619 578.568 Q54.9649 582.897 46.212 582.897 Q37.4273 582.897 32.4621 578.568 Q27.4968 574.207 27.4968 566.537 Z" fill="#000000" fill-rule="nonzero" fill-opacity="1" /><path clip-path="url(#clip020)" d="M42.4881 510.837 L64.0042 510.837 L64.0042 516.693 L42.679 516.693 Q37.6183 516.693 35.1038 518.667 Q32.5894 520.64 32.5894 524.587 Q32.5894 529.329 35.6131 532.066 Q38.6368 534.804 43.8567 534.804 L64.0042 534.804 L64.0042 540.692 L28.3562 540.692 L28.3562 534.804 L33.8944 534.804 Q30.6797 532.703 29.0883 529.87 Q27.4968 527.006 27.4968 523.282 Q27.4968 517.139 31.3163 513.988 Q35.1038 510.837 42.4881 510.837 Z" fill="#000000" fill-rule="nonzero" fill-opacity="1" /><path clip-path="url(#clip020)" d="M46.0847 462.235 Q46.0847 469.332 47.7079 472.07 Q49.3312 474.807 53.2461 474.807 Q56.3653 474.807 58.2114 472.77 Q60.0256 470.701 60.0256 467.168 Q60.0256 462.298 56.5881 459.37 Q53.1188 456.41 47.3897 456.41 L46.0847 456.41 L46.0847 462.235 M43.6657 450.553 L64.0042 450.553 L64.0042 456.41 L58.5933 456.41 Q61.8398 458.415 63.3994 461.407 Q64.9272 464.399 64.9272 468.728 Q64.9272 474.202 61.8716 477.449 Q58.7843 480.663 53.6281 480.663 Q47.6125 480.663 44.5569 476.653 Q41.5014 472.611 41.5014 464.622 L41.5014 456.41 L40.9285 456.41 Q36.8862 456.41 34.6901 459.084 Q32.4621 461.725 32.4621 466.531 Q32.4621 469.587 33.1941 472.483 Q33.9262 475.38 35.3903 478.053 L29.9795 478.053 Q28.7381 474.839 28.1334 471.815 Q27.4968 468.791 27.4968 465.927 Q27.4968 458.192 31.5072 454.373 Q35.5176 450.553 43.6657 450.553 Z" fill="#000000" fill-rule="nonzero" fill-opacity="1" /><path clip-path="url(#clip020)" d="M29.7248 412.837 L35.1993 412.837 Q33.8307 415.319 33.1623 417.834 Q32.4621 420.316 32.4621 422.863 Q32.4621 428.56 36.0905 431.711 Q39.6872 434.862 46.212 434.862 Q52.7369 434.862 56.3653 431.711 Q59.9619 428.56 59.9619 422.863 Q59.9619 420.316 59.2935 417.834 Q58.5933 415.319 57.2247 412.837 L62.6355 412.837 Q63.7814 415.287 64.3543 417.929 Q64.9272 420.539 64.9272 423.499 Q64.9272 431.552 59.8664 436.294 Q54.8057 441.037 46.212 441.037 Q37.491 441.037 32.4939 436.262 Q27.4968 431.456 27.4968 423.117 Q27.4968 420.412 28.0697 417.834 Q28.6108 415.256 29.7248 412.837 Z" fill="#000000" fill-rule="nonzero" fill-opacity="1" /><path clip-path="url(#clip020)" d="M18.2347 396.859 L28.3562 396.859 L28.3562 384.796 L32.9077 384.796 L32.9077 396.859 L52.2594 396.859 Q56.6199 396.859 57.8613 395.681 Q59.1026 394.472 59.1026 390.811 L59.1026 384.796 L64.0042 384.796 L64.0042 390.811 Q64.0042 397.591 61.4897 400.169 Q58.9434 402.747 52.2594 402.747 L32.9077 402.747 L32.9077 407.044 L28.3562 407.044 L28.3562 402.747 L18.2347 402.747 L18.2347 396.859 Z" fill="#000000" fill-rule="nonzero" fill-opacity="1" /><path clip-path="url(#clip020)" d="M28.3562 377.093 L28.3562 371.237 L64.0042 371.237 L64.0042 377.093 L28.3562 377.093 M14.479 377.093 L14.479 371.237 L21.895 371.237 L21.895 377.093 L14.479 377.093 Z" fill="#000000" fill-rule="nonzero" fill-opacity="1" /><path clip-path="url(#clip020)" d="M28.3562 363.184 L28.3562 356.978 L58.275 345.838 L28.3562 334.698 L28.3562 328.491 L64.0042 341.859 L64.0042 349.816 L28.3562 363.184 Z" fill="#000000" fill-rule="nonzero" fill-opacity="1" /><path clip-path="url(#clip020)" d="M46.0847 304.206 Q46.0847 311.304 47.7079 314.041 Q49.3312 316.778 53.2461 316.778 Q56.3653 316.778 58.2114 314.741 Q60.0256 312.672 60.0256 309.139 Q60.0256 304.27 56.5881 301.341 Q53.1188 298.381 47.3897 298.381 L46.0847 298.381 L46.0847 304.206 M43.6657 292.525 L64.0042 292.525 L64.0042 298.381 L58.5933 298.381 Q61.8398 300.386 63.3994 303.378 Q64.9272 306.37 64.9272 310.699 Q64.9272 316.173 61.8716 319.42 Q58.7843 322.635 53.6281 322.635 Q47.6125 322.635 44.5569 318.624 Q41.5014 314.582 41.5014 306.593 L41.5014 298.381 L40.9285 298.381 Q36.8862 298.381 34.6901 301.055 Q32.4621 303.697 32.4621 308.503 Q32.4621 311.558 33.1941 314.455 Q33.9262 317.351 35.3903 320.025 L29.9795 320.025 Q28.7381 316.81 28.1334 313.786 Q27.4968 310.763 27.4968 307.898 Q27.4968 300.164 31.5072 296.344 Q35.5176 292.525 43.6657 292.525 Z" fill="#000000" fill-rule="nonzero" fill-opacity="1" /><path clip-path="url(#clip020)" d="M18.2347 274.669 L28.3562 274.669 L28.3562 262.606 L32.9077 262.606 L32.9077 274.669 L52.2594 274.669 Q56.6199 274.669 57.8613 273.491 Q59.1026 272.282 59.1026 268.622 L59.1026 262.606 L64.0042 262.606 L64.0042 268.622 Q64.0042 275.401 61.4897 277.979 Q58.9434 280.557 52.2594 280.557 L32.9077 280.557 L32.9077 284.854 L28.3562 284.854 L28.3562 280.557 L18.2347 280.557 L18.2347 274.669 Z" fill="#000000" fill-rule="nonzero" fill-opacity="1" /><path clip-path="url(#clip020)" d="M44.7161 224.412 L47.5806 224.412 L47.5806 251.339 Q53.6281 250.957 56.8109 247.71 Q59.9619 244.432 59.9619 238.607 Q59.9619 235.233 59.1344 232.082 Q58.3069 228.9 56.6518 225.78 L62.1899 225.78 Q63.5267 228.931 64.227 232.242 Q64.9272 235.552 64.9272 238.957 Q64.9272 247.487 59.9619 252.485 Q54.9967 257.45 46.5303 257.45 Q37.7774 257.45 32.6531 252.739 Q27.4968 247.997 27.4968 239.976 Q27.4968 232.783 32.1438 228.613 Q36.7589 224.412 44.7161 224.412 M42.9973 230.268 Q38.1912 230.332 35.3266 232.974 Q32.4621 235.584 32.4621 239.912 Q32.4621 244.814 35.2312 247.774 Q38.0002 250.702 43.0292 251.148 L42.9973 230.268 Z" fill="#000000" fill-rule="nonzero" fill-opacity="1" /><path clip-path="url(#clip020)" d="M33.7671 191.342 L14.479 191.342 L14.479 185.485 L64.0042 185.485 L64.0042 191.342 L58.657 191.342 Q61.8398 193.188 63.3994 196.021 Q64.9272 198.822 64.9272 202.768 Q64.9272 209.23 59.771 213.304 Q54.6147 217.346 46.212 217.346 Q37.8093 217.346 32.6531 213.304 Q27.4968 209.23 27.4968 202.768 Q27.4968 198.822 29.0564 196.021 Q30.5842 193.188 33.7671 191.342 M46.212 211.298 Q52.6732 211.298 56.3653 208.657 Q60.0256 205.983 60.0256 201.336 Q60.0256 196.689 56.3653 194.016 Q52.6732 191.342 46.212 191.342 Q39.7508 191.342 36.0905 194.016 Q32.3984 196.689 32.3984 201.336 Q32.3984 205.983 36.0905 208.657 Q39.7508 211.298 46.212 211.298 Z" fill="#000000" fill-rule="nonzero" fill-opacity="1" /><polyline clip-path="url(#clip022)" style="stroke:#009af9; stroke-linecap:round; stroke-linejoin:round; stroke-width:4; stroke-opacity:1; fill:none" points="280.231,86.1857 300.556,231.389 320.881,308.231 341.206,365.403 361.53,411.602 381.855,450.676 402.18,484.735 422.505,515.075 442.83,542.551 463.155,567.756 483.48,591.119 503.804,612.956 524.129,633.509 544.454,652.965 564.779,671.472 585.104,689.149 605.429,706.09 625.753,722.376 646.078,738.07 666.403,753.227 686.728,767.895 707.053,782.11 727.378,795.908 747.703,809.318 768.027,822.365 788.352,835.071 808.677,847.455 829.002,859.536 849.327,871.329 869.652,882.847 889.977,894.105 910.301,905.112 930.626,915.879 950.951,926.417 971.276,936.733 991.601,946.837 1011.93,956.735 1032.25,966.435 1052.58,975.944 1072.9,985.266 1093.23,994.41 1113.55,1003.38 1133.87,1012.18 1154.2,1020.82 1174.52,1029.29 1194.85,1037.61 1215.17,1045.78 1235.5,1053.81 1255.82,1061.69 1276.15,1069.43 1296.47,1077.04 1316.8,1084.52 1337.12,1091.86 1357.45,1099.08 1377.77,1106.18 1398.1,1113.16 1418.42,1120.02 1438.75,1126.77 1459.07,1133.4 1479.4,1139.93 1499.72,1146.35 1520.05,1152.67 1540.37,1158.88 1560.7,1165 1581.02,1171.02 1601.35,1176.94 1621.67,1182.77 1642,1188.51 1662.32,1194.16 1682.65,1199.73 1702.97,1205.21 1723.3,1210.6 1743.62,1215.91 1763.95,1221.15 1784.27,1226.3 1804.59,1231.38 1824.92,1236.38 1845.24,1241.31 1865.57,1246.16 1885.89,1250.95 1906.22,1255.66 1926.54,1260.31 1946.87,1264.89 1967.19,1269.41 1987.52,1273.86 2007.84,1278.25 2028.17,1282.57 2048.49,1286.84 2068.82,1291.05 2089.14,1295.19 2109.47,1299.28 2129.79,1303.32 2150.12,1307.3 2170.44,1311.23 2190.77,1315.1 2211.09,1318.92 2231.42,1322.69 2251.74,1326.41 2272.07,1330.08 2292.39,1333.7 "/>
<circle clip-path="url(#clip022)" cx="280.231" cy="96.9373" r="14.4" fill="#000000" fill-rule="evenodd" fill-opacity="1" stroke="none"/>
<circle clip-path="url(#clip022)" cx="316.546" cy="266.007" r="14.4" fill="#000000" fill-rule="evenodd" fill-opacity="1" stroke="none"/>
<circle clip-path="url(#clip022)" cx="441.056" cy="512.196" r="14.4" fill="#000000" fill-rule="evenodd" fill-opacity="1" stroke="none"/>
<circle clip-path="url(#clip022)" cx="644.124" cy="746.52" r="14.4" fill="#000000" fill-rule="evenodd" fill-opacity="1" stroke="none"/>
<circle clip-path="url(#clip022)" cx="1047.3" cy="1022.37" r="14.4" fill="#000000" fill-rule="evenodd" fill-opacity="1" stroke="none"/>
<circle clip-path="url(#clip022)" cx="2262.75" cy="1384.24" r="14.4" fill="#000000" fill-rule="evenodd" fill-opacity="1" stroke="none"/>
<polyline clip-path="url(#clip022)" style="stroke:#000000; stroke-linecap:round; stroke-linejoin:round; stroke-width:4; stroke-opacity:1; fill:none" points="280.231,117.7 285.419,200.752 291.348,248.21 307.653,298.634 319.511,363.889 340.262,414.313 361.014,458.805 390.659,509.23 411.411,547.789 436.609,580.417 463.289,613.044 481.077,630.841 518.133,672.367 543.331,696.096 596.692,743.554 567.047,722.791 618.926,761.351 644.124,776.181 667.841,793.978 696.003,811.775 719.719,829.572 749.365,850.335 779.01,877.03 802.726,891.86 829.406,906.691 860.534,921.522 890.179,939.319 947.987,974.912 916.859,954.149 974.667,980.844 1020.62,1004.57 1176.25,1057.96 1091.77,1028.3 1323,1102.46 1254.81,1081.69 1417.86,1138.05 1530.51,1161.78 1677.26,1206.27 1783.98,1238.9 1899.59,1274.49 1984.08,1292.29 2074.5,1316.02 2147.13,1333.81 2218.28,1357.54 2258.3,1366.44 "/>
<path clip-path="url(#clip020)" d="M1515.55 300.469 L2281.66 300.469 L2281.66 93.1086 L1515.55 93.1086  Z" fill="#ffffff" fill-rule="evenodd" fill-opacity="1"/>
<polyline clip-path="url(#clip020)" style="stroke:#000000; stroke-linecap:round; stroke-linejoin:round; stroke-width:4; stroke-opacity:1; fill:none" points="1515.55,300.469 2281.66,300.469 2281.66,93.1086 1515.55,93.1086 1515.55,300.469 "/>
<polyline clip-path="url(#clip020)" style="stroke:#009af9; stroke-linecap:round; stroke-linejoin:round; stroke-width:4; stroke-opacity:1; fill:none" points="1539.25,144.949 1681.44,144.949 "/>
<path clip-path="url(#clip020)" d="M1733.01 130.331 L1733.01 135.261 Q1730.65 133.062 1727.96 131.974 Q1725.3 130.886 1722.29 130.886 Q1716.37 130.886 1713.22 134.52 Q1710.07 138.132 1710.07 144.983 Q1710.07 151.812 1713.22 155.446 Q1716.37 159.057 1722.29 159.057 Q1725.3 159.057 1727.96 157.969 Q1730.65 156.881 1733.01 154.682 L1733.01 159.567 Q1730.56 161.233 1727.8 162.067 Q1725.07 162.9 1722.01 162.9 Q1714.17 162.9 1709.65 158.108 Q1705.14 153.293 1705.14 144.983 Q1705.14 136.65 1709.65 131.858 Q1714.17 127.044 1722.01 127.044 Q1725.12 127.044 1727.85 127.877 Q1730.6 128.687 1733.01 130.331 Z" fill="#000000" fill-rule="nonzero" fill-opacity="1" /><path clip-path="url(#clip020)" d="M1740.05 126.21 L1744.31 126.21 L1744.31 162.229 L1740.05 162.229 L1740.05 126.21 Z" fill="#000000" fill-rule="nonzero" fill-opacity="1" /><path clip-path="url(#clip020)" d="M1753.22 136.303 L1757.48 136.303 L1757.48 162.229 L1753.22 162.229 L1753.22 136.303 M1753.22 126.21 L1757.48 126.21 L1757.48 131.604 L1753.22 131.604 L1753.22 126.21 Z" fill="#000000" fill-rule="nonzero" fill-opacity="1" /><path clip-path="url(#clip020)" d="M1766.57 127.669 L1773.54 127.669 L1782.36 151.187 L1791.23 127.669 L1798.19 127.669 L1798.19 162.229 L1793.63 162.229 L1793.63 131.882 L1784.72 155.585 L1780.02 155.585 L1771.11 131.882 L1771.11 162.229 L1766.57 162.229 L1766.57 127.669 Z" fill="#000000" fill-rule="nonzero" fill-opacity="1" /><path clip-path="url(#clip020)" d="M1819.03 132.275 L1812.69 149.474 L1825.39 149.474 L1819.03 132.275 M1816.39 127.669 L1821.69 127.669 L1834.86 162.229 L1830 162.229 L1826.85 153.363 L1811.27 153.363 L1808.13 162.229 L1803.19 162.229 L1816.39 127.669 Z" fill="#000000" fill-rule="nonzero" fill-opacity="1" /><path clip-path="url(#clip020)" d="M1836.53 147.344 L1849 147.344 L1849 151.141 L1836.53 151.141 L1836.53 147.344 Z" fill="#000000" fill-rule="nonzero" fill-opacity="1" /><path clip-path="url(#clip020)" d="M1858.96 145.724 L1858.96 158.386 L1866.46 158.386 Q1870.23 158.386 1872.04 156.835 Q1873.87 155.261 1873.87 152.043 Q1873.87 148.803 1872.04 147.275 Q1870.23 145.724 1866.46 145.724 L1858.96 145.724 M1858.96 131.511 L1858.96 141.928 L1865.88 141.928 Q1869.31 141.928 1870.97 140.655 Q1872.66 139.358 1872.66 136.719 Q1872.66 134.104 1870.97 132.807 Q1869.31 131.511 1865.88 131.511 L1858.96 131.511 M1854.28 127.669 L1866.23 127.669 Q1871.57 127.669 1874.47 129.891 Q1877.36 132.113 1877.36 136.21 Q1877.36 139.382 1875.88 141.257 Q1874.4 143.131 1871.53 143.594 Q1874.98 144.335 1876.87 146.696 Q1878.8 149.034 1878.8 152.553 Q1878.8 157.182 1875.65 159.705 Q1872.5 162.229 1866.69 162.229 L1854.28 162.229 L1854.28 127.669 Z" fill="#000000" fill-rule="nonzero" fill-opacity="1" /><circle clip-path="url(#clip020)" cx="1610.34" cy="196.789" r="20.48" fill="#000000" fill-rule="evenodd" fill-opacity="1" stroke="none"/>
<path clip-path="url(#clip020)" d="M1709.42 210.18 L1709.42 223.93 L1705.14 223.93 L1705.14 188.143 L1709.42 188.143 L1709.42 192.078 Q1710.76 189.763 1712.8 188.652 Q1714.86 187.518 1717.71 187.518 Q1722.43 187.518 1725.37 191.268 Q1728.33 195.018 1728.33 201.129 Q1728.33 207.24 1725.37 210.99 Q1722.43 214.74 1717.71 214.74 Q1714.86 214.74 1712.8 213.629 Q1710.76 212.495 1709.42 210.18 M1723.91 201.129 Q1723.91 196.43 1721.97 193.768 Q1720.05 191.083 1716.67 191.083 Q1713.29 191.083 1711.34 193.768 Q1709.42 196.43 1709.42 201.129 Q1709.42 205.828 1711.34 208.513 Q1713.29 211.175 1716.67 211.175 Q1720.05 211.175 1721.97 208.513 Q1723.91 205.828 1723.91 201.129 Z" fill="#000000" fill-rule="nonzero" fill-opacity="1" /><path clip-path="url(#clip020)" d="M1747.18 201.036 Q1742.01 201.036 1740.02 202.217 Q1738.03 203.397 1738.03 206.245 Q1738.03 208.513 1739.51 209.856 Q1741.02 211.175 1743.59 211.175 Q1747.13 211.175 1749.26 208.675 Q1751.41 206.152 1751.41 201.985 L1751.41 201.036 L1747.18 201.036 M1755.67 199.277 L1755.67 214.069 L1751.41 214.069 L1751.41 210.133 Q1749.95 212.495 1747.78 213.629 Q1745.6 214.74 1742.45 214.74 Q1738.47 214.74 1736.11 212.518 Q1733.77 210.272 1733.77 206.522 Q1733.77 202.147 1736.69 199.925 Q1739.63 197.703 1745.44 197.703 L1751.41 197.703 L1751.41 197.286 Q1751.41 194.347 1749.47 192.749 Q1747.55 191.129 1744.05 191.129 Q1741.83 191.129 1739.72 191.661 Q1737.62 192.194 1735.67 193.259 L1735.67 189.323 Q1738.01 188.421 1740.21 187.981 Q1742.41 187.518 1744.49 187.518 Q1750.12 187.518 1752.89 190.434 Q1755.67 193.351 1755.67 199.277 Z" fill="#000000" fill-rule="nonzero" fill-opacity="1" /><path clip-path="url(#clip020)" d="M1768.57 210.18 L1768.57 223.93 L1764.28 223.93 L1764.28 188.143 L1768.57 188.143 L1768.57 192.078 Q1769.91 189.763 1771.94 188.652 Q1774.01 187.518 1776.85 187.518 Q1781.57 187.518 1784.51 191.268 Q1787.48 195.018 1787.48 201.129 Q1787.48 207.24 1784.51 210.99 Q1781.57 214.74 1776.85 214.74 Q1774.01 214.74 1771.94 213.629 Q1769.91 212.495 1768.57 210.18 M1783.06 201.129 Q1783.06 196.43 1781.11 193.768 Q1779.19 191.083 1775.81 191.083 Q1772.43 191.083 1770.49 193.768 Q1768.57 196.43 1768.57 201.129 Q1768.57 205.828 1770.49 208.513 Q1772.43 211.175 1775.81 211.175 Q1779.19 211.175 1781.11 208.513 Q1783.06 205.828 1783.06 201.129 Z" fill="#000000" fill-rule="nonzero" fill-opacity="1" /><path clip-path="url(#clip020)" d="M1816.71 200.041 L1816.71 202.124 L1797.13 202.124 Q1797.41 206.522 1799.77 208.837 Q1802.15 211.129 1806.39 211.129 Q1808.84 211.129 1811.13 210.527 Q1813.45 209.925 1815.72 208.721 L1815.72 212.749 Q1813.43 213.721 1811.02 214.231 Q1808.61 214.74 1806.13 214.74 Q1799.93 214.74 1796.3 211.129 Q1792.69 207.518 1792.69 201.36 Q1792.69 194.995 1796.11 191.268 Q1799.56 187.518 1805.39 187.518 Q1810.63 187.518 1813.66 190.897 Q1816.71 194.254 1816.71 200.041 M1812.45 198.791 Q1812.41 195.296 1810.49 193.212 Q1808.59 191.129 1805.44 191.129 Q1801.88 191.129 1799.72 193.143 Q1797.59 195.157 1797.27 198.814 L1812.45 198.791 Z" fill="#000000" fill-rule="nonzero" fill-opacity="1" /><path clip-path="url(#clip020)" d="M1838.73 192.124 Q1838.01 191.708 1837.15 191.522 Q1836.32 191.314 1835.3 191.314 Q1831.69 191.314 1829.75 193.675 Q1827.82 196.013 1827.82 200.411 L1827.82 214.069 L1823.54 214.069 L1823.54 188.143 L1827.82 188.143 L1827.82 192.171 Q1829.17 189.809 1831.32 188.675 Q1833.47 187.518 1836.55 187.518 Q1836.99 187.518 1837.52 187.587 Q1838.06 187.634 1838.7 187.749 L1838.73 192.124 Z" fill="#000000" fill-rule="nonzero" fill-opacity="1" /><path clip-path="url(#clip020)" d="M1868.31 191.129 Q1864.88 191.129 1862.89 193.814 Q1860.9 196.476 1860.9 201.129 Q1860.9 205.782 1862.87 208.467 Q1864.86 211.129 1868.31 211.129 Q1871.71 211.129 1873.7 208.444 Q1875.69 205.758 1875.69 201.129 Q1875.69 196.522 1873.7 193.837 Q1871.71 191.129 1868.31 191.129 M1868.31 187.518 Q1873.87 187.518 1877.04 191.129 Q1880.21 194.74 1880.21 201.129 Q1880.21 207.495 1877.04 211.129 Q1873.87 214.74 1868.31 214.74 Q1862.73 214.74 1859.56 211.129 Q1856.41 207.495 1856.41 201.129 Q1856.41 194.74 1859.56 191.129 Q1862.73 187.518 1868.31 187.518 Z" fill="#000000" fill-rule="nonzero" fill-opacity="1" /><path clip-path="url(#clip020)" d="M1905.88 201.129 Q1905.88 196.43 1903.93 193.768 Q1902.01 191.083 1898.63 191.083 Q1895.25 191.083 1893.31 193.768 Q1891.39 196.43 1891.39 201.129 Q1891.39 205.828 1893.31 208.513 Q1895.25 211.175 1898.63 211.175 Q1902.01 211.175 1903.93 208.513 Q1905.88 205.828 1905.88 201.129 M1891.39 192.078 Q1892.73 189.763 1894.77 188.652 Q1896.83 187.518 1899.68 187.518 Q1904.4 187.518 1907.34 191.268 Q1910.3 195.018 1910.3 201.129 Q1910.3 207.24 1907.34 210.99 Q1904.4 214.74 1899.68 214.74 Q1896.83 214.74 1894.77 213.629 Q1892.73 212.495 1891.39 210.18 L1891.39 214.069 L1887.11 214.069 L1887.11 178.05 L1891.39 178.05 L1891.39 192.078 Z" fill="#000000" fill-rule="nonzero" fill-opacity="1" /><path clip-path="url(#clip020)" d="M1933.89 188.907 L1933.89 192.934 Q1932.08 192.009 1930.14 191.546 Q1928.19 191.083 1926.11 191.083 Q1922.94 191.083 1921.34 192.055 Q1919.77 193.027 1919.77 194.971 Q1919.77 196.453 1920.9 197.309 Q1922.04 198.143 1925.46 198.907 L1926.92 199.231 Q1931.46 200.203 1933.36 201.985 Q1935.28 203.745 1935.28 206.916 Q1935.28 210.527 1932.41 212.633 Q1929.56 214.74 1924.56 214.74 Q1922.48 214.74 1920.21 214.323 Q1917.96 213.93 1915.46 213.12 L1915.46 208.721 Q1917.82 209.948 1920.12 210.573 Q1922.41 211.175 1924.65 211.175 Q1927.66 211.175 1929.28 210.157 Q1930.9 209.115 1930.9 207.24 Q1930.9 205.504 1929.72 204.578 Q1928.56 203.652 1924.61 202.796 L1923.12 202.448 Q1919.17 201.615 1917.41 199.902 Q1915.65 198.166 1915.65 195.157 Q1915.65 191.499 1918.24 189.509 Q1920.83 187.518 1925.6 187.518 Q1927.96 187.518 1930.05 187.865 Q1932.13 188.212 1933.89 188.907 Z" fill="#000000" fill-rule="nonzero" fill-opacity="1" /><path clip-path="url(#clip020)" d="M1964.24 200.041 L1964.24 202.124 L1944.65 202.124 Q1944.93 206.522 1947.29 208.837 Q1949.68 211.129 1953.91 211.129 Q1956.37 211.129 1958.66 210.527 Q1960.97 209.925 1963.24 208.721 L1963.24 212.749 Q1960.95 213.721 1958.54 214.231 Q1956.13 214.74 1953.66 214.74 Q1947.45 214.74 1943.82 211.129 Q1940.21 207.518 1940.21 201.36 Q1940.21 194.995 1943.63 191.268 Q1947.08 187.518 1952.92 187.518 Q1958.15 187.518 1961.18 190.897 Q1964.24 194.254 1964.24 200.041 M1959.98 198.791 Q1959.93 195.296 1958.01 193.212 Q1956.11 191.129 1952.96 191.129 Q1949.4 191.129 1947.24 193.143 Q1945.12 195.157 1944.79 198.814 L1959.98 198.791 Z" fill="#000000" fill-rule="nonzero" fill-opacity="1" /><path clip-path="url(#clip020)" d="M1986.25 192.124 Q1985.53 191.708 1984.68 191.522 Q1983.84 191.314 1982.82 191.314 Q1979.21 191.314 1977.27 193.675 Q1975.35 196.013 1975.35 200.411 L1975.35 214.069 L1971.06 214.069 L1971.06 188.143 L1975.35 188.143 L1975.35 192.171 Q1976.69 189.809 1978.84 188.675 Q1980.99 187.518 1984.07 187.518 Q1984.51 187.518 1985.05 187.587 Q1985.58 187.634 1986.23 187.749 L1986.25 192.124 Z" fill="#000000" fill-rule="nonzero" fill-opacity="1" /><path clip-path="url(#clip020)" d="M1987.66 188.143 L1992.18 188.143 L2000.28 209.902 L2008.38 188.143 L2012.89 188.143 L2003.17 214.069 L1997.38 214.069 L1987.66 188.143 Z" fill="#000000" fill-rule="nonzero" fill-opacity="1" /><path clip-path="url(#clip020)" d="M2030.55 201.036 Q2025.39 201.036 2023.4 202.217 Q2021.41 203.397 2021.41 206.245 Q2021.41 208.513 2022.89 209.856 Q2024.4 211.175 2026.97 211.175 Q2030.51 211.175 2032.64 208.675 Q2034.79 206.152 2034.79 201.985 L2034.79 201.036 L2030.55 201.036 M2039.05 199.277 L2039.05 214.069 L2034.79 214.069 L2034.79 210.133 Q2033.33 212.495 2031.16 213.629 Q2028.98 214.74 2025.83 214.74 Q2021.85 214.74 2019.49 212.518 Q2017.15 210.272 2017.15 206.522 Q2017.15 202.147 2020.07 199.925 Q2023.01 197.703 2028.82 197.703 L2034.79 197.703 L2034.79 197.286 Q2034.79 194.347 2032.85 192.749 Q2030.92 191.129 2027.43 191.129 Q2025.21 191.129 2023.1 191.661 Q2020.99 192.194 2019.05 193.259 L2019.05 189.323 Q2021.39 188.421 2023.59 187.981 Q2025.79 187.518 2027.87 187.518 Q2033.49 187.518 2036.27 190.434 Q2039.05 193.351 2039.05 199.277 Z" fill="#000000" fill-rule="nonzero" fill-opacity="1" /><path clip-path="url(#clip020)" d="M2052.04 180.782 L2052.04 188.143 L2060.81 188.143 L2060.81 191.453 L2052.04 191.453 L2052.04 205.527 Q2052.04 208.698 2052.89 209.601 Q2053.77 210.504 2056.43 210.504 L2060.81 210.504 L2060.81 214.069 L2056.43 214.069 Q2051.5 214.069 2049.63 212.24 Q2047.75 210.388 2047.75 205.527 L2047.75 191.453 L2044.63 191.453 L2044.63 188.143 L2047.75 188.143 L2047.75 180.782 L2052.04 180.782 Z" fill="#000000" fill-rule="nonzero" fill-opacity="1" /><path clip-path="url(#clip020)" d="M2066.41 188.143 L2070.67 188.143 L2070.67 214.069 L2066.41 214.069 L2066.41 188.143 M2066.41 178.05 L2070.67 178.05 L2070.67 183.444 L2066.41 183.444 L2066.41 178.05 Z" fill="#000000" fill-rule="nonzero" fill-opacity="1" /><path clip-path="url(#clip020)" d="M2089.63 191.129 Q2086.2 191.129 2084.21 193.814 Q2082.22 196.476 2082.22 201.129 Q2082.22 205.782 2084.19 208.467 Q2086.18 211.129 2089.63 211.129 Q2093.03 211.129 2095.02 208.444 Q2097.01 205.758 2097.01 201.129 Q2097.01 196.522 2095.02 193.837 Q2093.03 191.129 2089.63 191.129 M2089.63 187.518 Q2095.18 187.518 2098.36 191.129 Q2101.53 194.74 2101.53 201.129 Q2101.53 207.495 2098.36 211.129 Q2095.18 214.74 2089.63 214.74 Q2084.05 214.74 2080.88 211.129 Q2077.73 207.495 2077.73 201.129 Q2077.73 194.74 2080.88 191.129 Q2084.05 187.518 2089.63 187.518 Z" fill="#000000" fill-rule="nonzero" fill-opacity="1" /><path clip-path="url(#clip020)" d="M2130.14 198.421 L2130.14 214.069 L2125.88 214.069 L2125.88 198.559 Q2125.88 194.879 2124.44 193.05 Q2123.01 191.222 2120.14 191.222 Q2116.69 191.222 2114.7 193.421 Q2112.71 195.62 2112.71 199.416 L2112.71 214.069 L2108.42 214.069 L2108.42 188.143 L2112.71 188.143 L2112.71 192.171 Q2114.23 189.833 2116.29 188.675 Q2118.38 187.518 2121.09 187.518 Q2125.55 187.518 2127.85 190.296 Q2130.14 193.05 2130.14 198.421 Z" fill="#000000" fill-rule="nonzero" fill-opacity="1" /><path clip-path="url(#clip020)" d="M2155.16 188.907 L2155.16 192.934 Q2153.35 192.009 2151.41 191.546 Q2149.47 191.083 2147.38 191.083 Q2144.21 191.083 2142.61 192.055 Q2141.04 193.027 2141.04 194.971 Q2141.04 196.453 2142.17 197.309 Q2143.31 198.143 2146.73 198.907 L2148.19 199.231 Q2152.73 200.203 2154.63 201.985 Q2156.55 203.745 2156.55 206.916 Q2156.55 210.527 2153.68 212.633 Q2150.83 214.74 2145.83 214.74 Q2143.75 214.74 2141.48 214.323 Q2139.23 213.93 2136.73 213.12 L2136.73 208.721 Q2139.1 209.948 2141.39 210.573 Q2143.68 211.175 2145.92 211.175 Q2148.93 211.175 2150.55 210.157 Q2152.17 209.115 2152.17 207.24 Q2152.17 205.504 2150.99 204.578 Q2149.84 203.652 2145.88 202.796 L2144.4 202.448 Q2140.44 201.615 2138.68 199.902 Q2136.92 198.166 2136.92 195.157 Q2136.92 191.499 2139.51 189.509 Q2142.1 187.518 2146.87 187.518 Q2149.23 187.518 2151.32 187.865 Q2153.4 188.212 2155.16 188.907 Z" fill="#000000" fill-rule="nonzero" fill-opacity="1" /><polyline clip-path="url(#clip020)" style="stroke:#000000; stroke-linecap:round; stroke-linejoin:round; stroke-width:4; stroke-opacity:1; fill:none" points="1539.25,248.629 1681.44,248.629 "/>
<path clip-path="url(#clip020)" d="M1709.42 262.02 L1709.42 275.77 L1705.14 275.77 L1705.14 239.983 L1709.42 239.983 L1709.42 243.918 Q1710.76 241.603 1712.8 240.492 Q1714.86 239.358 1717.71 239.358 Q1722.43 239.358 1725.37 243.108 Q1728.33 246.858 1728.33 252.969 Q1728.33 259.08 1725.37 262.83 Q1722.43 266.58 1717.71 266.58 Q1714.86 266.58 1712.8 265.469 Q1710.76 264.335 1709.42 262.02 M1723.91 252.969 Q1723.91 248.27 1721.97 245.608 Q1720.05 242.923 1716.67 242.923 Q1713.29 242.923 1711.34 245.608 Q1709.42 248.27 1709.42 252.969 Q1709.42 257.668 1711.34 260.353 Q1713.29 263.015 1716.67 263.015 Q1720.05 263.015 1721.97 260.353 Q1723.91 257.668 1723.91 252.969 Z" fill="#000000" fill-rule="nonzero" fill-opacity="1" /><path clip-path="url(#clip020)" d="M1747.18 252.876 Q1742.01 252.876 1740.02 254.057 Q1738.03 255.237 1738.03 258.085 Q1738.03 260.353 1739.51 261.696 Q1741.02 263.015 1743.59 263.015 Q1747.13 263.015 1749.26 260.515 Q1751.41 257.992 1751.41 253.825 L1751.41 252.876 L1747.18 252.876 M1755.67 251.117 L1755.67 265.909 L1751.41 265.909 L1751.41 261.973 Q1749.95 264.335 1747.78 265.469 Q1745.6 266.58 1742.45 266.58 Q1738.47 266.58 1736.11 264.358 Q1733.77 262.112 1733.77 258.362 Q1733.77 253.987 1736.69 251.765 Q1739.63 249.543 1745.44 249.543 L1751.41 249.543 L1751.41 249.126 Q1751.41 246.187 1749.47 244.589 Q1747.55 242.969 1744.05 242.969 Q1741.83 242.969 1739.72 243.501 Q1737.62 244.034 1735.67 245.099 L1735.67 241.163 Q1738.01 240.261 1740.21 239.821 Q1742.41 239.358 1744.49 239.358 Q1750.12 239.358 1752.89 242.274 Q1755.67 245.191 1755.67 251.117 Z" fill="#000000" fill-rule="nonzero" fill-opacity="1" /><path clip-path="url(#clip020)" d="M1768.57 262.02 L1768.57 275.77 L1764.28 275.77 L1764.28 239.983 L1768.57 239.983 L1768.57 243.918 Q1769.91 241.603 1771.94 240.492 Q1774.01 239.358 1776.85 239.358 Q1781.57 239.358 1784.51 243.108 Q1787.48 246.858 1787.48 252.969 Q1787.48 259.08 1784.51 262.83 Q1781.57 266.58 1776.85 266.58 Q1774.01 266.58 1771.94 265.469 Q1769.91 264.335 1768.57 262.02 M1783.06 252.969 Q1783.06 248.27 1781.11 245.608 Q1779.19 242.923 1775.81 242.923 Q1772.43 242.923 1770.49 245.608 Q1768.57 248.27 1768.57 252.969 Q1768.57 257.668 1770.49 260.353 Q1772.43 263.015 1775.81 263.015 Q1779.19 263.015 1781.11 260.353 Q1783.06 257.668 1783.06 252.969 Z" fill="#000000" fill-rule="nonzero" fill-opacity="1" /><path clip-path="url(#clip020)" d="M1816.71 251.881 L1816.71 253.964 L1797.13 253.964 Q1797.41 258.362 1799.77 260.677 Q1802.15 262.969 1806.39 262.969 Q1808.84 262.969 1811.13 262.367 Q1813.45 261.765 1815.72 260.561 L1815.72 264.589 Q1813.43 265.561 1811.02 266.071 Q1808.61 266.58 1806.13 266.58 Q1799.93 266.58 1796.3 262.969 Q1792.69 259.358 1792.69 253.2 Q1792.69 246.835 1796.11 243.108 Q1799.56 239.358 1805.39 239.358 Q1810.63 239.358 1813.66 242.737 Q1816.71 246.094 1816.71 251.881 M1812.45 250.631 Q1812.41 247.136 1810.49 245.052 Q1808.59 242.969 1805.44 242.969 Q1801.88 242.969 1799.72 244.983 Q1797.59 246.997 1797.27 250.654 L1812.45 250.631 Z" fill="#000000" fill-rule="nonzero" fill-opacity="1" /><path clip-path="url(#clip020)" d="M1838.73 243.964 Q1838.01 243.548 1837.15 243.362 Q1836.32 243.154 1835.3 243.154 Q1831.69 243.154 1829.75 245.515 Q1827.82 247.853 1827.82 252.251 L1827.82 265.909 L1823.54 265.909 L1823.54 239.983 L1827.82 239.983 L1827.82 244.011 Q1829.17 241.649 1831.32 240.515 Q1833.47 239.358 1836.55 239.358 Q1836.99 239.358 1837.52 239.427 Q1838.06 239.474 1838.7 239.589 L1838.73 243.964 Z" fill="#000000" fill-rule="nonzero" fill-opacity="1" /><path clip-path="url(#clip020)" d="M1862.38 262.02 L1862.38 275.77 L1858.1 275.77 L1858.1 239.983 L1862.38 239.983 L1862.38 243.918 Q1863.73 241.603 1865.76 240.492 Q1867.82 239.358 1870.67 239.358 Q1875.39 239.358 1878.33 243.108 Q1881.3 246.858 1881.3 252.969 Q1881.3 259.08 1878.33 262.83 Q1875.39 266.58 1870.67 266.58 Q1867.82 266.58 1865.76 265.469 Q1863.73 264.335 1862.38 262.02 M1876.87 252.969 Q1876.87 248.27 1874.93 245.608 Q1873.01 242.923 1869.63 242.923 Q1866.25 242.923 1864.31 245.608 Q1862.38 248.27 1862.38 252.969 Q1862.38 257.668 1864.31 260.353 Q1866.25 263.015 1869.63 263.015 Q1873.01 263.015 1874.93 260.353 Q1876.87 257.668 1876.87 252.969 Z" fill="#000000" fill-rule="nonzero" fill-opacity="1" /><path clip-path="url(#clip020)" d="M1900.14 252.876 Q1894.98 252.876 1892.99 254.057 Q1891 255.237 1891 258.085 Q1891 260.353 1892.48 261.696 Q1893.98 263.015 1896.55 263.015 Q1900.09 263.015 1902.22 260.515 Q1904.37 257.992 1904.37 253.825 L1904.37 252.876 L1900.14 252.876 M1908.63 251.117 L1908.63 265.909 L1904.37 265.909 L1904.37 261.973 Q1902.92 264.335 1900.74 265.469 Q1898.56 266.58 1895.42 266.58 Q1891.43 266.58 1889.07 264.358 Q1886.74 262.112 1886.74 258.362 Q1886.74 253.987 1889.65 251.765 Q1892.59 249.543 1898.4 249.543 L1904.37 249.543 L1904.37 249.126 Q1904.37 246.187 1902.43 244.589 Q1900.51 242.969 1897.01 242.969 Q1894.79 242.969 1892.68 243.501 Q1890.58 244.034 1888.63 245.099 L1888.63 241.163 Q1890.97 240.261 1893.17 239.821 Q1895.37 239.358 1897.45 239.358 Q1903.08 239.358 1905.86 242.274 Q1908.63 245.191 1908.63 251.117 Z" fill="#000000" fill-rule="nonzero" fill-opacity="1" /><path clip-path="url(#clip020)" d="M1932.43 243.964 Q1931.71 243.548 1930.86 243.362 Q1930.02 243.154 1929 243.154 Q1925.39 243.154 1923.45 245.515 Q1921.53 247.853 1921.53 252.251 L1921.53 265.909 L1917.25 265.909 L1917.25 239.983 L1921.53 239.983 L1921.53 244.011 Q1922.87 241.649 1925.02 240.515 Q1927.18 239.358 1930.25 239.358 Q1930.69 239.358 1931.23 239.427 Q1931.76 239.474 1932.41 239.589 L1932.43 243.964 Z" fill="#000000" fill-rule="nonzero" fill-opacity="1" /><path clip-path="url(#clip020)" d="M1948.68 252.876 Q1943.52 252.876 1941.53 254.057 Q1939.54 255.237 1939.54 258.085 Q1939.54 260.353 1941.02 261.696 Q1942.52 263.015 1945.09 263.015 Q1948.63 263.015 1950.76 260.515 Q1952.92 257.992 1952.92 253.825 L1952.92 252.876 L1948.68 252.876 M1957.18 251.117 L1957.18 265.909 L1952.92 265.909 L1952.92 261.973 Q1951.46 264.335 1949.28 265.469 Q1947.11 266.58 1943.96 266.58 Q1939.98 266.58 1937.62 264.358 Q1935.28 262.112 1935.28 258.362 Q1935.28 253.987 1938.19 251.765 Q1941.13 249.543 1946.94 249.543 L1952.92 249.543 L1952.92 249.126 Q1952.92 246.187 1950.97 244.589 Q1949.05 242.969 1945.56 242.969 Q1943.33 242.969 1941.23 243.501 Q1939.12 244.034 1937.18 245.099 L1937.18 241.163 Q1939.51 240.261 1941.71 239.821 Q1943.91 239.358 1945.99 239.358 Q1951.62 239.358 1954.4 242.274 Q1957.18 245.191 1957.18 251.117 Z" fill="#000000" fill-rule="nonzero" fill-opacity="1" /><path clip-path="url(#clip020)" d="M1986.13 244.96 Q1987.73 242.089 1989.95 240.724 Q1992.18 239.358 1995.18 239.358 Q1999.24 239.358 2001.43 242.205 Q2003.63 245.029 2003.63 250.261 L2003.63 265.909 L1999.35 265.909 L1999.35 250.399 Q1999.35 246.673 1998.03 244.867 Q1996.71 243.062 1994 243.062 Q1990.69 243.062 1988.77 245.261 Q1986.85 247.46 1986.85 251.256 L1986.85 265.909 L1982.57 265.909 L1982.57 250.399 Q1982.57 246.649 1981.25 244.867 Q1979.93 243.062 1977.18 243.062 Q1973.91 243.062 1971.99 245.284 Q1970.07 247.483 1970.07 251.256 L1970.07 265.909 L1965.79 265.909 L1965.79 239.983 L1970.07 239.983 L1970.07 244.011 Q1971.53 241.626 1973.56 240.492 Q1975.6 239.358 1978.4 239.358 Q1981.23 239.358 1983.19 240.793 Q1985.18 242.228 1986.13 244.96 Z" fill="#000000" fill-rule="nonzero" fill-opacity="1" /><path clip-path="url(#clip020)" d="M2034.3 251.881 L2034.3 253.964 L2014.72 253.964 Q2015 258.362 2017.36 260.677 Q2019.74 262.969 2023.98 262.969 Q2026.43 262.969 2028.73 262.367 Q2031.04 261.765 2033.31 260.561 L2033.31 264.589 Q2031.02 265.561 2028.61 266.071 Q2026.2 266.58 2023.73 266.58 Q2017.52 266.58 2013.89 262.969 Q2010.28 259.358 2010.28 253.2 Q2010.28 246.835 2013.7 243.108 Q2017.15 239.358 2022.99 239.358 Q2028.22 239.358 2031.25 242.737 Q2034.3 246.094 2034.3 251.881 M2030.05 250.631 Q2030 247.136 2028.08 245.052 Q2026.18 242.969 2023.03 242.969 Q2019.47 242.969 2017.31 244.983 Q2015.18 246.997 2014.86 250.654 L2030.05 250.631 Z" fill="#000000" fill-rule="nonzero" fill-opacity="1" /><path clip-path="url(#clip020)" d="M2045.51 232.622 L2045.51 239.983 L2054.28 239.983 L2054.28 243.293 L2045.51 243.293 L2045.51 257.367 Q2045.51 260.538 2046.36 261.441 Q2047.24 262.344 2049.91 262.344 L2054.28 262.344 L2054.28 265.909 L2049.91 265.909 Q2044.98 265.909 2043.1 264.08 Q2041.23 262.228 2041.23 257.367 L2041.23 243.293 L2038.1 243.293 L2038.1 239.983 L2041.23 239.983 L2041.23 232.622 L2045.51 232.622 Z" fill="#000000" fill-rule="nonzero" fill-opacity="1" /><path clip-path="url(#clip020)" d="M2082.06 251.881 L2082.06 253.964 L2062.48 253.964 Q2062.75 258.362 2065.11 260.677 Q2067.5 262.969 2071.73 262.969 Q2074.19 262.969 2076.48 262.367 Q2078.8 261.765 2081.06 260.561 L2081.06 264.589 Q2078.77 265.561 2076.36 266.071 Q2073.96 266.58 2071.48 266.58 Q2065.28 266.58 2061.64 262.969 Q2058.03 259.358 2058.03 253.2 Q2058.03 246.835 2061.46 243.108 Q2064.91 239.358 2070.74 239.358 Q2075.97 239.358 2079 242.737 Q2082.06 246.094 2082.06 251.881 M2077.8 250.631 Q2077.75 247.136 2075.83 245.052 Q2073.93 242.969 2070.79 242.969 Q2067.22 242.969 2065.07 244.983 Q2062.94 246.997 2062.61 250.654 L2077.8 250.631 Z" fill="#000000" fill-rule="nonzero" fill-opacity="1" /><path clip-path="url(#clip020)" d="M2104.07 243.964 Q2103.36 243.548 2102.5 243.362 Q2101.67 243.154 2100.65 243.154 Q2097.04 243.154 2095.09 245.515 Q2093.17 247.853 2093.17 252.251 L2093.17 265.909 L2088.89 265.909 L2088.89 239.983 L2093.17 239.983 L2093.17 244.011 Q2094.51 241.649 2096.67 240.515 Q2098.82 239.358 2101.9 239.358 Q2102.34 239.358 2102.87 239.427 Q2103.4 239.474 2104.05 239.589 L2104.07 243.964 Z" fill="#000000" fill-rule="nonzero" fill-opacity="1" /><path clip-path="url(#clip020)" d="M2108.54 239.983 L2112.8 239.983 L2112.8 265.909 L2108.54 265.909 L2108.54 239.983 M2108.54 229.89 L2112.8 229.89 L2112.8 235.284 L2108.54 235.284 L2108.54 229.89 Z" fill="#000000" fill-rule="nonzero" fill-opacity="1" /><path clip-path="url(#clip020)" d="M2119.86 239.983 L2140.09 239.983 L2140.09 243.872 L2124.07 262.506 L2140.09 262.506 L2140.09 265.909 L2119.28 265.909 L2119.28 262.02 L2135.3 243.386 L2119.86 243.386 L2119.86 239.983 Z" fill="#000000" fill-rule="nonzero" fill-opacity="1" /><path clip-path="url(#clip020)" d="M2158.38 252.876 Q2153.22 252.876 2151.23 254.057 Q2149.23 255.237 2149.23 258.085 Q2149.23 260.353 2150.72 261.696 Q2152.22 263.015 2154.79 263.015 Q2158.33 263.015 2160.46 260.515 Q2162.61 257.992 2162.61 253.825 L2162.61 252.876 L2158.38 252.876 M2166.87 251.117 L2166.87 265.909 L2162.61 265.909 L2162.61 261.973 Q2161.16 264.335 2158.98 265.469 Q2156.8 266.58 2153.66 266.58 Q2149.67 266.58 2147.31 264.358 Q2144.98 262.112 2144.98 258.362 Q2144.98 253.987 2147.89 251.765 Q2150.83 249.543 2156.64 249.543 L2162.61 249.543 L2162.61 249.126 Q2162.61 246.187 2160.67 244.589 Q2158.75 242.969 2155.25 242.969 Q2153.03 242.969 2150.92 243.501 Q2148.82 244.034 2146.87 245.099 L2146.87 241.163 Q2149.21 240.261 2151.41 239.821 Q2153.61 239.358 2155.69 239.358 Q2161.32 239.358 2164.1 242.274 Q2166.87 245.191 2166.87 251.117 Z" fill="#000000" fill-rule="nonzero" fill-opacity="1" /><path clip-path="url(#clip020)" d="M2179.86 232.622 L2179.86 239.983 L2188.63 239.983 L2188.63 243.293 L2179.86 243.293 L2179.86 257.367 Q2179.86 260.538 2180.72 261.441 Q2181.6 262.344 2184.26 262.344 L2188.63 262.344 L2188.63 265.909 L2184.26 265.909 Q2179.33 265.909 2177.45 264.08 Q2175.58 262.228 2175.58 257.367 L2175.58 243.293 L2172.45 243.293 L2172.45 239.983 L2175.58 239.983 L2175.58 232.622 L2179.86 232.622 Z" fill="#000000" fill-rule="nonzero" fill-opacity="1" /><path clip-path="url(#clip020)" d="M2194.23 239.983 L2198.49 239.983 L2198.49 265.909 L2194.23 265.909 L2194.23 239.983 M2194.23 229.89 L2198.49 229.89 L2198.49 235.284 L2194.23 235.284 L2194.23 229.89 Z" fill="#000000" fill-rule="nonzero" fill-opacity="1" /><path clip-path="url(#clip020)" d="M2217.45 242.969 Q2214.03 242.969 2212.04 245.654 Q2210.04 248.316 2210.04 252.969 Q2210.04 257.622 2212.01 260.307 Q2214 262.969 2217.45 262.969 Q2220.85 262.969 2222.85 260.284 Q2224.84 257.598 2224.84 252.969 Q2224.84 248.362 2222.85 245.677 Q2220.85 242.969 2217.45 242.969 M2217.45 239.358 Q2223.01 239.358 2226.18 242.969 Q2229.35 246.58 2229.35 252.969 Q2229.35 259.335 2226.18 262.969 Q2223.01 266.58 2217.45 266.58 Q2211.87 266.58 2208.7 262.969 Q2205.55 259.335 2205.55 252.969 Q2205.55 246.58 2208.7 242.969 Q2211.87 239.358 2217.45 239.358 Z" fill="#000000" fill-rule="nonzero" fill-opacity="1" /><path clip-path="url(#clip020)" d="M2257.96 250.261 L2257.96 265.909 L2253.7 265.909 L2253.7 250.399 Q2253.7 246.719 2252.27 244.89 Q2250.83 243.062 2247.96 243.062 Q2244.51 243.062 2242.52 245.261 Q2240.53 247.46 2240.53 251.256 L2240.53 265.909 L2236.25 265.909 L2236.25 239.983 L2240.53 239.983 L2240.53 244.011 Q2242.06 241.673 2244.12 240.515 Q2246.2 239.358 2248.91 239.358 Q2253.38 239.358 2255.67 242.136 Q2257.96 244.89 2257.96 250.261 Z" fill="#000000" fill-rule="nonzero" fill-opacity="1" /></svg>
