<?xml version="1.0" encoding="utf-8"?>
<svg xmlns="http://www.w3.org/2000/svg" xmlns:xlink="http://www.w3.org/1999/xlink" width="600" height="400" viewBox="0 0 2400 1600">
<defs>
  <clipPath id="clip490">
    <rect x="0" y="0" width="2400" height="1600"/>
  </clipPath>
</defs>
<path clip-path="url(#clip490)" d="M0 1600 L2400 1600 L2400 0 L0 0  Z" fill="#ffffff" fill-rule="evenodd" fill-opacity="1"/>
<defs>
  <clipPath id="clip491">
    <rect x="480" y="0" width="1681" height="1600"/>
  </clipPath>
</defs>
<path clip-path="url(#clip490)" d="M251.372 1410.9 L2352.76 1410.9 L2352.76 47.2441 L251.372 47.2441  Z" fill="#ffffff" fill-rule="evenodd" fill-opacity="1"/>
<defs>
  <clipPath id="clip492">
    <rect x="251" y="47" width="2102" height="1365"/>
  </clipPath>
</defs>
<polyline clip-path="url(#clip492)" style="stroke:#000000; stroke-linecap:round; stroke-linejoin:round; stroke-width:2; stroke-opacity:0.1; fill:none" points="671.649,1410.9 671.649,47.2441 "/>
<polyline clip-path="url(#clip492)" style="stroke:#000000; stroke-linecap:round; stroke-linejoin:round; stroke-width:2; stroke-opacity:0.1; fill:none" points="1372.11,1410.9 1372.11,47.2441 "/>
<polyline clip-path="url(#clip492)" style="stroke:#000000; stroke-linecap:round; stroke-linejoin:round; stroke-width:2; stroke-opacity:0.1; fill:none" points="2072.57,1410.9 2072.57,47.2441 "/>
<polyline clip-path="url(#clip490)" style="stroke:#000000; stroke-linecap:round; stroke-linejoin:round; stroke-width:4; stroke-opacity:1; fill:none" points="251.372,1410.9 2352.76,1410.9 "/>
<polyline clip-path="url(#clip490)" style="stroke:#000000; stroke-linecap:round; stroke-linejoin:round; stroke-width:4; stroke-opacity:1; fill:none" points="671.649,1410.9 671.649,1392 "/>
<polyline clip-path="url(#clip490)" style="stroke:#000000; stroke-linecap:round; stroke-linejoin:round; stroke-width:4; stroke-opacity:1; fill:none" points="1372.11,1410.9 1372.11,1392 "/>
<polyline clip-path="url(#clip490)" style="stroke:#000000; stroke-linecap:round; stroke-linejoin:round; stroke-width:4; stroke-opacity:1; fill:none" points="2072.57,1410.9 2072.57,1392 "/>
<path clip-path="url(#clip490)" d="M636.641 1485.02 L644.28 1485.02 L644.28 1458.66 L635.97 1460.32 L635.97 1456.06 L644.234 1454.4 L648.91 1454.4 L648.91 1485.02 L656.548 1485.02 L656.548 1488.96 L636.641 1488.96 L636.641 1485.02 Z" fill="#000000" fill-rule="nonzero" fill-opacity="1" /><path clip-path="url(#clip490)" d="M675.993 1457.48 Q672.382 1457.48 670.553 1461.04 Q668.747 1464.58 668.747 1471.71 Q668.747 1478.82 670.553 1482.38 Q672.382 1485.92 675.993 1485.92 Q679.627 1485.92 681.433 1482.38 Q683.261 1478.82 683.261 1471.71 Q683.261 1464.58 681.433 1461.04 Q679.627 1457.48 675.993 1457.48 M675.993 1453.77 Q681.803 1453.77 684.858 1458.38 Q687.937 1462.96 687.937 1471.71 Q687.937 1480.44 684.858 1485.04 Q681.803 1489.63 675.993 1489.63 Q670.183 1489.63 667.104 1485.04 Q664.048 1480.44 664.048 1471.71 Q664.048 1462.96 667.104 1458.38 Q670.183 1453.77 675.993 1453.77 Z" fill="#000000" fill-rule="nonzero" fill-opacity="1" /><path clip-path="url(#clip490)" d="M697.962 1445.99 Q695.404 1445.99 693.899 1447.74 Q692.413 1449.49 692.413 1452.54 Q692.413 1455.57 693.899 1457.33 Q695.404 1459.08 697.962 1459.08 Q700.52 1459.08 702.005 1457.33 Q703.51 1455.57 703.51 1452.54 Q703.51 1449.49 702.005 1447.74 Q700.52 1445.99 697.962 1445.99 M705.504 1434.09 L705.504 1437.55 Q704.074 1436.87 702.607 1436.51 Q701.159 1436.16 699.73 1436.16 Q695.968 1436.16 693.974 1438.69 Q692 1441.23 691.718 1446.37 Q692.827 1444.73 694.501 1443.87 Q696.175 1442.98 698.187 1442.98 Q702.419 1442.98 704.864 1445.56 Q707.328 1448.12 707.328 1452.54 Q707.328 1456.86 704.77 1459.48 Q702.212 1462.09 697.962 1462.09 Q693.091 1462.09 690.514 1458.37 Q687.937 1454.62 687.937 1447.53 Q687.937 1440.88 691.097 1436.93 Q694.257 1432.96 699.579 1432.96 Q701.009 1432.96 702.457 1433.24 Q703.924 1433.52 705.504 1434.09 Z" fill="#000000" fill-rule="nonzero" fill-opacity="1" /><path clip-path="url(#clip490)" d="M1337.77 1485.02 L1345.41 1485.02 L1345.41 1458.66 L1337.1 1460.32 L1337.1 1456.06 L1345.36 1454.4 L1350.04 1454.4 L1350.04 1485.02 L1357.68 1485.02 L1357.68 1488.96 L1337.77 1488.96 L1337.77 1485.02 Z" fill="#000000" fill-rule="nonzero" fill-opacity="1" /><path clip-path="url(#clip490)" d="M1377.12 1457.48 Q1373.51 1457.48 1371.68 1461.04 Q1369.88 1464.58 1369.88 1471.71 Q1369.88 1478.82 1371.68 1482.38 Q1373.51 1485.92 1377.12 1485.92 Q1380.76 1485.92 1382.56 1482.38 Q1384.39 1478.82 1384.39 1471.71 Q1384.39 1464.58 1382.56 1461.04 Q1380.76 1457.48 1377.12 1457.48 M1377.12 1453.77 Q1382.93 1453.77 1385.99 1458.38 Q1389.07 1462.96 1389.07 1471.71 Q1389.07 1480.44 1385.99 1485.04 Q1382.93 1489.63 1377.12 1489.63 Q1371.31 1489.63 1368.23 1485.04 Q1365.18 1480.44 1365.18 1471.71 Q1365.18 1462.96 1368.23 1458.38 Q1371.31 1453.77 1377.12 1453.77 Z" fill="#000000" fill-rule="nonzero" fill-opacity="1" /><path clip-path="url(#clip490)" d="M1389.07 1433.47 L1407.12 1433.47 L1407.12 1435.08 L1396.93 1461.55 L1392.96 1461.55 L1402.55 1436.66 L1389.07 1436.66 L1389.07 1433.47 Z" fill="#000000" fill-rule="nonzero" fill-opacity="1" /><path clip-path="url(#clip490)" d="M2037.63 1485.02 L2045.27 1485.02 L2045.27 1458.66 L2036.96 1460.32 L2036.96 1456.06 L2045.22 1454.4 L2049.9 1454.4 L2049.9 1485.02 L2057.54 1485.02 L2057.54 1488.96 L2037.63 1488.96 L2037.63 1485.02 Z" fill="#000000" fill-rule="nonzero" fill-opacity="1" /><path clip-path="url(#clip490)" d="M2076.98 1457.48 Q2073.37 1457.48 2071.54 1461.04 Q2069.74 1464.58 2069.74 1471.71 Q2069.74 1478.82 2071.54 1482.38 Q2073.37 1485.92 2076.98 1485.92 Q2080.62 1485.92 2082.42 1482.38 Q2084.25 1478.82 2084.25 1471.71 Q2084.25 1464.58 2082.42 1461.04 Q2080.62 1457.48 2076.98 1457.48 M2076.98 1453.77 Q2082.79 1453.77 2085.85 1458.38 Q2088.93 1462.96 2088.93 1471.71 Q2088.93 1480.44 2085.85 1485.04 Q2082.79 1489.63 2076.98 1489.63 Q2071.17 1489.63 2068.09 1485.04 Q2065.04 1480.44 2065.04 1471.71 Q2065.04 1462.96 2068.09 1458.38 Q2071.17 1453.77 2076.98 1453.77 Z" fill="#000000" fill-rule="nonzero" fill-opacity="1" /><path clip-path="url(#clip490)" d="M2098.56 1448.21 Q2095.85 1448.21 2094.29 1449.66 Q2092.74 1451.11 2092.74 1453.65 Q2092.74 1456.19 2094.29 1457.63 Q2095.85 1459.08 2098.56 1459.08 Q2101.26 1459.08 2102.82 1457.63 Q2104.39 1456.17 2104.39 1453.65 Q2104.39 1451.11 2102.82 1449.66 Q2101.28 1448.21 2098.56 1448.21 M2094.76 1446.59 Q2092.31 1445.99 2090.94 1444.32 Q2089.58 1442.64 2089.58 1440.24 Q2089.58 1436.87 2091.97 1434.91 Q2094.38 1432.96 2098.56 1432.96 Q2102.75 1432.96 2105.14 1434.91 Q2107.53 1436.87 2107.53 1440.24 Q2107.53 1442.64 2106.15 1444.32 Q2104.8 1445.99 2102.37 1446.59 Q2105.12 1447.23 2106.64 1449.1 Q2108.18 1450.96 2108.18 1453.65 Q2108.18 1457.73 2105.68 1459.91 Q2103.2 1462.09 2098.56 1462.09 Q2093.91 1462.09 2091.41 1459.91 Q2088.93 1457.73 2088.93 1453.65 Q2088.93 1450.96 2090.47 1449.1 Q2092.01 1447.23 2094.76 1446.59 M2093.36 1440.59 Q2093.36 1442.78 2094.72 1444 Q2096.09 1445.22 2098.56 1445.22 Q2101 1445.22 2102.37 1444 Q2103.76 1442.78 2103.76 1440.59 Q2103.76 1438.41 2102.37 1437.19 Q2101 1435.97 2098.56 1435.97 Q2096.09 1435.97 2094.72 1437.19 Q2093.36 1438.41 2093.36 1440.59 Z" fill="#000000" fill-rule="nonzero" fill-opacity="1" /><path clip-path="url(#clip490)" d="M1011.04 1524.66 L1024.54 1524.66 L1024.54 1529.21 L1016.9 1529.21 L1016.9 1578.23 L1024.54 1578.23 L1024.54 1582.78 L1011.04 1582.78 L1011.04 1524.66 Z" fill="#000000" fill-rule="nonzero" fill-opacity="1" /><path clip-path="url(#clip490)" d="M1043.7 1551.49 L1043.7 1568.9 L1054.01 1568.9 Q1059.2 1568.9 1061.68 1566.77 Q1064.19 1564.61 1064.19 1560.18 Q1064.19 1555.72 1061.68 1553.62 Q1059.2 1551.49 1054.01 1551.49 L1043.7 1551.49 M1043.7 1531.95 L1043.7 1546.27 L1053.21 1546.27 Q1057.92 1546.27 1060.21 1544.52 Q1062.54 1542.74 1062.54 1539.11 Q1062.54 1535.51 1060.21 1533.73 Q1057.92 1531.95 1053.21 1531.95 L1043.7 1531.95 M1037.27 1526.67 L1053.69 1526.67 Q1061.04 1526.67 1065.02 1529.72 Q1069 1532.78 1069 1538.41 Q1069 1542.77 1066.96 1545.35 Q1064.93 1547.93 1060.98 1548.56 Q1065.72 1549.58 1068.33 1552.83 Q1070.97 1556.04 1070.97 1560.88 Q1070.97 1567.25 1066.64 1570.72 Q1062.32 1574.19 1054.33 1574.19 L1037.27 1574.19 L1037.27 1526.67 Z" fill="#000000" fill-rule="nonzero" fill-opacity="1" /><path clip-path="url(#clip490)" d="M1081.73 1538.54 L1087.59 1538.54 L1087.59 1574.19 L1081.73 1574.19 L1081.73 1538.54 M1081.73 1524.66 L1087.59 1524.66 L1087.59 1532.08 L1081.73 1532.08 L1081.73 1524.66 Z" fill="#000000" fill-rule="nonzero" fill-opacity="1" /><path clip-path="url(#clip490)" d="M1113.66 1542.64 Q1108.94 1542.64 1106.21 1546.34 Q1103.47 1550 1103.47 1556.39 Q1103.47 1562.79 1106.18 1566.48 Q1108.91 1570.14 1113.66 1570.14 Q1118.33 1570.14 1121.07 1566.45 Q1123.81 1562.76 1123.81 1556.39 Q1123.81 1550.06 1121.07 1546.37 Q1118.33 1542.64 1113.66 1542.64 M1113.66 1537.68 Q1121.29 1537.68 1125.65 1542.64 Q1130.01 1547.61 1130.01 1556.39 Q1130.01 1565.15 1125.65 1570.14 Q1121.29 1575.11 1113.66 1575.11 Q1105.98 1575.11 1101.62 1570.14 Q1097.3 1565.15 1097.3 1556.39 Q1097.3 1547.61 1101.62 1542.64 Q1105.98 1537.68 1113.66 1537.68 Z" fill="#000000" fill-rule="nonzero" fill-opacity="1" /><path clip-path="url(#clip490)" d="M1159.27 1531.03 Q1152.26 1531.03 1148.13 1536.25 Q1144.02 1541.47 1144.02 1550.47 Q1144.02 1559.45 1148.13 1564.67 Q1152.26 1569.89 1159.27 1569.89 Q1166.27 1569.89 1170.34 1564.67 Q1174.45 1559.45 1174.45 1550.47 Q1174.45 1541.47 1170.34 1536.25 Q1166.27 1531.03 1159.27 1531.03 M1159.27 1525.81 Q1169.26 1525.81 1175.24 1532.52 Q1181.23 1539.21 1181.23 1550.47 Q1181.23 1561.71 1175.24 1568.42 Q1169.26 1575.11 1159.27 1575.11 Q1149.24 1575.11 1143.22 1568.42 Q1137.24 1561.74 1137.24 1550.47 Q1137.24 1539.21 1143.22 1532.52 Q1149.24 1525.81 1159.27 1525.81 Z" fill="#000000" fill-rule="nonzero" fill-opacity="1" /><path clip-path="url(#clip490)" d="M1220.66 1538.54 L1207.77 1555.88 L1221.33 1574.19 L1214.42 1574.19 L1204.05 1560.18 L1193.67 1574.19 L1186.77 1574.19 L1200.61 1555.53 L1187.94 1538.54 L1194.85 1538.54 L1204.3 1551.24 L1213.76 1538.54 L1220.66 1538.54 Z" fill="#000000" fill-rule="nonzero" fill-opacity="1" /><path clip-path="url(#clip490)" d="M1249.15 1531.03 Q1242.15 1531.03 1238.01 1536.25 Q1233.9 1541.47 1233.9 1550.47 Q1233.9 1559.45 1238.01 1564.67 Q1242.15 1569.89 1249.15 1569.89 Q1256.15 1569.89 1260.23 1564.67 Q1264.33 1559.45 1264.33 1550.47 Q1264.33 1541.47 1260.23 1536.25 Q1256.15 1531.03 1249.15 1531.03 M1249.15 1525.81 Q1259.14 1525.81 1265.13 1532.52 Q1271.11 1539.21 1271.11 1550.47 Q1271.11 1561.71 1265.13 1568.42 Q1259.14 1575.11 1249.15 1575.11 Q1239.12 1575.11 1233.11 1568.42 Q1227.12 1561.74 1227.12 1550.47 Q1227.12 1539.21 1233.11 1532.52 Q1239.12 1525.81 1249.15 1525.81 Z" fill="#000000" fill-rule="nonzero" fill-opacity="1" /><path clip-path="url(#clip490)" d="M1301.57 1544.01 Q1300.58 1543.44 1299.41 1543.18 Q1298.26 1542.9 1296.86 1542.9 Q1291.89 1542.9 1289.22 1546.14 Q1286.58 1549.36 1286.58 1555.41 L1286.58 1574.19 L1280.69 1574.19 L1280.69 1538.54 L1286.58 1538.54 L1286.58 1544.08 Q1288.43 1540.83 1291.39 1539.27 Q1294.35 1537.68 1298.58 1537.68 Q1299.18 1537.68 1299.92 1537.77 Q1300.65 1537.84 1301.54 1538 L1301.57 1544.01 Z" fill="#000000" fill-rule="nonzero" fill-opacity="1" /><path clip-path="url(#clip490)" d="M1330.03 1555.95 Q1330.03 1549.58 1327.38 1546.08 Q1324.77 1542.58 1320.03 1542.58 Q1315.32 1542.58 1312.68 1546.08 Q1310.07 1549.58 1310.07 1555.95 Q1310.07 1562.28 1312.68 1565.78 Q1315.32 1569.28 1320.03 1569.28 Q1324.77 1569.28 1327.38 1565.78 Q1330.03 1562.28 1330.03 1555.95 M1335.88 1569.76 Q1335.88 1578.86 1331.84 1583.29 Q1327.8 1587.74 1319.46 1587.74 Q1316.37 1587.74 1313.63 1587.27 Q1310.9 1586.82 1308.32 1585.87 L1308.32 1580.17 Q1310.9 1581.57 1313.41 1582.24 Q1315.93 1582.91 1318.54 1582.91 Q1324.3 1582.91 1327.16 1579.88 Q1330.03 1576.89 1330.03 1570.81 L1330.03 1567.92 Q1328.21 1571.07 1325.38 1572.63 Q1322.55 1574.19 1318.6 1574.19 Q1312.04 1574.19 1308.03 1569.19 Q1304.02 1564.19 1304.02 1555.95 Q1304.02 1547.67 1308.03 1542.68 Q1312.04 1537.68 1318.6 1537.68 Q1322.55 1537.68 1325.38 1539.24 Q1328.21 1540.8 1330.03 1543.95 L1330.03 1538.54 L1335.88 1538.54 L1335.88 1569.76 Z" fill="#000000" fill-rule="nonzero" fill-opacity="1" /><path clip-path="url(#clip490)" d="M1361.63 1524.66 L1361.63 1582.78 L1348.14 1582.78 L1348.14 1578.23 L1355.74 1578.23 L1355.74 1529.21 L1348.14 1529.21 L1348.14 1524.66 L1361.63 1524.66 Z" fill="#000000" fill-rule="nonzero" fill-opacity="1" /><path clip-path="url(#clip490)" d="M1408.16 1524.72 Q1403.9 1532.04 1401.83 1539.21 Q1399.76 1546.37 1399.76 1553.72 Q1399.76 1561.07 1401.83 1568.3 Q1403.93 1575.49 1408.16 1582.78 L1403.07 1582.78 Q1398.3 1575.3 1395.91 1568.07 Q1393.56 1560.85 1393.56 1553.72 Q1393.56 1546.62 1395.91 1539.43 Q1398.27 1532.24 1403.07 1524.72 L1408.16 1524.72 Z" fill="#000000" fill-rule="nonzero" fill-opacity="1" /><path clip-path="url(#clip490)" d="M1445.18 1539.91 L1445.18 1545.38 Q1442.7 1544.01 1440.18 1543.34 Q1437.7 1542.64 1435.16 1542.64 Q1429.46 1542.64 1426.31 1546.27 Q1423.16 1549.87 1423.16 1556.39 Q1423.16 1562.92 1426.31 1566.55 Q1429.46 1570.14 1435.16 1570.14 Q1437.7 1570.14 1440.18 1569.47 Q1442.7 1568.77 1445.18 1567.41 L1445.18 1572.82 Q1442.73 1573.96 1440.09 1574.54 Q1437.48 1575.11 1434.52 1575.11 Q1426.47 1575.11 1421.72 1570.05 Q1416.98 1564.99 1416.98 1556.39 Q1416.98 1547.67 1421.76 1542.68 Q1426.56 1537.68 1434.9 1537.68 Q1437.61 1537.68 1440.18 1538.25 Q1442.76 1538.79 1445.18 1539.91 Z" fill="#000000" fill-rule="nonzero" fill-opacity="1" /><path clip-path="url(#clip490)" d="M1483.12 1545.38 Q1485.32 1541.43 1488.37 1539.56 Q1491.43 1537.68 1495.57 1537.68 Q1501.14 1537.68 1504.16 1541.59 Q1507.18 1545.48 1507.18 1552.67 L1507.18 1574.19 L1501.29 1574.19 L1501.29 1552.86 Q1501.29 1547.74 1499.48 1545.25 Q1497.67 1542.77 1493.94 1542.77 Q1489.39 1542.77 1486.75 1545.79 Q1484.11 1548.82 1484.11 1554.04 L1484.11 1574.19 L1478.22 1574.19 L1478.22 1552.86 Q1478.22 1547.7 1476.4 1545.25 Q1474.59 1542.77 1470.8 1542.77 Q1466.32 1542.77 1463.67 1545.83 Q1461.03 1548.85 1461.03 1554.04 L1461.03 1574.19 L1455.14 1574.19 L1455.14 1538.54 L1461.03 1538.54 L1461.03 1544.08 Q1463.04 1540.8 1465.84 1539.24 Q1468.64 1537.68 1472.49 1537.68 Q1476.37 1537.68 1479.08 1539.65 Q1481.82 1541.62 1483.12 1545.38 Z" fill="#000000" fill-rule="nonzero" fill-opacity="1" /><path clip-path="url(#clip490)" d="M1517.08 1539.97 L1542.77 1539.97 L1542.77 1542.99 L1517.08 1542.99 L1517.08 1539.97 Z" fill="#000000" fill-rule="nonzero" fill-opacity="1" /><path clip-path="url(#clip490)" d="M1563.81 1538.54 Q1566.73 1539.11 1568.33 1540.86 Q1569.95 1542.58 1569.95 1545.19 Q1569.95 1549.14 1566.93 1551.27 Q1563.9 1553.4 1558.27 1553.4 Q1556.45 1553.4 1554.45 1553.08 Q1552.48 1552.73 1550.25 1552.1 L1550.25 1548.25 Q1551.9 1549.1 1553.78 1549.52 Q1555.69 1549.93 1557.82 1549.93 Q1561.29 1549.93 1563.2 1548.69 Q1565.11 1547.42 1565.11 1545.19 Q1565.11 1542.83 1563.33 1541.62 Q1561.58 1540.42 1558.14 1540.42 L1555.4 1540.42 L1555.4 1536.98 L1558.4 1536.98 Q1561.39 1536.98 1562.91 1535.99 Q1564.47 1534.97 1564.47 1533.06 Q1564.47 1531.22 1562.88 1530.26 Q1561.29 1529.28 1558.27 1529.28 Q1556.99 1529.28 1555.37 1529.56 Q1553.75 1529.85 1551.17 1530.58 L1551.17 1526.92 Q1553.49 1526.38 1555.53 1526.09 Q1557.57 1525.81 1559.32 1525.81 Q1563.9 1525.81 1566.58 1527.68 Q1569.28 1529.56 1569.28 1532.71 Q1569.28 1534.91 1567.85 1536.44 Q1566.42 1537.96 1563.81 1538.54 Z" fill="#000000" fill-rule="nonzero" fill-opacity="1" /><path clip-path="url(#clip490)" d="M1578.48 1524.72 L1583.57 1524.72 Q1588.35 1532.24 1590.7 1539.43 Q1593.09 1546.62 1593.09 1553.72 Q1593.09 1560.85 1590.7 1568.07 Q1588.35 1575.3 1583.57 1582.78 L1578.48 1582.78 Q1582.71 1575.49 1584.78 1568.3 Q1586.88 1561.07 1586.88 1553.72 Q1586.88 1546.37 1584.78 1539.21 Q1582.71 1532.04 1578.48 1524.72 Z" fill="#000000" fill-rule="nonzero" fill-opacity="1" /><polyline clip-path="url(#clip492)" style="stroke:#000000; stroke-linecap:round; stroke-linejoin:round; stroke-width:2; stroke-opacity:0.1; fill:none" points="251.372,1069.98 2352.76,1069.98 "/>
<polyline clip-path="url(#clip492)" style="stroke:#000000; stroke-linecap:round; stroke-linejoin:round; stroke-width:2; stroke-opacity:0.1; fill:none" points="251.372,729.07 2352.76,729.07 "/>
<polyline clip-path="url(#clip492)" style="stroke:#000000; stroke-linecap:round; stroke-linejoin:round; stroke-width:2; stroke-opacity:0.1; fill:none" points="251.372,388.157 2352.76,388.157 "/>
<polyline clip-path="url(#clip492)" style="stroke:#000000; stroke-linecap:round; stroke-linejoin:round; stroke-width:2; stroke-opacity:0.1; fill:none" points="251.372,47.2441 2352.76,47.2441 "/>
<polyline clip-path="url(#clip490)" style="stroke:#000000; stroke-linecap:round; stroke-linejoin:round; stroke-width:4; stroke-opacity:1; fill:none" points="251.372,1410.9 251.372,47.2441 "/>
<polyline clip-path="url(#clip490)" style="stroke:#000000; stroke-linecap:round; stroke-linejoin:round; stroke-width:4; stroke-opacity:1; fill:none" points="251.372,1069.98 270.27,1069.98 "/>
<polyline clip-path="url(#clip490)" style="stroke:#000000; stroke-linecap:round; stroke-linejoin:round; stroke-width:4; stroke-opacity:1; fill:none" points="251.372,729.07 270.27,729.07 "/>
<polyline clip-path="url(#clip490)" style="stroke:#000000; stroke-linecap:round; stroke-linejoin:round; stroke-width:4; stroke-opacity:1; fill:none" points="251.372,388.157 270.27,388.157 "/>
<polyline clip-path="url(#clip490)" style="stroke:#000000; stroke-linecap:round; stroke-linejoin:round; stroke-width:4; stroke-opacity:1; fill:none" points="251.372,47.2441 270.27,47.2441 "/>
<path clip-path="url(#clip490)" d="M115.232 1089.78 L122.871 1089.78 L122.871 1063.41 L114.561 1065.08 L114.561 1060.82 L122.825 1059.15 L127.501 1059.15 L127.501 1089.78 L135.14 1089.78 L135.14 1093.71 L115.232 1093.71 L115.232 1089.78 Z" fill="#000000" fill-rule="nonzero" fill-opacity="1" /><path clip-path="url(#clip490)" d="M154.584 1062.23 Q150.973 1062.23 149.144 1065.79 Q147.339 1069.34 147.339 1076.47 Q147.339 1083.57 149.144 1087.14 Q150.973 1090.68 154.584 1090.68 Q158.218 1090.68 160.024 1087.14 Q161.852 1083.57 161.852 1076.47 Q161.852 1069.34 160.024 1065.79 Q158.218 1062.23 154.584 1062.23 M154.584 1058.53 Q160.394 1058.53 163.45 1063.13 Q166.528 1067.72 166.528 1076.47 Q166.528 1085.19 163.45 1089.8 Q160.394 1094.38 154.584 1094.38 Q148.774 1094.38 145.695 1089.8 Q142.64 1085.19 142.64 1076.47 Q142.64 1067.72 145.695 1063.13 Q148.774 1058.53 154.584 1058.53 Z" fill="#000000" fill-rule="nonzero" fill-opacity="1" /><path clip-path="url(#clip490)" d="M166.528 1052.63 L190.64 1052.63 L190.64 1055.82 L166.528 1055.82 L166.528 1052.63 Z" fill="#000000" fill-rule="nonzero" fill-opacity="1" /><path clip-path="url(#clip490)" d="M202.113 1063.1 L215.372 1063.1 L215.372 1066.3 L197.542 1066.3 L197.542 1063.1 Q199.705 1060.87 203.429 1057.1 Q207.172 1053.32 208.131 1052.23 Q209.956 1050.18 210.67 1048.77 Q211.404 1047.34 211.404 1045.97 Q211.404 1043.73 209.824 1042.32 Q208.263 1040.91 205.743 1040.91 Q203.956 1040.91 201.962 1041.53 Q199.987 1042.15 197.73 1043.41 L197.73 1039.57 Q200.025 1038.65 202.019 1038.18 Q204.012 1037.71 205.667 1037.71 Q210.031 1037.71 212.626 1039.89 Q215.222 1042.08 215.222 1045.73 Q215.222 1047.46 214.563 1049.02 Q213.924 1050.56 212.212 1052.67 Q211.742 1053.21 209.222 1055.82 Q206.702 1058.42 202.113 1063.1 Z" fill="#000000" fill-rule="nonzero" fill-opacity="1" /><path clip-path="url(#clip490)" d="M114.931 748.863 L122.57 748.863 L122.57 722.497 L114.26 724.164 L114.26 719.905 L122.524 718.238 L127.2 718.238 L127.2 748.863 L134.839 748.863 L134.839 752.798 L114.931 752.798 L114.931 748.863 Z" fill="#000000" fill-rule="nonzero" fill-opacity="1" /><path clip-path="url(#clip490)" d="M154.283 721.317 Q150.672 721.317 148.843 724.881 Q147.038 728.423 147.038 735.553 Q147.038 742.659 148.843 746.224 Q150.672 749.766 154.283 749.766 Q157.917 749.766 159.723 746.224 Q161.552 742.659 161.552 735.553 Q161.552 728.423 159.723 724.881 Q157.917 721.317 154.283 721.317 M154.283 717.613 Q160.093 717.613 163.149 722.219 Q166.227 726.803 166.227 735.553 Q166.227 744.279 163.149 748.886 Q160.093 753.469 154.283 753.469 Q148.473 753.469 145.394 748.886 Q142.339 744.279 142.339 735.553 Q142.339 726.803 145.394 722.219 Q148.473 717.613 154.283 717.613 Z" fill="#000000" fill-rule="nonzero" fill-opacity="1" /><path clip-path="url(#clip490)" d="M166.227 711.714 L190.339 711.714 L190.339 714.912 L166.227 714.912 L166.227 711.714 Z" fill="#000000" fill-rule="nonzero" fill-opacity="1" /><path clip-path="url(#clip490)" d="M199.197 722.19 L205.404 722.19 L205.404 700.768 L198.652 702.122 L198.652 698.662 L205.366 697.308 L209.166 697.308 L209.166 722.19 L215.372 722.19 L215.372 725.388 L199.197 725.388 L199.197 722.19 Z" fill="#000000" fill-rule="nonzero" fill-opacity="1" /><path clip-path="url(#clip490)" d="M144.667 407.95 L152.305 407.95 L152.305 381.584 L143.995 383.251 L143.995 378.991 L152.259 377.325 L156.935 377.325 L156.935 407.95 L164.574 407.95 L164.574 411.885 L144.667 411.885 L144.667 407.95 Z" fill="#000000" fill-rule="nonzero" fill-opacity="1" /><path clip-path="url(#clip490)" d="M184.018 380.404 Q180.407 380.404 178.578 383.968 Q176.773 387.51 176.773 394.64 Q176.773 401.746 178.578 405.311 Q180.407 408.852 184.018 408.852 Q187.652 408.852 189.458 405.311 Q191.287 401.746 191.287 394.64 Q191.287 387.51 189.458 383.968 Q187.652 380.404 184.018 380.404 M184.018 376.7 Q189.828 376.7 192.884 381.306 Q195.963 385.89 195.963 394.64 Q195.963 403.366 192.884 407.973 Q189.828 412.556 184.018 412.556 Q178.208 412.556 175.129 407.973 Q172.074 403.366 172.074 394.64 Q172.074 385.89 175.129 381.306 Q178.208 376.7 184.018 376.7 Z" fill="#000000" fill-rule="nonzero" fill-opacity="1" /><path clip-path="url(#clip490)" d="M205.667 358.896 Q202.733 358.896 201.248 361.792 Q199.781 364.67 199.781 370.463 Q199.781 376.237 201.248 379.133 Q202.733 382.011 205.667 382.011 Q208.62 382.011 210.087 379.133 Q211.573 376.237 211.573 370.463 Q211.573 364.67 210.087 361.792 Q208.62 358.896 205.667 358.896 M205.667 355.887 Q210.388 355.887 212.871 359.629 Q215.372 363.353 215.372 370.463 Q215.372 377.553 212.871 381.296 Q210.388 385.02 205.667 385.02 Q200.947 385.02 198.445 381.296 Q195.963 377.553 195.963 370.463 Q195.963 363.353 198.445 359.629 Q200.947 355.887 205.667 355.887 Z" fill="#000000" fill-rule="nonzero" fill-opacity="1" /><path clip-path="url(#clip490)" d="M147.356 67.0365 L154.995 67.0365 L154.995 40.6709 L146.685 42.3376 L146.685 38.0784 L154.949 36.4117 L159.624 36.4117 L159.624 67.0365 L167.263 67.0365 L167.263 70.9717 L147.356 70.9717 L147.356 67.0365 Z" fill="#000000" fill-rule="nonzero" fill-opacity="1" /><path clip-path="url(#clip490)" d="M186.708 39.4904 Q183.097 39.4904 181.268 43.0552 Q179.462 46.5968 179.462 53.7264 Q179.462 60.8329 181.268 64.3977 Q183.097 67.9393 186.708 67.9393 Q190.342 67.9393 192.147 64.3977 Q193.976 60.8329 193.976 53.7264 Q193.976 46.5968 192.147 43.0552 Q190.342 39.4904 186.708 39.4904 M186.708 35.7867 Q192.518 35.7867 195.573 40.3932 Q198.652 44.9765 198.652 53.7264 Q198.652 62.4532 195.573 67.0597 Q192.518 71.643 186.708 71.643 Q180.898 71.643 177.819 67.0597 Q174.763 62.4532 174.763 53.7264 Q174.763 44.9765 177.819 40.3932 Q180.898 35.7867 186.708 35.7867 Z" fill="#000000" fill-rule="nonzero" fill-opacity="1" /><path clip-path="url(#clip490)" d="M199.197 40.364 L205.404 40.364 L205.404 18.9419 L198.652 20.2961 L198.652 16.8355 L205.366 15.4813 L209.166 15.4813 L209.166 40.364 L215.372 40.364 L215.372 43.5613 L199.197 43.5613 L199.197 40.364 Z" fill="#000000" fill-rule="nonzero" fill-opacity="1" /><path clip-path="url(#clip490)" d="M16.4842 1147.44 L16.4842 1138.78 L56.238 1117.71 L16.4842 1117.71 L16.4842 1111.47 L64.0042 1111.47 L64.0042 1120.13 L24.2503 1141.2 L64.0042 1141.2 L64.0042 1147.44 L16.4842 1147.44 Z" fill="#000000" fill-rule="nonzero" fill-opacity="1" /><path clip-path="url(#clip490)" d="M49.9359 1099.54 L28.3562 1099.54 L28.3562 1093.68 L49.7131 1093.68 Q54.7739 1093.68 57.3202 1091.71 Q59.8346 1089.74 59.8346 1085.79 Q59.8346 1081.05 56.8109 1078.31 Q53.7872 1075.54 48.5673 1075.54 L28.3562 1075.54 L28.3562 1069.68 L64.0042 1069.68 L64.0042 1075.54 L58.5296 1075.54 Q61.7762 1077.67 63.3676 1080.51 Q64.9272 1083.31 64.9272 1087.03 Q64.9272 1093.17 61.1078 1096.36 Q57.2883 1099.54 49.9359 1099.54 M27.4968 1084.8 L27.4968 1084.8 Z" fill="#000000" fill-rule="nonzero" fill-opacity="1" /><path clip-path="url(#clip490)" d="M29.7248 1031.97 L35.1993 1031.97 Q33.8307 1034.45 33.1623 1036.96 Q32.4621 1039.45 32.4621 1041.99 Q32.4621 1047.69 36.0905 1050.84 Q39.6872 1053.99 46.212 1053.99 Q52.7369 1053.99 56.3653 1050.84 Q59.9619 1047.69 59.9619 1041.99 Q59.9619 1039.45 59.2935 1036.96 Q58.5933 1034.45 57.2247 1031.97 L62.6355 1031.97 Q63.7814 1034.42 64.3543 1037.06 Q64.9272 1039.67 64.9272 1042.63 Q64.9272 1050.68 59.8664 1055.42 Q54.8057 1060.17 46.212 1060.17 Q37.491 1060.17 32.4939 1055.39 Q27.4968 1050.59 27.4968 1042.25 Q27.4968 1039.54 28.0697 1036.96 Q28.6108 1034.39 29.7248 1031.97 Z" fill="#000000" fill-rule="nonzero" fill-opacity="1" /><path clip-path="url(#clip490)" d="M14.479 1021.78 L14.479 1015.93 L64.0042 1015.93 L64.0042 1021.78 L14.479 1021.78 Z" fill="#000000" fill-rule="nonzero" fill-opacity="1" /><path clip-path="url(#clip490)" d="M44.7161 973.179 L47.5806 973.179 L47.5806 1000.11 Q53.6281 999.724 56.8109 996.478 Q59.9619 993.199 59.9619 987.375 Q59.9619 984.001 59.1344 980.85 Q58.3069 977.667 56.6518 974.548 L62.1899 974.548 Q63.5267 977.699 64.227 981.009 Q64.9272 984.319 64.9272 987.725 Q64.9272 996.255 59.9619 1001.25 Q54.9967 1006.22 46.5303 1006.22 Q37.7774 1006.22 32.6531 1001.51 Q27.4968 996.764 27.4968 988.743 Q27.4968 981.55 32.1438 977.381 Q36.7589 973.179 44.7161 973.179 M42.9973 979.036 Q38.1912 979.099 35.3266 981.741 Q32.4621 984.351 32.4621 988.68 Q32.4621 993.581 35.2312 996.541 Q38.0002 999.47 43.0292 999.915 L42.9973 979.036 Z" fill="#000000" fill-rule="nonzero" fill-opacity="1" /><path clip-path="url(#clip490)" d="M46.0847 947.366 Q46.0847 954.464 47.7079 957.201 Q49.3312 959.939 53.2461 959.939 Q56.3653 959.939 58.2114 957.902 Q60.0256 955.833 60.0256 952.3 Q60.0256 947.43 56.5881 944.502 Q53.1188 941.542 47.3897 941.542 L46.0847 941.542 L46.0847 947.366 M43.6657 935.685 L64.0042 935.685 L64.0042 941.542 L58.5933 941.542 Q61.8398 943.547 63.3994 946.539 Q64.9272 949.531 64.9272 953.859 Q64.9272 959.334 61.8716 962.58 Q58.7843 965.795 53.6281 965.795 Q47.6125 965.795 44.5569 961.785 Q41.5014 957.742 41.5014 949.754 L41.5014 941.542 L40.9285 941.542 Q36.8862 941.542 34.6901 944.215 Q32.4621 946.857 32.4621 951.663 Q32.4621 954.719 33.1941 957.615 Q33.9262 960.512 35.3903 963.185 L29.9795 963.185 Q28.7381 959.97 28.1334 956.947 Q27.4968 953.923 27.4968 951.058 Q27.4968 943.324 31.5072 939.505 Q35.5176 935.685 43.6657 935.685 Z" fill="#000000" fill-rule="nonzero" fill-opacity="1" /><path clip-path="url(#clip490)" d="M18.2347 917.829 L28.3562 917.829 L28.3562 905.766 L32.9077 905.766 L32.9077 917.829 L52.2594 917.829 Q56.6199 917.829 57.8613 916.652 Q59.1026 915.442 59.1026 911.782 L59.1026 905.766 L64.0042 905.766 L64.0042 911.782 Q64.0042 918.562 61.4897 921.14 Q58.9434 923.718 52.2594 923.718 L32.9077 923.718 L32.9077 928.015 L28.3562 928.015 L28.3562 923.718 L18.2347 923.718 L18.2347 917.829 Z" fill="#000000" fill-rule="nonzero" fill-opacity="1" /><path clip-path="url(#clip490)" d="M28.3562 898.064 L28.3562 892.208 L64.0042 892.208 L64.0042 898.064 L28.3562 898.064 M14.479 898.064 L14.479 892.208 L21.895 892.208 L21.895 898.064 L14.479 898.064 Z" fill="#000000" fill-rule="nonzero" fill-opacity="1" /><path clip-path="url(#clip490)" d="M32.4621 866.14 Q32.4621 870.851 36.1542 873.588 Q39.8145 876.325 46.212 876.325 Q52.6095 876.325 56.3017 873.62 Q59.9619 870.882 59.9619 866.14 Q59.9619 861.461 56.2698 858.724 Q52.5777 855.987 46.212 855.987 Q39.8781 855.987 36.186 858.724 Q32.4621 861.461 32.4621 866.14 M27.4968 866.14 Q27.4968 858.501 32.4621 854.141 Q37.4273 849.78 46.212 849.78 Q54.9649 849.78 59.9619 854.141 Q64.9272 858.501 64.9272 866.14 Q64.9272 873.811 59.9619 878.171 Q54.9649 882.5 46.212 882.5 Q37.4273 882.5 32.4621 878.171 Q27.4968 873.811 27.4968 866.14 Z" fill="#000000" fill-rule="nonzero" fill-opacity="1" /><path clip-path="url(#clip490)" d="M42.4881 810.44 L64.0042 810.44 L64.0042 816.296 L42.679 816.296 Q37.6183 816.296 35.1038 818.27 Q32.5894 820.243 32.5894 824.19 Q32.5894 828.932 35.6131 831.67 Q38.6368 834.407 43.8567 834.407 L64.0042 834.407 L64.0042 840.295 L28.3562 840.295 L28.3562 834.407 L33.8944 834.407 Q30.6797 832.306 29.0883 829.473 Q27.4968 826.609 27.4968 822.885 Q27.4968 816.742 31.3163 813.591 Q35.1038 810.44 42.4881 810.44 Z" fill="#000000" fill-rule="nonzero" fill-opacity="1" /><path clip-path="url(#clip490)" d="M33.8307 757.382 Q33.2578 758.369 33.0032 759.546 Q32.7167 760.692 32.7167 762.092 Q32.7167 767.058 35.9632 769.731 Q39.1779 772.373 45.2253 772.373 L64.0042 772.373 L64.0042 778.261 L28.3562 778.261 L28.3562 772.373 L33.8944 772.373 Q30.6479 770.527 29.0883 767.567 Q27.4968 764.607 27.4968 760.374 Q27.4968 759.769 27.5923 759.037 Q27.656 758.305 27.8151 757.414 L33.8307 757.382 Z" fill="#000000" fill-rule="nonzero" fill-opacity="1" /><path clip-path="url(#clip490)" d="M46.0847 735.038 Q46.0847 742.136 47.7079 744.873 Q49.3312 747.61 53.2461 747.61 Q56.3653 747.61 58.2114 745.573 Q60.0256 743.505 60.0256 739.972 Q60.0256 735.102 56.5881 732.174 Q53.1188 729.214 47.3897 729.214 L46.0847 729.214 L46.0847 735.038 M43.6657 723.357 L64.0042 723.357 L64.0042 729.214 L58.5933 729.214 Q61.8398 731.219 63.3994 734.211 Q64.9272 737.203 64.9272 741.531 Q64.9272 747.006 61.8716 750.252 Q58.7843 753.467 53.6281 753.467 Q47.6125 753.467 44.5569 749.457 Q41.5014 745.414 41.5014 737.425 L41.5014 729.214 L40.9285 729.214 Q36.8862 729.214 34.6901 731.887 Q32.4621 734.529 32.4621 739.335 Q32.4621 742.391 33.1941 745.287 Q33.9262 748.183 35.3903 750.857 L29.9795 750.857 Q28.7381 747.642 28.1334 744.619 Q27.4968 741.595 27.4968 738.73 Q27.4968 730.996 31.5072 727.177 Q35.5176 723.357 43.6657 723.357 Z" fill="#000000" fill-rule="nonzero" fill-opacity="1" /><path clip-path="url(#clip490)" d="M18.2347 705.501 L28.3562 705.501 L28.3562 693.438 L32.9077 693.438 L32.9077 705.501 L52.2594 705.501 Q56.6199 705.501 57.8613 704.324 Q59.1026 703.114 59.1026 699.454 L59.1026 693.438 L64.0042 693.438 L64.0042 699.454 Q64.0042 706.233 61.4897 708.812 Q58.9434 711.39 52.2594 711.39 L32.9077 711.39 L32.9077 715.686 L28.3562 715.686 L28.3562 711.39 L18.2347 711.39 L18.2347 705.501 Z" fill="#000000" fill-rule="nonzero" fill-opacity="1" /><path clip-path="url(#clip490)" d="M44.7161 655.244 L47.5806 655.244 L47.5806 682.171 Q53.6281 681.789 56.8109 678.543 Q59.9619 675.264 59.9619 669.44 Q59.9619 666.066 59.1344 662.915 Q58.3069 659.732 56.6518 656.613 L62.1899 656.613 Q63.5267 659.764 64.227 663.074 Q64.9272 666.384 64.9272 669.79 Q64.9272 678.32 59.9619 683.317 Q54.9967 688.282 46.5303 688.282 Q37.7774 688.282 32.6531 683.571 Q27.4968 678.829 27.4968 670.808 Q27.4968 663.615 32.1438 659.445 Q36.7589 655.244 44.7161 655.244 M42.9973 661.101 Q38.1912 661.164 35.3266 663.806 Q32.4621 666.416 32.4621 670.745 Q32.4621 675.646 35.2312 678.606 Q38.0002 681.534 43.0292 681.98 L42.9973 661.101 Z" fill="#000000" fill-rule="nonzero" fill-opacity="1" /><path clip-path="url(#clip490)" d="M14.5426 610.843 Q21.8632 615.108 29.0246 617.177 Q36.186 619.246 43.5384 619.246 Q50.8908 619.246 58.1159 617.177 Q65.3091 615.076 72.5979 610.843 L72.5979 615.936 Q65.1182 620.71 57.8931 623.097 Q50.668 625.453 43.5384 625.453 Q36.4406 625.453 29.2474 623.097 Q22.0542 620.742 14.5426 615.936 L14.5426 610.843 Z" fill="#000000" fill-rule="nonzero" fill-opacity="1" /><path clip-path="url(#clip490)" d="M29.7248 573.827 L35.1993 573.827 Q33.8307 576.309 33.1623 578.824 Q32.4621 581.306 32.4621 583.853 Q32.4621 589.55 36.0905 592.701 Q39.6872 595.852 46.212 595.852 Q52.7369 595.852 56.3653 592.701 Q59.9619 589.55 59.9619 583.853 Q59.9619 581.306 59.2935 578.824 Q58.5933 576.309 57.2247 573.827 L62.6355 573.827 Q63.7814 576.277 64.3543 578.919 Q64.9272 581.529 64.9272 584.489 Q64.9272 592.542 59.8664 597.284 Q54.8057 602.027 46.212 602.027 Q37.491 602.027 32.4939 597.252 Q27.4968 592.446 27.4968 584.107 Q27.4968 581.402 28.0697 578.824 Q28.6108 576.246 29.7248 573.827 Z" fill="#000000" fill-rule="nonzero" fill-opacity="1" /><path clip-path="url(#clip490)" d="M35.1993 535.887 Q31.2526 533.691 29.3747 530.635 Q27.4968 527.58 27.4968 523.442 Q27.4968 517.872 31.4117 514.848 Q35.2948 511.825 42.4881 511.825 L64.0042 511.825 L64.0042 517.713 L42.679 517.713 Q37.5546 517.713 35.072 519.527 Q32.5894 521.341 32.5894 525.065 Q32.5894 529.617 35.6131 532.259 Q38.6368 534.9 43.8567 534.9 L64.0042 534.9 L64.0042 540.789 L42.679 540.789 Q37.5228 540.789 35.072 542.603 Q32.5894 544.417 32.5894 548.205 Q32.5894 552.693 35.6449 555.334 Q38.6686 557.976 43.8567 557.976 L64.0042 557.976 L64.0042 563.864 L28.3562 563.864 L28.3562 557.976 L33.8944 557.976 Q30.616 555.971 29.0564 553.17 Q27.4968 550.369 27.4968 546.518 Q27.4968 542.635 29.4702 539.929 Q31.4436 537.192 35.1993 535.887 Z" fill="#000000" fill-rule="nonzero" fill-opacity="1" /><path clip-path="url(#clip490)" d="M29.7885 501.926 L29.7885 476.24 L32.8122 476.24 L32.8122 501.926 L29.7885 501.926 Z" fill="#000000" fill-rule="nonzero" fill-opacity="1" /><path clip-path="url(#clip490)" d="M28.3562 455.202 Q28.9291 452.274 30.6797 450.682 Q32.3984 449.059 35.0084 449.059 Q38.9551 449.059 41.0876 452.083 Q43.2201 455.106 43.2201 460.74 Q43.2201 462.554 42.9018 464.559 Q42.5517 466.533 41.9152 468.761 L38.0639 468.761 Q38.9233 467.106 39.337 465.228 Q39.7508 463.318 39.7508 461.186 Q39.7508 457.716 38.5095 455.806 Q37.2364 453.897 35.0084 453.897 Q32.6531 453.897 31.4436 455.679 Q30.2341 457.43 30.2341 460.867 L30.2341 463.604 L26.7966 463.604 L26.7966 460.613 Q26.7966 457.621 25.8099 456.093 Q24.7914 454.533 22.8817 454.533 Q21.0356 454.533 20.0808 456.125 Q19.0941 457.716 19.0941 460.74 Q19.0941 462.013 19.3806 463.636 Q19.667 465.26 20.3991 467.838 L16.7388 467.838 Q16.1977 465.514 15.9112 463.477 Q15.6248 461.44 15.6248 459.69 Q15.6248 455.106 17.5027 452.433 Q19.3806 449.727 22.5316 449.727 Q24.7277 449.727 26.2555 451.16 Q27.7833 452.592 28.3562 455.202 Z" fill="#000000" fill-rule="nonzero" fill-opacity="1" /><path clip-path="url(#clip490)" d="M29.4065 396.16 L34.9447 396.16 Q33.6716 398.642 33.035 401.316 Q32.3984 403.99 32.3984 406.854 Q32.3984 411.215 33.7352 413.411 Q35.072 415.575 37.7456 415.575 Q39.7826 415.575 40.9603 414.016 Q42.1061 412.456 43.1565 407.745 L43.6021 405.74 Q44.9389 399.502 47.3897 396.892 Q49.8086 394.25 54.1691 394.25 Q59.1344 394.25 62.0308 398.197 Q64.9272 402.112 64.9272 408.987 Q64.9272 411.851 64.3543 414.97 Q63.8132 418.058 62.6992 421.495 L56.6518 421.495 Q58.3387 418.249 59.198 415.098 Q60.0256 411.947 60.0256 408.859 Q60.0256 404.722 58.6251 402.494 Q57.1929 400.266 54.6147 400.266 Q52.2276 400.266 50.9545 401.889 Q49.6813 403.48 48.5037 408.923 L48.0262 410.96 Q46.8804 416.403 44.5251 418.822 Q42.138 421.241 38.0002 421.241 Q32.9713 421.241 30.2341 417.676 Q27.4968 414.111 27.4968 407.554 Q27.4968 404.308 27.9743 401.443 Q28.4517 398.579 29.4065 396.16 Z" fill="#000000" fill-rule="nonzero" fill-opacity="1" /><path clip-path="url(#clip490)" d="M29.7885 386.707 L29.7885 361.021 L32.8122 361.021 L32.8122 386.707 L29.7885 386.707 Z" fill="#000000" fill-rule="nonzero" fill-opacity="1" /><path clip-path="url(#clip490)" d="M39.2416 351.695 L39.2416 345.202 L19.7943 345.202 L21.0993 352.3 L17.4072 352.3 L16.1659 344.98 L16.1659 340.619 L39.2416 340.619 L39.2416 334.094 L42.7427 334.094 L42.7427 351.695 L39.2416 351.695 Z" fill="#000000" fill-rule="nonzero" fill-opacity="1" /><path clip-path="url(#clip490)" d="M14.5426 325.31 L14.5426 320.217 Q22.0542 315.443 29.2474 313.087 Q36.4406 310.7 43.5384 310.7 Q50.668 310.7 57.8931 313.087 Q65.1182 315.443 72.5979 320.217 L72.5979 325.31 Q65.3091 321.076 58.1159 319.007 Q50.8908 316.907 43.5384 316.907 Q36.186 316.907 29.0246 319.007 Q21.8632 321.076 14.5426 325.31 Z" fill="#000000" fill-rule="nonzero" fill-opacity="1" /><polyline clip-path="url(#clip492)" style="stroke:#009af9; stroke-linecap:round; stroke-linejoin:round; stroke-width:4; stroke-opacity:1; fill:none" points="531.557,1123.35 619.114,1080.73 706.672,1038.12 794.23,995.506 881.787,952.892 969.345,910.278 1056.9,867.664 1144.46,825.05 1232.02,782.435 1319.58,739.821 1407.13,697.207 1494.69,654.593 1582.25,611.979 1669.81,569.365 1757.36,526.751 1844.92,484.136 1932.48,441.522 2020.04,398.908 2107.59,356.294 2195.15,313.68 2282.71,271.066 2370.27,228.452 "/>
<circle clip-path="url(#clip492)" cx="1182.42" cy="729.833" r="14.4" fill="#e26f46" fill-rule="evenodd" fill-opacity="1" stroke="#000000" stroke-opacity="1" stroke-width="3.2"/>
<circle clip-path="url(#clip492)" cx="1339" cy="562.8" r="14.4" fill="#e26f46" fill-rule="evenodd" fill-opacity="1" stroke="#000000" stroke-opacity="1" stroke-width="3.2"/>
<circle clip-path="url(#clip492)" cx="1718.44" cy="516.975" r="14.4" fill="#e26f46" fill-rule="evenodd" fill-opacity="1" stroke="#000000" stroke-opacity="1" stroke-width="3.2"/>
<circle clip-path="url(#clip492)" cx="2266.73" cy="380.263" r="14.4" fill="#e26f46" fill-rule="evenodd" fill-opacity="1" stroke="#000000" stroke-opacity="1" stroke-width="3.2"/>
<circle clip-path="url(#clip492)" cx="725.729" cy="929.895" r="14.4" fill="#e26f46" fill-rule="evenodd" fill-opacity="1" stroke="#000000" stroke-opacity="1" stroke-width="3.2"/>
<circle clip-path="url(#clip492)" cx="869.11" cy="1002.24" r="14.4" fill="#e26f46" fill-rule="evenodd" fill-opacity="1" stroke="#000000" stroke-opacity="1" stroke-width="3.2"/>
<circle clip-path="url(#clip492)" cx="1005.36" cy="983.934" r="14.4" fill="#e26f46" fill-rule="evenodd" fill-opacity="1" stroke="#000000" stroke-opacity="1" stroke-width="3.2"/>
<circle clip-path="url(#clip492)" cx="662.243" cy="1067.79" r="14.4" fill="#e26f46" fill-rule="evenodd" fill-opacity="1" stroke="#000000" stroke-opacity="1" stroke-width="3.2"/>
<circle clip-path="url(#clip492)" cx="623.998" cy="953.6" r="14.4" fill="#e26f46" fill-rule="evenodd" fill-opacity="1" stroke="#000000" stroke-opacity="1" stroke-width="3.2"/>
<circle clip-path="url(#clip492)" cx="696.326" cy="900.919" r="14.4" fill="#e26f46" fill-rule="evenodd" fill-opacity="1" stroke="#000000" stroke-opacity="1" stroke-width="3.2"/>
<circle clip-path="url(#clip492)" cx="737.53" cy="821.077" r="14.4" fill="#e26f46" fill-rule="evenodd" fill-opacity="1" stroke="#000000" stroke-opacity="1" stroke-width="3.2"/>
<circle clip-path="url(#clip492)" cx="589.689" cy="1031.62" r="14.4" fill="#e26f46" fill-rule="evenodd" fill-opacity="1" stroke="#000000" stroke-opacity="1" stroke-width="3.2"/>
<circle clip-path="url(#clip492)" cx="710.307" cy="971.622" r="14.4" fill="#e26f46" fill-rule="evenodd" fill-opacity="1" stroke="#000000" stroke-opacity="1" stroke-width="3.2"/>
<circle clip-path="url(#clip492)" cx="640.897" cy="813.949" r="14.4" fill="#e26f46" fill-rule="evenodd" fill-opacity="1" stroke="#000000" stroke-opacity="1" stroke-width="3.2"/>
<circle clip-path="url(#clip492)" cx="849.618" cy="799.172" r="14.4" fill="#e26f46" fill-rule="evenodd" fill-opacity="1" stroke="#000000" stroke-opacity="1" stroke-width="3.2"/>
<circle clip-path="url(#clip492)" cx="939.244" cy="764.602" r="14.4" fill="#e26f46" fill-rule="evenodd" fill-opacity="1" stroke="#000000" stroke-opacity="1" stroke-width="3.2"/>
<circle clip-path="url(#clip492)" cx="1042.9" cy="818.869" r="14.4" fill="#e26f46" fill-rule="evenodd" fill-opacity="1" stroke="#000000" stroke-opacity="1" stroke-width="3.2"/>
<circle clip-path="url(#clip492)" cx="1053.34" cy="855.122" r="14.4" fill="#e26f46" fill-rule="evenodd" fill-opacity="1" stroke="#000000" stroke-opacity="1" stroke-width="3.2"/>
<circle clip-path="url(#clip492)" cx="1364.75" cy="513.806" r="14.4" fill="#e26f46" fill-rule="evenodd" fill-opacity="1" stroke="#000000" stroke-opacity="1" stroke-width="3.2"/>
<circle clip-path="url(#clip492)" cx="1361.15" cy="453.97" r="14.4" fill="#e26f46" fill-rule="evenodd" fill-opacity="1" stroke="#000000" stroke-opacity="1" stroke-width="3.2"/>
<circle clip-path="url(#clip492)" cx="1745.83" cy="429.898" r="14.4" fill="#e26f46" fill-rule="evenodd" fill-opacity="1" stroke="#000000" stroke-opacity="1" stroke-width="3.2"/>
<circle clip-path="url(#clip492)" cx="1735.42" cy="408.151" r="14.4" fill="#e26f46" fill-rule="evenodd" fill-opacity="1" stroke="#000000" stroke-opacity="1" stroke-width="3.2"/>
<circle clip-path="url(#clip492)" cx="1684.17" cy="611.315" r="14.4" fill="#e26f46" fill-rule="evenodd" fill-opacity="1" stroke="#000000" stroke-opacity="1" stroke-width="3.2"/>
<circle clip-path="url(#clip492)" cx="1641.08" cy="625.877" r="14.4" fill="#e26f46" fill-rule="evenodd" fill-opacity="1" stroke="#000000" stroke-opacity="1" stroke-width="3.2"/>
<circle clip-path="url(#clip492)" cx="2297.6" cy="304.061" r="14.4" fill="#e26f46" fill-rule="evenodd" fill-opacity="1" stroke="#000000" stroke-opacity="1" stroke-width="3.2"/>
<circle clip-path="url(#clip492)" cx="2278.42" cy="226.111" r="14.4" fill="#e26f46" fill-rule="evenodd" fill-opacity="1" stroke="#000000" stroke-opacity="1" stroke-width="3.2"/>
<path clip-path="url(#clip490)" d="M1412.6 248.219 L2282.71 248.219 L2282.71 92.6992 L1412.6 92.6992  Z" fill="#ffffff" fill-rule="evenodd" fill-opacity="1"/>
<polyline clip-path="url(#clip490)" style="stroke:#000000; stroke-linecap:round; stroke-linejoin:round; stroke-width:4; stroke-opacity:1; fill:none" points="1412.6,248.219 2282.71,248.219 2282.71,92.6992 1412.6,92.6992 1412.6,248.219 "/>
<polyline clip-path="url(#clip490)" style="stroke:#009af9; stroke-linecap:round; stroke-linejoin:round; stroke-width:4; stroke-opacity:1; fill:none" points="1435.95,144.539 1576.04,144.539 "/>
<path clip-path="url(#clip490)" d="M1615.78 145.616 Q1617.28 146.125 1618.69 147.791 Q1620.13 149.458 1621.56 152.375 L1626.31 161.819 L1621.29 161.819 L1616.86 152.953 Q1615.15 149.481 1613.53 148.347 Q1611.93 147.213 1609.16 147.213 L1604.06 147.213 L1604.06 161.819 L1599.39 161.819 L1599.39 127.259 L1609.94 127.259 Q1615.87 127.259 1618.79 129.736 Q1621.7 132.213 1621.7 137.213 Q1621.7 140.477 1620.17 142.629 Q1618.67 144.782 1615.78 145.616 M1604.06 131.102 L1604.06 143.37 L1609.94 143.37 Q1613.32 143.37 1615.04 141.819 Q1616.77 140.245 1616.77 137.213 Q1616.77 134.18 1615.04 132.653 Q1613.32 131.102 1609.94 131.102 L1604.06 131.102 Z" fill="#000000" fill-rule="nonzero" fill-opacity="1" /><path clip-path="url(#clip490)" d="M1632.14 135.893 L1636.4 135.893 L1636.4 161.819 L1632.14 161.819 L1632.14 135.893 M1632.14 125.801 L1636.4 125.801 L1636.4 131.194 L1632.14 131.194 L1632.14 125.801 Z" fill="#000000" fill-rule="nonzero" fill-opacity="1" /><path clip-path="url(#clip490)" d="M1663.97 136.889 L1663.97 140.87 Q1662.17 139.875 1660.34 139.389 Q1658.53 138.879 1656.68 138.879 Q1652.54 138.879 1650.24 141.518 Q1647.95 144.134 1647.95 148.879 Q1647.95 153.625 1650.24 156.264 Q1652.54 158.879 1656.68 158.879 Q1658.53 158.879 1660.34 158.393 Q1662.17 157.884 1663.97 156.889 L1663.97 160.824 Q1662.19 161.657 1660.27 162.074 Q1658.37 162.49 1656.22 162.49 Q1650.36 162.49 1646.91 158.81 Q1643.46 155.129 1643.46 148.879 Q1643.46 142.537 1646.93 138.903 Q1650.43 135.268 1656.49 135.268 Q1658.46 135.268 1660.34 135.685 Q1662.21 136.079 1663.97 136.889 Z" fill="#000000" fill-rule="nonzero" fill-opacity="1" /><path clip-path="url(#clip490)" d="M1690.04 136.889 L1690.04 140.87 Q1688.23 139.875 1686.4 139.389 Q1684.6 138.879 1682.74 138.879 Q1678.6 138.879 1676.31 141.518 Q1674.02 144.134 1674.02 148.879 Q1674.02 153.625 1676.31 156.264 Q1678.6 158.879 1682.74 158.879 Q1684.6 158.879 1686.4 158.393 Q1688.23 157.884 1690.04 156.889 L1690.04 160.824 Q1688.25 161.657 1686.33 162.074 Q1684.43 162.49 1682.28 162.49 Q1676.42 162.49 1672.98 158.81 Q1669.53 155.129 1669.53 148.879 Q1669.53 142.537 1673 138.903 Q1676.49 135.268 1682.56 135.268 Q1684.53 135.268 1686.4 135.685 Q1688.28 136.079 1690.04 136.889 Z" fill="#000000" fill-rule="nonzero" fill-opacity="1" /><path clip-path="url(#clip490)" d="M1707.49 138.879 Q1704.06 138.879 1702.07 141.565 Q1700.08 144.227 1700.08 148.879 Q1700.08 153.532 1702.05 156.217 Q1704.04 158.879 1707.49 158.879 Q1710.89 158.879 1712.88 156.194 Q1714.87 153.509 1714.87 148.879 Q1714.87 144.273 1712.88 141.588 Q1710.89 138.879 1707.49 138.879 M1707.49 135.268 Q1713.04 135.268 1716.22 138.879 Q1719.39 142.491 1719.39 148.879 Q1719.39 155.245 1716.22 158.879 Q1713.04 162.49 1707.49 162.49 Q1701.91 162.49 1698.74 158.879 Q1695.59 155.245 1695.59 148.879 Q1695.59 142.491 1698.74 138.879 Q1701.91 135.268 1707.49 135.268 Z" fill="#000000" fill-rule="nonzero" fill-opacity="1" /><path clip-path="url(#clip490)" d="M1745.06 148.879 Q1745.06 144.18 1743.11 141.518 Q1741.19 138.833 1737.81 138.833 Q1734.43 138.833 1732.49 141.518 Q1730.57 144.18 1730.57 148.879 Q1730.57 153.578 1732.49 156.264 Q1734.43 158.926 1737.81 158.926 Q1741.19 158.926 1743.11 156.264 Q1745.06 153.578 1745.06 148.879 M1730.57 139.829 Q1731.91 137.514 1733.95 136.403 Q1736.01 135.268 1738.85 135.268 Q1743.58 135.268 1746.52 139.018 Q1749.48 142.768 1749.48 148.879 Q1749.48 154.991 1746.52 158.74 Q1743.58 162.49 1738.85 162.49 Q1736.01 162.49 1733.95 161.379 Q1731.91 160.245 1730.57 157.93 L1730.57 161.819 L1726.29 161.819 L1726.29 125.801 L1730.57 125.801 L1730.57 139.829 Z" fill="#000000" fill-rule="nonzero" fill-opacity="1" /><path clip-path="url(#clip490)" d="M1766.59 138.879 Q1763.16 138.879 1761.17 141.565 Q1759.18 144.227 1759.18 148.879 Q1759.18 153.532 1761.15 156.217 Q1763.14 158.879 1766.59 158.879 Q1769.99 158.879 1771.98 156.194 Q1773.97 153.509 1773.97 148.879 Q1773.97 144.273 1771.98 141.588 Q1769.99 138.879 1766.59 138.879 M1766.59 135.268 Q1772.14 135.268 1775.31 138.879 Q1778.48 142.491 1778.48 148.879 Q1778.48 155.245 1775.31 158.879 Q1772.14 162.49 1766.59 162.49 Q1761.01 162.49 1757.84 158.879 Q1754.69 155.245 1754.69 148.879 Q1754.69 142.491 1757.84 138.879 Q1761.01 135.268 1766.59 135.268 Z" fill="#000000" fill-rule="nonzero" fill-opacity="1" /><path clip-path="url(#clip490)" d="M1807.09 146.171 L1807.09 161.819 L1802.84 161.819 L1802.84 146.31 Q1802.84 142.629 1801.4 140.801 Q1799.97 138.972 1797.1 138.972 Q1793.65 138.972 1791.66 141.171 Q1789.66 143.37 1789.66 147.166 L1789.66 161.819 L1785.38 161.819 L1785.38 135.893 L1789.66 135.893 L1789.66 139.921 Q1791.19 137.583 1793.25 136.426 Q1795.34 135.268 1798.04 135.268 Q1802.51 135.268 1804.8 138.046 Q1807.09 140.801 1807.09 146.171 Z" fill="#000000" fill-rule="nonzero" fill-opacity="1" /><path clip-path="url(#clip490)" d="M1825.64 138.879 Q1822.21 138.879 1820.22 141.565 Q1818.23 144.227 1818.23 148.879 Q1818.23 153.532 1820.2 156.217 Q1822.19 158.879 1825.64 158.879 Q1829.04 158.879 1831.03 156.194 Q1833.02 153.509 1833.02 148.879 Q1833.02 144.273 1831.03 141.588 Q1829.04 138.879 1825.64 138.879 M1825.64 135.268 Q1831.19 135.268 1834.36 138.879 Q1837.53 142.491 1837.53 148.879 Q1837.53 155.245 1834.36 158.879 Q1831.19 162.49 1825.64 162.49 Q1820.06 162.49 1816.89 158.879 Q1813.74 155.245 1813.74 148.879 Q1813.74 142.491 1816.89 138.879 Q1820.06 135.268 1825.64 135.268 Z" fill="#000000" fill-rule="nonzero" fill-opacity="1" /><path clip-path="url(#clip490)" d="M1863.78 157.93 L1863.78 171.68 L1859.5 171.68 L1859.5 135.893 L1863.78 135.893 L1863.78 139.829 Q1865.13 137.514 1867.16 136.403 Q1869.22 135.268 1872.07 135.268 Q1876.79 135.268 1879.73 139.018 Q1882.7 142.768 1882.7 148.879 Q1882.7 154.991 1879.73 158.74 Q1876.79 162.49 1872.07 162.49 Q1869.22 162.49 1867.16 161.379 Q1865.13 160.245 1863.78 157.93 M1878.28 148.879 Q1878.28 144.18 1876.33 141.518 Q1874.41 138.833 1871.03 138.833 Q1867.65 138.833 1865.71 141.518 Q1863.78 144.18 1863.78 148.879 Q1863.78 153.578 1865.71 156.264 Q1867.65 158.926 1871.03 158.926 Q1874.41 158.926 1876.33 156.264 Q1878.28 153.578 1878.28 148.879 Z" fill="#000000" fill-rule="nonzero" fill-opacity="1" /><path clip-path="url(#clip490)" d="M1901.54 148.787 Q1896.38 148.787 1894.39 149.967 Q1892.4 151.148 1892.4 153.995 Q1892.4 156.264 1893.88 157.606 Q1895.38 158.926 1897.95 158.926 Q1901.49 158.926 1903.62 156.426 Q1905.78 153.903 1905.78 149.736 L1905.78 148.787 L1901.54 148.787 M1910.03 147.028 L1910.03 161.819 L1905.78 161.819 L1905.78 157.884 Q1904.32 160.245 1902.14 161.379 Q1899.96 162.49 1896.82 162.49 Q1892.84 162.49 1890.47 160.268 Q1888.14 158.023 1888.14 154.273 Q1888.14 149.898 1891.05 147.676 Q1893.99 145.454 1899.8 145.454 L1905.78 145.454 L1905.78 145.037 Q1905.78 142.097 1903.83 140.5 Q1901.91 138.879 1898.41 138.879 Q1896.19 138.879 1894.09 139.412 Q1891.98 139.944 1890.03 141.009 L1890.03 137.074 Q1892.37 136.171 1894.57 135.731 Q1896.77 135.268 1898.85 135.268 Q1904.48 135.268 1907.26 138.185 Q1910.03 141.102 1910.03 147.028 Z" fill="#000000" fill-rule="nonzero" fill-opacity="1" /><path clip-path="url(#clip490)" d="M1933.83 139.875 Q1933.11 139.458 1932.26 139.273 Q1931.42 139.065 1930.4 139.065 Q1926.79 139.065 1924.85 141.426 Q1922.93 143.764 1922.93 148.162 L1922.93 161.819 L1918.65 161.819 L1918.65 135.893 L1922.93 135.893 L1922.93 139.921 Q1924.27 137.56 1926.42 136.426 Q1928.58 135.268 1931.65 135.268 Q1932.09 135.268 1932.63 135.338 Q1933.16 135.384 1933.81 135.5 L1933.83 139.875 Z" fill="#000000" fill-rule="nonzero" fill-opacity="1" /><path clip-path="url(#clip490)" d="M1950.08 148.787 Q1944.92 148.787 1942.93 149.967 Q1940.94 151.148 1940.94 153.995 Q1940.94 156.264 1942.42 157.606 Q1943.92 158.926 1946.49 158.926 Q1950.03 158.926 1952.16 156.426 Q1954.32 153.903 1954.32 149.736 L1954.32 148.787 L1950.08 148.787 M1958.58 147.028 L1958.58 161.819 L1954.32 161.819 L1954.32 157.884 Q1952.86 160.245 1950.68 161.379 Q1948.51 162.49 1945.36 162.49 Q1941.38 162.49 1939.02 160.268 Q1936.68 158.023 1936.68 154.273 Q1936.68 149.898 1939.59 147.676 Q1942.53 145.454 1948.34 145.454 L1954.32 145.454 L1954.32 145.037 Q1954.32 142.097 1952.37 140.5 Q1950.45 138.879 1946.96 138.879 Q1944.73 138.879 1942.63 139.412 Q1940.52 139.944 1938.58 141.009 L1938.58 137.074 Q1940.91 136.171 1943.11 135.731 Q1945.31 135.268 1947.4 135.268 Q1953.02 135.268 1955.8 138.185 Q1958.58 141.102 1958.58 147.028 Z" fill="#000000" fill-rule="nonzero" fill-opacity="1" /><path clip-path="url(#clip490)" d="M1987.53 140.87 Q1989.13 138 1991.35 136.634 Q1993.58 135.268 1996.58 135.268 Q2000.64 135.268 2002.83 138.116 Q2005.03 140.94 2005.03 146.171 L2005.03 161.819 L2000.75 161.819 L2000.75 146.31 Q2000.75 142.583 1999.43 140.778 Q1998.11 138.972 1995.4 138.972 Q1992.09 138.972 1990.17 141.171 Q1988.25 143.37 1988.25 147.166 L1988.25 161.819 L1983.97 161.819 L1983.97 146.31 Q1983.97 142.56 1982.65 140.778 Q1981.33 138.972 1978.58 138.972 Q1975.31 138.972 1973.39 141.194 Q1971.47 143.393 1971.47 147.166 L1971.47 161.819 L1967.19 161.819 L1967.19 135.893 L1971.47 135.893 L1971.47 139.921 Q1972.93 137.537 1974.96 136.403 Q1977 135.268 1979.8 135.268 Q1982.63 135.268 1984.59 136.704 Q1986.58 138.139 1987.53 140.87 Z" fill="#000000" fill-rule="nonzero" fill-opacity="1" /><path clip-path="url(#clip490)" d="M2035.7 147.791 L2035.7 149.875 L2016.12 149.875 Q2016.4 154.273 2018.76 156.588 Q2021.14 158.879 2025.38 158.879 Q2027.83 158.879 2030.13 158.278 Q2032.44 157.676 2034.71 156.472 L2034.71 160.5 Q2032.42 161.472 2030.01 161.981 Q2027.6 162.49 2025.13 162.49 Q2018.92 162.49 2015.29 158.879 Q2011.68 155.268 2011.68 149.111 Q2011.68 142.745 2015.1 139.018 Q2018.55 135.268 2024.39 135.268 Q2029.62 135.268 2032.65 138.648 Q2035.7 142.004 2035.7 147.791 M2031.45 146.541 Q2031.4 143.046 2029.48 140.963 Q2027.58 138.879 2024.43 138.879 Q2020.87 138.879 2018.71 140.893 Q2016.58 142.907 2016.26 146.565 L2031.45 146.541 Z" fill="#000000" fill-rule="nonzero" fill-opacity="1" /><path clip-path="url(#clip490)" d="M2046.91 128.532 L2046.91 135.893 L2055.68 135.893 L2055.68 139.204 L2046.91 139.204 L2046.91 153.278 Q2046.91 156.449 2047.76 157.352 Q2048.64 158.254 2051.31 158.254 L2055.68 158.254 L2055.68 161.819 L2051.31 161.819 Q2046.38 161.819 2044.5 159.99 Q2042.63 158.139 2042.63 153.278 L2042.63 139.204 L2039.5 139.204 L2039.5 135.893 L2042.63 135.893 L2042.63 128.532 L2046.91 128.532 Z" fill="#000000" fill-rule="nonzero" fill-opacity="1" /><path clip-path="url(#clip490)" d="M2083.46 147.791 L2083.46 149.875 L2063.88 149.875 Q2064.15 154.273 2066.51 156.588 Q2068.9 158.879 2073.14 158.879 Q2075.59 158.879 2077.88 158.278 Q2080.2 157.676 2082.46 156.472 L2082.46 160.5 Q2080.17 161.472 2077.76 161.981 Q2075.36 162.49 2072.88 162.49 Q2066.68 162.49 2063.04 158.879 Q2059.43 155.268 2059.43 149.111 Q2059.43 142.745 2062.86 139.018 Q2066.31 135.268 2072.14 135.268 Q2077.37 135.268 2080.4 138.648 Q2083.46 142.004 2083.46 147.791 M2079.2 146.541 Q2079.15 143.046 2077.23 140.963 Q2075.33 138.879 2072.19 138.879 Q2068.62 138.879 2066.47 140.893 Q2064.34 142.907 2064.01 146.565 L2079.2 146.541 Z" fill="#000000" fill-rule="nonzero" fill-opacity="1" /><path clip-path="url(#clip490)" d="M2105.47 139.875 Q2104.76 139.458 2103.9 139.273 Q2103.07 139.065 2102.05 139.065 Q2098.44 139.065 2096.49 141.426 Q2094.57 143.764 2094.57 148.162 L2094.57 161.819 L2090.29 161.819 L2090.29 135.893 L2094.57 135.893 L2094.57 139.921 Q2095.91 137.56 2098.07 136.426 Q2100.22 135.268 2103.3 135.268 Q2103.74 135.268 2104.27 135.338 Q2104.8 135.384 2105.45 135.5 L2105.47 139.875 Z" fill="#000000" fill-rule="nonzero" fill-opacity="1" /><path clip-path="url(#clip490)" d="M2109.94 135.893 L2114.2 135.893 L2114.2 161.819 L2109.94 161.819 L2109.94 135.893 M2109.94 125.801 L2114.2 125.801 L2114.2 131.194 L2109.94 131.194 L2109.94 125.801 Z" fill="#000000" fill-rule="nonzero" fill-opacity="1" /><path clip-path="url(#clip490)" d="M2121.26 135.893 L2141.49 135.893 L2141.49 139.782 L2125.47 158.416 L2141.49 158.416 L2141.49 161.819 L2120.68 161.819 L2120.68 157.93 L2136.7 139.296 L2121.26 139.296 L2121.26 135.893 Z" fill="#000000" fill-rule="nonzero" fill-opacity="1" /><path clip-path="url(#clip490)" d="M2159.78 148.787 Q2154.62 148.787 2152.63 149.967 Q2150.63 151.148 2150.63 153.995 Q2150.63 156.264 2152.12 157.606 Q2153.62 158.926 2156.19 158.926 Q2159.73 158.926 2161.86 156.426 Q2164.01 153.903 2164.01 149.736 L2164.01 148.787 L2159.78 148.787 M2168.27 147.028 L2168.27 161.819 L2164.01 161.819 L2164.01 157.884 Q2162.56 160.245 2160.38 161.379 Q2158.2 162.49 2155.06 162.49 Q2151.07 162.49 2148.71 160.268 Q2146.38 158.023 2146.38 154.273 Q2146.38 149.898 2149.29 147.676 Q2152.23 145.454 2158.04 145.454 L2164.01 145.454 L2164.01 145.037 Q2164.01 142.097 2162.07 140.5 Q2160.15 138.879 2156.65 138.879 Q2154.43 138.879 2152.32 139.412 Q2150.22 139.944 2148.27 141.009 L2148.27 137.074 Q2150.61 136.171 2152.81 135.731 Q2155.01 135.268 2157.09 135.268 Q2162.72 135.268 2165.5 138.185 Q2168.27 141.102 2168.27 147.028 Z" fill="#000000" fill-rule="nonzero" fill-opacity="1" /><path clip-path="url(#clip490)" d="M2181.26 128.532 L2181.26 135.893 L2190.03 135.893 L2190.03 139.204 L2181.26 139.204 L2181.26 153.278 Q2181.26 156.449 2182.12 157.352 Q2183 158.254 2185.66 158.254 L2190.03 158.254 L2190.03 161.819 L2185.66 161.819 Q2180.73 161.819 2178.85 159.99 Q2176.98 158.139 2176.98 153.278 L2176.98 139.204 L2173.85 139.204 L2173.85 135.893 L2176.98 135.893 L2176.98 128.532 L2181.26 128.532 Z" fill="#000000" fill-rule="nonzero" fill-opacity="1" /><path clip-path="url(#clip490)" d="M2195.63 135.893 L2199.89 135.893 L2199.89 161.819 L2195.63 161.819 L2195.63 135.893 M2195.63 125.801 L2199.89 125.801 L2199.89 131.194 L2195.63 131.194 L2195.63 125.801 Z" fill="#000000" fill-rule="nonzero" fill-opacity="1" /><path clip-path="url(#clip490)" d="M2218.85 138.879 Q2215.43 138.879 2213.44 141.565 Q2211.44 144.227 2211.44 148.879 Q2211.44 153.532 2213.41 156.217 Q2215.4 158.879 2218.85 158.879 Q2222.25 158.879 2224.25 156.194 Q2226.24 153.509 2226.24 148.879 Q2226.24 144.273 2224.25 141.588 Q2222.25 138.879 2218.85 138.879 M2218.85 135.268 Q2224.41 135.268 2227.58 138.879 Q2230.75 142.491 2230.75 148.879 Q2230.75 155.245 2227.58 158.879 Q2224.41 162.49 2218.85 162.49 Q2213.27 162.49 2210.1 158.879 Q2206.95 155.245 2206.95 148.879 Q2206.95 142.491 2210.1 138.879 Q2213.27 135.268 2218.85 135.268 Z" fill="#000000" fill-rule="nonzero" fill-opacity="1" /><path clip-path="url(#clip490)" d="M2259.36 146.171 L2259.36 161.819 L2255.1 161.819 L2255.1 146.31 Q2255.1 142.629 2253.67 140.801 Q2252.23 138.972 2249.36 138.972 Q2245.91 138.972 2243.92 141.171 Q2241.93 143.37 2241.93 147.166 L2241.93 161.819 L2237.65 161.819 L2237.65 135.893 L2241.93 135.893 L2241.93 139.921 Q2243.46 137.583 2245.52 136.426 Q2247.6 135.268 2250.31 135.268 Q2254.78 135.268 2257.07 138.046 Q2259.36 140.801 2259.36 146.171 Z" fill="#000000" fill-rule="nonzero" fill-opacity="1" /><circle clip-path="url(#clip490)" cx="1505.99" cy="196.379" r="20.48" fill="#e26f46" fill-rule="evenodd" fill-opacity="1" stroke="#000000" stroke-opacity="1" stroke-width="4.55111"/>
<path clip-path="url(#clip490)" d="M1627.26 181.761 L1627.26 186.692 Q1624.9 184.493 1622.21 183.405 Q1619.55 182.317 1616.54 182.317 Q1610.61 182.317 1607.47 185.951 Q1604.32 189.562 1604.32 196.414 Q1604.32 203.243 1607.47 206.877 Q1610.61 210.488 1616.54 210.488 Q1619.55 210.488 1622.21 209.4 Q1624.9 208.312 1627.26 206.113 L1627.26 210.997 Q1624.8 212.664 1622.05 213.497 Q1619.32 214.33 1616.26 214.33 Q1608.42 214.33 1603.9 209.539 Q1599.39 204.724 1599.39 196.414 Q1599.39 188.081 1603.9 183.289 Q1608.42 178.474 1616.26 178.474 Q1619.36 178.474 1622.1 179.308 Q1624.85 180.118 1627.26 181.761 Z" fill="#000000" fill-rule="nonzero" fill-opacity="1" /><path clip-path="url(#clip490)" d="M1634.48 179.099 L1639.16 179.099 L1639.16 209.724 L1655.98 209.724 L1655.98 213.659 L1634.48 213.659 L1634.48 179.099 Z" fill="#000000" fill-rule="nonzero" fill-opacity="1" /><path clip-path="url(#clip490)" d="M1673.23 182.27 Q1668.14 182.27 1665.13 186.067 Q1662.14 189.863 1662.14 196.414 Q1662.14 202.942 1665.13 206.738 Q1668.14 210.534 1673.23 210.534 Q1678.32 210.534 1681.29 206.738 Q1684.27 202.942 1684.27 196.414 Q1684.27 189.863 1681.29 186.067 Q1678.32 182.27 1673.23 182.27 M1673.23 178.474 Q1680.5 178.474 1684.85 183.358 Q1689.2 188.22 1689.2 196.414 Q1689.2 204.585 1684.85 209.469 Q1680.5 214.33 1673.23 214.33 Q1665.94 214.33 1661.56 209.469 Q1657.21 204.608 1657.21 196.414 Q1657.21 188.22 1661.56 183.358 Q1665.94 178.474 1673.23 178.474 Z" fill="#000000" fill-rule="nonzero" fill-opacity="1" /><path clip-path="url(#clip490)" d="M1695.98 179.099 L1700.68 179.099 L1700.68 200.094 Q1700.68 205.65 1702.7 208.104 Q1704.71 210.534 1709.23 210.534 Q1713.72 210.534 1715.73 208.104 Q1717.74 205.65 1717.74 200.094 L1717.74 179.099 L1722.44 179.099 L1722.44 200.673 Q1722.44 207.432 1719.09 210.881 Q1715.75 214.33 1709.23 214.33 Q1702.67 214.33 1699.32 210.881 Q1695.98 207.432 1695.98 200.673 L1695.98 179.099 Z" fill="#000000" fill-rule="nonzero" fill-opacity="1" /><path clip-path="url(#clip490)" d="M1735.89 182.942 L1735.89 209.817 L1741.54 209.817 Q1748.69 209.817 1752 206.576 Q1755.34 203.335 1755.34 196.344 Q1755.34 189.4 1752 186.182 Q1748.69 182.942 1741.54 182.942 L1735.89 182.942 M1731.22 179.099 L1740.82 179.099 Q1750.87 179.099 1755.57 183.289 Q1760.27 187.456 1760.27 196.344 Q1760.27 205.28 1755.54 209.469 Q1750.82 213.659 1740.82 213.659 L1731.22 213.659 L1731.22 179.099 Z" fill="#000000" fill-rule="nonzero" fill-opacity="1" /><path clip-path="url(#clip490)" d="M1799.66 191.669 L1799.66 177.641 L1803.92 177.641 L1803.92 213.659 L1799.66 213.659 L1799.66 209.77 Q1798.32 212.085 1796.26 213.219 Q1794.22 214.33 1791.35 214.33 Q1786.66 214.33 1783.69 210.58 Q1780.75 206.831 1780.75 200.719 Q1780.75 194.608 1783.69 190.858 Q1786.66 187.108 1791.35 187.108 Q1794.22 187.108 1796.26 188.243 Q1798.32 189.354 1799.66 191.669 M1785.15 200.719 Q1785.15 205.418 1787.07 208.104 Q1789.02 210.766 1792.4 210.766 Q1795.78 210.766 1797.72 208.104 Q1799.66 205.418 1799.66 200.719 Q1799.66 196.02 1797.72 193.358 Q1795.78 190.673 1792.4 190.673 Q1789.02 190.673 1787.07 193.358 Q1785.15 196.02 1785.15 200.719 Z" fill="#000000" fill-rule="nonzero" fill-opacity="1" /><path clip-path="url(#clip490)" d="M1824.48 200.627 Q1819.32 200.627 1817.33 201.807 Q1815.34 202.988 1815.34 205.835 Q1815.34 208.104 1816.82 209.446 Q1818.32 210.766 1820.89 210.766 Q1824.43 210.766 1826.56 208.266 Q1828.72 205.743 1828.72 201.576 L1828.72 200.627 L1824.48 200.627 M1832.97 198.868 L1832.97 213.659 L1828.72 213.659 L1828.72 209.724 Q1827.26 212.085 1825.08 213.219 Q1822.91 214.33 1819.76 214.33 Q1815.78 214.33 1813.41 212.108 Q1811.08 209.863 1811.08 206.113 Q1811.08 201.738 1813.99 199.516 Q1816.93 197.294 1822.74 197.294 L1828.72 197.294 L1828.72 196.877 Q1828.72 193.937 1826.77 192.34 Q1824.85 190.719 1821.35 190.719 Q1819.13 190.719 1817.03 191.252 Q1814.92 191.784 1812.97 192.849 L1812.97 188.914 Q1815.31 188.011 1817.51 187.571 Q1819.71 187.108 1821.79 187.108 Q1827.42 187.108 1830.2 190.025 Q1832.97 192.942 1832.97 198.868 Z" fill="#000000" fill-rule="nonzero" fill-opacity="1" /><path clip-path="url(#clip490)" d="M1845.96 180.372 L1845.96 187.733 L1854.73 187.733 L1854.73 191.044 L1845.96 191.044 L1845.96 205.118 Q1845.96 208.289 1846.82 209.192 Q1847.7 210.094 1850.36 210.094 L1854.73 210.094 L1854.73 213.659 L1850.36 213.659 Q1845.43 213.659 1843.55 211.83 Q1841.68 209.979 1841.68 205.118 L1841.68 191.044 L1838.55 191.044 L1838.55 187.733 L1841.68 187.733 L1841.68 180.372 L1845.96 180.372 Z" fill="#000000" fill-rule="nonzero" fill-opacity="1" /><path clip-path="url(#clip490)" d="M1872.12 200.627 Q1866.96 200.627 1864.97 201.807 Q1862.97 202.988 1862.97 205.835 Q1862.97 208.104 1864.46 209.446 Q1865.96 210.766 1868.53 210.766 Q1872.07 210.766 1874.2 208.266 Q1876.35 205.743 1876.35 201.576 L1876.35 200.627 L1872.12 200.627 M1880.61 198.868 L1880.61 213.659 L1876.35 213.659 L1876.35 209.724 Q1874.9 212.085 1872.72 213.219 Q1870.54 214.33 1867.4 214.33 Q1863.41 214.33 1861.05 212.108 Q1858.72 209.863 1858.72 206.113 Q1858.72 201.738 1861.63 199.516 Q1864.57 197.294 1870.38 197.294 L1876.35 197.294 L1876.35 196.877 Q1876.35 193.937 1874.41 192.34 Q1872.49 190.719 1868.99 190.719 Q1866.77 190.719 1864.66 191.252 Q1862.56 191.784 1860.61 192.849 L1860.61 188.914 Q1862.95 188.011 1865.15 187.571 Q1867.35 187.108 1869.43 187.108 Q1875.06 187.108 1877.84 190.025 Q1880.61 192.942 1880.61 198.868 Z" fill="#000000" fill-rule="nonzero" fill-opacity="1" /></svg>
