<?xml version="1.0" encoding="utf-8"?>
<svg xmlns="http://www.w3.org/2000/svg" xmlns:xlink="http://www.w3.org/1999/xlink" width="600" height="400" viewBox="0 0 2400 1600">
<defs>
  <clipPath id="clip480">
    <rect x="0" y="0" width="2400" height="1600"/>
  </clipPath>
</defs>
<path clip-path="url(#clip480)" d="M0 1600 L2400 1600 L2400 0 L0 0  Z" fill="#ffffff" fill-rule="evenodd" fill-opacity="1"/>
<defs>
  <clipPath id="clip481">
    <rect x="480" y="0" width="1681" height="1600"/>
  </clipPath>
</defs>
<path clip-path="url(#clip480)" d="M252.764 1410.9 L2352.76 1410.9 L2352.76 47.2441 L252.764 47.2441  Z" fill="#ffffff" fill-rule="evenodd" fill-opacity="1"/>
<defs>
  <clipPath id="clip482">
    <rect x="252" y="47" width="2101" height="1365"/>
  </clipPath>
</defs>
<polyline clip-path="url(#clip482)" style="stroke:#000000; stroke-linecap:round; stroke-linejoin:round; stroke-width:2; stroke-opacity:0.1; fill:none" points="312.198,1410.9 312.198,47.2441 "/>
<polyline clip-path="url(#clip482)" style="stroke:#000000; stroke-linecap:round; stroke-linejoin:round; stroke-width:2; stroke-opacity:0.1; fill:none" points="1066.91,1410.9 1066.91,47.2441 "/>
<polyline clip-path="url(#clip482)" style="stroke:#000000; stroke-linecap:round; stroke-linejoin:round; stroke-width:2; stroke-opacity:0.1; fill:none" points="1821.63,1410.9 1821.63,47.2441 "/>
<polyline clip-path="url(#clip482)" style="stroke:#000000; stroke-linecap:round; stroke-linejoin:round; stroke-width:2; stroke-opacity:0.1; fill:none" points="252.764,1410.9 2352.76,1410.9 "/>
<polyline clip-path="url(#clip482)" style="stroke:#000000; stroke-linecap:round; stroke-linejoin:round; stroke-width:2; stroke-opacity:0.1; fill:none" points="252.764,1216.09 2352.76,1216.09 "/>
<polyline clip-path="url(#clip482)" style="stroke:#000000; stroke-linecap:round; stroke-linejoin:round; stroke-width:2; stroke-opacity:0.1; fill:none" points="252.764,1021.28 2352.76,1021.28 "/>
<polyline clip-path="url(#clip482)" style="stroke:#000000; stroke-linecap:round; stroke-linejoin:round; stroke-width:2; stroke-opacity:0.1; fill:none" points="252.764,826.474 2352.76,826.474 "/>
<polyline clip-path="url(#clip482)" style="stroke:#000000; stroke-linecap:round; stroke-linejoin:round; stroke-width:2; stroke-opacity:0.1; fill:none" points="252.764,631.667 2352.76,631.667 "/>
<polyline clip-path="url(#clip482)" style="stroke:#000000; stroke-linecap:round; stroke-linejoin:round; stroke-width:2; stroke-opacity:0.1; fill:none" points="252.764,436.859 2352.76,436.859 "/>
<polyline clip-path="url(#clip482)" style="stroke:#000000; stroke-linecap:round; stroke-linejoin:round; stroke-width:2; stroke-opacity:0.1; fill:none" points="252.764,242.052 2352.76,242.052 "/>
<polyline clip-path="url(#clip482)" style="stroke:#000000; stroke-linecap:round; stroke-linejoin:round; stroke-width:2; stroke-opacity:0.1; fill:none" points="252.764,47.2441 2352.76,47.2441 "/>
<polyline clip-path="url(#clip480)" style="stroke:#000000; stroke-linecap:round; stroke-linejoin:round; stroke-width:4; stroke-opacity:1; fill:none" points="252.764,1410.9 2352.76,1410.9 "/>
<polyline clip-path="url(#clip480)" style="stroke:#000000; stroke-linecap:round; stroke-linejoin:round; stroke-width:4; stroke-opacity:1; fill:none" points="312.198,1410.9 312.198,1392 "/>
<polyline clip-path="url(#clip480)" style="stroke:#000000; stroke-linecap:round; stroke-linejoin:round; stroke-width:4; stroke-opacity:1; fill:none" points="1066.91,1410.9 1066.91,1392 "/>
<polyline clip-path="url(#clip480)" style="stroke:#000000; stroke-linecap:round; stroke-linejoin:round; stroke-width:4; stroke-opacity:1; fill:none" points="1821.63,1410.9 1821.63,1392 "/>
<path clip-path="url(#clip480)" d="M277.19 1485.02 L284.829 1485.02 L284.829 1458.66 L276.519 1460.32 L276.519 1456.06 L284.782 1454.4 L289.458 1454.4 L289.458 1485.02 L297.097 1485.02 L297.097 1488.96 L277.19 1488.96 L277.19 1485.02 Z" fill="#000000" fill-rule="nonzero" fill-opacity="1" /><path clip-path="url(#clip480)" d="M316.542 1457.48 Q312.93 1457.48 311.102 1461.04 Q309.296 1464.58 309.296 1471.71 Q309.296 1478.82 311.102 1482.38 Q312.93 1485.92 316.542 1485.92 Q320.176 1485.92 321.981 1482.38 Q323.81 1478.82 323.81 1471.71 Q323.81 1464.58 321.981 1461.04 Q320.176 1457.48 316.542 1457.48 M316.542 1453.77 Q322.352 1453.77 325.407 1458.38 Q328.486 1462.96 328.486 1471.71 Q328.486 1480.44 325.407 1485.04 Q322.352 1489.63 316.542 1489.63 Q310.731 1489.63 307.653 1485.04 Q304.597 1480.44 304.597 1471.71 Q304.597 1462.96 307.653 1458.38 Q310.731 1453.77 316.542 1453.77 Z" fill="#000000" fill-rule="nonzero" fill-opacity="1" /><path clip-path="url(#clip480)" d="M338.51 1445.99 Q335.953 1445.99 334.448 1447.74 Q332.962 1449.49 332.962 1452.54 Q332.962 1455.57 334.448 1457.33 Q335.953 1459.08 338.51 1459.08 Q341.068 1459.08 342.554 1457.33 Q344.059 1455.57 344.059 1452.54 Q344.059 1449.49 342.554 1447.74 Q341.068 1445.99 338.51 1445.99 M346.052 1434.09 L346.052 1437.55 Q344.623 1436.87 343.156 1436.51 Q341.708 1436.16 340.278 1436.16 Q336.517 1436.16 334.523 1438.69 Q332.548 1441.23 332.266 1446.37 Q333.376 1444.73 335.05 1443.87 Q336.724 1442.98 338.736 1442.98 Q342.968 1442.98 345.413 1445.56 Q347.877 1448.12 347.877 1452.54 Q347.877 1456.86 345.319 1459.48 Q342.761 1462.09 338.51 1462.09 Q333.639 1462.09 331.063 1458.37 Q328.486 1454.62 328.486 1447.53 Q328.486 1440.88 331.646 1436.93 Q334.805 1432.96 340.128 1432.96 Q341.557 1432.96 343.006 1433.24 Q344.473 1433.52 346.052 1434.09 Z" fill="#000000" fill-rule="nonzero" fill-opacity="1" /><path clip-path="url(#clip480)" d="M1032.57 1485.02 L1040.21 1485.02 L1040.21 1458.66 L1031.9 1460.32 L1031.9 1456.06 L1040.16 1454.4 L1044.84 1454.4 L1044.84 1485.02 L1052.48 1485.02 L1052.48 1488.96 L1032.57 1488.96 L1032.57 1485.02 Z" fill="#000000" fill-rule="nonzero" fill-opacity="1" /><path clip-path="url(#clip480)" d="M1071.92 1457.48 Q1068.31 1457.48 1066.48 1461.04 Q1064.68 1464.58 1064.68 1471.71 Q1064.68 1478.82 1066.48 1482.38 Q1068.31 1485.92 1071.92 1485.92 Q1075.56 1485.92 1077.36 1482.38 Q1079.19 1478.82 1079.19 1471.71 Q1079.19 1464.58 1077.36 1461.04 Q1075.56 1457.48 1071.92 1457.48 M1071.92 1453.77 Q1077.73 1453.77 1080.79 1458.38 Q1083.87 1462.96 1083.87 1471.71 Q1083.87 1480.44 1080.79 1485.04 Q1077.73 1489.63 1071.92 1489.63 Q1066.11 1489.63 1063.03 1485.04 Q1059.98 1480.44 1059.98 1471.71 Q1059.98 1462.96 1063.03 1458.38 Q1066.11 1453.77 1071.92 1453.77 Z" fill="#000000" fill-rule="nonzero" fill-opacity="1" /><path clip-path="url(#clip480)" d="M1083.87 1433.47 L1101.92 1433.47 L1101.92 1435.08 L1091.73 1461.55 L1087.76 1461.55 L1097.35 1436.66 L1083.87 1436.66 L1083.87 1433.47 Z" fill="#000000" fill-rule="nonzero" fill-opacity="1" /><path clip-path="url(#clip480)" d="M1786.68 1485.02 L1794.32 1485.02 L1794.32 1458.66 L1786.01 1460.32 L1786.01 1456.06 L1794.28 1454.4 L1798.95 1454.4 L1798.95 1485.02 L1806.59 1485.02 L1806.59 1488.96 L1786.68 1488.96 L1786.68 1485.02 Z" fill="#000000" fill-rule="nonzero" fill-opacity="1" /><path clip-path="url(#clip480)" d="M1826.04 1457.48 Q1822.42 1457.48 1820.6 1461.04 Q1818.79 1464.58 1818.79 1471.71 Q1818.79 1478.82 1820.6 1482.38 Q1822.42 1485.92 1826.04 1485.92 Q1829.67 1485.92 1831.48 1482.38 Q1833.3 1478.82 1833.3 1471.71 Q1833.3 1464.58 1831.48 1461.04 Q1829.67 1457.48 1826.04 1457.48 M1826.04 1453.77 Q1831.85 1453.77 1834.9 1458.38 Q1837.98 1462.96 1837.98 1471.71 Q1837.98 1480.44 1834.9 1485.04 Q1831.85 1489.63 1826.04 1489.63 Q1820.23 1489.63 1817.15 1485.04 Q1814.09 1480.44 1814.09 1471.71 Q1814.09 1462.96 1817.15 1458.38 Q1820.23 1453.77 1826.04 1453.77 Z" fill="#000000" fill-rule="nonzero" fill-opacity="1" /><path clip-path="url(#clip480)" d="M1847.61 1448.21 Q1844.9 1448.21 1843.34 1449.66 Q1841.8 1451.11 1841.8 1453.65 Q1841.8 1456.19 1843.34 1457.63 Q1844.9 1459.08 1847.61 1459.08 Q1850.32 1459.08 1851.88 1457.63 Q1853.44 1456.17 1853.44 1453.65 Q1853.44 1451.11 1851.88 1449.66 Q1850.34 1448.21 1847.61 1448.21 M1843.81 1446.59 Q1841.37 1445.99 1839.99 1444.32 Q1838.64 1442.64 1838.64 1440.24 Q1838.64 1436.87 1841.03 1434.91 Q1843.43 1432.96 1847.61 1432.96 Q1851.8 1432.96 1854.19 1434.91 Q1856.58 1436.87 1856.58 1440.24 Q1856.58 1442.64 1855.21 1444.32 Q1853.85 1445.99 1851.43 1446.59 Q1854.17 1447.23 1855.7 1449.1 Q1857.24 1450.96 1857.24 1453.65 Q1857.24 1457.73 1854.74 1459.91 Q1852.26 1462.09 1847.61 1462.09 Q1842.96 1462.09 1840.46 1459.91 Q1837.98 1457.73 1837.98 1453.65 Q1837.98 1450.96 1839.52 1449.1 Q1841.06 1447.23 1843.81 1446.59 M1842.42 1440.59 Q1842.42 1442.78 1843.77 1444 Q1845.15 1445.22 1847.61 1445.22 Q1850.05 1445.22 1851.43 1444 Q1852.82 1442.78 1852.82 1440.59 Q1852.82 1438.41 1851.43 1437.19 Q1850.05 1435.97 1847.61 1435.97 Q1845.15 1435.97 1843.77 1437.19 Q1842.42 1438.41 1842.42 1440.59 Z" fill="#000000" fill-rule="nonzero" fill-opacity="1" /><path clip-path="url(#clip480)" d="M1114.75 1526.67 L1121.18 1526.67 L1121.18 1546.14 L1144.54 1546.14 L1144.54 1526.67 L1150.97 1526.67 L1150.97 1574.19 L1144.54 1574.19 L1144.54 1551.56 L1121.18 1551.56 L1121.18 1574.19 L1114.75 1574.19 L1114.75 1526.67 Z" fill="#000000" fill-rule="nonzero" fill-opacity="1" /><path clip-path="url(#clip480)" d="M1183.05 1531.03 Q1176.05 1531.03 1171.91 1536.25 Q1167.81 1541.47 1167.81 1550.47 Q1167.81 1559.45 1171.91 1564.67 Q1176.05 1569.89 1183.05 1569.89 Q1190.06 1569.89 1194.13 1564.67 Q1198.24 1559.45 1198.24 1550.47 Q1198.24 1541.47 1194.13 1536.25 Q1190.06 1531.03 1183.05 1531.03 M1183.05 1525.81 Q1193.05 1525.81 1199.03 1532.52 Q1205.01 1539.21 1205.01 1550.47 Q1205.01 1561.71 1199.03 1568.42 Q1193.05 1575.11 1183.05 1575.11 Q1173.03 1575.11 1167.01 1568.42 Q1161.03 1561.74 1161.03 1550.47 Q1161.03 1539.21 1167.01 1532.52 Q1173.03 1525.81 1183.05 1525.81 Z" fill="#000000" fill-rule="nonzero" fill-opacity="1" /><path clip-path="url(#clip480)" d="M1215.07 1526.67 L1224.65 1526.67 L1236.78 1559 L1248.97 1526.67 L1258.55 1526.67 L1258.55 1574.19 L1252.28 1574.19 L1252.28 1532.46 L1240.03 1565.05 L1233.56 1565.05 L1221.31 1532.46 L1221.31 1574.19 L1215.07 1574.19 L1215.07 1526.67 Z" fill="#000000" fill-rule="nonzero" fill-opacity="1" /><path clip-path="url(#clip480)" d="M1305.85 1524.72 Q1301.58 1532.04 1299.51 1539.21 Q1297.44 1546.37 1297.44 1553.72 Q1297.44 1561.07 1299.51 1568.3 Q1301.61 1575.49 1305.85 1582.78 L1300.75 1582.78 Q1295.98 1575.3 1293.59 1568.07 Q1291.24 1560.85 1291.24 1553.72 Q1291.24 1546.62 1293.59 1539.43 Q1295.95 1532.24 1300.75 1524.72 L1305.85 1524.72 Z" fill="#000000" fill-rule="nonzero" fill-opacity="1" /><path clip-path="url(#clip480)" d="M1342.86 1539.91 L1342.86 1545.38 Q1340.38 1544.01 1337.87 1543.34 Q1335.38 1542.64 1332.84 1542.64 Q1327.14 1542.64 1323.99 1546.27 Q1320.84 1549.87 1320.84 1556.39 Q1320.84 1562.92 1323.99 1566.55 Q1327.14 1570.14 1332.84 1570.14 Q1335.38 1570.14 1337.87 1569.47 Q1340.38 1568.77 1342.86 1567.41 L1342.86 1572.82 Q1340.41 1573.96 1337.77 1574.54 Q1335.16 1575.11 1332.2 1575.11 Q1324.15 1575.11 1319.41 1570.05 Q1314.66 1564.99 1314.66 1556.39 Q1314.66 1547.67 1319.44 1542.68 Q1324.24 1537.68 1332.58 1537.68 Q1335.29 1537.68 1337.87 1538.25 Q1340.44 1538.79 1342.86 1539.91 Z" fill="#000000" fill-rule="nonzero" fill-opacity="1" /><path clip-path="url(#clip480)" d="M1380.8 1545.38 Q1383 1541.43 1386.06 1539.56 Q1389.11 1537.68 1393.25 1537.68 Q1398.82 1537.68 1401.84 1541.59 Q1404.87 1545.48 1404.87 1552.67 L1404.87 1574.19 L1398.98 1574.19 L1398.98 1552.86 Q1398.98 1547.74 1397.16 1545.25 Q1395.35 1542.77 1391.63 1542.77 Q1387.07 1542.77 1384.43 1545.79 Q1381.79 1548.82 1381.79 1554.04 L1381.79 1574.19 L1375.9 1574.19 L1375.9 1552.86 Q1375.9 1547.7 1374.09 1545.25 Q1372.27 1542.77 1368.49 1542.77 Q1364 1542.77 1361.36 1545.83 Q1358.71 1548.85 1358.71 1554.04 L1358.71 1574.19 L1352.83 1574.19 L1352.83 1538.54 L1358.71 1538.54 L1358.71 1544.08 Q1360.72 1540.8 1363.52 1539.24 Q1366.32 1537.68 1370.17 1537.68 Q1374.06 1537.68 1376.76 1539.65 Q1379.5 1541.62 1380.8 1545.38 Z" fill="#000000" fill-rule="nonzero" fill-opacity="1" /><path clip-path="url(#clip480)" d="M1414.76 1539.97 L1440.45 1539.97 L1440.45 1542.99 L1414.76 1542.99 L1414.76 1539.97 Z" fill="#000000" fill-rule="nonzero" fill-opacity="1" /><path clip-path="url(#clip480)" d="M1461.49 1538.54 Q1464.42 1539.11 1466.01 1540.86 Q1467.63 1542.58 1467.63 1545.19 Q1467.63 1549.14 1464.61 1551.27 Q1461.58 1553.4 1455.95 1553.4 Q1454.14 1553.4 1452.13 1553.08 Q1450.16 1552.73 1447.93 1552.1 L1447.93 1548.25 Q1449.58 1549.1 1451.46 1549.52 Q1453.37 1549.93 1455.51 1549.93 Q1458.97 1549.93 1460.88 1548.69 Q1462.79 1547.42 1462.79 1545.19 Q1462.79 1542.83 1461.01 1541.62 Q1459.26 1540.42 1455.82 1540.42 L1453.09 1540.42 L1453.09 1536.98 L1456.08 1536.98 Q1459.07 1536.98 1460.6 1535.99 Q1462.16 1534.97 1462.16 1533.06 Q1462.16 1531.22 1460.57 1530.26 Q1458.97 1529.28 1455.95 1529.28 Q1454.68 1529.28 1453.05 1529.56 Q1451.43 1529.85 1448.85 1530.58 L1448.85 1526.92 Q1451.18 1526.38 1453.21 1526.09 Q1455.25 1525.81 1457 1525.81 Q1461.58 1525.81 1464.26 1527.68 Q1466.96 1529.56 1466.96 1532.71 Q1466.96 1534.91 1465.53 1536.44 Q1464.1 1537.96 1461.49 1538.54 Z" fill="#000000" fill-rule="nonzero" fill-opacity="1" /><path clip-path="url(#clip480)" d="M1476.16 1524.72 L1481.25 1524.72 Q1486.03 1532.24 1488.38 1539.43 Q1490.77 1546.62 1490.77 1553.72 Q1490.77 1560.85 1488.38 1568.07 Q1486.03 1575.3 1481.25 1582.78 L1476.16 1582.78 Q1480.39 1575.49 1482.46 1568.3 Q1484.56 1561.07 1484.56 1553.72 Q1484.56 1546.37 1482.46 1539.21 Q1480.39 1532.04 1476.16 1524.72 Z" fill="#000000" fill-rule="nonzero" fill-opacity="1" /><polyline clip-path="url(#clip480)" style="stroke:#000000; stroke-linecap:round; stroke-linejoin:round; stroke-width:4; stroke-opacity:1; fill:none" points="252.764,1410.9 252.764,47.2441 "/>
<polyline clip-path="url(#clip480)" style="stroke:#000000; stroke-linecap:round; stroke-linejoin:round; stroke-width:4; stroke-opacity:1; fill:none" points="252.764,1410.9 271.662,1410.9 "/>
<polyline clip-path="url(#clip480)" style="stroke:#000000; stroke-linecap:round; stroke-linejoin:round; stroke-width:4; stroke-opacity:1; fill:none" points="252.764,1216.09 271.662,1216.09 "/>
<polyline clip-path="url(#clip480)" style="stroke:#000000; stroke-linecap:round; stroke-linejoin:round; stroke-width:4; stroke-opacity:1; fill:none" points="252.764,1021.28 271.662,1021.28 "/>
<polyline clip-path="url(#clip480)" style="stroke:#000000; stroke-linecap:round; stroke-linejoin:round; stroke-width:4; stroke-opacity:1; fill:none" points="252.764,826.474 271.662,826.474 "/>
<polyline clip-path="url(#clip480)" style="stroke:#000000; stroke-linecap:round; stroke-linejoin:round; stroke-width:4; stroke-opacity:1; fill:none" points="252.764,631.667 271.662,631.667 "/>
<polyline clip-path="url(#clip480)" style="stroke:#000000; stroke-linecap:round; stroke-linejoin:round; stroke-width:4; stroke-opacity:1; fill:none" points="252.764,436.859 271.662,436.859 "/>
<polyline clip-path="url(#clip480)" style="stroke:#000000; stroke-linecap:round; stroke-linejoin:round; stroke-width:4; stroke-opacity:1; fill:none" points="252.764,242.052 271.662,242.052 "/>
<polyline clip-path="url(#clip480)" style="stroke:#000000; stroke-linecap:round; stroke-linejoin:round; stroke-width:4; stroke-opacity:1; fill:none" points="252.764,47.2441 271.662,47.2441 "/>
<path clip-path="url(#clip480)" d="M114.931 1430.69 L122.57 1430.69 L122.57 1404.32 L114.26 1405.99 L114.26 1401.73 L122.524 1400.06 L127.2 1400.06 L127.2 1430.69 L134.839 1430.69 L134.839 1434.62 L114.931 1434.62 L114.931 1430.69 Z" fill="#000000" fill-rule="nonzero" fill-opacity="1" /><path clip-path="url(#clip480)" d="M154.283 1403.14 Q150.672 1403.14 148.843 1406.71 Q147.038 1410.25 147.038 1417.38 Q147.038 1424.49 148.843 1428.05 Q150.672 1431.59 154.283 1431.59 Q157.917 1431.59 159.723 1428.05 Q161.552 1424.49 161.552 1417.38 Q161.552 1410.25 159.723 1406.71 Q157.917 1403.14 154.283 1403.14 M154.283 1399.44 Q160.093 1399.44 163.149 1404.05 Q166.227 1408.63 166.227 1417.38 Q166.227 1426.11 163.149 1430.71 Q160.093 1435.3 154.283 1435.3 Q148.473 1435.3 145.394 1430.71 Q142.339 1426.11 142.339 1417.38 Q142.339 1408.63 145.394 1404.05 Q148.473 1399.44 154.283 1399.44 Z" fill="#000000" fill-rule="nonzero" fill-opacity="1" /><path clip-path="url(#clip480)" d="M166.227 1393.54 L190.339 1393.54 L190.339 1396.74 L166.227 1396.74 L166.227 1393.54 Z" fill="#000000" fill-rule="nonzero" fill-opacity="1" /><path clip-path="url(#clip480)" d="M208.978 1382.44 L199.386 1397.43 L208.978 1397.43 L208.978 1382.44 M207.981 1379.13 L212.758 1379.13 L212.758 1397.43 L216.764 1397.43 L216.764 1400.59 L212.758 1400.59 L212.758 1407.21 L208.978 1407.21 L208.978 1400.59 L196.301 1400.59 L196.301 1396.93 L207.981 1379.13 Z" fill="#000000" fill-rule="nonzero" fill-opacity="1" /><path clip-path="url(#clip480)" d="M115.853 1235.88 L123.492 1235.88 L123.492 1209.52 L115.182 1211.18 L115.182 1206.92 L123.446 1205.26 L128.121 1205.26 L128.121 1235.88 L135.76 1235.88 L135.76 1239.82 L115.853 1239.82 L115.853 1235.88 Z" fill="#000000" fill-rule="nonzero" fill-opacity="1" /><path clip-path="url(#clip480)" d="M155.205 1208.34 Q151.594 1208.34 149.765 1211.9 Q147.959 1215.44 147.959 1222.57 Q147.959 1229.68 149.765 1233.24 Q151.594 1236.78 155.205 1236.78 Q158.839 1236.78 160.644 1233.24 Q162.473 1229.68 162.473 1222.57 Q162.473 1215.44 160.644 1211.9 Q158.839 1208.34 155.205 1208.34 M155.205 1204.63 Q161.015 1204.63 164.07 1209.24 Q167.149 1213.82 167.149 1222.57 Q167.149 1231.3 164.07 1235.9 Q161.015 1240.49 155.205 1240.49 Q149.395 1240.49 146.316 1235.9 Q143.26 1231.3 143.26 1222.57 Q143.26 1213.82 146.316 1209.24 Q149.395 1204.63 155.205 1204.63 Z" fill="#000000" fill-rule="nonzero" fill-opacity="1" /><path clip-path="url(#clip480)" d="M167.149 1198.73 L191.261 1198.73 L191.261 1201.93 L167.149 1201.93 L167.149 1198.73 Z" fill="#000000" fill-rule="nonzero" fill-opacity="1" /><path clip-path="url(#clip480)" d="M210.971 1197.27 Q213.698 1197.85 215.222 1199.69 Q216.764 1201.54 216.764 1204.24 Q216.764 1208.4 213.905 1210.68 Q211.046 1212.95 205.78 1212.95 Q204.012 1212.95 202.132 1212.59 Q200.27 1212.26 198.276 1211.56 L198.276 1207.89 Q199.856 1208.81 201.737 1209.28 Q203.617 1209.75 205.667 1209.75 Q209.241 1209.75 211.103 1208.34 Q212.984 1206.93 212.984 1204.24 Q212.984 1201.76 211.234 1200.37 Q209.504 1198.96 206.401 1198.96 L203.128 1198.96 L203.128 1195.84 L206.551 1195.84 Q209.354 1195.84 210.84 1194.73 Q212.325 1193.6 212.325 1191.49 Q212.325 1189.33 210.783 1188.18 Q209.26 1187.02 206.401 1187.02 Q204.84 1187.02 203.053 1187.35 Q201.266 1187.69 199.122 1188.41 L199.122 1185.02 Q201.285 1184.42 203.166 1184.12 Q205.066 1183.82 206.739 1183.82 Q211.065 1183.82 213.585 1185.79 Q216.106 1187.75 216.106 1191.1 Q216.106 1193.43 214.77 1195.05 Q213.435 1196.65 210.971 1197.27 Z" fill="#000000" fill-rule="nonzero" fill-opacity="1" /><path clip-path="url(#clip480)" d="M116.624 1041.07 L124.263 1041.07 L124.263 1014.71 L115.953 1016.38 L115.953 1012.12 L124.217 1010.45 L128.893 1010.45 L128.893 1041.07 L136.531 1041.07 L136.531 1045.01 L116.624 1045.01 L116.624 1041.07 Z" fill="#000000" fill-rule="nonzero" fill-opacity="1" /><path clip-path="url(#clip480)" d="M155.976 1013.53 Q152.365 1013.53 150.536 1017.09 Q148.73 1020.63 148.73 1027.76 Q148.73 1034.87 150.536 1038.44 Q152.365 1041.98 155.976 1041.98 Q159.61 1041.98 161.416 1038.44 Q163.244 1034.87 163.244 1027.76 Q163.244 1020.63 161.416 1017.09 Q159.61 1013.53 155.976 1013.53 M155.976 1009.82 Q161.786 1009.82 164.841 1014.43 Q167.92 1019.01 167.92 1027.76 Q167.92 1036.49 164.841 1041.1 Q161.786 1045.68 155.976 1045.68 Q150.166 1045.68 147.087 1041.1 Q144.031 1036.49 144.031 1027.76 Q144.031 1019.01 147.087 1014.43 Q150.166 1009.82 155.976 1009.82 Z" fill="#000000" fill-rule="nonzero" fill-opacity="1" /><path clip-path="url(#clip480)" d="M167.92 1003.93 L192.032 1003.93 L192.032 1007.12 L167.92 1007.12 L167.92 1003.93 Z" fill="#000000" fill-rule="nonzero" fill-opacity="1" /><path clip-path="url(#clip480)" d="M203.504 1014.4 L216.764 1014.4 L216.764 1017.6 L198.934 1017.6 L198.934 1014.4 Q201.097 1012.16 204.821 1008.4 Q208.564 1004.62 209.523 1003.53 Q211.347 1001.48 212.062 1000.07 Q212.796 998.641 212.796 997.268 Q212.796 995.03 211.216 993.619 Q209.655 992.208 207.134 992.208 Q205.348 992.208 203.354 992.829 Q201.379 993.45 199.122 994.71 L199.122 990.873 Q201.417 989.951 203.41 989.481 Q205.404 989.011 207.059 989.011 Q211.423 989.011 214.018 991.193 Q216.613 993.374 216.613 997.023 Q216.613 998.753 215.955 1000.31 Q215.316 1001.86 213.604 1003.96 Q213.134 1004.51 210.614 1007.12 Q208.094 1009.72 203.504 1014.4 Z" fill="#000000" fill-rule="nonzero" fill-opacity="1" /><path clip-path="url(#clip480)" d="M116.323 846.267 L123.962 846.267 L123.962 819.901 L115.652 821.568 L115.652 817.308 L123.916 815.642 L128.592 815.642 L128.592 846.267 L136.231 846.267 L136.231 850.202 L116.323 850.202 L116.323 846.267 Z" fill="#000000" fill-rule="nonzero" fill-opacity="1" /><path clip-path="url(#clip480)" d="M155.675 818.72 Q152.064 818.72 150.235 822.285 Q148.43 825.827 148.43 832.956 Q148.43 840.063 150.235 843.628 Q152.064 847.169 155.675 847.169 Q159.309 847.169 161.115 843.628 Q162.943 840.063 162.943 832.956 Q162.943 825.827 161.115 822.285 Q159.309 818.72 155.675 818.72 M155.675 815.017 Q161.485 815.017 164.541 819.623 Q167.619 824.206 167.619 832.956 Q167.619 841.683 164.541 846.29 Q161.485 850.873 155.675 850.873 Q149.865 850.873 146.786 846.29 Q143.73 841.683 143.73 832.956 Q143.73 824.206 146.786 819.623 Q149.865 815.017 155.675 815.017 Z" fill="#000000" fill-rule="nonzero" fill-opacity="1" /><path clip-path="url(#clip480)" d="M167.619 809.118 L191.731 809.118 L191.731 812.315 L167.619 812.315 L167.619 809.118 Z" fill="#000000" fill-rule="nonzero" fill-opacity="1" /><path clip-path="url(#clip480)" d="M200.589 819.594 L206.796 819.594 L206.796 798.172 L200.044 799.526 L200.044 796.065 L206.758 794.711 L210.557 794.711 L210.557 819.594 L216.764 819.594 L216.764 822.791 L200.589 822.791 L200.589 819.594 Z" fill="#000000" fill-rule="nonzero" fill-opacity="1" /><path clip-path="url(#clip480)" d="M146.058 651.459 L153.697 651.459 L153.697 625.093 L145.387 626.76 L145.387 622.501 L153.651 620.834 L158.327 620.834 L158.327 651.459 L165.966 651.459 L165.966 655.394 L146.058 655.394 L146.058 651.459 Z" fill="#000000" fill-rule="nonzero" fill-opacity="1" /><path clip-path="url(#clip480)" d="M185.41 623.913 Q181.799 623.913 179.97 627.478 Q178.165 631.019 178.165 638.149 Q178.165 645.255 179.97 648.82 Q181.799 652.362 185.41 652.362 Q189.044 652.362 190.85 648.82 Q192.678 645.255 192.678 638.149 Q192.678 631.019 190.85 627.478 Q189.044 623.913 185.41 623.913 M185.41 620.209 Q191.22 620.209 194.276 624.816 Q197.354 629.399 197.354 638.149 Q197.354 646.876 194.276 651.482 Q191.22 656.066 185.41 656.066 Q179.6 656.066 176.521 651.482 Q173.466 646.876 173.466 638.149 Q173.466 629.399 176.521 624.816 Q179.6 620.209 185.41 620.209 Z" fill="#000000" fill-rule="nonzero" fill-opacity="1" /><path clip-path="url(#clip480)" d="M207.059 602.405 Q204.125 602.405 202.639 605.302 Q201.172 608.179 201.172 613.972 Q201.172 619.746 202.639 622.642 Q204.125 625.52 207.059 625.52 Q210.012 625.52 211.479 622.642 Q212.965 619.746 212.965 613.972 Q212.965 608.179 211.479 605.302 Q210.012 602.405 207.059 602.405 M207.059 599.396 Q211.78 599.396 214.263 603.139 Q216.764 606.863 216.764 613.972 Q216.764 621.063 214.263 624.805 Q211.78 628.529 207.059 628.529 Q202.338 628.529 199.837 624.805 Q197.354 621.063 197.354 613.972 Q197.354 606.863 199.837 603.139 Q202.338 599.396 207.059 599.396 Z" fill="#000000" fill-rule="nonzero" fill-opacity="1" /><path clip-path="url(#clip480)" d="M148.748 456.652 L156.387 456.652 L156.387 430.286 L148.077 431.953 L148.077 427.693 L156.34 426.027 L161.016 426.027 L161.016 456.652 L168.655 456.652 L168.655 460.587 L148.748 460.587 L148.748 456.652 Z" fill="#000000" fill-rule="nonzero" fill-opacity="1" /><path clip-path="url(#clip480)" d="M188.099 429.105 Q184.488 429.105 182.66 432.67 Q180.854 436.212 180.854 443.341 Q180.854 450.448 182.66 454.013 Q184.488 457.554 188.099 457.554 Q191.734 457.554 193.539 454.013 Q195.368 450.448 195.368 443.341 Q195.368 436.212 193.539 432.67 Q191.734 429.105 188.099 429.105 M188.099 425.402 Q193.91 425.402 196.965 430.008 Q200.044 434.591 200.044 443.341 Q200.044 452.068 196.965 456.675 Q193.91 461.258 188.099 461.258 Q182.289 461.258 179.211 456.675 Q176.155 452.068 176.155 443.341 Q176.155 434.591 179.211 430.008 Q182.289 425.402 188.099 425.402 Z" fill="#000000" fill-rule="nonzero" fill-opacity="1" /><path clip-path="url(#clip480)" d="M200.589 429.979 L206.796 429.979 L206.796 408.557 L200.044 409.911 L200.044 406.45 L206.758 405.096 L210.557 405.096 L210.557 429.979 L216.764 429.979 L216.764 433.176 L200.589 433.176 L200.589 429.979 Z" fill="#000000" fill-rule="nonzero" fill-opacity="1" /><path clip-path="url(#clip480)" d="M147.638 261.844 L155.277 261.844 L155.277 235.478 L146.967 237.145 L146.967 232.886 L155.231 231.219 L159.907 231.219 L159.907 261.844 L167.545 261.844 L167.545 265.779 L147.638 265.779 L147.638 261.844 Z" fill="#000000" fill-rule="nonzero" fill-opacity="1" /><path clip-path="url(#clip480)" d="M186.99 234.298 Q183.379 234.298 181.55 237.863 Q179.744 241.404 179.744 248.534 Q179.744 255.64 181.55 259.205 Q183.379 262.747 186.99 262.747 Q190.624 262.747 192.43 259.205 Q194.258 255.64 194.258 248.534 Q194.258 241.404 192.43 237.863 Q190.624 234.298 186.99 234.298 M186.99 230.594 Q192.8 230.594 195.855 235.201 Q198.934 239.784 198.934 248.534 Q198.934 257.261 195.855 261.867 Q192.8 266.45 186.99 266.45 Q181.18 266.45 178.101 261.867 Q175.045 257.261 175.045 248.534 Q175.045 239.784 178.101 235.201 Q181.18 230.594 186.99 230.594 Z" fill="#000000" fill-rule="nonzero" fill-opacity="1" /><path clip-path="url(#clip480)" d="M203.504 235.171 L216.764 235.171 L216.764 238.369 L198.934 238.369 L198.934 235.171 Q201.097 232.933 204.821 229.172 Q208.564 225.391 209.523 224.301 Q211.347 222.251 212.062 220.84 Q212.796 219.411 212.796 218.038 Q212.796 215.799 211.216 214.389 Q209.655 212.978 207.134 212.978 Q205.348 212.978 203.354 213.599 Q201.379 214.22 199.122 215.48 L199.122 211.643 Q201.417 210.721 203.41 210.251 Q205.404 209.781 207.059 209.781 Q211.423 209.781 214.018 211.963 Q216.613 214.144 216.613 217.793 Q216.613 219.523 215.955 221.084 Q215.316 222.627 213.604 224.733 Q213.134 225.279 210.614 227.893 Q208.094 230.488 203.504 235.171 Z" fill="#000000" fill-rule="nonzero" fill-opacity="1" /><path clip-path="url(#clip480)" d="M146.98 67.0365 L154.619 67.0365 L154.619 40.6709 L146.309 42.3376 L146.309 38.0784 L154.572 36.4117 L159.248 36.4117 L159.248 67.0365 L166.887 67.0365 L166.887 70.9717 L146.98 70.9717 L146.98 67.0365 Z" fill="#000000" fill-rule="nonzero" fill-opacity="1" /><path clip-path="url(#clip480)" d="M186.332 39.4904 Q182.72 39.4904 180.892 43.0552 Q179.086 46.5968 179.086 53.7264 Q179.086 60.8329 180.892 64.3977 Q182.72 67.9393 186.332 67.9393 Q189.966 67.9393 191.771 64.3977 Q193.6 60.8329 193.6 53.7264 Q193.6 46.5968 191.771 43.0552 Q189.966 39.4904 186.332 39.4904 M186.332 35.7867 Q192.142 35.7867 195.197 40.3932 Q198.276 44.9765 198.276 53.7264 Q198.276 62.4532 195.197 67.0597 Q192.142 71.643 186.332 71.643 Q180.521 71.643 177.443 67.0597 Q174.387 62.4532 174.387 53.7264 Q174.387 44.9765 177.443 40.3932 Q180.521 35.7867 186.332 35.7867 Z" fill="#000000" fill-rule="nonzero" fill-opacity="1" /><path clip-path="url(#clip480)" d="M210.971 28.421 Q213.698 29.0041 215.222 30.8472 Q216.764 32.6904 216.764 35.3987 Q216.764 39.5552 213.905 41.831 Q211.046 44.1067 205.78 44.1067 Q204.012 44.1067 202.132 43.7494 Q200.27 43.4108 198.276 42.7149 L198.276 39.0474 Q199.856 39.969 201.737 40.4392 Q203.617 40.9094 205.667 40.9094 Q209.241 40.9094 211.103 39.4988 Q212.984 38.0882 212.984 35.3987 Q212.984 32.9161 211.234 31.5243 Q209.504 30.1137 206.401 30.1137 L203.128 30.1137 L203.128 26.9916 L206.551 26.9916 Q209.354 26.9916 210.84 25.882 Q212.325 24.7535 212.325 22.6471 Q212.325 20.4842 210.783 19.3369 Q209.26 18.1708 206.401 18.1708 Q204.84 18.1708 203.053 18.5093 Q201.266 18.8479 199.122 19.5626 L199.122 16.1772 Q201.285 15.5753 203.166 15.2744 Q205.066 14.9735 206.739 14.9735 Q211.065 14.9735 213.585 16.9483 Q216.106 18.9043 216.106 22.2521 Q216.106 24.5843 214.77 26.2017 Q213.435 27.8004 210.971 28.421 Z" fill="#000000" fill-rule="nonzero" fill-opacity="1" /><path clip-path="url(#clip480)" d="M16.4842 1147.44 L16.4842 1138.78 L56.238 1117.71 L16.4842 1117.71 L16.4842 1111.47 L64.0042 1111.47 L64.0042 1120.13 L24.2503 1141.2 L64.0042 1141.2 L64.0042 1147.44 L16.4842 1147.44 Z" fill="#000000" fill-rule="nonzero" fill-opacity="1" /><path clip-path="url(#clip480)" d="M49.9359 1099.54 L28.3562 1099.54 L28.3562 1093.68 L49.7131 1093.68 Q54.7739 1093.68 57.3202 1091.71 Q59.8346 1089.74 59.8346 1085.79 Q59.8346 1081.05 56.8109 1078.31 Q53.7872 1075.54 48.5673 1075.54 L28.3562 1075.54 L28.3562 1069.68 L64.0042 1069.68 L64.0042 1075.54 L58.5296 1075.54 Q61.7762 1077.67 63.3676 1080.51 Q64.9272 1083.31 64.9272 1087.03 Q64.9272 1093.17 61.1078 1096.36 Q57.2883 1099.54 49.9359 1099.54 M27.4968 1084.8 L27.4968 1084.8 Z" fill="#000000" fill-rule="nonzero" fill-opacity="1" /><path clip-path="url(#clip480)" d="M29.7248 1031.97 L35.1993 1031.97 Q33.8307 1034.45 33.1623 1036.96 Q32.4621 1039.45 32.4621 1041.99 Q32.4621 1047.69 36.0905 1050.84 Q39.6872 1053.99 46.212 1053.99 Q52.7369 1053.99 56.3653 1050.84 Q59.9619 1047.69 59.9619 1041.99 Q59.9619 1039.45 59.2935 1036.96 Q58.5933 1034.45 57.2247 1031.97 L62.6355 1031.97 Q63.7814 1034.42 64.3543 1037.06 Q64.9272 1039.67 64.9272 1042.63 Q64.9272 1050.68 59.8664 1055.42 Q54.8057 1060.17 46.212 1060.17 Q37.491 1060.17 32.4939 1055.39 Q27.4968 1050.59 27.4968 1042.25 Q27.4968 1039.54 28.0697 1036.96 Q28.6108 1034.39 29.7248 1031.97 Z" fill="#000000" fill-rule="nonzero" fill-opacity="1" /><path clip-path="url(#clip480)" d="M14.479 1021.78 L14.479 1015.93 L64.0042 1015.93 L64.0042 1021.78 L14.479 1021.78 Z" fill="#000000" fill-rule="nonzero" fill-opacity="1" /><path clip-path="url(#clip480)" d="M44.7161 973.179 L47.5806 973.179 L47.5806 1000.11 Q53.6281 999.724 56.8109 996.478 Q59.9619 993.199 59.9619 987.375 Q59.9619 984.001 59.1344 980.85 Q58.3069 977.667 56.6518 974.548 L62.1899 974.548 Q63.5267 977.699 64.227 981.009 Q64.9272 984.319 64.9272 987.725 Q64.9272 996.255 59.9619 1001.25 Q54.9967 1006.22 46.5303 1006.22 Q37.7774 1006.22 32.6531 1001.51 Q27.4968 996.764 27.4968 988.743 Q27.4968 981.55 32.1438 977.381 Q36.7589 973.179 44.7161 973.179 M42.9973 979.036 Q38.1912 979.099 35.3266 981.741 Q32.4621 984.351 32.4621 988.68 Q32.4621 993.581 35.2312 996.541 Q38.0002 999.47 43.0292 999.915 L42.9973 979.036 Z" fill="#000000" fill-rule="nonzero" fill-opacity="1" /><path clip-path="url(#clip480)" d="M46.0847 947.366 Q46.0847 954.464 47.7079 957.201 Q49.3312 959.939 53.2461 959.939 Q56.3653 959.939 58.2114 957.902 Q60.0256 955.833 60.0256 952.3 Q60.0256 947.43 56.5881 944.502 Q53.1188 941.542 47.3897 941.542 L46.0847 941.542 L46.0847 947.366 M43.6657 935.685 L64.0042 935.685 L64.0042 941.542 L58.5933 941.542 Q61.8398 943.547 63.3994 946.539 Q64.9272 949.531 64.9272 953.859 Q64.9272 959.334 61.8716 962.58 Q58.7843 965.795 53.6281 965.795 Q47.6125 965.795 44.5569 961.785 Q41.5014 957.742 41.5014 949.754 L41.5014 941.542 L40.9285 941.542 Q36.8862 941.542 34.6901 944.215 Q32.4621 946.857 32.4621 951.663 Q32.4621 954.719 33.1941 957.615 Q33.9262 960.512 35.3903 963.185 L29.9795 963.185 Q28.7381 959.97 28.1334 956.947 Q27.4968 953.923 27.4968 951.058 Q27.4968 943.324 31.5072 939.505 Q35.5176 935.685 43.6657 935.685 Z" fill="#000000" fill-rule="nonzero" fill-opacity="1" /><path clip-path="url(#clip480)" d="M18.2347 917.829 L28.3562 917.829 L28.3562 905.766 L32.9077 905.766 L32.9077 917.829 L52.2594 917.829 Q56.6199 917.829 57.8613 916.652 Q59.1026 915.442 59.1026 911.782 L59.1026 905.766 L64.0042 905.766 L64.0042 911.782 Q64.0042 918.562 61.4897 921.14 Q58.9434 923.718 52.2594 923.718 L32.9077 923.718 L32.9077 928.015 L28.3562 928.015 L28.3562 923.718 L18.2347 923.718 L18.2347 917.829 Z" fill="#000000" fill-rule="nonzero" fill-opacity="1" /><path clip-path="url(#clip480)" d="M28.3562 898.064 L28.3562 892.208 L64.0042 892.208 L64.0042 898.064 L28.3562 898.064 M14.479 898.064 L14.479 892.208 L21.895 892.208 L21.895 898.064 L14.479 898.064 Z" fill="#000000" fill-rule="nonzero" fill-opacity="1" /><path clip-path="url(#clip480)" d="M32.4621 866.14 Q32.4621 870.851 36.1542 873.588 Q39.8145 876.325 46.212 876.325 Q52.6095 876.325 56.3017 873.62 Q59.9619 870.882 59.9619 866.14 Q59.9619 861.461 56.2698 858.724 Q52.5777 855.987 46.212 855.987 Q39.8781 855.987 36.186 858.724 Q32.4621 861.461 32.4621 866.14 M27.4968 866.14 Q27.4968 858.501 32.4621 854.141 Q37.4273 849.78 46.212 849.78 Q54.9649 849.78 59.9619 854.141 Q64.9272 858.501 64.9272 866.14 Q64.9272 873.811 59.9619 878.171 Q54.9649 882.5 46.212 882.5 Q37.4273 882.5 32.4621 878.171 Q27.4968 873.811 27.4968 866.14 Z" fill="#000000" fill-rule="nonzero" fill-opacity="1" /><path clip-path="url(#clip480)" d="M42.4881 810.44 L64.0042 810.44 L64.0042 816.296 L42.679 816.296 Q37.6183 816.296 35.1038 818.27 Q32.5894 820.243 32.5894 824.19 Q32.5894 828.932 35.6131 831.67 Q38.6368 834.407 43.8567 834.407 L64.0042 834.407 L64.0042 840.295 L28.3562 840.295 L28.3562 834.407 L33.8944 834.407 Q30.6797 832.306 29.0883 829.473 Q27.4968 826.609 27.4968 822.885 Q27.4968 816.742 31.3163 813.591 Q35.1038 810.44 42.4881 810.44 Z" fill="#000000" fill-rule="nonzero" fill-opacity="1" /><path clip-path="url(#clip480)" d="M33.8307 757.382 Q33.2578 758.369 33.0032 759.546 Q32.7167 760.692 32.7167 762.092 Q32.7167 767.058 35.9632 769.731 Q39.1779 772.373 45.2253 772.373 L64.0042 772.373 L64.0042 778.261 L28.3562 778.261 L28.3562 772.373 L33.8944 772.373 Q30.6479 770.527 29.0883 767.567 Q27.4968 764.607 27.4968 760.374 Q27.4968 759.769 27.5923 759.037 Q27.656 758.305 27.8151 757.414 L33.8307 757.382 Z" fill="#000000" fill-rule="nonzero" fill-opacity="1" /><path clip-path="url(#clip480)" d="M46.0847 735.038 Q46.0847 742.136 47.7079 744.873 Q49.3312 747.61 53.2461 747.61 Q56.3653 747.61 58.2114 745.573 Q60.0256 743.505 60.0256 739.972 Q60.0256 735.102 56.5881 732.174 Q53.1188 729.214 47.3897 729.214 L46.0847 729.214 L46.0847 735.038 M43.6657 723.357 L64.0042 723.357 L64.0042 729.214 L58.5933 729.214 Q61.8398 731.219 63.3994 734.211 Q64.9272 737.203 64.9272 741.531 Q64.9272 747.006 61.8716 750.252 Q58.7843 753.467 53.6281 753.467 Q47.6125 753.467 44.5569 749.457 Q41.5014 745.414 41.5014 737.425 L41.5014 729.214 L40.9285 729.214 Q36.8862 729.214 34.6901 731.887 Q32.4621 734.529 32.4621 739.335 Q32.4621 742.391 33.1941 745.287 Q33.9262 748.183 35.3903 750.857 L29.9795 750.857 Q28.7381 747.642 28.1334 744.619 Q27.4968 741.595 27.4968 738.73 Q27.4968 730.996 31.5072 727.177 Q35.5176 723.357 43.6657 723.357 Z" fill="#000000" fill-rule="nonzero" fill-opacity="1" /><path clip-path="url(#clip480)" d="M18.2347 705.501 L28.3562 705.501 L28.3562 693.438 L32.9077 693.438 L32.9077 705.501 L52.2594 705.501 Q56.6199 705.501 57.8613 704.324 Q59.1026 703.114 59.1026 699.454 L59.1026 693.438 L64.0042 693.438 L64.0042 699.454 Q64.0042 706.233 61.4897 708.812 Q58.9434 711.39 52.2594 711.39 L32.9077 711.39 L32.9077 715.686 L28.3562 715.686 L28.3562 711.39 L18.2347 711.39 L18.2347 705.501 Z" fill="#000000" fill-rule="nonzero" fill-opacity="1" /><path clip-path="url(#clip480)" d="M44.7161 655.244 L47.5806 655.244 L47.5806 682.171 Q53.6281 681.789 56.8109 678.543 Q59.9619 675.264 59.9619 669.44 Q59.9619 666.066 59.1344 662.915 Q58.3069 659.732 56.6518 656.613 L62.1899 656.613 Q63.5267 659.764 64.227 663.074 Q64.9272 666.384 64.9272 669.79 Q64.9272 678.32 59.9619 683.317 Q54.9967 688.282 46.5303 688.282 Q37.7774 688.282 32.6531 683.571 Q27.4968 678.829 27.4968 670.808 Q27.4968 663.615 32.1438 659.445 Q36.7589 655.244 44.7161 655.244 M42.9973 661.101 Q38.1912 661.164 35.3266 663.806 Q32.4621 666.416 32.4621 670.745 Q32.4621 675.646 35.2312 678.606 Q38.0002 681.534 43.0292 681.98 L42.9973 661.101 Z" fill="#000000" fill-rule="nonzero" fill-opacity="1" /><path clip-path="url(#clip480)" d="M14.5426 610.843 Q21.8632 615.108 29.0246 617.177 Q36.186 619.246 43.5384 619.246 Q50.8908 619.246 58.1159 617.177 Q65.3091 615.076 72.5979 610.843 L72.5979 615.936 Q65.1182 620.71 57.8931 623.097 Q50.668 625.453 43.5384 625.453 Q36.4406 625.453 29.2474 623.097 Q22.0542 620.742 14.5426 615.936 L14.5426 610.843 Z" fill="#000000" fill-rule="nonzero" fill-opacity="1" /><path clip-path="url(#clip480)" d="M29.7248 573.827 L35.1993 573.827 Q33.8307 576.309 33.1623 578.824 Q32.4621 581.306 32.4621 583.853 Q32.4621 589.55 36.0905 592.701 Q39.6872 595.852 46.212 595.852 Q52.7369 595.852 56.3653 592.701 Q59.9619 589.55 59.9619 583.853 Q59.9619 581.306 59.2935 578.824 Q58.5933 576.309 57.2247 573.827 L62.6355 573.827 Q63.7814 576.277 64.3543 578.919 Q64.9272 581.529 64.9272 584.489 Q64.9272 592.542 59.8664 597.284 Q54.8057 602.027 46.212 602.027 Q37.491 602.027 32.4939 597.252 Q27.4968 592.446 27.4968 584.107 Q27.4968 581.402 28.0697 578.824 Q28.6108 576.246 29.7248 573.827 Z" fill="#000000" fill-rule="nonzero" fill-opacity="1" /><path clip-path="url(#clip480)" d="M35.1993 535.887 Q31.2526 533.691 29.3747 530.635 Q27.4968 527.58 27.4968 523.442 Q27.4968 517.872 31.4117 514.848 Q35.2948 511.825 42.4881 511.825 L64.0042 511.825 L64.0042 517.713 L42.679 517.713 Q37.5546 517.713 35.072 519.527 Q32.5894 521.341 32.5894 525.065 Q32.5894 529.617 35.6131 532.259 Q38.6368 534.9 43.8567 534.9 L64.0042 534.9 L64.0042 540.789 L42.679 540.789 Q37.5228 540.789 35.072 542.603 Q32.5894 544.417 32.5894 548.205 Q32.5894 552.693 35.6449 555.334 Q38.6686 557.976 43.8567 557.976 L64.0042 557.976 L64.0042 563.864 L28.3562 563.864 L28.3562 557.976 L33.8944 557.976 Q30.616 555.971 29.0564 553.17 Q27.4968 550.369 27.4968 546.518 Q27.4968 542.635 29.4702 539.929 Q31.4436 537.192 35.1993 535.887 Z" fill="#000000" fill-rule="nonzero" fill-opacity="1" /><path clip-path="url(#clip480)" d="M29.7885 501.926 L29.7885 476.24 L32.8122 476.24 L32.8122 501.926 L29.7885 501.926 Z" fill="#000000" fill-rule="nonzero" fill-opacity="1" /><path clip-path="url(#clip480)" d="M28.3562 455.202 Q28.9291 452.274 30.6797 450.682 Q32.3984 449.059 35.0084 449.059 Q38.9551 449.059 41.0876 452.083 Q43.2201 455.106 43.2201 460.74 Q43.2201 462.554 42.9018 464.559 Q42.5517 466.533 41.9152 468.761 L38.0639 468.761 Q38.9233 467.106 39.337 465.228 Q39.7508 463.318 39.7508 461.186 Q39.7508 457.716 38.5095 455.806 Q37.2364 453.897 35.0084 453.897 Q32.6531 453.897 31.4436 455.679 Q30.2341 457.43 30.2341 460.867 L30.2341 463.604 L26.7966 463.604 L26.7966 460.613 Q26.7966 457.621 25.8099 456.093 Q24.7914 454.533 22.8817 454.533 Q21.0356 454.533 20.0808 456.125 Q19.0941 457.716 19.0941 460.74 Q19.0941 462.013 19.3806 463.636 Q19.667 465.26 20.3991 467.838 L16.7388 467.838 Q16.1977 465.514 15.9112 463.477 Q15.6248 461.44 15.6248 459.69 Q15.6248 455.106 17.5027 452.433 Q19.3806 449.727 22.5316 449.727 Q24.7277 449.727 26.2555 451.16 Q27.7833 452.592 28.3562 455.202 Z" fill="#000000" fill-rule="nonzero" fill-opacity="1" /><path clip-path="url(#clip480)" d="M29.4065 396.16 L34.9447 396.16 Q33.6716 398.642 33.035 401.316 Q32.3984 403.99 32.3984 406.854 Q32.3984 411.215 33.7352 413.411 Q35.072 415.575 37.7456 415.575 Q39.7826 415.575 40.9603 414.016 Q42.1061 412.456 43.1565 407.745 L43.6021 405.74 Q44.9389 399.502 47.3897 396.892 Q49.8086 394.25 54.1691 394.25 Q59.1344 394.25 62.0308 398.197 Q64.9272 402.112 64.9272 408.987 Q64.9272 411.851 64.3543 414.97 Q63.8132 418.058 62.6992 421.495 L56.6518 421.495 Q58.3387 418.249 59.198 415.098 Q60.0256 411.947 60.0256 408.859 Q60.0256 404.722 58.6251 402.494 Q57.1929 400.266 54.6147 400.266 Q52.2276 400.266 50.9545 401.889 Q49.6813 403.48 48.5037 408.923 L48.0262 410.96 Q46.8804 416.403 44.5251 418.822 Q42.138 421.241 38.0002 421.241 Q32.9713 421.241 30.2341 417.676 Q27.4968 414.111 27.4968 407.554 Q27.4968 404.308 27.9743 401.443 Q28.4517 398.579 29.4065 396.16 Z" fill="#000000" fill-rule="nonzero" fill-opacity="1" /><path clip-path="url(#clip480)" d="M29.7885 386.707 L29.7885 361.021 L32.8122 361.021 L32.8122 386.707 L29.7885 386.707 Z" fill="#000000" fill-rule="nonzero" fill-opacity="1" /><path clip-path="url(#clip480)" d="M39.2416 351.695 L39.2416 345.202 L19.7943 345.202 L21.0993 352.3 L17.4072 352.3 L16.1659 344.98 L16.1659 340.619 L39.2416 340.619 L39.2416 334.094 L42.7427 334.094 L42.7427 351.695 L39.2416 351.695 Z" fill="#000000" fill-rule="nonzero" fill-opacity="1" /><path clip-path="url(#clip480)" d="M14.5426 325.31 L14.5426 320.217 Q22.0542 315.443 29.2474 313.087 Q36.4406 310.7 43.5384 310.7 Q50.668 310.7 57.8931 313.087 Q65.1182 315.443 72.5979 320.217 L72.5979 325.31 Q65.3091 321.076 58.1159 319.007 Q50.8908 316.907 43.5384 316.907 Q36.186 316.907 29.0246 319.007 Q21.8632 321.076 14.5426 325.31 Z" fill="#000000" fill-rule="nonzero" fill-opacity="1" /><polyline clip-path="url(#clip482)" style="stroke:#009af9; stroke-linecap:round; stroke-linejoin:round; stroke-width:12; stroke-opacity:1; fill:none" points="312.198,1626.96 406.537,1457.16 500.876,1327.09 595.215,1224.66 689.555,1141.39 783.894,1071.27 878.233,1010.12 972.573,955.032 1066.91,903.975 1161.25,855.566 1255.59,808.859 1349.93,763.215 1444.27,718.209 1538.61,673.562 1632.95,629.094 1727.29,584.692 1821.63,540.291 1915.97,495.852 2010.3,451.356 2104.64,406.795 2198.98,362.171 2293.32,317.488 "/>
<circle clip-path="url(#clip482)" cx="583.601" cy="1239.22" r="14.4" fill="#e26f46" fill-rule="evenodd" fill-opacity="1" stroke="#000000" stroke-opacity="1" stroke-width="3.2"/>
<circle clip-path="url(#clip482)" cx="835.303" cy="1072.53" r="14.4" fill="#e26f46" fill-rule="evenodd" fill-opacity="1" stroke="#000000" stroke-opacity="1" stroke-width="3.2"/>
<circle clip-path="url(#clip482)" cx="973.422" cy="1000.34" r="14.4" fill="#e26f46" fill-rule="evenodd" fill-opacity="1" stroke="#000000" stroke-opacity="1" stroke-width="3.2"/>
<circle clip-path="url(#clip482)" cx="1095.14" cy="903.356" r="14.4" fill="#e26f46" fill-rule="evenodd" fill-opacity="1" stroke="#000000" stroke-opacity="1" stroke-width="3.2"/>
<circle clip-path="url(#clip482)" cx="1100.56" cy="900.866" r="14.4" fill="#e26f46" fill-rule="evenodd" fill-opacity="1" stroke="#000000" stroke-opacity="1" stroke-width="3.2"/>
<circle clip-path="url(#clip482)" cx="1119.51" cy="889.667" r="14.4" fill="#e26f46" fill-rule="evenodd" fill-opacity="1" stroke="#000000" stroke-opacity="1" stroke-width="3.2"/>
<circle clip-path="url(#clip482)" cx="1254.8" cy="792.662" r="14.4" fill="#e26f46" fill-rule="evenodd" fill-opacity="1" stroke="#000000" stroke-opacity="1" stroke-width="3.2"/>
<circle clip-path="url(#clip482)" cx="1303.6" cy="780.173" r="14.4" fill="#e26f46" fill-rule="evenodd" fill-opacity="1" stroke="#000000" stroke-opacity="1" stroke-width="3.2"/>
<circle clip-path="url(#clip482)" cx="1311.81" cy="792.568" r="14.4" fill="#e26f46" fill-rule="evenodd" fill-opacity="1" stroke="#000000" stroke-opacity="1" stroke-width="3.2"/>
<circle clip-path="url(#clip482)" cx="1498.59" cy="676.865" r="14.4" fill="#e26f46" fill-rule="evenodd" fill-opacity="1" stroke="#000000" stroke-opacity="1" stroke-width="3.2"/>
<circle clip-path="url(#clip482)" cx="1571.62" cy="619.668" r="14.4" fill="#e26f46" fill-rule="evenodd" fill-opacity="1" stroke="#000000" stroke-opacity="1" stroke-width="3.2"/>
<circle clip-path="url(#clip482)" cx="1848.43" cy="598.119" r="14.4" fill="#e26f46" fill-rule="evenodd" fill-opacity="1" stroke="#000000" stroke-opacity="1" stroke-width="3.2"/>
<circle clip-path="url(#clip482)" cx="2108.24" cy="422.737" r="14.4" fill="#e26f46" fill-rule="evenodd" fill-opacity="1" stroke="#000000" stroke-opacity="1" stroke-width="3.2"/>
<circle clip-path="url(#clip482)" cx="2094.46" cy="378.091" r="14.4" fill="#e26f46" fill-rule="evenodd" fill-opacity="1" stroke="#000000" stroke-opacity="1" stroke-width="3.2"/>
<circle clip-path="url(#clip482)" cx="2186.89" cy="405.236" r="14.4" fill="#e26f46" fill-rule="evenodd" fill-opacity="1" stroke="#000000" stroke-opacity="1" stroke-width="3.2"/>
<path clip-path="url(#clip480)" d="M1508.82 248.219 L2282.76 248.219 L2282.76 92.6992 L1508.82 92.6992  Z" fill="#ffffff" fill-rule="evenodd" fill-opacity="1"/>
<polyline clip-path="url(#clip480)" style="stroke:#000000; stroke-linecap:round; stroke-linejoin:round; stroke-width:4; stroke-opacity:1; fill:none" points="1508.82,248.219 2282.76,248.219 2282.76,92.6992 1508.82,92.6992 1508.82,248.219 "/>
<polyline clip-path="url(#clip480)" style="stroke:#009af9; stroke-linecap:round; stroke-linejoin:round; stroke-width:12; stroke-opacity:1; fill:none" points="1532.16,144.539 1672.16,144.539 "/>
<path clip-path="url(#clip480)" d="M1695.49 127.259 L1700.17 127.259 L1700.17 141.866 L1715.68 127.259 L1721.69 127.259 L1704.54 143.37 L1722.92 161.819 L1716.76 161.819 L1700.17 145.176 L1700.17 161.819 L1695.49 161.819 L1695.49 127.259 Z" fill="#000000" fill-rule="nonzero" fill-opacity="1" /><path clip-path="url(#clip480)" d="M1726.39 135.893 L1730.65 135.893 L1730.65 161.819 L1726.39 161.819 L1726.39 135.893 M1726.39 125.801 L1730.65 125.801 L1730.65 131.194 L1726.39 131.194 L1726.39 125.801 Z" fill="#000000" fill-rule="nonzero" fill-opacity="1" /><path clip-path="url(#clip480)" d="M1754.59 139.875 Q1753.87 139.458 1753.01 139.273 Q1752.18 139.065 1751.16 139.065 Q1747.55 139.065 1745.61 141.426 Q1743.68 143.764 1743.68 148.162 L1743.68 161.819 L1739.4 161.819 L1739.4 135.893 L1743.68 135.893 L1743.68 139.921 Q1745.03 137.56 1747.18 136.426 Q1749.33 135.268 1752.41 135.268 Q1752.85 135.268 1753.38 135.338 Q1753.92 135.384 1754.56 135.5 L1754.59 139.875 Z" fill="#000000" fill-rule="nonzero" fill-opacity="1" /><path clip-path="url(#clip480)" d="M1758.89 125.801 L1763.18 125.801 L1763.18 147.074 L1775.88 135.893 L1781.32 135.893 L1767.57 148.023 L1781.9 161.819 L1776.35 161.819 L1763.18 149.157 L1763.18 161.819 L1758.89 161.819 L1758.89 125.801 Z" fill="#000000" fill-rule="nonzero" fill-opacity="1" /><path clip-path="url(#clip480)" d="M1805.12 148.879 Q1805.12 144.18 1803.18 141.518 Q1801.25 138.833 1797.87 138.833 Q1794.49 138.833 1792.55 141.518 Q1790.63 144.18 1790.63 148.879 Q1790.63 153.578 1792.55 156.264 Q1794.49 158.926 1797.87 158.926 Q1801.25 158.926 1803.18 156.264 Q1805.12 153.578 1805.12 148.879 M1790.63 139.829 Q1791.97 137.514 1794.01 136.403 Q1796.07 135.268 1798.92 135.268 Q1803.64 135.268 1806.58 139.018 Q1809.54 142.768 1809.54 148.879 Q1809.54 154.991 1806.58 158.74 Q1803.64 162.49 1798.92 162.49 Q1796.07 162.49 1794.01 161.379 Q1791.97 160.245 1790.63 157.93 L1790.63 161.819 L1786.35 161.819 L1786.35 125.801 L1790.63 125.801 L1790.63 139.829 Z" fill="#000000" fill-rule="nonzero" fill-opacity="1" /><path clip-path="url(#clip480)" d="M1827.39 164.227 Q1825.58 168.856 1823.87 170.268 Q1822.16 171.68 1819.29 171.68 L1815.88 171.68 L1815.88 168.115 L1818.38 168.115 Q1820.14 168.115 1821.12 167.282 Q1822.09 166.449 1823.27 163.347 L1824.03 161.403 L1813.55 135.893 L1818.06 135.893 L1826.16 156.171 L1834.26 135.893 L1838.78 135.893 L1827.39 164.227 Z" fill="#000000" fill-rule="nonzero" fill-opacity="1" /><path clip-path="url(#clip480)" d="M1863.85 157.93 L1863.85 171.68 L1859.56 171.68 L1859.56 135.893 L1863.85 135.893 L1863.85 139.829 Q1865.19 137.514 1867.23 136.403 Q1869.29 135.268 1872.13 135.268 Q1876.86 135.268 1879.8 139.018 Q1882.76 142.768 1882.76 148.879 Q1882.76 154.991 1879.8 158.74 Q1876.86 162.49 1872.13 162.49 Q1869.29 162.49 1867.23 161.379 Q1865.19 160.245 1863.85 157.93 M1878.34 148.879 Q1878.34 144.18 1876.39 141.518 Q1874.47 138.833 1871.09 138.833 Q1867.71 138.833 1865.77 141.518 Q1863.85 144.18 1863.85 148.879 Q1863.85 153.578 1865.77 156.264 Q1867.71 158.926 1871.09 158.926 Q1874.47 158.926 1876.39 156.264 Q1878.34 153.578 1878.34 148.879 Z" fill="#000000" fill-rule="nonzero" fill-opacity="1" /><path clip-path="url(#clip480)" d="M1901.6 148.787 Q1896.44 148.787 1894.45 149.967 Q1892.46 151.148 1892.46 153.995 Q1892.46 156.264 1893.94 157.606 Q1895.44 158.926 1898.01 158.926 Q1901.55 158.926 1903.68 156.426 Q1905.84 153.903 1905.84 149.736 L1905.84 148.787 L1901.6 148.787 M1910.1 147.028 L1910.1 161.819 L1905.84 161.819 L1905.84 157.884 Q1904.38 160.245 1902.2 161.379 Q1900.03 162.49 1896.88 162.49 Q1892.9 162.49 1890.54 160.268 Q1888.2 158.023 1888.2 154.273 Q1888.2 149.898 1891.11 147.676 Q1894.05 145.454 1899.86 145.454 L1905.84 145.454 L1905.84 145.037 Q1905.84 142.097 1903.89 140.5 Q1901.97 138.879 1898.48 138.879 Q1896.25 138.879 1894.15 139.412 Q1892.04 139.944 1890.1 141.009 L1890.1 137.074 Q1892.43 136.171 1894.63 135.731 Q1896.83 135.268 1898.92 135.268 Q1904.54 135.268 1907.32 138.185 Q1910.1 141.102 1910.1 147.028 Z" fill="#000000" fill-rule="nonzero" fill-opacity="1" /><path clip-path="url(#clip480)" d="M1933.89 139.875 Q1933.17 139.458 1932.32 139.273 Q1931.48 139.065 1930.47 139.065 Q1926.86 139.065 1924.91 141.426 Q1922.99 143.764 1922.99 148.162 L1922.99 161.819 L1918.71 161.819 L1918.71 135.893 L1922.99 135.893 L1922.99 139.921 Q1924.33 137.56 1926.48 136.426 Q1928.64 135.268 1931.72 135.268 Q1932.16 135.268 1932.69 135.338 Q1933.22 135.384 1933.87 135.5 L1933.89 139.875 Z" fill="#000000" fill-rule="nonzero" fill-opacity="1" /><path clip-path="url(#clip480)" d="M1950.14 148.787 Q1944.98 148.787 1942.99 149.967 Q1941 151.148 1941 153.995 Q1941 156.264 1942.48 157.606 Q1943.98 158.926 1946.55 158.926 Q1950.1 158.926 1952.23 156.426 Q1954.38 153.903 1954.38 149.736 L1954.38 148.787 L1950.14 148.787 M1958.64 147.028 L1958.64 161.819 L1954.38 161.819 L1954.38 157.884 Q1952.92 160.245 1950.74 161.379 Q1948.57 162.49 1945.42 162.49 Q1941.44 162.49 1939.08 160.268 Q1936.74 158.023 1936.74 154.273 Q1936.74 149.898 1939.66 147.676 Q1942.6 145.454 1948.41 145.454 L1954.38 145.454 L1954.38 145.037 Q1954.38 142.097 1952.43 140.5 Q1950.51 138.879 1947.02 138.879 Q1944.79 138.879 1942.69 139.412 Q1940.58 139.944 1938.64 141.009 L1938.64 137.074 Q1940.98 136.171 1943.17 135.731 Q1945.37 135.268 1947.46 135.268 Q1953.08 135.268 1955.86 138.185 Q1958.64 141.102 1958.64 147.028 Z" fill="#000000" fill-rule="nonzero" fill-opacity="1" /><path clip-path="url(#clip480)" d="M1987.6 140.87 Q1989.19 138 1991.42 136.634 Q1993.64 135.268 1996.65 135.268 Q2000.7 135.268 2002.9 138.116 Q2005.1 140.94 2005.1 146.171 L2005.1 161.819 L2000.81 161.819 L2000.81 146.31 Q2000.81 142.583 1999.49 140.778 Q1998.17 138.972 1995.47 138.972 Q1992.16 138.972 1990.23 141.171 Q1988.31 143.37 1988.31 147.166 L1988.31 161.819 L1984.03 161.819 L1984.03 146.31 Q1984.03 142.56 1982.71 140.778 Q1981.39 138.972 1978.64 138.972 Q1975.37 138.972 1973.45 141.194 Q1971.53 143.393 1971.53 147.166 L1971.53 161.819 L1967.25 161.819 L1967.25 135.893 L1971.53 135.893 L1971.53 139.921 Q1972.99 137.537 1975.03 136.403 Q1977.06 135.268 1979.86 135.268 Q1982.69 135.268 1984.66 136.704 Q1986.65 138.139 1987.6 140.87 Z" fill="#000000" fill-rule="nonzero" fill-opacity="1" /><path clip-path="url(#clip480)" d="M2035.77 147.791 L2035.77 149.875 L2016.18 149.875 Q2016.46 154.273 2018.82 156.588 Q2021.21 158.879 2025.44 158.879 Q2027.9 158.879 2030.19 158.278 Q2032.5 157.676 2034.77 156.472 L2034.77 160.5 Q2032.48 161.472 2030.07 161.981 Q2027.66 162.49 2025.19 162.49 Q2018.98 162.49 2015.35 158.879 Q2011.74 155.268 2011.74 149.111 Q2011.74 142.745 2015.16 139.018 Q2018.61 135.268 2024.45 135.268 Q2029.68 135.268 2032.71 138.648 Q2035.77 142.004 2035.77 147.791 M2031.51 146.541 Q2031.46 143.046 2029.54 140.963 Q2027.64 138.879 2024.49 138.879 Q2020.93 138.879 2018.78 140.893 Q2016.65 142.907 2016.32 146.565 L2031.51 146.541 Z" fill="#000000" fill-rule="nonzero" fill-opacity="1" /><path clip-path="url(#clip480)" d="M2046.97 128.532 L2046.97 135.893 L2055.74 135.893 L2055.74 139.204 L2046.97 139.204 L2046.97 153.278 Q2046.97 156.449 2047.83 157.352 Q2048.71 158.254 2051.37 158.254 L2055.74 158.254 L2055.74 161.819 L2051.37 161.819 Q2046.44 161.819 2044.56 159.99 Q2042.69 158.139 2042.69 153.278 L2042.69 139.204 L2039.56 139.204 L2039.56 135.893 L2042.69 135.893 L2042.69 128.532 L2046.97 128.532 Z" fill="#000000" fill-rule="nonzero" fill-opacity="1" /><path clip-path="url(#clip480)" d="M2083.52 147.791 L2083.52 149.875 L2063.94 149.875 Q2064.22 154.273 2066.58 156.588 Q2068.96 158.879 2073.2 158.879 Q2075.65 158.879 2077.94 158.278 Q2080.26 157.676 2082.53 156.472 L2082.53 160.5 Q2080.23 161.472 2077.83 161.981 Q2075.42 162.49 2072.94 162.49 Q2066.74 162.49 2063.1 158.879 Q2059.49 155.268 2059.49 149.111 Q2059.49 142.745 2062.92 139.018 Q2066.37 135.268 2072.2 135.268 Q2077.43 135.268 2080.47 138.648 Q2083.52 142.004 2083.52 147.791 M2079.26 146.541 Q2079.22 143.046 2077.29 140.963 Q2075.4 138.879 2072.25 138.879 Q2068.68 138.879 2066.53 140.893 Q2064.4 142.907 2064.08 146.565 L2079.26 146.541 Z" fill="#000000" fill-rule="nonzero" fill-opacity="1" /><path clip-path="url(#clip480)" d="M2105.53 139.875 Q2104.82 139.458 2103.96 139.273 Q2103.13 139.065 2102.11 139.065 Q2098.5 139.065 2096.55 141.426 Q2094.63 143.764 2094.63 148.162 L2094.63 161.819 L2090.35 161.819 L2090.35 135.893 L2094.63 135.893 L2094.63 139.921 Q2095.97 137.56 2098.13 136.426 Q2100.28 135.268 2103.36 135.268 Q2103.8 135.268 2104.33 135.338 Q2104.86 135.384 2105.51 135.5 L2105.53 139.875 Z" fill="#000000" fill-rule="nonzero" fill-opacity="1" /><path clip-path="url(#clip480)" d="M2110 135.893 L2114.26 135.893 L2114.26 161.819 L2110 161.819 L2110 135.893 M2110 125.801 L2114.26 125.801 L2114.26 131.194 L2110 131.194 L2110 125.801 Z" fill="#000000" fill-rule="nonzero" fill-opacity="1" /><path clip-path="url(#clip480)" d="M2121.32 135.893 L2141.55 135.893 L2141.55 139.782 L2125.53 158.416 L2141.55 158.416 L2141.55 161.819 L2120.74 161.819 L2120.74 157.93 L2136.76 139.296 L2121.32 139.296 L2121.32 135.893 Z" fill="#000000" fill-rule="nonzero" fill-opacity="1" /><path clip-path="url(#clip480)" d="M2159.84 148.787 Q2154.68 148.787 2152.69 149.967 Q2150.7 151.148 2150.7 153.995 Q2150.7 156.264 2152.18 157.606 Q2153.68 158.926 2156.25 158.926 Q2159.79 158.926 2161.92 156.426 Q2164.08 153.903 2164.08 149.736 L2164.08 148.787 L2159.84 148.787 M2168.34 147.028 L2168.34 161.819 L2164.08 161.819 L2164.08 157.884 Q2162.62 160.245 2160.44 161.379 Q2158.27 162.49 2155.12 162.49 Q2151.14 162.49 2148.78 160.268 Q2146.44 158.023 2146.44 154.273 Q2146.44 149.898 2149.35 147.676 Q2152.29 145.454 2158.1 145.454 L2164.08 145.454 L2164.08 145.037 Q2164.08 142.097 2162.13 140.5 Q2160.21 138.879 2156.72 138.879 Q2154.49 138.879 2152.39 139.412 Q2150.28 139.944 2148.34 141.009 L2148.34 137.074 Q2150.67 136.171 2152.87 135.731 Q2155.07 135.268 2157.15 135.268 Q2162.78 135.268 2165.56 138.185 Q2168.34 141.102 2168.34 147.028 Z" fill="#000000" fill-rule="nonzero" fill-opacity="1" /><path clip-path="url(#clip480)" d="M2181.32 128.532 L2181.32 135.893 L2190.09 135.893 L2190.09 139.204 L2181.32 139.204 L2181.32 153.278 Q2181.32 156.449 2182.18 157.352 Q2183.06 158.254 2185.72 158.254 L2190.09 158.254 L2190.09 161.819 L2185.72 161.819 Q2180.79 161.819 2178.91 159.99 Q2177.04 158.139 2177.04 153.278 L2177.04 139.204 L2173.91 139.204 L2173.91 135.893 L2177.04 135.893 L2177.04 128.532 L2181.32 128.532 Z" fill="#000000" fill-rule="nonzero" fill-opacity="1" /><path clip-path="url(#clip480)" d="M2195.7 135.893 L2199.96 135.893 L2199.96 161.819 L2195.7 161.819 L2195.7 135.893 M2195.7 125.801 L2199.96 125.801 L2199.96 131.194 L2195.7 131.194 L2195.7 125.801 Z" fill="#000000" fill-rule="nonzero" fill-opacity="1" /><path clip-path="url(#clip480)" d="M2218.91 138.879 Q2215.49 138.879 2213.5 141.565 Q2211.51 144.227 2211.51 148.879 Q2211.51 153.532 2213.47 156.217 Q2215.46 158.879 2218.91 158.879 Q2222.32 158.879 2224.31 156.194 Q2226.3 153.509 2226.3 148.879 Q2226.3 144.273 2224.31 141.588 Q2222.32 138.879 2218.91 138.879 M2218.91 135.268 Q2224.47 135.268 2227.64 138.879 Q2230.81 142.491 2230.81 148.879 Q2230.81 155.245 2227.64 158.879 Q2224.47 162.49 2218.91 162.49 Q2213.34 162.49 2210.16 158.879 Q2207.02 155.245 2207.02 148.879 Q2207.02 142.491 2210.16 138.879 Q2213.34 135.268 2218.91 135.268 Z" fill="#000000" fill-rule="nonzero" fill-opacity="1" /><path clip-path="url(#clip480)" d="M2259.42 146.171 L2259.42 161.819 L2255.16 161.819 L2255.16 146.31 Q2255.16 142.629 2253.73 140.801 Q2252.29 138.972 2249.42 138.972 Q2245.97 138.972 2243.98 141.171 Q2241.99 143.37 2241.99 147.166 L2241.99 161.819 L2237.71 161.819 L2237.71 135.893 L2241.99 135.893 L2241.99 139.921 Q2243.52 137.583 2245.58 136.426 Q2247.66 135.268 2250.37 135.268 Q2254.84 135.268 2257.13 138.046 Q2259.42 140.801 2259.42 146.171 Z" fill="#000000" fill-rule="nonzero" fill-opacity="1" /><circle clip-path="url(#clip480)" cx="1602.16" cy="196.379" r="20.48" fill="#e26f46" fill-rule="evenodd" fill-opacity="1" stroke="#000000" stroke-opacity="1" stroke-width="4.55111"/>
<path clip-path="url(#clip480)" d="M1723.36 181.761 L1723.36 186.692 Q1721 184.493 1718.31 183.405 Q1715.65 182.317 1712.64 182.317 Q1706.72 182.317 1703.57 185.951 Q1700.42 189.562 1700.42 196.414 Q1700.42 203.243 1703.57 206.877 Q1706.72 210.488 1712.64 210.488 Q1715.65 210.488 1718.31 209.4 Q1721 208.312 1723.36 206.113 L1723.36 210.997 Q1720.91 212.664 1718.15 213.497 Q1715.42 214.33 1712.37 214.33 Q1704.52 214.33 1700 209.539 Q1695.49 204.724 1695.49 196.414 Q1695.49 188.081 1700 183.289 Q1704.52 178.474 1712.37 178.474 Q1715.47 178.474 1718.2 179.308 Q1720.95 180.118 1723.36 181.761 Z" fill="#000000" fill-rule="nonzero" fill-opacity="1" /><path clip-path="url(#clip480)" d="M1730.58 179.099 L1735.26 179.099 L1735.26 209.724 L1752.09 209.724 L1752.09 213.659 L1730.58 213.659 L1730.58 179.099 Z" fill="#000000" fill-rule="nonzero" fill-opacity="1" /><path clip-path="url(#clip480)" d="M1769.33 182.27 Q1764.24 182.27 1761.23 186.067 Q1758.25 189.863 1758.25 196.414 Q1758.25 202.942 1761.23 206.738 Q1764.24 210.534 1769.33 210.534 Q1774.43 210.534 1777.39 206.738 Q1780.37 202.942 1780.37 196.414 Q1780.37 189.863 1777.39 186.067 Q1774.43 182.27 1769.33 182.27 M1769.33 178.474 Q1776.6 178.474 1780.95 183.358 Q1785.31 188.22 1785.31 196.414 Q1785.31 204.585 1780.95 209.469 Q1776.6 214.33 1769.33 214.33 Q1762.04 214.33 1757.67 209.469 Q1753.31 204.608 1753.31 196.414 Q1753.31 188.22 1757.67 183.358 Q1762.04 178.474 1769.33 178.474 Z" fill="#000000" fill-rule="nonzero" fill-opacity="1" /><path clip-path="url(#clip480)" d="M1792.09 179.099 L1796.79 179.099 L1796.79 200.094 Q1796.79 205.65 1798.8 208.104 Q1800.81 210.534 1805.33 210.534 Q1809.82 210.534 1811.83 208.104 Q1813.85 205.65 1813.85 200.094 L1813.85 179.099 L1818.55 179.099 L1818.55 200.673 Q1818.55 207.432 1815.19 210.881 Q1811.86 214.33 1805.33 214.33 Q1798.78 214.33 1795.42 210.881 Q1792.09 207.432 1792.09 200.673 L1792.09 179.099 Z" fill="#000000" fill-rule="nonzero" fill-opacity="1" /><path clip-path="url(#clip480)" d="M1831.99 182.942 L1831.99 209.817 L1837.64 209.817 Q1844.8 209.817 1848.11 206.576 Q1851.44 203.335 1851.44 196.344 Q1851.44 189.4 1848.11 186.182 Q1844.8 182.942 1837.64 182.942 L1831.99 182.942 M1827.32 179.099 L1836.93 179.099 Q1846.97 179.099 1851.67 183.289 Q1856.37 187.456 1856.37 196.344 Q1856.37 205.28 1851.65 209.469 Q1846.93 213.659 1836.93 213.659 L1827.32 213.659 L1827.32 179.099 Z" fill="#000000" fill-rule="nonzero" fill-opacity="1" /><path clip-path="url(#clip480)" d="M1883.57 182.942 L1883.57 209.817 L1889.22 209.817 Q1896.37 209.817 1899.68 206.576 Q1903.01 203.335 1903.01 196.344 Q1903.01 189.4 1899.68 186.182 Q1896.37 182.942 1889.22 182.942 L1883.57 182.942 M1878.89 179.099 L1888.5 179.099 Q1898.55 179.099 1903.24 183.289 Q1907.94 187.456 1907.94 196.344 Q1907.94 205.28 1903.22 209.469 Q1898.5 213.659 1888.5 213.659 L1878.89 213.659 L1878.89 179.099 Z" fill="#000000" fill-rule="nonzero" fill-opacity="1" /><path clip-path="url(#clip480)" d="M1926.99 200.627 Q1921.83 200.627 1919.84 201.807 Q1917.85 202.988 1917.85 205.835 Q1917.85 208.104 1919.33 209.446 Q1920.84 210.766 1923.41 210.766 Q1926.95 210.766 1929.08 208.266 Q1931.23 205.743 1931.23 201.576 L1931.23 200.627 L1926.99 200.627 M1935.49 198.868 L1935.49 213.659 L1931.23 213.659 L1931.23 209.724 Q1929.77 212.085 1927.6 213.219 Q1925.42 214.33 1922.27 214.33 Q1918.29 214.33 1915.93 212.108 Q1913.59 209.863 1913.59 206.113 Q1913.59 201.738 1916.51 199.516 Q1919.45 197.294 1925.26 197.294 L1931.23 197.294 L1931.23 196.877 Q1931.23 193.937 1929.29 192.34 Q1927.36 190.719 1923.87 190.719 Q1921.65 190.719 1919.54 191.252 Q1917.43 191.784 1915.49 192.849 L1915.49 188.914 Q1917.83 188.011 1920.03 187.571 Q1922.23 187.108 1924.31 187.108 Q1929.93 187.108 1932.71 190.025 Q1935.49 192.942 1935.49 198.868 Z" fill="#000000" fill-rule="nonzero" fill-opacity="1" /><path clip-path="url(#clip480)" d="M1948.48 180.372 L1948.48 187.733 L1957.25 187.733 L1957.25 191.044 L1948.48 191.044 L1948.48 205.118 Q1948.48 208.289 1949.33 209.192 Q1950.21 210.094 1952.87 210.094 L1957.25 210.094 L1957.25 213.659 L1952.87 213.659 Q1947.94 213.659 1946.07 211.83 Q1944.19 209.979 1944.19 205.118 L1944.19 191.044 L1941.07 191.044 L1941.07 187.733 L1944.19 187.733 L1944.19 180.372 L1948.48 180.372 Z" fill="#000000" fill-rule="nonzero" fill-opacity="1" /><path clip-path="url(#clip480)" d="M1974.63 200.627 Q1969.47 200.627 1967.48 201.807 Q1965.49 202.988 1965.49 205.835 Q1965.49 208.104 1966.97 209.446 Q1968.48 210.766 1971.04 210.766 Q1974.59 210.766 1976.72 208.266 Q1978.87 205.743 1978.87 201.576 L1978.87 200.627 L1974.63 200.627 M1983.13 198.868 L1983.13 213.659 L1978.87 213.659 L1978.87 209.724 Q1977.41 212.085 1975.23 213.219 Q1973.06 214.33 1969.91 214.33 Q1965.93 214.33 1963.57 212.108 Q1961.23 209.863 1961.23 206.113 Q1961.23 201.738 1964.15 199.516 Q1967.09 197.294 1972.9 197.294 L1978.87 197.294 L1978.87 196.877 Q1978.87 193.937 1976.92 192.34 Q1975 190.719 1971.51 190.719 Q1969.29 190.719 1967.18 191.252 Q1965.07 191.784 1963.13 192.849 L1963.13 188.914 Q1965.47 188.011 1967.67 187.571 Q1969.86 187.108 1971.95 187.108 Q1977.57 187.108 1980.35 190.025 Q1983.13 192.942 1983.13 198.868 Z" fill="#000000" fill-rule="nonzero" fill-opacity="1" /></svg>
