<?xml version="1.0" encoding="utf-8"?>
<svg xmlns="http://www.w3.org/2000/svg" xmlns:xlink="http://www.w3.org/1999/xlink" width="600" height="400" viewBox="0 0 2400 1600">
<defs>
  <clipPath id="clip950">
    <rect x="0" y="0" width="2400" height="1600"/>
  </clipPath>
</defs>
<path clip-path="url(#clip950)" d="M0 1600 L2400 1600 L2400 0 L0 0  Z" fill="#ffffff" fill-rule="evenodd" fill-opacity="1"/>
<defs>
  <clipPath id="clip951">
    <rect x="480" y="0" width="1681" height="1600"/>
  </clipPath>
</defs>
<path clip-path="url(#clip950)" d="M175.445 1423.18 L2352.76 1423.18 L2352.76 47.2441 L175.445 47.2441  Z" fill="#ffffff" fill-rule="evenodd" fill-opacity="1"/>
<defs>
  <clipPath id="clip952">
    <rect x="175" y="47" width="2178" height="1377"/>
  </clipPath>
</defs>
<polyline clip-path="url(#clip952)" style="stroke:#000000; stroke-linecap:round; stroke-linejoin:round; stroke-width:2; stroke-opacity:0.1; fill:none" points="237.063,1423.18 237.063,47.2441 "/>
<polyline clip-path="url(#clip952)" style="stroke:#000000; stroke-linecap:round; stroke-linejoin:round; stroke-width:2; stroke-opacity:0.1; fill:none" points="647.877,1423.18 647.877,47.2441 "/>
<polyline clip-path="url(#clip952)" style="stroke:#000000; stroke-linecap:round; stroke-linejoin:round; stroke-width:2; stroke-opacity:0.1; fill:none" points="1058.69,1423.18 1058.69,47.2441 "/>
<polyline clip-path="url(#clip952)" style="stroke:#000000; stroke-linecap:round; stroke-linejoin:round; stroke-width:2; stroke-opacity:0.1; fill:none" points="1469.51,1423.18 1469.51,47.2441 "/>
<polyline clip-path="url(#clip952)" style="stroke:#000000; stroke-linecap:round; stroke-linejoin:round; stroke-width:2; stroke-opacity:0.1; fill:none" points="1880.32,1423.18 1880.32,47.2441 "/>
<polyline clip-path="url(#clip952)" style="stroke:#000000; stroke-linecap:round; stroke-linejoin:round; stroke-width:2; stroke-opacity:0.1; fill:none" points="2291.13,1423.18 2291.13,47.2441 "/>
<polyline clip-path="url(#clip950)" style="stroke:#000000; stroke-linecap:round; stroke-linejoin:round; stroke-width:4; stroke-opacity:1; fill:none" points="175.445,1423.18 2352.76,1423.18 "/>
<polyline clip-path="url(#clip950)" style="stroke:#000000; stroke-linecap:round; stroke-linejoin:round; stroke-width:4; stroke-opacity:1; fill:none" points="237.063,1423.18 237.063,1404.28 "/>
<polyline clip-path="url(#clip950)" style="stroke:#000000; stroke-linecap:round; stroke-linejoin:round; stroke-width:4; stroke-opacity:1; fill:none" points="647.877,1423.18 647.877,1404.28 "/>
<polyline clip-path="url(#clip950)" style="stroke:#000000; stroke-linecap:round; stroke-linejoin:round; stroke-width:4; stroke-opacity:1; fill:none" points="1058.69,1423.18 1058.69,1404.28 "/>
<polyline clip-path="url(#clip950)" style="stroke:#000000; stroke-linecap:round; stroke-linejoin:round; stroke-width:4; stroke-opacity:1; fill:none" points="1469.51,1423.18 1469.51,1404.28 "/>
<polyline clip-path="url(#clip950)" style="stroke:#000000; stroke-linecap:round; stroke-linejoin:round; stroke-width:4; stroke-opacity:1; fill:none" points="1880.32,1423.18 1880.32,1404.28 "/>
<polyline clip-path="url(#clip950)" style="stroke:#000000; stroke-linecap:round; stroke-linejoin:round; stroke-width:4; stroke-opacity:1; fill:none" points="2291.13,1423.18 2291.13,1404.28 "/>
<path clip-path="url(#clip950)" d="M237.063 1454.1 Q233.452 1454.1 231.623 1457.66 Q229.818 1461.2 229.818 1468.33 Q229.818 1475.44 231.623 1479.01 Q233.452 1482.55 237.063 1482.55 Q240.697 1482.55 242.503 1479.01 Q244.332 1475.44 244.332 1468.33 Q244.332 1461.2 242.503 1457.66 Q240.697 1454.1 237.063 1454.1 M237.063 1450.39 Q242.873 1450.39 245.929 1455 Q249.007 1459.58 249.007 1468.33 Q249.007 1477.06 245.929 1481.67 Q242.873 1486.25 237.063 1486.25 Q231.253 1486.25 228.174 1481.67 Q225.119 1477.06 225.119 1468.33 Q225.119 1459.58 228.174 1455 Q231.253 1450.39 237.063 1450.39 Z" fill="#000000" fill-rule="nonzero" fill-opacity="1" /><path clip-path="url(#clip950)" d="M638.259 1481.64 L645.898 1481.64 L645.898 1455.28 L637.588 1456.95 L637.588 1452.69 L645.852 1451.02 L650.528 1451.02 L650.528 1481.64 L658.167 1481.64 L658.167 1485.58 L638.259 1485.58 L638.259 1481.64 Z" fill="#000000" fill-rule="nonzero" fill-opacity="1" /><path clip-path="url(#clip950)" d="M1053.34 1481.64 L1069.66 1481.64 L1069.66 1485.58 L1047.72 1485.58 L1047.72 1481.64 Q1050.38 1478.89 1054.96 1474.26 Q1059.57 1469.61 1060.75 1468.27 Q1063 1465.74 1063.88 1464.01 Q1064.78 1462.25 1064.78 1460.56 Q1064.78 1457.8 1062.83 1456.07 Q1060.91 1454.33 1057.81 1454.33 Q1055.61 1454.33 1053.16 1455.09 Q1050.73 1455.86 1047.95 1457.41 L1047.95 1452.69 Q1050.77 1451.55 1053.23 1450.97 Q1055.68 1450.39 1057.72 1450.39 Q1063.09 1450.39 1066.28 1453.08 Q1069.48 1455.77 1069.48 1460.26 Q1069.48 1462.39 1068.67 1464.31 Q1067.88 1466.2 1065.77 1468.8 Q1065.2 1469.47 1062.09 1472.69 Q1058.99 1475.88 1053.34 1481.64 Z" fill="#000000" fill-rule="nonzero" fill-opacity="1" /><path clip-path="url(#clip950)" d="M1473.75 1466.95 Q1477.11 1467.66 1478.98 1469.93 Q1480.88 1472.2 1480.88 1475.53 Q1480.88 1480.65 1477.36 1483.45 Q1473.85 1486.25 1467.36 1486.25 Q1465.19 1486.25 1462.87 1485.81 Q1460.58 1485.39 1458.13 1484.54 L1458.13 1480.02 Q1460.07 1481.16 1462.39 1481.74 Q1464.7 1482.32 1467.23 1482.32 Q1471.62 1482.32 1473.92 1480.58 Q1476.23 1478.84 1476.23 1475.53 Q1476.23 1472.48 1474.08 1470.77 Q1471.95 1469.03 1468.13 1469.03 L1464.1 1469.03 L1464.1 1465.19 L1468.31 1465.19 Q1471.76 1465.19 1473.59 1463.82 Q1475.42 1462.43 1475.42 1459.84 Q1475.42 1457.18 1473.52 1455.77 Q1471.65 1454.33 1468.13 1454.33 Q1466.21 1454.33 1464.01 1454.75 Q1461.81 1455.16 1459.17 1456.04 L1459.17 1451.88 Q1461.83 1451.14 1464.15 1450.77 Q1466.48 1450.39 1468.54 1450.39 Q1473.87 1450.39 1476.97 1452.83 Q1480.07 1455.23 1480.07 1459.35 Q1480.07 1462.22 1478.43 1464.21 Q1476.79 1466.18 1473.75 1466.95 Z" fill="#000000" fill-rule="nonzero" fill-opacity="1" /><path clip-path="url(#clip950)" d="M1883.33 1455.09 L1871.52 1473.54 L1883.33 1473.54 L1883.33 1455.09 M1882.1 1451.02 L1887.98 1451.02 L1887.98 1473.54 L1892.91 1473.54 L1892.91 1477.43 L1887.98 1477.43 L1887.98 1485.58 L1883.33 1485.58 L1883.33 1477.43 L1867.73 1477.43 L1867.73 1472.92 L1882.1 1451.02 Z" fill="#000000" fill-rule="nonzero" fill-opacity="1" /><path clip-path="url(#clip950)" d="M2281.41 1451.02 L2299.77 1451.02 L2299.77 1454.96 L2285.69 1454.96 L2285.69 1463.43 Q2286.71 1463.08 2287.73 1462.92 Q2288.75 1462.73 2289.77 1462.73 Q2295.56 1462.73 2298.93 1465.9 Q2302.31 1469.08 2302.31 1474.49 Q2302.31 1480.07 2298.84 1483.17 Q2295.37 1486.25 2289.05 1486.25 Q2286.87 1486.25 2284.61 1485.88 Q2282.36 1485.51 2279.95 1484.77 L2279.95 1480.07 Q2282.04 1481.2 2284.26 1481.76 Q2286.48 1482.32 2288.96 1482.32 Q2292.96 1482.32 2295.3 1480.21 Q2297.64 1478.1 2297.64 1474.49 Q2297.64 1470.88 2295.3 1468.77 Q2292.96 1466.67 2288.96 1466.67 Q2287.08 1466.67 2285.21 1467.08 Q2283.36 1467.5 2281.41 1468.38 L2281.41 1451.02 Z" fill="#000000" fill-rule="nonzero" fill-opacity="1" /><path clip-path="url(#clip950)" d="M914.432 1550.25 Q914.432 1556.71 917.074 1560.4 Q919.748 1564.07 924.395 1564.07 Q929.042 1564.07 931.715 1560.4 Q934.389 1556.71 934.389 1550.25 Q934.389 1543.79 931.715 1540.13 Q929.042 1536.44 924.395 1536.44 Q919.748 1536.44 917.074 1540.13 Q914.432 1543.79 914.432 1550.25 M934.389 1562.7 Q932.543 1565.88 929.71 1567.44 Q926.909 1568.97 922.962 1568.97 Q916.501 1568.97 912.427 1563.81 Q908.385 1558.65 908.385 1550.25 Q908.385 1541.85 912.427 1536.69 Q916.501 1531.54 922.962 1531.54 Q926.909 1531.54 929.71 1533.1 Q932.543 1534.62 934.389 1537.81 L934.389 1532.4 L940.245 1532.4 L940.245 1581.6 L934.389 1581.6 L934.389 1562.7 Z" fill="#000000" fill-rule="nonzero" fill-opacity="1" /><path clip-path="url(#clip950)" d="M979.394 1578.87 L979.394 1583.42 L945.529 1583.42 L945.529 1578.87 L979.394 1578.87 Z" fill="#000000" fill-rule="nonzero" fill-opacity="1" /><path clip-path="url(#clip950)" d="M1005.56 1537.87 Q1004.57 1537.3 1003.39 1537.04 Q1002.25 1536.76 1000.85 1536.76 Q995.882 1536.76 993.208 1540 Q990.566 1543.22 990.566 1549.27 L990.566 1568.04 L984.678 1568.04 L984.678 1532.4 L990.566 1532.4 L990.566 1537.93 Q992.412 1534.69 995.372 1533.13 Q998.332 1531.54 1002.57 1531.54 Q1003.17 1531.54 1003.9 1531.63 Q1004.63 1531.7 1005.53 1531.85 L1005.56 1537.87 Z" fill="#000000" fill-rule="nonzero" fill-opacity="1" /><path clip-path="url(#clip950)" d="M1027.9 1550.12 Q1020.8 1550.12 1018.07 1551.75 Q1015.33 1553.37 1015.33 1557.29 Q1015.33 1560.4 1017.37 1562.25 Q1019.43 1564.07 1022.97 1564.07 Q1027.84 1564.07 1030.77 1560.63 Q1033.73 1557.16 1033.73 1551.43 L1033.73 1550.12 L1027.9 1550.12 M1039.58 1547.71 L1039.58 1568.04 L1033.73 1568.04 L1033.73 1562.63 Q1031.72 1565.88 1028.73 1567.44 Q1025.74 1568.97 1021.41 1568.97 Q1015.93 1568.97 1012.69 1565.91 Q1009.47 1562.82 1009.47 1557.67 Q1009.47 1551.65 1013.48 1548.6 Q1017.52 1545.54 1025.51 1545.54 L1033.73 1545.54 L1033.73 1544.97 Q1033.73 1540.93 1031.05 1538.73 Q1028.41 1536.5 1023.6 1536.5 Q1020.55 1536.5 1017.65 1537.23 Q1014.76 1537.97 1012.08 1539.43 L1012.08 1534.02 Q1015.3 1532.78 1018.32 1532.17 Q1021.34 1531.54 1024.21 1531.54 Q1031.94 1531.54 1035.76 1535.55 Q1039.58 1539.56 1039.58 1547.71 Z" fill="#000000" fill-rule="nonzero" fill-opacity="1" /><path clip-path="url(#clip950)" d="M1051.65 1532.4 L1057.5 1532.4 L1057.5 1568.04 L1051.65 1568.04 L1051.65 1532.4 M1051.65 1518.52 L1057.5 1518.52 L1057.5 1525.93 L1051.65 1525.93 L1051.65 1518.52 Z" fill="#000000" fill-rule="nonzero" fill-opacity="1" /><path clip-path="url(#clip950)" d="M1099.39 1546.53 L1099.39 1568.04 L1093.53 1568.04 L1093.53 1546.72 Q1093.53 1541.66 1091.56 1539.14 Q1089.58 1536.63 1085.64 1536.63 Q1080.9 1536.63 1078.16 1539.65 Q1075.42 1542.68 1075.42 1547.9 L1075.42 1568.04 L1069.53 1568.04 L1069.53 1532.4 L1075.42 1532.4 L1075.42 1537.93 Q1077.52 1534.72 1080.35 1533.13 Q1083.22 1531.54 1086.94 1531.54 Q1093.09 1531.54 1096.24 1535.36 Q1099.39 1539.14 1099.39 1546.53 Z" fill="#000000" fill-rule="nonzero" fill-opacity="1" /><path clip-path="url(#clip950)" d="M1121.48 1520.52 L1126.89 1520.52 L1110.34 1574.09 L1104.93 1574.09 L1121.48 1520.52 Z" fill="#000000" fill-rule="nonzero" fill-opacity="1" /><path clip-path="url(#clip950)" d="M1133.03 1532.4 L1138.89 1532.4 L1138.89 1568.04 L1133.03 1568.04 L1133.03 1532.4 M1133.03 1518.52 L1138.89 1518.52 L1138.89 1525.93 L1133.03 1525.93 L1133.03 1518.52 Z" fill="#000000" fill-rule="nonzero" fill-opacity="1" /><path clip-path="url(#clip950)" d="M1176.79 1533.76 L1176.79 1539.24 Q1174.31 1537.87 1171.8 1537.2 Q1169.32 1536.5 1166.77 1536.5 Q1161.07 1536.5 1157.92 1540.13 Q1154.77 1543.73 1154.77 1550.25 Q1154.77 1556.78 1157.92 1560.4 Q1161.07 1564 1166.77 1564 Q1169.32 1564 1171.8 1563.33 Q1174.31 1562.63 1176.79 1561.26 L1176.79 1566.68 Q1174.34 1567.82 1171.7 1568.39 Q1169.09 1568.97 1166.13 1568.97 Q1158.08 1568.97 1153.34 1563.91 Q1148.59 1558.85 1148.59 1550.25 Q1148.59 1541.53 1153.37 1536.53 Q1158.18 1531.54 1166.51 1531.54 Q1169.22 1531.54 1171.8 1532.11 Q1174.38 1532.65 1176.79 1533.76 Z" fill="#000000" fill-rule="nonzero" fill-opacity="1" /><path clip-path="url(#clip950)" d="M1217.47 1548.76 L1217.47 1551.62 L1190.54 1551.62 Q1190.93 1557.67 1194.17 1560.85 Q1197.45 1564 1203.28 1564 Q1206.65 1564 1209.8 1563.17 Q1212.98 1562.35 1216.1 1560.69 L1216.1 1566.23 Q1212.95 1567.57 1209.64 1568.27 Q1206.33 1568.97 1202.93 1568.97 Q1194.4 1568.97 1189.4 1564 Q1184.43 1559.04 1184.43 1550.57 Q1184.43 1541.82 1189.14 1536.69 Q1193.89 1531.54 1201.91 1531.54 Q1209.1 1531.54 1213.27 1536.18 Q1217.47 1540.8 1217.47 1548.76 M1211.62 1547.04 Q1211.55 1542.23 1208.91 1539.37 Q1206.3 1536.5 1201.97 1536.5 Q1197.07 1536.5 1194.11 1539.27 Q1191.18 1542.04 1190.74 1547.07 L1211.62 1547.04 Z" fill="#000000" fill-rule="nonzero" fill-opacity="1" /><path clip-path="url(#clip950)" d="M1237.49 1520.52 L1242.9 1520.52 L1226.35 1574.09 L1220.94 1574.09 L1237.49 1520.52 Z" fill="#000000" fill-rule="nonzero" fill-opacity="1" /><path clip-path="url(#clip950)" d="M1271.77 1533.45 L1271.77 1538.98 Q1269.29 1537.71 1266.62 1537.07 Q1263.94 1536.44 1261.08 1536.44 Q1256.72 1536.44 1254.52 1537.77 Q1252.36 1539.11 1252.36 1541.79 Q1252.36 1543.82 1253.92 1545 Q1255.48 1546.15 1260.19 1547.2 L1262.19 1547.64 Q1268.43 1548.98 1271.04 1551.43 Q1273.68 1553.85 1273.68 1558.21 Q1273.68 1563.17 1269.73 1566.07 Q1265.82 1568.97 1258.94 1568.97 Q1256.08 1568.97 1252.96 1568.39 Q1249.87 1567.85 1246.44 1566.74 L1246.44 1560.69 Q1249.68 1562.38 1252.83 1563.24 Q1255.98 1564.07 1259.07 1564.07 Q1263.21 1564.07 1265.44 1562.66 Q1267.67 1561.23 1267.67 1558.65 Q1267.67 1556.27 1266.04 1554.99 Q1264.45 1553.72 1259.01 1552.54 L1256.97 1552.07 Q1251.53 1550.92 1249.11 1548.56 Q1246.69 1546.18 1246.69 1542.04 Q1246.69 1537.01 1250.26 1534.27 Q1253.82 1531.54 1260.38 1531.54 Q1263.62 1531.54 1266.49 1532.01 Q1269.35 1532.49 1271.77 1533.45 Z" fill="#000000" fill-rule="nonzero" fill-opacity="1" /><path clip-path="url(#clip950)" d="M1312.64 1546.53 L1312.64 1568.04 L1306.78 1568.04 L1306.78 1546.72 Q1306.78 1541.66 1304.81 1539.14 Q1302.84 1536.63 1298.89 1536.63 Q1294.15 1536.63 1291.41 1539.65 Q1288.67 1542.68 1288.67 1547.9 L1288.67 1568.04 L1282.78 1568.04 L1282.78 1532.4 L1288.67 1532.4 L1288.67 1537.93 Q1290.77 1534.72 1293.61 1533.13 Q1296.47 1531.54 1300.19 1531.54 Q1306.34 1531.54 1309.49 1535.36 Q1312.64 1539.14 1312.64 1546.53 Z" fill="#000000" fill-rule="nonzero" fill-opacity="1" /><path clip-path="url(#clip950)" d="M1338.13 1536.5 Q1333.42 1536.5 1330.69 1540.19 Q1327.95 1543.85 1327.95 1550.25 Q1327.95 1556.65 1330.65 1560.34 Q1333.39 1564 1338.13 1564 Q1342.81 1564 1345.55 1560.31 Q1348.29 1556.62 1348.29 1550.25 Q1348.29 1543.92 1345.55 1540.23 Q1342.81 1536.5 1338.13 1536.5 M1338.13 1531.54 Q1345.77 1531.54 1350.13 1536.5 Q1354.49 1541.47 1354.49 1550.25 Q1354.49 1559 1350.13 1564 Q1345.77 1568.97 1338.13 1568.97 Q1330.46 1568.97 1326.1 1564 Q1321.77 1559 1321.77 1550.25 Q1321.77 1541.47 1326.1 1536.5 Q1330.46 1531.54 1338.13 1531.54 Z" fill="#000000" fill-rule="nonzero" fill-opacity="1" /><path clip-path="url(#clip950)" d="M1360.8 1532.4 L1366.65 1532.4 L1373.97 1560.21 L1381.26 1532.4 L1388.17 1532.4 L1395.49 1560.21 L1402.78 1532.4 L1408.63 1532.4 L1399.31 1568.04 L1392.4 1568.04 L1384.73 1538.83 L1377.03 1568.04 L1370.12 1568.04 L1360.8 1532.4 Z" fill="#000000" fill-rule="nonzero" fill-opacity="1" /><path clip-path="url(#clip950)" d="M1437.69 1518.52 L1451.19 1518.52 L1451.19 1523.07 L1443.55 1523.07 L1443.55 1572.09 L1451.19 1572.09 L1451.19 1576.64 L1437.69 1576.64 L1437.69 1518.52 Z" fill="#000000" fill-rule="nonzero" fill-opacity="1" /><path clip-path="url(#clip950)" d="M1487.12 1549.81 Q1487.12 1543.44 1484.48 1539.94 Q1481.87 1536.44 1477.13 1536.44 Q1472.42 1536.44 1469.78 1539.94 Q1467.17 1543.44 1467.17 1549.81 Q1467.17 1556.14 1469.78 1559.64 Q1472.42 1563.14 1477.13 1563.14 Q1481.87 1563.14 1484.48 1559.64 Q1487.12 1556.14 1487.12 1549.81 M1492.98 1563.62 Q1492.98 1572.72 1488.94 1577.15 Q1484.9 1581.6 1476.56 1581.6 Q1473.47 1581.6 1470.73 1581.13 Q1467.99 1580.68 1465.42 1579.72 L1465.42 1574.03 Q1467.99 1575.43 1470.51 1576.1 Q1473.02 1576.76 1475.63 1576.76 Q1481.39 1576.76 1484.26 1573.74 Q1487.12 1570.75 1487.12 1564.67 L1487.12 1561.77 Q1485.31 1564.92 1482.48 1566.48 Q1479.64 1568.04 1475.7 1568.04 Q1469.14 1568.04 1465.13 1563.05 Q1461.12 1558.05 1461.12 1549.81 Q1461.12 1541.53 1465.13 1536.53 Q1469.14 1531.54 1475.7 1531.54 Q1479.64 1531.54 1482.48 1533.1 Q1485.31 1534.66 1487.12 1537.81 L1487.12 1532.4 L1492.98 1532.4 L1492.98 1563.62 Z" fill="#000000" fill-rule="nonzero" fill-opacity="1" /><path clip-path="url(#clip950)" d="M1515.45 1520.52 L1520.86 1520.52 L1504.31 1574.09 L1498.9 1574.09 L1515.45 1520.52 Z" fill="#000000" fill-rule="nonzero" fill-opacity="1" /><path clip-path="url(#clip950)" d="M1526.78 1518.52 L1532.67 1518.52 L1532.67 1547.77 L1550.14 1532.4 L1557.62 1532.4 L1538.72 1549.07 L1558.42 1568.04 L1550.78 1568.04 L1532.67 1550.63 L1532.67 1568.04 L1526.78 1568.04 L1526.78 1518.52 Z" fill="#000000" fill-rule="nonzero" fill-opacity="1" /><path clip-path="url(#clip950)" d="M1588.21 1549.81 Q1588.21 1543.44 1585.57 1539.94 Q1582.96 1536.44 1578.22 1536.44 Q1573.51 1536.44 1570.86 1539.94 Q1568.25 1543.44 1568.25 1549.81 Q1568.25 1556.14 1570.86 1559.64 Q1573.51 1563.14 1578.22 1563.14 Q1582.96 1563.14 1585.57 1559.64 Q1588.21 1556.14 1588.21 1549.81 M1594.07 1563.62 Q1594.07 1572.72 1590.02 1577.15 Q1585.98 1581.6 1577.64 1581.6 Q1574.56 1581.6 1571.82 1581.13 Q1569.08 1580.68 1566.5 1579.72 L1566.5 1574.03 Q1569.08 1575.43 1571.6 1576.1 Q1574.11 1576.76 1576.72 1576.76 Q1582.48 1576.76 1585.35 1573.74 Q1588.21 1570.75 1588.21 1564.67 L1588.21 1561.77 Q1586.4 1564.92 1583.56 1566.48 Q1580.73 1568.04 1576.78 1568.04 Q1570.23 1568.04 1566.22 1563.05 Q1562.21 1558.05 1562.21 1549.81 Q1562.21 1541.53 1566.22 1536.53 Q1570.23 1531.54 1576.78 1531.54 Q1580.73 1531.54 1583.56 1533.1 Q1586.4 1534.66 1588.21 1537.81 L1588.21 1532.4 L1594.07 1532.4 L1594.07 1563.62 Z" fill="#000000" fill-rule="nonzero" fill-opacity="1" /><path clip-path="url(#clip950)" d="M1619.82 1518.52 L1619.82 1576.64 L1606.32 1576.64 L1606.32 1572.09 L1613.93 1572.09 L1613.93 1523.07 L1606.32 1523.07 L1606.32 1518.52 L1619.82 1518.52 Z" fill="#000000" fill-rule="nonzero" fill-opacity="1" /><polyline clip-path="url(#clip952)" style="stroke:#000000; stroke-linecap:round; stroke-linejoin:round; stroke-width:2; stroke-opacity:0.1; fill:none" points="175.445,1384.24 2352.76,1384.24 "/>
<polyline clip-path="url(#clip952)" style="stroke:#000000; stroke-linecap:round; stroke-linejoin:round; stroke-width:2; stroke-opacity:0.1; fill:none" points="175.445,1027.73 2352.76,1027.73 "/>
<polyline clip-path="url(#clip952)" style="stroke:#000000; stroke-linecap:round; stroke-linejoin:round; stroke-width:2; stroke-opacity:0.1; fill:none" points="175.445,671.231 2352.76,671.231 "/>
<polyline clip-path="url(#clip952)" style="stroke:#000000; stroke-linecap:round; stroke-linejoin:round; stroke-width:2; stroke-opacity:0.1; fill:none" points="175.445,314.728 2352.76,314.728 "/>
<polyline clip-path="url(#clip950)" style="stroke:#000000; stroke-linecap:round; stroke-linejoin:round; stroke-width:4; stroke-opacity:1; fill:none" points="175.445,1423.18 175.445,47.2441 "/>
<polyline clip-path="url(#clip950)" style="stroke:#000000; stroke-linecap:round; stroke-linejoin:round; stroke-width:4; stroke-opacity:1; fill:none" points="175.445,1384.24 194.343,1384.24 "/>
<polyline clip-path="url(#clip950)" style="stroke:#000000; stroke-linecap:round; stroke-linejoin:round; stroke-width:4; stroke-opacity:1; fill:none" points="175.445,1027.73 194.343,1027.73 "/>
<polyline clip-path="url(#clip950)" style="stroke:#000000; stroke-linecap:round; stroke-linejoin:round; stroke-width:4; stroke-opacity:1; fill:none" points="175.445,671.231 194.343,671.231 "/>
<polyline clip-path="url(#clip950)" style="stroke:#000000; stroke-linecap:round; stroke-linejoin:round; stroke-width:4; stroke-opacity:1; fill:none" points="175.445,314.728 194.343,314.728 "/>
<path clip-path="url(#clip950)" d="M127.501 1370.04 Q123.89 1370.04 122.061 1373.6 Q120.255 1377.14 120.255 1384.27 Q120.255 1391.38 122.061 1394.94 Q123.89 1398.49 127.501 1398.49 Q131.135 1398.49 132.941 1394.94 Q134.769 1391.38 134.769 1384.27 Q134.769 1377.14 132.941 1373.6 Q131.135 1370.04 127.501 1370.04 M127.501 1366.33 Q133.311 1366.33 136.367 1370.94 Q139.445 1375.52 139.445 1384.27 Q139.445 1393 136.367 1397.61 Q133.311 1402.19 127.501 1402.19 Q121.691 1402.19 118.612 1397.61 Q115.556 1393 115.556 1384.27 Q115.556 1375.52 118.612 1370.94 Q121.691 1366.33 127.501 1366.33 Z" fill="#000000" fill-rule="nonzero" fill-opacity="1" /><path clip-path="url(#clip950)" d="M123.126 1041.08 L139.445 1041.08 L139.445 1045.01 L117.501 1045.01 L117.501 1041.08 Q120.163 1038.33 124.746 1033.7 Q129.353 1029.04 130.533 1027.7 Q132.779 1025.18 133.658 1023.44 Q134.561 1021.68 134.561 1019.99 Q134.561 1017.24 132.617 1015.5 Q130.695 1013.77 127.593 1013.77 Q125.394 1013.77 122.941 1014.53 Q120.51 1015.29 117.732 1016.84 L117.732 1012.12 Q120.556 1010.99 123.01 1010.41 Q125.464 1009.83 127.501 1009.83 Q132.871 1009.83 136.066 1012.52 Q139.26 1015.2 139.26 1019.69 Q139.26 1021.82 138.45 1023.74 Q137.663 1025.64 135.556 1028.23 Q134.978 1028.9 131.876 1032.12 Q128.774 1035.32 123.126 1041.08 Z" fill="#000000" fill-rule="nonzero" fill-opacity="1" /><path clip-path="url(#clip950)" d="M129.862 658.025 L118.056 676.474 L129.862 676.474 L129.862 658.025 M128.635 653.951 L134.515 653.951 L134.515 676.474 L139.445 676.474 L139.445 680.363 L134.515 680.363 L134.515 688.511 L129.862 688.511 L129.862 680.363 L114.26 680.363 L114.26 675.849 L128.635 653.951 Z" fill="#000000" fill-rule="nonzero" fill-opacity="1" /><path clip-path="url(#clip950)" d="M127.917 312.865 Q124.769 312.865 122.918 315.017 Q121.089 317.17 121.089 320.92 Q121.089 324.647 122.918 326.823 Q124.769 328.976 127.917 328.976 Q131.066 328.976 132.894 326.823 Q134.746 324.647 134.746 320.92 Q134.746 317.17 132.894 315.017 Q131.066 312.865 127.917 312.865 M137.2 298.212 L137.2 302.471 Q135.441 301.638 133.635 301.198 Q131.853 300.758 130.093 300.758 Q125.464 300.758 123.01 303.883 Q120.58 307.008 120.232 313.328 Q121.598 311.314 123.658 310.249 Q125.718 309.161 128.195 309.161 Q133.404 309.161 136.413 312.332 Q139.445 315.48 139.445 320.92 Q139.445 326.244 136.297 329.462 Q133.149 332.679 127.917 332.679 Q121.922 332.679 118.751 328.096 Q115.58 323.49 115.58 314.763 Q115.58 306.568 119.468 301.707 Q123.357 296.823 129.908 296.823 Q131.667 296.823 133.45 297.17 Q135.255 297.517 137.2 298.212 Z" fill="#000000" fill-rule="nonzero" fill-opacity="1" /><path clip-path="url(#clip950)" d="M18.2347 1090.74 L28.3562 1090.74 L28.3562 1078.67 L32.9077 1078.67 L32.9077 1090.74 L52.2594 1090.74 Q56.6199 1090.74 57.8613 1089.56 Q59.1026 1088.35 59.1026 1084.69 L59.1026 1078.67 L64.0042 1078.67 L64.0042 1084.69 Q64.0042 1091.47 61.4897 1094.05 Q58.9434 1096.62 52.2594 1096.62 L32.9077 1096.62 L32.9077 1100.92 L28.3562 1100.92 L28.3562 1096.62 L18.2347 1096.62 L18.2347 1090.74 Z" fill="#000000" fill-rule="nonzero" fill-opacity="1" /><path clip-path="url(#clip950)" d="M44.7161 1040.48 L47.5806 1040.48 L47.5806 1067.41 Q53.6281 1067.02 56.8109 1063.78 Q59.9619 1060.5 59.9619 1054.67 Q59.9619 1051.3 59.1344 1048.15 Q58.3069 1044.97 56.6518 1041.85 L62.1899 1041.85 Q63.5267 1045 64.227 1048.31 Q64.9272 1051.62 64.9272 1055.03 Q64.9272 1063.56 59.9619 1068.55 Q54.9967 1073.52 46.5303 1073.52 Q37.7774 1073.52 32.6531 1068.81 Q27.4968 1064.06 27.4968 1056.04 Q27.4968 1048.85 32.1438 1044.68 Q36.7589 1040.48 44.7161 1040.48 M42.9973 1046.34 Q38.1912 1046.4 35.3266 1049.04 Q32.4621 1051.65 32.4621 1055.98 Q32.4621 1060.88 35.2312 1063.84 Q38.0002 1066.77 43.0292 1067.22 L42.9973 1046.34 Z" fill="#000000" fill-rule="nonzero" fill-opacity="1" /><path clip-path="url(#clip950)" d="M33.8307 1010.21 Q33.2578 1011.2 33.0032 1012.37 Q32.7167 1013.52 32.7167 1014.92 Q32.7167 1019.89 35.9632 1022.56 Q39.1779 1025.2 45.2253 1025.2 L64.0042 1025.2 L64.0042 1031.09 L28.3562 1031.09 L28.3562 1025.2 L33.8944 1025.2 Q30.6479 1023.36 29.0883 1020.4 Q27.4968 1017.44 27.4968 1013.2 Q27.4968 1012.6 27.5923 1011.87 Q27.656 1011.13 27.8151 1010.24 L33.8307 1010.21 Z" fill="#000000" fill-rule="nonzero" fill-opacity="1" /><path clip-path="url(#clip950)" d="M35.1993 977.459 Q31.2526 975.263 29.3747 972.207 Q27.4968 969.152 27.4968 965.014 Q27.4968 959.444 31.4117 956.42 Q35.2948 953.397 42.4881 953.397 L64.0042 953.397 L64.0042 959.285 L42.679 959.285 Q37.5546 959.285 35.072 961.099 Q32.5894 962.913 32.5894 966.637 Q32.5894 971.189 35.6131 973.83 Q38.6368 976.472 43.8567 976.472 L64.0042 976.472 L64.0042 982.361 L42.679 982.361 Q37.5228 982.361 35.072 984.175 Q32.5894 985.989 32.5894 989.777 Q32.5894 994.264 35.6449 996.906 Q38.6686 999.548 43.8567 999.548 L64.0042 999.548 L64.0042 1005.44 L28.3562 1005.44 L28.3562 999.548 L33.8944 999.548 Q30.616 997.543 29.0564 994.742 Q27.4968 991.941 27.4968 988.09 Q27.4968 984.207 29.4702 981.501 Q31.4436 978.764 35.1993 977.459 Z" fill="#000000" fill-rule="nonzero" fill-opacity="1" /><path clip-path="url(#clip950)" d="M28.3562 941.715 L28.3562 935.859 L64.0042 935.859 L64.0042 941.715 L28.3562 941.715 M14.479 941.715 L14.479 935.859 L21.895 935.859 L21.895 941.715 L14.479 941.715 Z" fill="#000000" fill-rule="nonzero" fill-opacity="1" /><path clip-path="url(#clip950)" d="M42.4881 893.973 L64.0042 893.973 L64.0042 899.829 L42.679 899.829 Q37.6183 899.829 35.1038 901.803 Q32.5894 903.776 32.5894 907.723 Q32.5894 912.465 35.6131 915.202 Q38.6368 917.94 43.8567 917.94 L64.0042 917.94 L64.0042 923.828 L28.3562 923.828 L28.3562 917.94 L33.8944 917.94 Q30.6797 915.839 29.0883 913.006 Q27.4968 910.142 27.4968 906.418 Q27.4968 900.275 31.3163 897.124 Q35.1038 893.973 42.4881 893.973 Z" fill="#000000" fill-rule="nonzero" fill-opacity="1" /><path clip-path="url(#clip950)" d="M46.0847 866.091 Q46.0847 873.189 47.7079 875.926 Q49.3312 878.663 53.2461 878.663 Q56.3653 878.663 58.2114 876.626 Q60.0256 874.557 60.0256 871.024 Q60.0256 866.155 56.5881 863.226 Q53.1188 860.266 47.3897 860.266 L46.0847 860.266 L46.0847 866.091 M43.6657 854.41 L64.0042 854.41 L64.0042 860.266 L58.5933 860.266 Q61.8398 862.271 63.3994 865.263 Q64.9272 868.255 64.9272 872.584 Q64.9272 878.058 61.8716 881.305 Q58.7843 884.52 53.6281 884.52 Q47.6125 884.52 44.5569 880.509 Q41.5014 876.467 41.5014 868.478 L41.5014 860.266 L40.9285 860.266 Q36.8862 860.266 34.6901 862.94 Q32.4621 865.582 32.4621 870.388 Q32.4621 873.443 33.1941 876.34 Q33.9262 879.236 35.3903 881.91 L29.9795 881.91 Q28.7381 878.695 28.1334 875.671 Q27.4968 872.648 27.4968 869.783 Q27.4968 862.049 31.5072 858.229 Q35.5176 854.41 43.6657 854.41 Z" fill="#000000" fill-rule="nonzero" fill-opacity="1" /><path clip-path="url(#clip950)" d="M14.479 842.347 L14.479 836.49 L64.0042 836.49 L64.0042 842.347 L14.479 842.347 Z" fill="#000000" fill-rule="nonzero" fill-opacity="1" /><path clip-path="url(#clip950)" d="M28.3562 807.717 L28.3562 801.511 L58.275 790.371 L28.3562 779.231 L28.3562 773.024 L64.0042 786.392 L64.0042 794.349 L28.3562 807.717 Z" fill="#000000" fill-rule="nonzero" fill-opacity="1" /><path clip-path="url(#clip950)" d="M44.7161 734.448 L47.5806 734.448 L47.5806 761.375 Q53.6281 760.993 56.8109 757.747 Q59.9619 754.468 59.9619 748.644 Q59.9619 745.27 59.1344 742.119 Q58.3069 738.936 56.6518 735.817 L62.1899 735.817 Q63.5267 738.968 64.227 742.278 Q64.9272 745.588 64.9272 748.994 Q64.9272 757.524 59.9619 762.521 Q54.9967 767.486 46.5303 767.486 Q37.7774 767.486 32.6531 762.775 Q27.4968 758.033 27.4968 750.012 Q27.4968 742.819 32.1438 738.649 Q36.7589 734.448 44.7161 734.448 M42.9973 740.305 Q38.1912 740.368 35.3266 743.01 Q32.4621 745.62 32.4621 749.949 Q32.4621 754.85 35.2312 757.81 Q38.0002 760.738 43.0292 761.184 L42.9973 740.305 Z" fill="#000000" fill-rule="nonzero" fill-opacity="1" /><path clip-path="url(#clip950)" d="M14.479 724.836 L14.479 718.979 L64.0042 718.979 L64.0042 724.836 L14.479 724.836 Z" fill="#000000" fill-rule="nonzero" fill-opacity="1" /><path clip-path="url(#clip950)" d="M32.4621 692.912 Q32.4621 697.622 36.1542 700.36 Q39.8145 703.097 46.212 703.097 Q52.6095 703.097 56.3017 700.392 Q59.9619 697.654 59.9619 692.912 Q59.9619 688.233 56.2698 685.496 Q52.5777 682.759 46.212 682.759 Q39.8781 682.759 36.186 685.496 Q32.4621 688.233 32.4621 692.912 M27.4968 692.912 Q27.4968 685.273 32.4621 680.912 Q37.4273 676.552 46.212 676.552 Q54.9649 676.552 59.9619 680.912 Q64.9272 685.273 64.9272 692.912 Q64.9272 700.583 59.9619 704.943 Q54.9649 709.272 46.212 709.272 Q37.4273 709.272 32.4621 704.943 Q27.4968 700.583 27.4968 692.912 Z" fill="#000000" fill-rule="nonzero" fill-opacity="1" /><path clip-path="url(#clip950)" d="M29.7248 641.19 L35.1993 641.19 Q33.8307 643.673 33.1623 646.188 Q32.4621 648.67 32.4621 651.216 Q32.4621 656.914 36.0905 660.065 Q39.6872 663.216 46.212 663.216 Q52.7369 663.216 56.3653 660.065 Q59.9619 656.914 59.9619 651.216 Q59.9619 648.67 59.2935 646.188 Q58.5933 643.673 57.2247 641.19 L62.6355 641.19 Q63.7814 643.641 64.3543 646.283 Q64.9272 648.893 64.9272 651.853 Q64.9272 659.906 59.8664 664.648 Q54.8057 669.391 46.212 669.391 Q37.491 669.391 32.4939 664.616 Q27.4968 659.81 27.4968 651.471 Q27.4968 648.766 28.0697 646.188 Q28.6108 643.609 29.7248 641.19 Z" fill="#000000" fill-rule="nonzero" fill-opacity="1" /><path clip-path="url(#clip950)" d="M28.3562 631.005 L28.3562 625.149 L64.0042 625.149 L64.0042 631.005 L28.3562 631.005 M14.479 631.005 L14.479 625.149 L21.895 625.149 L21.895 631.005 L14.479 631.005 Z" fill="#000000" fill-rule="nonzero" fill-opacity="1" /><path clip-path="url(#clip950)" d="M18.2347 607.102 L28.3562 607.102 L28.3562 595.039 L32.9077 595.039 L32.9077 607.102 L52.2594 607.102 Q56.6199 607.102 57.8613 605.924 Q59.1026 604.715 59.1026 601.055 L59.1026 595.039 L64.0042 595.039 L64.0042 601.055 Q64.0042 607.834 61.4897 610.412 Q58.9434 612.99 52.2594 612.99 L32.9077 612.99 L32.9077 617.287 L28.3562 617.287 L28.3562 612.99 L18.2347 612.99 L18.2347 607.102 Z" fill="#000000" fill-rule="nonzero" fill-opacity="1" /><path clip-path="url(#clip950)" d="M67.3143 572.505 Q73.68 574.987 75.6216 577.342 Q77.5631 579.698 77.5631 583.644 L77.5631 588.323 L72.6615 588.323 L72.6615 584.886 Q72.6615 582.467 71.5157 581.13 Q70.3699 579.793 66.1048 578.17 L63.4312 577.12 L28.3562 591.538 L28.3562 585.331 L56.238 574.191 L28.3562 563.051 L28.3562 556.845 L67.3143 572.505 Z" fill="#000000" fill-rule="nonzero" fill-opacity="1" /><path clip-path="url(#clip950)" d="M14.479 528.581 L14.479 515.086 L19.0304 515.086 L19.0304 522.725 L68.0464 522.725 L68.0464 515.086 L72.5979 515.086 L72.5979 528.581 L14.479 528.581 Z" fill="#000000" fill-rule="nonzero" fill-opacity="1" /><path clip-path="url(#clip950)" d="M35.1993 474.855 Q31.2526 472.658 29.3747 469.603 Q27.4968 466.547 27.4968 462.41 Q27.4968 456.84 31.4117 453.816 Q35.2948 450.792 42.4881 450.792 L64.0042 450.792 L64.0042 456.68 L42.679 456.68 Q37.5546 456.68 35.072 458.495 Q32.5894 460.309 32.5894 464.033 Q32.5894 468.584 35.6131 471.226 Q38.6368 473.868 43.8567 473.868 L64.0042 473.868 L64.0042 479.756 L42.679 479.756 Q37.5228 479.756 35.072 481.57 Q32.5894 483.385 32.5894 487.172 Q32.5894 491.66 35.6449 494.302 Q38.6686 496.944 43.8567 496.944 L64.0042 496.944 L64.0042 502.832 L28.3562 502.832 L28.3562 496.944 L33.8944 496.944 Q30.616 494.938 29.0564 492.137 Q27.4968 489.337 27.4968 485.485 Q27.4968 481.602 29.4702 478.897 Q31.4436 476.16 35.1993 474.855 Z" fill="#000000" fill-rule="nonzero" fill-opacity="1" /><path clip-path="url(#clip950)" d="M16.4842 428.703 L16.4842 423.292 L70.0516 439.843 L70.0516 445.254 L16.4842 428.703 Z" fill="#000000" fill-rule="nonzero" fill-opacity="1" /><path clip-path="url(#clip950)" d="M29.4065 394.424 L34.9447 394.424 Q33.6716 396.906 33.035 399.58 Q32.3984 402.254 32.3984 405.118 Q32.3984 409.479 33.7352 411.675 Q35.072 413.839 37.7456 413.839 Q39.7826 413.839 40.9603 412.28 Q42.1061 410.72 43.1565 406.009 L43.6021 404.004 Q44.9389 397.766 47.3897 395.156 Q49.8086 392.514 54.1691 392.514 Q59.1344 392.514 62.0308 396.461 Q64.9272 400.376 64.9272 407.251 Q64.9272 410.115 64.3543 413.235 Q63.8132 416.322 62.6992 419.759 L56.6518 419.759 Q58.3387 416.513 59.198 413.362 Q60.0256 410.211 60.0256 407.123 Q60.0256 402.986 58.6251 400.758 Q57.1929 398.53 54.6147 398.53 Q52.2276 398.53 50.9545 400.153 Q49.6813 401.744 48.5037 407.187 L48.0262 409.224 Q46.8804 414.667 44.5251 417.086 Q42.138 419.505 38.0002 419.505 Q32.9713 419.505 30.2341 415.94 Q27.4968 412.375 27.4968 405.818 Q27.4968 402.572 27.9743 399.707 Q28.4517 396.843 29.4065 394.424 Z" fill="#000000" fill-rule="nonzero" fill-opacity="1" /><path clip-path="url(#clip950)" d="M14.479 369.502 L72.5979 369.502 L72.5979 382.997 L68.0464 382.997 L68.0464 375.39 L19.0304 375.39 L19.0304 382.997 L14.479 382.997 L14.479 369.502 Z" fill="#000000" fill-rule="nonzero" fill-opacity="1" /><polyline clip-path="url(#clip952)" style="stroke:#0000ff; stroke-linecap:round; stroke-linejoin:round; stroke-width:12; stroke-opacity:1; fill:none" points="237.067,1134.97 257.815,660.481 278.564,594.985 299.312,553.955 320.06,523.557 340.808,499.213 361.556,478.812 382.304,461.197 403.052,445.661 423.801,431.741 444.549,419.114 465.297,407.547 486.045,396.866 506.793,386.938 527.541,377.656 548.289,368.938 569.038,360.714 589.786,352.929 610.534,345.534 631.282,338.49 652.03,331.764 672.778,325.325 693.526,319.15 714.275,313.215 735.023,307.502 755.771,301.994 776.519,296.675 797.267,291.533 818.015,286.554 838.764,281.729 859.512,277.047 880.26,272.499 901.008,268.078 921.756,263.777 942.504,259.588 963.252,255.506 984.001,251.524 1004.75,247.638 1025.5,243.843 1046.24,240.134 1066.99,236.507 1087.74,232.959 1108.49,229.486 1129.24,226.085 1149.99,222.752 1170.73,219.485 1191.48,216.28 1212.23,213.136 1232.98,210.05 1253.73,207.02 1274.47,204.043 1295.22,201.118 1315.97,198.243 1336.72,195.416 1357.47,192.635 1378.22,189.899 1398.96,187.206 1419.71,184.554 1440.46,181.943 1461.21,179.372 1481.96,176.838 1502.7,174.34 1523.45,171.879 1544.2,169.452 1564.95,167.058 1585.7,164.697 1606.45,162.367 1627.19,160.068 1647.94,157.799 1668.69,155.559 1689.44,153.347 1710.19,151.163 1730.93,149.005 1751.68,146.873 1772.43,144.767 1793.18,142.686 1813.93,140.628 1834.67,138.595 1855.42,136.584 1876.17,134.596 1896.92,132.629 1917.67,130.684 1938.42,128.76 1959.16,126.856 1979.91,124.973 2000.66,123.108 2021.41,121.263 2042.16,119.437 2062.9,117.629 2083.65,115.838 2104.4,114.066 2125.15,112.31 2145.9,110.571 2166.65,108.849 2187.39,107.143 2208.14,105.452 2228.89,103.777 2249.64,102.118 2270.39,100.473 2291.13,98.8426 "/>
<polyline clip-path="url(#clip952)" style="stroke:#0000ff; stroke-linecap:round; stroke-linejoin:round; stroke-width:12; stroke-opacity:1; fill:none" stroke-dasharray="6, 12" points="237.067,1349.5 257.815,1061.6 278.564,1003.44 299.312,965.56 320.06,936.886 340.808,913.602 361.556,893.897 382.304,876.758 403.052,861.557 423.801,847.877 444.549,835.425 465.297,823.987 486.045,813.402 506.793,803.544 527.541,794.316 548.289,785.637 569.038,777.443 589.786,769.68 610.534,762.303 631.282,755.274 652.03,748.56 672.778,742.132 693.526,735.966 714.275,730.042 735.023,724.339 755.771,718.842 776.519,713.535 797.267,708.405 818.015,703.441 838.764,698.632 859.512,693.967 880.26,689.439 901.008,685.039 921.756,680.761 942.504,676.596 963.252,672.54 984.001,668.586 1004.75,664.73 1025.5,660.966 1046.24,657.29 1066.99,653.699 1087.74,650.187 1108.49,646.752 1129.24,643.39 1149.99,640.099 1170.73,636.874 1191.48,633.714 1212.23,630.616 1232.98,627.577 1253.73,624.595 1274.47,621.669 1295.22,618.795 1315.97,615.973 1336.72,613.2 1357.47,610.474 1378.22,607.794 1398.96,605.159 1419.71,602.566 1440.46,600.015 1461.21,597.504 1481.96,595.033 1502.7,592.599 1523.45,590.201 1544.2,587.839 1564.95,585.512 1585.7,583.217 1606.45,580.956 1627.19,578.726 1647.94,576.527 1668.69,574.357 1689.44,572.217 1710.19,570.105 1730.93,568.02 1751.68,565.962 1772.43,563.931 1793.18,561.925 1813.93,559.944 1834.67,557.987 1855.42,556.053 1876.17,554.143 1896.92,552.256 1917.67,550.39 1938.42,548.546 1959.16,546.723 1979.91,544.921 2000.66,543.138 2021.41,541.375 2042.16,539.632 2062.9,537.907 2083.65,536.201 2104.4,534.513 2125.15,532.842 2145.9,531.189 2166.65,529.552 2187.39,527.933 2208.14,526.329 2228.89,524.742 2249.64,523.17 2270.39,521.613 2291.13,520.071 "/>
<polyline clip-path="url(#clip952)" style="stroke:#008000; stroke-linecap:round; stroke-linejoin:round; stroke-width:12; stroke-opacity:1; fill:none" points="237.067,1162.31 257.815,684.894 278.564,616.516 299.312,573.456 320.06,541.447 340.808,515.751 361.556,494.175 382.304,475.515 403.052,459.035 423.801,444.251 444.549,430.826 465.297,418.516 486.045,407.14 506.793,396.556 527.541,386.655 548.289,377.348 569.038,368.563 589.786,360.241 610.534,352.333 631.282,344.796 652.03,337.594 672.778,330.698 693.526,324.081 714.275,317.719 735.023,311.592 755.771,305.682 776.519,299.973 797.267,294.451 818.015,289.104 838.764,283.919 859.512,278.886 880.26,273.997 901.008,269.242 921.756,264.615 942.504,260.107 963.252,255.712 984.001,251.425 1004.75,247.24 1025.5,243.151 1046.24,239.154 1066.99,235.246 1087.74,231.42 1108.49,227.675 1129.24,224.006 1149.99,220.411 1170.73,216.885 1191.48,213.426 1212.23,210.032 1232.98,206.7 1253.73,203.428 1274.47,200.212 1295.22,197.052 1315.97,193.945 1336.72,190.889 1357.47,187.883 1378.22,184.925 1398.96,182.013 1419.71,179.145 1440.46,176.321 1461.21,173.538 1481.96,170.796 1502.7,168.094 1523.45,165.429 1544.2,162.801 1564.95,160.209 1585.7,157.652 1606.45,155.129 1627.19,152.639 1647.94,150.18 1668.69,147.753 1689.44,145.356 1710.19,142.988 1730.93,140.65 1751.68,138.339 1772.43,136.055 1793.18,133.798 1813.93,131.566 1834.67,129.36 1855.42,127.179 1876.17,125.022 1896.92,122.888 1917.67,120.777 1938.42,118.689 1959.16,116.622 1979.91,114.577 2000.66,112.553 2021.41,110.55 2042.16,108.566 2062.9,106.602 2083.65,104.658 2104.4,102.732 2125.15,100.824 2145.9,98.9349 2166.65,97.0632 2187.39,95.2089 2208.14,93.3716 2228.89,91.5509 2249.64,89.7466 2270.39,87.9583 2291.13,86.1857 "/>
<polyline clip-path="url(#clip952)" style="stroke:#ffc0cb; stroke-linecap:round; stroke-linejoin:round; stroke-width:12; stroke-opacity:1; fill:none" stroke-dasharray="6, 12" points="237.067,1368.1 257.815,1142.37 278.564,1100.62 299.312,1074.13 320.06,1054.37 340.808,1038.48 361.556,1025.11 382.304,1013.54 403.052,1003.3 423.801,994.116 444.549,985.764 465.297,978.1 486.045,971.012 506.793,964.412 527.541,958.233 548.289,952.421 569.038,946.931 589.786,941.727 610.534,936.778 631.282,932.058 652.03,927.546 672.778,923.223 693.526,919.071 714.275,915.078 735.023,911.23 755.771,907.516 776.519,903.926 797.267,900.453 818.015,897.087 838.764,893.821 859.512,890.65 880.26,887.568 901.008,884.569 921.756,881.649 942.504,878.803 963.252,876.027 984.001,873.317 1004.75,870.671 1025.5,868.085 1046.24,865.555 1066.99,863.081 1087.74,860.658 1108.49,858.284 1129.24,855.959 1149.99,853.678 1170.73,851.441 1191.48,849.246 1212.23,847.09 1232.98,844.974 1253.73,842.894 1274.47,840.849 1295.22,838.839 1315.97,836.863 1336.72,834.918 1357.47,833.003 1378.22,831.119 1398.96,829.263 1419.71,827.435 1440.46,825.634 1461.21,823.859 1481.96,822.109 1502.7,820.384 1523.45,818.682 1544.2,817.004 1564.95,815.347 1585.7,813.713 1606.45,812.099 1627.19,810.506 1647.94,808.933 1668.69,807.379 1689.44,805.844 1710.19,804.328 1730.93,802.829 1751.68,801.348 1772.43,799.884 1793.18,798.436 1813.93,797.005 1834.67,795.589 1855.42,794.189 1876.17,792.804 1896.92,791.433 1917.67,790.077 1938.42,788.735 1959.16,787.407 1979.91,786.092 2000.66,784.79 2021.41,783.501 2042.16,782.224 2062.9,780.96 2083.65,779.708 2104.4,778.467 2125.15,777.238 2145.9,776.021 2166.65,774.814 2187.39,773.618 2208.14,772.433 2228.89,771.259 2249.64,770.094 2270.39,768.94 2291.13,767.796 "/>
<polyline clip-path="url(#clip952)" style="stroke:#ffaeb9; stroke-linecap:round; stroke-linejoin:round; stroke-width:12; stroke-opacity:1; fill:none" stroke-dasharray="6, 12" points="237.067,1384.24 257.815,1140.19 278.564,1102.06 299.312,1077.98 320.06,1060.06 340.808,1045.66 361.556,1033.55 382.304,1023.08 403.052,1013.82 423.801,1005.51 444.549,997.955 465.297,991.028 486.045,984.625 506.793,978.665 527.541,973.087 548.289,967.843 569.038,962.892 589.786,958.2 610.534,953.74 631.282,949.489 652.03,945.426 672.778,941.534 693.526,937.799 714.275,934.207 735.023,930.747 755.771,927.409 776.519,924.184 797.267,921.065 818.015,918.043 838.764,915.113 859.512,912.268 880.26,909.504 901.008,906.816 921.756,904.199 942.504,901.65 963.252,899.164 984.001,896.739 1004.75,894.371 1025.5,892.057 1046.24,889.796 1066.99,887.584 1087.74,885.419 1108.49,883.298 1129.24,881.221 1149.99,879.186 1170.73,877.189 1191.48,875.231 1212.23,873.308 1232.98,871.421 1253.73,869.567 1274.47,867.746 1295.22,865.955 1315.97,864.195 1336.72,862.463 1357.47,860.76 1378.22,859.083 1398.96,857.433 1419.71,855.807 1440.46,854.206 1461.21,852.629 1481.96,851.074 1502.7,849.542 1523.45,848.031 1544.2,846.541 1564.95,845.071 1585.7,843.621 1606.45,842.189 1627.19,840.777 1647.94,839.382 1668.69,838.005 1689.44,836.645 1710.19,835.302 1730.93,833.975 1751.68,832.664 1772.43,831.368 1793.18,830.087 1813.93,828.821 1834.67,827.568 1855.42,826.33 1876.17,825.106 1896.92,823.895 1917.67,822.696 1938.42,821.511 1959.16,820.337 1979.91,819.176 2000.66,818.027 2021.41,816.889 2042.16,815.763 2062.9,814.648 2083.65,813.543 2104.4,812.45 2125.15,811.366 2145.9,810.293 2166.65,809.23 2187.39,808.177 2208.14,807.133 2228.89,806.099 2249.64,805.074 2270.39,804.058 2291.13,803.051 "/>
<polyline clip-path="url(#clip952)" style="stroke:#ff0000; stroke-linecap:round; stroke-linejoin:round; stroke-width:12; stroke-opacity:1; fill:none" points="237.067,1273.46 257.815,1240.14 278.564,1237.03 299.312,1235.18 320.06,1233.85 340.808,1232.81 361.556,1231.96 382.304,1231.23 403.052,1230.6 423.801,1230.04 444.549,1229.54 465.297,1229.08 486.045,1228.67 506.793,1228.28 527.541,1227.93 548.289,1227.59 569.038,1227.28 589.786,1226.99 610.534,1226.71 631.282,1226.45 652.03,1226.2 672.778,1225.96 693.526,1225.73 714.275,1225.52 735.023,1225.31 755.771,1225.11 776.519,1224.91 797.267,1224.73 818.015,1224.55 838.764,1224.38 859.512,1224.21 880.26,1224.05 901.008,1223.89 921.756,1223.74 942.504,1223.59 963.252,1223.45 984.001,1223.31 1004.75,1223.17 1025.5,1223.04 1046.24,1222.91 1066.99,1222.78 1087.74,1222.66 1108.49,1222.54 1129.24,1222.42 1149.99,1222.31 1170.73,1222.2 1191.48,1222.09 1212.23,1221.98 1232.98,1221.87 1253.73,1221.77 1274.47,1221.67 1295.22,1221.57 1315.97,1221.47 1336.72,1221.38 1357.47,1221.28 1378.22,1221.19 1398.96,1221.1 1419.71,1221.01 1440.46,1220.92 1461.21,1220.84 1481.96,1220.75 1502.7,1220.67 1523.45,1220.59 1544.2,1220.51 1564.95,1220.43 1585.7,1220.35 1606.45,1220.27 1627.19,1220.2 1647.94,1220.12 1668.69,1220.05 1689.44,1219.97 1710.19,1219.9 1730.93,1219.83 1751.68,1219.76 1772.43,1219.69 1793.18,1219.62 1813.93,1219.56 1834.67,1219.49 1855.42,1219.42 1876.17,1219.36 1896.92,1219.3 1917.67,1219.23 1938.42,1219.17 1959.16,1219.11 1979.91,1219.05 2000.66,1218.99 2021.41,1218.93 2042.16,1218.87 2062.9,1218.81 2083.65,1218.75 2104.4,1218.7 2125.15,1218.64 2145.9,1218.58 2166.65,1218.53 2187.39,1218.47 2208.14,1218.42 2228.89,1218.37 2249.64,1218.31 2270.39,1218.26 2291.13,1218.21 "/>
<polyline clip-path="url(#clip952)" style="stroke:#ff0000; stroke-linecap:round; stroke-linejoin:round; stroke-width:12; stroke-opacity:1; fill:none" stroke-dasharray="6, 12" points="237.067,1157.72 257.815,1137.46 278.564,1136.46 299.312,1135.89 320.06,1135.49 340.808,1135.18 361.556,1134.93 382.304,1134.72 403.052,1134.54 423.801,1134.38 444.549,1134.24 465.297,1134.11 486.045,1133.99 506.793,1133.89 527.541,1133.79 548.289,1133.69 569.038,1133.61 589.786,1133.53 610.534,1133.45 631.282,1133.38 652.03,1133.31 672.778,1133.25 693.526,1133.19 714.275,1133.13 735.023,1133.07 755.771,1133.02 776.519,1132.97 797.267,1132.92 818.015,1132.87 838.764,1132.82 859.512,1132.78 880.26,1132.74 901.008,1132.69 921.756,1132.65 942.504,1132.62 963.252,1132.58 984.001,1132.54 1004.75,1132.5 1025.5,1132.47 1046.24,1132.44 1066.99,1132.4 1087.74,1132.37 1108.49,1132.34 1129.24,1132.31 1149.99,1132.28 1170.73,1132.25 1191.48,1132.22 1212.23,1132.19 1232.98,1132.17 1253.73,1132.14 1274.47,1132.11 1295.22,1132.09 1315.97,1132.06 1336.72,1132.04 1357.47,1132.01 1378.22,1131.99 1398.96,1131.96 1419.71,1131.94 1440.46,1131.92 1461.21,1131.9 1481.96,1131.88 1502.7,1131.85 1523.45,1131.83 1544.2,1131.81 1564.95,1131.79 1585.7,1131.77 1606.45,1131.75 1627.19,1131.73 1647.94,1131.71 1668.69,1131.69 1689.44,1131.68 1710.19,1131.66 1730.93,1131.64 1751.68,1131.62 1772.43,1131.6 1793.18,1131.59 1813.93,1131.57 1834.67,1131.55 1855.42,1131.53 1876.17,1131.52 1896.92,1131.5 1917.67,1131.49 1938.42,1131.47 1959.16,1131.45 1979.91,1131.44 2000.66,1131.42 2021.41,1131.41 2042.16,1131.39 2062.9,1131.38 2083.65,1131.36 2104.4,1131.35 2125.15,1131.34 2145.9,1131.32 2166.65,1131.31 2187.39,1131.29 2208.14,1131.28 2228.89,1131.27 2249.64,1131.25 2270.39,1131.24 2291.13,1131.23 "/>
<path clip-path="url(#clip950)" d="M248.022 507.829 L861.492 507.829 L861.492 93.1086 L248.022 93.1086  Z" fill="#ffffff" fill-rule="evenodd" fill-opacity="1"/>
<polyline clip-path="url(#clip950)" style="stroke:#000000; stroke-linecap:round; stroke-linejoin:round; stroke-width:4; stroke-opacity:1; fill:none" points="248.022,507.829 861.492,507.829 861.492,93.1086 248.022,93.1086 248.022,507.829 "/>
<polyline clip-path="url(#clip950)" style="stroke:#0000ff; stroke-linecap:round; stroke-linejoin:round; stroke-width:12; stroke-opacity:1; fill:none" points="272.215,144.949 417.369,144.949 "/>
<path clip-path="url(#clip950)" d="M457.95 146.025 Q459.454 146.534 460.866 148.201 Q462.302 149.868 463.737 152.784 L468.482 162.229 L463.459 162.229 L459.038 153.363 Q457.325 149.891 455.704 148.756 Q454.107 147.622 451.329 147.622 L446.237 147.622 L446.237 162.229 L441.561 162.229 L441.561 127.669 L452.116 127.669 Q458.042 127.669 460.959 130.145 Q463.876 132.622 463.876 137.622 Q463.876 140.886 462.348 143.039 Q460.843 145.192 457.95 146.025 M446.237 131.511 L446.237 143.78 L452.116 143.78 Q455.496 143.78 457.209 142.229 Q458.945 140.655 458.945 137.622 Q458.945 134.59 457.209 133.062 Q455.496 131.511 452.116 131.511 L446.237 131.511 Z" fill="#000000" fill-rule="nonzero" fill-opacity="1" /><path clip-path="url(#clip950)" d="M485.056 149.196 Q479.894 149.196 477.903 150.377 Q475.913 151.557 475.913 154.405 Q475.913 156.673 477.394 158.016 Q478.899 159.335 481.468 159.335 Q485.01 159.335 487.139 156.835 Q489.292 154.312 489.292 150.145 L489.292 149.196 L485.056 149.196 M493.551 147.437 L493.551 162.229 L489.292 162.229 L489.292 158.293 Q487.834 160.655 485.658 161.789 Q483.482 162.9 480.334 162.9 Q476.352 162.9 473.991 160.678 Q471.653 158.432 471.653 154.682 Q471.653 150.307 474.57 148.085 Q477.51 145.863 483.32 145.863 L489.292 145.863 L489.292 145.446 Q489.292 142.507 487.348 140.909 Q485.426 139.289 481.931 139.289 Q479.709 139.289 477.602 139.821 Q475.496 140.354 473.552 141.419 L473.552 137.483 Q475.889 136.581 478.089 136.141 Q480.288 135.678 482.371 135.678 Q487.996 135.678 490.774 138.594 Q493.551 141.511 493.551 147.437 Z" fill="#000000" fill-rule="nonzero" fill-opacity="1" /><path clip-path="url(#clip950)" d="M502.325 136.303 L506.584 136.303 L506.584 162.229 L502.325 162.229 L502.325 136.303 M502.325 126.21 L506.584 126.21 L506.584 131.604 L502.325 131.604 L502.325 126.21 Z" fill="#000000" fill-rule="nonzero" fill-opacity="1" /><path clip-path="url(#clip950)" d="M537.047 146.581 L537.047 162.229 L532.787 162.229 L532.787 146.719 Q532.787 143.039 531.352 141.21 Q529.917 139.382 527.047 139.382 Q523.598 139.382 521.607 141.581 Q519.616 143.78 519.616 147.576 L519.616 162.229 L515.334 162.229 L515.334 136.303 L519.616 136.303 L519.616 140.331 Q521.144 137.993 523.204 136.835 Q525.287 135.678 527.996 135.678 Q532.463 135.678 534.755 138.456 Q537.047 141.21 537.047 146.581 Z" fill="#000000" fill-rule="nonzero" fill-opacity="1" /><path clip-path="url(#clip950)" d="M543.389 147.344 L555.866 147.344 L555.866 151.141 L543.389 151.141 L543.389 147.344 Z" fill="#000000" fill-rule="nonzero" fill-opacity="1" /><path clip-path="url(#clip950)" d="M564.06 158.293 L571.699 158.293 L571.699 131.928 L563.389 133.595 L563.389 129.335 L571.653 127.669 L576.329 127.669 L576.329 158.293 L583.968 158.293 L583.968 162.229 L564.06 162.229 L564.06 158.293 Z" fill="#000000" fill-rule="nonzero" fill-opacity="1" /><path clip-path="url(#clip950)" d="M592.995 127.669 L599.963 127.669 L608.782 151.187 L617.648 127.669 L624.616 127.669 L624.616 162.229 L620.055 162.229 L620.055 131.882 L611.143 155.585 L606.444 155.585 L597.532 131.882 L597.532 162.229 L592.995 162.229 L592.995 127.669 Z" fill="#000000" fill-rule="nonzero" fill-opacity="1" /><path clip-path="url(#clip950)" d="M631.56 147.344 L644.037 147.344 L644.037 151.141 L631.56 151.141 L631.56 147.344 Z" fill="#000000" fill-rule="nonzero" fill-opacity="1" /><path clip-path="url(#clip950)" d="M667.879 140.238 L667.879 126.21 L672.138 126.21 L672.138 162.229 L667.879 162.229 L667.879 158.34 Q666.537 160.655 664.476 161.789 Q662.439 162.9 659.569 162.9 Q654.87 162.9 651.907 159.15 Q648.967 155.4 648.967 149.289 Q648.967 143.178 651.907 139.428 Q654.87 135.678 659.569 135.678 Q662.439 135.678 664.476 136.812 Q666.537 137.923 667.879 140.238 M653.365 149.289 Q653.365 153.988 655.287 156.673 Q657.231 159.335 660.611 159.335 Q663.99 159.335 665.935 156.673 Q667.879 153.988 667.879 149.289 Q667.879 144.59 665.935 141.928 Q663.99 139.243 660.611 139.243 Q657.231 139.243 655.287 141.928 Q653.365 144.59 653.365 149.289 Z" fill="#000000" fill-rule="nonzero" fill-opacity="1" /><path clip-path="url(#clip950)" d="M703.087 148.201 L703.087 150.284 L683.504 150.284 Q683.782 154.682 686.143 156.997 Q688.527 159.289 692.763 159.289 Q695.217 159.289 697.509 158.687 Q699.823 158.085 702.092 156.881 L702.092 160.909 Q699.8 161.881 697.393 162.391 Q694.986 162.9 692.509 162.9 Q686.305 162.9 682.671 159.289 Q679.06 155.678 679.06 149.52 Q679.06 143.155 682.486 139.428 Q685.935 135.678 691.768 135.678 Q696.999 135.678 700.032 139.057 Q703.087 142.414 703.087 148.201 M698.828 146.951 Q698.782 143.456 696.861 141.372 Q694.962 139.289 691.814 139.289 Q688.249 139.289 686.097 141.303 Q683.967 143.317 683.643 146.974 L698.828 146.951 Z" fill="#000000" fill-rule="nonzero" fill-opacity="1" /><path clip-path="url(#clip950)" d="M723.203 126.21 L723.203 129.752 L719.129 129.752 Q716.837 129.752 715.934 130.678 Q715.055 131.604 715.055 134.011 L715.055 136.303 L722.069 136.303 L722.069 139.613 L715.055 139.613 L715.055 162.229 L710.772 162.229 L710.772 139.613 L706.698 139.613 L706.698 136.303 L710.772 136.303 L710.772 134.497 Q710.772 130.169 712.786 128.201 Q714.8 126.21 719.175 126.21 L723.203 126.21 Z" fill="#000000" fill-rule="nonzero" fill-opacity="1" /><path clip-path="url(#clip950)" d="M738.55 149.196 Q733.388 149.196 731.397 150.377 Q729.407 151.557 729.407 154.405 Q729.407 156.673 730.888 158.016 Q732.393 159.335 734.962 159.335 Q738.504 159.335 740.633 156.835 Q742.786 154.312 742.786 150.145 L742.786 149.196 L738.55 149.196 M747.045 147.437 L747.045 162.229 L742.786 162.229 L742.786 158.293 Q741.328 160.655 739.152 161.789 Q736.976 162.9 733.828 162.9 Q729.846 162.9 727.485 160.678 Q725.147 158.432 725.147 154.682 Q725.147 150.307 728.064 148.085 Q731.004 145.863 736.814 145.863 L742.786 145.863 L742.786 145.446 Q742.786 142.507 740.842 140.909 Q738.92 139.289 735.425 139.289 Q733.203 139.289 731.096 139.821 Q728.99 140.354 727.046 141.419 L727.046 137.483 Q729.383 136.581 731.583 136.141 Q733.782 135.678 735.865 135.678 Q741.49 135.678 744.268 138.594 Q747.045 141.511 747.045 147.437 Z" fill="#000000" fill-rule="nonzero" fill-opacity="1" /><path clip-path="url(#clip950)" d="M755.379 151.997 L755.379 136.303 L759.638 136.303 L759.638 151.835 Q759.638 155.516 761.073 157.368 Q762.508 159.196 765.379 159.196 Q768.828 159.196 770.818 156.997 Q772.832 154.798 772.832 151.002 L772.832 136.303 L777.092 136.303 L777.092 162.229 L772.832 162.229 L772.832 158.247 Q771.281 160.608 769.221 161.766 Q767.184 162.9 764.476 162.9 Q760.008 162.9 757.694 160.122 Q755.379 157.344 755.379 151.997 M766.096 135.678 L766.096 135.678 Z" fill="#000000" fill-rule="nonzero" fill-opacity="1" /><path clip-path="url(#clip950)" d="M785.865 126.21 L790.124 126.21 L790.124 162.229 L785.865 162.229 L785.865 126.21 Z" fill="#000000" fill-rule="nonzero" fill-opacity="1" /><path clip-path="url(#clip950)" d="M803.249 128.942 L803.249 136.303 L812.022 136.303 L812.022 139.613 L803.249 139.613 L803.249 153.687 Q803.249 156.858 804.105 157.761 Q804.985 158.664 807.647 158.664 L812.022 158.664 L812.022 162.229 L807.647 162.229 Q802.716 162.229 800.841 160.4 Q798.966 158.548 798.966 153.687 L798.966 139.613 L795.841 139.613 L795.841 136.303 L798.966 136.303 L798.966 128.942 L803.249 128.942 Z" fill="#000000" fill-rule="nonzero" fill-opacity="1" /><polyline clip-path="url(#clip950)" style="stroke:#0000ff; stroke-linecap:round; stroke-linejoin:round; stroke-width:12; stroke-opacity:1; fill:none" stroke-dasharray="6, 12" points="272.215,196.789 417.369,196.789 "/>
<path clip-path="url(#clip950)" d="M457.95 197.865 Q459.454 198.374 460.866 200.041 Q462.302 201.708 463.737 204.624 L468.482 214.069 L463.459 214.069 L459.038 205.203 Q457.325 201.731 455.704 200.596 Q454.107 199.462 451.329 199.462 L446.237 199.462 L446.237 214.069 L441.561 214.069 L441.561 179.509 L452.116 179.509 Q458.042 179.509 460.959 181.985 Q463.876 184.462 463.876 189.462 Q463.876 192.726 462.348 194.879 Q460.843 197.032 457.95 197.865 M446.237 183.351 L446.237 195.62 L452.116 195.62 Q455.496 195.62 457.209 194.069 Q458.945 192.495 458.945 189.462 Q458.945 186.43 457.209 184.902 Q455.496 183.351 452.116 183.351 L446.237 183.351 Z" fill="#000000" fill-rule="nonzero" fill-opacity="1" /><path clip-path="url(#clip950)" d="M485.056 201.036 Q479.894 201.036 477.903 202.217 Q475.913 203.397 475.913 206.245 Q475.913 208.513 477.394 209.856 Q478.899 211.175 481.468 211.175 Q485.01 211.175 487.139 208.675 Q489.292 206.152 489.292 201.985 L489.292 201.036 L485.056 201.036 M493.551 199.277 L493.551 214.069 L489.292 214.069 L489.292 210.133 Q487.834 212.495 485.658 213.629 Q483.482 214.74 480.334 214.74 Q476.352 214.74 473.991 212.518 Q471.653 210.272 471.653 206.522 Q471.653 202.147 474.57 199.925 Q477.51 197.703 483.32 197.703 L489.292 197.703 L489.292 197.286 Q489.292 194.347 487.348 192.749 Q485.426 191.129 481.931 191.129 Q479.709 191.129 477.602 191.661 Q475.496 192.194 473.552 193.259 L473.552 189.323 Q475.889 188.421 478.089 187.981 Q480.288 187.518 482.371 187.518 Q487.996 187.518 490.774 190.434 Q493.551 193.351 493.551 199.277 Z" fill="#000000" fill-rule="nonzero" fill-opacity="1" /><path clip-path="url(#clip950)" d="M502.325 188.143 L506.584 188.143 L506.584 214.069 L502.325 214.069 L502.325 188.143 M502.325 178.05 L506.584 178.05 L506.584 183.444 L502.325 183.444 L502.325 178.05 Z" fill="#000000" fill-rule="nonzero" fill-opacity="1" /><path clip-path="url(#clip950)" d="M537.047 198.421 L537.047 214.069 L532.787 214.069 L532.787 198.559 Q532.787 194.879 531.352 193.05 Q529.917 191.222 527.047 191.222 Q523.598 191.222 521.607 193.421 Q519.616 195.62 519.616 199.416 L519.616 214.069 L515.334 214.069 L515.334 188.143 L519.616 188.143 L519.616 192.171 Q521.144 189.833 523.204 188.675 Q525.287 187.518 527.996 187.518 Q532.463 187.518 534.755 190.296 Q537.047 193.05 537.047 198.421 Z" fill="#000000" fill-rule="nonzero" fill-opacity="1" /><path clip-path="url(#clip950)" d="M543.389 199.184 L555.866 199.184 L555.866 202.981 L543.389 202.981 L543.389 199.184 Z" fill="#000000" fill-rule="nonzero" fill-opacity="1" /><path clip-path="url(#clip950)" d="M588.713 182.171 L588.713 187.101 Q586.352 184.902 583.667 183.814 Q581.005 182.726 577.995 182.726 Q572.07 182.726 568.921 186.36 Q565.773 189.972 565.773 196.823 Q565.773 203.652 568.921 207.286 Q572.07 210.897 577.995 210.897 Q581.005 210.897 583.667 209.809 Q586.352 208.721 588.713 206.522 L588.713 211.407 Q586.259 213.073 583.505 213.907 Q580.773 214.74 577.718 214.74 Q569.87 214.74 565.357 209.948 Q560.843 205.133 560.843 196.823 Q560.843 188.49 565.357 183.698 Q569.87 178.884 577.718 178.884 Q580.819 178.884 583.551 179.717 Q586.306 180.527 588.713 182.171 Z" fill="#000000" fill-rule="nonzero" fill-opacity="1" /><path clip-path="url(#clip950)" d="M617.301 198.421 L617.301 214.069 L613.042 214.069 L613.042 198.559 Q613.042 194.879 611.606 193.05 Q610.171 191.222 607.301 191.222 Q603.852 191.222 601.861 193.421 Q599.87 195.62 599.87 199.416 L599.87 214.069 L595.588 214.069 L595.588 178.05 L599.87 178.05 L599.87 192.171 Q601.398 189.833 603.458 188.675 Q605.542 187.518 608.25 187.518 Q612.717 187.518 615.009 190.296 Q617.301 193.05 617.301 198.421 Z" fill="#000000" fill-rule="nonzero" fill-opacity="1" /><path clip-path="url(#clip950)" d="M647.972 200.041 L647.972 202.124 L628.389 202.124 Q628.666 206.522 631.028 208.837 Q633.412 211.129 637.648 211.129 Q640.102 211.129 642.393 210.527 Q644.708 209.925 646.977 208.721 L646.977 212.749 Q644.685 213.721 642.277 214.231 Q639.87 214.74 637.393 214.74 Q631.19 214.74 627.555 211.129 Q623.944 207.518 623.944 201.36 Q623.944 194.995 627.37 191.268 Q630.819 187.518 636.653 187.518 Q641.884 187.518 644.916 190.897 Q647.972 194.254 647.972 200.041 M643.713 198.791 Q643.666 195.296 641.745 193.212 Q639.847 191.129 636.699 191.129 Q633.134 191.129 630.981 193.143 Q628.852 195.157 628.528 198.814 L643.713 198.791 Z" fill="#000000" fill-rule="nonzero" fill-opacity="1" /><path clip-path="url(#clip950)" d="M676.513 198.421 L676.513 214.069 L672.254 214.069 L672.254 198.559 Q672.254 194.879 670.819 193.05 Q669.384 191.222 666.513 191.222 Q663.064 191.222 661.074 193.421 Q659.083 195.62 659.083 199.416 L659.083 214.069 L654.801 214.069 L654.801 188.143 L659.083 188.143 L659.083 192.171 Q660.611 189.833 662.671 188.675 Q664.754 187.518 667.463 187.518 Q671.93 187.518 674.222 190.296 Q676.513 193.05 676.513 198.421 Z" fill="#000000" fill-rule="nonzero" fill-opacity="1" /><polyline clip-path="url(#clip950)" style="stroke:#008000; stroke-linecap:round; stroke-linejoin:round; stroke-width:12; stroke-opacity:1; fill:none" points="272.215,248.629 417.369,248.629 "/>
<path clip-path="url(#clip950)" d="M457.95 249.705 Q459.454 250.214 460.866 251.881 Q462.302 253.548 463.737 256.464 L468.482 265.909 L463.459 265.909 L459.038 257.043 Q457.325 253.571 455.704 252.436 Q454.107 251.302 451.329 251.302 L446.237 251.302 L446.237 265.909 L441.561 265.909 L441.561 231.349 L452.116 231.349 Q458.042 231.349 460.959 233.825 Q463.876 236.302 463.876 241.302 Q463.876 244.566 462.348 246.719 Q460.843 248.872 457.95 249.705 M446.237 235.191 L446.237 247.46 L452.116 247.46 Q455.496 247.46 457.209 245.909 Q458.945 244.335 458.945 241.302 Q458.945 238.27 457.209 236.742 Q455.496 235.191 452.116 235.191 L446.237 235.191 Z" fill="#000000" fill-rule="nonzero" fill-opacity="1" /><path clip-path="url(#clip950)" d="M485.056 252.876 Q479.894 252.876 477.903 254.057 Q475.913 255.237 475.913 258.085 Q475.913 260.353 477.394 261.696 Q478.899 263.015 481.468 263.015 Q485.01 263.015 487.139 260.515 Q489.292 257.992 489.292 253.825 L489.292 252.876 L485.056 252.876 M493.551 251.117 L493.551 265.909 L489.292 265.909 L489.292 261.973 Q487.834 264.335 485.658 265.469 Q483.482 266.58 480.334 266.58 Q476.352 266.58 473.991 264.358 Q471.653 262.112 471.653 258.362 Q471.653 253.987 474.57 251.765 Q477.51 249.543 483.32 249.543 L489.292 249.543 L489.292 249.126 Q489.292 246.187 487.348 244.589 Q485.426 242.969 481.931 242.969 Q479.709 242.969 477.602 243.501 Q475.496 244.034 473.552 245.099 L473.552 241.163 Q475.889 240.261 478.089 239.821 Q480.288 239.358 482.371 239.358 Q487.996 239.358 490.774 242.274 Q493.551 245.191 493.551 251.117 Z" fill="#000000" fill-rule="nonzero" fill-opacity="1" /><path clip-path="url(#clip950)" d="M502.325 239.983 L506.584 239.983 L506.584 265.909 L502.325 265.909 L502.325 239.983 M502.325 229.89 L506.584 229.89 L506.584 235.284 L502.325 235.284 L502.325 229.89 Z" fill="#000000" fill-rule="nonzero" fill-opacity="1" /><path clip-path="url(#clip950)" d="M537.047 250.261 L537.047 265.909 L532.787 265.909 L532.787 250.399 Q532.787 246.719 531.352 244.89 Q529.917 243.062 527.047 243.062 Q523.598 243.062 521.607 245.261 Q519.616 247.46 519.616 251.256 L519.616 265.909 L515.334 265.909 L515.334 239.983 L519.616 239.983 L519.616 244.011 Q521.144 241.673 523.204 240.515 Q525.287 239.358 527.996 239.358 Q532.463 239.358 534.755 242.136 Q537.047 244.89 537.047 250.261 Z" fill="#000000" fill-rule="nonzero" fill-opacity="1" /><path clip-path="url(#clip950)" d="M543.389 251.024 L555.866 251.024 L555.866 254.821 L543.389 254.821 L543.389 251.024 Z" fill="#000000" fill-rule="nonzero" fill-opacity="1" /><path clip-path="url(#clip950)" d="M562.833 231.349 L584.685 231.349 L584.685 235.284 L567.509 235.284 L567.509 245.515 L583.968 245.515 L583.968 249.45 L567.509 249.45 L567.509 261.973 L585.102 261.973 L585.102 265.909 L562.833 265.909 L562.833 231.349 Z" fill="#000000" fill-rule="nonzero" fill-opacity="1" /><path clip-path="url(#clip950)" d="M612.787 244.96 Q614.384 242.089 616.606 240.724 Q618.829 239.358 621.838 239.358 Q625.889 239.358 628.088 242.205 Q630.287 245.029 630.287 250.261 L630.287 265.909 L626.004 265.909 L626.004 250.399 Q626.004 246.673 624.685 244.867 Q623.366 243.062 620.657 243.062 Q617.347 243.062 615.426 245.261 Q613.504 247.46 613.504 251.256 L613.504 265.909 L609.222 265.909 L609.222 250.399 Q609.222 246.649 607.903 244.867 Q606.583 243.062 603.829 243.062 Q600.565 243.062 598.643 245.284 Q596.722 247.483 596.722 251.256 L596.722 265.909 L592.44 265.909 L592.44 239.983 L596.722 239.983 L596.722 244.011 Q598.18 241.626 600.218 240.492 Q602.255 239.358 605.055 239.358 Q607.88 239.358 609.847 240.793 Q611.838 242.228 612.787 244.96 Z" fill="#000000" fill-rule="nonzero" fill-opacity="1" /><path clip-path="url(#clip950)" d="M642.902 262.02 L642.902 275.77 L638.62 275.77 L638.62 239.983 L642.902 239.983 L642.902 243.918 Q644.245 241.603 646.282 240.492 Q648.342 239.358 651.189 239.358 Q655.912 239.358 658.851 243.108 Q661.814 246.858 661.814 252.969 Q661.814 259.08 658.851 262.83 Q655.912 266.58 651.189 266.58 Q648.342 266.58 646.282 265.469 Q644.245 264.335 642.902 262.02 M657.393 252.969 Q657.393 248.27 655.449 245.608 Q653.527 242.923 650.148 242.923 Q646.768 242.923 644.824 245.608 Q642.902 248.27 642.902 252.969 Q642.902 257.668 644.824 260.353 Q646.768 263.015 650.148 263.015 Q653.527 263.015 655.449 260.353 Q657.393 257.668 657.393 252.969 Z" fill="#000000" fill-rule="nonzero" fill-opacity="1" /><path clip-path="url(#clip950)" d="M668.875 239.983 L673.134 239.983 L673.134 265.909 L668.875 265.909 L668.875 239.983 M668.875 229.89 L673.134 229.89 L673.134 235.284 L668.875 235.284 L668.875 229.89 Z" fill="#000000" fill-rule="nonzero" fill-opacity="1" /><path clip-path="url(#clip950)" d="M697.069 243.964 Q696.351 243.548 695.495 243.362 Q694.661 243.154 693.643 243.154 Q690.032 243.154 688.087 245.515 Q686.166 247.853 686.166 252.251 L686.166 265.909 L681.884 265.909 L681.884 239.983 L686.166 239.983 L686.166 244.011 Q687.509 241.649 689.661 240.515 Q691.814 239.358 694.893 239.358 Q695.333 239.358 695.865 239.427 Q696.398 239.474 697.046 239.589 L697.069 243.964 Z" fill="#000000" fill-rule="nonzero" fill-opacity="1" /><path clip-path="url(#clip950)" d="M701.536 239.983 L705.796 239.983 L705.796 265.909 L701.536 265.909 L701.536 239.983 M701.536 229.89 L705.796 229.89 L705.796 235.284 L701.536 235.284 L701.536 229.89 Z" fill="#000000" fill-rule="nonzero" fill-opacity="1" /><path clip-path="url(#clip950)" d="M733.365 240.978 L733.365 244.96 Q731.559 243.964 729.731 243.478 Q727.925 242.969 726.073 242.969 Q721.93 242.969 719.638 245.608 Q717.347 248.224 717.347 252.969 Q717.347 257.714 719.638 260.353 Q721.93 262.969 726.073 262.969 Q727.925 262.969 729.731 262.483 Q731.559 261.973 733.365 260.978 L733.365 264.913 Q731.583 265.747 729.661 266.163 Q727.763 266.58 725.61 266.58 Q719.754 266.58 716.305 262.899 Q712.856 259.219 712.856 252.969 Q712.856 246.626 716.328 242.992 Q719.823 239.358 725.888 239.358 Q727.856 239.358 729.731 239.775 Q731.606 240.168 733.365 240.978 Z" fill="#000000" fill-rule="nonzero" fill-opacity="1" /><path clip-path="url(#clip950)" d="M752.555 252.876 Q747.393 252.876 745.402 254.057 Q743.411 255.237 743.411 258.085 Q743.411 260.353 744.893 261.696 Q746.397 263.015 748.967 263.015 Q752.508 263.015 754.638 260.515 Q756.791 257.992 756.791 253.825 L756.791 252.876 L752.555 252.876 M761.05 251.117 L761.05 265.909 L756.791 265.909 L756.791 261.973 Q755.332 264.335 753.157 265.469 Q750.981 266.58 747.832 266.58 Q743.851 266.58 741.49 264.358 Q739.152 262.112 739.152 258.362 Q739.152 253.987 742.069 251.765 Q745.008 249.543 750.819 249.543 L756.791 249.543 L756.791 249.126 Q756.791 246.187 754.846 244.589 Q752.925 242.969 749.43 242.969 Q747.207 242.969 745.101 243.501 Q742.995 244.034 741.05 245.099 L741.05 241.163 Q743.388 240.261 745.587 239.821 Q747.786 239.358 749.869 239.358 Q755.494 239.358 758.272 242.274 Q761.05 245.191 761.05 251.117 Z" fill="#000000" fill-rule="nonzero" fill-opacity="1" /><path clip-path="url(#clip950)" d="M769.823 229.89 L774.082 229.89 L774.082 265.909 L769.823 265.909 L769.823 229.89 Z" fill="#000000" fill-rule="nonzero" fill-opacity="1" /><polyline clip-path="url(#clip950)" style="stroke:#ffc0cb; stroke-linecap:round; stroke-linejoin:round; stroke-width:12; stroke-opacity:1; fill:none" stroke-dasharray="6, 12" points="272.215,300.469 417.369,300.469 "/>
<path clip-path="url(#clip950)" d="M441.561 283.189 L446.237 283.189 L446.237 317.749 L441.561 317.749 L441.561 283.189 Z" fill="#000000" fill-rule="nonzero" fill-opacity="1" /><path clip-path="url(#clip950)" d="M474.014 292.818 L474.014 296.8 Q472.209 295.804 470.38 295.318 Q468.575 294.809 466.723 294.809 Q462.579 294.809 460.288 297.448 Q457.996 300.064 457.996 304.809 Q457.996 309.554 460.288 312.193 Q462.579 314.809 466.723 314.809 Q468.575 314.809 470.38 314.323 Q472.209 313.813 474.014 312.818 L474.014 316.753 Q472.232 317.587 470.311 318.003 Q468.413 318.42 466.26 318.42 Q460.403 318.42 456.954 314.739 Q453.505 311.059 453.505 304.809 Q453.505 298.466 456.978 294.832 Q460.473 291.198 466.538 291.198 Q468.505 291.198 470.38 291.615 Q472.255 292.008 474.014 292.818 Z" fill="#000000" fill-rule="nonzero" fill-opacity="1" /><path clip-path="url(#clip950)" d="M503.598 303.721 L503.598 305.804 L484.014 305.804 Q484.292 310.202 486.653 312.517 Q489.038 314.809 493.274 314.809 Q495.727 314.809 498.019 314.207 Q500.334 313.605 502.602 312.401 L502.602 316.429 Q500.311 317.401 497.903 317.911 Q495.496 318.42 493.019 318.42 Q486.815 318.42 483.181 314.809 Q479.57 311.198 479.57 305.04 Q479.57 298.675 482.996 294.948 Q486.445 291.198 492.278 291.198 Q497.51 291.198 500.542 294.577 Q503.598 297.934 503.598 303.721 M499.338 302.471 Q499.292 298.976 497.371 296.892 Q495.473 294.809 492.325 294.809 Q488.76 294.809 486.607 296.823 Q484.477 298.837 484.153 302.494 L499.338 302.471 Z" fill="#000000" fill-rule="nonzero" fill-opacity="1" /><path clip-path="url(#clip950)" d="M508.436 302.864 L520.912 302.864 L520.912 306.661 L508.436 306.661 L508.436 302.864 Z" fill="#000000" fill-rule="nonzero" fill-opacity="1" /><path clip-path="url(#clip950)" d="M553.759 285.851 L553.759 290.781 Q551.398 288.582 548.713 287.494 Q546.051 286.406 543.042 286.406 Q537.116 286.406 533.968 290.04 Q530.82 293.652 530.82 300.503 Q530.82 307.332 533.968 310.966 Q537.116 314.577 543.042 314.577 Q546.051 314.577 548.713 313.489 Q551.398 312.401 553.759 310.202 L553.759 315.087 Q551.306 316.753 548.551 317.587 Q545.82 318.42 542.764 318.42 Q534.917 318.42 530.403 313.628 Q525.889 308.813 525.889 300.503 Q525.889 292.17 530.403 287.378 Q534.917 282.564 542.764 282.564 Q545.866 282.564 548.597 283.397 Q551.352 284.207 553.759 285.851 Z" fill="#000000" fill-rule="nonzero" fill-opacity="1" /><path clip-path="url(#clip950)" d="M582.347 302.101 L582.347 317.749 L578.088 317.749 L578.088 302.239 Q578.088 298.559 576.653 296.73 Q575.218 294.902 572.347 294.902 Q568.898 294.902 566.908 297.101 Q564.917 299.3 564.917 303.096 L564.917 317.749 L560.634 317.749 L560.634 281.73 L564.917 281.73 L564.917 295.851 Q566.445 293.513 568.505 292.355 Q570.588 291.198 573.296 291.198 Q577.764 291.198 580.056 293.976 Q582.347 296.73 582.347 302.101 Z" fill="#000000" fill-rule="nonzero" fill-opacity="1" /><path clip-path="url(#clip950)" d="M613.018 303.721 L613.018 305.804 L593.435 305.804 Q593.713 310.202 596.074 312.517 Q598.458 314.809 602.694 314.809 Q605.148 314.809 607.44 314.207 Q609.755 313.605 612.023 312.401 L612.023 316.429 Q609.731 317.401 607.324 317.911 Q604.917 318.42 602.44 318.42 Q596.236 318.42 592.602 314.809 Q588.991 311.198 588.991 305.04 Q588.991 298.675 592.417 294.948 Q595.866 291.198 601.699 291.198 Q606.93 291.198 609.963 294.577 Q613.018 297.934 613.018 303.721 M608.759 302.471 Q608.713 298.976 606.792 296.892 Q604.893 294.809 601.745 294.809 Q598.18 294.809 596.028 296.823 Q593.898 298.837 593.574 302.494 L608.759 302.471 Z" fill="#000000" fill-rule="nonzero" fill-opacity="1" /><path clip-path="url(#clip950)" d="M641.56 302.101 L641.56 317.749 L637.301 317.749 L637.301 302.239 Q637.301 298.559 635.865 296.73 Q634.43 294.902 631.56 294.902 Q628.111 294.902 626.12 297.101 Q624.129 299.3 624.129 303.096 L624.129 317.749 L619.847 317.749 L619.847 291.823 L624.129 291.823 L624.129 295.851 Q625.657 293.513 627.717 292.355 Q629.801 291.198 632.509 291.198 Q636.977 291.198 639.268 293.976 Q641.56 296.73 641.56 302.101 Z" fill="#000000" fill-rule="nonzero" fill-opacity="1" /><polyline clip-path="url(#clip950)" style="stroke:#ffaeb9; stroke-linecap:round; stroke-linejoin:round; stroke-width:12; stroke-opacity:1; fill:none" stroke-dasharray="6, 12" points="272.215,352.309 417.369,352.309 "/>
<path clip-path="url(#clip950)" d="M441.561 335.029 L446.237 335.029 L446.237 369.589 L441.561 369.589 L441.561 335.029 Z" fill="#000000" fill-rule="nonzero" fill-opacity="1" /><path clip-path="url(#clip950)" d="M474.014 344.658 L474.014 348.64 Q472.209 347.644 470.38 347.158 Q468.575 346.649 466.723 346.649 Q462.579 346.649 460.288 349.288 Q457.996 351.904 457.996 356.649 Q457.996 361.394 460.288 364.033 Q462.579 366.649 466.723 366.649 Q468.575 366.649 470.38 366.163 Q472.209 365.653 474.014 364.658 L474.014 368.593 Q472.232 369.427 470.311 369.843 Q468.413 370.26 466.26 370.26 Q460.403 370.26 456.954 366.579 Q453.505 362.899 453.505 356.649 Q453.505 350.306 456.978 346.672 Q460.473 343.038 466.538 343.038 Q468.505 343.038 470.38 343.455 Q472.255 343.848 474.014 344.658 Z" fill="#000000" fill-rule="nonzero" fill-opacity="1" /><path clip-path="url(#clip950)" d="M503.598 355.561 L503.598 357.644 L484.014 357.644 Q484.292 362.042 486.653 364.357 Q489.038 366.649 493.274 366.649 Q495.727 366.649 498.019 366.047 Q500.334 365.445 502.602 364.241 L502.602 368.269 Q500.311 369.241 497.903 369.751 Q495.496 370.26 493.019 370.26 Q486.815 370.26 483.181 366.649 Q479.57 363.038 479.57 356.88 Q479.57 350.515 482.996 346.788 Q486.445 343.038 492.278 343.038 Q497.51 343.038 500.542 346.417 Q503.598 349.774 503.598 355.561 M499.338 354.311 Q499.292 350.816 497.371 348.732 Q495.473 346.649 492.325 346.649 Q488.76 346.649 486.607 348.663 Q484.477 350.677 484.153 354.334 L499.338 354.311 Z" fill="#000000" fill-rule="nonzero" fill-opacity="1" /><path clip-path="url(#clip950)" d="M508.436 354.704 L520.912 354.704 L520.912 358.501 L508.436 358.501 L508.436 354.704 Z" fill="#000000" fill-rule="nonzero" fill-opacity="1" /><path clip-path="url(#clip950)" d="M553.759 337.691 L553.759 342.621 Q551.398 340.422 548.713 339.334 Q546.051 338.246 543.042 338.246 Q537.116 338.246 533.968 341.88 Q530.82 345.492 530.82 352.343 Q530.82 359.172 533.968 362.806 Q537.116 366.417 543.042 366.417 Q546.051 366.417 548.713 365.329 Q551.398 364.241 553.759 362.042 L553.759 366.927 Q551.306 368.593 548.551 369.427 Q545.82 370.26 542.764 370.26 Q534.917 370.26 530.403 365.468 Q525.889 360.653 525.889 352.343 Q525.889 344.01 530.403 339.218 Q534.917 334.404 542.764 334.404 Q545.866 334.404 548.597 335.237 Q551.352 336.047 553.759 337.691 Z" fill="#000000" fill-rule="nonzero" fill-opacity="1" /><path clip-path="url(#clip950)" d="M582.347 353.941 L582.347 369.589 L578.088 369.589 L578.088 354.079 Q578.088 350.399 576.653 348.57 Q575.218 346.742 572.347 346.742 Q568.898 346.742 566.908 348.941 Q564.917 351.14 564.917 354.936 L564.917 369.589 L560.634 369.589 L560.634 333.57 L564.917 333.57 L564.917 347.691 Q566.445 345.353 568.505 344.195 Q570.588 343.038 573.296 343.038 Q577.764 343.038 580.056 345.816 Q582.347 348.57 582.347 353.941 Z" fill="#000000" fill-rule="nonzero" fill-opacity="1" /><path clip-path="url(#clip950)" d="M613.018 355.561 L613.018 357.644 L593.435 357.644 Q593.713 362.042 596.074 364.357 Q598.458 366.649 602.694 366.649 Q605.148 366.649 607.44 366.047 Q609.755 365.445 612.023 364.241 L612.023 368.269 Q609.731 369.241 607.324 369.751 Q604.917 370.26 602.44 370.26 Q596.236 370.26 592.602 366.649 Q588.991 363.038 588.991 356.88 Q588.991 350.515 592.417 346.788 Q595.866 343.038 601.699 343.038 Q606.93 343.038 609.963 346.417 Q613.018 349.774 613.018 355.561 M608.759 354.311 Q608.713 350.816 606.792 348.732 Q604.893 346.649 601.745 346.649 Q598.18 346.649 596.028 348.663 Q593.898 350.677 593.574 354.334 L608.759 354.311 Z" fill="#000000" fill-rule="nonzero" fill-opacity="1" /><path clip-path="url(#clip950)" d="M641.56 353.941 L641.56 369.589 L637.301 369.589 L637.301 354.079 Q637.301 350.399 635.865 348.57 Q634.43 346.742 631.56 346.742 Q628.111 346.742 626.12 348.941 Q624.129 351.14 624.129 354.936 L624.129 369.589 L619.847 369.589 L619.847 343.663 L624.129 343.663 L624.129 347.691 Q625.657 345.353 627.717 344.195 Q629.801 343.038 632.509 343.038 Q636.977 343.038 639.268 345.816 Q641.56 348.57 641.56 353.941 Z" fill="#000000" fill-rule="nonzero" fill-opacity="1" /><path clip-path="url(#clip950)" d="M647.902 354.704 L660.379 354.704 L660.379 358.501 L647.902 358.501 L647.902 354.704 Z" fill="#000000" fill-rule="nonzero" fill-opacity="1" /><path clip-path="url(#clip950)" d="M667.347 335.029 L672.023 335.029 L672.023 365.653 L688.851 365.653 L688.851 369.589 L667.347 369.589 L667.347 335.029 Z" fill="#000000" fill-rule="nonzero" fill-opacity="1" /><path clip-path="url(#clip950)" d="M705.356 356.556 Q700.194 356.556 698.203 357.737 Q696.212 358.917 696.212 361.765 Q696.212 364.033 697.694 365.376 Q699.198 366.695 701.768 366.695 Q705.31 366.695 707.439 364.195 Q709.592 361.672 709.592 357.505 L709.592 356.556 L705.356 356.556 M713.851 354.797 L713.851 369.589 L709.592 369.589 L709.592 365.653 Q708.134 368.015 705.958 369.149 Q703.782 370.26 700.634 370.26 Q696.652 370.26 694.291 368.038 Q691.953 365.792 691.953 362.042 Q691.953 357.667 694.87 355.445 Q697.81 353.223 703.62 353.223 L709.592 353.223 L709.592 352.806 Q709.592 349.867 707.647 348.269 Q705.726 346.649 702.231 346.649 Q700.009 346.649 697.902 347.181 Q695.796 347.714 693.851 348.779 L693.851 344.843 Q696.189 343.941 698.388 343.501 Q700.587 343.038 702.671 343.038 Q708.296 343.038 711.073 345.954 Q713.851 348.871 713.851 354.797 Z" fill="#000000" fill-rule="nonzero" fill-opacity="1" /><path clip-path="url(#clip950)" d="M737.647 347.644 Q736.93 347.228 736.073 347.042 Q735.24 346.834 734.221 346.834 Q730.61 346.834 728.666 349.195 Q726.745 351.533 726.745 355.931 L726.745 369.589 L722.462 369.589 L722.462 343.663 L726.745 343.663 L726.745 347.691 Q728.087 345.329 730.24 344.195 Q732.393 343.038 735.471 343.038 Q735.911 343.038 736.444 343.107 Q736.976 343.154 737.624 343.269 L737.647 347.644 Z" fill="#000000" fill-rule="nonzero" fill-opacity="1" /><path clip-path="url(#clip950)" d="M758.342 356.325 Q758.342 351.695 756.42 349.149 Q754.522 346.603 751.073 346.603 Q747.647 346.603 745.726 349.149 Q743.828 351.695 743.828 356.325 Q743.828 360.931 745.726 363.478 Q747.647 366.024 751.073 366.024 Q754.522 366.024 756.42 363.478 Q758.342 360.931 758.342 356.325 M762.601 366.371 Q762.601 372.991 759.661 376.209 Q756.721 379.45 750.657 379.45 Q748.411 379.45 746.42 379.102 Q744.43 378.778 742.555 378.084 L742.555 373.94 Q744.43 374.959 746.258 375.445 Q748.087 375.931 749.985 375.931 Q754.175 375.931 756.258 373.732 Q758.342 371.556 758.342 367.135 L758.342 365.028 Q757.022 367.32 754.962 368.454 Q752.902 369.589 750.032 369.589 Q745.263 369.589 742.346 365.954 Q739.43 362.32 739.43 356.325 Q739.43 350.306 742.346 346.672 Q745.263 343.038 750.032 343.038 Q752.902 343.038 754.962 344.172 Q757.022 345.306 758.342 347.598 L758.342 343.663 L762.601 343.663 L762.601 366.371 Z" fill="#000000" fill-rule="nonzero" fill-opacity="1" /><path clip-path="url(#clip950)" d="M793.55 355.561 L793.55 357.644 L773.967 357.644 Q774.244 362.042 776.605 364.357 Q778.99 366.649 783.226 366.649 Q785.679 366.649 787.971 366.047 Q790.286 365.445 792.554 364.241 L792.554 368.269 Q790.263 369.241 787.855 369.751 Q785.448 370.26 782.971 370.26 Q776.767 370.26 773.133 366.649 Q769.522 363.038 769.522 356.88 Q769.522 350.515 772.948 346.788 Q776.397 343.038 782.23 343.038 Q787.462 343.038 790.494 346.417 Q793.55 349.774 793.55 355.561 M789.291 354.311 Q789.244 350.816 787.323 348.732 Q785.425 346.649 782.277 346.649 Q778.712 346.649 776.559 348.663 Q774.43 350.677 774.105 354.334 L789.291 354.311 Z" fill="#000000" fill-rule="nonzero" fill-opacity="1" /><polyline clip-path="url(#clip950)" style="stroke:#ff0000; stroke-linecap:round; stroke-linejoin:round; stroke-width:12; stroke-opacity:1; fill:none" points="272.215,404.149 417.369,404.149 "/>
<path clip-path="url(#clip950)" d="M463.806 388.003 L463.806 392.563 Q461.144 391.29 458.783 390.665 Q456.422 390.04 454.223 390.04 Q450.404 390.04 448.32 391.521 Q446.26 393.003 446.26 395.734 Q446.26 398.026 447.626 399.207 Q449.015 400.364 452.857 401.082 L455.681 401.66 Q460.913 402.656 463.39 405.179 Q465.89 407.679 465.89 411.892 Q465.89 416.915 462.51 419.507 Q459.153 422.1 452.649 422.1 Q450.195 422.1 447.417 421.544 Q444.663 420.989 441.7 419.901 L441.7 415.086 Q444.547 416.683 447.279 417.493 Q450.01 418.304 452.649 418.304 Q456.653 418.304 458.829 416.73 Q461.005 415.156 461.005 412.239 Q461.005 409.693 459.431 408.257 Q457.88 406.822 454.316 406.105 L451.468 405.549 Q446.237 404.507 443.899 402.285 Q441.561 400.063 441.561 396.105 Q441.561 391.521 444.779 388.882 Q448.019 386.244 453.691 386.244 Q456.121 386.244 458.644 386.683 Q461.167 387.123 463.806 388.003 Z" fill="#000000" fill-rule="nonzero" fill-opacity="1" /><path clip-path="url(#clip950)" d="M494.547 405.781 L494.547 421.429 L490.288 421.429 L490.288 405.919 Q490.288 402.239 488.852 400.41 Q487.417 398.582 484.547 398.582 Q481.098 398.582 479.107 400.781 Q477.116 402.98 477.116 406.776 L477.116 421.429 L472.834 421.429 L472.834 395.503 L477.116 395.503 L477.116 399.531 Q478.644 397.193 480.704 396.035 Q482.788 394.878 485.496 394.878 Q489.963 394.878 492.255 397.656 Q494.547 400.41 494.547 405.781 Z" fill="#000000" fill-rule="nonzero" fill-opacity="1" /><path clip-path="url(#clip950)" d="M513.088 398.489 Q509.662 398.489 507.672 401.174 Q505.681 403.836 505.681 408.489 Q505.681 413.142 507.649 415.827 Q509.639 418.489 513.088 418.489 Q516.491 418.489 518.482 415.804 Q520.473 413.118 520.473 408.489 Q520.473 403.882 518.482 401.197 Q516.491 398.489 513.088 398.489 M513.088 394.878 Q518.644 394.878 521.815 398.489 Q524.986 402.1 524.986 408.489 Q524.986 414.855 521.815 418.489 Q518.644 422.1 513.088 422.1 Q507.51 422.1 504.338 418.489 Q501.19 414.855 501.19 408.489 Q501.19 402.1 504.338 398.489 Q507.51 394.878 513.088 394.878 Z" fill="#000000" fill-rule="nonzero" fill-opacity="1" /><path clip-path="url(#clip950)" d="M529.57 395.503 L533.829 395.503 L539.153 415.734 L544.454 395.503 L549.477 395.503 L554.801 415.734 L560.102 395.503 L564.361 395.503 L557.579 421.429 L552.556 421.429 L546.977 400.179 L541.375 421.429 L536.352 421.429 L529.57 395.503 Z" fill="#000000" fill-rule="nonzero" fill-opacity="1" /><path clip-path="url(#clip950)" d="M568.667 406.544 L581.144 406.544 L581.144 410.341 L568.667 410.341 L568.667 406.544 Z" fill="#000000" fill-rule="nonzero" fill-opacity="1" /><path clip-path="url(#clip950)" d="M589.338 417.493 L596.977 417.493 L596.977 391.128 L588.667 392.795 L588.667 388.535 L596.93 386.869 L601.606 386.869 L601.606 417.493 L609.245 417.493 L609.245 421.429 L589.338 421.429 L589.338 417.493 Z" fill="#000000" fill-rule="nonzero" fill-opacity="1" /><path clip-path="url(#clip950)" d="M618.273 386.869 L625.241 386.869 L634.06 410.387 L642.926 386.869 L649.893 386.869 L649.893 421.429 L645.333 421.429 L645.333 391.082 L636.421 414.785 L631.722 414.785 L622.81 391.082 L622.81 421.429 L618.273 421.429 L618.273 386.869 Z" fill="#000000" fill-rule="nonzero" fill-opacity="1" /><path clip-path="url(#clip950)" d="M656.838 406.544 L669.314 406.544 L669.314 410.341 L656.838 410.341 L656.838 406.544 Z" fill="#000000" fill-rule="nonzero" fill-opacity="1" /><path clip-path="url(#clip950)" d="M693.157 399.438 L693.157 385.41 L697.416 385.41 L697.416 421.429 L693.157 421.429 L693.157 417.54 Q691.814 419.855 689.754 420.989 Q687.717 422.1 684.847 422.1 Q680.148 422.1 677.185 418.35 Q674.245 414.6 674.245 408.489 Q674.245 402.378 677.185 398.628 Q680.148 394.878 684.847 394.878 Q687.717 394.878 689.754 396.012 Q691.814 397.123 693.157 399.438 M678.643 408.489 Q678.643 413.188 680.564 415.873 Q682.509 418.535 685.888 418.535 Q689.268 418.535 691.212 415.873 Q693.157 413.188 693.157 408.489 Q693.157 403.79 691.212 401.128 Q689.268 398.443 685.888 398.443 Q682.509 398.443 680.564 401.128 Q678.643 403.79 678.643 408.489 Z" fill="#000000" fill-rule="nonzero" fill-opacity="1" /><path clip-path="url(#clip950)" d="M728.365 407.401 L728.365 409.484 L708.782 409.484 Q709.06 413.882 711.421 416.197 Q713.805 418.489 718.041 418.489 Q720.495 418.489 722.786 417.887 Q725.101 417.285 727.37 416.081 L727.37 420.109 Q725.078 421.081 722.671 421.591 Q720.263 422.1 717.786 422.1 Q711.583 422.1 707.948 418.489 Q704.337 414.878 704.337 408.72 Q704.337 402.355 707.763 398.628 Q711.212 394.878 717.046 394.878 Q722.277 394.878 725.309 398.257 Q728.365 401.614 728.365 407.401 M724.106 406.151 Q724.059 402.656 722.138 400.572 Q720.24 398.489 717.092 398.489 Q713.527 398.489 711.374 400.503 Q709.245 402.517 708.921 406.174 L724.106 406.151 Z" fill="#000000" fill-rule="nonzero" fill-opacity="1" /><path clip-path="url(#clip950)" d="M748.481 385.41 L748.481 388.952 L744.407 388.952 Q742.115 388.952 741.212 389.878 Q740.333 390.804 740.333 393.211 L740.333 395.503 L747.346 395.503 L747.346 398.813 L740.333 398.813 L740.333 421.429 L736.05 421.429 L736.05 398.813 L731.976 398.813 L731.976 395.503 L736.05 395.503 L736.05 393.697 Q736.05 389.369 738.064 387.401 Q740.078 385.41 744.453 385.41 L748.481 385.41 Z" fill="#000000" fill-rule="nonzero" fill-opacity="1" /><path clip-path="url(#clip950)" d="M763.828 408.396 Q758.666 408.396 756.675 409.577 Q754.684 410.757 754.684 413.605 Q754.684 415.873 756.166 417.216 Q757.67 418.535 760.24 418.535 Q763.781 418.535 765.911 416.035 Q768.064 413.512 768.064 409.345 L768.064 408.396 L763.828 408.396 M772.323 406.637 L772.323 421.429 L768.064 421.429 L768.064 417.493 Q766.606 419.855 764.43 420.989 Q762.254 422.1 759.106 422.1 Q755.124 422.1 752.763 419.878 Q750.425 417.632 750.425 413.882 Q750.425 409.507 753.342 407.285 Q756.281 405.063 762.092 405.063 L768.064 405.063 L768.064 404.646 Q768.064 401.707 766.119 400.109 Q764.198 398.489 760.703 398.489 Q758.481 398.489 756.374 399.021 Q754.268 399.554 752.323 400.619 L752.323 396.683 Q754.661 395.781 756.86 395.341 Q759.059 394.878 761.143 394.878 Q766.768 394.878 769.545 397.794 Q772.323 400.711 772.323 406.637 Z" fill="#000000" fill-rule="nonzero" fill-opacity="1" /><path clip-path="url(#clip950)" d="M780.656 411.197 L780.656 395.503 L784.916 395.503 L784.916 411.035 Q784.916 414.716 786.351 416.568 Q787.786 418.396 790.656 418.396 Q794.105 418.396 796.096 416.197 Q798.11 413.998 798.11 410.202 L798.11 395.503 L802.369 395.503 L802.369 421.429 L798.11 421.429 L798.11 417.447 Q796.559 419.808 794.499 420.966 Q792.462 422.1 789.754 422.1 Q785.286 422.1 782.971 419.322 Q780.656 416.544 780.656 411.197 M791.374 394.878 L791.374 394.878 Z" fill="#000000" fill-rule="nonzero" fill-opacity="1" /><path clip-path="url(#clip950)" d="M811.142 385.41 L815.402 385.41 L815.402 421.429 L811.142 421.429 L811.142 385.41 Z" fill="#000000" fill-rule="nonzero" fill-opacity="1" /><path clip-path="url(#clip950)" d="M828.526 388.142 L828.526 395.503 L837.3 395.503 L837.3 398.813 L828.526 398.813 L828.526 412.887 Q828.526 416.058 829.383 416.961 Q830.263 417.864 832.925 417.864 L837.3 417.864 L837.3 421.429 L832.925 421.429 Q827.994 421.429 826.119 419.6 Q824.244 417.748 824.244 412.887 L824.244 398.813 L821.119 398.813 L821.119 395.503 L824.244 395.503 L824.244 388.142 L828.526 388.142 Z" fill="#000000" fill-rule="nonzero" fill-opacity="1" /><polyline clip-path="url(#clip950)" style="stroke:#ff0000; stroke-linecap:round; stroke-linejoin:round; stroke-width:12; stroke-opacity:1; fill:none" stroke-dasharray="6, 12" points="272.215,455.989 417.369,455.989 "/>
<path clip-path="url(#clip950)" d="M463.806 439.843 L463.806 444.403 Q461.144 443.13 458.783 442.505 Q456.422 441.88 454.223 441.88 Q450.404 441.88 448.32 443.361 Q446.26 444.843 446.26 447.574 Q446.26 449.866 447.626 451.047 Q449.015 452.204 452.857 452.922 L455.681 453.5 Q460.913 454.496 463.39 457.019 Q465.89 459.519 465.89 463.732 Q465.89 468.755 462.51 471.347 Q459.153 473.94 452.649 473.94 Q450.195 473.94 447.417 473.384 Q444.663 472.829 441.7 471.741 L441.7 466.926 Q444.547 468.523 447.279 469.333 Q450.01 470.144 452.649 470.144 Q456.653 470.144 458.829 468.57 Q461.005 466.996 461.005 464.079 Q461.005 461.533 459.431 460.097 Q457.88 458.662 454.316 457.945 L451.468 457.389 Q446.237 456.347 443.899 454.125 Q441.561 451.903 441.561 447.945 Q441.561 443.361 444.779 440.722 Q448.019 438.084 453.691 438.084 Q456.121 438.084 458.644 438.523 Q461.167 438.963 463.806 439.843 Z" fill="#000000" fill-rule="nonzero" fill-opacity="1" /><path clip-path="url(#clip950)" d="M494.547 457.621 L494.547 473.269 L490.288 473.269 L490.288 457.759 Q490.288 454.079 488.852 452.25 Q487.417 450.422 484.547 450.422 Q481.098 450.422 479.107 452.621 Q477.116 454.82 477.116 458.616 L477.116 473.269 L472.834 473.269 L472.834 447.343 L477.116 447.343 L477.116 451.371 Q478.644 449.033 480.704 447.875 Q482.788 446.718 485.496 446.718 Q489.963 446.718 492.255 449.496 Q494.547 452.25 494.547 457.621 Z" fill="#000000" fill-rule="nonzero" fill-opacity="1" /><path clip-path="url(#clip950)" d="M513.088 450.329 Q509.662 450.329 507.672 453.014 Q505.681 455.676 505.681 460.329 Q505.681 464.982 507.649 467.667 Q509.639 470.329 513.088 470.329 Q516.491 470.329 518.482 467.644 Q520.473 464.958 520.473 460.329 Q520.473 455.722 518.482 453.037 Q516.491 450.329 513.088 450.329 M513.088 446.718 Q518.644 446.718 521.815 450.329 Q524.986 453.94 524.986 460.329 Q524.986 466.695 521.815 470.329 Q518.644 473.94 513.088 473.94 Q507.51 473.94 504.338 470.329 Q501.19 466.695 501.19 460.329 Q501.19 453.94 504.338 450.329 Q507.51 446.718 513.088 446.718 Z" fill="#000000" fill-rule="nonzero" fill-opacity="1" /><path clip-path="url(#clip950)" d="M529.57 447.343 L533.829 447.343 L539.153 467.574 L544.454 447.343 L549.477 447.343 L554.801 467.574 L560.102 447.343 L564.361 447.343 L557.579 473.269 L552.556 473.269 L546.977 452.019 L541.375 473.269 L536.352 473.269 L529.57 447.343 Z" fill="#000000" fill-rule="nonzero" fill-opacity="1" /><path clip-path="url(#clip950)" d="M568.667 458.384 L581.144 458.384 L581.144 462.181 L568.667 462.181 L568.667 458.384 Z" fill="#000000" fill-rule="nonzero" fill-opacity="1" /><path clip-path="url(#clip950)" d="M613.991 441.371 L613.991 446.301 Q611.629 444.102 608.944 443.014 Q606.282 441.926 603.273 441.926 Q597.347 441.926 594.199 445.56 Q591.051 449.172 591.051 456.023 Q591.051 462.852 594.199 466.486 Q597.347 470.097 603.273 470.097 Q606.282 470.097 608.944 469.009 Q611.629 467.921 613.991 465.722 L613.991 470.607 Q611.537 472.273 608.782 473.107 Q606.051 473.94 602.995 473.94 Q595.148 473.94 590.634 469.148 Q586.12 464.333 586.12 456.023 Q586.12 447.69 590.634 442.898 Q595.148 438.084 602.995 438.084 Q606.097 438.084 608.829 438.917 Q611.583 439.727 613.991 441.371 Z" fill="#000000" fill-rule="nonzero" fill-opacity="1" /><path clip-path="url(#clip950)" d="M642.578 457.621 L642.578 473.269 L638.319 473.269 L638.319 457.759 Q638.319 454.079 636.884 452.25 Q635.449 450.422 632.578 450.422 Q629.129 450.422 627.139 452.621 Q625.148 454.82 625.148 458.616 L625.148 473.269 L620.866 473.269 L620.866 437.25 L625.148 437.25 L625.148 451.371 Q626.676 449.033 628.736 447.875 Q630.819 446.718 633.528 446.718 Q637.995 446.718 640.287 449.496 Q642.578 452.25 642.578 457.621 Z" fill="#000000" fill-rule="nonzero" fill-opacity="1" /><path clip-path="url(#clip950)" d="M673.25 459.241 L673.25 461.324 L653.666 461.324 Q653.944 465.722 656.305 468.037 Q658.689 470.329 662.926 470.329 Q665.379 470.329 667.671 469.727 Q669.986 469.125 672.254 467.921 L672.254 471.949 Q669.963 472.921 667.555 473.431 Q665.148 473.94 662.671 473.94 Q656.467 473.94 652.833 470.329 Q649.222 466.718 649.222 460.56 Q649.222 454.195 652.648 450.468 Q656.097 446.718 661.93 446.718 Q667.162 446.718 670.194 450.097 Q673.25 453.454 673.25 459.241 M668.99 457.991 Q668.944 454.496 667.023 452.412 Q665.125 450.329 661.976 450.329 Q658.412 450.329 656.259 452.343 Q654.129 454.357 653.805 458.014 L668.99 457.991 Z" fill="#000000" fill-rule="nonzero" fill-opacity="1" /><path clip-path="url(#clip950)" d="M701.791 457.621 L701.791 473.269 L697.532 473.269 L697.532 457.759 Q697.532 454.079 696.097 452.25 Q694.661 450.422 691.791 450.422 Q688.342 450.422 686.351 452.621 Q684.361 454.82 684.361 458.616 L684.361 473.269 L680.078 473.269 L680.078 447.343 L684.361 447.343 L684.361 451.371 Q685.888 449.033 687.949 447.875 Q690.032 446.718 692.74 446.718 Q697.208 446.718 699.499 449.496 Q701.791 452.25 701.791 457.621 Z" fill="#000000" fill-rule="nonzero" fill-opacity="1" /></svg>
