<?xml version="1.0" encoding="utf-8"?>
<svg xmlns="http://www.w3.org/2000/svg" xmlns:xlink="http://www.w3.org/1999/xlink" width="600" height="400" viewBox="0 0 2400 1600">
<defs>
  <clipPath id="clip100">
    <rect x="0" y="0" width="2400" height="1600"/>
  </clipPath>
</defs>
<path clip-path="url(#clip100)" d="
M0 1600 L2400 1600 L2400 0 L0 0  Z
  " fill="#ffffff" fill-rule="evenodd" fill-opacity="1"/>
<defs>
  <clipPath id="clip101">
    <rect x="480" y="0" width="1681" height="1600"/>
  </clipPath>
</defs>
<path clip-path="url(#clip100)" d="
M370.509 1423.18 L2352.76 1423.18 L2352.76 47.2441 L370.509 47.2441  Z
  " fill="#ffffff" fill-rule="evenodd" fill-opacity="1"/>
<defs>
  <clipPath id="clip102">
    <rect x="370" y="47" width="1983" height="1377"/>
  </clipPath>
</defs>
<polyline clip-path="url(#clip102)" style="stroke:#000000; stroke-linecap:butt; stroke-linejoin:round; stroke-width:2; stroke-opacity:0.1; fill:none" points="
  426.607,1423.18 426.607,47.2441 
  "/>
<polyline clip-path="url(#clip102)" style="stroke:#000000; stroke-linecap:butt; stroke-linejoin:round; stroke-width:2; stroke-opacity:0.1; fill:none" points="
  800.616,1423.18 800.616,47.2441 
  "/>
<polyline clip-path="url(#clip102)" style="stroke:#000000; stroke-linecap:butt; stroke-linejoin:round; stroke-width:2; stroke-opacity:0.1; fill:none" points="
  1174.63,1423.18 1174.63,47.2441 
  "/>
<polyline clip-path="url(#clip102)" style="stroke:#000000; stroke-linecap:butt; stroke-linejoin:round; stroke-width:2; stroke-opacity:0.1; fill:none" points="
  1548.64,1423.18 1548.64,47.2441 
  "/>
<polyline clip-path="url(#clip102)" style="stroke:#000000; stroke-linecap:butt; stroke-linejoin:round; stroke-width:2; stroke-opacity:0.1; fill:none" points="
  1922.65,1423.18 1922.65,47.2441 
  "/>
<polyline clip-path="url(#clip102)" style="stroke:#000000; stroke-linecap:butt; stroke-linejoin:round; stroke-width:2; stroke-opacity:0.1; fill:none" points="
  2296.65,1423.18 2296.65,47.2441 
  "/>
<polyline clip-path="url(#clip100)" style="stroke:#000000; stroke-linecap:butt; stroke-linejoin:round; stroke-width:4; stroke-opacity:1; fill:none" points="
  370.509,1423.18 2352.76,1423.18 
  "/>
<polyline clip-path="url(#clip100)" style="stroke:#000000; stroke-linecap:butt; stroke-linejoin:round; stroke-width:4; stroke-opacity:1; fill:none" points="
  426.607,1423.18 426.607,1404.28 
  "/>
<polyline clip-path="url(#clip100)" style="stroke:#000000; stroke-linecap:butt; stroke-linejoin:round; stroke-width:4; stroke-opacity:1; fill:none" points="
  800.616,1423.18 800.616,1404.28 
  "/>
<polyline clip-path="url(#clip100)" style="stroke:#000000; stroke-linecap:butt; stroke-linejoin:round; stroke-width:4; stroke-opacity:1; fill:none" points="
  1174.63,1423.18 1174.63,1404.28 
  "/>
<polyline clip-path="url(#clip100)" style="stroke:#000000; stroke-linecap:butt; stroke-linejoin:round; stroke-width:4; stroke-opacity:1; fill:none" points="
  1548.64,1423.18 1548.64,1404.28 
  "/>
<polyline clip-path="url(#clip100)" style="stroke:#000000; stroke-linecap:butt; stroke-linejoin:round; stroke-width:4; stroke-opacity:1; fill:none" points="
  1922.65,1423.18 1922.65,1404.28 
  "/>
<polyline clip-path="url(#clip100)" style="stroke:#000000; stroke-linecap:butt; stroke-linejoin:round; stroke-width:4; stroke-opacity:1; fill:none" points="
  2296.65,1423.18 2296.65,1404.28 
  "/>
<path clip-path="url(#clip100)" d="M426.607 1454.1 Q422.996 1454.1 421.167 1457.66 Q419.362 1461.2 419.362 1468.33 Q419.362 1475.44 421.167 1479.01 Q422.996 1482.55 426.607 1482.55 Q430.241 1482.55 432.047 1479.01 Q433.875 1475.44 433.875 1468.33 Q433.875 1461.2 432.047 1457.66 Q430.241 1454.1 426.607 1454.1 M426.607 1450.39 Q432.417 1450.39 435.473 1455 Q438.551 1459.58 438.551 1468.33 Q438.551 1477.06 435.473 1481.67 Q432.417 1486.25 426.607 1486.25 Q420.797 1486.25 417.718 1481.67 Q414.662 1477.06 414.662 1468.33 Q414.662 1459.58 417.718 1455 Q420.797 1450.39 426.607 1450.39 Z" fill="#000000" fill-rule="evenodd" fill-opacity="1" /><path clip-path="url(#clip100)" d="M790.998 1481.64 L798.637 1481.64 L798.637 1455.28 L790.327 1456.95 L790.327 1452.69 L798.591 1451.02 L803.267 1451.02 L803.267 1481.64 L810.906 1481.64 L810.906 1485.58 L790.998 1485.58 L790.998 1481.64 Z" fill="#000000" fill-rule="evenodd" fill-opacity="1" /><path clip-path="url(#clip100)" d="M1169.28 1481.64 L1185.6 1481.64 L1185.6 1485.58 L1163.65 1485.58 L1163.65 1481.64 Q1166.32 1478.89 1170.9 1474.26 Q1175.51 1469.61 1176.69 1468.27 Q1178.93 1465.74 1179.81 1464.01 Q1180.71 1462.25 1180.71 1460.56 Q1180.71 1457.8 1178.77 1456.07 Q1176.85 1454.33 1173.75 1454.33 Q1171.55 1454.33 1169.09 1455.09 Q1166.66 1455.86 1163.89 1457.41 L1163.89 1452.69 Q1166.71 1451.55 1169.16 1450.97 Q1171.62 1450.39 1173.65 1450.39 Q1179.02 1450.39 1182.22 1453.08 Q1185.41 1455.77 1185.41 1460.26 Q1185.41 1462.39 1184.6 1464.31 Q1183.82 1466.2 1181.71 1468.8 Q1181.13 1469.47 1178.03 1472.69 Q1174.93 1475.88 1169.28 1481.64 Z" fill="#000000" fill-rule="evenodd" fill-opacity="1" /><path clip-path="url(#clip100)" d="M1552.88 1466.95 Q1556.24 1467.66 1558.11 1469.93 Q1560.01 1472.2 1560.01 1475.53 Q1560.01 1480.65 1556.49 1483.45 Q1552.98 1486.25 1546.49 1486.25 Q1544.32 1486.25 1542 1485.81 Q1539.71 1485.39 1537.26 1484.54 L1537.26 1480.02 Q1539.2 1481.16 1541.52 1481.74 Q1543.83 1482.32 1546.36 1482.32 Q1550.75 1482.32 1553.05 1480.58 Q1555.36 1478.84 1555.36 1475.53 Q1555.36 1472.48 1553.21 1470.77 Q1551.08 1469.03 1547.26 1469.03 L1543.23 1469.03 L1543.23 1465.19 L1547.44 1465.19 Q1550.89 1465.19 1552.72 1463.82 Q1554.55 1462.43 1554.55 1459.84 Q1554.55 1457.18 1552.65 1455.77 Q1550.78 1454.33 1547.26 1454.33 Q1545.34 1454.33 1543.14 1454.75 Q1540.94 1455.16 1538.3 1456.04 L1538.3 1451.88 Q1540.96 1451.14 1543.28 1450.77 Q1545.61 1450.39 1547.67 1450.39 Q1553 1450.39 1556.1 1452.83 Q1559.2 1455.23 1559.2 1459.35 Q1559.2 1462.22 1557.56 1464.21 Q1555.92 1466.18 1552.88 1466.95 Z" fill="#000000" fill-rule="evenodd" fill-opacity="1" /><path clip-path="url(#clip100)" d="M1925.65 1455.09 L1913.85 1473.54 L1925.65 1473.54 L1925.65 1455.09 M1924.43 1451.02 L1930.31 1451.02 L1930.31 1473.54 L1935.24 1473.54 L1935.24 1477.43 L1930.31 1477.43 L1930.31 1485.58 L1925.65 1485.58 L1925.65 1477.43 L1910.05 1477.43 L1910.05 1472.92 L1924.43 1451.02 Z" fill="#000000" fill-rule="evenodd" fill-opacity="1" /><path clip-path="url(#clip100)" d="M2286.93 1451.02 L2305.29 1451.02 L2305.29 1454.96 L2291.21 1454.96 L2291.21 1463.43 Q2292.23 1463.08 2293.25 1462.92 Q2294.27 1462.73 2295.29 1462.73 Q2301.08 1462.73 2304.46 1465.9 Q2307.84 1469.08 2307.84 1474.49 Q2307.84 1480.07 2304.36 1483.17 Q2300.89 1486.25 2294.57 1486.25 Q2292.4 1486.25 2290.13 1485.88 Q2287.88 1485.51 2285.47 1484.77 L2285.47 1480.07 Q2287.56 1481.2 2289.78 1481.76 Q2292 1482.32 2294.48 1482.32 Q2298.48 1482.32 2300.82 1480.21 Q2303.16 1478.1 2303.16 1474.49 Q2303.16 1470.88 2300.82 1468.77 Q2298.48 1466.67 2294.48 1466.67 Q2292.6 1466.67 2290.73 1467.08 Q2288.88 1467.5 2286.93 1468.38 L2286.93 1451.02 Z" fill="#000000" fill-rule="evenodd" fill-opacity="1" /><path clip-path="url(#clip100)" d="M1051.4 1550.25 Q1051.4 1556.71 1054.04 1560.4 Q1056.72 1564.07 1061.36 1564.07 Q1066.01 1564.07 1068.68 1560.4 Q1071.36 1556.71 1071.36 1550.25 Q1071.36 1543.79 1068.68 1540.13 Q1066.01 1536.44 1061.36 1536.44 Q1056.72 1536.44 1054.04 1540.13 Q1051.4 1543.79 1051.4 1550.25 M1071.36 1562.7 Q1069.51 1565.88 1066.68 1567.44 Q1063.88 1568.97 1059.93 1568.97 Q1053.47 1568.97 1049.39 1563.81 Q1045.35 1558.65 1045.35 1550.25 Q1045.35 1541.85 1049.39 1536.69 Q1053.47 1531.54 1059.93 1531.54 Q1063.88 1531.54 1066.68 1533.1 Q1069.51 1534.62 1071.36 1537.81 L1071.36 1532.4 L1077.21 1532.4 L1077.21 1581.6 L1071.36 1581.6 L1071.36 1562.7 Z" fill="#000000" fill-rule="evenodd" fill-opacity="1" /><path clip-path="url(#clip100)" d="M1116.36 1578.87 L1116.36 1583.42 L1082.5 1583.42 L1082.5 1578.87 L1116.36 1578.87 Z" fill="#000000" fill-rule="evenodd" fill-opacity="1" /><path clip-path="url(#clip100)" d="M1121.87 1518.52 L1127.72 1518.52 L1127.72 1568.04 L1121.87 1568.04 L1121.87 1518.52 Z" fill="#000000" fill-rule="evenodd" fill-opacity="1" /><path clip-path="url(#clip100)" d="M1139.98 1532.4 L1145.84 1532.4 L1145.84 1568.04 L1139.98 1568.04 L1139.98 1532.4 M1139.98 1518.52 L1145.84 1518.52 L1145.84 1525.93 L1139.98 1525.93 L1139.98 1518.52 Z" fill="#000000" fill-rule="evenodd" fill-opacity="1" /><path clip-path="url(#clip100)" d="M1161.59 1550.25 Q1161.59 1556.71 1164.23 1560.4 Q1166.91 1564.07 1171.55 1564.07 Q1176.2 1564.07 1178.87 1560.4 Q1181.55 1556.71 1181.55 1550.25 Q1181.55 1543.79 1178.87 1540.13 Q1176.2 1536.44 1171.55 1536.44 Q1166.91 1536.44 1164.23 1540.13 Q1161.59 1543.79 1161.59 1550.25 M1181.55 1562.7 Q1179.7 1565.88 1176.87 1567.44 Q1174.07 1568.97 1170.12 1568.97 Q1163.66 1568.97 1159.59 1563.81 Q1155.54 1558.65 1155.54 1550.25 Q1155.54 1541.85 1159.59 1536.69 Q1163.66 1531.54 1170.12 1531.54 Q1174.07 1531.54 1176.87 1533.1 Q1179.7 1534.62 1181.55 1537.81 L1181.55 1532.4 L1187.4 1532.4 L1187.4 1581.6 L1181.55 1581.6 L1181.55 1562.7 Z" fill="#000000" fill-rule="evenodd" fill-opacity="1" /><path clip-path="url(#clip100)" d="M1234 1536.5 Q1229.29 1536.5 1226.55 1540.19 Q1223.82 1543.85 1223.82 1550.25 Q1223.82 1556.65 1226.52 1560.34 Q1229.26 1564 1234 1564 Q1238.68 1564 1241.42 1560.31 Q1244.15 1556.62 1244.15 1550.25 Q1244.15 1543.92 1241.42 1540.23 Q1238.68 1536.5 1234 1536.5 M1234 1531.54 Q1241.64 1531.54 1246 1536.5 Q1250.36 1541.47 1250.36 1550.25 Q1250.36 1559 1246 1564 Q1241.64 1568.97 1234 1568.97 Q1226.33 1568.97 1221.97 1564 Q1217.64 1559 1217.64 1550.25 Q1217.64 1541.47 1221.97 1536.5 Q1226.33 1531.54 1234 1531.54 Z" fill="#000000" fill-rule="evenodd" fill-opacity="1" /><path clip-path="url(#clip100)" d="M1280.72 1537.87 Q1279.74 1537.3 1278.56 1537.04 Q1277.41 1536.76 1276.01 1536.76 Q1271.05 1536.76 1268.37 1540 Q1265.73 1543.22 1265.73 1549.27 L1265.73 1568.04 L1259.84 1568.04 L1259.84 1532.4 L1265.73 1532.4 L1265.73 1537.93 Q1267.58 1534.69 1270.54 1533.13 Q1273.5 1531.54 1277.73 1531.54 Q1278.34 1531.54 1279.07 1531.63 Q1279.8 1531.7 1280.69 1531.85 L1280.72 1537.87 Z" fill="#000000" fill-rule="evenodd" fill-opacity="1" /><path clip-path="url(#clip100)" d="M1311.09 1550.25 Q1311.09 1556.71 1313.73 1560.4 Q1316.4 1564.07 1321.05 1564.07 Q1325.7 1564.07 1328.37 1560.4 Q1331.05 1556.71 1331.05 1550.25 Q1331.05 1543.79 1328.37 1540.13 Q1325.7 1536.44 1321.05 1536.44 Q1316.4 1536.44 1313.73 1540.13 Q1311.09 1543.79 1311.09 1550.25 M1331.05 1562.7 Q1329.2 1565.88 1326.37 1567.44 Q1323.57 1568.97 1319.62 1568.97 Q1313.16 1568.97 1309.08 1563.81 Q1305.04 1558.65 1305.04 1550.25 Q1305.04 1541.85 1309.08 1536.69 Q1313.16 1531.54 1319.62 1531.54 Q1323.57 1531.54 1326.37 1533.1 Q1329.2 1534.62 1331.05 1537.81 L1331.05 1532.4 L1336.9 1532.4 L1336.9 1581.6 L1331.05 1581.6 L1331.05 1562.7 Z" fill="#000000" fill-rule="evenodd" fill-opacity="1" /><path clip-path="url(#clip100)" d="M1376.05 1578.87 L1376.05 1583.42 L1342.19 1583.42 L1342.19 1578.87 L1376.05 1578.87 Z" fill="#000000" fill-rule="evenodd" fill-opacity="1" /><path clip-path="url(#clip100)" d="M1381.56 1532.4 L1387.41 1532.4 L1387.41 1568.04 L1381.56 1568.04 L1381.56 1532.4 M1381.56 1518.52 L1387.41 1518.52 L1387.41 1525.93 L1381.56 1525.93 L1381.56 1518.52 Z" fill="#000000" fill-rule="evenodd" fill-opacity="1" /><path clip-path="url(#clip100)" d="M1425.32 1533.76 L1425.32 1539.24 Q1422.84 1537.87 1420.32 1537.2 Q1417.84 1536.5 1415.3 1536.5 Q1409.6 1536.5 1406.45 1540.13 Q1403.3 1543.73 1403.3 1550.25 Q1403.3 1556.78 1406.45 1560.4 Q1409.6 1564 1415.3 1564 Q1417.84 1564 1420.32 1563.33 Q1422.84 1562.63 1425.32 1561.26 L1425.32 1566.68 Q1422.87 1567.82 1420.23 1568.39 Q1417.62 1568.97 1414.66 1568.97 Q1406.61 1568.97 1401.86 1563.91 Q1397.12 1558.85 1397.12 1550.25 Q1397.12 1541.53 1401.9 1536.53 Q1406.7 1531.54 1415.04 1531.54 Q1417.75 1531.54 1420.32 1532.11 Q1422.9 1532.65 1425.32 1533.76 Z" fill="#000000" fill-rule="evenodd" fill-opacity="1" /><path clip-path="url(#clip100)" d="M1466 1548.76 L1466 1551.62 L1439.07 1551.62 Q1439.45 1557.67 1442.7 1560.85 Q1445.98 1564 1451.8 1564 Q1455.18 1564 1458.33 1563.17 Q1461.51 1562.35 1464.63 1560.69 L1464.63 1566.23 Q1461.48 1567.57 1458.17 1568.27 Q1454.86 1568.97 1451.45 1568.97 Q1442.92 1568.97 1437.93 1564 Q1432.96 1559.04 1432.96 1550.57 Q1432.96 1541.82 1437.67 1536.69 Q1442.41 1531.54 1450.43 1531.54 Q1457.63 1531.54 1461.8 1536.18 Q1466 1540.8 1466 1548.76 M1460.14 1547.04 Q1460.08 1542.23 1457.44 1539.37 Q1454.83 1536.5 1450.5 1536.5 Q1445.6 1536.5 1442.64 1539.27 Q1439.71 1542.04 1439.26 1547.07 L1460.14 1547.04 Z" fill="#000000" fill-rule="evenodd" fill-opacity="1" /><path clip-path="url(#clip100)" d="M1495.79 1518.52 L1509.29 1518.52 L1509.29 1523.07 L1501.65 1523.07 L1501.65 1572.09 L1509.29 1572.09 L1509.29 1576.64 L1495.79 1576.64 L1495.79 1518.52 Z" fill="#000000" fill-rule="evenodd" fill-opacity="1" /><path clip-path="url(#clip100)" d="M1545.22 1549.81 Q1545.22 1543.44 1542.58 1539.94 Q1539.97 1536.44 1535.23 1536.44 Q1530.51 1536.44 1527.87 1539.94 Q1525.26 1543.44 1525.26 1549.81 Q1525.26 1556.14 1527.87 1559.64 Q1530.51 1563.14 1535.23 1563.14 Q1539.97 1563.14 1542.58 1559.64 Q1545.22 1556.14 1545.22 1549.81 M1551.08 1563.62 Q1551.08 1572.72 1547.03 1577.15 Q1542.99 1581.6 1534.65 1581.6 Q1531.57 1581.6 1528.83 1581.13 Q1526.09 1580.68 1523.51 1579.72 L1523.51 1574.03 Q1526.09 1575.43 1528.61 1576.1 Q1531.12 1576.76 1533.73 1576.76 Q1539.49 1576.76 1542.35 1573.74 Q1545.22 1570.75 1545.22 1564.67 L1545.22 1561.77 Q1543.41 1564.92 1540.57 1566.48 Q1537.74 1568.04 1533.79 1568.04 Q1527.24 1568.04 1523.23 1563.05 Q1519.22 1558.05 1519.22 1549.81 Q1519.22 1541.53 1523.23 1536.53 Q1527.24 1531.54 1533.79 1531.54 Q1537.74 1531.54 1540.57 1533.1 Q1543.41 1534.66 1545.22 1537.81 L1545.22 1532.4 L1551.08 1532.4 L1551.08 1563.62 Z" fill="#000000" fill-rule="evenodd" fill-opacity="1" /><path clip-path="url(#clip100)" d="M1573.55 1520.52 L1578.96 1520.52 L1562.41 1574.09 L1557 1574.09 L1573.55 1520.52 Z" fill="#000000" fill-rule="evenodd" fill-opacity="1" /><path clip-path="url(#clip100)" d="M1584.88 1518.52 L1590.77 1518.52 L1590.77 1547.77 L1608.24 1532.4 L1615.72 1532.4 L1596.81 1549.07 L1616.52 1568.04 L1608.88 1568.04 L1590.77 1550.63 L1590.77 1568.04 L1584.88 1568.04 L1584.88 1518.52 Z" fill="#000000" fill-rule="evenodd" fill-opacity="1" /><path clip-path="url(#clip100)" d="M1646.31 1549.81 Q1646.31 1543.44 1643.67 1539.94 Q1641.06 1536.44 1636.31 1536.44 Q1631.6 1536.44 1628.96 1539.94 Q1626.35 1543.44 1626.35 1549.81 Q1626.35 1556.14 1628.96 1559.64 Q1631.6 1563.14 1636.31 1563.14 Q1641.06 1563.14 1643.67 1559.64 Q1646.31 1556.14 1646.31 1549.81 M1652.16 1563.62 Q1652.16 1572.72 1648.12 1577.15 Q1644.08 1581.6 1635.74 1581.6 Q1632.65 1581.6 1629.92 1581.13 Q1627.18 1580.68 1624.6 1579.72 L1624.6 1574.03 Q1627.18 1575.43 1629.69 1576.1 Q1632.21 1576.76 1634.82 1576.76 Q1640.58 1576.76 1643.44 1573.74 Q1646.31 1570.75 1646.31 1564.67 L1646.31 1561.77 Q1644.49 1564.92 1641.66 1566.48 Q1638.83 1568.04 1634.88 1568.04 Q1628.32 1568.04 1624.31 1563.05 Q1620.3 1558.05 1620.3 1549.81 Q1620.3 1541.53 1624.31 1536.53 Q1628.32 1531.54 1634.88 1531.54 Q1638.83 1531.54 1641.66 1533.1 Q1644.49 1534.66 1646.31 1537.81 L1646.31 1532.4 L1652.16 1532.4 L1652.16 1563.62 Z" fill="#000000" fill-rule="evenodd" fill-opacity="1" /><path clip-path="url(#clip100)" d="M1677.91 1518.52 L1677.91 1576.64 L1664.42 1576.64 L1664.42 1572.09 L1672.02 1572.09 L1672.02 1523.07 L1664.42 1523.07 L1664.42 1518.52 L1677.91 1518.52 Z" fill="#000000" fill-rule="evenodd" fill-opacity="1" /><polyline clip-path="url(#clip102)" style="stroke:#000000; stroke-linecap:butt; stroke-linejoin:round; stroke-width:2; stroke-opacity:0.1; fill:none" points="
  370.509,1384.24 2352.76,1384.24 
  "/>
<polyline clip-path="url(#clip102)" style="stroke:#000000; stroke-linecap:butt; stroke-linejoin:round; stroke-width:2; stroke-opacity:0.1; fill:none" points="
  370.509,1191.04 2352.76,1191.04 
  "/>
<polyline clip-path="url(#clip102)" style="stroke:#000000; stroke-linecap:butt; stroke-linejoin:round; stroke-width:2; stroke-opacity:0.1; fill:none" points="
  370.509,997.85 2352.76,997.85 
  "/>
<polyline clip-path="url(#clip102)" style="stroke:#000000; stroke-linecap:butt; stroke-linejoin:round; stroke-width:2; stroke-opacity:0.1; fill:none" points="
  370.509,804.656 2352.76,804.656 
  "/>
<polyline clip-path="url(#clip102)" style="stroke:#000000; stroke-linecap:butt; stroke-linejoin:round; stroke-width:2; stroke-opacity:0.1; fill:none" points="
  370.509,611.461 2352.76,611.461 
  "/>
<polyline clip-path="url(#clip102)" style="stroke:#000000; stroke-linecap:butt; stroke-linejoin:round; stroke-width:2; stroke-opacity:0.1; fill:none" points="
  370.509,418.267 2352.76,418.267 
  "/>
<polyline clip-path="url(#clip102)" style="stroke:#000000; stroke-linecap:butt; stroke-linejoin:round; stroke-width:2; stroke-opacity:0.1; fill:none" points="
  370.509,225.073 2352.76,225.073 
  "/>
<polyline clip-path="url(#clip100)" style="stroke:#000000; stroke-linecap:butt; stroke-linejoin:round; stroke-width:4; stroke-opacity:1; fill:none" points="
  370.509,1423.18 370.509,47.2441 
  "/>
<polyline clip-path="url(#clip100)" style="stroke:#000000; stroke-linecap:butt; stroke-linejoin:round; stroke-width:4; stroke-opacity:1; fill:none" points="
  370.509,1384.24 389.407,1384.24 
  "/>
<polyline clip-path="url(#clip100)" style="stroke:#000000; stroke-linecap:butt; stroke-linejoin:round; stroke-width:4; stroke-opacity:1; fill:none" points="
  370.509,1191.04 389.407,1191.04 
  "/>
<polyline clip-path="url(#clip100)" style="stroke:#000000; stroke-linecap:butt; stroke-linejoin:round; stroke-width:4; stroke-opacity:1; fill:none" points="
  370.509,997.85 389.407,997.85 
  "/>
<polyline clip-path="url(#clip100)" style="stroke:#000000; stroke-linecap:butt; stroke-linejoin:round; stroke-width:4; stroke-opacity:1; fill:none" points="
  370.509,804.656 389.407,804.656 
  "/>
<polyline clip-path="url(#clip100)" style="stroke:#000000; stroke-linecap:butt; stroke-linejoin:round; stroke-width:4; stroke-opacity:1; fill:none" points="
  370.509,611.461 389.407,611.461 
  "/>
<polyline clip-path="url(#clip100)" style="stroke:#000000; stroke-linecap:butt; stroke-linejoin:round; stroke-width:4; stroke-opacity:1; fill:none" points="
  370.509,418.267 389.407,418.267 
  "/>
<polyline clip-path="url(#clip100)" style="stroke:#000000; stroke-linecap:butt; stroke-linejoin:round; stroke-width:4; stroke-opacity:1; fill:none" points="
  370.509,225.073 389.407,225.073 
  "/>
<path clip-path="url(#clip100)" d="M322.565 1370.04 Q318.954 1370.04 317.125 1373.6 Q315.32 1377.14 315.32 1384.27 Q315.32 1391.38 317.125 1394.94 Q318.954 1398.49 322.565 1398.49 Q326.199 1398.49 328.005 1394.94 Q329.833 1391.38 329.833 1384.27 Q329.833 1377.14 328.005 1373.6 Q326.199 1370.04 322.565 1370.04 M322.565 1366.33 Q328.375 1366.33 331.431 1370.94 Q334.509 1375.52 334.509 1384.27 Q334.509 1393 331.431 1397.61 Q328.375 1402.19 322.565 1402.19 Q316.755 1402.19 313.676 1397.61 Q310.621 1393 310.621 1384.27 Q310.621 1375.52 313.676 1370.94 Q316.755 1366.33 322.565 1366.33 Z" fill="#000000" fill-rule="evenodd" fill-opacity="1" /><path clip-path="url(#clip100)" d="M117.825 1210.84 L125.464 1210.84 L125.464 1184.47 L117.154 1186.14 L117.154 1181.88 L125.418 1180.21 L130.093 1180.21 L130.093 1210.84 L137.732 1210.84 L137.732 1214.77 L117.825 1214.77 L117.825 1210.84 Z" fill="#000000" fill-rule="evenodd" fill-opacity="1" /><path clip-path="url(#clip100)" d="M147.177 1208.89 L152.061 1208.89 L152.061 1214.77 L147.177 1214.77 L147.177 1208.89 Z" fill="#000000" fill-rule="evenodd" fill-opacity="1" /><path clip-path="url(#clip100)" d="M172.246 1183.29 Q168.635 1183.29 166.806 1186.86 Q165.001 1190.4 165.001 1197.53 Q165.001 1204.63 166.806 1208.2 Q168.635 1211.74 172.246 1211.74 Q175.88 1211.74 177.686 1208.2 Q179.514 1204.63 179.514 1197.53 Q179.514 1190.4 177.686 1186.86 Q175.88 1183.29 172.246 1183.29 M172.246 1179.59 Q178.056 1179.59 181.112 1184.19 Q184.19 1188.78 184.19 1197.53 Q184.19 1206.25 181.112 1210.86 Q178.056 1215.44 172.246 1215.44 Q166.436 1215.44 163.357 1210.86 Q160.302 1206.25 160.302 1197.53 Q160.302 1188.78 163.357 1184.19 Q166.436 1179.59 172.246 1179.59 Z" fill="#000000" fill-rule="evenodd" fill-opacity="1" /><path clip-path="url(#clip100)" d="M220.579 1189.31 L210 1199.93 L220.579 1210.51 L217.824 1213.31 L207.199 1202.69 L196.575 1213.31 L193.843 1210.51 L204.399 1199.93 L193.843 1189.31 L196.575 1186.51 L207.199 1197.13 L217.824 1186.51 L220.579 1189.31 Z" fill="#000000" fill-rule="evenodd" fill-opacity="1" /><path clip-path="url(#clip100)" d="M232.94 1210.84 L240.579 1210.84 L240.579 1184.47 L232.269 1186.14 L232.269 1181.88 L240.533 1180.21 L245.209 1180.21 L245.209 1210.84 L252.847 1210.84 L252.847 1214.77 L232.94 1214.77 L232.94 1210.84 Z" fill="#000000" fill-rule="evenodd" fill-opacity="1" /><path clip-path="url(#clip100)" d="M272.292 1183.29 Q268.681 1183.29 266.852 1186.86 Q265.046 1190.4 265.046 1197.53 Q265.046 1204.63 266.852 1208.2 Q268.681 1211.74 272.292 1211.74 Q275.926 1211.74 277.732 1208.2 Q279.56 1204.63 279.56 1197.53 Q279.56 1190.4 277.732 1186.86 Q275.926 1183.29 272.292 1183.29 M272.292 1179.59 Q278.102 1179.59 281.157 1184.19 Q284.236 1188.78 284.236 1197.53 Q284.236 1206.25 281.157 1210.86 Q278.102 1215.44 272.292 1215.44 Q266.482 1215.44 263.403 1210.86 Q260.347 1206.25 260.347 1197.53 Q260.347 1188.78 263.403 1184.19 Q266.482 1179.59 272.292 1179.59 Z" fill="#000000" fill-rule="evenodd" fill-opacity="1" /><path clip-path="url(#clip100)" d="M284.236 1173.69 L308.348 1173.69 L308.348 1176.89 L284.236 1176.89 L284.236 1173.69 Z" fill="#000000" fill-rule="evenodd" fill-opacity="1" /><path clip-path="url(#clip100)" d="M325.143 1171.81 Q322.585 1171.81 321.081 1173.56 Q319.595 1175.31 319.595 1178.35 Q319.595 1181.38 321.081 1183.15 Q322.585 1184.9 325.143 1184.9 Q327.701 1184.9 329.187 1183.15 Q330.691 1181.38 330.691 1178.35 Q330.691 1175.31 329.187 1173.56 Q327.701 1171.81 325.143 1171.81 M332.685 1159.9 L332.685 1163.36 Q331.256 1162.69 329.789 1162.33 Q328.34 1161.97 326.911 1161.97 Q323.149 1161.97 321.156 1164.51 Q319.181 1167.05 318.899 1172.18 Q320.008 1170.55 321.682 1169.68 Q323.356 1168.8 325.369 1168.8 Q329.6 1168.8 332.045 1171.37 Q334.509 1173.93 334.509 1178.35 Q334.509 1182.68 331.951 1185.29 Q329.394 1187.91 325.143 1187.91 Q320.272 1187.91 317.695 1184.18 Q315.118 1180.44 315.118 1173.35 Q315.118 1166.69 318.278 1162.74 Q321.438 1158.77 326.76 1158.77 Q328.19 1158.77 329.638 1159.06 Q331.105 1159.34 332.685 1159.9 Z" fill="#000000" fill-rule="evenodd" fill-opacity="1" /><path clip-path="url(#clip100)" d="M121.043 1017.64 L137.362 1017.64 L137.362 1021.58 L115.418 1021.58 L115.418 1017.64 Q118.08 1014.89 122.663 1010.26 Q127.269 1005.61 128.45 1004.26 Q130.695 1001.74 131.575 1000 Q132.478 998.244 132.478 996.554 Q132.478 993.8 130.533 992.064 Q128.612 990.328 125.51 990.328 Q123.311 990.328 120.857 991.091 Q118.427 991.855 115.649 993.406 L115.649 988.684 Q118.473 987.55 120.927 986.971 Q123.38 986.392 125.418 986.392 Q130.788 986.392 133.982 989.078 Q137.177 991.763 137.177 996.253 Q137.177 998.383 136.367 1000.3 Q135.579 1002.2 133.473 1004.8 Q132.894 1005.47 129.792 1008.68 Q126.691 1011.88 121.043 1017.64 Z" fill="#000000" fill-rule="evenodd" fill-opacity="1" /><path clip-path="url(#clip100)" d="M147.177 1015.7 L152.061 1015.7 L152.061 1021.58 L147.177 1021.58 L147.177 1015.7 Z" fill="#000000" fill-rule="evenodd" fill-opacity="1" /><path clip-path="url(#clip100)" d="M172.246 990.096 Q168.635 990.096 166.806 993.661 Q165.001 997.203 165.001 1004.33 Q165.001 1011.44 166.806 1015 Q168.635 1018.54 172.246 1018.54 Q175.88 1018.54 177.686 1015 Q179.514 1011.44 179.514 1004.33 Q179.514 997.203 177.686 993.661 Q175.88 990.096 172.246 990.096 M172.246 986.392 Q178.056 986.392 181.112 990.999 Q184.19 995.582 184.19 1004.33 Q184.19 1013.06 181.112 1017.67 Q178.056 1022.25 172.246 1022.25 Q166.436 1022.25 163.357 1017.67 Q160.302 1013.06 160.302 1004.33 Q160.302 995.582 163.357 990.999 Q166.436 986.392 172.246 986.392 Z" fill="#000000" fill-rule="evenodd" fill-opacity="1" /><path clip-path="url(#clip100)" d="M220.579 996.115 L210 1006.74 L220.579 1017.32 L217.824 1020.12 L207.199 1009.49 L196.575 1020.12 L193.843 1017.32 L204.399 1006.74 L193.843 996.115 L196.575 993.314 L207.199 1003.94 L217.824 993.314 L220.579 996.115 Z" fill="#000000" fill-rule="evenodd" fill-opacity="1" /><path clip-path="url(#clip100)" d="M232.94 1017.64 L240.579 1017.64 L240.579 991.277 L232.269 992.943 L232.269 988.684 L240.533 987.017 L245.209 987.017 L245.209 1017.64 L252.847 1017.64 L252.847 1021.58 L232.94 1021.58 L232.94 1017.64 Z" fill="#000000" fill-rule="evenodd" fill-opacity="1" /><path clip-path="url(#clip100)" d="M272.292 990.096 Q268.681 990.096 266.852 993.661 Q265.046 997.203 265.046 1004.33 Q265.046 1011.44 266.852 1015 Q268.681 1018.54 272.292 1018.54 Q275.926 1018.54 277.732 1015 Q279.56 1011.44 279.56 1004.33 Q279.56 997.203 277.732 993.661 Q275.926 990.096 272.292 990.096 M272.292 986.392 Q278.102 986.392 281.157 990.999 Q284.236 995.582 284.236 1004.33 Q284.236 1013.06 281.157 1017.67 Q278.102 1022.25 272.292 1022.25 Q266.482 1022.25 263.403 1017.67 Q260.347 1013.06 260.347 1004.33 Q260.347 995.582 263.403 990.999 Q266.482 986.392 272.292 986.392 Z" fill="#000000" fill-rule="evenodd" fill-opacity="1" /><path clip-path="url(#clip100)" d="M284.236 980.494 L308.348 980.494 L308.348 983.691 L284.236 983.691 L284.236 980.494 Z" fill="#000000" fill-rule="evenodd" fill-opacity="1" /><path clip-path="url(#clip100)" d="M325.143 978.613 Q322.585 978.613 321.081 980.362 Q319.595 982.111 319.595 985.158 Q319.595 988.186 321.081 989.954 Q322.585 991.703 325.143 991.703 Q327.701 991.703 329.187 989.954 Q330.691 988.186 330.691 985.158 Q330.691 982.111 329.187 980.362 Q327.701 978.613 325.143 978.613 M332.685 966.708 L332.685 970.168 Q331.256 969.491 329.789 969.134 Q328.34 968.776 326.911 968.776 Q323.149 968.776 321.156 971.316 Q319.181 973.855 318.899 978.989 Q320.008 977.353 321.682 976.488 Q323.356 975.604 325.369 975.604 Q329.6 975.604 332.045 978.18 Q334.509 980.738 334.509 985.158 Q334.509 989.484 331.951 992.098 Q329.394 994.712 325.143 994.712 Q320.272 994.712 317.695 990.988 Q315.118 987.246 315.118 980.155 Q315.118 973.497 318.278 969.548 Q321.438 965.579 326.76 965.579 Q328.19 965.579 329.638 965.861 Q331.105 966.143 332.685 966.708 Z" fill="#000000" fill-rule="evenodd" fill-opacity="1" /><path clip-path="url(#clip100)" d="M131.181 809.749 Q134.538 810.467 136.413 812.735 Q138.311 815.004 138.311 818.337 Q138.311 823.453 134.792 826.254 Q131.274 829.054 124.793 829.054 Q122.617 829.054 120.302 828.615 Q118.01 828.198 115.556 827.341 L115.556 822.828 Q117.501 823.962 119.816 824.541 Q122.13 825.119 124.654 825.119 Q129.052 825.119 131.343 823.383 Q133.658 821.647 133.658 818.337 Q133.658 815.281 131.505 813.568 Q129.376 811.832 125.556 811.832 L121.529 811.832 L121.529 807.99 L125.742 807.99 Q129.191 807.99 131.019 806.624 Q132.848 805.235 132.848 802.643 Q132.848 799.98 130.95 798.568 Q129.075 797.133 125.556 797.133 Q123.635 797.133 121.436 797.55 Q119.237 797.967 116.598 798.846 L116.598 794.68 Q119.26 793.939 121.575 793.568 Q123.913 793.198 125.973 793.198 Q131.297 793.198 134.399 795.629 Q137.501 798.036 137.501 802.156 Q137.501 805.027 135.857 807.017 Q134.214 808.985 131.181 809.749 Z" fill="#000000" fill-rule="evenodd" fill-opacity="1" /><path clip-path="url(#clip100)" d="M147.177 822.504 L152.061 822.504 L152.061 828.383 L147.177 828.383 L147.177 822.504 Z" fill="#000000" fill-rule="evenodd" fill-opacity="1" /><path clip-path="url(#clip100)" d="M172.246 796.902 Q168.635 796.902 166.806 800.467 Q165.001 804.008 165.001 811.138 Q165.001 818.244 166.806 821.809 Q168.635 825.351 172.246 825.351 Q175.88 825.351 177.686 821.809 Q179.514 818.244 179.514 811.138 Q179.514 804.008 177.686 800.467 Q175.88 796.902 172.246 796.902 M172.246 793.198 Q178.056 793.198 181.112 797.805 Q184.19 802.388 184.19 811.138 Q184.19 819.865 181.112 824.471 Q178.056 829.054 172.246 829.054 Q166.436 829.054 163.357 824.471 Q160.302 819.865 160.302 811.138 Q160.302 802.388 163.357 797.805 Q166.436 793.198 172.246 793.198 Z" fill="#000000" fill-rule="evenodd" fill-opacity="1" /><path clip-path="url(#clip100)" d="M220.579 802.92 L210 813.545 L220.579 824.124 L217.824 826.925 L207.199 816.3 L196.575 826.925 L193.843 824.124 L204.399 813.545 L193.843 802.92 L196.575 800.119 L207.199 810.744 L217.824 800.119 L220.579 802.92 Z" fill="#000000" fill-rule="evenodd" fill-opacity="1" /><path clip-path="url(#clip100)" d="M232.94 824.448 L240.579 824.448 L240.579 798.082 L232.269 799.749 L232.269 795.49 L240.533 793.823 L245.209 793.823 L245.209 824.448 L252.847 824.448 L252.847 828.383 L232.94 828.383 L232.94 824.448 Z" fill="#000000" fill-rule="evenodd" fill-opacity="1" /><path clip-path="url(#clip100)" d="M272.292 796.902 Q268.681 796.902 266.852 800.467 Q265.046 804.008 265.046 811.138 Q265.046 818.244 266.852 821.809 Q268.681 825.351 272.292 825.351 Q275.926 825.351 277.732 821.809 Q279.56 818.244 279.56 811.138 Q279.56 804.008 277.732 800.467 Q275.926 796.902 272.292 796.902 M272.292 793.198 Q278.102 793.198 281.157 797.805 Q284.236 802.388 284.236 811.138 Q284.236 819.865 281.157 824.471 Q278.102 829.054 272.292 829.054 Q266.482 829.054 263.403 824.471 Q260.347 819.865 260.347 811.138 Q260.347 802.388 263.403 797.805 Q266.482 793.198 272.292 793.198 Z" fill="#000000" fill-rule="evenodd" fill-opacity="1" /><path clip-path="url(#clip100)" d="M284.236 787.299 L308.348 787.299 L308.348 790.497 L284.236 790.497 L284.236 787.299 Z" fill="#000000" fill-rule="evenodd" fill-opacity="1" /><path clip-path="url(#clip100)" d="M325.143 785.419 Q322.585 785.419 321.081 787.168 Q319.595 788.917 319.595 791.964 Q319.595 794.992 321.081 796.76 Q322.585 798.509 325.143 798.509 Q327.701 798.509 329.187 796.76 Q330.691 794.992 330.691 791.964 Q330.691 788.917 329.187 787.168 Q327.701 785.419 325.143 785.419 M332.685 773.513 L332.685 776.974 Q331.256 776.297 329.789 775.94 Q328.34 775.582 326.911 775.582 Q323.149 775.582 321.156 778.121 Q319.181 780.66 318.899 785.795 Q320.008 784.159 321.682 783.293 Q323.356 782.409 325.369 782.409 Q329.6 782.409 332.045 784.986 Q334.509 787.544 334.509 791.964 Q334.509 796.29 331.951 798.904 Q329.394 801.518 325.143 801.518 Q320.272 801.518 317.695 797.794 Q315.118 794.051 315.118 786.961 Q315.118 780.303 318.278 776.353 Q321.438 772.385 326.76 772.385 Q328.19 772.385 329.638 772.667 Q331.105 772.949 332.685 773.513 Z" fill="#000000" fill-rule="evenodd" fill-opacity="1" /><path clip-path="url(#clip100)" d="M129.862 604.703 L118.056 623.152 L129.862 623.152 L129.862 604.703 M128.635 600.629 L134.515 600.629 L134.515 623.152 L139.445 623.152 L139.445 627.041 L134.515 627.041 L134.515 635.189 L129.862 635.189 L129.862 627.041 L114.26 627.041 L114.26 622.527 L128.635 600.629 Z" fill="#000000" fill-rule="evenodd" fill-opacity="1" /><path clip-path="url(#clip100)" d="M147.177 629.309 L152.061 629.309 L152.061 635.189 L147.177 635.189 L147.177 629.309 Z" fill="#000000" fill-rule="evenodd" fill-opacity="1" /><path clip-path="url(#clip100)" d="M172.246 603.708 Q168.635 603.708 166.806 607.272 Q165.001 610.814 165.001 617.944 Q165.001 625.05 166.806 628.615 Q168.635 632.156 172.246 632.156 Q175.88 632.156 177.686 628.615 Q179.514 625.05 179.514 617.944 Q179.514 610.814 177.686 607.272 Q175.88 603.708 172.246 603.708 M172.246 600.004 Q178.056 600.004 181.112 604.61 Q184.19 609.194 184.19 617.944 Q184.19 626.67 181.112 631.277 Q178.056 635.86 172.246 635.86 Q166.436 635.86 163.357 631.277 Q160.302 626.67 160.302 617.944 Q160.302 609.194 163.357 604.61 Q166.436 600.004 172.246 600.004 Z" fill="#000000" fill-rule="evenodd" fill-opacity="1" /><path clip-path="url(#clip100)" d="M220.579 609.726 L210 620.351 L220.579 630.93 L217.824 633.731 L207.199 623.106 L196.575 633.731 L193.843 630.93 L204.399 620.351 L193.843 609.726 L196.575 606.925 L207.199 617.55 L217.824 606.925 L220.579 609.726 Z" fill="#000000" fill-rule="evenodd" fill-opacity="1" /><path clip-path="url(#clip100)" d="M232.94 631.254 L240.579 631.254 L240.579 604.888 L232.269 606.555 L232.269 602.296 L240.533 600.629 L245.209 600.629 L245.209 631.254 L252.847 631.254 L252.847 635.189 L232.94 635.189 L232.94 631.254 Z" fill="#000000" fill-rule="evenodd" fill-opacity="1" /><path clip-path="url(#clip100)" d="M272.292 603.708 Q268.681 603.708 266.852 607.272 Q265.046 610.814 265.046 617.944 Q265.046 625.05 266.852 628.615 Q268.681 632.156 272.292 632.156 Q275.926 632.156 277.732 628.615 Q279.56 625.05 279.56 617.944 Q279.56 610.814 277.732 607.272 Q275.926 603.708 272.292 603.708 M272.292 600.004 Q278.102 600.004 281.157 604.61 Q284.236 609.194 284.236 617.944 Q284.236 626.67 281.157 631.277 Q278.102 635.86 272.292 635.86 Q266.482 635.86 263.403 631.277 Q260.347 626.67 260.347 617.944 Q260.347 609.194 263.403 604.61 Q266.482 600.004 272.292 600.004 Z" fill="#000000" fill-rule="evenodd" fill-opacity="1" /><path clip-path="url(#clip100)" d="M284.236 594.105 L308.348 594.105 L308.348 597.303 L284.236 597.303 L284.236 594.105 Z" fill="#000000" fill-rule="evenodd" fill-opacity="1" /><path clip-path="url(#clip100)" d="M325.143 592.224 Q322.585 592.224 321.081 593.974 Q319.595 595.723 319.595 598.77 Q319.595 601.798 321.081 603.566 Q322.585 605.315 325.143 605.315 Q327.701 605.315 329.187 603.566 Q330.691 601.798 330.691 598.77 Q330.691 595.723 329.187 593.974 Q327.701 592.224 325.143 592.224 M332.685 580.319 L332.685 583.78 Q331.256 583.103 329.789 582.745 Q328.34 582.388 326.911 582.388 Q323.149 582.388 321.156 584.927 Q319.181 587.466 318.899 592.601 Q320.008 590.964 321.682 590.099 Q323.356 589.215 325.369 589.215 Q329.6 589.215 332.045 591.792 Q334.509 594.35 334.509 598.77 Q334.509 603.095 331.951 605.71 Q329.394 608.324 325.143 608.324 Q320.272 608.324 317.695 604.6 Q315.118 600.857 315.118 593.767 Q315.118 587.109 318.278 583.159 Q321.438 579.191 326.76 579.191 Q328.19 579.191 329.638 579.473 Q331.105 579.755 332.685 580.319 Z" fill="#000000" fill-rule="evenodd" fill-opacity="1" /><path clip-path="url(#clip100)" d="M117.061 407.435 L135.417 407.435 L135.417 411.37 L121.343 411.37 L121.343 419.842 Q122.362 419.495 123.38 419.333 Q124.399 419.148 125.418 419.148 Q131.205 419.148 134.584 422.319 Q137.964 425.49 137.964 430.907 Q137.964 436.485 134.492 439.587 Q131.019 442.666 124.7 442.666 Q122.524 442.666 120.255 442.296 Q118.01 441.925 115.603 441.184 L115.603 436.485 Q117.686 437.62 119.908 438.175 Q122.13 438.731 124.607 438.731 Q128.612 438.731 130.95 436.624 Q133.288 434.518 133.288 430.907 Q133.288 427.296 130.95 425.189 Q128.612 423.083 124.607 423.083 Q122.732 423.083 120.857 423.499 Q119.006 423.916 117.061 424.796 L117.061 407.435 Z" fill="#000000" fill-rule="evenodd" fill-opacity="1" /><path clip-path="url(#clip100)" d="M147.177 436.115 L152.061 436.115 L152.061 441.995 L147.177 441.995 L147.177 436.115 Z" fill="#000000" fill-rule="evenodd" fill-opacity="1" /><path clip-path="url(#clip100)" d="M172.246 410.513 Q168.635 410.513 166.806 414.078 Q165.001 417.62 165.001 424.749 Q165.001 431.856 166.806 435.421 Q168.635 438.962 172.246 438.962 Q175.88 438.962 177.686 435.421 Q179.514 431.856 179.514 424.749 Q179.514 417.62 177.686 414.078 Q175.88 410.513 172.246 410.513 M172.246 406.81 Q178.056 406.81 181.112 411.416 Q184.19 415.999 184.19 424.749 Q184.19 433.476 181.112 438.083 Q178.056 442.666 172.246 442.666 Q166.436 442.666 163.357 438.083 Q160.302 433.476 160.302 424.749 Q160.302 415.999 163.357 411.416 Q166.436 406.81 172.246 406.81 Z" fill="#000000" fill-rule="evenodd" fill-opacity="1" /><path clip-path="url(#clip100)" d="M220.579 416.532 L210 427.157 L220.579 437.735 L217.824 440.536 L207.199 429.911 L196.575 440.536 L193.843 437.735 L204.399 427.157 L193.843 416.532 L196.575 413.731 L207.199 424.356 L217.824 413.731 L220.579 416.532 Z" fill="#000000" fill-rule="evenodd" fill-opacity="1" /><path clip-path="url(#clip100)" d="M232.94 438.059 L240.579 438.059 L240.579 411.694 L232.269 413.361 L232.269 409.101 L240.533 407.435 L245.209 407.435 L245.209 438.059 L252.847 438.059 L252.847 441.995 L232.94 441.995 L232.94 438.059 Z" fill="#000000" fill-rule="evenodd" fill-opacity="1" /><path clip-path="url(#clip100)" d="M272.292 410.513 Q268.681 410.513 266.852 414.078 Q265.046 417.62 265.046 424.749 Q265.046 431.856 266.852 435.421 Q268.681 438.962 272.292 438.962 Q275.926 438.962 277.732 435.421 Q279.56 431.856 279.56 424.749 Q279.56 417.62 277.732 414.078 Q275.926 410.513 272.292 410.513 M272.292 406.81 Q278.102 406.81 281.157 411.416 Q284.236 415.999 284.236 424.749 Q284.236 433.476 281.157 438.083 Q278.102 442.666 272.292 442.666 Q266.482 442.666 263.403 438.083 Q260.347 433.476 260.347 424.749 Q260.347 415.999 263.403 411.416 Q266.482 406.81 272.292 406.81 Z" fill="#000000" fill-rule="evenodd" fill-opacity="1" /><path clip-path="url(#clip100)" d="M284.236 400.911 L308.348 400.911 L308.348 404.108 L284.236 404.108 L284.236 400.911 Z" fill="#000000" fill-rule="evenodd" fill-opacity="1" /><path clip-path="url(#clip100)" d="M325.143 399.03 Q322.585 399.03 321.081 400.779 Q319.595 402.528 319.595 405.575 Q319.595 408.603 321.081 410.371 Q322.585 412.12 325.143 412.12 Q327.701 412.12 329.187 410.371 Q330.691 408.603 330.691 405.575 Q330.691 402.528 329.187 400.779 Q327.701 399.03 325.143 399.03 M332.685 387.125 L332.685 390.586 Q331.256 389.908 329.789 389.551 Q328.34 389.194 326.911 389.194 Q323.149 389.194 321.156 391.733 Q319.181 394.272 318.899 399.406 Q320.008 397.77 321.682 396.905 Q323.356 396.021 325.369 396.021 Q329.6 396.021 332.045 398.598 Q334.509 401.155 334.509 405.575 Q334.509 409.901 331.951 412.515 Q329.394 415.13 325.143 415.13 Q320.272 415.13 317.695 411.406 Q315.118 407.663 315.118 400.572 Q315.118 393.914 318.278 389.965 Q321.438 385.996 326.76 385.996 Q328.19 385.996 329.638 386.279 Q331.105 386.561 332.685 387.125 Z" fill="#000000" fill-rule="evenodd" fill-opacity="1" /><path clip-path="url(#clip100)" d="M127.593 229.657 Q124.445 229.657 122.593 231.81 Q120.765 233.963 120.765 237.712 Q120.765 241.439 122.593 243.615 Q124.445 245.768 127.593 245.768 Q130.742 245.768 132.57 243.615 Q134.422 241.439 134.422 237.712 Q134.422 233.963 132.57 231.81 Q130.742 229.657 127.593 229.657 M136.876 215.004 L136.876 219.264 Q135.117 218.43 133.311 217.99 Q131.529 217.551 129.769 217.551 Q125.14 217.551 122.686 220.676 Q120.255 223.801 119.908 230.12 Q121.274 228.106 123.334 227.041 Q125.394 225.953 127.871 225.953 Q133.08 225.953 136.089 229.125 Q139.121 232.273 139.121 237.712 Q139.121 243.037 135.973 246.254 Q132.825 249.472 127.593 249.472 Q121.598 249.472 118.427 244.888 Q115.256 240.282 115.256 231.555 Q115.256 223.361 119.144 218.5 Q123.033 213.615 129.584 213.615 Q131.343 213.615 133.126 213.963 Q134.931 214.31 136.876 215.004 Z" fill="#000000" fill-rule="evenodd" fill-opacity="1" /><path clip-path="url(#clip100)" d="M147.177 242.921 L152.061 242.921 L152.061 248.8 L147.177 248.8 L147.177 242.921 Z" fill="#000000" fill-rule="evenodd" fill-opacity="1" /><path clip-path="url(#clip100)" d="M172.246 217.319 Q168.635 217.319 166.806 220.884 Q165.001 224.426 165.001 231.555 Q165.001 238.662 166.806 242.226 Q168.635 245.768 172.246 245.768 Q175.88 245.768 177.686 242.226 Q179.514 238.662 179.514 231.555 Q179.514 224.426 177.686 220.884 Q175.88 217.319 172.246 217.319 M172.246 213.615 Q178.056 213.615 181.112 218.222 Q184.19 222.805 184.19 231.555 Q184.19 240.282 181.112 244.888 Q178.056 249.472 172.246 249.472 Q166.436 249.472 163.357 244.888 Q160.302 240.282 160.302 231.555 Q160.302 222.805 163.357 218.222 Q166.436 213.615 172.246 213.615 Z" fill="#000000" fill-rule="evenodd" fill-opacity="1" /><path clip-path="url(#clip100)" d="M220.579 223.338 L210 233.963 L220.579 244.541 L217.824 247.342 L207.199 236.717 L196.575 247.342 L193.843 244.541 L204.399 233.963 L193.843 223.338 L196.575 220.537 L207.199 231.162 L217.824 220.537 L220.579 223.338 Z" fill="#000000" fill-rule="evenodd" fill-opacity="1" /><path clip-path="url(#clip100)" d="M232.94 244.865 L240.579 244.865 L240.579 218.5 L232.269 220.166 L232.269 215.907 L240.533 214.24 L245.209 214.24 L245.209 244.865 L252.847 244.865 L252.847 248.8 L232.94 248.8 L232.94 244.865 Z" fill="#000000" fill-rule="evenodd" fill-opacity="1" /><path clip-path="url(#clip100)" d="M272.292 217.319 Q268.681 217.319 266.852 220.884 Q265.046 224.426 265.046 231.555 Q265.046 238.662 266.852 242.226 Q268.681 245.768 272.292 245.768 Q275.926 245.768 277.732 242.226 Q279.56 238.662 279.56 231.555 Q279.56 224.426 277.732 220.884 Q275.926 217.319 272.292 217.319 M272.292 213.615 Q278.102 213.615 281.157 218.222 Q284.236 222.805 284.236 231.555 Q284.236 240.282 281.157 244.888 Q278.102 249.472 272.292 249.472 Q266.482 249.472 263.403 244.888 Q260.347 240.282 260.347 231.555 Q260.347 222.805 263.403 218.222 Q266.482 213.615 272.292 213.615 Z" fill="#000000" fill-rule="evenodd" fill-opacity="1" /><path clip-path="url(#clip100)" d="M284.236 207.717 L308.348 207.717 L308.348 210.914 L284.236 210.914 L284.236 207.717 Z" fill="#000000" fill-rule="evenodd" fill-opacity="1" /><path clip-path="url(#clip100)" d="M325.143 205.836 Q322.585 205.836 321.081 207.585 Q319.595 209.334 319.595 212.381 Q319.595 215.409 321.081 217.177 Q322.585 218.926 325.143 218.926 Q327.701 218.926 329.187 217.177 Q330.691 215.409 330.691 212.381 Q330.691 209.334 329.187 207.585 Q327.701 205.836 325.143 205.836 M332.685 193.931 L332.685 197.391 Q331.256 196.714 329.789 196.357 Q328.34 195.999 326.911 195.999 Q323.149 195.999 321.156 198.539 Q319.181 201.078 318.899 206.212 Q320.008 204.576 321.682 203.711 Q323.356 202.827 325.369 202.827 Q329.6 202.827 332.045 205.403 Q334.509 207.961 334.509 212.381 Q334.509 216.707 331.951 219.321 Q329.394 221.935 325.143 221.935 Q320.272 221.935 317.695 218.211 Q315.118 214.469 315.118 207.378 Q315.118 200.72 318.278 196.771 Q321.438 192.802 326.76 192.802 Q328.19 192.802 329.638 193.084 Q331.105 193.366 332.685 193.931 Z" fill="#000000" fill-rule="evenodd" fill-opacity="1" /><path clip-path="url(#clip100)" d="M46.0847 1124.32 Q46.0847 1131.41 47.7079 1134.15 Q49.3312 1136.89 53.2461 1136.89 Q56.3653 1136.89 58.2114 1134.85 Q60.0256 1132.78 60.0256 1129.25 Q60.0256 1124.38 56.5881 1121.45 Q53.1188 1118.49 47.3897 1118.49 L46.0847 1118.49 L46.0847 1124.32 M43.6657 1112.63 L64.0042 1112.63 L64.0042 1118.49 L58.5933 1118.49 Q61.8398 1120.5 63.3994 1123.49 Q64.9272 1126.48 64.9272 1130.81 Q64.9272 1136.28 61.8716 1139.53 Q58.7843 1142.74 53.6281 1142.74 Q47.6125 1142.74 44.5569 1138.73 Q41.5014 1134.69 41.5014 1126.7 L41.5014 1118.49 L40.9285 1118.49 Q36.8862 1118.49 34.6901 1121.16 Q32.4621 1123.81 32.4621 1128.61 Q32.4621 1131.67 33.1941 1134.56 Q33.9262 1137.46 35.3903 1140.13 L29.9795 1140.13 Q28.7381 1136.92 28.1334 1133.9 Q27.4968 1130.87 27.4968 1128.01 Q27.4968 1120.27 31.5072 1116.45 Q35.5176 1112.63 43.6657 1112.63 Z" fill="#000000" fill-rule="evenodd" fill-opacity="1" /><path clip-path="url(#clip100)" d="M49.9359 1101.18 L28.3562 1101.18 L28.3562 1095.32 L49.7131 1095.32 Q54.7739 1095.32 57.3202 1093.35 Q59.8346 1091.37 59.8346 1087.43 Q59.8346 1082.68 56.8109 1079.95 Q53.7872 1077.18 48.5673 1077.18 L28.3562 1077.18 L28.3562 1071.32 L64.0042 1071.32 L64.0042 1077.18 L58.5296 1077.18 Q61.7762 1079.31 63.3676 1082.14 Q64.9272 1084.94 64.9272 1088.67 Q64.9272 1094.81 61.1078 1097.99 Q57.2883 1101.18 49.9359 1101.18 M27.4968 1086.44 L27.4968 1086.44 Z" fill="#000000" fill-rule="evenodd" fill-opacity="1" /><path clip-path="url(#clip100)" d="M18.2347 1053.47 L28.3562 1053.47 L28.3562 1041.4 L32.9077 1041.4 L32.9077 1053.47 L52.2594 1053.47 Q56.6199 1053.47 57.8613 1052.29 Q59.1026 1051.08 59.1026 1047.42 L59.1026 1041.4 L64.0042 1041.4 L64.0042 1047.42 Q64.0042 1054.2 61.4897 1056.78 Q58.9434 1059.35 52.2594 1059.35 L32.9077 1059.35 L32.9077 1063.65 L28.3562 1063.65 L28.3562 1059.35 L18.2347 1059.35 L18.2347 1053.47 Z" fill="#000000" fill-rule="evenodd" fill-opacity="1" /><path clip-path="url(#clip100)" d="M32.4621 1019.89 Q32.4621 1024.6 36.1542 1027.33 Q39.8145 1030.07 46.212 1030.07 Q52.6095 1030.07 56.3017 1027.37 Q59.9619 1024.63 59.9619 1019.89 Q59.9619 1015.21 56.2698 1012.47 Q52.5777 1009.73 46.212 1009.73 Q39.8781 1009.73 36.186 1012.47 Q32.4621 1015.21 32.4621 1019.89 M27.4968 1019.89 Q27.4968 1012.25 32.4621 1007.89 Q37.4273 1003.53 46.212 1003.53 Q54.9649 1003.53 59.9619 1007.89 Q64.9272 1012.25 64.9272 1019.89 Q64.9272 1027.56 59.9619 1031.92 Q54.9649 1036.25 46.212 1036.25 Q37.4273 1036.25 32.4621 1031.92 Q27.4968 1027.56 27.4968 1019.89 Z" fill="#000000" fill-rule="evenodd" fill-opacity="1" /><path clip-path="url(#clip100)" d="M29.7248 968.165 L35.1993 968.165 Q33.8307 970.648 33.1623 973.162 Q32.4621 975.645 32.4621 978.191 Q32.4621 983.888 36.0905 987.039 Q39.6872 990.19 46.212 990.19 Q52.7369 990.19 56.3653 987.039 Q59.9619 983.888 59.9619 978.191 Q59.9619 975.645 59.2935 973.162 Q58.5933 970.648 57.2247 968.165 L62.6355 968.165 Q63.7814 970.616 64.3543 973.258 Q64.9272 975.868 64.9272 978.828 Q64.9272 986.88 59.8664 991.623 Q54.8057 996.365 46.212 996.365 Q37.491 996.365 32.4939 991.591 Q27.4968 986.785 27.4968 978.446 Q27.4968 975.74 28.0697 973.162 Q28.6108 970.584 29.7248 968.165 Z" fill="#000000" fill-rule="evenodd" fill-opacity="1" /><path clip-path="url(#clip100)" d="M32.4621 944.166 Q32.4621 948.877 36.1542 951.614 Q39.8145 954.351 46.212 954.351 Q52.6095 954.351 56.3017 951.646 Q59.9619 948.909 59.9619 944.166 Q59.9619 939.487 56.2698 936.75 Q52.5777 934.013 46.212 934.013 Q39.8781 934.013 36.186 936.75 Q32.4621 939.487 32.4621 944.166 M27.4968 944.166 Q27.4968 936.527 32.4621 932.167 Q37.4273 927.806 46.212 927.806 Q54.9649 927.806 59.9619 932.167 Q64.9272 936.527 64.9272 944.166 Q64.9272 951.837 59.9619 956.197 Q54.9649 960.526 46.212 960.526 Q37.4273 960.526 32.4621 956.197 Q27.4968 951.837 27.4968 944.166 Z" fill="#000000" fill-rule="evenodd" fill-opacity="1" /><path clip-path="url(#clip100)" d="M42.4881 888.466 L64.0042 888.466 L64.0042 894.323 L42.679 894.323 Q37.6183 894.323 35.1038 896.296 Q32.5894 898.27 32.5894 902.216 Q32.5894 906.959 35.6131 909.696 Q38.6368 912.433 43.8567 912.433 L64.0042 912.433 L64.0042 918.322 L28.3562 918.322 L28.3562 912.433 L33.8944 912.433 Q30.6797 910.333 29.0883 907.5 Q27.4968 904.635 27.4968 900.911 Q27.4968 894.768 31.3163 891.617 Q35.1038 888.466 42.4881 888.466 Z" fill="#000000" fill-rule="evenodd" fill-opacity="1" /><path clip-path="url(#clip100)" d="M28.3562 880.987 L28.3562 874.78 L58.275 863.64 L28.3562 852.5 L28.3562 846.294 L64.0042 859.662 L64.0042 867.619 L28.3562 880.987 Z" fill="#000000" fill-rule="evenodd" fill-opacity="1" /><path clip-path="url(#clip100)" d="M44.7161 807.717 L47.5806 807.717 L47.5806 834.644 Q53.6281 834.262 56.8109 831.016 Q59.9619 827.738 59.9619 821.913 Q59.9619 818.539 59.1344 815.388 Q58.3069 812.205 56.6518 809.086 L62.1899 809.086 Q63.5267 812.237 64.227 815.547 Q64.9272 818.857 64.9272 822.263 Q64.9272 830.793 59.9619 835.79 Q54.9967 840.755 46.5303 840.755 Q37.7774 840.755 32.6531 836.045 Q27.4968 831.302 27.4968 823.282 Q27.4968 816.088 32.1438 811.919 Q36.7589 807.717 44.7161 807.717 M42.9973 813.574 Q38.1912 813.637 35.3266 816.279 Q32.4621 818.889 32.4621 823.218 Q32.4621 828.119 35.2312 831.08 Q38.0002 834.008 43.0292 834.453 L42.9973 813.574 Z" fill="#000000" fill-rule="evenodd" fill-opacity="1" /><path clip-path="url(#clip100)" d="M33.8307 777.448 Q33.2578 778.435 33.0032 779.613 Q32.7167 780.759 32.7167 782.159 Q32.7167 787.124 35.9632 789.798 Q39.1779 792.44 45.2253 792.44 L64.0042 792.44 L64.0042 798.328 L28.3562 798.328 L28.3562 792.44 L33.8944 792.44 Q30.6479 790.594 29.0883 787.634 Q27.4968 784.674 27.4968 780.44 Q27.4968 779.836 27.5923 779.104 Q27.656 778.371 27.8151 777.48 L33.8307 777.448 Z" fill="#000000" fill-rule="evenodd" fill-opacity="1" /><path clip-path="url(#clip100)" d="M29.4065 748.58 L34.9447 748.58 Q33.6716 751.063 33.035 753.736 Q32.3984 756.41 32.3984 759.274 Q32.3984 763.635 33.7352 765.831 Q35.072 767.995 37.7456 767.995 Q39.7826 767.995 40.9603 766.436 Q42.1061 764.876 43.1565 760.166 L43.6021 758.16 Q44.9389 751.922 47.3897 749.312 Q49.8086 746.67 54.1691 746.67 Q59.1344 746.67 62.0308 750.617 Q64.9272 754.532 64.9272 761.407 Q64.9272 764.271 64.3543 767.391 Q63.8132 770.478 62.6992 773.915 L56.6518 773.915 Q58.3387 770.669 59.198 767.518 Q60.0256 764.367 60.0256 761.28 Q60.0256 757.142 58.6251 754.914 Q57.1929 752.686 54.6147 752.686 Q52.2276 752.686 50.9545 754.309 Q49.6813 755.901 48.5037 761.343 L48.0262 763.38 Q46.8804 768.823 44.5251 771.242 Q42.138 773.661 38.0002 773.661 Q32.9713 773.661 30.2341 770.096 Q27.4968 766.531 27.4968 759.975 Q27.4968 756.728 27.9743 753.863 Q28.4517 750.999 29.4065 748.58 Z" fill="#000000" fill-rule="evenodd" fill-opacity="1" /><path clip-path="url(#clip100)" d="M28.3562 737.344 L28.3562 731.488 L64.0042 731.488 L64.0042 737.344 L28.3562 737.344 M14.479 737.344 L14.479 731.488 L21.895 731.488 L21.895 737.344 L14.479 737.344 Z" fill="#000000" fill-rule="evenodd" fill-opacity="1" /><path clip-path="url(#clip100)" d="M32.4621 705.42 Q32.4621 710.131 36.1542 712.868 Q39.8145 715.606 46.212 715.606 Q52.6095 715.606 56.3017 712.9 Q59.9619 710.163 59.9619 705.42 Q59.9619 700.742 56.2698 698.004 Q52.5777 695.267 46.212 695.267 Q39.8781 695.267 36.186 698.004 Q32.4621 700.742 32.4621 705.42 M27.4968 705.42 Q27.4968 697.782 32.4621 693.421 Q37.4273 689.061 46.212 689.061 Q54.9649 689.061 59.9619 693.421 Q64.9272 697.782 64.9272 705.42 Q64.9272 713.091 59.9619 717.452 Q54.9649 721.78 46.212 721.78 Q37.4273 721.78 32.4621 717.452 Q27.4968 713.091 27.4968 705.42 Z" fill="#000000" fill-rule="evenodd" fill-opacity="1" /><path clip-path="url(#clip100)" d="M42.4881 649.721 L64.0042 649.721 L64.0042 655.577 L42.679 655.577 Q37.6183 655.577 35.1038 657.55 Q32.5894 659.524 32.5894 663.47 Q32.5894 668.213 35.6131 670.95 Q38.6368 673.687 43.8567 673.687 L64.0042 673.687 L64.0042 679.576 L28.3562 679.576 L28.3562 673.687 L33.8944 673.687 Q30.6797 671.587 29.0883 668.754 Q27.4968 665.889 27.4968 662.165 Q27.4968 656.023 31.3163 652.872 Q35.1038 649.721 42.4881 649.721 Z" fill="#000000" fill-rule="evenodd" fill-opacity="1" /><path clip-path="url(#clip100)" d="M33.8307 596.662 Q33.2578 597.649 33.0032 598.827 Q32.7167 599.973 32.7167 601.373 Q32.7167 606.338 35.9632 609.012 Q39.1779 611.654 45.2253 611.654 L64.0042 611.654 L64.0042 617.542 L28.3562 617.542 L28.3562 611.654 L33.8944 611.654 Q30.6479 609.808 29.0883 606.847 Q27.4968 603.887 27.4968 599.654 Q27.4968 599.05 27.5923 598.317 Q27.656 597.585 27.8151 596.694 L33.8307 596.662 Z" fill="#000000" fill-rule="evenodd" fill-opacity="1" /><path clip-path="url(#clip100)" d="M46.0847 574.319 Q46.0847 581.416 47.7079 584.154 Q49.3312 586.891 53.2461 586.891 Q56.3653 586.891 58.2114 584.854 Q60.0256 582.785 60.0256 579.252 Q60.0256 574.382 56.5881 571.454 Q53.1188 568.494 47.3897 568.494 L46.0847 568.494 L46.0847 574.319 M43.6657 562.638 L64.0042 562.638 L64.0042 568.494 L58.5933 568.494 Q61.8398 570.499 63.3994 573.491 Q64.9272 576.483 64.9272 580.812 Q64.9272 586.286 61.8716 589.533 Q58.7843 592.747 53.6281 592.747 Q47.6125 592.747 44.5569 588.737 Q41.5014 584.695 41.5014 576.706 L41.5014 568.494 L40.9285 568.494 Q36.8862 568.494 34.6901 571.168 Q32.4621 573.809 32.4621 578.616 Q32.4621 581.671 33.1941 584.568 Q33.9262 587.464 35.3903 590.138 L29.9795 590.138 Q28.7381 586.923 28.1334 583.899 Q27.4968 580.875 27.4968 578.011 Q27.4968 570.277 31.5072 566.457 Q35.5176 562.638 43.6657 562.638 Z" fill="#000000" fill-rule="evenodd" fill-opacity="1" /><path clip-path="url(#clip100)" d="M18.2347 544.782 L28.3562 544.782 L28.3562 532.719 L32.9077 532.719 L32.9077 544.782 L52.2594 544.782 Q56.6199 544.782 57.8613 543.604 Q59.1026 542.395 59.1026 538.734 L59.1026 532.719 L64.0042 532.719 L64.0042 538.734 Q64.0042 545.514 61.4897 548.092 Q58.9434 550.67 52.2594 550.67 L32.9077 550.67 L32.9077 554.967 L28.3562 554.967 L28.3562 550.67 L18.2347 550.67 L18.2347 544.782 Z" fill="#000000" fill-rule="evenodd" fill-opacity="1" /><path clip-path="url(#clip100)" d="M44.7161 494.525 L47.5806 494.525 L47.5806 521.452 Q53.6281 521.07 56.8109 517.823 Q59.9619 514.545 59.9619 508.72 Q59.9619 505.346 59.1344 502.195 Q58.3069 499.012 56.6518 495.893 L62.1899 495.893 Q63.5267 499.044 64.227 502.354 Q64.9272 505.665 64.9272 509.07 Q64.9272 517.6 59.9619 522.597 Q54.9967 527.563 46.5303 527.563 Q37.7774 527.563 32.6531 522.852 Q27.4968 518.11 27.4968 510.089 Q27.4968 502.896 32.1438 498.726 Q36.7589 494.525 44.7161 494.525 M42.9973 500.381 Q38.1912 500.445 35.3266 503.086 Q32.4621 505.696 32.4621 510.025 Q32.4621 514.927 35.2312 517.887 Q38.0002 520.815 43.0292 521.261 L42.9973 500.381 Z" fill="#000000" fill-rule="evenodd" fill-opacity="1" /><path clip-path="url(#clip100)" d="M14.479 464.733 L14.479 451.238 L19.0304 451.238 L19.0304 458.877 L68.0464 458.877 L68.0464 451.238 L72.5979 451.238 L72.5979 464.733 L14.479 464.733 Z" fill="#000000" fill-rule="evenodd" fill-opacity="1" /><path clip-path="url(#clip100)" d="M58.5933 436.819 L58.5933 426.316 L22.3406 426.316 L24.6323 437.742 L18.7758 437.742 L16.4842 426.38 L16.4842 419.95 L58.5933 419.95 L58.5933 409.447 L64.0042 409.447 L64.0042 436.819 L58.5933 436.819 Z" fill="#000000" fill-rule="evenodd" fill-opacity="1" /><path clip-path="url(#clip100)" d="M16.4842 386.881 L16.4842 381.47 L70.0516 398.02 L70.0516 403.431 L16.4842 386.881 Z" fill="#000000" fill-rule="evenodd" fill-opacity="1" /><path clip-path="url(#clip100)" d="M29.4065 352.601 L34.9447 352.601 Q33.6716 355.084 33.035 357.757 Q32.3984 360.431 32.3984 363.296 Q32.3984 367.656 33.7352 369.852 Q35.072 372.017 37.7456 372.017 Q39.7826 372.017 40.9603 370.457 Q42.1061 368.897 43.1565 364.187 L43.6021 362.182 Q44.9389 355.943 47.3897 353.333 Q49.8086 350.691 54.1691 350.691 Q59.1344 350.691 62.0308 354.638 Q64.9272 358.553 64.9272 365.428 Q64.9272 368.293 64.3543 371.412 Q63.8132 374.499 62.6992 377.937 L56.6518 377.937 Q58.3387 374.69 59.198 371.539 Q60.0256 368.388 60.0256 365.301 Q60.0256 361.163 58.6251 358.935 Q57.1929 356.707 54.6147 356.707 Q52.2276 356.707 50.9545 358.33 Q49.6813 359.922 48.5037 365.364 L48.0262 367.401 Q46.8804 372.844 44.5251 375.263 Q42.138 377.682 38.0002 377.682 Q32.9713 377.682 30.2341 374.117 Q27.4968 370.552 27.4968 363.996 Q27.4968 360.749 27.9743 357.885 Q28.4517 355.02 29.4065 352.601 Z" fill="#000000" fill-rule="evenodd" fill-opacity="1" /><path clip-path="url(#clip100)" d="M14.479 327.679 L72.5979 327.679 L72.5979 341.175 L68.0464 341.175 L68.0464 333.568 L19.0304 333.568 L19.0304 341.175 L14.479 341.175 L14.479 327.679 Z" fill="#000000" fill-rule="evenodd" fill-opacity="1" /><polyline clip-path="url(#clip102)" style="stroke:#009af9; stroke-linecap:butt; stroke-linejoin:round; stroke-width:12; stroke-opacity:1; fill:none" points="
  426.611,1384.24 445.5,1384.24 464.389,1384.24 483.279,1384.24 502.168,1384.24 521.057,1384.24 539.947,1384.24 558.836,1384.24 577.725,1384.24 596.615,1384.24 
  615.504,1383.26 634.393,1373.5 653.283,1363.75 672.172,1353.99 691.061,1344.23 709.951,1334.47 728.84,1324.72 747.729,1314.96 766.619,1305.2 785.508,1295.45 
  804.397,1285.69 823.287,1275.93 842.176,1266.17 861.065,1256.42 879.955,1246.66 898.844,1236.9 917.733,1227.14 936.623,1217.39 955.512,1207.63 974.401,1197.87 
  993.291,1188.12 1012.18,1178.36 1031.07,1168.6 1049.96,1158.84 1068.85,1149.09 1087.74,1139.33 1106.63,1129.57 1125.52,1119.81 1144.41,1110.06 1163.29,1100.3 
  1182.18,1090.54 1201.07,1080.79 1219.96,1071.03 1238.85,1061.27 1257.74,1051.51 1276.63,1041.76 1295.52,1032 1314.41,1022.24 1333.3,1012.48 1352.19,1002.73 
  1371.08,992.97 1389.97,983.213 1408.86,973.456 1427.75,963.698 1446.63,953.941 1465.52,944.184 1484.41,934.427 1503.3,924.669 1522.19,914.912 1541.08,905.155 
  1559.97,895.398 1578.86,885.64 1597.75,875.883 1616.64,866.126 1635.53,856.368 1654.42,846.611 1673.31,836.854 1692.2,827.097 1711.09,817.339 1729.97,807.582 
  1748.86,797.825 1767.75,788.068 1786.64,778.31 1805.53,768.553 1824.42,758.796 1843.31,749.039 1862.2,739.281 1881.09,729.524 1899.98,719.767 1918.87,710.009 
  1937.76,700.252 1956.65,690.495 1975.54,680.738 1994.43,670.98 2013.31,661.223 2032.2,651.466 2051.09,641.709 2069.98,631.951 2088.87,622.194 2107.76,612.437 
  2126.65,602.68 2145.54,592.922 2164.43,583.165 2183.32,573.408 2202.21,563.65 2221.1,553.893 2239.99,544.136 2258.88,534.379 2277.77,524.621 2296.65,514.864 
  
  "/>
<polyline clip-path="url(#clip102)" style="stroke:#e26f46; stroke-linecap:butt; stroke-linejoin:round; stroke-width:12; stroke-opacity:1; fill:none" points="
  426.611,1384.06 445.5,1263.96 464.389,1211.98 483.279,1172.4 502.168,1139.33 521.057,1110.44 539.947,1084.56 558.836,1060.97 577.725,1039.22 596.615,1018.98 
  615.504,1000.01 634.393,982.143 653.283,965.233 672.172,949.171 691.061,933.867 709.951,919.245 728.84,905.244 747.729,891.811 766.619,878.9 785.508,866.472 
  804.397,854.493 823.287,842.932 842.176,831.763 861.065,820.963 879.955,810.509 898.844,800.383 917.733,790.568 936.623,781.047 955.512,771.807 974.401,762.835 
  993.291,754.119 1012.18,745.648 1031.07,737.411 1049.96,729.399 1068.85,721.604 1087.74,714.017 1106.63,706.632 1125.52,699.44 1144.41,692.436 1163.29,685.613 
  1182.18,678.965 1201.07,672.487 1219.96,666.174 1238.85,660.022 1257.74,654.024 1276.63,648.178 1295.52,642.479 1314.41,636.923 1333.3,631.507 1352.19,626.227 
  1371.08,621.079 1389.97,616.061 1408.86,611.17 1427.75,606.402 1446.63,601.755 1465.52,597.226 1484.41,592.813 1503.3,588.513 1522.19,584.324 1541.08,580.244 
  1559.97,576.27 1578.86,572.401 1597.75,568.635 1616.64,564.969 1635.53,561.402 1654.42,557.932 1673.31,554.557 1692.2,551.277 1711.09,548.088 1729.97,544.99 
  1748.86,541.981 1767.75,539.06 1786.64,536.225 1805.53,533.475 1824.42,530.809 1843.31,528.225 1862.2,525.723 1881.09,523.301 1899.98,520.957 1918.87,518.692 
  1937.76,516.503 1956.65,514.39 1975.54,512.351 1994.43,510.387 2013.31,508.495 2032.2,506.674 2051.09,504.925 2069.98,503.246 2088.87,501.636 2107.76,500.094 
  2126.65,498.62 2145.54,497.212 2164.43,495.87 2183.32,494.594 2202.21,493.382 2221.1,492.233 2239.99,491.148 2258.88,490.125 2277.77,489.164 2296.65,488.264 
  
  "/>
<polyline clip-path="url(#clip102)" style="stroke:#3da44d; stroke-linecap:butt; stroke-linejoin:round; stroke-width:12; stroke-opacity:1; fill:none" points="
  426.611,1384.02 445.5,1238.55 464.389,1175.54 483.279,1127.56 502.168,1087.44 521.057,1052.38 539.947,1020.95 558.836,992.301 577.725,965.863 596.615,941.249 
  615.504,918.175 634.393,896.424 653.283,875.83 672.172,856.256 691.061,837.596 709.951,819.758 728.84,802.668 747.729,786.261 766.619,770.482 785.508,755.284 
  804.397,740.626 823.287,726.47 842.176,712.786 861.065,699.544 879.955,686.718 898.844,674.286 917.733,662.227 936.623,650.521 955.512,639.153 974.401,628.105 
  993.291,617.364 1012.18,606.916 1031.07,596.749 1049.96,586.852 1068.85,577.215 1087.74,567.827 1106.63,558.679 1125.52,549.763 1144.41,541.072 1163.29,532.597 
  1182.18,524.332 1201.07,516.27 1219.96,508.406 1238.85,500.732 1257.74,493.244 1276.63,485.937 1295.52,478.805 1314.41,471.844 1333.3,465.05 1352.19,458.418 
  1371.08,451.944 1389.97,445.624 1408.86,439.456 1427.75,433.435 1446.63,427.557 1465.52,421.821 1484.41,416.223 1503.3,410.759 1522.19,405.427 1541.08,400.225 
  1559.97,395.15 1578.86,390.2 1597.75,385.371 1616.64,380.662 1635.53,376.07 1654.42,371.594 1673.31,367.232 1692.2,362.981 1711.09,358.839 1729.97,354.805 
  1748.86,350.877 1767.75,347.053 1786.64,343.332 1805.53,339.711 1824.42,336.19 1843.31,332.767 1862.2,329.44 1881.09,326.209 1899.98,323.071 1918.87,320.025 
  1937.76,317.07 1956.65,314.205 1975.54,311.429 1994.43,308.74 2013.31,306.137 2032.2,303.62 2051.09,301.186 2069.98,298.835 2088.87,296.566 2107.76,294.379 
  2126.65,292.271 2145.54,290.242 2164.43,288.291 2183.32,286.417 2202.21,284.62 2221.1,282.898 2239.99,281.25 2258.88,279.677 2277.77,278.176 2296.65,276.747 
  
  "/>
<polyline clip-path="url(#clip102)" style="stroke:#c271d2; stroke-linecap:butt; stroke-linejoin:round; stroke-width:12; stroke-opacity:1; fill:none" points="
  426.611,1383.98 445.5,1215.58 464.389,1142.63 483.279,1087.05 502.168,1040.57 521.057,999.936 539.947,963.503 558.836,930.276 577.725,899.608 596.615,871.047 
  615.504,844.263 634.393,819.008 653.283,795.087 672.172,772.345 691.061,750.656 709.951,729.916 728.84,710.037 747.729,690.947 766.619,672.58 785.508,654.883 
  804.397,637.808 823.287,621.312 842.176,605.359 861.065,589.915 879.955,574.951 898.844,560.439 917.733,546.357 936.623,532.682 955.512,519.394 974.401,506.475 
  993.291,493.909 1012.18,481.68 1031.07,469.775 1049.96,458.179 1068.85,446.881 1087.74,435.87 1106.63,425.136 1125.52,414.668 1144.41,404.457 1163.29,394.495 
  1182.18,384.774 1201.07,375.286 1219.96,366.024 1238.85,356.982 1257.74,348.153 1276.63,339.53 1295.52,331.109 1314.41,322.885 1333.3,314.851 1352.19,307.003 
  1371.08,299.337 1389.97,291.847 1408.86,284.531 1427.75,277.383 1446.63,270.4 1465.52,263.579 1484.41,256.916 1503.3,250.407 1522.19,244.049 1541.08,237.839 
  1559.97,231.775 1578.86,225.853 1597.75,220.071 1616.64,214.426 1635.53,208.915 1654.42,203.537 1673.31,198.288 1692.2,193.167 1711.09,188.171 1729.97,183.298 
  1748.86,178.546 1767.75,173.913 1786.64,169.397 1805.53,164.997 1824.42,160.711 1843.31,156.536 1862.2,152.472 1881.09,148.516 1899.98,144.667 1918.87,140.923 
  1937.76,137.284 1956.65,133.747 1975.54,130.311 1994.43,126.975 2013.31,123.737 2032.2,120.596 2051.09,117.552 2069.98,114.602 2088.87,111.745 2107.76,108.981 
  2126.65,106.308 2145.54,103.726 2164.43,101.232 2183.32,98.8264 2202.21,96.5077 2221.1,94.2751 2239.99,92.1275 2258.88,90.064 2277.77,88.0837 2296.65,86.1857 
  
  "/>
<path clip-path="url(#clip100)" d="
M1749.93 352.309 L2286.68 352.309 L2286.68 93.1086 L1749.93 93.1086  Z
  " fill="#ffffff" fill-rule="evenodd" fill-opacity="1"/>
<polyline clip-path="url(#clip100)" style="stroke:#000000; stroke-linecap:butt; stroke-linejoin:round; stroke-width:4; stroke-opacity:1; fill:none" points="
  1749.93,352.309 2286.68,352.309 2286.68,93.1086 1749.93,93.1086 1749.93,352.309 
  "/>
<polyline clip-path="url(#clip100)" style="stroke:#009af9; stroke-linecap:butt; stroke-linejoin:round; stroke-width:4; stroke-opacity:1; fill:none" points="
  1771.95,144.949 1904.1,144.949 
  "/>
<path clip-path="url(#clip100)" d="M1942.52 146.025 Q1944.02 146.534 1945.43 148.201 Q1946.87 149.868 1948.3 152.784 L1953.05 162.229 L1948.03 162.229 L1943.6 153.363 Q1941.89 149.891 1940.27 148.756 Q1938.67 147.622 1935.9 147.622 L1930.8 147.622 L1930.8 162.229 L1926.13 162.229 L1926.13 127.669 L1936.68 127.669 Q1942.61 127.669 1945.53 130.145 Q1948.44 132.622 1948.44 137.622 Q1948.44 140.886 1946.92 143.039 Q1945.41 145.192 1942.52 146.025 M1930.8 131.511 L1930.8 143.78 L1936.68 143.78 Q1940.06 143.78 1941.78 142.229 Q1943.51 140.655 1943.51 137.622 Q1943.51 134.59 1941.78 133.062 Q1940.06 131.511 1936.68 131.511 L1930.8 131.511 Z" fill="#000000" fill-rule="evenodd" fill-opacity="1" /><path clip-path="url(#clip100)" d="M1969.62 149.196 Q1964.46 149.196 1962.47 150.377 Q1960.48 151.557 1960.48 154.405 Q1960.48 156.673 1961.96 158.016 Q1963.47 159.335 1966.04 159.335 Q1969.58 159.335 1971.71 156.835 Q1973.86 154.312 1973.86 150.145 L1973.86 149.196 L1969.62 149.196 M1978.12 147.437 L1978.12 162.229 L1973.86 162.229 L1973.86 158.293 Q1972.4 160.655 1970.23 161.789 Q1968.05 162.9 1964.9 162.9 Q1960.92 162.9 1958.56 160.678 Q1956.22 158.432 1956.22 154.682 Q1956.22 150.307 1959.14 148.085 Q1962.08 145.863 1967.89 145.863 L1973.86 145.863 L1973.86 145.446 Q1973.86 142.507 1971.91 140.909 Q1969.99 139.289 1966.5 139.289 Q1964.28 139.289 1962.17 139.821 Q1960.06 140.354 1958.12 141.419 L1958.12 137.483 Q1960.46 136.581 1962.66 136.141 Q1964.85 135.678 1966.94 135.678 Q1972.56 135.678 1975.34 138.594 Q1978.12 141.511 1978.12 147.437 Z" fill="#000000" fill-rule="evenodd" fill-opacity="1" /><path clip-path="url(#clip100)" d="M1986.89 136.303 L1991.15 136.303 L1991.15 162.229 L1986.89 162.229 L1986.89 136.303 M1986.89 126.21 L1991.15 126.21 L1991.15 131.604 L1986.89 131.604 L1986.89 126.21 Z" fill="#000000" fill-rule="evenodd" fill-opacity="1" /><path clip-path="url(#clip100)" d="M2021.61 146.581 L2021.61 162.229 L2017.35 162.229 L2017.35 146.719 Q2017.35 143.039 2015.92 141.21 Q2014.48 139.382 2011.61 139.382 Q2008.16 139.382 2006.17 141.581 Q2004.18 143.78 2004.18 147.576 L2004.18 162.229 L1999.9 162.229 L1999.9 136.303 L2004.18 136.303 L2004.18 140.331 Q2005.71 137.993 2007.77 136.835 Q2009.85 135.678 2012.56 135.678 Q2017.03 135.678 2019.32 138.456 Q2021.61 141.21 2021.61 146.581 Z" fill="#000000" fill-rule="evenodd" fill-opacity="1" /><polyline clip-path="url(#clip100)" style="stroke:#e26f46; stroke-linecap:butt; stroke-linejoin:round; stroke-width:4; stroke-opacity:1; fill:none" points="
  1771.95,196.789 1904.1,196.789 
  "/>
<path clip-path="url(#clip100)" d="M1948.37 180.643 L1948.37 185.203 Q1945.71 183.93 1943.35 183.305 Q1940.99 182.68 1938.79 182.68 Q1934.97 182.68 1932.89 184.161 Q1930.83 185.643 1930.83 188.374 Q1930.83 190.666 1932.19 191.847 Q1933.58 193.004 1937.42 193.722 L1940.25 194.3 Q1945.48 195.296 1947.96 197.819 Q1950.46 200.319 1950.46 204.532 Q1950.46 209.555 1947.08 212.147 Q1943.72 214.74 1937.22 214.74 Q1934.76 214.74 1931.98 214.184 Q1929.23 213.629 1926.27 212.541 L1926.27 207.726 Q1929.11 209.323 1931.85 210.133 Q1934.58 210.944 1937.22 210.944 Q1941.22 210.944 1943.4 209.37 Q1945.57 207.796 1945.57 204.879 Q1945.57 202.333 1944 200.897 Q1942.45 199.462 1938.88 198.745 L1936.04 198.189 Q1930.8 197.147 1928.47 194.925 Q1926.13 192.703 1926.13 188.745 Q1926.13 184.161 1929.35 181.522 Q1932.59 178.884 1938.26 178.884 Q1940.69 178.884 1943.21 179.323 Q1945.73 179.763 1948.37 180.643 Z" fill="#000000" fill-rule="evenodd" fill-opacity="1" /><path clip-path="url(#clip100)" d="M1979.11 198.421 L1979.11 214.069 L1974.85 214.069 L1974.85 198.559 Q1974.85 194.879 1973.42 193.05 Q1971.98 191.222 1969.11 191.222 Q1965.66 191.222 1963.67 193.421 Q1961.68 195.62 1961.68 199.416 L1961.68 214.069 L1957.4 214.069 L1957.4 188.143 L1961.68 188.143 L1961.68 192.171 Q1963.21 189.833 1965.27 188.675 Q1967.35 187.518 1970.06 187.518 Q1974.53 187.518 1976.82 190.296 Q1979.11 193.05 1979.11 198.421 Z" fill="#000000" fill-rule="evenodd" fill-opacity="1" /><path clip-path="url(#clip100)" d="M1997.66 191.129 Q1994.23 191.129 1992.24 193.814 Q1990.25 196.476 1990.25 201.129 Q1990.25 205.782 1992.22 208.467 Q1994.21 211.129 1997.66 211.129 Q2001.06 211.129 2003.05 208.444 Q2005.04 205.758 2005.04 201.129 Q2005.04 196.522 2003.05 193.837 Q2001.06 191.129 1997.66 191.129 M1997.66 187.518 Q2003.21 187.518 2006.38 191.129 Q2009.55 194.74 2009.55 201.129 Q2009.55 207.495 2006.38 211.129 Q2003.21 214.74 1997.66 214.74 Q1992.08 214.74 1988.91 211.129 Q1985.76 207.495 1985.76 201.129 Q1985.76 194.74 1988.91 191.129 Q1992.08 187.518 1997.66 187.518 Z" fill="#000000" fill-rule="evenodd" fill-opacity="1" /><path clip-path="url(#clip100)" d="M2014.14 188.143 L2018.4 188.143 L2023.72 208.374 L2029.02 188.143 L2034.04 188.143 L2039.37 208.374 L2044.67 188.143 L2048.93 188.143 L2042.15 214.069 L2037.12 214.069 L2031.54 192.819 L2025.94 214.069 L2020.92 214.069 L2014.14 188.143 Z" fill="#000000" fill-rule="evenodd" fill-opacity="1" /><path clip-path="url(#clip100)" d="M2065.85 179.509 L2095.09 179.509 L2095.09 183.444 L2082.82 183.444 L2082.82 214.069 L2078.12 214.069 L2078.12 183.444 L2065.85 183.444 L2065.85 179.509 Z" fill="#000000" fill-rule="evenodd" fill-opacity="1" /><path clip-path="url(#clip100)" d="M2099.97 192.541 L2129.65 192.541 L2129.65 196.43 L2099.97 196.43 L2099.97 192.541 M2099.97 201.985 L2129.65 201.985 L2129.65 205.921 L2099.97 205.921 L2099.97 201.985 Z" fill="#000000" fill-rule="evenodd" fill-opacity="1" /><path clip-path="url(#clip100)" d="M2136.98 199.184 L2149.46 199.184 L2149.46 202.981 L2136.98 202.981 L2136.98 199.184 Z" fill="#000000" fill-rule="evenodd" fill-opacity="1" /><path clip-path="url(#clip100)" d="M2156.89 179.509 L2175.25 179.509 L2175.25 183.444 L2161.17 183.444 L2161.17 191.916 Q2162.19 191.569 2163.21 191.407 Q2164.23 191.222 2165.25 191.222 Q2171.03 191.222 2174.41 194.393 Q2177.79 197.564 2177.79 202.981 Q2177.79 208.559 2174.32 211.661 Q2170.85 214.74 2164.53 214.74 Q2162.35 214.74 2160.09 214.37 Q2157.84 213.999 2155.43 213.258 L2155.43 208.559 Q2157.52 209.694 2159.74 210.249 Q2161.96 210.805 2164.44 210.805 Q2168.44 210.805 2170.78 208.698 Q2173.12 206.592 2173.12 202.981 Q2173.12 199.37 2170.78 197.263 Q2168.44 195.157 2164.44 195.157 Q2162.56 195.157 2160.69 195.573 Q2158.84 195.99 2156.89 196.87 L2156.89 179.509 Z" fill="#000000" fill-rule="evenodd" fill-opacity="1" /><path clip-path="url(#clip100)" d="M2212.47 182.171 L2212.47 187.101 Q2210.11 184.902 2207.42 183.814 Q2204.76 182.726 2201.75 182.726 Q2195.83 182.726 2192.68 186.36 Q2189.53 189.972 2189.53 196.823 Q2189.53 203.652 2192.68 207.286 Q2195.83 210.897 2201.75 210.897 Q2204.76 210.897 2207.42 209.809 Q2210.11 208.721 2212.47 206.522 L2212.47 211.407 Q2210.02 213.073 2207.26 213.907 Q2204.53 214.74 2201.47 214.74 Q2193.63 214.74 2189.11 209.948 Q2184.6 205.133 2184.6 196.823 Q2184.6 188.49 2189.11 183.698 Q2193.63 178.884 2201.47 178.884 Q2204.58 178.884 2207.31 179.717 Q2210.06 180.527 2212.47 182.171 Z" fill="#000000" fill-rule="evenodd" fill-opacity="1" /><polyline clip-path="url(#clip100)" style="stroke:#3da44d; stroke-linecap:butt; stroke-linejoin:round; stroke-width:4; stroke-opacity:1; fill:none" points="
  1771.95,248.629 1904.1,248.629 
  "/>
<path clip-path="url(#clip100)" d="M1948.37 232.483 L1948.37 237.043 Q1945.71 235.77 1943.35 235.145 Q1940.99 234.52 1938.79 234.52 Q1934.97 234.52 1932.89 236.001 Q1930.83 237.483 1930.83 240.214 Q1930.83 242.506 1932.19 243.687 Q1933.58 244.844 1937.42 245.562 L1940.25 246.14 Q1945.48 247.136 1947.96 249.659 Q1950.46 252.159 1950.46 256.372 Q1950.46 261.395 1947.08 263.987 Q1943.72 266.58 1937.22 266.58 Q1934.76 266.58 1931.98 266.024 Q1929.23 265.469 1926.27 264.381 L1926.27 259.566 Q1929.11 261.163 1931.85 261.973 Q1934.58 262.784 1937.22 262.784 Q1941.22 262.784 1943.4 261.21 Q1945.57 259.636 1945.57 256.719 Q1945.57 254.173 1944 252.737 Q1942.45 251.302 1938.88 250.585 L1936.04 250.029 Q1930.8 248.987 1928.47 246.765 Q1926.13 244.543 1926.13 240.585 Q1926.13 236.001 1929.35 233.362 Q1932.59 230.724 1938.26 230.724 Q1940.69 230.724 1943.21 231.163 Q1945.73 231.603 1948.37 232.483 Z" fill="#000000" fill-rule="evenodd" fill-opacity="1" /><path clip-path="url(#clip100)" d="M1979.11 250.261 L1979.11 265.909 L1974.85 265.909 L1974.85 250.399 Q1974.85 246.719 1973.42 244.89 Q1971.98 243.062 1969.11 243.062 Q1965.66 243.062 1963.67 245.261 Q1961.68 247.46 1961.68 251.256 L1961.68 265.909 L1957.4 265.909 L1957.4 239.983 L1961.68 239.983 L1961.68 244.011 Q1963.21 241.673 1965.27 240.515 Q1967.35 239.358 1970.06 239.358 Q1974.53 239.358 1976.82 242.136 Q1979.11 244.89 1979.11 250.261 Z" fill="#000000" fill-rule="evenodd" fill-opacity="1" /><path clip-path="url(#clip100)" d="M1997.66 242.969 Q1994.23 242.969 1992.24 245.654 Q1990.25 248.316 1990.25 252.969 Q1990.25 257.622 1992.22 260.307 Q1994.21 262.969 1997.66 262.969 Q2001.06 262.969 2003.05 260.284 Q2005.04 257.598 2005.04 252.969 Q2005.04 248.362 2003.05 245.677 Q2001.06 242.969 1997.66 242.969 M1997.66 239.358 Q2003.21 239.358 2006.38 242.969 Q2009.55 246.58 2009.55 252.969 Q2009.55 259.335 2006.38 262.969 Q2003.21 266.58 1997.66 266.58 Q1992.08 266.58 1988.91 262.969 Q1985.76 259.335 1985.76 252.969 Q1985.76 246.58 1988.91 242.969 Q1992.08 239.358 1997.66 239.358 Z" fill="#000000" fill-rule="evenodd" fill-opacity="1" /><path clip-path="url(#clip100)" d="M2014.14 239.983 L2018.4 239.983 L2023.72 260.214 L2029.02 239.983 L2034.04 239.983 L2039.37 260.214 L2044.67 239.983 L2048.93 239.983 L2042.15 265.909 L2037.12 265.909 L2031.54 244.659 L2025.94 265.909 L2020.92 265.909 L2014.14 239.983 Z" fill="#000000" fill-rule="evenodd" fill-opacity="1" /><path clip-path="url(#clip100)" d="M2065.85 231.349 L2095.09 231.349 L2095.09 235.284 L2082.82 235.284 L2082.82 265.909 L2078.12 265.909 L2078.12 235.284 L2065.85 235.284 L2065.85 231.349 Z" fill="#000000" fill-rule="evenodd" fill-opacity="1" /><path clip-path="url(#clip100)" d="M2099.97 244.381 L2129.65 244.381 L2129.65 248.27 L2099.97 248.27 L2099.97 244.381 M2099.97 253.825 L2129.65 253.825 L2129.65 257.761 L2099.97 257.761 L2099.97 253.825 Z" fill="#000000" fill-rule="evenodd" fill-opacity="1" /><path clip-path="url(#clip100)" d="M2136.98 251.024 L2149.46 251.024 L2149.46 254.821 L2136.98 254.821 L2136.98 251.024 Z" fill="#000000" fill-rule="evenodd" fill-opacity="1" /><path clip-path="url(#clip100)" d="M2157.65 261.973 L2165.29 261.973 L2165.29 235.608 L2156.98 237.275 L2156.98 233.015 L2165.25 231.349 L2169.92 231.349 L2169.92 261.973 L2177.56 261.973 L2177.56 265.909 L2157.65 265.909 L2157.65 261.973 Z" fill="#000000" fill-rule="evenodd" fill-opacity="1" /><path clip-path="url(#clip100)" d="M2187.05 231.349 L2205.41 231.349 L2205.41 235.284 L2191.34 235.284 L2191.34 243.756 Q2192.35 243.409 2193.37 243.247 Q2194.39 243.062 2195.41 243.062 Q2201.2 243.062 2204.58 246.233 Q2207.96 249.404 2207.96 254.821 Q2207.96 260.399 2204.48 263.501 Q2201.01 266.58 2194.69 266.58 Q2192.52 266.58 2190.25 266.21 Q2188 265.839 2185.59 265.098 L2185.59 260.399 Q2187.68 261.534 2189.9 262.089 Q2192.12 262.645 2194.6 262.645 Q2198.6 262.645 2200.94 260.538 Q2203.28 258.432 2203.28 254.821 Q2203.28 251.21 2200.94 249.103 Q2198.6 246.997 2194.6 246.997 Q2192.72 246.997 2190.85 247.413 Q2189 247.83 2187.05 248.71 L2187.05 231.349 Z" fill="#000000" fill-rule="evenodd" fill-opacity="1" /><path clip-path="url(#clip100)" d="M2242.63 234.011 L2242.63 238.941 Q2240.27 236.742 2237.58 235.654 Q2234.92 234.566 2231.91 234.566 Q2225.99 234.566 2222.84 238.2 Q2219.69 241.812 2219.69 248.663 Q2219.69 255.492 2222.84 259.126 Q2225.99 262.737 2231.91 262.737 Q2234.92 262.737 2237.58 261.649 Q2240.27 260.561 2242.63 258.362 L2242.63 263.247 Q2240.18 264.913 2237.42 265.747 Q2234.69 266.58 2231.64 266.58 Q2223.79 266.58 2219.27 261.788 Q2214.76 256.973 2214.76 248.663 Q2214.76 240.33 2219.27 235.538 Q2223.79 230.724 2231.64 230.724 Q2234.74 230.724 2237.47 231.557 Q2240.22 232.367 2242.63 234.011 Z" fill="#000000" fill-rule="evenodd" fill-opacity="1" /><polyline clip-path="url(#clip100)" style="stroke:#c271d2; stroke-linecap:butt; stroke-linejoin:round; stroke-width:4; stroke-opacity:1; fill:none" points="
  1771.95,300.469 1904.1,300.469 
  "/>
<path clip-path="url(#clip100)" d="M1948.37 284.323 L1948.37 288.883 Q1945.71 287.61 1943.35 286.985 Q1940.99 286.36 1938.79 286.36 Q1934.97 286.36 1932.89 287.841 Q1930.83 289.323 1930.83 292.054 Q1930.83 294.346 1932.19 295.527 Q1933.58 296.684 1937.42 297.402 L1940.25 297.98 Q1945.48 298.976 1947.96 301.499 Q1950.46 303.999 1950.46 308.212 Q1950.46 313.235 1947.08 315.827 Q1943.72 318.42 1937.22 318.42 Q1934.76 318.42 1931.98 317.864 Q1929.23 317.309 1926.27 316.221 L1926.27 311.406 Q1929.11 313.003 1931.85 313.813 Q1934.58 314.624 1937.22 314.624 Q1941.22 314.624 1943.4 313.05 Q1945.57 311.476 1945.57 308.559 Q1945.57 306.013 1944 304.577 Q1942.45 303.142 1938.88 302.425 L1936.04 301.869 Q1930.8 300.827 1928.47 298.605 Q1926.13 296.383 1926.13 292.425 Q1926.13 287.841 1929.35 285.202 Q1932.59 282.564 1938.26 282.564 Q1940.69 282.564 1943.21 283.003 Q1945.73 283.443 1948.37 284.323 Z" fill="#000000" fill-rule="evenodd" fill-opacity="1" /><path clip-path="url(#clip100)" d="M1979.11 302.101 L1979.11 317.749 L1974.85 317.749 L1974.85 302.239 Q1974.85 298.559 1973.42 296.73 Q1971.98 294.902 1969.11 294.902 Q1965.66 294.902 1963.67 297.101 Q1961.68 299.3 1961.68 303.096 L1961.68 317.749 L1957.4 317.749 L1957.4 291.823 L1961.68 291.823 L1961.68 295.851 Q1963.21 293.513 1965.27 292.355 Q1967.35 291.198 1970.06 291.198 Q1974.53 291.198 1976.82 293.976 Q1979.11 296.73 1979.11 302.101 Z" fill="#000000" fill-rule="evenodd" fill-opacity="1" /><path clip-path="url(#clip100)" d="M1997.66 294.809 Q1994.23 294.809 1992.24 297.494 Q1990.25 300.156 1990.25 304.809 Q1990.25 309.462 1992.22 312.147 Q1994.21 314.809 1997.66 314.809 Q2001.06 314.809 2003.05 312.124 Q2005.04 309.438 2005.04 304.809 Q2005.04 300.202 2003.05 297.517 Q2001.06 294.809 1997.66 294.809 M1997.66 291.198 Q2003.21 291.198 2006.38 294.809 Q2009.55 298.42 2009.55 304.809 Q2009.55 311.175 2006.38 314.809 Q2003.21 318.42 1997.66 318.42 Q1992.08 318.42 1988.91 314.809 Q1985.76 311.175 1985.76 304.809 Q1985.76 298.42 1988.91 294.809 Q1992.08 291.198 1997.66 291.198 Z" fill="#000000" fill-rule="evenodd" fill-opacity="1" /><path clip-path="url(#clip100)" d="M2014.14 291.823 L2018.4 291.823 L2023.72 312.054 L2029.02 291.823 L2034.04 291.823 L2039.37 312.054 L2044.67 291.823 L2048.93 291.823 L2042.15 317.749 L2037.12 317.749 L2031.54 296.499 L2025.94 317.749 L2020.92 317.749 L2014.14 291.823 Z" fill="#000000" fill-rule="evenodd" fill-opacity="1" /><path clip-path="url(#clip100)" d="M2065.85 283.189 L2095.09 283.189 L2095.09 287.124 L2082.82 287.124 L2082.82 317.749 L2078.12 317.749 L2078.12 287.124 L2065.85 287.124 L2065.85 283.189 Z" fill="#000000" fill-rule="evenodd" fill-opacity="1" /><path clip-path="url(#clip100)" d="M2099.97 296.221 L2129.65 296.221 L2129.65 300.11 L2099.97 300.11 L2099.97 296.221 M2099.97 305.665 L2129.65 305.665 L2129.65 309.601 L2099.97 309.601 L2099.97 305.665 Z" fill="#000000" fill-rule="evenodd" fill-opacity="1" /><path clip-path="url(#clip100)" d="M2136.98 302.864 L2149.46 302.864 L2149.46 306.661 L2136.98 306.661 L2136.98 302.864 Z" fill="#000000" fill-rule="evenodd" fill-opacity="1" /><path clip-path="url(#clip100)" d="M2160.87 313.813 L2177.19 313.813 L2177.19 317.749 L2155.25 317.749 L2155.25 313.813 Q2157.91 311.059 2162.49 306.429 Q2167.1 301.776 2168.28 300.434 Q2170.52 297.911 2171.4 296.175 Q2172.31 294.415 2172.31 292.726 Q2172.31 289.971 2170.36 288.235 Q2168.44 286.499 2165.34 286.499 Q2163.14 286.499 2160.69 287.263 Q2158.26 288.027 2155.48 289.577 L2155.48 284.855 Q2158.3 283.721 2160.76 283.142 Q2163.21 282.564 2165.25 282.564 Q2170.62 282.564 2173.81 285.249 Q2177.01 287.934 2177.01 292.425 Q2177.01 294.554 2176.2 296.476 Q2175.41 298.374 2173.3 300.966 Q2172.72 301.638 2169.62 304.855 Q2166.52 308.05 2160.87 313.813 Z" fill="#000000" fill-rule="evenodd" fill-opacity="1" /><path clip-path="url(#clip100)" d="M2187.05 283.189 L2205.41 283.189 L2205.41 287.124 L2191.34 287.124 L2191.34 295.596 Q2192.35 295.249 2193.37 295.087 Q2194.39 294.902 2195.41 294.902 Q2201.2 294.902 2204.58 298.073 Q2207.96 301.244 2207.96 306.661 Q2207.96 312.239 2204.48 315.341 Q2201.01 318.42 2194.69 318.42 Q2192.52 318.42 2190.25 318.05 Q2188 317.679 2185.59 316.938 L2185.59 312.239 Q2187.68 313.374 2189.9 313.929 Q2192.12 314.485 2194.6 314.485 Q2198.6 314.485 2200.94 312.378 Q2203.28 310.272 2203.28 306.661 Q2203.28 303.05 2200.94 300.943 Q2198.6 298.837 2194.6 298.837 Q2192.72 298.837 2190.85 299.253 Q2189 299.67 2187.05 300.55 L2187.05 283.189 Z" fill="#000000" fill-rule="evenodd" fill-opacity="1" /><path clip-path="url(#clip100)" d="M2242.63 285.851 L2242.63 290.781 Q2240.27 288.582 2237.58 287.494 Q2234.92 286.406 2231.91 286.406 Q2225.99 286.406 2222.84 290.04 Q2219.69 293.652 2219.69 300.503 Q2219.69 307.332 2222.84 310.966 Q2225.99 314.577 2231.91 314.577 Q2234.92 314.577 2237.58 313.489 Q2240.27 312.401 2242.63 310.202 L2242.63 315.087 Q2240.18 316.753 2237.42 317.587 Q2234.69 318.42 2231.64 318.42 Q2223.79 318.42 2219.27 313.628 Q2214.76 308.813 2214.76 300.503 Q2214.76 292.17 2219.27 287.378 Q2223.79 282.564 2231.64 282.564 Q2234.74 282.564 2237.47 283.397 Q2240.22 284.207 2242.63 285.851 Z" fill="#000000" fill-rule="evenodd" fill-opacity="1" /></svg>
