<?xml version="1.0" encoding="utf-8"?>
<svg xmlns="http://www.w3.org/2000/svg" xmlns:xlink="http://www.w3.org/1999/xlink" width="600" height="400" viewBox="0 0 2400 1600">
<defs>
  <clipPath id="clip310">
    <rect x="0" y="0" width="2400" height="1600"/>
  </clipPath>
</defs>
<path clip-path="url(#clip310)" d="
M0 1600 L2400 1600 L2400 0 L0 0  Z
  " fill="#ffffff" fill-rule="evenodd" fill-opacity="1"/>
<defs>
  <clipPath id="clip311">
    <rect x="480" y="0" width="1681" height="1600"/>
  </clipPath>
</defs>
<path clip-path="url(#clip310)" d="
M340.028 1423.18 L2352.76 1423.18 L2352.76 47.2441 L340.028 47.2441  Z
  " fill="#ffffff" fill-rule="evenodd" fill-opacity="1"/>
<defs>
  <clipPath id="clip312">
    <rect x="340" y="47" width="2014" height="1377"/>
  </clipPath>
</defs>
<polyline clip-path="url(#clip312)" style="stroke:#000000; stroke-linecap:butt; stroke-linejoin:round; stroke-width:2; stroke-opacity:0.1; fill:none" points="
  396.988,1423.18 396.988,47.2441 
  "/>
<polyline clip-path="url(#clip312)" style="stroke:#000000; stroke-linecap:butt; stroke-linejoin:round; stroke-width:2; stroke-opacity:0.1; fill:none" points="
  776.749,1423.18 776.749,47.2441 
  "/>
<polyline clip-path="url(#clip312)" style="stroke:#000000; stroke-linecap:butt; stroke-linejoin:round; stroke-width:2; stroke-opacity:0.1; fill:none" points="
  1156.51,1423.18 1156.51,47.2441 
  "/>
<polyline clip-path="url(#clip312)" style="stroke:#000000; stroke-linecap:butt; stroke-linejoin:round; stroke-width:2; stroke-opacity:0.1; fill:none" points="
  1536.27,1423.18 1536.27,47.2441 
  "/>
<polyline clip-path="url(#clip312)" style="stroke:#000000; stroke-linecap:butt; stroke-linejoin:round; stroke-width:2; stroke-opacity:0.1; fill:none" points="
  1916.03,1423.18 1916.03,47.2441 
  "/>
<polyline clip-path="url(#clip312)" style="stroke:#000000; stroke-linecap:butt; stroke-linejoin:round; stroke-width:2; stroke-opacity:0.1; fill:none" points="
  2295.79,1423.18 2295.79,47.2441 
  "/>
<polyline clip-path="url(#clip310)" style="stroke:#000000; stroke-linecap:butt; stroke-linejoin:round; stroke-width:4; stroke-opacity:1; fill:none" points="
  340.028,1423.18 2352.76,1423.18 
  "/>
<polyline clip-path="url(#clip310)" style="stroke:#000000; stroke-linecap:butt; stroke-linejoin:round; stroke-width:4; stroke-opacity:1; fill:none" points="
  396.988,1423.18 396.988,1404.28 
  "/>
<polyline clip-path="url(#clip310)" style="stroke:#000000; stroke-linecap:butt; stroke-linejoin:round; stroke-width:4; stroke-opacity:1; fill:none" points="
  776.749,1423.18 776.749,1404.28 
  "/>
<polyline clip-path="url(#clip310)" style="stroke:#000000; stroke-linecap:butt; stroke-linejoin:round; stroke-width:4; stroke-opacity:1; fill:none" points="
  1156.51,1423.18 1156.51,1404.28 
  "/>
<polyline clip-path="url(#clip310)" style="stroke:#000000; stroke-linecap:butt; stroke-linejoin:round; stroke-width:4; stroke-opacity:1; fill:none" points="
  1536.27,1423.18 1536.27,1404.28 
  "/>
<polyline clip-path="url(#clip310)" style="stroke:#000000; stroke-linecap:butt; stroke-linejoin:round; stroke-width:4; stroke-opacity:1; fill:none" points="
  1916.03,1423.18 1916.03,1404.28 
  "/>
<polyline clip-path="url(#clip310)" style="stroke:#000000; stroke-linecap:butt; stroke-linejoin:round; stroke-width:4; stroke-opacity:1; fill:none" points="
  2295.79,1423.18 2295.79,1404.28 
  "/>
<path clip-path="url(#clip310)" d="M396.988 1454.1 Q393.377 1454.1 391.548 1457.66 Q389.743 1461.2 389.743 1468.33 Q389.743 1475.44 391.548 1479.01 Q393.377 1482.55 396.988 1482.55 Q400.622 1482.55 402.428 1479.01 Q404.256 1475.44 404.256 1468.33 Q404.256 1461.2 402.428 1457.66 Q400.622 1454.1 396.988 1454.1 M396.988 1450.39 Q402.798 1450.39 405.854 1455 Q408.932 1459.58 408.932 1468.33 Q408.932 1477.06 405.854 1481.67 Q402.798 1486.25 396.988 1486.25 Q391.178 1486.25 388.099 1481.67 Q385.043 1477.06 385.043 1468.33 Q385.043 1459.58 388.099 1455 Q391.178 1450.39 396.988 1450.39 Z" fill="#000000" fill-rule="evenodd" fill-opacity="1" /><path clip-path="url(#clip310)" d="M767.131 1481.64 L774.77 1481.64 L774.77 1455.28 L766.459 1456.95 L766.459 1452.69 L774.723 1451.02 L779.399 1451.02 L779.399 1481.64 L787.038 1481.64 L787.038 1485.58 L767.131 1485.58 L767.131 1481.64 Z" fill="#000000" fill-rule="evenodd" fill-opacity="1" /><path clip-path="url(#clip310)" d="M1151.16 1481.64 L1167.48 1481.64 L1167.48 1485.58 L1145.54 1485.58 L1145.54 1481.64 Q1148.2 1478.89 1152.78 1474.26 Q1157.39 1469.61 1158.57 1468.27 Q1160.82 1465.74 1161.69 1464.01 Q1162.6 1462.25 1162.6 1460.56 Q1162.6 1457.8 1160.65 1456.07 Q1158.73 1454.33 1155.63 1454.33 Q1153.43 1454.33 1150.98 1455.09 Q1148.55 1455.86 1145.77 1457.41 L1145.77 1452.69 Q1148.59 1451.55 1151.05 1450.97 Q1153.5 1450.39 1155.54 1450.39 Q1160.91 1450.39 1164.1 1453.08 Q1167.3 1455.77 1167.3 1460.26 Q1167.3 1462.39 1166.49 1464.31 Q1165.7 1466.2 1163.59 1468.8 Q1163.01 1469.47 1159.91 1472.69 Q1156.81 1475.88 1151.16 1481.64 Z" fill="#000000" fill-rule="evenodd" fill-opacity="1" /><path clip-path="url(#clip310)" d="M1540.52 1466.95 Q1543.87 1467.66 1545.75 1469.93 Q1547.65 1472.2 1547.65 1475.53 Q1547.65 1480.65 1544.13 1483.45 Q1540.61 1486.25 1534.13 1486.25 Q1531.95 1486.25 1529.64 1485.81 Q1527.35 1485.39 1524.89 1484.54 L1524.89 1480.02 Q1526.84 1481.16 1529.15 1481.74 Q1531.47 1482.32 1533.99 1482.32 Q1538.39 1482.32 1540.68 1480.58 Q1542.99 1478.84 1542.99 1475.53 Q1542.99 1472.48 1540.84 1470.77 Q1538.71 1469.03 1534.89 1469.03 L1530.87 1469.03 L1530.87 1465.19 L1535.08 1465.19 Q1538.53 1465.19 1540.36 1463.82 Q1542.18 1462.43 1542.18 1459.84 Q1542.18 1457.18 1540.29 1455.77 Q1538.41 1454.33 1534.89 1454.33 Q1532.97 1454.33 1530.77 1454.75 Q1528.57 1455.16 1525.93 1456.04 L1525.93 1451.88 Q1528.6 1451.14 1530.91 1450.77 Q1533.25 1450.39 1535.31 1450.39 Q1540.63 1450.39 1543.74 1452.83 Q1546.84 1455.23 1546.84 1459.35 Q1546.84 1462.22 1545.19 1464.21 Q1543.55 1466.18 1540.52 1466.95 Z" fill="#000000" fill-rule="evenodd" fill-opacity="1" /><path clip-path="url(#clip310)" d="M1919.04 1455.09 L1907.23 1473.54 L1919.04 1473.54 L1919.04 1455.09 M1917.81 1451.02 L1923.69 1451.02 L1923.69 1473.54 L1928.62 1473.54 L1928.62 1477.43 L1923.69 1477.43 L1923.69 1485.58 L1919.04 1485.58 L1919.04 1477.43 L1903.44 1477.43 L1903.44 1472.92 L1917.81 1451.02 Z" fill="#000000" fill-rule="evenodd" fill-opacity="1" /><path clip-path="url(#clip310)" d="M2286.07 1451.02 L2304.43 1451.02 L2304.43 1454.96 L2290.35 1454.96 L2290.35 1463.43 Q2291.37 1463.08 2292.39 1462.92 Q2293.41 1462.73 2294.43 1462.73 Q2300.21 1462.73 2303.59 1465.9 Q2306.97 1469.08 2306.97 1474.49 Q2306.97 1480.07 2303.5 1483.17 Q2300.03 1486.25 2293.71 1486.25 Q2291.53 1486.25 2289.26 1485.88 Q2287.02 1485.51 2284.61 1484.77 L2284.61 1480.07 Q2286.69 1481.2 2288.92 1481.76 Q2291.14 1482.32 2293.62 1482.32 Q2297.62 1482.32 2299.96 1480.21 Q2302.3 1478.1 2302.3 1474.49 Q2302.3 1470.88 2299.96 1468.77 Q2297.62 1466.67 2293.62 1466.67 Q2291.74 1466.67 2289.87 1467.08 Q2288.01 1467.5 2286.07 1468.38 L2286.07 1451.02 Z" fill="#000000" fill-rule="evenodd" fill-opacity="1" /><path clip-path="url(#clip310)" d="M1128.8 1550.25 Q1128.8 1556.71 1131.44 1560.4 Q1134.11 1564.07 1138.76 1564.07 Q1143.41 1564.07 1146.08 1560.4 Q1148.75 1556.71 1148.75 1550.25 Q1148.75 1543.79 1146.08 1540.13 Q1143.41 1536.44 1138.76 1536.44 Q1134.11 1536.44 1131.44 1540.13 Q1128.8 1543.79 1128.8 1550.25 M1148.75 1562.7 Q1146.91 1565.88 1144.07 1567.44 Q1141.27 1568.97 1137.33 1568.97 Q1130.86 1568.97 1126.79 1563.81 Q1122.75 1558.65 1122.75 1550.25 Q1122.75 1541.85 1126.79 1536.69 Q1130.86 1531.54 1137.33 1531.54 Q1141.27 1531.54 1144.07 1533.1 Q1146.91 1534.62 1148.75 1537.81 L1148.75 1532.4 L1154.61 1532.4 L1154.61 1581.6 L1148.75 1581.6 L1148.75 1562.7 Z" fill="#000000" fill-rule="evenodd" fill-opacity="1" /><path clip-path="url(#clip310)" d="M1193.76 1578.87 L1193.76 1583.42 L1159.89 1583.42 L1159.89 1578.87 L1193.76 1578.87 Z" fill="#000000" fill-rule="evenodd" fill-opacity="1" /><path clip-path="url(#clip310)" d="M1221.99 1533.45 L1221.99 1538.98 Q1219.51 1537.71 1216.83 1537.07 Q1214.16 1536.44 1211.3 1536.44 Q1206.94 1536.44 1204.74 1537.77 Q1202.57 1539.11 1202.57 1541.79 Q1202.57 1543.82 1204.13 1545 Q1205.69 1546.15 1210.4 1547.2 L1212.41 1547.64 Q1218.65 1548.98 1221.26 1551.43 Q1223.9 1553.85 1223.9 1558.21 Q1223.9 1563.17 1219.95 1566.07 Q1216.04 1568.97 1209.16 1568.97 Q1206.3 1568.97 1203.18 1568.39 Q1200.09 1567.85 1196.65 1566.74 L1196.65 1560.69 Q1199.9 1562.38 1203.05 1563.24 Q1206.2 1564.07 1209.29 1564.07 Q1213.43 1564.07 1215.66 1562.66 Q1217.88 1561.23 1217.88 1558.65 Q1217.88 1556.27 1216.26 1554.99 Q1214.67 1553.72 1209.23 1552.54 L1207.19 1552.07 Q1201.75 1550.92 1199.33 1548.56 Q1196.91 1546.18 1196.91 1542.04 Q1196.91 1537.01 1200.47 1534.27 Q1204.04 1531.54 1210.6 1531.54 Q1213.84 1531.54 1216.71 1532.01 Q1219.57 1532.49 1221.99 1533.45 Z" fill="#000000" fill-rule="evenodd" fill-opacity="1" /><path clip-path="url(#clip310)" d="M1262.86 1546.53 L1262.86 1568.04 L1257 1568.04 L1257 1546.72 Q1257 1541.66 1255.03 1539.14 Q1253.05 1536.63 1249.11 1536.63 Q1244.37 1536.63 1241.63 1539.65 Q1238.89 1542.68 1238.89 1547.9 L1238.89 1568.04 L1233 1568.04 L1233 1532.4 L1238.89 1532.4 L1238.89 1537.93 Q1240.99 1534.72 1243.82 1533.13 Q1246.69 1531.54 1250.41 1531.54 Q1256.56 1531.54 1259.71 1535.36 Q1262.86 1539.14 1262.86 1546.53 Z" fill="#000000" fill-rule="evenodd" fill-opacity="1" /><path clip-path="url(#clip310)" d="M1288.35 1536.5 Q1283.64 1536.5 1280.9 1540.19 Q1278.17 1543.85 1278.17 1550.25 Q1278.17 1556.65 1280.87 1560.34 Q1283.61 1564 1288.35 1564 Q1293.03 1564 1295.77 1560.31 Q1298.51 1556.62 1298.51 1550.25 Q1298.51 1543.92 1295.77 1540.23 Q1293.03 1536.5 1288.35 1536.5 M1288.35 1531.54 Q1295.99 1531.54 1300.35 1536.5 Q1304.71 1541.47 1304.71 1550.25 Q1304.71 1559 1300.35 1564 Q1295.99 1568.97 1288.35 1568.97 Q1280.68 1568.97 1276.32 1564 Q1271.99 1559 1271.99 1550.25 Q1271.99 1541.47 1276.32 1536.5 Q1280.68 1531.54 1288.35 1531.54 Z" fill="#000000" fill-rule="evenodd" fill-opacity="1" /><path clip-path="url(#clip310)" d="M1311.01 1532.4 L1316.87 1532.4 L1324.19 1560.21 L1331.48 1532.4 L1338.39 1532.4 L1345.71 1560.21 L1353 1532.4 L1358.85 1532.4 L1349.53 1568.04 L1342.62 1568.04 L1334.95 1538.83 L1327.25 1568.04 L1320.34 1568.04 L1311.01 1532.4 Z" fill="#000000" fill-rule="evenodd" fill-opacity="1" /><path clip-path="url(#clip310)" d="M1387.91 1518.52 L1401.41 1518.52 L1401.41 1523.07 L1393.77 1523.07 L1393.77 1572.09 L1401.41 1572.09 L1401.41 1576.64 L1387.91 1576.64 L1387.91 1518.52 Z" fill="#000000" fill-rule="evenodd" fill-opacity="1" /><path clip-path="url(#clip310)" d="M1437.34 1549.81 Q1437.34 1543.44 1434.7 1539.94 Q1432.09 1536.44 1427.35 1536.44 Q1422.64 1536.44 1420 1539.94 Q1417.39 1543.44 1417.39 1549.81 Q1417.39 1556.14 1420 1559.64 Q1422.64 1563.14 1427.35 1563.14 Q1432.09 1563.14 1434.7 1559.64 Q1437.34 1556.14 1437.34 1549.81 M1443.2 1563.62 Q1443.2 1572.72 1439.16 1577.15 Q1435.11 1581.6 1426.77 1581.6 Q1423.69 1581.6 1420.95 1581.13 Q1418.21 1580.68 1415.63 1579.72 L1415.63 1574.03 Q1418.21 1575.43 1420.73 1576.1 Q1423.24 1576.76 1425.85 1576.76 Q1431.61 1576.76 1434.48 1573.74 Q1437.34 1570.75 1437.34 1564.67 L1437.34 1561.77 Q1435.53 1564.92 1432.69 1566.48 Q1429.86 1568.04 1425.92 1568.04 Q1419.36 1568.04 1415.35 1563.05 Q1411.34 1558.05 1411.34 1549.81 Q1411.34 1541.53 1415.35 1536.53 Q1419.36 1531.54 1425.92 1531.54 Q1429.86 1531.54 1432.69 1533.1 Q1435.53 1534.66 1437.34 1537.81 L1437.34 1532.4 L1443.2 1532.4 L1443.2 1563.62 Z" fill="#000000" fill-rule="evenodd" fill-opacity="1" /><path clip-path="url(#clip310)" d="M1465.67 1520.52 L1471.08 1520.52 L1454.53 1574.09 L1449.12 1574.09 L1465.67 1520.52 Z" fill="#000000" fill-rule="evenodd" fill-opacity="1" /><path clip-path="url(#clip310)" d="M1477 1518.52 L1482.89 1518.52 L1482.89 1547.77 L1500.36 1532.4 L1507.84 1532.4 L1488.94 1549.07 L1508.64 1568.04 L1501 1568.04 L1482.89 1550.63 L1482.89 1568.04 L1477 1568.04 L1477 1518.52 Z" fill="#000000" fill-rule="evenodd" fill-opacity="1" /><path clip-path="url(#clip310)" d="M1538.43 1549.81 Q1538.43 1543.44 1535.79 1539.94 Q1533.18 1536.44 1528.44 1536.44 Q1523.72 1536.44 1521.08 1539.94 Q1518.47 1543.44 1518.47 1549.81 Q1518.47 1556.14 1521.08 1559.64 Q1523.72 1563.14 1528.44 1563.14 Q1533.18 1563.14 1535.79 1559.64 Q1538.43 1556.14 1538.43 1549.81 M1544.29 1563.62 Q1544.29 1572.72 1540.24 1577.15 Q1536.2 1581.6 1527.86 1581.6 Q1524.77 1581.6 1522.04 1581.13 Q1519.3 1580.68 1516.72 1579.72 L1516.72 1574.03 Q1519.3 1575.43 1521.81 1576.1 Q1524.33 1576.76 1526.94 1576.76 Q1532.7 1576.76 1535.56 1573.74 Q1538.43 1570.75 1538.43 1564.67 L1538.43 1561.77 Q1536.62 1564.92 1533.78 1566.48 Q1530.95 1568.04 1527 1568.04 Q1520.45 1568.04 1516.44 1563.05 Q1512.43 1558.05 1512.43 1549.81 Q1512.43 1541.53 1516.44 1536.53 Q1520.45 1531.54 1527 1531.54 Q1530.95 1531.54 1533.78 1533.1 Q1536.62 1534.66 1538.43 1537.81 L1538.43 1532.4 L1544.29 1532.4 L1544.29 1563.62 Z" fill="#000000" fill-rule="evenodd" fill-opacity="1" /><path clip-path="url(#clip310)" d="M1570.03 1518.52 L1570.03 1576.64 L1556.54 1576.64 L1556.54 1572.09 L1564.15 1572.09 L1564.15 1523.07 L1556.54 1523.07 L1556.54 1518.52 L1570.03 1518.52 Z" fill="#000000" fill-rule="evenodd" fill-opacity="1" /><polyline clip-path="url(#clip312)" style="stroke:#000000; stroke-linecap:butt; stroke-linejoin:round; stroke-width:2; stroke-opacity:0.1; fill:none" points="
  340.028,1384.24 2352.76,1384.24 
  "/>
<polyline clip-path="url(#clip312)" style="stroke:#000000; stroke-linecap:butt; stroke-linejoin:round; stroke-width:2; stroke-opacity:0.1; fill:none" points="
  340.028,1093.42 2352.76,1093.42 
  "/>
<polyline clip-path="url(#clip312)" style="stroke:#000000; stroke-linecap:butt; stroke-linejoin:round; stroke-width:2; stroke-opacity:0.1; fill:none" points="
  340.028,802.591 2352.76,802.591 
  "/>
<polyline clip-path="url(#clip312)" style="stroke:#000000; stroke-linecap:butt; stroke-linejoin:round; stroke-width:2; stroke-opacity:0.1; fill:none" points="
  340.028,511.766 2352.76,511.766 
  "/>
<polyline clip-path="url(#clip312)" style="stroke:#000000; stroke-linecap:butt; stroke-linejoin:round; stroke-width:2; stroke-opacity:0.1; fill:none" points="
  340.028,220.941 2352.76,220.941 
  "/>
<polyline clip-path="url(#clip310)" style="stroke:#000000; stroke-linecap:butt; stroke-linejoin:round; stroke-width:4; stroke-opacity:1; fill:none" points="
  340.028,1423.18 340.028,47.2441 
  "/>
<polyline clip-path="url(#clip310)" style="stroke:#000000; stroke-linecap:butt; stroke-linejoin:round; stroke-width:4; stroke-opacity:1; fill:none" points="
  340.028,1384.24 358.925,1384.24 
  "/>
<polyline clip-path="url(#clip310)" style="stroke:#000000; stroke-linecap:butt; stroke-linejoin:round; stroke-width:4; stroke-opacity:1; fill:none" points="
  340.028,1093.42 358.925,1093.42 
  "/>
<polyline clip-path="url(#clip310)" style="stroke:#000000; stroke-linecap:butt; stroke-linejoin:round; stroke-width:4; stroke-opacity:1; fill:none" points="
  340.028,802.591 358.925,802.591 
  "/>
<polyline clip-path="url(#clip310)" style="stroke:#000000; stroke-linecap:butt; stroke-linejoin:round; stroke-width:4; stroke-opacity:1; fill:none" points="
  340.028,511.766 358.925,511.766 
  "/>
<polyline clip-path="url(#clip310)" style="stroke:#000000; stroke-linecap:butt; stroke-linejoin:round; stroke-width:4; stroke-opacity:1; fill:none" points="
  340.028,220.941 358.925,220.941 
  "/>
<path clip-path="url(#clip310)" d="M126.205 1370.04 Q122.593 1370.04 120.765 1373.6 Q118.959 1377.15 118.959 1384.28 Q118.959 1391.38 120.765 1394.95 Q122.593 1398.49 126.205 1398.49 Q129.839 1398.49 131.644 1394.95 Q133.473 1391.38 133.473 1384.28 Q133.473 1377.15 131.644 1373.6 Q129.839 1370.04 126.205 1370.04 M126.205 1366.34 Q132.015 1366.34 135.07 1370.94 Q138.149 1375.53 138.149 1384.28 Q138.149 1393 135.07 1397.61 Q132.015 1402.19 126.205 1402.19 Q120.394 1402.19 117.316 1397.61 Q114.26 1393 114.26 1384.28 Q114.26 1375.53 117.316 1370.94 Q120.394 1366.34 126.205 1366.34 Z" fill="#000000" fill-rule="evenodd" fill-opacity="1" /><path clip-path="url(#clip310)" d="M146.366 1395.64 L151.251 1395.64 L151.251 1401.52 L146.366 1401.52 L146.366 1395.64 Z" fill="#000000" fill-rule="evenodd" fill-opacity="1" /><path clip-path="url(#clip310)" d="M171.436 1370.04 Q167.825 1370.04 165.996 1373.6 Q164.19 1377.15 164.19 1384.28 Q164.19 1391.38 165.996 1394.95 Q167.825 1398.49 171.436 1398.49 Q175.07 1398.49 176.876 1394.95 Q178.704 1391.38 178.704 1384.28 Q178.704 1377.15 176.876 1373.6 Q175.07 1370.04 171.436 1370.04 M171.436 1366.34 Q177.246 1366.34 180.301 1370.94 Q183.38 1375.53 183.38 1384.28 Q183.38 1393 180.301 1397.61 Q177.246 1402.19 171.436 1402.19 Q165.626 1402.19 162.547 1397.61 Q159.491 1393 159.491 1384.28 Q159.491 1375.53 162.547 1370.94 Q165.626 1366.34 171.436 1366.34 Z" fill="#000000" fill-rule="evenodd" fill-opacity="1" /><path clip-path="url(#clip310)" d="M201.598 1370.04 Q197.987 1370.04 196.158 1373.6 Q194.352 1377.15 194.352 1384.28 Q194.352 1391.38 196.158 1394.95 Q197.987 1398.49 201.598 1398.49 Q205.232 1398.49 207.037 1394.95 Q208.866 1391.38 208.866 1384.28 Q208.866 1377.15 207.037 1373.6 Q205.232 1370.04 201.598 1370.04 M201.598 1366.34 Q207.408 1366.34 210.463 1370.94 Q213.542 1375.53 213.542 1384.28 Q213.542 1393 210.463 1397.61 Q207.408 1402.19 201.598 1402.19 Q195.787 1402.19 192.709 1397.61 Q189.653 1393 189.653 1384.28 Q189.653 1375.53 192.709 1370.94 Q195.787 1366.34 201.598 1366.34 Z" fill="#000000" fill-rule="evenodd" fill-opacity="1" /><path clip-path="url(#clip310)" d="M231.76 1370.04 Q228.148 1370.04 226.32 1373.6 Q224.514 1377.15 224.514 1384.28 Q224.514 1391.38 226.32 1394.95 Q228.148 1398.49 231.76 1398.49 Q235.394 1398.49 237.199 1394.95 Q239.028 1391.38 239.028 1384.28 Q239.028 1377.15 237.199 1373.6 Q235.394 1370.04 231.76 1370.04 M231.76 1366.34 Q237.57 1366.34 240.625 1370.94 Q243.704 1375.53 243.704 1384.28 Q243.704 1393 240.625 1397.61 Q237.57 1402.19 231.76 1402.19 Q225.949 1402.19 222.871 1397.61 Q219.815 1393 219.815 1384.28 Q219.815 1375.53 222.871 1370.94 Q225.949 1366.34 231.76 1366.34 Z" fill="#000000" fill-rule="evenodd" fill-opacity="1" /><path clip-path="url(#clip310)" d="M261.921 1370.04 Q258.31 1370.04 256.482 1373.6 Q254.676 1377.15 254.676 1384.28 Q254.676 1391.38 256.482 1394.95 Q258.31 1398.49 261.921 1398.49 Q265.556 1398.49 267.361 1394.95 Q269.19 1391.38 269.19 1384.28 Q269.19 1377.15 267.361 1373.6 Q265.556 1370.04 261.921 1370.04 M261.921 1366.34 Q267.732 1366.34 270.787 1370.94 Q273.866 1375.53 273.866 1384.28 Q273.866 1393 270.787 1397.61 Q267.732 1402.19 261.921 1402.19 Q256.111 1402.19 253.033 1397.61 Q249.977 1393 249.977 1384.28 Q249.977 1375.53 253.033 1370.94 Q256.111 1366.34 261.921 1366.34 Z" fill="#000000" fill-rule="evenodd" fill-opacity="1" /><path clip-path="url(#clip310)" d="M292.083 1370.04 Q288.472 1370.04 286.643 1373.6 Q284.838 1377.15 284.838 1384.28 Q284.838 1391.38 286.643 1394.95 Q288.472 1398.49 292.083 1398.49 Q295.718 1398.49 297.523 1394.95 Q299.352 1391.38 299.352 1384.28 Q299.352 1377.15 297.523 1373.6 Q295.718 1370.04 292.083 1370.04 M292.083 1366.34 Q297.893 1366.34 300.949 1370.94 Q304.028 1375.53 304.028 1384.28 Q304.028 1393 300.949 1397.61 Q297.893 1402.19 292.083 1402.19 Q286.273 1402.19 283.194 1397.61 Q280.139 1393 280.139 1384.28 Q280.139 1375.53 283.194 1370.94 Q286.273 1366.34 292.083 1366.34 Z" fill="#000000" fill-rule="evenodd" fill-opacity="1" /><path clip-path="url(#clip310)" d="M127.2 1079.21 Q123.589 1079.21 121.76 1082.78 Q119.955 1086.32 119.955 1093.45 Q119.955 1100.56 121.76 1104.12 Q123.589 1107.66 127.2 1107.66 Q130.834 1107.66 132.64 1104.12 Q134.468 1100.56 134.468 1093.45 Q134.468 1086.32 132.64 1082.78 Q130.834 1079.21 127.2 1079.21 M127.2 1075.51 Q133.01 1075.51 136.066 1080.12 Q139.144 1084.7 139.144 1093.45 Q139.144 1102.18 136.066 1106.78 Q133.01 1111.37 127.2 1111.37 Q121.39 1111.37 118.311 1106.78 Q115.256 1102.18 115.256 1093.45 Q115.256 1084.7 118.311 1080.12 Q121.39 1075.51 127.2 1075.51 Z" fill="#000000" fill-rule="evenodd" fill-opacity="1" /><path clip-path="url(#clip310)" d="M147.362 1104.82 L152.246 1104.82 L152.246 1110.7 L147.362 1110.7 L147.362 1104.82 Z" fill="#000000" fill-rule="evenodd" fill-opacity="1" /><path clip-path="url(#clip310)" d="M172.431 1079.21 Q168.82 1079.21 166.991 1082.78 Q165.186 1086.32 165.186 1093.45 Q165.186 1100.56 166.991 1104.12 Q168.82 1107.66 172.431 1107.66 Q176.065 1107.66 177.871 1104.12 Q179.7 1100.56 179.7 1093.45 Q179.7 1086.32 177.871 1082.78 Q176.065 1079.21 172.431 1079.21 M172.431 1075.51 Q178.241 1075.51 181.297 1080.12 Q184.376 1084.7 184.376 1093.45 Q184.376 1102.18 181.297 1106.78 Q178.241 1111.37 172.431 1111.37 Q166.621 1111.37 163.542 1106.78 Q160.487 1102.18 160.487 1093.45 Q160.487 1084.7 163.542 1080.12 Q166.621 1075.51 172.431 1075.51 Z" fill="#000000" fill-rule="evenodd" fill-opacity="1" /><path clip-path="url(#clip310)" d="M202.593 1079.21 Q198.982 1079.21 197.153 1082.78 Q195.348 1086.32 195.348 1093.45 Q195.348 1100.56 197.153 1104.12 Q198.982 1107.66 202.593 1107.66 Q206.227 1107.66 208.033 1104.12 Q209.861 1100.56 209.861 1093.45 Q209.861 1086.32 208.033 1082.78 Q206.227 1079.21 202.593 1079.21 M202.593 1075.51 Q208.403 1075.51 211.459 1080.12 Q214.537 1084.7 214.537 1093.45 Q214.537 1102.18 211.459 1106.78 Q208.403 1111.37 202.593 1111.37 Q196.783 1111.37 193.704 1106.78 Q190.649 1102.18 190.649 1093.45 Q190.649 1084.7 193.704 1080.12 Q196.783 1075.51 202.593 1075.51 Z" fill="#000000" fill-rule="evenodd" fill-opacity="1" /><path clip-path="url(#clip310)" d="M232.755 1079.21 Q229.144 1079.21 227.315 1082.78 Q225.51 1086.32 225.51 1093.45 Q225.51 1100.56 227.315 1104.12 Q229.144 1107.66 232.755 1107.66 Q236.389 1107.66 238.195 1104.12 Q240.023 1100.56 240.023 1093.45 Q240.023 1086.32 238.195 1082.78 Q236.389 1079.21 232.755 1079.21 M232.755 1075.51 Q238.565 1075.51 241.621 1080.12 Q244.699 1084.7 244.699 1093.45 Q244.699 1102.18 241.621 1106.78 Q238.565 1111.37 232.755 1111.37 Q226.945 1111.37 223.866 1106.78 Q220.811 1102.18 220.811 1093.45 Q220.811 1084.7 223.866 1080.12 Q226.945 1075.51 232.755 1075.51 Z" fill="#000000" fill-rule="evenodd" fill-opacity="1" /><path clip-path="url(#clip310)" d="M256.945 1106.76 L273.264 1106.76 L273.264 1110.7 L251.32 1110.7 L251.32 1106.76 Q253.982 1104.01 258.565 1099.38 Q263.171 1094.72 264.352 1093.38 Q266.597 1090.86 267.477 1089.12 Q268.38 1087.36 268.38 1085.67 Q268.38 1082.92 266.435 1081.18 Q264.514 1079.45 261.412 1079.45 Q259.213 1079.45 256.759 1080.21 Q254.329 1080.97 251.551 1082.52 L251.551 1077.8 Q254.375 1076.67 256.829 1076.09 Q259.283 1075.51 261.32 1075.51 Q266.69 1075.51 269.884 1078.2 Q273.079 1080.88 273.079 1085.37 Q273.079 1087.5 272.269 1089.42 Q271.482 1091.32 269.375 1093.91 Q268.796 1094.58 265.695 1097.8 Q262.593 1101 256.945 1106.76 Z" fill="#000000" fill-rule="evenodd" fill-opacity="1" /><path clip-path="url(#clip310)" d="M283.125 1076.14 L301.481 1076.14 L301.481 1080.07 L287.407 1080.07 L287.407 1088.54 Q288.426 1088.2 289.444 1088.03 Q290.463 1087.85 291.481 1087.85 Q297.268 1087.85 300.648 1091.02 Q304.028 1094.19 304.028 1099.61 Q304.028 1105.19 300.555 1108.29 Q297.083 1111.37 290.764 1111.37 Q288.588 1111.37 286.319 1111 Q284.074 1110.63 281.667 1109.89 L281.667 1105.19 Q283.75 1106.32 285.972 1106.88 Q288.194 1107.43 290.671 1107.43 Q294.676 1107.43 297.014 1105.33 Q299.352 1103.22 299.352 1099.61 Q299.352 1096 297.014 1093.89 Q294.676 1091.78 290.671 1091.78 Q288.796 1091.78 286.921 1092.2 Q285.069 1092.62 283.125 1093.5 L283.125 1076.14 Z" fill="#000000" fill-rule="evenodd" fill-opacity="1" /><path clip-path="url(#clip310)" d="M126.205 788.389 Q122.593 788.389 120.765 791.954 Q118.959 795.496 118.959 802.626 Q118.959 809.732 120.765 813.297 Q122.593 816.838 126.205 816.838 Q129.839 816.838 131.644 813.297 Q133.473 809.732 133.473 802.626 Q133.473 795.496 131.644 791.954 Q129.839 788.389 126.205 788.389 M126.205 784.686 Q132.015 784.686 135.07 789.292 Q138.149 793.876 138.149 802.626 Q138.149 811.352 135.07 815.959 Q132.015 820.542 126.205 820.542 Q120.394 820.542 117.316 815.959 Q114.26 811.352 114.26 802.626 Q114.26 793.876 117.316 789.292 Q120.394 784.686 126.205 784.686 Z" fill="#000000" fill-rule="evenodd" fill-opacity="1" /><path clip-path="url(#clip310)" d="M146.366 813.991 L151.251 813.991 L151.251 819.871 L146.366 819.871 L146.366 813.991 Z" fill="#000000" fill-rule="evenodd" fill-opacity="1" /><path clip-path="url(#clip310)" d="M171.436 788.389 Q167.825 788.389 165.996 791.954 Q164.19 795.496 164.19 802.626 Q164.19 809.732 165.996 813.297 Q167.825 816.838 171.436 816.838 Q175.07 816.838 176.876 813.297 Q178.704 809.732 178.704 802.626 Q178.704 795.496 176.876 791.954 Q175.07 788.389 171.436 788.389 M171.436 784.686 Q177.246 784.686 180.301 789.292 Q183.38 793.876 183.38 802.626 Q183.38 811.352 180.301 815.959 Q177.246 820.542 171.436 820.542 Q165.626 820.542 162.547 815.959 Q159.491 811.352 159.491 802.626 Q159.491 793.876 162.547 789.292 Q165.626 784.686 171.436 784.686 Z" fill="#000000" fill-rule="evenodd" fill-opacity="1" /><path clip-path="url(#clip310)" d="M201.598 788.389 Q197.987 788.389 196.158 791.954 Q194.352 795.496 194.352 802.626 Q194.352 809.732 196.158 813.297 Q197.987 816.838 201.598 816.838 Q205.232 816.838 207.037 813.297 Q208.866 809.732 208.866 802.626 Q208.866 795.496 207.037 791.954 Q205.232 788.389 201.598 788.389 M201.598 784.686 Q207.408 784.686 210.463 789.292 Q213.542 793.876 213.542 802.626 Q213.542 811.352 210.463 815.959 Q207.408 820.542 201.598 820.542 Q195.787 820.542 192.709 815.959 Q189.653 811.352 189.653 802.626 Q189.653 793.876 192.709 789.292 Q195.787 784.686 201.598 784.686 Z" fill="#000000" fill-rule="evenodd" fill-opacity="1" /><path clip-path="url(#clip310)" d="M231.76 788.389 Q228.148 788.389 226.32 791.954 Q224.514 795.496 224.514 802.626 Q224.514 809.732 226.32 813.297 Q228.148 816.838 231.76 816.838 Q235.394 816.838 237.199 813.297 Q239.028 809.732 239.028 802.626 Q239.028 795.496 237.199 791.954 Q235.394 788.389 231.76 788.389 M231.76 784.686 Q237.57 784.686 240.625 789.292 Q243.704 793.876 243.704 802.626 Q243.704 811.352 240.625 815.959 Q237.57 820.542 231.76 820.542 Q225.949 820.542 222.871 815.959 Q219.815 811.352 219.815 802.626 Q219.815 793.876 222.871 789.292 Q225.949 784.686 231.76 784.686 Z" fill="#000000" fill-rule="evenodd" fill-opacity="1" /><path clip-path="url(#clip310)" d="M251.968 785.311 L270.324 785.311 L270.324 789.246 L256.25 789.246 L256.25 797.718 Q257.269 797.371 258.287 797.209 Q259.306 797.024 260.324 797.024 Q266.111 797.024 269.491 800.195 Q272.87 803.366 272.87 808.783 Q272.87 814.362 269.398 817.463 Q265.926 820.542 259.607 820.542 Q257.431 820.542 255.162 820.172 Q252.917 819.801 250.509 819.061 L250.509 814.362 Q252.593 815.496 254.815 816.051 Q257.037 816.607 259.514 816.607 Q263.519 816.607 265.857 814.5 Q268.195 812.394 268.195 808.783 Q268.195 805.172 265.857 803.065 Q263.519 800.959 259.514 800.959 Q257.639 800.959 255.764 801.376 Q253.912 801.792 251.968 802.672 L251.968 785.311 Z" fill="#000000" fill-rule="evenodd" fill-opacity="1" /><path clip-path="url(#clip310)" d="M292.083 788.389 Q288.472 788.389 286.643 791.954 Q284.838 795.496 284.838 802.626 Q284.838 809.732 286.643 813.297 Q288.472 816.838 292.083 816.838 Q295.718 816.838 297.523 813.297 Q299.352 809.732 299.352 802.626 Q299.352 795.496 297.523 791.954 Q295.718 788.389 292.083 788.389 M292.083 784.686 Q297.893 784.686 300.949 789.292 Q304.028 793.876 304.028 802.626 Q304.028 811.352 300.949 815.959 Q297.893 820.542 292.083 820.542 Q286.273 820.542 283.194 815.959 Q280.139 811.352 280.139 802.626 Q280.139 793.876 283.194 789.292 Q286.273 784.686 292.083 784.686 Z" fill="#000000" fill-rule="evenodd" fill-opacity="1" /><path clip-path="url(#clip310)" d="M127.2 497.565 Q123.589 497.565 121.76 501.13 Q119.955 504.671 119.955 511.801 Q119.955 518.907 121.76 522.472 Q123.589 526.014 127.2 526.014 Q130.834 526.014 132.64 522.472 Q134.468 518.907 134.468 511.801 Q134.468 504.671 132.64 501.13 Q130.834 497.565 127.2 497.565 M127.2 493.861 Q133.01 493.861 136.066 498.468 Q139.144 503.051 139.144 511.801 Q139.144 520.528 136.066 525.134 Q133.01 529.717 127.2 529.717 Q121.39 529.717 118.311 525.134 Q115.256 520.528 115.256 511.801 Q115.256 503.051 118.311 498.468 Q121.39 493.861 127.2 493.861 Z" fill="#000000" fill-rule="evenodd" fill-opacity="1" /><path clip-path="url(#clip310)" d="M147.362 523.166 L152.246 523.166 L152.246 529.046 L147.362 529.046 L147.362 523.166 Z" fill="#000000" fill-rule="evenodd" fill-opacity="1" /><path clip-path="url(#clip310)" d="M172.431 497.565 Q168.82 497.565 166.991 501.13 Q165.186 504.671 165.186 511.801 Q165.186 518.907 166.991 522.472 Q168.82 526.014 172.431 526.014 Q176.065 526.014 177.871 522.472 Q179.7 518.907 179.7 511.801 Q179.7 504.671 177.871 501.13 Q176.065 497.565 172.431 497.565 M172.431 493.861 Q178.241 493.861 181.297 498.468 Q184.376 503.051 184.376 511.801 Q184.376 520.528 181.297 525.134 Q178.241 529.717 172.431 529.717 Q166.621 529.717 163.542 525.134 Q160.487 520.528 160.487 511.801 Q160.487 503.051 163.542 498.468 Q166.621 493.861 172.431 493.861 Z" fill="#000000" fill-rule="evenodd" fill-opacity="1" /><path clip-path="url(#clip310)" d="M202.593 497.565 Q198.982 497.565 197.153 501.13 Q195.348 504.671 195.348 511.801 Q195.348 518.907 197.153 522.472 Q198.982 526.014 202.593 526.014 Q206.227 526.014 208.033 522.472 Q209.861 518.907 209.861 511.801 Q209.861 504.671 208.033 501.13 Q206.227 497.565 202.593 497.565 M202.593 493.861 Q208.403 493.861 211.459 498.468 Q214.537 503.051 214.537 511.801 Q214.537 520.528 211.459 525.134 Q208.403 529.717 202.593 529.717 Q196.783 529.717 193.704 525.134 Q190.649 520.528 190.649 511.801 Q190.649 503.051 193.704 498.468 Q196.783 493.861 202.593 493.861 Z" fill="#000000" fill-rule="evenodd" fill-opacity="1" /><path clip-path="url(#clip310)" d="M232.755 497.565 Q229.144 497.565 227.315 501.13 Q225.51 504.671 225.51 511.801 Q225.51 518.907 227.315 522.472 Q229.144 526.014 232.755 526.014 Q236.389 526.014 238.195 522.472 Q240.023 518.907 240.023 511.801 Q240.023 504.671 238.195 501.13 Q236.389 497.565 232.755 497.565 M232.755 493.861 Q238.565 493.861 241.621 498.468 Q244.699 503.051 244.699 511.801 Q244.699 520.528 241.621 525.134 Q238.565 529.717 232.755 529.717 Q226.945 529.717 223.866 525.134 Q220.811 520.528 220.811 511.801 Q220.811 503.051 223.866 498.468 Q226.945 493.861 232.755 493.861 Z" fill="#000000" fill-rule="evenodd" fill-opacity="1" /><path clip-path="url(#clip310)" d="M251.736 494.486 L273.958 494.486 L273.958 496.477 L261.412 529.046 L256.528 529.046 L268.333 498.421 L251.736 498.421 L251.736 494.486 Z" fill="#000000" fill-rule="evenodd" fill-opacity="1" /><path clip-path="url(#clip310)" d="M283.125 494.486 L301.481 494.486 L301.481 498.421 L287.407 498.421 L287.407 506.893 Q288.426 506.546 289.444 506.384 Q290.463 506.199 291.481 506.199 Q297.268 506.199 300.648 509.37 Q304.028 512.542 304.028 517.958 Q304.028 523.537 300.555 526.639 Q297.083 529.717 290.764 529.717 Q288.588 529.717 286.319 529.347 Q284.074 528.977 281.667 528.236 L281.667 523.537 Q283.75 524.671 285.972 525.227 Q288.194 525.782 290.671 525.782 Q294.676 525.782 297.014 523.676 Q299.352 521.569 299.352 517.958 Q299.352 514.347 297.014 512.241 Q294.676 510.134 290.671 510.134 Q288.796 510.134 286.921 510.551 Q285.069 510.967 283.125 511.847 L283.125 494.486 Z" fill="#000000" fill-rule="evenodd" fill-opacity="1" /><path clip-path="url(#clip310)" d="M126.205 206.74 Q122.593 206.74 120.765 210.305 Q118.959 213.846 118.959 220.976 Q118.959 228.083 120.765 231.647 Q122.593 235.189 126.205 235.189 Q129.839 235.189 131.644 231.647 Q133.473 228.083 133.473 220.976 Q133.473 213.846 131.644 210.305 Q129.839 206.74 126.205 206.74 M126.205 203.036 Q132.015 203.036 135.07 207.643 Q138.149 212.226 138.149 220.976 Q138.149 229.703 135.07 234.309 Q132.015 238.893 126.205 238.893 Q120.394 238.893 117.316 234.309 Q114.26 229.703 114.26 220.976 Q114.26 212.226 117.316 207.643 Q120.394 203.036 126.205 203.036 Z" fill="#000000" fill-rule="evenodd" fill-opacity="1" /><path clip-path="url(#clip310)" d="M146.366 232.342 L151.251 232.342 L151.251 238.221 L146.366 238.221 L146.366 232.342 Z" fill="#000000" fill-rule="evenodd" fill-opacity="1" /><path clip-path="url(#clip310)" d="M171.436 206.74 Q167.825 206.74 165.996 210.305 Q164.19 213.846 164.19 220.976 Q164.19 228.083 165.996 231.647 Q167.825 235.189 171.436 235.189 Q175.07 235.189 176.876 231.647 Q178.704 228.083 178.704 220.976 Q178.704 213.846 176.876 210.305 Q175.07 206.74 171.436 206.74 M171.436 203.036 Q177.246 203.036 180.301 207.643 Q183.38 212.226 183.38 220.976 Q183.38 229.703 180.301 234.309 Q177.246 238.893 171.436 238.893 Q165.626 238.893 162.547 234.309 Q159.491 229.703 159.491 220.976 Q159.491 212.226 162.547 207.643 Q165.626 203.036 171.436 203.036 Z" fill="#000000" fill-rule="evenodd" fill-opacity="1" /><path clip-path="url(#clip310)" d="M201.598 206.74 Q197.987 206.74 196.158 210.305 Q194.352 213.846 194.352 220.976 Q194.352 228.083 196.158 231.647 Q197.987 235.189 201.598 235.189 Q205.232 235.189 207.037 231.647 Q208.866 228.083 208.866 220.976 Q208.866 213.846 207.037 210.305 Q205.232 206.74 201.598 206.74 M201.598 203.036 Q207.408 203.036 210.463 207.643 Q213.542 212.226 213.542 220.976 Q213.542 229.703 210.463 234.309 Q207.408 238.893 201.598 238.893 Q195.787 238.893 192.709 234.309 Q189.653 229.703 189.653 220.976 Q189.653 212.226 192.709 207.643 Q195.787 203.036 201.598 203.036 Z" fill="#000000" fill-rule="evenodd" fill-opacity="1" /><path clip-path="url(#clip310)" d="M222.57 234.286 L230.209 234.286 L230.209 207.921 L221.898 209.587 L221.898 205.328 L230.162 203.661 L234.838 203.661 L234.838 234.286 L242.477 234.286 L242.477 238.221 L222.57 238.221 L222.57 234.286 Z" fill="#000000" fill-rule="evenodd" fill-opacity="1" /><path clip-path="url(#clip310)" d="M261.921 206.74 Q258.31 206.74 256.482 210.305 Q254.676 213.846 254.676 220.976 Q254.676 228.083 256.482 231.647 Q258.31 235.189 261.921 235.189 Q265.556 235.189 267.361 231.647 Q269.19 228.083 269.19 220.976 Q269.19 213.846 267.361 210.305 Q265.556 206.74 261.921 206.74 M261.921 203.036 Q267.732 203.036 270.787 207.643 Q273.866 212.226 273.866 220.976 Q273.866 229.703 270.787 234.309 Q267.732 238.893 261.921 238.893 Q256.111 238.893 253.033 234.309 Q249.977 229.703 249.977 220.976 Q249.977 212.226 253.033 207.643 Q256.111 203.036 261.921 203.036 Z" fill="#000000" fill-rule="evenodd" fill-opacity="1" /><path clip-path="url(#clip310)" d="M292.083 206.74 Q288.472 206.74 286.643 210.305 Q284.838 213.846 284.838 220.976 Q284.838 228.083 286.643 231.647 Q288.472 235.189 292.083 235.189 Q295.718 235.189 297.523 231.647 Q299.352 228.083 299.352 220.976 Q299.352 213.846 297.523 210.305 Q295.718 206.74 292.083 206.74 M292.083 203.036 Q297.893 203.036 300.949 207.643 Q304.028 212.226 304.028 220.976 Q304.028 229.703 300.949 234.309 Q297.893 238.893 292.083 238.893 Q286.273 238.893 283.194 234.309 Q280.139 229.703 280.139 220.976 Q280.139 212.226 283.194 207.643 Q286.273 203.036 292.083 203.036 Z" fill="#000000" fill-rule="evenodd" fill-opacity="1" /><path clip-path="url(#clip310)" d="M29.4065 1034.59 L34.9447 1034.59 Q33.6716 1037.07 33.035 1039.75 Q32.3984 1042.42 32.3984 1045.29 Q32.3984 1049.65 33.7352 1051.84 Q35.072 1054.01 37.7456 1054.01 Q39.7826 1054.01 40.9603 1052.45 Q42.1061 1050.89 43.1565 1046.18 L43.6021 1044.17 Q44.9389 1037.93 47.3897 1035.32 Q49.8086 1032.68 54.1691 1032.68 Q59.1344 1032.68 62.0308 1036.63 Q64.9272 1040.54 64.9272 1047.42 Q64.9272 1050.28 64.3543 1053.4 Q63.8132 1056.49 62.6992 1059.93 L56.6518 1059.93 Q58.3387 1056.68 59.198 1053.53 Q60.0256 1050.38 60.0256 1047.29 Q60.0256 1043.15 58.6251 1040.93 Q57.1929 1038.7 54.6147 1038.7 Q52.2276 1038.7 50.9545 1040.32 Q49.6813 1041.91 48.5037 1047.35 L48.0262 1049.39 Q46.8804 1054.83 44.5251 1057.25 Q42.138 1059.67 38.0002 1059.67 Q32.9713 1059.67 30.2341 1056.11 Q27.4968 1052.54 27.4968 1045.99 Q27.4968 1042.74 27.9743 1039.87 Q28.4517 1037.01 29.4065 1034.59 Z" fill="#000000" fill-rule="evenodd" fill-opacity="1" /><path clip-path="url(#clip310)" d="M42.4881 993.723 L64.0042 993.723 L64.0042 999.58 L42.679 999.58 Q37.6183 999.58 35.1038 1001.55 Q32.5894 1003.53 32.5894 1007.47 Q32.5894 1012.22 35.6131 1014.95 Q38.6368 1017.69 43.8567 1017.69 L64.0042 1017.69 L64.0042 1023.58 L28.3562 1023.58 L28.3562 1017.69 L33.8944 1017.69 Q30.6797 1015.59 29.0883 1012.76 Q27.4968 1009.89 27.4968 1006.17 Q27.4968 1000.03 31.3163 996.874 Q35.1038 993.723 42.4881 993.723 Z" fill="#000000" fill-rule="evenodd" fill-opacity="1" /><path clip-path="url(#clip310)" d="M32.4621 968.229 Q32.4621 972.939 36.1542 975.677 Q39.8145 978.414 46.212 978.414 Q52.6095 978.414 56.3017 975.708 Q59.9619 972.971 59.9619 968.229 Q59.9619 963.55 56.2698 960.813 Q52.5777 958.075 46.212 958.075 Q39.8781 958.075 36.186 960.813 Q32.4621 963.55 32.4621 968.229 M27.4968 968.229 Q27.4968 960.59 32.4621 956.229 Q37.4273 951.869 46.212 951.869 Q54.9649 951.869 59.9619 956.229 Q64.9272 960.59 64.9272 968.229 Q64.9272 975.899 59.9619 980.26 Q54.9649 984.589 46.212 984.589 Q37.4273 984.589 32.4621 980.26 Q27.4968 975.899 27.4968 968.229 Z" fill="#000000" fill-rule="evenodd" fill-opacity="1" /><path clip-path="url(#clip310)" d="M28.3562 945.567 L28.3562 939.71 L56.1743 932.39 L28.3562 925.101 L28.3562 918.194 L56.1743 910.874 L28.3562 903.585 L28.3562 897.728 L64.0042 907.054 L64.0042 913.961 L34.7856 921.632 L64.0042 929.334 L64.0042 936.241 L28.3562 945.567 Z" fill="#000000" fill-rule="evenodd" fill-opacity="1" /><path clip-path="url(#clip310)" d="M35.1993 840.373 Q31.2526 838.177 29.3747 835.122 Q27.4968 832.066 27.4968 827.928 Q27.4968 822.358 31.4117 819.335 Q35.2948 816.311 42.4881 816.311 L64.0042 816.311 L64.0042 822.199 L42.679 822.199 Q37.5546 822.199 35.072 824.014 Q32.5894 825.828 32.5894 829.552 Q32.5894 834.103 35.6131 836.745 Q38.6368 839.387 43.8567 839.387 L64.0042 839.387 L64.0042 845.275 L42.679 845.275 Q37.5228 845.275 35.072 847.089 Q32.5894 848.903 32.5894 852.691 Q32.5894 857.179 35.6449 859.821 Q38.6686 862.462 43.8567 862.462 L64.0042 862.462 L64.0042 868.351 L28.3562 868.351 L28.3562 862.462 L33.8944 862.462 Q30.616 860.457 29.0564 857.656 Q27.4968 854.855 27.4968 851.004 Q27.4968 847.121 29.4702 844.416 Q31.4436 841.678 35.1993 840.373 Z" fill="#000000" fill-rule="evenodd" fill-opacity="1" /><path clip-path="url(#clip310)" d="M44.7161 774.138 L47.5806 774.138 L47.5806 801.065 Q53.6281 800.683 56.8109 797.437 Q59.9619 794.158 59.9619 788.334 Q59.9619 784.96 59.1344 781.809 Q58.3069 778.626 56.6518 775.507 L62.1899 775.507 Q63.5267 778.658 64.227 781.968 Q64.9272 785.278 64.9272 788.684 Q64.9272 797.214 59.9619 802.211 Q54.9967 807.176 46.5303 807.176 Q37.7774 807.176 32.6531 802.466 Q27.4968 797.723 27.4968 789.702 Q27.4968 782.509 32.1438 778.34 Q36.7589 774.138 44.7161 774.138 M42.9973 779.995 Q38.1912 780.058 35.3266 782.7 Q32.4621 785.31 32.4621 789.639 Q32.4621 794.54 35.2312 797.5 Q38.0002 800.429 43.0292 800.874 L42.9973 779.995 Z" fill="#000000" fill-rule="evenodd" fill-opacity="1" /><path clip-path="url(#clip310)" d="M14.479 764.526 L14.479 758.67 L64.0042 758.67 L64.0042 764.526 L14.479 764.526 Z" fill="#000000" fill-rule="evenodd" fill-opacity="1" /><path clip-path="url(#clip310)" d="M18.2347 740.623 L28.3562 740.623 L28.3562 728.56 L32.9077 728.56 L32.9077 740.623 L52.2594 740.623 Q56.6199 740.623 57.8613 739.445 Q59.1026 738.236 59.1026 734.575 L59.1026 728.56 L64.0042 728.56 L64.0042 734.575 Q64.0042 741.355 61.4897 743.933 Q58.9434 746.511 52.2594 746.511 L32.9077 746.511 L32.9077 750.808 L28.3562 750.808 L28.3562 746.511 L18.2347 746.511 L18.2347 740.623 Z" fill="#000000" fill-rule="evenodd" fill-opacity="1" /><path clip-path="url(#clip310)" d="M33.8307 679.48 Q33.2578 680.467 33.0032 681.645 Q32.7167 682.79 32.7167 684.191 Q32.7167 689.156 35.9632 691.83 Q39.1779 694.471 45.2253 694.471 L64.0042 694.471 L64.0042 700.36 L28.3562 700.36 L28.3562 694.471 L33.8944 694.471 Q30.6479 692.625 29.0883 689.665 Q27.4968 686.705 27.4968 682.472 Q27.4968 681.867 27.5923 681.135 Q27.656 680.403 27.8151 679.512 L33.8307 679.48 Z" fill="#000000" fill-rule="evenodd" fill-opacity="1" /><path clip-path="url(#clip310)" d="M46.0847 657.137 Q46.0847 664.234 47.7079 666.972 Q49.3312 669.709 53.2461 669.709 Q56.3653 669.709 58.2114 667.672 Q60.0256 665.603 60.0256 662.07 Q60.0256 657.2 56.5881 654.272 Q53.1188 651.312 47.3897 651.312 L46.0847 651.312 L46.0847 657.137 M43.6657 645.456 L64.0042 645.456 L64.0042 651.312 L58.5933 651.312 Q61.8398 653.317 63.3994 656.309 Q64.9272 659.301 64.9272 663.63 Q64.9272 669.104 61.8716 672.351 Q58.7843 675.565 53.6281 675.565 Q47.6125 675.565 44.5569 671.555 Q41.5014 667.513 41.5014 659.524 L41.5014 651.312 L40.9285 651.312 Q36.8862 651.312 34.6901 653.986 Q32.4621 656.627 32.4621 661.433 Q32.4621 664.489 33.1941 667.385 Q33.9262 670.282 35.3903 672.955 L29.9795 672.955 Q28.7381 669.741 28.1334 666.717 Q27.4968 663.693 27.4968 660.829 Q27.4968 653.094 31.5072 649.275 Q35.5176 645.456 43.6657 645.456 Z" fill="#000000" fill-rule="evenodd" fill-opacity="1" /><path clip-path="url(#clip310)" d="M18.2347 627.6 L28.3562 627.6 L28.3562 615.537 L32.9077 615.537 L32.9077 627.6 L52.2594 627.6 Q56.6199 627.6 57.8613 626.422 Q59.1026 625.213 59.1026 621.552 L59.1026 615.537 L64.0042 615.537 L64.0042 621.552 Q64.0042 628.332 61.4897 630.91 Q58.9434 633.488 52.2594 633.488 L32.9077 633.488 L32.9077 637.785 L28.3562 637.785 L28.3562 633.488 L18.2347 633.488 L18.2347 627.6 Z" fill="#000000" fill-rule="evenodd" fill-opacity="1" /><path clip-path="url(#clip310)" d="M44.7161 577.342 L47.5806 577.342 L47.5806 604.269 Q53.6281 603.887 56.8109 600.641 Q59.9619 597.363 59.9619 591.538 Q59.9619 588.164 59.1344 585.013 Q58.3069 581.83 56.6518 578.711 L62.1899 578.711 Q63.5267 581.862 64.227 585.172 Q64.9272 588.482 64.9272 591.888 Q64.9272 600.418 59.9619 605.415 Q54.9967 610.38 46.5303 610.38 Q37.7774 610.38 32.6531 605.67 Q27.4968 600.927 27.4968 592.907 Q27.4968 585.713 32.1438 581.544 Q36.7589 577.342 44.7161 577.342 M42.9973 583.199 Q38.1912 583.263 35.3266 585.904 Q32.4621 588.514 32.4621 592.843 Q32.4621 597.745 35.2312 600.705 Q38.0002 603.633 43.0292 604.078 L42.9973 583.199 Z" fill="#000000" fill-rule="evenodd" fill-opacity="1" /><path clip-path="url(#clip310)" d="M14.479 547.551 L14.479 534.056 L19.0304 534.056 L19.0304 541.694 L68.0464 541.694 L68.0464 534.056 L72.5979 534.056 L72.5979 547.551 L14.479 547.551 Z" fill="#000000" fill-rule="evenodd" fill-opacity="1" /><path clip-path="url(#clip310)" d="M58.5933 519.637 L58.5933 509.134 L22.3406 509.134 L24.6323 520.56 L18.7758 520.56 L16.4842 509.198 L16.4842 502.768 L58.5933 502.768 L58.5933 492.265 L64.0042 492.265 L64.0042 519.637 L58.5933 519.637 Z" fill="#000000" fill-rule="evenodd" fill-opacity="1" /><path clip-path="url(#clip310)" d="M16.4842 469.698 L16.4842 464.287 L70.0516 480.838 L70.0516 486.249 L16.4842 469.698 Z" fill="#000000" fill-rule="evenodd" fill-opacity="1" /><path clip-path="url(#clip310)" d="M29.4065 435.419 L34.9447 435.419 Q33.6716 437.902 33.035 440.575 Q32.3984 443.249 32.3984 446.113 Q32.3984 450.474 33.7352 452.67 Q35.072 454.834 37.7456 454.834 Q39.7826 454.834 40.9603 453.275 Q42.1061 451.715 43.1565 447.005 L43.6021 444.999 Q44.9389 438.761 47.3897 436.151 Q49.8086 433.509 54.1691 433.509 Q59.1344 433.509 62.0308 437.456 Q64.9272 441.371 64.9272 448.246 Q64.9272 451.11 64.3543 454.23 Q63.8132 457.317 62.6992 460.755 L56.6518 460.755 Q58.3387 457.508 59.198 454.357 Q60.0256 451.206 60.0256 448.119 Q60.0256 443.981 58.6251 441.753 Q57.1929 439.525 54.6147 439.525 Q52.2276 439.525 50.9545 441.148 Q49.6813 442.74 48.5037 448.182 L48.0262 450.219 Q46.8804 455.662 44.5251 458.081 Q42.138 460.5 38.0002 460.5 Q32.9713 460.5 30.2341 456.935 Q27.4968 453.37 27.4968 446.814 Q27.4968 443.567 27.9743 440.703 Q28.4517 437.838 29.4065 435.419 Z" fill="#000000" fill-rule="evenodd" fill-opacity="1" /><path clip-path="url(#clip310)" d="M14.479 410.497 L72.5979 410.497 L72.5979 423.993 L68.0464 423.993 L68.0464 416.386 L19.0304 416.386 L19.0304 423.993 L14.479 423.993 L14.479 410.497 Z" fill="#000000" fill-rule="evenodd" fill-opacity="1" /><polyline clip-path="url(#clip312)" style="stroke:#009af9; stroke-linecap:butt; stroke-linejoin:round; stroke-width:12; stroke-opacity:1; fill:none" points="
  396.992,1384.24 416.171,1378.37 435.351,1372.99 454.531,1367.77 473.711,1362.65 492.891,1357.61 512.07,1352.63 531.25,1347.69 550.43,1342.8 569.61,1337.94 
  588.79,1333.11 607.969,1328.31 627.149,1323.54 646.329,1318.79 665.509,1314.06 684.689,1309.35 703.868,1304.66 723.048,1299.98 742.228,1295.32 761.408,1290.68 
  780.588,1286.04 799.767,1281.43 818.947,1276.82 838.127,1272.23 857.307,1267.65 876.487,1263.07 895.666,1258.51 914.846,1253.96 934.026,1249.42 953.206,1244.89 
  972.386,1240.37 991.565,1235.85 1010.75,1231.35 1029.93,1226.85 1049.1,1222.36 1068.28,1217.88 1087.46,1213.4 1106.64,1208.93 1125.82,1204.47 1145,1200.02 
  1164.18,1195.57 1183.36,1191.13 1202.54,1186.69 1221.72,1182.26 1240.9,1177.84 1260.08,1173.42 1279.26,1169.01 1298.44,1164.6 1317.62,1160.2 1336.8,1155.8 
  1355.98,1151.41 1375.16,1147.02 1394.34,1142.64 1413.52,1138.26 1432.7,1133.89 1451.88,1129.52 1471.06,1125.16 1490.24,1120.8 1509.42,1116.45 1528.6,1112.09 
  1547.78,1107.75 1566.96,1103.41 1586.14,1099.07 1605.32,1094.73 1624.5,1090.4 1643.68,1086.08 1662.86,1081.75 1682.04,1077.44 1701.22,1073.12 1720.4,1068.81 
  1739.58,1064.5 1758.76,1060.2 1777.94,1055.89 1797.12,1051.6 1816.3,1047.3 1835.48,1043.01 1854.66,1038.72 1873.84,1034.44 1893.02,1030.15 1912.2,1025.88 
  1931.38,1021.6 1950.56,1017.33 1969.74,1013.06 1988.92,1008.79 2008.09,1004.53 2027.27,1000.27 2046.45,996.007 2065.63,991.752 2084.81,987.499 2103.99,983.249 
  2123.17,979.002 2142.35,974.757 2161.53,970.515 2180.71,966.275 2199.89,962.039 2219.07,957.804 2238.25,953.572 2257.43,949.343 2276.61,945.116 2295.79,940.891 
  
  "/>
<polyline clip-path="url(#clip312)" style="stroke:#e26f46; stroke-linecap:butt; stroke-linejoin:round; stroke-width:12; stroke-opacity:1; fill:none" points="
  396.992,1384.24 416.171,1372.65 435.351,1362.01 454.531,1351.7 473.711,1341.59 492.891,1331.63 512.07,1321.78 531.25,1312.04 550.43,1302.37 569.61,1292.77 
  588.79,1283.23 607.969,1273.75 627.149,1264.32 646.329,1254.93 665.509,1245.59 684.689,1236.28 703.868,1227.01 723.048,1217.77 742.228,1208.57 761.408,1199.39 
  780.588,1190.24 799.767,1181.12 818.947,1172.02 838.127,1162.94 857.307,1153.89 876.487,1144.86 895.666,1135.85 914.846,1126.86 934.026,1117.89 953.206,1108.93 
  972.386,1100 991.565,1091.08 1010.75,1082.18 1029.93,1073.29 1049.1,1064.42 1068.28,1055.56 1087.46,1046.72 1106.64,1037.89 1125.82,1029.08 1145,1020.28 
  1164.18,1011.49 1183.36,1002.71 1202.54,993.951 1221.72,985.199 1240.9,976.459 1260.08,967.73 1279.26,959.012 1298.44,950.304 1317.62,941.608 1336.8,932.921 
  1355.98,924.245 1375.16,915.578 1394.34,906.921 1413.52,898.273 1432.7,889.635 1451.88,881.005 1471.06,872.385 1490.24,863.773 1509.42,855.17 1528.6,846.575 
  1547.78,837.988 1566.96,829.409 1586.14,820.839 1605.32,812.276 1624.5,803.721 1643.68,795.173 1662.86,786.633 1682.04,778.1 1701.22,769.574 1720.4,761.056 
  1739.58,752.544 1758.76,744.039 1777.94,735.541 1797.12,727.05 1816.3,718.565 1835.48,710.087 1854.66,701.615 1873.84,693.149 1893.02,684.689 1912.2,676.236 
  1931.38,667.788 1950.56,659.347 1969.74,650.911 1988.92,642.482 2008.09,634.057 2027.27,625.639 2046.45,617.226 2065.63,608.819 2084.81,600.417 2103.99,592.02 
  2123.17,583.629 2142.35,575.243 2161.53,566.862 2180.71,558.486 2199.89,550.116 2219.07,541.75 2238.25,533.389 2257.43,525.034 2276.61,516.683 2295.79,508.336 
  
  "/>
<polyline clip-path="url(#clip312)" style="stroke:#3da44d; stroke-linecap:butt; stroke-linejoin:round; stroke-width:12; stroke-opacity:1; fill:none" points="
  396.992,1384.23 416.171,1367.07 435.351,1351.3 454.531,1336.02 473.711,1321.03 492.891,1306.27 512.07,1291.68 531.25,1277.24 550.43,1262.91 569.61,1248.68 
  588.79,1234.55 607.969,1220.5 627.149,1206.52 646.329,1192.61 665.509,1178.76 684.689,1164.97 703.868,1151.23 723.048,1137.54 742.228,1123.9 761.408,1110.3 
  780.588,1096.74 799.767,1083.22 818.947,1069.73 838.127,1056.29 857.307,1042.87 876.487,1029.49 895.666,1016.13 914.846,1002.81 934.026,989.516 953.206,976.248 
  972.386,963.006 991.565,949.789 1010.75,936.596 1029.93,923.427 1049.1,910.28 1068.28,897.156 1087.46,884.052 1106.64,870.97 1125.82,857.907 1145,844.864 
  1164.18,831.84 1183.36,818.835 1202.54,805.847 1221.72,792.877 1240.9,779.925 1260.08,766.989 1279.26,754.069 1298.44,741.165 1317.62,728.276 1336.8,715.403 
  1355.98,702.545 1375.16,689.701 1394.34,676.872 1413.52,664.056 1432.7,651.254 1451.88,638.466 1471.06,625.691 1490.24,612.928 1509.42,600.179 1528.6,587.441 
  1547.78,574.716 1566.96,562.003 1586.14,549.302 1605.32,536.612 1624.5,523.934 1643.68,511.266 1662.86,498.61 1682.04,485.965 1701.22,473.33 1720.4,460.706 
  1739.58,448.092 1758.76,435.488 1777.94,422.894 1797.12,410.31 1816.3,397.736 1835.48,385.171 1854.66,372.616 1873.84,360.07 1893.02,347.534 1912.2,335.006 
  1931.38,322.487 1950.56,309.977 1969.74,297.476 1988.92,284.983 2008.09,272.499 2027.27,260.023 2046.45,247.556 2065.63,235.097 2084.81,222.645 2103.99,210.202 
  2123.17,197.766 2142.35,185.339 2161.53,172.918 2180.71,160.506 2199.89,148.101 2219.07,135.703 2238.25,123.313 2257.43,110.93 2276.61,98.5544 2295.79,86.1857 
  
  "/>
<path clip-path="url(#clip310)" d="
M1932.52 300.469 L2285.66 300.469 L2285.66 93.1086 L1932.52 93.1086  Z
  " fill="#ffffff" fill-rule="evenodd" fill-opacity="1"/>
<polyline clip-path="url(#clip310)" style="stroke:#000000; stroke-linecap:butt; stroke-linejoin:round; stroke-width:4; stroke-opacity:1; fill:none" points="
  1932.52,300.469 2285.66,300.469 2285.66,93.1086 1932.52,93.1086 1932.52,300.469 
  "/>
<polyline clip-path="url(#clip310)" style="stroke:#009af9; stroke-linecap:butt; stroke-linejoin:round; stroke-width:4; stroke-opacity:1; fill:none" points="
  1954.88,144.949 2089.06,144.949 
  "/>
<path clip-path="url(#clip310)" d="M2111.42 127.669 L2140.66 127.669 L2140.66 131.604 L2128.39 131.604 L2128.39 162.229 L2123.69 162.229 L2123.69 131.604 L2111.42 131.604 L2111.42 127.669 Z" fill="#000000" fill-rule="evenodd" fill-opacity="1" /><path clip-path="url(#clip310)" d="M2145.54 140.701 L2175.22 140.701 L2175.22 144.59 L2145.54 144.59 L2145.54 140.701 M2145.54 150.145 L2175.22 150.145 L2175.22 154.081 L2145.54 154.081 L2145.54 150.145 Z" fill="#000000" fill-rule="evenodd" fill-opacity="1" /><path clip-path="url(#clip310)" d="M2189.34 158.293 L2205.66 158.293 L2205.66 162.229 L2183.72 162.229 L2183.72 158.293 Q2186.38 155.539 2190.96 150.909 Q2195.57 146.256 2196.75 144.914 Q2198.99 142.391 2199.87 140.655 Q2200.78 138.895 2200.78 137.206 Q2200.78 134.451 2198.83 132.715 Q2196.91 130.979 2193.81 130.979 Q2191.61 130.979 2189.16 131.743 Q2186.72 132.507 2183.95 134.057 L2183.95 129.335 Q2186.77 128.201 2189.22 127.622 Q2191.68 127.044 2193.72 127.044 Q2199.09 127.044 2202.28 129.729 Q2205.47 132.414 2205.47 136.905 Q2205.47 139.034 2204.66 140.956 Q2203.88 142.854 2201.77 145.446 Q2201.19 146.118 2198.09 149.335 Q2194.99 152.53 2189.34 158.293 Z" fill="#000000" fill-rule="evenodd" fill-opacity="1" /><path clip-path="url(#clip310)" d="M2240.94 130.331 L2240.94 135.261 Q2238.58 133.062 2235.89 131.974 Q2233.23 130.886 2230.22 130.886 Q2224.29 130.886 2221.15 134.52 Q2218 138.132 2218 144.983 Q2218 151.812 2221.15 155.446 Q2224.29 159.057 2230.22 159.057 Q2233.23 159.057 2235.89 157.969 Q2238.58 156.881 2240.94 154.682 L2240.94 159.567 Q2238.48 161.233 2235.73 162.067 Q2233 162.9 2229.94 162.9 Q2222.1 162.9 2217.58 158.108 Q2213.07 153.293 2213.07 144.983 Q2213.07 136.65 2217.58 131.858 Q2222.1 127.044 2229.94 127.044 Q2233.04 127.044 2235.78 127.877 Q2238.53 128.687 2240.94 130.331 Z" fill="#000000" fill-rule="evenodd" fill-opacity="1" /><polyline clip-path="url(#clip310)" style="stroke:#e26f46; stroke-linecap:butt; stroke-linejoin:round; stroke-width:4; stroke-opacity:1; fill:none" points="
  1954.88,196.789 2089.06,196.789 
  "/>
<path clip-path="url(#clip310)" d="M2111.42 179.509 L2140.66 179.509 L2140.66 183.444 L2128.39 183.444 L2128.39 214.069 L2123.69 214.069 L2123.69 183.444 L2111.42 183.444 L2111.42 179.509 Z" fill="#000000" fill-rule="evenodd" fill-opacity="1" /><path clip-path="url(#clip310)" d="M2145.54 192.541 L2175.22 192.541 L2175.22 196.43 L2145.54 196.43 L2145.54 192.541 M2145.54 201.985 L2175.22 201.985 L2175.22 205.921 L2145.54 205.921 L2145.54 201.985 Z" fill="#000000" fill-rule="evenodd" fill-opacity="1" /><path clip-path="url(#clip310)" d="M2198.16 183.583 L2186.35 202.032 L2198.16 202.032 L2198.16 183.583 M2196.93 179.509 L2202.81 179.509 L2202.81 202.032 L2207.74 202.032 L2207.74 205.921 L2202.81 205.921 L2202.81 214.069 L2198.16 214.069 L2198.16 205.921 L2182.56 205.921 L2182.56 201.407 L2196.93 179.509 Z" fill="#000000" fill-rule="evenodd" fill-opacity="1" /><path clip-path="url(#clip310)" d="M2240.94 182.171 L2240.94 187.101 Q2238.58 184.902 2235.89 183.814 Q2233.23 182.726 2230.22 182.726 Q2224.29 182.726 2221.15 186.36 Q2218 189.972 2218 196.823 Q2218 203.652 2221.15 207.286 Q2224.29 210.897 2230.22 210.897 Q2233.23 210.897 2235.89 209.809 Q2238.58 208.721 2240.94 206.522 L2240.94 211.407 Q2238.48 213.073 2235.73 213.907 Q2233 214.74 2229.94 214.74 Q2222.1 214.74 2217.58 209.948 Q2213.07 205.133 2213.07 196.823 Q2213.07 188.49 2217.58 183.698 Q2222.1 178.884 2229.94 178.884 Q2233.04 178.884 2235.78 179.717 Q2238.53 180.527 2240.94 182.171 Z" fill="#000000" fill-rule="evenodd" fill-opacity="1" /><polyline clip-path="url(#clip310)" style="stroke:#3da44d; stroke-linecap:butt; stroke-linejoin:round; stroke-width:4; stroke-opacity:1; fill:none" points="
  1954.88,248.629 2089.06,248.629 
  "/>
<path clip-path="url(#clip310)" d="M2111.42 231.349 L2140.66 231.349 L2140.66 235.284 L2128.39 235.284 L2128.39 265.909 L2123.69 265.909 L2123.69 235.284 L2111.42 235.284 L2111.42 231.349 Z" fill="#000000" fill-rule="evenodd" fill-opacity="1" /><path clip-path="url(#clip310)" d="M2145.54 244.381 L2175.22 244.381 L2175.22 248.27 L2145.54 248.27 L2145.54 244.381 M2145.54 253.825 L2175.22 253.825 L2175.22 257.761 L2145.54 257.761 L2145.54 253.825 Z" fill="#000000" fill-rule="evenodd" fill-opacity="1" /><path clip-path="url(#clip310)" d="M2195.89 246.765 Q2192.74 246.765 2190.89 248.918 Q2189.06 251.071 2189.06 254.821 Q2189.06 258.548 2190.89 260.723 Q2192.74 262.876 2195.89 262.876 Q2199.04 262.876 2200.87 260.723 Q2202.72 258.548 2202.72 254.821 Q2202.72 251.071 2200.87 248.918 Q2199.04 246.765 2195.89 246.765 M2205.17 232.113 L2205.17 236.372 Q2203.41 235.538 2201.61 235.099 Q2199.83 234.659 2198.07 234.659 Q2193.44 234.659 2190.98 237.784 Q2188.55 240.909 2188.21 247.228 Q2189.57 245.214 2191.63 244.149 Q2193.69 243.062 2196.17 243.062 Q2201.38 243.062 2204.39 246.233 Q2207.42 249.381 2207.42 254.821 Q2207.42 260.145 2204.27 263.362 Q2201.12 266.58 2195.89 266.58 Q2189.9 266.58 2186.72 261.997 Q2183.55 257.39 2183.55 248.663 Q2183.55 240.469 2187.44 235.608 Q2191.33 230.724 2197.88 230.724 Q2199.64 230.724 2201.42 231.071 Q2203.23 231.418 2205.17 232.113 Z" fill="#000000" fill-rule="evenodd" fill-opacity="1" /><path clip-path="url(#clip310)" d="M2240.94 234.011 L2240.94 238.941 Q2238.58 236.742 2235.89 235.654 Q2233.23 234.566 2230.22 234.566 Q2224.29 234.566 2221.15 238.2 Q2218 241.812 2218 248.663 Q2218 255.492 2221.15 259.126 Q2224.29 262.737 2230.22 262.737 Q2233.23 262.737 2235.89 261.649 Q2238.58 260.561 2240.94 258.362 L2240.94 263.247 Q2238.48 264.913 2235.73 265.747 Q2233 266.58 2229.94 266.58 Q2222.1 266.58 2217.58 261.788 Q2213.07 256.973 2213.07 248.663 Q2213.07 240.33 2217.58 235.538 Q2222.1 230.724 2229.94 230.724 Q2233.04 230.724 2235.78 231.557 Q2238.53 232.367 2240.94 234.011 Z" fill="#000000" fill-rule="evenodd" fill-opacity="1" /></svg>
