<?xml version="1.0" encoding="utf-8"?>
<svg xmlns="http://www.w3.org/2000/svg" xmlns:xlink="http://www.w3.org/1999/xlink" width="600" height="400" viewBox="0 0 2400 1600">
<defs>
  <clipPath id="clip970">
    <rect x="0" y="0" width="2400" height="1600"/>
  </clipPath>
</defs>
<path clip-path="url(#clip970)" d="M0 1600 L2400 1600 L2400 0 L0 0  Z" fill="#ffffff" fill-rule="evenodd" fill-opacity="1"/>
<defs>
  <clipPath id="clip971">
    <rect x="480" y="0" width="1681" height="1600"/>
  </clipPath>
</defs>
<path clip-path="url(#clip970)" d="M370.509 1423.18 L2352.76 1423.18 L2352.76 47.2441 L370.509 47.2441  Z" fill="#ffffff" fill-rule="evenodd" fill-opacity="1"/>
<defs>
  <clipPath id="clip972">
    <rect x="370" y="47" width="1983" height="1377"/>
  </clipPath>
</defs>
<polyline clip-path="url(#clip972)" style="stroke:#000000; stroke-linecap:round; stroke-linejoin:round; stroke-width:2; stroke-opacity:0.1; fill:none" points="426.607,1423.18 426.607,47.2441 "/>
<polyline clip-path="url(#clip972)" style="stroke:#000000; stroke-linecap:round; stroke-linejoin:round; stroke-width:2; stroke-opacity:0.1; fill:none" points="800.616,1423.18 800.616,47.2441 "/>
<polyline clip-path="url(#clip972)" style="stroke:#000000; stroke-linecap:round; stroke-linejoin:round; stroke-width:2; stroke-opacity:0.1; fill:none" points="1174.63,1423.18 1174.63,47.2441 "/>
<polyline clip-path="url(#clip972)" style="stroke:#000000; stroke-linecap:round; stroke-linejoin:round; stroke-width:2; stroke-opacity:0.1; fill:none" points="1548.64,1423.18 1548.64,47.2441 "/>
<polyline clip-path="url(#clip972)" style="stroke:#000000; stroke-linecap:round; stroke-linejoin:round; stroke-width:2; stroke-opacity:0.1; fill:none" points="1922.65,1423.18 1922.65,47.2441 "/>
<polyline clip-path="url(#clip972)" style="stroke:#000000; stroke-linecap:round; stroke-linejoin:round; stroke-width:2; stroke-opacity:0.1; fill:none" points="2296.65,1423.18 2296.65,47.2441 "/>
<polyline clip-path="url(#clip972)" style="stroke:#000000; stroke-linecap:round; stroke-linejoin:round; stroke-width:2; stroke-opacity:0.1; fill:none" points="370.509,1384.24 2352.76,1384.24 "/>
<polyline clip-path="url(#clip972)" style="stroke:#000000; stroke-linecap:round; stroke-linejoin:round; stroke-width:2; stroke-opacity:0.1; fill:none" points="370.509,1074.7 2352.76,1074.7 "/>
<polyline clip-path="url(#clip972)" style="stroke:#000000; stroke-linecap:round; stroke-linejoin:round; stroke-width:2; stroke-opacity:0.1; fill:none" points="370.509,765.167 2352.76,765.167 "/>
<polyline clip-path="url(#clip972)" style="stroke:#000000; stroke-linecap:round; stroke-linejoin:round; stroke-width:2; stroke-opacity:0.1; fill:none" points="370.509,455.632 2352.76,455.632 "/>
<polyline clip-path="url(#clip972)" style="stroke:#000000; stroke-linecap:round; stroke-linejoin:round; stroke-width:2; stroke-opacity:0.1; fill:none" points="370.509,146.096 2352.76,146.096 "/>
<polyline clip-path="url(#clip970)" style="stroke:#000000; stroke-linecap:round; stroke-linejoin:round; stroke-width:4; stroke-opacity:1; fill:none" points="370.509,1423.18 2352.76,1423.18 "/>
<polyline clip-path="url(#clip970)" style="stroke:#000000; stroke-linecap:round; stroke-linejoin:round; stroke-width:4; stroke-opacity:1; fill:none" points="426.607,1423.18 426.607,1404.28 "/>
<polyline clip-path="url(#clip970)" style="stroke:#000000; stroke-linecap:round; stroke-linejoin:round; stroke-width:4; stroke-opacity:1; fill:none" points="800.616,1423.18 800.616,1404.28 "/>
<polyline clip-path="url(#clip970)" style="stroke:#000000; stroke-linecap:round; stroke-linejoin:round; stroke-width:4; stroke-opacity:1; fill:none" points="1174.63,1423.18 1174.63,1404.28 "/>
<polyline clip-path="url(#clip970)" style="stroke:#000000; stroke-linecap:round; stroke-linejoin:round; stroke-width:4; stroke-opacity:1; fill:none" points="1548.64,1423.18 1548.64,1404.28 "/>
<polyline clip-path="url(#clip970)" style="stroke:#000000; stroke-linecap:round; stroke-linejoin:round; stroke-width:4; stroke-opacity:1; fill:none" points="1922.65,1423.18 1922.65,1404.28 "/>
<polyline clip-path="url(#clip970)" style="stroke:#000000; stroke-linecap:round; stroke-linejoin:round; stroke-width:4; stroke-opacity:1; fill:none" points="2296.65,1423.18 2296.65,1404.28 "/>
<path clip-path="url(#clip970)" d="M426.607 1454.1 Q422.996 1454.1 421.167 1457.66 Q419.362 1461.2 419.362 1468.33 Q419.362 1475.44 421.167 1479.01 Q422.996 1482.55 426.607 1482.55 Q430.241 1482.55 432.047 1479.01 Q433.875 1475.44 433.875 1468.33 Q433.875 1461.2 432.047 1457.66 Q430.241 1454.1 426.607 1454.1 M426.607 1450.39 Q432.417 1450.39 435.473 1455 Q438.551 1459.58 438.551 1468.33 Q438.551 1477.06 435.473 1481.67 Q432.417 1486.25 426.607 1486.25 Q420.797 1486.25 417.718 1481.67 Q414.662 1477.06 414.662 1468.33 Q414.662 1459.58 417.718 1455 Q420.797 1450.39 426.607 1450.39 Z" fill="#000000" fill-rule="nonzero" fill-opacity="1" /><path clip-path="url(#clip970)" d="M790.998 1481.64 L798.637 1481.64 L798.637 1455.28 L790.327 1456.95 L790.327 1452.69 L798.591 1451.02 L803.267 1451.02 L803.267 1481.64 L810.906 1481.64 L810.906 1485.58 L790.998 1485.58 L790.998 1481.64 Z" fill="#000000" fill-rule="nonzero" fill-opacity="1" /><path clip-path="url(#clip970)" d="M1169.28 1481.64 L1185.6 1481.64 L1185.6 1485.58 L1163.65 1485.58 L1163.65 1481.64 Q1166.32 1478.89 1170.9 1474.26 Q1175.51 1469.61 1176.69 1468.27 Q1178.93 1465.74 1179.81 1464.01 Q1180.71 1462.25 1180.71 1460.56 Q1180.71 1457.8 1178.77 1456.07 Q1176.85 1454.33 1173.75 1454.33 Q1171.55 1454.33 1169.09 1455.09 Q1166.66 1455.86 1163.89 1457.41 L1163.89 1452.69 Q1166.71 1451.55 1169.16 1450.97 Q1171.62 1450.39 1173.65 1450.39 Q1179.02 1450.39 1182.22 1453.08 Q1185.41 1455.77 1185.41 1460.26 Q1185.41 1462.39 1184.6 1464.31 Q1183.82 1466.2 1181.71 1468.8 Q1181.13 1469.47 1178.03 1472.69 Q1174.93 1475.88 1169.28 1481.64 Z" fill="#000000" fill-rule="nonzero" fill-opacity="1" /><path clip-path="url(#clip970)" d="M1552.88 1466.95 Q1556.24 1467.66 1558.11 1469.93 Q1560.01 1472.2 1560.01 1475.53 Q1560.01 1480.65 1556.49 1483.45 Q1552.98 1486.25 1546.49 1486.25 Q1544.32 1486.25 1542 1485.81 Q1539.71 1485.39 1537.26 1484.54 L1537.26 1480.02 Q1539.2 1481.16 1541.52 1481.74 Q1543.83 1482.32 1546.36 1482.32 Q1550.75 1482.32 1553.05 1480.58 Q1555.36 1478.84 1555.36 1475.53 Q1555.36 1472.48 1553.21 1470.77 Q1551.08 1469.03 1547.26 1469.03 L1543.23 1469.03 L1543.23 1465.19 L1547.44 1465.19 Q1550.89 1465.19 1552.72 1463.82 Q1554.55 1462.43 1554.55 1459.84 Q1554.55 1457.18 1552.65 1455.77 Q1550.78 1454.33 1547.26 1454.33 Q1545.34 1454.33 1543.14 1454.75 Q1540.94 1455.16 1538.3 1456.04 L1538.3 1451.88 Q1540.96 1451.14 1543.28 1450.77 Q1545.61 1450.39 1547.67 1450.39 Q1553 1450.39 1556.1 1452.83 Q1559.2 1455.23 1559.2 1459.35 Q1559.2 1462.22 1557.56 1464.21 Q1555.92 1466.18 1552.88 1466.95 Z" fill="#000000" fill-rule="nonzero" fill-opacity="1" /><path clip-path="url(#clip970)" d="M1925.65 1455.09 L1913.85 1473.54 L1925.65 1473.54 L1925.65 1455.09 M1924.43 1451.02 L1930.31 1451.02 L1930.31 1473.54 L1935.24 1473.54 L1935.24 1477.43 L1930.31 1477.43 L1930.31 1485.58 L1925.65 1485.58 L1925.65 1477.43 L1910.05 1477.43 L1910.05 1472.92 L1924.43 1451.02 Z" fill="#000000" fill-rule="nonzero" fill-opacity="1" /><path clip-path="url(#clip970)" d="M2286.93 1451.02 L2305.29 1451.02 L2305.29 1454.96 L2291.21 1454.96 L2291.21 1463.43 Q2292.23 1463.08 2293.25 1462.92 Q2294.27 1462.73 2295.29 1462.73 Q2301.08 1462.73 2304.46 1465.9 Q2307.84 1469.08 2307.84 1474.49 Q2307.84 1480.07 2304.36 1483.17 Q2300.89 1486.25 2294.57 1486.25 Q2292.4 1486.25 2290.13 1485.88 Q2287.88 1485.51 2285.47 1484.77 L2285.47 1480.07 Q2287.56 1481.2 2289.78 1481.76 Q2292 1482.32 2294.48 1482.32 Q2298.48 1482.32 2300.82 1480.21 Q2303.16 1478.1 2303.16 1474.49 Q2303.16 1470.88 2300.82 1468.77 Q2298.48 1466.67 2294.48 1466.67 Q2292.6 1466.67 2290.73 1467.08 Q2288.88 1467.5 2286.93 1468.38 L2286.93 1451.02 Z" fill="#000000" fill-rule="nonzero" fill-opacity="1" /><path clip-path="url(#clip970)" d="M1051.4 1550.25 Q1051.4 1556.71 1054.04 1560.4 Q1056.72 1564.07 1061.36 1564.07 Q1066.01 1564.07 1068.68 1560.4 Q1071.36 1556.71 1071.36 1550.25 Q1071.36 1543.79 1068.68 1540.13 Q1066.01 1536.44 1061.36 1536.44 Q1056.72 1536.44 1054.04 1540.13 Q1051.4 1543.79 1051.4 1550.25 M1071.36 1562.7 Q1069.51 1565.88 1066.68 1567.44 Q1063.88 1568.97 1059.93 1568.97 Q1053.47 1568.97 1049.39 1563.81 Q1045.35 1558.65 1045.35 1550.25 Q1045.35 1541.85 1049.39 1536.69 Q1053.47 1531.54 1059.93 1531.54 Q1063.88 1531.54 1066.68 1533.1 Q1069.51 1534.62 1071.36 1537.81 L1071.36 1532.4 L1077.21 1532.4 L1077.21 1581.6 L1071.36 1581.6 L1071.36 1562.7 Z" fill="#000000" fill-rule="nonzero" fill-opacity="1" /><path clip-path="url(#clip970)" d="M1116.36 1578.87 L1116.36 1583.42 L1082.5 1583.42 L1082.5 1578.87 L1116.36 1578.87 Z" fill="#000000" fill-rule="nonzero" fill-opacity="1" /><path clip-path="url(#clip970)" d="M1121.87 1518.52 L1127.72 1518.52 L1127.72 1568.04 L1121.87 1568.04 L1121.87 1518.52 Z" fill="#000000" fill-rule="nonzero" fill-opacity="1" /><path clip-path="url(#clip970)" d="M1139.98 1532.4 L1145.84 1532.4 L1145.84 1568.04 L1139.98 1568.04 L1139.98 1532.4 M1139.98 1518.52 L1145.84 1518.52 L1145.84 1525.93 L1139.98 1525.93 L1139.98 1518.52 Z" fill="#000000" fill-rule="nonzero" fill-opacity="1" /><path clip-path="url(#clip970)" d="M1161.59 1550.25 Q1161.59 1556.71 1164.23 1560.4 Q1166.91 1564.07 1171.55 1564.07 Q1176.2 1564.07 1178.87 1560.4 Q1181.55 1556.71 1181.55 1550.25 Q1181.55 1543.79 1178.87 1540.13 Q1176.2 1536.44 1171.55 1536.44 Q1166.91 1536.44 1164.23 1540.13 Q1161.59 1543.79 1161.59 1550.25 M1181.55 1562.7 Q1179.7 1565.88 1176.87 1567.44 Q1174.07 1568.97 1170.12 1568.97 Q1163.66 1568.97 1159.59 1563.81 Q1155.54 1558.65 1155.54 1550.25 Q1155.54 1541.85 1159.59 1536.69 Q1163.66 1531.54 1170.12 1531.54 Q1174.07 1531.54 1176.87 1533.1 Q1179.7 1534.62 1181.55 1537.81 L1181.55 1532.4 L1187.4 1532.4 L1187.4 1581.6 L1181.55 1581.6 L1181.55 1562.7 Z" fill="#000000" fill-rule="nonzero" fill-opacity="1" /><path clip-path="url(#clip970)" d="M1234 1536.5 Q1229.29 1536.5 1226.55 1540.19 Q1223.82 1543.85 1223.82 1550.25 Q1223.82 1556.65 1226.52 1560.34 Q1229.26 1564 1234 1564 Q1238.68 1564 1241.42 1560.31 Q1244.15 1556.62 1244.15 1550.25 Q1244.15 1543.92 1241.42 1540.23 Q1238.68 1536.5 1234 1536.5 M1234 1531.54 Q1241.64 1531.54 1246 1536.5 Q1250.36 1541.47 1250.36 1550.25 Q1250.36 1559 1246 1564 Q1241.64 1568.97 1234 1568.97 Q1226.33 1568.97 1221.97 1564 Q1217.64 1559 1217.64 1550.25 Q1217.64 1541.47 1221.97 1536.5 Q1226.33 1531.54 1234 1531.54 Z" fill="#000000" fill-rule="nonzero" fill-opacity="1" /><path clip-path="url(#clip970)" d="M1280.72 1537.87 Q1279.74 1537.3 1278.56 1537.04 Q1277.41 1536.76 1276.01 1536.76 Q1271.05 1536.76 1268.37 1540 Q1265.73 1543.22 1265.73 1549.27 L1265.73 1568.04 L1259.84 1568.04 L1259.84 1532.4 L1265.73 1532.4 L1265.73 1537.93 Q1267.58 1534.69 1270.54 1533.13 Q1273.5 1531.54 1277.73 1531.54 Q1278.34 1531.54 1279.07 1531.63 Q1279.8 1531.7 1280.69 1531.85 L1280.72 1537.87 Z" fill="#000000" fill-rule="nonzero" fill-opacity="1" /><path clip-path="url(#clip970)" d="M1311.09 1550.25 Q1311.09 1556.71 1313.73 1560.4 Q1316.4 1564.07 1321.05 1564.07 Q1325.7 1564.07 1328.37 1560.4 Q1331.05 1556.71 1331.05 1550.25 Q1331.05 1543.79 1328.37 1540.13 Q1325.7 1536.44 1321.05 1536.44 Q1316.4 1536.44 1313.73 1540.13 Q1311.09 1543.79 1311.09 1550.25 M1331.05 1562.7 Q1329.2 1565.88 1326.37 1567.44 Q1323.57 1568.97 1319.62 1568.97 Q1313.16 1568.97 1309.08 1563.81 Q1305.04 1558.65 1305.04 1550.25 Q1305.04 1541.85 1309.08 1536.69 Q1313.16 1531.54 1319.62 1531.54 Q1323.57 1531.54 1326.37 1533.1 Q1329.2 1534.62 1331.05 1537.81 L1331.05 1532.4 L1336.9 1532.4 L1336.9 1581.6 L1331.05 1581.6 L1331.05 1562.7 Z" fill="#000000" fill-rule="nonzero" fill-opacity="1" /><path clip-path="url(#clip970)" d="M1376.05 1578.87 L1376.05 1583.42 L1342.19 1583.42 L1342.19 1578.87 L1376.05 1578.87 Z" fill="#000000" fill-rule="nonzero" fill-opacity="1" /><path clip-path="url(#clip970)" d="M1381.56 1532.4 L1387.41 1532.4 L1387.41 1568.04 L1381.56 1568.04 L1381.56 1532.4 M1381.56 1518.52 L1387.41 1518.52 L1387.41 1525.93 L1381.56 1525.93 L1381.56 1518.52 Z" fill="#000000" fill-rule="nonzero" fill-opacity="1" /><path clip-path="url(#clip970)" d="M1425.32 1533.76 L1425.32 1539.24 Q1422.84 1537.87 1420.32 1537.2 Q1417.84 1536.5 1415.3 1536.5 Q1409.6 1536.5 1406.45 1540.13 Q1403.3 1543.73 1403.3 1550.25 Q1403.3 1556.78 1406.45 1560.4 Q1409.6 1564 1415.3 1564 Q1417.84 1564 1420.32 1563.33 Q1422.84 1562.63 1425.32 1561.26 L1425.32 1566.68 Q1422.87 1567.82 1420.23 1568.39 Q1417.62 1568.97 1414.66 1568.97 Q1406.61 1568.97 1401.86 1563.91 Q1397.12 1558.85 1397.12 1550.25 Q1397.12 1541.53 1401.9 1536.53 Q1406.7 1531.54 1415.04 1531.54 Q1417.75 1531.54 1420.32 1532.11 Q1422.9 1532.65 1425.32 1533.76 Z" fill="#000000" fill-rule="nonzero" fill-opacity="1" /><path clip-path="url(#clip970)" d="M1466 1548.76 L1466 1551.62 L1439.07 1551.62 Q1439.45 1557.67 1442.7 1560.85 Q1445.98 1564 1451.8 1564 Q1455.18 1564 1458.33 1563.17 Q1461.51 1562.35 1464.63 1560.69 L1464.63 1566.23 Q1461.48 1567.57 1458.17 1568.27 Q1454.86 1568.97 1451.45 1568.97 Q1442.92 1568.97 1437.93 1564 Q1432.96 1559.04 1432.96 1550.57 Q1432.96 1541.82 1437.67 1536.69 Q1442.41 1531.54 1450.43 1531.54 Q1457.63 1531.54 1461.8 1536.18 Q1466 1540.8 1466 1548.76 M1460.14 1547.04 Q1460.08 1542.23 1457.44 1539.37 Q1454.83 1536.5 1450.5 1536.5 Q1445.6 1536.5 1442.64 1539.27 Q1439.71 1542.04 1439.26 1547.07 L1460.14 1547.04 Z" fill="#000000" fill-rule="nonzero" fill-opacity="1" /><path clip-path="url(#clip970)" d="M1495.79 1518.52 L1509.29 1518.52 L1509.29 1523.07 L1501.65 1523.07 L1501.65 1572.09 L1509.29 1572.09 L1509.29 1576.64 L1495.79 1576.64 L1495.79 1518.52 Z" fill="#000000" fill-rule="nonzero" fill-opacity="1" /><path clip-path="url(#clip970)" d="M1545.22 1549.81 Q1545.22 1543.44 1542.58 1539.94 Q1539.97 1536.44 1535.23 1536.44 Q1530.51 1536.44 1527.87 1539.94 Q1525.26 1543.44 1525.26 1549.81 Q1525.26 1556.14 1527.87 1559.64 Q1530.51 1563.14 1535.23 1563.14 Q1539.97 1563.14 1542.58 1559.64 Q1545.22 1556.14 1545.22 1549.81 M1551.08 1563.62 Q1551.08 1572.72 1547.03 1577.15 Q1542.99 1581.6 1534.65 1581.6 Q1531.57 1581.6 1528.83 1581.13 Q1526.09 1580.68 1523.51 1579.72 L1523.51 1574.03 Q1526.09 1575.43 1528.61 1576.1 Q1531.12 1576.76 1533.73 1576.76 Q1539.49 1576.76 1542.35 1573.74 Q1545.22 1570.75 1545.22 1564.67 L1545.22 1561.77 Q1543.41 1564.92 1540.57 1566.48 Q1537.74 1568.04 1533.79 1568.04 Q1527.24 1568.04 1523.23 1563.05 Q1519.22 1558.05 1519.22 1549.81 Q1519.22 1541.53 1523.23 1536.53 Q1527.24 1531.54 1533.79 1531.54 Q1537.74 1531.54 1540.57 1533.1 Q1543.41 1534.66 1545.22 1537.81 L1545.22 1532.4 L1551.08 1532.4 L1551.08 1563.62 Z" fill="#000000" fill-rule="nonzero" fill-opacity="1" /><path clip-path="url(#clip970)" d="M1573.55 1520.52 L1578.96 1520.52 L1562.41 1574.09 L1557 1574.09 L1573.55 1520.52 Z" fill="#000000" fill-rule="nonzero" fill-opacity="1" /><path clip-path="url(#clip970)" d="M1584.88 1518.52 L1590.77 1518.52 L1590.77 1547.77 L1608.24 1532.4 L1615.72 1532.4 L1596.81 1549.07 L1616.52 1568.04 L1608.88 1568.04 L1590.77 1550.63 L1590.77 1568.04 L1584.88 1568.04 L1584.88 1518.52 Z" fill="#000000" fill-rule="nonzero" fill-opacity="1" /><path clip-path="url(#clip970)" d="M1646.31 1549.81 Q1646.31 1543.44 1643.67 1539.94 Q1641.06 1536.44 1636.31 1536.44 Q1631.6 1536.44 1628.96 1539.94 Q1626.35 1543.44 1626.35 1549.81 Q1626.35 1556.14 1628.96 1559.64 Q1631.6 1563.14 1636.31 1563.14 Q1641.06 1563.14 1643.67 1559.64 Q1646.31 1556.14 1646.31 1549.81 M1652.16 1563.62 Q1652.16 1572.72 1648.12 1577.15 Q1644.08 1581.6 1635.74 1581.6 Q1632.65 1581.6 1629.92 1581.13 Q1627.18 1580.68 1624.6 1579.72 L1624.6 1574.03 Q1627.18 1575.43 1629.69 1576.1 Q1632.21 1576.76 1634.82 1576.76 Q1640.58 1576.76 1643.44 1573.74 Q1646.31 1570.75 1646.31 1564.67 L1646.31 1561.77 Q1644.49 1564.92 1641.66 1566.48 Q1638.83 1568.04 1634.88 1568.04 Q1628.32 1568.04 1624.31 1563.05 Q1620.3 1558.05 1620.3 1549.81 Q1620.3 1541.53 1624.31 1536.53 Q1628.32 1531.54 1634.88 1531.54 Q1638.83 1531.54 1641.66 1533.1 Q1644.49 1534.66 1646.31 1537.81 L1646.31 1532.4 L1652.16 1532.4 L1652.16 1563.62 Z" fill="#000000" fill-rule="nonzero" fill-opacity="1" /><path clip-path="url(#clip970)" d="M1677.91 1518.52 L1677.91 1576.64 L1664.42 1576.64 L1664.42 1572.09 L1672.02 1572.09 L1672.02 1523.07 L1664.42 1523.07 L1664.42 1518.52 L1677.91 1518.52 Z" fill="#000000" fill-rule="nonzero" fill-opacity="1" /><polyline clip-path="url(#clip970)" style="stroke:#000000; stroke-linecap:round; stroke-linejoin:round; stroke-width:4; stroke-opacity:1; fill:none" points="370.509,1423.18 370.509,47.2441 "/>
<polyline clip-path="url(#clip970)" style="stroke:#000000; stroke-linecap:round; stroke-linejoin:round; stroke-width:4; stroke-opacity:1; fill:none" points="370.509,1384.24 389.407,1384.24 "/>
<polyline clip-path="url(#clip970)" style="stroke:#000000; stroke-linecap:round; stroke-linejoin:round; stroke-width:4; stroke-opacity:1; fill:none" points="370.509,1074.7 389.407,1074.7 "/>
<polyline clip-path="url(#clip970)" style="stroke:#000000; stroke-linecap:round; stroke-linejoin:round; stroke-width:4; stroke-opacity:1; fill:none" points="370.509,765.167 389.407,765.167 "/>
<polyline clip-path="url(#clip970)" style="stroke:#000000; stroke-linecap:round; stroke-linejoin:round; stroke-width:4; stroke-opacity:1; fill:none" points="370.509,455.632 389.407,455.632 "/>
<polyline clip-path="url(#clip970)" style="stroke:#000000; stroke-linecap:round; stroke-linejoin:round; stroke-width:4; stroke-opacity:1; fill:none" points="370.509,146.096 389.407,146.096 "/>
<path clip-path="url(#clip970)" d="M322.565 1370.04 Q318.954 1370.04 317.125 1373.6 Q315.32 1377.14 315.32 1384.27 Q315.32 1391.38 317.125 1394.94 Q318.954 1398.49 322.565 1398.49 Q326.199 1398.49 328.005 1394.94 Q329.833 1391.38 329.833 1384.27 Q329.833 1377.14 328.005 1373.6 Q326.199 1370.04 322.565 1370.04 M322.565 1366.33 Q328.375 1366.33 331.431 1370.94 Q334.509 1375.52 334.509 1384.27 Q334.509 1393 331.431 1397.61 Q328.375 1402.19 322.565 1402.19 Q316.755 1402.19 313.676 1397.61 Q310.621 1393 310.621 1384.27 Q310.621 1375.52 313.676 1370.94 Q316.755 1366.33 322.565 1366.33 Z" fill="#000000" fill-rule="nonzero" fill-opacity="1" /><path clip-path="url(#clip970)" d="M121.043 1094.5 L137.362 1094.5 L137.362 1098.43 L115.418 1098.43 L115.418 1094.5 Q118.08 1091.74 122.663 1087.11 Q127.269 1082.46 128.45 1081.12 Q130.695 1078.59 131.575 1076.86 Q132.478 1075.1 132.478 1073.41 Q132.478 1070.65 130.533 1068.92 Q128.612 1067.18 125.51 1067.18 Q123.311 1067.18 120.857 1067.94 Q118.427 1068.71 115.649 1070.26 L115.649 1065.54 Q118.473 1064.4 120.927 1063.82 Q123.38 1063.25 125.418 1063.25 Q130.788 1063.25 133.982 1065.93 Q137.177 1068.62 137.177 1073.11 Q137.177 1075.24 136.367 1077.16 Q135.579 1079.06 133.473 1081.65 Q132.894 1082.32 129.792 1085.54 Q126.691 1088.73 121.043 1094.5 Z" fill="#000000" fill-rule="nonzero" fill-opacity="1" /><path clip-path="url(#clip970)" d="M147.177 1092.55 L152.061 1092.55 L152.061 1098.43 L147.177 1098.43 L147.177 1092.55 Z" fill="#000000" fill-rule="nonzero" fill-opacity="1" /><path clip-path="url(#clip970)" d="M172.246 1066.95 Q168.635 1066.95 166.806 1070.51 Q165.001 1074.06 165.001 1081.19 Q165.001 1088.29 166.806 1091.86 Q168.635 1095.4 172.246 1095.4 Q175.88 1095.4 177.686 1091.86 Q179.514 1088.29 179.514 1081.19 Q179.514 1074.06 177.686 1070.51 Q175.88 1066.95 172.246 1066.95 M172.246 1063.25 Q178.056 1063.25 181.112 1067.85 Q184.19 1072.44 184.19 1081.19 Q184.19 1089.91 181.112 1094.52 Q178.056 1099.1 172.246 1099.1 Q166.436 1099.1 163.357 1094.52 Q160.302 1089.91 160.302 1081.19 Q160.302 1072.44 163.357 1067.85 Q166.436 1063.25 172.246 1063.25 Z" fill="#000000" fill-rule="nonzero" fill-opacity="1" /><path clip-path="url(#clip970)" d="M220.579 1072.97 L210 1083.59 L220.579 1094.17 L217.824 1096.97 L207.199 1086.35 L196.575 1096.97 L193.843 1094.17 L204.399 1083.59 L193.843 1072.97 L196.575 1070.17 L207.199 1080.79 L217.824 1070.17 L220.579 1072.97 Z" fill="#000000" fill-rule="nonzero" fill-opacity="1" /><path clip-path="url(#clip970)" d="M232.94 1094.5 L240.579 1094.5 L240.579 1068.13 L232.269 1069.8 L232.269 1065.54 L240.533 1063.87 L245.209 1063.87 L245.209 1094.5 L252.847 1094.5 L252.847 1098.43 L232.94 1098.43 L232.94 1094.5 Z" fill="#000000" fill-rule="nonzero" fill-opacity="1" /><path clip-path="url(#clip970)" d="M272.292 1066.95 Q268.681 1066.95 266.852 1070.51 Q265.046 1074.06 265.046 1081.19 Q265.046 1088.29 266.852 1091.86 Q268.681 1095.4 272.292 1095.4 Q275.926 1095.4 277.732 1091.86 Q279.56 1088.29 279.56 1081.19 Q279.56 1074.06 277.732 1070.51 Q275.926 1066.95 272.292 1066.95 M272.292 1063.25 Q278.102 1063.25 281.157 1067.85 Q284.236 1072.44 284.236 1081.19 Q284.236 1089.91 281.157 1094.52 Q278.102 1099.1 272.292 1099.1 Q266.482 1099.1 263.403 1094.52 Q260.347 1089.91 260.347 1081.19 Q260.347 1072.44 263.403 1067.85 Q266.482 1063.25 272.292 1063.25 Z" fill="#000000" fill-rule="nonzero" fill-opacity="1" /><path clip-path="url(#clip970)" d="M284.236 1057.35 L308.348 1057.35 L308.348 1060.54 L284.236 1060.54 L284.236 1057.35 Z" fill="#000000" fill-rule="nonzero" fill-opacity="1" /><path clip-path="url(#clip970)" d="M325.143 1055.47 Q322.585 1055.47 321.081 1057.22 Q319.595 1058.96 319.595 1062.01 Q319.595 1065.04 321.081 1066.81 Q322.585 1068.56 325.143 1068.56 Q327.701 1068.56 329.187 1066.81 Q330.691 1065.04 330.691 1062.01 Q330.691 1058.96 329.187 1057.22 Q327.701 1055.47 325.143 1055.47 M332.685 1043.56 L332.685 1047.02 Q331.256 1046.34 329.789 1045.99 Q328.34 1045.63 326.911 1045.63 Q323.149 1045.63 321.156 1048.17 Q319.181 1050.71 318.899 1055.84 Q320.008 1054.21 321.682 1053.34 Q323.356 1052.46 325.369 1052.46 Q329.6 1052.46 332.045 1055.03 Q334.509 1057.59 334.509 1062.01 Q334.509 1066.34 331.951 1068.95 Q329.394 1071.57 325.143 1071.57 Q320.272 1071.57 317.695 1067.84 Q315.118 1064.1 315.118 1057.01 Q315.118 1050.35 318.278 1046.4 Q321.438 1042.43 326.76 1042.43 Q328.19 1042.43 329.638 1042.71 Q331.105 1043 332.685 1043.56 Z" fill="#000000" fill-rule="nonzero" fill-opacity="1" /><path clip-path="url(#clip970)" d="M129.862 758.409 L118.056 776.858 L129.862 776.858 L129.862 758.409 M128.635 754.335 L134.515 754.335 L134.515 776.858 L139.445 776.858 L139.445 780.747 L134.515 780.747 L134.515 788.895 L129.862 788.895 L129.862 780.747 L114.26 780.747 L114.26 776.233 L128.635 754.335 Z" fill="#000000" fill-rule="nonzero" fill-opacity="1" /><path clip-path="url(#clip970)" d="M147.177 783.015 L152.061 783.015 L152.061 788.895 L147.177 788.895 L147.177 783.015 Z" fill="#000000" fill-rule="nonzero" fill-opacity="1" /><path clip-path="url(#clip970)" d="M172.246 757.414 Q168.635 757.414 166.806 760.978 Q165.001 764.52 165.001 771.65 Q165.001 778.756 166.806 782.321 Q168.635 785.863 172.246 785.863 Q175.88 785.863 177.686 782.321 Q179.514 778.756 179.514 771.65 Q179.514 764.52 177.686 760.978 Q175.88 757.414 172.246 757.414 M172.246 753.71 Q178.056 753.71 181.112 758.316 Q184.19 762.9 184.19 771.65 Q184.19 780.376 181.112 784.983 Q178.056 789.566 172.246 789.566 Q166.436 789.566 163.357 784.983 Q160.302 780.376 160.302 771.65 Q160.302 762.9 163.357 758.316 Q166.436 753.71 172.246 753.71 Z" fill="#000000" fill-rule="nonzero" fill-opacity="1" /><path clip-path="url(#clip970)" d="M220.579 763.432 L210 774.057 L220.579 784.636 L217.824 787.437 L207.199 776.812 L196.575 787.437 L193.843 784.636 L204.399 774.057 L193.843 763.432 L196.575 760.631 L207.199 771.256 L217.824 760.631 L220.579 763.432 Z" fill="#000000" fill-rule="nonzero" fill-opacity="1" /><path clip-path="url(#clip970)" d="M232.94 784.96 L240.579 784.96 L240.579 758.594 L232.269 760.261 L232.269 756.002 L240.533 754.335 L245.209 754.335 L245.209 784.96 L252.847 784.96 L252.847 788.895 L232.94 788.895 L232.94 784.96 Z" fill="#000000" fill-rule="nonzero" fill-opacity="1" /><path clip-path="url(#clip970)" d="M272.292 757.414 Q268.681 757.414 266.852 760.978 Q265.046 764.52 265.046 771.65 Q265.046 778.756 266.852 782.321 Q268.681 785.863 272.292 785.863 Q275.926 785.863 277.732 782.321 Q279.56 778.756 279.56 771.65 Q279.56 764.52 277.732 760.978 Q275.926 757.414 272.292 757.414 M272.292 753.71 Q278.102 753.71 281.157 758.316 Q284.236 762.9 284.236 771.65 Q284.236 780.376 281.157 784.983 Q278.102 789.566 272.292 789.566 Q266.482 789.566 263.403 784.983 Q260.347 780.376 260.347 771.65 Q260.347 762.9 263.403 758.316 Q266.482 753.71 272.292 753.71 Z" fill="#000000" fill-rule="nonzero" fill-opacity="1" /><path clip-path="url(#clip970)" d="M284.236 747.811 L308.348 747.811 L308.348 751.009 L284.236 751.009 L284.236 747.811 Z" fill="#000000" fill-rule="nonzero" fill-opacity="1" /><path clip-path="url(#clip970)" d="M325.143 745.93 Q322.585 745.93 321.081 747.68 Q319.595 749.429 319.595 752.476 Q319.595 755.504 321.081 757.272 Q322.585 759.021 325.143 759.021 Q327.701 759.021 329.187 757.272 Q330.691 755.504 330.691 752.476 Q330.691 749.429 329.187 747.68 Q327.701 745.93 325.143 745.93 M332.685 734.025 L332.685 737.486 Q331.256 736.809 329.789 736.451 Q328.34 736.094 326.911 736.094 Q323.149 736.094 321.156 738.633 Q319.181 741.172 318.899 746.307 Q320.008 744.67 321.682 743.805 Q323.356 742.921 325.369 742.921 Q329.6 742.921 332.045 745.498 Q334.509 748.056 334.509 752.476 Q334.509 756.801 331.951 759.416 Q329.394 762.03 325.143 762.03 Q320.272 762.03 317.695 758.306 Q315.118 754.563 315.118 747.473 Q315.118 740.815 318.278 736.865 Q321.438 732.897 326.76 732.897 Q328.19 732.897 329.638 733.179 Q331.105 733.461 332.685 734.025 Z" fill="#000000" fill-rule="nonzero" fill-opacity="1" /><path clip-path="url(#clip970)" d="M127.593 460.216 Q124.445 460.216 122.593 462.369 Q120.765 464.522 120.765 468.272 Q120.765 471.998 122.593 474.174 Q124.445 476.327 127.593 476.327 Q130.742 476.327 132.57 474.174 Q134.422 471.998 134.422 468.272 Q134.422 464.522 132.57 462.369 Q130.742 460.216 127.593 460.216 M136.876 445.563 L136.876 449.823 Q135.117 448.989 133.311 448.549 Q131.529 448.11 129.769 448.11 Q125.14 448.11 122.686 451.235 Q120.255 454.36 119.908 460.679 Q121.274 458.665 123.334 457.6 Q125.394 456.512 127.871 456.512 Q133.08 456.512 136.089 459.684 Q139.121 462.832 139.121 468.272 Q139.121 473.596 135.973 476.813 Q132.825 480.031 127.593 480.031 Q121.598 480.031 118.427 475.447 Q115.256 470.841 115.256 462.114 Q115.256 453.92 119.144 449.059 Q123.033 444.174 129.584 444.174 Q131.343 444.174 133.126 444.522 Q134.931 444.869 136.876 445.563 Z" fill="#000000" fill-rule="nonzero" fill-opacity="1" /><path clip-path="url(#clip970)" d="M147.177 473.48 L152.061 473.48 L152.061 479.359 L147.177 479.359 L147.177 473.48 Z" fill="#000000" fill-rule="nonzero" fill-opacity="1" /><path clip-path="url(#clip970)" d="M172.246 447.878 Q168.635 447.878 166.806 451.443 Q165.001 454.985 165.001 462.114 Q165.001 469.221 166.806 472.785 Q168.635 476.327 172.246 476.327 Q175.88 476.327 177.686 472.785 Q179.514 469.221 179.514 462.114 Q179.514 454.985 177.686 451.443 Q175.88 447.878 172.246 447.878 M172.246 444.174 Q178.056 444.174 181.112 448.781 Q184.19 453.364 184.19 462.114 Q184.19 470.841 181.112 475.447 Q178.056 480.031 172.246 480.031 Q166.436 480.031 163.357 475.447 Q160.302 470.841 160.302 462.114 Q160.302 453.364 163.357 448.781 Q166.436 444.174 172.246 444.174 Z" fill="#000000" fill-rule="nonzero" fill-opacity="1" /><path clip-path="url(#clip970)" d="M220.579 453.897 L210 464.522 L220.579 475.1 L217.824 477.901 L207.199 467.276 L196.575 477.901 L193.843 475.1 L204.399 464.522 L193.843 453.897 L196.575 451.096 L207.199 461.721 L217.824 451.096 L220.579 453.897 Z" fill="#000000" fill-rule="nonzero" fill-opacity="1" /><path clip-path="url(#clip970)" d="M232.94 475.424 L240.579 475.424 L240.579 449.059 L232.269 450.725 L232.269 446.466 L240.533 444.799 L245.209 444.799 L245.209 475.424 L252.847 475.424 L252.847 479.359 L232.94 479.359 L232.94 475.424 Z" fill="#000000" fill-rule="nonzero" fill-opacity="1" /><path clip-path="url(#clip970)" d="M272.292 447.878 Q268.681 447.878 266.852 451.443 Q265.046 454.985 265.046 462.114 Q265.046 469.221 266.852 472.785 Q268.681 476.327 272.292 476.327 Q275.926 476.327 277.732 472.785 Q279.56 469.221 279.56 462.114 Q279.56 454.985 277.732 451.443 Q275.926 447.878 272.292 447.878 M272.292 444.174 Q278.102 444.174 281.157 448.781 Q284.236 453.364 284.236 462.114 Q284.236 470.841 281.157 475.447 Q278.102 480.031 272.292 480.031 Q266.482 480.031 263.403 475.447 Q260.347 470.841 260.347 462.114 Q260.347 453.364 263.403 448.781 Q266.482 444.174 272.292 444.174 Z" fill="#000000" fill-rule="nonzero" fill-opacity="1" /><path clip-path="url(#clip970)" d="M284.236 438.276 L308.348 438.276 L308.348 441.473 L284.236 441.473 L284.236 438.276 Z" fill="#000000" fill-rule="nonzero" fill-opacity="1" /><path clip-path="url(#clip970)" d="M325.143 436.395 Q322.585 436.395 321.081 438.144 Q319.595 439.893 319.595 442.94 Q319.595 445.968 321.081 447.736 Q322.585 449.485 325.143 449.485 Q327.701 449.485 329.187 447.736 Q330.691 445.968 330.691 442.94 Q330.691 439.893 329.187 438.144 Q327.701 436.395 325.143 436.395 M332.685 424.49 L332.685 427.95 Q331.256 427.273 329.789 426.916 Q328.34 426.559 326.911 426.559 Q323.149 426.559 321.156 429.098 Q319.181 431.637 318.899 436.771 Q320.008 435.135 321.682 434.27 Q323.356 433.386 325.369 433.386 Q329.6 433.386 332.045 435.962 Q334.509 438.52 334.509 442.94 Q334.509 447.266 331.951 449.88 Q329.394 452.494 325.143 452.494 Q320.272 452.494 317.695 448.771 Q315.118 445.028 315.118 437.937 Q315.118 431.279 318.278 427.33 Q321.438 423.361 326.76 423.361 Q328.19 423.361 329.638 423.643 Q331.105 423.925 332.685 424.49 Z" fill="#000000" fill-rule="nonzero" fill-opacity="1" /><path clip-path="url(#clip970)" d="M127.015 153.412 Q123.681 153.412 121.76 155.194 Q119.862 156.977 119.862 160.102 Q119.862 163.227 121.76 165.009 Q123.681 166.792 127.015 166.792 Q130.348 166.792 132.269 165.009 Q134.191 163.204 134.191 160.102 Q134.191 156.977 132.269 155.194 Q130.371 153.412 127.015 153.412 M122.339 151.421 Q119.33 150.681 117.64 148.62 Q115.973 146.56 115.973 143.597 Q115.973 139.454 118.913 137.046 Q121.876 134.639 127.015 134.639 Q132.177 134.639 135.117 137.046 Q138.056 139.454 138.056 143.597 Q138.056 146.56 136.367 148.62 Q134.7 150.681 131.714 151.421 Q135.093 152.208 136.968 154.5 Q138.867 156.792 138.867 160.102 Q138.867 165.125 135.788 167.81 Q132.732 170.495 127.015 170.495 Q121.297 170.495 118.218 167.81 Q115.163 165.125 115.163 160.102 Q115.163 156.792 117.061 154.5 Q118.959 152.208 122.339 151.421 M120.626 144.037 Q120.626 146.722 122.293 148.227 Q123.982 149.731 127.015 149.731 Q130.024 149.731 131.714 148.227 Q133.427 146.722 133.427 144.037 Q133.427 141.352 131.714 139.847 Q130.024 138.343 127.015 138.343 Q123.982 138.343 122.293 139.847 Q120.626 141.352 120.626 144.037 Z" fill="#000000" fill-rule="nonzero" fill-opacity="1" /><path clip-path="url(#clip970)" d="M147.177 163.944 L152.061 163.944 L152.061 169.824 L147.177 169.824 L147.177 163.944 Z" fill="#000000" fill-rule="nonzero" fill-opacity="1" /><path clip-path="url(#clip970)" d="M172.246 138.343 Q168.635 138.343 166.806 141.907 Q165.001 145.449 165.001 152.579 Q165.001 159.685 166.806 163.25 Q168.635 166.792 172.246 166.792 Q175.88 166.792 177.686 163.25 Q179.514 159.685 179.514 152.579 Q179.514 145.449 177.686 141.907 Q175.88 138.343 172.246 138.343 M172.246 134.639 Q178.056 134.639 181.112 139.245 Q184.19 143.829 184.19 152.579 Q184.19 161.305 181.112 165.912 Q178.056 170.495 172.246 170.495 Q166.436 170.495 163.357 165.912 Q160.302 161.305 160.302 152.579 Q160.302 143.829 163.357 139.245 Q166.436 134.639 172.246 134.639 Z" fill="#000000" fill-rule="nonzero" fill-opacity="1" /><path clip-path="url(#clip970)" d="M220.579 144.361 L210 154.986 L220.579 165.565 L217.824 168.366 L207.199 157.741 L196.575 168.366 L193.843 165.565 L204.399 154.986 L193.843 144.361 L196.575 141.56 L207.199 152.185 L217.824 141.56 L220.579 144.361 Z" fill="#000000" fill-rule="nonzero" fill-opacity="1" /><path clip-path="url(#clip970)" d="M232.94 165.889 L240.579 165.889 L240.579 139.523 L232.269 141.19 L232.269 136.931 L240.533 135.264 L245.209 135.264 L245.209 165.889 L252.847 165.889 L252.847 169.824 L232.94 169.824 L232.94 165.889 Z" fill="#000000" fill-rule="nonzero" fill-opacity="1" /><path clip-path="url(#clip970)" d="M272.292 138.343 Q268.681 138.343 266.852 141.907 Q265.046 145.449 265.046 152.579 Q265.046 159.685 266.852 163.25 Q268.681 166.792 272.292 166.792 Q275.926 166.792 277.732 163.25 Q279.56 159.685 279.56 152.579 Q279.56 145.449 277.732 141.907 Q275.926 138.343 272.292 138.343 M272.292 134.639 Q278.102 134.639 281.157 139.245 Q284.236 143.829 284.236 152.579 Q284.236 161.305 281.157 165.912 Q278.102 170.495 272.292 170.495 Q266.482 170.495 263.403 165.912 Q260.347 161.305 260.347 152.579 Q260.347 143.829 263.403 139.245 Q266.482 134.639 272.292 134.639 Z" fill="#000000" fill-rule="nonzero" fill-opacity="1" /><path clip-path="url(#clip970)" d="M284.236 128.74 L308.348 128.74 L308.348 131.938 L284.236 131.938 L284.236 128.74 Z" fill="#000000" fill-rule="nonzero" fill-opacity="1" /><path clip-path="url(#clip970)" d="M325.143 126.86 Q322.585 126.86 321.081 128.609 Q319.595 130.358 319.595 133.405 Q319.595 136.433 321.081 138.201 Q322.585 139.95 325.143 139.95 Q327.701 139.95 329.187 138.201 Q330.691 136.433 330.691 133.405 Q330.691 130.358 329.187 128.609 Q327.701 126.86 325.143 126.86 M332.685 114.954 L332.685 118.415 Q331.256 117.738 329.789 117.38 Q328.34 117.023 326.911 117.023 Q323.149 117.023 321.156 119.562 Q319.181 122.101 318.899 127.236 Q320.008 125.599 321.682 124.734 Q323.356 123.85 325.369 123.85 Q329.6 123.85 332.045 126.427 Q334.509 128.985 334.509 133.405 Q334.509 137.73 331.951 140.345 Q329.394 142.959 325.143 142.959 Q320.272 142.959 317.695 139.235 Q315.118 135.492 315.118 128.402 Q315.118 121.744 318.278 117.794 Q321.438 113.826 326.76 113.826 Q328.19 113.826 329.638 114.108 Q331.105 114.39 332.685 114.954 Z" fill="#000000" fill-rule="nonzero" fill-opacity="1" /><path clip-path="url(#clip970)" d="M46.0847 1124.32 Q46.0847 1131.41 47.7079 1134.15 Q49.3312 1136.89 53.2461 1136.89 Q56.3653 1136.89 58.2114 1134.85 Q60.0256 1132.78 60.0256 1129.25 Q60.0256 1124.38 56.5881 1121.45 Q53.1188 1118.49 47.3897 1118.49 L46.0847 1118.49 L46.0847 1124.32 M43.6657 1112.63 L64.0042 1112.63 L64.0042 1118.49 L58.5933 1118.49 Q61.8398 1120.5 63.3994 1123.49 Q64.9272 1126.48 64.9272 1130.81 Q64.9272 1136.28 61.8716 1139.53 Q58.7843 1142.74 53.6281 1142.74 Q47.6125 1142.74 44.5569 1138.73 Q41.5014 1134.69 41.5014 1126.7 L41.5014 1118.49 L40.9285 1118.49 Q36.8862 1118.49 34.6901 1121.16 Q32.4621 1123.81 32.4621 1128.61 Q32.4621 1131.67 33.1941 1134.56 Q33.9262 1137.46 35.3903 1140.13 L29.9795 1140.13 Q28.7381 1136.92 28.1334 1133.9 Q27.4968 1130.87 27.4968 1128.01 Q27.4968 1120.27 31.5072 1116.45 Q35.5176 1112.63 43.6657 1112.63 Z" fill="#000000" fill-rule="nonzero" fill-opacity="1" /><path clip-path="url(#clip970)" d="M49.9359 1101.18 L28.3562 1101.18 L28.3562 1095.32 L49.7131 1095.32 Q54.7739 1095.32 57.3202 1093.35 Q59.8346 1091.37 59.8346 1087.43 Q59.8346 1082.68 56.8109 1079.95 Q53.7872 1077.18 48.5673 1077.18 L28.3562 1077.18 L28.3562 1071.32 L64.0042 1071.32 L64.0042 1077.18 L58.5296 1077.18 Q61.7762 1079.31 63.3676 1082.14 Q64.9272 1084.94 64.9272 1088.67 Q64.9272 1094.81 61.1078 1097.99 Q57.2883 1101.18 49.9359 1101.18 M27.4968 1086.44 L27.4968 1086.44 Z" fill="#000000" fill-rule="nonzero" fill-opacity="1" /><path clip-path="url(#clip970)" d="M18.2347 1053.47 L28.3562 1053.47 L28.3562 1041.4 L32.9077 1041.4 L32.9077 1053.47 L52.2594 1053.47 Q56.6199 1053.47 57.8613 1052.29 Q59.1026 1051.08 59.1026 1047.42 L59.1026 1041.4 L64.0042 1041.4 L64.0042 1047.42 Q64.0042 1054.2 61.4897 1056.78 Q58.9434 1059.35 52.2594 1059.35 L32.9077 1059.35 L32.9077 1063.65 L28.3562 1063.65 L28.3562 1059.35 L18.2347 1059.35 L18.2347 1053.47 Z" fill="#000000" fill-rule="nonzero" fill-opacity="1" /><path clip-path="url(#clip970)" d="M32.4621 1019.89 Q32.4621 1024.6 36.1542 1027.33 Q39.8145 1030.07 46.212 1030.07 Q52.6095 1030.07 56.3017 1027.37 Q59.9619 1024.63 59.9619 1019.89 Q59.9619 1015.21 56.2698 1012.47 Q52.5777 1009.73 46.212 1009.73 Q39.8781 1009.73 36.186 1012.47 Q32.4621 1015.21 32.4621 1019.89 M27.4968 1019.89 Q27.4968 1012.25 32.4621 1007.89 Q37.4273 1003.53 46.212 1003.53 Q54.9649 1003.53 59.9619 1007.89 Q64.9272 1012.25 64.9272 1019.89 Q64.9272 1027.56 59.9619 1031.92 Q54.9649 1036.25 46.212 1036.25 Q37.4273 1036.25 32.4621 1031.92 Q27.4968 1027.56 27.4968 1019.89 Z" fill="#000000" fill-rule="nonzero" fill-opacity="1" /><path clip-path="url(#clip970)" d="M29.7248 968.165 L35.1993 968.165 Q33.8307 970.648 33.1623 973.162 Q32.4621 975.645 32.4621 978.191 Q32.4621 983.888 36.0905 987.039 Q39.6872 990.19 46.212 990.19 Q52.7369 990.19 56.3653 987.039 Q59.9619 983.888 59.9619 978.191 Q59.9619 975.645 59.2935 973.162 Q58.5933 970.648 57.2247 968.165 L62.6355 968.165 Q63.7814 970.616 64.3543 973.258 Q64.9272 975.868 64.9272 978.828 Q64.9272 986.88 59.8664 991.623 Q54.8057 996.365 46.212 996.365 Q37.491 996.365 32.4939 991.591 Q27.4968 986.785 27.4968 978.446 Q27.4968 975.74 28.0697 973.162 Q28.6108 970.584 29.7248 968.165 Z" fill="#000000" fill-rule="nonzero" fill-opacity="1" /><path clip-path="url(#clip970)" d="M32.4621 944.166 Q32.4621 948.877 36.1542 951.614 Q39.8145 954.351 46.212 954.351 Q52.6095 954.351 56.3017 951.646 Q59.9619 948.909 59.9619 944.166 Q59.9619 939.487 56.2698 936.75 Q52.5777 934.013 46.212 934.013 Q39.8781 934.013 36.186 936.75 Q32.4621 939.487 32.4621 944.166 M27.4968 944.166 Q27.4968 936.527 32.4621 932.167 Q37.4273 927.806 46.212 927.806 Q54.9649 927.806 59.9619 932.167 Q64.9272 936.527 64.9272 944.166 Q64.9272 951.837 59.9619 956.197 Q54.9649 960.526 46.212 960.526 Q37.4273 960.526 32.4621 956.197 Q27.4968 951.837 27.4968 944.166 Z" fill="#000000" fill-rule="nonzero" fill-opacity="1" /><path clip-path="url(#clip970)" d="M42.4881 888.466 L64.0042 888.466 L64.0042 894.323 L42.679 894.323 Q37.6183 894.323 35.1038 896.296 Q32.5894 898.27 32.5894 902.216 Q32.5894 906.959 35.6131 909.696 Q38.6368 912.433 43.8567 912.433 L64.0042 912.433 L64.0042 918.322 L28.3562 918.322 L28.3562 912.433 L33.8944 912.433 Q30.6797 910.333 29.0883 907.5 Q27.4968 904.635 27.4968 900.911 Q27.4968 894.768 31.3163 891.617 Q35.1038 888.466 42.4881 888.466 Z" fill="#000000" fill-rule="nonzero" fill-opacity="1" /><path clip-path="url(#clip970)" d="M28.3562 880.987 L28.3562 874.78 L58.275 863.64 L28.3562 852.5 L28.3562 846.294 L64.0042 859.662 L64.0042 867.619 L28.3562 880.987 Z" fill="#000000" fill-rule="nonzero" fill-opacity="1" /><path clip-path="url(#clip970)" d="M44.7161 807.717 L47.5806 807.717 L47.5806 834.644 Q53.6281 834.262 56.8109 831.016 Q59.9619 827.738 59.9619 821.913 Q59.9619 818.539 59.1344 815.388 Q58.3069 812.205 56.6518 809.086 L62.1899 809.086 Q63.5267 812.237 64.227 815.547 Q64.9272 818.857 64.9272 822.263 Q64.9272 830.793 59.9619 835.79 Q54.9967 840.755 46.5303 840.755 Q37.7774 840.755 32.6531 836.045 Q27.4968 831.302 27.4968 823.282 Q27.4968 816.088 32.1438 811.919 Q36.7589 807.717 44.7161 807.717 M42.9973 813.574 Q38.1912 813.637 35.3266 816.279 Q32.4621 818.889 32.4621 823.218 Q32.4621 828.119 35.2312 831.08 Q38.0002 834.008 43.0292 834.453 L42.9973 813.574 Z" fill="#000000" fill-rule="nonzero" fill-opacity="1" /><path clip-path="url(#clip970)" d="M33.8307 777.448 Q33.2578 778.435 33.0032 779.613 Q32.7167 780.759 32.7167 782.159 Q32.7167 787.124 35.9632 789.798 Q39.1779 792.44 45.2253 792.44 L64.0042 792.44 L64.0042 798.328 L28.3562 798.328 L28.3562 792.44 L33.8944 792.44 Q30.6479 790.594 29.0883 787.634 Q27.4968 784.674 27.4968 780.44 Q27.4968 779.836 27.5923 779.104 Q27.656 778.371 27.8151 777.48 L33.8307 777.448 Z" fill="#000000" fill-rule="nonzero" fill-opacity="1" /><path clip-path="url(#clip970)" d="M29.4065 748.58 L34.9447 748.58 Q33.6716 751.063 33.035 753.736 Q32.3984 756.41 32.3984 759.274 Q32.3984 763.635 33.7352 765.831 Q35.072 767.995 37.7456 767.995 Q39.7826 767.995 40.9603 766.436 Q42.1061 764.876 43.1565 760.166 L43.6021 758.16 Q44.9389 751.922 47.3897 749.312 Q49.8086 746.67 54.1691 746.67 Q59.1344 746.67 62.0308 750.617 Q64.9272 754.532 64.9272 761.407 Q64.9272 764.271 64.3543 767.391 Q63.8132 770.478 62.6992 773.915 L56.6518 773.915 Q58.3387 770.669 59.198 767.518 Q60.0256 764.367 60.0256 761.28 Q60.0256 757.142 58.6251 754.914 Q57.1929 752.686 54.6147 752.686 Q52.2276 752.686 50.9545 754.309 Q49.6813 755.901 48.5037 761.343 L48.0262 763.38 Q46.8804 768.823 44.5251 771.242 Q42.138 773.661 38.0002 773.661 Q32.9713 773.661 30.2341 770.096 Q27.4968 766.531 27.4968 759.975 Q27.4968 756.728 27.9743 753.863 Q28.4517 750.999 29.4065 748.58 Z" fill="#000000" fill-rule="nonzero" fill-opacity="1" /><path clip-path="url(#clip970)" d="M28.3562 737.344 L28.3562 731.488 L64.0042 731.488 L64.0042 737.344 L28.3562 737.344 M14.479 737.344 L14.479 731.488 L21.895 731.488 L21.895 737.344 L14.479 737.344 Z" fill="#000000" fill-rule="nonzero" fill-opacity="1" /><path clip-path="url(#clip970)" d="M32.4621 705.42 Q32.4621 710.131 36.1542 712.868 Q39.8145 715.606 46.212 715.606 Q52.6095 715.606 56.3017 712.9 Q59.9619 710.163 59.9619 705.42 Q59.9619 700.742 56.2698 698.004 Q52.5777 695.267 46.212 695.267 Q39.8781 695.267 36.186 698.004 Q32.4621 700.742 32.4621 705.42 M27.4968 705.42 Q27.4968 697.782 32.4621 693.421 Q37.4273 689.061 46.212 689.061 Q54.9649 689.061 59.9619 693.421 Q64.9272 697.782 64.9272 705.42 Q64.9272 713.091 59.9619 717.452 Q54.9649 721.78 46.212 721.78 Q37.4273 721.78 32.4621 717.452 Q27.4968 713.091 27.4968 705.42 Z" fill="#000000" fill-rule="nonzero" fill-opacity="1" /><path clip-path="url(#clip970)" d="M42.4881 649.721 L64.0042 649.721 L64.0042 655.577 L42.679 655.577 Q37.6183 655.577 35.1038 657.55 Q32.5894 659.524 32.5894 663.47 Q32.5894 668.213 35.6131 670.95 Q38.6368 673.687 43.8567 673.687 L64.0042 673.687 L64.0042 679.576 L28.3562 679.576 L28.3562 673.687 L33.8944 673.687 Q30.6797 671.587 29.0883 668.754 Q27.4968 665.889 27.4968 662.165 Q27.4968 656.023 31.3163 652.872 Q35.1038 649.721 42.4881 649.721 Z" fill="#000000" fill-rule="nonzero" fill-opacity="1" /><path clip-path="url(#clip970)" d="M33.8307 596.662 Q33.2578 597.649 33.0032 598.827 Q32.7167 599.973 32.7167 601.373 Q32.7167 606.338 35.9632 609.012 Q39.1779 611.654 45.2253 611.654 L64.0042 611.654 L64.0042 617.542 L28.3562 617.542 L28.3562 611.654 L33.8944 611.654 Q30.6479 609.808 29.0883 606.847 Q27.4968 603.887 27.4968 599.654 Q27.4968 599.05 27.5923 598.317 Q27.656 597.585 27.8151 596.694 L33.8307 596.662 Z" fill="#000000" fill-rule="nonzero" fill-opacity="1" /><path clip-path="url(#clip970)" d="M46.0847 574.319 Q46.0847 581.416 47.7079 584.154 Q49.3312 586.891 53.2461 586.891 Q56.3653 586.891 58.2114 584.854 Q60.0256 582.785 60.0256 579.252 Q60.0256 574.382 56.5881 571.454 Q53.1188 568.494 47.3897 568.494 L46.0847 568.494 L46.0847 574.319 M43.6657 562.638 L64.0042 562.638 L64.0042 568.494 L58.5933 568.494 Q61.8398 570.499 63.3994 573.491 Q64.9272 576.483 64.9272 580.812 Q64.9272 586.286 61.8716 589.533 Q58.7843 592.747 53.6281 592.747 Q47.6125 592.747 44.5569 588.737 Q41.5014 584.695 41.5014 576.706 L41.5014 568.494 L40.9285 568.494 Q36.8862 568.494 34.6901 571.168 Q32.4621 573.809 32.4621 578.616 Q32.4621 581.671 33.1941 584.568 Q33.9262 587.464 35.3903 590.138 L29.9795 590.138 Q28.7381 586.923 28.1334 583.899 Q27.4968 580.875 27.4968 578.011 Q27.4968 570.277 31.5072 566.457 Q35.5176 562.638 43.6657 562.638 Z" fill="#000000" fill-rule="nonzero" fill-opacity="1" /><path clip-path="url(#clip970)" d="M18.2347 544.782 L28.3562 544.782 L28.3562 532.719 L32.9077 532.719 L32.9077 544.782 L52.2594 544.782 Q56.6199 544.782 57.8613 543.604 Q59.1026 542.395 59.1026 538.734 L59.1026 532.719 L64.0042 532.719 L64.0042 538.734 Q64.0042 545.514 61.4897 548.092 Q58.9434 550.67 52.2594 550.67 L32.9077 550.67 L32.9077 554.967 L28.3562 554.967 L28.3562 550.67 L18.2347 550.67 L18.2347 544.782 Z" fill="#000000" fill-rule="nonzero" fill-opacity="1" /><path clip-path="url(#clip970)" d="M44.7161 494.525 L47.5806 494.525 L47.5806 521.452 Q53.6281 521.07 56.8109 517.823 Q59.9619 514.545 59.9619 508.72 Q59.9619 505.346 59.1344 502.195 Q58.3069 499.012 56.6518 495.893 L62.1899 495.893 Q63.5267 499.044 64.227 502.354 Q64.9272 505.665 64.9272 509.07 Q64.9272 517.6 59.9619 522.597 Q54.9967 527.563 46.5303 527.563 Q37.7774 527.563 32.6531 522.852 Q27.4968 518.11 27.4968 510.089 Q27.4968 502.896 32.1438 498.726 Q36.7589 494.525 44.7161 494.525 M42.9973 500.381 Q38.1912 500.445 35.3266 503.086 Q32.4621 505.696 32.4621 510.025 Q32.4621 514.927 35.2312 517.887 Q38.0002 520.815 43.0292 521.261 L42.9973 500.381 Z" fill="#000000" fill-rule="nonzero" fill-opacity="1" /><path clip-path="url(#clip970)" d="M14.479 464.733 L14.479 451.238 L19.0304 451.238 L19.0304 458.877 L68.0464 458.877 L68.0464 451.238 L72.5979 451.238 L72.5979 464.733 L14.479 464.733 Z" fill="#000000" fill-rule="nonzero" fill-opacity="1" /><path clip-path="url(#clip970)" d="M58.5933 436.819 L58.5933 426.316 L22.3406 426.316 L24.6323 437.742 L18.7758 437.742 L16.4842 426.38 L16.4842 419.95 L58.5933 419.95 L58.5933 409.447 L64.0042 409.447 L64.0042 436.819 L58.5933 436.819 Z" fill="#000000" fill-rule="nonzero" fill-opacity="1" /><path clip-path="url(#clip970)" d="M16.4842 386.881 L16.4842 381.47 L70.0516 398.02 L70.0516 403.431 L16.4842 386.881 Z" fill="#000000" fill-rule="nonzero" fill-opacity="1" /><path clip-path="url(#clip970)" d="M29.4065 352.601 L34.9447 352.601 Q33.6716 355.084 33.035 357.757 Q32.3984 360.431 32.3984 363.296 Q32.3984 367.656 33.7352 369.852 Q35.072 372.017 37.7456 372.017 Q39.7826 372.017 40.9603 370.457 Q42.1061 368.897 43.1565 364.187 L43.6021 362.182 Q44.9389 355.943 47.3897 353.333 Q49.8086 350.691 54.1691 350.691 Q59.1344 350.691 62.0308 354.638 Q64.9272 358.553 64.9272 365.428 Q64.9272 368.293 64.3543 371.412 Q63.8132 374.499 62.6992 377.937 L56.6518 377.937 Q58.3387 374.69 59.198 371.539 Q60.0256 368.388 60.0256 365.301 Q60.0256 361.163 58.6251 358.935 Q57.1929 356.707 54.6147 356.707 Q52.2276 356.707 50.9545 358.33 Q49.6813 359.922 48.5037 365.364 L48.0262 367.401 Q46.8804 372.844 44.5251 375.263 Q42.138 377.682 38.0002 377.682 Q32.9713 377.682 30.2341 374.117 Q27.4968 370.552 27.4968 363.996 Q27.4968 360.749 27.9743 357.885 Q28.4517 355.02 29.4065 352.601 Z" fill="#000000" fill-rule="nonzero" fill-opacity="1" /><path clip-path="url(#clip970)" d="M14.479 327.679 L72.5979 327.679 L72.5979 341.175 L68.0464 341.175 L68.0464 333.568 L19.0304 333.568 L19.0304 341.175 L14.479 341.175 L14.479 327.679 Z" fill="#000000" fill-rule="nonzero" fill-opacity="1" /><polyline clip-path="url(#clip972)" style="stroke:#009af9; stroke-linecap:round; stroke-linejoin:round; stroke-width:12; stroke-opacity:1; fill:none" points="426.611,1384.24 445.5,1384.24 464.389,1384.24 483.279,1384.24 502.168,1384.24 521.057,1384.24 539.947,1384.24 558.836,1384.24 577.725,1384.24 596.615,1384.24 615.504,1383.46 634.393,1375.64 653.283,1367.82 672.172,1360.01 691.061,1352.19 709.951,1344.37 728.84,1336.56 747.729,1328.74 766.619,1320.92 785.508,1313.11 804.397,1305.29 823.287,1297.47 842.176,1289.66 861.065,1281.84 879.955,1274.02 898.844,1266.21 917.733,1258.39 936.623,1250.57 955.512,1242.76 974.401,1234.94 993.291,1227.12 1012.18,1219.31 1031.07,1211.49 1049.96,1203.67 1068.85,1195.86 1087.74,1188.04 1106.63,1180.23 1125.52,1172.41 1144.41,1164.59 1163.29,1156.78 1182.18,1148.96 1201.07,1141.14 1219.96,1133.33 1238.85,1125.51 1257.74,1117.69 1276.63,1109.88 1295.52,1102.06 1314.41,1094.24 1333.3,1086.43 1352.19,1078.61 1371.08,1070.79 1389.97,1062.98 1408.86,1055.16 1427.75,1047.34 1446.63,1039.53 1465.52,1031.71 1484.41,1023.89 1503.3,1016.08 1522.19,1008.26 1541.08,1000.44 1559.97,992.628 1578.86,984.812 1597.75,976.995 1616.64,969.179 1635.53,961.362 1654.42,953.546 1673.31,945.729 1692.2,937.913 1711.09,930.096 1729.97,922.28 1748.86,914.463 1767.75,906.646 1786.64,898.83 1805.53,891.013 1824.42,883.197 1843.31,875.38 1862.2,867.564 1881.09,859.747 1899.98,851.931 1918.87,844.114 1937.76,836.298 1956.65,828.481 1975.54,820.665 1994.43,812.848 2013.31,805.031 2032.2,797.215 2051.09,789.398 2069.98,781.582 2088.87,773.765 2107.76,765.949 2126.65,758.132 2145.54,750.316 2164.43,742.499 2183.32,734.683 2202.21,726.866 2221.1,719.05 2239.99,711.233 2258.88,703.417 2277.77,695.6 2296.65,687.783 "/>
<polyline clip-path="url(#clip972)" style="stroke:#e26f46; stroke-linecap:round; stroke-linejoin:round; stroke-width:12; stroke-opacity:1; fill:none" points="426.611,1383.94 445.5,1260.38 464.389,1207.58 483.279,1167.42 502.168,1133.89 521.057,1104.62 539.947,1078.42 558.836,1054.56 577.725,1032.57 596.615,1012.12 615.504,992.979 634.393,974.956 653.283,957.913 672.172,941.736 691.061,926.335 709.951,911.633 728.84,897.566 747.729,884.081 766.619,871.131 785.508,858.676 804.397,846.682 823.287,835.117 842.176,823.955 861.065,813.17 879.955,802.742 898.844,792.651 917.733,782.879 936.623,773.411 955.512,764.232 974.401,755.328 993.291,746.688 1012.18,738.299 1031.07,730.153 1049.96,722.239 1068.85,714.548 1087.74,707.072 1106.63,699.804 1125.52,692.736 1144.41,685.861 1163.29,679.173 1182.18,672.667 1201.07,666.337 1219.96,660.177 1238.85,654.182 1257.74,648.349 1276.63,642.672 1295.52,637.147 1314.41,631.77 1333.3,626.538 1352.19,621.447 1371.08,616.494 1389.97,611.675 1408.86,606.987 1427.75,602.427 1446.63,597.993 1465.52,593.681 1484.41,589.49 1503.3,585.416 1522.19,581.457 1541.08,577.611 1559.97,573.877 1578.86,570.25 1597.75,566.731 1616.64,563.316 1635.53,560.004 1654.42,556.793 1673.31,553.681 1692.2,550.667 1711.09,547.749 1729.97,544.925 1748.86,542.194 1767.75,539.555 1786.64,537.005 1805.53,534.544 1824.42,532.171 1843.31,529.883 1862.2,527.68 1881.09,525.561 1899.98,523.524 1918.87,521.568 1937.76,519.693 1956.65,517.896 1975.54,516.177 1994.43,514.536 2013.31,512.97 2032.2,511.48 2051.09,510.063 2069.98,508.72 2088.87,507.449 2107.76,506.249 2126.65,505.121 2145.54,504.061 2164.43,503.071 2183.32,502.149 2202.21,501.295 2221.1,500.507 2239.99,499.785 2258.88,499.129 2277.77,498.537 2296.65,498.009 "/>
<polyline clip-path="url(#clip972)" style="stroke:#3da44d; stroke-linecap:round; stroke-linejoin:round; stroke-width:12; stroke-opacity:1; fill:none" points="426.611,1383.88 445.5,1233.69 464.389,1169.47 483.279,1120.61 502.168,1079.78 521.057,1044.13 539.947,1012.19 558.836,983.096 577.725,956.264 596.615,931.3 615.504,907.913 634.393,885.882 653.283,865.036 672.172,845.238 691.061,826.376 709.951,808.359 728.84,791.108 747.729,774.56 766.619,758.657 785.508,743.352 804.397,728.601 823.287,714.367 842.176,700.619 861.065,687.326 879.955,674.461 898.844,662.003 917.733,649.928 936.623,638.218 955.512,626.856 974.401,615.825 993.291,605.11 1012.18,594.698 1031.07,584.576 1049.96,574.733 1068.85,565.158 1087.74,555.841 1106.63,546.773 1125.52,537.944 1144.41,529.348 1163.29,520.976 1182.18,512.821 1201.07,504.876 1219.96,497.136 1238.85,489.594 1257.74,482.244 1276.63,475.081 1295.52,468.101 1314.41,461.297 1333.3,454.667 1352.19,448.205 1371.08,441.907 1389.97,435.77 1408.86,429.789 1427.75,423.962 1446.63,418.284 1465.52,412.753 1484.41,407.365 1503.3,402.117 1522.19,397.007 1541.08,392.031 1559.97,387.188 1578.86,382.474 1597.75,377.887 1616.64,373.424 1635.53,369.085 1654.42,364.865 1673.31,360.764 1692.2,356.779 1711.09,352.908 1729.97,349.149 1748.86,345.501 1767.75,341.962 1786.64,338.529 1805.53,335.202 1824.42,331.979 1843.31,328.858 1862.2,325.837 1881.09,322.916 1899.98,320.093 1918.87,317.366 1937.76,314.735 1956.65,312.197 1975.54,309.752 1994.43,307.398 2013.31,305.134 2032.2,302.959 2051.09,300.873 2069.98,298.873 2088.87,296.959 2107.76,295.129 2126.65,293.384 2145.54,291.721 2164.43,290.139 2183.32,288.639 2202.21,287.218 2221.1,285.877 2239.99,284.614 2258.88,283.428 2277.77,282.318 2296.65,281.285 "/>
<polyline clip-path="url(#clip972)" style="stroke:#c271d2; stroke-linecap:round; stroke-linejoin:round; stroke-width:12; stroke-opacity:1; fill:none" points="426.611,1383.82 445.5,1209.59 464.389,1135.06 483.279,1078.34 502.168,1030.93 521.057,989.516 539.947,952.405 558.836,918.58 577.725,887.379 596.615,858.339 615.504,831.124 634.393,805.477 653.283,781.2 672.172,758.135 691.061,736.152 709.951,715.144 728.84,695.023 747.729,675.712 766.619,657.147 785.508,639.271 804.397,622.036 823.287,605.397 842.176,589.318 861.065,573.763 879.955,558.704 898.844,544.111 917.733,529.962 936.623,516.233 955.512,502.904 974.401,489.957 993.291,477.374 1012.18,465.139 1031.07,453.239 1049.96,441.659 1068.85,430.388 1087.74,419.414 1106.63,408.726 1125.52,398.314 1144.41,388.168 1163.29,378.28 1182.18,368.642 1201.07,359.246 1219.96,350.084 1238.85,341.15 1257.74,332.437 1276.63,323.939 1295.52,315.65 1314.41,307.565 1333.3,299.678 1352.19,291.984 1371.08,284.479 1389.97,277.158 1408.86,270.017 1427.75,263.051 1446.63,256.257 1465.52,249.631 1484.41,243.17 1503.3,236.869 1522.19,230.725 1541.08,224.736 1559.97,218.898 1578.86,213.209 1597.75,207.665 1616.64,202.265 1635.53,197.004 1654.42,191.881 1673.31,186.894 1692.2,182.039 1711.09,177.315 1729.97,172.72 1748.86,168.251 1767.75,163.906 1786.64,159.684 1805.53,155.583 1824.42,151.6 1843.31,147.734 1862.2,143.983 1881.09,140.346 1899.98,136.821 1918.87,133.406 1937.76,130.099 1956.65,126.9 1975.54,123.807 1994.43,120.818 2013.31,117.933 2032.2,115.148 2051.09,112.465 2069.98,109.88 2088.87,107.394 2107.76,105.004 2126.65,102.71 2145.54,100.51 2164.43,98.4037 2183.32,96.3896 2202.21,94.4667 2221.1,92.6341 2239.99,90.8906 2258.88,89.2353 2277.77,87.6673 2296.65,86.1857 "/>
<path clip-path="url(#clip970)" d="M436.584 352.309 L951.312 352.309 L951.312 93.1086 L436.584 93.1086  Z" fill="#ffffff" fill-rule="evenodd" fill-opacity="1"/>
<polyline clip-path="url(#clip970)" style="stroke:#000000; stroke-linecap:round; stroke-linejoin:round; stroke-width:4; stroke-opacity:1; fill:none" points="436.584,352.309 951.312,352.309 951.312,93.1086 436.584,93.1086 436.584,352.309 "/>
<polyline clip-path="url(#clip970)" style="stroke:#009af9; stroke-linecap:round; stroke-linejoin:round; stroke-width:12; stroke-opacity:1; fill:none" points="458.609,144.949 590.759,144.949 "/>
<path clip-path="url(#clip970)" d="M629.173 146.025 Q630.677 146.534 632.089 148.201 Q633.524 149.868 634.96 152.784 L639.705 162.229 L634.682 162.229 L630.261 153.363 Q628.548 149.891 626.927 148.756 Q625.33 147.622 622.552 147.622 L617.46 147.622 L617.46 162.229 L612.784 162.229 L612.784 127.669 L623.339 127.669 Q629.265 127.669 632.182 130.145 Q635.099 132.622 635.099 137.622 Q635.099 140.886 633.571 143.039 Q632.066 145.192 629.173 146.025 M617.46 131.511 L617.46 143.78 L623.339 143.78 Q626.719 143.78 628.432 142.229 Q630.168 140.655 630.168 137.622 Q630.168 134.59 628.432 133.062 Q626.719 131.511 623.339 131.511 L617.46 131.511 Z" fill="#000000" fill-rule="nonzero" fill-opacity="1" /><path clip-path="url(#clip970)" d="M656.279 149.196 Q651.117 149.196 649.126 150.377 Q647.136 151.557 647.136 154.405 Q647.136 156.673 648.617 158.016 Q650.122 159.335 652.691 159.335 Q656.233 159.335 658.362 156.835 Q660.515 154.312 660.515 150.145 L660.515 149.196 L656.279 149.196 M664.774 147.437 L664.774 162.229 L660.515 162.229 L660.515 158.293 Q659.057 160.655 656.881 161.789 Q654.705 162.9 651.557 162.9 Q647.575 162.9 645.214 160.678 Q642.876 158.432 642.876 154.682 Q642.876 150.307 645.793 148.085 Q648.733 145.863 654.543 145.863 L660.515 145.863 L660.515 145.446 Q660.515 142.507 658.571 140.909 Q656.649 139.289 653.154 139.289 Q650.932 139.289 648.825 139.821 Q646.719 140.354 644.774 141.419 L644.774 137.483 Q647.112 136.581 649.311 136.141 Q651.511 135.678 653.594 135.678 Q659.219 135.678 661.997 138.594 Q664.774 141.511 664.774 147.437 Z" fill="#000000" fill-rule="nonzero" fill-opacity="1" /><path clip-path="url(#clip970)" d="M673.547 136.303 L677.807 136.303 L677.807 162.229 L673.547 162.229 L673.547 136.303 M673.547 126.21 L677.807 126.21 L677.807 131.604 L673.547 131.604 L673.547 126.21 Z" fill="#000000" fill-rule="nonzero" fill-opacity="1" /><path clip-path="url(#clip970)" d="M708.269 146.581 L708.269 162.229 L704.01 162.229 L704.01 146.719 Q704.01 143.039 702.575 141.21 Q701.14 139.382 698.27 139.382 Q694.82 139.382 692.83 141.581 Q690.839 143.78 690.839 147.576 L690.839 162.229 L686.557 162.229 L686.557 136.303 L690.839 136.303 L690.839 140.331 Q692.367 137.993 694.427 136.835 Q696.51 135.678 699.219 135.678 Q703.686 135.678 705.978 138.456 Q708.269 141.21 708.269 146.581 Z" fill="#000000" fill-rule="nonzero" fill-opacity="1" /><polyline clip-path="url(#clip970)" style="stroke:#e26f46; stroke-linecap:round; stroke-linejoin:round; stroke-width:12; stroke-opacity:1; fill:none" points="458.609,196.789 590.759,196.789 "/>
<path clip-path="url(#clip970)" d="M635.029 180.643 L635.029 185.203 Q632.367 183.93 630.006 183.305 Q627.645 182.68 625.446 182.68 Q621.626 182.68 619.543 184.161 Q617.483 185.643 617.483 188.374 Q617.483 190.666 618.849 191.847 Q620.238 193.004 624.08 193.722 L626.904 194.3 Q632.136 195.296 634.612 197.819 Q637.112 200.319 637.112 204.532 Q637.112 209.555 633.733 212.147 Q630.376 214.74 623.872 214.74 Q621.418 214.74 618.64 214.184 Q615.886 213.629 612.923 212.541 L612.923 207.726 Q615.77 209.323 618.501 210.133 Q621.233 210.944 623.872 210.944 Q627.876 210.944 630.052 209.37 Q632.228 207.796 632.228 204.879 Q632.228 202.333 630.654 200.897 Q629.103 199.462 625.538 198.745 L622.691 198.189 Q617.46 197.147 615.122 194.925 Q612.784 192.703 612.784 188.745 Q612.784 184.161 616.001 181.522 Q619.242 178.884 624.913 178.884 Q627.344 178.884 629.867 179.323 Q632.39 179.763 635.029 180.643 Z" fill="#000000" fill-rule="nonzero" fill-opacity="1" /><path clip-path="url(#clip970)" d="M665.77 198.421 L665.77 214.069 L661.51 214.069 L661.51 198.559 Q661.51 194.879 660.075 193.05 Q658.64 191.222 655.77 191.222 Q652.321 191.222 650.33 193.421 Q648.339 195.62 648.339 199.416 L648.339 214.069 L644.057 214.069 L644.057 188.143 L648.339 188.143 L648.339 192.171 Q649.867 189.833 651.927 188.675 Q654.01 187.518 656.719 187.518 Q661.186 187.518 663.478 190.296 Q665.77 193.05 665.77 198.421 Z" fill="#000000" fill-rule="nonzero" fill-opacity="1" /><path clip-path="url(#clip970)" d="M684.311 191.129 Q680.885 191.129 678.895 193.814 Q676.904 196.476 676.904 201.129 Q676.904 205.782 678.871 208.467 Q680.862 211.129 684.311 211.129 Q687.714 211.129 689.705 208.444 Q691.695 205.758 691.695 201.129 Q691.695 196.522 689.705 193.837 Q687.714 191.129 684.311 191.129 M684.311 187.518 Q689.867 187.518 693.038 191.129 Q696.209 194.74 696.209 201.129 Q696.209 207.495 693.038 211.129 Q689.867 214.74 684.311 214.74 Q678.733 214.74 675.561 211.129 Q672.413 207.495 672.413 201.129 Q672.413 194.74 675.561 191.129 Q678.733 187.518 684.311 187.518 Z" fill="#000000" fill-rule="nonzero" fill-opacity="1" /><path clip-path="url(#clip970)" d="M700.793 188.143 L705.052 188.143 L710.376 208.374 L715.677 188.143 L720.7 188.143 L726.024 208.374 L731.325 188.143 L735.584 188.143 L728.802 214.069 L723.779 214.069 L718.2 192.819 L712.598 214.069 L707.575 214.069 L700.793 188.143 Z" fill="#000000" fill-rule="nonzero" fill-opacity="1" /><path clip-path="url(#clip970)" d="M752.505 179.509 L781.741 179.509 L781.741 183.444 L769.473 183.444 L769.473 214.069 L764.774 214.069 L764.774 183.444 L752.505 183.444 L752.505 179.509 Z" fill="#000000" fill-rule="nonzero" fill-opacity="1" /><path clip-path="url(#clip970)" d="M786.626 192.541 L816.301 192.541 L816.301 196.43 L786.626 196.43 L786.626 192.541 M786.626 201.985 L816.301 201.985 L816.301 205.921 L786.626 205.921 L786.626 201.985 Z" fill="#000000" fill-rule="nonzero" fill-opacity="1" /><path clip-path="url(#clip970)" d="M823.639 199.184 L836.116 199.184 L836.116 202.981 L823.639 202.981 L823.639 199.184 Z" fill="#000000" fill-rule="nonzero" fill-opacity="1" /><path clip-path="url(#clip970)" d="M843.547 179.509 L861.903 179.509 L861.903 183.444 L847.829 183.444 L847.829 191.916 Q848.847 191.569 849.866 191.407 Q850.884 191.222 851.903 191.222 Q857.69 191.222 861.07 194.393 Q864.449 197.564 864.449 202.981 Q864.449 208.559 860.977 211.661 Q857.505 214.74 851.185 214.74 Q849.009 214.74 846.741 214.37 Q844.496 213.999 842.088 213.258 L842.088 208.559 Q844.172 209.694 846.394 210.249 Q848.616 210.805 851.093 210.805 Q855.097 210.805 857.435 208.698 Q859.773 206.592 859.773 202.981 Q859.773 199.37 857.435 197.263 Q855.097 195.157 851.093 195.157 Q849.218 195.157 847.343 195.573 Q845.491 195.99 843.547 196.87 L843.547 179.509 Z" fill="#000000" fill-rule="nonzero" fill-opacity="1" /><path clip-path="url(#clip970)" d="M899.125 182.171 L899.125 187.101 Q896.764 184.902 894.079 183.814 Q891.417 182.726 888.407 182.726 Q882.481 182.726 879.333 186.36 Q876.185 189.972 876.185 196.823 Q876.185 203.652 879.333 207.286 Q882.481 210.897 888.407 210.897 Q891.417 210.897 894.079 209.809 Q896.764 208.721 899.125 206.522 L899.125 211.407 Q896.671 213.073 893.917 213.907 Q891.185 214.74 888.13 214.74 Q880.282 214.74 875.769 209.948 Q871.255 205.133 871.255 196.823 Q871.255 188.49 875.769 183.698 Q880.282 178.884 888.13 178.884 Q891.231 178.884 893.963 179.717 Q896.718 180.527 899.125 182.171 Z" fill="#000000" fill-rule="nonzero" fill-opacity="1" /><polyline clip-path="url(#clip970)" style="stroke:#3da44d; stroke-linecap:round; stroke-linejoin:round; stroke-width:12; stroke-opacity:1; fill:none" points="458.609,248.629 590.759,248.629 "/>
<path clip-path="url(#clip970)" d="M635.029 232.483 L635.029 237.043 Q632.367 235.77 630.006 235.145 Q627.645 234.52 625.446 234.52 Q621.626 234.52 619.543 236.001 Q617.483 237.483 617.483 240.214 Q617.483 242.506 618.849 243.687 Q620.238 244.844 624.08 245.562 L626.904 246.14 Q632.136 247.136 634.612 249.659 Q637.112 252.159 637.112 256.372 Q637.112 261.395 633.733 263.987 Q630.376 266.58 623.872 266.58 Q621.418 266.58 618.64 266.024 Q615.886 265.469 612.923 264.381 L612.923 259.566 Q615.77 261.163 618.501 261.973 Q621.233 262.784 623.872 262.784 Q627.876 262.784 630.052 261.21 Q632.228 259.636 632.228 256.719 Q632.228 254.173 630.654 252.737 Q629.103 251.302 625.538 250.585 L622.691 250.029 Q617.46 248.987 615.122 246.765 Q612.784 244.543 612.784 240.585 Q612.784 236.001 616.001 233.362 Q619.242 230.724 624.913 230.724 Q627.344 230.724 629.867 231.163 Q632.39 231.603 635.029 232.483 Z" fill="#000000" fill-rule="nonzero" fill-opacity="1" /><path clip-path="url(#clip970)" d="M665.77 250.261 L665.77 265.909 L661.51 265.909 L661.51 250.399 Q661.51 246.719 660.075 244.89 Q658.64 243.062 655.77 243.062 Q652.321 243.062 650.33 245.261 Q648.339 247.46 648.339 251.256 L648.339 265.909 L644.057 265.909 L644.057 239.983 L648.339 239.983 L648.339 244.011 Q649.867 241.673 651.927 240.515 Q654.01 239.358 656.719 239.358 Q661.186 239.358 663.478 242.136 Q665.77 244.89 665.77 250.261 Z" fill="#000000" fill-rule="nonzero" fill-opacity="1" /><path clip-path="url(#clip970)" d="M684.311 242.969 Q680.885 242.969 678.895 245.654 Q676.904 248.316 676.904 252.969 Q676.904 257.622 678.871 260.307 Q680.862 262.969 684.311 262.969 Q687.714 262.969 689.705 260.284 Q691.695 257.598 691.695 252.969 Q691.695 248.362 689.705 245.677 Q687.714 242.969 684.311 242.969 M684.311 239.358 Q689.867 239.358 693.038 242.969 Q696.209 246.58 696.209 252.969 Q696.209 259.335 693.038 262.969 Q689.867 266.58 684.311 266.58 Q678.733 266.58 675.561 262.969 Q672.413 259.335 672.413 252.969 Q672.413 246.58 675.561 242.969 Q678.733 239.358 684.311 239.358 Z" fill="#000000" fill-rule="nonzero" fill-opacity="1" /><path clip-path="url(#clip970)" d="M700.793 239.983 L705.052 239.983 L710.376 260.214 L715.677 239.983 L720.7 239.983 L726.024 260.214 L731.325 239.983 L735.584 239.983 L728.802 265.909 L723.779 265.909 L718.2 244.659 L712.598 265.909 L707.575 265.909 L700.793 239.983 Z" fill="#000000" fill-rule="nonzero" fill-opacity="1" /><path clip-path="url(#clip970)" d="M752.505 231.349 L781.741 231.349 L781.741 235.284 L769.473 235.284 L769.473 265.909 L764.774 265.909 L764.774 235.284 L752.505 235.284 L752.505 231.349 Z" fill="#000000" fill-rule="nonzero" fill-opacity="1" /><path clip-path="url(#clip970)" d="M786.626 244.381 L816.301 244.381 L816.301 248.27 L786.626 248.27 L786.626 244.381 M786.626 253.825 L816.301 253.825 L816.301 257.761 L786.626 257.761 L786.626 253.825 Z" fill="#000000" fill-rule="nonzero" fill-opacity="1" /><path clip-path="url(#clip970)" d="M823.639 251.024 L836.116 251.024 L836.116 254.821 L823.639 254.821 L823.639 251.024 Z" fill="#000000" fill-rule="nonzero" fill-opacity="1" /><path clip-path="url(#clip970)" d="M844.31 261.973 L851.949 261.973 L851.949 235.608 L843.639 237.275 L843.639 233.015 L851.903 231.349 L856.579 231.349 L856.579 261.973 L864.218 261.973 L864.218 265.909 L844.31 265.909 L844.31 261.973 Z" fill="#000000" fill-rule="nonzero" fill-opacity="1" /><path clip-path="url(#clip970)" d="M883.662 234.427 Q880.051 234.427 878.222 237.992 Q876.417 241.534 876.417 248.663 Q876.417 255.77 878.222 259.335 Q880.051 262.876 883.662 262.876 Q887.296 262.876 889.102 259.335 Q890.931 255.77 890.931 248.663 Q890.931 241.534 889.102 237.992 Q887.296 234.427 883.662 234.427 M883.662 230.724 Q889.472 230.724 892.528 235.33 Q895.606 239.913 895.606 248.663 Q895.606 257.39 892.528 261.997 Q889.472 266.58 883.662 266.58 Q877.852 266.58 874.773 261.997 Q871.718 257.39 871.718 248.663 Q871.718 239.913 874.773 235.33 Q877.852 230.724 883.662 230.724 Z" fill="#000000" fill-rule="nonzero" fill-opacity="1" /><path clip-path="url(#clip970)" d="M929.287 234.011 L929.287 238.941 Q926.926 236.742 924.241 235.654 Q921.578 234.566 918.569 234.566 Q912.643 234.566 909.495 238.2 Q906.347 241.812 906.347 248.663 Q906.347 255.492 909.495 259.126 Q912.643 262.737 918.569 262.737 Q921.578 262.737 924.241 261.649 Q926.926 260.561 929.287 258.362 L929.287 263.247 Q926.833 264.913 924.078 265.747 Q921.347 266.58 918.291 266.58 Q910.444 266.58 905.93 261.788 Q901.417 256.973 901.417 248.663 Q901.417 240.33 905.93 235.538 Q910.444 230.724 918.291 230.724 Q921.393 230.724 924.125 231.557 Q926.879 232.367 929.287 234.011 Z" fill="#000000" fill-rule="nonzero" fill-opacity="1" /><polyline clip-path="url(#clip970)" style="stroke:#c271d2; stroke-linecap:round; stroke-linejoin:round; stroke-width:12; stroke-opacity:1; fill:none" points="458.609,300.469 590.759,300.469 "/>
<path clip-path="url(#clip970)" d="M635.029 284.323 L635.029 288.883 Q632.367 287.61 630.006 286.985 Q627.645 286.36 625.446 286.36 Q621.626 286.36 619.543 287.841 Q617.483 289.323 617.483 292.054 Q617.483 294.346 618.849 295.527 Q620.238 296.684 624.08 297.402 L626.904 297.98 Q632.136 298.976 634.612 301.499 Q637.112 303.999 637.112 308.212 Q637.112 313.235 633.733 315.827 Q630.376 318.42 623.872 318.42 Q621.418 318.42 618.64 317.864 Q615.886 317.309 612.923 316.221 L612.923 311.406 Q615.77 313.003 618.501 313.813 Q621.233 314.624 623.872 314.624 Q627.876 314.624 630.052 313.05 Q632.228 311.476 632.228 308.559 Q632.228 306.013 630.654 304.577 Q629.103 303.142 625.538 302.425 L622.691 301.869 Q617.46 300.827 615.122 298.605 Q612.784 296.383 612.784 292.425 Q612.784 287.841 616.001 285.202 Q619.242 282.564 624.913 282.564 Q627.344 282.564 629.867 283.003 Q632.39 283.443 635.029 284.323 Z" fill="#000000" fill-rule="nonzero" fill-opacity="1" /><path clip-path="url(#clip970)" d="M665.77 302.101 L665.77 317.749 L661.51 317.749 L661.51 302.239 Q661.51 298.559 660.075 296.73 Q658.64 294.902 655.77 294.902 Q652.321 294.902 650.33 297.101 Q648.339 299.3 648.339 303.096 L648.339 317.749 L644.057 317.749 L644.057 291.823 L648.339 291.823 L648.339 295.851 Q649.867 293.513 651.927 292.355 Q654.01 291.198 656.719 291.198 Q661.186 291.198 663.478 293.976 Q665.77 296.73 665.77 302.101 Z" fill="#000000" fill-rule="nonzero" fill-opacity="1" /><path clip-path="url(#clip970)" d="M684.311 294.809 Q680.885 294.809 678.895 297.494 Q676.904 300.156 676.904 304.809 Q676.904 309.462 678.871 312.147 Q680.862 314.809 684.311 314.809 Q687.714 314.809 689.705 312.124 Q691.695 309.438 691.695 304.809 Q691.695 300.202 689.705 297.517 Q687.714 294.809 684.311 294.809 M684.311 291.198 Q689.867 291.198 693.038 294.809 Q696.209 298.42 696.209 304.809 Q696.209 311.175 693.038 314.809 Q689.867 318.42 684.311 318.42 Q678.733 318.42 675.561 314.809 Q672.413 311.175 672.413 304.809 Q672.413 298.42 675.561 294.809 Q678.733 291.198 684.311 291.198 Z" fill="#000000" fill-rule="nonzero" fill-opacity="1" /><path clip-path="url(#clip970)" d="M700.793 291.823 L705.052 291.823 L710.376 312.054 L715.677 291.823 L720.7 291.823 L726.024 312.054 L731.325 291.823 L735.584 291.823 L728.802 317.749 L723.779 317.749 L718.2 296.499 L712.598 317.749 L707.575 317.749 L700.793 291.823 Z" fill="#000000" fill-rule="nonzero" fill-opacity="1" /><path clip-path="url(#clip970)" d="M752.505 283.189 L781.741 283.189 L781.741 287.124 L769.473 287.124 L769.473 317.749 L764.774 317.749 L764.774 287.124 L752.505 287.124 L752.505 283.189 Z" fill="#000000" fill-rule="nonzero" fill-opacity="1" /><path clip-path="url(#clip970)" d="M786.626 296.221 L816.301 296.221 L816.301 300.11 L786.626 300.11 L786.626 296.221 M786.626 305.665 L816.301 305.665 L816.301 309.601 L786.626 309.601 L786.626 305.665 Z" fill="#000000" fill-rule="nonzero" fill-opacity="1" /><path clip-path="url(#clip970)" d="M823.639 302.864 L836.116 302.864 L836.116 306.661 L823.639 306.661 L823.639 302.864 Z" fill="#000000" fill-rule="nonzero" fill-opacity="1" /><path clip-path="url(#clip970)" d="M844.31 313.813 L851.949 313.813 L851.949 287.448 L843.639 289.115 L843.639 284.855 L851.903 283.189 L856.579 283.189 L856.579 313.813 L864.218 313.813 L864.218 317.749 L844.31 317.749 L844.31 313.813 Z" fill="#000000" fill-rule="nonzero" fill-opacity="1" /><path clip-path="url(#clip970)" d="M873.708 283.189 L892.065 283.189 L892.065 287.124 L877.991 287.124 L877.991 295.596 Q879.009 295.249 880.028 295.087 Q881.046 294.902 882.065 294.902 Q887.852 294.902 891.231 298.073 Q894.611 301.244 894.611 306.661 Q894.611 312.239 891.139 315.341 Q887.667 318.42 881.347 318.42 Q879.171 318.42 876.903 318.05 Q874.657 317.679 872.25 316.938 L872.25 312.239 Q874.333 313.374 876.556 313.929 Q878.778 314.485 881.255 314.485 Q885.259 314.485 887.597 312.378 Q889.935 310.272 889.935 306.661 Q889.935 303.05 887.597 300.943 Q885.259 298.837 881.255 298.837 Q879.38 298.837 877.505 299.253 Q875.653 299.67 873.708 300.55 L873.708 283.189 Z" fill="#000000" fill-rule="nonzero" fill-opacity="1" /><path clip-path="url(#clip970)" d="M929.287 285.851 L929.287 290.781 Q926.926 288.582 924.241 287.494 Q921.578 286.406 918.569 286.406 Q912.643 286.406 909.495 290.04 Q906.347 293.652 906.347 300.503 Q906.347 307.332 909.495 310.966 Q912.643 314.577 918.569 314.577 Q921.578 314.577 924.241 313.489 Q926.926 312.401 929.287 310.202 L929.287 315.087 Q926.833 316.753 924.078 317.587 Q921.347 318.42 918.291 318.42 Q910.444 318.42 905.93 313.628 Q901.417 308.813 901.417 300.503 Q901.417 292.17 905.93 287.378 Q910.444 282.564 918.291 282.564 Q921.393 282.564 924.125 283.397 Q926.879 284.207 929.287 285.851 Z" fill="#000000" fill-rule="nonzero" fill-opacity="1" /></svg>
