<?xml version="1.0" encoding="utf-8"?>
<svg xmlns="http://www.w3.org/2000/svg" xmlns:xlink="http://www.w3.org/1999/xlink" width="600" height="400" viewBox="0 0 2400 1600">
<defs>
  <clipPath id="clip120">
    <rect x="0" y="0" width="2400" height="1600"/>
  </clipPath>
</defs>
<path clip-path="url(#clip120)" d="M0 1600 L2400 1600 L2400 0 L0 0  Z" fill="#ffffff" fill-rule="evenodd" fill-opacity="1"/>
<defs>
  <clipPath id="clip121">
    <rect x="480" y="0" width="1681" height="1600"/>
  </clipPath>
</defs>
<path clip-path="url(#clip120)" d="M437.685 1423.18 L2352.76 1423.18 L2352.76 47.2441 L437.685 47.2441  Z" fill="#ffffff" fill-rule="evenodd" fill-opacity="1"/>
<defs>
  <clipPath id="clip122">
    <rect x="437" y="47" width="1916" height="1377"/>
  </clipPath>
</defs>
<polyline clip-path="url(#clip122)" style="stroke:#000000; stroke-linecap:round; stroke-linejoin:round; stroke-width:2; stroke-opacity:0.1; fill:none" points="491.881,1423.18 491.881,47.2441 "/>
<polyline clip-path="url(#clip122)" style="stroke:#000000; stroke-linecap:round; stroke-linejoin:round; stroke-width:2; stroke-opacity:0.1; fill:none" points="853.216,1423.18 853.216,47.2441 "/>
<polyline clip-path="url(#clip122)" style="stroke:#000000; stroke-linecap:round; stroke-linejoin:round; stroke-width:2; stroke-opacity:0.1; fill:none" points="1214.55,1423.18 1214.55,47.2441 "/>
<polyline clip-path="url(#clip122)" style="stroke:#000000; stroke-linecap:round; stroke-linejoin:round; stroke-width:2; stroke-opacity:0.1; fill:none" points="1575.89,1423.18 1575.89,47.2441 "/>
<polyline clip-path="url(#clip122)" style="stroke:#000000; stroke-linecap:round; stroke-linejoin:round; stroke-width:2; stroke-opacity:0.1; fill:none" points="1937.22,1423.18 1937.22,47.2441 "/>
<polyline clip-path="url(#clip122)" style="stroke:#000000; stroke-linecap:round; stroke-linejoin:round; stroke-width:2; stroke-opacity:0.1; fill:none" points="2298.56,1423.18 2298.56,47.2441 "/>
<polyline clip-path="url(#clip122)" style="stroke:#000000; stroke-linecap:round; stroke-linejoin:round; stroke-width:2; stroke-opacity:0.1; fill:none" points="437.685,1398.64 2352.76,1398.64 "/>
<polyline clip-path="url(#clip122)" style="stroke:#000000; stroke-linecap:round; stroke-linejoin:round; stroke-width:2; stroke-opacity:0.1; fill:none" points="437.685,1136.11 2352.76,1136.11 "/>
<polyline clip-path="url(#clip122)" style="stroke:#000000; stroke-linecap:round; stroke-linejoin:round; stroke-width:2; stroke-opacity:0.1; fill:none" points="437.685,873.572 2352.76,873.572 "/>
<polyline clip-path="url(#clip122)" style="stroke:#000000; stroke-linecap:round; stroke-linejoin:round; stroke-width:2; stroke-opacity:0.1; fill:none" points="437.685,611.038 2352.76,611.038 "/>
<polyline clip-path="url(#clip122)" style="stroke:#000000; stroke-linecap:round; stroke-linejoin:round; stroke-width:2; stroke-opacity:0.1; fill:none" points="437.685,348.503 2352.76,348.503 "/>
<polyline clip-path="url(#clip122)" style="stroke:#000000; stroke-linecap:round; stroke-linejoin:round; stroke-width:2; stroke-opacity:0.1; fill:none" points="437.685,85.9688 2352.76,85.9688 "/>
<polyline clip-path="url(#clip120)" style="stroke:#000000; stroke-linecap:round; stroke-linejoin:round; stroke-width:4; stroke-opacity:1; fill:none" points="437.685,1423.18 2352.76,1423.18 "/>
<polyline clip-path="url(#clip120)" style="stroke:#000000; stroke-linecap:round; stroke-linejoin:round; stroke-width:4; stroke-opacity:1; fill:none" points="491.881,1423.18 491.881,1404.28 "/>
<polyline clip-path="url(#clip120)" style="stroke:#000000; stroke-linecap:round; stroke-linejoin:round; stroke-width:4; stroke-opacity:1; fill:none" points="853.216,1423.18 853.216,1404.28 "/>
<polyline clip-path="url(#clip120)" style="stroke:#000000; stroke-linecap:round; stroke-linejoin:round; stroke-width:4; stroke-opacity:1; fill:none" points="1214.55,1423.18 1214.55,1404.28 "/>
<polyline clip-path="url(#clip120)" style="stroke:#000000; stroke-linecap:round; stroke-linejoin:round; stroke-width:4; stroke-opacity:1; fill:none" points="1575.89,1423.18 1575.89,1404.28 "/>
<polyline clip-path="url(#clip120)" style="stroke:#000000; stroke-linecap:round; stroke-linejoin:round; stroke-width:4; stroke-opacity:1; fill:none" points="1937.22,1423.18 1937.22,1404.28 "/>
<polyline clip-path="url(#clip120)" style="stroke:#000000; stroke-linecap:round; stroke-linejoin:round; stroke-width:4; stroke-opacity:1; fill:none" points="2298.56,1423.18 2298.56,1404.28 "/>
<path clip-path="url(#clip120)" d="M491.881 1454.1 Q488.27 1454.1 486.442 1457.66 Q484.636 1461.2 484.636 1468.33 Q484.636 1475.44 486.442 1479.01 Q488.27 1482.55 491.881 1482.55 Q495.516 1482.55 497.321 1479.01 Q499.15 1475.44 499.15 1468.33 Q499.15 1461.2 497.321 1457.66 Q495.516 1454.1 491.881 1454.1 M491.881 1450.39 Q497.691 1450.39 500.747 1455 Q503.826 1459.58 503.826 1468.33 Q503.826 1477.06 500.747 1481.67 Q497.691 1486.25 491.881 1486.25 Q486.071 1486.25 482.993 1481.67 Q479.937 1477.06 479.937 1468.33 Q479.937 1459.58 482.993 1455 Q486.071 1450.39 491.881 1450.39 Z" fill="#000000" fill-rule="nonzero" fill-opacity="1" /><path clip-path="url(#clip120)" d="M843.598 1481.64 L851.237 1481.64 L851.237 1455.28 L842.927 1456.95 L842.927 1452.69 L851.191 1451.02 L855.867 1451.02 L855.867 1481.64 L863.506 1481.64 L863.506 1485.58 L843.598 1485.58 L843.598 1481.64 Z" fill="#000000" fill-rule="nonzero" fill-opacity="1" /><path clip-path="url(#clip120)" d="M1209.2 1481.64 L1225.52 1481.64 L1225.52 1485.58 L1203.58 1485.58 L1203.58 1481.64 Q1206.24 1478.89 1210.82 1474.26 Q1215.43 1469.61 1216.61 1468.27 Q1218.86 1465.74 1219.74 1464.01 Q1220.64 1462.25 1220.64 1460.56 Q1220.64 1457.8 1218.69 1456.07 Q1216.77 1454.33 1213.67 1454.33 Q1211.47 1454.33 1209.02 1455.09 Q1206.59 1455.86 1203.81 1457.41 L1203.81 1452.69 Q1206.63 1451.55 1209.09 1450.97 Q1211.54 1450.39 1213.58 1450.39 Q1218.95 1450.39 1222.14 1453.08 Q1225.34 1455.77 1225.34 1460.26 Q1225.34 1462.39 1224.53 1464.31 Q1223.74 1466.2 1221.63 1468.8 Q1221.06 1469.47 1217.95 1472.69 Q1214.85 1475.88 1209.2 1481.64 Z" fill="#000000" fill-rule="nonzero" fill-opacity="1" /><path clip-path="url(#clip120)" d="M1580.13 1466.95 Q1583.49 1467.66 1585.37 1469.93 Q1587.26 1472.2 1587.26 1475.53 Q1587.26 1480.65 1583.74 1483.45 Q1580.23 1486.25 1573.74 1486.25 Q1571.57 1486.25 1569.25 1485.81 Q1566.96 1485.39 1564.51 1484.54 L1564.51 1480.02 Q1566.45 1481.16 1568.77 1481.74 Q1571.08 1482.32 1573.61 1482.32 Q1578 1482.32 1580.3 1480.58 Q1582.61 1478.84 1582.61 1475.53 Q1582.61 1472.48 1580.46 1470.77 Q1578.33 1469.03 1574.51 1469.03 L1570.48 1469.03 L1570.48 1465.19 L1574.69 1465.19 Q1578.14 1465.19 1579.97 1463.82 Q1581.8 1462.43 1581.8 1459.84 Q1581.8 1457.18 1579.9 1455.77 Q1578.03 1454.33 1574.51 1454.33 Q1572.59 1454.33 1570.39 1454.75 Q1568.19 1455.16 1565.55 1456.04 L1565.55 1451.88 Q1568.21 1451.14 1570.53 1450.77 Q1572.87 1450.39 1574.93 1450.39 Q1580.25 1450.39 1583.35 1452.83 Q1586.45 1455.23 1586.45 1459.35 Q1586.45 1462.22 1584.81 1464.21 Q1583.17 1466.18 1580.13 1466.95 Z" fill="#000000" fill-rule="nonzero" fill-opacity="1" /><path clip-path="url(#clip120)" d="M1940.23 1455.09 L1928.42 1473.54 L1940.23 1473.54 L1940.23 1455.09 M1939 1451.02 L1944.88 1451.02 L1944.88 1473.54 L1949.81 1473.54 L1949.81 1477.43 L1944.88 1477.43 L1944.88 1485.58 L1940.23 1485.58 L1940.23 1477.43 L1924.63 1477.43 L1924.63 1472.92 L1939 1451.02 Z" fill="#000000" fill-rule="nonzero" fill-opacity="1" /><path clip-path="url(#clip120)" d="M2288.83 1451.02 L2307.19 1451.02 L2307.19 1454.96 L2293.12 1454.96 L2293.12 1463.43 Q2294.13 1463.08 2295.15 1462.92 Q2296.17 1462.73 2297.19 1462.73 Q2302.98 1462.73 2306.36 1465.9 Q2309.74 1469.08 2309.74 1474.49 Q2309.74 1480.07 2306.26 1483.17 Q2302.79 1486.25 2296.47 1486.25 Q2294.3 1486.25 2292.03 1485.88 Q2289.78 1485.51 2287.38 1484.77 L2287.38 1480.07 Q2289.46 1481.2 2291.68 1481.76 Q2293.9 1482.32 2296.38 1482.32 Q2300.38 1482.32 2302.72 1480.21 Q2305.06 1478.1 2305.06 1474.49 Q2305.06 1470.88 2302.72 1468.77 Q2300.38 1466.67 2296.38 1466.67 Q2294.5 1466.67 2292.63 1467.08 Q2290.78 1467.5 2288.83 1468.38 L2288.83 1451.02 Z" fill="#000000" fill-rule="nonzero" fill-opacity="1" /><path clip-path="url(#clip120)" d="M1198.77 1550.25 Q1198.77 1556.71 1201.42 1560.4 Q1204.09 1564.07 1208.74 1564.07 Q1213.38 1564.07 1216.06 1560.4 Q1218.73 1556.71 1218.73 1550.25 Q1218.73 1543.79 1216.06 1540.13 Q1213.38 1536.44 1208.74 1536.44 Q1204.09 1536.44 1201.42 1540.13 Q1198.77 1543.79 1198.77 1550.25 M1218.73 1562.7 Q1216.89 1565.88 1214.05 1567.44 Q1211.25 1568.97 1207.3 1568.97 Q1200.84 1568.97 1196.77 1563.81 Q1192.73 1558.65 1192.73 1550.25 Q1192.73 1541.85 1196.77 1536.69 Q1200.84 1531.54 1207.3 1531.54 Q1211.25 1531.54 1214.05 1533.1 Q1216.89 1534.62 1218.73 1537.81 L1218.73 1532.4 L1224.59 1532.4 L1224.59 1581.6 L1218.73 1581.6 L1218.73 1562.7 Z" fill="#000000" fill-rule="nonzero" fill-opacity="1" /><path clip-path="url(#clip120)" d="M1263.74 1578.87 L1263.74 1583.42 L1229.87 1583.42 L1229.87 1578.87 L1263.74 1578.87 Z" fill="#000000" fill-rule="nonzero" fill-opacity="1" /><path clip-path="url(#clip120)" d="M1289.9 1537.87 Q1288.91 1537.3 1287.74 1537.04 Q1286.59 1536.76 1285.19 1536.76 Q1280.22 1536.76 1277.55 1540 Q1274.91 1543.22 1274.91 1549.27 L1274.91 1568.04 L1269.02 1568.04 L1269.02 1532.4 L1274.91 1532.4 L1274.91 1537.93 Q1276.75 1534.69 1279.71 1533.13 Q1282.67 1531.54 1286.91 1531.54 Q1287.51 1531.54 1288.24 1531.63 Q1288.98 1531.7 1289.87 1531.85 L1289.9 1537.87 Z" fill="#000000" fill-rule="nonzero" fill-opacity="1" /><path clip-path="url(#clip120)" d="M1312.24 1550.12 Q1305.15 1550.12 1302.41 1551.75 Q1299.67 1553.37 1299.67 1557.29 Q1299.67 1560.4 1301.71 1562.25 Q1303.78 1564.07 1307.31 1564.07 Q1312.18 1564.07 1315.11 1560.63 Q1318.07 1557.16 1318.07 1551.43 L1318.07 1550.12 L1312.24 1550.12 M1323.92 1547.71 L1323.92 1568.04 L1318.07 1568.04 L1318.07 1562.63 Q1316.06 1565.88 1313.07 1567.44 Q1310.08 1568.97 1305.75 1568.97 Q1300.28 1568.97 1297.03 1565.91 Q1293.81 1562.82 1293.81 1557.67 Q1293.81 1551.65 1297.83 1548.6 Q1301.87 1545.54 1309.86 1545.54 L1318.07 1545.54 L1318.07 1544.97 Q1318.07 1540.93 1315.39 1538.73 Q1312.75 1536.5 1307.95 1536.5 Q1304.89 1536.5 1301.99 1537.23 Q1299.1 1537.97 1296.42 1539.43 L1296.42 1534.02 Q1299.64 1532.78 1302.66 1532.17 Q1305.69 1531.54 1308.55 1531.54 Q1316.29 1531.54 1320.11 1535.55 Q1323.92 1539.56 1323.92 1547.71 Z" fill="#000000" fill-rule="nonzero" fill-opacity="1" /><path clip-path="url(#clip120)" d="M1335.99 1532.4 L1341.84 1532.4 L1341.84 1568.04 L1335.99 1568.04 L1335.99 1532.4 M1335.99 1518.52 L1341.84 1518.52 L1341.84 1525.93 L1335.99 1525.93 L1335.99 1518.52 Z" fill="#000000" fill-rule="nonzero" fill-opacity="1" /><path clip-path="url(#clip120)" d="M1383.73 1546.53 L1383.73 1568.04 L1377.87 1568.04 L1377.87 1546.72 Q1377.87 1541.66 1375.9 1539.14 Q1373.93 1536.63 1369.98 1536.63 Q1365.24 1536.63 1362.5 1539.65 Q1359.76 1542.68 1359.76 1547.9 L1359.76 1568.04 L1353.88 1568.04 L1353.88 1532.4 L1359.76 1532.4 L1359.76 1537.93 Q1361.86 1534.72 1364.7 1533.13 Q1367.56 1531.54 1371.29 1531.54 Q1377.43 1531.54 1380.58 1535.36 Q1383.73 1539.14 1383.73 1546.53 Z" fill="#000000" fill-rule="nonzero" fill-opacity="1" /><path clip-path="url(#clip120)" d="M1415.59 1518.52 L1429.09 1518.52 L1429.09 1523.07 L1421.45 1523.07 L1421.45 1572.09 L1429.09 1572.09 L1429.09 1576.64 L1415.59 1576.64 L1415.59 1518.52 Z" fill="#000000" fill-rule="nonzero" fill-opacity="1" /><path clip-path="url(#clip120)" d="M1465.02 1549.81 Q1465.02 1543.44 1462.38 1539.94 Q1459.77 1536.44 1455.03 1536.44 Q1450.32 1536.44 1447.67 1539.94 Q1445.06 1543.44 1445.06 1549.81 Q1445.06 1556.14 1447.67 1559.64 Q1450.32 1563.14 1455.03 1563.14 Q1459.77 1563.14 1462.38 1559.64 Q1465.02 1556.14 1465.02 1549.81 M1470.88 1563.62 Q1470.88 1572.72 1466.83 1577.15 Q1462.79 1581.6 1454.45 1581.6 Q1451.37 1581.6 1448.63 1581.13 Q1445.89 1580.68 1443.31 1579.72 L1443.31 1574.03 Q1445.89 1575.43 1448.41 1576.1 Q1450.92 1576.76 1453.53 1576.76 Q1459.29 1576.76 1462.16 1573.74 Q1465.02 1570.75 1465.02 1564.67 L1465.02 1561.77 Q1463.21 1564.92 1460.37 1566.48 Q1457.54 1568.04 1453.59 1568.04 Q1447.04 1568.04 1443.03 1563.05 Q1439.02 1558.05 1439.02 1549.81 Q1439.02 1541.53 1443.03 1536.53 Q1447.04 1531.54 1453.59 1531.54 Q1457.54 1531.54 1460.37 1533.1 Q1463.21 1534.66 1465.02 1537.81 L1465.02 1532.4 L1470.88 1532.4 L1470.88 1563.62 Z" fill="#000000" fill-rule="nonzero" fill-opacity="1" /><path clip-path="url(#clip120)" d="M1493.35 1520.52 L1498.76 1520.52 L1482.21 1574.09 L1476.8 1574.09 L1493.35 1520.52 Z" fill="#000000" fill-rule="nonzero" fill-opacity="1" /><path clip-path="url(#clip120)" d="M1504.68 1518.52 L1510.57 1518.52 L1510.57 1547.77 L1528.04 1532.4 L1535.52 1532.4 L1516.61 1549.07 L1536.32 1568.04 L1528.68 1568.04 L1510.57 1550.63 L1510.57 1568.04 L1504.68 1568.04 L1504.68 1518.52 Z" fill="#000000" fill-rule="nonzero" fill-opacity="1" /><path clip-path="url(#clip120)" d="M1566.11 1549.81 Q1566.11 1543.44 1563.47 1539.94 Q1560.86 1536.44 1556.11 1536.44 Q1551.4 1536.44 1548.76 1539.94 Q1546.15 1543.44 1546.15 1549.81 Q1546.15 1556.14 1548.76 1559.64 Q1551.4 1563.14 1556.11 1563.14 Q1560.86 1563.14 1563.47 1559.64 Q1566.11 1556.14 1566.11 1549.81 M1571.96 1563.62 Q1571.96 1572.72 1567.92 1577.15 Q1563.88 1581.6 1555.54 1581.6 Q1552.45 1581.6 1549.72 1581.13 Q1546.98 1580.68 1544.4 1579.72 L1544.4 1574.03 Q1546.98 1575.43 1549.49 1576.1 Q1552.01 1576.76 1554.62 1576.76 Q1560.38 1576.76 1563.24 1573.74 Q1566.11 1570.75 1566.11 1564.67 L1566.11 1561.77 Q1564.29 1564.92 1561.46 1566.48 Q1558.63 1568.04 1554.68 1568.04 Q1548.12 1568.04 1544.11 1563.05 Q1540.1 1558.05 1540.1 1549.81 Q1540.1 1541.53 1544.11 1536.53 Q1548.12 1531.54 1554.68 1531.54 Q1558.63 1531.54 1561.46 1533.1 Q1564.29 1534.66 1566.11 1537.81 L1566.11 1532.4 L1571.96 1532.4 L1571.96 1563.62 Z" fill="#000000" fill-rule="nonzero" fill-opacity="1" /><path clip-path="url(#clip120)" d="M1597.71 1518.52 L1597.71 1576.64 L1584.22 1576.64 L1584.22 1572.09 L1591.83 1572.09 L1591.83 1523.07 L1584.22 1523.07 L1584.22 1518.52 L1597.71 1518.52 Z" fill="#000000" fill-rule="nonzero" fill-opacity="1" /><polyline clip-path="url(#clip120)" style="stroke:#000000; stroke-linecap:round; stroke-linejoin:round; stroke-width:4; stroke-opacity:1; fill:none" points="437.685,1423.18 437.685,47.2441 "/>
<polyline clip-path="url(#clip120)" style="stroke:#000000; stroke-linecap:round; stroke-linejoin:round; stroke-width:4; stroke-opacity:1; fill:none" points="437.685,1398.64 456.582,1398.64 "/>
<polyline clip-path="url(#clip120)" style="stroke:#000000; stroke-linecap:round; stroke-linejoin:round; stroke-width:4; stroke-opacity:1; fill:none" points="437.685,1136.11 456.582,1136.11 "/>
<polyline clip-path="url(#clip120)" style="stroke:#000000; stroke-linecap:round; stroke-linejoin:round; stroke-width:4; stroke-opacity:1; fill:none" points="437.685,873.572 456.582,873.572 "/>
<polyline clip-path="url(#clip120)" style="stroke:#000000; stroke-linecap:round; stroke-linejoin:round; stroke-width:4; stroke-opacity:1; fill:none" points="437.685,611.038 456.582,611.038 "/>
<polyline clip-path="url(#clip120)" style="stroke:#000000; stroke-linecap:round; stroke-linejoin:round; stroke-width:4; stroke-opacity:1; fill:none" points="437.685,348.503 456.582,348.503 "/>
<polyline clip-path="url(#clip120)" style="stroke:#000000; stroke-linecap:round; stroke-linejoin:round; stroke-width:4; stroke-opacity:1; fill:none" points="437.685,85.9688 456.582,85.9688 "/>
<path clip-path="url(#clip120)" d="M115.201 1405.54 L144.876 1405.54 L144.876 1409.48 L115.201 1409.48 L115.201 1405.54 Z" fill="#000000" fill-rule="nonzero" fill-opacity="1" /><path clip-path="url(#clip120)" d="M158.997 1418.43 L175.316 1418.43 L175.316 1422.37 L153.372 1422.37 L153.372 1418.43 Q156.034 1415.68 160.617 1411.05 Q165.223 1406.4 166.404 1405.05 Q168.649 1402.53 169.529 1400.8 Q170.432 1399.04 170.432 1397.35 Q170.432 1394.59 168.487 1392.86 Q166.566 1391.12 163.464 1391.12 Q161.265 1391.12 158.811 1391.88 Q156.381 1392.65 153.603 1394.2 L153.603 1389.48 Q156.427 1388.34 158.881 1387.76 Q161.335 1387.18 163.372 1387.18 Q168.742 1387.18 171.936 1389.87 Q175.131 1392.55 175.131 1397.05 Q175.131 1399.17 174.321 1401.1 Q173.534 1402.99 171.427 1405.59 Q170.848 1406.26 167.747 1409.48 Q164.645 1412.67 158.997 1418.43 Z" fill="#000000" fill-rule="nonzero" fill-opacity="1" /><path clip-path="url(#clip120)" d="M185.131 1416.49 L190.015 1416.49 L190.015 1422.37 L185.131 1422.37 L185.131 1416.49 Z" fill="#000000" fill-rule="nonzero" fill-opacity="1" /><path clip-path="url(#clip120)" d="M200.246 1387.81 L218.603 1387.81 L218.603 1391.74 L204.529 1391.74 L204.529 1400.22 Q205.547 1399.87 206.566 1399.71 Q207.584 1399.52 208.603 1399.52 Q214.39 1399.52 217.769 1402.69 Q221.149 1405.86 221.149 1411.28 Q221.149 1416.86 217.677 1419.96 Q214.205 1423.04 207.885 1423.04 Q205.709 1423.04 203.441 1422.67 Q201.195 1422.3 198.788 1421.56 L198.788 1416.86 Q200.871 1417.99 203.094 1418.55 Q205.316 1419.11 207.793 1419.11 Q211.797 1419.11 214.135 1417 Q216.473 1414.89 216.473 1411.28 Q216.473 1407.67 214.135 1405.56 Q211.797 1403.46 207.793 1403.46 Q205.918 1403.46 204.043 1403.87 Q202.191 1404.29 200.246 1405.17 L200.246 1387.81 Z" fill="#000000" fill-rule="nonzero" fill-opacity="1" /><path clip-path="url(#clip120)" d="M240.362 1390.89 Q236.751 1390.89 234.922 1394.45 Q233.117 1397.99 233.117 1405.12 Q233.117 1412.23 234.922 1415.8 Q236.751 1419.34 240.362 1419.34 Q243.996 1419.34 245.802 1415.8 Q247.63 1412.23 247.63 1405.12 Q247.63 1397.99 245.802 1394.45 Q243.996 1390.89 240.362 1390.89 M240.362 1387.18 Q246.172 1387.18 249.228 1391.79 Q252.306 1396.37 252.306 1405.12 Q252.306 1413.85 249.228 1418.46 Q246.172 1423.04 240.362 1423.04 Q234.552 1423.04 231.473 1418.46 Q228.418 1413.85 228.418 1405.12 Q228.418 1396.37 231.473 1391.79 Q234.552 1387.18 240.362 1387.18 Z" fill="#000000" fill-rule="nonzero" fill-opacity="1" /><path clip-path="url(#clip120)" d="M288.695 1396.91 L278.116 1407.53 L288.695 1418.11 L285.94 1420.91 L275.315 1410.29 L264.69 1420.91 L261.959 1418.11 L272.515 1407.53 L261.959 1396.91 L264.69 1394.11 L275.315 1404.73 L285.94 1394.11 L288.695 1396.91 Z" fill="#000000" fill-rule="nonzero" fill-opacity="1" /><path clip-path="url(#clip120)" d="M301.056 1418.43 L308.695 1418.43 L308.695 1392.07 L300.385 1393.73 L300.385 1389.48 L308.649 1387.81 L313.324 1387.81 L313.324 1418.43 L320.963 1418.43 L320.963 1422.37 L301.056 1422.37 L301.056 1418.43 Z" fill="#000000" fill-rule="nonzero" fill-opacity="1" /><path clip-path="url(#clip120)" d="M340.408 1390.89 Q336.797 1390.89 334.968 1394.45 Q333.162 1397.99 333.162 1405.12 Q333.162 1412.23 334.968 1415.8 Q336.797 1419.34 340.408 1419.34 Q344.042 1419.34 345.847 1415.8 Q347.676 1412.23 347.676 1405.12 Q347.676 1397.99 345.847 1394.45 Q344.042 1390.89 340.408 1390.89 M340.408 1387.18 Q346.218 1387.18 349.273 1391.79 Q352.352 1396.37 352.352 1405.12 Q352.352 1413.85 349.273 1418.46 Q346.218 1423.04 340.408 1423.04 Q334.598 1423.04 331.519 1418.46 Q328.463 1413.85 328.463 1405.12 Q328.463 1396.37 331.519 1391.79 Q334.598 1387.18 340.408 1387.18 Z" fill="#000000" fill-rule="nonzero" fill-opacity="1" /><path clip-path="url(#clip120)" d="M352.352 1381.29 L376.464 1381.29 L376.464 1384.48 L352.352 1384.48 L352.352 1381.29 Z" fill="#000000" fill-rule="nonzero" fill-opacity="1" /><path clip-path="url(#clip120)" d="M384.701 1366.88 L399.616 1366.88 L399.616 1370.08 L388.181 1370.08 L388.181 1376.96 Q389.008 1376.68 389.836 1376.55 Q390.663 1376.4 391.491 1376.4 Q396.193 1376.4 398.939 1378.97 Q401.685 1381.55 401.685 1385.95 Q401.685 1390.48 398.864 1393 Q396.043 1395.5 390.908 1395.5 Q389.14 1395.5 387.297 1395.2 Q385.473 1394.9 383.517 1394.3 L383.517 1390.48 Q385.209 1391.4 387.015 1391.86 Q388.82 1392.31 390.833 1392.31 Q394.086 1392.31 395.986 1390.6 Q397.886 1388.88 397.886 1385.95 Q397.886 1383.02 395.986 1381.3 Q394.086 1379.59 390.833 1379.59 Q389.309 1379.59 387.786 1379.93 Q386.281 1380.27 384.701 1380.98 L384.701 1366.88 Z" fill="#000000" fill-rule="nonzero" fill-opacity="1" /><path clip-path="url(#clip120)" d="M115.201 1143.01 L144.876 1143.01 L144.876 1146.94 L115.201 1146.94 L115.201 1143.01 Z" fill="#000000" fill-rule="nonzero" fill-opacity="1" /><path clip-path="url(#clip120)" d="M158.997 1155.9 L175.316 1155.9 L175.316 1159.83 L153.372 1159.83 L153.372 1155.9 Q156.034 1153.14 160.617 1148.52 Q165.223 1143.86 166.404 1142.52 Q168.649 1140 169.529 1138.26 Q170.432 1136.5 170.432 1134.81 Q170.432 1132.06 168.487 1130.32 Q166.566 1128.58 163.464 1128.58 Q161.265 1128.58 158.811 1129.35 Q156.381 1130.11 153.603 1131.66 L153.603 1126.94 Q156.427 1125.81 158.881 1125.23 Q161.335 1124.65 163.372 1124.65 Q168.742 1124.65 171.936 1127.33 Q175.131 1130.02 175.131 1134.51 Q175.131 1136.64 174.321 1138.56 Q173.534 1140.46 171.427 1143.05 Q170.848 1143.72 167.747 1146.94 Q164.645 1150.14 158.997 1155.9 Z" fill="#000000" fill-rule="nonzero" fill-opacity="1" /><path clip-path="url(#clip120)" d="M185.131 1153.95 L190.015 1153.95 L190.015 1159.83 L185.131 1159.83 L185.131 1153.95 Z" fill="#000000" fill-rule="nonzero" fill-opacity="1" /><path clip-path="url(#clip120)" d="M210.2 1128.35 Q206.589 1128.35 204.76 1131.92 Q202.955 1135.46 202.955 1142.59 Q202.955 1149.7 204.76 1153.26 Q206.589 1156.8 210.2 1156.8 Q213.834 1156.8 215.64 1153.26 Q217.469 1149.7 217.469 1142.59 Q217.469 1135.46 215.64 1131.92 Q213.834 1128.35 210.2 1128.35 M210.2 1124.65 Q216.01 1124.65 219.066 1129.26 Q222.144 1133.84 222.144 1142.59 Q222.144 1151.32 219.066 1155.92 Q216.01 1160.51 210.2 1160.51 Q204.39 1160.51 201.311 1155.92 Q198.256 1151.32 198.256 1142.59 Q198.256 1133.84 201.311 1129.26 Q204.39 1124.65 210.2 1124.65 Z" fill="#000000" fill-rule="nonzero" fill-opacity="1" /><path clip-path="url(#clip120)" d="M240.362 1128.35 Q236.751 1128.35 234.922 1131.92 Q233.117 1135.46 233.117 1142.59 Q233.117 1149.7 234.922 1153.26 Q236.751 1156.8 240.362 1156.8 Q243.996 1156.8 245.802 1153.26 Q247.63 1149.7 247.63 1142.59 Q247.63 1135.46 245.802 1131.92 Q243.996 1128.35 240.362 1128.35 M240.362 1124.65 Q246.172 1124.65 249.228 1129.26 Q252.306 1133.84 252.306 1142.59 Q252.306 1151.32 249.228 1155.92 Q246.172 1160.51 240.362 1160.51 Q234.552 1160.51 231.473 1155.92 Q228.418 1151.32 228.418 1142.59 Q228.418 1133.84 231.473 1129.26 Q234.552 1124.65 240.362 1124.65 Z" fill="#000000" fill-rule="nonzero" fill-opacity="1" /><path clip-path="url(#clip120)" d="M288.695 1134.37 L278.116 1145 L288.695 1155.58 L285.94 1158.38 L275.315 1147.75 L264.69 1158.38 L261.959 1155.58 L272.515 1145 L261.959 1134.37 L264.69 1131.57 L275.315 1142.2 L285.94 1131.57 L288.695 1134.37 Z" fill="#000000" fill-rule="nonzero" fill-opacity="1" /><path clip-path="url(#clip120)" d="M301.056 1155.9 L308.695 1155.9 L308.695 1129.53 L300.385 1131.2 L300.385 1126.94 L308.649 1125.27 L313.324 1125.27 L313.324 1155.9 L320.963 1155.9 L320.963 1159.83 L301.056 1159.83 L301.056 1155.9 Z" fill="#000000" fill-rule="nonzero" fill-opacity="1" /><path clip-path="url(#clip120)" d="M340.408 1128.35 Q336.797 1128.35 334.968 1131.92 Q333.162 1135.46 333.162 1142.59 Q333.162 1149.7 334.968 1153.26 Q336.797 1156.8 340.408 1156.8 Q344.042 1156.8 345.847 1153.26 Q347.676 1149.7 347.676 1142.59 Q347.676 1135.46 345.847 1131.92 Q344.042 1128.35 340.408 1128.35 M340.408 1124.65 Q346.218 1124.65 349.273 1129.26 Q352.352 1133.84 352.352 1142.59 Q352.352 1151.32 349.273 1155.92 Q346.218 1160.51 340.408 1160.51 Q334.598 1160.51 331.519 1155.92 Q328.463 1151.32 328.463 1142.59 Q328.463 1133.84 331.519 1129.26 Q334.598 1124.65 340.408 1124.65 Z" fill="#000000" fill-rule="nonzero" fill-opacity="1" /><path clip-path="url(#clip120)" d="M352.352 1118.75 L376.464 1118.75 L376.464 1121.95 L352.352 1121.95 L352.352 1118.75 Z" fill="#000000" fill-rule="nonzero" fill-opacity="1" /><path clip-path="url(#clip120)" d="M384.701 1104.34 L399.616 1104.34 L399.616 1107.54 L388.181 1107.54 L388.181 1114.43 Q389.008 1114.14 389.836 1114.01 Q390.663 1113.86 391.491 1113.86 Q396.193 1113.86 398.939 1116.44 Q401.685 1119.01 401.685 1123.42 Q401.685 1127.95 398.864 1130.47 Q396.043 1132.97 390.908 1132.97 Q389.14 1132.97 387.297 1132.67 Q385.473 1132.37 383.517 1131.77 L383.517 1127.95 Q385.209 1128.87 387.015 1129.32 Q388.82 1129.77 390.833 1129.77 Q394.086 1129.77 395.986 1128.06 Q397.886 1126.35 397.886 1123.42 Q397.886 1120.48 395.986 1118.77 Q394.086 1117.06 390.833 1117.06 Q389.309 1117.06 387.786 1117.4 Q386.281 1117.74 384.701 1118.45 L384.701 1104.34 Z" fill="#000000" fill-rule="nonzero" fill-opacity="1" /><path clip-path="url(#clip120)" d="M115.201 880.471 L144.876 880.471 L144.876 884.407 L115.201 884.407 L115.201 880.471 Z" fill="#000000" fill-rule="nonzero" fill-opacity="1" /><path clip-path="url(#clip120)" d="M155.779 893.365 L163.418 893.365 L163.418 866.999 L155.108 868.666 L155.108 864.407 L163.372 862.74 L168.047 862.74 L168.047 893.365 L175.686 893.365 L175.686 897.3 L155.779 897.3 L155.779 893.365 Z" fill="#000000" fill-rule="nonzero" fill-opacity="1" /><path clip-path="url(#clip120)" d="M185.131 891.42 L190.015 891.42 L190.015 897.3 L185.131 897.3 L185.131 891.42 Z" fill="#000000" fill-rule="nonzero" fill-opacity="1" /><path clip-path="url(#clip120)" d="M200.246 862.74 L218.603 862.74 L218.603 866.675 L204.529 866.675 L204.529 875.147 Q205.547 874.8 206.566 874.638 Q207.584 874.453 208.603 874.453 Q214.39 874.453 217.769 877.624 Q221.149 880.795 221.149 886.212 Q221.149 891.791 217.677 894.893 Q214.205 897.971 207.885 897.971 Q205.709 897.971 203.441 897.601 Q201.195 897.231 198.788 896.49 L198.788 891.791 Q200.871 892.925 203.094 893.481 Q205.316 894.036 207.793 894.036 Q211.797 894.036 214.135 891.93 Q216.473 889.823 216.473 886.212 Q216.473 882.601 214.135 880.495 Q211.797 878.388 207.793 878.388 Q205.918 878.388 204.043 878.805 Q202.191 879.221 200.246 880.101 L200.246 862.74 Z" fill="#000000" fill-rule="nonzero" fill-opacity="1" /><path clip-path="url(#clip120)" d="M240.362 865.819 Q236.751 865.819 234.922 869.384 Q233.117 872.925 233.117 880.055 Q233.117 887.161 234.922 890.726 Q236.751 894.268 240.362 894.268 Q243.996 894.268 245.802 890.726 Q247.63 887.161 247.63 880.055 Q247.63 872.925 245.802 869.384 Q243.996 865.819 240.362 865.819 M240.362 862.115 Q246.172 862.115 249.228 866.721 Q252.306 871.305 252.306 880.055 Q252.306 888.782 249.228 893.388 Q246.172 897.971 240.362 897.971 Q234.552 897.971 231.473 893.388 Q228.418 888.782 228.418 880.055 Q228.418 871.305 231.473 866.721 Q234.552 862.115 240.362 862.115 Z" fill="#000000" fill-rule="nonzero" fill-opacity="1" /><path clip-path="url(#clip120)" d="M288.695 871.837 L278.116 882.462 L288.695 893.041 L285.94 895.842 L275.315 885.217 L264.69 895.842 L261.959 893.041 L272.515 882.462 L261.959 871.837 L264.69 869.036 L275.315 879.661 L285.94 869.036 L288.695 871.837 Z" fill="#000000" fill-rule="nonzero" fill-opacity="1" /><path clip-path="url(#clip120)" d="M301.056 893.365 L308.695 893.365 L308.695 866.999 L300.385 868.666 L300.385 864.407 L308.649 862.74 L313.324 862.74 L313.324 893.365 L320.963 893.365 L320.963 897.3 L301.056 897.3 L301.056 893.365 Z" fill="#000000" fill-rule="nonzero" fill-opacity="1" /><path clip-path="url(#clip120)" d="M340.408 865.819 Q336.797 865.819 334.968 869.384 Q333.162 872.925 333.162 880.055 Q333.162 887.161 334.968 890.726 Q336.797 894.268 340.408 894.268 Q344.042 894.268 345.847 890.726 Q347.676 887.161 347.676 880.055 Q347.676 872.925 345.847 869.384 Q344.042 865.819 340.408 865.819 M340.408 862.115 Q346.218 862.115 349.273 866.721 Q352.352 871.305 352.352 880.055 Q352.352 888.782 349.273 893.388 Q346.218 897.971 340.408 897.971 Q334.598 897.971 331.519 893.388 Q328.463 888.782 328.463 880.055 Q328.463 871.305 331.519 866.721 Q334.598 862.115 340.408 862.115 Z" fill="#000000" fill-rule="nonzero" fill-opacity="1" /><path clip-path="url(#clip120)" d="M352.352 856.216 L376.464 856.216 L376.464 859.414 L352.352 859.414 L352.352 856.216 Z" fill="#000000" fill-rule="nonzero" fill-opacity="1" /><path clip-path="url(#clip120)" d="M384.701 841.81 L399.616 841.81 L399.616 845.007 L388.181 845.007 L388.181 851.891 Q389.008 851.608 389.836 851.477 Q390.663 851.326 391.491 851.326 Q396.193 851.326 398.939 853.903 Q401.685 856.48 401.685 860.881 Q401.685 865.413 398.864 867.934 Q396.043 870.435 390.908 870.435 Q389.14 870.435 387.297 870.134 Q385.473 869.833 383.517 869.231 L383.517 865.413 Q385.209 866.335 387.015 866.786 Q388.82 867.238 390.833 867.238 Q394.086 867.238 395.986 865.526 Q397.886 863.815 397.886 860.881 Q397.886 857.947 395.986 856.235 Q394.086 854.524 390.833 854.524 Q389.309 854.524 387.786 854.862 Q386.281 855.201 384.701 855.915 L384.701 841.81 Z" fill="#000000" fill-rule="nonzero" fill-opacity="1" /><path clip-path="url(#clip120)" d="M115.201 617.937 L144.876 617.937 L144.876 621.872 L115.201 621.872 L115.201 617.937 Z" fill="#000000" fill-rule="nonzero" fill-opacity="1" /><path clip-path="url(#clip120)" d="M155.779 630.83 L163.418 630.83 L163.418 604.465 L155.108 606.131 L155.108 601.872 L163.372 600.205 L168.047 600.205 L168.047 630.83 L175.686 630.83 L175.686 634.765 L155.779 634.765 L155.779 630.83 Z" fill="#000000" fill-rule="nonzero" fill-opacity="1" /><path clip-path="url(#clip120)" d="M185.131 628.886 L190.015 628.886 L190.015 634.765 L185.131 634.765 L185.131 628.886 Z" fill="#000000" fill-rule="nonzero" fill-opacity="1" /><path clip-path="url(#clip120)" d="M210.2 603.284 Q206.589 603.284 204.76 606.849 Q202.955 610.391 202.955 617.52 Q202.955 624.627 204.76 628.191 Q206.589 631.733 210.2 631.733 Q213.834 631.733 215.64 628.191 Q217.469 624.627 217.469 617.52 Q217.469 610.391 215.64 606.849 Q213.834 603.284 210.2 603.284 M210.2 599.58 Q216.01 599.58 219.066 604.187 Q222.144 608.77 222.144 617.52 Q222.144 626.247 219.066 630.853 Q216.01 635.437 210.2 635.437 Q204.39 635.437 201.311 630.853 Q198.256 626.247 198.256 617.52 Q198.256 608.77 201.311 604.187 Q204.39 599.58 210.2 599.58 Z" fill="#000000" fill-rule="nonzero" fill-opacity="1" /><path clip-path="url(#clip120)" d="M240.362 603.284 Q236.751 603.284 234.922 606.849 Q233.117 610.391 233.117 617.52 Q233.117 624.627 234.922 628.191 Q236.751 631.733 240.362 631.733 Q243.996 631.733 245.802 628.191 Q247.63 624.627 247.63 617.52 Q247.63 610.391 245.802 606.849 Q243.996 603.284 240.362 603.284 M240.362 599.58 Q246.172 599.58 249.228 604.187 Q252.306 608.77 252.306 617.52 Q252.306 626.247 249.228 630.853 Q246.172 635.437 240.362 635.437 Q234.552 635.437 231.473 630.853 Q228.418 626.247 228.418 617.52 Q228.418 608.77 231.473 604.187 Q234.552 599.58 240.362 599.58 Z" fill="#000000" fill-rule="nonzero" fill-opacity="1" /><path clip-path="url(#clip120)" d="M288.695 609.303 L278.116 619.928 L288.695 630.506 L285.94 633.307 L275.315 622.682 L264.69 633.307 L261.959 630.506 L272.515 619.928 L261.959 609.303 L264.69 606.502 L275.315 617.127 L285.94 606.502 L288.695 609.303 Z" fill="#000000" fill-rule="nonzero" fill-opacity="1" /><path clip-path="url(#clip120)" d="M301.056 630.83 L308.695 630.83 L308.695 604.465 L300.385 606.131 L300.385 601.872 L308.649 600.205 L313.324 600.205 L313.324 630.83 L320.963 630.83 L320.963 634.765 L301.056 634.765 L301.056 630.83 Z" fill="#000000" fill-rule="nonzero" fill-opacity="1" /><path clip-path="url(#clip120)" d="M340.408 603.284 Q336.797 603.284 334.968 606.849 Q333.162 610.391 333.162 617.52 Q333.162 624.627 334.968 628.191 Q336.797 631.733 340.408 631.733 Q344.042 631.733 345.847 628.191 Q347.676 624.627 347.676 617.52 Q347.676 610.391 345.847 606.849 Q344.042 603.284 340.408 603.284 M340.408 599.58 Q346.218 599.58 349.273 604.187 Q352.352 608.77 352.352 617.52 Q352.352 626.247 349.273 630.853 Q346.218 635.437 340.408 635.437 Q334.598 635.437 331.519 630.853 Q328.463 626.247 328.463 617.52 Q328.463 608.77 331.519 604.187 Q334.598 599.58 340.408 599.58 Z" fill="#000000" fill-rule="nonzero" fill-opacity="1" /><path clip-path="url(#clip120)" d="M352.352 593.682 L376.464 593.682 L376.464 596.879 L352.352 596.879 L352.352 593.682 Z" fill="#000000" fill-rule="nonzero" fill-opacity="1" /><path clip-path="url(#clip120)" d="M384.701 579.275 L399.616 579.275 L399.616 582.472 L388.181 582.472 L388.181 589.356 Q389.008 589.074 389.836 588.942 Q390.663 588.792 391.491 588.792 Q396.193 588.792 398.939 591.368 Q401.685 593.945 401.685 598.346 Q401.685 602.879 398.864 605.399 Q396.043 607.901 390.908 607.901 Q389.14 607.901 387.297 607.6 Q385.473 607.299 383.517 606.697 L383.517 602.879 Q385.209 603.8 387.015 604.252 Q388.82 604.703 390.833 604.703 Q394.086 604.703 395.986 602.992 Q397.886 601.28 397.886 598.346 Q397.886 595.412 395.986 593.701 Q394.086 591.989 390.833 591.989 Q389.309 591.989 387.786 592.328 Q386.281 592.666 384.701 593.381 L384.701 579.275 Z" fill="#000000" fill-rule="nonzero" fill-opacity="1" /><path clip-path="url(#clip120)" d="M114.26 355.402 L143.936 355.402 L143.936 359.337 L114.26 359.337 L114.26 355.402 Z" fill="#000000" fill-rule="nonzero" fill-opacity="1" /><path clip-path="url(#clip120)" d="M154.075 337.671 L172.431 337.671 L172.431 341.606 L158.357 341.606 L158.357 350.078 Q159.376 349.731 160.394 349.569 Q161.413 349.384 162.431 349.384 Q168.218 349.384 171.598 352.555 Q174.977 355.726 174.977 361.143 Q174.977 366.722 171.505 369.824 Q168.033 372.902 161.714 372.902 Q159.538 372.902 157.269 372.532 Q155.024 372.161 152.616 371.421 L152.616 366.722 Q154.7 367.856 156.922 368.412 Q159.144 368.967 161.621 368.967 Q165.626 368.967 167.964 366.861 Q170.302 364.754 170.302 361.143 Q170.302 357.532 167.964 355.425 Q165.626 353.319 161.621 353.319 Q159.746 353.319 157.871 353.736 Q156.019 354.152 154.075 355.032 L154.075 337.671 Z" fill="#000000" fill-rule="nonzero" fill-opacity="1" /><path clip-path="url(#clip120)" d="M184.19 366.351 L189.075 366.351 L189.075 372.231 L184.19 372.231 L184.19 366.351 Z" fill="#000000" fill-rule="nonzero" fill-opacity="1" /><path clip-path="url(#clip120)" d="M209.26 340.75 Q205.649 340.75 203.82 344.314 Q202.014 347.856 202.014 354.986 Q202.014 362.092 203.82 365.657 Q205.649 369.199 209.26 369.199 Q212.894 369.199 214.699 365.657 Q216.528 362.092 216.528 354.986 Q216.528 347.856 214.699 344.314 Q212.894 340.75 209.26 340.75 M209.26 337.046 Q215.07 337.046 218.125 341.652 Q221.204 346.236 221.204 354.986 Q221.204 363.712 218.125 368.319 Q215.07 372.902 209.26 372.902 Q203.449 372.902 200.371 368.319 Q197.315 363.712 197.315 354.986 Q197.315 346.236 200.371 341.652 Q203.449 337.046 209.26 337.046 Z" fill="#000000" fill-rule="nonzero" fill-opacity="1" /><path clip-path="url(#clip120)" d="M239.422 340.75 Q235.81 340.75 233.982 344.314 Q232.176 347.856 232.176 354.986 Q232.176 362.092 233.982 365.657 Q235.81 369.199 239.422 369.199 Q243.056 369.199 244.861 365.657 Q246.69 362.092 246.69 354.986 Q246.69 347.856 244.861 344.314 Q243.056 340.75 239.422 340.75 M239.422 337.046 Q245.232 337.046 248.287 341.652 Q251.366 346.236 251.366 354.986 Q251.366 363.712 248.287 368.319 Q245.232 372.902 239.422 372.902 Q233.611 372.902 230.533 368.319 Q227.477 363.712 227.477 354.986 Q227.477 346.236 230.533 341.652 Q233.611 337.046 239.422 337.046 Z" fill="#000000" fill-rule="nonzero" fill-opacity="1" /><path clip-path="url(#clip120)" d="M287.755 346.768 L277.176 357.393 L287.755 367.972 L285 370.773 L274.375 360.148 L263.75 370.773 L261.019 367.972 L271.574 357.393 L261.019 346.768 L263.75 343.967 L274.375 354.592 L285 343.967 L287.755 346.768 Z" fill="#000000" fill-rule="nonzero" fill-opacity="1" /><path clip-path="url(#clip120)" d="M300.116 368.296 L307.754 368.296 L307.754 341.93 L299.444 343.597 L299.444 339.338 L307.708 337.671 L312.384 337.671 L312.384 368.296 L320.023 368.296 L320.023 372.231 L300.116 372.231 L300.116 368.296 Z" fill="#000000" fill-rule="nonzero" fill-opacity="1" /><path clip-path="url(#clip120)" d="M339.467 340.75 Q335.856 340.75 334.027 344.314 Q332.222 347.856 332.222 354.986 Q332.222 362.092 334.027 365.657 Q335.856 369.199 339.467 369.199 Q343.102 369.199 344.907 365.657 Q346.736 362.092 346.736 354.986 Q346.736 347.856 344.907 344.314 Q343.102 340.75 339.467 340.75 M339.467 337.046 Q345.277 337.046 348.333 341.652 Q351.412 346.236 351.412 354.986 Q351.412 363.712 348.333 368.319 Q345.277 372.902 339.467 372.902 Q333.657 372.902 330.578 368.319 Q327.523 363.712 327.523 354.986 Q327.523 346.236 330.578 341.652 Q333.657 337.046 339.467 337.046 Z" fill="#000000" fill-rule="nonzero" fill-opacity="1" /><path clip-path="url(#clip120)" d="M351.412 331.147 L375.523 331.147 L375.523 334.345 L351.412 334.345 L351.412 331.147 Z" fill="#000000" fill-rule="nonzero" fill-opacity="1" /><path clip-path="url(#clip120)" d="M392.319 329.267 Q389.761 329.267 388.256 331.016 Q386.77 332.765 386.77 335.812 Q386.77 338.84 388.256 340.608 Q389.761 342.357 392.319 342.357 Q394.876 342.357 396.362 340.608 Q397.867 338.84 397.867 335.812 Q397.867 332.765 396.362 331.016 Q394.876 329.267 392.319 329.267 M399.86 317.361 L399.86 320.822 Q398.431 320.145 396.964 319.787 Q395.516 319.43 394.086 319.43 Q390.325 319.43 388.331 321.969 Q386.357 324.508 386.074 329.643 Q387.184 328.006 388.858 327.141 Q390.532 326.257 392.544 326.257 Q396.776 326.257 399.221 328.834 Q401.685 331.392 401.685 335.812 Q401.685 340.137 399.127 342.752 Q396.569 345.366 392.319 345.366 Q387.447 345.366 384.871 341.642 Q382.294 337.899 382.294 330.809 Q382.294 324.151 385.454 320.201 Q388.613 316.233 393.936 316.233 Q395.365 316.233 396.814 316.515 Q398.281 316.797 399.86 317.361 Z" fill="#000000" fill-rule="nonzero" fill-opacity="1" /><path clip-path="url(#clip120)" d="M389.74 71.7675 Q386.129 71.7675 384.301 75.3323 Q382.495 78.8739 382.495 86.0035 Q382.495 93.11 384.301 96.6748 Q386.129 100.216 389.74 100.216 Q393.375 100.216 395.18 96.6748 Q397.009 93.11 397.009 86.0035 Q397.009 78.8739 395.18 75.3323 Q393.375 71.7675 389.74 71.7675 M389.74 68.0638 Q395.551 68.0638 398.606 72.6703 Q401.685 77.2536 401.685 86.0035 Q401.685 94.7303 398.606 99.3368 Q395.551 103.92 389.74 103.92 Q383.93 103.92 380.852 99.3368 Q377.796 94.7303 377.796 86.0035 Q377.796 77.2536 380.852 72.6703 Q383.93 68.0638 389.74 68.0638 Z" fill="#000000" fill-rule="nonzero" fill-opacity="1" /><path clip-path="url(#clip120)" d="M33.8307 1138.81 Q33.2578 1139.8 33.0032 1140.98 Q32.7167 1142.12 32.7167 1143.52 Q32.7167 1148.49 35.9632 1151.16 Q39.1779 1153.8 45.2253 1153.8 L64.0042 1153.8 L64.0042 1159.69 L28.3562 1159.69 L28.3562 1153.8 L33.8944 1153.8 Q30.6479 1151.96 29.0883 1149 Q27.4968 1146.04 27.4968 1141.81 Q27.4968 1141.2 27.5923 1140.47 Q27.656 1139.74 27.8151 1138.85 L33.8307 1138.81 Z" fill="#000000" fill-rule="nonzero" fill-opacity="1" /><path clip-path="url(#clip120)" d="M46.0847 1116.47 Q46.0847 1123.57 47.7079 1126.31 Q49.3312 1129.04 53.2461 1129.04 Q56.3653 1129.04 58.2114 1127.01 Q60.0256 1124.94 60.0256 1121.4 Q60.0256 1116.53 56.5881 1113.61 Q53.1188 1110.65 47.3897 1110.65 L46.0847 1110.65 L46.0847 1116.47 M43.6657 1104.79 L64.0042 1104.79 L64.0042 1110.65 L58.5933 1110.65 Q61.8398 1112.65 63.3994 1115.64 Q64.9272 1118.63 64.9272 1122.96 Q64.9272 1128.44 61.8716 1131.68 Q58.7843 1134.9 53.6281 1134.9 Q47.6125 1134.9 44.5569 1130.89 Q41.5014 1126.85 41.5014 1118.86 L41.5014 1110.65 L40.9285 1110.65 Q36.8862 1110.65 34.6901 1113.32 Q32.4621 1115.96 32.4621 1120.77 Q32.4621 1123.82 33.1941 1126.72 Q33.9262 1129.62 35.3903 1132.29 L29.9795 1132.29 Q28.7381 1129.07 28.1334 1126.05 Q27.4968 1123.03 27.4968 1120.16 Q27.4968 1112.43 31.5072 1108.61 Q35.5176 1104.79 43.6657 1104.79 Z" fill="#000000" fill-rule="nonzero" fill-opacity="1" /><path clip-path="url(#clip120)" d="M28.3562 1092.73 L28.3562 1086.87 L64.0042 1086.87 L64.0042 1092.73 L28.3562 1092.73 M14.479 1092.73 L14.479 1086.87 L21.895 1086.87 L21.895 1092.73 L14.479 1092.73 Z" fill="#000000" fill-rule="nonzero" fill-opacity="1" /><path clip-path="url(#clip120)" d="M42.4881 1044.98 L64.0042 1044.98 L64.0042 1050.84 L42.679 1050.84 Q37.6183 1050.84 35.1038 1052.81 Q32.5894 1054.79 32.5894 1058.73 Q32.5894 1063.48 35.6131 1066.21 Q38.6368 1068.95 43.8567 1068.95 L64.0042 1068.95 L64.0042 1074.84 L28.3562 1074.84 L28.3562 1068.95 L33.8944 1068.95 Q30.6797 1066.85 29.0883 1064.02 Q27.4968 1061.15 27.4968 1057.43 Q27.4968 1051.29 31.3163 1048.13 Q35.1038 1044.98 42.4881 1044.98 Z" fill="#000000" fill-rule="nonzero" fill-opacity="1" /><path clip-path="url(#clip120)" d="M44.7161 982.09 L47.5806 982.09 L47.5806 1009.02 Q53.6281 1008.63 56.8109 1005.39 Q59.9619 1002.11 59.9619 996.286 Q59.9619 992.912 59.1344 989.761 Q58.3069 986.578 56.6518 983.459 L62.1899 983.459 Q63.5267 986.61 64.227 989.92 Q64.9272 993.23 64.9272 996.636 Q64.9272 1005.17 59.9619 1010.16 Q54.9967 1015.13 46.5303 1015.13 Q37.7774 1015.13 32.6531 1010.42 Q27.4968 1005.67 27.4968 997.654 Q27.4968 990.461 32.1438 986.291 Q36.7589 982.09 44.7161 982.09 M42.9973 987.946 Q38.1912 988.01 35.3266 990.652 Q32.4621 993.262 32.4621 997.59 Q32.4621 1002.49 35.2312 1005.45 Q38.0002 1008.38 43.0292 1008.83 L42.9973 987.946 Z" fill="#000000" fill-rule="nonzero" fill-opacity="1" /><path clip-path="url(#clip120)" d="M28.3562 976.679 L28.3562 970.473 L58.275 959.333 L28.3562 948.193 L28.3562 941.986 L64.0042 955.354 L64.0042 963.311 L28.3562 976.679 Z" fill="#000000" fill-rule="nonzero" fill-opacity="1" /><path clip-path="url(#clip120)" d="M46.0847 917.701 Q46.0847 924.799 47.7079 927.536 Q49.3312 930.273 53.2461 930.273 Q56.3653 930.273 58.2114 928.236 Q60.0256 926.167 60.0256 922.634 Q60.0256 917.765 56.5881 914.836 Q53.1188 911.876 47.3897 911.876 L46.0847 911.876 L46.0847 917.701 M43.6657 906.02 L64.0042 906.02 L64.0042 911.876 L58.5933 911.876 Q61.8398 913.881 63.3994 916.873 Q64.9272 919.865 64.9272 924.194 Q64.9272 929.668 61.8716 932.915 Q58.7843 936.13 53.6281 936.13 Q47.6125 936.13 44.5569 932.119 Q41.5014 928.077 41.5014 920.088 L41.5014 911.876 L40.9285 911.876 Q36.8862 911.876 34.6901 914.55 Q32.4621 917.192 32.4621 921.998 Q32.4621 925.053 33.1941 927.95 Q33.9262 930.846 35.3903 933.52 L29.9795 933.52 Q28.7381 930.305 28.1334 927.281 Q27.4968 924.258 27.4968 921.393 Q27.4968 913.659 31.5072 909.839 Q35.5176 906.02 43.6657 906.02 Z" fill="#000000" fill-rule="nonzero" fill-opacity="1" /><path clip-path="url(#clip120)" d="M58.657 888.291 L77.5631 888.291 L77.5631 894.18 L28.3562 894.18 L28.3562 888.291 L33.7671 888.291 Q30.5842 886.445 29.0564 883.644 Q27.4968 880.812 27.4968 876.897 Q27.4968 870.404 32.6531 866.361 Q37.8093 862.287 46.212 862.287 Q54.6147 862.287 59.771 866.361 Q64.9272 870.404 64.9272 876.897 Q64.9272 880.812 63.3994 883.644 Q61.8398 886.445 58.657 888.291 M46.212 868.367 Q39.7508 868.367 36.0905 871.04 Q32.3984 873.682 32.3984 878.329 Q32.3984 882.976 36.0905 885.65 Q39.7508 888.291 46.212 888.291 Q52.6732 888.291 56.3653 885.65 Q60.0256 882.976 60.0256 878.329 Q60.0256 873.682 56.3653 871.04 Q52.6732 868.367 46.212 868.367 Z" fill="#000000" fill-rule="nonzero" fill-opacity="1" /><path clip-path="url(#clip120)" d="M32.4621 838.766 Q32.4621 843.477 36.1542 846.214 Q39.8145 848.951 46.212 848.951 Q52.6095 848.951 56.3017 846.246 Q59.9619 843.509 59.9619 838.766 Q59.9619 834.087 56.2698 831.35 Q52.5777 828.613 46.212 828.613 Q39.8781 828.613 36.186 831.35 Q32.4621 834.087 32.4621 838.766 M27.4968 838.766 Q27.4968 831.127 32.4621 826.767 Q37.4273 822.406 46.212 822.406 Q54.9649 822.406 59.9619 826.767 Q64.9272 831.127 64.9272 838.766 Q64.9272 846.437 59.9619 850.797 Q54.9649 855.126 46.212 855.126 Q37.4273 855.126 32.4621 850.797 Q27.4968 846.437 27.4968 838.766 Z" fill="#000000" fill-rule="nonzero" fill-opacity="1" /><path clip-path="url(#clip120)" d="M33.8307 792.042 Q33.2578 793.028 33.0032 794.206 Q32.7167 795.352 32.7167 796.752 Q32.7167 801.718 35.9632 804.391 Q39.1779 807.033 45.2253 807.033 L64.0042 807.033 L64.0042 812.921 L28.3562 812.921 L28.3562 807.033 L33.8944 807.033 Q30.6479 805.187 29.0883 802.227 Q27.4968 799.267 27.4968 795.034 Q27.4968 794.429 27.5923 793.697 Q27.656 792.965 27.8151 792.074 L33.8307 792.042 Z" fill="#000000" fill-rule="nonzero" fill-opacity="1" /><path clip-path="url(#clip120)" d="M46.0847 769.698 Q46.0847 776.796 47.7079 779.533 Q49.3312 782.27 53.2461 782.27 Q56.3653 782.27 58.2114 780.233 Q60.0256 778.165 60.0256 774.632 Q60.0256 769.762 56.5881 766.834 Q53.1188 763.874 47.3897 763.874 L46.0847 763.874 L46.0847 769.698 M43.6657 758.017 L64.0042 758.017 L64.0042 763.874 L58.5933 763.874 Q61.8398 765.879 63.3994 768.871 Q64.9272 771.863 64.9272 776.191 Q64.9272 781.666 61.8716 784.912 Q58.7843 788.127 53.6281 788.127 Q47.6125 788.127 44.5569 784.117 Q41.5014 780.074 41.5014 772.085 L41.5014 763.874 L40.9285 763.874 Q36.8862 763.874 34.6901 766.547 Q32.4621 769.189 32.4621 773.995 Q32.4621 777.051 33.1941 779.947 Q33.9262 782.843 35.3903 785.517 L29.9795 785.517 Q28.7381 782.302 28.1334 779.279 Q27.4968 776.255 27.4968 773.39 Q27.4968 765.656 31.5072 761.837 Q35.5176 758.017 43.6657 758.017 Z" fill="#000000" fill-rule="nonzero" fill-opacity="1" /><path clip-path="url(#clip120)" d="M18.2347 740.161 L28.3562 740.161 L28.3562 728.098 L32.9077 728.098 L32.9077 740.161 L52.2594 740.161 Q56.6199 740.161 57.8613 738.984 Q59.1026 737.774 59.1026 734.114 L59.1026 728.098 L64.0042 728.098 L64.0042 734.114 Q64.0042 740.893 61.4897 743.471 Q58.9434 746.05 52.2594 746.05 L32.9077 746.05 L32.9077 750.346 L28.3562 750.346 L28.3562 746.05 L18.2347 746.05 L18.2347 740.161 Z" fill="#000000" fill-rule="nonzero" fill-opacity="1" /><path clip-path="url(#clip120)" d="M28.3562 720.396 L28.3562 714.539 L64.0042 714.539 L64.0042 720.396 L28.3562 720.396 M14.479 720.396 L14.479 714.539 L21.895 714.539 L21.895 720.396 L14.479 720.396 Z" fill="#000000" fill-rule="nonzero" fill-opacity="1" /><path clip-path="url(#clip120)" d="M32.4621 688.472 Q32.4621 693.182 36.1542 695.92 Q39.8145 698.657 46.212 698.657 Q52.6095 698.657 56.3017 695.951 Q59.9619 693.214 59.9619 688.472 Q59.9619 683.793 56.2698 681.056 Q52.5777 678.318 46.212 678.318 Q39.8781 678.318 36.186 681.056 Q32.4621 683.793 32.4621 688.472 M27.4968 688.472 Q27.4968 680.833 32.4621 676.472 Q37.4273 672.112 46.212 672.112 Q54.9649 672.112 59.9619 676.472 Q64.9272 680.833 64.9272 688.472 Q64.9272 696.142 59.9619 700.503 Q54.9649 704.832 46.212 704.832 Q37.4273 704.832 32.4621 700.503 Q27.4968 696.142 27.4968 688.472 Z" fill="#000000" fill-rule="nonzero" fill-opacity="1" /><path clip-path="url(#clip120)" d="M42.4881 632.772 L64.0042 632.772 L64.0042 638.628 L42.679 638.628 Q37.6183 638.628 35.1038 640.602 Q32.5894 642.575 32.5894 646.522 Q32.5894 651.264 35.6131 654.001 Q38.6368 656.739 43.8567 656.739 L64.0042 656.739 L64.0042 662.627 L28.3562 662.627 L28.3562 656.739 L33.8944 656.739 Q30.6797 654.638 29.0883 651.805 Q27.4968 648.941 27.4968 645.217 Q27.4968 639.074 31.3163 635.923 Q35.1038 632.772 42.4881 632.772 Z" fill="#000000" fill-rule="nonzero" fill-opacity="1" /><path clip-path="url(#clip120)" d="M33.8307 579.714 Q33.2578 580.7 33.0032 581.878 Q32.7167 583.024 32.7167 584.424 Q32.7167 589.39 35.9632 592.063 Q39.1779 594.705 45.2253 594.705 L64.0042 594.705 L64.0042 600.593 L28.3562 600.593 L28.3562 594.705 L33.8944 594.705 Q30.6479 592.859 29.0883 589.899 Q27.4968 586.939 27.4968 582.706 Q27.4968 582.101 27.5923 581.369 Q27.656 580.637 27.8151 579.745 L33.8307 579.714 Z" fill="#000000" fill-rule="nonzero" fill-opacity="1" /><path clip-path="url(#clip120)" d="M46.0847 557.37 Q46.0847 564.468 47.7079 567.205 Q49.3312 569.942 53.2461 569.942 Q56.3653 569.942 58.2114 567.905 Q60.0256 565.836 60.0256 562.303 Q60.0256 557.434 56.5881 554.505 Q53.1188 551.545 47.3897 551.545 L46.0847 551.545 L46.0847 557.37 M43.6657 545.689 L64.0042 545.689 L64.0042 551.545 L58.5933 551.545 Q61.8398 553.551 63.3994 556.542 Q64.9272 559.534 64.9272 563.863 Q64.9272 569.338 61.8716 572.584 Q58.7843 575.799 53.6281 575.799 Q47.6125 575.799 44.5569 571.788 Q41.5014 567.746 41.5014 559.757 L41.5014 551.545 L40.9285 551.545 Q36.8862 551.545 34.6901 554.219 Q32.4621 556.861 32.4621 561.667 Q32.4621 564.722 33.1941 567.619 Q33.9262 570.515 35.3903 573.189 L29.9795 573.189 Q28.7381 569.974 28.1334 566.95 Q27.4968 563.927 27.4968 561.062 Q27.4968 553.328 31.5072 549.508 Q35.5176 545.689 43.6657 545.689 Z" fill="#000000" fill-rule="nonzero" fill-opacity="1" /><path clip-path="url(#clip120)" d="M18.2347 527.833 L28.3562 527.833 L28.3562 515.77 L32.9077 515.77 L32.9077 527.833 L52.2594 527.833 Q56.6199 527.833 57.8613 526.656 Q59.1026 525.446 59.1026 521.786 L59.1026 515.77 L64.0042 515.77 L64.0042 521.786 Q64.0042 528.565 61.4897 531.143 Q58.9434 533.721 52.2594 533.721 L32.9077 533.721 L32.9077 538.018 L28.3562 538.018 L28.3562 533.721 L18.2347 533.721 L18.2347 527.833 Z" fill="#000000" fill-rule="nonzero" fill-opacity="1" /><path clip-path="url(#clip120)" d="M44.7161 477.576 L47.5806 477.576 L47.5806 504.503 Q53.6281 504.121 56.8109 500.874 Q59.9619 497.596 59.9619 491.771 Q59.9619 488.398 59.1344 485.247 Q58.3069 482.064 56.6518 478.945 L62.1899 478.945 Q63.5267 482.096 64.227 485.406 Q64.9272 488.716 64.9272 492.122 Q64.9272 500.652 59.9619 505.649 Q54.9967 510.614 46.5303 510.614 Q37.7774 510.614 32.6531 505.903 Q27.4968 501.161 27.4968 493.14 Q27.4968 485.947 32.1438 481.777 Q36.7589 477.576 44.7161 477.576 M42.9973 483.432 Q38.1912 483.496 35.3266 486.138 Q32.4621 488.748 32.4621 493.076 Q32.4621 497.978 35.2312 500.938 Q38.0002 503.866 43.0292 504.312 L42.9973 483.432 Z" fill="#000000" fill-rule="nonzero" fill-opacity="1" /><path clip-path="url(#clip120)" d="M14.479 447.784 L14.479 434.289 L19.0304 434.289 L19.0304 441.928 L68.0464 441.928 L68.0464 434.289 L72.5979 434.289 L72.5979 447.784 L14.479 447.784 Z" fill="#000000" fill-rule="nonzero" fill-opacity="1" /><path clip-path="url(#clip120)" d="M58.5933 419.871 L58.5933 409.367 L22.3406 409.367 L24.6323 420.794 L18.7758 420.794 L16.4842 409.431 L16.4842 403.002 L58.5933 403.002 L58.5933 392.498 L64.0042 392.498 L64.0042 419.871 L58.5933 419.871 Z" fill="#000000" fill-rule="nonzero" fill-opacity="1" /><path clip-path="url(#clip120)" d="M16.4842 369.932 L16.4842 364.521 L70.0516 381.072 L70.0516 386.483 L16.4842 369.932 Z" fill="#000000" fill-rule="nonzero" fill-opacity="1" /><path clip-path="url(#clip120)" d="M29.4065 335.652 L34.9447 335.652 Q33.6716 338.135 33.035 340.809 Q32.3984 343.482 32.3984 346.347 Q32.3984 350.707 33.7352 352.904 Q35.072 355.068 37.7456 355.068 Q39.7826 355.068 40.9603 353.508 Q42.1061 351.949 43.1565 347.238 L43.6021 345.233 Q44.9389 338.994 47.3897 336.385 Q49.8086 333.743 54.1691 333.743 Q59.1344 333.743 62.0308 337.69 Q64.9272 341.604 64.9272 348.479 Q64.9272 351.344 64.3543 354.463 Q63.8132 357.551 62.6992 360.988 L56.6518 360.988 Q58.3387 357.741 59.198 354.59 Q60.0256 351.439 60.0256 348.352 Q60.0256 344.214 58.6251 341.986 Q57.1929 339.758 54.6147 339.758 Q52.2276 339.758 50.9545 341.382 Q49.6813 342.973 48.5037 348.416 L48.0262 350.453 Q46.8804 355.895 44.5251 358.314 Q42.138 360.733 38.0002 360.733 Q32.9713 360.733 30.2341 357.169 Q27.4968 353.604 27.4968 347.047 Q27.4968 343.801 27.9743 340.936 Q28.4517 338.071 29.4065 335.652 Z" fill="#000000" fill-rule="nonzero" fill-opacity="1" /><path clip-path="url(#clip120)" d="M14.479 310.731 L72.5979 310.731 L72.5979 324.226 L68.0464 324.226 L68.0464 316.619 L19.0304 316.619 L19.0304 324.226 L14.479 324.226 L14.479 310.731 Z" fill="#000000" fill-rule="nonzero" fill-opacity="1" /><polyline clip-path="url(#clip122)" style="stroke:#009af9; stroke-linecap:round; stroke-linejoin:round; stroke-width:12; stroke-opacity:1; fill:none" points="491.885,86.2915 510.134,141.475 528.383,172.886 546.633,199.359 564.882,223.184 583.131,245.292 601.38,266.174 619.629,286.13 637.879,305.359 656.128,324 674.377,342.156 692.626,359.907 710.875,377.312 729.125,394.422 747.374,411.276 765.623,427.907 783.872,444.344 802.121,460.61 820.371,476.725 838.62,492.707 856.869,508.571 875.118,524.33 893.367,539.996 911.617,555.579 929.866,571.089 948.115,586.534 966.364,601.922 984.613,617.259 1002.86,632.551 1021.11,647.805 1039.36,663.025 1057.61,678.215 1075.86,693.381 1094.11,708.526 1112.36,723.654 1130.61,738.768 1148.86,751.651 1167.11,763.763 1185.35,775.767 1203.6,787.665 1221.85,799.461 1240.1,811.159 1258.35,822.762 1276.6,834.273 1294.85,845.695 1313.1,857.031 1331.35,868.283 1349.6,879.453 1367.85,890.544 1386.1,901.559 1404.34,912.498 1422.59,923.365 1440.84,934.161 1459.09,944.888 1477.34,955.548 1495.59,966.142 1513.84,976.672 1532.09,987.139 1550.34,997.546 1568.59,1007.89 1586.84,1018.18 1605.09,1028.41 1623.34,1038.59 1641.58,1048.71 1659.83,1058.78 1678.08,1068.79 1696.33,1078.76 1714.58,1088.67 1732.83,1098.54 1751.08,1108.36 1769.33,1118.13 1787.58,1127.85 1805.83,1137.53 1824.08,1147.16 1842.33,1156.75 1860.57,1166.3 1878.82,1175.81 1897.07,1185.27 1915.32,1194.69 1933.57,1204.07 1951.82,1213.42 1970.07,1222.72 1988.32,1231.99 2006.57,1241.22 2024.82,1250.41 2043.07,1259.57 2061.32,1268.69 2079.57,1277.77 2097.81,1286.82 2116.06,1295.84 2134.31,1304.82 2152.56,1313.77 2170.81,1322.69 2189.06,1331.57 2207.31,1340.43 2225.56,1349.25 2243.81,1358.04 2262.06,1366.8 2280.31,1375.54 2298.56,1384.24 "/>
<polyline clip-path="url(#clip122)" style="stroke:#e26f46; stroke-linecap:round; stroke-linejoin:round; stroke-width:12; stroke-opacity:1; fill:none" points="491.885,86.1857 510.134,132.95 528.383,160.98 546.633,184.771 564.882,206.192 583.131,226.015 601.38,244.658 619.629,262.375 637.879,279.339 656.128,295.673 674.377,311.467 692.626,326.793 710.875,341.705 729.125,356.248 747.374,370.46 765.623,384.371 783.872,398.007 802.121,411.392 820.371,424.543 838.62,437.479 856.869,450.213 875.118,462.759 893.367,475.129 911.617,487.333 929.866,499.38 948.115,511.28 966.364,523.039 984.613,534.665 1002.86,546.165 1021.11,557.543 1039.36,568.806 1057.61,579.959 1075.86,591.006 1094.11,601.951 1112.36,612.799 1130.61,623.553 1148.86,634.217 1167.11,644.794 1185.35,655.287 1203.6,665.699 1221.85,676.033 1240.1,686.291 1258.35,696.476 1276.6,706.59 1294.85,716.635 1313.1,726.613 1331.35,736.526 1349.6,746.376 1367.85,756.165 1386.1,765.893 1404.34,775.564 1422.59,785.179 1440.84,794.738 1459.09,804.243 1477.34,813.697 1495.59,823.098 1513.84,832.45 1532.09,841.754 1550.34,851.009 1568.59,860.218 1586.84,869.382 1605.09,878.5 1623.34,887.576 1641.58,896.608 1659.83,905.599 1678.08,914.549 1696.33,923.458 1714.58,932.329 1732.83,941.16 1751.08,949.954 1769.33,958.711 1787.58,967.431 1805.83,976.115 1824.08,984.765 1842.33,993.38 1860.57,1001.96 1878.82,1010.51 1897.07,1019.02 1915.32,1027.51 1933.57,1035.96 1951.82,1044.38 1970.07,1052.77 1988.32,1061.13 2006.57,1069.45 2024.82,1077.76 2043.07,1086.03 2061.32,1094.27 2079.57,1102.49 2097.81,1110.67 2116.06,1118.84 2134.31,1126.97 2152.56,1135.08 2170.81,1143.16 2189.06,1151.22 2207.31,1159.25 2225.56,1167.26 2243.81,1175.24 2262.06,1183.2 2280.31,1191.13 2298.56,1199.04 "/>
<path clip-path="url(#clip120)" d="M1721.72 248.629 L2288.92 248.629 L2288.92 93.1086 L1721.72 93.1086  Z" fill="#ffffff" fill-rule="evenodd" fill-opacity="1"/>
<polyline clip-path="url(#clip120)" style="stroke:#000000; stroke-linecap:round; stroke-linejoin:round; stroke-width:4; stroke-opacity:1; fill:none" points="1721.72,248.629 2288.92,248.629 2288.92,93.1086 1721.72,93.1086 1721.72,248.629 "/>
<polyline clip-path="url(#clip120)" style="stroke:#009af9; stroke-linecap:round; stroke-linejoin:round; stroke-width:12; stroke-opacity:1; fill:none" points="1743,144.949 1870.67,144.949 "/>
<path clip-path="url(#clip120)" d="M1919.82 130.331 L1919.82 135.261 Q1917.46 133.062 1914.77 131.974 Q1912.11 130.886 1909.1 130.886 Q1903.18 130.886 1900.03 134.52 Q1896.88 138.132 1896.88 144.983 Q1896.88 151.812 1900.03 155.446 Q1903.18 159.057 1909.1 159.057 Q1912.11 159.057 1914.77 157.969 Q1917.46 156.881 1919.82 154.682 L1919.82 159.567 Q1917.37 161.233 1914.61 162.067 Q1911.88 162.9 1908.82 162.9 Q1900.98 162.9 1896.46 158.108 Q1891.95 153.293 1891.95 144.983 Q1891.95 136.65 1896.46 131.858 Q1900.98 127.044 1908.82 127.044 Q1911.93 127.044 1914.66 127.877 Q1917.41 128.687 1919.82 130.331 Z" fill="#000000" fill-rule="nonzero" fill-opacity="1" /><path clip-path="url(#clip120)" d="M1926.86 126.21 L1931.12 126.21 L1931.12 162.229 L1926.86 162.229 L1926.86 126.21 Z" fill="#000000" fill-rule="nonzero" fill-opacity="1" /><path clip-path="url(#clip120)" d="M1940.03 136.303 L1944.29 136.303 L1944.29 162.229 L1940.03 162.229 L1940.03 136.303 M1940.03 126.21 L1944.29 126.21 L1944.29 131.604 L1940.03 131.604 L1940.03 126.21 Z" fill="#000000" fill-rule="nonzero" fill-opacity="1" /><path clip-path="url(#clip120)" d="M1973.38 141.28 Q1974.98 138.409 1977.2 137.044 Q1979.43 135.678 1982.43 135.678 Q1986.49 135.678 1988.68 138.525 Q1990.88 141.349 1990.88 146.581 L1990.88 162.229 L1986.6 162.229 L1986.6 146.719 Q1986.6 142.993 1985.28 141.187 Q1983.96 139.382 1981.25 139.382 Q1977.94 139.382 1976.02 141.581 Q1974.1 143.78 1974.1 147.576 L1974.1 162.229 L1969.82 162.229 L1969.82 146.719 Q1969.82 142.969 1968.5 141.187 Q1967.18 139.382 1964.43 139.382 Q1961.16 139.382 1959.24 141.604 Q1957.32 143.803 1957.32 147.576 L1957.32 162.229 L1953.04 162.229 L1953.04 136.303 L1957.32 136.303 L1957.32 140.331 Q1958.78 137.946 1960.81 136.812 Q1962.85 135.678 1965.65 135.678 Q1968.48 135.678 1970.44 137.113 Q1972.43 138.548 1973.38 141.28 Z" fill="#000000" fill-rule="nonzero" fill-opacity="1" /><path clip-path="url(#clip120)" d="M2011.16 149.196 Q2006 149.196 2004.01 150.377 Q2002.02 151.557 2002.02 154.405 Q2002.02 156.673 2003.5 158.016 Q2005 159.335 2007.57 159.335 Q2011.12 159.335 2013.24 156.835 Q2015.4 154.312 2015.4 150.145 L2015.4 149.196 L2011.16 149.196 M2019.66 147.437 L2019.66 162.229 L2015.4 162.229 L2015.4 158.293 Q2013.94 160.655 2011.76 161.789 Q2009.59 162.9 2006.44 162.9 Q2002.46 162.9 2000.1 160.678 Q1997.76 158.432 1997.76 154.682 Q1997.76 150.307 2000.68 148.085 Q2003.62 145.863 2009.43 145.863 L2015.4 145.863 L2015.4 145.446 Q2015.4 142.507 2013.45 140.909 Q2011.53 139.289 2008.04 139.289 Q2005.81 139.289 2003.71 139.821 Q2001.6 140.354 1999.66 141.419 L1999.66 137.483 Q2001.99 136.581 2004.19 136.141 Q2006.39 135.678 2008.48 135.678 Q2014.1 135.678 2016.88 138.594 Q2019.66 141.511 2019.66 147.437 Z" fill="#000000" fill-rule="nonzero" fill-opacity="1" /><path clip-path="url(#clip120)" d="M2032.64 128.942 L2032.64 136.303 L2041.42 136.303 L2041.42 139.613 L2032.64 139.613 L2032.64 153.687 Q2032.64 156.858 2033.5 157.761 Q2034.38 158.664 2037.04 158.664 L2041.42 158.664 L2041.42 162.229 L2037.04 162.229 Q2032.11 162.229 2030.24 160.4 Q2028.36 158.548 2028.36 153.687 L2028.36 139.613 L2025.24 139.613 L2025.24 136.303 L2028.36 136.303 L2028.36 128.942 L2032.64 128.942 Z" fill="#000000" fill-rule="nonzero" fill-opacity="1" /><path clip-path="url(#clip120)" d="M2069.19 148.201 L2069.19 150.284 L2049.61 150.284 Q2049.89 154.682 2052.25 156.997 Q2054.63 159.289 2058.87 159.289 Q2061.32 159.289 2063.61 158.687 Q2065.93 158.085 2068.2 156.881 L2068.2 160.909 Q2065.91 161.881 2063.5 162.391 Q2061.09 162.9 2058.61 162.9 Q2052.41 162.9 2048.78 159.289 Q2045.17 155.678 2045.17 149.52 Q2045.17 143.155 2048.59 139.428 Q2052.04 135.678 2057.87 135.678 Q2063.11 135.678 2066.14 139.057 Q2069.19 142.414 2069.19 148.201 M2064.93 146.951 Q2064.89 143.456 2062.97 141.372 Q2061.07 139.289 2057.92 139.289 Q2054.36 139.289 2052.2 141.303 Q2050.07 143.317 2049.75 146.974 L2064.93 146.951 Z" fill="#000000" fill-rule="nonzero" fill-opacity="1" /><path clip-path="url(#clip120)" d="M2076.37 127.669 L2083.34 127.669 L2092.16 151.187 L2101.02 127.669 L2107.99 127.669 L2107.99 162.229 L2103.43 162.229 L2103.43 131.882 L2094.52 155.585 L2089.82 155.585 L2080.91 131.882 L2080.91 162.229 L2076.37 162.229 L2076.37 127.669 Z" fill="#000000" fill-rule="nonzero" fill-opacity="1" /><path clip-path="url(#clip120)" d="M2128.87 149.196 Q2123.71 149.196 2121.72 150.377 Q2119.73 151.557 2119.73 154.405 Q2119.73 156.673 2121.21 158.016 Q2122.71 159.335 2125.28 159.335 Q2128.82 159.335 2130.95 156.835 Q2133.11 154.312 2133.11 150.145 L2133.11 149.196 L2128.87 149.196 M2137.36 147.437 L2137.36 162.229 L2133.11 162.229 L2133.11 158.293 Q2131.65 160.655 2129.47 161.789 Q2127.3 162.9 2124.15 162.9 Q2120.17 162.9 2117.8 160.678 Q2115.47 158.432 2115.47 154.682 Q2115.47 150.307 2118.38 148.085 Q2121.32 145.863 2127.13 145.863 L2133.11 145.863 L2133.11 145.446 Q2133.11 142.507 2131.16 140.909 Q2129.24 139.289 2125.74 139.289 Q2123.52 139.289 2121.42 139.821 Q2119.31 140.354 2117.36 141.419 L2117.36 137.483 Q2119.7 136.581 2121.9 136.141 Q2124.1 135.678 2126.18 135.678 Q2131.81 135.678 2134.59 138.594 Q2137.36 141.511 2137.36 147.437 Z" fill="#000000" fill-rule="nonzero" fill-opacity="1" /><path clip-path="url(#clip120)" d="M2164.79 137.298 L2164.79 141.28 Q2162.99 140.284 2161.16 139.798 Q2159.36 139.289 2157.5 139.289 Q2153.36 139.289 2151.07 141.928 Q2148.78 144.544 2148.78 149.289 Q2148.78 154.034 2151.07 156.673 Q2153.36 159.289 2157.5 159.289 Q2159.36 159.289 2161.16 158.803 Q2162.99 158.293 2164.79 157.298 L2164.79 161.233 Q2163.01 162.067 2161.09 162.483 Q2159.19 162.9 2157.04 162.9 Q2151.18 162.9 2147.73 159.219 Q2144.29 155.539 2144.29 149.289 Q2144.29 142.946 2147.76 139.312 Q2151.25 135.678 2157.32 135.678 Q2159.29 135.678 2161.16 136.095 Q2163.04 136.488 2164.79 137.298 Z" fill="#000000" fill-rule="nonzero" fill-opacity="1" /><path clip-path="url(#clip120)" d="M2193.75 146.581 L2193.75 162.229 L2189.49 162.229 L2189.49 146.719 Q2189.49 143.039 2188.06 141.21 Q2186.62 139.382 2183.75 139.382 Q2180.3 139.382 2178.31 141.581 Q2176.32 143.78 2176.32 147.576 L2176.32 162.229 L2172.04 162.229 L2172.04 126.21 L2176.32 126.21 L2176.32 140.331 Q2177.85 137.993 2179.91 136.835 Q2181.99 135.678 2184.7 135.678 Q2189.17 135.678 2191.46 138.456 Q2193.75 141.21 2193.75 146.581 Z" fill="#000000" fill-rule="nonzero" fill-opacity="1" /><path clip-path="url(#clip120)" d="M2202.25 136.303 L2206.51 136.303 L2206.51 162.229 L2202.25 162.229 L2202.25 136.303 M2202.25 126.21 L2206.51 126.21 L2206.51 131.604 L2202.25 131.604 L2202.25 126.21 Z" fill="#000000" fill-rule="nonzero" fill-opacity="1" /><path clip-path="url(#clip120)" d="M2236.97 146.581 L2236.97 162.229 L2232.71 162.229 L2232.71 146.719 Q2232.71 143.039 2231.28 141.21 Q2229.84 139.382 2226.97 139.382 Q2223.52 139.382 2221.53 141.581 Q2219.54 143.78 2219.54 147.576 L2219.54 162.229 L2215.26 162.229 L2215.26 136.303 L2219.54 136.303 L2219.54 140.331 Q2221.07 137.993 2223.13 136.835 Q2225.21 135.678 2227.92 135.678 Q2232.39 135.678 2234.68 138.456 Q2236.97 141.21 2236.97 146.581 Z" fill="#000000" fill-rule="nonzero" fill-opacity="1" /><path clip-path="url(#clip120)" d="M2267.64 148.201 L2267.64 150.284 L2248.06 150.284 Q2248.34 154.682 2250.7 156.997 Q2253.08 159.289 2257.32 159.289 Q2259.77 159.289 2262.06 158.687 Q2264.38 158.085 2266.65 156.881 L2266.65 160.909 Q2264.35 161.881 2261.95 162.391 Q2259.54 162.9 2257.06 162.9 Q2250.86 162.9 2247.23 159.289 Q2243.61 155.678 2243.61 149.52 Q2243.61 143.155 2247.04 139.428 Q2250.49 135.678 2256.32 135.678 Q2261.55 135.678 2264.59 139.057 Q2267.64 142.414 2267.64 148.201 M2263.38 146.951 Q2263.34 143.456 2261.41 141.372 Q2259.52 139.289 2256.37 139.289 Q2252.8 139.289 2250.65 141.303 Q2248.52 143.317 2248.2 146.974 L2263.38 146.951 Z" fill="#000000" fill-rule="nonzero" fill-opacity="1" /><polyline clip-path="url(#clip120)" style="stroke:#e26f46; stroke-linecap:round; stroke-linejoin:round; stroke-width:12; stroke-opacity:1; fill:none" points="1743,196.789 1870.67,196.789 "/>
<path clip-path="url(#clip120)" d="M1915.98 200.041 L1915.98 202.124 L1896.39 202.124 Q1896.67 206.522 1899.03 208.837 Q1901.42 211.129 1905.65 211.129 Q1908.11 211.129 1910.4 210.527 Q1912.71 209.925 1914.98 208.721 L1914.98 212.749 Q1912.69 213.721 1910.28 214.231 Q1907.88 214.74 1905.4 214.74 Q1899.19 214.74 1895.56 211.129 Q1891.95 207.518 1891.95 201.36 Q1891.95 194.995 1895.38 191.268 Q1898.82 187.518 1904.66 187.518 Q1909.89 187.518 1912.92 190.897 Q1915.98 194.254 1915.98 200.041 M1911.72 198.791 Q1911.67 195.296 1909.75 193.212 Q1907.85 191.129 1904.7 191.129 Q1901.14 191.129 1898.99 193.143 Q1896.86 195.157 1896.53 198.814 L1911.72 198.791 Z" fill="#000000" fill-rule="nonzero" fill-opacity="1" /><path clip-path="url(#clip120)" d="M1943.15 193.12 Q1944.75 190.249 1946.97 188.884 Q1949.19 187.518 1952.2 187.518 Q1956.25 187.518 1958.45 190.365 Q1960.65 193.189 1960.65 198.421 L1960.65 214.069 L1956.37 214.069 L1956.37 198.559 Q1956.37 194.833 1955.05 193.027 Q1953.73 191.222 1951.02 191.222 Q1947.71 191.222 1945.79 193.421 Q1943.87 195.62 1943.87 199.416 L1943.87 214.069 L1939.59 214.069 L1939.59 198.559 Q1939.59 194.809 1938.27 193.027 Q1936.95 191.222 1934.19 191.222 Q1930.93 191.222 1929.01 193.444 Q1927.09 195.643 1927.09 199.416 L1927.09 214.069 L1922.81 214.069 L1922.81 188.143 L1927.09 188.143 L1927.09 192.171 Q1928.55 189.786 1930.58 188.652 Q1932.62 187.518 1935.42 187.518 Q1938.25 187.518 1940.21 188.953 Q1942.2 190.388 1943.15 193.12 Z" fill="#000000" fill-rule="nonzero" fill-opacity="1" /><path clip-path="url(#clip120)" d="M1973.27 210.18 L1973.27 223.93 L1968.99 223.93 L1968.99 188.143 L1973.27 188.143 L1973.27 192.078 Q1974.61 189.763 1976.65 188.652 Q1978.71 187.518 1981.56 187.518 Q1986.28 187.518 1989.22 191.268 Q1992.18 195.018 1992.18 201.129 Q1992.18 207.24 1989.22 210.99 Q1986.28 214.74 1981.56 214.74 Q1978.71 214.74 1976.65 213.629 Q1974.61 212.495 1973.27 210.18 M1987.76 201.129 Q1987.76 196.43 1985.81 193.768 Q1983.89 191.083 1980.51 191.083 Q1977.13 191.083 1975.19 193.768 Q1973.27 196.43 1973.27 201.129 Q1973.27 205.828 1975.19 208.513 Q1977.13 211.175 1980.51 211.175 Q1983.89 211.175 1985.81 208.513 Q1987.76 205.828 1987.76 201.129 Z" fill="#000000" fill-rule="nonzero" fill-opacity="1" /><path clip-path="url(#clip120)" d="M1999.24 188.143 L2003.5 188.143 L2003.5 214.069 L1999.24 214.069 L1999.24 188.143 M1999.24 178.05 L2003.5 178.05 L2003.5 183.444 L1999.24 183.444 L1999.24 178.05 Z" fill="#000000" fill-rule="nonzero" fill-opacity="1" /><path clip-path="url(#clip120)" d="M2027.43 192.124 Q2026.72 191.708 2025.86 191.522 Q2025.03 191.314 2024.01 191.314 Q2020.4 191.314 2018.45 193.675 Q2016.53 196.013 2016.53 200.411 L2016.53 214.069 L2012.25 214.069 L2012.25 188.143 L2016.53 188.143 L2016.53 192.171 Q2017.87 189.809 2020.03 188.675 Q2022.18 187.518 2025.26 187.518 Q2025.7 187.518 2026.23 187.587 Q2026.76 187.634 2027.41 187.749 L2027.43 192.124 Z" fill="#000000" fill-rule="nonzero" fill-opacity="1" /><path clip-path="url(#clip120)" d="M2031.9 188.143 L2036.16 188.143 L2036.16 214.069 L2031.9 214.069 L2031.9 188.143 M2031.9 178.05 L2036.16 178.05 L2036.16 183.444 L2031.9 183.444 L2031.9 178.05 Z" fill="#000000" fill-rule="nonzero" fill-opacity="1" /><path clip-path="url(#clip120)" d="M2063.73 189.138 L2063.73 193.12 Q2061.93 192.124 2060.1 191.638 Q2058.29 191.129 2056.44 191.129 Q2052.3 191.129 2050 193.768 Q2047.71 196.384 2047.71 201.129 Q2047.71 205.874 2050 208.513 Q2052.3 211.129 2056.44 211.129 Q2058.29 211.129 2060.1 210.643 Q2061.93 210.133 2063.73 209.138 L2063.73 213.073 Q2061.95 213.907 2060.03 214.323 Q2058.13 214.74 2055.98 214.74 Q2050.12 214.74 2046.67 211.059 Q2043.22 207.379 2043.22 201.129 Q2043.22 194.786 2046.69 191.152 Q2050.19 187.518 2056.25 187.518 Q2058.22 187.518 2060.1 187.935 Q2061.97 188.328 2063.73 189.138 Z" fill="#000000" fill-rule="nonzero" fill-opacity="1" /><path clip-path="url(#clip120)" d="M2082.92 201.036 Q2077.76 201.036 2075.77 202.217 Q2073.78 203.397 2073.78 206.245 Q2073.78 208.513 2075.26 209.856 Q2076.76 211.175 2079.33 211.175 Q2082.87 211.175 2085 208.675 Q2087.16 206.152 2087.16 201.985 L2087.16 201.036 L2082.92 201.036 M2091.42 199.277 L2091.42 214.069 L2087.16 214.069 L2087.16 210.133 Q2085.7 212.495 2083.52 213.629 Q2081.35 214.74 2078.2 214.74 Q2074.22 214.74 2071.86 212.518 Q2069.52 210.272 2069.52 206.522 Q2069.52 202.147 2072.43 199.925 Q2075.37 197.703 2081.18 197.703 L2087.16 197.703 L2087.16 197.286 Q2087.16 194.347 2085.21 192.749 Q2083.29 191.129 2079.8 191.129 Q2077.57 191.129 2075.47 191.661 Q2073.36 192.194 2071.42 193.259 L2071.42 189.323 Q2073.75 188.421 2075.95 187.981 Q2078.15 187.518 2080.24 187.518 Q2085.86 187.518 2088.64 190.434 Q2091.42 193.351 2091.42 199.277 Z" fill="#000000" fill-rule="nonzero" fill-opacity="1" /><path clip-path="url(#clip120)" d="M2100.19 178.05 L2104.45 178.05 L2104.45 214.069 L2100.19 214.069 L2100.19 178.05 Z" fill="#000000" fill-rule="nonzero" fill-opacity="1" /></svg>
