<?xml version="1.0" encoding="utf-8"?>
<svg xmlns="http://www.w3.org/2000/svg" xmlns:xlink="http://www.w3.org/1999/xlink" width="600" height="400" viewBox="0 0 2400 1600">
<defs>
  <clipPath id="clip150">
    <rect x="0" y="0" width="2400" height="1600"/>
  </clipPath>
</defs>
<path clip-path="url(#clip150)" d="M0 1600 L2400 1600 L2400 0 L0 0  Z" fill="#ffffff" fill-rule="evenodd" fill-opacity="1"/>
<defs>
  <clipPath id="clip151">
    <rect x="480" y="0" width="1681" height="1600"/>
  </clipPath>
</defs>
<path clip-path="url(#clip150)" d="M377.852 1423.18 L2352.76 1423.18 L2352.76 47.2441 L377.852 47.2441  Z" fill="#ffffff" fill-rule="evenodd" fill-opacity="1"/>
<defs>
  <clipPath id="clip152">
    <rect x="377" y="47" width="1976" height="1377"/>
  </clipPath>
</defs>
<polyline clip-path="url(#clip152)" style="stroke:#000000; stroke-linecap:round; stroke-linejoin:round; stroke-width:2; stroke-opacity:0.1; fill:none" points="433.741,1423.18 433.741,47.2441 "/>
<polyline clip-path="url(#clip152)" style="stroke:#000000; stroke-linecap:round; stroke-linejoin:round; stroke-width:2; stroke-opacity:0.1; fill:none" points="806.366,1423.18 806.366,47.2441 "/>
<polyline clip-path="url(#clip152)" style="stroke:#000000; stroke-linecap:round; stroke-linejoin:round; stroke-width:2; stroke-opacity:0.1; fill:none" points="1178.99,1423.18 1178.99,47.2441 "/>
<polyline clip-path="url(#clip152)" style="stroke:#000000; stroke-linecap:round; stroke-linejoin:round; stroke-width:2; stroke-opacity:0.1; fill:none" points="1551.61,1423.18 1551.61,47.2441 "/>
<polyline clip-path="url(#clip152)" style="stroke:#000000; stroke-linecap:round; stroke-linejoin:round; stroke-width:2; stroke-opacity:0.1; fill:none" points="1924.24,1423.18 1924.24,47.2441 "/>
<polyline clip-path="url(#clip152)" style="stroke:#000000; stroke-linecap:round; stroke-linejoin:round; stroke-width:2; stroke-opacity:0.1; fill:none" points="2296.86,1423.18 2296.86,47.2441 "/>
<polyline clip-path="url(#clip152)" style="stroke:#000000; stroke-linecap:round; stroke-linejoin:round; stroke-width:2; stroke-opacity:0.1; fill:none" points="377.852,1180.78 2352.76,1180.78 "/>
<polyline clip-path="url(#clip152)" style="stroke:#000000; stroke-linecap:round; stroke-linejoin:round; stroke-width:2; stroke-opacity:0.1; fill:none" points="377.852,907.128 2352.76,907.128 "/>
<polyline clip-path="url(#clip152)" style="stroke:#000000; stroke-linecap:round; stroke-linejoin:round; stroke-width:2; stroke-opacity:0.1; fill:none" points="377.852,633.48 2352.76,633.48 "/>
<polyline clip-path="url(#clip152)" style="stroke:#000000; stroke-linecap:round; stroke-linejoin:round; stroke-width:2; stroke-opacity:0.1; fill:none" points="377.852,359.832 2352.76,359.832 "/>
<polyline clip-path="url(#clip152)" style="stroke:#000000; stroke-linecap:round; stroke-linejoin:round; stroke-width:2; stroke-opacity:0.1; fill:none" points="377.852,86.1843 2352.76,86.1843 "/>
<polyline clip-path="url(#clip150)" style="stroke:#000000; stroke-linecap:round; stroke-linejoin:round; stroke-width:4; stroke-opacity:1; fill:none" points="377.852,1423.18 2352.76,1423.18 "/>
<polyline clip-path="url(#clip150)" style="stroke:#000000; stroke-linecap:round; stroke-linejoin:round; stroke-width:4; stroke-opacity:1; fill:none" points="433.741,1423.18 433.741,1404.28 "/>
<polyline clip-path="url(#clip150)" style="stroke:#000000; stroke-linecap:round; stroke-linejoin:round; stroke-width:4; stroke-opacity:1; fill:none" points="806.366,1423.18 806.366,1404.28 "/>
<polyline clip-path="url(#clip150)" style="stroke:#000000; stroke-linecap:round; stroke-linejoin:round; stroke-width:4; stroke-opacity:1; fill:none" points="1178.99,1423.18 1178.99,1404.28 "/>
<polyline clip-path="url(#clip150)" style="stroke:#000000; stroke-linecap:round; stroke-linejoin:round; stroke-width:4; stroke-opacity:1; fill:none" points="1551.61,1423.18 1551.61,1404.28 "/>
<polyline clip-path="url(#clip150)" style="stroke:#000000; stroke-linecap:round; stroke-linejoin:round; stroke-width:4; stroke-opacity:1; fill:none" points="1924.24,1423.18 1924.24,1404.28 "/>
<polyline clip-path="url(#clip150)" style="stroke:#000000; stroke-linecap:round; stroke-linejoin:round; stroke-width:4; stroke-opacity:1; fill:none" points="2296.86,1423.18 2296.86,1404.28 "/>
<path clip-path="url(#clip150)" d="M433.741 1454.1 Q430.13 1454.1 428.302 1457.66 Q426.496 1461.2 426.496 1468.33 Q426.496 1475.44 428.302 1479.01 Q430.13 1482.55 433.741 1482.55 Q437.376 1482.55 439.181 1479.01 Q441.01 1475.44 441.01 1468.33 Q441.01 1461.2 439.181 1457.66 Q437.376 1454.1 433.741 1454.1 M433.741 1450.39 Q439.551 1450.39 442.607 1455 Q445.686 1459.58 445.686 1468.33 Q445.686 1477.06 442.607 1481.67 Q439.551 1486.25 433.741 1486.25 Q427.931 1486.25 424.852 1481.67 Q421.797 1477.06 421.797 1468.33 Q421.797 1459.58 424.852 1455 Q427.931 1450.39 433.741 1450.39 Z" fill="#000000" fill-rule="nonzero" fill-opacity="1" /><path clip-path="url(#clip150)" d="M796.748 1481.64 L804.386 1481.64 L804.386 1455.28 L796.076 1456.95 L796.076 1452.69 L804.34 1451.02 L809.016 1451.02 L809.016 1481.64 L816.655 1481.64 L816.655 1485.58 L796.748 1485.58 L796.748 1481.64 Z" fill="#000000" fill-rule="nonzero" fill-opacity="1" /><path clip-path="url(#clip150)" d="M1173.64 1481.64 L1189.96 1481.64 L1189.96 1485.58 L1168.02 1485.58 L1168.02 1481.64 Q1170.68 1478.89 1175.26 1474.26 Q1179.87 1469.61 1181.05 1468.27 Q1183.3 1465.74 1184.17 1464.01 Q1185.08 1462.25 1185.08 1460.56 Q1185.08 1457.8 1183.13 1456.07 Q1181.21 1454.33 1178.11 1454.33 Q1175.91 1454.33 1173.46 1455.09 Q1171.03 1455.86 1168.25 1457.41 L1168.25 1452.69 Q1171.07 1451.55 1173.53 1450.97 Q1175.98 1450.39 1178.02 1450.39 Q1183.39 1450.39 1186.58 1453.08 Q1189.78 1455.77 1189.78 1460.26 Q1189.78 1462.39 1188.97 1464.31 Q1188.18 1466.2 1186.07 1468.8 Q1185.49 1469.47 1182.39 1472.69 Q1179.29 1475.88 1173.64 1481.64 Z" fill="#000000" fill-rule="nonzero" fill-opacity="1" /><path clip-path="url(#clip150)" d="M1555.86 1466.95 Q1559.22 1467.66 1561.09 1469.93 Q1562.99 1472.2 1562.99 1475.53 Q1562.99 1480.65 1559.47 1483.45 Q1555.95 1486.25 1549.47 1486.25 Q1547.3 1486.25 1544.98 1485.81 Q1542.69 1485.39 1540.24 1484.54 L1540.24 1480.02 Q1542.18 1481.16 1544.5 1481.74 Q1546.81 1482.32 1549.33 1482.32 Q1553.73 1482.32 1556.02 1480.58 Q1558.34 1478.84 1558.34 1475.53 Q1558.34 1472.48 1556.19 1470.77 Q1554.06 1469.03 1550.24 1469.03 L1546.21 1469.03 L1546.21 1465.19 L1550.42 1465.19 Q1553.87 1465.19 1555.7 1463.82 Q1557.53 1462.43 1557.53 1459.84 Q1557.53 1457.18 1555.63 1455.77 Q1553.76 1454.33 1550.24 1454.33 Q1548.32 1454.33 1546.12 1454.75 Q1543.92 1455.16 1541.28 1456.04 L1541.28 1451.88 Q1543.94 1451.14 1546.26 1450.77 Q1548.59 1450.39 1550.65 1450.39 Q1555.98 1450.39 1559.08 1452.83 Q1562.18 1455.23 1562.18 1459.35 Q1562.18 1462.22 1560.54 1464.21 Q1558.89 1466.18 1555.86 1466.95 Z" fill="#000000" fill-rule="nonzero" fill-opacity="1" /><path clip-path="url(#clip150)" d="M1927.25 1455.09 L1915.44 1473.54 L1927.25 1473.54 L1927.25 1455.09 M1926.02 1451.02 L1931.9 1451.02 L1931.9 1473.54 L1936.83 1473.54 L1936.83 1477.43 L1931.9 1477.43 L1931.9 1485.58 L1927.25 1485.58 L1927.25 1477.43 L1911.65 1477.43 L1911.65 1472.92 L1926.02 1451.02 Z" fill="#000000" fill-rule="nonzero" fill-opacity="1" /><path clip-path="url(#clip150)" d="M2287.14 1451.02 L2305.5 1451.02 L2305.5 1454.96 L2291.42 1454.96 L2291.42 1463.43 Q2292.44 1463.08 2293.46 1462.92 Q2294.48 1462.73 2295.5 1462.73 Q2301.28 1462.73 2304.66 1465.9 Q2308.04 1469.08 2308.04 1474.49 Q2308.04 1480.07 2304.57 1483.17 Q2301.1 1486.25 2294.78 1486.25 Q2292.6 1486.25 2290.33 1485.88 Q2288.09 1485.51 2285.68 1484.77 L2285.68 1480.07 Q2287.77 1481.2 2289.99 1481.76 Q2292.21 1482.32 2294.69 1482.32 Q2298.69 1482.32 2301.03 1480.21 Q2303.37 1478.1 2303.37 1474.49 Q2303.37 1470.88 2301.03 1468.77 Q2298.69 1466.67 2294.69 1466.67 Q2292.81 1466.67 2290.94 1467.08 Q2289.08 1467.5 2287.14 1468.38 L2287.14 1451.02 Z" fill="#000000" fill-rule="nonzero" fill-opacity="1" /><path clip-path="url(#clip150)" d="M1147.71 1550.25 Q1147.71 1556.71 1150.35 1560.4 Q1153.02 1564.07 1157.67 1564.07 Q1162.32 1564.07 1164.99 1560.4 Q1167.66 1556.71 1167.66 1550.25 Q1167.66 1543.79 1164.99 1540.13 Q1162.32 1536.44 1157.67 1536.44 Q1153.02 1536.44 1150.35 1540.13 Q1147.71 1543.79 1147.71 1550.25 M1167.66 1562.7 Q1165.82 1565.88 1162.99 1567.44 Q1160.18 1568.97 1156.24 1568.97 Q1149.78 1568.97 1145.7 1563.81 Q1141.66 1558.65 1141.66 1550.25 Q1141.66 1541.85 1145.7 1536.69 Q1149.78 1531.54 1156.24 1531.54 Q1160.18 1531.54 1162.99 1533.1 Q1165.82 1534.62 1167.66 1537.81 L1167.66 1532.4 L1173.52 1532.4 L1173.52 1581.6 L1167.66 1581.6 L1167.66 1562.7 Z" fill="#000000" fill-rule="nonzero" fill-opacity="1" /><path clip-path="url(#clip150)" d="M1212.67 1578.87 L1212.67 1583.42 L1178.8 1583.42 L1178.8 1578.87 L1212.67 1578.87 Z" fill="#000000" fill-rule="nonzero" fill-opacity="1" /><path clip-path="url(#clip150)" d="M1240.9 1533.45 L1240.9 1538.98 Q1238.42 1537.71 1235.75 1537.07 Q1233.07 1536.44 1230.21 1536.44 Q1225.85 1536.44 1223.65 1537.77 Q1221.49 1539.11 1221.49 1541.79 Q1221.49 1543.82 1223.05 1545 Q1224.61 1546.15 1229.32 1547.2 L1231.32 1547.64 Q1237.56 1548.98 1240.17 1551.43 Q1242.81 1553.85 1242.81 1558.21 Q1242.81 1563.17 1238.86 1566.07 Q1234.95 1568.97 1228.07 1568.97 Q1225.21 1568.97 1222.09 1568.39 Q1219 1567.85 1215.57 1566.74 L1215.57 1560.69 Q1218.81 1562.38 1221.96 1563.24 Q1225.11 1564.07 1228.2 1564.07 Q1232.34 1564.07 1234.57 1562.66 Q1236.8 1561.23 1236.8 1558.65 Q1236.8 1556.27 1235.17 1554.99 Q1233.58 1553.72 1228.14 1552.54 L1226.1 1552.07 Q1220.66 1550.92 1218.24 1548.56 Q1215.82 1546.18 1215.82 1542.04 Q1215.82 1537.01 1219.39 1534.27 Q1222.95 1531.54 1229.51 1531.54 Q1232.75 1531.54 1235.62 1532.01 Q1238.48 1532.49 1240.9 1533.45 Z" fill="#000000" fill-rule="nonzero" fill-opacity="1" /><path clip-path="url(#clip150)" d="M1281.77 1546.53 L1281.77 1568.04 L1275.91 1568.04 L1275.91 1546.72 Q1275.91 1541.66 1273.94 1539.14 Q1271.97 1536.63 1268.02 1536.63 Q1263.28 1536.63 1260.54 1539.65 Q1257.8 1542.68 1257.8 1547.9 L1257.8 1568.04 L1251.91 1568.04 L1251.91 1532.4 L1257.8 1532.4 L1257.8 1537.93 Q1259.9 1534.72 1262.74 1533.13 Q1265.6 1531.54 1269.32 1531.54 Q1275.47 1531.54 1278.62 1535.36 Q1281.77 1539.14 1281.77 1546.53 Z" fill="#000000" fill-rule="nonzero" fill-opacity="1" /><path clip-path="url(#clip150)" d="M1307.26 1536.5 Q1302.55 1536.5 1299.82 1540.19 Q1297.08 1543.85 1297.08 1550.25 Q1297.08 1556.65 1299.78 1560.34 Q1302.52 1564 1307.26 1564 Q1311.94 1564 1314.68 1560.31 Q1317.42 1556.62 1317.42 1550.25 Q1317.42 1543.92 1314.68 1540.23 Q1311.94 1536.5 1307.26 1536.5 M1307.26 1531.54 Q1314.9 1531.54 1319.26 1536.5 Q1323.62 1541.47 1323.62 1550.25 Q1323.62 1559 1319.26 1564 Q1314.9 1568.97 1307.26 1568.97 Q1299.59 1568.97 1295.23 1564 Q1290.9 1559 1290.9 1550.25 Q1290.9 1541.47 1295.23 1536.5 Q1299.59 1531.54 1307.26 1531.54 Z" fill="#000000" fill-rule="nonzero" fill-opacity="1" /><path clip-path="url(#clip150)" d="M1329.93 1532.4 L1335.78 1532.4 L1343.1 1560.21 L1350.39 1532.4 L1357.3 1532.4 L1364.62 1560.21 L1371.91 1532.4 L1377.76 1532.4 L1368.44 1568.04 L1361.53 1568.04 L1353.86 1538.83 L1346.16 1568.04 L1339.25 1568.04 L1329.93 1532.4 Z" fill="#000000" fill-rule="nonzero" fill-opacity="1" /><path clip-path="url(#clip150)" d="M1406.82 1518.52 L1420.32 1518.52 L1420.32 1523.07 L1412.68 1523.07 L1412.68 1572.09 L1420.32 1572.09 L1420.32 1576.64 L1406.82 1576.64 L1406.82 1518.52 Z" fill="#000000" fill-rule="nonzero" fill-opacity="1" /><path clip-path="url(#clip150)" d="M1456.25 1549.81 Q1456.25 1543.44 1453.61 1539.94 Q1451 1536.44 1446.26 1536.44 Q1441.55 1536.44 1438.91 1539.94 Q1436.3 1543.44 1436.3 1549.81 Q1436.3 1556.14 1438.91 1559.64 Q1441.55 1563.14 1446.26 1563.14 Q1451 1563.14 1453.61 1559.64 Q1456.25 1556.14 1456.25 1549.81 M1462.11 1563.62 Q1462.11 1572.72 1458.07 1577.15 Q1454.03 1581.6 1445.69 1581.6 Q1442.6 1581.6 1439.86 1581.13 Q1437.12 1580.68 1434.55 1579.72 L1434.55 1574.03 Q1437.12 1575.43 1439.64 1576.1 Q1442.15 1576.76 1444.76 1576.76 Q1450.52 1576.76 1453.39 1573.74 Q1456.25 1570.75 1456.25 1564.67 L1456.25 1561.77 Q1454.44 1564.92 1451.61 1566.48 Q1448.77 1568.04 1444.83 1568.04 Q1438.27 1568.04 1434.26 1563.05 Q1430.25 1558.05 1430.25 1549.81 Q1430.25 1541.53 1434.26 1536.53 Q1438.27 1531.54 1444.83 1531.54 Q1448.77 1531.54 1451.61 1533.1 Q1454.44 1534.66 1456.25 1537.81 L1456.25 1532.4 L1462.11 1532.4 L1462.11 1563.62 Z" fill="#000000" fill-rule="nonzero" fill-opacity="1" /><path clip-path="url(#clip150)" d="M1484.58 1520.52 L1489.99 1520.52 L1473.44 1574.09 L1468.03 1574.09 L1484.58 1520.52 Z" fill="#000000" fill-rule="nonzero" fill-opacity="1" /><path clip-path="url(#clip150)" d="M1495.91 1518.52 L1501.8 1518.52 L1501.8 1547.77 L1519.27 1532.4 L1526.75 1532.4 L1507.85 1549.07 L1527.55 1568.04 L1519.91 1568.04 L1501.8 1550.63 L1501.8 1568.04 L1495.91 1568.04 L1495.91 1518.52 Z" fill="#000000" fill-rule="nonzero" fill-opacity="1" /><path clip-path="url(#clip150)" d="M1557.34 1549.81 Q1557.34 1543.44 1554.7 1539.94 Q1552.09 1536.44 1547.35 1536.44 Q1542.64 1536.44 1539.99 1539.94 Q1537.38 1543.44 1537.38 1549.81 Q1537.38 1556.14 1539.99 1559.64 Q1542.64 1563.14 1547.35 1563.14 Q1552.09 1563.14 1554.7 1559.64 Q1557.34 1556.14 1557.34 1549.81 M1563.2 1563.62 Q1563.2 1572.72 1559.16 1577.15 Q1555.11 1581.6 1546.77 1581.6 Q1543.69 1581.6 1540.95 1581.13 Q1538.21 1580.68 1535.63 1579.72 L1535.63 1574.03 Q1538.21 1575.43 1540.73 1576.1 Q1543.24 1576.76 1545.85 1576.76 Q1551.61 1576.76 1554.48 1573.74 Q1557.34 1570.75 1557.34 1564.67 L1557.34 1561.77 Q1555.53 1564.92 1552.69 1566.48 Q1549.86 1568.04 1545.91 1568.04 Q1539.36 1568.04 1535.35 1563.05 Q1531.34 1558.05 1531.34 1549.81 Q1531.34 1541.53 1535.35 1536.53 Q1539.36 1531.54 1545.91 1531.54 Q1549.86 1531.54 1552.69 1533.1 Q1555.53 1534.66 1557.34 1537.81 L1557.34 1532.4 L1563.2 1532.4 L1563.2 1563.62 Z" fill="#000000" fill-rule="nonzero" fill-opacity="1" /><path clip-path="url(#clip150)" d="M1588.95 1518.52 L1588.95 1576.64 L1575.45 1576.64 L1575.45 1572.09 L1583.06 1572.09 L1583.06 1523.07 L1575.45 1523.07 L1575.45 1518.52 L1588.95 1518.52 Z" fill="#000000" fill-rule="nonzero" fill-opacity="1" /><polyline clip-path="url(#clip150)" style="stroke:#000000; stroke-linecap:round; stroke-linejoin:round; stroke-width:4; stroke-opacity:1; fill:none" points="377.852,1423.18 377.852,47.2441 "/>
<polyline clip-path="url(#clip150)" style="stroke:#000000; stroke-linecap:round; stroke-linejoin:round; stroke-width:4; stroke-opacity:1; fill:none" points="377.852,1180.78 396.749,1180.78 "/>
<polyline clip-path="url(#clip150)" style="stroke:#000000; stroke-linecap:round; stroke-linejoin:round; stroke-width:4; stroke-opacity:1; fill:none" points="377.852,907.128 396.749,907.128 "/>
<polyline clip-path="url(#clip150)" style="stroke:#000000; stroke-linecap:round; stroke-linejoin:round; stroke-width:4; stroke-opacity:1; fill:none" points="377.852,633.48 396.749,633.48 "/>
<polyline clip-path="url(#clip150)" style="stroke:#000000; stroke-linecap:round; stroke-linejoin:round; stroke-width:4; stroke-opacity:1; fill:none" points="377.852,359.832 396.749,359.832 "/>
<polyline clip-path="url(#clip150)" style="stroke:#000000; stroke-linecap:round; stroke-linejoin:round; stroke-width:4; stroke-opacity:1; fill:none" points="377.852,86.1843 396.749,86.1843 "/>
<path clip-path="url(#clip150)" d="M114.26 1181.23 L143.936 1181.23 L143.936 1185.16 L114.26 1185.16 L114.26 1181.23 Z" fill="#000000" fill-rule="nonzero" fill-opacity="1" /><path clip-path="url(#clip150)" d="M164.028 1166.57 Q160.417 1166.57 158.589 1170.14 Q156.783 1173.68 156.783 1180.81 Q156.783 1187.92 158.589 1191.48 Q160.417 1195.02 164.028 1195.02 Q167.663 1195.02 169.468 1191.48 Q171.297 1187.92 171.297 1180.81 Q171.297 1173.68 169.468 1170.14 Q167.663 1166.57 164.028 1166.57 M164.028 1162.87 Q169.839 1162.87 172.894 1167.48 Q175.973 1172.06 175.973 1180.81 Q175.973 1189.54 172.894 1194.14 Q169.839 1198.73 164.028 1198.73 Q158.218 1198.73 155.14 1194.14 Q152.084 1189.54 152.084 1180.81 Q152.084 1172.06 155.14 1167.48 Q158.218 1162.87 164.028 1162.87 Z" fill="#000000" fill-rule="nonzero" fill-opacity="1" /><path clip-path="url(#clip150)" d="M184.19 1192.18 L189.075 1192.18 L189.075 1198.06 L184.19 1198.06 L184.19 1192.18 Z" fill="#000000" fill-rule="nonzero" fill-opacity="1" /><path clip-path="url(#clip150)" d="M209.26 1166.57 Q205.649 1166.57 203.82 1170.14 Q202.014 1173.68 202.014 1180.81 Q202.014 1187.92 203.82 1191.48 Q205.649 1195.02 209.26 1195.02 Q212.894 1195.02 214.699 1191.48 Q216.528 1187.92 216.528 1180.81 Q216.528 1173.68 214.699 1170.14 Q212.894 1166.57 209.26 1166.57 M209.26 1162.87 Q215.07 1162.87 218.125 1167.48 Q221.204 1172.06 221.204 1180.81 Q221.204 1189.54 218.125 1194.14 Q215.07 1198.73 209.26 1198.73 Q203.449 1198.73 200.371 1194.14 Q197.315 1189.54 197.315 1180.81 Q197.315 1172.06 200.371 1167.48 Q203.449 1162.87 209.26 1162.87 Z" fill="#000000" fill-rule="nonzero" fill-opacity="1" /><path clip-path="url(#clip150)" d="M239.422 1166.57 Q235.81 1166.57 233.982 1170.14 Q232.176 1173.68 232.176 1180.81 Q232.176 1187.92 233.982 1191.48 Q235.81 1195.02 239.422 1195.02 Q243.056 1195.02 244.861 1191.48 Q246.69 1187.92 246.69 1180.81 Q246.69 1173.68 244.861 1170.14 Q243.056 1166.57 239.422 1166.57 M239.422 1162.87 Q245.232 1162.87 248.287 1167.48 Q251.366 1172.06 251.366 1180.81 Q251.366 1189.54 248.287 1194.14 Q245.232 1198.73 239.422 1198.73 Q233.611 1198.73 230.533 1194.14 Q227.477 1189.54 227.477 1180.81 Q227.477 1172.06 230.533 1167.48 Q233.611 1162.87 239.422 1162.87 Z" fill="#000000" fill-rule="nonzero" fill-opacity="1" /><path clip-path="url(#clip150)" d="M269.583 1166.57 Q265.972 1166.57 264.144 1170.14 Q262.338 1173.68 262.338 1180.81 Q262.338 1187.92 264.144 1191.48 Q265.972 1195.02 269.583 1195.02 Q273.218 1195.02 275.023 1191.48 Q276.852 1187.92 276.852 1180.81 Q276.852 1173.68 275.023 1170.14 Q273.218 1166.57 269.583 1166.57 M269.583 1162.87 Q275.394 1162.87 278.449 1167.48 Q281.528 1172.06 281.528 1180.81 Q281.528 1189.54 278.449 1194.14 Q275.394 1198.73 269.583 1198.73 Q263.773 1198.73 260.695 1194.14 Q257.639 1189.54 257.639 1180.81 Q257.639 1172.06 260.695 1167.48 Q263.773 1162.87 269.583 1162.87 Z" fill="#000000" fill-rule="nonzero" fill-opacity="1" /><path clip-path="url(#clip150)" d="M293.773 1194.12 L310.092 1194.12 L310.092 1198.06 L288.148 1198.06 L288.148 1194.12 Q290.81 1191.37 295.393 1186.74 Q300 1182.08 301.18 1180.74 Q303.426 1178.22 304.305 1176.48 Q305.208 1174.72 305.208 1173.03 Q305.208 1170.28 303.264 1168.54 Q301.342 1166.81 298.241 1166.81 Q296.042 1166.81 293.588 1167.57 Q291.157 1168.33 288.38 1169.88 L288.38 1165.16 Q291.204 1164.03 293.657 1163.45 Q296.111 1162.87 298.148 1162.87 Q303.518 1162.87 306.713 1165.56 Q309.907 1168.24 309.907 1172.73 Q309.907 1174.86 309.097 1176.78 Q308.31 1178.68 306.204 1181.27 Q305.625 1181.94 302.523 1185.16 Q299.421 1188.36 293.773 1194.12 Z" fill="#000000" fill-rule="nonzero" fill-opacity="1" /><path clip-path="url(#clip150)" d="M329.907 1166.57 Q326.296 1166.57 324.467 1170.14 Q322.662 1173.68 322.662 1180.81 Q322.662 1187.92 324.467 1191.48 Q326.296 1195.02 329.907 1195.02 Q333.541 1195.02 335.347 1191.48 Q337.176 1187.92 337.176 1180.81 Q337.176 1173.68 335.347 1170.14 Q333.541 1166.57 329.907 1166.57 M329.907 1162.87 Q335.717 1162.87 338.773 1167.48 Q341.852 1172.06 341.852 1180.81 Q341.852 1189.54 338.773 1194.14 Q335.717 1198.73 329.907 1198.73 Q324.097 1198.73 321.018 1194.14 Q317.963 1189.54 317.963 1180.81 Q317.963 1172.06 321.018 1167.48 Q324.097 1162.87 329.907 1162.87 Z" fill="#000000" fill-rule="nonzero" fill-opacity="1" /><path clip-path="url(#clip150)" d="M115.256 907.579 L144.931 907.579 L144.931 911.515 L115.256 911.515 L115.256 907.579 Z" fill="#000000" fill-rule="nonzero" fill-opacity="1" /><path clip-path="url(#clip150)" d="M165.024 892.927 Q161.413 892.927 159.584 896.492 Q157.778 900.033 157.778 907.163 Q157.778 914.269 159.584 917.834 Q161.413 921.376 165.024 921.376 Q168.658 921.376 170.464 917.834 Q172.292 914.269 172.292 907.163 Q172.292 900.033 170.464 896.492 Q168.658 892.927 165.024 892.927 M165.024 889.223 Q170.834 889.223 173.889 893.83 Q176.968 898.413 176.968 907.163 Q176.968 915.89 173.889 920.496 Q170.834 925.079 165.024 925.079 Q159.214 925.079 156.135 920.496 Q153.079 915.89 153.079 907.163 Q153.079 898.413 156.135 893.83 Q159.214 889.223 165.024 889.223 Z" fill="#000000" fill-rule="nonzero" fill-opacity="1" /><path clip-path="url(#clip150)" d="M185.186 918.528 L190.07 918.528 L190.07 924.408 L185.186 924.408 L185.186 918.528 Z" fill="#000000" fill-rule="nonzero" fill-opacity="1" /><path clip-path="url(#clip150)" d="M210.255 892.927 Q206.644 892.927 204.815 896.492 Q203.01 900.033 203.01 907.163 Q203.01 914.269 204.815 917.834 Q206.644 921.376 210.255 921.376 Q213.889 921.376 215.695 917.834 Q217.523 914.269 217.523 907.163 Q217.523 900.033 215.695 896.492 Q213.889 892.927 210.255 892.927 M210.255 889.223 Q216.065 889.223 219.121 893.83 Q222.199 898.413 222.199 907.163 Q222.199 915.89 219.121 920.496 Q216.065 925.079 210.255 925.079 Q204.445 925.079 201.366 920.496 Q198.311 915.89 198.311 907.163 Q198.311 898.413 201.366 893.83 Q204.445 889.223 210.255 889.223 Z" fill="#000000" fill-rule="nonzero" fill-opacity="1" /><path clip-path="url(#clip150)" d="M240.417 892.927 Q236.806 892.927 234.977 896.492 Q233.172 900.033 233.172 907.163 Q233.172 914.269 234.977 917.834 Q236.806 921.376 240.417 921.376 Q244.051 921.376 245.857 917.834 Q247.685 914.269 247.685 907.163 Q247.685 900.033 245.857 896.492 Q244.051 892.927 240.417 892.927 M240.417 889.223 Q246.227 889.223 249.283 893.83 Q252.361 898.413 252.361 907.163 Q252.361 915.89 249.283 920.496 Q246.227 925.079 240.417 925.079 Q234.607 925.079 231.528 920.496 Q228.473 915.89 228.473 907.163 Q228.473 898.413 231.528 893.83 Q234.607 889.223 240.417 889.223 Z" fill="#000000" fill-rule="nonzero" fill-opacity="1" /><path clip-path="url(#clip150)" d="M270.579 892.927 Q266.968 892.927 265.139 896.492 Q263.333 900.033 263.333 907.163 Q263.333 914.269 265.139 917.834 Q266.968 921.376 270.579 921.376 Q274.213 921.376 276.019 917.834 Q277.847 914.269 277.847 907.163 Q277.847 900.033 276.019 896.492 Q274.213 892.927 270.579 892.927 M270.579 889.223 Q276.389 889.223 279.444 893.83 Q282.523 898.413 282.523 907.163 Q282.523 915.89 279.444 920.496 Q276.389 925.079 270.579 925.079 Q264.769 925.079 261.69 920.496 Q258.634 915.89 258.634 907.163 Q258.634 898.413 261.69 893.83 Q264.769 889.223 270.579 889.223 Z" fill="#000000" fill-rule="nonzero" fill-opacity="1" /><path clip-path="url(#clip150)" d="M291.551 920.473 L299.19 920.473 L299.19 894.107 L290.88 895.774 L290.88 891.515 L299.143 889.848 L303.819 889.848 L303.819 920.473 L311.458 920.473 L311.458 924.408 L291.551 924.408 L291.551 920.473 Z" fill="#000000" fill-rule="nonzero" fill-opacity="1" /><path clip-path="url(#clip150)" d="M320.949 889.848 L339.305 889.848 L339.305 893.783 L325.231 893.783 L325.231 902.255 Q326.25 901.908 327.268 901.746 Q328.287 901.561 329.305 901.561 Q335.092 901.561 338.472 904.732 Q341.852 907.904 341.852 913.32 Q341.852 918.899 338.379 922.001 Q334.907 925.079 328.588 925.079 Q326.412 925.079 324.143 924.709 Q321.898 924.339 319.491 923.598 L319.491 918.899 Q321.574 920.033 323.796 920.589 Q326.018 921.144 328.495 921.144 Q332.5 921.144 334.838 919.038 Q337.176 916.931 337.176 913.32 Q337.176 909.709 334.838 907.603 Q332.5 905.496 328.495 905.496 Q326.62 905.496 324.745 905.913 Q322.893 906.329 320.949 907.209 L320.949 889.848 Z" fill="#000000" fill-rule="nonzero" fill-opacity="1" /><path clip-path="url(#clip150)" d="M114.26 633.932 L143.936 633.932 L143.936 637.867 L114.26 637.867 L114.26 633.932 Z" fill="#000000" fill-rule="nonzero" fill-opacity="1" /><path clip-path="url(#clip150)" d="M164.028 619.279 Q160.417 619.279 158.589 622.844 Q156.783 626.385 156.783 633.515 Q156.783 640.621 158.589 644.186 Q160.417 647.728 164.028 647.728 Q167.663 647.728 169.468 644.186 Q171.297 640.621 171.297 633.515 Q171.297 626.385 169.468 622.844 Q167.663 619.279 164.028 619.279 M164.028 615.575 Q169.839 615.575 172.894 620.182 Q175.973 624.765 175.973 633.515 Q175.973 642.242 172.894 646.848 Q169.839 651.431 164.028 651.431 Q158.218 651.431 155.14 646.848 Q152.084 642.242 152.084 633.515 Q152.084 624.765 155.14 620.182 Q158.218 615.575 164.028 615.575 Z" fill="#000000" fill-rule="nonzero" fill-opacity="1" /><path clip-path="url(#clip150)" d="M184.19 644.881 L189.075 644.881 L189.075 650.76 L184.19 650.76 L184.19 644.881 Z" fill="#000000" fill-rule="nonzero" fill-opacity="1" /><path clip-path="url(#clip150)" d="M209.26 619.279 Q205.649 619.279 203.82 622.844 Q202.014 626.385 202.014 633.515 Q202.014 640.621 203.82 644.186 Q205.649 647.728 209.26 647.728 Q212.894 647.728 214.699 644.186 Q216.528 640.621 216.528 633.515 Q216.528 626.385 214.699 622.844 Q212.894 619.279 209.26 619.279 M209.26 615.575 Q215.07 615.575 218.125 620.182 Q221.204 624.765 221.204 633.515 Q221.204 642.242 218.125 646.848 Q215.07 651.431 209.26 651.431 Q203.449 651.431 200.371 646.848 Q197.315 642.242 197.315 633.515 Q197.315 624.765 200.371 620.182 Q203.449 615.575 209.26 615.575 Z" fill="#000000" fill-rule="nonzero" fill-opacity="1" /><path clip-path="url(#clip150)" d="M239.422 619.279 Q235.81 619.279 233.982 622.844 Q232.176 626.385 232.176 633.515 Q232.176 640.621 233.982 644.186 Q235.81 647.728 239.422 647.728 Q243.056 647.728 244.861 644.186 Q246.69 640.621 246.69 633.515 Q246.69 626.385 244.861 622.844 Q243.056 619.279 239.422 619.279 M239.422 615.575 Q245.232 615.575 248.287 620.182 Q251.366 624.765 251.366 633.515 Q251.366 642.242 248.287 646.848 Q245.232 651.431 239.422 651.431 Q233.611 651.431 230.533 646.848 Q227.477 642.242 227.477 633.515 Q227.477 624.765 230.533 620.182 Q233.611 615.575 239.422 615.575 Z" fill="#000000" fill-rule="nonzero" fill-opacity="1" /><path clip-path="url(#clip150)" d="M269.583 619.279 Q265.972 619.279 264.144 622.844 Q262.338 626.385 262.338 633.515 Q262.338 640.621 264.144 644.186 Q265.972 647.728 269.583 647.728 Q273.218 647.728 275.023 644.186 Q276.852 640.621 276.852 633.515 Q276.852 626.385 275.023 622.844 Q273.218 619.279 269.583 619.279 M269.583 615.575 Q275.394 615.575 278.449 620.182 Q281.528 624.765 281.528 633.515 Q281.528 642.242 278.449 646.848 Q275.394 651.431 269.583 651.431 Q263.773 651.431 260.695 646.848 Q257.639 642.242 257.639 633.515 Q257.639 624.765 260.695 620.182 Q263.773 615.575 269.583 615.575 Z" fill="#000000" fill-rule="nonzero" fill-opacity="1" /><path clip-path="url(#clip150)" d="M290.556 646.825 L298.194 646.825 L298.194 620.459 L289.884 622.126 L289.884 617.867 L298.148 616.2 L302.824 616.2 L302.824 646.825 L310.463 646.825 L310.463 650.76 L290.556 650.76 L290.556 646.825 Z" fill="#000000" fill-rule="nonzero" fill-opacity="1" /><path clip-path="url(#clip150)" d="M329.907 619.279 Q326.296 619.279 324.467 622.844 Q322.662 626.385 322.662 633.515 Q322.662 640.621 324.467 644.186 Q326.296 647.728 329.907 647.728 Q333.541 647.728 335.347 644.186 Q337.176 640.621 337.176 633.515 Q337.176 626.385 335.347 622.844 Q333.541 619.279 329.907 619.279 M329.907 615.575 Q335.717 615.575 338.773 620.182 Q341.852 624.765 341.852 633.515 Q341.852 642.242 338.773 646.848 Q335.717 651.431 329.907 651.431 Q324.097 651.431 321.018 646.848 Q317.963 642.242 317.963 633.515 Q317.963 624.765 321.018 620.182 Q324.097 615.575 329.907 615.575 Z" fill="#000000" fill-rule="nonzero" fill-opacity="1" /><path clip-path="url(#clip150)" d="M115.256 360.284 L144.931 360.284 L144.931 364.219 L115.256 364.219 L115.256 360.284 Z" fill="#000000" fill-rule="nonzero" fill-opacity="1" /><path clip-path="url(#clip150)" d="M165.024 345.631 Q161.413 345.631 159.584 349.196 Q157.778 352.737 157.778 359.867 Q157.778 366.973 159.584 370.538 Q161.413 374.08 165.024 374.08 Q168.658 374.08 170.464 370.538 Q172.292 366.973 172.292 359.867 Q172.292 352.737 170.464 349.196 Q168.658 345.631 165.024 345.631 M165.024 341.927 Q170.834 341.927 173.889 346.534 Q176.968 351.117 176.968 359.867 Q176.968 368.594 173.889 373.2 Q170.834 377.784 165.024 377.784 Q159.214 377.784 156.135 373.2 Q153.079 368.594 153.079 359.867 Q153.079 351.117 156.135 346.534 Q159.214 341.927 165.024 341.927 Z" fill="#000000" fill-rule="nonzero" fill-opacity="1" /><path clip-path="url(#clip150)" d="M185.186 371.233 L190.07 371.233 L190.07 377.112 L185.186 377.112 L185.186 371.233 Z" fill="#000000" fill-rule="nonzero" fill-opacity="1" /><path clip-path="url(#clip150)" d="M210.255 345.631 Q206.644 345.631 204.815 349.196 Q203.01 352.737 203.01 359.867 Q203.01 366.973 204.815 370.538 Q206.644 374.08 210.255 374.08 Q213.889 374.08 215.695 370.538 Q217.523 366.973 217.523 359.867 Q217.523 352.737 215.695 349.196 Q213.889 345.631 210.255 345.631 M210.255 341.927 Q216.065 341.927 219.121 346.534 Q222.199 351.117 222.199 359.867 Q222.199 368.594 219.121 373.2 Q216.065 377.784 210.255 377.784 Q204.445 377.784 201.366 373.2 Q198.311 368.594 198.311 359.867 Q198.311 351.117 201.366 346.534 Q204.445 341.927 210.255 341.927 Z" fill="#000000" fill-rule="nonzero" fill-opacity="1" /><path clip-path="url(#clip150)" d="M240.417 345.631 Q236.806 345.631 234.977 349.196 Q233.172 352.737 233.172 359.867 Q233.172 366.973 234.977 370.538 Q236.806 374.08 240.417 374.08 Q244.051 374.08 245.857 370.538 Q247.685 366.973 247.685 359.867 Q247.685 352.737 245.857 349.196 Q244.051 345.631 240.417 345.631 M240.417 341.927 Q246.227 341.927 249.283 346.534 Q252.361 351.117 252.361 359.867 Q252.361 368.594 249.283 373.2 Q246.227 377.784 240.417 377.784 Q234.607 377.784 231.528 373.2 Q228.473 368.594 228.473 359.867 Q228.473 351.117 231.528 346.534 Q234.607 341.927 240.417 341.927 Z" fill="#000000" fill-rule="nonzero" fill-opacity="1" /><path clip-path="url(#clip150)" d="M270.579 345.631 Q266.968 345.631 265.139 349.196 Q263.333 352.737 263.333 359.867 Q263.333 366.973 265.139 370.538 Q266.968 374.08 270.579 374.08 Q274.213 374.08 276.019 370.538 Q277.847 366.973 277.847 359.867 Q277.847 352.737 276.019 349.196 Q274.213 345.631 270.579 345.631 M270.579 341.927 Q276.389 341.927 279.444 346.534 Q282.523 351.117 282.523 359.867 Q282.523 368.594 279.444 373.2 Q276.389 377.784 270.579 377.784 Q264.769 377.784 261.69 373.2 Q258.634 368.594 258.634 359.867 Q258.634 351.117 261.69 346.534 Q264.769 341.927 270.579 341.927 Z" fill="#000000" fill-rule="nonzero" fill-opacity="1" /><path clip-path="url(#clip150)" d="M300.741 345.631 Q297.13 345.631 295.301 349.196 Q293.495 352.737 293.495 359.867 Q293.495 366.973 295.301 370.538 Q297.13 374.08 300.741 374.08 Q304.375 374.08 306.18 370.538 Q308.009 366.973 308.009 359.867 Q308.009 352.737 306.18 349.196 Q304.375 345.631 300.741 345.631 M300.741 341.927 Q306.551 341.927 309.606 346.534 Q312.685 351.117 312.685 359.867 Q312.685 368.594 309.606 373.2 Q306.551 377.784 300.741 377.784 Q294.93 377.784 291.852 373.2 Q288.796 368.594 288.796 359.867 Q288.796 351.117 291.852 346.534 Q294.93 341.927 300.741 341.927 Z" fill="#000000" fill-rule="nonzero" fill-opacity="1" /><path clip-path="url(#clip150)" d="M320.949 342.552 L339.305 342.552 L339.305 346.487 L325.231 346.487 L325.231 354.96 Q326.25 354.612 327.268 354.45 Q328.287 354.265 329.305 354.265 Q335.092 354.265 338.472 357.436 Q341.852 360.608 341.852 366.024 Q341.852 371.603 338.379 374.705 Q334.907 377.784 328.588 377.784 Q326.412 377.784 324.143 377.413 Q321.898 377.043 319.491 376.302 L319.491 371.603 Q321.574 372.737 323.796 373.293 Q326.018 373.848 328.495 373.848 Q332.5 373.848 334.838 371.742 Q337.176 369.635 337.176 366.024 Q337.176 362.413 334.838 360.307 Q332.5 358.2 328.495 358.2 Q326.62 358.2 324.745 358.617 Q322.893 359.034 320.949 359.913 L320.949 342.552 Z" fill="#000000" fill-rule="nonzero" fill-opacity="1" /><path clip-path="url(#clip150)" d="M164.028 71.983 Q160.417 71.983 158.589 75.5478 Q156.783 79.0895 156.783 86.2191 Q156.783 93.3255 158.589 96.8903 Q160.417 100.432 164.028 100.432 Q167.663 100.432 169.468 96.8903 Q171.297 93.3255 171.297 86.2191 Q171.297 79.0895 169.468 75.5478 Q167.663 71.983 164.028 71.983 M164.028 68.2793 Q169.839 68.2793 172.894 72.8858 Q175.973 77.4691 175.973 86.2191 Q175.973 94.9459 172.894 99.5523 Q169.839 104.136 164.028 104.136 Q158.218 104.136 155.14 99.5523 Q152.084 94.9459 152.084 86.2191 Q152.084 77.4691 155.14 72.8858 Q158.218 68.2793 164.028 68.2793 Z" fill="#000000" fill-rule="nonzero" fill-opacity="1" /><path clip-path="url(#clip150)" d="M184.19 97.5847 L189.075 97.5847 L189.075 103.464 L184.19 103.464 L184.19 97.5847 Z" fill="#000000" fill-rule="nonzero" fill-opacity="1" /><path clip-path="url(#clip150)" d="M209.26 71.983 Q205.649 71.983 203.82 75.5478 Q202.014 79.0895 202.014 86.2191 Q202.014 93.3255 203.82 96.8903 Q205.649 100.432 209.26 100.432 Q212.894 100.432 214.699 96.8903 Q216.528 93.3255 216.528 86.2191 Q216.528 79.0895 214.699 75.5478 Q212.894 71.983 209.26 71.983 M209.26 68.2793 Q215.07 68.2793 218.125 72.8858 Q221.204 77.4691 221.204 86.2191 Q221.204 94.9459 218.125 99.5523 Q215.07 104.136 209.26 104.136 Q203.449 104.136 200.371 99.5523 Q197.315 94.9459 197.315 86.2191 Q197.315 77.4691 200.371 72.8858 Q203.449 68.2793 209.26 68.2793 Z" fill="#000000" fill-rule="nonzero" fill-opacity="1" /><path clip-path="url(#clip150)" d="M239.422 71.983 Q235.81 71.983 233.982 75.5478 Q232.176 79.0895 232.176 86.2191 Q232.176 93.3255 233.982 96.8903 Q235.81 100.432 239.422 100.432 Q243.056 100.432 244.861 96.8903 Q246.69 93.3255 246.69 86.2191 Q246.69 79.0895 244.861 75.5478 Q243.056 71.983 239.422 71.983 M239.422 68.2793 Q245.232 68.2793 248.287 72.8858 Q251.366 77.4691 251.366 86.2191 Q251.366 94.9459 248.287 99.5523 Q245.232 104.136 239.422 104.136 Q233.611 104.136 230.533 99.5523 Q227.477 94.9459 227.477 86.2191 Q227.477 77.4691 230.533 72.8858 Q233.611 68.2793 239.422 68.2793 Z" fill="#000000" fill-rule="nonzero" fill-opacity="1" /><path clip-path="url(#clip150)" d="M269.583 71.983 Q265.972 71.983 264.144 75.5478 Q262.338 79.0895 262.338 86.2191 Q262.338 93.3255 264.144 96.8903 Q265.972 100.432 269.583 100.432 Q273.218 100.432 275.023 96.8903 Q276.852 93.3255 276.852 86.2191 Q276.852 79.0895 275.023 75.5478 Q273.218 71.983 269.583 71.983 M269.583 68.2793 Q275.394 68.2793 278.449 72.8858 Q281.528 77.4691 281.528 86.2191 Q281.528 94.9459 278.449 99.5523 Q275.394 104.136 269.583 104.136 Q263.773 104.136 260.695 99.5523 Q257.639 94.9459 257.639 86.2191 Q257.639 77.4691 260.695 72.8858 Q263.773 68.2793 269.583 68.2793 Z" fill="#000000" fill-rule="nonzero" fill-opacity="1" /><path clip-path="url(#clip150)" d="M299.745 71.983 Q296.134 71.983 294.305 75.5478 Q292.5 79.0895 292.5 86.2191 Q292.5 93.3255 294.305 96.8903 Q296.134 100.432 299.745 100.432 Q303.38 100.432 305.185 96.8903 Q307.014 93.3255 307.014 86.2191 Q307.014 79.0895 305.185 75.5478 Q303.38 71.983 299.745 71.983 M299.745 68.2793 Q305.555 68.2793 308.611 72.8858 Q311.69 77.4691 311.69 86.2191 Q311.69 94.9459 308.611 99.5523 Q305.555 104.136 299.745 104.136 Q293.935 104.136 290.856 99.5523 Q287.801 94.9459 287.801 86.2191 Q287.801 77.4691 290.856 72.8858 Q293.935 68.2793 299.745 68.2793 Z" fill="#000000" fill-rule="nonzero" fill-opacity="1" /><path clip-path="url(#clip150)" d="M329.907 71.983 Q326.296 71.983 324.467 75.5478 Q322.662 79.0895 322.662 86.2191 Q322.662 93.3255 324.467 96.8903 Q326.296 100.432 329.907 100.432 Q333.541 100.432 335.347 96.8903 Q337.176 93.3255 337.176 86.2191 Q337.176 79.0895 335.347 75.5478 Q333.541 71.983 329.907 71.983 M329.907 68.2793 Q335.717 68.2793 338.773 72.8858 Q341.852 77.4691 341.852 86.2191 Q341.852 94.9459 338.773 99.5523 Q335.717 104.136 329.907 104.136 Q324.097 104.136 321.018 99.5523 Q317.963 94.9459 317.963 86.2191 Q317.963 77.4691 321.018 72.8858 Q324.097 68.2793 329.907 68.2793 Z" fill="#000000" fill-rule="nonzero" fill-opacity="1" /><path clip-path="url(#clip150)" d="M29.4065 1331.74 L34.9447 1331.74 Q33.6716 1334.22 33.035 1336.9 Q32.3984 1339.57 32.3984 1342.44 Q32.3984 1346.8 33.7352 1348.99 Q35.072 1351.16 37.7456 1351.16 Q39.7826 1351.16 40.9603 1349.6 Q42.1061 1348.04 43.1565 1343.33 L43.6021 1341.32 Q44.9389 1335.08 47.3897 1332.47 Q49.8086 1329.83 54.1691 1329.83 Q59.1344 1329.83 62.0308 1333.78 Q64.9272 1337.69 64.9272 1344.57 Q64.9272 1347.43 64.3543 1350.55 Q63.8132 1353.64 62.6992 1357.08 L56.6518 1357.08 Q58.3387 1353.83 59.198 1350.68 Q60.0256 1347.53 60.0256 1344.44 Q60.0256 1340.3 58.6251 1338.08 Q57.1929 1335.85 54.6147 1335.85 Q52.2276 1335.85 50.9545 1337.47 Q49.6813 1339.06 48.5037 1344.51 L48.0262 1346.54 Q46.8804 1351.99 44.5251 1354.4 Q42.138 1356.82 38.0002 1356.82 Q32.9713 1356.82 30.2341 1353.26 Q27.4968 1349.69 27.4968 1343.14 Q27.4968 1339.89 27.9743 1337.03 Q28.4517 1334.16 29.4065 1331.74 Z" fill="#000000" fill-rule="nonzero" fill-opacity="1" /><path clip-path="url(#clip150)" d="M42.4881 1290.87 L64.0042 1290.87 L64.0042 1296.73 L42.679 1296.73 Q37.6183 1296.73 35.1038 1298.7 Q32.5894 1300.68 32.5894 1304.62 Q32.5894 1309.37 35.6131 1312.1 Q38.6368 1314.84 43.8567 1314.84 L64.0042 1314.84 L64.0042 1320.73 L28.3562 1320.73 L28.3562 1314.84 L33.8944 1314.84 Q30.6797 1312.74 29.0883 1309.91 Q27.4968 1307.04 27.4968 1303.32 Q27.4968 1297.18 31.3163 1294.03 Q35.1038 1290.87 42.4881 1290.87 Z" fill="#000000" fill-rule="nonzero" fill-opacity="1" /><path clip-path="url(#clip150)" d="M32.4621 1265.38 Q32.4621 1270.09 36.1542 1272.83 Q39.8145 1275.56 46.212 1275.56 Q52.6095 1275.56 56.3017 1272.86 Q59.9619 1270.12 59.9619 1265.38 Q59.9619 1260.7 56.2698 1257.96 Q52.5777 1255.23 46.212 1255.23 Q39.8781 1255.23 36.186 1257.96 Q32.4621 1260.7 32.4621 1265.38 M27.4968 1265.38 Q27.4968 1257.74 32.4621 1253.38 Q37.4273 1249.02 46.212 1249.02 Q54.9649 1249.02 59.9619 1253.38 Q64.9272 1257.74 64.9272 1265.38 Q64.9272 1273.05 59.9619 1277.41 Q54.9649 1281.74 46.212 1281.74 Q37.4273 1281.74 32.4621 1277.41 Q27.4968 1273.05 27.4968 1265.38 Z" fill="#000000" fill-rule="nonzero" fill-opacity="1" /><path clip-path="url(#clip150)" d="M28.3562 1242.72 L28.3562 1236.86 L56.1743 1229.54 L28.3562 1222.25 L28.3562 1215.35 L56.1743 1208.02 L28.3562 1200.74 L28.3562 1194.88 L64.0042 1204.21 L64.0042 1211.11 L34.7856 1218.78 L64.0042 1226.49 L64.0042 1233.39 L28.3562 1242.72 Z" fill="#000000" fill-rule="nonzero" fill-opacity="1" /><path clip-path="url(#clip150)" d="M33.7671 1141.82 L14.479 1141.82 L14.479 1135.97 L64.0042 1135.97 L64.0042 1141.82 L58.657 1141.82 Q61.8398 1143.67 63.3994 1146.5 Q64.9272 1149.3 64.9272 1153.25 Q64.9272 1159.71 59.771 1163.78 Q54.6147 1167.83 46.212 1167.83 Q37.8093 1167.83 32.6531 1163.78 Q27.4968 1159.71 27.4968 1153.25 Q27.4968 1149.3 29.0564 1146.5 Q30.5842 1143.67 33.7671 1141.82 M46.212 1161.78 Q52.6732 1161.78 56.3653 1159.14 Q60.0256 1156.46 60.0256 1151.82 Q60.0256 1147.17 56.3653 1144.5 Q52.6732 1141.82 46.212 1141.82 Q39.7508 1141.82 36.0905 1144.5 Q32.3984 1147.17 32.3984 1151.82 Q32.3984 1156.46 36.0905 1159.14 Q39.7508 1161.78 46.212 1161.78 Z" fill="#000000" fill-rule="nonzero" fill-opacity="1" /><path clip-path="url(#clip150)" d="M44.7161 1093.41 L47.5806 1093.41 L47.5806 1120.34 Q53.6281 1119.96 56.8109 1116.71 Q59.9619 1113.43 59.9619 1107.61 Q59.9619 1104.23 59.1344 1101.08 Q58.3069 1097.9 56.6518 1094.78 L62.1899 1094.78 Q63.5267 1097.93 64.227 1101.24 Q64.9272 1104.55 64.9272 1107.96 Q64.9272 1116.49 59.9619 1121.48 Q54.9967 1126.45 46.5303 1126.45 Q37.7774 1126.45 32.6531 1121.74 Q27.4968 1117 27.4968 1108.97 Q27.4968 1101.78 32.1438 1097.61 Q36.7589 1093.41 44.7161 1093.41 M42.9973 1099.27 Q38.1912 1099.33 35.3266 1101.97 Q32.4621 1104.58 32.4621 1108.91 Q32.4621 1113.81 35.2312 1116.77 Q38.0002 1119.7 43.0292 1120.15 L42.9973 1099.27 Z" fill="#000000" fill-rule="nonzero" fill-opacity="1" /><path clip-path="url(#clip150)" d="M58.657 1078.13 L77.5631 1078.13 L77.5631 1084.02 L28.3562 1084.02 L28.3562 1078.13 L33.7671 1078.13 Q30.5842 1076.29 29.0564 1073.49 Q27.4968 1070.65 27.4968 1066.74 Q27.4968 1060.24 32.6531 1056.2 Q37.8093 1052.13 46.212 1052.13 Q54.6147 1052.13 59.771 1056.2 Q64.9272 1060.24 64.9272 1066.74 Q64.9272 1070.65 63.3994 1073.49 Q61.8398 1076.29 58.657 1078.13 M46.212 1058.21 Q39.7508 1058.21 36.0905 1060.88 Q32.3984 1063.52 32.3984 1068.17 Q32.3984 1072.82 36.0905 1075.49 Q39.7508 1078.13 46.212 1078.13 Q52.6732 1078.13 56.3653 1075.49 Q60.0256 1072.82 60.0256 1068.17 Q60.0256 1063.52 56.3653 1060.88 Q52.6732 1058.21 46.212 1058.21 Z" fill="#000000" fill-rule="nonzero" fill-opacity="1" /><path clip-path="url(#clip150)" d="M32.4621 1028.61 Q32.4621 1033.32 36.1542 1036.06 Q39.8145 1038.79 46.212 1038.79 Q52.6095 1038.79 56.3017 1036.09 Q59.9619 1033.35 59.9619 1028.61 Q59.9619 1023.93 56.2698 1021.19 Q52.5777 1018.45 46.212 1018.45 Q39.8781 1018.45 36.186 1021.19 Q32.4621 1023.93 32.4621 1028.61 M27.4968 1028.61 Q27.4968 1020.97 32.4621 1016.61 Q37.4273 1012.25 46.212 1012.25 Q54.9649 1012.25 59.9619 1016.61 Q64.9272 1020.97 64.9272 1028.61 Q64.9272 1036.28 59.9619 1040.64 Q54.9649 1044.97 46.212 1044.97 Q37.4273 1044.97 32.4621 1040.64 Q27.4968 1036.28 27.4968 1028.61 Z" fill="#000000" fill-rule="nonzero" fill-opacity="1" /><path clip-path="url(#clip150)" d="M29.4065 979.814 L34.9447 979.814 Q33.6716 982.297 33.035 984.97 Q32.3984 987.644 32.3984 990.509 Q32.3984 994.869 33.7352 997.065 Q35.072 999.23 37.7456 999.23 Q39.7826 999.23 40.9603 997.67 Q42.1061 996.11 43.1565 991.4 L43.6021 989.395 Q44.9389 983.156 47.3897 980.546 Q49.8086 977.905 54.1691 977.905 Q59.1344 977.905 62.0308 981.851 Q64.9272 985.766 64.9272 992.641 Q64.9272 995.506 64.3543 998.625 Q63.8132 1001.71 62.6992 1005.15 L56.6518 1005.15 Q58.3387 1001.9 59.198 998.752 Q60.0256 995.601 60.0256 992.514 Q60.0256 988.376 58.6251 986.148 Q57.1929 983.92 54.6147 983.92 Q52.2276 983.92 50.9545 985.543 Q49.6813 987.135 48.5037 992.577 L48.0262 994.615 Q46.8804 1000.06 44.5251 1002.48 Q42.138 1004.9 38.0002 1004.9 Q32.9713 1004.9 30.2341 1001.33 Q27.4968 997.766 27.4968 991.209 Q27.4968 987.962 27.9743 985.098 Q28.4517 982.233 29.4065 979.814 Z" fill="#000000" fill-rule="nonzero" fill-opacity="1" /><path clip-path="url(#clip150)" d="M28.3562 968.579 L28.3562 962.722 L64.0042 962.722 L64.0042 968.579 L28.3562 968.579 M14.479 968.579 L14.479 962.722 L21.895 962.722 L21.895 968.579 L14.479 968.579 Z" fill="#000000" fill-rule="nonzero" fill-opacity="1" /><path clip-path="url(#clip150)" d="M18.2347 944.676 L28.3562 944.676 L28.3562 932.613 L32.9077 932.613 L32.9077 944.676 L52.2594 944.676 Q56.6199 944.676 57.8613 943.498 Q59.1026 942.288 59.1026 938.628 L59.1026 932.613 L64.0042 932.613 L64.0042 938.628 Q64.0042 945.408 61.4897 947.986 Q58.9434 950.564 52.2594 950.564 L32.9077 950.564 L32.9077 954.861 L28.3562 954.861 L28.3562 950.564 L18.2347 950.564 L18.2347 944.676 Z" fill="#000000" fill-rule="nonzero" fill-opacity="1" /><path clip-path="url(#clip150)" d="M28.3562 924.91 L28.3562 919.054 L64.0042 919.054 L64.0042 924.91 L28.3562 924.91 M14.479 924.91 L14.479 919.054 L21.895 919.054 L21.895 924.91 L14.479 924.91 Z" fill="#000000" fill-rule="nonzero" fill-opacity="1" /><path clip-path="url(#clip150)" d="M32.4621 892.986 Q32.4621 897.697 36.1542 900.434 Q39.8145 903.171 46.212 903.171 Q52.6095 903.171 56.3017 900.466 Q59.9619 897.728 59.9619 892.986 Q59.9619 888.307 56.2698 885.57 Q52.5777 882.833 46.212 882.833 Q39.8781 882.833 36.186 885.57 Q32.4621 888.307 32.4621 892.986 M27.4968 892.986 Q27.4968 885.347 32.4621 880.987 Q37.4273 876.626 46.212 876.626 Q54.9649 876.626 59.9619 880.987 Q64.9272 885.347 64.9272 892.986 Q64.9272 900.657 59.9619 905.017 Q54.9649 909.346 46.212 909.346 Q37.4273 909.346 32.4621 905.017 Q27.4968 900.657 27.4968 892.986 Z" fill="#000000" fill-rule="nonzero" fill-opacity="1" /><path clip-path="url(#clip150)" d="M42.4881 837.286 L64.0042 837.286 L64.0042 843.143 L42.679 843.143 Q37.6183 843.143 35.1038 845.116 Q32.5894 847.089 32.5894 851.036 Q32.5894 855.778 35.6131 858.516 Q38.6368 861.253 43.8567 861.253 L64.0042 861.253 L64.0042 867.141 L28.3562 867.141 L28.3562 861.253 L33.8944 861.253 Q30.6797 859.152 29.0883 856.32 Q27.4968 853.455 27.4968 849.731 Q27.4968 843.588 31.3163 840.437 Q35.1038 837.286 42.4881 837.286 Z" fill="#000000" fill-rule="nonzero" fill-opacity="1" /><path clip-path="url(#clip150)" d="M29.4065 782.159 L34.9447 782.159 Q33.6716 784.642 33.035 787.315 Q32.3984 789.989 32.3984 792.853 Q32.3984 797.214 33.7352 799.41 Q35.072 801.574 37.7456 801.574 Q39.7826 801.574 40.9603 800.015 Q42.1061 798.455 43.1565 793.745 L43.6021 791.739 Q44.9389 785.501 47.3897 782.891 Q49.8086 780.249 54.1691 780.249 Q59.1344 780.249 62.0308 784.196 Q64.9272 788.111 64.9272 794.986 Q64.9272 797.851 64.3543 800.97 Q63.8132 804.057 62.6992 807.495 L56.6518 807.495 Q58.3387 804.248 59.198 801.097 Q60.0256 797.946 60.0256 794.859 Q60.0256 790.721 58.6251 788.493 Q57.1929 786.265 54.6147 786.265 Q52.2276 786.265 50.9545 787.888 Q49.6813 789.48 48.5037 794.922 L48.0262 796.959 Q46.8804 802.402 44.5251 804.821 Q42.138 807.24 38.0002 807.24 Q32.9713 807.24 30.2341 803.675 Q27.4968 800.11 27.4968 793.554 Q27.4968 790.307 27.9743 787.443 Q28.4517 784.578 29.4065 782.159 Z" fill="#000000" fill-rule="nonzero" fill-opacity="1" /><path clip-path="url(#clip150)" d="M49.9359 771.528 L28.3562 771.528 L28.3562 765.672 L49.7131 765.672 Q54.7739 765.672 57.3202 763.699 Q59.8346 761.725 59.8346 757.778 Q59.8346 753.036 56.8109 750.299 Q53.7872 747.53 48.5673 747.53 L28.3562 747.53 L28.3562 741.673 L64.0042 741.673 L64.0042 747.53 L58.5296 747.53 Q61.7762 749.662 63.3676 752.495 Q64.9272 755.296 64.9272 759.02 Q64.9272 765.163 61.1078 768.345 Q57.2883 771.528 49.9359 771.528 M27.4968 756.792 L27.4968 756.792 Z" fill="#000000" fill-rule="nonzero" fill-opacity="1" /><path clip-path="url(#clip150)" d="M46.212 704.02 Q39.7508 704.02 36.0905 706.694 Q32.3984 709.335 32.3984 713.982 Q32.3984 718.629 36.0905 721.303 Q39.7508 723.945 46.212 723.945 Q52.6732 723.945 56.3653 721.303 Q60.0256 718.629 60.0256 713.982 Q60.0256 709.335 56.3653 706.694 Q52.6732 704.02 46.212 704.02 M33.7671 723.945 Q30.5842 722.099 29.0564 719.298 Q27.4968 716.465 27.4968 712.55 Q27.4968 706.057 32.6531 702.015 Q37.8093 697.941 46.212 697.941 Q54.6147 697.941 59.771 702.015 Q64.9272 706.057 64.9272 712.55 Q64.9272 716.465 63.3994 719.298 Q61.8398 722.099 58.657 723.945 L64.0042 723.945 L64.0042 729.833 L14.479 729.833 L14.479 723.945 L33.7671 723.945 Z" fill="#000000" fill-rule="nonzero" fill-opacity="1" /><path clip-path="url(#clip150)" d="M14.479 688.233 L14.479 682.377 L64.0042 682.377 L64.0042 688.233 L14.479 688.233 Z" fill="#000000" fill-rule="nonzero" fill-opacity="1" /><path clip-path="url(#clip150)" d="M28.3562 670.123 L28.3562 664.266 L64.0042 664.266 L64.0042 670.123 L28.3562 670.123 M14.479 670.123 L14.479 664.266 L21.895 664.266 L21.895 670.123 L14.479 670.123 Z" fill="#000000" fill-rule="nonzero" fill-opacity="1" /><path clip-path="url(#clip150)" d="M35.1993 624.258 Q31.2526 622.062 29.3747 619.006 Q27.4968 615.95 27.4968 611.813 Q27.4968 606.243 31.4117 603.219 Q35.2948 600.195 42.4881 600.195 L64.0042 600.195 L64.0042 606.084 L42.679 606.084 Q37.5546 606.084 35.072 607.898 Q32.5894 609.712 32.5894 613.436 Q32.5894 617.987 35.6131 620.629 Q38.6368 623.271 43.8567 623.271 L64.0042 623.271 L64.0042 629.159 L42.679 629.159 Q37.5228 629.159 35.072 630.974 Q32.5894 632.788 32.5894 636.575 Q32.5894 641.063 35.6449 643.705 Q38.6686 646.347 43.8567 646.347 L64.0042 646.347 L64.0042 652.235 L28.3562 652.235 L28.3562 646.347 L33.8944 646.347 Q30.616 644.342 29.0564 641.541 Q27.4968 638.74 27.4968 634.888 Q27.4968 631.005 29.4702 628.3 Q31.4436 625.563 35.1993 624.258 Z" fill="#000000" fill-rule="nonzero" fill-opacity="1" /><path clip-path="url(#clip150)" d="M46.0847 572.314 Q46.0847 579.411 47.7079 582.149 Q49.3312 584.886 53.2461 584.886 Q56.3653 584.886 58.2114 582.849 Q60.0256 580.78 60.0256 577.247 Q60.0256 572.377 56.5881 569.449 Q53.1188 566.489 47.3897 566.489 L46.0847 566.489 L46.0847 572.314 M43.6657 560.632 L64.0042 560.632 L64.0042 566.489 L58.5933 566.489 Q61.8398 568.494 63.3994 571.486 Q64.9272 574.478 64.9272 578.807 Q64.9272 584.281 61.8716 587.528 Q58.7843 590.742 53.6281 590.742 Q47.6125 590.742 44.5569 586.732 Q41.5014 582.69 41.5014 574.701 L41.5014 566.489 L40.9285 566.489 Q36.8862 566.489 34.6901 569.163 Q32.4621 571.804 32.4621 576.61 Q32.4621 579.666 33.1941 582.562 Q33.9262 585.459 35.3903 588.132 L29.9795 588.132 Q28.7381 584.918 28.1334 581.894 Q27.4968 578.87 27.4968 576.006 Q27.4968 568.271 31.5072 564.452 Q35.5176 560.632 43.6657 560.632 Z" fill="#000000" fill-rule="nonzero" fill-opacity="1" /><path clip-path="url(#clip150)" d="M18.2347 542.777 L28.3562 542.777 L28.3562 530.714 L32.9077 530.714 L32.9077 542.777 L52.2594 542.777 Q56.6199 542.777 57.8613 541.599 Q59.1026 540.39 59.1026 536.729 L59.1026 530.714 L64.0042 530.714 L64.0042 536.729 Q64.0042 543.509 61.4897 546.087 Q58.9434 548.665 52.2594 548.665 L32.9077 548.665 L32.9077 552.962 L28.3562 552.962 L28.3562 548.665 L18.2347 548.665 L18.2347 542.777 Z" fill="#000000" fill-rule="nonzero" fill-opacity="1" /><path clip-path="url(#clip150)" d="M28.3562 523.011 L28.3562 517.155 L64.0042 517.155 L64.0042 523.011 L28.3562 523.011 M14.479 523.011 L14.479 517.155 L21.895 517.155 L21.895 523.011 L14.479 523.011 Z" fill="#000000" fill-rule="nonzero" fill-opacity="1" /><path clip-path="url(#clip150)" d="M32.4621 491.087 Q32.4621 495.798 36.1542 498.535 Q39.8145 501.272 46.212 501.272 Q52.6095 501.272 56.3017 498.567 Q59.9619 495.83 59.9619 491.087 Q59.9619 486.408 56.2698 483.671 Q52.5777 480.934 46.212 480.934 Q39.8781 480.934 36.186 483.671 Q32.4621 486.408 32.4621 491.087 M27.4968 491.087 Q27.4968 483.448 32.4621 479.088 Q37.4273 474.727 46.212 474.727 Q54.9649 474.727 59.9619 479.088 Q64.9272 483.448 64.9272 491.087 Q64.9272 498.758 59.9619 503.118 Q54.9649 507.447 46.212 507.447 Q37.4273 507.447 32.4621 503.118 Q27.4968 498.758 27.4968 491.087 Z" fill="#000000" fill-rule="nonzero" fill-opacity="1" /><path clip-path="url(#clip150)" d="M42.4881 435.387 L64.0042 435.387 L64.0042 441.244 L42.679 441.244 Q37.6183 441.244 35.1038 443.217 Q32.5894 445.19 32.5894 449.137 Q32.5894 453.88 35.6131 456.617 Q38.6368 459.354 43.8567 459.354 L64.0042 459.354 L64.0042 465.242 L28.3562 465.242 L28.3562 459.354 L33.8944 459.354 Q30.6797 457.253 29.0883 454.421 Q27.4968 451.556 27.4968 447.832 Q27.4968 441.689 31.3163 438.538 Q35.1038 435.387 42.4881 435.387 Z" fill="#000000" fill-rule="nonzero" fill-opacity="1" /><path clip-path="url(#clip150)" d="M33.8307 382.329 Q33.2578 383.316 33.0032 384.493 Q32.7167 385.639 32.7167 387.04 Q32.7167 392.005 35.9632 394.678 Q39.1779 397.32 45.2253 397.32 L64.0042 397.32 L64.0042 403.209 L28.3562 403.209 L28.3562 397.32 L33.8944 397.32 Q30.6479 395.474 29.0883 392.514 Q27.4968 389.554 27.4968 385.321 Q27.4968 384.716 27.5923 383.984 Q27.656 383.252 27.8151 382.361 L33.8307 382.329 Z" fill="#000000" fill-rule="nonzero" fill-opacity="1" /><path clip-path="url(#clip150)" d="M46.0847 359.985 Q46.0847 367.083 47.7079 369.82 Q49.3312 372.558 53.2461 372.558 Q56.3653 372.558 58.2114 370.521 Q60.0256 368.452 60.0256 364.919 Q60.0256 360.049 56.5881 357.121 Q53.1188 354.161 47.3897 354.161 L46.0847 354.161 L46.0847 359.985 M43.6657 348.304 L64.0042 348.304 L64.0042 354.161 L58.5933 354.161 Q61.8398 356.166 63.3994 359.158 Q64.9272 362.15 64.9272 366.478 Q64.9272 371.953 61.8716 375.199 Q58.7843 378.414 53.6281 378.414 Q47.6125 378.414 44.5569 374.404 Q41.5014 370.361 41.5014 362.373 L41.5014 354.161 L40.9285 354.161 Q36.8862 354.161 34.6901 356.834 Q32.4621 359.476 32.4621 364.282 Q32.4621 367.338 33.1941 370.234 Q33.9262 373.131 35.3903 375.804 L29.9795 375.804 Q28.7381 372.589 28.1334 369.566 Q27.4968 366.542 27.4968 363.678 Q27.4968 355.943 31.5072 352.124 Q35.5176 348.304 43.6657 348.304 Z" fill="#000000" fill-rule="nonzero" fill-opacity="1" /><path clip-path="url(#clip150)" d="M18.2347 330.449 L28.3562 330.449 L28.3562 318.385 L32.9077 318.385 L32.9077 330.449 L52.2594 330.449 Q56.6199 330.449 57.8613 329.271 Q59.1026 328.061 59.1026 324.401 L59.1026 318.385 L64.0042 318.385 L64.0042 324.401 Q64.0042 331.181 61.4897 333.759 Q58.9434 336.337 52.2594 336.337 L32.9077 336.337 L32.9077 340.634 L28.3562 340.634 L28.3562 336.337 L18.2347 336.337 L18.2347 330.449 Z" fill="#000000" fill-rule="nonzero" fill-opacity="1" /><path clip-path="url(#clip150)" d="M44.7161 280.191 L47.5806 280.191 L47.5806 307.118 Q53.6281 306.736 56.8109 303.49 Q59.9619 300.211 59.9619 294.387 Q59.9619 291.013 59.1344 287.862 Q58.3069 284.679 56.6518 281.56 L62.1899 281.56 Q63.5267 284.711 64.227 288.021 Q64.9272 291.331 64.9272 294.737 Q64.9272 303.267 59.9619 308.264 Q54.9967 313.229 46.5303 313.229 Q37.7774 313.229 32.6531 308.519 Q27.4968 303.776 27.4968 295.755 Q27.4968 288.562 32.1438 284.393 Q36.7589 280.191 44.7161 280.191 M42.9973 286.048 Q38.1912 286.111 35.3266 288.753 Q32.4621 291.363 32.4621 295.692 Q32.4621 300.593 35.2312 303.553 Q38.0002 306.482 43.0292 306.927 L42.9973 286.048 Z" fill="#000000" fill-rule="nonzero" fill-opacity="1" /><path clip-path="url(#clip150)" d="M14.479 250.4 L14.479 236.904 L19.0304 236.904 L19.0304 244.543 L68.0464 244.543 L68.0464 236.904 L72.5979 236.904 L72.5979 250.4 L14.479 250.4 Z" fill="#000000" fill-rule="nonzero" fill-opacity="1" /><path clip-path="url(#clip150)" d="M58.5933 222.486 L58.5933 211.983 L22.3406 211.983 L24.6323 223.409 L18.7758 223.409 L16.4842 212.046 L16.4842 205.617 L58.5933 205.617 L58.5933 195.114 L64.0042 195.114 L64.0042 222.486 L58.5933 222.486 Z" fill="#000000" fill-rule="nonzero" fill-opacity="1" /><path clip-path="url(#clip150)" d="M16.4842 172.547 L16.4842 167.136 L70.0516 183.687 L70.0516 189.098 L16.4842 172.547 Z" fill="#000000" fill-rule="nonzero" fill-opacity="1" /><path clip-path="url(#clip150)" d="M29.4065 138.268 L34.9447 138.268 Q33.6716 140.75 33.035 143.424 Q32.3984 146.098 32.3984 148.962 Q32.3984 153.323 33.7352 155.519 Q35.072 157.683 37.7456 157.683 Q39.7826 157.683 40.9603 156.124 Q42.1061 154.564 43.1565 149.853 L43.6021 147.848 Q44.9389 141.61 47.3897 139 Q49.8086 136.358 54.1691 136.358 Q59.1344 136.358 62.0308 140.305 Q64.9272 144.22 64.9272 151.095 Q64.9272 153.959 64.3543 157.078 Q63.8132 160.166 62.6992 163.603 L56.6518 163.603 Q58.3387 160.357 59.198 157.206 Q60.0256 154.055 60.0256 150.967 Q60.0256 146.83 58.6251 144.602 Q57.1929 142.374 54.6147 142.374 Q52.2276 142.374 50.9545 143.997 Q49.6813 145.588 48.5037 151.031 L48.0262 153.068 Q46.8804 158.511 44.5251 160.93 Q42.138 163.349 38.0002 163.349 Q32.9713 163.349 30.2341 159.784 Q27.4968 156.219 27.4968 149.662 Q27.4968 146.416 27.9743 143.551 Q28.4517 140.687 29.4065 138.268 Z" fill="#000000" fill-rule="nonzero" fill-opacity="1" /><path clip-path="url(#clip150)" d="M14.479 113.346 L72.5979 113.346 L72.5979 126.841 L68.0464 126.841 L68.0464 119.234 L19.0304 119.234 L19.0304 126.841 L14.479 126.841 L14.479 113.346 Z" fill="#000000" fill-rule="nonzero" fill-opacity="1" /><polyline clip-path="url(#clip152)" style="stroke:#009af9; stroke-linecap:round; stroke-linejoin:round; stroke-width:12; stroke-opacity:1; fill:none" points="433.745,86.1857 452.564,90.2451 471.384,94.3648 490.203,98.7343 509.023,102.931 527.842,106.842 546.661,110.709 565.481,114.537 584.3,118.334 603.119,122.104 621.939,125.849 640.758,129.573 659.577,133.277 678.397,136.963 697.216,140.634 716.036,144.289 734.855,147.93 753.674,151.558 772.494,155.174 791.313,158.778 810.132,162.372 828.952,165.955 847.771,169.529 866.59,173.093 885.41,176.649 904.229,180.196 923.049,183.734 941.868,187.266 960.687,190.789 979.507,194.306 998.326,197.816 1017.15,201.319 1035.96,204.815 1054.78,208.306 1073.6,211.79 1092.42,215.269 1111.24,218.741 1130.06,222.209 1148.88,225.671 1167.7,229.128 1186.52,232.58 1205.34,236.027 1224.16,239.469 1242.98,242.907 1261.8,246.34 1280.62,249.769 1299.44,253.193 1318.26,256.613 1337.07,260.029 1355.89,263.441 1374.71,266.849 1393.53,270.254 1412.35,273.654 1431.17,277.051 1449.99,280.444 1468.81,283.834 1487.63,287.22 1506.45,290.603 1525.27,293.982 1544.09,297.358 1562.91,300.731 1581.73,304.101 1600.55,307.467 1619.37,310.831 1638.18,314.191 1657,317.549 1675.82,320.903 1694.64,324.255 1713.46,327.604 1732.28,330.95 1751.1,334.294 1769.92,337.634 1788.74,340.972 1807.56,344.308 1826.38,347.641 1845.2,350.971 1864.02,354.299 1882.84,357.625 1901.66,360.948 1920.48,364.268 1939.29,367.586 1958.11,370.902 1976.93,374.216 1995.75,377.527 2014.57,380.836 2033.39,384.143 2052.21,387.448 2071.03,390.75 2089.85,394.051 2108.67,397.349 2127.49,400.645 2146.31,403.94 2165.13,407.232 2183.95,410.522 2202.77,413.81 2221.58,417.096 2240.4,420.38 2259.22,423.663 2278.04,426.943 2296.86,430.222 "/>
<polyline clip-path="url(#clip152)" style="stroke:#e26f46; stroke-linecap:round; stroke-linejoin:round; stroke-width:12; stroke-opacity:1; fill:none" points="433.745,86.1894 452.564,100.794 471.384,114.329 490.203,127.569 509.023,140.664 527.842,153.681 546.661,166.659 565.481,179.623 584.3,192.59 603.119,205.574 621.939,218.584 640.758,231.628 659.577,244.712 678.397,257.84 697.216,271.018 716.036,284.248 734.855,297.534 753.674,310.879 772.494,324.284 791.313,337.752 810.132,351.284 828.952,364.882 847.771,378.547 866.59,392.281 885.41,406.085 904.229,419.96 923.049,433.906 941.868,447.925 960.687,462.017 979.507,476.184 998.326,490.425 1017.15,504.741 1035.96,519.133 1054.78,533.601 1073.6,548.147 1092.42,562.769 1111.24,577.469 1130.06,592.248 1148.88,607.105 1167.7,622.04 1186.52,637.055 1205.34,651.582 1224.16,664.569 1242.98,677.539 1261.8,690.492 1280.62,703.428 1299.44,716.348 1318.26,729.252 1337.07,742.141 1355.89,755.014 1374.71,767.872 1393.53,780.716 1412.35,793.546 1431.17,806.361 1449.99,819.163 1468.81,831.952 1487.63,844.727 1506.45,857.49 1525.27,870.239 1544.09,882.977 1562.91,895.702 1581.73,908.415 1600.55,921.117 1619.37,933.806 1638.18,946.485 1657,959.152 1675.82,971.809 1694.64,984.454 1713.46,997.089 1732.28,1009.71 1751.1,1022.33 1769.92,1034.93 1788.74,1047.53 1807.56,1060.11 1826.38,1072.68 1845.2,1085.25 1864.02,1097.8 1882.84,1110.35 1901.66,1122.89 1920.48,1135.41 1939.29,1147.93 1958.11,1160.44 1976.93,1172.94 1995.75,1185.44 2014.57,1197.92 2033.39,1210.4 2052.21,1222.87 2071.03,1235.33 2089.85,1247.78 2108.67,1260.22 2127.49,1272.66 2146.31,1285.08 2165.13,1297.5 2183.95,1309.92 2202.77,1322.32 2221.58,1334.72 2240.4,1347.11 2259.22,1359.49 2278.04,1371.87 2296.86,1384.24 "/>
<path clip-path="url(#clip150)" d="M443.682 1377.32 L737.005 1377.32 L737.005 1221.8 L443.682 1221.8  Z" fill="#ffffff" fill-rule="evenodd" fill-opacity="1"/>
<polyline clip-path="url(#clip150)" style="stroke:#000000; stroke-linecap:round; stroke-linejoin:round; stroke-width:4; stroke-opacity:1; fill:none" points="443.682,1377.32 737.005,1377.32 737.005,1221.8 443.682,1221.8 443.682,1377.32 "/>
<polyline clip-path="url(#clip150)" style="stroke:#009af9; stroke-linecap:round; stroke-linejoin:round; stroke-width:12; stroke-opacity:1; fill:none" points="465.625,1273.64 597.285,1273.64 "/>
<path clip-path="url(#clip150)" d="M619.229 1256.36 L648.465 1256.36 L648.465 1260.29 L636.196 1260.29 L636.196 1290.92 L631.497 1290.92 L631.497 1260.29 L619.229 1260.29 L619.229 1256.36 Z" fill="#000000" fill-rule="nonzero" fill-opacity="1" /><path clip-path="url(#clip150)" d="M683.025 1267.58 L659.136 1276.08 L683.025 1284.53 L683.025 1288.74 L653.349 1277.98 L653.349 1274.13 L683.025 1263.37 L683.025 1267.58 Z" fill="#000000" fill-rule="nonzero" fill-opacity="1" /><path clip-path="url(#clip150)" d="M703.117 1259.43 Q699.506 1259.43 697.677 1263 Q695.872 1266.54 695.872 1273.67 Q695.872 1280.78 697.677 1284.34 Q699.506 1287.88 703.117 1287.88 Q706.751 1287.88 708.557 1284.34 Q710.386 1280.78 710.386 1273.67 Q710.386 1266.54 708.557 1263 Q706.751 1259.43 703.117 1259.43 M703.117 1255.73 Q708.927 1255.73 711.983 1260.34 Q715.062 1264.92 715.062 1273.67 Q715.062 1282.4 711.983 1287 Q708.927 1291.59 703.117 1291.59 Q697.307 1291.59 694.228 1287 Q691.173 1282.4 691.173 1273.67 Q691.173 1264.92 694.228 1260.34 Q697.307 1255.73 703.117 1255.73 Z" fill="#000000" fill-rule="nonzero" fill-opacity="1" /><polyline clip-path="url(#clip150)" style="stroke:#e26f46; stroke-linecap:round; stroke-linejoin:round; stroke-width:12; stroke-opacity:1; fill:none" points="465.625,1325.48 597.285,1325.48 "/>
<path clip-path="url(#clip150)" d="M619.229 1308.2 L648.465 1308.2 L648.465 1312.13 L636.196 1312.13 L636.196 1342.76 L631.497 1342.76 L631.497 1312.13 L619.229 1312.13 L619.229 1308.2 Z" fill="#000000" fill-rule="nonzero" fill-opacity="1" /><path clip-path="url(#clip150)" d="M653.349 1319.42 L653.349 1315.21 L683.025 1325.97 L683.025 1329.82 L653.349 1340.58 L653.349 1336.37 L677.191 1327.92 L653.349 1319.42 Z" fill="#000000" fill-rule="nonzero" fill-opacity="1" /><path clip-path="url(#clip150)" d="M703.117 1311.27 Q699.506 1311.27 697.677 1314.84 Q695.872 1318.38 695.872 1325.51 Q695.872 1332.62 697.677 1336.18 Q699.506 1339.72 703.117 1339.72 Q706.751 1339.72 708.557 1336.18 Q710.386 1332.62 710.386 1325.51 Q710.386 1318.38 708.557 1314.84 Q706.751 1311.27 703.117 1311.27 M703.117 1307.57 Q708.927 1307.57 711.983 1312.18 Q715.062 1316.76 715.062 1325.51 Q715.062 1334.24 711.983 1338.84 Q708.927 1343.43 703.117 1343.43 Q697.307 1343.43 694.228 1338.84 Q691.173 1334.24 691.173 1325.51 Q691.173 1316.76 694.228 1312.18 Q697.307 1307.57 703.117 1307.57 Z" fill="#000000" fill-rule="nonzero" fill-opacity="1" /></svg>
