<?xml version="1.0" encoding="utf-8"?>
<svg xmlns="http://www.w3.org/2000/svg" xmlns:xlink="http://www.w3.org/1999/xlink" width="600" height="400" viewBox="0 0 2400 1600">
<defs>
  <clipPath id="clip160">
    <rect x="0" y="0" width="2400" height="1600"/>
  </clipPath>
</defs>
<path clip-path="url(#clip160)" d="M0 1600 L2400 1600 L2400 0 L0 0  Z" fill="#ffffff" fill-rule="evenodd" fill-opacity="1"/>
<defs>
  <clipPath id="clip161">
    <rect x="480" y="0" width="1681" height="1600"/>
  </clipPath>
</defs>
<path clip-path="url(#clip160)" d="M377.852 1423.18 L2352.76 1423.18 L2352.76 47.2441 L377.852 47.2441  Z" fill="#ffffff" fill-rule="evenodd" fill-opacity="1"/>
<defs>
  <clipPath id="clip162">
    <rect x="377" y="47" width="1976" height="1377"/>
  </clipPath>
</defs>
<polyline clip-path="url(#clip162)" style="stroke:#000000; stroke-linecap:round; stroke-linejoin:round; stroke-width:2; stroke-opacity:0.1; fill:none" points="433.741,1423.18 433.741,47.2441 "/>
<polyline clip-path="url(#clip162)" style="stroke:#000000; stroke-linecap:round; stroke-linejoin:round; stroke-width:2; stroke-opacity:0.1; fill:none" points="806.366,1423.18 806.366,47.2441 "/>
<polyline clip-path="url(#clip162)" style="stroke:#000000; stroke-linecap:round; stroke-linejoin:round; stroke-width:2; stroke-opacity:0.1; fill:none" points="1178.99,1423.18 1178.99,47.2441 "/>
<polyline clip-path="url(#clip162)" style="stroke:#000000; stroke-linecap:round; stroke-linejoin:round; stroke-width:2; stroke-opacity:0.1; fill:none" points="1551.61,1423.18 1551.61,47.2441 "/>
<polyline clip-path="url(#clip162)" style="stroke:#000000; stroke-linecap:round; stroke-linejoin:round; stroke-width:2; stroke-opacity:0.1; fill:none" points="1924.24,1423.18 1924.24,47.2441 "/>
<polyline clip-path="url(#clip162)" style="stroke:#000000; stroke-linecap:round; stroke-linejoin:round; stroke-width:2; stroke-opacity:0.1; fill:none" points="2296.86,1423.18 2296.86,47.2441 "/>
<polyline clip-path="url(#clip160)" style="stroke:#000000; stroke-linecap:round; stroke-linejoin:round; stroke-width:4; stroke-opacity:1; fill:none" points="377.852,1423.18 2352.76,1423.18 "/>
<polyline clip-path="url(#clip160)" style="stroke:#000000; stroke-linecap:round; stroke-linejoin:round; stroke-width:4; stroke-opacity:1; fill:none" points="433.741,1423.18 433.741,1404.28 "/>
<polyline clip-path="url(#clip160)" style="stroke:#000000; stroke-linecap:round; stroke-linejoin:round; stroke-width:4; stroke-opacity:1; fill:none" points="806.366,1423.18 806.366,1404.28 "/>
<polyline clip-path="url(#clip160)" style="stroke:#000000; stroke-linecap:round; stroke-linejoin:round; stroke-width:4; stroke-opacity:1; fill:none" points="1178.99,1423.18 1178.99,1404.28 "/>
<polyline clip-path="url(#clip160)" style="stroke:#000000; stroke-linecap:round; stroke-linejoin:round; stroke-width:4; stroke-opacity:1; fill:none" points="1551.61,1423.18 1551.61,1404.28 "/>
<polyline clip-path="url(#clip160)" style="stroke:#000000; stroke-linecap:round; stroke-linejoin:round; stroke-width:4; stroke-opacity:1; fill:none" points="1924.24,1423.18 1924.24,1404.28 "/>
<polyline clip-path="url(#clip160)" style="stroke:#000000; stroke-linecap:round; stroke-linejoin:round; stroke-width:4; stroke-opacity:1; fill:none" points="2296.86,1423.18 2296.86,1404.28 "/>
<path clip-path="url(#clip160)" d="M433.741 1454.1 Q430.13 1454.1 428.302 1457.66 Q426.496 1461.2 426.496 1468.33 Q426.496 1475.44 428.302 1479.01 Q430.13 1482.55 433.741 1482.55 Q437.376 1482.55 439.181 1479.01 Q441.01 1475.44 441.01 1468.33 Q441.01 1461.2 439.181 1457.66 Q437.376 1454.1 433.741 1454.1 M433.741 1450.39 Q439.551 1450.39 442.607 1455 Q445.686 1459.58 445.686 1468.33 Q445.686 1477.06 442.607 1481.67 Q439.551 1486.25 433.741 1486.25 Q427.931 1486.25 424.852 1481.67 Q421.797 1477.06 421.797 1468.33 Q421.797 1459.58 424.852 1455 Q427.931 1450.39 433.741 1450.39 Z" fill="#000000" fill-rule="nonzero" fill-opacity="1" /><path clip-path="url(#clip160)" d="M796.748 1481.64 L804.386 1481.64 L804.386 1455.28 L796.076 1456.95 L796.076 1452.69 L804.34 1451.02 L809.016 1451.02 L809.016 1481.64 L816.655 1481.64 L816.655 1485.58 L796.748 1485.58 L796.748 1481.64 Z" fill="#000000" fill-rule="nonzero" fill-opacity="1" /><path clip-path="url(#clip160)" d="M1173.64 1481.64 L1189.96 1481.64 L1189.96 1485.58 L1168.02 1485.58 L1168.02 1481.64 Q1170.68 1478.89 1175.26 1474.26 Q1179.87 1469.61 1181.05 1468.27 Q1183.3 1465.74 1184.17 1464.01 Q1185.08 1462.25 1185.08 1460.56 Q1185.08 1457.8 1183.13 1456.07 Q1181.21 1454.33 1178.11 1454.33 Q1175.91 1454.33 1173.46 1455.09 Q1171.03 1455.86 1168.25 1457.41 L1168.25 1452.69 Q1171.07 1451.55 1173.53 1450.97 Q1175.98 1450.39 1178.02 1450.39 Q1183.39 1450.39 1186.58 1453.08 Q1189.78 1455.77 1189.78 1460.26 Q1189.78 1462.39 1188.97 1464.31 Q1188.18 1466.2 1186.07 1468.8 Q1185.49 1469.47 1182.39 1472.69 Q1179.29 1475.88 1173.64 1481.64 Z" fill="#000000" fill-rule="nonzero" fill-opacity="1" /><path clip-path="url(#clip160)" d="M1555.86 1466.95 Q1559.22 1467.66 1561.09 1469.93 Q1562.99 1472.2 1562.99 1475.53 Q1562.99 1480.65 1559.47 1483.45 Q1555.95 1486.25 1549.47 1486.25 Q1547.3 1486.25 1544.98 1485.81 Q1542.69 1485.39 1540.24 1484.54 L1540.24 1480.02 Q1542.18 1481.16 1544.5 1481.74 Q1546.81 1482.32 1549.33 1482.32 Q1553.73 1482.32 1556.02 1480.58 Q1558.34 1478.84 1558.34 1475.53 Q1558.34 1472.48 1556.19 1470.77 Q1554.06 1469.03 1550.24 1469.03 L1546.21 1469.03 L1546.21 1465.19 L1550.42 1465.19 Q1553.87 1465.19 1555.7 1463.82 Q1557.53 1462.43 1557.53 1459.84 Q1557.53 1457.18 1555.63 1455.77 Q1553.76 1454.33 1550.24 1454.33 Q1548.32 1454.33 1546.12 1454.75 Q1543.92 1455.16 1541.28 1456.04 L1541.28 1451.88 Q1543.94 1451.14 1546.26 1450.77 Q1548.59 1450.39 1550.65 1450.39 Q1555.98 1450.39 1559.08 1452.83 Q1562.18 1455.23 1562.18 1459.35 Q1562.18 1462.22 1560.54 1464.21 Q1558.89 1466.18 1555.86 1466.95 Z" fill="#000000" fill-rule="nonzero" fill-opacity="1" /><path clip-path="url(#clip160)" d="M1927.25 1455.09 L1915.44 1473.54 L1927.25 1473.54 L1927.25 1455.09 M1926.02 1451.02 L1931.9 1451.02 L1931.9 1473.54 L1936.83 1473.54 L1936.83 1477.43 L1931.9 1477.43 L1931.9 1485.58 L1927.25 1485.58 L1927.25 1477.43 L1911.65 1477.43 L1911.65 1472.92 L1926.02 1451.02 Z" fill="#000000" fill-rule="nonzero" fill-opacity="1" /><path clip-path="url(#clip160)" d="M2287.14 1451.02 L2305.5 1451.02 L2305.5 1454.96 L2291.42 1454.96 L2291.42 1463.43 Q2292.44 1463.08 2293.46 1462.92 Q2294.48 1462.73 2295.5 1462.73 Q2301.28 1462.73 2304.66 1465.9 Q2308.04 1469.08 2308.04 1474.49 Q2308.04 1480.07 2304.57 1483.17 Q2301.1 1486.25 2294.78 1486.25 Q2292.6 1486.25 2290.33 1485.88 Q2288.09 1485.51 2285.68 1484.77 L2285.68 1480.07 Q2287.77 1481.2 2289.99 1481.76 Q2292.21 1482.32 2294.69 1482.32 Q2298.69 1482.32 2301.03 1480.21 Q2303.37 1478.1 2303.37 1474.49 Q2303.37 1470.88 2301.03 1468.77 Q2298.69 1466.67 2294.69 1466.67 Q2292.81 1466.67 2290.94 1467.08 Q2289.08 1467.5 2287.14 1468.38 L2287.14 1451.02 Z" fill="#000000" fill-rule="nonzero" fill-opacity="1" /><path clip-path="url(#clip160)" d="M1147.71 1550.25 Q1147.71 1556.71 1150.35 1560.4 Q1153.02 1564.07 1157.67 1564.07 Q1162.32 1564.07 1164.99 1560.4 Q1167.66 1556.71 1167.66 1550.25 Q1167.66 1543.79 1164.99 1540.13 Q1162.32 1536.44 1157.67 1536.44 Q1153.02 1536.44 1150.35 1540.13 Q1147.71 1543.79 1147.71 1550.25 M1167.66 1562.7 Q1165.82 1565.88 1162.99 1567.44 Q1160.18 1568.97 1156.24 1568.97 Q1149.78 1568.97 1145.7 1563.81 Q1141.66 1558.65 1141.66 1550.25 Q1141.66 1541.85 1145.7 1536.69 Q1149.78 1531.54 1156.24 1531.54 Q1160.18 1531.54 1162.99 1533.1 Q1165.82 1534.62 1167.66 1537.81 L1167.66 1532.4 L1173.52 1532.4 L1173.52 1581.6 L1167.66 1581.6 L1167.66 1562.7 Z" fill="#000000" fill-rule="nonzero" fill-opacity="1" /><path clip-path="url(#clip160)" d="M1212.67 1578.87 L1212.67 1583.42 L1178.8 1583.42 L1178.8 1578.87 L1212.67 1578.87 Z" fill="#000000" fill-rule="nonzero" fill-opacity="1" /><path clip-path="url(#clip160)" d="M1240.9 1533.45 L1240.9 1538.98 Q1238.42 1537.71 1235.75 1537.07 Q1233.07 1536.44 1230.21 1536.44 Q1225.85 1536.44 1223.65 1537.77 Q1221.49 1539.11 1221.49 1541.79 Q1221.49 1543.82 1223.05 1545 Q1224.61 1546.15 1229.32 1547.2 L1231.32 1547.64 Q1237.56 1548.98 1240.17 1551.43 Q1242.81 1553.85 1242.81 1558.21 Q1242.81 1563.17 1238.86 1566.07 Q1234.95 1568.97 1228.07 1568.97 Q1225.21 1568.97 1222.09 1568.39 Q1219 1567.85 1215.57 1566.74 L1215.57 1560.69 Q1218.81 1562.38 1221.96 1563.24 Q1225.11 1564.07 1228.2 1564.07 Q1232.34 1564.07 1234.57 1562.66 Q1236.8 1561.23 1236.8 1558.65 Q1236.8 1556.27 1235.17 1554.99 Q1233.58 1553.72 1228.14 1552.54 L1226.1 1552.07 Q1220.66 1550.92 1218.24 1548.56 Q1215.82 1546.18 1215.82 1542.04 Q1215.82 1537.01 1219.39 1534.27 Q1222.95 1531.54 1229.51 1531.54 Q1232.75 1531.54 1235.62 1532.01 Q1238.48 1532.49 1240.9 1533.45 Z" fill="#000000" fill-rule="nonzero" fill-opacity="1" /><path clip-path="url(#clip160)" d="M1281.77 1546.53 L1281.77 1568.04 L1275.91 1568.04 L1275.91 1546.72 Q1275.91 1541.66 1273.94 1539.14 Q1271.97 1536.63 1268.02 1536.63 Q1263.28 1536.63 1260.54 1539.65 Q1257.8 1542.68 1257.8 1547.9 L1257.8 1568.04 L1251.91 1568.04 L1251.91 1532.4 L1257.8 1532.4 L1257.8 1537.93 Q1259.9 1534.72 1262.74 1533.13 Q1265.6 1531.54 1269.32 1531.54 Q1275.47 1531.54 1278.62 1535.36 Q1281.77 1539.14 1281.77 1546.53 Z" fill="#000000" fill-rule="nonzero" fill-opacity="1" /><path clip-path="url(#clip160)" d="M1307.26 1536.5 Q1302.55 1536.5 1299.82 1540.19 Q1297.08 1543.85 1297.08 1550.25 Q1297.08 1556.65 1299.78 1560.34 Q1302.52 1564 1307.26 1564 Q1311.94 1564 1314.68 1560.31 Q1317.42 1556.62 1317.42 1550.25 Q1317.42 1543.92 1314.68 1540.23 Q1311.94 1536.5 1307.26 1536.5 M1307.26 1531.54 Q1314.9 1531.54 1319.26 1536.5 Q1323.62 1541.47 1323.62 1550.25 Q1323.62 1559 1319.26 1564 Q1314.9 1568.97 1307.26 1568.97 Q1299.59 1568.97 1295.23 1564 Q1290.9 1559 1290.9 1550.25 Q1290.9 1541.47 1295.23 1536.5 Q1299.59 1531.54 1307.26 1531.54 Z" fill="#000000" fill-rule="nonzero" fill-opacity="1" /><path clip-path="url(#clip160)" d="M1329.93 1532.4 L1335.78 1532.4 L1343.1 1560.21 L1350.39 1532.4 L1357.3 1532.4 L1364.62 1560.21 L1371.91 1532.4 L1377.76 1532.4 L1368.44 1568.04 L1361.53 1568.04 L1353.86 1538.83 L1346.16 1568.04 L1339.25 1568.04 L1329.93 1532.4 Z" fill="#000000" fill-rule="nonzero" fill-opacity="1" /><path clip-path="url(#clip160)" d="M1406.82 1518.52 L1420.32 1518.52 L1420.32 1523.07 L1412.68 1523.07 L1412.68 1572.09 L1420.32 1572.09 L1420.32 1576.64 L1406.82 1576.64 L1406.82 1518.52 Z" fill="#000000" fill-rule="nonzero" fill-opacity="1" /><path clip-path="url(#clip160)" d="M1456.25 1549.81 Q1456.25 1543.44 1453.61 1539.94 Q1451 1536.44 1446.26 1536.44 Q1441.55 1536.44 1438.91 1539.94 Q1436.3 1543.44 1436.3 1549.81 Q1436.3 1556.14 1438.91 1559.64 Q1441.55 1563.14 1446.26 1563.14 Q1451 1563.14 1453.61 1559.64 Q1456.25 1556.14 1456.25 1549.81 M1462.11 1563.62 Q1462.11 1572.72 1458.07 1577.15 Q1454.03 1581.6 1445.69 1581.6 Q1442.6 1581.6 1439.86 1581.13 Q1437.12 1580.68 1434.55 1579.72 L1434.55 1574.03 Q1437.12 1575.43 1439.64 1576.1 Q1442.15 1576.76 1444.76 1576.76 Q1450.52 1576.76 1453.39 1573.74 Q1456.25 1570.75 1456.25 1564.67 L1456.25 1561.77 Q1454.44 1564.92 1451.61 1566.48 Q1448.77 1568.04 1444.83 1568.04 Q1438.27 1568.04 1434.26 1563.05 Q1430.25 1558.05 1430.25 1549.81 Q1430.25 1541.53 1434.26 1536.53 Q1438.27 1531.54 1444.83 1531.54 Q1448.77 1531.54 1451.61 1533.1 Q1454.44 1534.66 1456.25 1537.81 L1456.25 1532.4 L1462.11 1532.4 L1462.11 1563.62 Z" fill="#000000" fill-rule="nonzero" fill-opacity="1" /><path clip-path="url(#clip160)" d="M1484.58 1520.52 L1489.99 1520.52 L1473.44 1574.09 L1468.03 1574.09 L1484.58 1520.52 Z" fill="#000000" fill-rule="nonzero" fill-opacity="1" /><path clip-path="url(#clip160)" d="M1495.91 1518.52 L1501.8 1518.52 L1501.8 1547.77 L1519.27 1532.4 L1526.75 1532.4 L1507.85 1549.07 L1527.55 1568.04 L1519.91 1568.04 L1501.8 1550.63 L1501.8 1568.04 L1495.91 1568.04 L1495.91 1518.52 Z" fill="#000000" fill-rule="nonzero" fill-opacity="1" /><path clip-path="url(#clip160)" d="M1557.34 1549.81 Q1557.34 1543.44 1554.7 1539.94 Q1552.09 1536.44 1547.35 1536.44 Q1542.64 1536.44 1539.99 1539.94 Q1537.38 1543.44 1537.38 1549.81 Q1537.38 1556.14 1539.99 1559.64 Q1542.64 1563.14 1547.35 1563.14 Q1552.09 1563.14 1554.7 1559.64 Q1557.34 1556.14 1557.34 1549.81 M1563.2 1563.62 Q1563.2 1572.72 1559.16 1577.15 Q1555.11 1581.6 1546.77 1581.6 Q1543.69 1581.6 1540.95 1581.13 Q1538.21 1580.68 1535.63 1579.72 L1535.63 1574.03 Q1538.21 1575.43 1540.73 1576.1 Q1543.24 1576.76 1545.85 1576.76 Q1551.61 1576.76 1554.48 1573.74 Q1557.34 1570.75 1557.34 1564.67 L1557.34 1561.77 Q1555.53 1564.92 1552.69 1566.48 Q1549.86 1568.04 1545.91 1568.04 Q1539.36 1568.04 1535.35 1563.05 Q1531.34 1558.05 1531.34 1549.81 Q1531.34 1541.53 1535.35 1536.53 Q1539.36 1531.54 1545.91 1531.54 Q1549.86 1531.54 1552.69 1533.1 Q1555.53 1534.66 1557.34 1537.81 L1557.34 1532.4 L1563.2 1532.4 L1563.2 1563.62 Z" fill="#000000" fill-rule="nonzero" fill-opacity="1" /><path clip-path="url(#clip160)" d="M1588.95 1518.52 L1588.95 1576.64 L1575.45 1576.64 L1575.45 1572.09 L1583.06 1572.09 L1583.06 1523.07 L1575.45 1523.07 L1575.45 1518.52 L1588.95 1518.52 Z" fill="#000000" fill-rule="nonzero" fill-opacity="1" /><polyline clip-path="url(#clip162)" style="stroke:#000000; stroke-linecap:round; stroke-linejoin:round; stroke-width:2; stroke-opacity:0.1; fill:none" points="377.852,1378.56 2352.76,1378.56 "/>
<polyline clip-path="url(#clip162)" style="stroke:#000000; stroke-linecap:round; stroke-linejoin:round; stroke-width:2; stroke-opacity:0.1; fill:none" points="377.852,1055.47 2352.76,1055.47 "/>
<polyline clip-path="url(#clip162)" style="stroke:#000000; stroke-linecap:round; stroke-linejoin:round; stroke-width:2; stroke-opacity:0.1; fill:none" points="377.852,732.373 2352.76,732.373 "/>
<polyline clip-path="url(#clip162)" style="stroke:#000000; stroke-linecap:round; stroke-linejoin:round; stroke-width:2; stroke-opacity:0.1; fill:none" points="377.852,409.279 2352.76,409.279 "/>
<polyline clip-path="url(#clip162)" style="stroke:#000000; stroke-linecap:round; stroke-linejoin:round; stroke-width:2; stroke-opacity:0.1; fill:none" points="377.852,86.1841 2352.76,86.1841 "/>
<polyline clip-path="url(#clip160)" style="stroke:#000000; stroke-linecap:round; stroke-linejoin:round; stroke-width:4; stroke-opacity:1; fill:none" points="377.852,1423.18 377.852,47.2441 "/>
<polyline clip-path="url(#clip160)" style="stroke:#000000; stroke-linecap:round; stroke-linejoin:round; stroke-width:4; stroke-opacity:1; fill:none" points="377.852,1378.56 396.749,1378.56 "/>
<polyline clip-path="url(#clip160)" style="stroke:#000000; stroke-linecap:round; stroke-linejoin:round; stroke-width:4; stroke-opacity:1; fill:none" points="377.852,1055.47 396.749,1055.47 "/>
<polyline clip-path="url(#clip160)" style="stroke:#000000; stroke-linecap:round; stroke-linejoin:round; stroke-width:4; stroke-opacity:1; fill:none" points="377.852,732.373 396.749,732.373 "/>
<polyline clip-path="url(#clip160)" style="stroke:#000000; stroke-linecap:round; stroke-linejoin:round; stroke-width:4; stroke-opacity:1; fill:none" points="377.852,409.279 396.749,409.279 "/>
<polyline clip-path="url(#clip160)" style="stroke:#000000; stroke-linecap:round; stroke-linejoin:round; stroke-width:4; stroke-opacity:1; fill:none" points="377.852,86.1841 396.749,86.1841 "/>
<path clip-path="url(#clip160)" d="M114.26 1379.01 L143.936 1379.01 L143.936 1382.95 L114.26 1382.95 L114.26 1379.01 Z" fill="#000000" fill-rule="nonzero" fill-opacity="1" /><path clip-path="url(#clip160)" d="M164.028 1364.36 Q160.417 1364.36 158.589 1367.93 Q156.783 1371.47 156.783 1378.6 Q156.783 1385.7 158.589 1389.27 Q160.417 1392.81 164.028 1392.81 Q167.663 1392.81 169.468 1389.27 Q171.297 1385.7 171.297 1378.6 Q171.297 1371.47 169.468 1367.93 Q167.663 1364.36 164.028 1364.36 M164.028 1360.66 Q169.839 1360.66 172.894 1365.26 Q175.973 1369.85 175.973 1378.6 Q175.973 1387.32 172.894 1391.93 Q169.839 1396.51 164.028 1396.51 Q158.218 1396.51 155.14 1391.93 Q152.084 1387.32 152.084 1378.6 Q152.084 1369.85 155.14 1365.26 Q158.218 1360.66 164.028 1360.66 Z" fill="#000000" fill-rule="nonzero" fill-opacity="1" /><path clip-path="url(#clip160)" d="M184.19 1389.96 L189.075 1389.96 L189.075 1395.84 L184.19 1395.84 L184.19 1389.96 Z" fill="#000000" fill-rule="nonzero" fill-opacity="1" /><path clip-path="url(#clip160)" d="M209.26 1364.36 Q205.649 1364.36 203.82 1367.93 Q202.014 1371.47 202.014 1378.6 Q202.014 1385.7 203.82 1389.27 Q205.649 1392.81 209.26 1392.81 Q212.894 1392.81 214.699 1389.27 Q216.528 1385.7 216.528 1378.6 Q216.528 1371.47 214.699 1367.93 Q212.894 1364.36 209.26 1364.36 M209.26 1360.66 Q215.07 1360.66 218.125 1365.26 Q221.204 1369.85 221.204 1378.6 Q221.204 1387.32 218.125 1391.93 Q215.07 1396.51 209.26 1396.51 Q203.449 1396.51 200.371 1391.93 Q197.315 1387.32 197.315 1378.6 Q197.315 1369.85 200.371 1365.26 Q203.449 1360.66 209.26 1360.66 Z" fill="#000000" fill-rule="nonzero" fill-opacity="1" /><path clip-path="url(#clip160)" d="M239.422 1364.36 Q235.81 1364.36 233.982 1367.93 Q232.176 1371.47 232.176 1378.6 Q232.176 1385.7 233.982 1389.27 Q235.81 1392.81 239.422 1392.81 Q243.056 1392.81 244.861 1389.27 Q246.69 1385.7 246.69 1378.6 Q246.69 1371.47 244.861 1367.93 Q243.056 1364.36 239.422 1364.36 M239.422 1360.66 Q245.232 1360.66 248.287 1365.26 Q251.366 1369.85 251.366 1378.6 Q251.366 1387.32 248.287 1391.93 Q245.232 1396.51 239.422 1396.51 Q233.611 1396.51 230.533 1391.93 Q227.477 1387.32 227.477 1378.6 Q227.477 1369.85 230.533 1365.26 Q233.611 1360.66 239.422 1360.66 Z" fill="#000000" fill-rule="nonzero" fill-opacity="1" /><path clip-path="url(#clip160)" d="M269.583 1364.36 Q265.972 1364.36 264.144 1367.93 Q262.338 1371.47 262.338 1378.6 Q262.338 1385.7 264.144 1389.27 Q265.972 1392.81 269.583 1392.81 Q273.218 1392.81 275.023 1389.27 Q276.852 1385.7 276.852 1378.6 Q276.852 1371.47 275.023 1367.93 Q273.218 1364.36 269.583 1364.36 M269.583 1360.66 Q275.394 1360.66 278.449 1365.26 Q281.528 1369.85 281.528 1378.6 Q281.528 1387.32 278.449 1391.93 Q275.394 1396.51 269.583 1396.51 Q263.773 1396.51 260.695 1391.93 Q257.639 1387.32 257.639 1378.6 Q257.639 1369.85 260.695 1365.26 Q263.773 1360.66 269.583 1360.66 Z" fill="#000000" fill-rule="nonzero" fill-opacity="1" /><path clip-path="url(#clip160)" d="M293.773 1391.91 L310.092 1391.91 L310.092 1395.84 L288.148 1395.84 L288.148 1391.91 Q290.81 1389.15 295.393 1384.52 Q300 1379.87 301.18 1378.53 Q303.426 1376 304.305 1374.27 Q305.208 1372.51 305.208 1370.82 Q305.208 1368.06 303.264 1366.33 Q301.342 1364.59 298.241 1364.59 Q296.042 1364.59 293.588 1365.36 Q291.157 1366.12 288.38 1367.67 L288.38 1362.95 Q291.204 1361.81 293.657 1361.24 Q296.111 1360.66 298.148 1360.66 Q303.518 1360.66 306.713 1363.34 Q309.907 1366.03 309.907 1370.52 Q309.907 1372.65 309.097 1374.57 Q308.31 1376.47 306.204 1379.06 Q305.625 1379.73 302.523 1382.95 Q299.421 1386.14 293.773 1391.91 Z" fill="#000000" fill-rule="nonzero" fill-opacity="1" /><path clip-path="url(#clip160)" d="M329.907 1364.36 Q326.296 1364.36 324.467 1367.93 Q322.662 1371.47 322.662 1378.6 Q322.662 1385.7 324.467 1389.27 Q326.296 1392.81 329.907 1392.81 Q333.541 1392.81 335.347 1389.27 Q337.176 1385.7 337.176 1378.6 Q337.176 1371.47 335.347 1367.93 Q333.541 1364.36 329.907 1364.36 M329.907 1360.66 Q335.717 1360.66 338.773 1365.26 Q341.852 1369.85 341.852 1378.6 Q341.852 1387.32 338.773 1391.93 Q335.717 1396.51 329.907 1396.51 Q324.097 1396.51 321.018 1391.93 Q317.963 1387.32 317.963 1378.6 Q317.963 1369.85 321.018 1365.26 Q324.097 1360.66 329.907 1360.66 Z" fill="#000000" fill-rule="nonzero" fill-opacity="1" /><path clip-path="url(#clip160)" d="M115.256 1055.92 L144.931 1055.92 L144.931 1059.85 L115.256 1059.85 L115.256 1055.92 Z" fill="#000000" fill-rule="nonzero" fill-opacity="1" /><path clip-path="url(#clip160)" d="M165.024 1041.27 Q161.413 1041.27 159.584 1044.83 Q157.778 1048.37 157.778 1055.5 Q157.778 1062.61 159.584 1066.17 Q161.413 1069.71 165.024 1069.71 Q168.658 1069.71 170.464 1066.17 Q172.292 1062.61 172.292 1055.5 Q172.292 1048.37 170.464 1044.83 Q168.658 1041.27 165.024 1041.27 M165.024 1037.56 Q170.834 1037.56 173.889 1042.17 Q176.968 1046.75 176.968 1055.5 Q176.968 1064.23 173.889 1068.84 Q170.834 1073.42 165.024 1073.42 Q159.214 1073.42 156.135 1068.84 Q153.079 1064.23 153.079 1055.5 Q153.079 1046.75 156.135 1042.17 Q159.214 1037.56 165.024 1037.56 Z" fill="#000000" fill-rule="nonzero" fill-opacity="1" /><path clip-path="url(#clip160)" d="M185.186 1066.87 L190.07 1066.87 L190.07 1072.75 L185.186 1072.75 L185.186 1066.87 Z" fill="#000000" fill-rule="nonzero" fill-opacity="1" /><path clip-path="url(#clip160)" d="M210.255 1041.27 Q206.644 1041.27 204.815 1044.83 Q203.01 1048.37 203.01 1055.5 Q203.01 1062.61 204.815 1066.17 Q206.644 1069.71 210.255 1069.71 Q213.889 1069.71 215.695 1066.17 Q217.523 1062.61 217.523 1055.5 Q217.523 1048.37 215.695 1044.83 Q213.889 1041.27 210.255 1041.27 M210.255 1037.56 Q216.065 1037.56 219.121 1042.17 Q222.199 1046.75 222.199 1055.5 Q222.199 1064.23 219.121 1068.84 Q216.065 1073.42 210.255 1073.42 Q204.445 1073.42 201.366 1068.84 Q198.311 1064.23 198.311 1055.5 Q198.311 1046.75 201.366 1042.17 Q204.445 1037.56 210.255 1037.56 Z" fill="#000000" fill-rule="nonzero" fill-opacity="1" /><path clip-path="url(#clip160)" d="M240.417 1041.27 Q236.806 1041.27 234.977 1044.83 Q233.172 1048.37 233.172 1055.5 Q233.172 1062.61 234.977 1066.17 Q236.806 1069.71 240.417 1069.71 Q244.051 1069.71 245.857 1066.17 Q247.685 1062.61 247.685 1055.5 Q247.685 1048.37 245.857 1044.83 Q244.051 1041.27 240.417 1041.27 M240.417 1037.56 Q246.227 1037.56 249.283 1042.17 Q252.361 1046.75 252.361 1055.5 Q252.361 1064.23 249.283 1068.84 Q246.227 1073.42 240.417 1073.42 Q234.607 1073.42 231.528 1068.84 Q228.473 1064.23 228.473 1055.5 Q228.473 1046.75 231.528 1042.17 Q234.607 1037.56 240.417 1037.56 Z" fill="#000000" fill-rule="nonzero" fill-opacity="1" /><path clip-path="url(#clip160)" d="M270.579 1041.27 Q266.968 1041.27 265.139 1044.83 Q263.333 1048.37 263.333 1055.5 Q263.333 1062.61 265.139 1066.17 Q266.968 1069.71 270.579 1069.71 Q274.213 1069.71 276.019 1066.17 Q277.847 1062.61 277.847 1055.5 Q277.847 1048.37 276.019 1044.83 Q274.213 1041.27 270.579 1041.27 M270.579 1037.56 Q276.389 1037.56 279.444 1042.17 Q282.523 1046.75 282.523 1055.5 Q282.523 1064.23 279.444 1068.84 Q276.389 1073.42 270.579 1073.42 Q264.769 1073.42 261.69 1068.84 Q258.634 1064.23 258.634 1055.5 Q258.634 1046.75 261.69 1042.17 Q264.769 1037.56 270.579 1037.56 Z" fill="#000000" fill-rule="nonzero" fill-opacity="1" /><path clip-path="url(#clip160)" d="M291.551 1068.81 L299.19 1068.81 L299.19 1042.45 L290.88 1044.11 L290.88 1039.85 L299.143 1038.19 L303.819 1038.19 L303.819 1068.81 L311.458 1068.81 L311.458 1072.75 L291.551 1072.75 L291.551 1068.81 Z" fill="#000000" fill-rule="nonzero" fill-opacity="1" /><path clip-path="url(#clip160)" d="M320.949 1038.19 L339.305 1038.19 L339.305 1042.12 L325.231 1042.12 L325.231 1050.59 Q326.25 1050.25 327.268 1050.09 Q328.287 1049.9 329.305 1049.9 Q335.092 1049.9 338.472 1053.07 Q341.852 1056.24 341.852 1061.66 Q341.852 1067.24 338.379 1070.34 Q334.907 1073.42 328.588 1073.42 Q326.412 1073.42 324.143 1073.05 Q321.898 1072.68 319.491 1071.94 L319.491 1067.24 Q321.574 1068.37 323.796 1068.93 Q326.018 1069.48 328.495 1069.48 Q332.5 1069.48 334.838 1067.38 Q337.176 1065.27 337.176 1061.66 Q337.176 1058.05 334.838 1055.94 Q332.5 1053.84 328.495 1053.84 Q326.62 1053.84 324.745 1054.25 Q322.893 1054.67 320.949 1055.55 L320.949 1038.19 Z" fill="#000000" fill-rule="nonzero" fill-opacity="1" /><path clip-path="url(#clip160)" d="M114.26 732.824 L143.936 732.824 L143.936 736.76 L114.26 736.76 L114.26 732.824 Z" fill="#000000" fill-rule="nonzero" fill-opacity="1" /><path clip-path="url(#clip160)" d="M164.028 718.172 Q160.417 718.172 158.589 721.736 Q156.783 725.278 156.783 732.408 Q156.783 739.514 158.589 743.079 Q160.417 746.621 164.028 746.621 Q167.663 746.621 169.468 743.079 Q171.297 739.514 171.297 732.408 Q171.297 725.278 169.468 721.736 Q167.663 718.172 164.028 718.172 M164.028 714.468 Q169.839 714.468 172.894 719.074 Q175.973 723.658 175.973 732.408 Q175.973 741.134 172.894 745.741 Q169.839 750.324 164.028 750.324 Q158.218 750.324 155.14 745.741 Q152.084 741.134 152.084 732.408 Q152.084 723.658 155.14 719.074 Q158.218 714.468 164.028 714.468 Z" fill="#000000" fill-rule="nonzero" fill-opacity="1" /><path clip-path="url(#clip160)" d="M184.19 743.773 L189.075 743.773 L189.075 749.653 L184.19 749.653 L184.19 743.773 Z" fill="#000000" fill-rule="nonzero" fill-opacity="1" /><path clip-path="url(#clip160)" d="M209.26 718.172 Q205.649 718.172 203.82 721.736 Q202.014 725.278 202.014 732.408 Q202.014 739.514 203.82 743.079 Q205.649 746.621 209.26 746.621 Q212.894 746.621 214.699 743.079 Q216.528 739.514 216.528 732.408 Q216.528 725.278 214.699 721.736 Q212.894 718.172 209.26 718.172 M209.26 714.468 Q215.07 714.468 218.125 719.074 Q221.204 723.658 221.204 732.408 Q221.204 741.134 218.125 745.741 Q215.07 750.324 209.26 750.324 Q203.449 750.324 200.371 745.741 Q197.315 741.134 197.315 732.408 Q197.315 723.658 200.371 719.074 Q203.449 714.468 209.26 714.468 Z" fill="#000000" fill-rule="nonzero" fill-opacity="1" /><path clip-path="url(#clip160)" d="M239.422 718.172 Q235.81 718.172 233.982 721.736 Q232.176 725.278 232.176 732.408 Q232.176 739.514 233.982 743.079 Q235.81 746.621 239.422 746.621 Q243.056 746.621 244.861 743.079 Q246.69 739.514 246.69 732.408 Q246.69 725.278 244.861 721.736 Q243.056 718.172 239.422 718.172 M239.422 714.468 Q245.232 714.468 248.287 719.074 Q251.366 723.658 251.366 732.408 Q251.366 741.134 248.287 745.741 Q245.232 750.324 239.422 750.324 Q233.611 750.324 230.533 745.741 Q227.477 741.134 227.477 732.408 Q227.477 723.658 230.533 719.074 Q233.611 714.468 239.422 714.468 Z" fill="#000000" fill-rule="nonzero" fill-opacity="1" /><path clip-path="url(#clip160)" d="M269.583 718.172 Q265.972 718.172 264.144 721.736 Q262.338 725.278 262.338 732.408 Q262.338 739.514 264.144 743.079 Q265.972 746.621 269.583 746.621 Q273.218 746.621 275.023 743.079 Q276.852 739.514 276.852 732.408 Q276.852 725.278 275.023 721.736 Q273.218 718.172 269.583 718.172 M269.583 714.468 Q275.394 714.468 278.449 719.074 Q281.528 723.658 281.528 732.408 Q281.528 741.134 278.449 745.741 Q275.394 750.324 269.583 750.324 Q263.773 750.324 260.695 745.741 Q257.639 741.134 257.639 732.408 Q257.639 723.658 260.695 719.074 Q263.773 714.468 269.583 714.468 Z" fill="#000000" fill-rule="nonzero" fill-opacity="1" /><path clip-path="url(#clip160)" d="M290.556 745.718 L298.194 745.718 L298.194 719.352 L289.884 721.019 L289.884 716.76 L298.148 715.093 L302.824 715.093 L302.824 745.718 L310.463 745.718 L310.463 749.653 L290.556 749.653 L290.556 745.718 Z" fill="#000000" fill-rule="nonzero" fill-opacity="1" /><path clip-path="url(#clip160)" d="M329.907 718.172 Q326.296 718.172 324.467 721.736 Q322.662 725.278 322.662 732.408 Q322.662 739.514 324.467 743.079 Q326.296 746.621 329.907 746.621 Q333.541 746.621 335.347 743.079 Q337.176 739.514 337.176 732.408 Q337.176 725.278 335.347 721.736 Q333.541 718.172 329.907 718.172 M329.907 714.468 Q335.717 714.468 338.773 719.074 Q341.852 723.658 341.852 732.408 Q341.852 741.134 338.773 745.741 Q335.717 750.324 329.907 750.324 Q324.097 750.324 321.018 745.741 Q317.963 741.134 317.963 732.408 Q317.963 723.658 321.018 719.074 Q324.097 714.468 329.907 714.468 Z" fill="#000000" fill-rule="nonzero" fill-opacity="1" /><path clip-path="url(#clip160)" d="M115.256 409.73 L144.931 409.73 L144.931 413.665 L115.256 413.665 L115.256 409.73 Z" fill="#000000" fill-rule="nonzero" fill-opacity="1" /><path clip-path="url(#clip160)" d="M165.024 395.077 Q161.413 395.077 159.584 398.642 Q157.778 402.184 157.778 409.313 Q157.778 416.42 159.584 419.984 Q161.413 423.526 165.024 423.526 Q168.658 423.526 170.464 419.984 Q172.292 416.42 172.292 409.313 Q172.292 402.184 170.464 398.642 Q168.658 395.077 165.024 395.077 M165.024 391.374 Q170.834 391.374 173.889 395.98 Q176.968 400.563 176.968 409.313 Q176.968 418.04 173.889 422.647 Q170.834 427.23 165.024 427.23 Q159.214 427.23 156.135 422.647 Q153.079 418.04 153.079 409.313 Q153.079 400.563 156.135 395.98 Q159.214 391.374 165.024 391.374 Z" fill="#000000" fill-rule="nonzero" fill-opacity="1" /><path clip-path="url(#clip160)" d="M185.186 420.679 L190.07 420.679 L190.07 426.559 L185.186 426.559 L185.186 420.679 Z" fill="#000000" fill-rule="nonzero" fill-opacity="1" /><path clip-path="url(#clip160)" d="M210.255 395.077 Q206.644 395.077 204.815 398.642 Q203.01 402.184 203.01 409.313 Q203.01 416.42 204.815 419.984 Q206.644 423.526 210.255 423.526 Q213.889 423.526 215.695 419.984 Q217.523 416.42 217.523 409.313 Q217.523 402.184 215.695 398.642 Q213.889 395.077 210.255 395.077 M210.255 391.374 Q216.065 391.374 219.121 395.98 Q222.199 400.563 222.199 409.313 Q222.199 418.04 219.121 422.647 Q216.065 427.23 210.255 427.23 Q204.445 427.23 201.366 422.647 Q198.311 418.04 198.311 409.313 Q198.311 400.563 201.366 395.98 Q204.445 391.374 210.255 391.374 Z" fill="#000000" fill-rule="nonzero" fill-opacity="1" /><path clip-path="url(#clip160)" d="M240.417 395.077 Q236.806 395.077 234.977 398.642 Q233.172 402.184 233.172 409.313 Q233.172 416.42 234.977 419.984 Q236.806 423.526 240.417 423.526 Q244.051 423.526 245.857 419.984 Q247.685 416.42 247.685 409.313 Q247.685 402.184 245.857 398.642 Q244.051 395.077 240.417 395.077 M240.417 391.374 Q246.227 391.374 249.283 395.98 Q252.361 400.563 252.361 409.313 Q252.361 418.04 249.283 422.647 Q246.227 427.23 240.417 427.23 Q234.607 427.23 231.528 422.647 Q228.473 418.04 228.473 409.313 Q228.473 400.563 231.528 395.98 Q234.607 391.374 240.417 391.374 Z" fill="#000000" fill-rule="nonzero" fill-opacity="1" /><path clip-path="url(#clip160)" d="M270.579 395.077 Q266.968 395.077 265.139 398.642 Q263.333 402.184 263.333 409.313 Q263.333 416.42 265.139 419.984 Q266.968 423.526 270.579 423.526 Q274.213 423.526 276.019 419.984 Q277.847 416.42 277.847 409.313 Q277.847 402.184 276.019 398.642 Q274.213 395.077 270.579 395.077 M270.579 391.374 Q276.389 391.374 279.444 395.98 Q282.523 400.563 282.523 409.313 Q282.523 418.04 279.444 422.647 Q276.389 427.23 270.579 427.23 Q264.769 427.23 261.69 422.647 Q258.634 418.04 258.634 409.313 Q258.634 400.563 261.69 395.98 Q264.769 391.374 270.579 391.374 Z" fill="#000000" fill-rule="nonzero" fill-opacity="1" /><path clip-path="url(#clip160)" d="M300.741 395.077 Q297.13 395.077 295.301 398.642 Q293.495 402.184 293.495 409.313 Q293.495 416.42 295.301 419.984 Q297.13 423.526 300.741 423.526 Q304.375 423.526 306.18 419.984 Q308.009 416.42 308.009 409.313 Q308.009 402.184 306.18 398.642 Q304.375 395.077 300.741 395.077 M300.741 391.374 Q306.551 391.374 309.606 395.98 Q312.685 400.563 312.685 409.313 Q312.685 418.04 309.606 422.647 Q306.551 427.23 300.741 427.23 Q294.93 427.23 291.852 422.647 Q288.796 418.04 288.796 409.313 Q288.796 400.563 291.852 395.98 Q294.93 391.374 300.741 391.374 Z" fill="#000000" fill-rule="nonzero" fill-opacity="1" /><path clip-path="url(#clip160)" d="M320.949 391.999 L339.305 391.999 L339.305 395.934 L325.231 395.934 L325.231 404.406 Q326.25 404.059 327.268 403.897 Q328.287 403.711 329.305 403.711 Q335.092 403.711 338.472 406.883 Q341.852 410.054 341.852 415.471 Q341.852 421.049 338.379 424.151 Q334.907 427.23 328.588 427.23 Q326.412 427.23 324.143 426.859 Q321.898 426.489 319.491 425.748 L319.491 421.049 Q321.574 422.184 323.796 422.739 Q326.018 423.295 328.495 423.295 Q332.5 423.295 334.838 421.188 Q337.176 419.082 337.176 415.471 Q337.176 411.86 334.838 409.753 Q332.5 407.647 328.495 407.647 Q326.62 407.647 324.745 408.063 Q322.893 408.48 320.949 409.36 L320.949 391.999 Z" fill="#000000" fill-rule="nonzero" fill-opacity="1" /><path clip-path="url(#clip160)" d="M164.028 71.9828 Q160.417 71.9828 158.589 75.5476 Q156.783 79.0892 156.783 86.2188 Q156.783 93.3253 158.589 96.8901 Q160.417 100.432 164.028 100.432 Q167.663 100.432 169.468 96.8901 Q171.297 93.3253 171.297 86.2188 Q171.297 79.0892 169.468 75.5476 Q167.663 71.9828 164.028 71.9828 M164.028 68.2791 Q169.839 68.2791 172.894 72.8856 Q175.973 77.4689 175.973 86.2188 Q175.973 94.9456 172.894 99.5521 Q169.839 104.135 164.028 104.135 Q158.218 104.135 155.14 99.5521 Q152.084 94.9456 152.084 86.2188 Q152.084 77.4689 155.14 72.8856 Q158.218 68.2791 164.028 68.2791 Z" fill="#000000" fill-rule="nonzero" fill-opacity="1" /><path clip-path="url(#clip160)" d="M184.19 97.5845 L189.075 97.5845 L189.075 103.464 L184.19 103.464 L184.19 97.5845 Z" fill="#000000" fill-rule="nonzero" fill-opacity="1" /><path clip-path="url(#clip160)" d="M209.26 71.9828 Q205.649 71.9828 203.82 75.5476 Q202.014 79.0892 202.014 86.2188 Q202.014 93.3253 203.82 96.8901 Q205.649 100.432 209.26 100.432 Q212.894 100.432 214.699 96.8901 Q216.528 93.3253 216.528 86.2188 Q216.528 79.0892 214.699 75.5476 Q212.894 71.9828 209.26 71.9828 M209.26 68.2791 Q215.07 68.2791 218.125 72.8856 Q221.204 77.4689 221.204 86.2188 Q221.204 94.9456 218.125 99.5521 Q215.07 104.135 209.26 104.135 Q203.449 104.135 200.371 99.5521 Q197.315 94.9456 197.315 86.2188 Q197.315 77.4689 200.371 72.8856 Q203.449 68.2791 209.26 68.2791 Z" fill="#000000" fill-rule="nonzero" fill-opacity="1" /><path clip-path="url(#clip160)" d="M239.422 71.9828 Q235.81 71.9828 233.982 75.5476 Q232.176 79.0892 232.176 86.2188 Q232.176 93.3253 233.982 96.8901 Q235.81 100.432 239.422 100.432 Q243.056 100.432 244.861 96.8901 Q246.69 93.3253 246.69 86.2188 Q246.69 79.0892 244.861 75.5476 Q243.056 71.9828 239.422 71.9828 M239.422 68.2791 Q245.232 68.2791 248.287 72.8856 Q251.366 77.4689 251.366 86.2188 Q251.366 94.9456 248.287 99.5521 Q245.232 104.135 239.422 104.135 Q233.611 104.135 230.533 99.5521 Q227.477 94.9456 227.477 86.2188 Q227.477 77.4689 230.533 72.8856 Q233.611 68.2791 239.422 68.2791 Z" fill="#000000" fill-rule="nonzero" fill-opacity="1" /><path clip-path="url(#clip160)" d="M269.583 71.9828 Q265.972 71.9828 264.144 75.5476 Q262.338 79.0892 262.338 86.2188 Q262.338 93.3253 264.144 96.8901 Q265.972 100.432 269.583 100.432 Q273.218 100.432 275.023 96.8901 Q276.852 93.3253 276.852 86.2188 Q276.852 79.0892 275.023 75.5476 Q273.218 71.9828 269.583 71.9828 M269.583 68.2791 Q275.394 68.2791 278.449 72.8856 Q281.528 77.4689 281.528 86.2188 Q281.528 94.9456 278.449 99.5521 Q275.394 104.135 269.583 104.135 Q263.773 104.135 260.695 99.5521 Q257.639 94.9456 257.639 86.2188 Q257.639 77.4689 260.695 72.8856 Q263.773 68.2791 269.583 68.2791 Z" fill="#000000" fill-rule="nonzero" fill-opacity="1" /><path clip-path="url(#clip160)" d="M299.745 71.9828 Q296.134 71.9828 294.305 75.5476 Q292.5 79.0892 292.5 86.2188 Q292.5 93.3253 294.305 96.8901 Q296.134 100.432 299.745 100.432 Q303.38 100.432 305.185 96.8901 Q307.014 93.3253 307.014 86.2188 Q307.014 79.0892 305.185 75.5476 Q303.38 71.9828 299.745 71.9828 M299.745 68.2791 Q305.555 68.2791 308.611 72.8856 Q311.69 77.4689 311.69 86.2188 Q311.69 94.9456 308.611 99.5521 Q305.555 104.135 299.745 104.135 Q293.935 104.135 290.856 99.5521 Q287.801 94.9456 287.801 86.2188 Q287.801 77.4689 290.856 72.8856 Q293.935 68.2791 299.745 68.2791 Z" fill="#000000" fill-rule="nonzero" fill-opacity="1" /><path clip-path="url(#clip160)" d="M329.907 71.9828 Q326.296 71.9828 324.467 75.5476 Q322.662 79.0892 322.662 86.2188 Q322.662 93.3253 324.467 96.8901 Q326.296 100.432 329.907 100.432 Q333.541 100.432 335.347 96.8901 Q337.176 93.3253 337.176 86.2188 Q337.176 79.0892 335.347 75.5476 Q333.541 71.9828 329.907 71.9828 M329.907 68.2791 Q335.717 68.2791 338.773 72.8856 Q341.852 77.4689 341.852 86.2188 Q341.852 94.9456 338.773 99.5521 Q335.717 104.135 329.907 104.135 Q324.097 104.135 321.018 99.5521 Q317.963 94.9456 317.963 86.2188 Q317.963 77.4689 321.018 72.8856 Q324.097 68.2791 329.907 68.2791 Z" fill="#000000" fill-rule="nonzero" fill-opacity="1" /><path clip-path="url(#clip160)" d="M29.4065 1331.74 L34.9447 1331.74 Q33.6716 1334.22 33.035 1336.9 Q32.3984 1339.57 32.3984 1342.44 Q32.3984 1346.8 33.7352 1348.99 Q35.072 1351.16 37.7456 1351.16 Q39.7826 1351.16 40.9603 1349.6 Q42.1061 1348.04 43.1565 1343.33 L43.6021 1341.32 Q44.9389 1335.08 47.3897 1332.47 Q49.8086 1329.83 54.1691 1329.83 Q59.1344 1329.83 62.0308 1333.78 Q64.9272 1337.69 64.9272 1344.57 Q64.9272 1347.43 64.3543 1350.55 Q63.8132 1353.64 62.6992 1357.08 L56.6518 1357.08 Q58.3387 1353.83 59.198 1350.68 Q60.0256 1347.53 60.0256 1344.44 Q60.0256 1340.3 58.6251 1338.08 Q57.1929 1335.85 54.6147 1335.85 Q52.2276 1335.85 50.9545 1337.47 Q49.6813 1339.06 48.5037 1344.51 L48.0262 1346.54 Q46.8804 1351.99 44.5251 1354.4 Q42.138 1356.82 38.0002 1356.82 Q32.9713 1356.82 30.2341 1353.26 Q27.4968 1349.69 27.4968 1343.14 Q27.4968 1339.89 27.9743 1337.03 Q28.4517 1334.16 29.4065 1331.74 Z" fill="#000000" fill-rule="nonzero" fill-opacity="1" /><path clip-path="url(#clip160)" d="M42.4881 1290.87 L64.0042 1290.87 L64.0042 1296.73 L42.679 1296.73 Q37.6183 1296.73 35.1038 1298.7 Q32.5894 1300.68 32.5894 1304.62 Q32.5894 1309.37 35.6131 1312.1 Q38.6368 1314.84 43.8567 1314.84 L64.0042 1314.84 L64.0042 1320.73 L28.3562 1320.73 L28.3562 1314.84 L33.8944 1314.84 Q30.6797 1312.74 29.0883 1309.91 Q27.4968 1307.04 27.4968 1303.32 Q27.4968 1297.18 31.3163 1294.03 Q35.1038 1290.87 42.4881 1290.87 Z" fill="#000000" fill-rule="nonzero" fill-opacity="1" /><path clip-path="url(#clip160)" d="M32.4621 1265.38 Q32.4621 1270.09 36.1542 1272.83 Q39.8145 1275.56 46.212 1275.56 Q52.6095 1275.56 56.3017 1272.86 Q59.9619 1270.12 59.9619 1265.38 Q59.9619 1260.7 56.2698 1257.96 Q52.5777 1255.23 46.212 1255.23 Q39.8781 1255.23 36.186 1257.96 Q32.4621 1260.7 32.4621 1265.38 M27.4968 1265.38 Q27.4968 1257.74 32.4621 1253.38 Q37.4273 1249.02 46.212 1249.02 Q54.9649 1249.02 59.9619 1253.38 Q64.9272 1257.74 64.9272 1265.38 Q64.9272 1273.05 59.9619 1277.41 Q54.9649 1281.74 46.212 1281.74 Q37.4273 1281.74 32.4621 1277.41 Q27.4968 1273.05 27.4968 1265.38 Z" fill="#000000" fill-rule="nonzero" fill-opacity="1" /><path clip-path="url(#clip160)" d="M28.3562 1242.72 L28.3562 1236.86 L56.1743 1229.54 L28.3562 1222.25 L28.3562 1215.35 L56.1743 1208.02 L28.3562 1200.74 L28.3562 1194.88 L64.0042 1204.21 L64.0042 1211.11 L34.7856 1218.78 L64.0042 1226.49 L64.0042 1233.39 L28.3562 1242.72 Z" fill="#000000" fill-rule="nonzero" fill-opacity="1" /><path clip-path="url(#clip160)" d="M33.7671 1141.82 L14.479 1141.82 L14.479 1135.97 L64.0042 1135.97 L64.0042 1141.82 L58.657 1141.82 Q61.8398 1143.67 63.3994 1146.5 Q64.9272 1149.3 64.9272 1153.25 Q64.9272 1159.71 59.771 1163.78 Q54.6147 1167.83 46.212 1167.83 Q37.8093 1167.83 32.6531 1163.78 Q27.4968 1159.71 27.4968 1153.25 Q27.4968 1149.3 29.0564 1146.5 Q30.5842 1143.67 33.7671 1141.82 M46.212 1161.78 Q52.6732 1161.78 56.3653 1159.14 Q60.0256 1156.46 60.0256 1151.82 Q60.0256 1147.17 56.3653 1144.5 Q52.6732 1141.82 46.212 1141.82 Q39.7508 1141.82 36.0905 1144.5 Q32.3984 1147.17 32.3984 1151.82 Q32.3984 1156.46 36.0905 1159.14 Q39.7508 1161.78 46.212 1161.78 Z" fill="#000000" fill-rule="nonzero" fill-opacity="1" /><path clip-path="url(#clip160)" d="M44.7161 1093.41 L47.5806 1093.41 L47.5806 1120.34 Q53.6281 1119.96 56.8109 1116.71 Q59.9619 1113.43 59.9619 1107.61 Q59.9619 1104.23 59.1344 1101.08 Q58.3069 1097.9 56.6518 1094.78 L62.1899 1094.78 Q63.5267 1097.93 64.227 1101.24 Q64.9272 1104.55 64.9272 1107.96 Q64.9272 1116.49 59.9619 1121.48 Q54.9967 1126.45 46.5303 1126.45 Q37.7774 1126.45 32.6531 1121.74 Q27.4968 1117 27.4968 1108.97 Q27.4968 1101.78 32.1438 1097.61 Q36.7589 1093.41 44.7161 1093.41 M42.9973 1099.27 Q38.1912 1099.33 35.3266 1101.97 Q32.4621 1104.58 32.4621 1108.91 Q32.4621 1113.81 35.2312 1116.77 Q38.0002 1119.7 43.0292 1120.15 L42.9973 1099.27 Z" fill="#000000" fill-rule="nonzero" fill-opacity="1" /><path clip-path="url(#clip160)" d="M58.657 1078.13 L77.5631 1078.13 L77.5631 1084.02 L28.3562 1084.02 L28.3562 1078.13 L33.7671 1078.13 Q30.5842 1076.29 29.0564 1073.49 Q27.4968 1070.65 27.4968 1066.74 Q27.4968 1060.24 32.6531 1056.2 Q37.8093 1052.13 46.212 1052.13 Q54.6147 1052.13 59.771 1056.2 Q64.9272 1060.24 64.9272 1066.74 Q64.9272 1070.65 63.3994 1073.49 Q61.8398 1076.29 58.657 1078.13 M46.212 1058.21 Q39.7508 1058.21 36.0905 1060.88 Q32.3984 1063.52 32.3984 1068.17 Q32.3984 1072.82 36.0905 1075.49 Q39.7508 1078.13 46.212 1078.13 Q52.6732 1078.13 56.3653 1075.49 Q60.0256 1072.82 60.0256 1068.17 Q60.0256 1063.52 56.3653 1060.88 Q52.6732 1058.21 46.212 1058.21 Z" fill="#000000" fill-rule="nonzero" fill-opacity="1" /><path clip-path="url(#clip160)" d="M32.4621 1028.61 Q32.4621 1033.32 36.1542 1036.06 Q39.8145 1038.79 46.212 1038.79 Q52.6095 1038.79 56.3017 1036.09 Q59.9619 1033.35 59.9619 1028.61 Q59.9619 1023.93 56.2698 1021.19 Q52.5777 1018.45 46.212 1018.45 Q39.8781 1018.45 36.186 1021.19 Q32.4621 1023.93 32.4621 1028.61 M27.4968 1028.61 Q27.4968 1020.97 32.4621 1016.61 Q37.4273 1012.25 46.212 1012.25 Q54.9649 1012.25 59.9619 1016.61 Q64.9272 1020.97 64.9272 1028.61 Q64.9272 1036.28 59.9619 1040.64 Q54.9649 1044.97 46.212 1044.97 Q37.4273 1044.97 32.4621 1040.64 Q27.4968 1036.28 27.4968 1028.61 Z" fill="#000000" fill-rule="nonzero" fill-opacity="1" /><path clip-path="url(#clip160)" d="M29.4065 979.814 L34.9447 979.814 Q33.6716 982.297 33.035 984.97 Q32.3984 987.644 32.3984 990.509 Q32.3984 994.869 33.7352 997.065 Q35.072 999.23 37.7456 999.23 Q39.7826 999.23 40.9603 997.67 Q42.1061 996.11 43.1565 991.4 L43.6021 989.395 Q44.9389 983.156 47.3897 980.546 Q49.8086 977.905 54.1691 977.905 Q59.1344 977.905 62.0308 981.851 Q64.9272 985.766 64.9272 992.641 Q64.9272 995.506 64.3543 998.625 Q63.8132 1001.71 62.6992 1005.15 L56.6518 1005.15 Q58.3387 1001.9 59.198 998.752 Q60.0256 995.601 60.0256 992.514 Q60.0256 988.376 58.6251 986.148 Q57.1929 983.92 54.6147 983.92 Q52.2276 983.92 50.9545 985.543 Q49.6813 987.135 48.5037 992.577 L48.0262 994.615 Q46.8804 1000.06 44.5251 1002.48 Q42.138 1004.9 38.0002 1004.9 Q32.9713 1004.9 30.2341 1001.33 Q27.4968 997.766 27.4968 991.209 Q27.4968 987.962 27.9743 985.098 Q28.4517 982.233 29.4065 979.814 Z" fill="#000000" fill-rule="nonzero" fill-opacity="1" /><path clip-path="url(#clip160)" d="M28.3562 968.579 L28.3562 962.722 L64.0042 962.722 L64.0042 968.579 L28.3562 968.579 M14.479 968.579 L14.479 962.722 L21.895 962.722 L21.895 968.579 L14.479 968.579 Z" fill="#000000" fill-rule="nonzero" fill-opacity="1" /><path clip-path="url(#clip160)" d="M18.2347 944.676 L28.3562 944.676 L28.3562 932.613 L32.9077 932.613 L32.9077 944.676 L52.2594 944.676 Q56.6199 944.676 57.8613 943.498 Q59.1026 942.288 59.1026 938.628 L59.1026 932.613 L64.0042 932.613 L64.0042 938.628 Q64.0042 945.408 61.4897 947.986 Q58.9434 950.564 52.2594 950.564 L32.9077 950.564 L32.9077 954.861 L28.3562 954.861 L28.3562 950.564 L18.2347 950.564 L18.2347 944.676 Z" fill="#000000" fill-rule="nonzero" fill-opacity="1" /><path clip-path="url(#clip160)" d="M28.3562 924.91 L28.3562 919.054 L64.0042 919.054 L64.0042 924.91 L28.3562 924.91 M14.479 924.91 L14.479 919.054 L21.895 919.054 L21.895 924.91 L14.479 924.91 Z" fill="#000000" fill-rule="nonzero" fill-opacity="1" /><path clip-path="url(#clip160)" d="M32.4621 892.986 Q32.4621 897.697 36.1542 900.434 Q39.8145 903.171 46.212 903.171 Q52.6095 903.171 56.3017 900.466 Q59.9619 897.728 59.9619 892.986 Q59.9619 888.307 56.2698 885.57 Q52.5777 882.833 46.212 882.833 Q39.8781 882.833 36.186 885.57 Q32.4621 888.307 32.4621 892.986 M27.4968 892.986 Q27.4968 885.347 32.4621 880.987 Q37.4273 876.626 46.212 876.626 Q54.9649 876.626 59.9619 880.987 Q64.9272 885.347 64.9272 892.986 Q64.9272 900.657 59.9619 905.017 Q54.9649 909.346 46.212 909.346 Q37.4273 909.346 32.4621 905.017 Q27.4968 900.657 27.4968 892.986 Z" fill="#000000" fill-rule="nonzero" fill-opacity="1" /><path clip-path="url(#clip160)" d="M42.4881 837.286 L64.0042 837.286 L64.0042 843.143 L42.679 843.143 Q37.6183 843.143 35.1038 845.116 Q32.5894 847.089 32.5894 851.036 Q32.5894 855.778 35.6131 858.516 Q38.6368 861.253 43.8567 861.253 L64.0042 861.253 L64.0042 867.141 L28.3562 867.141 L28.3562 861.253 L33.8944 861.253 Q30.6797 859.152 29.0883 856.32 Q27.4968 853.455 27.4968 849.731 Q27.4968 843.588 31.3163 840.437 Q35.1038 837.286 42.4881 837.286 Z" fill="#000000" fill-rule="nonzero" fill-opacity="1" /><path clip-path="url(#clip160)" d="M29.4065 782.159 L34.9447 782.159 Q33.6716 784.642 33.035 787.315 Q32.3984 789.989 32.3984 792.853 Q32.3984 797.214 33.7352 799.41 Q35.072 801.574 37.7456 801.574 Q39.7826 801.574 40.9603 800.015 Q42.1061 798.455 43.1565 793.745 L43.6021 791.739 Q44.9389 785.501 47.3897 782.891 Q49.8086 780.249 54.1691 780.249 Q59.1344 780.249 62.0308 784.196 Q64.9272 788.111 64.9272 794.986 Q64.9272 797.851 64.3543 800.97 Q63.8132 804.057 62.6992 807.495 L56.6518 807.495 Q58.3387 804.248 59.198 801.097 Q60.0256 797.946 60.0256 794.859 Q60.0256 790.721 58.6251 788.493 Q57.1929 786.265 54.6147 786.265 Q52.2276 786.265 50.9545 787.888 Q49.6813 789.48 48.5037 794.922 L48.0262 796.959 Q46.8804 802.402 44.5251 804.821 Q42.138 807.24 38.0002 807.24 Q32.9713 807.24 30.2341 803.675 Q27.4968 800.11 27.4968 793.554 Q27.4968 790.307 27.9743 787.443 Q28.4517 784.578 29.4065 782.159 Z" fill="#000000" fill-rule="nonzero" fill-opacity="1" /><path clip-path="url(#clip160)" d="M49.9359 771.528 L28.3562 771.528 L28.3562 765.672 L49.7131 765.672 Q54.7739 765.672 57.3202 763.699 Q59.8346 761.725 59.8346 757.778 Q59.8346 753.036 56.8109 750.299 Q53.7872 747.53 48.5673 747.53 L28.3562 747.53 L28.3562 741.673 L64.0042 741.673 L64.0042 747.53 L58.5296 747.53 Q61.7762 749.662 63.3676 752.495 Q64.9272 755.296 64.9272 759.02 Q64.9272 765.163 61.1078 768.345 Q57.2883 771.528 49.9359 771.528 M27.4968 756.792 L27.4968 756.792 Z" fill="#000000" fill-rule="nonzero" fill-opacity="1" /><path clip-path="url(#clip160)" d="M46.212 704.02 Q39.7508 704.02 36.0905 706.694 Q32.3984 709.335 32.3984 713.982 Q32.3984 718.629 36.0905 721.303 Q39.7508 723.945 46.212 723.945 Q52.6732 723.945 56.3653 721.303 Q60.0256 718.629 60.0256 713.982 Q60.0256 709.335 56.3653 706.694 Q52.6732 704.02 46.212 704.02 M33.7671 723.945 Q30.5842 722.099 29.0564 719.298 Q27.4968 716.465 27.4968 712.55 Q27.4968 706.057 32.6531 702.015 Q37.8093 697.941 46.212 697.941 Q54.6147 697.941 59.771 702.015 Q64.9272 706.057 64.9272 712.55 Q64.9272 716.465 63.3994 719.298 Q61.8398 722.099 58.657 723.945 L64.0042 723.945 L64.0042 729.833 L14.479 729.833 L14.479 723.945 L33.7671 723.945 Z" fill="#000000" fill-rule="nonzero" fill-opacity="1" /><path clip-path="url(#clip160)" d="M14.479 688.233 L14.479 682.377 L64.0042 682.377 L64.0042 688.233 L14.479 688.233 Z" fill="#000000" fill-rule="nonzero" fill-opacity="1" /><path clip-path="url(#clip160)" d="M28.3562 670.123 L28.3562 664.266 L64.0042 664.266 L64.0042 670.123 L28.3562 670.123 M14.479 670.123 L14.479 664.266 L21.895 664.266 L21.895 670.123 L14.479 670.123 Z" fill="#000000" fill-rule="nonzero" fill-opacity="1" /><path clip-path="url(#clip160)" d="M35.1993 624.258 Q31.2526 622.062 29.3747 619.006 Q27.4968 615.95 27.4968 611.813 Q27.4968 606.243 31.4117 603.219 Q35.2948 600.195 42.4881 600.195 L64.0042 600.195 L64.0042 606.084 L42.679 606.084 Q37.5546 606.084 35.072 607.898 Q32.5894 609.712 32.5894 613.436 Q32.5894 617.987 35.6131 620.629 Q38.6368 623.271 43.8567 623.271 L64.0042 623.271 L64.0042 629.159 L42.679 629.159 Q37.5228 629.159 35.072 630.974 Q32.5894 632.788 32.5894 636.575 Q32.5894 641.063 35.6449 643.705 Q38.6686 646.347 43.8567 646.347 L64.0042 646.347 L64.0042 652.235 L28.3562 652.235 L28.3562 646.347 L33.8944 646.347 Q30.616 644.342 29.0564 641.541 Q27.4968 638.74 27.4968 634.888 Q27.4968 631.005 29.4702 628.3 Q31.4436 625.563 35.1993 624.258 Z" fill="#000000" fill-rule="nonzero" fill-opacity="1" /><path clip-path="url(#clip160)" d="M46.0847 572.314 Q46.0847 579.411 47.7079 582.149 Q49.3312 584.886 53.2461 584.886 Q56.3653 584.886 58.2114 582.849 Q60.0256 580.78 60.0256 577.247 Q60.0256 572.377 56.5881 569.449 Q53.1188 566.489 47.3897 566.489 L46.0847 566.489 L46.0847 572.314 M43.6657 560.632 L64.0042 560.632 L64.0042 566.489 L58.5933 566.489 Q61.8398 568.494 63.3994 571.486 Q64.9272 574.478 64.9272 578.807 Q64.9272 584.281 61.8716 587.528 Q58.7843 590.742 53.6281 590.742 Q47.6125 590.742 44.5569 586.732 Q41.5014 582.69 41.5014 574.701 L41.5014 566.489 L40.9285 566.489 Q36.8862 566.489 34.6901 569.163 Q32.4621 571.804 32.4621 576.61 Q32.4621 579.666 33.1941 582.562 Q33.9262 585.459 35.3903 588.132 L29.9795 588.132 Q28.7381 584.918 28.1334 581.894 Q27.4968 578.87 27.4968 576.006 Q27.4968 568.271 31.5072 564.452 Q35.5176 560.632 43.6657 560.632 Z" fill="#000000" fill-rule="nonzero" fill-opacity="1" /><path clip-path="url(#clip160)" d="M18.2347 542.777 L28.3562 542.777 L28.3562 530.714 L32.9077 530.714 L32.9077 542.777 L52.2594 542.777 Q56.6199 542.777 57.8613 541.599 Q59.1026 540.39 59.1026 536.729 L59.1026 530.714 L64.0042 530.714 L64.0042 536.729 Q64.0042 543.509 61.4897 546.087 Q58.9434 548.665 52.2594 548.665 L32.9077 548.665 L32.9077 552.962 L28.3562 552.962 L28.3562 548.665 L18.2347 548.665 L18.2347 542.777 Z" fill="#000000" fill-rule="nonzero" fill-opacity="1" /><path clip-path="url(#clip160)" d="M28.3562 523.011 L28.3562 517.155 L64.0042 517.155 L64.0042 523.011 L28.3562 523.011 M14.479 523.011 L14.479 517.155 L21.895 517.155 L21.895 523.011 L14.479 523.011 Z" fill="#000000" fill-rule="nonzero" fill-opacity="1" /><path clip-path="url(#clip160)" d="M32.4621 491.087 Q32.4621 495.798 36.1542 498.535 Q39.8145 501.272 46.212 501.272 Q52.6095 501.272 56.3017 498.567 Q59.9619 495.83 59.9619 491.087 Q59.9619 486.408 56.2698 483.671 Q52.5777 480.934 46.212 480.934 Q39.8781 480.934 36.186 483.671 Q32.4621 486.408 32.4621 491.087 M27.4968 491.087 Q27.4968 483.448 32.4621 479.088 Q37.4273 474.727 46.212 474.727 Q54.9649 474.727 59.9619 479.088 Q64.9272 483.448 64.9272 491.087 Q64.9272 498.758 59.9619 503.118 Q54.9649 507.447 46.212 507.447 Q37.4273 507.447 32.4621 503.118 Q27.4968 498.758 27.4968 491.087 Z" fill="#000000" fill-rule="nonzero" fill-opacity="1" /><path clip-path="url(#clip160)" d="M42.4881 435.387 L64.0042 435.387 L64.0042 441.244 L42.679 441.244 Q37.6183 441.244 35.1038 443.217 Q32.5894 445.19 32.5894 449.137 Q32.5894 453.88 35.6131 456.617 Q38.6368 459.354 43.8567 459.354 L64.0042 459.354 L64.0042 465.242 L28.3562 465.242 L28.3562 459.354 L33.8944 459.354 Q30.6797 457.253 29.0883 454.421 Q27.4968 451.556 27.4968 447.832 Q27.4968 441.689 31.3163 438.538 Q35.1038 435.387 42.4881 435.387 Z" fill="#000000" fill-rule="nonzero" fill-opacity="1" /><path clip-path="url(#clip160)" d="M33.8307 382.329 Q33.2578 383.316 33.0032 384.493 Q32.7167 385.639 32.7167 387.04 Q32.7167 392.005 35.9632 394.678 Q39.1779 397.32 45.2253 397.32 L64.0042 397.32 L64.0042 403.209 L28.3562 403.209 L28.3562 397.32 L33.8944 397.32 Q30.6479 395.474 29.0883 392.514 Q27.4968 389.554 27.4968 385.321 Q27.4968 384.716 27.5923 383.984 Q27.656 383.252 27.8151 382.361 L33.8307 382.329 Z" fill="#000000" fill-rule="nonzero" fill-opacity="1" /><path clip-path="url(#clip160)" d="M46.0847 359.985 Q46.0847 367.083 47.7079 369.82 Q49.3312 372.558 53.2461 372.558 Q56.3653 372.558 58.2114 370.521 Q60.0256 368.452 60.0256 364.919 Q60.0256 360.049 56.5881 357.121 Q53.1188 354.161 47.3897 354.161 L46.0847 354.161 L46.0847 359.985 M43.6657 348.304 L64.0042 348.304 L64.0042 354.161 L58.5933 354.161 Q61.8398 356.166 63.3994 359.158 Q64.9272 362.15 64.9272 366.478 Q64.9272 371.953 61.8716 375.199 Q58.7843 378.414 53.6281 378.414 Q47.6125 378.414 44.5569 374.404 Q41.5014 370.361 41.5014 362.373 L41.5014 354.161 L40.9285 354.161 Q36.8862 354.161 34.6901 356.834 Q32.4621 359.476 32.4621 364.282 Q32.4621 367.338 33.1941 370.234 Q33.9262 373.131 35.3903 375.804 L29.9795 375.804 Q28.7381 372.589 28.1334 369.566 Q27.4968 366.542 27.4968 363.678 Q27.4968 355.943 31.5072 352.124 Q35.5176 348.304 43.6657 348.304 Z" fill="#000000" fill-rule="nonzero" fill-opacity="1" /><path clip-path="url(#clip160)" d="M18.2347 330.449 L28.3562 330.449 L28.3562 318.385 L32.9077 318.385 L32.9077 330.449 L52.2594 330.449 Q56.6199 330.449 57.8613 329.271 Q59.1026 328.061 59.1026 324.401 L59.1026 318.385 L64.0042 318.385 L64.0042 324.401 Q64.0042 331.181 61.4897 333.759 Q58.9434 336.337 52.2594 336.337 L32.9077 336.337 L32.9077 340.634 L28.3562 340.634 L28.3562 336.337 L18.2347 336.337 L18.2347 330.449 Z" fill="#000000" fill-rule="nonzero" fill-opacity="1" /><path clip-path="url(#clip160)" d="M44.7161 280.191 L47.5806 280.191 L47.5806 307.118 Q53.6281 306.736 56.8109 303.49 Q59.9619 300.211 59.9619 294.387 Q59.9619 291.013 59.1344 287.862 Q58.3069 284.679 56.6518 281.56 L62.1899 281.56 Q63.5267 284.711 64.227 288.021 Q64.9272 291.331 64.9272 294.737 Q64.9272 303.267 59.9619 308.264 Q54.9967 313.229 46.5303 313.229 Q37.7774 313.229 32.6531 308.519 Q27.4968 303.776 27.4968 295.755 Q27.4968 288.562 32.1438 284.393 Q36.7589 280.191 44.7161 280.191 M42.9973 286.048 Q38.1912 286.111 35.3266 288.753 Q32.4621 291.363 32.4621 295.692 Q32.4621 300.593 35.2312 303.553 Q38.0002 306.482 43.0292 306.927 L42.9973 286.048 Z" fill="#000000" fill-rule="nonzero" fill-opacity="1" /><path clip-path="url(#clip160)" d="M14.479 250.4 L14.479 236.904 L19.0304 236.904 L19.0304 244.543 L68.0464 244.543 L68.0464 236.904 L72.5979 236.904 L72.5979 250.4 L14.479 250.4 Z" fill="#000000" fill-rule="nonzero" fill-opacity="1" /><path clip-path="url(#clip160)" d="M58.5933 222.486 L58.5933 211.983 L22.3406 211.983 L24.6323 223.409 L18.7758 223.409 L16.4842 212.046 L16.4842 205.617 L58.5933 205.617 L58.5933 195.114 L64.0042 195.114 L64.0042 222.486 L58.5933 222.486 Z" fill="#000000" fill-rule="nonzero" fill-opacity="1" /><path clip-path="url(#clip160)" d="M16.4842 172.547 L16.4842 167.136 L70.0516 183.687 L70.0516 189.098 L16.4842 172.547 Z" fill="#000000" fill-rule="nonzero" fill-opacity="1" /><path clip-path="url(#clip160)" d="M29.4065 138.268 L34.9447 138.268 Q33.6716 140.75 33.035 143.424 Q32.3984 146.098 32.3984 148.962 Q32.3984 153.323 33.7352 155.519 Q35.072 157.683 37.7456 157.683 Q39.7826 157.683 40.9603 156.124 Q42.1061 154.564 43.1565 149.853 L43.6021 147.848 Q44.9389 141.61 47.3897 139 Q49.8086 136.358 54.1691 136.358 Q59.1344 136.358 62.0308 140.305 Q64.9272 144.22 64.9272 151.095 Q64.9272 153.959 64.3543 157.078 Q63.8132 160.166 62.6992 163.603 L56.6518 163.603 Q58.3387 160.357 59.198 157.206 Q60.0256 154.055 60.0256 150.967 Q60.0256 146.83 58.6251 144.602 Q57.1929 142.374 54.6147 142.374 Q52.2276 142.374 50.9545 143.997 Q49.6813 145.588 48.5037 151.031 L48.0262 153.068 Q46.8804 158.511 44.5251 160.93 Q42.138 163.349 38.0002 163.349 Q32.9713 163.349 30.2341 159.784 Q27.4968 156.219 27.4968 149.662 Q27.4968 146.416 27.9743 143.551 Q28.4517 140.687 29.4065 138.268 Z" fill="#000000" fill-rule="nonzero" fill-opacity="1" /><path clip-path="url(#clip160)" d="M14.479 113.346 L72.5979 113.346 L72.5979 126.841 L68.0464 126.841 L68.0464 119.234 L19.0304 119.234 L19.0304 126.841 L14.479 126.841 L14.479 113.346 Z" fill="#000000" fill-rule="nonzero" fill-opacity="1" /><polyline clip-path="url(#clip162)" style="stroke:#009af9; stroke-linecap:round; stroke-linejoin:round; stroke-width:12; stroke-opacity:1; fill:none" points="433.745,86.1857 452.564,90.7375 471.384,94.918 490.203,98.9712 509.023,102.944 527.842,106.859 546.661,110.728 565.481,114.56 584.3,118.36 603.119,122.133 621.939,125.881 640.758,129.608 659.577,133.315 678.397,137.005 697.216,140.678 716.036,144.336 734.855,147.98 753.674,151.611 772.494,155.23 791.313,158.837 810.132,162.434 828.952,166.02 847.771,169.597 866.59,173.164 885.41,176.722 904.229,180.272 923.049,183.814 941.868,187.348 960.687,190.875 979.507,194.394 998.326,197.907 1017.15,201.413 1035.96,204.912 1054.78,208.405 1073.6,211.893 1092.42,215.374 1111.24,218.85 1130.06,222.32 1148.88,225.785 1167.7,229.245 1186.52,232.699 1205.34,236.149 1224.16,239.594 1242.98,243.035 1261.8,246.471 1280.62,249.902 1299.44,253.329 1318.26,256.752 1337.07,260.171 1355.89,263.586 1374.71,266.997 1393.53,270.404 1412.35,273.807 1431.17,277.207 1449.99,280.603 1468.81,283.995 1487.63,287.384 1506.45,290.77 1525.27,294.152 1544.09,297.531 1562.91,300.906 1581.73,304.279 1600.55,307.648 1619.37,311.014 1638.18,314.377 1657,317.738 1675.82,321.095 1694.64,324.45 1713.46,327.801 1732.28,331.15 1751.1,334.496 1769.92,337.84 1788.74,341.181 1807.56,344.519 1826.38,347.855 1845.2,351.188 1864.02,354.518 1882.84,357.846 1901.66,361.172 1920.48,364.495 1939.29,367.816 1958.11,371.135 1976.93,374.451 1995.75,377.765 2014.57,381.077 2033.39,384.387 2052.21,387.694 2071.03,390.999 2089.85,394.303 2108.67,397.604 2127.49,400.902 2146.31,404.199 2165.13,407.494 2183.95,410.787 2202.77,414.078 2221.58,417.367 2240.4,420.654 2259.22,423.939 2278.04,427.222 2296.86,430.503 "/>
<polyline clip-path="url(#clip162)" style="stroke:#e26f46; stroke-linecap:round; stroke-linejoin:round; stroke-width:12; stroke-opacity:1; fill:none" points="433.745,86.19 452.564,103.357 471.384,119.122 490.203,134.405 509.023,149.386 527.842,164.148 546.661,178.736 565.481,193.184 584.3,207.511 603.119,221.735 621.939,235.868 640.758,249.919 659.577,263.896 678.397,277.806 697.216,291.655 716.036,305.447 734.855,319.186 753.674,332.876 772.494,346.519 791.313,360.119 810.132,373.678 828.952,387.199 847.771,400.682 866.59,414.131 885.41,427.546 904.229,440.929 923.049,454.282 941.868,467.605 960.687,480.901 979.507,494.169 998.326,507.411 1017.15,520.628 1035.96,533.821 1054.78,546.99 1073.6,560.136 1092.42,573.261 1111.24,586.364 1130.06,599.447 1148.88,612.509 1167.7,625.552 1186.52,638.576 1205.34,651.582 1224.16,664.569 1242.98,677.539 1261.8,690.492 1280.62,703.428 1299.44,716.348 1318.26,729.252 1337.07,742.141 1355.89,755.014 1374.71,767.872 1393.53,780.716 1412.35,793.546 1431.17,806.361 1449.99,819.163 1468.81,831.952 1487.63,844.727 1506.45,857.489 1525.27,870.239 1544.09,882.977 1562.91,895.702 1581.73,908.415 1600.55,921.116 1619.37,933.806 1638.18,946.485 1657,959.152 1675.82,971.809 1694.64,984.454 1713.46,997.089 1732.28,1009.71 1751.1,1022.33 1769.92,1034.93 1788.74,1047.53 1807.56,1060.11 1826.38,1072.68 1845.2,1085.25 1864.02,1097.8 1882.84,1110.35 1901.66,1122.89 1920.48,1135.41 1939.29,1147.93 1958.11,1160.44 1976.93,1172.94 1995.75,1185.44 2014.57,1197.92 2033.39,1210.4 2052.21,1222.87 2071.03,1235.33 2089.85,1247.78 2108.67,1260.22 2127.49,1272.66 2146.31,1285.08 2165.13,1297.5 2183.95,1309.92 2202.77,1322.32 2221.58,1334.72 2240.4,1347.11 2259.22,1359.49 2278.04,1371.87 2296.86,1384.24 "/>
<path clip-path="url(#clip160)" d="M443.682 1377.32 L737.005 1377.32 L737.005 1221.8 L443.682 1221.8  Z" fill="#ffffff" fill-rule="evenodd" fill-opacity="1"/>
<polyline clip-path="url(#clip160)" style="stroke:#000000; stroke-linecap:round; stroke-linejoin:round; stroke-width:4; stroke-opacity:1; fill:none" points="443.682,1377.32 737.005,1377.32 737.005,1221.8 443.682,1221.8 443.682,1377.32 "/>
<polyline clip-path="url(#clip160)" style="stroke:#009af9; stroke-linecap:round; stroke-linejoin:round; stroke-width:12; stroke-opacity:1; fill:none" points="465.625,1273.64 597.285,1273.64 "/>
<path clip-path="url(#clip160)" d="M619.229 1256.36 L648.465 1256.36 L648.465 1260.29 L636.196 1260.29 L636.196 1290.92 L631.497 1290.92 L631.497 1260.29 L619.229 1260.29 L619.229 1256.36 Z" fill="#000000" fill-rule="nonzero" fill-opacity="1" /><path clip-path="url(#clip160)" d="M683.025 1267.58 L659.136 1276.08 L683.025 1284.53 L683.025 1288.74 L653.349 1277.98 L653.349 1274.13 L683.025 1263.37 L683.025 1267.58 Z" fill="#000000" fill-rule="nonzero" fill-opacity="1" /><path clip-path="url(#clip160)" d="M703.117 1259.43 Q699.506 1259.43 697.677 1263 Q695.872 1266.54 695.872 1273.67 Q695.872 1280.78 697.677 1284.34 Q699.506 1287.88 703.117 1287.88 Q706.751 1287.88 708.557 1284.34 Q710.386 1280.78 710.386 1273.67 Q710.386 1266.54 708.557 1263 Q706.751 1259.43 703.117 1259.43 M703.117 1255.73 Q708.927 1255.73 711.983 1260.34 Q715.062 1264.92 715.062 1273.67 Q715.062 1282.4 711.983 1287 Q708.927 1291.59 703.117 1291.59 Q697.307 1291.59 694.228 1287 Q691.173 1282.4 691.173 1273.67 Q691.173 1264.92 694.228 1260.34 Q697.307 1255.73 703.117 1255.73 Z" fill="#000000" fill-rule="nonzero" fill-opacity="1" /><polyline clip-path="url(#clip160)" style="stroke:#e26f46; stroke-linecap:round; stroke-linejoin:round; stroke-width:12; stroke-opacity:1; fill:none" points="465.625,1325.48 597.285,1325.48 "/>
<path clip-path="url(#clip160)" d="M619.229 1308.2 L648.465 1308.2 L648.465 1312.13 L636.196 1312.13 L636.196 1342.76 L631.497 1342.76 L631.497 1312.13 L619.229 1312.13 L619.229 1308.2 Z" fill="#000000" fill-rule="nonzero" fill-opacity="1" /><path clip-path="url(#clip160)" d="M653.349 1319.42 L653.349 1315.21 L683.025 1325.97 L683.025 1329.82 L653.349 1340.58 L653.349 1336.37 L677.191 1327.92 L653.349 1319.42 Z" fill="#000000" fill-rule="nonzero" fill-opacity="1" /><path clip-path="url(#clip160)" d="M703.117 1311.27 Q699.506 1311.27 697.677 1314.84 Q695.872 1318.38 695.872 1325.51 Q695.872 1332.62 697.677 1336.18 Q699.506 1339.72 703.117 1339.72 Q706.751 1339.72 708.557 1336.18 Q710.386 1332.62 710.386 1325.51 Q710.386 1318.38 708.557 1314.84 Q706.751 1311.27 703.117 1311.27 M703.117 1307.57 Q708.927 1307.57 711.983 1312.18 Q715.062 1316.76 715.062 1325.51 Q715.062 1334.24 711.983 1338.84 Q708.927 1343.43 703.117 1343.43 Q697.307 1343.43 694.228 1338.84 Q691.173 1334.24 691.173 1325.51 Q691.173 1316.76 694.228 1312.18 Q697.307 1307.57 703.117 1307.57 Z" fill="#000000" fill-rule="nonzero" fill-opacity="1" /></svg>
