<?xml version="1.0" encoding="utf-8"?>
<svg xmlns="http://www.w3.org/2000/svg" xmlns:xlink="http://www.w3.org/1999/xlink" width="600" height="400" viewBox="0 0 2400 1600">
<defs>
  <clipPath id="clip130">
    <rect x="0" y="0" width="2400" height="1600"/>
  </clipPath>
</defs>
<path clip-path="url(#clip130)" d="M0 1600 L2400 1600 L2400 0 L0 0  Z" fill="#ffffff" fill-rule="evenodd" fill-opacity="1"/>
<defs>
  <clipPath id="clip131">
    <rect x="480" y="0" width="1681" height="1600"/>
  </clipPath>
</defs>
<path clip-path="url(#clip130)" d="M310.352 1423.18 L2352.76 1423.18 L2352.76 47.2441 L310.352 47.2441  Z" fill="#ffffff" fill-rule="evenodd" fill-opacity="1"/>
<defs>
  <clipPath id="clip132">
    <rect x="310" y="47" width="2043" height="1377"/>
  </clipPath>
</defs>
<polyline clip-path="url(#clip132)" style="stroke:#000000; stroke-linecap:round; stroke-linejoin:round; stroke-width:2; stroke-opacity:0.1; fill:none" points="368.152,1423.18 368.152,47.2441 "/>
<polyline clip-path="url(#clip132)" style="stroke:#000000; stroke-linecap:round; stroke-linejoin:round; stroke-width:2; stroke-opacity:0.1; fill:none" points="753.512,1423.18 753.512,47.2441 "/>
<polyline clip-path="url(#clip132)" style="stroke:#000000; stroke-linecap:round; stroke-linejoin:round; stroke-width:2; stroke-opacity:0.1; fill:none" points="1138.87,1423.18 1138.87,47.2441 "/>
<polyline clip-path="url(#clip132)" style="stroke:#000000; stroke-linecap:round; stroke-linejoin:round; stroke-width:2; stroke-opacity:0.1; fill:none" points="1524.23,1423.18 1524.23,47.2441 "/>
<polyline clip-path="url(#clip132)" style="stroke:#000000; stroke-linecap:round; stroke-linejoin:round; stroke-width:2; stroke-opacity:0.1; fill:none" points="1909.59,1423.18 1909.59,47.2441 "/>
<polyline clip-path="url(#clip132)" style="stroke:#000000; stroke-linecap:round; stroke-linejoin:round; stroke-width:2; stroke-opacity:0.1; fill:none" points="2294.95,1423.18 2294.95,47.2441 "/>
<polyline clip-path="url(#clip130)" style="stroke:#000000; stroke-linecap:round; stroke-linejoin:round; stroke-width:4; stroke-opacity:1; fill:none" points="310.352,1423.18 2352.76,1423.18 "/>
<polyline clip-path="url(#clip130)" style="stroke:#000000; stroke-linecap:round; stroke-linejoin:round; stroke-width:4; stroke-opacity:1; fill:none" points="368.152,1423.18 368.152,1404.28 "/>
<polyline clip-path="url(#clip130)" style="stroke:#000000; stroke-linecap:round; stroke-linejoin:round; stroke-width:4; stroke-opacity:1; fill:none" points="753.512,1423.18 753.512,1404.28 "/>
<polyline clip-path="url(#clip130)" style="stroke:#000000; stroke-linecap:round; stroke-linejoin:round; stroke-width:4; stroke-opacity:1; fill:none" points="1138.87,1423.18 1138.87,1404.28 "/>
<polyline clip-path="url(#clip130)" style="stroke:#000000; stroke-linecap:round; stroke-linejoin:round; stroke-width:4; stroke-opacity:1; fill:none" points="1524.23,1423.18 1524.23,1404.28 "/>
<polyline clip-path="url(#clip130)" style="stroke:#000000; stroke-linecap:round; stroke-linejoin:round; stroke-width:4; stroke-opacity:1; fill:none" points="1909.59,1423.18 1909.59,1404.28 "/>
<polyline clip-path="url(#clip130)" style="stroke:#000000; stroke-linecap:round; stroke-linejoin:round; stroke-width:4; stroke-opacity:1; fill:none" points="2294.95,1423.18 2294.95,1404.28 "/>
<path clip-path="url(#clip130)" d="M368.152 1454.1 Q364.541 1454.1 362.712 1457.66 Q360.907 1461.2 360.907 1468.33 Q360.907 1475.44 362.712 1479.01 Q364.541 1482.55 368.152 1482.55 Q371.786 1482.55 373.592 1479.01 Q375.42 1475.44 375.42 1468.33 Q375.42 1461.2 373.592 1457.66 Q371.786 1454.1 368.152 1454.1 M368.152 1450.39 Q373.962 1450.39 377.018 1455 Q380.096 1459.58 380.096 1468.33 Q380.096 1477.06 377.018 1481.67 Q373.962 1486.25 368.152 1486.25 Q362.342 1486.25 359.263 1481.67 Q356.208 1477.06 356.208 1468.33 Q356.208 1459.58 359.263 1455 Q362.342 1450.39 368.152 1450.39 Z" fill="#000000" fill-rule="nonzero" fill-opacity="1" /><path clip-path="url(#clip130)" d="M743.894 1481.64 L751.533 1481.64 L751.533 1455.28 L743.223 1456.95 L743.223 1452.69 L751.486 1451.02 L756.162 1451.02 L756.162 1481.64 L763.801 1481.64 L763.801 1485.58 L743.894 1485.58 L743.894 1481.64 Z" fill="#000000" fill-rule="nonzero" fill-opacity="1" /><path clip-path="url(#clip130)" d="M1133.52 1481.64 L1149.84 1481.64 L1149.84 1485.58 L1127.9 1485.58 L1127.9 1481.64 Q1130.56 1478.89 1135.15 1474.26 Q1139.75 1469.61 1140.93 1468.27 Q1143.18 1465.74 1144.06 1464.01 Q1144.96 1462.25 1144.96 1460.56 Q1144.96 1457.8 1143.02 1456.07 Q1141.09 1454.33 1137.99 1454.33 Q1135.79 1454.33 1133.34 1455.09 Q1130.91 1455.86 1128.13 1457.41 L1128.13 1452.69 Q1130.96 1451.55 1133.41 1450.97 Q1135.86 1450.39 1137.9 1450.39 Q1143.27 1450.39 1146.46 1453.08 Q1149.66 1455.77 1149.66 1460.26 Q1149.66 1462.39 1148.85 1464.31 Q1148.06 1466.2 1145.96 1468.8 Q1145.38 1469.47 1142.27 1472.69 Q1139.17 1475.88 1133.52 1481.64 Z" fill="#000000" fill-rule="nonzero" fill-opacity="1" /><path clip-path="url(#clip130)" d="M1528.48 1466.95 Q1531.84 1467.66 1533.71 1469.93 Q1535.61 1472.2 1535.61 1475.53 Q1535.61 1480.65 1532.09 1483.45 Q1528.57 1486.25 1522.09 1486.25 Q1519.91 1486.25 1517.6 1485.81 Q1515.31 1485.39 1512.85 1484.54 L1512.85 1480.02 Q1514.8 1481.16 1517.11 1481.74 Q1519.43 1482.32 1521.95 1482.32 Q1526.35 1482.32 1528.64 1480.58 Q1530.96 1478.84 1530.96 1475.53 Q1530.96 1472.48 1528.8 1470.77 Q1526.67 1469.03 1522.85 1469.03 L1518.83 1469.03 L1518.83 1465.19 L1523.04 1465.19 Q1526.49 1465.19 1528.32 1463.82 Q1530.15 1462.43 1530.15 1459.84 Q1530.15 1457.18 1528.25 1455.77 Q1526.37 1454.33 1522.85 1454.33 Q1520.93 1454.33 1518.73 1454.75 Q1516.54 1455.16 1513.9 1456.04 L1513.9 1451.88 Q1516.56 1451.14 1518.87 1450.77 Q1521.21 1450.39 1523.27 1450.39 Q1528.6 1450.39 1531.7 1452.83 Q1534.8 1455.23 1534.8 1459.35 Q1534.8 1462.22 1533.16 1464.21 Q1531.51 1466.18 1528.48 1466.95 Z" fill="#000000" fill-rule="nonzero" fill-opacity="1" /><path clip-path="url(#clip130)" d="M1912.6 1455.09 L1900.8 1473.54 L1912.6 1473.54 L1912.6 1455.09 M1911.37 1451.02 L1917.25 1451.02 L1917.25 1473.54 L1922.18 1473.54 L1922.18 1477.43 L1917.25 1477.43 L1917.25 1485.58 L1912.6 1485.58 L1912.6 1477.43 L1897 1477.43 L1897 1472.92 L1911.37 1451.02 Z" fill="#000000" fill-rule="nonzero" fill-opacity="1" /><path clip-path="url(#clip130)" d="M2285.23 1451.02 L2303.59 1451.02 L2303.59 1454.96 L2289.51 1454.96 L2289.51 1463.43 Q2290.53 1463.08 2291.55 1462.92 Q2292.57 1462.73 2293.59 1462.73 Q2299.37 1462.73 2302.75 1465.9 Q2306.13 1469.08 2306.13 1474.49 Q2306.13 1480.07 2302.66 1483.17 Q2299.19 1486.25 2292.87 1486.25 Q2290.69 1486.25 2288.42 1485.88 Q2286.18 1485.51 2283.77 1484.77 L2283.77 1480.07 Q2285.85 1481.2 2288.08 1481.76 Q2290.3 1482.32 2292.78 1482.32 Q2296.78 1482.32 2299.12 1480.21 Q2301.46 1478.1 2301.46 1474.49 Q2301.46 1470.88 2299.12 1468.77 Q2296.78 1466.67 2292.78 1466.67 Q2290.9 1466.67 2289.03 1467.08 Q2287.17 1467.5 2285.23 1468.38 L2285.23 1451.02 Z" fill="#000000" fill-rule="nonzero" fill-opacity="1" /><path clip-path="url(#clip130)" d="M959.828 1550.25 Q959.828 1556.71 962.47 1560.4 Q965.144 1564.07 969.791 1564.07 Q974.438 1564.07 977.111 1560.4 Q979.785 1556.71 979.785 1550.25 Q979.785 1543.79 977.111 1540.13 Q974.438 1536.44 969.791 1536.44 Q965.144 1536.44 962.47 1540.13 Q959.828 1543.79 959.828 1550.25 M979.785 1562.7 Q977.939 1565.88 975.106 1567.44 Q972.305 1568.97 968.359 1568.97 Q961.897 1568.97 957.823 1563.81 Q953.781 1558.65 953.781 1550.25 Q953.781 1541.85 957.823 1536.69 Q961.897 1531.54 968.359 1531.54 Q972.305 1531.54 975.106 1533.1 Q977.939 1534.62 979.785 1537.81 L979.785 1532.4 L985.641 1532.4 L985.641 1581.6 L979.785 1581.6 L979.785 1562.7 Z" fill="#000000" fill-rule="nonzero" fill-opacity="1" /><path clip-path="url(#clip130)" d="M1024.79 1578.87 L1024.79 1583.42 L990.925 1583.42 L990.925 1578.87 L1024.79 1578.87 Z" fill="#000000" fill-rule="nonzero" fill-opacity="1" /><path clip-path="url(#clip130)" d="M1050.95 1537.87 Q1049.97 1537.3 1048.79 1537.04 Q1047.64 1536.76 1046.24 1536.76 Q1041.28 1536.76 1038.6 1540 Q1035.96 1543.22 1035.96 1549.27 L1035.96 1568.04 L1030.07 1568.04 L1030.07 1532.4 L1035.96 1532.4 L1035.96 1537.93 Q1037.81 1534.69 1040.77 1533.13 Q1043.73 1531.54 1047.96 1531.54 Q1048.57 1531.54 1049.3 1531.63 Q1050.03 1531.7 1050.92 1531.85 L1050.95 1537.87 Z" fill="#000000" fill-rule="nonzero" fill-opacity="1" /><path clip-path="url(#clip130)" d="M1073.3 1550.12 Q1066.2 1550.12 1063.46 1551.75 Q1060.72 1553.37 1060.72 1557.29 Q1060.72 1560.4 1062.76 1562.25 Q1064.83 1564.07 1068.36 1564.07 Q1073.23 1564.07 1076.16 1560.63 Q1079.12 1557.16 1079.12 1551.43 L1079.12 1550.12 L1073.3 1550.12 M1084.98 1547.71 L1084.98 1568.04 L1079.12 1568.04 L1079.12 1562.63 Q1077.12 1565.88 1074.12 1567.44 Q1071.13 1568.97 1066.8 1568.97 Q1061.33 1568.97 1058.08 1565.91 Q1054.87 1562.82 1054.87 1557.67 Q1054.87 1551.65 1058.88 1548.6 Q1062.92 1545.54 1070.91 1545.54 L1079.12 1545.54 L1079.12 1544.97 Q1079.12 1540.93 1076.45 1538.73 Q1073.81 1536.5 1069 1536.5 Q1065.94 1536.5 1063.05 1537.23 Q1060.15 1537.97 1057.48 1539.43 L1057.48 1534.02 Q1060.69 1532.78 1063.72 1532.17 Q1066.74 1531.54 1069.61 1531.54 Q1077.34 1531.54 1081.16 1535.55 Q1084.98 1539.56 1084.98 1547.71 Z" fill="#000000" fill-rule="nonzero" fill-opacity="1" /><path clip-path="url(#clip130)" d="M1097.04 1532.4 L1102.9 1532.4 L1102.9 1568.04 L1097.04 1568.04 L1097.04 1532.4 M1097.04 1518.52 L1102.9 1518.52 L1102.9 1525.93 L1097.04 1525.93 L1097.04 1518.52 Z" fill="#000000" fill-rule="nonzero" fill-opacity="1" /><path clip-path="url(#clip130)" d="M1144.78 1546.53 L1144.78 1568.04 L1138.93 1568.04 L1138.93 1546.72 Q1138.93 1541.66 1136.95 1539.14 Q1134.98 1536.63 1131.03 1536.63 Q1126.29 1536.63 1123.55 1539.65 Q1120.82 1542.68 1120.82 1547.9 L1120.82 1568.04 L1114.93 1568.04 L1114.93 1532.4 L1120.82 1532.4 L1120.82 1537.93 Q1122.92 1534.72 1125.75 1533.13 Q1128.62 1531.54 1132.34 1531.54 Q1138.48 1531.54 1141.63 1535.36 Q1144.78 1539.14 1144.78 1546.53 Z" fill="#000000" fill-rule="nonzero" fill-opacity="1" /><path clip-path="url(#clip130)" d="M1191 1536.5 Q1186.29 1536.5 1183.55 1540.19 Q1180.81 1543.85 1180.81 1550.25 Q1180.81 1556.65 1183.52 1560.34 Q1186.26 1564 1191 1564 Q1195.68 1564 1198.42 1560.31 Q1201.15 1556.62 1201.15 1550.25 Q1201.15 1543.92 1198.42 1540.23 Q1195.68 1536.5 1191 1536.5 M1191 1531.54 Q1198.64 1531.54 1203 1536.5 Q1207.36 1541.47 1207.36 1550.25 Q1207.36 1559 1203 1564 Q1198.64 1568.97 1191 1568.97 Q1183.33 1568.97 1178.97 1564 Q1174.64 1559 1174.64 1550.25 Q1174.64 1541.47 1178.97 1536.5 Q1183.33 1531.54 1191 1531.54 Z" fill="#000000" fill-rule="nonzero" fill-opacity="1" /><path clip-path="url(#clip130)" d="M1237.72 1537.87 Q1236.74 1537.3 1235.56 1537.04 Q1234.41 1536.76 1233.01 1536.76 Q1228.05 1536.76 1225.37 1540 Q1222.73 1543.22 1222.73 1549.27 L1222.73 1568.04 L1216.84 1568.04 L1216.84 1532.4 L1222.73 1532.4 L1222.73 1537.93 Q1224.58 1534.69 1227.54 1533.13 Q1230.5 1531.54 1234.73 1531.54 Q1235.34 1531.54 1236.07 1531.63 Q1236.8 1531.7 1237.69 1531.85 L1237.72 1537.87 Z" fill="#000000" fill-rule="nonzero" fill-opacity="1" /><path clip-path="url(#clip130)" d="M1268.09 1550.25 Q1268.09 1556.71 1270.73 1560.4 Q1273.4 1564.07 1278.05 1564.07 Q1282.7 1564.07 1285.37 1560.4 Q1288.04 1556.71 1288.04 1550.25 Q1288.04 1543.79 1285.37 1540.13 Q1282.7 1536.44 1278.05 1536.44 Q1273.4 1536.44 1270.73 1540.13 Q1268.09 1543.79 1268.09 1550.25 M1288.04 1562.7 Q1286.2 1565.88 1283.37 1567.44 Q1280.56 1568.97 1276.62 1568.97 Q1270.16 1568.97 1266.08 1563.81 Q1262.04 1558.65 1262.04 1550.25 Q1262.04 1541.85 1266.08 1536.69 Q1270.16 1531.54 1276.62 1531.54 Q1280.56 1531.54 1283.37 1533.1 Q1286.2 1534.62 1288.04 1537.81 L1288.04 1532.4 L1293.9 1532.4 L1293.9 1581.6 L1288.04 1581.6 L1288.04 1562.7 Z" fill="#000000" fill-rule="nonzero" fill-opacity="1" /><path clip-path="url(#clip130)" d="M1333.05 1578.87 L1333.05 1583.42 L1299.18 1583.42 L1299.18 1578.87 L1333.05 1578.87 Z" fill="#000000" fill-rule="nonzero" fill-opacity="1" /><path clip-path="url(#clip130)" d="M1361.28 1533.45 L1361.28 1538.98 Q1358.8 1537.71 1356.13 1537.07 Q1353.45 1536.44 1350.59 1536.44 Q1346.23 1536.44 1344.03 1537.77 Q1341.87 1539.11 1341.87 1541.79 Q1341.87 1543.82 1343.43 1545 Q1344.99 1546.15 1349.7 1547.2 L1351.7 1547.64 Q1357.94 1548.98 1360.55 1551.43 Q1363.19 1553.85 1363.19 1558.21 Q1363.19 1563.17 1359.24 1566.07 Q1355.33 1568.97 1348.45 1568.97 Q1345.59 1568.97 1342.47 1568.39 Q1339.38 1567.85 1335.95 1566.74 L1335.95 1560.69 Q1339.19 1562.38 1342.34 1563.24 Q1345.49 1564.07 1348.58 1564.07 Q1352.72 1564.07 1354.95 1562.66 Q1357.18 1561.23 1357.18 1558.65 Q1357.18 1556.27 1355.55 1554.99 Q1353.96 1553.72 1348.52 1552.54 L1346.48 1552.07 Q1341.04 1550.92 1338.62 1548.56 Q1336.2 1546.18 1336.2 1542.04 Q1336.2 1537.01 1339.77 1534.27 Q1343.33 1531.54 1349.89 1531.54 Q1353.13 1531.54 1356 1532.01 Q1358.86 1532.49 1361.28 1533.45 Z" fill="#000000" fill-rule="nonzero" fill-opacity="1" /><path clip-path="url(#clip130)" d="M1402.15 1546.53 L1402.15 1568.04 L1396.29 1568.04 L1396.29 1546.72 Q1396.29 1541.66 1394.32 1539.14 Q1392.35 1536.63 1388.4 1536.63 Q1383.66 1536.63 1380.92 1539.65 Q1378.18 1542.68 1378.18 1547.9 L1378.18 1568.04 L1372.29 1568.04 L1372.29 1532.4 L1378.18 1532.4 L1378.18 1537.93 Q1380.28 1534.72 1383.12 1533.13 Q1385.98 1531.54 1389.7 1531.54 Q1395.85 1531.54 1399 1535.36 Q1402.15 1539.14 1402.15 1546.53 Z" fill="#000000" fill-rule="nonzero" fill-opacity="1" /><path clip-path="url(#clip130)" d="M1427.64 1536.5 Q1422.93 1536.5 1420.2 1540.19 Q1417.46 1543.85 1417.46 1550.25 Q1417.46 1556.65 1420.16 1560.34 Q1422.9 1564 1427.64 1564 Q1432.32 1564 1435.06 1560.31 Q1437.8 1556.62 1437.8 1550.25 Q1437.8 1543.92 1435.06 1540.23 Q1432.32 1536.5 1427.64 1536.5 M1427.64 1531.54 Q1435.28 1531.54 1439.64 1536.5 Q1444 1541.47 1444 1550.25 Q1444 1559 1439.64 1564 Q1435.28 1568.97 1427.64 1568.97 Q1419.97 1568.97 1415.61 1564 Q1411.28 1559 1411.28 1550.25 Q1411.28 1541.47 1415.61 1536.5 Q1419.97 1531.54 1427.64 1531.54 Z" fill="#000000" fill-rule="nonzero" fill-opacity="1" /><path clip-path="url(#clip130)" d="M1450.31 1532.4 L1456.16 1532.4 L1463.48 1560.21 L1470.77 1532.4 L1477.68 1532.4 L1485 1560.21 L1492.29 1532.4 L1498.14 1532.4 L1488.82 1568.04 L1481.91 1568.04 L1474.24 1538.83 L1466.54 1568.04 L1459.63 1568.04 L1450.31 1532.4 Z" fill="#000000" fill-rule="nonzero" fill-opacity="1" /><path clip-path="url(#clip130)" d="M1527.2 1518.52 L1540.7 1518.52 L1540.7 1523.07 L1533.06 1523.07 L1533.06 1572.09 L1540.7 1572.09 L1540.7 1576.64 L1527.2 1576.64 L1527.2 1518.52 Z" fill="#000000" fill-rule="nonzero" fill-opacity="1" /><path clip-path="url(#clip130)" d="M1576.63 1549.81 Q1576.63 1543.44 1573.99 1539.94 Q1571.38 1536.44 1566.64 1536.44 Q1561.93 1536.44 1559.29 1539.94 Q1556.68 1543.44 1556.68 1549.81 Q1556.68 1556.14 1559.29 1559.64 Q1561.93 1563.14 1566.64 1563.14 Q1571.38 1563.14 1573.99 1559.64 Q1576.63 1556.14 1576.63 1549.81 M1582.49 1563.62 Q1582.49 1572.72 1578.45 1577.15 Q1574.41 1581.6 1566.07 1581.6 Q1562.98 1581.6 1560.24 1581.13 Q1557.5 1580.68 1554.93 1579.72 L1554.93 1574.03 Q1557.5 1575.43 1560.02 1576.1 Q1562.53 1576.76 1565.14 1576.76 Q1570.9 1576.76 1573.77 1573.74 Q1576.63 1570.75 1576.63 1564.67 L1576.63 1561.77 Q1574.82 1564.92 1571.99 1566.48 Q1569.15 1568.04 1565.21 1568.04 Q1558.65 1568.04 1554.64 1563.05 Q1550.63 1558.05 1550.63 1549.81 Q1550.63 1541.53 1554.64 1536.53 Q1558.65 1531.54 1565.21 1531.54 Q1569.15 1531.54 1571.99 1533.1 Q1574.82 1534.66 1576.63 1537.81 L1576.63 1532.4 L1582.49 1532.4 L1582.49 1563.62 Z" fill="#000000" fill-rule="nonzero" fill-opacity="1" /><path clip-path="url(#clip130)" d="M1604.96 1520.52 L1610.37 1520.52 L1593.82 1574.09 L1588.41 1574.09 L1604.96 1520.52 Z" fill="#000000" fill-rule="nonzero" fill-opacity="1" /><path clip-path="url(#clip130)" d="M1616.29 1518.52 L1622.18 1518.52 L1622.18 1547.77 L1639.65 1532.4 L1647.13 1532.4 L1628.23 1549.07 L1647.93 1568.04 L1640.29 1568.04 L1622.18 1550.63 L1622.18 1568.04 L1616.29 1568.04 L1616.29 1518.52 Z" fill="#000000" fill-rule="nonzero" fill-opacity="1" /><path clip-path="url(#clip130)" d="M1677.72 1549.81 Q1677.72 1543.44 1675.08 1539.94 Q1672.47 1536.44 1667.73 1536.44 Q1663.02 1536.44 1660.37 1539.94 Q1657.76 1543.44 1657.76 1549.81 Q1657.76 1556.14 1660.37 1559.64 Q1663.02 1563.14 1667.73 1563.14 Q1672.47 1563.14 1675.08 1559.64 Q1677.72 1556.14 1677.72 1549.81 M1683.58 1563.62 Q1683.58 1572.72 1679.54 1577.15 Q1675.49 1581.6 1667.15 1581.6 Q1664.07 1581.6 1661.33 1581.13 Q1658.59 1580.68 1656.01 1579.72 L1656.01 1574.03 Q1658.59 1575.43 1661.11 1576.1 Q1663.62 1576.76 1666.23 1576.76 Q1671.99 1576.76 1674.86 1573.74 Q1677.72 1570.75 1677.72 1564.67 L1677.72 1561.77 Q1675.91 1564.92 1673.07 1566.48 Q1670.24 1568.04 1666.29 1568.04 Q1659.74 1568.04 1655.73 1563.05 Q1651.72 1558.05 1651.72 1549.81 Q1651.72 1541.53 1655.73 1536.53 Q1659.74 1531.54 1666.29 1531.54 Q1670.24 1531.54 1673.07 1533.1 Q1675.91 1534.66 1677.72 1537.81 L1677.72 1532.4 L1683.58 1532.4 L1683.58 1563.62 Z" fill="#000000" fill-rule="nonzero" fill-opacity="1" /><path clip-path="url(#clip130)" d="M1709.33 1518.52 L1709.33 1576.64 L1695.83 1576.64 L1695.83 1572.09 L1703.44 1572.09 L1703.44 1523.07 L1695.83 1523.07 L1695.83 1518.52 L1709.33 1518.52 Z" fill="#000000" fill-rule="nonzero" fill-opacity="1" /><polyline clip-path="url(#clip132)" style="stroke:#000000; stroke-linecap:round; stroke-linejoin:round; stroke-width:2; stroke-opacity:0.1; fill:none" points="310.352,1384.24 2352.76,1384.24 "/>
<polyline clip-path="url(#clip132)" style="stroke:#000000; stroke-linecap:round; stroke-linejoin:round; stroke-width:2; stroke-opacity:0.1; fill:none" points="310.352,1085.85 2352.76,1085.85 "/>
<polyline clip-path="url(#clip132)" style="stroke:#000000; stroke-linecap:round; stroke-linejoin:round; stroke-width:2; stroke-opacity:0.1; fill:none" points="310.352,787.468 2352.76,787.468 "/>
<polyline clip-path="url(#clip132)" style="stroke:#000000; stroke-linecap:round; stroke-linejoin:round; stroke-width:2; stroke-opacity:0.1; fill:none" points="310.352,489.082 2352.76,489.082 "/>
<polyline clip-path="url(#clip132)" style="stroke:#000000; stroke-linecap:round; stroke-linejoin:round; stroke-width:2; stroke-opacity:0.1; fill:none" points="310.352,190.697 2352.76,190.697 "/>
<polyline clip-path="url(#clip130)" style="stroke:#000000; stroke-linecap:round; stroke-linejoin:round; stroke-width:4; stroke-opacity:1; fill:none" points="310.352,1423.18 310.352,47.2441 "/>
<polyline clip-path="url(#clip130)" style="stroke:#000000; stroke-linecap:round; stroke-linejoin:round; stroke-width:4; stroke-opacity:1; fill:none" points="310.352,1384.24 329.25,1384.24 "/>
<polyline clip-path="url(#clip130)" style="stroke:#000000; stroke-linecap:round; stroke-linejoin:round; stroke-width:4; stroke-opacity:1; fill:none" points="310.352,1085.85 329.25,1085.85 "/>
<polyline clip-path="url(#clip130)" style="stroke:#000000; stroke-linecap:round; stroke-linejoin:round; stroke-width:4; stroke-opacity:1; fill:none" points="310.352,787.468 329.25,787.468 "/>
<polyline clip-path="url(#clip130)" style="stroke:#000000; stroke-linecap:round; stroke-linejoin:round; stroke-width:4; stroke-opacity:1; fill:none" points="310.352,489.082 329.25,489.082 "/>
<polyline clip-path="url(#clip130)" style="stroke:#000000; stroke-linecap:round; stroke-linejoin:round; stroke-width:4; stroke-opacity:1; fill:none" points="310.352,190.697 329.25,190.697 "/>
<path clip-path="url(#clip130)" d="M126.691 1370.04 Q123.08 1370.04 121.251 1373.6 Q119.445 1377.14 119.445 1384.27 Q119.445 1391.38 121.251 1394.94 Q123.08 1398.49 126.691 1398.49 Q130.325 1398.49 132.13 1394.94 Q133.959 1391.38 133.959 1384.27 Q133.959 1377.14 132.13 1373.6 Q130.325 1370.04 126.691 1370.04 M126.691 1366.33 Q132.501 1366.33 135.556 1370.94 Q138.635 1375.52 138.635 1384.27 Q138.635 1393 135.556 1397.61 Q132.501 1402.19 126.691 1402.19 Q120.88 1402.19 117.802 1397.61 Q114.746 1393 114.746 1384.27 Q114.746 1375.52 117.802 1370.94 Q120.88 1366.33 126.691 1366.33 Z" fill="#000000" fill-rule="nonzero" fill-opacity="1" /><path clip-path="url(#clip130)" d="M146.853 1395.64 L151.737 1395.64 L151.737 1401.52 L146.853 1401.52 L146.853 1395.64 Z" fill="#000000" fill-rule="nonzero" fill-opacity="1" /><path clip-path="url(#clip130)" d="M171.922 1370.04 Q168.311 1370.04 166.482 1373.6 Q164.677 1377.14 164.677 1384.27 Q164.677 1391.38 166.482 1394.94 Q168.311 1398.49 171.922 1398.49 Q175.556 1398.49 177.362 1394.94 Q179.19 1391.38 179.19 1384.27 Q179.19 1377.14 177.362 1373.6 Q175.556 1370.04 171.922 1370.04 M171.922 1366.33 Q177.732 1366.33 180.788 1370.94 Q183.866 1375.52 183.866 1384.27 Q183.866 1393 180.788 1397.61 Q177.732 1402.19 171.922 1402.19 Q166.112 1402.19 163.033 1397.61 Q159.978 1393 159.978 1384.27 Q159.978 1375.52 163.033 1370.94 Q166.112 1366.33 171.922 1366.33 Z" fill="#000000" fill-rule="nonzero" fill-opacity="1" /><path clip-path="url(#clip130)" d="M202.084 1370.04 Q198.473 1370.04 196.644 1373.6 Q194.838 1377.14 194.838 1384.27 Q194.838 1391.38 196.644 1394.94 Q198.473 1398.49 202.084 1398.49 Q205.718 1398.49 207.524 1394.94 Q209.352 1391.38 209.352 1384.27 Q209.352 1377.14 207.524 1373.6 Q205.718 1370.04 202.084 1370.04 M202.084 1366.33 Q207.894 1366.33 210.949 1370.94 Q214.028 1375.52 214.028 1384.27 Q214.028 1393 210.949 1397.61 Q207.894 1402.19 202.084 1402.19 Q196.274 1402.19 193.195 1397.61 Q190.139 1393 190.139 1384.27 Q190.139 1375.52 193.195 1370.94 Q196.274 1366.33 202.084 1366.33 Z" fill="#000000" fill-rule="nonzero" fill-opacity="1" /><path clip-path="url(#clip130)" d="M232.246 1370.04 Q228.635 1370.04 226.806 1373.6 Q225 1377.14 225 1384.27 Q225 1391.38 226.806 1394.94 Q228.635 1398.49 232.246 1398.49 Q235.88 1398.49 237.685 1394.94 Q239.514 1391.38 239.514 1384.27 Q239.514 1377.14 237.685 1373.6 Q235.88 1370.04 232.246 1370.04 M232.246 1366.33 Q238.056 1366.33 241.111 1370.94 Q244.19 1375.52 244.19 1384.27 Q244.19 1393 241.111 1397.61 Q238.056 1402.19 232.246 1402.19 Q226.435 1402.19 223.357 1397.61 Q220.301 1393 220.301 1384.27 Q220.301 1375.52 223.357 1370.94 Q226.435 1366.33 232.246 1366.33 Z" fill="#000000" fill-rule="nonzero" fill-opacity="1" /><path clip-path="url(#clip130)" d="M262.408 1370.04 Q258.796 1370.04 256.968 1373.6 Q255.162 1377.14 255.162 1384.27 Q255.162 1391.38 256.968 1394.94 Q258.796 1398.49 262.408 1398.49 Q266.042 1398.49 267.847 1394.94 Q269.676 1391.38 269.676 1384.27 Q269.676 1377.14 267.847 1373.6 Q266.042 1370.04 262.408 1370.04 M262.408 1366.33 Q268.218 1366.33 271.273 1370.94 Q274.352 1375.52 274.352 1384.27 Q274.352 1393 271.273 1397.61 Q268.218 1402.19 262.408 1402.19 Q256.597 1402.19 253.519 1397.61 Q250.463 1393 250.463 1384.27 Q250.463 1375.52 253.519 1370.94 Q256.597 1366.33 262.408 1366.33 Z" fill="#000000" fill-rule="nonzero" fill-opacity="1" /><path clip-path="url(#clip130)" d="M128.288 1071.65 Q124.677 1071.65 122.848 1075.22 Q121.043 1078.76 121.043 1085.89 Q121.043 1092.99 122.848 1096.56 Q124.677 1100.1 128.288 1100.1 Q131.922 1100.1 133.728 1096.56 Q135.556 1092.99 135.556 1085.89 Q135.556 1078.76 133.728 1075.22 Q131.922 1071.65 128.288 1071.65 M128.288 1067.95 Q134.098 1067.95 137.154 1072.55 Q140.232 1077.14 140.232 1085.89 Q140.232 1094.61 137.154 1099.22 Q134.098 1103.8 128.288 1103.8 Q122.478 1103.8 119.399 1099.22 Q116.343 1094.61 116.343 1085.89 Q116.343 1077.14 119.399 1072.55 Q122.478 1067.95 128.288 1067.95 Z" fill="#000000" fill-rule="nonzero" fill-opacity="1" /><path clip-path="url(#clip130)" d="M148.45 1097.25 L153.334 1097.25 L153.334 1103.13 L148.45 1103.13 L148.45 1097.25 Z" fill="#000000" fill-rule="nonzero" fill-opacity="1" /><path clip-path="url(#clip130)" d="M173.519 1071.65 Q169.908 1071.65 168.079 1075.22 Q166.274 1078.76 166.274 1085.89 Q166.274 1092.99 168.079 1096.56 Q169.908 1100.1 173.519 1100.1 Q177.153 1100.1 178.959 1096.56 Q180.788 1092.99 180.788 1085.89 Q180.788 1078.76 178.959 1075.22 Q177.153 1071.65 173.519 1071.65 M173.519 1067.95 Q179.329 1067.95 182.385 1072.55 Q185.463 1077.14 185.463 1085.89 Q185.463 1094.61 182.385 1099.22 Q179.329 1103.8 173.519 1103.8 Q167.709 1103.8 164.63 1099.22 Q161.575 1094.61 161.575 1085.89 Q161.575 1077.14 164.63 1072.55 Q167.709 1067.95 173.519 1067.95 Z" fill="#000000" fill-rule="nonzero" fill-opacity="1" /><path clip-path="url(#clip130)" d="M203.681 1071.65 Q200.07 1071.65 198.241 1075.22 Q196.436 1078.76 196.436 1085.89 Q196.436 1092.99 198.241 1096.56 Q200.07 1100.1 203.681 1100.1 Q207.315 1100.1 209.121 1096.56 Q210.949 1092.99 210.949 1085.89 Q210.949 1078.76 209.121 1075.22 Q207.315 1071.65 203.681 1071.65 M203.681 1067.95 Q209.491 1067.95 212.547 1072.55 Q215.625 1077.14 215.625 1085.89 Q215.625 1094.61 212.547 1099.22 Q209.491 1103.8 203.681 1103.8 Q197.871 1103.8 194.792 1099.22 Q191.737 1094.61 191.737 1085.89 Q191.737 1077.14 194.792 1072.55 Q197.871 1067.95 203.681 1067.95 Z" fill="#000000" fill-rule="nonzero" fill-opacity="1" /><path clip-path="url(#clip130)" d="M233.843 1071.65 Q230.232 1071.65 228.403 1075.22 Q226.598 1078.76 226.598 1085.89 Q226.598 1092.99 228.403 1096.56 Q230.232 1100.1 233.843 1100.1 Q237.477 1100.1 239.283 1096.56 Q241.111 1092.99 241.111 1085.89 Q241.111 1078.76 239.283 1075.22 Q237.477 1071.65 233.843 1071.65 M233.843 1067.95 Q239.653 1067.95 242.709 1072.55 Q245.787 1077.14 245.787 1085.89 Q245.787 1094.61 242.709 1099.22 Q239.653 1103.8 233.843 1103.8 Q228.033 1103.8 224.954 1099.22 Q221.898 1094.61 221.898 1085.89 Q221.898 1077.14 224.954 1072.55 Q228.033 1067.95 233.843 1067.95 Z" fill="#000000" fill-rule="nonzero" fill-opacity="1" /><path clip-path="url(#clip130)" d="M258.033 1099.2 L274.352 1099.2 L274.352 1103.13 L252.408 1103.13 L252.408 1099.2 Q255.07 1096.44 259.653 1091.81 Q264.259 1087.16 265.44 1085.82 Q267.685 1083.3 268.565 1081.56 Q269.468 1079.8 269.468 1078.11 Q269.468 1075.36 267.523 1073.62 Q265.602 1071.88 262.5 1071.88 Q260.301 1071.88 257.847 1072.65 Q255.417 1073.41 252.639 1074.96 L252.639 1070.24 Q255.463 1069.11 257.917 1068.53 Q260.37 1067.95 262.408 1067.95 Q267.778 1067.95 270.972 1070.63 Q274.167 1073.32 274.167 1077.81 Q274.167 1079.94 273.357 1081.86 Q272.569 1083.76 270.463 1086.35 Q269.884 1087.02 266.782 1090.24 Q263.681 1093.43 258.033 1099.2 Z" fill="#000000" fill-rule="nonzero" fill-opacity="1" /><path clip-path="url(#clip130)" d="M126.205 773.266 Q122.593 773.266 120.765 776.831 Q118.959 780.373 118.959 787.502 Q118.959 794.609 120.765 798.174 Q122.593 801.715 126.205 801.715 Q129.839 801.715 131.644 798.174 Q133.473 794.609 133.473 787.502 Q133.473 780.373 131.644 776.831 Q129.839 773.266 126.205 773.266 M126.205 769.563 Q132.015 769.563 135.07 774.169 Q138.149 778.753 138.149 787.502 Q138.149 796.229 135.07 800.836 Q132.015 805.419 126.205 805.419 Q120.394 805.419 117.316 800.836 Q114.26 796.229 114.26 787.502 Q114.26 778.753 117.316 774.169 Q120.394 769.563 126.205 769.563 Z" fill="#000000" fill-rule="nonzero" fill-opacity="1" /><path clip-path="url(#clip130)" d="M146.366 798.868 L151.251 798.868 L151.251 804.748 L146.366 804.748 L146.366 798.868 Z" fill="#000000" fill-rule="nonzero" fill-opacity="1" /><path clip-path="url(#clip130)" d="M171.436 773.266 Q167.825 773.266 165.996 776.831 Q164.19 780.373 164.19 787.502 Q164.19 794.609 165.996 798.174 Q167.825 801.715 171.436 801.715 Q175.07 801.715 176.876 798.174 Q178.704 794.609 178.704 787.502 Q178.704 780.373 176.876 776.831 Q175.07 773.266 171.436 773.266 M171.436 769.563 Q177.246 769.563 180.301 774.169 Q183.38 778.753 183.38 787.502 Q183.38 796.229 180.301 800.836 Q177.246 805.419 171.436 805.419 Q165.626 805.419 162.547 800.836 Q159.491 796.229 159.491 787.502 Q159.491 778.753 162.547 774.169 Q165.626 769.563 171.436 769.563 Z" fill="#000000" fill-rule="nonzero" fill-opacity="1" /><path clip-path="url(#clip130)" d="M201.598 773.266 Q197.987 773.266 196.158 776.831 Q194.352 780.373 194.352 787.502 Q194.352 794.609 196.158 798.174 Q197.987 801.715 201.598 801.715 Q205.232 801.715 207.037 798.174 Q208.866 794.609 208.866 787.502 Q208.866 780.373 207.037 776.831 Q205.232 773.266 201.598 773.266 M201.598 769.563 Q207.408 769.563 210.463 774.169 Q213.542 778.753 213.542 787.502 Q213.542 796.229 210.463 800.836 Q207.408 805.419 201.598 805.419 Q195.787 805.419 192.709 800.836 Q189.653 796.229 189.653 787.502 Q189.653 778.753 192.709 774.169 Q195.787 769.563 201.598 769.563 Z" fill="#000000" fill-rule="nonzero" fill-opacity="1" /><path clip-path="url(#clip130)" d="M231.76 773.266 Q228.148 773.266 226.32 776.831 Q224.514 780.373 224.514 787.502 Q224.514 794.609 226.32 798.174 Q228.148 801.715 231.76 801.715 Q235.394 801.715 237.199 798.174 Q239.028 794.609 239.028 787.502 Q239.028 780.373 237.199 776.831 Q235.394 773.266 231.76 773.266 M231.76 769.563 Q237.57 769.563 240.625 774.169 Q243.704 778.753 243.704 787.502 Q243.704 796.229 240.625 800.836 Q237.57 805.419 231.76 805.419 Q225.949 805.419 222.871 800.836 Q219.815 796.229 219.815 787.502 Q219.815 778.753 222.871 774.169 Q225.949 769.563 231.76 769.563 Z" fill="#000000" fill-rule="nonzero" fill-opacity="1" /><path clip-path="url(#clip130)" d="M264.769 774.262 L252.963 792.711 L264.769 792.711 L264.769 774.262 M263.542 770.188 L269.421 770.188 L269.421 792.711 L274.352 792.711 L274.352 796.6 L269.421 796.6 L269.421 804.748 L264.769 804.748 L264.769 796.6 L249.167 796.6 L249.167 792.086 L263.542 770.188 Z" fill="#000000" fill-rule="nonzero" fill-opacity="1" /><path clip-path="url(#clip130)" d="M126.529 474.881 Q122.918 474.881 121.089 478.446 Q119.283 481.988 119.283 489.117 Q119.283 496.224 121.089 499.788 Q122.918 503.33 126.529 503.33 Q130.163 503.33 131.968 499.788 Q133.797 496.224 133.797 489.117 Q133.797 481.988 131.968 478.446 Q130.163 474.881 126.529 474.881 M126.529 471.177 Q132.339 471.177 135.394 475.784 Q138.473 480.367 138.473 489.117 Q138.473 497.844 135.394 502.45 Q132.339 507.034 126.529 507.034 Q120.718 507.034 117.64 502.45 Q114.584 497.844 114.584 489.117 Q114.584 480.367 117.64 475.784 Q120.718 471.177 126.529 471.177 Z" fill="#000000" fill-rule="nonzero" fill-opacity="1" /><path clip-path="url(#clip130)" d="M146.691 500.483 L151.575 500.483 L151.575 506.362 L146.691 506.362 L146.691 500.483 Z" fill="#000000" fill-rule="nonzero" fill-opacity="1" /><path clip-path="url(#clip130)" d="M171.76 474.881 Q168.149 474.881 166.32 478.446 Q164.515 481.988 164.515 489.117 Q164.515 496.224 166.32 499.788 Q168.149 503.33 171.76 503.33 Q175.394 503.33 177.2 499.788 Q179.028 496.224 179.028 489.117 Q179.028 481.988 177.2 478.446 Q175.394 474.881 171.76 474.881 M171.76 471.177 Q177.57 471.177 180.626 475.784 Q183.704 480.367 183.704 489.117 Q183.704 497.844 180.626 502.45 Q177.57 507.034 171.76 507.034 Q165.95 507.034 162.871 502.45 Q159.815 497.844 159.815 489.117 Q159.815 480.367 162.871 475.784 Q165.95 471.177 171.76 471.177 Z" fill="#000000" fill-rule="nonzero" fill-opacity="1" /><path clip-path="url(#clip130)" d="M201.922 474.881 Q198.311 474.881 196.482 478.446 Q194.676 481.988 194.676 489.117 Q194.676 496.224 196.482 499.788 Q198.311 503.33 201.922 503.33 Q205.556 503.33 207.362 499.788 Q209.19 496.224 209.19 489.117 Q209.19 481.988 207.362 478.446 Q205.556 474.881 201.922 474.881 M201.922 471.177 Q207.732 471.177 210.787 475.784 Q213.866 480.367 213.866 489.117 Q213.866 497.844 210.787 502.45 Q207.732 507.034 201.922 507.034 Q196.112 507.034 193.033 502.45 Q189.977 497.844 189.977 489.117 Q189.977 480.367 193.033 475.784 Q196.112 471.177 201.922 471.177 Z" fill="#000000" fill-rule="nonzero" fill-opacity="1" /><path clip-path="url(#clip130)" d="M232.084 474.881 Q228.473 474.881 226.644 478.446 Q224.838 481.988 224.838 489.117 Q224.838 496.224 226.644 499.788 Q228.473 503.33 232.084 503.33 Q235.718 503.33 237.523 499.788 Q239.352 496.224 239.352 489.117 Q239.352 481.988 237.523 478.446 Q235.718 474.881 232.084 474.881 M232.084 471.177 Q237.894 471.177 240.949 475.784 Q244.028 480.367 244.028 489.117 Q244.028 497.844 240.949 502.45 Q237.894 507.034 232.084 507.034 Q226.273 507.034 223.195 502.45 Q220.139 497.844 220.139 489.117 Q220.139 480.367 223.195 475.784 Q226.273 471.177 232.084 471.177 Z" fill="#000000" fill-rule="nonzero" fill-opacity="1" /><path clip-path="url(#clip130)" d="M262.824 487.219 Q259.676 487.219 257.824 489.372 Q255.996 491.525 255.996 495.275 Q255.996 499.001 257.824 501.177 Q259.676 503.33 262.824 503.33 Q265.972 503.33 267.801 501.177 Q269.653 499.001 269.653 495.275 Q269.653 491.525 267.801 489.372 Q265.972 487.219 262.824 487.219 M272.107 472.566 L272.107 476.826 Q270.347 475.992 268.542 475.552 Q266.759 475.113 265 475.113 Q260.37 475.113 257.917 478.238 Q255.486 481.363 255.139 487.682 Q256.505 485.668 258.565 484.603 Q260.625 483.515 263.102 483.515 Q268.31 483.515 271.32 486.687 Q274.352 489.835 274.352 495.275 Q274.352 500.599 271.204 503.816 Q268.056 507.034 262.824 507.034 Q256.829 507.034 253.658 502.45 Q250.486 497.844 250.486 489.117 Q250.486 480.923 254.375 476.062 Q258.264 471.177 264.815 471.177 Q266.574 471.177 268.357 471.525 Q270.162 471.872 272.107 472.566 Z" fill="#000000" fill-rule="nonzero" fill-opacity="1" /><path clip-path="url(#clip130)" d="M126.783 176.496 Q123.172 176.496 121.343 180.061 Q119.538 183.602 119.538 190.732 Q119.538 197.838 121.343 201.403 Q123.172 204.945 126.783 204.945 Q130.417 204.945 132.223 201.403 Q134.052 197.838 134.052 190.732 Q134.052 183.602 132.223 180.061 Q130.417 176.496 126.783 176.496 M126.783 172.792 Q132.593 172.792 135.649 177.399 Q138.728 181.982 138.728 190.732 Q138.728 199.459 135.649 204.065 Q132.593 208.649 126.783 208.649 Q120.973 208.649 117.894 204.065 Q114.839 199.459 114.839 190.732 Q114.839 181.982 117.894 177.399 Q120.973 172.792 126.783 172.792 Z" fill="#000000" fill-rule="nonzero" fill-opacity="1" /><path clip-path="url(#clip130)" d="M146.945 202.098 L151.829 202.098 L151.829 207.977 L146.945 207.977 L146.945 202.098 Z" fill="#000000" fill-rule="nonzero" fill-opacity="1" /><path clip-path="url(#clip130)" d="M172.014 176.496 Q168.403 176.496 166.575 180.061 Q164.769 183.602 164.769 190.732 Q164.769 197.838 166.575 201.403 Q168.403 204.945 172.014 204.945 Q175.649 204.945 177.454 201.403 Q179.283 197.838 179.283 190.732 Q179.283 183.602 177.454 180.061 Q175.649 176.496 172.014 176.496 M172.014 172.792 Q177.825 172.792 180.88 177.399 Q183.959 181.982 183.959 190.732 Q183.959 199.459 180.88 204.065 Q177.825 208.649 172.014 208.649 Q166.204 208.649 163.126 204.065 Q160.07 199.459 160.07 190.732 Q160.07 181.982 163.126 177.399 Q166.204 172.792 172.014 172.792 Z" fill="#000000" fill-rule="nonzero" fill-opacity="1" /><path clip-path="url(#clip130)" d="M202.176 176.496 Q198.565 176.496 196.737 180.061 Q194.931 183.602 194.931 190.732 Q194.931 197.838 196.737 201.403 Q198.565 204.945 202.176 204.945 Q205.811 204.945 207.616 201.403 Q209.445 197.838 209.445 190.732 Q209.445 183.602 207.616 180.061 Q205.811 176.496 202.176 176.496 M202.176 172.792 Q207.987 172.792 211.042 177.399 Q214.121 181.982 214.121 190.732 Q214.121 199.459 211.042 204.065 Q207.987 208.649 202.176 208.649 Q196.366 208.649 193.288 204.065 Q190.232 199.459 190.232 190.732 Q190.232 181.982 193.288 177.399 Q196.366 172.792 202.176 172.792 Z" fill="#000000" fill-rule="nonzero" fill-opacity="1" /><path clip-path="url(#clip130)" d="M232.338 176.496 Q228.727 176.496 226.898 180.061 Q225.093 183.602 225.093 190.732 Q225.093 197.838 226.898 201.403 Q228.727 204.945 232.338 204.945 Q235.972 204.945 237.778 201.403 Q239.607 197.838 239.607 190.732 Q239.607 183.602 237.778 180.061 Q235.972 176.496 232.338 176.496 M232.338 172.792 Q238.148 172.792 241.204 177.399 Q244.283 181.982 244.283 190.732 Q244.283 199.459 241.204 204.065 Q238.148 208.649 232.338 208.649 Q226.528 208.649 223.449 204.065 Q220.394 199.459 220.394 190.732 Q220.394 181.982 223.449 177.399 Q226.528 172.792 232.338 172.792 Z" fill="#000000" fill-rule="nonzero" fill-opacity="1" /><path clip-path="url(#clip130)" d="M262.5 191.565 Q259.167 191.565 257.246 193.348 Q255.347 195.13 255.347 198.255 Q255.347 201.38 257.246 203.162 Q259.167 204.945 262.5 204.945 Q265.833 204.945 267.755 203.162 Q269.676 201.357 269.676 198.255 Q269.676 195.13 267.755 193.348 Q265.857 191.565 262.5 191.565 M257.824 189.575 Q254.815 188.834 253.125 186.774 Q251.458 184.713 251.458 181.751 Q251.458 177.607 254.398 175.2 Q257.361 172.792 262.5 172.792 Q267.662 172.792 270.602 175.2 Q273.542 177.607 273.542 181.751 Q273.542 184.713 271.852 186.774 Q270.185 188.834 267.199 189.575 Q270.579 190.362 272.454 192.653 Q274.352 194.945 274.352 198.255 Q274.352 203.278 271.273 205.963 Q268.218 208.649 262.5 208.649 Q256.783 208.649 253.704 205.963 Q250.648 203.278 250.648 198.255 Q250.648 194.945 252.546 192.653 Q254.445 190.362 257.824 189.575 M256.111 182.19 Q256.111 184.875 257.778 186.38 Q259.468 187.885 262.5 187.885 Q265.509 187.885 267.199 186.38 Q268.912 184.875 268.912 182.19 Q268.912 179.505 267.199 178.001 Q265.509 176.496 262.5 176.496 Q259.468 176.496 257.778 178.001 Q256.111 179.505 256.111 182.19 Z" fill="#000000" fill-rule="nonzero" fill-opacity="1" /><path clip-path="url(#clip130)" d="M46.0847 1173.43 Q46.0847 1180.52 47.7079 1183.26 Q49.3312 1186 53.2461 1186 Q56.3653 1186 58.2114 1183.96 Q60.0256 1181.89 60.0256 1178.36 Q60.0256 1173.49 56.5881 1170.56 Q53.1188 1167.6 47.3897 1167.6 L46.0847 1167.6 L46.0847 1173.43 M43.6657 1161.75 L64.0042 1161.75 L64.0042 1167.6 L58.5933 1167.6 Q61.8398 1169.61 63.3994 1172.6 Q64.9272 1175.59 64.9272 1179.92 Q64.9272 1185.39 61.8716 1188.64 Q58.7843 1191.86 53.6281 1191.86 Q47.6125 1191.86 44.5569 1187.85 Q41.5014 1183.8 41.5014 1175.81 L41.5014 1167.6 L40.9285 1167.6 Q36.8862 1167.6 34.6901 1170.28 Q32.4621 1172.92 32.4621 1177.72 Q32.4621 1180.78 33.1941 1183.68 Q33.9262 1186.57 35.3903 1189.25 L29.9795 1189.25 Q28.7381 1186.03 28.1334 1183.01 Q27.4968 1179.98 27.4968 1177.12 Q27.4968 1169.38 31.5072 1165.57 Q35.5176 1161.75 43.6657 1161.75 Z" fill="#000000" fill-rule="nonzero" fill-opacity="1" /><path clip-path="url(#clip130)" d="M29.7248 1124.03 L35.1993 1124.03 Q33.8307 1126.51 33.1623 1129.03 Q32.4621 1131.51 32.4621 1134.06 Q32.4621 1139.75 36.0905 1142.9 Q39.6872 1146.05 46.212 1146.05 Q52.7369 1146.05 56.3653 1142.9 Q59.9619 1139.75 59.9619 1134.06 Q59.9619 1131.51 59.2935 1129.03 Q58.5933 1126.51 57.2247 1124.03 L62.6355 1124.03 Q63.7814 1126.48 64.3543 1129.12 Q64.9272 1131.73 64.9272 1134.69 Q64.9272 1142.74 59.8664 1147.49 Q54.8057 1152.23 46.212 1152.23 Q37.491 1152.23 32.4939 1147.46 Q27.4968 1142.65 27.4968 1134.31 Q27.4968 1131.6 28.0697 1129.03 Q28.6108 1126.45 29.7248 1124.03 Z" fill="#000000" fill-rule="nonzero" fill-opacity="1" /><path clip-path="url(#clip130)" d="M29.7248 1088.19 L35.1993 1088.19 Q33.8307 1090.67 33.1623 1093.19 Q32.4621 1095.67 32.4621 1098.22 Q32.4621 1103.91 36.0905 1107.06 Q39.6872 1110.22 46.212 1110.22 Q52.7369 1110.22 56.3653 1107.06 Q59.9619 1103.91 59.9619 1098.22 Q59.9619 1095.67 59.2935 1093.19 Q58.5933 1090.67 57.2247 1088.19 L62.6355 1088.19 Q63.7814 1090.64 64.3543 1093.28 Q64.9272 1095.89 64.9272 1098.85 Q64.9272 1106.91 59.8664 1111.65 Q54.8057 1116.39 46.212 1116.39 Q37.491 1116.39 32.4939 1111.62 Q27.4968 1106.81 27.4968 1098.47 Q27.4968 1095.77 28.0697 1093.19 Q28.6108 1090.61 29.7248 1088.19 Z" fill="#000000" fill-rule="nonzero" fill-opacity="1" /><path clip-path="url(#clip130)" d="M33.8307 1057.35 Q33.2578 1058.34 33.0032 1059.51 Q32.7167 1060.66 32.7167 1062.06 Q32.7167 1067.02 35.9632 1069.7 Q39.1779 1072.34 45.2253 1072.34 L64.0042 1072.34 L64.0042 1078.23 L28.3562 1078.23 L28.3562 1072.34 L33.8944 1072.34 Q30.6479 1070.49 29.0883 1067.53 Q27.4968 1064.57 27.4968 1060.34 Q27.4968 1059.74 27.5923 1059 Q27.656 1058.27 27.8151 1057.38 L33.8307 1057.35 Z" fill="#000000" fill-rule="nonzero" fill-opacity="1" /><path clip-path="url(#clip130)" d="M44.7161 1022.15 L47.5806 1022.15 L47.5806 1049.07 Q53.6281 1048.69 56.8109 1045.44 Q59.9619 1042.17 59.9619 1036.34 Q59.9619 1032.97 59.1344 1029.82 Q58.3069 1026.63 56.6518 1023.51 L62.1899 1023.51 Q63.5267 1026.67 64.227 1029.98 Q64.9272 1033.29 64.9272 1036.69 Q64.9272 1045.22 59.9619 1050.22 Q54.9967 1055.18 46.5303 1055.18 Q37.7774 1055.18 32.6531 1050.47 Q27.4968 1045.73 27.4968 1037.71 Q27.4968 1030.52 32.1438 1026.35 Q36.7589 1022.15 44.7161 1022.15 M42.9973 1028 Q38.1912 1028.07 35.3266 1030.71 Q32.4621 1033.32 32.4621 1037.65 Q32.4621 1042.55 35.2312 1045.51 Q38.0002 1048.44 43.0292 1048.88 L42.9973 1028 Z" fill="#000000" fill-rule="nonzero" fill-opacity="1" /><path clip-path="url(#clip130)" d="M18.2347 1006.74 L28.3562 1006.74 L28.3562 994.678 L32.9077 994.678 L32.9077 1006.74 L52.2594 1006.74 Q56.6199 1006.74 57.8613 1005.56 Q59.1026 1004.35 59.1026 1000.69 L59.1026 994.678 L64.0042 994.678 L64.0042 1000.69 Q64.0042 1007.47 61.4897 1010.05 Q58.9434 1012.63 52.2594 1012.63 L32.9077 1012.63 L32.9077 1016.93 L28.3562 1016.93 L28.3562 1012.63 L18.2347 1012.63 L18.2347 1006.74 Z" fill="#000000" fill-rule="nonzero" fill-opacity="1" /><path clip-path="url(#clip130)" d="M28.3562 986.976 L28.3562 981.119 L64.0042 981.119 L64.0042 986.976 L28.3562 986.976 M14.479 986.976 L14.479 981.119 L21.895 981.119 L21.895 986.976 L14.479 986.976 Z" fill="#000000" fill-rule="nonzero" fill-opacity="1" /><path clip-path="url(#clip130)" d="M32.4621 955.052 Q32.4621 959.762 36.1542 962.5 Q39.8145 965.237 46.212 965.237 Q52.6095 965.237 56.3017 962.531 Q59.9619 959.794 59.9619 955.052 Q59.9619 950.373 56.2698 947.636 Q52.5777 944.898 46.212 944.898 Q39.8781 944.898 36.186 947.636 Q32.4621 950.373 32.4621 955.052 M27.4968 955.052 Q27.4968 947.413 32.4621 943.052 Q37.4273 938.692 46.212 938.692 Q54.9649 938.692 59.9619 943.052 Q64.9272 947.413 64.9272 955.052 Q64.9272 962.722 59.9619 967.083 Q54.9649 971.412 46.212 971.412 Q37.4273 971.412 32.4621 967.083 Q27.4968 962.722 27.4968 955.052 Z" fill="#000000" fill-rule="nonzero" fill-opacity="1" /><path clip-path="url(#clip130)" d="M42.4881 899.352 L64.0042 899.352 L64.0042 905.208 L42.679 905.208 Q37.6183 905.208 35.1038 907.182 Q32.5894 909.155 32.5894 913.102 Q32.5894 917.844 35.6131 920.581 Q38.6368 923.319 43.8567 923.319 L64.0042 923.319 L64.0042 929.207 L28.3562 929.207 L28.3562 923.319 L33.8944 923.319 Q30.6797 921.218 29.0883 918.385 Q27.4968 915.521 27.4968 911.797 Q27.4968 905.654 31.3163 902.503 Q35.1038 899.352 42.4881 899.352 Z" fill="#000000" fill-rule="nonzero" fill-opacity="1" /><path clip-path="url(#clip130)" d="M33.8307 846.294 Q33.2578 847.28 33.0032 848.458 Q32.7167 849.604 32.7167 851.004 Q32.7167 855.969 35.9632 858.643 Q39.1779 861.285 45.2253 861.285 L64.0042 861.285 L64.0042 867.173 L28.3562 867.173 L28.3562 861.285 L33.8944 861.285 Q30.6479 859.439 29.0883 856.479 Q27.4968 853.519 27.4968 849.285 Q27.4968 848.681 27.5923 847.949 Q27.656 847.217 27.8151 846.325 L33.8307 846.294 Z" fill="#000000" fill-rule="nonzero" fill-opacity="1" /><path clip-path="url(#clip130)" d="M46.0847 823.95 Q46.0847 831.048 47.7079 833.785 Q49.3312 836.522 53.2461 836.522 Q56.3653 836.522 58.2114 834.485 Q60.0256 832.416 60.0256 828.883 Q60.0256 824.014 56.5881 821.085 Q53.1188 818.125 47.3897 818.125 L46.0847 818.125 L46.0847 823.95 M43.6657 812.269 L64.0042 812.269 L64.0042 818.125 L58.5933 818.125 Q61.8398 820.13 63.3994 823.122 Q64.9272 826.114 64.9272 830.443 Q64.9272 835.917 61.8716 839.164 Q58.7843 842.379 53.6281 842.379 Q47.6125 842.379 44.5569 838.368 Q41.5014 834.326 41.5014 826.337 L41.5014 818.125 L40.9285 818.125 Q36.8862 818.125 34.6901 820.799 Q32.4621 823.441 32.4621 828.247 Q32.4621 831.302 33.1941 834.199 Q33.9262 837.095 35.3903 839.769 L29.9795 839.769 Q28.7381 836.554 28.1334 833.53 Q27.4968 830.507 27.4968 827.642 Q27.4968 819.908 31.5072 816.088 Q35.5176 812.269 43.6657 812.269 Z" fill="#000000" fill-rule="nonzero" fill-opacity="1" /><path clip-path="url(#clip130)" d="M28.3562 800.206 L28.3562 794.349 L64.0042 794.349 L64.0042 800.206 L28.3562 800.206 M14.479 800.206 L14.479 794.349 L21.895 794.349 L21.895 800.206 L14.479 800.206 Z" fill="#000000" fill-rule="nonzero" fill-opacity="1" /><path clip-path="url(#clip130)" d="M42.4881 752.463 L64.0042 752.463 L64.0042 758.319 L42.679 758.319 Q37.6183 758.319 35.1038 760.293 Q32.5894 762.266 32.5894 766.213 Q32.5894 770.955 35.6131 773.693 Q38.6368 776.43 43.8567 776.43 L64.0042 776.43 L64.0042 782.318 L28.3562 782.318 L28.3562 776.43 L33.8944 776.43 Q30.6797 774.329 29.0883 771.496 Q27.4968 768.632 27.4968 764.908 Q27.4968 758.765 31.3163 755.614 Q35.1038 752.463 42.4881 752.463 Z" fill="#000000" fill-rule="nonzero" fill-opacity="1" /><path clip-path="url(#clip130)" d="M29.4065 697.336 L34.9447 697.336 Q33.6716 699.819 33.035 702.492 Q32.3984 705.166 32.3984 708.03 Q32.3984 712.391 33.7352 714.587 Q35.072 716.751 37.7456 716.751 Q39.7826 716.751 40.9603 715.192 Q42.1061 713.632 43.1565 708.922 L43.6021 706.916 Q44.9389 700.678 47.3897 698.068 Q49.8086 695.426 54.1691 695.426 Q59.1344 695.426 62.0308 699.373 Q64.9272 703.288 64.9272 710.163 Q64.9272 713.027 64.3543 716.147 Q63.8132 719.234 62.6992 722.672 L56.6518 722.672 Q58.3387 719.425 59.198 716.274 Q60.0256 713.123 60.0256 710.036 Q60.0256 705.898 58.6251 703.67 Q57.1929 701.442 54.6147 701.442 Q52.2276 701.442 50.9545 703.065 Q49.6813 704.657 48.5037 710.099 L48.0262 712.136 Q46.8804 717.579 44.5251 719.998 Q42.138 722.417 38.0002 722.417 Q32.9713 722.417 30.2341 718.852 Q27.4968 715.287 27.4968 708.731 Q27.4968 705.484 27.9743 702.62 Q28.4517 699.755 29.4065 697.336 Z" fill="#000000" fill-rule="nonzero" fill-opacity="1" /><path clip-path="url(#clip130)" d="M28.3562 686.101 L28.3562 680.244 L64.0042 680.244 L64.0042 686.101 L28.3562 686.101 M14.479 686.101 L14.479 680.244 L21.895 680.244 L21.895 686.101 L14.479 686.101 Z" fill="#000000" fill-rule="nonzero" fill-opacity="1" /><path clip-path="url(#clip130)" d="M42.4881 638.358 L64.0042 638.358 L64.0042 644.214 L42.679 644.214 Q37.6183 644.214 35.1038 646.188 Q32.5894 648.161 32.5894 652.108 Q32.5894 656.85 35.6131 659.587 Q38.6368 662.325 43.8567 662.325 L64.0042 662.325 L64.0042 668.213 L28.3562 668.213 L28.3562 662.325 L33.8944 662.325 Q30.6797 660.224 29.0883 657.391 Q27.4968 654.527 27.4968 650.803 Q27.4968 644.66 31.3163 641.509 Q35.1038 638.358 42.4881 638.358 Z" fill="#000000" fill-rule="nonzero" fill-opacity="1" /><path clip-path="url(#clip130)" d="M14.479 626.899 L14.479 621.011 L43.7294 621.011 L28.3562 603.537 L28.3562 596.058 L45.0344 614.964 L64.0042 595.262 L64.0042 602.901 L46.5939 621.011 L64.0042 621.011 L64.0042 626.899 L14.479 626.899 Z" fill="#000000" fill-rule="nonzero" fill-opacity="1" /><path clip-path="url(#clip130)" d="M33.8307 547.551 Q33.2578 548.538 33.0032 549.715 Q32.7167 550.861 32.7167 552.262 Q32.7167 557.227 35.9632 559.9 Q39.1779 562.542 45.2253 562.542 L64.0042 562.542 L64.0042 568.43 L28.3562 568.43 L28.3562 562.542 L33.8944 562.542 Q30.6479 560.696 29.0883 557.736 Q27.4968 554.776 27.4968 550.543 Q27.4968 549.938 27.5923 549.206 Q27.656 548.474 27.8151 547.583 L33.8307 547.551 Z" fill="#000000" fill-rule="nonzero" fill-opacity="1" /><path clip-path="url(#clip130)" d="M46.0847 525.207 Q46.0847 532.305 47.7079 535.042 Q49.3312 537.78 53.2461 537.78 Q56.3653 537.78 58.2114 535.743 Q60.0256 533.674 60.0256 530.141 Q60.0256 525.271 56.5881 522.343 Q53.1188 519.383 47.3897 519.383 L46.0847 519.383 L46.0847 525.207 M43.6657 513.526 L64.0042 513.526 L64.0042 519.383 L58.5933 519.383 Q61.8398 521.388 63.3994 524.38 Q64.9272 527.372 64.9272 531.7 Q64.9272 537.175 61.8716 540.421 Q58.7843 543.636 53.6281 543.636 Q47.6125 543.636 44.5569 539.626 Q41.5014 535.583 41.5014 527.594 L41.5014 519.383 L40.9285 519.383 Q36.8862 519.383 34.6901 522.056 Q32.4621 524.698 32.4621 529.504 Q32.4621 532.56 33.1941 535.456 Q33.9262 538.352 35.3903 541.026 L29.9795 541.026 Q28.7381 537.811 28.1334 534.788 Q27.4968 531.764 27.4968 528.899 Q27.4968 521.165 31.5072 517.346 Q35.5176 513.526 43.6657 513.526 Z" fill="#000000" fill-rule="nonzero" fill-opacity="1" /><path clip-path="url(#clip130)" d="M18.2347 495.67 L28.3562 495.67 L28.3562 483.607 L32.9077 483.607 L32.9077 495.67 L52.2594 495.67 Q56.6199 495.67 57.8613 494.493 Q59.1026 493.283 59.1026 489.623 L59.1026 483.607 L64.0042 483.607 L64.0042 489.623 Q64.0042 496.402 61.4897 498.981 Q58.9434 501.559 52.2594 501.559 L32.9077 501.559 L32.9077 505.856 L28.3562 505.856 L28.3562 501.559 L18.2347 501.559 L18.2347 495.67 Z" fill="#000000" fill-rule="nonzero" fill-opacity="1" /><path clip-path="url(#clip130)" d="M44.7161 445.413 L47.5806 445.413 L47.5806 472.34 Q53.6281 471.958 56.8109 468.712 Q59.9619 465.433 59.9619 459.609 Q59.9619 456.235 59.1344 453.084 Q58.3069 449.901 56.6518 446.782 L62.1899 446.782 Q63.5267 449.933 64.227 453.243 Q64.9272 456.553 64.9272 459.959 Q64.9272 468.489 59.9619 473.486 Q54.9967 478.451 46.5303 478.451 Q37.7774 478.451 32.6531 473.741 Q27.4968 468.998 27.4968 460.977 Q27.4968 453.784 32.1438 449.615 Q36.7589 445.413 44.7161 445.413 M42.9973 451.27 Q38.1912 451.333 35.3266 453.975 Q32.4621 456.585 32.4621 460.914 Q32.4621 465.815 35.2312 468.775 Q38.0002 471.704 43.0292 472.149 L42.9973 451.27 Z" fill="#000000" fill-rule="nonzero" fill-opacity="1" /><path clip-path="url(#clip130)" d="M14.479 415.622 L14.479 402.126 L19.0304 402.126 L19.0304 409.765 L68.0464 409.765 L68.0464 402.126 L72.5979 402.126 L72.5979 415.622 L14.479 415.622 Z" fill="#000000" fill-rule="nonzero" fill-opacity="1" /><path clip-path="url(#clip130)" d="M58.5933 387.708 L58.5933 377.205 L22.3406 377.205 L24.6323 388.631 L18.7758 388.631 L16.4842 377.268 L16.4842 370.839 L58.5933 370.839 L58.5933 360.336 L64.0042 360.336 L64.0042 387.708 L58.5933 387.708 Z" fill="#000000" fill-rule="nonzero" fill-opacity="1" /><path clip-path="url(#clip130)" d="M16.4842 337.769 L16.4842 332.358 L70.0516 348.909 L70.0516 354.32 L16.4842 337.769 Z" fill="#000000" fill-rule="nonzero" fill-opacity="1" /><path clip-path="url(#clip130)" d="M29.4065 303.49 L34.9447 303.49 Q33.6716 305.972 33.035 308.646 Q32.3984 311.32 32.3984 314.184 Q32.3984 318.545 33.7352 320.741 Q35.072 322.905 37.7456 322.905 Q39.7826 322.905 40.9603 321.346 Q42.1061 319.786 43.1565 315.075 L43.6021 313.07 Q44.9389 306.832 47.3897 304.222 Q49.8086 301.58 54.1691 301.58 Q59.1344 301.58 62.0308 305.527 Q64.9272 309.442 64.9272 316.317 Q64.9272 319.181 64.3543 322.3 Q63.8132 325.388 62.6992 328.825 L56.6518 328.825 Q58.3387 325.579 59.198 322.428 Q60.0256 319.277 60.0256 316.189 Q60.0256 312.052 58.6251 309.824 Q57.1929 307.596 54.6147 307.596 Q52.2276 307.596 50.9545 309.219 Q49.6813 310.81 48.5037 316.253 L48.0262 318.29 Q46.8804 323.733 44.5251 326.152 Q42.138 328.571 38.0002 328.571 Q32.9713 328.571 30.2341 325.006 Q27.4968 321.441 27.4968 314.884 Q27.4968 311.638 27.9743 308.773 Q28.4517 305.909 29.4065 303.49 Z" fill="#000000" fill-rule="nonzero" fill-opacity="1" /><path clip-path="url(#clip130)" d="M14.479 278.568 L72.5979 278.568 L72.5979 292.063 L68.0464 292.063 L68.0464 284.456 L19.0304 284.456 L19.0304 292.063 L14.479 292.063 L14.479 278.568 Z" fill="#000000" fill-rule="nonzero" fill-opacity="1" /><polyline clip-path="url(#clip132)" style="stroke:#009af9; stroke-linecap:round; stroke-linejoin:round; stroke-width:12; stroke-opacity:1; fill:none" points="368.156,1384.24 387.618,1384 407.081,1383.51 426.544,1382.84 446.006,1382.01 465.469,1381.03 484.931,1379.92 504.394,1378.7 523.856,1377.35 543.319,1375.9 562.782,1374.34 582.244,1372.69 601.707,1370.93 621.169,1369.08 640.632,1367.14 660.095,1365.12 679.557,1363 699.02,1360.8 718.482,1358.52 737.945,1356.16 757.408,1353.72 776.87,1351.2 796.333,1348.61 815.795,1345.94 835.258,1343.2 854.72,1340.38 874.183,1337.49 893.646,1334.54 913.108,1331.51 932.571,1328.42 952.033,1325.26 971.496,1322.03 990.959,1318.74 1010.42,1315.38 1029.88,1311.95 1049.35,1308.47 1068.81,1304.92 1088.27,1301.31 1107.73,1297.63 1127.2,1293.9 1146.66,1290.11 1166.12,1286.25 1185.58,1282.34 1205.05,1278.37 1224.51,1274.34 1243.97,1270.25 1263.43,1266.11 1282.9,1261.9 1302.36,1257.65 1321.82,1253.33 1341.29,1248.96 1360.75,1244.54 1380.21,1240.06 1399.67,1235.53 1419.14,1230.94 1438.6,1226.3 1458.06,1221.61 1477.52,1216.87 1496.99,1212.07 1516.45,1207.22 1535.91,1202.32 1555.37,1197.37 1574.84,1192.36 1594.3,1187.31 1613.76,1182.2 1633.22,1177.05 1652.69,1171.84 1672.15,1166.59 1691.61,1161.29 1711.07,1155.93 1730.54,1150.53 1750,1145.08 1769.46,1139.59 1788.92,1134.04 1808.39,1128.45 1827.85,1122.81 1847.31,1117.12 1866.78,1111.38 1886.24,1105.6 1905.7,1099.77 1925.16,1093.9 1944.63,1087.98 1964.09,1082.01 1983.55,1076 2003.01,1069.94 2022.48,1063.84 2041.94,1057.69 2061.4,1051.5 2080.86,1045.26 2100.33,1038.98 2119.79,1032.65 2139.25,1026.28 2158.71,1019.87 2178.18,1013.41 2197.64,1006.91 2217.1,1000.37 2236.56,993.779 2256.03,987.148 2275.49,980.474 2294.95,973.758 "/>
<polyline clip-path="url(#clip132)" style="stroke:#e26f46; stroke-linecap:round; stroke-linejoin:round; stroke-width:12; stroke-opacity:1; fill:none" points="368.156,1384.24 387.618,1383.82 407.081,1382.95 426.544,1381.75 446.006,1380.27 465.469,1378.53 484.931,1376.57 504.394,1374.38 523.856,1371.99 543.319,1369.41 562.782,1366.64 582.244,1363.7 601.707,1360.58 621.169,1357.29 640.632,1353.84 660.095,1350.23 679.557,1346.47 699.02,1342.56 718.482,1338.51 737.945,1334.31 757.408,1329.97 776.87,1325.49 796.333,1320.88 815.795,1316.13 835.258,1311.25 854.72,1306.25 874.183,1301.12 893.646,1295.86 913.108,1290.48 932.571,1284.98 952.033,1279.35 971.496,1273.61 990.959,1267.76 1010.42,1261.78 1029.88,1255.7 1049.35,1249.5 1068.81,1243.19 1088.27,1236.76 1107.73,1230.23 1127.2,1223.59 1146.66,1216.85 1166.12,1209.99 1185.58,1203.03 1205.05,1195.97 1224.51,1188.81 1243.97,1181.54 1263.43,1174.17 1282.9,1166.69 1302.36,1159.12 1321.82,1151.45 1341.29,1143.68 1360.75,1135.82 1380.21,1127.85 1399.67,1119.79 1419.14,1111.64 1438.6,1103.39 1458.06,1095.04 1477.52,1086.6 1496.99,1078.07 1516.45,1069.45 1535.91,1060.73 1555.37,1051.93 1574.84,1043.03 1594.3,1034.04 1613.76,1024.96 1633.22,1015.8 1652.69,1006.54 1672.15,997.197 1691.61,987.766 1711.07,978.248 1730.54,968.644 1750,958.953 1769.46,949.176 1788.92,939.315 1808.39,929.368 1827.85,919.338 1847.31,909.223 1866.78,899.025 1886.24,888.743 1905.7,878.379 1925.16,867.933 1944.63,857.405 1964.09,846.795 1983.55,836.104 2003.01,825.332 2022.48,814.479 2041.94,803.547 2061.4,792.535 2080.86,781.443 2100.33,770.273 2119.79,759.023 2139.25,747.696 2158.71,736.29 2178.18,724.806 2197.64,713.245 2217.1,701.607 2236.56,689.892 2256.03,678.101 2275.49,666.233 2294.95,654.29 "/>
<polyline clip-path="url(#clip132)" style="stroke:#3da44d; stroke-linecap:round; stroke-linejoin:round; stroke-width:12; stroke-opacity:1; fill:none" points="368.156,1384.24 387.618,1383.5 407.081,1381.95 426.544,1379.81 446.006,1377.18 465.469,1374.09 484.931,1370.6 504.394,1366.71 523.856,1362.47 543.319,1357.87 562.782,1352.95 582.244,1347.71 601.707,1342.16 621.169,1336.31 640.632,1330.18 660.095,1323.77 679.557,1317.08 699.02,1310.13 718.482,1302.92 737.945,1295.45 757.408,1287.73 776.87,1279.77 796.333,1271.56 815.795,1263.12 835.258,1254.45 854.72,1245.55 874.183,1236.42 893.646,1227.07 913.108,1217.51 932.571,1207.72 952.033,1197.72 971.496,1187.52 990.959,1177.1 1010.42,1166.48 1029.88,1155.66 1049.35,1144.63 1068.81,1133.41 1088.27,1121.99 1107.73,1110.37 1127.2,1098.57 1146.66,1086.57 1166.12,1074.38 1185.58,1062.01 1205.05,1049.45 1224.51,1036.7 1243.97,1023.78 1263.43,1010.67 1282.9,997.386 1302.36,983.922 1321.82,970.281 1341.29,956.466 1360.75,942.477 1380.21,928.315 1399.67,913.982 1419.14,899.479 1438.6,884.807 1458.06,869.968 1477.52,854.962 1496.99,839.79 1516.45,824.454 1535.91,808.955 1555.37,793.293 1574.84,777.471 1594.3,761.487 1613.76,745.345 1633.22,729.044 1652.69,712.586 1672.15,695.971 1691.61,679.2 1711.07,662.274 1730.54,645.195 1750,627.962 1769.46,610.577 1788.92,593.04 1808.39,575.353 1827.85,557.515 1847.31,539.528 1866.78,521.393 1886.24,503.11 1905.7,484.68 1925.16,466.103 1944.63,447.381 1964.09,428.513 1983.55,409.502 2003.01,390.346 2022.48,371.048 2041.94,351.607 2061.4,332.024 2080.86,312.3 2100.33,292.436 2119.79,272.431 2139.25,252.288 2158.71,232.005 2178.18,211.584 2197.64,191.025 2217.1,170.33 2236.56,149.497 2256.03,128.529 2275.49,107.425 2294.95,86.1857 "/>
<path clip-path="url(#clip130)" d="M378.432 300.469 L845.912 300.469 L845.912 93.1086 L378.432 93.1086  Z" fill="#ffffff" fill-rule="evenodd" fill-opacity="1"/>
<polyline clip-path="url(#clip130)" style="stroke:#000000; stroke-linecap:round; stroke-linejoin:round; stroke-width:4; stroke-opacity:1; fill:none" points="378.432,300.469 845.912,300.469 845.912,93.1086 378.432,93.1086 378.432,300.469 "/>
<polyline clip-path="url(#clip130)" style="stroke:#009af9; stroke-linecap:round; stroke-linejoin:round; stroke-width:12; stroke-opacity:1; fill:none" points="401.125,144.949 537.286,144.949 "/>
<path clip-path="url(#clip130)" d="M564.377 149.289 Q564.377 153.988 566.298 156.673 Q568.243 159.335 571.623 159.335 Q575.002 159.335 576.947 156.673 Q578.891 153.988 578.891 149.289 Q578.891 144.59 576.947 141.928 Q575.002 139.243 571.623 139.243 Q568.243 139.243 566.298 141.928 Q564.377 144.59 564.377 149.289 M578.891 158.34 Q577.548 160.655 575.488 161.789 Q573.451 162.9 570.581 162.9 Q565.882 162.9 562.919 159.15 Q559.979 155.4 559.979 149.289 Q559.979 143.178 562.919 139.428 Q565.882 135.678 570.581 135.678 Q573.451 135.678 575.488 136.812 Q577.548 137.923 578.891 140.238 L578.891 136.303 L583.15 136.303 L583.15 172.09 L578.891 172.09 L578.891 158.34 Z" fill="#000000" fill-rule="nonzero" fill-opacity="1" /><path clip-path="url(#clip130)" d="M611.622 170.099 L611.622 173.409 L586.993 173.409 L586.993 170.099 L611.622 170.099 Z" fill="#000000" fill-rule="nonzero" fill-opacity="1" /><path clip-path="url(#clip130)" d="M615.627 136.303 L619.886 136.303 L619.886 162.229 L615.627 162.229 L615.627 136.303 M615.627 126.21 L619.886 126.21 L619.886 131.604 L615.627 131.604 L615.627 126.21 Z" fill="#000000" fill-rule="nonzero" fill-opacity="1" /><path clip-path="url(#clip130)" d="M647.455 137.298 L647.455 141.28 Q645.65 140.284 643.821 139.798 Q642.016 139.289 640.164 139.289 Q636.02 139.289 633.729 141.928 Q631.437 144.544 631.437 149.289 Q631.437 154.034 633.729 156.673 Q636.02 159.289 640.164 159.289 Q642.016 159.289 643.821 158.803 Q645.65 158.293 647.455 157.298 L647.455 161.233 Q645.673 162.067 643.752 162.483 Q641.854 162.9 639.701 162.9 Q633.844 162.9 630.395 159.219 Q626.946 155.539 626.946 149.289 Q626.946 142.946 630.418 139.312 Q633.914 135.678 639.979 135.678 Q641.946 135.678 643.821 136.095 Q645.696 136.488 647.455 137.298 Z" fill="#000000" fill-rule="nonzero" fill-opacity="1" /><path clip-path="url(#clip130)" d="M677.039 148.201 L677.039 150.284 L657.455 150.284 Q657.733 154.682 660.094 156.997 Q662.479 159.289 666.715 159.289 Q669.168 159.289 671.46 158.687 Q673.775 158.085 676.043 156.881 L676.043 160.909 Q673.752 161.881 671.344 162.391 Q668.937 162.9 666.46 162.9 Q660.256 162.9 656.622 159.289 Q653.011 155.678 653.011 149.52 Q653.011 143.155 656.437 139.428 Q659.886 135.678 665.719 135.678 Q670.951 135.678 673.983 139.057 Q677.039 142.414 677.039 148.201 M672.779 146.951 Q672.733 143.456 670.812 141.372 Q668.914 139.289 665.766 139.289 Q662.201 139.289 660.048 141.303 Q657.918 143.317 657.594 146.974 L672.779 146.951 Z" fill="#000000" fill-rule="nonzero" fill-opacity="1" /><path clip-path="url(#clip130)" d="M684.585 140.701 L714.261 140.701 L714.261 144.59 L684.585 144.59 L684.585 140.701 M684.585 150.145 L714.261 150.145 L714.261 154.081 L684.585 154.081 L684.585 150.145 Z" fill="#000000" fill-rule="nonzero" fill-opacity="1" /><path clip-path="url(#clip130)" d="M725.163 158.293 L732.802 158.293 L732.802 131.928 L724.492 133.595 L724.492 129.335 L732.756 127.669 L737.432 127.669 L737.432 158.293 L745.071 158.293 L745.071 162.229 L725.163 162.229 L725.163 158.293 Z" fill="#000000" fill-rule="nonzero" fill-opacity="1" /><path clip-path="url(#clip130)" d="M776.089 148.201 L776.089 150.284 L756.506 150.284 Q756.784 154.682 759.145 156.997 Q761.529 159.289 765.765 159.289 Q768.219 159.289 770.51 158.687 Q772.825 158.085 775.094 156.881 L775.094 160.909 Q772.802 161.881 770.395 162.391 Q767.987 162.9 765.51 162.9 Q759.307 162.9 755.672 159.289 Q752.061 155.678 752.061 149.52 Q752.061 143.155 755.487 139.428 Q758.936 135.678 764.77 135.678 Q770.001 135.678 773.033 139.057 Q776.089 142.414 776.089 148.201 M771.83 146.951 Q771.783 143.456 769.862 141.372 Q767.964 139.289 764.816 139.289 Q761.251 139.289 759.098 141.303 Q756.969 143.317 756.645 146.974 L771.83 146.951 Z" fill="#000000" fill-rule="nonzero" fill-opacity="1" /><path clip-path="url(#clip130)" d="M780.927 147.344 L793.404 147.344 L793.404 151.141 L780.927 151.141 L780.927 147.344 Z" fill="#000000" fill-rule="nonzero" fill-opacity="1" /><path clip-path="url(#clip130)" d="M811.367 143.085 Q808.218 143.085 806.367 145.238 Q804.538 147.391 804.538 151.141 Q804.538 154.868 806.367 157.043 Q808.218 159.196 811.367 159.196 Q814.515 159.196 816.343 157.043 Q818.195 154.868 818.195 151.141 Q818.195 147.391 816.343 145.238 Q814.515 143.085 811.367 143.085 M820.649 128.433 L820.649 132.692 Q818.89 131.858 817.084 131.419 Q815.302 130.979 813.543 130.979 Q808.913 130.979 806.459 134.104 Q804.029 137.229 803.681 143.548 Q805.047 141.534 807.107 140.469 Q809.168 139.382 811.644 139.382 Q816.853 139.382 819.862 142.553 Q822.894 145.701 822.894 151.141 Q822.894 156.465 819.746 159.682 Q816.598 162.9 811.367 162.9 Q805.371 162.9 802.2 158.317 Q799.029 153.71 799.029 144.983 Q799.029 136.789 802.918 131.928 Q806.806 127.044 813.357 127.044 Q815.117 127.044 816.899 127.391 Q818.705 127.738 820.649 128.433 Z" fill="#000000" fill-rule="nonzero" fill-opacity="1" /><polyline clip-path="url(#clip130)" style="stroke:#e26f46; stroke-linecap:round; stroke-linejoin:round; stroke-width:12; stroke-opacity:1; fill:none" points="401.125,196.789 537.286,196.789 "/>
<path clip-path="url(#clip130)" d="M564.377 201.129 Q564.377 205.828 566.298 208.513 Q568.243 211.175 571.623 211.175 Q575.002 211.175 576.947 208.513 Q578.891 205.828 578.891 201.129 Q578.891 196.43 576.947 193.768 Q575.002 191.083 571.623 191.083 Q568.243 191.083 566.298 193.768 Q564.377 196.43 564.377 201.129 M578.891 210.18 Q577.548 212.495 575.488 213.629 Q573.451 214.74 570.581 214.74 Q565.882 214.74 562.919 210.99 Q559.979 207.24 559.979 201.129 Q559.979 195.018 562.919 191.268 Q565.882 187.518 570.581 187.518 Q573.451 187.518 575.488 188.652 Q577.548 189.763 578.891 192.078 L578.891 188.143 L583.15 188.143 L583.15 223.93 L578.891 223.93 L578.891 210.18 Z" fill="#000000" fill-rule="nonzero" fill-opacity="1" /><path clip-path="url(#clip130)" d="M611.622 221.939 L611.622 225.249 L586.993 225.249 L586.993 221.939 L611.622 221.939 Z" fill="#000000" fill-rule="nonzero" fill-opacity="1" /><path clip-path="url(#clip130)" d="M615.627 188.143 L619.886 188.143 L619.886 214.069 L615.627 214.069 L615.627 188.143 M615.627 178.05 L619.886 178.05 L619.886 183.444 L615.627 183.444 L615.627 178.05 Z" fill="#000000" fill-rule="nonzero" fill-opacity="1" /><path clip-path="url(#clip130)" d="M647.455 189.138 L647.455 193.12 Q645.65 192.124 643.821 191.638 Q642.016 191.129 640.164 191.129 Q636.02 191.129 633.729 193.768 Q631.437 196.384 631.437 201.129 Q631.437 205.874 633.729 208.513 Q636.02 211.129 640.164 211.129 Q642.016 211.129 643.821 210.643 Q645.65 210.133 647.455 209.138 L647.455 213.073 Q645.673 213.907 643.752 214.323 Q641.854 214.74 639.701 214.74 Q633.844 214.74 630.395 211.059 Q626.946 207.379 626.946 201.129 Q626.946 194.786 630.418 191.152 Q633.914 187.518 639.979 187.518 Q641.946 187.518 643.821 187.935 Q645.696 188.328 647.455 189.138 Z" fill="#000000" fill-rule="nonzero" fill-opacity="1" /><path clip-path="url(#clip130)" d="M677.039 200.041 L677.039 202.124 L657.455 202.124 Q657.733 206.522 660.094 208.837 Q662.479 211.129 666.715 211.129 Q669.168 211.129 671.46 210.527 Q673.775 209.925 676.043 208.721 L676.043 212.749 Q673.752 213.721 671.344 214.231 Q668.937 214.74 666.46 214.74 Q660.256 214.74 656.622 211.129 Q653.011 207.518 653.011 201.36 Q653.011 194.995 656.437 191.268 Q659.886 187.518 665.719 187.518 Q670.951 187.518 673.983 190.897 Q677.039 194.254 677.039 200.041 M672.779 198.791 Q672.733 195.296 670.812 193.212 Q668.914 191.129 665.766 191.129 Q662.201 191.129 660.048 193.143 Q657.918 195.157 657.594 198.814 L672.779 198.791 Z" fill="#000000" fill-rule="nonzero" fill-opacity="1" /><path clip-path="url(#clip130)" d="M684.585 192.541 L714.261 192.541 L714.261 196.43 L684.585 196.43 L684.585 192.541 M684.585 201.985 L714.261 201.985 L714.261 205.921 L684.585 205.921 L684.585 201.985 Z" fill="#000000" fill-rule="nonzero" fill-opacity="1" /><path clip-path="url(#clip130)" d="M725.163 210.133 L732.802 210.133 L732.802 183.768 L724.492 185.435 L724.492 181.175 L732.756 179.509 L737.432 179.509 L737.432 210.133 L745.071 210.133 L745.071 214.069 L725.163 214.069 L725.163 210.133 Z" fill="#000000" fill-rule="nonzero" fill-opacity="1" /><path clip-path="url(#clip130)" d="M776.089 200.041 L776.089 202.124 L756.506 202.124 Q756.784 206.522 759.145 208.837 Q761.529 211.129 765.765 211.129 Q768.219 211.129 770.51 210.527 Q772.825 209.925 775.094 208.721 L775.094 212.749 Q772.802 213.721 770.395 214.231 Q767.987 214.74 765.51 214.74 Q759.307 214.74 755.672 211.129 Q752.061 207.518 752.061 201.36 Q752.061 194.995 755.487 191.268 Q758.936 187.518 764.77 187.518 Q770.001 187.518 773.033 190.897 Q776.089 194.254 776.089 200.041 M771.83 198.791 Q771.783 195.296 769.862 193.212 Q767.964 191.129 764.816 191.129 Q761.251 191.129 759.098 193.143 Q756.969 195.157 756.645 198.814 L771.83 198.791 Z" fill="#000000" fill-rule="nonzero" fill-opacity="1" /><path clip-path="url(#clip130)" d="M780.927 199.184 L793.404 199.184 L793.404 202.981 L780.927 202.981 L780.927 199.184 Z" fill="#000000" fill-rule="nonzero" fill-opacity="1" /><path clip-path="url(#clip130)" d="M800.834 179.509 L819.191 179.509 L819.191 183.444 L805.117 183.444 L805.117 191.916 Q806.135 191.569 807.154 191.407 Q808.172 191.222 809.191 191.222 Q814.978 191.222 818.357 194.393 Q821.737 197.564 821.737 202.981 Q821.737 208.559 818.265 211.661 Q814.792 214.74 808.473 214.74 Q806.297 214.74 804.029 214.37 Q801.783 213.999 799.376 213.258 L799.376 208.559 Q801.459 209.694 803.681 210.249 Q805.904 210.805 808.38 210.805 Q812.385 210.805 814.723 208.698 Q817.061 206.592 817.061 202.981 Q817.061 199.37 814.723 197.263 Q812.385 195.157 808.38 195.157 Q806.506 195.157 804.631 195.573 Q802.779 195.99 800.834 196.87 L800.834 179.509 Z" fill="#000000" fill-rule="nonzero" fill-opacity="1" /><polyline clip-path="url(#clip130)" style="stroke:#3da44d; stroke-linecap:round; stroke-linejoin:round; stroke-width:12; stroke-opacity:1; fill:none" points="401.125,248.629 537.286,248.629 "/>
<path clip-path="url(#clip130)" d="M564.377 252.969 Q564.377 257.668 566.298 260.353 Q568.243 263.015 571.623 263.015 Q575.002 263.015 576.947 260.353 Q578.891 257.668 578.891 252.969 Q578.891 248.27 576.947 245.608 Q575.002 242.923 571.623 242.923 Q568.243 242.923 566.298 245.608 Q564.377 248.27 564.377 252.969 M578.891 262.02 Q577.548 264.335 575.488 265.469 Q573.451 266.58 570.581 266.58 Q565.882 266.58 562.919 262.83 Q559.979 259.08 559.979 252.969 Q559.979 246.858 562.919 243.108 Q565.882 239.358 570.581 239.358 Q573.451 239.358 575.488 240.492 Q577.548 241.603 578.891 243.918 L578.891 239.983 L583.15 239.983 L583.15 275.77 L578.891 275.77 L578.891 262.02 Z" fill="#000000" fill-rule="nonzero" fill-opacity="1" /><path clip-path="url(#clip130)" d="M611.622 273.779 L611.622 277.089 L586.993 277.089 L586.993 273.779 L611.622 273.779 Z" fill="#000000" fill-rule="nonzero" fill-opacity="1" /><path clip-path="url(#clip130)" d="M615.627 239.983 L619.886 239.983 L619.886 265.909 L615.627 265.909 L615.627 239.983 M615.627 229.89 L619.886 229.89 L619.886 235.284 L615.627 235.284 L615.627 229.89 Z" fill="#000000" fill-rule="nonzero" fill-opacity="1" /><path clip-path="url(#clip130)" d="M647.455 240.978 L647.455 244.96 Q645.65 243.964 643.821 243.478 Q642.016 242.969 640.164 242.969 Q636.02 242.969 633.729 245.608 Q631.437 248.224 631.437 252.969 Q631.437 257.714 633.729 260.353 Q636.02 262.969 640.164 262.969 Q642.016 262.969 643.821 262.483 Q645.65 261.973 647.455 260.978 L647.455 264.913 Q645.673 265.747 643.752 266.163 Q641.854 266.58 639.701 266.58 Q633.844 266.58 630.395 262.899 Q626.946 259.219 626.946 252.969 Q626.946 246.626 630.418 242.992 Q633.914 239.358 639.979 239.358 Q641.946 239.358 643.821 239.775 Q645.696 240.168 647.455 240.978 Z" fill="#000000" fill-rule="nonzero" fill-opacity="1" /><path clip-path="url(#clip130)" d="M677.039 251.881 L677.039 253.964 L657.455 253.964 Q657.733 258.362 660.094 260.677 Q662.479 262.969 666.715 262.969 Q669.168 262.969 671.46 262.367 Q673.775 261.765 676.043 260.561 L676.043 264.589 Q673.752 265.561 671.344 266.071 Q668.937 266.58 666.46 266.58 Q660.256 266.58 656.622 262.969 Q653.011 259.358 653.011 253.2 Q653.011 246.835 656.437 243.108 Q659.886 239.358 665.719 239.358 Q670.951 239.358 673.983 242.737 Q677.039 246.094 677.039 251.881 M672.779 250.631 Q672.733 247.136 670.812 245.052 Q668.914 242.969 665.766 242.969 Q662.201 242.969 660.048 244.983 Q657.918 246.997 657.594 250.654 L672.779 250.631 Z" fill="#000000" fill-rule="nonzero" fill-opacity="1" /><path clip-path="url(#clip130)" d="M684.585 244.381 L714.261 244.381 L714.261 248.27 L684.585 248.27 L684.585 244.381 M684.585 253.825 L714.261 253.825 L714.261 257.761 L684.585 257.761 L684.585 253.825 Z" fill="#000000" fill-rule="nonzero" fill-opacity="1" /><path clip-path="url(#clip130)" d="M725.163 261.973 L732.802 261.973 L732.802 235.608 L724.492 237.275 L724.492 233.015 L732.756 231.349 L737.432 231.349 L737.432 261.973 L745.071 261.973 L745.071 265.909 L725.163 265.909 L725.163 261.973 Z" fill="#000000" fill-rule="nonzero" fill-opacity="1" /><path clip-path="url(#clip130)" d="M776.089 251.881 L776.089 253.964 L756.506 253.964 Q756.784 258.362 759.145 260.677 Q761.529 262.969 765.765 262.969 Q768.219 262.969 770.51 262.367 Q772.825 261.765 775.094 260.561 L775.094 264.589 Q772.802 265.561 770.395 266.071 Q767.987 266.58 765.51 266.58 Q759.307 266.58 755.672 262.969 Q752.061 259.358 752.061 253.2 Q752.061 246.835 755.487 243.108 Q758.936 239.358 764.77 239.358 Q770.001 239.358 773.033 242.737 Q776.089 246.094 776.089 251.881 M771.83 250.631 Q771.783 247.136 769.862 245.052 Q767.964 242.969 764.816 242.969 Q761.251 242.969 759.098 244.983 Q756.969 246.997 756.645 250.654 L771.83 250.631 Z" fill="#000000" fill-rule="nonzero" fill-opacity="1" /><path clip-path="url(#clip130)" d="M780.927 251.024 L793.404 251.024 L793.404 254.821 L780.927 254.821 L780.927 251.024 Z" fill="#000000" fill-rule="nonzero" fill-opacity="1" /><path clip-path="url(#clip130)" d="M813.635 235.423 L801.83 253.872 L813.635 253.872 L813.635 235.423 M812.408 231.349 L818.288 231.349 L818.288 253.872 L823.218 253.872 L823.218 257.761 L818.288 257.761 L818.288 265.909 L813.635 265.909 L813.635 257.761 L798.033 257.761 L798.033 253.247 L812.408 231.349 Z" fill="#000000" fill-rule="nonzero" fill-opacity="1" /></svg>
