<?xml version="1.0" encoding="utf-8"?>
<svg xmlns="http://www.w3.org/2000/svg" xmlns:xlink="http://www.w3.org/1999/xlink" width="600" height="400" viewBox="0 0 2400 1600">
<defs>
  <clipPath id="clip860">
    <rect x="0" y="0" width="2400" height="1600"/>
  </clipPath>
</defs>
<path clip-path="url(#clip860)" d="M0 1600 L2400 1600 L2400 0 L0 0  Z" fill="#ffffff" fill-rule="evenodd" fill-opacity="1"/>
<defs>
  <clipPath id="clip861">
    <rect x="480" y="0" width="1681" height="1600"/>
  </clipPath>
</defs>
<path clip-path="url(#clip860)" d="M257.204 1423.18 L2352.76 1423.18 L2352.76 47.2441 L257.204 47.2441  Z" fill="#ffffff" fill-rule="evenodd" fill-opacity="1"/>
<defs>
  <clipPath id="clip862">
    <rect x="257" y="47" width="2097" height="1377"/>
  </clipPath>
</defs>
<polyline clip-path="url(#clip862)" style="stroke:#000000; stroke-linecap:round; stroke-linejoin:round; stroke-width:2; stroke-opacity:0.1; fill:none" points="316.512,1423.18 316.512,47.2441 "/>
<polyline clip-path="url(#clip862)" style="stroke:#000000; stroke-linecap:round; stroke-linejoin:round; stroke-width:2; stroke-opacity:0.1; fill:none" points="904.036,1423.18 904.036,47.2441 "/>
<polyline clip-path="url(#clip862)" style="stroke:#000000; stroke-linecap:round; stroke-linejoin:round; stroke-width:2; stroke-opacity:0.1; fill:none" points="1491.56,1423.18 1491.56,47.2441 "/>
<polyline clip-path="url(#clip862)" style="stroke:#000000; stroke-linecap:round; stroke-linejoin:round; stroke-width:2; stroke-opacity:0.1; fill:none" points="2079.08,1423.18 2079.08,47.2441 "/>
<polyline clip-path="url(#clip860)" style="stroke:#000000; stroke-linecap:round; stroke-linejoin:round; stroke-width:4; stroke-opacity:1; fill:none" points="257.204,1423.18 2352.76,1423.18 "/>
<polyline clip-path="url(#clip860)" style="stroke:#000000; stroke-linecap:round; stroke-linejoin:round; stroke-width:4; stroke-opacity:1; fill:none" points="316.512,1423.18 316.512,1404.28 "/>
<polyline clip-path="url(#clip860)" style="stroke:#000000; stroke-linecap:round; stroke-linejoin:round; stroke-width:4; stroke-opacity:1; fill:none" points="904.036,1423.18 904.036,1404.28 "/>
<polyline clip-path="url(#clip860)" style="stroke:#000000; stroke-linecap:round; stroke-linejoin:round; stroke-width:4; stroke-opacity:1; fill:none" points="1491.56,1423.18 1491.56,1404.28 "/>
<polyline clip-path="url(#clip860)" style="stroke:#000000; stroke-linecap:round; stroke-linejoin:round; stroke-width:4; stroke-opacity:1; fill:none" points="2079.08,1423.18 2079.08,1404.28 "/>
<path clip-path="url(#clip860)" d="M293.896 1454.1 Q290.285 1454.1 288.457 1457.66 Q286.651 1461.2 286.651 1468.33 Q286.651 1475.44 288.457 1479.01 Q290.285 1482.55 293.896 1482.55 Q297.531 1482.55 299.336 1479.01 Q301.165 1475.44 301.165 1468.33 Q301.165 1461.2 299.336 1457.66 Q297.531 1454.1 293.896 1454.1 M293.896 1450.39 Q299.707 1450.39 302.762 1455 Q305.841 1459.58 305.841 1468.33 Q305.841 1477.06 302.762 1481.67 Q299.707 1486.25 293.896 1486.25 Q288.086 1486.25 285.008 1481.67 Q281.952 1477.06 281.952 1468.33 Q281.952 1459.58 285.008 1455 Q288.086 1450.39 293.896 1450.39 Z" fill="#000000" fill-rule="nonzero" fill-opacity="1" /><path clip-path="url(#clip860)" d="M314.058 1479.7 L318.943 1479.7 L318.943 1485.58 L314.058 1485.58 L314.058 1479.7 Z" fill="#000000" fill-rule="nonzero" fill-opacity="1" /><path clip-path="url(#clip860)" d="M339.128 1454.1 Q335.517 1454.1 333.688 1457.66 Q331.882 1461.2 331.882 1468.33 Q331.882 1475.44 333.688 1479.01 Q335.517 1482.55 339.128 1482.55 Q342.762 1482.55 344.568 1479.01 Q346.396 1475.44 346.396 1468.33 Q346.396 1461.2 344.568 1457.66 Q342.762 1454.1 339.128 1454.1 M339.128 1450.39 Q344.938 1450.39 347.993 1455 Q351.072 1459.58 351.072 1468.33 Q351.072 1477.06 347.993 1481.67 Q344.938 1486.25 339.128 1486.25 Q333.318 1486.25 330.239 1481.67 Q327.183 1477.06 327.183 1468.33 Q327.183 1459.58 330.239 1455 Q333.318 1450.39 339.128 1450.39 Z" fill="#000000" fill-rule="nonzero" fill-opacity="1" /><path clip-path="url(#clip860)" d="M882.034 1454.1 Q878.423 1454.1 876.594 1457.66 Q874.788 1461.2 874.788 1468.33 Q874.788 1475.44 876.594 1479.01 Q878.423 1482.55 882.034 1482.55 Q885.668 1482.55 887.474 1479.01 Q889.302 1475.44 889.302 1468.33 Q889.302 1461.2 887.474 1457.66 Q885.668 1454.1 882.034 1454.1 M882.034 1450.39 Q887.844 1450.39 890.9 1455 Q893.978 1459.58 893.978 1468.33 Q893.978 1477.06 890.9 1481.67 Q887.844 1486.25 882.034 1486.25 Q876.224 1486.25 873.145 1481.67 Q870.089 1477.06 870.089 1468.33 Q870.089 1459.58 873.145 1455 Q876.224 1450.39 882.034 1450.39 Z" fill="#000000" fill-rule="nonzero" fill-opacity="1" /><path clip-path="url(#clip860)" d="M902.196 1479.7 L907.08 1479.7 L907.08 1485.58 L902.196 1485.58 L902.196 1479.7 Z" fill="#000000" fill-rule="nonzero" fill-opacity="1" /><path clip-path="url(#clip860)" d="M918.075 1481.64 L925.714 1481.64 L925.714 1455.28 L917.404 1456.95 L917.404 1452.69 L925.668 1451.02 L930.344 1451.02 L930.344 1481.64 L937.983 1481.64 L937.983 1485.58 L918.075 1485.58 L918.075 1481.64 Z" fill="#000000" fill-rule="nonzero" fill-opacity="1" /><path clip-path="url(#clip860)" d="M1469.74 1454.1 Q1466.13 1454.1 1464.3 1457.66 Q1462.5 1461.2 1462.5 1468.33 Q1462.5 1475.44 1464.3 1479.01 Q1466.13 1482.55 1469.74 1482.55 Q1473.38 1482.55 1475.18 1479.01 Q1477.01 1475.44 1477.01 1468.33 Q1477.01 1461.2 1475.18 1457.66 Q1473.38 1454.1 1469.74 1454.1 M1469.74 1450.39 Q1475.55 1450.39 1478.61 1455 Q1481.69 1459.58 1481.69 1468.33 Q1481.69 1477.06 1478.61 1481.67 Q1475.55 1486.25 1469.74 1486.25 Q1463.93 1486.25 1460.85 1481.67 Q1457.8 1477.06 1457.8 1468.33 Q1457.8 1459.58 1460.85 1455 Q1463.93 1450.39 1469.74 1450.39 Z" fill="#000000" fill-rule="nonzero" fill-opacity="1" /><path clip-path="url(#clip860)" d="M1489.9 1479.7 L1494.79 1479.7 L1494.79 1485.58 L1489.9 1485.58 L1489.9 1479.7 Z" fill="#000000" fill-rule="nonzero" fill-opacity="1" /><path clip-path="url(#clip860)" d="M1509 1481.64 L1525.32 1481.64 L1525.32 1485.58 L1503.38 1485.58 L1503.38 1481.64 Q1506.04 1478.89 1510.62 1474.26 Q1515.23 1469.61 1516.41 1468.27 Q1518.65 1465.74 1519.53 1464.01 Q1520.44 1462.25 1520.44 1460.56 Q1520.44 1457.8 1518.49 1456.07 Q1516.57 1454.33 1513.47 1454.33 Q1511.27 1454.33 1508.82 1455.09 Q1506.39 1455.86 1503.61 1457.41 L1503.61 1452.69 Q1506.43 1451.55 1508.89 1450.97 Q1511.34 1450.39 1513.38 1450.39 Q1518.75 1450.39 1521.94 1453.08 Q1525.14 1455.77 1525.14 1460.26 Q1525.14 1462.39 1524.33 1464.31 Q1523.54 1466.2 1521.43 1468.8 Q1520.85 1469.47 1517.75 1472.69 Q1514.65 1475.88 1509 1481.64 Z" fill="#000000" fill-rule="nonzero" fill-opacity="1" /><path clip-path="url(#clip860)" d="M2056.79 1454.1 Q2053.18 1454.1 2051.35 1457.66 Q2049.55 1461.2 2049.55 1468.33 Q2049.55 1475.44 2051.35 1479.01 Q2053.18 1482.55 2056.79 1482.55 Q2060.43 1482.55 2062.23 1479.01 Q2064.06 1475.44 2064.06 1468.33 Q2064.06 1461.2 2062.23 1457.66 Q2060.43 1454.1 2056.79 1454.1 M2056.79 1450.39 Q2062.6 1450.39 2065.66 1455 Q2068.74 1459.58 2068.74 1468.33 Q2068.74 1477.06 2065.66 1481.67 Q2062.6 1486.25 2056.79 1486.25 Q2050.98 1486.25 2047.9 1481.67 Q2044.85 1477.06 2044.85 1468.33 Q2044.85 1459.58 2047.9 1455 Q2050.98 1450.39 2056.79 1450.39 Z" fill="#000000" fill-rule="nonzero" fill-opacity="1" /><path clip-path="url(#clip860)" d="M2076.95 1479.7 L2081.84 1479.7 L2081.84 1485.58 L2076.95 1485.58 L2076.95 1479.7 Z" fill="#000000" fill-rule="nonzero" fill-opacity="1" /><path clip-path="url(#clip860)" d="M2106.19 1466.95 Q2109.55 1467.66 2111.42 1469.93 Q2113.32 1472.2 2113.32 1475.53 Q2113.32 1480.65 2109.8 1483.45 Q2106.28 1486.25 2099.8 1486.25 Q2097.63 1486.25 2095.31 1485.81 Q2093.02 1485.39 2090.57 1484.54 L2090.57 1480.02 Q2092.51 1481.16 2094.82 1481.74 Q2097.14 1482.32 2099.66 1482.32 Q2104.06 1482.32 2106.35 1480.58 Q2108.67 1478.84 2108.67 1475.53 Q2108.67 1472.48 2106.51 1470.77 Q2104.38 1469.03 2100.57 1469.03 L2096.54 1469.03 L2096.54 1465.19 L2100.75 1465.19 Q2104.2 1465.19 2106.03 1463.82 Q2107.86 1462.43 2107.86 1459.84 Q2107.86 1457.18 2105.96 1455.77 Q2104.08 1454.33 2100.57 1454.33 Q2098.64 1454.33 2096.44 1454.75 Q2094.25 1455.16 2091.61 1456.04 L2091.61 1451.88 Q2094.27 1451.14 2096.58 1450.77 Q2098.92 1450.39 2100.98 1450.39 Q2106.31 1450.39 2109.41 1452.83 Q2112.51 1455.23 2112.51 1459.35 Q2112.51 1462.22 2110.87 1464.21 Q2109.22 1466.18 2106.19 1466.95 Z" fill="#000000" fill-rule="nonzero" fill-opacity="1" /><path clip-path="url(#clip860)" d="M995.161 1525.81 L995.161 1562.76 L1002.93 1562.76 Q1012.76 1562.76 1017.31 1558.3 Q1021.9 1553.85 1021.9 1544.24 Q1021.9 1534.69 1017.31 1530.26 Q1012.76 1525.81 1002.93 1525.81 L995.161 1525.81 M988.732 1520.52 L1001.94 1520.52 Q1015.75 1520.52 1022.22 1526.28 Q1028.68 1532.01 1028.68 1544.24 Q1028.68 1556.52 1022.18 1562.28 Q1015.69 1568.04 1001.94 1568.04 L988.732 1568.04 L988.732 1520.52 Z" fill="#000000" fill-rule="nonzero" fill-opacity="1" /><path clip-path="url(#clip860)" d="M1069.16 1548.76 L1069.16 1551.62 L1042.24 1551.62 Q1042.62 1557.67 1045.86 1560.85 Q1049.14 1564 1054.97 1564 Q1058.34 1564 1061.49 1563.17 Q1064.67 1562.35 1067.79 1560.69 L1067.79 1566.23 Q1064.64 1567.57 1061.33 1568.27 Q1058.02 1568.97 1054.62 1568.97 Q1046.09 1568.97 1041.09 1564 Q1036.12 1559.04 1036.12 1550.57 Q1036.12 1541.82 1040.83 1536.69 Q1045.58 1531.54 1053.6 1531.54 Q1060.79 1531.54 1064.96 1536.18 Q1069.16 1540.8 1069.16 1548.76 M1063.31 1547.04 Q1063.24 1542.23 1060.6 1539.37 Q1057.99 1536.5 1053.66 1536.5 Q1048.76 1536.5 1045.8 1539.27 Q1042.87 1542.04 1042.43 1547.07 L1063.31 1547.04 Z" fill="#000000" fill-rule="nonzero" fill-opacity="1" /><path clip-path="url(#clip860)" d="M1078.77 1518.52 L1084.63 1518.52 L1084.63 1568.04 L1078.77 1568.04 L1078.77 1518.52 Z" fill="#000000" fill-rule="nonzero" fill-opacity="1" /><path clip-path="url(#clip860)" d="M1102.68 1522.27 L1102.68 1532.4 L1114.74 1532.4 L1114.74 1536.95 L1102.68 1536.95 L1102.68 1556.3 Q1102.68 1560.66 1103.86 1561.9 Q1105.06 1563.14 1108.73 1563.14 L1114.74 1563.14 L1114.74 1568.04 L1108.73 1568.04 Q1101.95 1568.04 1099.37 1565.53 Q1096.79 1562.98 1096.79 1556.3 L1096.79 1536.95 L1092.49 1536.95 L1092.49 1532.4 L1096.79 1532.4 L1096.79 1522.27 L1102.68 1522.27 Z" fill="#000000" fill-rule="nonzero" fill-opacity="1" /><path clip-path="url(#clip860)" d="M1138.64 1550.12 Q1131.55 1550.12 1128.81 1551.75 Q1126.07 1553.37 1126.07 1557.29 Q1126.07 1560.4 1128.11 1562.25 Q1130.18 1564.07 1133.71 1564.07 Q1138.58 1564.07 1141.51 1560.63 Q1144.47 1557.16 1144.47 1551.43 L1144.47 1550.12 L1138.64 1550.12 M1150.33 1547.71 L1150.33 1568.04 L1144.47 1568.04 L1144.47 1562.63 Q1142.46 1565.88 1139.47 1567.44 Q1136.48 1568.97 1132.15 1568.97 Q1126.68 1568.97 1123.43 1565.91 Q1120.22 1562.82 1120.22 1557.67 Q1120.22 1551.65 1124.23 1548.6 Q1128.27 1545.54 1136.26 1545.54 L1144.47 1545.54 L1144.47 1544.97 Q1144.47 1540.93 1141.8 1538.73 Q1139.15 1536.5 1134.35 1536.5 Q1131.29 1536.5 1128.4 1537.23 Q1125.5 1537.97 1122.83 1539.43 L1122.83 1534.02 Q1126.04 1532.78 1129.06 1532.17 Q1132.09 1531.54 1134.95 1531.54 Q1142.69 1531.54 1146.51 1535.55 Q1150.33 1539.56 1150.33 1547.71 Z" fill="#000000" fill-rule="nonzero" fill-opacity="1" /><path clip-path="url(#clip860)" d="M1199.31 1550.12 Q1192.21 1550.12 1189.47 1551.75 Q1186.74 1553.37 1186.74 1557.29 Q1186.74 1560.4 1188.77 1562.25 Q1190.84 1564.07 1194.38 1564.07 Q1199.25 1564.07 1202.17 1560.63 Q1205.13 1557.16 1205.13 1551.43 L1205.13 1550.12 L1199.31 1550.12 M1210.99 1547.71 L1210.99 1568.04 L1205.13 1568.04 L1205.13 1562.63 Q1203.13 1565.88 1200.14 1567.44 Q1197.14 1568.97 1192.82 1568.97 Q1187.34 1568.97 1184.1 1565.91 Q1180.88 1562.82 1180.88 1557.67 Q1180.88 1551.65 1184.89 1548.6 Q1188.93 1545.54 1196.92 1545.54 L1205.13 1545.54 L1205.13 1544.97 Q1205.13 1540.93 1202.46 1538.73 Q1199.82 1536.5 1195.01 1536.5 Q1191.96 1536.5 1189.06 1537.23 Q1186.16 1537.97 1183.49 1539.43 L1183.49 1534.02 Q1186.71 1532.78 1189.73 1532.17 Q1192.75 1531.54 1195.62 1531.54 Q1203.35 1531.54 1207.17 1535.55 Q1210.99 1539.56 1210.99 1547.71 Z" fill="#000000" fill-rule="nonzero" fill-opacity="1" /><path clip-path="url(#clip860)" d="M1250.14 1578.87 L1250.14 1583.42 L1216.27 1583.42 L1216.27 1578.87 L1250.14 1578.87 Z" fill="#000000" fill-rule="nonzero" fill-opacity="1" /><path clip-path="url(#clip860)" d="M1252.24 1532.4 L1258.1 1532.4 L1265.42 1560.21 L1272.71 1532.4 L1279.61 1532.4 L1286.93 1560.21 L1294.22 1532.4 L1300.08 1532.4 L1290.75 1568.04 L1283.85 1568.04 L1276.18 1538.83 L1268.47 1568.04 L1261.57 1568.04 L1252.24 1532.4 Z" fill="#000000" fill-rule="nonzero" fill-opacity="1" /><path clip-path="url(#clip860)" d="M1329.14 1518.52 L1342.63 1518.52 L1342.63 1523.07 L1334.99 1523.07 L1334.99 1572.09 L1342.63 1572.09 L1342.63 1576.64 L1329.14 1576.64 L1329.14 1518.52 Z" fill="#000000" fill-rule="nonzero" fill-opacity="1" /><path clip-path="url(#clip860)" d="M1354.51 1553.98 L1354.51 1532.4 L1360.36 1532.4 L1360.36 1553.75 Q1360.36 1558.81 1362.33 1561.36 Q1364.31 1563.87 1368.26 1563.87 Q1373 1563.87 1375.73 1560.85 Q1378.5 1557.83 1378.5 1552.61 L1378.5 1532.4 L1384.36 1532.4 L1384.36 1568.04 L1378.5 1568.04 L1378.5 1562.57 Q1376.37 1565.82 1373.54 1567.41 Q1370.74 1568.97 1367.01 1568.97 Q1360.87 1568.97 1357.69 1565.15 Q1354.51 1561.33 1354.51 1553.98 M1369.24 1531.54 L1369.24 1531.54 Z" fill="#000000" fill-rule="nonzero" fill-opacity="1" /><path clip-path="url(#clip860)" d="M1426.06 1546.53 L1426.06 1568.04 L1420.2 1568.04 L1420.2 1546.72 Q1420.2 1541.66 1418.23 1539.14 Q1416.25 1536.63 1412.31 1536.63 Q1407.56 1536.63 1404.83 1539.65 Q1402.09 1542.68 1402.09 1547.9 L1402.09 1568.04 L1396.2 1568.04 L1396.2 1532.4 L1402.09 1532.4 L1402.09 1537.93 Q1404.19 1534.72 1407.02 1533.13 Q1409.89 1531.54 1413.61 1531.54 Q1419.75 1531.54 1422.9 1535.36 Q1426.06 1539.14 1426.06 1546.53 Z" fill="#000000" fill-rule="nonzero" fill-opacity="1" /><path clip-path="url(#clip860)" d="M1437.74 1532.4 L1443.59 1532.4 L1443.59 1568.04 L1437.74 1568.04 L1437.74 1532.4 M1437.74 1518.52 L1443.59 1518.52 L1443.59 1525.93 L1437.74 1525.93 L1437.74 1518.52 Z" fill="#000000" fill-rule="nonzero" fill-opacity="1" /><path clip-path="url(#clip860)" d="M1461.64 1522.27 L1461.64 1532.4 L1473.7 1532.4 L1473.7 1536.95 L1461.64 1536.95 L1461.64 1556.3 Q1461.64 1560.66 1462.82 1561.9 Q1464.03 1563.14 1467.69 1563.14 L1473.7 1563.14 L1473.7 1568.04 L1467.69 1568.04 Q1460.91 1568.04 1458.33 1565.53 Q1455.75 1562.98 1455.75 1556.3 L1455.75 1536.95 L1451.45 1536.95 L1451.45 1532.4 L1455.75 1532.4 L1455.75 1522.27 L1461.64 1522.27 Z" fill="#000000" fill-rule="nonzero" fill-opacity="1" /><path clip-path="url(#clip860)" d="M1481.41 1518.52 L1487.26 1518.52 L1487.26 1568.04 L1481.41 1568.04 L1481.41 1518.52 Z" fill="#000000" fill-rule="nonzero" fill-opacity="1" /><path clip-path="url(#clip860)" d="M1530.01 1548.76 L1530.01 1551.62 L1503.08 1551.62 Q1503.46 1557.67 1506.71 1560.85 Q1509.99 1564 1515.81 1564 Q1519.19 1564 1522.34 1563.17 Q1525.52 1562.35 1528.64 1560.69 L1528.64 1566.23 Q1525.49 1567.57 1522.18 1568.27 Q1518.87 1568.97 1515.46 1568.97 Q1506.93 1568.97 1501.93 1564 Q1496.97 1559.04 1496.97 1550.57 Q1496.97 1541.82 1501.68 1536.69 Q1506.42 1531.54 1514.44 1531.54 Q1521.64 1531.54 1525.81 1536.18 Q1530.01 1540.8 1530.01 1548.76 M1524.15 1547.04 Q1524.09 1542.23 1521.45 1539.37 Q1518.84 1536.5 1514.51 1536.5 Q1509.61 1536.5 1506.65 1539.27 Q1503.72 1542.04 1503.27 1547.07 L1524.15 1547.04 Z" fill="#000000" fill-rule="nonzero" fill-opacity="1" /><path clip-path="url(#clip860)" d="M1562.35 1533.45 L1562.35 1538.98 Q1559.86 1537.71 1557.19 1537.07 Q1554.52 1536.44 1551.65 1536.44 Q1547.29 1536.44 1545.09 1537.77 Q1542.93 1539.11 1542.93 1541.79 Q1542.93 1543.82 1544.49 1545 Q1546.05 1546.15 1550.76 1547.2 L1552.77 1547.64 Q1559 1548.98 1561.61 1551.43 Q1564.26 1553.85 1564.26 1558.21 Q1564.26 1563.17 1560.31 1566.07 Q1556.39 1568.97 1549.52 1568.97 Q1546.65 1568.97 1543.53 1568.39 Q1540.45 1567.85 1537.01 1566.74 L1537.01 1560.69 Q1540.26 1562.38 1543.41 1563.24 Q1546.56 1564.07 1549.65 1564.07 Q1553.78 1564.07 1556.01 1562.66 Q1558.24 1561.23 1558.24 1558.65 Q1558.24 1556.27 1556.62 1554.99 Q1555.02 1553.72 1549.58 1552.54 L1547.55 1552.07 Q1542.1 1550.92 1539.68 1548.56 Q1537.26 1546.18 1537.26 1542.04 Q1537.26 1537.01 1540.83 1534.27 Q1544.39 1531.54 1550.95 1531.54 Q1554.2 1531.54 1557.06 1532.01 Q1559.93 1532.49 1562.35 1533.45 Z" fill="#000000" fill-rule="nonzero" fill-opacity="1" /><path clip-path="url(#clip860)" d="M1596.31 1533.45 L1596.31 1538.98 Q1593.82 1537.71 1591.15 1537.07 Q1588.48 1536.44 1585.61 1536.44 Q1581.25 1536.44 1579.06 1537.77 Q1576.89 1539.11 1576.89 1541.79 Q1576.89 1543.82 1578.45 1545 Q1580.01 1546.15 1584.72 1547.2 L1586.73 1547.64 Q1592.96 1548.98 1595.57 1551.43 Q1598.22 1553.85 1598.22 1558.21 Q1598.22 1563.17 1594.27 1566.07 Q1590.35 1568.97 1583.48 1568.97 Q1580.62 1568.97 1577.5 1568.39 Q1574.41 1567.85 1570.97 1566.74 L1570.97 1560.69 Q1574.22 1562.38 1577.37 1563.24 Q1580.52 1564.07 1583.61 1564.07 Q1587.74 1564.07 1589.97 1562.66 Q1592.2 1561.23 1592.2 1558.65 Q1592.2 1556.27 1590.58 1554.99 Q1588.99 1553.72 1583.54 1552.54 L1581.51 1552.07 Q1576.06 1550.92 1573.64 1548.56 Q1571.23 1546.18 1571.23 1542.04 Q1571.23 1537.01 1574.79 1534.27 Q1578.36 1531.54 1584.91 1531.54 Q1588.16 1531.54 1591.02 1532.01 Q1593.89 1532.49 1596.31 1533.45 Z" fill="#000000" fill-rule="nonzero" fill-opacity="1" /><path clip-path="url(#clip860)" d="M1621.23 1518.52 L1621.23 1576.64 L1607.73 1576.64 L1607.73 1572.09 L1615.34 1572.09 L1615.34 1523.07 L1607.73 1523.07 L1607.73 1518.52 L1621.23 1518.52 Z" fill="#000000" fill-rule="nonzero" fill-opacity="1" /><polyline clip-path="url(#clip862)" style="stroke:#000000; stroke-linecap:round; stroke-linejoin:round; stroke-width:2; stroke-opacity:0.1; fill:none" points="257.204,1375.68 2352.76,1375.68 "/>
<polyline clip-path="url(#clip862)" style="stroke:#000000; stroke-linecap:round; stroke-linejoin:round; stroke-width:2; stroke-opacity:0.1; fill:none" points="257.204,1097.67 2352.76,1097.67 "/>
<polyline clip-path="url(#clip862)" style="stroke:#000000; stroke-linecap:round; stroke-linejoin:round; stroke-width:2; stroke-opacity:0.1; fill:none" points="257.204,819.646 2352.76,819.646 "/>
<polyline clip-path="url(#clip862)" style="stroke:#000000; stroke-linecap:round; stroke-linejoin:round; stroke-width:2; stroke-opacity:0.1; fill:none" points="257.204,541.627 2352.76,541.627 "/>
<polyline clip-path="url(#clip862)" style="stroke:#000000; stroke-linecap:round; stroke-linejoin:round; stroke-width:2; stroke-opacity:0.1; fill:none" points="257.204,263.608 2352.76,263.608 "/>
<polyline clip-path="url(#clip860)" style="stroke:#000000; stroke-linecap:round; stroke-linejoin:round; stroke-width:4; stroke-opacity:1; fill:none" points="257.204,1423.18 257.204,47.2441 "/>
<polyline clip-path="url(#clip860)" style="stroke:#000000; stroke-linecap:round; stroke-linejoin:round; stroke-width:4; stroke-opacity:1; fill:none" points="257.204,1375.68 276.102,1375.68 "/>
<polyline clip-path="url(#clip860)" style="stroke:#000000; stroke-linecap:round; stroke-linejoin:round; stroke-width:4; stroke-opacity:1; fill:none" points="257.204,1097.67 276.102,1097.67 "/>
<polyline clip-path="url(#clip860)" style="stroke:#000000; stroke-linecap:round; stroke-linejoin:round; stroke-width:4; stroke-opacity:1; fill:none" points="257.204,819.646 276.102,819.646 "/>
<polyline clip-path="url(#clip860)" style="stroke:#000000; stroke-linecap:round; stroke-linejoin:round; stroke-width:4; stroke-opacity:1; fill:none" points="257.204,541.627 276.102,541.627 "/>
<polyline clip-path="url(#clip860)" style="stroke:#000000; stroke-linecap:round; stroke-linejoin:round; stroke-width:4; stroke-opacity:1; fill:none" points="257.204,263.608 276.102,263.608 "/>
<path clip-path="url(#clip860)" d="M114.26 1376.14 L143.936 1376.14 L143.936 1380.07 L114.26 1380.07 L114.26 1376.14 Z" fill="#000000" fill-rule="nonzero" fill-opacity="1" /><path clip-path="url(#clip860)" d="M154.075 1358.4 L172.431 1358.4 L172.431 1362.34 L158.357 1362.34 L158.357 1370.81 Q159.376 1370.46 160.394 1370.3 Q161.413 1370.12 162.431 1370.12 Q168.218 1370.12 171.598 1373.29 Q174.977 1376.46 174.977 1381.88 Q174.977 1387.45 171.505 1390.56 Q168.033 1393.64 161.714 1393.64 Q159.538 1393.64 157.269 1393.27 Q155.024 1392.89 152.616 1392.15 L152.616 1387.45 Q154.7 1388.59 156.922 1389.14 Q159.144 1389.7 161.621 1389.7 Q165.626 1389.7 167.964 1387.59 Q170.302 1385.49 170.302 1381.88 Q170.302 1378.27 167.964 1376.16 Q165.626 1374.05 161.621 1374.05 Q159.746 1374.05 157.871 1374.47 Q156.019 1374.89 154.075 1375.77 L154.075 1358.4 Z" fill="#000000" fill-rule="nonzero" fill-opacity="1" /><path clip-path="url(#clip860)" d="M184.19 1387.08 L189.075 1387.08 L189.075 1392.96 L184.19 1392.96 L184.19 1387.08 Z" fill="#000000" fill-rule="nonzero" fill-opacity="1" /><path clip-path="url(#clip860)" d="M209.26 1361.48 Q205.649 1361.48 203.82 1365.05 Q202.014 1368.59 202.014 1375.72 Q202.014 1382.83 203.82 1386.39 Q205.649 1389.93 209.26 1389.93 Q212.894 1389.93 214.699 1386.39 Q216.528 1382.83 216.528 1375.72 Q216.528 1368.59 214.699 1365.05 Q212.894 1361.48 209.26 1361.48 M209.26 1357.78 Q215.07 1357.78 218.125 1362.39 Q221.204 1366.97 221.204 1375.72 Q221.204 1384.45 218.125 1389.05 Q215.07 1393.64 209.26 1393.64 Q203.449 1393.64 200.371 1389.05 Q197.315 1384.45 197.315 1375.72 Q197.315 1366.97 200.371 1362.39 Q203.449 1357.78 209.26 1357.78 Z" fill="#000000" fill-rule="nonzero" fill-opacity="1" /><path clip-path="url(#clip860)" d="M115.256 1098.12 L144.931 1098.12 L144.931 1102.05 L115.256 1102.05 L115.256 1098.12 Z" fill="#000000" fill-rule="nonzero" fill-opacity="1" /><path clip-path="url(#clip860)" d="M159.052 1111.01 L175.371 1111.01 L175.371 1114.95 L153.427 1114.95 L153.427 1111.01 Q156.089 1108.26 160.672 1103.63 Q165.278 1098.97 166.459 1097.63 Q168.704 1095.11 169.584 1093.37 Q170.487 1091.61 170.487 1089.92 Q170.487 1087.17 168.542 1085.43 Q166.621 1083.7 163.519 1083.7 Q161.32 1083.7 158.866 1084.46 Q156.436 1085.22 153.658 1086.77 L153.658 1082.05 Q156.482 1080.92 158.936 1080.34 Q161.39 1079.76 163.427 1079.76 Q168.797 1079.76 171.991 1082.45 Q175.186 1085.13 175.186 1089.62 Q175.186 1091.75 174.376 1093.67 Q173.589 1095.57 171.482 1098.16 Q170.903 1098.83 167.802 1102.05 Q164.7 1105.25 159.052 1111.01 Z" fill="#000000" fill-rule="nonzero" fill-opacity="1" /><path clip-path="url(#clip860)" d="M185.186 1109.07 L190.07 1109.07 L190.07 1114.95 L185.186 1114.95 L185.186 1109.07 Z" fill="#000000" fill-rule="nonzero" fill-opacity="1" /><path clip-path="url(#clip860)" d="M200.301 1080.39 L218.658 1080.39 L218.658 1084.32 L204.584 1084.32 L204.584 1092.79 Q205.602 1092.45 206.621 1092.28 Q207.639 1092.1 208.658 1092.1 Q214.445 1092.1 217.824 1095.27 Q221.204 1098.44 221.204 1103.86 Q221.204 1109.44 217.732 1112.54 Q214.26 1115.62 207.94 1115.62 Q205.764 1115.62 203.496 1115.25 Q201.25 1114.88 198.843 1114.14 L198.843 1109.44 Q200.926 1110.57 203.149 1111.13 Q205.371 1111.68 207.848 1111.68 Q211.852 1111.68 214.19 1109.57 Q216.528 1107.47 216.528 1103.86 Q216.528 1100.25 214.19 1098.14 Q211.852 1096.03 207.848 1096.03 Q205.973 1096.03 204.098 1096.45 Q202.246 1096.87 200.301 1097.75 L200.301 1080.39 Z" fill="#000000" fill-rule="nonzero" fill-opacity="1" /><path clip-path="url(#clip860)" d="M164.028 805.445 Q160.417 805.445 158.589 809.01 Q156.783 812.551 156.783 819.681 Q156.783 826.787 158.589 830.352 Q160.417 833.894 164.028 833.894 Q167.663 833.894 169.468 830.352 Q171.297 826.787 171.297 819.681 Q171.297 812.551 169.468 809.01 Q167.663 805.445 164.028 805.445 M164.028 801.741 Q169.839 801.741 172.894 806.348 Q175.973 810.931 175.973 819.681 Q175.973 828.408 172.894 833.014 Q169.839 837.598 164.028 837.598 Q158.218 837.598 155.14 833.014 Q152.084 828.408 152.084 819.681 Q152.084 810.931 155.14 806.348 Q158.218 801.741 164.028 801.741 Z" fill="#000000" fill-rule="nonzero" fill-opacity="1" /><path clip-path="url(#clip860)" d="M184.19 831.047 L189.075 831.047 L189.075 836.926 L184.19 836.926 L184.19 831.047 Z" fill="#000000" fill-rule="nonzero" fill-opacity="1" /><path clip-path="url(#clip860)" d="M209.26 805.445 Q205.649 805.445 203.82 809.01 Q202.014 812.551 202.014 819.681 Q202.014 826.787 203.82 830.352 Q205.649 833.894 209.26 833.894 Q212.894 833.894 214.699 830.352 Q216.528 826.787 216.528 819.681 Q216.528 812.551 214.699 809.01 Q212.894 805.445 209.26 805.445 M209.26 801.741 Q215.07 801.741 218.125 806.348 Q221.204 810.931 221.204 819.681 Q221.204 828.408 218.125 833.014 Q215.07 837.598 209.26 837.598 Q203.449 837.598 200.371 833.014 Q197.315 828.408 197.315 819.681 Q197.315 810.931 200.371 806.348 Q203.449 801.741 209.26 801.741 Z" fill="#000000" fill-rule="nonzero" fill-opacity="1" /><path clip-path="url(#clip860)" d="M159.052 554.972 L175.371 554.972 L175.371 558.907 L153.427 558.907 L153.427 554.972 Q156.089 552.218 160.672 547.588 Q165.278 542.935 166.459 541.593 Q168.704 539.07 169.584 537.333 Q170.487 535.574 170.487 533.884 Q170.487 531.13 168.542 529.394 Q166.621 527.658 163.519 527.658 Q161.32 527.658 158.866 528.421 Q156.436 529.185 153.658 530.736 L153.658 526.014 Q156.482 524.88 158.936 524.301 Q161.39 523.722 163.427 523.722 Q168.797 523.722 171.991 526.408 Q175.186 529.093 175.186 533.583 Q175.186 535.713 174.376 537.634 Q173.589 539.533 171.482 542.125 Q170.903 542.796 167.802 546.014 Q164.7 549.208 159.052 554.972 Z" fill="#000000" fill-rule="nonzero" fill-opacity="1" /><path clip-path="url(#clip860)" d="M185.186 553.028 L190.07 553.028 L190.07 558.907 L185.186 558.907 L185.186 553.028 Z" fill="#000000" fill-rule="nonzero" fill-opacity="1" /><path clip-path="url(#clip860)" d="M200.301 524.347 L218.658 524.347 L218.658 528.283 L204.584 528.283 L204.584 536.755 Q205.602 536.408 206.621 536.245 Q207.639 536.06 208.658 536.06 Q214.445 536.06 217.824 539.232 Q221.204 542.403 221.204 547.82 Q221.204 553.398 217.732 556.5 Q214.26 559.579 207.94 559.579 Q205.764 559.579 203.496 559.208 Q201.25 558.838 198.843 558.097 L198.843 553.398 Q200.926 554.532 203.149 555.088 Q205.371 555.644 207.848 555.644 Q211.852 555.644 214.19 553.537 Q216.528 551.431 216.528 547.82 Q216.528 544.208 214.19 542.102 Q211.852 539.995 207.848 539.995 Q205.973 539.995 204.098 540.412 Q202.246 540.829 200.301 541.708 L200.301 524.347 Z" fill="#000000" fill-rule="nonzero" fill-opacity="1" /><path clip-path="url(#clip860)" d="M154.075 246.328 L172.431 246.328 L172.431 250.264 L158.357 250.264 L158.357 258.736 Q159.376 258.389 160.394 258.227 Q161.413 258.041 162.431 258.041 Q168.218 258.041 171.598 261.213 Q174.977 264.384 174.977 269.801 Q174.977 275.379 171.505 278.481 Q168.033 281.56 161.714 281.56 Q159.538 281.56 157.269 281.189 Q155.024 280.819 152.616 280.078 L152.616 275.379 Q154.7 276.514 156.922 277.069 Q159.144 277.625 161.621 277.625 Q165.626 277.625 167.964 275.518 Q170.302 273.412 170.302 269.801 Q170.302 266.189 167.964 264.083 Q165.626 261.977 161.621 261.977 Q159.746 261.977 157.871 262.393 Q156.019 262.81 154.075 263.69 L154.075 246.328 Z" fill="#000000" fill-rule="nonzero" fill-opacity="1" /><path clip-path="url(#clip860)" d="M184.19 275.009 L189.075 275.009 L189.075 280.888 L184.19 280.888 L184.19 275.009 Z" fill="#000000" fill-rule="nonzero" fill-opacity="1" /><path clip-path="url(#clip860)" d="M209.26 249.407 Q205.649 249.407 203.82 252.972 Q202.014 256.514 202.014 263.643 Q202.014 270.75 203.82 274.314 Q205.649 277.856 209.26 277.856 Q212.894 277.856 214.699 274.314 Q216.528 270.75 216.528 263.643 Q216.528 256.514 214.699 252.972 Q212.894 249.407 209.26 249.407 M209.26 245.703 Q215.07 245.703 218.125 250.31 Q221.204 254.893 221.204 263.643 Q221.204 272.37 218.125 276.976 Q215.07 281.56 209.26 281.56 Q203.449 281.56 200.371 276.976 Q197.315 272.37 197.315 263.643 Q197.315 254.893 200.371 250.31 Q203.449 245.703 209.26 245.703 Z" fill="#000000" fill-rule="nonzero" fill-opacity="1" /><path clip-path="url(#clip860)" d="M14.479 1087.95 L14.479 1082.1 L64.0042 1082.1 L64.0042 1087.95 L14.479 1087.95 Z" fill="#000000" fill-rule="nonzero" fill-opacity="1" /><path clip-path="url(#clip860)" d="M32.4621 1056.03 Q32.4621 1060.74 36.1542 1063.48 Q39.8145 1066.21 46.212 1066.21 Q52.6095 1066.21 56.3017 1063.51 Q59.9619 1060.77 59.9619 1056.03 Q59.9619 1051.35 56.2698 1048.61 Q52.5777 1045.87 46.212 1045.87 Q39.8781 1045.87 36.186 1048.61 Q32.4621 1051.35 32.4621 1056.03 M27.4968 1056.03 Q27.4968 1048.39 32.4621 1044.03 Q37.4273 1039.67 46.212 1039.67 Q54.9649 1039.67 59.9619 1044.03 Q64.9272 1048.39 64.9272 1056.03 Q64.9272 1063.7 59.9619 1068.06 Q54.9649 1072.39 46.212 1072.39 Q37.4273 1072.39 32.4621 1068.06 Q27.4968 1063.7 27.4968 1056.03 Z" fill="#000000" fill-rule="nonzero" fill-opacity="1" /><path clip-path="url(#clip860)" d="M45.7664 1006.5 Q39.4007 1006.5 35.8996 1009.14 Q32.3984 1011.75 32.3984 1016.5 Q32.3984 1021.21 35.8996 1023.85 Q39.4007 1026.46 45.7664 1026.46 Q52.1003 1026.46 55.6014 1023.85 Q59.1026 1021.21 59.1026 1016.5 Q59.1026 1011.75 55.6014 1009.14 Q52.1003 1006.5 45.7664 1006.5 M59.58 1000.65 Q68.683 1000.65 73.1071 1004.69 Q77.5631 1008.73 77.5631 1017.07 Q77.5631 1020.16 77.0857 1022.89 Q76.6401 1025.63 75.6852 1028.21 L69.9879 1028.21 Q71.3884 1025.63 72.0568 1023.12 Q72.7252 1020.6 72.7252 1017.99 Q72.7252 1012.23 69.7015 1009.37 Q66.7096 1006.5 60.6303 1006.5 L57.7339 1006.5 Q60.885 1008.32 62.4446 1011.15 Q64.0042 1013.98 64.0042 1017.93 Q64.0042 1024.49 59.0071 1028.5 Q54.01 1032.51 45.7664 1032.51 Q37.491 1032.51 32.4939 1028.5 Q27.4968 1024.49 27.4968 1017.93 Q27.4968 1013.98 29.0564 1011.15 Q30.616 1008.32 33.7671 1006.5 L28.3562 1006.5 L28.3562 1000.65 L59.58 1000.65 Z" fill="#000000" fill-rule="nonzero" fill-opacity="1" /><path clip-path="url(#clip860)" d="M58.5933 986.641 L58.5933 976.138 L22.3406 976.138 L24.6323 987.564 L18.7758 987.564 L16.4842 976.202 L16.4842 969.772 L58.5933 969.772 L58.5933 959.269 L64.0042 959.269 L64.0042 986.641 L58.5933 986.641 Z" fill="#000000" fill-rule="nonzero" fill-opacity="1" /><path clip-path="url(#clip860)" d="M20.7174 932.533 Q20.7174 937.498 25.6189 940.013 Q30.4887 942.495 40.2919 942.495 Q50.0633 942.495 54.9649 940.013 Q59.8346 937.498 59.8346 932.533 Q59.8346 927.536 54.9649 925.053 Q50.0633 922.539 40.2919 922.539 Q30.4887 922.539 25.6189 925.053 Q20.7174 927.536 20.7174 932.533 M15.6248 932.533 Q15.6248 924.544 21.9587 920.343 Q28.2607 916.109 40.2919 916.109 Q52.2913 916.109 58.6251 920.343 Q64.9272 924.544 64.9272 932.533 Q64.9272 940.522 58.6251 944.755 Q52.2913 948.956 40.2919 948.956 Q28.2607 948.956 21.9587 944.755 Q15.6248 940.522 15.6248 932.533 Z" fill="#000000" fill-rule="nonzero" fill-opacity="1" /><path clip-path="url(#clip860)" d="M14.5426 891.57 Q21.8632 895.835 29.0246 897.904 Q36.186 899.972 43.5384 899.972 Q50.8908 899.972 58.1159 897.904 Q65.3091 895.803 72.5979 891.57 L72.5979 896.662 Q65.1182 901.436 57.8931 903.824 Q50.668 906.179 43.5384 906.179 Q36.4406 906.179 29.2474 903.824 Q22.0542 901.468 14.5426 896.662 L14.5426 891.57 Z" fill="#000000" fill-rule="nonzero" fill-opacity="1" /><path clip-path="url(#clip860)" d="M16.4842 879.952 L16.4842 873.523 L60.694 873.523 Q69.2877 873.523 73.1708 876.801 Q77.0539 880.048 77.0539 887.273 L77.0539 889.724 L71.643 889.724 L71.643 887.718 Q71.643 883.453 69.2559 881.703 Q66.8687 879.952 60.694 879.952 L16.4842 879.952 Z" fill="#000000" fill-rule="nonzero" fill-opacity="1" /><path clip-path="url(#clip860)" d="M14.5426 861.905 L14.5426 856.813 Q22.0542 852.039 29.2474 849.683 Q36.4406 847.296 43.5384 847.296 Q50.668 847.296 57.8931 849.683 Q65.1182 852.039 72.5979 856.813 L72.5979 861.905 Q65.3091 857.672 58.1159 855.603 Q50.8908 853.503 43.5384 853.503 Q36.186 853.503 29.0246 855.603 Q21.8632 857.672 14.5426 861.905 Z" fill="#000000" fill-rule="nonzero" fill-opacity="1" /><path clip-path="url(#clip860)" d="M14.479 815.372 L14.479 801.877 L19.0304 801.877 L19.0304 809.516 L68.0464 809.516 L68.0464 801.877 L72.5979 801.877 L72.5979 815.372 L14.479 815.372 Z" fill="#000000" fill-rule="nonzero" fill-opacity="1" /><path clip-path="url(#clip860)" d="M29.7248 763.746 L35.1993 763.746 Q33.8307 766.229 33.1623 768.743 Q32.4621 771.226 32.4621 773.772 Q32.4621 779.47 36.0905 782.621 Q39.6872 785.772 46.212 785.772 Q52.7369 785.772 56.3653 782.621 Q59.9619 779.47 59.9619 773.772 Q59.9619 771.226 59.2935 768.743 Q58.5933 766.229 57.2247 763.746 L62.6355 763.746 Q63.7814 766.197 64.3543 768.839 Q64.9272 771.449 64.9272 774.409 Q64.9272 782.461 59.8664 787.204 Q54.8057 791.946 46.212 791.946 Q37.491 791.946 32.4939 787.172 Q27.4968 782.366 27.4968 774.027 Q27.4968 771.321 28.0697 768.743 Q28.6108 766.165 29.7248 763.746 Z" fill="#000000" fill-rule="nonzero" fill-opacity="1" /><path clip-path="url(#clip860)" d="M35.1993 725.807 Q31.2526 723.61 29.3747 720.555 Q27.4968 717.499 27.4968 713.362 Q27.4968 707.792 31.4117 704.768 Q35.2948 701.744 42.4881 701.744 L64.0042 701.744 L64.0042 707.633 L42.679 707.633 Q37.5546 707.633 35.072 709.447 Q32.5894 711.261 32.5894 714.985 Q32.5894 719.536 35.6131 722.178 Q38.6368 724.82 43.8567 724.82 L64.0042 724.82 L64.0042 730.708 L42.679 730.708 Q37.5228 730.708 35.072 732.522 Q32.5894 734.337 32.5894 738.124 Q32.5894 742.612 35.6449 745.254 Q38.6686 747.896 43.8567 747.896 L64.0042 747.896 L64.0042 753.784 L28.3562 753.784 L28.3562 747.896 L33.8944 747.896 Q30.616 745.89 29.0564 743.09 Q27.4968 740.289 27.4968 736.437 Q27.4968 732.554 29.4702 729.849 Q31.4436 727.112 35.1993 725.807 Z" fill="#000000" fill-rule="nonzero" fill-opacity="1" /><path clip-path="url(#clip860)" d="M16.4842 665.778 L34.2127 648.495 L34.2127 654.893 L21.6404 668.897 L34.2127 682.902 L34.2127 689.299 L16.4842 672.016 L16.4842 665.778 Z" fill="#000000" fill-rule="nonzero" fill-opacity="1" /><path clip-path="url(#clip860)" d="M43.5384 638.405 L43.5384 621.25 L48.7583 621.25 L48.7583 638.405 L43.5384 638.405 Z" fill="#000000" fill-rule="nonzero" fill-opacity="1" /><path clip-path="url(#clip860)" d="M58.5933 605.558 L58.5933 583.119 L64.0042 583.119 L64.0042 613.293 L58.5933 613.293 Q54.8057 609.632 48.44 603.33 Q42.0425 596.997 40.1964 595.373 Q36.7271 592.286 34.34 591.076 Q31.921 589.835 29.5975 589.835 Q25.8099 589.835 23.4228 592.509 Q21.0356 595.151 21.0356 599.416 Q21.0356 602.439 22.086 605.813 Q23.1363 609.155 25.2688 612.974 L18.7758 612.974 Q17.2162 609.091 16.4205 605.718 Q15.6248 602.344 15.6248 599.543 Q15.6248 592.159 19.3169 587.766 Q23.009 583.374 29.1837 583.374 Q32.112 583.374 34.7537 584.488 Q37.3637 585.57 40.9285 588.467 Q41.8515 589.262 46.2757 593.527 Q50.668 597.792 58.5933 605.558 Z" fill="#000000" fill-rule="nonzero" fill-opacity="1" /><path clip-path="url(#clip860)" d="M29.4065 527.006 L34.9447 527.006 Q33.6716 529.488 33.035 532.162 Q32.3984 534.835 32.3984 537.7 Q32.3984 542.061 33.7352 544.257 Q35.072 546.421 37.7456 546.421 Q39.7826 546.421 40.9603 544.861 Q42.1061 543.302 43.1565 538.591 L43.6021 536.586 Q44.9389 530.348 47.3897 527.738 Q49.8086 525.096 54.1691 525.096 Q59.1344 525.096 62.0308 529.043 Q64.9272 532.958 64.9272 539.833 Q64.9272 542.697 64.3543 545.816 Q63.8132 548.904 62.6992 552.341 L56.6518 552.341 Q58.3387 549.095 59.198 545.944 Q60.0256 542.793 60.0256 539.705 Q60.0256 535.567 58.6251 533.339 Q57.1929 531.111 54.6147 531.111 Q52.2276 531.111 50.9545 532.735 Q49.6813 534.326 48.5037 539.769 L48.0262 541.806 Q46.8804 547.249 44.5251 549.668 Q42.138 552.087 38.0002 552.087 Q32.9713 552.087 30.2341 548.522 Q27.4968 544.957 27.4968 538.4 Q27.4968 535.154 27.9743 532.289 Q28.4517 529.425 29.4065 527.006 Z" fill="#000000" fill-rule="nonzero" fill-opacity="1" /><path clip-path="url(#clip860)" d="M16.4842 491.485 L34.2127 474.202 L34.2127 480.6 L21.6404 494.604 L34.2127 508.609 L34.2127 515.006 L16.4842 497.723 L16.4842 491.485 Z" fill="#000000" fill-rule="nonzero" fill-opacity="1" /><path clip-path="url(#clip860)" d="M43.5384 464.112 L43.5384 446.957 L48.7583 446.957 L48.7583 464.112 L43.5384 464.112 Z" fill="#000000" fill-rule="nonzero" fill-opacity="1" /><path clip-path="url(#clip860)" d="M58.5933 435.69 L58.5933 425.186 L22.3406 425.186 L24.6323 436.613 L18.7758 436.613 L16.4842 425.25 L16.4842 418.82 L58.5933 418.82 L58.5933 408.317 L64.0042 408.317 L64.0042 435.69 L58.5933 435.69 Z" fill="#000000" fill-rule="nonzero" fill-opacity="1" /><path clip-path="url(#clip860)" d="M14.479 382.472 L72.5979 382.472 L72.5979 395.968 L68.0464 395.968 L68.0464 388.361 L19.0304 388.361 L19.0304 395.968 L14.479 395.968 L14.479 382.472 Z" fill="#000000" fill-rule="nonzero" fill-opacity="1" /><polyline clip-path="url(#clip862)" style="stroke:#00ffff; stroke-linecap:round; stroke-linejoin:round; stroke-width:4; stroke-opacity:1; fill:none" stroke-dasharray="16, 10" points="316.512,733.839 354.881,724.234 393.25,714.629 431.619,705.024 469.988,695.419 508.357,685.815 546.726,676.21 585.094,666.605 623.463,657 661.832,647.396 700.201,637.791 738.57,628.186 776.939,618.581 815.308,608.977 853.677,599.372 892.046,589.767 930.415,580.162 968.784,570.557 1007.15,560.953 1045.52,551.348 1083.89,541.743 1122.26,532.138 1160.63,522.534 1199,512.929 1237.37,503.324 1275.73,493.719 1314.1,484.114 1352.47,474.51 1390.84,464.905 1429.21,455.3 1467.58,445.695 1505.95,436.091 1544.32,426.486 1582.69,416.881 1621.06,407.276 1659.42,397.671 1697.79,388.067 1736.16,378.462 1774.53,368.857 1812.9,359.252 1851.27,349.648 1889.64,340.043 1928.01,330.438 1966.38,320.833 2004.74,311.228 2043.11,301.624 2081.48,292.019 2119.85,282.414 2158.22,272.809 2196.59,263.205 "/>
<polyline clip-path="url(#clip862)" style="stroke:#ffc0cb; stroke-linecap:round; stroke-linejoin:round; stroke-width:4; stroke-opacity:1; fill:none" stroke-dasharray="16, 10" points="316.512,813.908 354.881,804.937 393.25,795.966 431.619,786.995 469.988,778.024 508.357,769.053 546.726,760.082 585.094,751.111 623.463,742.14 661.832,733.169 700.201,724.198 738.57,715.227 776.939,706.255 815.308,697.284 853.677,688.313 892.046,679.342 930.415,670.371 968.784,661.4 1007.15,652.429 1045.52,643.458 1083.89,634.487 1122.26,625.516 1160.63,616.545 1199,607.574 1237.37,598.603 1275.73,589.632 1314.1,580.661 1352.47,571.69 1390.84,562.719 1429.21,553.748 1467.58,544.777 1505.95,535.806 1544.32,526.835 1582.69,517.863 1621.06,508.892 1659.42,499.921 1697.79,490.95 1736.16,481.979 1774.53,473.008 1812.9,464.037 1851.27,455.066 1889.64,446.095 1928.01,437.124 1966.38,428.153 2004.74,419.182 2043.11,410.211 2081.48,401.24 2119.85,392.269 2158.22,383.298 2196.59,374.327 "/>
<polyline clip-path="url(#clip862)" style="stroke:#ffa500; stroke-linecap:round; stroke-linejoin:round; stroke-width:4; stroke-opacity:1; fill:none" stroke-dasharray="16, 10" points="316.512,1066.63 354.881,1046.62 393.25,1026.61 431.619,1006.6 469.988,986.591 508.357,966.582 546.726,946.573 585.094,926.564 623.463,906.555 661.832,886.546 700.201,866.537 738.57,846.528 776.939,826.519 815.308,806.51 853.677,786.501 892.046,766.492 930.415,746.483 968.784,726.474 1007.15,706.465 1045.52,686.456 1083.89,666.447 1122.26,646.438 1160.63,626.429 1199,606.42 1237.37,586.411 1275.73,566.402 1314.1,546.393 1352.47,526.384 1390.84,506.375 1429.21,486.366 1467.58,466.357 1505.95,446.348 1544.32,426.339 1582.69,406.33 1621.06,386.321 1659.42,366.312 1697.79,346.303 1736.16,326.294 1774.53,306.285 1812.9,286.276 1851.27,266.267 1889.64,246.258 1928.01,226.249 1966.38,206.24 2004.74,186.231 2043.11,166.222 2081.48,146.213 2119.85,126.204 2158.22,106.195 2196.59,86.1857 "/>
<polyline clip-path="url(#clip862)" style="stroke:#0000ff; stroke-linecap:round; stroke-linejoin:round; stroke-width:4; stroke-opacity:1; fill:none" points="430.838,704.02 1821.84,356.404 "/>
<polyline clip-path="url(#clip862)" style="stroke:#ff0000; stroke-linecap:round; stroke-linejoin:round; stroke-width:4; stroke-opacity:1; fill:none" points="897.684,677.507 2293.45,350.513 "/>
<circle clip-path="url(#clip862)" cx="429.199" cy="1305.54" r="7.2" fill="#ffff00" fill-rule="evenodd" fill-opacity="1" stroke="#000000" stroke-opacity="1" stroke-width="3.2"/>
<circle clip-path="url(#clip862)" cx="457.4" cy="1384.24" r="7.2" fill="#ffff00" fill-rule="evenodd" fill-opacity="1" stroke="#000000" stroke-opacity="1" stroke-width="3.2"/>
<circle clip-path="url(#clip862)" cx="464.451" cy="973.627" r="7.2" fill="#ffff00" fill-rule="evenodd" fill-opacity="1" stroke="#000000" stroke-opacity="1" stroke-width="3.2"/>
<circle clip-path="url(#clip862)" cx="524.319" cy="891.503" r="7.2" fill="#ffff00" fill-rule="evenodd" fill-opacity="1" stroke="#000000" stroke-opacity="1" stroke-width="3.2"/>
<circle clip-path="url(#clip862)" cx="746.227" cy="686.197" r="7.2" fill="#ffff00" fill-rule="evenodd" fill-opacity="1" stroke="#000000" stroke-opacity="1" stroke-width="3.2"/>
<circle clip-path="url(#clip862)" cx="774.428" cy="669.088" r="7.2" fill="#ffff00" fill-rule="evenodd" fill-opacity="1" stroke="#000000" stroke-opacity="1" stroke-width="3.2"/>
<circle clip-path="url(#clip862)" cx="918.842" cy="884.661" r="7.2" fill="#ffff00" fill-rule="evenodd" fill-opacity="1" stroke="#000000" stroke-opacity="1" stroke-width="3.2"/>
<circle clip-path="url(#clip862)" cx="932.942" cy="607.497" r="7.2" fill="#ffff00" fill-rule="evenodd" fill-opacity="1" stroke="#000000" stroke-opacity="1" stroke-width="3.2"/>
<circle clip-path="url(#clip862)" cx="1031.53" cy="590.387" r="7.2" fill="#ffff00" fill-rule="evenodd" fill-opacity="1" stroke="#000000" stroke-opacity="1" stroke-width="3.2"/>
<circle clip-path="url(#clip862)" cx="1084.41" cy="569.857" r="7.2" fill="#ffff00" fill-rule="evenodd" fill-opacity="1" stroke="#000000" stroke-opacity="1" stroke-width="3.2"/>
<circle clip-path="url(#clip862)" cx="1232.34" cy="539.061" r="7.2" fill="#ffff00" fill-rule="evenodd" fill-opacity="1" stroke="#000000" stroke-opacity="1" stroke-width="3.2"/>
<circle clip-path="url(#clip862)" cx="1302.79" cy="819.646" r="7.2" fill="#ffff00" fill-rule="evenodd" fill-opacity="1" stroke="#000000" stroke-opacity="1" stroke-width="3.2"/>
<circle clip-path="url(#clip862)" cx="1507.07" cy="545.904" r="7.2" fill="#ffff00" fill-rule="evenodd" fill-opacity="1" stroke="#000000" stroke-opacity="1" stroke-width="3.2"/>
<circle clip-path="url(#clip862)" cx="1725.45" cy="450.095" r="7.2" fill="#ffff00" fill-rule="evenodd" fill-opacity="1" stroke="#000000" stroke-opacity="1" stroke-width="3.2"/>
<circle clip-path="url(#clip862)" cx="1820.57" cy="374.816" r="7.2" fill="#ffff00" fill-rule="evenodd" fill-opacity="1" stroke="#000000" stroke-opacity="1" stroke-width="3.2"/>
<circle clip-path="url(#clip862)" cx="1940.31" cy="326.911" r="7.2" fill="#ffff00" fill-rule="evenodd" fill-opacity="1" stroke="#000000" stroke-opacity="1" stroke-width="3.2"/>
<path clip-path="url(#clip860)" d="M327.056 455.989 L1086.15 455.989 L1086.15 93.1086 L327.056 93.1086  Z" fill="#ffffff" fill-rule="evenodd" fill-opacity="1"/>
<polyline clip-path="url(#clip860)" style="stroke:#000000; stroke-linecap:round; stroke-linejoin:round; stroke-width:4; stroke-opacity:1; fill:none" points="327.056,455.989 1086.15,455.989 1086.15,93.1086 327.056,93.1086 327.056,455.989 "/>
<polyline clip-path="url(#clip860)" style="stroke:#00ffff; stroke-linecap:round; stroke-linejoin:round; stroke-width:4; stroke-opacity:1; fill:none" stroke-dasharray="16, 10" points="350.34,144.949 490.043,144.949 "/>
<path clip-path="url(#clip860)" d="M541.197 130.331 L541.197 135.261 Q538.836 133.062 536.151 131.974 Q533.489 130.886 530.48 130.886 Q524.554 130.886 521.406 134.52 Q518.258 138.132 518.258 144.983 Q518.258 151.812 521.406 155.446 Q524.554 159.057 530.48 159.057 Q533.489 159.057 536.151 157.969 Q538.836 156.881 541.197 154.682 L541.197 159.567 Q538.744 161.233 535.989 162.067 Q533.257 162.9 530.202 162.9 Q522.355 162.9 517.841 158.108 Q513.327 153.293 513.327 144.983 Q513.327 136.65 517.841 131.858 Q522.355 127.044 530.202 127.044 Q533.304 127.044 536.035 127.877 Q538.79 128.687 541.197 130.331 Z" fill="#000000" fill-rule="nonzero" fill-opacity="1" /><path clip-path="url(#clip860)" d="M548.419 127.669 L555.387 127.669 L564.206 151.187 L573.072 127.669 L580.04 127.669 L580.04 162.229 L575.479 162.229 L575.479 131.882 L566.567 155.585 L561.868 155.585 L552.956 131.882 L552.956 162.229 L548.419 162.229 L548.419 127.669 Z" fill="#000000" fill-rule="nonzero" fill-opacity="1" /><path clip-path="url(#clip860)" d="M589.739 156.349 L594.623 156.349 L594.623 162.229 L589.739 162.229 L589.739 156.349 Z" fill="#000000" fill-rule="nonzero" fill-opacity="1" /><path clip-path="url(#clip860)" d="M604.206 136.303 L608.465 136.303 L608.465 162.692 Q608.465 167.645 606.567 169.867 Q604.692 172.09 600.502 172.09 L598.882 172.09 L598.882 168.479 L600.016 168.479 Q602.447 168.479 603.327 167.344 Q604.206 166.233 604.206 162.692 L604.206 136.303 M604.206 126.21 L608.465 126.21 L608.465 131.604 L604.206 131.604 L604.206 126.21 Z" fill="#000000" fill-rule="nonzero" fill-opacity="1" /><path clip-path="url(#clip860)" d="M617.377 126.21 L621.637 126.21 L621.637 162.229 L617.377 162.229 L617.377 126.21 Z" fill="#000000" fill-rule="nonzero" fill-opacity="1" /><path clip-path="url(#clip860)" d="M645.803 127.669 L665.664 127.669 L665.664 131.604 L650.479 131.604 L650.479 141.789 L664.183 141.789 L664.183 145.724 L650.479 145.724 L650.479 162.229 L645.803 162.229 L645.803 127.669 Z" fill="#000000" fill-rule="nonzero" fill-opacity="1" /><path clip-path="url(#clip860)" d="M692.47 148.201 L692.47 150.284 L672.886 150.284 Q673.164 154.682 675.525 156.997 Q677.909 159.289 682.146 159.289 Q684.599 159.289 686.891 158.687 Q689.206 158.085 691.474 156.881 L691.474 160.909 Q689.183 161.881 686.775 162.391 Q684.368 162.9 681.891 162.9 Q675.687 162.9 672.053 159.289 Q668.442 155.678 668.442 149.52 Q668.442 143.155 671.868 139.428 Q675.317 135.678 681.15 135.678 Q686.382 135.678 689.414 139.057 Q692.47 142.414 692.47 148.201 M688.21 146.951 Q688.164 143.456 686.243 141.372 Q684.345 139.289 681.197 139.289 Q677.632 139.289 675.479 141.303 Q673.349 143.317 673.025 146.974 L688.21 146.951 Z" fill="#000000" fill-rule="nonzero" fill-opacity="1" /><path clip-path="url(#clip860)" d="M699.46 126.21 L703.72 126.21 L703.72 162.229 L699.46 162.229 L699.46 126.21 Z" fill="#000000" fill-rule="nonzero" fill-opacity="1" /><path clip-path="url(#clip860)" d="M729.692 140.238 L729.692 126.21 L733.951 126.21 L733.951 162.229 L729.692 162.229 L729.692 158.34 Q728.349 160.655 726.289 161.789 Q724.252 162.9 721.381 162.9 Q716.682 162.9 713.719 159.15 Q710.78 155.4 710.78 149.289 Q710.78 143.178 713.719 139.428 Q716.682 135.678 721.381 135.678 Q724.252 135.678 726.289 136.812 Q728.349 137.923 729.692 140.238 M715.178 149.289 Q715.178 153.988 717.099 156.673 Q719.044 159.335 722.423 159.335 Q725.803 159.335 727.747 156.673 Q729.692 153.988 729.692 149.289 Q729.692 144.59 727.747 141.928 Q725.803 139.243 722.423 139.243 Q719.044 139.243 717.099 141.928 Q715.178 144.59 715.178 149.289 Z" fill="#000000" fill-rule="nonzero" fill-opacity="1" /><path clip-path="url(#clip860)" d="M759.252 137.067 L759.252 141.094 Q757.446 140.169 755.502 139.706 Q753.557 139.243 751.474 139.243 Q748.303 139.243 746.705 140.215 Q745.131 141.187 745.131 143.131 Q745.131 144.613 746.266 145.469 Q747.4 146.303 750.826 147.067 L752.284 147.391 Q756.821 148.363 758.719 150.145 Q760.641 151.905 760.641 155.076 Q760.641 158.687 757.77 160.793 Q754.923 162.9 749.923 162.9 Q747.84 162.9 745.571 162.483 Q743.326 162.09 740.826 161.28 L740.826 156.881 Q743.187 158.108 745.479 158.733 Q747.77 159.335 750.016 159.335 Q753.025 159.335 754.645 158.317 Q756.266 157.275 756.266 155.4 Q756.266 153.664 755.085 152.738 Q753.928 151.812 749.969 150.956 L748.488 150.608 Q744.53 149.775 742.77 148.062 Q741.011 146.326 741.011 143.317 Q741.011 139.659 743.604 137.669 Q746.196 135.678 750.965 135.678 Q753.326 135.678 755.409 136.025 Q757.492 136.372 759.252 137.067 Z" fill="#000000" fill-rule="nonzero" fill-opacity="1" /><path clip-path="url(#clip860)" d="M771.543 158.34 L771.543 172.09 L767.261 172.09 L767.261 136.303 L771.543 136.303 L771.543 140.238 Q772.886 137.923 774.923 136.812 Q776.983 135.678 779.83 135.678 Q784.552 135.678 787.492 139.428 Q790.455 143.178 790.455 149.289 Q790.455 155.4 787.492 159.15 Q784.552 162.9 779.83 162.9 Q776.983 162.9 774.923 161.789 Q772.886 160.655 771.543 158.34 M786.034 149.289 Q786.034 144.59 784.089 141.928 Q782.168 139.243 778.789 139.243 Q775.409 139.243 773.465 141.928 Q771.543 144.59 771.543 149.289 Q771.543 153.988 773.465 156.673 Q775.409 159.335 778.789 159.335 Q782.168 159.335 784.089 156.673 Q786.034 153.988 786.034 149.289 Z" fill="#000000" fill-rule="nonzero" fill-opacity="1" /><path clip-path="url(#clip860)" d="M809.298 149.196 Q804.136 149.196 802.145 150.377 Q800.154 151.557 800.154 154.405 Q800.154 156.673 801.636 158.016 Q803.14 159.335 805.71 159.335 Q809.251 159.335 811.381 156.835 Q813.534 154.312 813.534 150.145 L813.534 149.196 L809.298 149.196 M817.793 147.437 L817.793 162.229 L813.534 162.229 L813.534 158.293 Q812.075 160.655 809.9 161.789 Q807.724 162.9 804.575 162.9 Q800.594 162.9 798.233 160.678 Q795.895 158.432 795.895 154.682 Q795.895 150.307 798.812 148.085 Q801.751 145.863 807.562 145.863 L813.534 145.863 L813.534 145.446 Q813.534 142.507 811.589 140.909 Q809.668 139.289 806.173 139.289 Q803.95 139.289 801.844 139.821 Q799.738 140.354 797.793 141.419 L797.793 137.483 Q800.131 136.581 802.33 136.141 Q804.529 135.678 806.613 135.678 Q812.237 135.678 815.015 138.594 Q817.793 141.511 817.793 147.437 Z" fill="#000000" fill-rule="nonzero" fill-opacity="1" /><path clip-path="url(#clip860)" d="M841.589 140.284 Q840.872 139.868 840.015 139.682 Q839.182 139.474 838.163 139.474 Q834.552 139.474 832.608 141.835 Q830.686 144.173 830.686 148.571 L830.686 162.229 L826.404 162.229 L826.404 136.303 L830.686 136.303 L830.686 140.331 Q832.029 137.969 834.182 136.835 Q836.335 135.678 839.413 135.678 Q839.853 135.678 840.385 135.747 Q840.918 135.794 841.566 135.909 L841.589 140.284 Z" fill="#000000" fill-rule="nonzero" fill-opacity="1" /><polyline clip-path="url(#clip860)" style="stroke:#ffc0cb; stroke-linecap:round; stroke-linejoin:round; stroke-width:4; stroke-opacity:1; fill:none" stroke-dasharray="16, 10" points="350.34,196.789 490.043,196.789 "/>
<path clip-path="url(#clip860)" d="M541.197 182.171 L541.197 187.101 Q538.836 184.902 536.151 183.814 Q533.489 182.726 530.48 182.726 Q524.554 182.726 521.406 186.36 Q518.258 189.972 518.258 196.823 Q518.258 203.652 521.406 207.286 Q524.554 210.897 530.48 210.897 Q533.489 210.897 536.151 209.809 Q538.836 208.721 541.197 206.522 L541.197 211.407 Q538.744 213.073 535.989 213.907 Q533.257 214.74 530.202 214.74 Q522.355 214.74 517.841 209.948 Q513.327 205.133 513.327 196.823 Q513.327 188.49 517.841 183.698 Q522.355 178.884 530.202 178.884 Q533.304 178.884 536.035 179.717 Q538.79 180.527 541.197 182.171 Z" fill="#000000" fill-rule="nonzero" fill-opacity="1" /><path clip-path="url(#clip860)" d="M548.419 179.509 L555.387 179.509 L564.206 203.027 L573.072 179.509 L580.04 179.509 L580.04 214.069 L575.479 214.069 L575.479 183.722 L566.567 207.425 L561.868 207.425 L552.956 183.722 L552.956 214.069 L548.419 214.069 L548.419 179.509 Z" fill="#000000" fill-rule="nonzero" fill-opacity="1" /><path clip-path="url(#clip860)" d="M589.739 208.189 L594.623 208.189 L594.623 214.069 L589.739 214.069 L589.739 208.189 Z" fill="#000000" fill-rule="nonzero" fill-opacity="1" /><path clip-path="url(#clip860)" d="M604.206 188.143 L608.465 188.143 L608.465 214.532 Q608.465 219.485 606.567 221.707 Q604.692 223.93 600.502 223.93 L598.882 223.93 L598.882 220.319 L600.016 220.319 Q602.447 220.319 603.327 219.184 Q604.206 218.073 604.206 214.532 L604.206 188.143 M604.206 178.05 L608.465 178.05 L608.465 183.444 L604.206 183.444 L604.206 178.05 Z" fill="#000000" fill-rule="nonzero" fill-opacity="1" /><path clip-path="url(#clip860)" d="M617.377 178.05 L621.637 178.05 L621.637 214.069 L617.377 214.069 L617.377 178.05 Z" fill="#000000" fill-rule="nonzero" fill-opacity="1" /><path clip-path="url(#clip860)" d="M645.803 179.509 L665.664 179.509 L665.664 183.444 L650.479 183.444 L650.479 193.629 L664.183 193.629 L664.183 197.564 L650.479 197.564 L650.479 214.069 L645.803 214.069 L645.803 179.509 Z" fill="#000000" fill-rule="nonzero" fill-opacity="1" /><path clip-path="url(#clip860)" d="M692.47 200.041 L692.47 202.124 L672.886 202.124 Q673.164 206.522 675.525 208.837 Q677.909 211.129 682.146 211.129 Q684.599 211.129 686.891 210.527 Q689.206 209.925 691.474 208.721 L691.474 212.749 Q689.183 213.721 686.775 214.231 Q684.368 214.74 681.891 214.74 Q675.687 214.74 672.053 211.129 Q668.442 207.518 668.442 201.36 Q668.442 194.995 671.868 191.268 Q675.317 187.518 681.15 187.518 Q686.382 187.518 689.414 190.897 Q692.47 194.254 692.47 200.041 M688.21 198.791 Q688.164 195.296 686.243 193.212 Q684.345 191.129 681.197 191.129 Q677.632 191.129 675.479 193.143 Q673.349 195.157 673.025 198.814 L688.21 198.791 Z" fill="#000000" fill-rule="nonzero" fill-opacity="1" /><path clip-path="url(#clip860)" d="M714.483 192.124 Q713.766 191.708 712.909 191.522 Q712.076 191.314 711.057 191.314 Q707.446 191.314 705.502 193.675 Q703.581 196.013 703.581 200.411 L703.581 214.069 L699.298 214.069 L699.298 188.143 L703.581 188.143 L703.581 192.171 Q704.923 189.809 707.076 188.675 Q709.229 187.518 712.307 187.518 Q712.747 187.518 713.28 187.587 Q713.812 187.634 714.46 187.749 L714.483 192.124 Z" fill="#000000" fill-rule="nonzero" fill-opacity="1" /><path clip-path="url(#clip860)" d="M733.141 192.124 Q732.423 191.708 731.567 191.522 Q730.733 191.314 729.715 191.314 Q726.104 191.314 724.159 193.675 Q722.238 196.013 722.238 200.411 L722.238 214.069 L717.956 214.069 L717.956 188.143 L722.238 188.143 L722.238 192.171 Q723.581 189.809 725.733 188.675 Q727.886 187.518 730.965 187.518 Q731.405 187.518 731.937 187.587 Q732.469 187.634 733.118 187.749 L733.141 192.124 Z" fill="#000000" fill-rule="nonzero" fill-opacity="1" /><path clip-path="url(#clip860)" d="M737.608 188.143 L741.867 188.143 L741.867 214.069 L737.608 214.069 L737.608 188.143 M737.608 178.05 L741.867 178.05 L741.867 183.444 L737.608 183.444 L737.608 178.05 Z" fill="#000000" fill-rule="nonzero" fill-opacity="1" /><path clip-path="url(#clip860)" d="M772.33 198.421 L772.33 214.069 L768.071 214.069 L768.071 198.559 Q768.071 194.879 766.636 193.05 Q765.201 191.222 762.33 191.222 Q758.881 191.222 756.891 193.421 Q754.9 195.62 754.9 199.416 L754.9 214.069 L750.617 214.069 L750.617 178.05 L754.9 178.05 L754.9 192.171 Q756.428 189.833 758.488 188.675 Q760.571 187.518 763.279 187.518 Q767.747 187.518 770.039 190.296 Q772.33 193.05 772.33 198.421 Z" fill="#000000" fill-rule="nonzero" fill-opacity="1" /><path clip-path="url(#clip860)" d="M791.613 216.476 Q789.807 221.106 788.094 222.518 Q786.381 223.93 783.511 223.93 L780.108 223.93 L780.108 220.365 L782.608 220.365 Q784.367 220.365 785.339 219.532 Q786.312 218.698 787.492 215.596 L788.256 213.652 L777.77 188.143 L782.284 188.143 L790.386 208.421 L798.488 188.143 L803.001 188.143 L791.613 216.476 Z" fill="#000000" fill-rule="nonzero" fill-opacity="1" /><path clip-path="url(#clip860)" d="M825.941 192.078 L825.941 178.05 L830.2 178.05 L830.2 214.069 L825.941 214.069 L825.941 210.18 Q824.599 212.495 822.538 213.629 Q820.501 214.74 817.631 214.74 Q812.932 214.74 809.969 210.99 Q807.029 207.24 807.029 201.129 Q807.029 195.018 809.969 191.268 Q812.932 187.518 817.631 187.518 Q820.501 187.518 822.538 188.652 Q824.599 189.763 825.941 192.078 M811.427 201.129 Q811.427 205.828 813.349 208.513 Q815.293 211.175 818.673 211.175 Q822.052 211.175 823.997 208.513 Q825.941 205.828 825.941 201.129 Q825.941 196.43 823.997 193.768 Q822.052 191.083 818.673 191.083 Q815.293 191.083 813.349 193.768 Q811.427 196.43 811.427 201.129 Z" fill="#000000" fill-rule="nonzero" fill-opacity="1" /><path clip-path="url(#clip860)" d="M853.997 192.124 Q853.279 191.708 852.422 191.522 Q851.589 191.314 850.571 191.314 Q846.96 191.314 845.015 193.675 Q843.094 196.013 843.094 200.411 L843.094 214.069 L838.811 214.069 L838.811 188.143 L843.094 188.143 L843.094 192.171 Q844.436 189.809 846.589 188.675 Q848.742 187.518 851.821 187.518 Q852.26 187.518 852.793 187.587 Q853.325 187.634 853.973 187.749 L853.997 192.124 Z" fill="#000000" fill-rule="nonzero" fill-opacity="1" /><path clip-path="url(#clip860)" d="M858.464 188.143 L862.723 188.143 L862.723 214.069 L858.464 214.069 L858.464 188.143 M858.464 178.05 L862.723 178.05 L862.723 183.444 L858.464 183.444 L858.464 178.05 Z" fill="#000000" fill-rule="nonzero" fill-opacity="1" /><path clip-path="url(#clip860)" d="M875.848 180.782 L875.848 188.143 L884.621 188.143 L884.621 191.453 L875.848 191.453 L875.848 205.527 Q875.848 208.698 876.705 209.601 Q877.584 210.504 880.246 210.504 L884.621 210.504 L884.621 214.069 L880.246 214.069 Q875.316 214.069 873.441 212.24 Q871.566 210.388 871.566 205.527 L871.566 191.453 L868.441 191.453 L868.441 188.143 L871.566 188.143 L871.566 180.782 L875.848 180.782 Z" fill="#000000" fill-rule="nonzero" fill-opacity="1" /><path clip-path="url(#clip860)" d="M912.399 200.041 L912.399 202.124 L892.816 202.124 Q893.094 206.522 895.455 208.837 Q897.839 211.129 902.075 211.129 Q904.529 211.129 906.82 210.527 Q909.135 209.925 911.404 208.721 L911.404 212.749 Q909.112 213.721 906.705 214.231 Q904.297 214.74 901.82 214.74 Q895.617 214.74 891.982 211.129 Q888.371 207.518 888.371 201.36 Q888.371 194.995 891.797 191.268 Q895.246 187.518 901.08 187.518 Q906.311 187.518 909.343 190.897 Q912.399 194.254 912.399 200.041 M908.14 198.791 Q908.093 195.296 906.172 193.212 Q904.274 191.129 901.126 191.129 Q897.561 191.129 895.408 193.143 Q893.279 195.157 892.955 198.814 L908.14 198.791 Z" fill="#000000" fill-rule="nonzero" fill-opacity="1" /><polyline clip-path="url(#clip860)" style="stroke:#ffa500; stroke-linecap:round; stroke-linejoin:round; stroke-width:4; stroke-opacity:1; fill:none" stroke-dasharray="16, 10" points="350.34,248.629 490.043,248.629 "/>
<path clip-path="url(#clip860)" d="M541.197 234.011 L541.197 238.941 Q538.836 236.742 536.151 235.654 Q533.489 234.566 530.48 234.566 Q524.554 234.566 521.406 238.2 Q518.258 241.812 518.258 248.663 Q518.258 255.492 521.406 259.126 Q524.554 262.737 530.48 262.737 Q533.489 262.737 536.151 261.649 Q538.836 260.561 541.197 258.362 L541.197 263.247 Q538.744 264.913 535.989 265.747 Q533.257 266.58 530.202 266.58 Q522.355 266.58 517.841 261.788 Q513.327 256.973 513.327 248.663 Q513.327 240.33 517.841 235.538 Q522.355 230.724 530.202 230.724 Q533.304 230.724 536.035 231.557 Q538.79 232.367 541.197 234.011 Z" fill="#000000" fill-rule="nonzero" fill-opacity="1" /><path clip-path="url(#clip860)" d="M548.419 231.349 L555.387 231.349 L564.206 254.867 L573.072 231.349 L580.04 231.349 L580.04 265.909 L575.479 265.909 L575.479 235.562 L566.567 259.265 L561.868 259.265 L552.956 235.562 L552.956 265.909 L548.419 265.909 L548.419 231.349 Z" fill="#000000" fill-rule="nonzero" fill-opacity="1" /><path clip-path="url(#clip860)" d="M589.739 260.029 L594.623 260.029 L594.623 265.909 L589.739 265.909 L589.739 260.029 Z" fill="#000000" fill-rule="nonzero" fill-opacity="1" /><path clip-path="url(#clip860)" d="M604.206 239.983 L608.465 239.983 L608.465 266.372 Q608.465 271.325 606.567 273.547 Q604.692 275.77 600.502 275.77 L598.882 275.77 L598.882 272.159 L600.016 272.159 Q602.447 272.159 603.327 271.024 Q604.206 269.913 604.206 266.372 L604.206 239.983 M604.206 229.89 L608.465 229.89 L608.465 235.284 L604.206 235.284 L604.206 229.89 Z" fill="#000000" fill-rule="nonzero" fill-opacity="1" /><path clip-path="url(#clip860)" d="M617.377 229.89 L621.637 229.89 L621.637 265.909 L617.377 265.909 L617.377 229.89 Z" fill="#000000" fill-rule="nonzero" fill-opacity="1" /><path clip-path="url(#clip860)" d="M645.803 231.349 L650.479 231.349 L650.479 245.955 L665.988 231.349 L672.007 231.349 L654.854 247.46 L673.234 265.909 L667.076 265.909 L650.479 249.265 L650.479 265.909 L645.803 265.909 L645.803 231.349 Z" fill="#000000" fill-rule="nonzero" fill-opacity="1" /><path clip-path="url(#clip860)" d="M687.655 252.876 Q682.493 252.876 680.502 254.057 Q678.511 255.237 678.511 258.085 Q678.511 260.353 679.993 261.696 Q681.497 263.015 684.067 263.015 Q687.609 263.015 689.738 260.515 Q691.891 257.992 691.891 253.825 L691.891 252.876 L687.655 252.876 M696.15 251.117 L696.15 265.909 L691.891 265.909 L691.891 261.973 Q690.433 264.335 688.257 265.469 Q686.081 266.58 682.933 266.58 Q678.951 266.58 676.59 264.358 Q674.252 262.112 674.252 258.362 Q674.252 253.987 677.169 251.765 Q680.109 249.543 685.919 249.543 L691.891 249.543 L691.891 249.126 Q691.891 246.187 689.946 244.589 Q688.025 242.969 684.53 242.969 Q682.308 242.969 680.201 243.501 Q678.095 244.034 676.15 245.099 L676.15 241.163 Q678.488 240.261 680.687 239.821 Q682.886 239.358 684.97 239.358 Q690.595 239.358 693.372 242.274 Q696.15 245.191 696.15 251.117 Z" fill="#000000" fill-rule="nonzero" fill-opacity="1" /><path clip-path="url(#clip860)" d="M714.969 242.969 Q711.544 242.969 709.553 245.654 Q707.562 248.316 707.562 252.969 Q707.562 257.622 709.53 260.307 Q711.52 262.969 714.969 262.969 Q718.372 262.969 720.363 260.284 Q722.354 257.598 722.354 252.969 Q722.354 248.362 720.363 245.677 Q718.372 242.969 714.969 242.969 M714.969 239.358 Q720.525 239.358 723.696 242.969 Q726.868 246.58 726.868 252.969 Q726.868 259.335 723.696 262.969 Q720.525 266.58 714.969 266.58 Q709.391 266.58 706.22 262.969 Q703.071 259.335 703.071 252.969 Q703.071 246.58 706.22 242.969 Q709.391 239.358 714.969 239.358 Z" fill="#000000" fill-rule="nonzero" fill-opacity="1" /><path clip-path="url(#clip860)" d="M733.928 229.89 L738.187 229.89 L738.187 265.909 L733.928 265.909 L733.928 229.89 Z" fill="#000000" fill-rule="nonzero" fill-opacity="1" /><path clip-path="url(#clip860)" d="M747.099 239.983 L751.358 239.983 L751.358 265.909 L747.099 265.909 L747.099 239.983 M747.099 229.89 L751.358 229.89 L751.358 235.284 L747.099 235.284 L747.099 229.89 Z" fill="#000000" fill-rule="nonzero" fill-opacity="1" /><path clip-path="url(#clip860)" d="M781.821 250.261 L781.821 265.909 L777.562 265.909 L777.562 250.399 Q777.562 246.719 776.127 244.89 Q774.691 243.062 771.821 243.062 Q768.372 243.062 766.381 245.261 Q764.391 247.46 764.391 251.256 L764.391 265.909 L760.108 265.909 L760.108 239.983 L764.391 239.983 L764.391 244.011 Q765.918 241.673 767.978 240.515 Q770.062 239.358 772.77 239.358 Q777.238 239.358 779.529 242.136 Q781.821 244.89 781.821 250.261 Z" fill="#000000" fill-rule="nonzero" fill-opacity="1" /><path clip-path="url(#clip860)" d="M790.316 239.983 L794.576 239.983 L794.576 265.909 L790.316 265.909 L790.316 239.983 M790.316 229.89 L794.576 229.89 L794.576 235.284 L790.316 235.284 L790.316 229.89 Z" fill="#000000" fill-rule="nonzero" fill-opacity="1" /><path clip-path="url(#clip860)" d="M807.7 232.622 L807.7 239.983 L816.474 239.983 L816.474 243.293 L807.7 243.293 L807.7 257.367 Q807.7 260.538 808.557 261.441 Q809.437 262.344 812.099 262.344 L816.474 262.344 L816.474 265.909 L812.099 265.909 Q807.168 265.909 805.293 264.08 Q803.418 262.228 803.418 257.367 L803.418 243.293 L800.293 243.293 L800.293 239.983 L803.418 239.983 L803.418 232.622 L807.7 232.622 Z" fill="#000000" fill-rule="nonzero" fill-opacity="1" /><path clip-path="url(#clip860)" d="M844.251 251.881 L844.251 253.964 L824.668 253.964 Q824.946 258.362 827.307 260.677 Q829.691 262.969 833.927 262.969 Q836.381 262.969 838.673 262.367 Q840.987 261.765 843.256 260.561 L843.256 264.589 Q840.964 265.561 838.557 266.071 Q836.149 266.58 833.673 266.58 Q827.469 266.58 823.835 262.969 Q820.224 259.358 820.224 253.2 Q820.224 246.835 823.649 243.108 Q827.099 239.358 832.932 239.358 Q838.163 239.358 841.196 242.737 Q844.251 246.094 844.251 251.881 M839.992 250.631 Q839.946 247.136 838.024 245.052 Q836.126 242.969 832.978 242.969 Q829.413 242.969 827.261 244.983 Q825.131 246.997 824.807 250.654 L839.992 250.631 Z" fill="#000000" fill-rule="nonzero" fill-opacity="1" /><polyline clip-path="url(#clip860)" style="stroke:#0000ff; stroke-linecap:round; stroke-linejoin:round; stroke-width:4; stroke-opacity:1; fill:none" points="350.34,300.469 490.043,300.469 "/>
<path clip-path="url(#clip860)" d="M529.16 287.795 L522.818 304.994 L535.526 304.994 L529.16 287.795 M526.521 283.189 L531.822 283.189 L544.994 317.749 L540.132 317.749 L536.984 308.883 L521.406 308.883 L518.258 317.749 L513.327 317.749 L526.521 283.189 Z" fill="#000000" fill-rule="nonzero" fill-opacity="1" /><path clip-path="url(#clip860)" d="M549.855 281.73 L554.114 281.73 L554.114 317.749 L549.855 317.749 L549.855 281.73 Z" fill="#000000" fill-rule="nonzero" fill-opacity="1" /><path clip-path="url(#clip860)" d="M567.146 313.86 L567.146 327.61 L562.864 327.61 L562.864 291.823 L567.146 291.823 L567.146 295.758 Q568.489 293.443 570.526 292.332 Q572.586 291.198 575.433 291.198 Q580.155 291.198 583.095 294.948 Q586.058 298.698 586.058 304.809 Q586.058 310.92 583.095 314.67 Q580.155 318.42 575.433 318.42 Q572.586 318.42 570.526 317.309 Q568.489 316.175 567.146 313.86 M581.637 304.809 Q581.637 300.11 579.692 297.448 Q577.771 294.763 574.392 294.763 Q571.012 294.763 569.067 297.448 Q567.146 300.11 567.146 304.809 Q567.146 309.508 569.067 312.193 Q571.012 314.855 574.392 314.855 Q577.771 314.855 579.692 312.193 Q581.637 309.508 581.637 304.809 Z" fill="#000000" fill-rule="nonzero" fill-opacity="1" /><path clip-path="url(#clip860)" d="M615.294 303.721 L615.294 305.804 L595.711 305.804 Q595.989 310.202 598.35 312.517 Q600.734 314.809 604.97 314.809 Q607.424 314.809 609.715 314.207 Q612.03 313.605 614.299 312.401 L614.299 316.429 Q612.007 317.401 609.6 317.911 Q607.192 318.42 604.715 318.42 Q598.512 318.42 594.878 314.809 Q591.266 311.198 591.266 305.04 Q591.266 298.675 594.692 294.948 Q598.141 291.198 603.975 291.198 Q609.206 291.198 612.239 294.577 Q615.294 297.934 615.294 303.721 M611.035 302.471 Q610.989 298.976 609.067 296.892 Q607.169 294.809 604.021 294.809 Q600.456 294.809 598.303 296.823 Q596.174 298.837 595.85 302.494 L611.035 302.471 Z" fill="#000000" fill-rule="nonzero" fill-opacity="1" /><path clip-path="url(#clip860)" d="M637.308 295.804 Q636.59 295.388 635.734 295.202 Q634.9 294.994 633.882 294.994 Q630.271 294.994 628.326 297.355 Q626.405 299.693 626.405 304.091 L626.405 317.749 L622.123 317.749 L622.123 291.823 L626.405 291.823 L626.405 295.851 Q627.748 293.489 629.9 292.355 Q632.053 291.198 635.132 291.198 Q635.572 291.198 636.104 291.267 Q636.637 291.314 637.285 291.429 L637.308 295.804 Z" fill="#000000" fill-rule="nonzero" fill-opacity="1" /><path clip-path="url(#clip860)" d="M645.988 284.462 L645.988 291.823 L654.761 291.823 L654.761 295.133 L645.988 295.133 L645.988 309.207 Q645.988 312.378 646.845 313.281 Q647.724 314.184 650.386 314.184 L654.761 314.184 L654.761 317.749 L650.386 317.749 Q645.456 317.749 643.581 315.92 Q641.706 314.068 641.706 309.207 L641.706 295.133 L638.581 295.133 L638.581 291.823 L641.706 291.823 L641.706 284.462 L645.988 284.462 Z" fill="#000000" fill-rule="nonzero" fill-opacity="1" /><path clip-path="url(#clip860)" d="M664.993 313.813 L681.312 313.813 L681.312 317.749 L659.368 317.749 L659.368 313.813 Q662.03 311.059 666.613 306.429 Q671.22 301.776 672.4 300.434 Q674.646 297.911 675.525 296.175 Q676.428 294.415 676.428 292.726 Q676.428 289.971 674.484 288.235 Q672.562 286.499 669.46 286.499 Q667.261 286.499 664.808 287.263 Q662.377 288.027 659.599 289.577 L659.599 284.855 Q662.423 283.721 664.877 283.142 Q667.331 282.564 669.368 282.564 Q674.738 282.564 677.933 285.249 Q681.127 287.934 681.127 292.425 Q681.127 294.554 680.317 296.476 Q679.53 298.374 677.423 300.966 Q676.845 301.638 673.743 304.855 Q670.641 308.05 664.993 313.813 Z" fill="#000000" fill-rule="nonzero" fill-opacity="1" /><path clip-path="url(#clip860)" d="M701.127 286.267 Q697.516 286.267 695.687 289.832 Q693.882 293.374 693.882 300.503 Q693.882 307.61 695.687 311.175 Q697.516 314.716 701.127 314.716 Q704.761 314.716 706.567 311.175 Q708.395 307.61 708.395 300.503 Q708.395 293.374 706.567 289.832 Q704.761 286.267 701.127 286.267 M701.127 282.564 Q706.937 282.564 709.993 287.17 Q713.071 291.753 713.071 300.503 Q713.071 309.23 709.993 313.837 Q706.937 318.42 701.127 318.42 Q695.317 318.42 692.238 313.837 Q689.183 309.23 689.183 300.503 Q689.183 291.753 692.238 287.17 Q695.317 282.564 701.127 282.564 Z" fill="#000000" fill-rule="nonzero" fill-opacity="1" /><path clip-path="url(#clip860)" d="M725.317 313.813 L741.636 313.813 L741.636 317.749 L719.692 317.749 L719.692 313.813 Q722.354 311.059 726.937 306.429 Q731.543 301.776 732.724 300.434 Q734.969 297.911 735.849 296.175 Q736.752 294.415 736.752 292.726 Q736.752 289.971 734.807 288.235 Q732.886 286.499 729.784 286.499 Q727.585 286.499 725.131 287.263 Q722.701 288.027 719.923 289.577 L719.923 284.855 Q722.747 283.721 725.201 283.142 Q727.655 282.564 729.692 282.564 Q735.062 282.564 738.256 285.249 Q741.451 287.934 741.451 292.425 Q741.451 294.554 740.641 296.476 Q739.854 298.374 737.747 300.966 Q737.168 301.638 734.067 304.855 Q730.965 308.05 725.317 313.813 Z" fill="#000000" fill-rule="nonzero" fill-opacity="1" /><path clip-path="url(#clip860)" d="M755.479 313.813 L771.798 313.813 L771.798 317.749 L749.854 317.749 L749.854 313.813 Q752.516 311.059 757.099 306.429 Q761.705 301.776 762.886 300.434 Q765.131 297.911 766.011 296.175 Q766.914 294.415 766.914 292.726 Q766.914 289.971 764.969 288.235 Q763.048 286.499 759.946 286.499 Q757.747 286.499 755.293 287.263 Q752.863 288.027 750.085 289.577 L750.085 284.855 Q752.909 283.721 755.363 283.142 Q757.816 282.564 759.853 282.564 Q765.224 282.564 768.418 285.249 Q771.613 287.934 771.613 292.425 Q771.613 294.554 770.803 296.476 Q770.015 298.374 767.909 300.966 Q767.33 301.638 764.228 304.855 Q761.127 308.05 755.479 313.813 Z" fill="#000000" fill-rule="nonzero" fill-opacity="1" /><path clip-path="url(#clip860)" d="M796.265 283.189 L816.126 283.189 L816.126 287.124 L800.941 287.124 L800.941 297.309 L814.645 297.309 L814.645 301.244 L800.941 301.244 L800.941 317.749 L796.265 317.749 L796.265 283.189 Z" fill="#000000" fill-rule="nonzero" fill-opacity="1" /><path clip-path="url(#clip860)" d="M842.932 303.721 L842.932 305.804 L823.349 305.804 Q823.626 310.202 825.987 312.517 Q828.372 314.809 832.608 314.809 Q835.061 314.809 837.353 314.207 Q839.668 313.605 841.936 312.401 L841.936 316.429 Q839.645 317.401 837.237 317.911 Q834.83 318.42 832.353 318.42 Q826.149 318.42 822.515 314.809 Q818.904 311.198 818.904 305.04 Q818.904 298.675 822.33 294.948 Q825.779 291.198 831.612 291.198 Q836.844 291.198 839.876 294.577 Q842.932 297.934 842.932 303.721 M838.673 302.471 Q838.626 298.976 836.705 296.892 Q834.807 294.809 831.659 294.809 Q828.094 294.809 825.941 296.823 Q823.811 298.837 823.487 302.494 L838.673 302.471 Z" fill="#000000" fill-rule="nonzero" fill-opacity="1" /><path clip-path="url(#clip860)" d="M849.922 281.73 L854.182 281.73 L854.182 317.749 L849.922 317.749 L849.922 281.73 Z" fill="#000000" fill-rule="nonzero" fill-opacity="1" /><path clip-path="url(#clip860)" d="M880.154 295.758 L880.154 281.73 L884.413 281.73 L884.413 317.749 L880.154 317.749 L880.154 313.86 Q878.811 316.175 876.751 317.309 Q874.714 318.42 871.844 318.42 Q867.145 318.42 864.182 314.67 Q861.242 310.92 861.242 304.809 Q861.242 298.698 864.182 294.948 Q867.145 291.198 871.844 291.198 Q874.714 291.198 876.751 292.332 Q878.811 293.443 880.154 295.758 M865.64 304.809 Q865.64 309.508 867.561 312.193 Q869.506 314.855 872.885 314.855 Q876.265 314.855 878.209 312.193 Q880.154 309.508 880.154 304.809 Q880.154 300.11 878.209 297.448 Q876.265 294.763 872.885 294.763 Q869.506 294.763 867.561 297.448 Q865.64 300.11 865.64 304.809 Z" fill="#000000" fill-rule="nonzero" fill-opacity="1" /><path clip-path="url(#clip860)" d="M909.714 292.587 L909.714 296.614 Q907.908 295.689 905.964 295.226 Q904.019 294.763 901.936 294.763 Q898.765 294.763 897.168 295.735 Q895.594 296.707 895.594 298.651 Q895.594 300.133 896.728 300.989 Q897.862 301.823 901.288 302.587 L902.746 302.911 Q907.283 303.883 909.181 305.665 Q911.103 307.425 911.103 310.596 Q911.103 314.207 908.232 316.313 Q905.385 318.42 900.385 318.42 Q898.302 318.42 896.033 318.003 Q893.788 317.61 891.288 316.8 L891.288 312.401 Q893.649 313.628 895.941 314.253 Q898.232 314.855 900.478 314.855 Q903.487 314.855 905.107 313.837 Q906.728 312.795 906.728 310.92 Q906.728 309.184 905.547 308.258 Q904.39 307.332 900.431 306.476 L898.95 306.128 Q894.992 305.295 893.232 303.582 Q891.473 301.846 891.473 298.837 Q891.473 295.179 894.066 293.189 Q896.658 291.198 901.427 291.198 Q903.788 291.198 905.871 291.545 Q907.955 291.892 909.714 292.587 Z" fill="#000000" fill-rule="nonzero" fill-opacity="1" /><path clip-path="url(#clip860)" d="M922.005 313.86 L922.005 327.61 L917.723 327.61 L917.723 291.823 L922.005 291.823 L922.005 295.758 Q923.348 293.443 925.385 292.332 Q927.445 291.198 930.292 291.198 Q935.015 291.198 937.954 294.948 Q940.917 298.698 940.917 304.809 Q940.917 310.92 937.954 314.67 Q935.015 318.42 930.292 318.42 Q927.445 318.42 925.385 317.309 Q923.348 316.175 922.005 313.86 M936.496 304.809 Q936.496 300.11 934.552 297.448 Q932.63 294.763 929.251 294.763 Q925.871 294.763 923.927 297.448 Q922.005 300.11 922.005 304.809 Q922.005 309.508 923.927 312.193 Q925.871 314.855 929.251 314.855 Q932.63 314.855 934.552 312.193 Q936.496 309.508 936.496 304.809 Z" fill="#000000" fill-rule="nonzero" fill-opacity="1" /><path clip-path="url(#clip860)" d="M959.76 304.716 Q954.598 304.716 952.607 305.897 Q950.616 307.077 950.616 309.925 Q950.616 312.193 952.098 313.536 Q953.602 314.855 956.172 314.855 Q959.714 314.855 961.843 312.355 Q963.996 309.832 963.996 305.665 L963.996 304.716 L959.76 304.716 M968.255 302.957 L968.255 317.749 L963.996 317.749 L963.996 313.813 Q962.538 316.175 960.362 317.309 Q958.186 318.42 955.038 318.42 Q951.056 318.42 948.695 316.198 Q946.357 313.952 946.357 310.202 Q946.357 305.827 949.274 303.605 Q952.214 301.383 958.024 301.383 L963.996 301.383 L963.996 300.966 Q963.996 298.027 962.051 296.429 Q960.13 294.809 956.635 294.809 Q954.413 294.809 952.306 295.341 Q950.2 295.874 948.255 296.939 L948.255 293.003 Q950.593 292.101 952.792 291.661 Q954.991 291.198 957.075 291.198 Q962.7 291.198 965.477 294.114 Q968.255 297.031 968.255 302.957 Z" fill="#000000" fill-rule="nonzero" fill-opacity="1" /><path clip-path="url(#clip860)" d="M992.051 295.804 Q991.334 295.388 990.477 295.202 Q989.644 294.994 988.625 294.994 Q985.014 294.994 983.07 297.355 Q981.149 299.693 981.149 304.091 L981.149 317.749 L976.866 317.749 L976.866 291.823 L981.149 291.823 L981.149 295.851 Q982.491 293.489 984.644 292.355 Q986.797 291.198 989.875 291.198 Q990.315 291.198 990.848 291.267 Q991.38 291.314 992.028 291.429 L992.051 295.804 Z" fill="#000000" fill-rule="nonzero" fill-opacity="1" /><polyline clip-path="url(#clip860)" style="stroke:#ff0000; stroke-linecap:round; stroke-linejoin:round; stroke-width:4; stroke-opacity:1; fill:none" points="350.34,352.309 490.043,352.309 "/>
<path clip-path="url(#clip860)" d="M529.16 339.635 L522.818 356.834 L535.526 356.834 L529.16 339.635 M526.521 335.029 L531.822 335.029 L544.994 369.589 L540.132 369.589 L536.984 360.723 L521.406 360.723 L518.258 369.589 L513.327 369.589 L526.521 335.029 Z" fill="#000000" fill-rule="nonzero" fill-opacity="1" /><path clip-path="url(#clip860)" d="M549.855 333.57 L554.114 333.57 L554.114 369.589 L549.855 369.589 L549.855 333.57 Z" fill="#000000" fill-rule="nonzero" fill-opacity="1" /><path clip-path="url(#clip860)" d="M567.146 365.7 L567.146 379.45 L562.864 379.45 L562.864 343.663 L567.146 343.663 L567.146 347.598 Q568.489 345.283 570.526 344.172 Q572.586 343.038 575.433 343.038 Q580.155 343.038 583.095 346.788 Q586.058 350.538 586.058 356.649 Q586.058 362.76 583.095 366.51 Q580.155 370.26 575.433 370.26 Q572.586 370.26 570.526 369.149 Q568.489 368.015 567.146 365.7 M581.637 356.649 Q581.637 351.95 579.692 349.288 Q577.771 346.603 574.392 346.603 Q571.012 346.603 569.067 349.288 Q567.146 351.95 567.146 356.649 Q567.146 361.348 569.067 364.033 Q571.012 366.695 574.392 366.695 Q577.771 366.695 579.692 364.033 Q581.637 361.348 581.637 356.649 Z" fill="#000000" fill-rule="nonzero" fill-opacity="1" /><path clip-path="url(#clip860)" d="M615.294 355.561 L615.294 357.644 L595.711 357.644 Q595.989 362.042 598.35 364.357 Q600.734 366.649 604.97 366.649 Q607.424 366.649 609.715 366.047 Q612.03 365.445 614.299 364.241 L614.299 368.269 Q612.007 369.241 609.6 369.751 Q607.192 370.26 604.715 370.26 Q598.512 370.26 594.878 366.649 Q591.266 363.038 591.266 356.88 Q591.266 350.515 594.692 346.788 Q598.141 343.038 603.975 343.038 Q609.206 343.038 612.239 346.417 Q615.294 349.774 615.294 355.561 M611.035 354.311 Q610.989 350.816 609.067 348.732 Q607.169 346.649 604.021 346.649 Q600.456 346.649 598.303 348.663 Q596.174 350.677 595.85 354.334 L611.035 354.311 Z" fill="#000000" fill-rule="nonzero" fill-opacity="1" /><path clip-path="url(#clip860)" d="M637.308 347.644 Q636.59 347.228 635.734 347.042 Q634.9 346.834 633.882 346.834 Q630.271 346.834 628.326 349.195 Q626.405 351.533 626.405 355.931 L626.405 369.589 L622.123 369.589 L622.123 343.663 L626.405 343.663 L626.405 347.691 Q627.748 345.329 629.9 344.195 Q632.053 343.038 635.132 343.038 Q635.572 343.038 636.104 343.107 Q636.637 343.154 637.285 343.269 L637.308 347.644 Z" fill="#000000" fill-rule="nonzero" fill-opacity="1" /><path clip-path="url(#clip860)" d="M645.988 336.302 L645.988 343.663 L654.761 343.663 L654.761 346.973 L645.988 346.973 L645.988 361.047 Q645.988 364.218 646.845 365.121 Q647.724 366.024 650.386 366.024 L654.761 366.024 L654.761 369.589 L650.386 369.589 Q645.456 369.589 643.581 367.76 Q641.706 365.908 641.706 361.047 L641.706 346.973 L638.581 346.973 L638.581 343.663 L641.706 343.663 L641.706 336.302 L645.988 336.302 Z" fill="#000000" fill-rule="nonzero" fill-opacity="1" /><path clip-path="url(#clip860)" d="M664.993 365.653 L681.312 365.653 L681.312 369.589 L659.368 369.589 L659.368 365.653 Q662.03 362.899 666.613 358.269 Q671.22 353.616 672.4 352.274 Q674.646 349.751 675.525 348.015 Q676.428 346.255 676.428 344.566 Q676.428 341.811 674.484 340.075 Q672.562 338.339 669.46 338.339 Q667.261 338.339 664.808 339.103 Q662.377 339.867 659.599 341.417 L659.599 336.695 Q662.423 335.561 664.877 334.982 Q667.331 334.404 669.368 334.404 Q674.738 334.404 677.933 337.089 Q681.127 339.774 681.127 344.265 Q681.127 346.394 680.317 348.316 Q679.53 350.214 677.423 352.806 Q676.845 353.478 673.743 356.695 Q670.641 359.89 664.993 365.653 Z" fill="#000000" fill-rule="nonzero" fill-opacity="1" /><path clip-path="url(#clip860)" d="M701.127 338.107 Q697.516 338.107 695.687 341.672 Q693.882 345.214 693.882 352.343 Q693.882 359.45 695.687 363.015 Q697.516 366.556 701.127 366.556 Q704.761 366.556 706.567 363.015 Q708.395 359.45 708.395 352.343 Q708.395 345.214 706.567 341.672 Q704.761 338.107 701.127 338.107 M701.127 334.404 Q706.937 334.404 709.993 339.01 Q713.071 343.593 713.071 352.343 Q713.071 361.07 709.993 365.677 Q706.937 370.26 701.127 370.26 Q695.317 370.26 692.238 365.677 Q689.183 361.07 689.183 352.343 Q689.183 343.593 692.238 339.01 Q695.317 334.404 701.127 334.404 Z" fill="#000000" fill-rule="nonzero" fill-opacity="1" /><path clip-path="url(#clip860)" d="M725.317 365.653 L741.636 365.653 L741.636 369.589 L719.692 369.589 L719.692 365.653 Q722.354 362.899 726.937 358.269 Q731.543 353.616 732.724 352.274 Q734.969 349.751 735.849 348.015 Q736.752 346.255 736.752 344.566 Q736.752 341.811 734.807 340.075 Q732.886 338.339 729.784 338.339 Q727.585 338.339 725.131 339.103 Q722.701 339.867 719.923 341.417 L719.923 336.695 Q722.747 335.561 725.201 334.982 Q727.655 334.404 729.692 334.404 Q735.062 334.404 738.256 337.089 Q741.451 339.774 741.451 344.265 Q741.451 346.394 740.641 348.316 Q739.854 350.214 737.747 352.806 Q737.168 353.478 734.067 356.695 Q730.965 359.89 725.317 365.653 Z" fill="#000000" fill-rule="nonzero" fill-opacity="1" /><path clip-path="url(#clip860)" d="M755.479 365.653 L771.798 365.653 L771.798 369.589 L749.854 369.589 L749.854 365.653 Q752.516 362.899 757.099 358.269 Q761.705 353.616 762.886 352.274 Q765.131 349.751 766.011 348.015 Q766.914 346.255 766.914 344.566 Q766.914 341.811 764.969 340.075 Q763.048 338.339 759.946 338.339 Q757.747 338.339 755.293 339.103 Q752.863 339.867 750.085 341.417 L750.085 336.695 Q752.909 335.561 755.363 334.982 Q757.816 334.404 759.853 334.404 Q765.224 334.404 768.418 337.089 Q771.613 339.774 771.613 344.265 Q771.613 346.394 770.803 348.316 Q770.015 350.214 767.909 352.806 Q767.33 353.478 764.228 356.695 Q761.127 359.89 755.479 365.653 Z" fill="#000000" fill-rule="nonzero" fill-opacity="1" /><path clip-path="url(#clip860)" d="M796.265 335.029 L816.126 335.029 L816.126 338.964 L800.941 338.964 L800.941 349.149 L814.645 349.149 L814.645 353.084 L800.941 353.084 L800.941 369.589 L796.265 369.589 L796.265 335.029 Z" fill="#000000" fill-rule="nonzero" fill-opacity="1" /><path clip-path="url(#clip860)" d="M842.932 355.561 L842.932 357.644 L823.349 357.644 Q823.626 362.042 825.987 364.357 Q828.372 366.649 832.608 366.649 Q835.061 366.649 837.353 366.047 Q839.668 365.445 841.936 364.241 L841.936 368.269 Q839.645 369.241 837.237 369.751 Q834.83 370.26 832.353 370.26 Q826.149 370.26 822.515 366.649 Q818.904 363.038 818.904 356.88 Q818.904 350.515 822.33 346.788 Q825.779 343.038 831.612 343.038 Q836.844 343.038 839.876 346.417 Q842.932 349.774 842.932 355.561 M838.673 354.311 Q838.626 350.816 836.705 348.732 Q834.807 346.649 831.659 346.649 Q828.094 346.649 825.941 348.663 Q823.811 350.677 823.487 354.334 L838.673 354.311 Z" fill="#000000" fill-rule="nonzero" fill-opacity="1" /><path clip-path="url(#clip860)" d="M864.946 347.644 Q864.228 347.228 863.371 347.042 Q862.538 346.834 861.52 346.834 Q857.909 346.834 855.964 349.195 Q854.043 351.533 854.043 355.931 L854.043 369.589 L849.76 369.589 L849.76 343.663 L854.043 343.663 L854.043 347.691 Q855.385 345.329 857.538 344.195 Q859.691 343.038 862.77 343.038 Q863.209 343.038 863.742 343.107 Q864.274 343.154 864.922 343.269 L864.946 347.644 Z" fill="#000000" fill-rule="nonzero" fill-opacity="1" /><path clip-path="url(#clip860)" d="M883.603 347.644 Q882.885 347.228 882.029 347.042 Q881.195 346.834 880.177 346.834 Q876.566 346.834 874.621 349.195 Q872.7 351.533 872.7 355.931 L872.7 369.589 L868.418 369.589 L868.418 343.663 L872.7 343.663 L872.7 347.691 Q874.043 345.329 876.195 344.195 Q878.348 343.038 881.427 343.038 Q881.867 343.038 882.399 343.107 Q882.932 343.154 883.58 343.269 L883.603 347.644 Z" fill="#000000" fill-rule="nonzero" fill-opacity="1" /><path clip-path="url(#clip860)" d="M888.07 343.663 L892.33 343.663 L892.33 369.589 L888.07 369.589 L888.07 343.663 M888.07 333.57 L892.33 333.57 L892.33 338.964 L888.07 338.964 L888.07 333.57 Z" fill="#000000" fill-rule="nonzero" fill-opacity="1" /><path clip-path="url(#clip860)" d="M922.792 353.941 L922.792 369.589 L918.533 369.589 L918.533 354.079 Q918.533 350.399 917.098 348.57 Q915.663 346.742 912.792 346.742 Q909.343 346.742 907.353 348.941 Q905.362 351.14 905.362 354.936 L905.362 369.589 L901.08 369.589 L901.08 333.57 L905.362 333.57 L905.362 347.691 Q906.89 345.353 908.95 344.195 Q911.033 343.038 913.742 343.038 Q918.209 343.038 920.501 345.816 Q922.792 348.57 922.792 353.941 Z" fill="#000000" fill-rule="nonzero" fill-opacity="1" /><path clip-path="url(#clip860)" d="M942.075 371.996 Q940.269 376.626 938.556 378.038 Q936.843 379.45 933.973 379.45 L930.57 379.45 L930.57 375.885 L933.07 375.885 Q934.829 375.885 935.802 375.052 Q936.774 374.218 937.954 371.116 L938.718 369.172 L928.232 343.663 L932.746 343.663 L940.848 363.941 L948.95 343.663 L953.464 343.663 L942.075 371.996 Z" fill="#000000" fill-rule="nonzero" fill-opacity="1" /><path clip-path="url(#clip860)" d="M976.403 347.598 L976.403 333.57 L980.662 333.57 L980.662 369.589 L976.403 369.589 L976.403 365.7 Q975.061 368.015 973 369.149 Q970.963 370.26 968.093 370.26 Q963.394 370.26 960.431 366.51 Q957.491 362.76 957.491 356.649 Q957.491 350.538 960.431 346.788 Q963.394 343.038 968.093 343.038 Q970.963 343.038 973 344.172 Q975.061 345.283 976.403 347.598 M961.889 356.649 Q961.889 361.348 963.811 364.033 Q965.755 366.695 969.135 366.695 Q972.514 366.695 974.459 364.033 Q976.403 361.348 976.403 356.649 Q976.403 351.95 974.459 349.288 Q972.514 346.603 969.135 346.603 Q965.755 346.603 963.811 349.288 Q961.889 351.95 961.889 356.649 Z" fill="#000000" fill-rule="nonzero" fill-opacity="1" /><path clip-path="url(#clip860)" d="M1004.46 347.644 Q1003.74 347.228 1002.88 347.042 Q1002.05 346.834 1001.03 346.834 Q997.422 346.834 995.477 349.195 Q993.556 351.533 993.556 355.931 L993.556 369.589 L989.274 369.589 L989.274 343.663 L993.556 343.663 L993.556 347.691 Q994.899 345.329 997.051 344.195 Q999.204 343.038 1002.28 343.038 Q1002.72 343.038 1003.25 343.107 Q1003.79 343.154 1004.44 343.269 L1004.46 347.644 Z" fill="#000000" fill-rule="nonzero" fill-opacity="1" /><path clip-path="url(#clip860)" d="M1008.93 343.663 L1013.19 343.663 L1013.19 369.589 L1008.93 369.589 L1008.93 343.663 M1008.93 333.57 L1013.19 333.57 L1013.19 338.964 L1008.93 338.964 L1008.93 333.57 Z" fill="#000000" fill-rule="nonzero" fill-opacity="1" /><path clip-path="url(#clip860)" d="M1026.31 336.302 L1026.31 343.663 L1035.08 343.663 L1035.08 346.973 L1026.31 346.973 L1026.31 361.047 Q1026.31 364.218 1027.17 365.121 Q1028.05 366.024 1030.71 366.024 L1035.08 366.024 L1035.08 369.589 L1030.71 369.589 Q1025.78 369.589 1023.9 367.76 Q1022.03 365.908 1022.03 361.047 L1022.03 346.973 L1018.9 346.973 L1018.9 343.663 L1022.03 343.663 L1022.03 336.302 L1026.31 336.302 Z" fill="#000000" fill-rule="nonzero" fill-opacity="1" /><path clip-path="url(#clip860)" d="M1062.86 355.561 L1062.86 357.644 L1043.28 357.644 Q1043.56 362.042 1045.92 364.357 Q1048.3 366.649 1052.54 366.649 Q1054.99 366.649 1057.28 366.047 Q1059.6 365.445 1061.87 364.241 L1061.87 368.269 Q1059.57 369.241 1057.17 369.751 Q1054.76 370.26 1052.28 370.26 Q1046.08 370.26 1042.44 366.649 Q1038.83 363.038 1038.83 356.88 Q1038.83 350.515 1042.26 346.788 Q1045.71 343.038 1051.54 343.038 Q1056.77 343.038 1059.81 346.417 Q1062.86 349.774 1062.86 355.561 M1058.6 354.311 Q1058.56 350.816 1056.63 348.732 Q1054.74 346.649 1051.59 346.649 Q1048.02 346.649 1045.87 348.663 Q1043.74 350.677 1043.42 354.334 L1058.6 354.311 Z" fill="#000000" fill-rule="nonzero" fill-opacity="1" /><circle clip-path="url(#clip860)" cx="420.191" cy="404.149" r="18.432" fill="#ffff00" fill-rule="evenodd" fill-opacity="1" stroke="#000000" stroke-opacity="1" stroke-width="8.192"/>
<path clip-path="url(#clip860)" d="M541.197 389.531 L541.197 394.461 Q538.836 392.262 536.151 391.174 Q533.489 390.086 530.48 390.086 Q524.554 390.086 521.406 393.72 Q518.258 397.332 518.258 404.183 Q518.258 411.012 521.406 414.646 Q524.554 418.257 530.48 418.257 Q533.489 418.257 536.151 417.169 Q538.836 416.081 541.197 413.882 L541.197 418.767 Q538.744 420.433 535.989 421.267 Q533.257 422.1 530.202 422.1 Q522.355 422.1 517.841 417.308 Q513.327 412.493 513.327 404.183 Q513.327 395.85 517.841 391.058 Q522.355 386.244 530.202 386.244 Q533.304 386.244 536.035 387.077 Q538.79 387.887 541.197 389.531 Z" fill="#000000" fill-rule="nonzero" fill-opacity="1" /><path clip-path="url(#clip860)" d="M569.785 405.781 L569.785 421.429 L565.526 421.429 L565.526 405.919 Q565.526 402.239 564.091 400.41 Q562.655 398.582 559.785 398.582 Q556.336 398.582 554.345 400.781 Q552.355 402.98 552.355 406.776 L552.355 421.429 L548.072 421.429 L548.072 385.41 L552.355 385.41 L552.355 399.531 Q553.882 397.193 555.943 396.035 Q558.026 394.878 560.734 394.878 Q565.202 394.878 567.493 397.656 Q569.785 400.41 569.785 405.781 Z" fill="#000000" fill-rule="nonzero" fill-opacity="1" /><path clip-path="url(#clip860)" d="M578.28 395.503 L582.54 395.503 L582.54 421.429 L578.28 421.429 L578.28 395.503 M578.28 385.41 L582.54 385.41 L582.54 390.804 L578.28 390.804 L578.28 385.41 Z" fill="#000000" fill-rule="nonzero" fill-opacity="1" /><path clip-path="url(#clip860)" d="M613.002 405.781 L613.002 421.429 L608.743 421.429 L608.743 405.919 Q608.743 402.239 607.308 400.41 Q605.873 398.582 603.002 398.582 Q599.553 398.582 597.563 400.781 Q595.572 402.98 595.572 406.776 L595.572 421.429 L591.29 421.429 L591.29 395.503 L595.572 395.503 L595.572 399.531 Q597.1 397.193 599.16 396.035 Q601.243 394.878 603.952 394.878 Q608.419 394.878 610.711 397.656 Q613.002 400.41 613.002 405.781 Z" fill="#000000" fill-rule="nonzero" fill-opacity="1" /><path clip-path="url(#clip860)" d="M633.28 408.396 Q628.118 408.396 626.127 409.577 Q624.137 410.757 624.137 413.605 Q624.137 415.873 625.618 417.216 Q627.123 418.535 629.692 418.535 Q633.234 418.535 635.363 416.035 Q637.516 413.512 637.516 409.345 L637.516 408.396 L633.28 408.396 M641.775 406.637 L641.775 421.429 L637.516 421.429 L637.516 417.493 Q636.058 419.855 633.882 420.989 Q631.706 422.1 628.558 422.1 Q624.576 422.1 622.215 419.878 Q619.877 417.632 619.877 413.882 Q619.877 409.507 622.794 407.285 Q625.734 405.063 631.544 405.063 L637.516 405.063 L637.516 404.646 Q637.516 401.707 635.572 400.109 Q633.65 398.489 630.155 398.489 Q627.933 398.489 625.826 399.021 Q623.72 399.554 621.776 400.619 L621.776 396.683 Q624.113 395.781 626.313 395.341 Q628.512 394.878 630.595 394.878 Q636.22 394.878 638.998 397.794 Q641.775 400.711 641.775 406.637 Z" fill="#000000" fill-rule="nonzero" fill-opacity="1" /><path clip-path="url(#clip860)" d="M655.178 417.493 L671.497 417.493 L671.497 421.429 L649.553 421.429 L649.553 417.493 Q652.215 414.739 656.798 410.109 Q661.405 405.456 662.585 404.114 Q664.831 401.591 665.71 399.855 Q666.613 398.095 666.613 396.406 Q666.613 393.651 664.669 391.915 Q662.748 390.179 659.646 390.179 Q657.447 390.179 654.993 390.943 Q652.562 391.707 649.785 393.257 L649.785 388.535 Q652.609 387.401 655.062 386.822 Q657.516 386.244 659.553 386.244 Q664.923 386.244 668.118 388.929 Q671.312 391.614 671.312 396.105 Q671.312 398.234 670.502 400.156 Q669.715 402.054 667.609 404.646 Q667.03 405.318 663.928 408.535 Q660.826 411.73 655.178 417.493 Z" fill="#000000" fill-rule="nonzero" fill-opacity="1" /><path clip-path="url(#clip860)" d="M691.312 389.947 Q687.701 389.947 685.872 393.512 Q684.067 397.054 684.067 404.183 Q684.067 411.29 685.872 414.855 Q687.701 418.396 691.312 418.396 Q694.946 418.396 696.752 414.855 Q698.581 411.29 698.581 404.183 Q698.581 397.054 696.752 393.512 Q694.946 389.947 691.312 389.947 M691.312 386.244 Q697.122 386.244 700.178 390.85 Q703.257 395.433 703.257 404.183 Q703.257 412.91 700.178 417.517 Q697.122 422.1 691.312 422.1 Q685.502 422.1 682.423 417.517 Q679.368 412.91 679.368 404.183 Q679.368 395.433 682.423 390.85 Q685.502 386.244 691.312 386.244 Z" fill="#000000" fill-rule="nonzero" fill-opacity="1" /><path clip-path="url(#clip860)" d="M712.284 417.493 L719.923 417.493 L719.923 391.128 L711.613 392.795 L711.613 388.535 L719.877 386.869 L724.553 386.869 L724.553 417.493 L732.192 417.493 L732.192 421.429 L712.284 421.429 L712.284 417.493 Z" fill="#000000" fill-rule="nonzero" fill-opacity="1" /><path clip-path="url(#clip860)" d="M740.455 386.869 L762.678 386.869 L762.678 388.859 L750.131 421.429 L745.247 421.429 L757.053 390.804 L740.455 390.804 L740.455 386.869 Z" fill="#000000" fill-rule="nonzero" fill-opacity="1" /><path clip-path="url(#clip860)" d="M786.451 386.869 L791.126 386.869 L791.126 401.475 L806.636 386.869 L812.654 386.869 L795.501 402.98 L813.881 421.429 L807.724 421.429 L791.126 404.785 L791.126 421.429 L786.451 421.429 L786.451 386.869 Z" fill="#000000" fill-rule="nonzero" fill-opacity="1" /><path clip-path="url(#clip860)" d="M828.302 408.396 Q823.14 408.396 821.149 409.577 Q819.159 410.757 819.159 413.605 Q819.159 415.873 820.64 417.216 Q822.145 418.535 824.714 418.535 Q828.256 418.535 830.386 416.035 Q832.538 413.512 832.538 409.345 L832.538 408.396 L828.302 408.396 M836.798 406.637 L836.798 421.429 L832.538 421.429 L832.538 417.493 Q831.08 419.855 828.904 420.989 Q826.728 422.1 823.58 422.1 Q819.599 422.1 817.237 419.878 Q814.899 417.632 814.899 413.882 Q814.899 409.507 817.816 407.285 Q820.756 405.063 826.566 405.063 L832.538 405.063 L832.538 404.646 Q832.538 401.707 830.594 400.109 Q828.673 398.489 825.177 398.489 Q822.955 398.489 820.849 399.021 Q818.742 399.554 816.798 400.619 L816.798 396.683 Q819.136 395.781 821.335 395.341 Q823.534 394.878 825.617 394.878 Q831.242 394.878 834.02 397.794 Q836.798 400.711 836.798 406.637 Z" fill="#000000" fill-rule="nonzero" fill-opacity="1" /><path clip-path="url(#clip860)" d="M855.617 398.489 Q852.191 398.489 850.2 401.174 Q848.21 403.836 848.21 408.489 Q848.21 413.142 850.177 415.827 Q852.168 418.489 855.617 418.489 Q859.02 418.489 861.01 415.804 Q863.001 413.118 863.001 408.489 Q863.001 403.882 861.01 401.197 Q859.02 398.489 855.617 398.489 M855.617 394.878 Q861.172 394.878 864.344 398.489 Q867.515 402.1 867.515 408.489 Q867.515 414.855 864.344 418.489 Q861.172 422.1 855.617 422.1 Q850.038 422.1 846.867 418.489 Q843.719 414.855 843.719 408.489 Q843.719 402.1 846.867 398.489 Q850.038 394.878 855.617 394.878 Z" fill="#000000" fill-rule="nonzero" fill-opacity="1" /><path clip-path="url(#clip860)" d="M874.575 385.41 L878.834 385.41 L878.834 421.429 L874.575 421.429 L874.575 385.41 Z" fill="#000000" fill-rule="nonzero" fill-opacity="1" /><path clip-path="url(#clip860)" d="M887.746 395.503 L892.006 395.503 L892.006 421.429 L887.746 421.429 L887.746 395.503 M887.746 385.41 L892.006 385.41 L892.006 390.804 L887.746 390.804 L887.746 385.41 Z" fill="#000000" fill-rule="nonzero" fill-opacity="1" /><path clip-path="url(#clip860)" d="M922.468 405.781 L922.468 421.429 L918.209 421.429 L918.209 405.919 Q918.209 402.239 916.774 400.41 Q915.339 398.582 912.468 398.582 Q909.019 398.582 907.029 400.781 Q905.038 402.98 905.038 406.776 L905.038 421.429 L900.756 421.429 L900.756 395.503 L905.038 395.503 L905.038 399.531 Q906.566 397.193 908.626 396.035 Q910.709 394.878 913.417 394.878 Q917.885 394.878 920.177 397.656 Q922.468 400.41 922.468 405.781 Z" fill="#000000" fill-rule="nonzero" fill-opacity="1" /><path clip-path="url(#clip860)" d="M930.964 395.503 L935.223 395.503 L935.223 421.429 L930.964 421.429 L930.964 395.503 M930.964 385.41 L935.223 385.41 L935.223 390.804 L930.964 390.804 L930.964 385.41 Z" fill="#000000" fill-rule="nonzero" fill-opacity="1" /><path clip-path="url(#clip860)" d="M948.348 388.142 L948.348 395.503 L957.121 395.503 L957.121 398.813 L948.348 398.813 L948.348 412.887 Q948.348 416.058 949.204 416.961 Q950.084 417.864 952.746 417.864 L957.121 417.864 L957.121 421.429 L952.746 421.429 Q947.815 421.429 945.94 419.6 Q944.065 417.748 944.065 412.887 L944.065 398.813 L940.94 398.813 L940.94 395.503 L944.065 395.503 L944.065 388.142 L948.348 388.142 Z" fill="#000000" fill-rule="nonzero" fill-opacity="1" /><path clip-path="url(#clip860)" d="M984.899 407.401 L984.899 409.484 L965.315 409.484 Q965.593 413.882 967.954 416.197 Q970.338 418.489 974.575 418.489 Q977.028 418.489 979.32 417.887 Q981.635 417.285 983.903 416.081 L983.903 420.109 Q981.612 421.081 979.204 421.591 Q976.797 422.1 974.32 422.1 Q968.116 422.1 964.482 418.489 Q960.871 414.878 960.871 408.72 Q960.871 402.355 964.297 398.628 Q967.746 394.878 973.579 394.878 Q978.811 394.878 981.843 398.257 Q984.899 401.614 984.899 407.401 M980.639 406.151 Q980.593 402.656 978.672 400.572 Q976.774 398.489 973.625 398.489 Q970.061 398.489 967.908 400.503 Q965.778 402.517 965.454 406.174 L980.639 406.151 Z" fill="#000000" fill-rule="nonzero" fill-opacity="1" /></svg>
