<?xml version="1.0" encoding="utf-8"?>
<svg xmlns="http://www.w3.org/2000/svg" xmlns:xlink="http://www.w3.org/1999/xlink" width="600" height="400" viewBox="0 0 2400 1600">
<defs>
  <clipPath id="clip790">
    <rect x="0" y="0" width="2400" height="1600"/>
  </clipPath>
</defs>
<path clip-path="url(#clip790)" d="M0 1600 L2400 1600 L2400 0 L0 0  Z" fill="#ffffff" fill-rule="evenodd" fill-opacity="1"/>
<defs>
  <clipPath id="clip791">
    <rect x="480" y="0" width="1681" height="1600"/>
  </clipPath>
</defs>
<path clip-path="url(#clip790)" d="M175.445 1423.18 L2352.76 1423.18 L2352.76 47.2441 L175.445 47.2441  Z" fill="#ffffff" fill-rule="evenodd" fill-opacity="1"/>
<defs>
  <clipPath id="clip792">
    <rect x="175" y="47" width="2178" height="1377"/>
  </clipPath>
</defs>
<polyline clip-path="url(#clip792)" style="stroke:#000000; stroke-linecap:round; stroke-linejoin:round; stroke-width:2; stroke-opacity:0.1; fill:none" points="237.063,1423.18 237.063,47.2441 "/>
<polyline clip-path="url(#clip792)" style="stroke:#000000; stroke-linecap:round; stroke-linejoin:round; stroke-width:2; stroke-opacity:0.1; fill:none" points="647.877,1423.18 647.877,47.2441 "/>
<polyline clip-path="url(#clip792)" style="stroke:#000000; stroke-linecap:round; stroke-linejoin:round; stroke-width:2; stroke-opacity:0.1; fill:none" points="1058.69,1423.18 1058.69,47.2441 "/>
<polyline clip-path="url(#clip792)" style="stroke:#000000; stroke-linecap:round; stroke-linejoin:round; stroke-width:2; stroke-opacity:0.1; fill:none" points="1469.51,1423.18 1469.51,47.2441 "/>
<polyline clip-path="url(#clip792)" style="stroke:#000000; stroke-linecap:round; stroke-linejoin:round; stroke-width:2; stroke-opacity:0.1; fill:none" points="1880.32,1423.18 1880.32,47.2441 "/>
<polyline clip-path="url(#clip792)" style="stroke:#000000; stroke-linecap:round; stroke-linejoin:round; stroke-width:2; stroke-opacity:0.1; fill:none" points="2291.13,1423.18 2291.13,47.2441 "/>
<polyline clip-path="url(#clip790)" style="stroke:#000000; stroke-linecap:round; stroke-linejoin:round; stroke-width:4; stroke-opacity:1; fill:none" points="175.445,1423.18 2352.76,1423.18 "/>
<polyline clip-path="url(#clip790)" style="stroke:#000000; stroke-linecap:round; stroke-linejoin:round; stroke-width:4; stroke-opacity:1; fill:none" points="237.063,1423.18 237.063,1404.28 "/>
<polyline clip-path="url(#clip790)" style="stroke:#000000; stroke-linecap:round; stroke-linejoin:round; stroke-width:4; stroke-opacity:1; fill:none" points="647.877,1423.18 647.877,1404.28 "/>
<polyline clip-path="url(#clip790)" style="stroke:#000000; stroke-linecap:round; stroke-linejoin:round; stroke-width:4; stroke-opacity:1; fill:none" points="1058.69,1423.18 1058.69,1404.28 "/>
<polyline clip-path="url(#clip790)" style="stroke:#000000; stroke-linecap:round; stroke-linejoin:round; stroke-width:4; stroke-opacity:1; fill:none" points="1469.51,1423.18 1469.51,1404.28 "/>
<polyline clip-path="url(#clip790)" style="stroke:#000000; stroke-linecap:round; stroke-linejoin:round; stroke-width:4; stroke-opacity:1; fill:none" points="1880.32,1423.18 1880.32,1404.28 "/>
<polyline clip-path="url(#clip790)" style="stroke:#000000; stroke-linecap:round; stroke-linejoin:round; stroke-width:4; stroke-opacity:1; fill:none" points="2291.13,1423.18 2291.13,1404.28 "/>
<path clip-path="url(#clip790)" d="M237.063 1454.1 Q233.452 1454.1 231.623 1457.66 Q229.818 1461.2 229.818 1468.33 Q229.818 1475.44 231.623 1479.01 Q233.452 1482.55 237.063 1482.55 Q240.697 1482.55 242.503 1479.01 Q244.332 1475.44 244.332 1468.33 Q244.332 1461.2 242.503 1457.66 Q240.697 1454.1 237.063 1454.1 M237.063 1450.39 Q242.873 1450.39 245.929 1455 Q249.007 1459.58 249.007 1468.33 Q249.007 1477.06 245.929 1481.67 Q242.873 1486.25 237.063 1486.25 Q231.253 1486.25 228.174 1481.67 Q225.119 1477.06 225.119 1468.33 Q225.119 1459.58 228.174 1455 Q231.253 1450.39 237.063 1450.39 Z" fill="#000000" fill-rule="nonzero" fill-opacity="1" /><path clip-path="url(#clip790)" d="M638.259 1481.64 L645.898 1481.64 L645.898 1455.28 L637.588 1456.95 L637.588 1452.69 L645.852 1451.02 L650.528 1451.02 L650.528 1481.64 L658.167 1481.64 L658.167 1485.58 L638.259 1485.58 L638.259 1481.64 Z" fill="#000000" fill-rule="nonzero" fill-opacity="1" /><path clip-path="url(#clip790)" d="M1053.34 1481.64 L1069.66 1481.64 L1069.66 1485.58 L1047.72 1485.58 L1047.72 1481.64 Q1050.38 1478.89 1054.96 1474.26 Q1059.57 1469.61 1060.75 1468.27 Q1063 1465.74 1063.88 1464.01 Q1064.78 1462.25 1064.78 1460.56 Q1064.78 1457.8 1062.83 1456.07 Q1060.91 1454.33 1057.81 1454.33 Q1055.61 1454.33 1053.16 1455.09 Q1050.73 1455.86 1047.95 1457.41 L1047.95 1452.69 Q1050.77 1451.55 1053.23 1450.97 Q1055.68 1450.39 1057.72 1450.39 Q1063.09 1450.39 1066.28 1453.08 Q1069.48 1455.77 1069.48 1460.26 Q1069.48 1462.39 1068.67 1464.31 Q1067.88 1466.2 1065.77 1468.8 Q1065.2 1469.47 1062.09 1472.69 Q1058.99 1475.88 1053.34 1481.64 Z" fill="#000000" fill-rule="nonzero" fill-opacity="1" /><path clip-path="url(#clip790)" d="M1473.75 1466.95 Q1477.11 1467.66 1478.98 1469.93 Q1480.88 1472.2 1480.88 1475.53 Q1480.88 1480.65 1477.36 1483.45 Q1473.85 1486.25 1467.36 1486.25 Q1465.19 1486.25 1462.87 1485.81 Q1460.58 1485.39 1458.13 1484.54 L1458.13 1480.02 Q1460.07 1481.16 1462.39 1481.74 Q1464.7 1482.32 1467.23 1482.32 Q1471.62 1482.32 1473.92 1480.58 Q1476.23 1478.84 1476.23 1475.53 Q1476.23 1472.48 1474.08 1470.77 Q1471.95 1469.03 1468.13 1469.03 L1464.1 1469.03 L1464.1 1465.19 L1468.31 1465.19 Q1471.76 1465.19 1473.59 1463.82 Q1475.42 1462.43 1475.42 1459.84 Q1475.42 1457.18 1473.52 1455.77 Q1471.65 1454.33 1468.13 1454.33 Q1466.21 1454.33 1464.01 1454.75 Q1461.81 1455.16 1459.17 1456.04 L1459.17 1451.88 Q1461.83 1451.14 1464.15 1450.77 Q1466.48 1450.39 1468.54 1450.39 Q1473.87 1450.39 1476.97 1452.83 Q1480.07 1455.23 1480.07 1459.35 Q1480.07 1462.22 1478.43 1464.21 Q1476.79 1466.18 1473.75 1466.95 Z" fill="#000000" fill-rule="nonzero" fill-opacity="1" /><path clip-path="url(#clip790)" d="M1883.33 1455.09 L1871.52 1473.54 L1883.33 1473.54 L1883.33 1455.09 M1882.1 1451.02 L1887.98 1451.02 L1887.98 1473.54 L1892.91 1473.54 L1892.91 1477.43 L1887.98 1477.43 L1887.98 1485.58 L1883.33 1485.58 L1883.33 1477.43 L1867.73 1477.43 L1867.73 1472.92 L1882.1 1451.02 Z" fill="#000000" fill-rule="nonzero" fill-opacity="1" /><path clip-path="url(#clip790)" d="M2281.41 1451.02 L2299.77 1451.02 L2299.77 1454.96 L2285.69 1454.96 L2285.69 1463.43 Q2286.71 1463.08 2287.73 1462.92 Q2288.75 1462.73 2289.77 1462.73 Q2295.56 1462.73 2298.93 1465.9 Q2302.31 1469.08 2302.31 1474.49 Q2302.31 1480.07 2298.84 1483.17 Q2295.37 1486.25 2289.05 1486.25 Q2286.87 1486.25 2284.61 1485.88 Q2282.36 1485.51 2279.95 1484.77 L2279.95 1480.07 Q2282.04 1481.2 2284.26 1481.76 Q2286.48 1482.32 2288.96 1482.32 Q2292.96 1482.32 2295.3 1480.21 Q2297.64 1478.1 2297.64 1474.49 Q2297.64 1470.88 2295.3 1468.77 Q2292.96 1466.67 2288.96 1466.67 Q2287.08 1466.67 2285.21 1467.08 Q2283.36 1467.5 2281.41 1468.38 L2281.41 1451.02 Z" fill="#000000" fill-rule="nonzero" fill-opacity="1" /><path clip-path="url(#clip790)" d="M914.432 1550.25 Q914.432 1556.71 917.074 1560.4 Q919.748 1564.07 924.395 1564.07 Q929.042 1564.07 931.715 1560.4 Q934.389 1556.71 934.389 1550.25 Q934.389 1543.79 931.715 1540.13 Q929.042 1536.44 924.395 1536.44 Q919.748 1536.44 917.074 1540.13 Q914.432 1543.79 914.432 1550.25 M934.389 1562.7 Q932.543 1565.88 929.71 1567.44 Q926.909 1568.97 922.962 1568.97 Q916.501 1568.97 912.427 1563.81 Q908.385 1558.65 908.385 1550.25 Q908.385 1541.85 912.427 1536.69 Q916.501 1531.54 922.962 1531.54 Q926.909 1531.54 929.71 1533.1 Q932.543 1534.62 934.389 1537.81 L934.389 1532.4 L940.245 1532.4 L940.245 1581.6 L934.389 1581.6 L934.389 1562.7 Z" fill="#000000" fill-rule="nonzero" fill-opacity="1" /><path clip-path="url(#clip790)" d="M979.394 1578.87 L979.394 1583.42 L945.529 1583.42 L945.529 1578.87 L979.394 1578.87 Z" fill="#000000" fill-rule="nonzero" fill-opacity="1" /><path clip-path="url(#clip790)" d="M1005.56 1537.87 Q1004.57 1537.3 1003.39 1537.04 Q1002.25 1536.76 1000.85 1536.76 Q995.882 1536.76 993.208 1540 Q990.566 1543.22 990.566 1549.27 L990.566 1568.04 L984.678 1568.04 L984.678 1532.4 L990.566 1532.4 L990.566 1537.93 Q992.412 1534.69 995.372 1533.13 Q998.332 1531.54 1002.57 1531.54 Q1003.17 1531.54 1003.9 1531.63 Q1004.63 1531.7 1005.53 1531.85 L1005.56 1537.87 Z" fill="#000000" fill-rule="nonzero" fill-opacity="1" /><path clip-path="url(#clip790)" d="M1027.9 1550.12 Q1020.8 1550.12 1018.07 1551.75 Q1015.33 1553.37 1015.33 1557.29 Q1015.33 1560.4 1017.37 1562.25 Q1019.43 1564.07 1022.97 1564.07 Q1027.84 1564.07 1030.77 1560.63 Q1033.73 1557.16 1033.73 1551.43 L1033.73 1550.12 L1027.9 1550.12 M1039.58 1547.71 L1039.58 1568.04 L1033.73 1568.04 L1033.73 1562.63 Q1031.72 1565.88 1028.73 1567.44 Q1025.74 1568.97 1021.41 1568.97 Q1015.93 1568.97 1012.69 1565.91 Q1009.47 1562.82 1009.47 1557.67 Q1009.47 1551.65 1013.48 1548.6 Q1017.52 1545.54 1025.51 1545.54 L1033.73 1545.54 L1033.73 1544.97 Q1033.73 1540.93 1031.05 1538.73 Q1028.41 1536.5 1023.6 1536.5 Q1020.55 1536.5 1017.65 1537.23 Q1014.76 1537.97 1012.08 1539.43 L1012.08 1534.02 Q1015.3 1532.78 1018.32 1532.17 Q1021.34 1531.54 1024.21 1531.54 Q1031.94 1531.54 1035.76 1535.55 Q1039.58 1539.56 1039.58 1547.71 Z" fill="#000000" fill-rule="nonzero" fill-opacity="1" /><path clip-path="url(#clip790)" d="M1051.65 1532.4 L1057.5 1532.4 L1057.5 1568.04 L1051.65 1568.04 L1051.65 1532.4 M1051.65 1518.52 L1057.5 1518.52 L1057.5 1525.93 L1051.65 1525.93 L1051.65 1518.52 Z" fill="#000000" fill-rule="nonzero" fill-opacity="1" /><path clip-path="url(#clip790)" d="M1099.39 1546.53 L1099.39 1568.04 L1093.53 1568.04 L1093.53 1546.72 Q1093.53 1541.66 1091.56 1539.14 Q1089.58 1536.63 1085.64 1536.63 Q1080.9 1536.63 1078.16 1539.65 Q1075.42 1542.68 1075.42 1547.9 L1075.42 1568.04 L1069.53 1568.04 L1069.53 1532.4 L1075.42 1532.4 L1075.42 1537.93 Q1077.52 1534.72 1080.35 1533.13 Q1083.22 1531.54 1086.94 1531.54 Q1093.09 1531.54 1096.24 1535.36 Q1099.39 1539.14 1099.39 1546.53 Z" fill="#000000" fill-rule="nonzero" fill-opacity="1" /><path clip-path="url(#clip790)" d="M1121.48 1520.52 L1126.89 1520.52 L1110.34 1574.09 L1104.93 1574.09 L1121.48 1520.52 Z" fill="#000000" fill-rule="nonzero" fill-opacity="1" /><path clip-path="url(#clip790)" d="M1133.03 1532.4 L1138.89 1532.4 L1138.89 1568.04 L1133.03 1568.04 L1133.03 1532.4 M1133.03 1518.52 L1138.89 1518.52 L1138.89 1525.93 L1133.03 1525.93 L1133.03 1518.52 Z" fill="#000000" fill-rule="nonzero" fill-opacity="1" /><path clip-path="url(#clip790)" d="M1176.79 1533.76 L1176.79 1539.24 Q1174.31 1537.87 1171.8 1537.2 Q1169.32 1536.5 1166.77 1536.5 Q1161.07 1536.5 1157.92 1540.13 Q1154.77 1543.73 1154.77 1550.25 Q1154.77 1556.78 1157.92 1560.4 Q1161.07 1564 1166.77 1564 Q1169.32 1564 1171.8 1563.33 Q1174.31 1562.63 1176.79 1561.26 L1176.79 1566.68 Q1174.34 1567.82 1171.7 1568.39 Q1169.09 1568.97 1166.13 1568.97 Q1158.08 1568.97 1153.34 1563.91 Q1148.59 1558.85 1148.59 1550.25 Q1148.59 1541.53 1153.37 1536.53 Q1158.18 1531.54 1166.51 1531.54 Q1169.22 1531.54 1171.8 1532.11 Q1174.38 1532.65 1176.79 1533.76 Z" fill="#000000" fill-rule="nonzero" fill-opacity="1" /><path clip-path="url(#clip790)" d="M1217.47 1548.76 L1217.47 1551.62 L1190.54 1551.62 Q1190.93 1557.67 1194.17 1560.85 Q1197.45 1564 1203.28 1564 Q1206.65 1564 1209.8 1563.17 Q1212.98 1562.35 1216.1 1560.69 L1216.1 1566.23 Q1212.95 1567.57 1209.64 1568.27 Q1206.33 1568.97 1202.93 1568.97 Q1194.4 1568.97 1189.4 1564 Q1184.43 1559.04 1184.43 1550.57 Q1184.43 1541.82 1189.14 1536.69 Q1193.89 1531.54 1201.91 1531.54 Q1209.1 1531.54 1213.27 1536.18 Q1217.47 1540.8 1217.47 1548.76 M1211.62 1547.04 Q1211.55 1542.23 1208.91 1539.37 Q1206.3 1536.5 1201.97 1536.5 Q1197.07 1536.5 1194.11 1539.27 Q1191.18 1542.04 1190.74 1547.07 L1211.62 1547.04 Z" fill="#000000" fill-rule="nonzero" fill-opacity="1" /><path clip-path="url(#clip790)" d="M1237.49 1520.52 L1242.9 1520.52 L1226.35 1574.09 L1220.94 1574.09 L1237.49 1520.52 Z" fill="#000000" fill-rule="nonzero" fill-opacity="1" /><path clip-path="url(#clip790)" d="M1271.77 1533.45 L1271.77 1538.98 Q1269.29 1537.71 1266.62 1537.07 Q1263.94 1536.44 1261.08 1536.44 Q1256.72 1536.44 1254.52 1537.77 Q1252.36 1539.11 1252.36 1541.79 Q1252.36 1543.82 1253.92 1545 Q1255.48 1546.15 1260.19 1547.2 L1262.19 1547.64 Q1268.43 1548.98 1271.04 1551.43 Q1273.68 1553.85 1273.68 1558.21 Q1273.68 1563.17 1269.73 1566.07 Q1265.82 1568.97 1258.94 1568.97 Q1256.08 1568.97 1252.96 1568.39 Q1249.87 1567.85 1246.44 1566.74 L1246.44 1560.69 Q1249.68 1562.38 1252.83 1563.24 Q1255.98 1564.07 1259.07 1564.07 Q1263.21 1564.07 1265.44 1562.66 Q1267.67 1561.23 1267.67 1558.65 Q1267.67 1556.27 1266.04 1554.99 Q1264.45 1553.72 1259.01 1552.54 L1256.97 1552.07 Q1251.53 1550.92 1249.11 1548.56 Q1246.69 1546.18 1246.69 1542.04 Q1246.69 1537.01 1250.26 1534.27 Q1253.82 1531.54 1260.38 1531.54 Q1263.62 1531.54 1266.49 1532.01 Q1269.35 1532.49 1271.77 1533.45 Z" fill="#000000" fill-rule="nonzero" fill-opacity="1" /><path clip-path="url(#clip790)" d="M1312.64 1546.53 L1312.64 1568.04 L1306.78 1568.04 L1306.78 1546.72 Q1306.78 1541.66 1304.81 1539.14 Q1302.84 1536.63 1298.89 1536.63 Q1294.15 1536.63 1291.41 1539.65 Q1288.67 1542.68 1288.67 1547.9 L1288.67 1568.04 L1282.78 1568.04 L1282.78 1532.4 L1288.67 1532.4 L1288.67 1537.93 Q1290.77 1534.72 1293.61 1533.13 Q1296.47 1531.54 1300.19 1531.54 Q1306.34 1531.54 1309.49 1535.36 Q1312.64 1539.14 1312.64 1546.53 Z" fill="#000000" fill-rule="nonzero" fill-opacity="1" /><path clip-path="url(#clip790)" d="M1338.13 1536.5 Q1333.42 1536.5 1330.69 1540.19 Q1327.95 1543.85 1327.95 1550.25 Q1327.95 1556.65 1330.65 1560.34 Q1333.39 1564 1338.13 1564 Q1342.81 1564 1345.55 1560.31 Q1348.29 1556.62 1348.29 1550.25 Q1348.29 1543.92 1345.55 1540.23 Q1342.81 1536.5 1338.13 1536.5 M1338.13 1531.54 Q1345.77 1531.54 1350.13 1536.5 Q1354.49 1541.47 1354.49 1550.25 Q1354.49 1559 1350.13 1564 Q1345.77 1568.97 1338.13 1568.97 Q1330.46 1568.97 1326.1 1564 Q1321.77 1559 1321.77 1550.25 Q1321.77 1541.47 1326.1 1536.5 Q1330.46 1531.54 1338.13 1531.54 Z" fill="#000000" fill-rule="nonzero" fill-opacity="1" /><path clip-path="url(#clip790)" d="M1360.8 1532.4 L1366.65 1532.4 L1373.97 1560.21 L1381.26 1532.4 L1388.17 1532.4 L1395.49 1560.21 L1402.78 1532.4 L1408.63 1532.4 L1399.31 1568.04 L1392.4 1568.04 L1384.73 1538.83 L1377.03 1568.04 L1370.12 1568.04 L1360.8 1532.4 Z" fill="#000000" fill-rule="nonzero" fill-opacity="1" /><path clip-path="url(#clip790)" d="M1437.69 1518.52 L1451.19 1518.52 L1451.19 1523.07 L1443.55 1523.07 L1443.55 1572.09 L1451.19 1572.09 L1451.19 1576.64 L1437.69 1576.64 L1437.69 1518.52 Z" fill="#000000" fill-rule="nonzero" fill-opacity="1" /><path clip-path="url(#clip790)" d="M1487.12 1549.81 Q1487.12 1543.44 1484.48 1539.94 Q1481.87 1536.44 1477.13 1536.44 Q1472.42 1536.44 1469.78 1539.94 Q1467.17 1543.44 1467.17 1549.81 Q1467.17 1556.14 1469.78 1559.64 Q1472.42 1563.14 1477.13 1563.14 Q1481.87 1563.14 1484.48 1559.64 Q1487.12 1556.14 1487.12 1549.81 M1492.98 1563.62 Q1492.98 1572.72 1488.94 1577.15 Q1484.9 1581.6 1476.56 1581.6 Q1473.47 1581.6 1470.73 1581.13 Q1467.99 1580.68 1465.42 1579.72 L1465.42 1574.03 Q1467.99 1575.43 1470.51 1576.1 Q1473.02 1576.76 1475.63 1576.76 Q1481.39 1576.76 1484.26 1573.74 Q1487.12 1570.75 1487.12 1564.67 L1487.12 1561.77 Q1485.31 1564.92 1482.48 1566.48 Q1479.64 1568.04 1475.7 1568.04 Q1469.14 1568.04 1465.13 1563.05 Q1461.12 1558.05 1461.12 1549.81 Q1461.12 1541.53 1465.13 1536.53 Q1469.14 1531.54 1475.7 1531.54 Q1479.64 1531.54 1482.48 1533.1 Q1485.31 1534.66 1487.12 1537.81 L1487.12 1532.4 L1492.98 1532.4 L1492.98 1563.62 Z" fill="#000000" fill-rule="nonzero" fill-opacity="1" /><path clip-path="url(#clip790)" d="M1515.45 1520.52 L1520.86 1520.52 L1504.31 1574.09 L1498.9 1574.09 L1515.45 1520.52 Z" fill="#000000" fill-rule="nonzero" fill-opacity="1" /><path clip-path="url(#clip790)" d="M1526.78 1518.52 L1532.67 1518.52 L1532.67 1547.77 L1550.14 1532.4 L1557.62 1532.4 L1538.72 1549.07 L1558.42 1568.04 L1550.78 1568.04 L1532.67 1550.63 L1532.67 1568.04 L1526.78 1568.04 L1526.78 1518.52 Z" fill="#000000" fill-rule="nonzero" fill-opacity="1" /><path clip-path="url(#clip790)" d="M1588.21 1549.81 Q1588.21 1543.44 1585.57 1539.94 Q1582.96 1536.44 1578.22 1536.44 Q1573.51 1536.44 1570.86 1539.94 Q1568.25 1543.44 1568.25 1549.81 Q1568.25 1556.14 1570.86 1559.64 Q1573.51 1563.14 1578.22 1563.14 Q1582.96 1563.14 1585.57 1559.64 Q1588.21 1556.14 1588.21 1549.81 M1594.07 1563.62 Q1594.07 1572.72 1590.02 1577.15 Q1585.98 1581.6 1577.64 1581.6 Q1574.56 1581.6 1571.82 1581.13 Q1569.08 1580.68 1566.5 1579.72 L1566.5 1574.03 Q1569.08 1575.43 1571.6 1576.1 Q1574.11 1576.76 1576.72 1576.76 Q1582.48 1576.76 1585.35 1573.74 Q1588.21 1570.75 1588.21 1564.67 L1588.21 1561.77 Q1586.4 1564.92 1583.56 1566.48 Q1580.73 1568.04 1576.78 1568.04 Q1570.23 1568.04 1566.22 1563.05 Q1562.21 1558.05 1562.21 1549.81 Q1562.21 1541.53 1566.22 1536.53 Q1570.23 1531.54 1576.78 1531.54 Q1580.73 1531.54 1583.56 1533.1 Q1586.4 1534.66 1588.21 1537.81 L1588.21 1532.4 L1594.07 1532.4 L1594.07 1563.62 Z" fill="#000000" fill-rule="nonzero" fill-opacity="1" /><path clip-path="url(#clip790)" d="M1619.82 1518.52 L1619.82 1576.64 L1606.32 1576.64 L1606.32 1572.09 L1613.93 1572.09 L1613.93 1523.07 L1606.32 1523.07 L1606.32 1518.52 L1619.82 1518.52 Z" fill="#000000" fill-rule="nonzero" fill-opacity="1" /><polyline clip-path="url(#clip792)" style="stroke:#000000; stroke-linecap:round; stroke-linejoin:round; stroke-width:2; stroke-opacity:0.1; fill:none" points="175.445,1400.58 2352.76,1400.58 "/>
<polyline clip-path="url(#clip792)" style="stroke:#000000; stroke-linecap:round; stroke-linejoin:round; stroke-width:2; stroke-opacity:0.1; fill:none" points="175.445,1039.59 2352.76,1039.59 "/>
<polyline clip-path="url(#clip792)" style="stroke:#000000; stroke-linecap:round; stroke-linejoin:round; stroke-width:2; stroke-opacity:0.1; fill:none" points="175.445,678.598 2352.76,678.598 "/>
<polyline clip-path="url(#clip792)" style="stroke:#000000; stroke-linecap:round; stroke-linejoin:round; stroke-width:2; stroke-opacity:0.1; fill:none" points="175.445,317.606 2352.76,317.606 "/>
<polyline clip-path="url(#clip790)" style="stroke:#000000; stroke-linecap:round; stroke-linejoin:round; stroke-width:4; stroke-opacity:1; fill:none" points="175.445,1423.18 175.445,47.2441 "/>
<polyline clip-path="url(#clip790)" style="stroke:#000000; stroke-linecap:round; stroke-linejoin:round; stroke-width:4; stroke-opacity:1; fill:none" points="175.445,1400.58 194.343,1400.58 "/>
<polyline clip-path="url(#clip790)" style="stroke:#000000; stroke-linecap:round; stroke-linejoin:round; stroke-width:4; stroke-opacity:1; fill:none" points="175.445,1039.59 194.343,1039.59 "/>
<polyline clip-path="url(#clip790)" style="stroke:#000000; stroke-linecap:round; stroke-linejoin:round; stroke-width:4; stroke-opacity:1; fill:none" points="175.445,678.598 194.343,678.598 "/>
<polyline clip-path="url(#clip790)" style="stroke:#000000; stroke-linecap:round; stroke-linejoin:round; stroke-width:4; stroke-opacity:1; fill:none" points="175.445,317.606 194.343,317.606 "/>
<path clip-path="url(#clip790)" d="M127.501 1386.38 Q123.89 1386.38 122.061 1389.95 Q120.255 1393.49 120.255 1400.62 Q120.255 1407.72 122.061 1411.29 Q123.89 1414.83 127.501 1414.83 Q131.135 1414.83 132.941 1411.29 Q134.769 1407.72 134.769 1400.62 Q134.769 1393.49 132.941 1389.95 Q131.135 1386.38 127.501 1386.38 M127.501 1382.68 Q133.311 1382.68 136.367 1387.28 Q139.445 1391.87 139.445 1400.62 Q139.445 1409.34 136.367 1413.95 Q133.311 1418.53 127.501 1418.53 Q121.691 1418.53 118.612 1413.95 Q115.556 1409.34 115.556 1400.62 Q115.556 1391.87 118.612 1387.28 Q121.691 1382.68 127.501 1382.68 Z" fill="#000000" fill-rule="nonzero" fill-opacity="1" /><path clip-path="url(#clip790)" d="M123.126 1052.94 L139.445 1052.94 L139.445 1056.87 L117.501 1056.87 L117.501 1052.94 Q120.163 1050.18 124.746 1045.55 Q129.353 1040.9 130.533 1039.56 Q132.779 1037.03 133.658 1035.3 Q134.561 1033.54 134.561 1031.85 Q134.561 1029.09 132.617 1027.36 Q130.695 1025.62 127.593 1025.62 Q125.394 1025.62 122.941 1026.38 Q120.51 1027.15 117.732 1028.7 L117.732 1023.98 Q120.556 1022.84 123.01 1022.26 Q125.464 1021.69 127.501 1021.69 Q132.871 1021.69 136.066 1024.37 Q139.26 1027.06 139.26 1031.55 Q139.26 1033.68 138.45 1035.6 Q137.663 1037.5 135.556 1040.09 Q134.978 1040.76 131.876 1043.98 Q128.774 1047.17 123.126 1052.94 Z" fill="#000000" fill-rule="nonzero" fill-opacity="1" /><path clip-path="url(#clip790)" d="M129.862 665.392 L118.056 683.841 L129.862 683.841 L129.862 665.392 M128.635 661.318 L134.515 661.318 L134.515 683.841 L139.445 683.841 L139.445 687.73 L134.515 687.73 L134.515 695.878 L129.862 695.878 L129.862 687.73 L114.26 687.73 L114.26 683.216 L128.635 661.318 Z" fill="#000000" fill-rule="nonzero" fill-opacity="1" /><path clip-path="url(#clip790)" d="M127.917 315.742 Q124.769 315.742 122.918 317.895 Q121.089 320.048 121.089 323.798 Q121.089 327.525 122.918 329.701 Q124.769 331.853 127.917 331.853 Q131.066 331.853 132.894 329.701 Q134.746 327.525 134.746 323.798 Q134.746 320.048 132.894 317.895 Q131.066 315.742 127.917 315.742 M137.2 301.09 L137.2 305.349 Q135.441 304.516 133.635 304.076 Q131.853 303.636 130.093 303.636 Q125.464 303.636 123.01 306.761 Q120.58 309.886 120.232 316.205 Q121.598 314.191 123.658 313.127 Q125.718 312.039 128.195 312.039 Q133.404 312.039 136.413 315.21 Q139.445 318.358 139.445 323.798 Q139.445 329.122 136.297 332.339 Q133.149 335.557 127.917 335.557 Q121.922 335.557 118.751 330.974 Q115.58 326.367 115.58 317.64 Q115.58 309.446 119.468 304.585 Q123.357 299.701 129.908 299.701 Q131.667 299.701 133.45 300.048 Q135.255 300.395 137.2 301.09 Z" fill="#000000" fill-rule="nonzero" fill-opacity="1" /><path clip-path="url(#clip790)" d="M18.2347 1090.74 L28.3562 1090.74 L28.3562 1078.67 L32.9077 1078.67 L32.9077 1090.74 L52.2594 1090.74 Q56.6199 1090.74 57.8613 1089.56 Q59.1026 1088.35 59.1026 1084.69 L59.1026 1078.67 L64.0042 1078.67 L64.0042 1084.69 Q64.0042 1091.47 61.4897 1094.05 Q58.9434 1096.62 52.2594 1096.62 L32.9077 1096.62 L32.9077 1100.92 L28.3562 1100.92 L28.3562 1096.62 L18.2347 1096.62 L18.2347 1090.74 Z" fill="#000000" fill-rule="nonzero" fill-opacity="1" /><path clip-path="url(#clip790)" d="M44.7161 1040.48 L47.5806 1040.48 L47.5806 1067.41 Q53.6281 1067.02 56.8109 1063.78 Q59.9619 1060.5 59.9619 1054.67 Q59.9619 1051.3 59.1344 1048.15 Q58.3069 1044.97 56.6518 1041.85 L62.1899 1041.85 Q63.5267 1045 64.227 1048.31 Q64.9272 1051.62 64.9272 1055.03 Q64.9272 1063.56 59.9619 1068.55 Q54.9967 1073.52 46.5303 1073.52 Q37.7774 1073.52 32.6531 1068.81 Q27.4968 1064.06 27.4968 1056.04 Q27.4968 1048.85 32.1438 1044.68 Q36.7589 1040.48 44.7161 1040.48 M42.9973 1046.34 Q38.1912 1046.4 35.3266 1049.04 Q32.4621 1051.65 32.4621 1055.98 Q32.4621 1060.88 35.2312 1063.84 Q38.0002 1066.77 43.0292 1067.22 L42.9973 1046.34 Z" fill="#000000" fill-rule="nonzero" fill-opacity="1" /><path clip-path="url(#clip790)" d="M33.8307 1010.21 Q33.2578 1011.2 33.0032 1012.37 Q32.7167 1013.52 32.7167 1014.92 Q32.7167 1019.89 35.9632 1022.56 Q39.1779 1025.2 45.2253 1025.2 L64.0042 1025.2 L64.0042 1031.09 L28.3562 1031.09 L28.3562 1025.2 L33.8944 1025.2 Q30.6479 1023.36 29.0883 1020.4 Q27.4968 1017.44 27.4968 1013.2 Q27.4968 1012.6 27.5923 1011.87 Q27.656 1011.13 27.8151 1010.24 L33.8307 1010.21 Z" fill="#000000" fill-rule="nonzero" fill-opacity="1" /><path clip-path="url(#clip790)" d="M35.1993 977.459 Q31.2526 975.263 29.3747 972.207 Q27.4968 969.152 27.4968 965.014 Q27.4968 959.444 31.4117 956.42 Q35.2948 953.397 42.4881 953.397 L64.0042 953.397 L64.0042 959.285 L42.679 959.285 Q37.5546 959.285 35.072 961.099 Q32.5894 962.913 32.5894 966.637 Q32.5894 971.189 35.6131 973.83 Q38.6368 976.472 43.8567 976.472 L64.0042 976.472 L64.0042 982.361 L42.679 982.361 Q37.5228 982.361 35.072 984.175 Q32.5894 985.989 32.5894 989.777 Q32.5894 994.264 35.6449 996.906 Q38.6686 999.548 43.8567 999.548 L64.0042 999.548 L64.0042 1005.44 L28.3562 1005.44 L28.3562 999.548 L33.8944 999.548 Q30.616 997.543 29.0564 994.742 Q27.4968 991.941 27.4968 988.09 Q27.4968 984.207 29.4702 981.501 Q31.4436 978.764 35.1993 977.459 Z" fill="#000000" fill-rule="nonzero" fill-opacity="1" /><path clip-path="url(#clip790)" d="M28.3562 941.715 L28.3562 935.859 L64.0042 935.859 L64.0042 941.715 L28.3562 941.715 M14.479 941.715 L14.479 935.859 L21.895 935.859 L21.895 941.715 L14.479 941.715 Z" fill="#000000" fill-rule="nonzero" fill-opacity="1" /><path clip-path="url(#clip790)" d="M42.4881 893.973 L64.0042 893.973 L64.0042 899.829 L42.679 899.829 Q37.6183 899.829 35.1038 901.803 Q32.5894 903.776 32.5894 907.723 Q32.5894 912.465 35.6131 915.202 Q38.6368 917.94 43.8567 917.94 L64.0042 917.94 L64.0042 923.828 L28.3562 923.828 L28.3562 917.94 L33.8944 917.94 Q30.6797 915.839 29.0883 913.006 Q27.4968 910.142 27.4968 906.418 Q27.4968 900.275 31.3163 897.124 Q35.1038 893.973 42.4881 893.973 Z" fill="#000000" fill-rule="nonzero" fill-opacity="1" /><path clip-path="url(#clip790)" d="M46.0847 866.091 Q46.0847 873.189 47.7079 875.926 Q49.3312 878.663 53.2461 878.663 Q56.3653 878.663 58.2114 876.626 Q60.0256 874.557 60.0256 871.024 Q60.0256 866.155 56.5881 863.226 Q53.1188 860.266 47.3897 860.266 L46.0847 860.266 L46.0847 866.091 M43.6657 854.41 L64.0042 854.41 L64.0042 860.266 L58.5933 860.266 Q61.8398 862.271 63.3994 865.263 Q64.9272 868.255 64.9272 872.584 Q64.9272 878.058 61.8716 881.305 Q58.7843 884.52 53.6281 884.52 Q47.6125 884.52 44.5569 880.509 Q41.5014 876.467 41.5014 868.478 L41.5014 860.266 L40.9285 860.266 Q36.8862 860.266 34.6901 862.94 Q32.4621 865.582 32.4621 870.388 Q32.4621 873.443 33.1941 876.34 Q33.9262 879.236 35.3903 881.91 L29.9795 881.91 Q28.7381 878.695 28.1334 875.671 Q27.4968 872.648 27.4968 869.783 Q27.4968 862.049 31.5072 858.229 Q35.5176 854.41 43.6657 854.41 Z" fill="#000000" fill-rule="nonzero" fill-opacity="1" /><path clip-path="url(#clip790)" d="M14.479 842.347 L14.479 836.49 L64.0042 836.49 L64.0042 842.347 L14.479 842.347 Z" fill="#000000" fill-rule="nonzero" fill-opacity="1" /><path clip-path="url(#clip790)" d="M28.3562 807.717 L28.3562 801.511 L58.275 790.371 L28.3562 779.231 L28.3562 773.024 L64.0042 786.392 L64.0042 794.349 L28.3562 807.717 Z" fill="#000000" fill-rule="nonzero" fill-opacity="1" /><path clip-path="url(#clip790)" d="M44.7161 734.448 L47.5806 734.448 L47.5806 761.375 Q53.6281 760.993 56.8109 757.747 Q59.9619 754.468 59.9619 748.644 Q59.9619 745.27 59.1344 742.119 Q58.3069 738.936 56.6518 735.817 L62.1899 735.817 Q63.5267 738.968 64.227 742.278 Q64.9272 745.588 64.9272 748.994 Q64.9272 757.524 59.9619 762.521 Q54.9967 767.486 46.5303 767.486 Q37.7774 767.486 32.6531 762.775 Q27.4968 758.033 27.4968 750.012 Q27.4968 742.819 32.1438 738.649 Q36.7589 734.448 44.7161 734.448 M42.9973 740.305 Q38.1912 740.368 35.3266 743.01 Q32.4621 745.62 32.4621 749.949 Q32.4621 754.85 35.2312 757.81 Q38.0002 760.738 43.0292 761.184 L42.9973 740.305 Z" fill="#000000" fill-rule="nonzero" fill-opacity="1" /><path clip-path="url(#clip790)" d="M14.479 724.836 L14.479 718.979 L64.0042 718.979 L64.0042 724.836 L14.479 724.836 Z" fill="#000000" fill-rule="nonzero" fill-opacity="1" /><path clip-path="url(#clip790)" d="M32.4621 692.912 Q32.4621 697.622 36.1542 700.36 Q39.8145 703.097 46.212 703.097 Q52.6095 703.097 56.3017 700.392 Q59.9619 697.654 59.9619 692.912 Q59.9619 688.233 56.2698 685.496 Q52.5777 682.759 46.212 682.759 Q39.8781 682.759 36.186 685.496 Q32.4621 688.233 32.4621 692.912 M27.4968 692.912 Q27.4968 685.273 32.4621 680.912 Q37.4273 676.552 46.212 676.552 Q54.9649 676.552 59.9619 680.912 Q64.9272 685.273 64.9272 692.912 Q64.9272 700.583 59.9619 704.943 Q54.9649 709.272 46.212 709.272 Q37.4273 709.272 32.4621 704.943 Q27.4968 700.583 27.4968 692.912 Z" fill="#000000" fill-rule="nonzero" fill-opacity="1" /><path clip-path="url(#clip790)" d="M29.7248 641.19 L35.1993 641.19 Q33.8307 643.673 33.1623 646.188 Q32.4621 648.67 32.4621 651.216 Q32.4621 656.914 36.0905 660.065 Q39.6872 663.216 46.212 663.216 Q52.7369 663.216 56.3653 660.065 Q59.9619 656.914 59.9619 651.216 Q59.9619 648.67 59.2935 646.188 Q58.5933 643.673 57.2247 641.19 L62.6355 641.19 Q63.7814 643.641 64.3543 646.283 Q64.9272 648.893 64.9272 651.853 Q64.9272 659.906 59.8664 664.648 Q54.8057 669.391 46.212 669.391 Q37.491 669.391 32.4939 664.616 Q27.4968 659.81 27.4968 651.471 Q27.4968 648.766 28.0697 646.188 Q28.6108 643.609 29.7248 641.19 Z" fill="#000000" fill-rule="nonzero" fill-opacity="1" /><path clip-path="url(#clip790)" d="M28.3562 631.005 L28.3562 625.149 L64.0042 625.149 L64.0042 631.005 L28.3562 631.005 M14.479 631.005 L14.479 625.149 L21.895 625.149 L21.895 631.005 L14.479 631.005 Z" fill="#000000" fill-rule="nonzero" fill-opacity="1" /><path clip-path="url(#clip790)" d="M18.2347 607.102 L28.3562 607.102 L28.3562 595.039 L32.9077 595.039 L32.9077 607.102 L52.2594 607.102 Q56.6199 607.102 57.8613 605.924 Q59.1026 604.715 59.1026 601.055 L59.1026 595.039 L64.0042 595.039 L64.0042 601.055 Q64.0042 607.834 61.4897 610.412 Q58.9434 612.99 52.2594 612.99 L32.9077 612.99 L32.9077 617.287 L28.3562 617.287 L28.3562 612.99 L18.2347 612.99 L18.2347 607.102 Z" fill="#000000" fill-rule="nonzero" fill-opacity="1" /><path clip-path="url(#clip790)" d="M67.3143 572.505 Q73.68 574.987 75.6216 577.342 Q77.5631 579.698 77.5631 583.644 L77.5631 588.323 L72.6615 588.323 L72.6615 584.886 Q72.6615 582.467 71.5157 581.13 Q70.3699 579.793 66.1048 578.17 L63.4312 577.12 L28.3562 591.538 L28.3562 585.331 L56.238 574.191 L28.3562 563.051 L28.3562 556.845 L67.3143 572.505 Z" fill="#000000" fill-rule="nonzero" fill-opacity="1" /><path clip-path="url(#clip790)" d="M14.479 528.581 L14.479 515.086 L19.0304 515.086 L19.0304 522.725 L68.0464 522.725 L68.0464 515.086 L72.5979 515.086 L72.5979 528.581 L14.479 528.581 Z" fill="#000000" fill-rule="nonzero" fill-opacity="1" /><path clip-path="url(#clip790)" d="M35.1993 474.855 Q31.2526 472.658 29.3747 469.603 Q27.4968 466.547 27.4968 462.41 Q27.4968 456.84 31.4117 453.816 Q35.2948 450.792 42.4881 450.792 L64.0042 450.792 L64.0042 456.68 L42.679 456.68 Q37.5546 456.68 35.072 458.495 Q32.5894 460.309 32.5894 464.033 Q32.5894 468.584 35.6131 471.226 Q38.6368 473.868 43.8567 473.868 L64.0042 473.868 L64.0042 479.756 L42.679 479.756 Q37.5228 479.756 35.072 481.57 Q32.5894 483.385 32.5894 487.172 Q32.5894 491.66 35.6449 494.302 Q38.6686 496.944 43.8567 496.944 L64.0042 496.944 L64.0042 502.832 L28.3562 502.832 L28.3562 496.944 L33.8944 496.944 Q30.616 494.938 29.0564 492.137 Q27.4968 489.337 27.4968 485.485 Q27.4968 481.602 29.4702 478.897 Q31.4436 476.16 35.1993 474.855 Z" fill="#000000" fill-rule="nonzero" fill-opacity="1" /><path clip-path="url(#clip790)" d="M16.4842 428.703 L16.4842 423.292 L70.0516 439.843 L70.0516 445.254 L16.4842 428.703 Z" fill="#000000" fill-rule="nonzero" fill-opacity="1" /><path clip-path="url(#clip790)" d="M29.4065 394.424 L34.9447 394.424 Q33.6716 396.906 33.035 399.58 Q32.3984 402.254 32.3984 405.118 Q32.3984 409.479 33.7352 411.675 Q35.072 413.839 37.7456 413.839 Q39.7826 413.839 40.9603 412.28 Q42.1061 410.72 43.1565 406.009 L43.6021 404.004 Q44.9389 397.766 47.3897 395.156 Q49.8086 392.514 54.1691 392.514 Q59.1344 392.514 62.0308 396.461 Q64.9272 400.376 64.9272 407.251 Q64.9272 410.115 64.3543 413.235 Q63.8132 416.322 62.6992 419.759 L56.6518 419.759 Q58.3387 416.513 59.198 413.362 Q60.0256 410.211 60.0256 407.123 Q60.0256 402.986 58.6251 400.758 Q57.1929 398.53 54.6147 398.53 Q52.2276 398.53 50.9545 400.153 Q49.6813 401.744 48.5037 407.187 L48.0262 409.224 Q46.8804 414.667 44.5251 417.086 Q42.138 419.505 38.0002 419.505 Q32.9713 419.505 30.2341 415.94 Q27.4968 412.375 27.4968 405.818 Q27.4968 402.572 27.9743 399.707 Q28.4517 396.843 29.4065 394.424 Z" fill="#000000" fill-rule="nonzero" fill-opacity="1" /><path clip-path="url(#clip790)" d="M14.479 369.502 L72.5979 369.502 L72.5979 382.997 L68.0464 382.997 L68.0464 375.39 L19.0304 375.39 L19.0304 382.997 L14.479 382.997 L14.479 369.502 Z" fill="#000000" fill-rule="nonzero" fill-opacity="1" /><polyline clip-path="url(#clip792)" style="stroke:#0000ff; stroke-linecap:round; stroke-linejoin:round; stroke-width:12; stroke-opacity:1; fill:none" points="237.067,1148.18 257.815,667.712 278.564,601.392 299.312,559.846 320.06,529.064 340.808,504.414 361.556,483.756 382.304,465.919 403.052,450.188 423.801,436.092 444.549,423.306 465.297,411.593 486.045,400.778 506.793,390.725 527.541,381.327 548.289,372.499 569.038,364.171 589.786,356.287 610.534,348.8 631.282,341.667 652.03,334.856 672.778,328.337 693.526,322.083 714.275,316.074 735.023,310.289 755.771,304.712 776.519,299.326 797.267,294.118 818.015,289.077 838.764,284.191 859.512,279.45 880.26,274.845 901.008,270.369 921.756,266.013 942.504,261.771 963.252,257.638 984.001,253.606 1004.75,249.671 1025.5,245.828 1046.24,242.072 1066.99,238.4 1087.74,234.808 1108.49,231.291 1129.24,227.846 1149.99,224.471 1170.73,221.163 1191.48,217.918 1212.23,214.735 1232.98,211.61 1253.73,208.541 1274.47,205.527 1295.22,202.566 1315.97,199.654 1336.72,196.791 1357.47,193.975 1378.22,191.205 1398.96,188.478 1419.71,185.793 1440.46,183.149 1461.21,180.545 1481.96,177.979 1502.7,175.45 1523.45,172.958 1544.2,170.5 1564.95,168.076 1585.7,165.685 1606.45,163.326 1627.19,160.998 1647.94,158.701 1668.69,156.432 1689.44,154.193 1710.19,151.981 1730.93,149.796 1751.68,147.637 1772.43,145.505 1793.18,143.397 1813.93,141.314 1834.67,139.255 1855.42,137.219 1876.17,135.205 1896.92,133.214 1917.67,131.245 1938.42,129.296 1959.16,127.369 1979.91,125.461 2000.66,123.573 2021.41,121.705 2042.16,119.856 2062.9,118.025 2083.65,116.212 2104.4,114.417 2125.15,112.639 2145.9,110.878 2166.65,109.134 2187.39,107.407 2208.14,105.695 2228.89,103.999 2249.64,102.318 2270.39,100.653 2291.13,99.002 "/>
<polyline clip-path="url(#clip792)" style="stroke:#0000ff; stroke-linecap:round; stroke-linejoin:round; stroke-width:12; stroke-opacity:1; fill:none" stroke-dasharray="6, 12" points="237.067,1365.41 257.815,1073.88 278.564,1014.99 299.312,976.633 320.06,947.598 340.808,924.021 361.556,904.068 382.304,886.713 403.052,871.321 423.801,857.469 444.549,844.86 465.297,833.278 486.045,822.559 506.793,812.577 527.541,803.232 548.289,794.445 569.038,786.147 589.786,778.287 610.534,770.817 631.282,763.699 652.03,756.9 672.778,750.392 693.526,744.148 714.275,738.149 735.023,732.375 755.771,726.808 776.519,721.434 797.267,716.24 818.015,711.214 838.764,706.344 859.512,701.621 880.26,697.035 901.008,692.58 921.756,688.247 942.504,684.03 963.252,679.923 984.001,675.92 1004.75,672.015 1025.5,668.203 1046.24,664.482 1066.99,660.845 1087.74,657.289 1108.49,653.811 1129.24,650.406 1149.99,647.073 1170.73,643.808 1191.48,640.608 1212.23,637.471 1232.98,634.394 1253.73,631.375 1274.47,628.412 1295.22,625.502 1315.97,622.644 1336.72,619.836 1357.47,617.076 1378.22,614.362 1398.96,611.694 1419.71,609.068 1440.46,606.485 1461.21,603.943 1481.96,601.44 1502.7,598.975 1523.45,596.548 1544.2,594.156 1564.95,591.799 1585.7,589.476 1606.45,587.186 1627.19,584.928 1647.94,582.701 1668.69,580.504 1689.44,578.337 1710.19,576.198 1730.93,574.087 1751.68,572.004 1772.43,569.947 1793.18,567.915 1813.93,565.909 1834.67,563.928 1855.42,561.97 1876.17,560.036 1896.92,558.124 1917.67,556.235 1938.42,554.368 1959.16,552.522 1979.91,550.697 2000.66,548.892 2021.41,547.107 2042.16,545.342 2062.9,543.595 2083.65,541.868 2104.4,540.158 2125.15,538.466 2145.9,536.792 2166.65,535.135 2187.39,533.495 2208.14,531.871 2228.89,530.264 2249.64,528.672 2270.39,527.096 2291.13,525.535 "/>
<polyline clip-path="url(#clip792)" style="stroke:#008000; stroke-linecap:round; stroke-linejoin:round; stroke-width:12; stroke-opacity:1; fill:none" points="237.067,1175.86 257.815,692.432 278.564,623.194 299.312,579.592 320.06,547.18 340.808,521.16 361.556,499.313 382.304,480.418 403.052,463.73 423.801,448.76 444.549,435.165 465.297,422.701 486.045,411.181 506.793,400.464 527.541,390.438 548.289,381.014 569.038,372.118 589.786,363.692 610.534,355.684 631.282,348.052 652.03,340.76 672.778,333.777 693.526,327.077 714.275,320.634 735.023,314.43 755.771,308.446 776.519,302.665 797.267,297.074 818.015,291.659 838.764,286.409 859.512,281.313 880.26,276.362 901.008,271.548 921.756,266.862 942.504,262.297 963.252,257.847 984.001,253.506 1004.75,249.268 1025.5,245.128 1046.24,241.081 1066.99,237.123 1087.74,233.249 1108.49,229.457 1129.24,225.742 1149.99,222.101 1170.73,218.531 1191.48,215.029 1212.23,211.592 1232.98,208.218 1253.73,204.904 1274.47,201.648 1295.22,198.448 1315.97,195.302 1336.72,192.208 1357.47,189.164 1378.22,186.168 1398.96,183.219 1419.71,180.316 1440.46,177.456 1461.21,174.638 1481.96,171.862 1502.7,169.125 1523.45,166.427 1544.2,163.766 1564.95,161.141 1585.7,158.552 1606.45,155.997 1627.19,153.475 1647.94,150.986 1668.69,148.528 1689.44,146.101 1710.19,143.704 1730.93,141.335 1751.68,138.995 1772.43,136.683 1793.18,134.397 1813.93,132.138 1834.67,129.904 1855.42,127.695 1876.17,125.511 1896.92,123.35 1917.67,121.213 1938.42,119.098 1959.16,117.005 1979.91,114.935 2000.66,112.885 2021.41,110.856 2042.16,108.848 2062.9,106.859 2083.65,104.89 2104.4,102.94 2125.15,101.009 2145.9,99.0954 2166.65,97.2002 2187.39,95.3225 2208.14,93.4621 2228.89,91.6185 2249.64,89.7914 2270.39,87.9806 2291.13,86.1857 "/>
<polyline clip-path="url(#clip792)" style="stroke:#ffc0cb; stroke-linecap:round; stroke-linejoin:round; stroke-width:12; stroke-opacity:1; fill:none" stroke-dasharray="6, 12" points="237.067,1384.24 257.815,1155.67 278.564,1113.39 299.312,1086.57 320.06,1066.56 340.808,1050.47 361.556,1036.93 382.304,1025.21 403.052,1014.85 423.801,1005.55 444.549,997.092 465.297,989.331 486.045,982.153 506.793,975.47 527.541,969.213 548.289,963.328 569.038,957.769 589.786,952.499 610.534,947.488 631.282,942.709 652.03,938.141 672.778,933.763 693.526,929.559 714.275,925.515 735.023,921.619 755.771,917.858 776.519,914.223 797.267,910.706 818.015,907.297 838.764,903.991 859.512,900.78 880.26,897.659 901.008,894.622 921.756,891.665 942.504,888.783 963.252,885.972 984.001,883.229 1004.75,880.549 1025.5,877.93 1046.24,875.369 1066.99,872.863 1087.74,870.41 1108.49,868.007 1129.24,865.651 1149.99,863.342 1170.73,861.077 1191.48,858.854 1212.23,856.672 1232.98,854.528 1253.73,852.422 1274.47,850.352 1295.22,848.317 1315.97,846.315 1336.72,844.346 1357.47,842.407 1378.22,840.499 1398.96,838.62 1419.71,836.769 1440.46,834.945 1461.21,833.148 1481.96,831.376 1502.7,829.629 1523.45,827.906 1544.2,826.206 1564.95,824.529 1585.7,822.874 1606.45,821.24 1627.19,819.627 1647.94,818.034 1668.69,816.46 1689.44,814.906 1710.19,813.371 1730.93,811.853 1751.68,810.353 1772.43,808.871 1793.18,807.405 1813.93,805.956 1834.67,804.522 1855.42,803.104 1876.17,801.702 1896.92,800.314 1917.67,798.941 1938.42,797.582 1959.16,796.236 1979.91,794.905 2000.66,793.587 2021.41,792.281 2042.16,790.989 2062.9,789.708 2083.65,788.44 2104.4,787.184 2125.15,785.94 2145.9,784.707 2166.65,783.485 2187.39,782.275 2208.14,781.075 2228.89,779.885 2249.64,778.706 2270.39,777.537 2291.13,776.378 "/>
<polyline clip-path="url(#clip792)" style="stroke:#ff0000; stroke-linecap:round; stroke-linejoin:round; stroke-width:12; stroke-opacity:1; fill:none" points="237.067,1288.41 257.815,1254.67 278.564,1251.52 299.312,1249.64 320.06,1248.3 340.808,1247.25 361.556,1246.38 382.304,1245.65 403.052,1245.01 423.801,1244.44 444.549,1243.94 465.297,1243.48 486.045,1243.05 506.793,1242.66 527.541,1242.3 548.289,1241.97 569.038,1241.65 589.786,1241.35 610.534,1241.07 631.282,1240.81 652.03,1240.55 672.778,1240.31 693.526,1240.08 714.275,1239.86 735.023,1239.65 755.771,1239.45 776.519,1239.25 797.267,1239.07 818.015,1238.88 838.764,1238.71 859.512,1238.54 880.26,1238.38 901.008,1238.22 921.756,1238.06 942.504,1237.91 963.252,1237.77 984.001,1237.63 1004.75,1237.49 1025.5,1237.35 1046.24,1237.22 1066.99,1237.1 1087.74,1236.97 1108.49,1236.85 1129.24,1236.73 1149.99,1236.61 1170.73,1236.5 1191.48,1236.39 1212.23,1236.28 1232.98,1236.17 1253.73,1236.07 1274.47,1235.97 1295.22,1235.87 1315.97,1235.77 1336.72,1235.67 1357.47,1235.58 1378.22,1235.48 1398.96,1235.39 1419.71,1235.3 1440.46,1235.21 1461.21,1235.12 1481.96,1235.04 1502.7,1234.95 1523.45,1234.87 1544.2,1234.79 1564.95,1234.71 1585.7,1234.63 1606.45,1234.55 1627.19,1234.47 1647.94,1234.4 1668.69,1234.32 1689.44,1234.25 1710.19,1234.18 1730.93,1234.11 1751.68,1234.04 1772.43,1233.97 1793.18,1233.9 1813.93,1233.83 1834.67,1233.76 1855.42,1233.69 1876.17,1233.63 1896.92,1233.56 1917.67,1233.5 1938.42,1233.44 1959.16,1233.37 1979.91,1233.31 2000.66,1233.25 2021.41,1233.19 2042.16,1233.13 2062.9,1233.07 2083.65,1233.01 2104.4,1232.96 2125.15,1232.9 2145.9,1232.84 2166.65,1232.79 2187.39,1232.73 2208.14,1232.68 2228.89,1232.62 2249.64,1232.57 2270.39,1232.52 2291.13,1232.46 "/>
<polyline clip-path="url(#clip792)" style="stroke:#ff0000; stroke-linecap:round; stroke-linejoin:round; stroke-width:12; stroke-opacity:1; fill:none" stroke-dasharray="6, 12" points="237.067,1171.21 257.815,1150.7 278.564,1149.68 299.312,1149.1 320.06,1148.7 340.808,1148.39 361.556,1148.13 382.304,1147.92 403.052,1147.74 423.801,1147.58 444.549,1147.43 465.297,1147.3 486.045,1147.19 506.793,1147.08 527.541,1146.98 548.289,1146.88 569.038,1146.8 589.786,1146.72 610.534,1146.64 631.282,1146.57 652.03,1146.5 672.778,1146.43 693.526,1146.37 714.275,1146.31 735.023,1146.26 755.771,1146.2 776.519,1146.15 797.267,1146.1 818.015,1146.05 838.764,1146 859.512,1145.96 880.26,1145.91 901.008,1145.87 921.756,1145.83 942.504,1145.79 963.252,1145.75 984.001,1145.72 1004.75,1145.68 1025.5,1145.64 1046.24,1145.61 1066.99,1145.58 1087.74,1145.54 1108.49,1145.51 1129.24,1145.48 1149.99,1145.45 1170.73,1145.42 1191.48,1145.39 1212.23,1145.36 1232.98,1145.34 1253.73,1145.31 1274.47,1145.28 1295.22,1145.26 1315.97,1145.23 1336.72,1145.21 1357.47,1145.18 1378.22,1145.16 1398.96,1145.13 1419.71,1145.11 1440.46,1145.09 1461.21,1145.06 1481.96,1145.04 1502.7,1145.02 1523.45,1145 1544.2,1144.98 1564.95,1144.96 1585.7,1144.94 1606.45,1144.92 1627.19,1144.9 1647.94,1144.88 1668.69,1144.86 1689.44,1144.84 1710.19,1144.82 1730.93,1144.8 1751.68,1144.78 1772.43,1144.77 1793.18,1144.75 1813.93,1144.73 1834.67,1144.71 1855.42,1144.7 1876.17,1144.68 1896.92,1144.66 1917.67,1144.65 1938.42,1144.63 1959.16,1144.62 1979.91,1144.6 2000.66,1144.59 2021.41,1144.57 2042.16,1144.55 2062.9,1144.54 2083.65,1144.52 2104.4,1144.51 2125.15,1144.5 2145.9,1144.48 2166.65,1144.47 2187.39,1144.45 2208.14,1144.44 2228.89,1144.43 2249.64,1144.41 2270.39,1144.4 2291.13,1144.39 "/>
<path clip-path="url(#clip790)" d="M248.022 455.989 L861.492 455.989 L861.492 93.1086 L248.022 93.1086  Z" fill="#ffffff" fill-rule="evenodd" fill-opacity="1"/>
<polyline clip-path="url(#clip790)" style="stroke:#000000; stroke-linecap:round; stroke-linejoin:round; stroke-width:4; stroke-opacity:1; fill:none" points="248.022,455.989 861.492,455.989 861.492,93.1086 248.022,93.1086 248.022,455.989 "/>
<polyline clip-path="url(#clip790)" style="stroke:#0000ff; stroke-linecap:round; stroke-linejoin:round; stroke-width:12; stroke-opacity:1; fill:none" points="272.215,144.949 417.369,144.949 "/>
<path clip-path="url(#clip790)" d="M457.95 146.025 Q459.454 146.534 460.866 148.201 Q462.302 149.868 463.737 152.784 L468.482 162.229 L463.459 162.229 L459.038 153.363 Q457.325 149.891 455.704 148.756 Q454.107 147.622 451.329 147.622 L446.237 147.622 L446.237 162.229 L441.561 162.229 L441.561 127.669 L452.116 127.669 Q458.042 127.669 460.959 130.145 Q463.876 132.622 463.876 137.622 Q463.876 140.886 462.348 143.039 Q460.843 145.192 457.95 146.025 M446.237 131.511 L446.237 143.78 L452.116 143.78 Q455.496 143.78 457.209 142.229 Q458.945 140.655 458.945 137.622 Q458.945 134.59 457.209 133.062 Q455.496 131.511 452.116 131.511 L446.237 131.511 Z" fill="#000000" fill-rule="nonzero" fill-opacity="1" /><path clip-path="url(#clip790)" d="M485.056 149.196 Q479.894 149.196 477.903 150.377 Q475.913 151.557 475.913 154.405 Q475.913 156.673 477.394 158.016 Q478.899 159.335 481.468 159.335 Q485.01 159.335 487.139 156.835 Q489.292 154.312 489.292 150.145 L489.292 149.196 L485.056 149.196 M493.551 147.437 L493.551 162.229 L489.292 162.229 L489.292 158.293 Q487.834 160.655 485.658 161.789 Q483.482 162.9 480.334 162.9 Q476.352 162.9 473.991 160.678 Q471.653 158.432 471.653 154.682 Q471.653 150.307 474.57 148.085 Q477.51 145.863 483.32 145.863 L489.292 145.863 L489.292 145.446 Q489.292 142.507 487.348 140.909 Q485.426 139.289 481.931 139.289 Q479.709 139.289 477.602 139.821 Q475.496 140.354 473.552 141.419 L473.552 137.483 Q475.889 136.581 478.089 136.141 Q480.288 135.678 482.371 135.678 Q487.996 135.678 490.774 138.594 Q493.551 141.511 493.551 147.437 Z" fill="#000000" fill-rule="nonzero" fill-opacity="1" /><path clip-path="url(#clip790)" d="M502.325 136.303 L506.584 136.303 L506.584 162.229 L502.325 162.229 L502.325 136.303 M502.325 126.21 L506.584 126.21 L506.584 131.604 L502.325 131.604 L502.325 126.21 Z" fill="#000000" fill-rule="nonzero" fill-opacity="1" /><path clip-path="url(#clip790)" d="M537.047 146.581 L537.047 162.229 L532.787 162.229 L532.787 146.719 Q532.787 143.039 531.352 141.21 Q529.917 139.382 527.047 139.382 Q523.598 139.382 521.607 141.581 Q519.616 143.78 519.616 147.576 L519.616 162.229 L515.334 162.229 L515.334 136.303 L519.616 136.303 L519.616 140.331 Q521.144 137.993 523.204 136.835 Q525.287 135.678 527.996 135.678 Q532.463 135.678 534.755 138.456 Q537.047 141.21 537.047 146.581 Z" fill="#000000" fill-rule="nonzero" fill-opacity="1" /><path clip-path="url(#clip790)" d="M543.389 147.344 L555.866 147.344 L555.866 151.141 L543.389 151.141 L543.389 147.344 Z" fill="#000000" fill-rule="nonzero" fill-opacity="1" /><path clip-path="url(#clip790)" d="M564.06 158.293 L571.699 158.293 L571.699 131.928 L563.389 133.595 L563.389 129.335 L571.653 127.669 L576.329 127.669 L576.329 158.293 L583.968 158.293 L583.968 162.229 L564.06 162.229 L564.06 158.293 Z" fill="#000000" fill-rule="nonzero" fill-opacity="1" /><path clip-path="url(#clip790)" d="M592.995 127.669 L599.963 127.669 L608.782 151.187 L617.648 127.669 L624.616 127.669 L624.616 162.229 L620.055 162.229 L620.055 131.882 L611.143 155.585 L606.444 155.585 L597.532 131.882 L597.532 162.229 L592.995 162.229 L592.995 127.669 Z" fill="#000000" fill-rule="nonzero" fill-opacity="1" /><path clip-path="url(#clip790)" d="M631.56 147.344 L644.037 147.344 L644.037 151.141 L631.56 151.141 L631.56 147.344 Z" fill="#000000" fill-rule="nonzero" fill-opacity="1" /><path clip-path="url(#clip790)" d="M667.879 140.238 L667.879 126.21 L672.138 126.21 L672.138 162.229 L667.879 162.229 L667.879 158.34 Q666.537 160.655 664.476 161.789 Q662.439 162.9 659.569 162.9 Q654.87 162.9 651.907 159.15 Q648.967 155.4 648.967 149.289 Q648.967 143.178 651.907 139.428 Q654.87 135.678 659.569 135.678 Q662.439 135.678 664.476 136.812 Q666.537 137.923 667.879 140.238 M653.365 149.289 Q653.365 153.988 655.287 156.673 Q657.231 159.335 660.611 159.335 Q663.99 159.335 665.935 156.673 Q667.879 153.988 667.879 149.289 Q667.879 144.59 665.935 141.928 Q663.99 139.243 660.611 139.243 Q657.231 139.243 655.287 141.928 Q653.365 144.59 653.365 149.289 Z" fill="#000000" fill-rule="nonzero" fill-opacity="1" /><path clip-path="url(#clip790)" d="M703.087 148.201 L703.087 150.284 L683.504 150.284 Q683.782 154.682 686.143 156.997 Q688.527 159.289 692.763 159.289 Q695.217 159.289 697.509 158.687 Q699.823 158.085 702.092 156.881 L702.092 160.909 Q699.8 161.881 697.393 162.391 Q694.986 162.9 692.509 162.9 Q686.305 162.9 682.671 159.289 Q679.06 155.678 679.06 149.52 Q679.06 143.155 682.486 139.428 Q685.935 135.678 691.768 135.678 Q696.999 135.678 700.032 139.057 Q703.087 142.414 703.087 148.201 M698.828 146.951 Q698.782 143.456 696.861 141.372 Q694.962 139.289 691.814 139.289 Q688.249 139.289 686.097 141.303 Q683.967 143.317 683.643 146.974 L698.828 146.951 Z" fill="#000000" fill-rule="nonzero" fill-opacity="1" /><path clip-path="url(#clip790)" d="M723.203 126.21 L723.203 129.752 L719.129 129.752 Q716.837 129.752 715.934 130.678 Q715.055 131.604 715.055 134.011 L715.055 136.303 L722.069 136.303 L722.069 139.613 L715.055 139.613 L715.055 162.229 L710.772 162.229 L710.772 139.613 L706.698 139.613 L706.698 136.303 L710.772 136.303 L710.772 134.497 Q710.772 130.169 712.786 128.201 Q714.8 126.21 719.175 126.21 L723.203 126.21 Z" fill="#000000" fill-rule="nonzero" fill-opacity="1" /><path clip-path="url(#clip790)" d="M738.55 149.196 Q733.388 149.196 731.397 150.377 Q729.407 151.557 729.407 154.405 Q729.407 156.673 730.888 158.016 Q732.393 159.335 734.962 159.335 Q738.504 159.335 740.633 156.835 Q742.786 154.312 742.786 150.145 L742.786 149.196 L738.55 149.196 M747.045 147.437 L747.045 162.229 L742.786 162.229 L742.786 158.293 Q741.328 160.655 739.152 161.789 Q736.976 162.9 733.828 162.9 Q729.846 162.9 727.485 160.678 Q725.147 158.432 725.147 154.682 Q725.147 150.307 728.064 148.085 Q731.004 145.863 736.814 145.863 L742.786 145.863 L742.786 145.446 Q742.786 142.507 740.842 140.909 Q738.92 139.289 735.425 139.289 Q733.203 139.289 731.096 139.821 Q728.99 140.354 727.046 141.419 L727.046 137.483 Q729.383 136.581 731.583 136.141 Q733.782 135.678 735.865 135.678 Q741.49 135.678 744.268 138.594 Q747.045 141.511 747.045 147.437 Z" fill="#000000" fill-rule="nonzero" fill-opacity="1" /><path clip-path="url(#clip790)" d="M755.379 151.997 L755.379 136.303 L759.638 136.303 L759.638 151.835 Q759.638 155.516 761.073 157.368 Q762.508 159.196 765.379 159.196 Q768.828 159.196 770.818 156.997 Q772.832 154.798 772.832 151.002 L772.832 136.303 L777.092 136.303 L777.092 162.229 L772.832 162.229 L772.832 158.247 Q771.281 160.608 769.221 161.766 Q767.184 162.9 764.476 162.9 Q760.008 162.9 757.694 160.122 Q755.379 157.344 755.379 151.997 M766.096 135.678 L766.096 135.678 Z" fill="#000000" fill-rule="nonzero" fill-opacity="1" /><path clip-path="url(#clip790)" d="M785.865 126.21 L790.124 126.21 L790.124 162.229 L785.865 162.229 L785.865 126.21 Z" fill="#000000" fill-rule="nonzero" fill-opacity="1" /><path clip-path="url(#clip790)" d="M803.249 128.942 L803.249 136.303 L812.022 136.303 L812.022 139.613 L803.249 139.613 L803.249 153.687 Q803.249 156.858 804.105 157.761 Q804.985 158.664 807.647 158.664 L812.022 158.664 L812.022 162.229 L807.647 162.229 Q802.716 162.229 800.841 160.4 Q798.966 158.548 798.966 153.687 L798.966 139.613 L795.841 139.613 L795.841 136.303 L798.966 136.303 L798.966 128.942 L803.249 128.942 Z" fill="#000000" fill-rule="nonzero" fill-opacity="1" /><polyline clip-path="url(#clip790)" style="stroke:#0000ff; stroke-linecap:round; stroke-linejoin:round; stroke-width:12; stroke-opacity:1; fill:none" stroke-dasharray="6, 12" points="272.215,196.789 417.369,196.789 "/>
<path clip-path="url(#clip790)" d="M457.95 197.865 Q459.454 198.374 460.866 200.041 Q462.302 201.708 463.737 204.624 L468.482 214.069 L463.459 214.069 L459.038 205.203 Q457.325 201.731 455.704 200.596 Q454.107 199.462 451.329 199.462 L446.237 199.462 L446.237 214.069 L441.561 214.069 L441.561 179.509 L452.116 179.509 Q458.042 179.509 460.959 181.985 Q463.876 184.462 463.876 189.462 Q463.876 192.726 462.348 194.879 Q460.843 197.032 457.95 197.865 M446.237 183.351 L446.237 195.62 L452.116 195.62 Q455.496 195.62 457.209 194.069 Q458.945 192.495 458.945 189.462 Q458.945 186.43 457.209 184.902 Q455.496 183.351 452.116 183.351 L446.237 183.351 Z" fill="#000000" fill-rule="nonzero" fill-opacity="1" /><path clip-path="url(#clip790)" d="M485.056 201.036 Q479.894 201.036 477.903 202.217 Q475.913 203.397 475.913 206.245 Q475.913 208.513 477.394 209.856 Q478.899 211.175 481.468 211.175 Q485.01 211.175 487.139 208.675 Q489.292 206.152 489.292 201.985 L489.292 201.036 L485.056 201.036 M493.551 199.277 L493.551 214.069 L489.292 214.069 L489.292 210.133 Q487.834 212.495 485.658 213.629 Q483.482 214.74 480.334 214.74 Q476.352 214.74 473.991 212.518 Q471.653 210.272 471.653 206.522 Q471.653 202.147 474.57 199.925 Q477.51 197.703 483.32 197.703 L489.292 197.703 L489.292 197.286 Q489.292 194.347 487.348 192.749 Q485.426 191.129 481.931 191.129 Q479.709 191.129 477.602 191.661 Q475.496 192.194 473.552 193.259 L473.552 189.323 Q475.889 188.421 478.089 187.981 Q480.288 187.518 482.371 187.518 Q487.996 187.518 490.774 190.434 Q493.551 193.351 493.551 199.277 Z" fill="#000000" fill-rule="nonzero" fill-opacity="1" /><path clip-path="url(#clip790)" d="M502.325 188.143 L506.584 188.143 L506.584 214.069 L502.325 214.069 L502.325 188.143 M502.325 178.05 L506.584 178.05 L506.584 183.444 L502.325 183.444 L502.325 178.05 Z" fill="#000000" fill-rule="nonzero" fill-opacity="1" /><path clip-path="url(#clip790)" d="M537.047 198.421 L537.047 214.069 L532.787 214.069 L532.787 198.559 Q532.787 194.879 531.352 193.05 Q529.917 191.222 527.047 191.222 Q523.598 191.222 521.607 193.421 Q519.616 195.62 519.616 199.416 L519.616 214.069 L515.334 214.069 L515.334 188.143 L519.616 188.143 L519.616 192.171 Q521.144 189.833 523.204 188.675 Q525.287 187.518 527.996 187.518 Q532.463 187.518 534.755 190.296 Q537.047 193.05 537.047 198.421 Z" fill="#000000" fill-rule="nonzero" fill-opacity="1" /><path clip-path="url(#clip790)" d="M543.389 199.184 L555.866 199.184 L555.866 202.981 L543.389 202.981 L543.389 199.184 Z" fill="#000000" fill-rule="nonzero" fill-opacity="1" /><path clip-path="url(#clip790)" d="M588.713 182.171 L588.713 187.101 Q586.352 184.902 583.667 183.814 Q581.005 182.726 577.995 182.726 Q572.07 182.726 568.921 186.36 Q565.773 189.972 565.773 196.823 Q565.773 203.652 568.921 207.286 Q572.07 210.897 577.995 210.897 Q581.005 210.897 583.667 209.809 Q586.352 208.721 588.713 206.522 L588.713 211.407 Q586.259 213.073 583.505 213.907 Q580.773 214.74 577.718 214.74 Q569.87 214.74 565.357 209.948 Q560.843 205.133 560.843 196.823 Q560.843 188.49 565.357 183.698 Q569.87 178.884 577.718 178.884 Q580.819 178.884 583.551 179.717 Q586.306 180.527 588.713 182.171 Z" fill="#000000" fill-rule="nonzero" fill-opacity="1" /><path clip-path="url(#clip790)" d="M617.301 198.421 L617.301 214.069 L613.042 214.069 L613.042 198.559 Q613.042 194.879 611.606 193.05 Q610.171 191.222 607.301 191.222 Q603.852 191.222 601.861 193.421 Q599.87 195.62 599.87 199.416 L599.87 214.069 L595.588 214.069 L595.588 178.05 L599.87 178.05 L599.87 192.171 Q601.398 189.833 603.458 188.675 Q605.542 187.518 608.25 187.518 Q612.717 187.518 615.009 190.296 Q617.301 193.05 617.301 198.421 Z" fill="#000000" fill-rule="nonzero" fill-opacity="1" /><path clip-path="url(#clip790)" d="M647.972 200.041 L647.972 202.124 L628.389 202.124 Q628.666 206.522 631.028 208.837 Q633.412 211.129 637.648 211.129 Q640.102 211.129 642.393 210.527 Q644.708 209.925 646.977 208.721 L646.977 212.749 Q644.685 213.721 642.277 214.231 Q639.87 214.74 637.393 214.74 Q631.19 214.74 627.555 211.129 Q623.944 207.518 623.944 201.36 Q623.944 194.995 627.37 191.268 Q630.819 187.518 636.653 187.518 Q641.884 187.518 644.916 190.897 Q647.972 194.254 647.972 200.041 M643.713 198.791 Q643.666 195.296 641.745 193.212 Q639.847 191.129 636.699 191.129 Q633.134 191.129 630.981 193.143 Q628.852 195.157 628.528 198.814 L643.713 198.791 Z" fill="#000000" fill-rule="nonzero" fill-opacity="1" /><path clip-path="url(#clip790)" d="M676.513 198.421 L676.513 214.069 L672.254 214.069 L672.254 198.559 Q672.254 194.879 670.819 193.05 Q669.384 191.222 666.513 191.222 Q663.064 191.222 661.074 193.421 Q659.083 195.62 659.083 199.416 L659.083 214.069 L654.801 214.069 L654.801 188.143 L659.083 188.143 L659.083 192.171 Q660.611 189.833 662.671 188.675 Q664.754 187.518 667.463 187.518 Q671.93 187.518 674.222 190.296 Q676.513 193.05 676.513 198.421 Z" fill="#000000" fill-rule="nonzero" fill-opacity="1" /><polyline clip-path="url(#clip790)" style="stroke:#008000; stroke-linecap:round; stroke-linejoin:round; stroke-width:12; stroke-opacity:1; fill:none" points="272.215,248.629 417.369,248.629 "/>
<path clip-path="url(#clip790)" d="M457.95 249.705 Q459.454 250.214 460.866 251.881 Q462.302 253.548 463.737 256.464 L468.482 265.909 L463.459 265.909 L459.038 257.043 Q457.325 253.571 455.704 252.436 Q454.107 251.302 451.329 251.302 L446.237 251.302 L446.237 265.909 L441.561 265.909 L441.561 231.349 L452.116 231.349 Q458.042 231.349 460.959 233.825 Q463.876 236.302 463.876 241.302 Q463.876 244.566 462.348 246.719 Q460.843 248.872 457.95 249.705 M446.237 235.191 L446.237 247.46 L452.116 247.46 Q455.496 247.46 457.209 245.909 Q458.945 244.335 458.945 241.302 Q458.945 238.27 457.209 236.742 Q455.496 235.191 452.116 235.191 L446.237 235.191 Z" fill="#000000" fill-rule="nonzero" fill-opacity="1" /><path clip-path="url(#clip790)" d="M485.056 252.876 Q479.894 252.876 477.903 254.057 Q475.913 255.237 475.913 258.085 Q475.913 260.353 477.394 261.696 Q478.899 263.015 481.468 263.015 Q485.01 263.015 487.139 260.515 Q489.292 257.992 489.292 253.825 L489.292 252.876 L485.056 252.876 M493.551 251.117 L493.551 265.909 L489.292 265.909 L489.292 261.973 Q487.834 264.335 485.658 265.469 Q483.482 266.58 480.334 266.58 Q476.352 266.58 473.991 264.358 Q471.653 262.112 471.653 258.362 Q471.653 253.987 474.57 251.765 Q477.51 249.543 483.32 249.543 L489.292 249.543 L489.292 249.126 Q489.292 246.187 487.348 244.589 Q485.426 242.969 481.931 242.969 Q479.709 242.969 477.602 243.501 Q475.496 244.034 473.552 245.099 L473.552 241.163 Q475.889 240.261 478.089 239.821 Q480.288 239.358 482.371 239.358 Q487.996 239.358 490.774 242.274 Q493.551 245.191 493.551 251.117 Z" fill="#000000" fill-rule="nonzero" fill-opacity="1" /><path clip-path="url(#clip790)" d="M502.325 239.983 L506.584 239.983 L506.584 265.909 L502.325 265.909 L502.325 239.983 M502.325 229.89 L506.584 229.89 L506.584 235.284 L502.325 235.284 L502.325 229.89 Z" fill="#000000" fill-rule="nonzero" fill-opacity="1" /><path clip-path="url(#clip790)" d="M537.047 250.261 L537.047 265.909 L532.787 265.909 L532.787 250.399 Q532.787 246.719 531.352 244.89 Q529.917 243.062 527.047 243.062 Q523.598 243.062 521.607 245.261 Q519.616 247.46 519.616 251.256 L519.616 265.909 L515.334 265.909 L515.334 239.983 L519.616 239.983 L519.616 244.011 Q521.144 241.673 523.204 240.515 Q525.287 239.358 527.996 239.358 Q532.463 239.358 534.755 242.136 Q537.047 244.89 537.047 250.261 Z" fill="#000000" fill-rule="nonzero" fill-opacity="1" /><path clip-path="url(#clip790)" d="M543.389 251.024 L555.866 251.024 L555.866 254.821 L543.389 254.821 L543.389 251.024 Z" fill="#000000" fill-rule="nonzero" fill-opacity="1" /><path clip-path="url(#clip790)" d="M562.833 231.349 L584.685 231.349 L584.685 235.284 L567.509 235.284 L567.509 245.515 L583.968 245.515 L583.968 249.45 L567.509 249.45 L567.509 261.973 L585.102 261.973 L585.102 265.909 L562.833 265.909 L562.833 231.349 Z" fill="#000000" fill-rule="nonzero" fill-opacity="1" /><path clip-path="url(#clip790)" d="M612.787 244.96 Q614.384 242.089 616.606 240.724 Q618.829 239.358 621.838 239.358 Q625.889 239.358 628.088 242.205 Q630.287 245.029 630.287 250.261 L630.287 265.909 L626.004 265.909 L626.004 250.399 Q626.004 246.673 624.685 244.867 Q623.366 243.062 620.657 243.062 Q617.347 243.062 615.426 245.261 Q613.504 247.46 613.504 251.256 L613.504 265.909 L609.222 265.909 L609.222 250.399 Q609.222 246.649 607.903 244.867 Q606.583 243.062 603.829 243.062 Q600.565 243.062 598.643 245.284 Q596.722 247.483 596.722 251.256 L596.722 265.909 L592.44 265.909 L592.44 239.983 L596.722 239.983 L596.722 244.011 Q598.18 241.626 600.218 240.492 Q602.255 239.358 605.055 239.358 Q607.88 239.358 609.847 240.793 Q611.838 242.228 612.787 244.96 Z" fill="#000000" fill-rule="nonzero" fill-opacity="1" /><path clip-path="url(#clip790)" d="M642.902 262.02 L642.902 275.77 L638.62 275.77 L638.62 239.983 L642.902 239.983 L642.902 243.918 Q644.245 241.603 646.282 240.492 Q648.342 239.358 651.189 239.358 Q655.912 239.358 658.851 243.108 Q661.814 246.858 661.814 252.969 Q661.814 259.08 658.851 262.83 Q655.912 266.58 651.189 266.58 Q648.342 266.58 646.282 265.469 Q644.245 264.335 642.902 262.02 M657.393 252.969 Q657.393 248.27 655.449 245.608 Q653.527 242.923 650.148 242.923 Q646.768 242.923 644.824 245.608 Q642.902 248.27 642.902 252.969 Q642.902 257.668 644.824 260.353 Q646.768 263.015 650.148 263.015 Q653.527 263.015 655.449 260.353 Q657.393 257.668 657.393 252.969 Z" fill="#000000" fill-rule="nonzero" fill-opacity="1" /><path clip-path="url(#clip790)" d="M668.875 239.983 L673.134 239.983 L673.134 265.909 L668.875 265.909 L668.875 239.983 M668.875 229.89 L673.134 229.89 L673.134 235.284 L668.875 235.284 L668.875 229.89 Z" fill="#000000" fill-rule="nonzero" fill-opacity="1" /><path clip-path="url(#clip790)" d="M697.069 243.964 Q696.351 243.548 695.495 243.362 Q694.661 243.154 693.643 243.154 Q690.032 243.154 688.087 245.515 Q686.166 247.853 686.166 252.251 L686.166 265.909 L681.884 265.909 L681.884 239.983 L686.166 239.983 L686.166 244.011 Q687.509 241.649 689.661 240.515 Q691.814 239.358 694.893 239.358 Q695.333 239.358 695.865 239.427 Q696.398 239.474 697.046 239.589 L697.069 243.964 Z" fill="#000000" fill-rule="nonzero" fill-opacity="1" /><path clip-path="url(#clip790)" d="M701.536 239.983 L705.796 239.983 L705.796 265.909 L701.536 265.909 L701.536 239.983 M701.536 229.89 L705.796 229.89 L705.796 235.284 L701.536 235.284 L701.536 229.89 Z" fill="#000000" fill-rule="nonzero" fill-opacity="1" /><path clip-path="url(#clip790)" d="M733.365 240.978 L733.365 244.96 Q731.559 243.964 729.731 243.478 Q727.925 242.969 726.073 242.969 Q721.93 242.969 719.638 245.608 Q717.347 248.224 717.347 252.969 Q717.347 257.714 719.638 260.353 Q721.93 262.969 726.073 262.969 Q727.925 262.969 729.731 262.483 Q731.559 261.973 733.365 260.978 L733.365 264.913 Q731.583 265.747 729.661 266.163 Q727.763 266.58 725.61 266.58 Q719.754 266.58 716.305 262.899 Q712.856 259.219 712.856 252.969 Q712.856 246.626 716.328 242.992 Q719.823 239.358 725.888 239.358 Q727.856 239.358 729.731 239.775 Q731.606 240.168 733.365 240.978 Z" fill="#000000" fill-rule="nonzero" fill-opacity="1" /><path clip-path="url(#clip790)" d="M752.555 252.876 Q747.393 252.876 745.402 254.057 Q743.411 255.237 743.411 258.085 Q743.411 260.353 744.893 261.696 Q746.397 263.015 748.967 263.015 Q752.508 263.015 754.638 260.515 Q756.791 257.992 756.791 253.825 L756.791 252.876 L752.555 252.876 M761.05 251.117 L761.05 265.909 L756.791 265.909 L756.791 261.973 Q755.332 264.335 753.157 265.469 Q750.981 266.58 747.832 266.58 Q743.851 266.58 741.49 264.358 Q739.152 262.112 739.152 258.362 Q739.152 253.987 742.069 251.765 Q745.008 249.543 750.819 249.543 L756.791 249.543 L756.791 249.126 Q756.791 246.187 754.846 244.589 Q752.925 242.969 749.43 242.969 Q747.207 242.969 745.101 243.501 Q742.995 244.034 741.05 245.099 L741.05 241.163 Q743.388 240.261 745.587 239.821 Q747.786 239.358 749.869 239.358 Q755.494 239.358 758.272 242.274 Q761.05 245.191 761.05 251.117 Z" fill="#000000" fill-rule="nonzero" fill-opacity="1" /><path clip-path="url(#clip790)" d="M769.823 229.89 L774.082 229.89 L774.082 265.909 L769.823 265.909 L769.823 229.89 Z" fill="#000000" fill-rule="nonzero" fill-opacity="1" /><polyline clip-path="url(#clip790)" style="stroke:#ffc0cb; stroke-linecap:round; stroke-linejoin:round; stroke-width:12; stroke-opacity:1; fill:none" stroke-dasharray="6, 12" points="272.215,300.469 417.369,300.469 "/>
<path clip-path="url(#clip790)" d="M441.561 283.189 L446.237 283.189 L446.237 317.749 L441.561 317.749 L441.561 283.189 Z" fill="#000000" fill-rule="nonzero" fill-opacity="1" /><path clip-path="url(#clip790)" d="M474.014 292.818 L474.014 296.8 Q472.209 295.804 470.38 295.318 Q468.575 294.809 466.723 294.809 Q462.579 294.809 460.288 297.448 Q457.996 300.064 457.996 304.809 Q457.996 309.554 460.288 312.193 Q462.579 314.809 466.723 314.809 Q468.575 314.809 470.38 314.323 Q472.209 313.813 474.014 312.818 L474.014 316.753 Q472.232 317.587 470.311 318.003 Q468.413 318.42 466.26 318.42 Q460.403 318.42 456.954 314.739 Q453.505 311.059 453.505 304.809 Q453.505 298.466 456.978 294.832 Q460.473 291.198 466.538 291.198 Q468.505 291.198 470.38 291.615 Q472.255 292.008 474.014 292.818 Z" fill="#000000" fill-rule="nonzero" fill-opacity="1" /><path clip-path="url(#clip790)" d="M503.598 303.721 L503.598 305.804 L484.014 305.804 Q484.292 310.202 486.653 312.517 Q489.038 314.809 493.274 314.809 Q495.727 314.809 498.019 314.207 Q500.334 313.605 502.602 312.401 L502.602 316.429 Q500.311 317.401 497.903 317.911 Q495.496 318.42 493.019 318.42 Q486.815 318.42 483.181 314.809 Q479.57 311.198 479.57 305.04 Q479.57 298.675 482.996 294.948 Q486.445 291.198 492.278 291.198 Q497.51 291.198 500.542 294.577 Q503.598 297.934 503.598 303.721 M499.338 302.471 Q499.292 298.976 497.371 296.892 Q495.473 294.809 492.325 294.809 Q488.76 294.809 486.607 296.823 Q484.477 298.837 484.153 302.494 L499.338 302.471 Z" fill="#000000" fill-rule="nonzero" fill-opacity="1" /><path clip-path="url(#clip790)" d="M508.436 302.864 L520.912 302.864 L520.912 306.661 L508.436 306.661 L508.436 302.864 Z" fill="#000000" fill-rule="nonzero" fill-opacity="1" /><path clip-path="url(#clip790)" d="M553.759 285.851 L553.759 290.781 Q551.398 288.582 548.713 287.494 Q546.051 286.406 543.042 286.406 Q537.116 286.406 533.968 290.04 Q530.82 293.652 530.82 300.503 Q530.82 307.332 533.968 310.966 Q537.116 314.577 543.042 314.577 Q546.051 314.577 548.713 313.489 Q551.398 312.401 553.759 310.202 L553.759 315.087 Q551.306 316.753 548.551 317.587 Q545.82 318.42 542.764 318.42 Q534.917 318.42 530.403 313.628 Q525.889 308.813 525.889 300.503 Q525.889 292.17 530.403 287.378 Q534.917 282.564 542.764 282.564 Q545.866 282.564 548.597 283.397 Q551.352 284.207 553.759 285.851 Z" fill="#000000" fill-rule="nonzero" fill-opacity="1" /><path clip-path="url(#clip790)" d="M582.347 302.101 L582.347 317.749 L578.088 317.749 L578.088 302.239 Q578.088 298.559 576.653 296.73 Q575.218 294.902 572.347 294.902 Q568.898 294.902 566.908 297.101 Q564.917 299.3 564.917 303.096 L564.917 317.749 L560.634 317.749 L560.634 281.73 L564.917 281.73 L564.917 295.851 Q566.445 293.513 568.505 292.355 Q570.588 291.198 573.296 291.198 Q577.764 291.198 580.056 293.976 Q582.347 296.73 582.347 302.101 Z" fill="#000000" fill-rule="nonzero" fill-opacity="1" /><path clip-path="url(#clip790)" d="M613.018 303.721 L613.018 305.804 L593.435 305.804 Q593.713 310.202 596.074 312.517 Q598.458 314.809 602.694 314.809 Q605.148 314.809 607.44 314.207 Q609.755 313.605 612.023 312.401 L612.023 316.429 Q609.731 317.401 607.324 317.911 Q604.917 318.42 602.44 318.42 Q596.236 318.42 592.602 314.809 Q588.991 311.198 588.991 305.04 Q588.991 298.675 592.417 294.948 Q595.866 291.198 601.699 291.198 Q606.93 291.198 609.963 294.577 Q613.018 297.934 613.018 303.721 M608.759 302.471 Q608.713 298.976 606.792 296.892 Q604.893 294.809 601.745 294.809 Q598.18 294.809 596.028 296.823 Q593.898 298.837 593.574 302.494 L608.759 302.471 Z" fill="#000000" fill-rule="nonzero" fill-opacity="1" /><path clip-path="url(#clip790)" d="M641.56 302.101 L641.56 317.749 L637.301 317.749 L637.301 302.239 Q637.301 298.559 635.865 296.73 Q634.43 294.902 631.56 294.902 Q628.111 294.902 626.12 297.101 Q624.129 299.3 624.129 303.096 L624.129 317.749 L619.847 317.749 L619.847 291.823 L624.129 291.823 L624.129 295.851 Q625.657 293.513 627.717 292.355 Q629.801 291.198 632.509 291.198 Q636.977 291.198 639.268 293.976 Q641.56 296.73 641.56 302.101 Z" fill="#000000" fill-rule="nonzero" fill-opacity="1" /><polyline clip-path="url(#clip790)" style="stroke:#ff0000; stroke-linecap:round; stroke-linejoin:round; stroke-width:12; stroke-opacity:1; fill:none" points="272.215,352.309 417.369,352.309 "/>
<path clip-path="url(#clip790)" d="M463.806 336.163 L463.806 340.723 Q461.144 339.45 458.783 338.825 Q456.422 338.2 454.223 338.2 Q450.404 338.2 448.32 339.681 Q446.26 341.163 446.26 343.894 Q446.26 346.186 447.626 347.367 Q449.015 348.524 452.857 349.242 L455.681 349.82 Q460.913 350.816 463.39 353.339 Q465.89 355.839 465.89 360.052 Q465.89 365.075 462.51 367.667 Q459.153 370.26 452.649 370.26 Q450.195 370.26 447.417 369.704 Q444.663 369.149 441.7 368.061 L441.7 363.246 Q444.547 364.843 447.279 365.653 Q450.01 366.464 452.649 366.464 Q456.653 366.464 458.829 364.89 Q461.005 363.316 461.005 360.399 Q461.005 357.853 459.431 356.417 Q457.88 354.982 454.316 354.265 L451.468 353.709 Q446.237 352.667 443.899 350.445 Q441.561 348.223 441.561 344.265 Q441.561 339.681 444.779 337.042 Q448.019 334.404 453.691 334.404 Q456.121 334.404 458.644 334.843 Q461.167 335.283 463.806 336.163 Z" fill="#000000" fill-rule="nonzero" fill-opacity="1" /><path clip-path="url(#clip790)" d="M494.547 353.941 L494.547 369.589 L490.288 369.589 L490.288 354.079 Q490.288 350.399 488.852 348.57 Q487.417 346.742 484.547 346.742 Q481.098 346.742 479.107 348.941 Q477.116 351.14 477.116 354.936 L477.116 369.589 L472.834 369.589 L472.834 343.663 L477.116 343.663 L477.116 347.691 Q478.644 345.353 480.704 344.195 Q482.788 343.038 485.496 343.038 Q489.963 343.038 492.255 345.816 Q494.547 348.57 494.547 353.941 Z" fill="#000000" fill-rule="nonzero" fill-opacity="1" /><path clip-path="url(#clip790)" d="M513.088 346.649 Q509.662 346.649 507.672 349.334 Q505.681 351.996 505.681 356.649 Q505.681 361.302 507.649 363.987 Q509.639 366.649 513.088 366.649 Q516.491 366.649 518.482 363.964 Q520.473 361.278 520.473 356.649 Q520.473 352.042 518.482 349.357 Q516.491 346.649 513.088 346.649 M513.088 343.038 Q518.644 343.038 521.815 346.649 Q524.986 350.26 524.986 356.649 Q524.986 363.015 521.815 366.649 Q518.644 370.26 513.088 370.26 Q507.51 370.26 504.338 366.649 Q501.19 363.015 501.19 356.649 Q501.19 350.26 504.338 346.649 Q507.51 343.038 513.088 343.038 Z" fill="#000000" fill-rule="nonzero" fill-opacity="1" /><path clip-path="url(#clip790)" d="M529.57 343.663 L533.829 343.663 L539.153 363.894 L544.454 343.663 L549.477 343.663 L554.801 363.894 L560.102 343.663 L564.361 343.663 L557.579 369.589 L552.556 369.589 L546.977 348.339 L541.375 369.589 L536.352 369.589 L529.57 343.663 Z" fill="#000000" fill-rule="nonzero" fill-opacity="1" /><path clip-path="url(#clip790)" d="M568.667 354.704 L581.144 354.704 L581.144 358.501 L568.667 358.501 L568.667 354.704 Z" fill="#000000" fill-rule="nonzero" fill-opacity="1" /><path clip-path="url(#clip790)" d="M589.338 365.653 L596.977 365.653 L596.977 339.288 L588.667 340.955 L588.667 336.695 L596.93 335.029 L601.606 335.029 L601.606 365.653 L609.245 365.653 L609.245 369.589 L589.338 369.589 L589.338 365.653 Z" fill="#000000" fill-rule="nonzero" fill-opacity="1" /><path clip-path="url(#clip790)" d="M618.273 335.029 L625.241 335.029 L634.06 358.547 L642.926 335.029 L649.893 335.029 L649.893 369.589 L645.333 369.589 L645.333 339.242 L636.421 362.945 L631.722 362.945 L622.81 339.242 L622.81 369.589 L618.273 369.589 L618.273 335.029 Z" fill="#000000" fill-rule="nonzero" fill-opacity="1" /><path clip-path="url(#clip790)" d="M656.838 354.704 L669.314 354.704 L669.314 358.501 L656.838 358.501 L656.838 354.704 Z" fill="#000000" fill-rule="nonzero" fill-opacity="1" /><path clip-path="url(#clip790)" d="M693.157 347.598 L693.157 333.57 L697.416 333.57 L697.416 369.589 L693.157 369.589 L693.157 365.7 Q691.814 368.015 689.754 369.149 Q687.717 370.26 684.847 370.26 Q680.148 370.26 677.185 366.51 Q674.245 362.76 674.245 356.649 Q674.245 350.538 677.185 346.788 Q680.148 343.038 684.847 343.038 Q687.717 343.038 689.754 344.172 Q691.814 345.283 693.157 347.598 M678.643 356.649 Q678.643 361.348 680.564 364.033 Q682.509 366.695 685.888 366.695 Q689.268 366.695 691.212 364.033 Q693.157 361.348 693.157 356.649 Q693.157 351.95 691.212 349.288 Q689.268 346.603 685.888 346.603 Q682.509 346.603 680.564 349.288 Q678.643 351.95 678.643 356.649 Z" fill="#000000" fill-rule="nonzero" fill-opacity="1" /><path clip-path="url(#clip790)" d="M728.365 355.561 L728.365 357.644 L708.782 357.644 Q709.06 362.042 711.421 364.357 Q713.805 366.649 718.041 366.649 Q720.495 366.649 722.786 366.047 Q725.101 365.445 727.37 364.241 L727.37 368.269 Q725.078 369.241 722.671 369.751 Q720.263 370.26 717.786 370.26 Q711.583 370.26 707.948 366.649 Q704.337 363.038 704.337 356.88 Q704.337 350.515 707.763 346.788 Q711.212 343.038 717.046 343.038 Q722.277 343.038 725.309 346.417 Q728.365 349.774 728.365 355.561 M724.106 354.311 Q724.059 350.816 722.138 348.732 Q720.24 346.649 717.092 346.649 Q713.527 346.649 711.374 348.663 Q709.245 350.677 708.921 354.334 L724.106 354.311 Z" fill="#000000" fill-rule="nonzero" fill-opacity="1" /><path clip-path="url(#clip790)" d="M748.481 333.57 L748.481 337.112 L744.407 337.112 Q742.115 337.112 741.212 338.038 Q740.333 338.964 740.333 341.371 L740.333 343.663 L747.346 343.663 L747.346 346.973 L740.333 346.973 L740.333 369.589 L736.05 369.589 L736.05 346.973 L731.976 346.973 L731.976 343.663 L736.05 343.663 L736.05 341.857 Q736.05 337.529 738.064 335.561 Q740.078 333.57 744.453 333.57 L748.481 333.57 Z" fill="#000000" fill-rule="nonzero" fill-opacity="1" /><path clip-path="url(#clip790)" d="M763.828 356.556 Q758.666 356.556 756.675 357.737 Q754.684 358.917 754.684 361.765 Q754.684 364.033 756.166 365.376 Q757.67 366.695 760.24 366.695 Q763.781 366.695 765.911 364.195 Q768.064 361.672 768.064 357.505 L768.064 356.556 L763.828 356.556 M772.323 354.797 L772.323 369.589 L768.064 369.589 L768.064 365.653 Q766.606 368.015 764.43 369.149 Q762.254 370.26 759.106 370.26 Q755.124 370.26 752.763 368.038 Q750.425 365.792 750.425 362.042 Q750.425 357.667 753.342 355.445 Q756.281 353.223 762.092 353.223 L768.064 353.223 L768.064 352.806 Q768.064 349.867 766.119 348.269 Q764.198 346.649 760.703 346.649 Q758.481 346.649 756.374 347.181 Q754.268 347.714 752.323 348.779 L752.323 344.843 Q754.661 343.941 756.86 343.501 Q759.059 343.038 761.143 343.038 Q766.768 343.038 769.545 345.954 Q772.323 348.871 772.323 354.797 Z" fill="#000000" fill-rule="nonzero" fill-opacity="1" /><path clip-path="url(#clip790)" d="M780.656 359.357 L780.656 343.663 L784.916 343.663 L784.916 359.195 Q784.916 362.876 786.351 364.728 Q787.786 366.556 790.656 366.556 Q794.105 366.556 796.096 364.357 Q798.11 362.158 798.11 358.362 L798.11 343.663 L802.369 343.663 L802.369 369.589 L798.11 369.589 L798.11 365.607 Q796.559 367.968 794.499 369.126 Q792.462 370.26 789.754 370.26 Q785.286 370.26 782.971 367.482 Q780.656 364.704 780.656 359.357 M791.374 343.038 L791.374 343.038 Z" fill="#000000" fill-rule="nonzero" fill-opacity="1" /><path clip-path="url(#clip790)" d="M811.142 333.57 L815.402 333.57 L815.402 369.589 L811.142 369.589 L811.142 333.57 Z" fill="#000000" fill-rule="nonzero" fill-opacity="1" /><path clip-path="url(#clip790)" d="M828.526 336.302 L828.526 343.663 L837.3 343.663 L837.3 346.973 L828.526 346.973 L828.526 361.047 Q828.526 364.218 829.383 365.121 Q830.263 366.024 832.925 366.024 L837.3 366.024 L837.3 369.589 L832.925 369.589 Q827.994 369.589 826.119 367.76 Q824.244 365.908 824.244 361.047 L824.244 346.973 L821.119 346.973 L821.119 343.663 L824.244 343.663 L824.244 336.302 L828.526 336.302 Z" fill="#000000" fill-rule="nonzero" fill-opacity="1" /><polyline clip-path="url(#clip790)" style="stroke:#ff0000; stroke-linecap:round; stroke-linejoin:round; stroke-width:12; stroke-opacity:1; fill:none" stroke-dasharray="6, 12" points="272.215,404.149 417.369,404.149 "/>
<path clip-path="url(#clip790)" d="M463.806 388.003 L463.806 392.563 Q461.144 391.29 458.783 390.665 Q456.422 390.04 454.223 390.04 Q450.404 390.04 448.32 391.521 Q446.26 393.003 446.26 395.734 Q446.26 398.026 447.626 399.207 Q449.015 400.364 452.857 401.082 L455.681 401.66 Q460.913 402.656 463.39 405.179 Q465.89 407.679 465.89 411.892 Q465.89 416.915 462.51 419.507 Q459.153 422.1 452.649 422.1 Q450.195 422.1 447.417 421.544 Q444.663 420.989 441.7 419.901 L441.7 415.086 Q444.547 416.683 447.279 417.493 Q450.01 418.304 452.649 418.304 Q456.653 418.304 458.829 416.73 Q461.005 415.156 461.005 412.239 Q461.005 409.693 459.431 408.257 Q457.88 406.822 454.316 406.105 L451.468 405.549 Q446.237 404.507 443.899 402.285 Q441.561 400.063 441.561 396.105 Q441.561 391.521 444.779 388.882 Q448.019 386.244 453.691 386.244 Q456.121 386.244 458.644 386.683 Q461.167 387.123 463.806 388.003 Z" fill="#000000" fill-rule="nonzero" fill-opacity="1" /><path clip-path="url(#clip790)" d="M494.547 405.781 L494.547 421.429 L490.288 421.429 L490.288 405.919 Q490.288 402.239 488.852 400.41 Q487.417 398.582 484.547 398.582 Q481.098 398.582 479.107 400.781 Q477.116 402.98 477.116 406.776 L477.116 421.429 L472.834 421.429 L472.834 395.503 L477.116 395.503 L477.116 399.531 Q478.644 397.193 480.704 396.035 Q482.788 394.878 485.496 394.878 Q489.963 394.878 492.255 397.656 Q494.547 400.41 494.547 405.781 Z" fill="#000000" fill-rule="nonzero" fill-opacity="1" /><path clip-path="url(#clip790)" d="M513.088 398.489 Q509.662 398.489 507.672 401.174 Q505.681 403.836 505.681 408.489 Q505.681 413.142 507.649 415.827 Q509.639 418.489 513.088 418.489 Q516.491 418.489 518.482 415.804 Q520.473 413.118 520.473 408.489 Q520.473 403.882 518.482 401.197 Q516.491 398.489 513.088 398.489 M513.088 394.878 Q518.644 394.878 521.815 398.489 Q524.986 402.1 524.986 408.489 Q524.986 414.855 521.815 418.489 Q518.644 422.1 513.088 422.1 Q507.51 422.1 504.338 418.489 Q501.19 414.855 501.19 408.489 Q501.19 402.1 504.338 398.489 Q507.51 394.878 513.088 394.878 Z" fill="#000000" fill-rule="nonzero" fill-opacity="1" /><path clip-path="url(#clip790)" d="M529.57 395.503 L533.829 395.503 L539.153 415.734 L544.454 395.503 L549.477 395.503 L554.801 415.734 L560.102 395.503 L564.361 395.503 L557.579 421.429 L552.556 421.429 L546.977 400.179 L541.375 421.429 L536.352 421.429 L529.57 395.503 Z" fill="#000000" fill-rule="nonzero" fill-opacity="1" /><path clip-path="url(#clip790)" d="M568.667 406.544 L581.144 406.544 L581.144 410.341 L568.667 410.341 L568.667 406.544 Z" fill="#000000" fill-rule="nonzero" fill-opacity="1" /><path clip-path="url(#clip790)" d="M613.991 389.531 L613.991 394.461 Q611.629 392.262 608.944 391.174 Q606.282 390.086 603.273 390.086 Q597.347 390.086 594.199 393.72 Q591.051 397.332 591.051 404.183 Q591.051 411.012 594.199 414.646 Q597.347 418.257 603.273 418.257 Q606.282 418.257 608.944 417.169 Q611.629 416.081 613.991 413.882 L613.991 418.767 Q611.537 420.433 608.782 421.267 Q606.051 422.1 602.995 422.1 Q595.148 422.1 590.634 417.308 Q586.12 412.493 586.12 404.183 Q586.12 395.85 590.634 391.058 Q595.148 386.244 602.995 386.244 Q606.097 386.244 608.829 387.077 Q611.583 387.887 613.991 389.531 Z" fill="#000000" fill-rule="nonzero" fill-opacity="1" /><path clip-path="url(#clip790)" d="M642.578 405.781 L642.578 421.429 L638.319 421.429 L638.319 405.919 Q638.319 402.239 636.884 400.41 Q635.449 398.582 632.578 398.582 Q629.129 398.582 627.139 400.781 Q625.148 402.98 625.148 406.776 L625.148 421.429 L620.866 421.429 L620.866 385.41 L625.148 385.41 L625.148 399.531 Q626.676 397.193 628.736 396.035 Q630.819 394.878 633.528 394.878 Q637.995 394.878 640.287 397.656 Q642.578 400.41 642.578 405.781 Z" fill="#000000" fill-rule="nonzero" fill-opacity="1" /><path clip-path="url(#clip790)" d="M673.25 407.401 L673.25 409.484 L653.666 409.484 Q653.944 413.882 656.305 416.197 Q658.689 418.489 662.926 418.489 Q665.379 418.489 667.671 417.887 Q669.986 417.285 672.254 416.081 L672.254 420.109 Q669.963 421.081 667.555 421.591 Q665.148 422.1 662.671 422.1 Q656.467 422.1 652.833 418.489 Q649.222 414.878 649.222 408.72 Q649.222 402.355 652.648 398.628 Q656.097 394.878 661.93 394.878 Q667.162 394.878 670.194 398.257 Q673.25 401.614 673.25 407.401 M668.99 406.151 Q668.944 402.656 667.023 400.572 Q665.125 398.489 661.976 398.489 Q658.412 398.489 656.259 400.503 Q654.129 402.517 653.805 406.174 L668.99 406.151 Z" fill="#000000" fill-rule="nonzero" fill-opacity="1" /><path clip-path="url(#clip790)" d="M701.791 405.781 L701.791 421.429 L697.532 421.429 L697.532 405.919 Q697.532 402.239 696.097 400.41 Q694.661 398.582 691.791 398.582 Q688.342 398.582 686.351 400.781 Q684.361 402.98 684.361 406.776 L684.361 421.429 L680.078 421.429 L680.078 395.503 L684.361 395.503 L684.361 399.531 Q685.888 397.193 687.949 396.035 Q690.032 394.878 692.74 394.878 Q697.208 394.878 699.499 397.656 Q701.791 400.41 701.791 405.781 Z" fill="#000000" fill-rule="nonzero" fill-opacity="1" /></svg>
