<?xml version="1.0" encoding="utf-8"?>
<svg xmlns="http://www.w3.org/2000/svg" xmlns:xlink="http://www.w3.org/1999/xlink" width="600" height="400" viewBox="0 0 2400 1600">
<defs>
  <clipPath id="clip740">
    <rect x="0" y="0" width="2400" height="1600"/>
  </clipPath>
</defs>
<path clip-path="url(#clip740)" d="M0 1600 L2400 1600 L2400 0 L0 0  Z" fill="#ffffff" fill-rule="evenodd" fill-opacity="1"/>
<defs>
  <clipPath id="clip741">
    <rect x="480" y="0" width="1681" height="1600"/>
  </clipPath>
</defs>
<path clip-path="url(#clip740)" d="M175.445 1423.18 L2352.76 1423.18 L2352.76 47.2441 L175.445 47.2441  Z" fill="#ffffff" fill-rule="evenodd" fill-opacity="1"/>
<defs>
  <clipPath id="clip742">
    <rect x="175" y="47" width="2178" height="1377"/>
  </clipPath>
</defs>
<polyline clip-path="url(#clip742)" style="stroke:#000000; stroke-linecap:round; stroke-linejoin:round; stroke-width:2; stroke-opacity:0.1; fill:none" points="237.063,1423.18 237.063,47.2441 "/>
<polyline clip-path="url(#clip742)" style="stroke:#000000; stroke-linecap:round; stroke-linejoin:round; stroke-width:2; stroke-opacity:0.1; fill:none" points="647.877,1423.18 647.877,47.2441 "/>
<polyline clip-path="url(#clip742)" style="stroke:#000000; stroke-linecap:round; stroke-linejoin:round; stroke-width:2; stroke-opacity:0.1; fill:none" points="1058.69,1423.18 1058.69,47.2441 "/>
<polyline clip-path="url(#clip742)" style="stroke:#000000; stroke-linecap:round; stroke-linejoin:round; stroke-width:2; stroke-opacity:0.1; fill:none" points="1469.51,1423.18 1469.51,47.2441 "/>
<polyline clip-path="url(#clip742)" style="stroke:#000000; stroke-linecap:round; stroke-linejoin:round; stroke-width:2; stroke-opacity:0.1; fill:none" points="1880.32,1423.18 1880.32,47.2441 "/>
<polyline clip-path="url(#clip742)" style="stroke:#000000; stroke-linecap:round; stroke-linejoin:round; stroke-width:2; stroke-opacity:0.1; fill:none" points="2291.13,1423.18 2291.13,47.2441 "/>
<polyline clip-path="url(#clip740)" style="stroke:#000000; stroke-linecap:round; stroke-linejoin:round; stroke-width:4; stroke-opacity:1; fill:none" points="175.445,1423.18 2352.76,1423.18 "/>
<polyline clip-path="url(#clip740)" style="stroke:#000000; stroke-linecap:round; stroke-linejoin:round; stroke-width:4; stroke-opacity:1; fill:none" points="237.063,1423.18 237.063,1404.28 "/>
<polyline clip-path="url(#clip740)" style="stroke:#000000; stroke-linecap:round; stroke-linejoin:round; stroke-width:4; stroke-opacity:1; fill:none" points="647.877,1423.18 647.877,1404.28 "/>
<polyline clip-path="url(#clip740)" style="stroke:#000000; stroke-linecap:round; stroke-linejoin:round; stroke-width:4; stroke-opacity:1; fill:none" points="1058.69,1423.18 1058.69,1404.28 "/>
<polyline clip-path="url(#clip740)" style="stroke:#000000; stroke-linecap:round; stroke-linejoin:round; stroke-width:4; stroke-opacity:1; fill:none" points="1469.51,1423.18 1469.51,1404.28 "/>
<polyline clip-path="url(#clip740)" style="stroke:#000000; stroke-linecap:round; stroke-linejoin:round; stroke-width:4; stroke-opacity:1; fill:none" points="1880.32,1423.18 1880.32,1404.28 "/>
<polyline clip-path="url(#clip740)" style="stroke:#000000; stroke-linecap:round; stroke-linejoin:round; stroke-width:4; stroke-opacity:1; fill:none" points="2291.13,1423.18 2291.13,1404.28 "/>
<path clip-path="url(#clip740)" d="M237.063 1454.1 Q233.452 1454.1 231.623 1457.66 Q229.818 1461.2 229.818 1468.33 Q229.818 1475.44 231.623 1479.01 Q233.452 1482.55 237.063 1482.55 Q240.697 1482.55 242.503 1479.01 Q244.332 1475.44 244.332 1468.33 Q244.332 1461.2 242.503 1457.66 Q240.697 1454.1 237.063 1454.1 M237.063 1450.39 Q242.873 1450.39 245.929 1455 Q249.007 1459.58 249.007 1468.33 Q249.007 1477.06 245.929 1481.67 Q242.873 1486.25 237.063 1486.25 Q231.253 1486.25 228.174 1481.67 Q225.119 1477.06 225.119 1468.33 Q225.119 1459.58 228.174 1455 Q231.253 1450.39 237.063 1450.39 Z" fill="#000000" fill-rule="nonzero" fill-opacity="1" /><path clip-path="url(#clip740)" d="M638.259 1481.64 L645.898 1481.64 L645.898 1455.28 L637.588 1456.95 L637.588 1452.69 L645.852 1451.02 L650.528 1451.02 L650.528 1481.64 L658.167 1481.64 L658.167 1485.58 L638.259 1485.58 L638.259 1481.64 Z" fill="#000000" fill-rule="nonzero" fill-opacity="1" /><path clip-path="url(#clip740)" d="M1053.34 1481.64 L1069.66 1481.64 L1069.66 1485.58 L1047.72 1485.58 L1047.72 1481.64 Q1050.38 1478.89 1054.96 1474.26 Q1059.57 1469.61 1060.75 1468.27 Q1063 1465.74 1063.88 1464.01 Q1064.78 1462.25 1064.78 1460.56 Q1064.78 1457.8 1062.83 1456.07 Q1060.91 1454.33 1057.81 1454.33 Q1055.61 1454.33 1053.16 1455.09 Q1050.73 1455.86 1047.95 1457.41 L1047.95 1452.69 Q1050.77 1451.55 1053.23 1450.97 Q1055.68 1450.39 1057.72 1450.39 Q1063.09 1450.39 1066.28 1453.08 Q1069.48 1455.77 1069.48 1460.26 Q1069.48 1462.39 1068.67 1464.31 Q1067.88 1466.2 1065.77 1468.8 Q1065.2 1469.47 1062.09 1472.69 Q1058.99 1475.88 1053.34 1481.64 Z" fill="#000000" fill-rule="nonzero" fill-opacity="1" /><path clip-path="url(#clip740)" d="M1473.75 1466.95 Q1477.11 1467.66 1478.98 1469.93 Q1480.88 1472.2 1480.88 1475.53 Q1480.88 1480.65 1477.36 1483.45 Q1473.85 1486.25 1467.36 1486.25 Q1465.19 1486.25 1462.87 1485.81 Q1460.58 1485.39 1458.13 1484.54 L1458.13 1480.02 Q1460.07 1481.16 1462.39 1481.74 Q1464.7 1482.32 1467.23 1482.32 Q1471.62 1482.32 1473.92 1480.58 Q1476.23 1478.84 1476.23 1475.53 Q1476.23 1472.48 1474.08 1470.77 Q1471.95 1469.03 1468.13 1469.03 L1464.1 1469.03 L1464.1 1465.19 L1468.31 1465.19 Q1471.76 1465.19 1473.59 1463.82 Q1475.42 1462.43 1475.42 1459.84 Q1475.42 1457.18 1473.52 1455.77 Q1471.65 1454.33 1468.13 1454.33 Q1466.21 1454.33 1464.01 1454.75 Q1461.81 1455.16 1459.17 1456.04 L1459.17 1451.88 Q1461.83 1451.14 1464.15 1450.77 Q1466.48 1450.39 1468.54 1450.39 Q1473.87 1450.39 1476.97 1452.83 Q1480.07 1455.23 1480.07 1459.35 Q1480.07 1462.22 1478.43 1464.21 Q1476.79 1466.18 1473.75 1466.95 Z" fill="#000000" fill-rule="nonzero" fill-opacity="1" /><path clip-path="url(#clip740)" d="M1883.33 1455.09 L1871.52 1473.54 L1883.33 1473.54 L1883.33 1455.09 M1882.1 1451.02 L1887.98 1451.02 L1887.98 1473.54 L1892.91 1473.54 L1892.91 1477.43 L1887.98 1477.43 L1887.98 1485.58 L1883.33 1485.58 L1883.33 1477.43 L1867.73 1477.43 L1867.73 1472.92 L1882.1 1451.02 Z" fill="#000000" fill-rule="nonzero" fill-opacity="1" /><path clip-path="url(#clip740)" d="M2281.41 1451.02 L2299.77 1451.02 L2299.77 1454.96 L2285.69 1454.96 L2285.69 1463.43 Q2286.71 1463.08 2287.73 1462.92 Q2288.75 1462.73 2289.77 1462.73 Q2295.56 1462.73 2298.93 1465.9 Q2302.31 1469.08 2302.31 1474.49 Q2302.31 1480.07 2298.84 1483.17 Q2295.37 1486.25 2289.05 1486.25 Q2286.87 1486.25 2284.61 1485.88 Q2282.36 1485.51 2279.95 1484.77 L2279.95 1480.07 Q2282.04 1481.2 2284.26 1481.76 Q2286.48 1482.32 2288.96 1482.32 Q2292.96 1482.32 2295.3 1480.21 Q2297.64 1478.1 2297.64 1474.49 Q2297.64 1470.88 2295.3 1468.77 Q2292.96 1466.67 2288.96 1466.67 Q2287.08 1466.67 2285.21 1467.08 Q2283.36 1467.5 2281.41 1468.38 L2281.41 1451.02 Z" fill="#000000" fill-rule="nonzero" fill-opacity="1" /><path clip-path="url(#clip740)" d="M892.375 1550.25 Q892.375 1556.71 895.017 1560.4 Q897.69 1564.07 902.337 1564.07 Q906.984 1564.07 909.658 1560.4 Q912.332 1556.71 912.332 1550.25 Q912.332 1543.79 909.658 1540.13 Q906.984 1536.44 902.337 1536.44 Q897.69 1536.44 895.017 1540.13 Q892.375 1543.79 892.375 1550.25 M912.332 1562.7 Q910.486 1565.88 907.653 1567.44 Q904.852 1568.97 900.905 1568.97 Q894.444 1568.97 890.37 1563.81 Q886.328 1558.65 886.328 1550.25 Q886.328 1541.85 890.37 1536.69 Q894.444 1531.54 900.905 1531.54 Q904.852 1531.54 907.653 1533.1 Q910.486 1534.62 912.332 1537.81 L912.332 1532.4 L918.188 1532.4 L918.188 1581.6 L912.332 1581.6 L912.332 1562.7 Z" fill="#000000" fill-rule="nonzero" fill-opacity="1" /><path clip-path="url(#clip740)" d="M957.337 1578.87 L957.337 1583.42 L923.472 1583.42 L923.472 1578.87 L957.337 1578.87 Z" fill="#000000" fill-rule="nonzero" fill-opacity="1" /><path clip-path="url(#clip740)" d="M983.5 1537.87 Q982.514 1537.3 981.336 1537.04 Q980.19 1536.76 978.79 1536.76 Q973.824 1536.76 971.151 1540 Q968.509 1543.22 968.509 1549.27 L968.509 1568.04 L962.621 1568.04 L962.621 1532.4 L968.509 1532.4 L968.509 1537.93 Q970.355 1534.69 973.315 1533.13 Q976.275 1531.54 980.508 1531.54 Q981.113 1531.54 981.845 1531.63 Q982.577 1531.7 983.468 1531.85 L983.5 1537.87 Z" fill="#000000" fill-rule="nonzero" fill-opacity="1" /><path clip-path="url(#clip740)" d="M1005.84 1550.12 Q998.746 1550.12 996.009 1551.75 Q993.272 1553.37 993.272 1557.29 Q993.272 1560.4 995.309 1562.25 Q997.377 1564.07 1000.91 1564.07 Q1005.78 1564.07 1008.71 1560.63 Q1011.67 1557.16 1011.67 1551.43 L1011.67 1550.12 L1005.84 1550.12 M1017.52 1547.71 L1017.52 1568.04 L1011.67 1568.04 L1011.67 1562.63 Q1009.66 1565.88 1006.67 1567.44 Q1003.68 1568.97 999.351 1568.97 Q993.876 1568.97 990.63 1565.91 Q987.415 1562.82 987.415 1557.67 Q987.415 1551.65 991.426 1548.6 Q995.468 1545.54 1003.46 1545.54 L1011.67 1545.54 L1011.67 1544.97 Q1011.67 1540.93 1008.99 1538.73 Q1006.35 1536.5 1001.55 1536.5 Q998.491 1536.5 995.595 1537.23 Q992.699 1537.97 990.025 1539.43 L990.025 1534.02 Q993.24 1532.78 996.263 1532.17 Q999.287 1531.54 1002.15 1531.54 Q1009.89 1531.54 1013.71 1535.55 Q1017.52 1539.56 1017.52 1547.71 Z" fill="#000000" fill-rule="nonzero" fill-opacity="1" /><path clip-path="url(#clip740)" d="M1029.59 1532.4 L1035.44 1532.4 L1035.44 1568.04 L1029.59 1568.04 L1029.59 1532.4 M1029.59 1518.52 L1035.44 1518.52 L1035.44 1525.93 L1029.59 1525.93 L1029.59 1518.52 Z" fill="#000000" fill-rule="nonzero" fill-opacity="1" /><path clip-path="url(#clip740)" d="M1077.33 1546.53 L1077.33 1568.04 L1071.47 1568.04 L1071.47 1546.72 Q1071.47 1541.66 1069.5 1539.14 Q1067.53 1536.63 1063.58 1536.63 Q1058.84 1536.63 1056.1 1539.65 Q1053.36 1542.68 1053.36 1547.9 L1053.36 1568.04 L1047.48 1568.04 L1047.48 1532.4 L1053.36 1532.4 L1053.36 1537.93 Q1055.46 1534.72 1058.3 1533.13 Q1061.16 1531.54 1064.89 1531.54 Q1071.03 1531.54 1074.18 1535.36 Q1077.33 1539.14 1077.33 1546.53 Z" fill="#000000" fill-rule="nonzero" fill-opacity="1" /><path clip-path="url(#clip740)" d="M1123.55 1536.5 Q1118.84 1536.5 1116.1 1540.19 Q1113.36 1543.85 1113.36 1550.25 Q1113.36 1556.65 1116.07 1560.34 Q1118.8 1564 1123.55 1564 Q1128.22 1564 1130.96 1560.31 Q1133.7 1556.62 1133.7 1550.25 Q1133.7 1543.92 1130.96 1540.23 Q1128.22 1536.5 1123.55 1536.5 M1123.55 1531.54 Q1131.18 1531.54 1135.55 1536.5 Q1139.91 1541.47 1139.91 1550.25 Q1139.91 1559 1135.55 1564 Q1131.18 1568.97 1123.55 1568.97 Q1115.88 1568.97 1111.51 1564 Q1107.19 1559 1107.19 1550.25 Q1107.19 1541.47 1111.51 1536.5 Q1115.88 1531.54 1123.55 1531.54 Z" fill="#000000" fill-rule="nonzero" fill-opacity="1" /><path clip-path="url(#clip740)" d="M1170.27 1537.87 Q1169.28 1537.3 1168.11 1537.04 Q1166.96 1536.76 1165.56 1536.76 Q1160.59 1536.76 1157.92 1540 Q1155.28 1543.22 1155.28 1549.27 L1155.28 1568.04 L1149.39 1568.04 L1149.39 1532.4 L1155.28 1532.4 L1155.28 1537.93 Q1157.12 1534.69 1160.08 1533.13 Q1163.04 1531.54 1167.28 1531.54 Q1167.88 1531.54 1168.61 1531.63 Q1169.35 1531.7 1170.24 1531.85 L1170.27 1537.87 Z" fill="#000000" fill-rule="nonzero" fill-opacity="1" /><path clip-path="url(#clip740)" d="M1200.63 1550.25 Q1200.63 1556.71 1203.28 1560.4 Q1205.95 1564.07 1210.6 1564.07 Q1215.24 1564.07 1217.92 1560.4 Q1220.59 1556.71 1220.59 1550.25 Q1220.59 1543.79 1217.92 1540.13 Q1215.24 1536.44 1210.6 1536.44 Q1205.95 1536.44 1203.28 1540.13 Q1200.63 1543.79 1200.63 1550.25 M1220.59 1562.7 Q1218.74 1565.88 1215.91 1567.44 Q1213.11 1568.97 1209.16 1568.97 Q1202.7 1568.97 1198.63 1563.81 Q1194.59 1558.65 1194.59 1550.25 Q1194.59 1541.85 1198.63 1536.69 Q1202.7 1531.54 1209.16 1531.54 Q1213.11 1531.54 1215.91 1533.1 Q1218.74 1534.62 1220.59 1537.81 L1220.59 1532.4 L1226.45 1532.4 L1226.45 1581.6 L1220.59 1581.6 L1220.59 1562.7 Z" fill="#000000" fill-rule="nonzero" fill-opacity="1" /><path clip-path="url(#clip740)" d="M1265.6 1578.87 L1265.6 1583.42 L1231.73 1583.42 L1231.73 1578.87 L1265.6 1578.87 Z" fill="#000000" fill-rule="nonzero" fill-opacity="1" /><path clip-path="url(#clip740)" d="M1293.83 1533.45 L1293.83 1538.98 Q1291.35 1537.71 1288.67 1537.07 Q1286 1536.44 1283.13 1536.44 Q1278.77 1536.44 1276.58 1537.77 Q1274.41 1539.11 1274.41 1541.79 Q1274.41 1543.82 1275.97 1545 Q1277.53 1546.15 1282.24 1547.2 L1284.25 1547.64 Q1290.49 1548.98 1293.1 1551.43 Q1295.74 1553.85 1295.74 1558.21 Q1295.74 1563.17 1291.79 1566.07 Q1287.88 1568.97 1281 1568.97 Q1278.14 1568.97 1275.02 1568.39 Q1271.93 1567.85 1268.49 1566.74 L1268.49 1560.69 Q1271.74 1562.38 1274.89 1563.24 Q1278.04 1564.07 1281.13 1564.07 Q1285.27 1564.07 1287.49 1562.66 Q1289.72 1561.23 1289.72 1558.65 Q1289.72 1556.27 1288.1 1554.99 Q1286.51 1553.72 1281.07 1552.54 L1279.03 1552.07 Q1273.59 1550.92 1271.17 1548.56 Q1268.75 1546.18 1268.75 1542.04 Q1268.75 1537.01 1272.31 1534.27 Q1275.88 1531.54 1282.43 1531.54 Q1285.68 1531.54 1288.54 1532.01 Q1291.41 1532.49 1293.83 1533.45 Z" fill="#000000" fill-rule="nonzero" fill-opacity="1" /><path clip-path="url(#clip740)" d="M1334.7 1546.53 L1334.7 1568.04 L1328.84 1568.04 L1328.84 1546.72 Q1328.84 1541.66 1326.87 1539.14 Q1324.89 1536.63 1320.95 1536.63 Q1316.2 1536.63 1313.47 1539.65 Q1310.73 1542.68 1310.73 1547.9 L1310.73 1568.04 L1304.84 1568.04 L1304.84 1532.4 L1310.73 1532.4 L1310.73 1537.93 Q1312.83 1534.72 1315.66 1533.13 Q1318.53 1531.54 1322.25 1531.54 Q1328.39 1531.54 1331.55 1535.36 Q1334.7 1539.14 1334.7 1546.53 Z" fill="#000000" fill-rule="nonzero" fill-opacity="1" /><path clip-path="url(#clip740)" d="M1360.19 1536.5 Q1355.48 1536.5 1352.74 1540.19 Q1350.01 1543.85 1350.01 1550.25 Q1350.01 1556.65 1352.71 1560.34 Q1355.45 1564 1360.19 1564 Q1364.87 1564 1367.61 1560.31 Q1370.34 1556.62 1370.34 1550.25 Q1370.34 1543.92 1367.61 1540.23 Q1364.87 1536.5 1360.19 1536.5 M1360.19 1531.54 Q1367.83 1531.54 1372.19 1536.5 Q1376.55 1541.47 1376.55 1550.25 Q1376.55 1559 1372.19 1564 Q1367.83 1568.97 1360.19 1568.97 Q1352.52 1568.97 1348.16 1564 Q1343.83 1559 1343.83 1550.25 Q1343.83 1541.47 1348.16 1536.5 Q1352.52 1531.54 1360.19 1531.54 Z" fill="#000000" fill-rule="nonzero" fill-opacity="1" /><path clip-path="url(#clip740)" d="M1382.85 1532.4 L1388.71 1532.4 L1396.03 1560.21 L1403.32 1532.4 L1410.23 1532.4 L1417.55 1560.21 L1424.83 1532.4 L1430.69 1532.4 L1421.37 1568.04 L1414.46 1568.04 L1406.79 1538.83 L1399.09 1568.04 L1392.18 1568.04 L1382.85 1532.4 Z" fill="#000000" fill-rule="nonzero" fill-opacity="1" /><path clip-path="url(#clip740)" d="M1459.75 1518.52 L1473.25 1518.52 L1473.25 1523.07 L1465.61 1523.07 L1465.61 1572.09 L1473.25 1572.09 L1473.25 1576.64 L1459.75 1576.64 L1459.75 1518.52 Z" fill="#000000" fill-rule="nonzero" fill-opacity="1" /><path clip-path="url(#clip740)" d="M1509.18 1549.81 Q1509.18 1543.44 1506.54 1539.94 Q1503.93 1536.44 1499.19 1536.44 Q1494.48 1536.44 1491.83 1539.94 Q1489.22 1543.44 1489.22 1549.81 Q1489.22 1556.14 1491.83 1559.64 Q1494.48 1563.14 1499.19 1563.14 Q1503.93 1563.14 1506.54 1559.64 Q1509.18 1556.14 1509.18 1549.81 M1515.04 1563.62 Q1515.04 1572.72 1510.99 1577.15 Q1506.95 1581.6 1498.61 1581.6 Q1495.53 1581.6 1492.79 1581.13 Q1490.05 1580.68 1487.47 1579.72 L1487.47 1574.03 Q1490.05 1575.43 1492.57 1576.1 Q1495.08 1576.76 1497.69 1576.76 Q1503.45 1576.76 1506.32 1573.74 Q1509.18 1570.75 1509.18 1564.67 L1509.18 1561.77 Q1507.37 1564.92 1504.53 1566.48 Q1501.7 1568.04 1497.75 1568.04 Q1491.2 1568.04 1487.19 1563.05 Q1483.18 1558.05 1483.18 1549.81 Q1483.18 1541.53 1487.19 1536.53 Q1491.2 1531.54 1497.75 1531.54 Q1501.7 1531.54 1504.53 1533.1 Q1507.37 1534.66 1509.18 1537.81 L1509.18 1532.4 L1515.04 1532.4 L1515.04 1563.62 Z" fill="#000000" fill-rule="nonzero" fill-opacity="1" /><path clip-path="url(#clip740)" d="M1537.51 1520.52 L1542.92 1520.52 L1526.37 1574.09 L1520.96 1574.09 L1537.51 1520.52 Z" fill="#000000" fill-rule="nonzero" fill-opacity="1" /><path clip-path="url(#clip740)" d="M1548.84 1518.52 L1554.73 1518.52 L1554.73 1547.77 L1572.2 1532.4 L1579.68 1532.4 L1560.77 1549.07 L1580.48 1568.04 L1572.84 1568.04 L1554.73 1550.63 L1554.73 1568.04 L1548.84 1568.04 L1548.84 1518.52 Z" fill="#000000" fill-rule="nonzero" fill-opacity="1" /><path clip-path="url(#clip740)" d="M1610.27 1549.81 Q1610.27 1543.44 1607.63 1539.94 Q1605.02 1536.44 1600.27 1536.44 Q1595.56 1536.44 1592.92 1539.94 Q1590.31 1543.44 1590.31 1549.81 Q1590.31 1556.14 1592.92 1559.64 Q1595.56 1563.14 1600.27 1563.14 Q1605.02 1563.14 1607.63 1559.64 Q1610.27 1556.14 1610.27 1549.81 M1616.12 1563.62 Q1616.12 1572.72 1612.08 1577.15 Q1608.04 1581.6 1599.7 1581.6 Q1596.61 1581.6 1593.88 1581.13 Q1591.14 1580.68 1588.56 1579.72 L1588.56 1574.03 Q1591.14 1575.43 1593.65 1576.1 Q1596.17 1576.76 1598.78 1576.76 Q1604.54 1576.76 1607.4 1573.74 Q1610.27 1570.75 1610.27 1564.67 L1610.27 1561.77 Q1608.45 1564.92 1605.62 1566.48 Q1602.79 1568.04 1598.84 1568.04 Q1592.28 1568.04 1588.27 1563.05 Q1584.26 1558.05 1584.26 1549.81 Q1584.26 1541.53 1588.27 1536.53 Q1592.28 1531.54 1598.84 1531.54 Q1602.79 1531.54 1605.62 1533.1 Q1608.45 1534.66 1610.27 1537.81 L1610.27 1532.4 L1616.12 1532.4 L1616.12 1563.62 Z" fill="#000000" fill-rule="nonzero" fill-opacity="1" /><path clip-path="url(#clip740)" d="M1641.87 1518.52 L1641.87 1576.64 L1628.38 1576.64 L1628.38 1572.09 L1635.99 1572.09 L1635.99 1523.07 L1628.38 1523.07 L1628.38 1518.52 L1641.87 1518.52 Z" fill="#000000" fill-rule="nonzero" fill-opacity="1" /><polyline clip-path="url(#clip742)" style="stroke:#000000; stroke-linecap:round; stroke-linejoin:round; stroke-width:2; stroke-opacity:0.1; fill:none" points="175.445,1310.47 2352.76,1310.47 "/>
<polyline clip-path="url(#clip742)" style="stroke:#000000; stroke-linecap:round; stroke-linejoin:round; stroke-width:2; stroke-opacity:0.1; fill:none" points="175.445,1115.59 2352.76,1115.59 "/>
<polyline clip-path="url(#clip742)" style="stroke:#000000; stroke-linecap:round; stroke-linejoin:round; stroke-width:2; stroke-opacity:0.1; fill:none" points="175.445,920.705 2352.76,920.705 "/>
<polyline clip-path="url(#clip742)" style="stroke:#000000; stroke-linecap:round; stroke-linejoin:round; stroke-width:2; stroke-opacity:0.1; fill:none" points="175.445,725.821 2352.76,725.821 "/>
<polyline clip-path="url(#clip742)" style="stroke:#000000; stroke-linecap:round; stroke-linejoin:round; stroke-width:2; stroke-opacity:0.1; fill:none" points="175.445,530.937 2352.76,530.937 "/>
<polyline clip-path="url(#clip742)" style="stroke:#000000; stroke-linecap:round; stroke-linejoin:round; stroke-width:2; stroke-opacity:0.1; fill:none" points="175.445,336.053 2352.76,336.053 "/>
<polyline clip-path="url(#clip742)" style="stroke:#000000; stroke-linecap:round; stroke-linejoin:round; stroke-width:2; stroke-opacity:0.1; fill:none" points="175.445,141.169 2352.76,141.169 "/>
<polyline clip-path="url(#clip740)" style="stroke:#000000; stroke-linecap:round; stroke-linejoin:round; stroke-width:4; stroke-opacity:1; fill:none" points="175.445,1423.18 175.445,47.2441 "/>
<polyline clip-path="url(#clip740)" style="stroke:#000000; stroke-linecap:round; stroke-linejoin:round; stroke-width:4; stroke-opacity:1; fill:none" points="175.445,1310.47 194.343,1310.47 "/>
<polyline clip-path="url(#clip740)" style="stroke:#000000; stroke-linecap:round; stroke-linejoin:round; stroke-width:4; stroke-opacity:1; fill:none" points="175.445,1115.59 194.343,1115.59 "/>
<polyline clip-path="url(#clip740)" style="stroke:#000000; stroke-linecap:round; stroke-linejoin:round; stroke-width:4; stroke-opacity:1; fill:none" points="175.445,920.705 194.343,920.705 "/>
<polyline clip-path="url(#clip740)" style="stroke:#000000; stroke-linecap:round; stroke-linejoin:round; stroke-width:4; stroke-opacity:1; fill:none" points="175.445,725.821 194.343,725.821 "/>
<polyline clip-path="url(#clip740)" style="stroke:#000000; stroke-linecap:round; stroke-linejoin:round; stroke-width:4; stroke-opacity:1; fill:none" points="175.445,530.937 194.343,530.937 "/>
<polyline clip-path="url(#clip740)" style="stroke:#000000; stroke-linecap:round; stroke-linejoin:round; stroke-width:4; stroke-opacity:1; fill:none" points="175.445,336.053 194.343,336.053 "/>
<polyline clip-path="url(#clip740)" style="stroke:#000000; stroke-linecap:round; stroke-linejoin:round; stroke-width:4; stroke-opacity:1; fill:none" points="175.445,141.169 194.343,141.169 "/>
<path clip-path="url(#clip740)" d="M119.538 1323.82 L127.177 1323.82 L127.177 1297.45 L118.867 1299.12 L118.867 1294.86 L127.13 1293.19 L131.806 1293.19 L131.806 1323.82 L139.445 1323.82 L139.445 1327.75 L119.538 1327.75 L119.538 1323.82 Z" fill="#000000" fill-rule="nonzero" fill-opacity="1" /><path clip-path="url(#clip740)" d="M123.126 1128.93 L139.445 1128.93 L139.445 1132.87 L117.501 1132.87 L117.501 1128.93 Q120.163 1126.18 124.746 1121.55 Q129.353 1116.9 130.533 1115.55 Q132.779 1113.03 133.658 1111.29 Q134.561 1109.54 134.561 1107.85 Q134.561 1105.09 132.617 1103.35 Q130.695 1101.62 127.593 1101.62 Q125.394 1101.62 122.941 1102.38 Q120.51 1103.15 117.732 1104.7 L117.732 1099.98 Q120.556 1098.84 123.01 1098.26 Q125.464 1097.68 127.501 1097.68 Q132.871 1097.68 136.066 1100.37 Q139.26 1103.05 139.26 1107.54 Q139.26 1109.67 138.45 1111.6 Q137.663 1113.49 135.556 1116.09 Q134.978 1116.76 131.876 1119.97 Q128.774 1123.17 123.126 1128.93 Z" fill="#000000" fill-rule="nonzero" fill-opacity="1" /><path clip-path="url(#clip740)" d="M132.316 919.35 Q135.672 920.068 137.547 922.336 Q139.445 924.605 139.445 927.938 Q139.445 933.054 135.927 935.855 Q132.408 938.656 125.927 938.656 Q123.751 938.656 121.436 938.216 Q119.144 937.799 116.691 936.943 L116.691 932.429 Q118.635 933.563 120.95 934.142 Q123.265 934.721 125.788 934.721 Q130.186 934.721 132.478 932.985 Q134.792 931.248 134.792 927.938 Q134.792 924.883 132.64 923.17 Q130.51 921.434 126.691 921.434 L122.663 921.434 L122.663 917.591 L126.876 917.591 Q130.325 917.591 132.154 916.225 Q133.982 914.836 133.982 912.244 Q133.982 909.582 132.084 908.17 Q130.209 906.735 126.691 906.735 Q124.769 906.735 122.57 907.151 Q120.371 907.568 117.732 908.448 L117.732 904.281 Q120.394 903.54 122.709 903.17 Q125.047 902.8 127.107 902.8 Q132.431 902.8 135.533 905.23 Q138.635 907.637 138.635 911.758 Q138.635 914.628 136.992 916.619 Q135.348 918.586 132.316 919.35 Z" fill="#000000" fill-rule="nonzero" fill-opacity="1" /><path clip-path="url(#clip740)" d="M129.862 712.615 L118.056 731.064 L129.862 731.064 L129.862 712.615 M128.635 708.541 L134.515 708.541 L134.515 731.064 L139.445 731.064 L139.445 734.952 L134.515 734.952 L134.515 743.101 L129.862 743.101 L129.862 734.952 L114.26 734.952 L114.26 730.439 L128.635 708.541 Z" fill="#000000" fill-rule="nonzero" fill-opacity="1" /><path clip-path="url(#clip740)" d="M118.543 513.657 L136.899 513.657 L136.899 517.592 L122.825 517.592 L122.825 526.064 Q123.843 525.717 124.862 525.555 Q125.88 525.37 126.899 525.37 Q132.686 525.37 136.066 528.541 Q139.445 531.712 139.445 537.129 Q139.445 542.707 135.973 545.809 Q132.501 548.888 126.181 548.888 Q124.005 548.888 121.737 548.518 Q119.492 548.147 117.084 547.406 L117.084 542.707 Q119.168 543.842 121.39 544.397 Q123.612 544.953 126.089 544.953 Q130.093 544.953 132.431 542.846 Q134.769 540.74 134.769 537.129 Q134.769 533.518 132.431 531.411 Q130.093 529.305 126.089 529.305 Q124.214 529.305 122.339 529.721 Q120.487 530.138 118.543 531.018 L118.543 513.657 Z" fill="#000000" fill-rule="nonzero" fill-opacity="1" /><path clip-path="url(#clip740)" d="M127.917 334.189 Q124.769 334.189 122.918 336.342 Q121.089 338.495 121.089 342.245 Q121.089 345.972 122.918 348.148 Q124.769 350.3 127.917 350.3 Q131.066 350.3 132.894 348.148 Q134.746 345.972 134.746 342.245 Q134.746 338.495 132.894 336.342 Q131.066 334.189 127.917 334.189 M137.2 319.537 L137.2 323.796 Q135.441 322.962 133.635 322.523 Q131.853 322.083 130.093 322.083 Q125.464 322.083 123.01 325.208 Q120.58 328.333 120.232 334.652 Q121.598 332.638 123.658 331.574 Q125.718 330.486 128.195 330.486 Q133.404 330.486 136.413 333.657 Q139.445 336.805 139.445 342.245 Q139.445 347.569 136.297 350.786 Q133.149 354.004 127.917 354.004 Q121.922 354.004 118.751 349.421 Q115.58 344.814 115.58 336.087 Q115.58 327.893 119.468 323.032 Q123.357 318.148 129.908 318.148 Q131.667 318.148 133.45 318.495 Q135.255 318.842 137.2 319.537 Z" fill="#000000" fill-rule="nonzero" fill-opacity="1" /><path clip-path="url(#clip740)" d="M117.223 123.889 L139.445 123.889 L139.445 125.879 L126.899 158.449 L122.015 158.449 L133.82 127.824 L117.223 127.824 L117.223 123.889 Z" fill="#000000" fill-rule="nonzero" fill-opacity="1" /><path clip-path="url(#clip740)" d="M18.2347 1090.74 L28.3562 1090.74 L28.3562 1078.67 L32.9077 1078.67 L32.9077 1090.74 L52.2594 1090.74 Q56.6199 1090.74 57.8613 1089.56 Q59.1026 1088.35 59.1026 1084.69 L59.1026 1078.67 L64.0042 1078.67 L64.0042 1084.69 Q64.0042 1091.47 61.4897 1094.05 Q58.9434 1096.62 52.2594 1096.62 L32.9077 1096.62 L32.9077 1100.92 L28.3562 1100.92 L28.3562 1096.62 L18.2347 1096.62 L18.2347 1090.74 Z" fill="#000000" fill-rule="nonzero" fill-opacity="1" /><path clip-path="url(#clip740)" d="M44.7161 1040.48 L47.5806 1040.48 L47.5806 1067.41 Q53.6281 1067.02 56.8109 1063.78 Q59.9619 1060.5 59.9619 1054.67 Q59.9619 1051.3 59.1344 1048.15 Q58.3069 1044.97 56.6518 1041.85 L62.1899 1041.85 Q63.5267 1045 64.227 1048.31 Q64.9272 1051.62 64.9272 1055.03 Q64.9272 1063.56 59.9619 1068.55 Q54.9967 1073.52 46.5303 1073.52 Q37.7774 1073.52 32.6531 1068.81 Q27.4968 1064.06 27.4968 1056.04 Q27.4968 1048.85 32.1438 1044.68 Q36.7589 1040.48 44.7161 1040.48 M42.9973 1046.34 Q38.1912 1046.4 35.3266 1049.04 Q32.4621 1051.65 32.4621 1055.98 Q32.4621 1060.88 35.2312 1063.84 Q38.0002 1066.77 43.0292 1067.22 L42.9973 1046.34 Z" fill="#000000" fill-rule="nonzero" fill-opacity="1" /><path clip-path="url(#clip740)" d="M33.8307 1010.21 Q33.2578 1011.2 33.0032 1012.37 Q32.7167 1013.52 32.7167 1014.92 Q32.7167 1019.89 35.9632 1022.56 Q39.1779 1025.2 45.2253 1025.2 L64.0042 1025.2 L64.0042 1031.09 L28.3562 1031.09 L28.3562 1025.2 L33.8944 1025.2 Q30.6479 1023.36 29.0883 1020.4 Q27.4968 1017.44 27.4968 1013.2 Q27.4968 1012.6 27.5923 1011.87 Q27.656 1011.13 27.8151 1010.24 L33.8307 1010.21 Z" fill="#000000" fill-rule="nonzero" fill-opacity="1" /><path clip-path="url(#clip740)" d="M35.1993 977.459 Q31.2526 975.263 29.3747 972.207 Q27.4968 969.152 27.4968 965.014 Q27.4968 959.444 31.4117 956.42 Q35.2948 953.397 42.4881 953.397 L64.0042 953.397 L64.0042 959.285 L42.679 959.285 Q37.5546 959.285 35.072 961.099 Q32.5894 962.913 32.5894 966.637 Q32.5894 971.189 35.6131 973.83 Q38.6368 976.472 43.8567 976.472 L64.0042 976.472 L64.0042 982.361 L42.679 982.361 Q37.5228 982.361 35.072 984.175 Q32.5894 985.989 32.5894 989.777 Q32.5894 994.264 35.6449 996.906 Q38.6686 999.548 43.8567 999.548 L64.0042 999.548 L64.0042 1005.44 L28.3562 1005.44 L28.3562 999.548 L33.8944 999.548 Q30.616 997.543 29.0564 994.742 Q27.4968 991.941 27.4968 988.09 Q27.4968 984.207 29.4702 981.501 Q31.4436 978.764 35.1993 977.459 Z" fill="#000000" fill-rule="nonzero" fill-opacity="1" /><path clip-path="url(#clip740)" d="M28.3562 941.715 L28.3562 935.859 L64.0042 935.859 L64.0042 941.715 L28.3562 941.715 M14.479 941.715 L14.479 935.859 L21.895 935.859 L21.895 941.715 L14.479 941.715 Z" fill="#000000" fill-rule="nonzero" fill-opacity="1" /><path clip-path="url(#clip740)" d="M42.4881 893.973 L64.0042 893.973 L64.0042 899.829 L42.679 899.829 Q37.6183 899.829 35.1038 901.803 Q32.5894 903.776 32.5894 907.723 Q32.5894 912.465 35.6131 915.202 Q38.6368 917.94 43.8567 917.94 L64.0042 917.94 L64.0042 923.828 L28.3562 923.828 L28.3562 917.94 L33.8944 917.94 Q30.6797 915.839 29.0883 913.006 Q27.4968 910.142 27.4968 906.418 Q27.4968 900.275 31.3163 897.124 Q35.1038 893.973 42.4881 893.973 Z" fill="#000000" fill-rule="nonzero" fill-opacity="1" /><path clip-path="url(#clip740)" d="M46.0847 866.091 Q46.0847 873.189 47.7079 875.926 Q49.3312 878.663 53.2461 878.663 Q56.3653 878.663 58.2114 876.626 Q60.0256 874.557 60.0256 871.024 Q60.0256 866.155 56.5881 863.226 Q53.1188 860.266 47.3897 860.266 L46.0847 860.266 L46.0847 866.091 M43.6657 854.41 L64.0042 854.41 L64.0042 860.266 L58.5933 860.266 Q61.8398 862.271 63.3994 865.263 Q64.9272 868.255 64.9272 872.584 Q64.9272 878.058 61.8716 881.305 Q58.7843 884.52 53.6281 884.52 Q47.6125 884.52 44.5569 880.509 Q41.5014 876.467 41.5014 868.478 L41.5014 860.266 L40.9285 860.266 Q36.8862 860.266 34.6901 862.94 Q32.4621 865.582 32.4621 870.388 Q32.4621 873.443 33.1941 876.34 Q33.9262 879.236 35.3903 881.91 L29.9795 881.91 Q28.7381 878.695 28.1334 875.671 Q27.4968 872.648 27.4968 869.783 Q27.4968 862.049 31.5072 858.229 Q35.5176 854.41 43.6657 854.41 Z" fill="#000000" fill-rule="nonzero" fill-opacity="1" /><path clip-path="url(#clip740)" d="M14.479 842.347 L14.479 836.49 L64.0042 836.49 L64.0042 842.347 L14.479 842.347 Z" fill="#000000" fill-rule="nonzero" fill-opacity="1" /><path clip-path="url(#clip740)" d="M28.3562 807.717 L28.3562 801.511 L58.275 790.371 L28.3562 779.231 L28.3562 773.024 L64.0042 786.392 L64.0042 794.349 L28.3562 807.717 Z" fill="#000000" fill-rule="nonzero" fill-opacity="1" /><path clip-path="url(#clip740)" d="M44.7161 734.448 L47.5806 734.448 L47.5806 761.375 Q53.6281 760.993 56.8109 757.747 Q59.9619 754.468 59.9619 748.644 Q59.9619 745.27 59.1344 742.119 Q58.3069 738.936 56.6518 735.817 L62.1899 735.817 Q63.5267 738.968 64.227 742.278 Q64.9272 745.588 64.9272 748.994 Q64.9272 757.524 59.9619 762.521 Q54.9967 767.486 46.5303 767.486 Q37.7774 767.486 32.6531 762.775 Q27.4968 758.033 27.4968 750.012 Q27.4968 742.819 32.1438 738.649 Q36.7589 734.448 44.7161 734.448 M42.9973 740.305 Q38.1912 740.368 35.3266 743.01 Q32.4621 745.62 32.4621 749.949 Q32.4621 754.85 35.2312 757.81 Q38.0002 760.738 43.0292 761.184 L42.9973 740.305 Z" fill="#000000" fill-rule="nonzero" fill-opacity="1" /><path clip-path="url(#clip740)" d="M14.479 724.836 L14.479 718.979 L64.0042 718.979 L64.0042 724.836 L14.479 724.836 Z" fill="#000000" fill-rule="nonzero" fill-opacity="1" /><path clip-path="url(#clip740)" d="M32.4621 692.912 Q32.4621 697.622 36.1542 700.36 Q39.8145 703.097 46.212 703.097 Q52.6095 703.097 56.3017 700.392 Q59.9619 697.654 59.9619 692.912 Q59.9619 688.233 56.2698 685.496 Q52.5777 682.759 46.212 682.759 Q39.8781 682.759 36.186 685.496 Q32.4621 688.233 32.4621 692.912 M27.4968 692.912 Q27.4968 685.273 32.4621 680.912 Q37.4273 676.552 46.212 676.552 Q54.9649 676.552 59.9619 680.912 Q64.9272 685.273 64.9272 692.912 Q64.9272 700.583 59.9619 704.943 Q54.9649 709.272 46.212 709.272 Q37.4273 709.272 32.4621 704.943 Q27.4968 700.583 27.4968 692.912 Z" fill="#000000" fill-rule="nonzero" fill-opacity="1" /><path clip-path="url(#clip740)" d="M29.7248 641.19 L35.1993 641.19 Q33.8307 643.673 33.1623 646.188 Q32.4621 648.67 32.4621 651.216 Q32.4621 656.914 36.0905 660.065 Q39.6872 663.216 46.212 663.216 Q52.7369 663.216 56.3653 660.065 Q59.9619 656.914 59.9619 651.216 Q59.9619 648.67 59.2935 646.188 Q58.5933 643.673 57.2247 641.19 L62.6355 641.19 Q63.7814 643.641 64.3543 646.283 Q64.9272 648.893 64.9272 651.853 Q64.9272 659.906 59.8664 664.648 Q54.8057 669.391 46.212 669.391 Q37.491 669.391 32.4939 664.616 Q27.4968 659.81 27.4968 651.471 Q27.4968 648.766 28.0697 646.188 Q28.6108 643.609 29.7248 641.19 Z" fill="#000000" fill-rule="nonzero" fill-opacity="1" /><path clip-path="url(#clip740)" d="M28.3562 631.005 L28.3562 625.149 L64.0042 625.149 L64.0042 631.005 L28.3562 631.005 M14.479 631.005 L14.479 625.149 L21.895 625.149 L21.895 631.005 L14.479 631.005 Z" fill="#000000" fill-rule="nonzero" fill-opacity="1" /><path clip-path="url(#clip740)" d="M18.2347 607.102 L28.3562 607.102 L28.3562 595.039 L32.9077 595.039 L32.9077 607.102 L52.2594 607.102 Q56.6199 607.102 57.8613 605.924 Q59.1026 604.715 59.1026 601.055 L59.1026 595.039 L64.0042 595.039 L64.0042 601.055 Q64.0042 607.834 61.4897 610.412 Q58.9434 612.99 52.2594 612.99 L32.9077 612.99 L32.9077 617.287 L28.3562 617.287 L28.3562 612.99 L18.2347 612.99 L18.2347 607.102 Z" fill="#000000" fill-rule="nonzero" fill-opacity="1" /><path clip-path="url(#clip740)" d="M67.3143 572.505 Q73.68 574.987 75.6216 577.342 Q77.5631 579.698 77.5631 583.644 L77.5631 588.323 L72.6615 588.323 L72.6615 584.886 Q72.6615 582.467 71.5157 581.13 Q70.3699 579.793 66.1048 578.17 L63.4312 577.12 L28.3562 591.538 L28.3562 585.331 L56.238 574.191 L28.3562 563.051 L28.3562 556.845 L67.3143 572.505 Z" fill="#000000" fill-rule="nonzero" fill-opacity="1" /><path clip-path="url(#clip740)" d="M14.479 528.581 L14.479 515.086 L19.0304 515.086 L19.0304 522.725 L68.0464 522.725 L68.0464 515.086 L72.5979 515.086 L72.5979 528.581 L14.479 528.581 Z" fill="#000000" fill-rule="nonzero" fill-opacity="1" /><path clip-path="url(#clip740)" d="M35.1993 474.855 Q31.2526 472.658 29.3747 469.603 Q27.4968 466.547 27.4968 462.41 Q27.4968 456.84 31.4117 453.816 Q35.2948 450.792 42.4881 450.792 L64.0042 450.792 L64.0042 456.68 L42.679 456.68 Q37.5546 456.68 35.072 458.495 Q32.5894 460.309 32.5894 464.033 Q32.5894 468.584 35.6131 471.226 Q38.6368 473.868 43.8567 473.868 L64.0042 473.868 L64.0042 479.756 L42.679 479.756 Q37.5228 479.756 35.072 481.57 Q32.5894 483.385 32.5894 487.172 Q32.5894 491.66 35.6449 494.302 Q38.6686 496.944 43.8567 496.944 L64.0042 496.944 L64.0042 502.832 L28.3562 502.832 L28.3562 496.944 L33.8944 496.944 Q30.616 494.938 29.0564 492.137 Q27.4968 489.337 27.4968 485.485 Q27.4968 481.602 29.4702 478.897 Q31.4436 476.16 35.1993 474.855 Z" fill="#000000" fill-rule="nonzero" fill-opacity="1" /><path clip-path="url(#clip740)" d="M16.4842 428.703 L16.4842 423.292 L70.0516 439.843 L70.0516 445.254 L16.4842 428.703 Z" fill="#000000" fill-rule="nonzero" fill-opacity="1" /><path clip-path="url(#clip740)" d="M29.4065 394.424 L34.9447 394.424 Q33.6716 396.906 33.035 399.58 Q32.3984 402.254 32.3984 405.118 Q32.3984 409.479 33.7352 411.675 Q35.072 413.839 37.7456 413.839 Q39.7826 413.839 40.9603 412.28 Q42.1061 410.72 43.1565 406.009 L43.6021 404.004 Q44.9389 397.766 47.3897 395.156 Q49.8086 392.514 54.1691 392.514 Q59.1344 392.514 62.0308 396.461 Q64.9272 400.376 64.9272 407.251 Q64.9272 410.115 64.3543 413.235 Q63.8132 416.322 62.6992 419.759 L56.6518 419.759 Q58.3387 416.513 59.198 413.362 Q60.0256 410.211 60.0256 407.123 Q60.0256 402.986 58.6251 400.758 Q57.1929 398.53 54.6147 398.53 Q52.2276 398.53 50.9545 400.153 Q49.6813 401.744 48.5037 407.187 L48.0262 409.224 Q46.8804 414.667 44.5251 417.086 Q42.138 419.505 38.0002 419.505 Q32.9713 419.505 30.2341 415.94 Q27.4968 412.375 27.4968 405.818 Q27.4968 402.572 27.9743 399.707 Q28.4517 396.843 29.4065 394.424 Z" fill="#000000" fill-rule="nonzero" fill-opacity="1" /><path clip-path="url(#clip740)" d="M14.479 369.502 L72.5979 369.502 L72.5979 382.997 L68.0464 382.997 L68.0464 375.39 L19.0304 375.39 L19.0304 382.997 L14.479 382.997 L14.479 369.502 Z" fill="#000000" fill-rule="nonzero" fill-opacity="1" /><polyline clip-path="url(#clip742)" style="stroke:#009af9; stroke-linecap:round; stroke-linejoin:round; stroke-width:12; stroke-opacity:1; fill:none" points="237.067,1232.83 257.815,714.067 278.564,642.46 299.312,597.602 320.06,564.367 340.808,537.751 361.556,515.447 382.304,496.188 403.052,479.203 423.801,463.984 444.549,450.178 465.297,437.532 486.045,425.855 506.793,415 527.541,404.853 548.289,395.321 569.038,386.33 589.786,377.818 610.534,369.733 631.282,362.032 652.03,354.678 672.778,347.639 693.526,340.887 714.275,334.399 735.023,328.153 755.771,322.131 776.519,316.316 797.267,310.693 818.015,305.25 838.764,299.974 859.512,294.855 880.26,289.884 901.008,285.05 921.756,280.348 942.504,275.768 963.252,271.304 984.001,266.951 1004.75,262.703 1025.5,258.553 1046.24,254.498 1066.99,250.534 1087.74,246.654 1108.49,242.857 1129.24,239.138 1149.99,235.494 1170.73,231.922 1191.48,228.419 1212.23,224.982 1232.98,221.608 1253.73,218.295 1274.47,215.04 1295.22,211.842 1315.97,208.699 1336.72,205.608 1357.47,202.567 1378.22,199.576 1398.96,196.632 1419.71,193.733 1440.46,190.878 1461.21,188.067 1481.96,185.296 1502.7,182.566 1523.45,179.875 1544.2,177.221 1564.95,174.604 1585.7,172.022 1606.45,169.475 1627.19,166.962 1647.94,164.481 1668.69,162.032 1689.44,159.614 1710.19,157.225 1730.93,154.866 1751.68,152.536 1772.43,150.233 1793.18,147.958 1813.93,145.708 1834.67,143.485 1855.42,141.286 1876.17,139.113 1896.92,136.963 1917.67,134.836 1938.42,132.733 1959.16,130.651 1979.91,128.592 2000.66,126.554 2021.41,124.536 2042.16,122.539 2062.9,120.563 2083.65,118.605 2104.4,116.667 2125.15,114.748 2145.9,112.847 2166.65,110.964 2187.39,109.098 2208.14,107.25 2228.89,105.419 2249.64,103.604 2270.39,101.806 2291.13,100.024 "/>
<polyline clip-path="url(#clip742)" style="stroke:#e26f46; stroke-linecap:round; stroke-linejoin:round; stroke-width:12; stroke-opacity:1; fill:none" points="237.067,1384.24 257.815,1347.81 278.564,1344.41 299.312,1342.39 320.06,1340.93 340.808,1339.8 361.556,1338.87 382.304,1338.07 403.052,1337.38 423.801,1336.77 444.549,1336.22 465.297,1335.73 486.045,1335.27 506.793,1334.85 527.541,1334.46 548.289,1334.1 569.038,1333.75 589.786,1333.43 610.534,1333.13 631.282,1332.84 652.03,1332.57 672.778,1332.31 693.526,1332.06 714.275,1331.82 735.023,1331.6 755.771,1331.38 776.519,1331.17 797.267,1330.96 818.015,1330.77 838.764,1330.58 859.512,1330.4 880.26,1330.22 901.008,1330.05 921.756,1329.88 942.504,1329.72 963.252,1329.56 984.001,1329.41 1004.75,1329.26 1025.5,1329.12 1046.24,1328.97 1066.99,1328.84 1087.74,1328.7 1108.49,1328.57 1129.24,1328.44 1149.99,1328.32 1170.73,1328.19 1191.48,1328.07 1212.23,1327.96 1232.98,1327.84 1253.73,1327.73 1274.47,1327.62 1295.22,1327.51 1315.97,1327.4 1336.72,1327.3 1357.47,1327.2 1378.22,1327.1 1398.96,1327 1419.71,1326.9 1440.46,1326.8 1461.21,1326.71 1481.96,1326.62 1502.7,1326.53 1523.45,1326.44 1544.2,1326.35 1564.95,1326.26 1585.7,1326.17 1606.45,1326.09 1627.19,1326.01 1647.94,1325.93 1668.69,1325.84 1689.44,1325.76 1710.19,1325.69 1730.93,1325.61 1751.68,1325.53 1772.43,1325.46 1793.18,1325.38 1813.93,1325.31 1834.67,1325.24 1855.42,1325.16 1876.17,1325.09 1896.92,1325.02 1917.67,1324.95 1938.42,1324.89 1959.16,1324.82 1979.91,1324.75 2000.66,1324.69 2021.41,1324.62 2042.16,1324.56 2062.9,1324.49 2083.65,1324.43 2104.4,1324.37 2125.15,1324.31 2145.9,1324.25 2166.65,1324.18 2187.39,1324.13 2208.14,1324.07 2228.89,1324.01 2249.64,1323.95 2270.39,1323.89 2291.13,1323.84 "/>
<polyline clip-path="url(#clip742)" style="stroke:#3da44d; stroke-linecap:round; stroke-linejoin:round; stroke-width:12; stroke-opacity:1; fill:none" points="237.067,1262.72 257.815,740.758 278.564,666 299.312,618.922 320.06,583.927 340.808,555.833 361.556,532.244 382.304,511.843 403.052,493.825 423.801,477.661 444.549,462.983 465.297,449.525 486.045,437.087 506.793,425.516 527.541,414.691 548.289,404.515 569.038,394.911 589.786,385.812 610.534,377.166 631.282,368.926 652.03,361.053 672.778,353.513 693.526,346.278 714.275,339.323 735.023,332.624 755.771,326.162 776.519,319.921 797.267,313.884 818.015,308.037 838.764,302.369 859.512,296.867 880.26,291.521 901.008,286.323 921.756,281.264 942.504,276.335 963.252,271.53 984.001,266.843 1004.75,262.267 1025.5,257.797 1046.24,253.428 1066.99,249.154 1087.74,244.972 1108.49,240.877 1129.24,236.866 1149.99,232.935 1170.73,229.08 1191.48,225.299 1212.23,221.588 1232.98,217.945 1253.73,214.367 1274.47,210.852 1295.22,207.397 1315.97,204 1336.72,200.659 1357.47,197.372 1378.22,194.138 1398.96,190.954 1419.71,187.819 1440.46,184.731 1461.21,181.689 1481.96,178.691 1502.7,175.736 1523.45,172.823 1544.2,169.95 1564.95,167.116 1585.7,164.321 1606.45,161.562 1627.19,158.839 1647.94,156.152 1668.69,153.498 1689.44,150.877 1710.19,148.289 1730.93,145.731 1751.68,143.205 1772.43,140.708 1793.18,138.24 1813.93,135.801 1834.67,133.389 1855.42,131.004 1876.17,128.645 1896.92,126.313 1917.67,124.005 1938.42,121.721 1959.16,119.462 1979.91,117.226 2000.66,115.013 2021.41,112.823 2042.16,110.654 2062.9,108.507 2083.65,106.381 2104.4,104.276 2125.15,102.19 2145.9,100.125 2166.65,98.0782 2187.39,96.0508 2208.14,94.0421 2228.89,92.0515 2249.64,90.0788 2270.39,88.1237 2291.13,86.1857 "/>
<path clip-path="url(#clip740)" d="M248.022 300.469 L798.275 300.469 L798.275 93.1086 L248.022 93.1086  Z" fill="#ffffff" fill-rule="evenodd" fill-opacity="1"/>
<polyline clip-path="url(#clip740)" style="stroke:#000000; stroke-linecap:round; stroke-linejoin:round; stroke-width:4; stroke-opacity:1; fill:none" points="248.022,300.469 798.275,300.469 798.275,93.1086 248.022,93.1086 248.022,300.469 "/>
<polyline clip-path="url(#clip740)" style="stroke:#009af9; stroke-linecap:round; stroke-linejoin:round; stroke-width:12; stroke-opacity:1; fill:none" points="272.215,144.949 417.369,144.949 "/>
<path clip-path="url(#clip740)" d="M457.95 146.025 Q459.454 146.534 460.866 148.201 Q462.302 149.868 463.737 152.784 L468.482 162.229 L463.459 162.229 L459.038 153.363 Q457.325 149.891 455.704 148.756 Q454.107 147.622 451.329 147.622 L446.237 147.622 L446.237 162.229 L441.561 162.229 L441.561 127.669 L452.116 127.669 Q458.042 127.669 460.959 130.145 Q463.876 132.622 463.876 137.622 Q463.876 140.886 462.348 143.039 Q460.843 145.192 457.95 146.025 M446.237 131.511 L446.237 143.78 L452.116 143.78 Q455.496 143.78 457.209 142.229 Q458.945 140.655 458.945 137.622 Q458.945 134.59 457.209 133.062 Q455.496 131.511 452.116 131.511 L446.237 131.511 Z" fill="#000000" fill-rule="nonzero" fill-opacity="1" /><path clip-path="url(#clip740)" d="M485.056 149.196 Q479.894 149.196 477.903 150.377 Q475.913 151.557 475.913 154.405 Q475.913 156.673 477.394 158.016 Q478.899 159.335 481.468 159.335 Q485.01 159.335 487.139 156.835 Q489.292 154.312 489.292 150.145 L489.292 149.196 L485.056 149.196 M493.551 147.437 L493.551 162.229 L489.292 162.229 L489.292 158.293 Q487.834 160.655 485.658 161.789 Q483.482 162.9 480.334 162.9 Q476.352 162.9 473.991 160.678 Q471.653 158.432 471.653 154.682 Q471.653 150.307 474.57 148.085 Q477.51 145.863 483.32 145.863 L489.292 145.863 L489.292 145.446 Q489.292 142.507 487.348 140.909 Q485.426 139.289 481.931 139.289 Q479.709 139.289 477.602 139.821 Q475.496 140.354 473.552 141.419 L473.552 137.483 Q475.889 136.581 478.089 136.141 Q480.288 135.678 482.371 135.678 Q487.996 135.678 490.774 138.594 Q493.551 141.511 493.551 147.437 Z" fill="#000000" fill-rule="nonzero" fill-opacity="1" /><path clip-path="url(#clip740)" d="M502.325 136.303 L506.584 136.303 L506.584 162.229 L502.325 162.229 L502.325 136.303 M502.325 126.21 L506.584 126.21 L506.584 131.604 L502.325 131.604 L502.325 126.21 Z" fill="#000000" fill-rule="nonzero" fill-opacity="1" /><path clip-path="url(#clip740)" d="M537.047 146.581 L537.047 162.229 L532.787 162.229 L532.787 146.719 Q532.787 143.039 531.352 141.21 Q529.917 139.382 527.047 139.382 Q523.598 139.382 521.607 141.581 Q519.616 143.78 519.616 147.576 L519.616 162.229 L515.334 162.229 L515.334 136.303 L519.616 136.303 L519.616 140.331 Q521.144 137.993 523.204 136.835 Q525.287 135.678 527.996 135.678 Q532.463 135.678 534.755 138.456 Q537.047 141.21 537.047 146.581 Z" fill="#000000" fill-rule="nonzero" fill-opacity="1" /><path clip-path="url(#clip740)" d="M543.389 147.344 L555.866 147.344 L555.866 151.141 L543.389 151.141 L543.389 147.344 Z" fill="#000000" fill-rule="nonzero" fill-opacity="1" /><path clip-path="url(#clip740)" d="M588.713 130.331 L588.713 135.261 Q586.352 133.062 583.667 131.974 Q581.005 130.886 577.995 130.886 Q572.07 130.886 568.921 134.52 Q565.773 138.132 565.773 144.983 Q565.773 151.812 568.921 155.446 Q572.07 159.057 577.995 159.057 Q581.005 159.057 583.667 157.969 Q586.352 156.881 588.713 154.682 L588.713 159.567 Q586.259 161.233 583.505 162.067 Q580.773 162.9 577.718 162.9 Q569.87 162.9 565.357 158.108 Q560.843 153.293 560.843 144.983 Q560.843 136.65 565.357 131.858 Q569.87 127.044 577.718 127.044 Q580.819 127.044 583.551 127.877 Q586.306 128.687 588.713 130.331 Z" fill="#000000" fill-rule="nonzero" fill-opacity="1" /><path clip-path="url(#clip740)" d="M595.935 127.669 L600.611 127.669 L600.611 158.293 L617.44 158.293 L617.44 162.229 L595.935 162.229 L595.935 127.669 Z" fill="#000000" fill-rule="nonzero" fill-opacity="1" /><path clip-path="url(#clip740)" d="M622.347 127.669 L627.023 127.669 L627.023 162.229 L622.347 162.229 L622.347 127.669 Z" fill="#000000" fill-rule="nonzero" fill-opacity="1" /><path clip-path="url(#clip740)" d="M636.328 127.669 L643.296 127.669 L652.115 151.187 L660.981 127.669 L667.949 127.669 L667.949 162.229 L663.388 162.229 L663.388 131.882 L654.476 155.585 L649.777 155.585 L640.865 131.882 L640.865 162.229 L636.328 162.229 L636.328 127.669 Z" fill="#000000" fill-rule="nonzero" fill-opacity="1" /><path clip-path="url(#clip740)" d="M688.782 132.275 L682.439 149.474 L695.148 149.474 L688.782 132.275 M686.143 127.669 L691.444 127.669 L704.615 162.229 L699.754 162.229 L696.606 153.363 L681.027 153.363 L677.879 162.229 L672.949 162.229 L686.143 127.669 Z" fill="#000000" fill-rule="nonzero" fill-opacity="1" /><polyline clip-path="url(#clip740)" style="stroke:#e26f46; stroke-linecap:round; stroke-linejoin:round; stroke-width:12; stroke-opacity:1; fill:none" points="272.215,196.789 417.369,196.789 "/>
<path clip-path="url(#clip740)" d="M463.806 180.643 L463.806 185.203 Q461.144 183.93 458.783 183.305 Q456.422 182.68 454.223 182.68 Q450.404 182.68 448.32 184.161 Q446.26 185.643 446.26 188.374 Q446.26 190.666 447.626 191.847 Q449.015 193.004 452.857 193.722 L455.681 194.3 Q460.913 195.296 463.39 197.819 Q465.89 200.319 465.89 204.532 Q465.89 209.555 462.51 212.147 Q459.153 214.74 452.649 214.74 Q450.195 214.74 447.417 214.184 Q444.663 213.629 441.7 212.541 L441.7 207.726 Q444.547 209.323 447.279 210.133 Q450.01 210.944 452.649 210.944 Q456.653 210.944 458.829 209.37 Q461.005 207.796 461.005 204.879 Q461.005 202.333 459.431 200.897 Q457.88 199.462 454.316 198.745 L451.468 198.189 Q446.237 197.147 443.899 194.925 Q441.561 192.703 441.561 188.745 Q441.561 184.161 444.779 181.522 Q448.019 178.884 453.691 178.884 Q456.121 178.884 458.644 179.323 Q461.167 179.763 463.806 180.643 Z" fill="#000000" fill-rule="nonzero" fill-opacity="1" /><path clip-path="url(#clip740)" d="M494.547 198.421 L494.547 214.069 L490.288 214.069 L490.288 198.559 Q490.288 194.879 488.852 193.05 Q487.417 191.222 484.547 191.222 Q481.098 191.222 479.107 193.421 Q477.116 195.62 477.116 199.416 L477.116 214.069 L472.834 214.069 L472.834 188.143 L477.116 188.143 L477.116 192.171 Q478.644 189.833 480.704 188.675 Q482.788 187.518 485.496 187.518 Q489.963 187.518 492.255 190.296 Q494.547 193.05 494.547 198.421 Z" fill="#000000" fill-rule="nonzero" fill-opacity="1" /><path clip-path="url(#clip740)" d="M513.088 191.129 Q509.662 191.129 507.672 193.814 Q505.681 196.476 505.681 201.129 Q505.681 205.782 507.649 208.467 Q509.639 211.129 513.088 211.129 Q516.491 211.129 518.482 208.444 Q520.473 205.758 520.473 201.129 Q520.473 196.522 518.482 193.837 Q516.491 191.129 513.088 191.129 M513.088 187.518 Q518.644 187.518 521.815 191.129 Q524.986 194.74 524.986 201.129 Q524.986 207.495 521.815 211.129 Q518.644 214.74 513.088 214.74 Q507.51 214.74 504.338 211.129 Q501.19 207.495 501.19 201.129 Q501.19 194.74 504.338 191.129 Q507.51 187.518 513.088 187.518 Z" fill="#000000" fill-rule="nonzero" fill-opacity="1" /><path clip-path="url(#clip740)" d="M529.57 188.143 L533.829 188.143 L539.153 208.374 L544.454 188.143 L549.477 188.143 L554.801 208.374 L560.102 188.143 L564.361 188.143 L557.579 214.069 L552.556 214.069 L546.977 192.819 L541.375 214.069 L536.352 214.069 L529.57 188.143 Z" fill="#000000" fill-rule="nonzero" fill-opacity="1" /><path clip-path="url(#clip740)" d="M568.667 199.184 L581.144 199.184 L581.144 202.981 L568.667 202.981 L568.667 199.184 Z" fill="#000000" fill-rule="nonzero" fill-opacity="1" /><path clip-path="url(#clip740)" d="M613.991 182.171 L613.991 187.101 Q611.629 184.902 608.944 183.814 Q606.282 182.726 603.273 182.726 Q597.347 182.726 594.199 186.36 Q591.051 189.972 591.051 196.823 Q591.051 203.652 594.199 207.286 Q597.347 210.897 603.273 210.897 Q606.282 210.897 608.944 209.809 Q611.629 208.721 613.991 206.522 L613.991 211.407 Q611.537 213.073 608.782 213.907 Q606.051 214.74 602.995 214.74 Q595.148 214.74 590.634 209.948 Q586.12 205.133 586.12 196.823 Q586.12 188.49 590.634 183.698 Q595.148 178.884 602.995 178.884 Q606.097 178.884 608.829 179.717 Q611.583 180.527 613.991 182.171 Z" fill="#000000" fill-rule="nonzero" fill-opacity="1" /><path clip-path="url(#clip740)" d="M621.213 179.509 L625.889 179.509 L625.889 210.133 L642.717 210.133 L642.717 214.069 L621.213 214.069 L621.213 179.509 Z" fill="#000000" fill-rule="nonzero" fill-opacity="1" /><path clip-path="url(#clip740)" d="M647.625 179.509 L652.301 179.509 L652.301 214.069 L647.625 214.069 L647.625 179.509 Z" fill="#000000" fill-rule="nonzero" fill-opacity="1" /><path clip-path="url(#clip740)" d="M661.606 179.509 L668.574 179.509 L677.393 203.027 L686.259 179.509 L693.226 179.509 L693.226 214.069 L688.666 214.069 L688.666 183.722 L679.754 207.425 L675.055 207.425 L666.143 183.722 L666.143 214.069 L661.606 214.069 L661.606 179.509 Z" fill="#000000" fill-rule="nonzero" fill-opacity="1" /><path clip-path="url(#clip740)" d="M714.059 184.115 L707.717 201.314 L720.425 201.314 L714.059 184.115 M711.421 179.509 L716.722 179.509 L729.893 214.069 L725.032 214.069 L721.884 205.203 L706.305 205.203 L703.157 214.069 L698.226 214.069 L711.421 179.509 Z" fill="#000000" fill-rule="nonzero" fill-opacity="1" /><polyline clip-path="url(#clip740)" style="stroke:#3da44d; stroke-linecap:round; stroke-linejoin:round; stroke-width:12; stroke-opacity:1; fill:none" points="272.215,248.629 417.369,248.629 "/>
<path clip-path="url(#clip740)" d="M457.95 249.705 Q459.454 250.214 460.866 251.881 Q462.302 253.548 463.737 256.464 L468.482 265.909 L463.459 265.909 L459.038 257.043 Q457.325 253.571 455.704 252.436 Q454.107 251.302 451.329 251.302 L446.237 251.302 L446.237 265.909 L441.561 265.909 L441.561 231.349 L452.116 231.349 Q458.042 231.349 460.959 233.825 Q463.876 236.302 463.876 241.302 Q463.876 244.566 462.348 246.719 Q460.843 248.872 457.95 249.705 M446.237 235.191 L446.237 247.46 L452.116 247.46 Q455.496 247.46 457.209 245.909 Q458.945 244.335 458.945 241.302 Q458.945 238.27 457.209 236.742 Q455.496 235.191 452.116 235.191 L446.237 235.191 Z" fill="#000000" fill-rule="nonzero" fill-opacity="1" /><path clip-path="url(#clip740)" d="M485.056 252.876 Q479.894 252.876 477.903 254.057 Q475.913 255.237 475.913 258.085 Q475.913 260.353 477.394 261.696 Q478.899 263.015 481.468 263.015 Q485.01 263.015 487.139 260.515 Q489.292 257.992 489.292 253.825 L489.292 252.876 L485.056 252.876 M493.551 251.117 L493.551 265.909 L489.292 265.909 L489.292 261.973 Q487.834 264.335 485.658 265.469 Q483.482 266.58 480.334 266.58 Q476.352 266.58 473.991 264.358 Q471.653 262.112 471.653 258.362 Q471.653 253.987 474.57 251.765 Q477.51 249.543 483.32 249.543 L489.292 249.543 L489.292 249.126 Q489.292 246.187 487.348 244.589 Q485.426 242.969 481.931 242.969 Q479.709 242.969 477.602 243.501 Q475.496 244.034 473.552 245.099 L473.552 241.163 Q475.889 240.261 478.089 239.821 Q480.288 239.358 482.371 239.358 Q487.996 239.358 490.774 242.274 Q493.551 245.191 493.551 251.117 Z" fill="#000000" fill-rule="nonzero" fill-opacity="1" /><path clip-path="url(#clip740)" d="M502.325 239.983 L506.584 239.983 L506.584 265.909 L502.325 265.909 L502.325 239.983 M502.325 229.89 L506.584 229.89 L506.584 235.284 L502.325 235.284 L502.325 229.89 Z" fill="#000000" fill-rule="nonzero" fill-opacity="1" /><path clip-path="url(#clip740)" d="M537.047 250.261 L537.047 265.909 L532.787 265.909 L532.787 250.399 Q532.787 246.719 531.352 244.89 Q529.917 243.062 527.047 243.062 Q523.598 243.062 521.607 245.261 Q519.616 247.46 519.616 251.256 L519.616 265.909 L515.334 265.909 L515.334 239.983 L519.616 239.983 L519.616 244.011 Q521.144 241.673 523.204 240.515 Q525.287 239.358 527.996 239.358 Q532.463 239.358 534.755 242.136 Q537.047 244.89 537.047 250.261 Z" fill="#000000" fill-rule="nonzero" fill-opacity="1" /><path clip-path="url(#clip740)" d="M543.389 251.024 L555.866 251.024 L555.866 254.821 L543.389 254.821 L543.389 251.024 Z" fill="#000000" fill-rule="nonzero" fill-opacity="1" /><path clip-path="url(#clip740)" d="M562.833 231.349 L584.685 231.349 L584.685 235.284 L567.509 235.284 L567.509 245.515 L583.968 245.515 L583.968 249.45 L567.509 249.45 L567.509 261.973 L585.102 261.973 L585.102 265.909 L562.833 265.909 L562.833 231.349 Z" fill="#000000" fill-rule="nonzero" fill-opacity="1" /><path clip-path="url(#clip740)" d="M612.787 244.96 Q614.384 242.089 616.606 240.724 Q618.829 239.358 621.838 239.358 Q625.889 239.358 628.088 242.205 Q630.287 245.029 630.287 250.261 L630.287 265.909 L626.004 265.909 L626.004 250.399 Q626.004 246.673 624.685 244.867 Q623.366 243.062 620.657 243.062 Q617.347 243.062 615.426 245.261 Q613.504 247.46 613.504 251.256 L613.504 265.909 L609.222 265.909 L609.222 250.399 Q609.222 246.649 607.903 244.867 Q606.583 243.062 603.829 243.062 Q600.565 243.062 598.643 245.284 Q596.722 247.483 596.722 251.256 L596.722 265.909 L592.44 265.909 L592.44 239.983 L596.722 239.983 L596.722 244.011 Q598.18 241.626 600.218 240.492 Q602.255 239.358 605.055 239.358 Q607.88 239.358 609.847 240.793 Q611.838 242.228 612.787 244.96 Z" fill="#000000" fill-rule="nonzero" fill-opacity="1" /><path clip-path="url(#clip740)" d="M642.902 262.02 L642.902 275.77 L638.62 275.77 L638.62 239.983 L642.902 239.983 L642.902 243.918 Q644.245 241.603 646.282 240.492 Q648.342 239.358 651.189 239.358 Q655.912 239.358 658.851 243.108 Q661.814 246.858 661.814 252.969 Q661.814 259.08 658.851 262.83 Q655.912 266.58 651.189 266.58 Q648.342 266.58 646.282 265.469 Q644.245 264.335 642.902 262.02 M657.393 252.969 Q657.393 248.27 655.449 245.608 Q653.527 242.923 650.148 242.923 Q646.768 242.923 644.824 245.608 Q642.902 248.27 642.902 252.969 Q642.902 257.668 644.824 260.353 Q646.768 263.015 650.148 263.015 Q653.527 263.015 655.449 260.353 Q657.393 257.668 657.393 252.969 Z" fill="#000000" fill-rule="nonzero" fill-opacity="1" /><path clip-path="url(#clip740)" d="M668.875 239.983 L673.134 239.983 L673.134 265.909 L668.875 265.909 L668.875 239.983 M668.875 229.89 L673.134 229.89 L673.134 235.284 L668.875 235.284 L668.875 229.89 Z" fill="#000000" fill-rule="nonzero" fill-opacity="1" /><path clip-path="url(#clip740)" d="M697.069 243.964 Q696.351 243.548 695.495 243.362 Q694.661 243.154 693.643 243.154 Q690.032 243.154 688.087 245.515 Q686.166 247.853 686.166 252.251 L686.166 265.909 L681.884 265.909 L681.884 239.983 L686.166 239.983 L686.166 244.011 Q687.509 241.649 689.661 240.515 Q691.814 239.358 694.893 239.358 Q695.333 239.358 695.865 239.427 Q696.398 239.474 697.046 239.589 L697.069 243.964 Z" fill="#000000" fill-rule="nonzero" fill-opacity="1" /><path clip-path="url(#clip740)" d="M701.536 239.983 L705.796 239.983 L705.796 265.909 L701.536 265.909 L701.536 239.983 M701.536 229.89 L705.796 229.89 L705.796 235.284 L701.536 235.284 L701.536 229.89 Z" fill="#000000" fill-rule="nonzero" fill-opacity="1" /><path clip-path="url(#clip740)" d="M733.365 240.978 L733.365 244.96 Q731.559 243.964 729.731 243.478 Q727.925 242.969 726.073 242.969 Q721.93 242.969 719.638 245.608 Q717.347 248.224 717.347 252.969 Q717.347 257.714 719.638 260.353 Q721.93 262.969 726.073 262.969 Q727.925 262.969 729.731 262.483 Q731.559 261.973 733.365 260.978 L733.365 264.913 Q731.583 265.747 729.661 266.163 Q727.763 266.58 725.61 266.58 Q719.754 266.58 716.305 262.899 Q712.856 259.219 712.856 252.969 Q712.856 246.626 716.328 242.992 Q719.823 239.358 725.888 239.358 Q727.856 239.358 729.731 239.775 Q731.606 240.168 733.365 240.978 Z" fill="#000000" fill-rule="nonzero" fill-opacity="1" /><path clip-path="url(#clip740)" d="M752.555 252.876 Q747.393 252.876 745.402 254.057 Q743.411 255.237 743.411 258.085 Q743.411 260.353 744.893 261.696 Q746.397 263.015 748.967 263.015 Q752.508 263.015 754.638 260.515 Q756.791 257.992 756.791 253.825 L756.791 252.876 L752.555 252.876 M761.05 251.117 L761.05 265.909 L756.791 265.909 L756.791 261.973 Q755.332 264.335 753.157 265.469 Q750.981 266.58 747.832 266.58 Q743.851 266.58 741.49 264.358 Q739.152 262.112 739.152 258.362 Q739.152 253.987 742.069 251.765 Q745.008 249.543 750.819 249.543 L756.791 249.543 L756.791 249.126 Q756.791 246.187 754.846 244.589 Q752.925 242.969 749.43 242.969 Q747.207 242.969 745.101 243.501 Q742.995 244.034 741.05 245.099 L741.05 241.163 Q743.388 240.261 745.587 239.821 Q747.786 239.358 749.869 239.358 Q755.494 239.358 758.272 242.274 Q761.05 245.191 761.05 251.117 Z" fill="#000000" fill-rule="nonzero" fill-opacity="1" /><path clip-path="url(#clip740)" d="M769.823 229.89 L774.082 229.89 L774.082 265.909 L769.823 265.909 L769.823 229.89 Z" fill="#000000" fill-rule="nonzero" fill-opacity="1" /></svg>
