<?xml version="1.0" encoding="utf-8"?>
<svg xmlns="http://www.w3.org/2000/svg" xmlns:xlink="http://www.w3.org/1999/xlink" width="600" height="400" viewBox="0 0 2400 1600">
<defs>
  <clipPath id="clip020">
    <rect x="0" y="0" width="2400" height="1600"/>
  </clipPath>
</defs>
<path clip-path="url(#clip020)" d="M0 1600 L2400 1600 L2400 0 L0 0  Z" fill="#ffffff" fill-rule="evenodd" fill-opacity="1"/>
<defs>
  <clipPath id="clip021">
    <rect x="480" y="0" width="1681" height="1600"/>
  </clipPath>
</defs>
<path clip-path="url(#clip020)" d="M370.509 1423.18 L2352.76 1423.18 L2352.76 47.2441 L370.509 47.2441  Z" fill="#ffffff" fill-rule="evenodd" fill-opacity="1"/>
<defs>
  <clipPath id="clip022">
    <rect x="370" y="47" width="1983" height="1377"/>
  </clipPath>
</defs>
<polyline clip-path="url(#clip022)" style="stroke:#000000; stroke-linecap:round; stroke-linejoin:round; stroke-width:2; stroke-opacity:0.1; fill:none" points="426.607,1423.18 426.607,47.2441 "/>
<polyline clip-path="url(#clip022)" style="stroke:#000000; stroke-linecap:round; stroke-linejoin:round; stroke-width:2; stroke-opacity:0.1; fill:none" points="800.616,1423.18 800.616,47.2441 "/>
<polyline clip-path="url(#clip022)" style="stroke:#000000; stroke-linecap:round; stroke-linejoin:round; stroke-width:2; stroke-opacity:0.1; fill:none" points="1174.63,1423.18 1174.63,47.2441 "/>
<polyline clip-path="url(#clip022)" style="stroke:#000000; stroke-linecap:round; stroke-linejoin:round; stroke-width:2; stroke-opacity:0.1; fill:none" points="1548.64,1423.18 1548.64,47.2441 "/>
<polyline clip-path="url(#clip022)" style="stroke:#000000; stroke-linecap:round; stroke-linejoin:round; stroke-width:2; stroke-opacity:0.1; fill:none" points="1922.65,1423.18 1922.65,47.2441 "/>
<polyline clip-path="url(#clip022)" style="stroke:#000000; stroke-linecap:round; stroke-linejoin:round; stroke-width:2; stroke-opacity:0.1; fill:none" points="2296.65,1423.18 2296.65,47.2441 "/>
<polyline clip-path="url(#clip022)" style="stroke:#000000; stroke-linecap:round; stroke-linejoin:round; stroke-width:2; stroke-opacity:0.1; fill:none" points="370.509,1384.24 2352.76,1384.24 "/>
<polyline clip-path="url(#clip022)" style="stroke:#000000; stroke-linecap:round; stroke-linejoin:round; stroke-width:2; stroke-opacity:0.1; fill:none" points="370.509,1096.39 2352.76,1096.39 "/>
<polyline clip-path="url(#clip022)" style="stroke:#000000; stroke-linecap:round; stroke-linejoin:round; stroke-width:2; stroke-opacity:0.1; fill:none" points="370.509,808.548 2352.76,808.548 "/>
<polyline clip-path="url(#clip022)" style="stroke:#000000; stroke-linecap:round; stroke-linejoin:round; stroke-width:2; stroke-opacity:0.1; fill:none" points="370.509,520.704 2352.76,520.704 "/>
<polyline clip-path="url(#clip022)" style="stroke:#000000; stroke-linecap:round; stroke-linejoin:round; stroke-width:2; stroke-opacity:0.1; fill:none" points="370.509,232.859 2352.76,232.859 "/>
<polyline clip-path="url(#clip020)" style="stroke:#000000; stroke-linecap:round; stroke-linejoin:round; stroke-width:4; stroke-opacity:1; fill:none" points="370.509,1423.18 2352.76,1423.18 "/>
<polyline clip-path="url(#clip020)" style="stroke:#000000; stroke-linecap:round; stroke-linejoin:round; stroke-width:4; stroke-opacity:1; fill:none" points="426.607,1423.18 426.607,1404.28 "/>
<polyline clip-path="url(#clip020)" style="stroke:#000000; stroke-linecap:round; stroke-linejoin:round; stroke-width:4; stroke-opacity:1; fill:none" points="800.616,1423.18 800.616,1404.28 "/>
<polyline clip-path="url(#clip020)" style="stroke:#000000; stroke-linecap:round; stroke-linejoin:round; stroke-width:4; stroke-opacity:1; fill:none" points="1174.63,1423.18 1174.63,1404.28 "/>
<polyline clip-path="url(#clip020)" style="stroke:#000000; stroke-linecap:round; stroke-linejoin:round; stroke-width:4; stroke-opacity:1; fill:none" points="1548.64,1423.18 1548.64,1404.28 "/>
<polyline clip-path="url(#clip020)" style="stroke:#000000; stroke-linecap:round; stroke-linejoin:round; stroke-width:4; stroke-opacity:1; fill:none" points="1922.65,1423.18 1922.65,1404.28 "/>
<polyline clip-path="url(#clip020)" style="stroke:#000000; stroke-linecap:round; stroke-linejoin:round; stroke-width:4; stroke-opacity:1; fill:none" points="2296.65,1423.18 2296.65,1404.28 "/>
<path clip-path="url(#clip020)" d="M426.607 1454.1 Q422.996 1454.1 421.167 1457.66 Q419.362 1461.2 419.362 1468.33 Q419.362 1475.44 421.167 1479.01 Q422.996 1482.55 426.607 1482.55 Q430.241 1482.55 432.047 1479.01 Q433.875 1475.44 433.875 1468.33 Q433.875 1461.2 432.047 1457.66 Q430.241 1454.1 426.607 1454.1 M426.607 1450.39 Q432.417 1450.39 435.473 1455 Q438.551 1459.58 438.551 1468.33 Q438.551 1477.06 435.473 1481.67 Q432.417 1486.25 426.607 1486.25 Q420.797 1486.25 417.718 1481.67 Q414.662 1477.06 414.662 1468.33 Q414.662 1459.58 417.718 1455 Q420.797 1450.39 426.607 1450.39 Z" fill="#000000" fill-rule="nonzero" fill-opacity="1" /><path clip-path="url(#clip020)" d="M790.998 1481.64 L798.637 1481.64 L798.637 1455.28 L790.327 1456.95 L790.327 1452.69 L798.591 1451.02 L803.267 1451.02 L803.267 1481.64 L810.906 1481.64 L810.906 1485.58 L790.998 1485.58 L790.998 1481.64 Z" fill="#000000" fill-rule="nonzero" fill-opacity="1" /><path clip-path="url(#clip020)" d="M1169.28 1481.64 L1185.6 1481.64 L1185.6 1485.58 L1163.65 1485.58 L1163.65 1481.64 Q1166.32 1478.89 1170.9 1474.26 Q1175.51 1469.61 1176.69 1468.27 Q1178.93 1465.74 1179.81 1464.01 Q1180.71 1462.25 1180.71 1460.56 Q1180.71 1457.8 1178.77 1456.07 Q1176.85 1454.33 1173.75 1454.33 Q1171.55 1454.33 1169.09 1455.09 Q1166.66 1455.86 1163.89 1457.41 L1163.89 1452.69 Q1166.71 1451.55 1169.16 1450.97 Q1171.62 1450.39 1173.65 1450.39 Q1179.02 1450.39 1182.22 1453.08 Q1185.41 1455.77 1185.41 1460.26 Q1185.41 1462.39 1184.6 1464.31 Q1183.82 1466.2 1181.71 1468.8 Q1181.13 1469.47 1178.03 1472.69 Q1174.93 1475.88 1169.28 1481.64 Z" fill="#000000" fill-rule="nonzero" fill-opacity="1" /><path clip-path="url(#clip020)" d="M1552.88 1466.95 Q1556.24 1467.66 1558.11 1469.93 Q1560.01 1472.2 1560.01 1475.53 Q1560.01 1480.65 1556.49 1483.45 Q1552.98 1486.25 1546.49 1486.25 Q1544.32 1486.25 1542 1485.81 Q1539.71 1485.39 1537.26 1484.54 L1537.26 1480.02 Q1539.2 1481.16 1541.52 1481.74 Q1543.83 1482.32 1546.36 1482.32 Q1550.75 1482.32 1553.05 1480.58 Q1555.36 1478.84 1555.36 1475.53 Q1555.36 1472.48 1553.21 1470.77 Q1551.08 1469.03 1547.26 1469.03 L1543.23 1469.03 L1543.23 1465.19 L1547.44 1465.19 Q1550.89 1465.19 1552.72 1463.82 Q1554.55 1462.43 1554.55 1459.84 Q1554.55 1457.18 1552.65 1455.77 Q1550.78 1454.33 1547.26 1454.33 Q1545.34 1454.33 1543.14 1454.75 Q1540.94 1455.16 1538.3 1456.04 L1538.3 1451.88 Q1540.96 1451.14 1543.28 1450.77 Q1545.61 1450.39 1547.67 1450.39 Q1553 1450.39 1556.1 1452.83 Q1559.2 1455.23 1559.2 1459.35 Q1559.2 1462.22 1557.56 1464.21 Q1555.92 1466.18 1552.88 1466.95 Z" fill="#000000" fill-rule="nonzero" fill-opacity="1" /><path clip-path="url(#clip020)" d="M1925.65 1455.09 L1913.85 1473.54 L1925.65 1473.54 L1925.65 1455.09 M1924.43 1451.02 L1930.31 1451.02 L1930.31 1473.54 L1935.24 1473.54 L1935.24 1477.43 L1930.31 1477.43 L1930.31 1485.58 L1925.65 1485.58 L1925.65 1477.43 L1910.05 1477.43 L1910.05 1472.92 L1924.43 1451.02 Z" fill="#000000" fill-rule="nonzero" fill-opacity="1" /><path clip-path="url(#clip020)" d="M2286.93 1451.02 L2305.29 1451.02 L2305.29 1454.96 L2291.21 1454.96 L2291.21 1463.43 Q2292.23 1463.08 2293.25 1462.92 Q2294.27 1462.73 2295.29 1462.73 Q2301.08 1462.73 2304.46 1465.9 Q2307.84 1469.08 2307.84 1474.49 Q2307.84 1480.07 2304.36 1483.17 Q2300.89 1486.25 2294.57 1486.25 Q2292.4 1486.25 2290.13 1485.88 Q2287.88 1485.51 2285.47 1484.77 L2285.47 1480.07 Q2287.56 1481.2 2289.78 1481.76 Q2292 1482.32 2294.48 1482.32 Q2298.48 1482.32 2300.82 1480.21 Q2303.16 1478.1 2303.16 1474.49 Q2303.16 1470.88 2300.82 1468.77 Q2298.48 1466.67 2294.48 1466.67 Q2292.6 1466.67 2290.73 1467.08 Q2288.88 1467.5 2286.93 1468.38 L2286.93 1451.02 Z" fill="#000000" fill-rule="nonzero" fill-opacity="1" /><path clip-path="url(#clip020)" d="M1051.4 1550.25 Q1051.4 1556.71 1054.04 1560.4 Q1056.72 1564.07 1061.36 1564.07 Q1066.01 1564.07 1068.68 1560.4 Q1071.36 1556.71 1071.36 1550.25 Q1071.36 1543.79 1068.68 1540.13 Q1066.01 1536.44 1061.36 1536.44 Q1056.72 1536.44 1054.04 1540.13 Q1051.4 1543.79 1051.4 1550.25 M1071.36 1562.7 Q1069.51 1565.88 1066.68 1567.44 Q1063.88 1568.97 1059.93 1568.97 Q1053.47 1568.97 1049.39 1563.81 Q1045.35 1558.65 1045.35 1550.25 Q1045.35 1541.85 1049.39 1536.69 Q1053.47 1531.54 1059.93 1531.54 Q1063.88 1531.54 1066.68 1533.1 Q1069.51 1534.62 1071.36 1537.81 L1071.36 1532.4 L1077.21 1532.4 L1077.21 1581.6 L1071.36 1581.6 L1071.36 1562.7 Z" fill="#000000" fill-rule="nonzero" fill-opacity="1" /><path clip-path="url(#clip020)" d="M1116.36 1578.87 L1116.36 1583.42 L1082.5 1583.42 L1082.5 1578.87 L1116.36 1578.87 Z" fill="#000000" fill-rule="nonzero" fill-opacity="1" /><path clip-path="url(#clip020)" d="M1121.87 1518.52 L1127.72 1518.52 L1127.72 1568.04 L1121.87 1568.04 L1121.87 1518.52 Z" fill="#000000" fill-rule="nonzero" fill-opacity="1" /><path clip-path="url(#clip020)" d="M1139.98 1532.4 L1145.84 1532.4 L1145.84 1568.04 L1139.98 1568.04 L1139.98 1532.4 M1139.98 1518.52 L1145.84 1518.52 L1145.84 1525.93 L1139.98 1525.93 L1139.98 1518.52 Z" fill="#000000" fill-rule="nonzero" fill-opacity="1" /><path clip-path="url(#clip020)" d="M1161.59 1550.25 Q1161.59 1556.71 1164.23 1560.4 Q1166.91 1564.07 1171.55 1564.07 Q1176.2 1564.07 1178.87 1560.4 Q1181.55 1556.71 1181.55 1550.25 Q1181.55 1543.79 1178.87 1540.13 Q1176.2 1536.44 1171.55 1536.44 Q1166.91 1536.44 1164.23 1540.13 Q1161.59 1543.79 1161.59 1550.25 M1181.55 1562.7 Q1179.7 1565.88 1176.87 1567.44 Q1174.07 1568.97 1170.12 1568.97 Q1163.66 1568.97 1159.59 1563.81 Q1155.54 1558.65 1155.54 1550.25 Q1155.54 1541.85 1159.59 1536.69 Q1163.66 1531.54 1170.12 1531.54 Q1174.07 1531.54 1176.87 1533.1 Q1179.7 1534.62 1181.55 1537.81 L1181.55 1532.4 L1187.4 1532.4 L1187.4 1581.6 L1181.55 1581.6 L1181.55 1562.7 Z" fill="#000000" fill-rule="nonzero" fill-opacity="1" /><path clip-path="url(#clip020)" d="M1234 1536.5 Q1229.29 1536.5 1226.55 1540.19 Q1223.82 1543.85 1223.82 1550.25 Q1223.82 1556.65 1226.52 1560.34 Q1229.26 1564 1234 1564 Q1238.68 1564 1241.42 1560.31 Q1244.15 1556.62 1244.15 1550.25 Q1244.15 1543.92 1241.42 1540.23 Q1238.68 1536.5 1234 1536.5 M1234 1531.54 Q1241.64 1531.54 1246 1536.5 Q1250.36 1541.47 1250.36 1550.25 Q1250.36 1559 1246 1564 Q1241.64 1568.97 1234 1568.97 Q1226.33 1568.97 1221.97 1564 Q1217.64 1559 1217.64 1550.25 Q1217.64 1541.47 1221.97 1536.5 Q1226.33 1531.54 1234 1531.54 Z" fill="#000000" fill-rule="nonzero" fill-opacity="1" /><path clip-path="url(#clip020)" d="M1280.72 1537.87 Q1279.74 1537.3 1278.56 1537.04 Q1277.41 1536.76 1276.01 1536.76 Q1271.05 1536.76 1268.37 1540 Q1265.73 1543.22 1265.73 1549.27 L1265.73 1568.04 L1259.84 1568.04 L1259.84 1532.4 L1265.73 1532.4 L1265.73 1537.93 Q1267.58 1534.69 1270.54 1533.13 Q1273.5 1531.54 1277.73 1531.54 Q1278.34 1531.54 1279.07 1531.63 Q1279.8 1531.7 1280.69 1531.85 L1280.72 1537.87 Z" fill="#000000" fill-rule="nonzero" fill-opacity="1" /><path clip-path="url(#clip020)" d="M1311.09 1550.25 Q1311.09 1556.71 1313.73 1560.4 Q1316.4 1564.07 1321.05 1564.07 Q1325.7 1564.07 1328.37 1560.4 Q1331.05 1556.71 1331.05 1550.25 Q1331.05 1543.79 1328.37 1540.13 Q1325.7 1536.44 1321.05 1536.44 Q1316.4 1536.44 1313.73 1540.13 Q1311.09 1543.79 1311.09 1550.25 M1331.05 1562.7 Q1329.2 1565.88 1326.37 1567.44 Q1323.57 1568.97 1319.62 1568.97 Q1313.16 1568.97 1309.08 1563.81 Q1305.04 1558.65 1305.04 1550.25 Q1305.04 1541.85 1309.08 1536.69 Q1313.16 1531.54 1319.62 1531.54 Q1323.57 1531.54 1326.37 1533.1 Q1329.2 1534.62 1331.05 1537.81 L1331.05 1532.4 L1336.9 1532.4 L1336.9 1581.6 L1331.05 1581.6 L1331.05 1562.7 Z" fill="#000000" fill-rule="nonzero" fill-opacity="1" /><path clip-path="url(#clip020)" d="M1376.05 1578.87 L1376.05 1583.42 L1342.19 1583.42 L1342.19 1578.87 L1376.05 1578.87 Z" fill="#000000" fill-rule="nonzero" fill-opacity="1" /><path clip-path="url(#clip020)" d="M1381.56 1532.4 L1387.41 1532.4 L1387.41 1568.04 L1381.56 1568.04 L1381.56 1532.4 M1381.56 1518.52 L1387.41 1518.52 L1387.41 1525.93 L1381.56 1525.93 L1381.56 1518.52 Z" fill="#000000" fill-rule="nonzero" fill-opacity="1" /><path clip-path="url(#clip020)" d="M1425.32 1533.76 L1425.32 1539.24 Q1422.84 1537.87 1420.32 1537.2 Q1417.84 1536.5 1415.3 1536.5 Q1409.6 1536.5 1406.45 1540.13 Q1403.3 1543.73 1403.3 1550.25 Q1403.3 1556.78 1406.45 1560.4 Q1409.6 1564 1415.3 1564 Q1417.84 1564 1420.32 1563.33 Q1422.84 1562.63 1425.32 1561.26 L1425.32 1566.68 Q1422.87 1567.82 1420.23 1568.39 Q1417.62 1568.97 1414.66 1568.97 Q1406.61 1568.97 1401.86 1563.91 Q1397.12 1558.85 1397.12 1550.25 Q1397.12 1541.53 1401.9 1536.53 Q1406.7 1531.54 1415.04 1531.54 Q1417.75 1531.54 1420.32 1532.11 Q1422.9 1532.65 1425.32 1533.76 Z" fill="#000000" fill-rule="nonzero" fill-opacity="1" /><path clip-path="url(#clip020)" d="M1466 1548.76 L1466 1551.62 L1439.07 1551.62 Q1439.45 1557.67 1442.7 1560.85 Q1445.98 1564 1451.8 1564 Q1455.18 1564 1458.33 1563.17 Q1461.51 1562.35 1464.63 1560.69 L1464.63 1566.23 Q1461.48 1567.57 1458.17 1568.27 Q1454.86 1568.97 1451.45 1568.97 Q1442.92 1568.97 1437.93 1564 Q1432.96 1559.04 1432.96 1550.57 Q1432.96 1541.82 1437.67 1536.69 Q1442.41 1531.54 1450.43 1531.54 Q1457.63 1531.54 1461.8 1536.18 Q1466 1540.8 1466 1548.76 M1460.14 1547.04 Q1460.08 1542.23 1457.44 1539.37 Q1454.83 1536.5 1450.5 1536.5 Q1445.6 1536.5 1442.64 1539.27 Q1439.71 1542.04 1439.26 1547.07 L1460.14 1547.04 Z" fill="#000000" fill-rule="nonzero" fill-opacity="1" /><path clip-path="url(#clip020)" d="M1495.79 1518.52 L1509.29 1518.52 L1509.29 1523.07 L1501.65 1523.07 L1501.65 1572.09 L1509.29 1572.09 L1509.29 1576.64 L1495.79 1576.64 L1495.79 1518.52 Z" fill="#000000" fill-rule="nonzero" fill-opacity="1" /><path clip-path="url(#clip020)" d="M1545.22 1549.81 Q1545.22 1543.44 1542.58 1539.94 Q1539.97 1536.44 1535.23 1536.44 Q1530.51 1536.44 1527.87 1539.94 Q1525.26 1543.44 1525.26 1549.81 Q1525.26 1556.14 1527.87 1559.64 Q1530.51 1563.14 1535.23 1563.14 Q1539.97 1563.14 1542.58 1559.64 Q1545.22 1556.14 1545.22 1549.81 M1551.08 1563.62 Q1551.08 1572.72 1547.03 1577.15 Q1542.99 1581.6 1534.65 1581.6 Q1531.57 1581.6 1528.83 1581.13 Q1526.09 1580.68 1523.51 1579.72 L1523.51 1574.03 Q1526.09 1575.43 1528.61 1576.1 Q1531.12 1576.76 1533.73 1576.76 Q1539.49 1576.76 1542.35 1573.74 Q1545.22 1570.75 1545.22 1564.67 L1545.22 1561.77 Q1543.41 1564.92 1540.57 1566.48 Q1537.74 1568.04 1533.79 1568.04 Q1527.24 1568.04 1523.23 1563.05 Q1519.22 1558.05 1519.22 1549.81 Q1519.22 1541.53 1523.23 1536.53 Q1527.24 1531.54 1533.79 1531.54 Q1537.74 1531.54 1540.57 1533.1 Q1543.41 1534.66 1545.22 1537.81 L1545.22 1532.4 L1551.08 1532.4 L1551.08 1563.62 Z" fill="#000000" fill-rule="nonzero" fill-opacity="1" /><path clip-path="url(#clip020)" d="M1573.55 1520.52 L1578.96 1520.52 L1562.41 1574.09 L1557 1574.09 L1573.55 1520.52 Z" fill="#000000" fill-rule="nonzero" fill-opacity="1" /><path clip-path="url(#clip020)" d="M1584.88 1518.52 L1590.77 1518.52 L1590.77 1547.77 L1608.24 1532.4 L1615.72 1532.4 L1596.81 1549.07 L1616.52 1568.04 L1608.88 1568.04 L1590.77 1550.63 L1590.77 1568.04 L1584.88 1568.04 L1584.88 1518.52 Z" fill="#000000" fill-rule="nonzero" fill-opacity="1" /><path clip-path="url(#clip020)" d="M1646.31 1549.81 Q1646.31 1543.44 1643.67 1539.94 Q1641.06 1536.44 1636.31 1536.44 Q1631.6 1536.44 1628.96 1539.94 Q1626.35 1543.44 1626.35 1549.81 Q1626.35 1556.14 1628.96 1559.64 Q1631.6 1563.14 1636.31 1563.14 Q1641.06 1563.14 1643.67 1559.64 Q1646.31 1556.14 1646.31 1549.81 M1652.16 1563.62 Q1652.16 1572.72 1648.12 1577.15 Q1644.08 1581.6 1635.74 1581.6 Q1632.65 1581.6 1629.92 1581.13 Q1627.18 1580.68 1624.6 1579.72 L1624.6 1574.03 Q1627.18 1575.43 1629.69 1576.1 Q1632.21 1576.76 1634.82 1576.76 Q1640.58 1576.76 1643.44 1573.74 Q1646.31 1570.75 1646.31 1564.67 L1646.31 1561.77 Q1644.49 1564.92 1641.66 1566.48 Q1638.83 1568.04 1634.88 1568.04 Q1628.32 1568.04 1624.31 1563.05 Q1620.3 1558.05 1620.3 1549.81 Q1620.3 1541.53 1624.31 1536.53 Q1628.32 1531.54 1634.88 1531.54 Q1638.83 1531.54 1641.66 1533.1 Q1644.49 1534.66 1646.31 1537.81 L1646.31 1532.4 L1652.16 1532.4 L1652.16 1563.62 Z" fill="#000000" fill-rule="nonzero" fill-opacity="1" /><path clip-path="url(#clip020)" d="M1677.91 1518.52 L1677.91 1576.64 L1664.42 1576.64 L1664.42 1572.09 L1672.02 1572.09 L1672.02 1523.07 L1664.42 1523.07 L1664.42 1518.52 L1677.91 1518.52 Z" fill="#000000" fill-rule="nonzero" fill-opacity="1" /><polyline clip-path="url(#clip020)" style="stroke:#000000; stroke-linecap:round; stroke-linejoin:round; stroke-width:4; stroke-opacity:1; fill:none" points="370.509,1423.18 370.509,47.2441 "/>
<polyline clip-path="url(#clip020)" style="stroke:#000000; stroke-linecap:round; stroke-linejoin:round; stroke-width:4; stroke-opacity:1; fill:none" points="370.509,1384.24 389.407,1384.24 "/>
<polyline clip-path="url(#clip020)" style="stroke:#000000; stroke-linecap:round; stroke-linejoin:round; stroke-width:4; stroke-opacity:1; fill:none" points="370.509,1096.39 389.407,1096.39 "/>
<polyline clip-path="url(#clip020)" style="stroke:#000000; stroke-linecap:round; stroke-linejoin:round; stroke-width:4; stroke-opacity:1; fill:none" points="370.509,808.548 389.407,808.548 "/>
<polyline clip-path="url(#clip020)" style="stroke:#000000; stroke-linecap:round; stroke-linejoin:round; stroke-width:4; stroke-opacity:1; fill:none" points="370.509,520.704 389.407,520.704 "/>
<polyline clip-path="url(#clip020)" style="stroke:#000000; stroke-linecap:round; stroke-linejoin:round; stroke-width:4; stroke-opacity:1; fill:none" points="370.509,232.859 389.407,232.859 "/>
<path clip-path="url(#clip020)" d="M322.565 1370.04 Q318.954 1370.04 317.125 1373.6 Q315.32 1377.14 315.32 1384.27 Q315.32 1391.38 317.125 1394.94 Q318.954 1398.49 322.565 1398.49 Q326.199 1398.49 328.005 1394.94 Q329.833 1391.38 329.833 1384.27 Q329.833 1377.14 328.005 1373.6 Q326.199 1370.04 322.565 1370.04 M322.565 1366.33 Q328.375 1366.33 331.431 1370.94 Q334.509 1375.52 334.509 1384.27 Q334.509 1393 331.431 1397.61 Q328.375 1402.19 322.565 1402.19 Q316.755 1402.19 313.676 1397.61 Q310.621 1393 310.621 1384.27 Q310.621 1375.52 313.676 1370.94 Q316.755 1366.33 322.565 1366.33 Z" fill="#000000" fill-rule="nonzero" fill-opacity="1" /><path clip-path="url(#clip020)" d="M121.043 1116.19 L137.362 1116.19 L137.362 1120.12 L115.418 1120.12 L115.418 1116.19 Q118.08 1113.43 122.663 1108.8 Q127.269 1104.15 128.45 1102.81 Q130.695 1100.28 131.575 1098.55 Q132.478 1096.79 132.478 1095.1 Q132.478 1092.34 130.533 1090.61 Q128.612 1088.87 125.51 1088.87 Q123.311 1088.87 120.857 1089.64 Q118.427 1090.4 115.649 1091.95 L115.649 1087.23 Q118.473 1086.09 120.927 1085.51 Q123.38 1084.94 125.418 1084.94 Q130.788 1084.94 133.982 1087.62 Q137.177 1090.31 137.177 1094.8 Q137.177 1096.93 136.367 1098.85 Q135.579 1100.75 133.473 1103.34 Q132.894 1104.01 129.792 1107.23 Q126.691 1110.42 121.043 1116.19 Z" fill="#000000" fill-rule="nonzero" fill-opacity="1" /><path clip-path="url(#clip020)" d="M147.177 1114.24 L152.061 1114.24 L152.061 1120.12 L147.177 1120.12 L147.177 1114.24 Z" fill="#000000" fill-rule="nonzero" fill-opacity="1" /><path clip-path="url(#clip020)" d="M172.246 1088.64 Q168.635 1088.64 166.806 1092.2 Q165.001 1095.75 165.001 1102.88 Q165.001 1109.98 166.806 1113.55 Q168.635 1117.09 172.246 1117.09 Q175.88 1117.09 177.686 1113.55 Q179.514 1109.98 179.514 1102.88 Q179.514 1095.75 177.686 1092.2 Q175.88 1088.64 172.246 1088.64 M172.246 1084.94 Q178.056 1084.94 181.112 1089.54 Q184.19 1094.13 184.19 1102.88 Q184.19 1111.6 181.112 1116.21 Q178.056 1120.79 172.246 1120.79 Q166.436 1120.79 163.357 1116.21 Q160.302 1111.6 160.302 1102.88 Q160.302 1094.13 163.357 1089.54 Q166.436 1084.94 172.246 1084.94 Z" fill="#000000" fill-rule="nonzero" fill-opacity="1" /><path clip-path="url(#clip020)" d="M220.579 1094.66 L210 1105.28 L220.579 1115.86 L217.824 1118.66 L207.199 1108.04 L196.575 1118.66 L193.843 1115.86 L204.399 1105.28 L193.843 1094.66 L196.575 1091.86 L207.199 1102.48 L217.824 1091.86 L220.579 1094.66 Z" fill="#000000" fill-rule="nonzero" fill-opacity="1" /><path clip-path="url(#clip020)" d="M232.94 1116.19 L240.579 1116.19 L240.579 1089.82 L232.269 1091.49 L232.269 1087.23 L240.533 1085.56 L245.209 1085.56 L245.209 1116.19 L252.847 1116.19 L252.847 1120.12 L232.94 1120.12 L232.94 1116.19 Z" fill="#000000" fill-rule="nonzero" fill-opacity="1" /><path clip-path="url(#clip020)" d="M272.292 1088.64 Q268.681 1088.64 266.852 1092.2 Q265.046 1095.75 265.046 1102.88 Q265.046 1109.98 266.852 1113.55 Q268.681 1117.09 272.292 1117.09 Q275.926 1117.09 277.732 1113.55 Q279.56 1109.98 279.56 1102.88 Q279.56 1095.75 277.732 1092.2 Q275.926 1088.64 272.292 1088.64 M272.292 1084.94 Q278.102 1084.94 281.157 1089.54 Q284.236 1094.13 284.236 1102.88 Q284.236 1111.6 281.157 1116.21 Q278.102 1120.79 272.292 1120.79 Q266.482 1120.79 263.403 1116.21 Q260.347 1111.6 260.347 1102.88 Q260.347 1094.13 263.403 1089.54 Q266.482 1084.94 272.292 1084.94 Z" fill="#000000" fill-rule="nonzero" fill-opacity="1" /><path clip-path="url(#clip020)" d="M284.236 1079.04 L308.348 1079.04 L308.348 1082.23 L284.236 1082.23 L284.236 1079.04 Z" fill="#000000" fill-rule="nonzero" fill-opacity="1" /><path clip-path="url(#clip020)" d="M325.143 1077.16 Q322.585 1077.16 321.081 1078.91 Q319.595 1080.65 319.595 1083.7 Q319.595 1086.73 321.081 1088.5 Q322.585 1090.25 325.143 1090.25 Q327.701 1090.25 329.187 1088.5 Q330.691 1086.73 330.691 1083.7 Q330.691 1080.65 329.187 1078.91 Q327.701 1077.16 325.143 1077.16 M332.685 1065.25 L332.685 1068.71 Q331.256 1068.03 329.789 1067.68 Q328.34 1067.32 326.911 1067.32 Q323.149 1067.32 321.156 1069.86 Q319.181 1072.4 318.899 1077.53 Q320.008 1075.9 321.682 1075.03 Q323.356 1074.15 325.369 1074.15 Q329.6 1074.15 332.045 1076.72 Q334.509 1079.28 334.509 1083.7 Q334.509 1088.03 331.951 1090.64 Q329.394 1093.26 325.143 1093.26 Q320.272 1093.26 317.695 1089.53 Q315.118 1085.79 315.118 1078.7 Q315.118 1072.04 318.278 1068.09 Q321.438 1064.12 326.76 1064.12 Q328.19 1064.12 329.638 1064.4 Q331.105 1064.69 332.685 1065.25 Z" fill="#000000" fill-rule="nonzero" fill-opacity="1" /><path clip-path="url(#clip020)" d="M129.862 801.79 L118.056 820.239 L129.862 820.239 L129.862 801.79 M128.635 797.716 L134.515 797.716 L134.515 820.239 L139.445 820.239 L139.445 824.128 L134.515 824.128 L134.515 832.276 L129.862 832.276 L129.862 824.128 L114.26 824.128 L114.26 819.614 L128.635 797.716 Z" fill="#000000" fill-rule="nonzero" fill-opacity="1" /><path clip-path="url(#clip020)" d="M147.177 826.396 L152.061 826.396 L152.061 832.276 L147.177 832.276 L147.177 826.396 Z" fill="#000000" fill-rule="nonzero" fill-opacity="1" /><path clip-path="url(#clip020)" d="M172.246 800.795 Q168.635 800.795 166.806 804.36 Q165.001 807.901 165.001 815.031 Q165.001 822.137 166.806 825.702 Q168.635 829.244 172.246 829.244 Q175.88 829.244 177.686 825.702 Q179.514 822.137 179.514 815.031 Q179.514 807.901 177.686 804.36 Q175.88 800.795 172.246 800.795 M172.246 797.091 Q178.056 797.091 181.112 801.698 Q184.19 806.281 184.19 815.031 Q184.19 823.758 181.112 828.364 Q178.056 832.947 172.246 832.947 Q166.436 832.947 163.357 828.364 Q160.302 823.758 160.302 815.031 Q160.302 806.281 163.357 801.698 Q166.436 797.091 172.246 797.091 Z" fill="#000000" fill-rule="nonzero" fill-opacity="1" /><path clip-path="url(#clip020)" d="M220.579 806.813 L210 817.438 L220.579 828.017 L217.824 830.818 L207.199 820.193 L196.575 830.818 L193.843 828.017 L204.399 817.438 L193.843 806.813 L196.575 804.012 L207.199 814.637 L217.824 804.012 L220.579 806.813 Z" fill="#000000" fill-rule="nonzero" fill-opacity="1" /><path clip-path="url(#clip020)" d="M232.94 828.341 L240.579 828.341 L240.579 801.975 L232.269 803.642 L232.269 799.383 L240.533 797.716 L245.209 797.716 L245.209 828.341 L252.847 828.341 L252.847 832.276 L232.94 832.276 L232.94 828.341 Z" fill="#000000" fill-rule="nonzero" fill-opacity="1" /><path clip-path="url(#clip020)" d="M272.292 800.795 Q268.681 800.795 266.852 804.36 Q265.046 807.901 265.046 815.031 Q265.046 822.137 266.852 825.702 Q268.681 829.244 272.292 829.244 Q275.926 829.244 277.732 825.702 Q279.56 822.137 279.56 815.031 Q279.56 807.901 277.732 804.36 Q275.926 800.795 272.292 800.795 M272.292 797.091 Q278.102 797.091 281.157 801.698 Q284.236 806.281 284.236 815.031 Q284.236 823.758 281.157 828.364 Q278.102 832.947 272.292 832.947 Q266.482 832.947 263.403 828.364 Q260.347 823.758 260.347 815.031 Q260.347 806.281 263.403 801.698 Q266.482 797.091 272.292 797.091 Z" fill="#000000" fill-rule="nonzero" fill-opacity="1" /><path clip-path="url(#clip020)" d="M284.236 791.192 L308.348 791.192 L308.348 794.39 L284.236 794.39 L284.236 791.192 Z" fill="#000000" fill-rule="nonzero" fill-opacity="1" /><path clip-path="url(#clip020)" d="M325.143 789.312 Q322.585 789.312 321.081 791.061 Q319.595 792.81 319.595 795.857 Q319.595 798.885 321.081 800.653 Q322.585 802.402 325.143 802.402 Q327.701 802.402 329.187 800.653 Q330.691 798.885 330.691 795.857 Q330.691 792.81 329.187 791.061 Q327.701 789.312 325.143 789.312 M332.685 777.406 L332.685 780.867 Q331.256 780.19 329.789 779.833 Q328.34 779.475 326.911 779.475 Q323.149 779.475 321.156 782.014 Q319.181 784.553 318.899 789.688 Q320.008 788.052 321.682 787.186 Q323.356 786.302 325.369 786.302 Q329.6 786.302 332.045 788.879 Q334.509 791.437 334.509 795.857 Q334.509 800.183 331.951 802.797 Q329.394 805.411 325.143 805.411 Q320.272 805.411 317.695 801.687 Q315.118 797.944 315.118 790.854 Q315.118 784.196 318.278 780.246 Q321.438 776.278 326.76 776.278 Q328.19 776.278 329.638 776.56 Q331.105 776.842 332.685 777.406 Z" fill="#000000" fill-rule="nonzero" fill-opacity="1" /><path clip-path="url(#clip020)" d="M127.593 525.288 Q124.445 525.288 122.593 527.44 Q120.765 529.593 120.765 533.343 Q120.765 537.07 122.593 539.246 Q124.445 541.399 127.593 541.399 Q130.742 541.399 132.57 539.246 Q134.422 537.07 134.422 533.343 Q134.422 529.593 132.57 527.44 Q130.742 525.288 127.593 525.288 M136.876 510.635 L136.876 514.894 Q135.117 514.061 133.311 513.621 Q131.529 513.181 129.769 513.181 Q125.14 513.181 122.686 516.306 Q120.255 519.431 119.908 525.751 Q121.274 523.737 123.334 522.672 Q125.394 521.584 127.871 521.584 Q133.08 521.584 136.089 524.755 Q139.121 527.903 139.121 533.343 Q139.121 538.667 135.973 541.885 Q132.825 545.102 127.593 545.102 Q121.598 545.102 118.427 540.519 Q115.256 535.913 115.256 527.186 Q115.256 518.991 119.144 514.13 Q123.033 509.246 129.584 509.246 Q131.343 509.246 133.126 509.593 Q134.931 509.941 136.876 510.635 Z" fill="#000000" fill-rule="nonzero" fill-opacity="1" /><path clip-path="url(#clip020)" d="M147.177 538.552 L152.061 538.552 L152.061 544.431 L147.177 544.431 L147.177 538.552 Z" fill="#000000" fill-rule="nonzero" fill-opacity="1" /><path clip-path="url(#clip020)" d="M172.246 512.95 Q168.635 512.95 166.806 516.515 Q165.001 520.056 165.001 527.186 Q165.001 534.292 166.806 537.857 Q168.635 541.399 172.246 541.399 Q175.88 541.399 177.686 537.857 Q179.514 534.292 179.514 527.186 Q179.514 520.056 177.686 516.515 Q175.88 512.95 172.246 512.95 M172.246 509.246 Q178.056 509.246 181.112 513.853 Q184.19 518.436 184.19 527.186 Q184.19 535.913 181.112 540.519 Q178.056 545.102 172.246 545.102 Q166.436 545.102 163.357 540.519 Q160.302 535.913 160.302 527.186 Q160.302 518.436 163.357 513.853 Q166.436 509.246 172.246 509.246 Z" fill="#000000" fill-rule="nonzero" fill-opacity="1" /><path clip-path="url(#clip020)" d="M220.579 518.968 L210 529.593 L220.579 540.172 L217.824 542.973 L207.199 532.348 L196.575 542.973 L193.843 540.172 L204.399 529.593 L193.843 518.968 L196.575 516.167 L207.199 526.792 L217.824 516.167 L220.579 518.968 Z" fill="#000000" fill-rule="nonzero" fill-opacity="1" /><path clip-path="url(#clip020)" d="M232.94 540.496 L240.579 540.496 L240.579 514.13 L232.269 515.797 L232.269 511.538 L240.533 509.871 L245.209 509.871 L245.209 540.496 L252.847 540.496 L252.847 544.431 L232.94 544.431 L232.94 540.496 Z" fill="#000000" fill-rule="nonzero" fill-opacity="1" /><path clip-path="url(#clip020)" d="M272.292 512.95 Q268.681 512.95 266.852 516.515 Q265.046 520.056 265.046 527.186 Q265.046 534.292 266.852 537.857 Q268.681 541.399 272.292 541.399 Q275.926 541.399 277.732 537.857 Q279.56 534.292 279.56 527.186 Q279.56 520.056 277.732 516.515 Q275.926 512.95 272.292 512.95 M272.292 509.246 Q278.102 509.246 281.157 513.853 Q284.236 518.436 284.236 527.186 Q284.236 535.913 281.157 540.519 Q278.102 545.102 272.292 545.102 Q266.482 545.102 263.403 540.519 Q260.347 535.913 260.347 527.186 Q260.347 518.436 263.403 513.853 Q266.482 509.246 272.292 509.246 Z" fill="#000000" fill-rule="nonzero" fill-opacity="1" /><path clip-path="url(#clip020)" d="M284.236 503.347 L308.348 503.347 L308.348 506.545 L284.236 506.545 L284.236 503.347 Z" fill="#000000" fill-rule="nonzero" fill-opacity="1" /><path clip-path="url(#clip020)" d="M325.143 501.467 Q322.585 501.467 321.081 503.216 Q319.595 504.965 319.595 508.012 Q319.595 511.04 321.081 512.808 Q322.585 514.557 325.143 514.557 Q327.701 514.557 329.187 512.808 Q330.691 511.04 330.691 508.012 Q330.691 504.965 329.187 503.216 Q327.701 501.467 325.143 501.467 M332.685 489.561 L332.685 493.022 Q331.256 492.345 329.789 491.988 Q328.34 491.63 326.911 491.63 Q323.149 491.63 321.156 494.169 Q319.181 496.708 318.899 501.843 Q320.008 500.207 321.682 499.341 Q323.356 498.457 325.369 498.457 Q329.6 498.457 332.045 501.034 Q334.509 503.592 334.509 508.012 Q334.509 512.338 331.951 514.952 Q329.394 517.566 325.143 517.566 Q320.272 517.566 317.695 513.842 Q315.118 510.099 315.118 503.009 Q315.118 496.351 318.278 492.401 Q321.438 488.433 326.76 488.433 Q328.19 488.433 329.638 488.715 Q331.105 488.997 332.685 489.561 Z" fill="#000000" fill-rule="nonzero" fill-opacity="1" /><path clip-path="url(#clip020)" d="M127.015 240.174 Q123.681 240.174 121.76 241.957 Q119.862 243.739 119.862 246.864 Q119.862 249.989 121.76 251.771 Q123.681 253.554 127.015 253.554 Q130.348 253.554 132.269 251.771 Q134.191 249.966 134.191 246.864 Q134.191 243.739 132.269 241.957 Q130.371 240.174 127.015 240.174 M122.339 238.184 Q119.33 237.443 117.64 235.383 Q115.973 233.322 115.973 230.36 Q115.973 226.216 118.913 223.809 Q121.876 221.401 127.015 221.401 Q132.177 221.401 135.117 223.809 Q138.056 226.216 138.056 230.36 Q138.056 233.322 136.367 235.383 Q134.7 237.443 131.714 238.184 Q135.093 238.971 136.968 241.262 Q138.867 243.554 138.867 246.864 Q138.867 251.887 135.788 254.572 Q132.732 257.258 127.015 257.258 Q121.297 257.258 118.218 254.572 Q115.163 251.887 115.163 246.864 Q115.163 243.554 117.061 241.262 Q118.959 238.971 122.339 238.184 M120.626 230.799 Q120.626 233.484 122.293 234.989 Q123.982 236.494 127.015 236.494 Q130.024 236.494 131.714 234.989 Q133.427 233.484 133.427 230.799 Q133.427 228.114 131.714 226.61 Q130.024 225.105 127.015 225.105 Q123.982 225.105 122.293 226.61 Q120.626 228.114 120.626 230.799 Z" fill="#000000" fill-rule="nonzero" fill-opacity="1" /><path clip-path="url(#clip020)" d="M147.177 250.707 L152.061 250.707 L152.061 256.586 L147.177 256.586 L147.177 250.707 Z" fill="#000000" fill-rule="nonzero" fill-opacity="1" /><path clip-path="url(#clip020)" d="M172.246 225.105 Q168.635 225.105 166.806 228.67 Q165.001 232.211 165.001 239.341 Q165.001 246.447 166.806 250.012 Q168.635 253.554 172.246 253.554 Q175.88 253.554 177.686 250.012 Q179.514 246.447 179.514 239.341 Q179.514 232.211 177.686 228.67 Q175.88 225.105 172.246 225.105 M172.246 221.401 Q178.056 221.401 181.112 226.008 Q184.19 230.591 184.19 239.341 Q184.19 248.068 181.112 252.674 Q178.056 257.258 172.246 257.258 Q166.436 257.258 163.357 252.674 Q160.302 248.068 160.302 239.341 Q160.302 230.591 163.357 226.008 Q166.436 221.401 172.246 221.401 Z" fill="#000000" fill-rule="nonzero" fill-opacity="1" /><path clip-path="url(#clip020)" d="M220.579 231.123 L210 241.748 L220.579 252.327 L217.824 255.128 L207.199 244.503 L196.575 255.128 L193.843 252.327 L204.399 241.748 L193.843 231.123 L196.575 228.322 L207.199 238.947 L217.824 228.322 L220.579 231.123 Z" fill="#000000" fill-rule="nonzero" fill-opacity="1" /><path clip-path="url(#clip020)" d="M232.94 252.651 L240.579 252.651 L240.579 226.285 L232.269 227.952 L232.269 223.693 L240.533 222.026 L245.209 222.026 L245.209 252.651 L252.847 252.651 L252.847 256.586 L232.94 256.586 L232.94 252.651 Z" fill="#000000" fill-rule="nonzero" fill-opacity="1" /><path clip-path="url(#clip020)" d="M272.292 225.105 Q268.681 225.105 266.852 228.67 Q265.046 232.211 265.046 239.341 Q265.046 246.447 266.852 250.012 Q268.681 253.554 272.292 253.554 Q275.926 253.554 277.732 250.012 Q279.56 246.447 279.56 239.341 Q279.56 232.211 277.732 228.67 Q275.926 225.105 272.292 225.105 M272.292 221.401 Q278.102 221.401 281.157 226.008 Q284.236 230.591 284.236 239.341 Q284.236 248.068 281.157 252.674 Q278.102 257.258 272.292 257.258 Q266.482 257.258 263.403 252.674 Q260.347 248.068 260.347 239.341 Q260.347 230.591 263.403 226.008 Q266.482 221.401 272.292 221.401 Z" fill="#000000" fill-rule="nonzero" fill-opacity="1" /><path clip-path="url(#clip020)" d="M284.236 215.503 L308.348 215.503 L308.348 218.7 L284.236 218.7 L284.236 215.503 Z" fill="#000000" fill-rule="nonzero" fill-opacity="1" /><path clip-path="url(#clip020)" d="M325.143 213.622 Q322.585 213.622 321.081 215.371 Q319.595 217.12 319.595 220.167 Q319.595 223.195 321.081 224.963 Q322.585 226.712 325.143 226.712 Q327.701 226.712 329.187 224.963 Q330.691 223.195 330.691 220.167 Q330.691 217.12 329.187 215.371 Q327.701 213.622 325.143 213.622 M332.685 201.716 L332.685 205.177 Q331.256 204.5 329.789 204.143 Q328.34 203.785 326.911 203.785 Q323.149 203.785 321.156 206.324 Q319.181 208.863 318.899 213.998 Q320.008 212.362 321.682 211.497 Q323.356 210.613 325.369 210.613 Q329.6 210.613 332.045 213.189 Q334.509 215.747 334.509 220.167 Q334.509 224.493 331.951 227.107 Q329.394 229.721 325.143 229.721 Q320.272 229.721 317.695 225.997 Q315.118 222.255 315.118 215.164 Q315.118 208.506 318.278 204.556 Q321.438 200.588 326.76 200.588 Q328.19 200.588 329.638 200.87 Q331.105 201.152 332.685 201.716 Z" fill="#000000" fill-rule="nonzero" fill-opacity="1" /><path clip-path="url(#clip020)" d="M46.0847 1124.32 Q46.0847 1131.41 47.7079 1134.15 Q49.3312 1136.89 53.2461 1136.89 Q56.3653 1136.89 58.2114 1134.85 Q60.0256 1132.78 60.0256 1129.25 Q60.0256 1124.38 56.5881 1121.45 Q53.1188 1118.49 47.3897 1118.49 L46.0847 1118.49 L46.0847 1124.32 M43.6657 1112.63 L64.0042 1112.63 L64.0042 1118.49 L58.5933 1118.49 Q61.8398 1120.5 63.3994 1123.49 Q64.9272 1126.48 64.9272 1130.81 Q64.9272 1136.28 61.8716 1139.53 Q58.7843 1142.74 53.6281 1142.74 Q47.6125 1142.74 44.5569 1138.73 Q41.5014 1134.69 41.5014 1126.7 L41.5014 1118.49 L40.9285 1118.49 Q36.8862 1118.49 34.6901 1121.16 Q32.4621 1123.81 32.4621 1128.61 Q32.4621 1131.67 33.1941 1134.56 Q33.9262 1137.46 35.3903 1140.13 L29.9795 1140.13 Q28.7381 1136.92 28.1334 1133.9 Q27.4968 1130.87 27.4968 1128.01 Q27.4968 1120.27 31.5072 1116.45 Q35.5176 1112.63 43.6657 1112.63 Z" fill="#000000" fill-rule="nonzero" fill-opacity="1" /><path clip-path="url(#clip020)" d="M49.9359 1101.18 L28.3562 1101.18 L28.3562 1095.32 L49.7131 1095.32 Q54.7739 1095.32 57.3202 1093.35 Q59.8346 1091.37 59.8346 1087.43 Q59.8346 1082.68 56.8109 1079.95 Q53.7872 1077.18 48.5673 1077.18 L28.3562 1077.18 L28.3562 1071.32 L64.0042 1071.32 L64.0042 1077.18 L58.5296 1077.18 Q61.7762 1079.31 63.3676 1082.14 Q64.9272 1084.94 64.9272 1088.67 Q64.9272 1094.81 61.1078 1097.99 Q57.2883 1101.18 49.9359 1101.18 M27.4968 1086.44 L27.4968 1086.44 Z" fill="#000000" fill-rule="nonzero" fill-opacity="1" /><path clip-path="url(#clip020)" d="M18.2347 1053.47 L28.3562 1053.47 L28.3562 1041.4 L32.9077 1041.4 L32.9077 1053.47 L52.2594 1053.47 Q56.6199 1053.47 57.8613 1052.29 Q59.1026 1051.08 59.1026 1047.42 L59.1026 1041.4 L64.0042 1041.4 L64.0042 1047.42 Q64.0042 1054.2 61.4897 1056.78 Q58.9434 1059.35 52.2594 1059.35 L32.9077 1059.35 L32.9077 1063.65 L28.3562 1063.65 L28.3562 1059.35 L18.2347 1059.35 L18.2347 1053.47 Z" fill="#000000" fill-rule="nonzero" fill-opacity="1" /><path clip-path="url(#clip020)" d="M32.4621 1019.89 Q32.4621 1024.6 36.1542 1027.33 Q39.8145 1030.07 46.212 1030.07 Q52.6095 1030.07 56.3017 1027.37 Q59.9619 1024.63 59.9619 1019.89 Q59.9619 1015.21 56.2698 1012.47 Q52.5777 1009.73 46.212 1009.73 Q39.8781 1009.73 36.186 1012.47 Q32.4621 1015.21 32.4621 1019.89 M27.4968 1019.89 Q27.4968 1012.25 32.4621 1007.89 Q37.4273 1003.53 46.212 1003.53 Q54.9649 1003.53 59.9619 1007.89 Q64.9272 1012.25 64.9272 1019.89 Q64.9272 1027.56 59.9619 1031.92 Q54.9649 1036.25 46.212 1036.25 Q37.4273 1036.25 32.4621 1031.92 Q27.4968 1027.56 27.4968 1019.89 Z" fill="#000000" fill-rule="nonzero" fill-opacity="1" /><path clip-path="url(#clip020)" d="M29.7248 968.165 L35.1993 968.165 Q33.8307 970.648 33.1623 973.162 Q32.4621 975.645 32.4621 978.191 Q32.4621 983.888 36.0905 987.039 Q39.6872 990.19 46.212 990.19 Q52.7369 990.19 56.3653 987.039 Q59.9619 983.888 59.9619 978.191 Q59.9619 975.645 59.2935 973.162 Q58.5933 970.648 57.2247 968.165 L62.6355 968.165 Q63.7814 970.616 64.3543 973.258 Q64.9272 975.868 64.9272 978.828 Q64.9272 986.88 59.8664 991.623 Q54.8057 996.365 46.212 996.365 Q37.491 996.365 32.4939 991.591 Q27.4968 986.785 27.4968 978.446 Q27.4968 975.74 28.0697 973.162 Q28.6108 970.584 29.7248 968.165 Z" fill="#000000" fill-rule="nonzero" fill-opacity="1" /><path clip-path="url(#clip020)" d="M32.4621 944.166 Q32.4621 948.877 36.1542 951.614 Q39.8145 954.351 46.212 954.351 Q52.6095 954.351 56.3017 951.646 Q59.9619 948.909 59.9619 944.166 Q59.9619 939.487 56.2698 936.75 Q52.5777 934.013 46.212 934.013 Q39.8781 934.013 36.186 936.75 Q32.4621 939.487 32.4621 944.166 M27.4968 944.166 Q27.4968 936.527 32.4621 932.167 Q37.4273 927.806 46.212 927.806 Q54.9649 927.806 59.9619 932.167 Q64.9272 936.527 64.9272 944.166 Q64.9272 951.837 59.9619 956.197 Q54.9649 960.526 46.212 960.526 Q37.4273 960.526 32.4621 956.197 Q27.4968 951.837 27.4968 944.166 Z" fill="#000000" fill-rule="nonzero" fill-opacity="1" /><path clip-path="url(#clip020)" d="M42.4881 888.466 L64.0042 888.466 L64.0042 894.323 L42.679 894.323 Q37.6183 894.323 35.1038 896.296 Q32.5894 898.27 32.5894 902.216 Q32.5894 906.959 35.6131 909.696 Q38.6368 912.433 43.8567 912.433 L64.0042 912.433 L64.0042 918.322 L28.3562 918.322 L28.3562 912.433 L33.8944 912.433 Q30.6797 910.333 29.0883 907.5 Q27.4968 904.635 27.4968 900.911 Q27.4968 894.768 31.3163 891.617 Q35.1038 888.466 42.4881 888.466 Z" fill="#000000" fill-rule="nonzero" fill-opacity="1" /><path clip-path="url(#clip020)" d="M28.3562 880.987 L28.3562 874.78 L58.275 863.64 L28.3562 852.5 L28.3562 846.294 L64.0042 859.662 L64.0042 867.619 L28.3562 880.987 Z" fill="#000000" fill-rule="nonzero" fill-opacity="1" /><path clip-path="url(#clip020)" d="M44.7161 807.717 L47.5806 807.717 L47.5806 834.644 Q53.6281 834.262 56.8109 831.016 Q59.9619 827.738 59.9619 821.913 Q59.9619 818.539 59.1344 815.388 Q58.3069 812.205 56.6518 809.086 L62.1899 809.086 Q63.5267 812.237 64.227 815.547 Q64.9272 818.857 64.9272 822.263 Q64.9272 830.793 59.9619 835.79 Q54.9967 840.755 46.5303 840.755 Q37.7774 840.755 32.6531 836.045 Q27.4968 831.302 27.4968 823.282 Q27.4968 816.088 32.1438 811.919 Q36.7589 807.717 44.7161 807.717 M42.9973 813.574 Q38.1912 813.637 35.3266 816.279 Q32.4621 818.889 32.4621 823.218 Q32.4621 828.119 35.2312 831.08 Q38.0002 834.008 43.0292 834.453 L42.9973 813.574 Z" fill="#000000" fill-rule="nonzero" fill-opacity="1" /><path clip-path="url(#clip020)" d="M33.8307 777.448 Q33.2578 778.435 33.0032 779.613 Q32.7167 780.759 32.7167 782.159 Q32.7167 787.124 35.9632 789.798 Q39.1779 792.44 45.2253 792.44 L64.0042 792.44 L64.0042 798.328 L28.3562 798.328 L28.3562 792.44 L33.8944 792.44 Q30.6479 790.594 29.0883 787.634 Q27.4968 784.674 27.4968 780.44 Q27.4968 779.836 27.5923 779.104 Q27.656 778.371 27.8151 777.48 L33.8307 777.448 Z" fill="#000000" fill-rule="nonzero" fill-opacity="1" /><path clip-path="url(#clip020)" d="M29.4065 748.58 L34.9447 748.58 Q33.6716 751.063 33.035 753.736 Q32.3984 756.41 32.3984 759.274 Q32.3984 763.635 33.7352 765.831 Q35.072 767.995 37.7456 767.995 Q39.7826 767.995 40.9603 766.436 Q42.1061 764.876 43.1565 760.166 L43.6021 758.16 Q44.9389 751.922 47.3897 749.312 Q49.8086 746.67 54.1691 746.67 Q59.1344 746.67 62.0308 750.617 Q64.9272 754.532 64.9272 761.407 Q64.9272 764.271 64.3543 767.391 Q63.8132 770.478 62.6992 773.915 L56.6518 773.915 Q58.3387 770.669 59.198 767.518 Q60.0256 764.367 60.0256 761.28 Q60.0256 757.142 58.6251 754.914 Q57.1929 752.686 54.6147 752.686 Q52.2276 752.686 50.9545 754.309 Q49.6813 755.901 48.5037 761.343 L48.0262 763.38 Q46.8804 768.823 44.5251 771.242 Q42.138 773.661 38.0002 773.661 Q32.9713 773.661 30.2341 770.096 Q27.4968 766.531 27.4968 759.975 Q27.4968 756.728 27.9743 753.863 Q28.4517 750.999 29.4065 748.58 Z" fill="#000000" fill-rule="nonzero" fill-opacity="1" /><path clip-path="url(#clip020)" d="M28.3562 737.344 L28.3562 731.488 L64.0042 731.488 L64.0042 737.344 L28.3562 737.344 M14.479 737.344 L14.479 731.488 L21.895 731.488 L21.895 737.344 L14.479 737.344 Z" fill="#000000" fill-rule="nonzero" fill-opacity="1" /><path clip-path="url(#clip020)" d="M32.4621 705.42 Q32.4621 710.131 36.1542 712.868 Q39.8145 715.606 46.212 715.606 Q52.6095 715.606 56.3017 712.9 Q59.9619 710.163 59.9619 705.42 Q59.9619 700.742 56.2698 698.004 Q52.5777 695.267 46.212 695.267 Q39.8781 695.267 36.186 698.004 Q32.4621 700.742 32.4621 705.42 M27.4968 705.42 Q27.4968 697.782 32.4621 693.421 Q37.4273 689.061 46.212 689.061 Q54.9649 689.061 59.9619 693.421 Q64.9272 697.782 64.9272 705.42 Q64.9272 713.091 59.9619 717.452 Q54.9649 721.78 46.212 721.78 Q37.4273 721.78 32.4621 717.452 Q27.4968 713.091 27.4968 705.42 Z" fill="#000000" fill-rule="nonzero" fill-opacity="1" /><path clip-path="url(#clip020)" d="M42.4881 649.721 L64.0042 649.721 L64.0042 655.577 L42.679 655.577 Q37.6183 655.577 35.1038 657.55 Q32.5894 659.524 32.5894 663.47 Q32.5894 668.213 35.6131 670.95 Q38.6368 673.687 43.8567 673.687 L64.0042 673.687 L64.0042 679.576 L28.3562 679.576 L28.3562 673.687 L33.8944 673.687 Q30.6797 671.587 29.0883 668.754 Q27.4968 665.889 27.4968 662.165 Q27.4968 656.023 31.3163 652.872 Q35.1038 649.721 42.4881 649.721 Z" fill="#000000" fill-rule="nonzero" fill-opacity="1" /><path clip-path="url(#clip020)" d="M33.8307 596.662 Q33.2578 597.649 33.0032 598.827 Q32.7167 599.973 32.7167 601.373 Q32.7167 606.338 35.9632 609.012 Q39.1779 611.654 45.2253 611.654 L64.0042 611.654 L64.0042 617.542 L28.3562 617.542 L28.3562 611.654 L33.8944 611.654 Q30.6479 609.808 29.0883 606.847 Q27.4968 603.887 27.4968 599.654 Q27.4968 599.05 27.5923 598.317 Q27.656 597.585 27.8151 596.694 L33.8307 596.662 Z" fill="#000000" fill-rule="nonzero" fill-opacity="1" /><path clip-path="url(#clip020)" d="M46.0847 574.319 Q46.0847 581.416 47.7079 584.154 Q49.3312 586.891 53.2461 586.891 Q56.3653 586.891 58.2114 584.854 Q60.0256 582.785 60.0256 579.252 Q60.0256 574.382 56.5881 571.454 Q53.1188 568.494 47.3897 568.494 L46.0847 568.494 L46.0847 574.319 M43.6657 562.638 L64.0042 562.638 L64.0042 568.494 L58.5933 568.494 Q61.8398 570.499 63.3994 573.491 Q64.9272 576.483 64.9272 580.812 Q64.9272 586.286 61.8716 589.533 Q58.7843 592.747 53.6281 592.747 Q47.6125 592.747 44.5569 588.737 Q41.5014 584.695 41.5014 576.706 L41.5014 568.494 L40.9285 568.494 Q36.8862 568.494 34.6901 571.168 Q32.4621 573.809 32.4621 578.616 Q32.4621 581.671 33.1941 584.568 Q33.9262 587.464 35.3903 590.138 L29.9795 590.138 Q28.7381 586.923 28.1334 583.899 Q27.4968 580.875 27.4968 578.011 Q27.4968 570.277 31.5072 566.457 Q35.5176 562.638 43.6657 562.638 Z" fill="#000000" fill-rule="nonzero" fill-opacity="1" /><path clip-path="url(#clip020)" d="M18.2347 544.782 L28.3562 544.782 L28.3562 532.719 L32.9077 532.719 L32.9077 544.782 L52.2594 544.782 Q56.6199 544.782 57.8613 543.604 Q59.1026 542.395 59.1026 538.734 L59.1026 532.719 L64.0042 532.719 L64.0042 538.734 Q64.0042 545.514 61.4897 548.092 Q58.9434 550.67 52.2594 550.67 L32.9077 550.67 L32.9077 554.967 L28.3562 554.967 L28.3562 550.67 L18.2347 550.67 L18.2347 544.782 Z" fill="#000000" fill-rule="nonzero" fill-opacity="1" /><path clip-path="url(#clip020)" d="M44.7161 494.525 L47.5806 494.525 L47.5806 521.452 Q53.6281 521.07 56.8109 517.823 Q59.9619 514.545 59.9619 508.72 Q59.9619 505.346 59.1344 502.195 Q58.3069 499.012 56.6518 495.893 L62.1899 495.893 Q63.5267 499.044 64.227 502.354 Q64.9272 505.665 64.9272 509.07 Q64.9272 517.6 59.9619 522.597 Q54.9967 527.563 46.5303 527.563 Q37.7774 527.563 32.6531 522.852 Q27.4968 518.11 27.4968 510.089 Q27.4968 502.896 32.1438 498.726 Q36.7589 494.525 44.7161 494.525 M42.9973 500.381 Q38.1912 500.445 35.3266 503.086 Q32.4621 505.696 32.4621 510.025 Q32.4621 514.927 35.2312 517.887 Q38.0002 520.815 43.0292 521.261 L42.9973 500.381 Z" fill="#000000" fill-rule="nonzero" fill-opacity="1" /><path clip-path="url(#clip020)" d="M14.479 464.733 L14.479 451.238 L19.0304 451.238 L19.0304 458.877 L68.0464 458.877 L68.0464 451.238 L72.5979 451.238 L72.5979 464.733 L14.479 464.733 Z" fill="#000000" fill-rule="nonzero" fill-opacity="1" /><path clip-path="url(#clip020)" d="M58.5933 436.819 L58.5933 426.316 L22.3406 426.316 L24.6323 437.742 L18.7758 437.742 L16.4842 426.38 L16.4842 419.95 L58.5933 419.95 L58.5933 409.447 L64.0042 409.447 L64.0042 436.819 L58.5933 436.819 Z" fill="#000000" fill-rule="nonzero" fill-opacity="1" /><path clip-path="url(#clip020)" d="M16.4842 386.881 L16.4842 381.47 L70.0516 398.02 L70.0516 403.431 L16.4842 386.881 Z" fill="#000000" fill-rule="nonzero" fill-opacity="1" /><path clip-path="url(#clip020)" d="M29.4065 352.601 L34.9447 352.601 Q33.6716 355.084 33.035 357.757 Q32.3984 360.431 32.3984 363.296 Q32.3984 367.656 33.7352 369.852 Q35.072 372.017 37.7456 372.017 Q39.7826 372.017 40.9603 370.457 Q42.1061 368.897 43.1565 364.187 L43.6021 362.182 Q44.9389 355.943 47.3897 353.333 Q49.8086 350.691 54.1691 350.691 Q59.1344 350.691 62.0308 354.638 Q64.9272 358.553 64.9272 365.428 Q64.9272 368.293 64.3543 371.412 Q63.8132 374.499 62.6992 377.937 L56.6518 377.937 Q58.3387 374.69 59.198 371.539 Q60.0256 368.388 60.0256 365.301 Q60.0256 361.163 58.6251 358.935 Q57.1929 356.707 54.6147 356.707 Q52.2276 356.707 50.9545 358.33 Q49.6813 359.922 48.5037 365.364 L48.0262 367.401 Q46.8804 372.844 44.5251 375.263 Q42.138 377.682 38.0002 377.682 Q32.9713 377.682 30.2341 374.117 Q27.4968 370.552 27.4968 363.996 Q27.4968 360.749 27.9743 357.885 Q28.4517 355.02 29.4065 352.601 Z" fill="#000000" fill-rule="nonzero" fill-opacity="1" /><path clip-path="url(#clip020)" d="M14.479 327.679 L72.5979 327.679 L72.5979 341.175 L68.0464 341.175 L68.0464 333.568 L19.0304 333.568 L19.0304 341.175 L14.479 341.175 L14.479 327.679 Z" fill="#000000" fill-rule="nonzero" fill-opacity="1" /><polyline clip-path="url(#clip022)" style="stroke:#009af9; stroke-linecap:round; stroke-linejoin:round; stroke-width:12; stroke-opacity:1; fill:none" points="426.611,1384.24 445.5,1384.24 464.389,1384.24 483.279,1384.24 502.168,1384.24 521.057,1384.24 539.947,1384.24 558.836,1384.24 577.725,1384.24 596.615,1384.24 615.504,1383.51 634.393,1376.24 653.283,1368.97 672.172,1361.7 691.061,1354.43 709.951,1347.17 728.84,1339.9 747.729,1332.63 766.619,1325.36 785.508,1318.09 804.397,1310.82 823.287,1303.55 842.176,1296.28 861.065,1289.02 879.955,1281.75 898.844,1274.48 917.733,1267.21 936.623,1259.94 955.512,1252.67 974.401,1245.4 993.291,1238.13 1012.18,1230.87 1031.07,1223.6 1049.96,1216.33 1068.85,1209.06 1087.74,1201.79 1106.63,1194.52 1125.52,1187.25 1144.41,1179.98 1163.29,1172.71 1182.18,1165.45 1201.07,1158.18 1219.96,1150.91 1238.85,1143.64 1257.74,1136.37 1276.63,1129.1 1295.52,1121.83 1314.41,1114.56 1333.3,1107.3 1352.19,1100.03 1371.08,1092.76 1389.97,1085.49 1408.86,1078.22 1427.75,1070.95 1446.63,1063.68 1465.52,1056.41 1484.41,1049.15 1503.3,1041.88 1522.19,1034.61 1541.08,1027.34 1559.97,1020.07 1578.86,1012.8 1597.75,1005.53 1616.64,998.264 1635.53,990.995 1654.42,983.726 1673.31,976.457 1692.2,969.189 1711.09,961.92 1729.97,954.651 1748.86,947.382 1767.75,940.114 1786.64,932.845 1805.53,925.576 1824.42,918.307 1843.31,911.038 1862.2,903.77 1881.09,896.501 1899.98,889.232 1918.87,881.963 1937.76,874.694 1956.65,867.426 1975.54,860.157 1994.43,852.888 2013.31,845.619 2032.2,838.35 2051.09,831.082 2069.98,823.813 2088.87,816.544 2107.76,809.275 2126.65,802.006 2145.54,794.738 2164.43,787.469 2183.32,780.2 2202.21,772.931 2221.1,765.662 2239.99,758.394 2258.88,751.125 2277.77,743.856 2296.65,736.587 "/>
<polyline clip-path="url(#clip022)" style="stroke:#e26f46; stroke-linecap:round; stroke-linejoin:round; stroke-width:12; stroke-opacity:1; fill:none" points="426.611,1384.24 445.5,1384.24 464.389,1370.22 483.279,1260.67 502.168,1208.86 521.057,1169.33 539.947,1136.26 558.836,1107.36 577.725,1081.46 596.615,1057.86 615.504,1036.08 634.393,1015.82 653.283,996.837 672.172,978.951 691.061,962.025 709.951,945.947 728.84,930.628 747.729,915.994 766.619,901.981 785.508,888.537 804.397,875.617 823.287,863.18 842.176,851.194 861.065,839.627 879.955,828.453 898.844,817.648 917.733,807.191 936.623,797.063 955.512,787.247 974.401,777.726 993.291,768.487 1012.18,759.517 1031.07,750.803 1049.96,742.335 1068.85,734.102 1087.74,726.095 1106.63,718.305 1125.52,710.725 1144.41,703.346 1163.29,696.162 1182.18,689.167 1201.07,682.353 1219.96,675.715 1238.85,669.247 1257.74,662.946 1276.63,656.805 1295.52,650.82 1314.41,644.986 1333.3,639.301 1352.19,633.759 1371.08,628.358 1389.97,623.093 1408.86,617.961 1427.75,612.959 1446.63,608.085 1465.52,603.334 1484.41,598.705 1503.3,594.195 1522.19,589.801 1541.08,585.52 1559.97,581.351 1578.86,577.292 1597.75,573.339 1616.64,569.491 1635.53,565.747 1654.42,562.103 1673.31,558.559 1692.2,555.113 1711.09,551.762 1729.97,548.505 1748.86,545.341 1767.75,542.268 1786.64,539.285 1805.53,536.389 1824.42,533.581 1843.31,530.858 1862.2,528.219 1881.09,525.663 1899.98,523.188 1918.87,520.794 1937.76,518.48 1956.65,516.243 1975.54,514.084 1994.43,512.001 2013.31,509.992 2032.2,508.058 2051.09,506.197 2069.98,504.409 2088.87,502.691 2107.76,501.044 2126.65,499.466 2145.54,497.957 2164.43,496.516 2183.32,495.142 2202.21,493.834 2221.1,492.592 2239.99,491.414 2258.88,490.301 2277.77,489.251 2296.65,488.264 "/>
<polyline clip-path="url(#clip022)" style="stroke:#3da44d; stroke-linecap:round; stroke-linejoin:round; stroke-width:12; stroke-opacity:1; fill:none" points="426.611,1384.24 445.5,1384.24 464.389,1367.26 483.279,1234.51 502.168,1171.71 521.057,1123.76 539.947,1083.63 558.836,1048.55 577.725,1017.09 596.615,988.402 615.504,961.93 634.393,937.283 653.283,914.177 672.172,892.396 691.061,871.773 709.951,852.173 728.84,833.488 747.729,815.627 766.619,798.515 785.508,782.087 804.397,766.29 823.287,751.075 842.176,736.401 861.065,722.231 879.955,708.534 898.844,695.28 917.733,682.445 936.623,670.004 955.512,657.937 974.401,646.225 993.291,634.85 1012.18,623.798 1031.07,613.054 1049.96,602.604 1068.85,592.436 1087.74,582.538 1106.63,572.901 1125.52,563.515 1144.41,554.37 1163.29,545.458 1182.18,536.77 1201.07,528.301 1219.96,520.042 1238.85,511.987 1257.74,504.13 1276.63,496.464 1295.52,488.986 1314.41,481.688 1333.3,474.567 1352.19,467.617 1371.08,460.835 1389.97,454.216 1408.86,447.755 1427.75,441.45 1446.63,435.296 1465.52,429.291 1484.41,423.43 1503.3,417.71 1522.19,412.129 1541.08,406.683 1559.97,401.37 1578.86,396.188 1597.75,391.132 1616.64,386.202 1635.53,381.394 1654.42,376.706 1673.31,372.137 1692.2,367.684 1711.09,363.344 1729.97,359.117 1748.86,354.999 1767.75,350.99 1786.64,347.087 1805.53,343.289 1824.42,339.594 1843.31,336.001 1862.2,332.507 1881.09,329.112 1899.98,325.813 1918.87,322.61 1937.76,319.501 1956.65,316.485 1975.54,313.561 1994.43,310.727 2013.31,307.981 2032.2,305.324 2051.09,302.753 2069.98,300.268 2088.87,297.867 2107.76,295.55 2126.65,293.315 2145.54,291.161 2164.43,289.088 2183.32,287.094 2202.21,285.178 2221.1,283.34 2239.99,281.579 2258.88,279.894 2277.77,278.283 2296.65,276.747 "/>
<polyline clip-path="url(#clip022)" style="stroke:#c271d2; stroke-linecap:round; stroke-linejoin:round; stroke-width:12; stroke-opacity:1; fill:none" points="426.611,1384.24 445.5,1384.24 464.389,1364.58 483.279,1210.88 502.168,1138.15 521.057,1082.6 539.947,1036.09 558.836,995.422 577.725,958.945 596.615,925.672 615.504,894.957 634.393,866.351 653.283,839.525 672.172,814.228 691.061,790.268 709.951,767.49 728.84,745.766 747.729,724.993 766.619,705.084 785.508,685.965 804.397,667.572 823.287,649.851 842.176,632.752 861.065,616.235 879.955,600.262 898.844,584.8 917.733,569.819 936.623,555.293 955.512,541.197 974.401,527.509 993.291,514.211 1012.18,501.282 1031.07,488.708 1049.96,476.472 1068.85,464.56 1087.74,452.96 1106.63,441.659 1125.52,430.645 1144.41,419.909 1163.29,409.441 1182.18,399.231 1201.07,389.271 1219.96,379.552 1238.85,370.068 1257.74,360.811 1276.63,351.774 1295.52,342.951 1314.41,334.336 1333.3,325.923 1352.19,317.707 1371.08,309.683 1389.97,301.846 1408.86,294.191 1427.75,286.714 1446.63,279.411 1465.52,272.277 1484.41,265.309 1503.3,258.503 1522.19,251.855 1541.08,245.363 1559.97,239.023 1578.86,232.831 1597.75,226.786 1616.64,220.884 1635.53,215.122 1654.42,209.497 1673.31,204.008 1692.2,198.652 1711.09,193.426 1729.97,188.328 1748.86,183.356 1767.75,178.507 1786.64,173.781 1805.53,169.174 1824.42,164.685 1843.31,160.311 1862.2,156.052 1881.09,151.906 1899.98,147.87 1918.87,143.943 1937.76,140.124 1956.65,136.411 1975.54,132.802 1994.43,129.297 2013.31,125.893 2032.2,122.589 2051.09,119.385 2069.98,116.278 2088.87,113.267 2107.76,110.351 2126.65,107.53 2145.54,104.802 2164.43,102.165 2183.32,99.6184 2202.21,97.1617 2221.1,94.7935 2239.99,92.5128 2258.88,90.3186 2277.77,88.2098 2296.65,86.1857 "/>
<path clip-path="url(#clip020)" d="M436.584 352.309 L951.312 352.309 L951.312 93.1086 L436.584 93.1086  Z" fill="#ffffff" fill-rule="evenodd" fill-opacity="1"/>
<polyline clip-path="url(#clip020)" style="stroke:#000000; stroke-linecap:round; stroke-linejoin:round; stroke-width:4; stroke-opacity:1; fill:none" points="436.584,352.309 951.312,352.309 951.312,93.1086 436.584,93.1086 436.584,352.309 "/>
<polyline clip-path="url(#clip020)" style="stroke:#009af9; stroke-linecap:round; stroke-linejoin:round; stroke-width:12; stroke-opacity:1; fill:none" points="458.609,144.949 590.759,144.949 "/>
<path clip-path="url(#clip020)" d="M629.173 146.025 Q630.677 146.534 632.089 148.201 Q633.524 149.868 634.96 152.784 L639.705 162.229 L634.682 162.229 L630.261 153.363 Q628.548 149.891 626.927 148.756 Q625.33 147.622 622.552 147.622 L617.46 147.622 L617.46 162.229 L612.784 162.229 L612.784 127.669 L623.339 127.669 Q629.265 127.669 632.182 130.145 Q635.099 132.622 635.099 137.622 Q635.099 140.886 633.571 143.039 Q632.066 145.192 629.173 146.025 M617.46 131.511 L617.46 143.78 L623.339 143.78 Q626.719 143.78 628.432 142.229 Q630.168 140.655 630.168 137.622 Q630.168 134.59 628.432 133.062 Q626.719 131.511 623.339 131.511 L617.46 131.511 Z" fill="#000000" fill-rule="nonzero" fill-opacity="1" /><path clip-path="url(#clip020)" d="M656.279 149.196 Q651.117 149.196 649.126 150.377 Q647.136 151.557 647.136 154.405 Q647.136 156.673 648.617 158.016 Q650.122 159.335 652.691 159.335 Q656.233 159.335 658.362 156.835 Q660.515 154.312 660.515 150.145 L660.515 149.196 L656.279 149.196 M664.774 147.437 L664.774 162.229 L660.515 162.229 L660.515 158.293 Q659.057 160.655 656.881 161.789 Q654.705 162.9 651.557 162.9 Q647.575 162.9 645.214 160.678 Q642.876 158.432 642.876 154.682 Q642.876 150.307 645.793 148.085 Q648.733 145.863 654.543 145.863 L660.515 145.863 L660.515 145.446 Q660.515 142.507 658.571 140.909 Q656.649 139.289 653.154 139.289 Q650.932 139.289 648.825 139.821 Q646.719 140.354 644.774 141.419 L644.774 137.483 Q647.112 136.581 649.311 136.141 Q651.511 135.678 653.594 135.678 Q659.219 135.678 661.997 138.594 Q664.774 141.511 664.774 147.437 Z" fill="#000000" fill-rule="nonzero" fill-opacity="1" /><path clip-path="url(#clip020)" d="M673.547 136.303 L677.807 136.303 L677.807 162.229 L673.547 162.229 L673.547 136.303 M673.547 126.21 L677.807 126.21 L677.807 131.604 L673.547 131.604 L673.547 126.21 Z" fill="#000000" fill-rule="nonzero" fill-opacity="1" /><path clip-path="url(#clip020)" d="M708.269 146.581 L708.269 162.229 L704.01 162.229 L704.01 146.719 Q704.01 143.039 702.575 141.21 Q701.14 139.382 698.27 139.382 Q694.82 139.382 692.83 141.581 Q690.839 143.78 690.839 147.576 L690.839 162.229 L686.557 162.229 L686.557 136.303 L690.839 136.303 L690.839 140.331 Q692.367 137.993 694.427 136.835 Q696.51 135.678 699.219 135.678 Q703.686 135.678 705.978 138.456 Q708.269 141.21 708.269 146.581 Z" fill="#000000" fill-rule="nonzero" fill-opacity="1" /><polyline clip-path="url(#clip020)" style="stroke:#e26f46; stroke-linecap:round; stroke-linejoin:round; stroke-width:12; stroke-opacity:1; fill:none" points="458.609,196.789 590.759,196.789 "/>
<path clip-path="url(#clip020)" d="M635.029 180.643 L635.029 185.203 Q632.367 183.93 630.006 183.305 Q627.645 182.68 625.446 182.68 Q621.626 182.68 619.543 184.161 Q617.483 185.643 617.483 188.374 Q617.483 190.666 618.849 191.847 Q620.238 193.004 624.08 193.722 L626.904 194.3 Q632.136 195.296 634.612 197.819 Q637.112 200.319 637.112 204.532 Q637.112 209.555 633.733 212.147 Q630.376 214.74 623.872 214.74 Q621.418 214.74 618.64 214.184 Q615.886 213.629 612.923 212.541 L612.923 207.726 Q615.77 209.323 618.501 210.133 Q621.233 210.944 623.872 210.944 Q627.876 210.944 630.052 209.37 Q632.228 207.796 632.228 204.879 Q632.228 202.333 630.654 200.897 Q629.103 199.462 625.538 198.745 L622.691 198.189 Q617.46 197.147 615.122 194.925 Q612.784 192.703 612.784 188.745 Q612.784 184.161 616.001 181.522 Q619.242 178.884 624.913 178.884 Q627.344 178.884 629.867 179.323 Q632.39 179.763 635.029 180.643 Z" fill="#000000" fill-rule="nonzero" fill-opacity="1" /><path clip-path="url(#clip020)" d="M665.77 198.421 L665.77 214.069 L661.51 214.069 L661.51 198.559 Q661.51 194.879 660.075 193.05 Q658.64 191.222 655.77 191.222 Q652.321 191.222 650.33 193.421 Q648.339 195.62 648.339 199.416 L648.339 214.069 L644.057 214.069 L644.057 188.143 L648.339 188.143 L648.339 192.171 Q649.867 189.833 651.927 188.675 Q654.01 187.518 656.719 187.518 Q661.186 187.518 663.478 190.296 Q665.77 193.05 665.77 198.421 Z" fill="#000000" fill-rule="nonzero" fill-opacity="1" /><path clip-path="url(#clip020)" d="M684.311 191.129 Q680.885 191.129 678.895 193.814 Q676.904 196.476 676.904 201.129 Q676.904 205.782 678.871 208.467 Q680.862 211.129 684.311 211.129 Q687.714 211.129 689.705 208.444 Q691.695 205.758 691.695 201.129 Q691.695 196.522 689.705 193.837 Q687.714 191.129 684.311 191.129 M684.311 187.518 Q689.867 187.518 693.038 191.129 Q696.209 194.74 696.209 201.129 Q696.209 207.495 693.038 211.129 Q689.867 214.74 684.311 214.74 Q678.733 214.74 675.561 211.129 Q672.413 207.495 672.413 201.129 Q672.413 194.74 675.561 191.129 Q678.733 187.518 684.311 187.518 Z" fill="#000000" fill-rule="nonzero" fill-opacity="1" /><path clip-path="url(#clip020)" d="M700.793 188.143 L705.052 188.143 L710.376 208.374 L715.677 188.143 L720.7 188.143 L726.024 208.374 L731.325 188.143 L735.584 188.143 L728.802 214.069 L723.779 214.069 L718.2 192.819 L712.598 214.069 L707.575 214.069 L700.793 188.143 Z" fill="#000000" fill-rule="nonzero" fill-opacity="1" /><path clip-path="url(#clip020)" d="M752.505 179.509 L781.741 179.509 L781.741 183.444 L769.473 183.444 L769.473 214.069 L764.774 214.069 L764.774 183.444 L752.505 183.444 L752.505 179.509 Z" fill="#000000" fill-rule="nonzero" fill-opacity="1" /><path clip-path="url(#clip020)" d="M786.626 192.541 L816.301 192.541 L816.301 196.43 L786.626 196.43 L786.626 192.541 M786.626 201.985 L816.301 201.985 L816.301 205.921 L786.626 205.921 L786.626 201.985 Z" fill="#000000" fill-rule="nonzero" fill-opacity="1" /><path clip-path="url(#clip020)" d="M823.639 199.184 L836.116 199.184 L836.116 202.981 L823.639 202.981 L823.639 199.184 Z" fill="#000000" fill-rule="nonzero" fill-opacity="1" /><path clip-path="url(#clip020)" d="M843.547 179.509 L861.903 179.509 L861.903 183.444 L847.829 183.444 L847.829 191.916 Q848.847 191.569 849.866 191.407 Q850.884 191.222 851.903 191.222 Q857.69 191.222 861.07 194.393 Q864.449 197.564 864.449 202.981 Q864.449 208.559 860.977 211.661 Q857.505 214.74 851.185 214.74 Q849.009 214.74 846.741 214.37 Q844.496 213.999 842.088 213.258 L842.088 208.559 Q844.172 209.694 846.394 210.249 Q848.616 210.805 851.093 210.805 Q855.097 210.805 857.435 208.698 Q859.773 206.592 859.773 202.981 Q859.773 199.37 857.435 197.263 Q855.097 195.157 851.093 195.157 Q849.218 195.157 847.343 195.573 Q845.491 195.99 843.547 196.87 L843.547 179.509 Z" fill="#000000" fill-rule="nonzero" fill-opacity="1" /><path clip-path="url(#clip020)" d="M899.125 182.171 L899.125 187.101 Q896.764 184.902 894.079 183.814 Q891.417 182.726 888.407 182.726 Q882.481 182.726 879.333 186.36 Q876.185 189.972 876.185 196.823 Q876.185 203.652 879.333 207.286 Q882.481 210.897 888.407 210.897 Q891.417 210.897 894.079 209.809 Q896.764 208.721 899.125 206.522 L899.125 211.407 Q896.671 213.073 893.917 213.907 Q891.185 214.74 888.13 214.74 Q880.282 214.74 875.769 209.948 Q871.255 205.133 871.255 196.823 Q871.255 188.49 875.769 183.698 Q880.282 178.884 888.13 178.884 Q891.231 178.884 893.963 179.717 Q896.718 180.527 899.125 182.171 Z" fill="#000000" fill-rule="nonzero" fill-opacity="1" /><polyline clip-path="url(#clip020)" style="stroke:#3da44d; stroke-linecap:round; stroke-linejoin:round; stroke-width:12; stroke-opacity:1; fill:none" points="458.609,248.629 590.759,248.629 "/>
<path clip-path="url(#clip020)" d="M635.029 232.483 L635.029 237.043 Q632.367 235.77 630.006 235.145 Q627.645 234.52 625.446 234.52 Q621.626 234.52 619.543 236.001 Q617.483 237.483 617.483 240.214 Q617.483 242.506 618.849 243.687 Q620.238 244.844 624.08 245.562 L626.904 246.14 Q632.136 247.136 634.612 249.659 Q637.112 252.159 637.112 256.372 Q637.112 261.395 633.733 263.987 Q630.376 266.58 623.872 266.58 Q621.418 266.58 618.64 266.024 Q615.886 265.469 612.923 264.381 L612.923 259.566 Q615.77 261.163 618.501 261.973 Q621.233 262.784 623.872 262.784 Q627.876 262.784 630.052 261.21 Q632.228 259.636 632.228 256.719 Q632.228 254.173 630.654 252.737 Q629.103 251.302 625.538 250.585 L622.691 250.029 Q617.46 248.987 615.122 246.765 Q612.784 244.543 612.784 240.585 Q612.784 236.001 616.001 233.362 Q619.242 230.724 624.913 230.724 Q627.344 230.724 629.867 231.163 Q632.39 231.603 635.029 232.483 Z" fill="#000000" fill-rule="nonzero" fill-opacity="1" /><path clip-path="url(#clip020)" d="M665.77 250.261 L665.77 265.909 L661.51 265.909 L661.51 250.399 Q661.51 246.719 660.075 244.89 Q658.64 243.062 655.77 243.062 Q652.321 243.062 650.33 245.261 Q648.339 247.46 648.339 251.256 L648.339 265.909 L644.057 265.909 L644.057 239.983 L648.339 239.983 L648.339 244.011 Q649.867 241.673 651.927 240.515 Q654.01 239.358 656.719 239.358 Q661.186 239.358 663.478 242.136 Q665.77 244.89 665.77 250.261 Z" fill="#000000" fill-rule="nonzero" fill-opacity="1" /><path clip-path="url(#clip020)" d="M684.311 242.969 Q680.885 242.969 678.895 245.654 Q676.904 248.316 676.904 252.969 Q676.904 257.622 678.871 260.307 Q680.862 262.969 684.311 262.969 Q687.714 262.969 689.705 260.284 Q691.695 257.598 691.695 252.969 Q691.695 248.362 689.705 245.677 Q687.714 242.969 684.311 242.969 M684.311 239.358 Q689.867 239.358 693.038 242.969 Q696.209 246.58 696.209 252.969 Q696.209 259.335 693.038 262.969 Q689.867 266.58 684.311 266.58 Q678.733 266.58 675.561 262.969 Q672.413 259.335 672.413 252.969 Q672.413 246.58 675.561 242.969 Q678.733 239.358 684.311 239.358 Z" fill="#000000" fill-rule="nonzero" fill-opacity="1" /><path clip-path="url(#clip020)" d="M700.793 239.983 L705.052 239.983 L710.376 260.214 L715.677 239.983 L720.7 239.983 L726.024 260.214 L731.325 239.983 L735.584 239.983 L728.802 265.909 L723.779 265.909 L718.2 244.659 L712.598 265.909 L707.575 265.909 L700.793 239.983 Z" fill="#000000" fill-rule="nonzero" fill-opacity="1" /><path clip-path="url(#clip020)" d="M752.505 231.349 L781.741 231.349 L781.741 235.284 L769.473 235.284 L769.473 265.909 L764.774 265.909 L764.774 235.284 L752.505 235.284 L752.505 231.349 Z" fill="#000000" fill-rule="nonzero" fill-opacity="1" /><path clip-path="url(#clip020)" d="M786.626 244.381 L816.301 244.381 L816.301 248.27 L786.626 248.27 L786.626 244.381 M786.626 253.825 L816.301 253.825 L816.301 257.761 L786.626 257.761 L786.626 253.825 Z" fill="#000000" fill-rule="nonzero" fill-opacity="1" /><path clip-path="url(#clip020)" d="M823.639 251.024 L836.116 251.024 L836.116 254.821 L823.639 254.821 L823.639 251.024 Z" fill="#000000" fill-rule="nonzero" fill-opacity="1" /><path clip-path="url(#clip020)" d="M844.31 261.973 L851.949 261.973 L851.949 235.608 L843.639 237.275 L843.639 233.015 L851.903 231.349 L856.579 231.349 L856.579 261.973 L864.218 261.973 L864.218 265.909 L844.31 265.909 L844.31 261.973 Z" fill="#000000" fill-rule="nonzero" fill-opacity="1" /><path clip-path="url(#clip020)" d="M883.662 234.427 Q880.051 234.427 878.222 237.992 Q876.417 241.534 876.417 248.663 Q876.417 255.77 878.222 259.335 Q880.051 262.876 883.662 262.876 Q887.296 262.876 889.102 259.335 Q890.931 255.77 890.931 248.663 Q890.931 241.534 889.102 237.992 Q887.296 234.427 883.662 234.427 M883.662 230.724 Q889.472 230.724 892.528 235.33 Q895.606 239.913 895.606 248.663 Q895.606 257.39 892.528 261.997 Q889.472 266.58 883.662 266.58 Q877.852 266.58 874.773 261.997 Q871.718 257.39 871.718 248.663 Q871.718 239.913 874.773 235.33 Q877.852 230.724 883.662 230.724 Z" fill="#000000" fill-rule="nonzero" fill-opacity="1" /><path clip-path="url(#clip020)" d="M929.287 234.011 L929.287 238.941 Q926.926 236.742 924.241 235.654 Q921.578 234.566 918.569 234.566 Q912.643 234.566 909.495 238.2 Q906.347 241.812 906.347 248.663 Q906.347 255.492 909.495 259.126 Q912.643 262.737 918.569 262.737 Q921.578 262.737 924.241 261.649 Q926.926 260.561 929.287 258.362 L929.287 263.247 Q926.833 264.913 924.078 265.747 Q921.347 266.58 918.291 266.58 Q910.444 266.58 905.93 261.788 Q901.417 256.973 901.417 248.663 Q901.417 240.33 905.93 235.538 Q910.444 230.724 918.291 230.724 Q921.393 230.724 924.125 231.557 Q926.879 232.367 929.287 234.011 Z" fill="#000000" fill-rule="nonzero" fill-opacity="1" /><polyline clip-path="url(#clip020)" style="stroke:#c271d2; stroke-linecap:round; stroke-linejoin:round; stroke-width:12; stroke-opacity:1; fill:none" points="458.609,300.469 590.759,300.469 "/>
<path clip-path="url(#clip020)" d="M635.029 284.323 L635.029 288.883 Q632.367 287.61 630.006 286.985 Q627.645 286.36 625.446 286.36 Q621.626 286.36 619.543 287.841 Q617.483 289.323 617.483 292.054 Q617.483 294.346 618.849 295.527 Q620.238 296.684 624.08 297.402 L626.904 297.98 Q632.136 298.976 634.612 301.499 Q637.112 303.999 637.112 308.212 Q637.112 313.235 633.733 315.827 Q630.376 318.42 623.872 318.42 Q621.418 318.42 618.64 317.864 Q615.886 317.309 612.923 316.221 L612.923 311.406 Q615.77 313.003 618.501 313.813 Q621.233 314.624 623.872 314.624 Q627.876 314.624 630.052 313.05 Q632.228 311.476 632.228 308.559 Q632.228 306.013 630.654 304.577 Q629.103 303.142 625.538 302.425 L622.691 301.869 Q617.46 300.827 615.122 298.605 Q612.784 296.383 612.784 292.425 Q612.784 287.841 616.001 285.202 Q619.242 282.564 624.913 282.564 Q627.344 282.564 629.867 283.003 Q632.39 283.443 635.029 284.323 Z" fill="#000000" fill-rule="nonzero" fill-opacity="1" /><path clip-path="url(#clip020)" d="M665.77 302.101 L665.77 317.749 L661.51 317.749 L661.51 302.239 Q661.51 298.559 660.075 296.73 Q658.64 294.902 655.77 294.902 Q652.321 294.902 650.33 297.101 Q648.339 299.3 648.339 303.096 L648.339 317.749 L644.057 317.749 L644.057 291.823 L648.339 291.823 L648.339 295.851 Q649.867 293.513 651.927 292.355 Q654.01 291.198 656.719 291.198 Q661.186 291.198 663.478 293.976 Q665.77 296.73 665.77 302.101 Z" fill="#000000" fill-rule="nonzero" fill-opacity="1" /><path clip-path="url(#clip020)" d="M684.311 294.809 Q680.885 294.809 678.895 297.494 Q676.904 300.156 676.904 304.809 Q676.904 309.462 678.871 312.147 Q680.862 314.809 684.311 314.809 Q687.714 314.809 689.705 312.124 Q691.695 309.438 691.695 304.809 Q691.695 300.202 689.705 297.517 Q687.714 294.809 684.311 294.809 M684.311 291.198 Q689.867 291.198 693.038 294.809 Q696.209 298.42 696.209 304.809 Q696.209 311.175 693.038 314.809 Q689.867 318.42 684.311 318.42 Q678.733 318.42 675.561 314.809 Q672.413 311.175 672.413 304.809 Q672.413 298.42 675.561 294.809 Q678.733 291.198 684.311 291.198 Z" fill="#000000" fill-rule="nonzero" fill-opacity="1" /><path clip-path="url(#clip020)" d="M700.793 291.823 L705.052 291.823 L710.376 312.054 L715.677 291.823 L720.7 291.823 L726.024 312.054 L731.325 291.823 L735.584 291.823 L728.802 317.749 L723.779 317.749 L718.2 296.499 L712.598 317.749 L707.575 317.749 L700.793 291.823 Z" fill="#000000" fill-rule="nonzero" fill-opacity="1" /><path clip-path="url(#clip020)" d="M752.505 283.189 L781.741 283.189 L781.741 287.124 L769.473 287.124 L769.473 317.749 L764.774 317.749 L764.774 287.124 L752.505 287.124 L752.505 283.189 Z" fill="#000000" fill-rule="nonzero" fill-opacity="1" /><path clip-path="url(#clip020)" d="M786.626 296.221 L816.301 296.221 L816.301 300.11 L786.626 300.11 L786.626 296.221 M786.626 305.665 L816.301 305.665 L816.301 309.601 L786.626 309.601 L786.626 305.665 Z" fill="#000000" fill-rule="nonzero" fill-opacity="1" /><path clip-path="url(#clip020)" d="M823.639 302.864 L836.116 302.864 L836.116 306.661 L823.639 306.661 L823.639 302.864 Z" fill="#000000" fill-rule="nonzero" fill-opacity="1" /><path clip-path="url(#clip020)" d="M844.31 313.813 L851.949 313.813 L851.949 287.448 L843.639 289.115 L843.639 284.855 L851.903 283.189 L856.579 283.189 L856.579 313.813 L864.218 313.813 L864.218 317.749 L844.31 317.749 L844.31 313.813 Z" fill="#000000" fill-rule="nonzero" fill-opacity="1" /><path clip-path="url(#clip020)" d="M873.708 283.189 L892.065 283.189 L892.065 287.124 L877.991 287.124 L877.991 295.596 Q879.009 295.249 880.028 295.087 Q881.046 294.902 882.065 294.902 Q887.852 294.902 891.231 298.073 Q894.611 301.244 894.611 306.661 Q894.611 312.239 891.139 315.341 Q887.667 318.42 881.347 318.42 Q879.171 318.42 876.903 318.05 Q874.657 317.679 872.25 316.938 L872.25 312.239 Q874.333 313.374 876.556 313.929 Q878.778 314.485 881.255 314.485 Q885.259 314.485 887.597 312.378 Q889.935 310.272 889.935 306.661 Q889.935 303.05 887.597 300.943 Q885.259 298.837 881.255 298.837 Q879.38 298.837 877.505 299.253 Q875.653 299.67 873.708 300.55 L873.708 283.189 Z" fill="#000000" fill-rule="nonzero" fill-opacity="1" /><path clip-path="url(#clip020)" d="M929.287 285.851 L929.287 290.781 Q926.926 288.582 924.241 287.494 Q921.578 286.406 918.569 286.406 Q912.643 286.406 909.495 290.04 Q906.347 293.652 906.347 300.503 Q906.347 307.332 909.495 310.966 Q912.643 314.577 918.569 314.577 Q921.578 314.577 924.241 313.489 Q926.926 312.401 929.287 310.202 L929.287 315.087 Q926.833 316.753 924.078 317.587 Q921.347 318.42 918.291 318.42 Q910.444 318.42 905.93 313.628 Q901.417 308.813 901.417 300.503 Q901.417 292.17 905.93 287.378 Q910.444 282.564 918.291 282.564 Q921.393 282.564 924.125 283.397 Q926.879 284.207 929.287 285.851 Z" fill="#000000" fill-rule="nonzero" fill-opacity="1" /></svg>
