<?xml version="1.0" encoding="utf-8"?>
<svg xmlns="http://www.w3.org/2000/svg" xmlns:xlink="http://www.w3.org/1999/xlink" width="600" height="400" viewBox="0 0 2400 1600">
<defs>
  <clipPath id="clip140">
    <rect x="0" y="0" width="2400" height="1600"/>
  </clipPath>
</defs>
<path clip-path="url(#clip140)" d="M0 1600 L2400 1600 L2400 0 L0 0  Z" fill="#ffffff" fill-rule="evenodd" fill-opacity="1"/>
<defs>
  <clipPath id="clip141">
    <rect x="480" y="0" width="1681" height="1600"/>
  </clipPath>
</defs>
<path clip-path="url(#clip140)" d="M399.329 1423.18 L2352.76 1423.18 L2352.76 47.2441 L399.329 47.2441  Z" fill="#ffffff" fill-rule="evenodd" fill-opacity="1"/>
<defs>
  <clipPath id="clip142">
    <rect x="399" y="47" width="1954" height="1377"/>
  </clipPath>
</defs>
<polyline clip-path="url(#clip142)" style="stroke:#000000; stroke-linecap:round; stroke-linejoin:round; stroke-width:2; stroke-opacity:0.1; fill:none" points="454.611,1423.18 454.611,47.2441 "/>
<polyline clip-path="url(#clip142)" style="stroke:#000000; stroke-linecap:round; stroke-linejoin:round; stroke-width:2; stroke-opacity:0.1; fill:none" points="823.182,1423.18 823.182,47.2441 "/>
<polyline clip-path="url(#clip142)" style="stroke:#000000; stroke-linecap:round; stroke-linejoin:round; stroke-width:2; stroke-opacity:0.1; fill:none" points="1191.75,1423.18 1191.75,47.2441 "/>
<polyline clip-path="url(#clip142)" style="stroke:#000000; stroke-linecap:round; stroke-linejoin:round; stroke-width:2; stroke-opacity:0.1; fill:none" points="1560.33,1423.18 1560.33,47.2441 "/>
<polyline clip-path="url(#clip142)" style="stroke:#000000; stroke-linecap:round; stroke-linejoin:round; stroke-width:2; stroke-opacity:0.1; fill:none" points="1928.9,1423.18 1928.9,47.2441 "/>
<polyline clip-path="url(#clip142)" style="stroke:#000000; stroke-linecap:round; stroke-linejoin:round; stroke-width:2; stroke-opacity:0.1; fill:none" points="2297.47,1423.18 2297.47,47.2441 "/>
<polyline clip-path="url(#clip140)" style="stroke:#000000; stroke-linecap:round; stroke-linejoin:round; stroke-width:4; stroke-opacity:1; fill:none" points="399.329,1423.18 2352.76,1423.18 "/>
<polyline clip-path="url(#clip140)" style="stroke:#000000; stroke-linecap:round; stroke-linejoin:round; stroke-width:4; stroke-opacity:1; fill:none" points="454.611,1423.18 454.611,1404.28 "/>
<polyline clip-path="url(#clip140)" style="stroke:#000000; stroke-linecap:round; stroke-linejoin:round; stroke-width:4; stroke-opacity:1; fill:none" points="823.182,1423.18 823.182,1404.28 "/>
<polyline clip-path="url(#clip140)" style="stroke:#000000; stroke-linecap:round; stroke-linejoin:round; stroke-width:4; stroke-opacity:1; fill:none" points="1191.75,1423.18 1191.75,1404.28 "/>
<polyline clip-path="url(#clip140)" style="stroke:#000000; stroke-linecap:round; stroke-linejoin:round; stroke-width:4; stroke-opacity:1; fill:none" points="1560.33,1423.18 1560.33,1404.28 "/>
<polyline clip-path="url(#clip140)" style="stroke:#000000; stroke-linecap:round; stroke-linejoin:round; stroke-width:4; stroke-opacity:1; fill:none" points="1928.9,1423.18 1928.9,1404.28 "/>
<polyline clip-path="url(#clip140)" style="stroke:#000000; stroke-linecap:round; stroke-linejoin:round; stroke-width:4; stroke-opacity:1; fill:none" points="2297.47,1423.18 2297.47,1404.28 "/>
<path clip-path="url(#clip140)" d="M454.611 1454.1 Q450.999 1454.1 449.171 1457.66 Q447.365 1461.2 447.365 1468.33 Q447.365 1475.44 449.171 1479.01 Q450.999 1482.55 454.611 1482.55 Q458.245 1482.55 460.05 1479.01 Q461.879 1475.44 461.879 1468.33 Q461.879 1461.2 460.05 1457.66 Q458.245 1454.1 454.611 1454.1 M454.611 1450.39 Q460.421 1450.39 463.476 1455 Q466.555 1459.58 466.555 1468.33 Q466.555 1477.06 463.476 1481.67 Q460.421 1486.25 454.611 1486.25 Q448.8 1486.25 445.722 1481.67 Q442.666 1477.06 442.666 1468.33 Q442.666 1459.58 445.722 1455 Q448.8 1450.39 454.611 1450.39 Z" fill="#000000" fill-rule="nonzero" fill-opacity="1" /><path clip-path="url(#clip140)" d="M813.564 1481.64 L821.203 1481.64 L821.203 1455.28 L812.893 1456.95 L812.893 1452.69 L821.157 1451.02 L825.833 1451.02 L825.833 1481.64 L833.472 1481.64 L833.472 1485.58 L813.564 1485.58 L813.564 1481.64 Z" fill="#000000" fill-rule="nonzero" fill-opacity="1" /><path clip-path="url(#clip140)" d="M1186.41 1481.64 L1202.73 1481.64 L1202.73 1485.58 L1180.78 1485.58 L1180.78 1481.64 Q1183.44 1478.89 1188.03 1474.26 Q1192.63 1469.61 1193.81 1468.27 Q1196.06 1465.74 1196.94 1464.01 Q1197.84 1462.25 1197.84 1460.56 Q1197.84 1457.8 1195.9 1456.07 Q1193.98 1454.33 1190.87 1454.33 Q1188.68 1454.33 1186.22 1455.09 Q1183.79 1455.86 1181.01 1457.41 L1181.01 1452.69 Q1183.84 1451.55 1186.29 1450.97 Q1188.75 1450.39 1190.78 1450.39 Q1196.15 1450.39 1199.35 1453.08 Q1202.54 1455.77 1202.54 1460.26 Q1202.54 1462.39 1201.73 1464.31 Q1200.94 1466.2 1198.84 1468.8 Q1198.26 1469.47 1195.16 1472.69 Q1192.06 1475.88 1186.41 1481.64 Z" fill="#000000" fill-rule="nonzero" fill-opacity="1" /><path clip-path="url(#clip140)" d="M1564.57 1466.95 Q1567.93 1467.66 1569.81 1469.93 Q1571.7 1472.2 1571.7 1475.53 Q1571.7 1480.65 1568.19 1483.45 Q1564.67 1486.25 1558.19 1486.25 Q1556.01 1486.25 1553.69 1485.81 Q1551.4 1485.39 1548.95 1484.54 L1548.95 1480.02 Q1550.89 1481.16 1553.21 1481.74 Q1555.52 1482.32 1558.05 1482.32 Q1562.44 1482.32 1564.74 1480.58 Q1567.05 1478.84 1567.05 1475.53 Q1567.05 1472.48 1564.9 1470.77 Q1562.77 1469.03 1558.95 1469.03 L1554.92 1469.03 L1554.92 1465.19 L1559.13 1465.19 Q1562.58 1465.19 1564.41 1463.82 Q1566.24 1462.43 1566.24 1459.84 Q1566.24 1457.18 1564.34 1455.77 Q1562.47 1454.33 1558.95 1454.33 Q1557.03 1454.33 1554.83 1454.75 Q1552.63 1455.16 1549.99 1456.04 L1549.99 1451.88 Q1552.65 1451.14 1554.97 1450.77 Q1557.31 1450.39 1559.37 1450.39 Q1564.69 1450.39 1567.79 1452.83 Q1570.89 1455.23 1570.89 1459.35 Q1570.89 1462.22 1569.25 1464.21 Q1567.61 1466.18 1564.57 1466.95 Z" fill="#000000" fill-rule="nonzero" fill-opacity="1" /><path clip-path="url(#clip140)" d="M1931.91 1455.09 L1920.1 1473.54 L1931.91 1473.54 L1931.91 1455.09 M1930.68 1451.02 L1936.56 1451.02 L1936.56 1473.54 L1941.49 1473.54 L1941.49 1477.43 L1936.56 1477.43 L1936.56 1485.58 L1931.91 1485.58 L1931.91 1477.43 L1916.31 1477.43 L1916.31 1472.92 L1930.68 1451.02 Z" fill="#000000" fill-rule="nonzero" fill-opacity="1" /><path clip-path="url(#clip140)" d="M2287.75 1451.02 L2306.1 1451.02 L2306.1 1454.96 L2292.03 1454.96 L2292.03 1463.43 Q2293.05 1463.08 2294.07 1462.92 Q2295.09 1462.73 2296.1 1462.73 Q2301.89 1462.73 2305.27 1465.9 Q2308.65 1469.08 2308.65 1474.49 Q2308.65 1480.07 2305.18 1483.17 Q2301.71 1486.25 2295.39 1486.25 Q2293.21 1486.25 2290.94 1485.88 Q2288.7 1485.51 2286.29 1484.77 L2286.29 1480.07 Q2288.37 1481.2 2290.6 1481.76 Q2292.82 1482.32 2295.29 1482.32 Q2299.3 1482.32 2301.64 1480.21 Q2303.97 1478.1 2303.97 1474.49 Q2303.97 1470.88 2301.64 1468.77 Q2299.3 1466.67 2295.29 1466.67 Q2293.42 1466.67 2291.54 1467.08 Q2289.69 1467.5 2287.75 1468.38 L2287.75 1451.02 Z" fill="#000000" fill-rule="nonzero" fill-opacity="1" /><path clip-path="url(#clip140)" d="M1179.6 1550.25 Q1179.6 1556.71 1182.24 1560.4 Q1184.91 1564.07 1189.56 1564.07 Q1194.21 1564.07 1196.88 1560.4 Q1199.55 1556.71 1199.55 1550.25 Q1199.55 1543.79 1196.88 1540.13 Q1194.21 1536.44 1189.56 1536.44 Q1184.91 1536.44 1182.24 1540.13 Q1179.6 1543.79 1179.6 1550.25 M1199.55 1562.7 Q1197.71 1565.88 1194.87 1567.44 Q1192.07 1568.97 1188.13 1568.97 Q1181.67 1568.97 1177.59 1563.81 Q1173.55 1558.65 1173.55 1550.25 Q1173.55 1541.85 1177.59 1536.69 Q1181.67 1531.54 1188.13 1531.54 Q1192.07 1531.54 1194.87 1533.1 Q1197.71 1534.62 1199.55 1537.81 L1199.55 1532.4 L1205.41 1532.4 L1205.41 1581.6 L1199.55 1581.6 L1199.55 1562.7 Z" fill="#000000" fill-rule="nonzero" fill-opacity="1" /><path clip-path="url(#clip140)" d="M1244.56 1578.87 L1244.56 1583.42 L1210.69 1583.42 L1210.69 1578.87 L1244.56 1578.87 Z" fill="#000000" fill-rule="nonzero" fill-opacity="1" /><path clip-path="url(#clip140)" d="M1270.72 1537.87 Q1269.73 1537.3 1268.56 1537.04 Q1267.41 1536.76 1266.01 1536.76 Q1261.05 1536.76 1258.37 1540 Q1255.73 1543.22 1255.73 1549.27 L1255.73 1568.04 L1249.84 1568.04 L1249.84 1532.4 L1255.73 1532.4 L1255.73 1537.93 Q1257.58 1534.69 1260.54 1533.13 Q1263.5 1531.54 1267.73 1531.54 Q1268.33 1531.54 1269.07 1531.63 Q1269.8 1531.7 1270.69 1531.85 L1270.72 1537.87 Z" fill="#000000" fill-rule="nonzero" fill-opacity="1" /><path clip-path="url(#clip140)" d="M1293.07 1550.12 Q1285.97 1550.12 1283.23 1551.75 Q1280.49 1553.37 1280.49 1557.29 Q1280.49 1560.4 1282.53 1562.25 Q1284.6 1564.07 1288.13 1564.07 Q1293 1564.07 1295.93 1560.63 Q1298.89 1557.16 1298.89 1551.43 L1298.89 1550.12 L1293.07 1550.12 M1304.75 1547.71 L1304.75 1568.04 L1298.89 1568.04 L1298.89 1562.63 Q1296.88 1565.88 1293.89 1567.44 Q1290.9 1568.97 1286.57 1568.97 Q1281.1 1568.97 1277.85 1565.91 Q1274.64 1562.82 1274.64 1557.67 Q1274.64 1551.65 1278.65 1548.6 Q1282.69 1545.54 1290.68 1545.54 L1298.89 1545.54 L1298.89 1544.97 Q1298.89 1540.93 1296.22 1538.73 Q1293.57 1536.5 1288.77 1536.5 Q1285.71 1536.5 1282.82 1537.23 Q1279.92 1537.97 1277.25 1539.43 L1277.25 1534.02 Q1280.46 1532.78 1283.48 1532.17 Q1286.51 1531.54 1289.37 1531.54 Q1297.11 1531.54 1300.93 1535.55 Q1304.75 1539.56 1304.75 1547.71 Z" fill="#000000" fill-rule="nonzero" fill-opacity="1" /><path clip-path="url(#clip140)" d="M1316.81 1532.4 L1322.67 1532.4 L1322.67 1568.04 L1316.81 1568.04 L1316.81 1532.4 M1316.81 1518.52 L1322.67 1518.52 L1322.67 1525.93 L1316.81 1525.93 L1316.81 1518.52 Z" fill="#000000" fill-rule="nonzero" fill-opacity="1" /><path clip-path="url(#clip140)" d="M1364.55 1546.53 L1364.55 1568.04 L1358.7 1568.04 L1358.7 1546.72 Q1358.7 1541.66 1356.72 1539.14 Q1354.75 1536.63 1350.8 1536.63 Q1346.06 1536.63 1343.32 1539.65 Q1340.59 1542.68 1340.59 1547.9 L1340.59 1568.04 L1334.7 1568.04 L1334.7 1532.4 L1340.59 1532.4 L1340.59 1537.93 Q1342.69 1534.72 1345.52 1533.13 Q1348.38 1531.54 1352.11 1531.54 Q1358.25 1531.54 1361.4 1535.36 Q1364.55 1539.14 1364.55 1546.53 Z" fill="#000000" fill-rule="nonzero" fill-opacity="1" /><path clip-path="url(#clip140)" d="M1396.41 1518.52 L1409.91 1518.52 L1409.91 1523.07 L1402.27 1523.07 L1402.27 1572.09 L1409.91 1572.09 L1409.91 1576.64 L1396.41 1576.64 L1396.41 1518.52 Z" fill="#000000" fill-rule="nonzero" fill-opacity="1" /><path clip-path="url(#clip140)" d="M1445.84 1549.81 Q1445.84 1543.44 1443.2 1539.94 Q1440.59 1536.44 1435.85 1536.44 Q1431.14 1536.44 1428.5 1539.94 Q1425.89 1543.44 1425.89 1549.81 Q1425.89 1556.14 1428.5 1559.64 Q1431.14 1563.14 1435.85 1563.14 Q1440.59 1563.14 1443.2 1559.64 Q1445.84 1556.14 1445.84 1549.81 M1451.7 1563.62 Q1451.7 1572.72 1447.66 1577.15 Q1443.61 1581.6 1435.28 1581.6 Q1432.19 1581.6 1429.45 1581.13 Q1426.71 1580.68 1424.14 1579.72 L1424.14 1574.03 Q1426.71 1575.43 1429.23 1576.1 Q1431.74 1576.76 1434.35 1576.76 Q1440.11 1576.76 1442.98 1573.74 Q1445.84 1570.75 1445.84 1564.67 L1445.84 1561.77 Q1444.03 1564.92 1441.2 1566.48 Q1438.36 1568.04 1434.42 1568.04 Q1427.86 1568.04 1423.85 1563.05 Q1419.84 1558.05 1419.84 1549.81 Q1419.84 1541.53 1423.85 1536.53 Q1427.86 1531.54 1434.42 1531.54 Q1438.36 1531.54 1441.2 1533.1 Q1444.03 1534.66 1445.84 1537.81 L1445.84 1532.4 L1451.7 1532.4 L1451.7 1563.62 Z" fill="#000000" fill-rule="nonzero" fill-opacity="1" /><path clip-path="url(#clip140)" d="M1474.17 1520.52 L1479.58 1520.52 L1463.03 1574.09 L1457.62 1574.09 L1474.17 1520.52 Z" fill="#000000" fill-rule="nonzero" fill-opacity="1" /><path clip-path="url(#clip140)" d="M1485.5 1518.52 L1491.39 1518.52 L1491.39 1547.77 L1508.86 1532.4 L1516.34 1532.4 L1497.44 1549.07 L1517.14 1568.04 L1509.5 1568.04 L1491.39 1550.63 L1491.39 1568.04 L1485.5 1568.04 L1485.5 1518.52 Z" fill="#000000" fill-rule="nonzero" fill-opacity="1" /><path clip-path="url(#clip140)" d="M1546.93 1549.81 Q1546.93 1543.44 1544.29 1539.94 Q1541.68 1536.44 1536.94 1536.44 Q1532.22 1536.44 1529.58 1539.94 Q1526.97 1543.44 1526.97 1549.81 Q1526.97 1556.14 1529.58 1559.64 Q1532.22 1563.14 1536.94 1563.14 Q1541.68 1563.14 1544.29 1559.64 Q1546.93 1556.14 1546.93 1549.81 M1552.79 1563.62 Q1552.79 1572.72 1548.74 1577.15 Q1544.7 1581.6 1536.36 1581.6 Q1533.28 1581.6 1530.54 1581.13 Q1527.8 1580.68 1525.22 1579.72 L1525.22 1574.03 Q1527.8 1575.43 1530.32 1576.1 Q1532.83 1576.76 1535.44 1576.76 Q1541.2 1576.76 1544.07 1573.74 Q1546.93 1570.75 1546.93 1564.67 L1546.93 1561.77 Q1545.12 1564.92 1542.28 1566.48 Q1539.45 1568.04 1535.5 1568.04 Q1528.95 1568.04 1524.94 1563.05 Q1520.93 1558.05 1520.93 1549.81 Q1520.93 1541.53 1524.94 1536.53 Q1528.95 1531.54 1535.5 1531.54 Q1539.45 1531.54 1542.28 1533.1 Q1545.12 1534.66 1546.93 1537.81 L1546.93 1532.4 L1552.79 1532.4 L1552.79 1563.62 Z" fill="#000000" fill-rule="nonzero" fill-opacity="1" /><path clip-path="url(#clip140)" d="M1578.54 1518.52 L1578.54 1576.64 L1565.04 1576.64 L1565.04 1572.09 L1572.65 1572.09 L1572.65 1523.07 L1565.04 1523.07 L1565.04 1518.52 L1578.54 1518.52 Z" fill="#000000" fill-rule="nonzero" fill-opacity="1" /><polyline clip-path="url(#clip142)" style="stroke:#000000; stroke-linecap:round; stroke-linejoin:round; stroke-width:2; stroke-opacity:0.1; fill:none" points="399.329,1384.25 2352.76,1384.25 "/>
<polyline clip-path="url(#clip142)" style="stroke:#000000; stroke-linecap:round; stroke-linejoin:round; stroke-width:2; stroke-opacity:0.1; fill:none" points="399.329,1141.49 2352.76,1141.49 "/>
<polyline clip-path="url(#clip142)" style="stroke:#000000; stroke-linecap:round; stroke-linejoin:round; stroke-width:2; stroke-opacity:0.1; fill:none" points="399.329,898.726 2352.76,898.726 "/>
<polyline clip-path="url(#clip142)" style="stroke:#000000; stroke-linecap:round; stroke-linejoin:round; stroke-width:2; stroke-opacity:0.1; fill:none" points="399.329,655.964 2352.76,655.964 "/>
<polyline clip-path="url(#clip142)" style="stroke:#000000; stroke-linecap:round; stroke-linejoin:round; stroke-width:2; stroke-opacity:0.1; fill:none" points="399.329,413.203 2352.76,413.203 "/>
<polyline clip-path="url(#clip142)" style="stroke:#000000; stroke-linecap:round; stroke-linejoin:round; stroke-width:2; stroke-opacity:0.1; fill:none" points="399.329,170.441 2352.76,170.441 "/>
<polyline clip-path="url(#clip140)" style="stroke:#000000; stroke-linecap:round; stroke-linejoin:round; stroke-width:4; stroke-opacity:1; fill:none" points="399.329,1423.18 399.329,47.2441 "/>
<polyline clip-path="url(#clip140)" style="stroke:#000000; stroke-linecap:round; stroke-linejoin:round; stroke-width:4; stroke-opacity:1; fill:none" points="399.329,1384.25 418.226,1384.25 "/>
<polyline clip-path="url(#clip140)" style="stroke:#000000; stroke-linecap:round; stroke-linejoin:round; stroke-width:4; stroke-opacity:1; fill:none" points="399.329,1141.49 418.226,1141.49 "/>
<polyline clip-path="url(#clip140)" style="stroke:#000000; stroke-linecap:round; stroke-linejoin:round; stroke-width:4; stroke-opacity:1; fill:none" points="399.329,898.726 418.226,898.726 "/>
<polyline clip-path="url(#clip140)" style="stroke:#000000; stroke-linecap:round; stroke-linejoin:round; stroke-width:4; stroke-opacity:1; fill:none" points="399.329,655.964 418.226,655.964 "/>
<polyline clip-path="url(#clip140)" style="stroke:#000000; stroke-linecap:round; stroke-linejoin:round; stroke-width:4; stroke-opacity:1; fill:none" points="399.329,413.203 418.226,413.203 "/>
<polyline clip-path="url(#clip140)" style="stroke:#000000; stroke-linecap:round; stroke-linejoin:round; stroke-width:4; stroke-opacity:1; fill:none" points="399.329,170.441 418.226,170.441 "/>
<path clip-path="url(#clip140)" d="M351.384 1370.05 Q347.773 1370.05 345.944 1373.61 Q344.139 1377.15 344.139 1384.28 Q344.139 1391.39 345.944 1394.95 Q347.773 1398.5 351.384 1398.5 Q355.018 1398.5 356.824 1394.95 Q358.653 1391.39 358.653 1384.28 Q358.653 1377.15 356.824 1373.61 Q355.018 1370.05 351.384 1370.05 M351.384 1366.34 Q357.194 1366.34 360.25 1370.95 Q363.329 1375.53 363.329 1384.28 Q363.329 1393.01 360.25 1397.62 Q357.194 1402.2 351.384 1402.2 Q345.574 1402.2 342.495 1397.62 Q339.44 1393.01 339.44 1384.28 Q339.44 1375.53 342.495 1370.95 Q345.574 1366.34 351.384 1366.34 Z" fill="#000000" fill-rule="nonzero" fill-opacity="1" /><path clip-path="url(#clip140)" d="M115.718 1130.65 L134.075 1130.65 L134.075 1134.59 L120.001 1134.59 L120.001 1143.06 Q121.019 1142.71 122.038 1142.55 Q123.056 1142.37 124.075 1142.37 Q129.862 1142.37 133.242 1145.54 Q136.621 1148.71 136.621 1154.13 Q136.621 1159.71 133.149 1162.81 Q129.677 1165.89 123.357 1165.89 Q121.181 1165.89 118.913 1165.52 Q116.668 1165.15 114.26 1164.4 L114.26 1159.71 Q116.343 1160.84 118.566 1161.4 Q120.788 1161.95 123.265 1161.95 Q127.269 1161.95 129.607 1159.84 Q131.945 1157.74 131.945 1154.13 Q131.945 1150.52 129.607 1148.41 Q127.269 1146.3 123.265 1146.3 Q121.39 1146.3 119.515 1146.72 Q117.663 1147.14 115.718 1148.02 L115.718 1130.65 Z" fill="#000000" fill-rule="nonzero" fill-opacity="1" /><path clip-path="url(#clip140)" d="M145.834 1159.34 L150.718 1159.34 L150.718 1165.21 L145.834 1165.21 L145.834 1159.34 Z" fill="#000000" fill-rule="nonzero" fill-opacity="1" /><path clip-path="url(#clip140)" d="M170.903 1133.73 Q167.292 1133.73 165.464 1137.3 Q163.658 1140.84 163.658 1147.97 Q163.658 1155.08 165.464 1158.64 Q167.292 1162.18 170.903 1162.18 Q174.538 1162.18 176.343 1158.64 Q178.172 1155.08 178.172 1147.97 Q178.172 1140.84 176.343 1137.3 Q174.538 1133.73 170.903 1133.73 M170.903 1130.03 Q176.714 1130.03 179.769 1134.64 Q182.848 1139.22 182.848 1147.97 Q182.848 1156.7 179.769 1161.3 Q176.714 1165.89 170.903 1165.89 Q165.093 1165.89 162.015 1161.3 Q158.959 1156.7 158.959 1147.97 Q158.959 1139.22 162.015 1134.64 Q165.093 1130.03 170.903 1130.03 Z" fill="#000000" fill-rule="nonzero" fill-opacity="1" /><path clip-path="url(#clip140)" d="M201.065 1133.73 Q197.454 1133.73 195.625 1137.3 Q193.82 1140.84 193.82 1147.97 Q193.82 1155.08 195.625 1158.64 Q197.454 1162.18 201.065 1162.18 Q204.699 1162.18 206.505 1158.64 Q208.334 1155.08 208.334 1147.97 Q208.334 1140.84 206.505 1137.3 Q204.699 1133.73 201.065 1133.73 M201.065 1130.03 Q206.875 1130.03 209.931 1134.64 Q213.01 1139.22 213.01 1147.97 Q213.01 1156.7 209.931 1161.3 Q206.875 1165.89 201.065 1165.89 Q195.255 1165.89 192.176 1161.3 Q189.121 1156.7 189.121 1147.97 Q189.121 1139.22 192.176 1134.64 Q195.255 1130.03 201.065 1130.03 Z" fill="#000000" fill-rule="nonzero" fill-opacity="1" /><path clip-path="url(#clip140)" d="M249.398 1139.75 L238.82 1150.38 L249.398 1160.96 L246.644 1163.76 L236.019 1153.13 L225.394 1163.76 L222.662 1160.96 L233.218 1150.38 L222.662 1139.75 L225.394 1136.95 L236.019 1147.58 L246.644 1136.95 L249.398 1139.75 Z" fill="#000000" fill-rule="nonzero" fill-opacity="1" /><path clip-path="url(#clip140)" d="M261.759 1161.28 L269.398 1161.28 L269.398 1134.91 L261.088 1136.58 L261.088 1132.32 L269.352 1130.65 L274.028 1130.65 L274.028 1161.28 L281.667 1161.28 L281.667 1165.21 L261.759 1165.21 L261.759 1161.28 Z" fill="#000000" fill-rule="nonzero" fill-opacity="1" /><path clip-path="url(#clip140)" d="M301.111 1133.73 Q297.5 1133.73 295.671 1137.3 Q293.866 1140.84 293.866 1147.97 Q293.866 1155.08 295.671 1158.64 Q297.5 1162.18 301.111 1162.18 Q304.745 1162.18 306.551 1158.64 Q308.379 1155.08 308.379 1147.97 Q308.379 1140.84 306.551 1137.3 Q304.745 1133.73 301.111 1133.73 M301.111 1130.03 Q306.921 1130.03 309.977 1134.64 Q313.055 1139.22 313.055 1147.97 Q313.055 1156.7 309.977 1161.3 Q306.921 1165.89 301.111 1165.89 Q295.301 1165.89 292.222 1161.3 Q289.167 1156.7 289.167 1147.97 Q289.167 1139.22 292.222 1134.64 Q295.301 1130.03 301.111 1130.03 Z" fill="#000000" fill-rule="nonzero" fill-opacity="1" /><path clip-path="url(#clip140)" d="M313.055 1124.13 L337.167 1124.13 L337.167 1127.33 L313.055 1127.33 L313.055 1124.13 Z" fill="#000000" fill-rule="nonzero" fill-opacity="1" /><path clip-path="url(#clip140)" d="M353.962 1122.25 Q351.404 1122.25 349.9 1124 Q348.414 1125.75 348.414 1128.8 Q348.414 1131.82 349.9 1133.59 Q351.404 1135.34 353.962 1135.34 Q356.52 1135.34 358.006 1133.59 Q359.511 1131.82 359.511 1128.8 Q359.511 1125.75 358.006 1124 Q356.52 1122.25 353.962 1122.25 M361.504 1110.34 L361.504 1113.81 Q360.075 1113.13 358.608 1112.77 Q357.16 1112.41 355.73 1112.41 Q351.969 1112.41 349.975 1114.95 Q348 1117.49 347.718 1122.63 Q348.828 1120.99 350.502 1120.12 Q352.176 1119.24 354.188 1119.24 Q358.42 1119.24 360.865 1121.82 Q363.329 1124.38 363.329 1128.8 Q363.329 1133.12 360.771 1135.74 Q358.213 1138.35 353.962 1138.35 Q349.091 1138.35 346.514 1134.63 Q343.938 1130.88 343.938 1123.79 Q343.938 1117.13 347.097 1113.18 Q350.257 1109.22 355.58 1109.22 Q357.009 1109.22 358.457 1109.5 Q359.924 1109.78 361.504 1110.34 Z" fill="#000000" fill-rule="nonzero" fill-opacity="1" /><path clip-path="url(#clip140)" d="M117.423 918.518 L125.062 918.518 L125.062 892.152 L116.751 893.819 L116.751 889.56 L125.015 887.893 L129.691 887.893 L129.691 918.518 L137.33 918.518 L137.33 922.453 L117.423 922.453 L117.423 918.518 Z" fill="#000000" fill-rule="nonzero" fill-opacity="1" /><path clip-path="url(#clip140)" d="M146.774 916.574 L151.659 916.574 L151.659 922.453 L146.774 922.453 L146.774 916.574 Z" fill="#000000" fill-rule="nonzero" fill-opacity="1" /><path clip-path="url(#clip140)" d="M171.844 890.972 Q168.233 890.972 166.404 894.537 Q164.598 898.078 164.598 905.208 Q164.598 912.314 166.404 915.879 Q168.233 919.421 171.844 919.421 Q175.478 919.421 177.284 915.879 Q179.112 912.314 179.112 905.208 Q179.112 898.078 177.284 894.537 Q175.478 890.972 171.844 890.972 M171.844 887.268 Q177.654 887.268 180.709 891.875 Q183.788 896.458 183.788 905.208 Q183.788 913.935 180.709 918.541 Q177.654 923.124 171.844 923.124 Q166.034 923.124 162.955 918.541 Q159.899 913.935 159.899 905.208 Q159.899 896.458 162.955 891.875 Q166.034 887.268 171.844 887.268 Z" fill="#000000" fill-rule="nonzero" fill-opacity="1" /><path clip-path="url(#clip140)" d="M202.006 890.972 Q198.395 890.972 196.566 894.537 Q194.76 898.078 194.76 905.208 Q194.76 912.314 196.566 915.879 Q198.395 919.421 202.006 919.421 Q205.64 919.421 207.445 915.879 Q209.274 912.314 209.274 905.208 Q209.274 898.078 207.445 894.537 Q205.64 890.972 202.006 890.972 M202.006 887.268 Q207.816 887.268 210.871 891.875 Q213.95 896.458 213.95 905.208 Q213.95 913.935 210.871 918.541 Q207.816 923.124 202.006 923.124 Q196.195 923.124 193.117 918.541 Q190.061 913.935 190.061 905.208 Q190.061 896.458 193.117 891.875 Q196.195 887.268 202.006 887.268 Z" fill="#000000" fill-rule="nonzero" fill-opacity="1" /><path clip-path="url(#clip140)" d="M250.339 896.99 L239.76 907.615 L250.339 918.194 L247.584 920.995 L236.959 910.37 L226.334 920.995 L223.603 918.194 L234.158 907.615 L223.603 896.99 L226.334 894.189 L236.959 904.814 L247.584 894.189 L250.339 896.99 Z" fill="#000000" fill-rule="nonzero" fill-opacity="1" /><path clip-path="url(#clip140)" d="M262.7 918.518 L270.339 918.518 L270.339 892.152 L262.028 893.819 L262.028 889.56 L270.292 887.893 L274.968 887.893 L274.968 918.518 L282.607 918.518 L282.607 922.453 L262.7 922.453 L262.7 918.518 Z" fill="#000000" fill-rule="nonzero" fill-opacity="1" /><path clip-path="url(#clip140)" d="M302.051 890.972 Q298.44 890.972 296.612 894.537 Q294.806 898.078 294.806 905.208 Q294.806 912.314 296.612 915.879 Q298.44 919.421 302.051 919.421 Q305.686 919.421 307.491 915.879 Q309.32 912.314 309.32 905.208 Q309.32 898.078 307.491 894.537 Q305.686 890.972 302.051 890.972 M302.051 887.268 Q307.862 887.268 310.917 891.875 Q313.996 896.458 313.996 905.208 Q313.996 913.935 310.917 918.541 Q307.862 923.124 302.051 923.124 Q296.241 923.124 293.163 918.541 Q290.107 913.935 290.107 905.208 Q290.107 896.458 293.163 891.875 Q296.241 887.268 302.051 887.268 Z" fill="#000000" fill-rule="nonzero" fill-opacity="1" /><path clip-path="url(#clip140)" d="M313.996 881.37 L338.107 881.37 L338.107 884.567 L313.996 884.567 L313.996 881.37 Z" fill="#000000" fill-rule="nonzero" fill-opacity="1" /><path clip-path="url(#clip140)" d="M346.345 866.963 L361.26 866.963 L361.26 870.16 L349.825 870.16 L349.825 877.044 Q350.652 876.762 351.48 876.63 Q352.307 876.48 353.135 876.48 Q357.837 876.48 360.583 879.056 Q363.329 881.633 363.329 886.034 Q363.329 890.567 360.507 893.087 Q357.686 895.588 352.552 895.588 Q350.784 895.588 348.941 895.287 Q347.116 894.986 345.16 894.384 L345.16 890.567 Q346.853 891.488 348.658 891.939 Q350.464 892.391 352.476 892.391 Q355.73 892.391 357.63 890.679 Q359.529 888.968 359.529 886.034 Q359.529 883.1 357.63 881.388 Q355.73 879.677 352.476 879.677 Q350.953 879.677 349.43 880.015 Q347.925 880.354 346.345 881.069 L346.345 866.963 Z" fill="#000000" fill-rule="nonzero" fill-opacity="1" /><path clip-path="url(#clip140)" d="M117.423 675.757 L125.062 675.757 L125.062 649.391 L116.751 651.058 L116.751 646.798 L125.015 645.132 L129.691 645.132 L129.691 675.757 L137.33 675.757 L137.33 679.692 L117.423 679.692 L117.423 675.757 Z" fill="#000000" fill-rule="nonzero" fill-opacity="1" /><path clip-path="url(#clip140)" d="M146.774 673.812 L151.659 673.812 L151.659 679.692 L146.774 679.692 L146.774 673.812 Z" fill="#000000" fill-rule="nonzero" fill-opacity="1" /><path clip-path="url(#clip140)" d="M161.89 645.132 L180.246 645.132 L180.246 649.067 L166.172 649.067 L166.172 657.539 Q167.191 657.192 168.21 657.03 Q169.228 656.845 170.247 656.845 Q176.034 656.845 179.413 660.016 Q182.793 663.187 182.793 668.604 Q182.793 674.182 179.321 677.284 Q175.848 680.363 169.529 680.363 Q167.353 680.363 165.085 679.993 Q162.839 679.622 160.432 678.881 L160.432 674.182 Q162.515 675.317 164.737 675.872 Q166.96 676.428 169.436 676.428 Q173.441 676.428 175.779 674.321 Q178.117 672.215 178.117 668.604 Q178.117 664.993 175.779 662.886 Q173.441 660.78 169.436 660.78 Q167.561 660.78 165.686 661.196 Q163.835 661.613 161.89 662.493 L161.89 645.132 Z" fill="#000000" fill-rule="nonzero" fill-opacity="1" /><path clip-path="url(#clip140)" d="M202.006 648.21 Q198.395 648.21 196.566 651.775 Q194.76 655.317 194.76 662.446 Q194.76 669.553 196.566 673.118 Q198.395 676.659 202.006 676.659 Q205.64 676.659 207.445 673.118 Q209.274 669.553 209.274 662.446 Q209.274 655.317 207.445 651.775 Q205.64 648.21 202.006 648.21 M202.006 644.507 Q207.816 644.507 210.871 649.113 Q213.95 653.696 213.95 662.446 Q213.95 671.173 210.871 675.78 Q207.816 680.363 202.006 680.363 Q196.195 680.363 193.117 675.78 Q190.061 671.173 190.061 662.446 Q190.061 653.696 193.117 649.113 Q196.195 644.507 202.006 644.507 Z" fill="#000000" fill-rule="nonzero" fill-opacity="1" /><path clip-path="url(#clip140)" d="M250.339 654.229 L239.76 664.854 L250.339 675.432 L247.584 678.233 L236.959 667.608 L226.334 678.233 L223.603 675.432 L234.158 664.854 L223.603 654.229 L226.334 651.428 L236.959 662.053 L247.584 651.428 L250.339 654.229 Z" fill="#000000" fill-rule="nonzero" fill-opacity="1" /><path clip-path="url(#clip140)" d="M262.7 675.757 L270.339 675.757 L270.339 649.391 L262.028 651.058 L262.028 646.798 L270.292 645.132 L274.968 645.132 L274.968 675.757 L282.607 675.757 L282.607 679.692 L262.7 679.692 L262.7 675.757 Z" fill="#000000" fill-rule="nonzero" fill-opacity="1" /><path clip-path="url(#clip140)" d="M302.051 648.21 Q298.44 648.21 296.612 651.775 Q294.806 655.317 294.806 662.446 Q294.806 669.553 296.612 673.118 Q298.44 676.659 302.051 676.659 Q305.686 676.659 307.491 673.118 Q309.32 669.553 309.32 662.446 Q309.32 655.317 307.491 651.775 Q305.686 648.21 302.051 648.21 M302.051 644.507 Q307.862 644.507 310.917 649.113 Q313.996 653.696 313.996 662.446 Q313.996 671.173 310.917 675.78 Q307.862 680.363 302.051 680.363 Q296.241 680.363 293.163 675.78 Q290.107 671.173 290.107 662.446 Q290.107 653.696 293.163 649.113 Q296.241 644.507 302.051 644.507 Z" fill="#000000" fill-rule="nonzero" fill-opacity="1" /><path clip-path="url(#clip140)" d="M313.996 638.608 L338.107 638.608 L338.107 641.805 L313.996 641.805 L313.996 638.608 Z" fill="#000000" fill-rule="nonzero" fill-opacity="1" /><path clip-path="url(#clip140)" d="M346.345 624.201 L361.26 624.201 L361.26 627.399 L349.825 627.399 L349.825 634.282 Q350.652 634 351.48 633.868 Q352.307 633.718 353.135 633.718 Q357.837 633.718 360.583 636.295 Q363.329 638.871 363.329 643.272 Q363.329 647.805 360.507 650.325 Q357.686 652.827 352.552 652.827 Q350.784 652.827 348.941 652.526 Q347.116 652.225 345.16 651.623 L345.16 647.805 Q346.853 648.727 348.658 649.178 Q350.464 649.629 352.476 649.629 Q355.73 649.629 357.63 647.918 Q359.529 646.206 359.529 643.272 Q359.529 640.338 357.63 638.627 Q355.73 636.915 352.476 636.915 Q350.953 636.915 349.43 637.254 Q347.925 637.592 346.345 638.307 L346.345 624.201 Z" fill="#000000" fill-rule="nonzero" fill-opacity="1" /><path clip-path="url(#clip140)" d="M120.64 432.995 L136.96 432.995 L136.96 436.93 L115.015 436.93 L115.015 432.995 Q117.677 430.24 122.261 425.611 Q126.867 420.958 128.048 419.615 Q130.293 417.092 131.173 415.356 Q132.075 413.597 132.075 411.907 Q132.075 409.153 130.131 407.416 Q128.21 405.68 125.108 405.68 Q122.909 405.68 120.455 406.444 Q118.025 407.208 115.247 408.759 L115.247 404.037 Q118.071 402.903 120.525 402.324 Q122.978 401.745 125.015 401.745 Q130.386 401.745 133.58 404.43 Q136.775 407.116 136.775 411.606 Q136.775 413.736 135.964 415.657 Q135.177 417.555 133.071 420.148 Q132.492 420.819 129.39 424.037 Q126.288 427.231 120.64 432.995 Z" fill="#000000" fill-rule="nonzero" fill-opacity="1" /><path clip-path="url(#clip140)" d="M146.774 431.051 L151.659 431.051 L151.659 436.93 L146.774 436.93 L146.774 431.051 Z" fill="#000000" fill-rule="nonzero" fill-opacity="1" /><path clip-path="url(#clip140)" d="M171.844 405.449 Q168.233 405.449 166.404 409.014 Q164.598 412.555 164.598 419.685 Q164.598 426.791 166.404 430.356 Q168.233 433.898 171.844 433.898 Q175.478 433.898 177.284 430.356 Q179.112 426.791 179.112 419.685 Q179.112 412.555 177.284 409.014 Q175.478 405.449 171.844 405.449 M171.844 401.745 Q177.654 401.745 180.709 406.352 Q183.788 410.935 183.788 419.685 Q183.788 428.412 180.709 433.018 Q177.654 437.601 171.844 437.601 Q166.034 437.601 162.955 433.018 Q159.899 428.412 159.899 419.685 Q159.899 410.935 162.955 406.352 Q166.034 401.745 171.844 401.745 Z" fill="#000000" fill-rule="nonzero" fill-opacity="1" /><path clip-path="url(#clip140)" d="M202.006 405.449 Q198.395 405.449 196.566 409.014 Q194.76 412.555 194.76 419.685 Q194.76 426.791 196.566 430.356 Q198.395 433.898 202.006 433.898 Q205.64 433.898 207.445 430.356 Q209.274 426.791 209.274 419.685 Q209.274 412.555 207.445 409.014 Q205.64 405.449 202.006 405.449 M202.006 401.745 Q207.816 401.745 210.871 406.352 Q213.95 410.935 213.95 419.685 Q213.95 428.412 210.871 433.018 Q207.816 437.601 202.006 437.601 Q196.195 437.601 193.117 433.018 Q190.061 428.412 190.061 419.685 Q190.061 410.935 193.117 406.352 Q196.195 401.745 202.006 401.745 Z" fill="#000000" fill-rule="nonzero" fill-opacity="1" /><path clip-path="url(#clip140)" d="M250.339 411.467 L239.76 422.092 L250.339 432.671 L247.584 435.472 L236.959 424.847 L226.334 435.472 L223.603 432.671 L234.158 422.092 L223.603 411.467 L226.334 408.666 L236.959 419.291 L247.584 408.666 L250.339 411.467 Z" fill="#000000" fill-rule="nonzero" fill-opacity="1" /><path clip-path="url(#clip140)" d="M262.7 432.995 L270.339 432.995 L270.339 406.629 L262.028 408.296 L262.028 404.037 L270.292 402.37 L274.968 402.37 L274.968 432.995 L282.607 432.995 L282.607 436.93 L262.7 436.93 L262.7 432.995 Z" fill="#000000" fill-rule="nonzero" fill-opacity="1" /><path clip-path="url(#clip140)" d="M302.051 405.449 Q298.44 405.449 296.612 409.014 Q294.806 412.555 294.806 419.685 Q294.806 426.791 296.612 430.356 Q298.44 433.898 302.051 433.898 Q305.686 433.898 307.491 430.356 Q309.32 426.791 309.32 419.685 Q309.32 412.555 307.491 409.014 Q305.686 405.449 302.051 405.449 M302.051 401.745 Q307.862 401.745 310.917 406.352 Q313.996 410.935 313.996 419.685 Q313.996 428.412 310.917 433.018 Q307.862 437.601 302.051 437.601 Q296.241 437.601 293.163 433.018 Q290.107 428.412 290.107 419.685 Q290.107 410.935 293.163 406.352 Q296.241 401.745 302.051 401.745 Z" fill="#000000" fill-rule="nonzero" fill-opacity="1" /><path clip-path="url(#clip140)" d="M313.996 395.847 L338.107 395.847 L338.107 399.044 L313.996 399.044 L313.996 395.847 Z" fill="#000000" fill-rule="nonzero" fill-opacity="1" /><path clip-path="url(#clip140)" d="M346.345 381.44 L361.26 381.44 L361.26 384.637 L349.825 384.637 L349.825 391.521 Q350.652 391.239 351.48 391.107 Q352.307 390.957 353.135 390.957 Q357.837 390.957 360.583 393.533 Q363.329 396.11 363.329 400.511 Q363.329 405.044 360.507 407.564 Q357.686 410.065 352.552 410.065 Q350.784 410.065 348.941 409.764 Q347.116 409.463 345.16 408.861 L345.16 405.044 Q346.853 405.965 348.658 406.416 Q350.464 406.868 352.476 406.868 Q355.73 406.868 357.63 405.156 Q359.529 403.445 359.529 400.511 Q359.529 397.577 357.63 395.865 Q355.73 394.154 352.476 394.154 Q350.953 394.154 349.43 394.492 Q347.925 394.831 346.345 395.546 L346.345 381.44 Z" fill="#000000" fill-rule="nonzero" fill-opacity="1" /><path clip-path="url(#clip140)" d="M120.64 190.234 L136.96 190.234 L136.96 194.169 L115.015 194.169 L115.015 190.234 Q117.677 187.479 122.261 182.849 Q126.867 178.197 128.048 176.854 Q130.293 174.331 131.173 172.595 Q132.075 170.835 132.075 169.146 Q132.075 166.391 130.131 164.655 Q128.21 162.919 125.108 162.919 Q122.909 162.919 120.455 163.683 Q118.025 164.447 115.247 165.998 L115.247 161.275 Q118.071 160.141 120.525 159.562 Q122.978 158.984 125.015 158.984 Q130.386 158.984 133.58 161.669 Q136.775 164.354 136.775 168.845 Q136.775 170.974 135.964 172.896 Q135.177 174.794 133.071 177.386 Q132.492 178.058 129.39 181.275 Q126.288 184.47 120.64 190.234 Z" fill="#000000" fill-rule="nonzero" fill-opacity="1" /><path clip-path="url(#clip140)" d="M146.774 188.289 L151.659 188.289 L151.659 194.169 L146.774 194.169 L146.774 188.289 Z" fill="#000000" fill-rule="nonzero" fill-opacity="1" /><path clip-path="url(#clip140)" d="M161.89 159.609 L180.246 159.609 L180.246 163.544 L166.172 163.544 L166.172 172.016 Q167.191 171.669 168.21 171.507 Q169.228 171.322 170.247 171.322 Q176.034 171.322 179.413 174.493 Q182.793 177.664 182.793 183.081 Q182.793 188.659 179.321 191.761 Q175.848 194.84 169.529 194.84 Q167.353 194.84 165.085 194.47 Q162.839 194.099 160.432 193.358 L160.432 188.659 Q162.515 189.794 164.737 190.349 Q166.96 190.905 169.436 190.905 Q173.441 190.905 175.779 188.798 Q178.117 186.692 178.117 183.081 Q178.117 179.47 175.779 177.363 Q173.441 175.257 169.436 175.257 Q167.561 175.257 165.686 175.673 Q163.835 176.09 161.89 176.97 L161.89 159.609 Z" fill="#000000" fill-rule="nonzero" fill-opacity="1" /><path clip-path="url(#clip140)" d="M202.006 162.687 Q198.395 162.687 196.566 166.252 Q194.76 169.794 194.76 176.923 Q194.76 184.03 196.566 187.595 Q198.395 191.136 202.006 191.136 Q205.64 191.136 207.445 187.595 Q209.274 184.03 209.274 176.923 Q209.274 169.794 207.445 166.252 Q205.64 162.687 202.006 162.687 M202.006 158.984 Q207.816 158.984 210.871 163.59 Q213.95 168.173 213.95 176.923 Q213.95 185.65 210.871 190.257 Q207.816 194.84 202.006 194.84 Q196.195 194.84 193.117 190.257 Q190.061 185.65 190.061 176.923 Q190.061 168.173 193.117 163.59 Q196.195 158.984 202.006 158.984 Z" fill="#000000" fill-rule="nonzero" fill-opacity="1" /><path clip-path="url(#clip140)" d="M250.339 168.706 L239.76 179.331 L250.339 189.909 L247.584 192.71 L236.959 182.085 L226.334 192.71 L223.603 189.909 L234.158 179.331 L223.603 168.706 L226.334 165.905 L236.959 176.53 L247.584 165.905 L250.339 168.706 Z" fill="#000000" fill-rule="nonzero" fill-opacity="1" /><path clip-path="url(#clip140)" d="M262.7 190.234 L270.339 190.234 L270.339 163.868 L262.028 165.535 L262.028 161.275 L270.292 159.609 L274.968 159.609 L274.968 190.234 L282.607 190.234 L282.607 194.169 L262.7 194.169 L262.7 190.234 Z" fill="#000000" fill-rule="nonzero" fill-opacity="1" /><path clip-path="url(#clip140)" d="M302.051 162.687 Q298.44 162.687 296.612 166.252 Q294.806 169.794 294.806 176.923 Q294.806 184.03 296.612 187.595 Q298.44 191.136 302.051 191.136 Q305.686 191.136 307.491 187.595 Q309.32 184.03 309.32 176.923 Q309.32 169.794 307.491 166.252 Q305.686 162.687 302.051 162.687 M302.051 158.984 Q307.862 158.984 310.917 163.59 Q313.996 168.173 313.996 176.923 Q313.996 185.65 310.917 190.257 Q307.862 194.84 302.051 194.84 Q296.241 194.84 293.163 190.257 Q290.107 185.65 290.107 176.923 Q290.107 168.173 293.163 163.59 Q296.241 158.984 302.051 158.984 Z" fill="#000000" fill-rule="nonzero" fill-opacity="1" /><path clip-path="url(#clip140)" d="M313.996 153.085 L338.107 153.085 L338.107 156.282 L313.996 156.282 L313.996 153.085 Z" fill="#000000" fill-rule="nonzero" fill-opacity="1" /><path clip-path="url(#clip140)" d="M346.345 138.678 L361.26 138.678 L361.26 141.876 L349.825 141.876 L349.825 148.759 Q350.652 148.477 351.48 148.345 Q352.307 148.195 353.135 148.195 Q357.837 148.195 360.583 150.772 Q363.329 153.348 363.329 157.749 Q363.329 162.282 360.507 164.802 Q357.686 167.304 352.552 167.304 Q350.784 167.304 348.941 167.003 Q347.116 166.702 345.16 166.1 L345.16 162.282 Q346.853 163.204 348.658 163.655 Q350.464 164.106 352.476 164.106 Q355.73 164.106 357.63 162.395 Q359.529 160.683 359.529 157.749 Q359.529 154.815 357.63 153.104 Q355.73 151.392 352.476 151.392 Q350.953 151.392 349.43 151.731 Q347.925 152.069 346.345 152.784 L346.345 138.678 Z" fill="#000000" fill-rule="nonzero" fill-opacity="1" /><path clip-path="url(#clip140)" d="M29.4065 1265.73 L34.9447 1265.73 Q33.6716 1268.21 33.035 1270.89 Q32.3984 1273.56 32.3984 1276.42 Q32.3984 1280.78 33.7352 1282.98 Q35.072 1285.15 37.7456 1285.15 Q39.7826 1285.15 40.9603 1283.59 Q42.1061 1282.03 43.1565 1277.32 L43.6021 1275.31 Q44.9389 1269.07 47.3897 1266.46 Q49.8086 1263.82 54.1691 1263.82 Q59.1344 1263.82 62.0308 1267.77 Q64.9272 1271.68 64.9272 1278.56 Q64.9272 1281.42 64.3543 1284.54 Q63.8132 1287.63 62.6992 1291.07 L56.6518 1291.07 Q58.3387 1287.82 59.198 1284.67 Q60.0256 1281.52 60.0256 1278.43 Q60.0256 1274.29 58.6251 1272.06 Q57.1929 1269.84 54.6147 1269.84 Q52.2276 1269.84 50.9545 1271.46 Q49.6813 1273.05 48.5037 1278.49 L48.0262 1280.53 Q46.8804 1285.97 44.5251 1288.39 Q42.138 1290.81 38.0002 1290.81 Q32.9713 1290.81 30.2341 1287.25 Q27.4968 1283.68 27.4968 1277.12 Q27.4968 1273.88 27.9743 1271.01 Q28.4517 1268.15 29.4065 1265.73 Z" fill="#000000" fill-rule="nonzero" fill-opacity="1" /><path clip-path="url(#clip140)" d="M42.4881 1224.86 L64.0042 1224.86 L64.0042 1230.72 L42.679 1230.72 Q37.6183 1230.72 35.1038 1232.69 Q32.5894 1234.67 32.5894 1238.61 Q32.5894 1243.35 35.6131 1246.09 Q38.6368 1248.83 43.8567 1248.83 L64.0042 1248.83 L64.0042 1254.72 L28.3562 1254.72 L28.3562 1248.83 L33.8944 1248.83 Q30.6797 1246.73 29.0883 1243.9 Q27.4968 1241.03 27.4968 1237.31 Q27.4968 1231.16 31.3163 1228.01 Q35.1038 1224.86 42.4881 1224.86 Z" fill="#000000" fill-rule="nonzero" fill-opacity="1" /><path clip-path="url(#clip140)" d="M32.4621 1199.37 Q32.4621 1204.08 36.1542 1206.82 Q39.8145 1209.55 46.212 1209.55 Q52.6095 1209.55 56.3017 1206.85 Q59.9619 1204.11 59.9619 1199.37 Q59.9619 1194.69 56.2698 1191.95 Q52.5777 1189.21 46.212 1189.21 Q39.8781 1189.21 36.186 1191.95 Q32.4621 1194.69 32.4621 1199.37 M27.4968 1199.37 Q27.4968 1191.73 32.4621 1187.37 Q37.4273 1183.01 46.212 1183.01 Q54.9649 1183.01 59.9619 1187.37 Q64.9272 1191.73 64.9272 1199.37 Q64.9272 1207.04 59.9619 1211.4 Q54.9649 1215.73 46.212 1215.73 Q37.4273 1215.73 32.4621 1211.4 Q27.4968 1207.04 27.4968 1199.37 Z" fill="#000000" fill-rule="nonzero" fill-opacity="1" /><path clip-path="url(#clip140)" d="M28.3562 1176.71 L28.3562 1170.85 L56.1743 1163.53 L28.3562 1156.24 L28.3562 1149.33 L56.1743 1142.01 L28.3562 1134.72 L28.3562 1128.87 L64.0042 1138.19 L64.0042 1145.1 L34.7856 1152.77 L64.0042 1160.47 L64.0042 1167.38 L28.3562 1176.71 Z" fill="#000000" fill-rule="nonzero" fill-opacity="1" /><path clip-path="url(#clip140)" d="M43.5384 1122.95 L43.5384 1105.79 L48.7583 1105.79 L48.7583 1122.95 L43.5384 1122.95 Z" fill="#000000" fill-rule="nonzero" fill-opacity="1" /><path clip-path="url(#clip140)" d="M33.8307 1075.81 Q33.2578 1076.8 33.0032 1077.97 Q32.7167 1079.12 32.7167 1080.52 Q32.7167 1085.48 35.9632 1088.16 Q39.1779 1090.8 45.2253 1090.8 L64.0042 1090.8 L64.0042 1096.69 L28.3562 1096.69 L28.3562 1090.8 L33.8944 1090.8 Q30.6479 1088.95 29.0883 1085.99 Q27.4968 1083.03 27.4968 1078.8 Q27.4968 1078.2 27.5923 1077.46 Q27.656 1076.73 27.8151 1075.84 L33.8307 1075.81 Z" fill="#000000" fill-rule="nonzero" fill-opacity="1" /><path clip-path="url(#clip140)" d="M46.0847 1053.47 Q46.0847 1060.56 47.7079 1063.3 Q49.3312 1066.04 53.2461 1066.04 Q56.3653 1066.04 58.2114 1064 Q60.0256 1061.93 60.0256 1058.4 Q60.0256 1053.53 56.5881 1050.6 Q53.1188 1047.64 47.3897 1047.64 L46.0847 1047.64 L46.0847 1053.47 M43.6657 1041.78 L64.0042 1041.78 L64.0042 1047.64 L58.5933 1047.64 Q61.8398 1049.65 63.3994 1052.64 Q64.9272 1055.63 64.9272 1059.96 Q64.9272 1065.43 61.8716 1068.68 Q58.7843 1071.89 53.6281 1071.89 Q47.6125 1071.89 44.5569 1067.88 Q41.5014 1063.84 41.5014 1055.85 L41.5014 1047.64 L40.9285 1047.64 Q36.8862 1047.64 34.6901 1050.31 Q32.4621 1052.96 32.4621 1057.76 Q32.4621 1060.82 33.1941 1063.71 Q33.9262 1066.61 35.3903 1069.28 L29.9795 1069.28 Q28.7381 1066.07 28.1334 1063.05 Q27.4968 1060.02 27.4968 1057.16 Q27.4968 1049.42 31.5072 1045.6 Q35.5176 1041.78 43.6657 1041.78 Z" fill="#000000" fill-rule="nonzero" fill-opacity="1" /><path clip-path="url(#clip140)" d="M28.3562 1029.72 L28.3562 1023.86 L64.0042 1023.86 L64.0042 1029.72 L28.3562 1029.72 M14.479 1029.72 L14.479 1023.86 L21.895 1023.86 L21.895 1029.72 L14.479 1029.72 Z" fill="#000000" fill-rule="nonzero" fill-opacity="1" /><path clip-path="url(#clip140)" d="M42.4881 981.979 L64.0042 981.979 L64.0042 987.835 L42.679 987.835 Q37.6183 987.835 35.1038 989.808 Q32.5894 991.782 32.5894 995.729 Q32.5894 1000.47 35.6131 1003.21 Q38.6368 1005.95 43.8567 1005.95 L64.0042 1005.95 L64.0042 1011.83 L28.3562 1011.83 L28.3562 1005.95 L33.8944 1005.95 Q30.6797 1003.84 29.0883 1001.01 Q27.4968 998.147 27.4968 994.424 Q27.4968 988.281 31.3163 985.13 Q35.1038 981.979 42.4881 981.979 Z" fill="#000000" fill-rule="nonzero" fill-opacity="1" /><path clip-path="url(#clip140)" d="M46.0847 933.376 Q46.0847 940.474 47.7079 943.211 Q49.3312 945.949 53.2461 945.949 Q56.3653 945.949 58.2114 943.912 Q60.0256 941.843 60.0256 938.31 Q60.0256 933.44 56.5881 930.512 Q53.1188 927.552 47.3897 927.552 L46.0847 927.552 L46.0847 933.376 M43.6657 921.695 L64.0042 921.695 L64.0042 927.552 L58.5933 927.552 Q61.8398 929.557 63.3994 932.549 Q64.9272 935.541 64.9272 939.869 Q64.9272 945.344 61.8716 948.59 Q58.7843 951.805 53.6281 951.805 Q47.6125 951.805 44.5569 947.795 Q41.5014 943.753 41.5014 935.764 L41.5014 927.552 L40.9285 927.552 Q36.8862 927.552 34.6901 930.225 Q32.4621 932.867 32.4621 937.673 Q32.4621 940.729 33.1941 943.625 Q33.9262 946.522 35.3903 949.195 L29.9795 949.195 Q28.7381 945.981 28.1334 942.957 Q27.4968 939.933 27.4968 937.069 Q27.4968 929.334 31.5072 925.515 Q35.5176 921.695 43.6657 921.695 Z" fill="#000000" fill-rule="nonzero" fill-opacity="1" /><path clip-path="url(#clip140)" d="M29.7248 883.979 L35.1993 883.979 Q33.8307 886.461 33.1623 888.976 Q32.4621 891.458 32.4621 894.005 Q32.4621 899.702 36.0905 902.853 Q39.6872 906.004 46.212 906.004 Q52.7369 906.004 56.3653 902.853 Q59.9619 899.702 59.9619 894.005 Q59.9619 891.458 59.2935 888.976 Q58.5933 886.461 57.2247 883.979 L62.6355 883.979 Q63.7814 886.429 64.3543 889.071 Q64.9272 891.681 64.9272 894.641 Q64.9272 902.694 59.8664 907.436 Q54.8057 912.179 46.212 912.179 Q37.491 912.179 32.4939 907.404 Q27.4968 902.598 27.4968 894.259 Q27.4968 891.554 28.0697 888.976 Q28.6108 886.398 29.7248 883.979 Z" fill="#000000" fill-rule="nonzero" fill-opacity="1" /><path clip-path="url(#clip140)" d="M29.7248 848.14 L35.1993 848.14 Q33.8307 850.622 33.1623 853.137 Q32.4621 855.619 32.4621 858.166 Q32.4621 863.863 36.0905 867.014 Q39.6872 870.165 46.212 870.165 Q52.7369 870.165 56.3653 867.014 Q59.9619 863.863 59.9619 858.166 Q59.9619 855.619 59.2935 853.137 Q58.5933 850.622 57.2247 848.14 L62.6355 848.14 Q63.7814 850.59 64.3543 853.232 Q64.9272 855.842 64.9272 858.802 Q64.9272 866.855 59.8664 871.597 Q54.8057 876.34 46.212 876.34 Q37.491 876.34 32.4939 871.565 Q27.4968 866.759 27.4968 858.42 Q27.4968 855.715 28.0697 853.137 Q28.6108 850.559 29.7248 848.14 Z" fill="#000000" fill-rule="nonzero" fill-opacity="1" /><path clip-path="url(#clip140)" d="M33.8307 817.298 Q33.2578 818.284 33.0032 819.462 Q32.7167 820.608 32.7167 822.008 Q32.7167 826.974 35.9632 829.647 Q39.1779 832.289 45.2253 832.289 L64.0042 832.289 L64.0042 838.177 L28.3562 838.177 L28.3562 832.289 L33.8944 832.289 Q30.6479 830.443 29.0883 827.483 Q27.4968 824.523 27.4968 820.29 Q27.4968 819.685 27.5923 818.953 Q27.656 818.221 27.8151 817.33 L33.8307 817.298 Z" fill="#000000" fill-rule="nonzero" fill-opacity="1" /><path clip-path="url(#clip140)" d="M44.7161 782.095 L47.5806 782.095 L47.5806 809.022 Q53.6281 808.64 56.8109 805.394 Q59.9619 802.116 59.9619 796.291 Q59.9619 792.917 59.1344 789.766 Q58.3069 786.583 56.6518 783.464 L62.1899 783.464 Q63.5267 786.615 64.227 789.925 Q64.9272 793.235 64.9272 796.641 Q64.9272 805.171 59.9619 810.168 Q54.9967 815.133 46.5303 815.133 Q37.7774 815.133 32.6531 810.423 Q27.4968 805.68 27.4968 797.66 Q27.4968 790.466 32.1438 786.297 Q36.7589 782.095 44.7161 782.095 M42.9973 787.952 Q38.1912 788.016 35.3266 790.657 Q32.4621 793.267 32.4621 797.596 Q32.4621 802.497 35.2312 805.458 Q38.0002 808.386 43.0292 808.831 L42.9973 787.952 Z" fill="#000000" fill-rule="nonzero" fill-opacity="1" /><path clip-path="url(#clip140)" d="M18.2347 766.69 L28.3562 766.69 L28.3562 754.627 L32.9077 754.627 L32.9077 766.69 L52.2594 766.69 Q56.6199 766.69 57.8613 765.513 Q59.1026 764.303 59.1026 760.643 L59.1026 754.627 L64.0042 754.627 L64.0042 760.643 Q64.0042 767.422 61.4897 770.001 Q58.9434 772.579 52.2594 772.579 L32.9077 772.579 L32.9077 776.876 L28.3562 776.876 L28.3562 772.579 L18.2347 772.579 L18.2347 766.69 Z" fill="#000000" fill-rule="nonzero" fill-opacity="1" /><path clip-path="url(#clip140)" d="M28.3562 746.925 L28.3562 741.068 L64.0042 741.068 L64.0042 746.925 L28.3562 746.925 M14.479 746.925 L14.479 741.068 L21.895 741.068 L21.895 746.925 L14.479 746.925 Z" fill="#000000" fill-rule="nonzero" fill-opacity="1" /><path clip-path="url(#clip140)" d="M32.4621 715.001 Q32.4621 719.711 36.1542 722.449 Q39.8145 725.186 46.212 725.186 Q52.6095 725.186 56.3017 722.481 Q59.9619 719.743 59.9619 715.001 Q59.9619 710.322 56.2698 707.585 Q52.5777 704.848 46.212 704.848 Q39.8781 704.848 36.186 707.585 Q32.4621 710.322 32.4621 715.001 M27.4968 715.001 Q27.4968 707.362 32.4621 703.001 Q37.4273 698.641 46.212 698.641 Q54.9649 698.641 59.9619 703.001 Q64.9272 707.362 64.9272 715.001 Q64.9272 722.672 59.9619 727.032 Q54.9649 731.361 46.212 731.361 Q37.4273 731.361 32.4621 727.032 Q27.4968 722.672 27.4968 715.001 Z" fill="#000000" fill-rule="nonzero" fill-opacity="1" /><path clip-path="url(#clip140)" d="M42.4881 659.301 L64.0042 659.301 L64.0042 665.157 L42.679 665.157 Q37.6183 665.157 35.1038 667.131 Q32.5894 669.104 32.5894 673.051 Q32.5894 677.793 35.6131 680.531 Q38.6368 683.268 43.8567 683.268 L64.0042 683.268 L64.0042 689.156 L28.3562 689.156 L28.3562 683.268 L33.8944 683.268 Q30.6797 681.167 29.0883 678.334 Q27.4968 675.47 27.4968 671.746 Q27.4968 665.603 31.3163 662.452 Q35.1038 659.301 42.4881 659.301 Z" fill="#000000" fill-rule="nonzero" fill-opacity="1" /><path clip-path="url(#clip140)" d="M33.8307 606.243 Q33.2578 607.229 33.0032 608.407 Q32.7167 609.553 32.7167 610.953 Q32.7167 615.919 35.9632 618.592 Q39.1779 621.234 45.2253 621.234 L64.0042 621.234 L64.0042 627.122 L28.3562 627.122 L28.3562 621.234 L33.8944 621.234 Q30.6479 619.388 29.0883 616.428 Q27.4968 613.468 27.4968 609.235 Q27.4968 608.63 27.5923 607.898 Q27.656 607.166 27.8151 606.275 L33.8307 606.243 Z" fill="#000000" fill-rule="nonzero" fill-opacity="1" /><path clip-path="url(#clip140)" d="M46.0847 583.899 Q46.0847 590.997 47.7079 593.734 Q49.3312 596.471 53.2461 596.471 Q56.3653 596.471 58.2114 594.434 Q60.0256 592.366 60.0256 588.833 Q60.0256 583.963 56.5881 581.035 Q53.1188 578.075 47.3897 578.075 L46.0847 578.075 L46.0847 583.899 M43.6657 572.218 L64.0042 572.218 L64.0042 578.075 L58.5933 578.075 Q61.8398 580.08 63.3994 583.072 Q64.9272 586.063 64.9272 590.392 Q64.9272 595.867 61.8716 599.113 Q58.7843 602.328 53.6281 602.328 Q47.6125 602.328 44.5569 598.317 Q41.5014 594.275 41.5014 586.286 L41.5014 578.075 L40.9285 578.075 Q36.8862 578.075 34.6901 580.748 Q32.4621 583.39 32.4621 588.196 Q32.4621 591.252 33.1941 594.148 Q33.9262 597.044 35.3903 599.718 L29.9795 599.718 Q28.7381 596.503 28.1334 593.48 Q27.4968 590.456 27.4968 587.591 Q27.4968 579.857 31.5072 576.037 Q35.5176 572.218 43.6657 572.218 Z" fill="#000000" fill-rule="nonzero" fill-opacity="1" /><path clip-path="url(#clip140)" d="M18.2347 554.362 L28.3562 554.362 L28.3562 542.299 L32.9077 542.299 L32.9077 554.362 L52.2594 554.362 Q56.6199 554.362 57.8613 553.185 Q59.1026 551.975 59.1026 548.315 L59.1026 542.299 L64.0042 542.299 L64.0042 548.315 Q64.0042 555.094 61.4897 557.672 Q58.9434 560.251 52.2594 560.251 L32.9077 560.251 L32.9077 564.547 L28.3562 564.547 L28.3562 560.251 L18.2347 560.251 L18.2347 554.362 Z" fill="#000000" fill-rule="nonzero" fill-opacity="1" /><path clip-path="url(#clip140)" d="M44.7161 504.105 L47.5806 504.105 L47.5806 531.032 Q53.6281 530.65 56.8109 527.403 Q59.9619 524.125 59.9619 518.301 Q59.9619 514.927 59.1344 511.776 Q58.3069 508.593 56.6518 505.474 L62.1899 505.474 Q63.5267 508.625 64.227 511.935 Q64.9272 515.245 64.9272 518.651 Q64.9272 527.181 59.9619 532.178 Q54.9967 537.143 46.5303 537.143 Q37.7774 537.143 32.6531 532.432 Q27.4968 527.69 27.4968 519.669 Q27.4968 512.476 32.1438 508.306 Q36.7589 504.105 44.7161 504.105 M42.9973 509.961 Q38.1912 510.025 35.3266 512.667 Q32.4621 515.277 32.4621 519.605 Q32.4621 524.507 35.2312 527.467 Q38.0002 530.395 43.0292 530.841 L42.9973 509.961 Z" fill="#000000" fill-rule="nonzero" fill-opacity="1" /><path clip-path="url(#clip140)" d="M14.479 474.313 L14.479 460.818 L19.0304 460.818 L19.0304 468.457 L68.0464 468.457 L68.0464 460.818 L72.5979 460.818 L72.5979 474.313 L14.479 474.313 Z" fill="#000000" fill-rule="nonzero" fill-opacity="1" /><path clip-path="url(#clip140)" d="M58.5933 446.4 L58.5933 435.896 L22.3406 435.896 L24.6323 447.323 L18.7758 447.323 L16.4842 435.96 L16.4842 429.531 L58.5933 429.531 L58.5933 419.027 L64.0042 419.027 L64.0042 446.4 L58.5933 446.4 Z" fill="#000000" fill-rule="nonzero" fill-opacity="1" /><path clip-path="url(#clip140)" d="M16.4842 396.461 L16.4842 391.05 L70.0516 407.601 L70.0516 413.012 L16.4842 396.461 Z" fill="#000000" fill-rule="nonzero" fill-opacity="1" /><path clip-path="url(#clip140)" d="M29.4065 362.182 L34.9447 362.182 Q33.6716 364.664 33.035 367.338 Q32.3984 370.011 32.3984 372.876 Q32.3984 377.236 33.7352 379.433 Q35.072 381.597 37.7456 381.597 Q39.7826 381.597 40.9603 380.037 Q42.1061 378.478 43.1565 373.767 L43.6021 371.762 Q44.9389 365.524 47.3897 362.914 Q49.8086 360.272 54.1691 360.272 Q59.1344 360.272 62.0308 364.219 Q64.9272 368.133 64.9272 375.008 Q64.9272 377.873 64.3543 380.992 Q63.8132 384.08 62.6992 387.517 L56.6518 387.517 Q58.3387 384.271 59.198 381.12 Q60.0256 377.969 60.0256 374.881 Q60.0256 370.743 58.6251 368.515 Q57.1929 366.287 54.6147 366.287 Q52.2276 366.287 50.9545 367.911 Q49.6813 369.502 48.5037 374.945 L48.0262 376.982 Q46.8804 382.425 44.5251 384.843 Q42.138 387.262 38.0002 387.262 Q32.9713 387.262 30.2341 383.698 Q27.4968 380.133 27.4968 373.576 Q27.4968 370.33 27.9743 367.465 Q28.4517 364.601 29.4065 362.182 Z" fill="#000000" fill-rule="nonzero" fill-opacity="1" /><path clip-path="url(#clip140)" d="M14.479 337.26 L72.5979 337.26 L72.5979 350.755 L68.0464 350.755 L68.0464 343.148 L19.0304 343.148 L19.0304 350.755 L14.479 350.755 L14.479 337.26 Z" fill="#000000" fill-rule="nonzero" fill-opacity="1" /><path clip-path="url(#clip140)" d="M16.4842 311.129 L16.4842 270.929 L21.895 270.929 L21.895 287.798 L64.0042 287.798 L64.0042 294.259 L21.895 294.259 L21.895 311.129 L16.4842 311.129 Z" fill="#000000" fill-rule="nonzero" fill-opacity="1" /><path clip-path="url(#clip140)" d="M31.921 264.213 L26.1282 264.213 L40.9285 223.409 L46.212 223.409 L61.0123 264.213 L55.2195 264.213 L43.6021 231.43 L31.921 264.213 Z" fill="#000000" fill-rule="nonzero" fill-opacity="1" /><path clip-path="url(#clip140)" d="M20.7174 195.782 Q20.7174 200.747 25.6189 203.262 Q30.4887 205.744 40.2919 205.744 Q50.0633 205.744 54.9649 203.262 Q59.8346 200.747 59.8346 195.782 Q59.8346 190.785 54.9649 188.302 Q50.0633 185.788 40.2919 185.788 Q30.4887 185.788 25.6189 188.302 Q20.7174 190.785 20.7174 195.782 M15.6248 195.782 Q15.6248 187.793 21.9587 183.592 Q28.2607 179.358 40.2919 179.358 Q52.2913 179.358 58.6251 183.592 Q64.9272 187.793 64.9272 195.782 Q64.9272 203.771 58.6251 208.004 Q52.2913 212.206 40.2919 212.206 Q28.2607 212.206 21.9587 208.004 Q15.6248 203.771 15.6248 195.782 Z" fill="#000000" fill-rule="nonzero" fill-opacity="1" /><polyline clip-path="url(#clip142)" style="stroke:#009af9; stroke-linecap:round; stroke-linejoin:round; stroke-width:12; stroke-opacity:1; fill:none" points="454.614,1384.24 473.229,1383.7 491.844,1383.48 510.458,1383.31 529.073,1383.17 547.688,1383.04 566.302,1382.92 584.917,1382.81 603.532,1382.71 622.147,1382.62 640.761,1382.52 659.376,1382.44 677.991,1382.35 696.605,1382.27 715.22,1382.19 733.835,1382.11 752.45,1382.04 771.064,1381.97 789.679,1381.9 808.294,1381.83 826.908,1381.76 845.523,1381.69 864.138,1381.63 882.752,1381.56 901.367,1381.5 919.982,1381.44 938.597,1381.38 957.211,1381.32 975.826,1381.26 994.441,1381.2 1013.06,1381.14 1031.67,1381.09 1050.28,1381.03 1068.9,1380.98 1087.51,1380.92 1106.13,1380.87 1124.74,1380.81 1143.36,1380.76 1161.97,1380.71 1180.59,1380.66 1199.2,1380.6 1217.82,1380.55 1236.43,1380.5 1255.05,1380.45 1273.66,1380.4 1292.28,1380.36 1310.89,1380.31 1329.51,1380.26 1348.12,1380.21 1366.73,1380.16 1385.35,1380.12 1403.96,1380.07 1422.58,1380.02 1441.19,1379.98 1459.81,1379.93 1478.42,1379.89 1497.04,1379.84 1515.65,1379.8 1534.27,1379.75 1552.88,1379.71 1571.5,1379.66 1590.11,1379.62 1608.73,1379.58 1627.34,1379.53 1645.96,1379.49 1664.57,1379.45 1683.18,1379.4 1701.8,1379.36 1720.41,1379.32 1739.03,1379.28 1757.64,1379.24 1776.26,1379.2 1794.87,1379.15 1813.49,1379.11 1832.1,1379.07 1850.72,1379.03 1869.33,1378.99 1887.95,1378.95 1906.56,1378.91 1925.18,1378.87 1943.79,1378.83 1962.41,1378.79 1981.02,1378.75 1999.63,1378.71 2018.25,1378.68 2036.86,1378.64 2055.48,1378.6 2074.09,1378.56 2092.71,1378.52 2111.32,1378.48 2129.94,1378.44 2148.55,1378.41 2167.17,1378.37 2185.78,1378.33 2204.4,1378.29 2223.01,1378.26 2241.63,1378.22 2260.24,1378.18 2278.86,1378.15 2297.47,1378.11 "/>
<polyline clip-path="url(#clip142)" style="stroke:#e26f46; stroke-linecap:round; stroke-linejoin:round; stroke-width:12; stroke-opacity:1; fill:none" points="454.614,1384.08 473.229,1375.35 491.844,1371.98 510.458,1369.4 529.073,1367.23 547.688,1365.32 566.302,1363.58 584.917,1361.98 603.532,1360.48 622.147,1359.07 640.761,1357.73 659.376,1356.45 677.991,1355.23 696.605,1354.05 715.22,1352.91 733.835,1351.81 752.45,1350.74 771.064,1349.7 789.679,1348.69 808.294,1347.7 826.908,1346.74 845.523,1345.8 864.138,1344.88 882.752,1343.97 901.367,1343.09 919.982,1342.22 938.597,1341.36 957.211,1340.52 975.826,1339.69 994.441,1338.88 1013.06,1338.07 1031.67,1337.28 1050.28,1336.5 1068.9,1335.73 1087.51,1334.97 1106.13,1334.22 1124.74,1333.48 1143.36,1332.75 1161.97,1332.02 1180.59,1331.3 1199.2,1330.6 1217.82,1329.89 1236.43,1329.2 1255.05,1328.51 1273.66,1327.83 1292.28,1327.16 1310.89,1326.49 1329.51,1325.83 1348.12,1325.17 1366.73,1324.52 1385.35,1323.88 1403.96,1323.24 1422.58,1322.61 1441.19,1321.98 1459.81,1321.35 1478.42,1320.73 1497.04,1320.12 1515.65,1319.51 1534.27,1318.9 1552.88,1318.3 1571.5,1317.7 1590.11,1317.11 1608.73,1316.52 1627.34,1315.93 1645.96,1315.35 1664.57,1314.77 1683.18,1314.2 1701.8,1313.63 1720.41,1313.06 1739.03,1312.5 1757.64,1311.94 1776.26,1311.38 1794.87,1310.82 1813.49,1310.27 1832.1,1309.72 1850.72,1309.18 1869.33,1308.64 1887.95,1308.1 1906.56,1307.56 1925.18,1307.03 1943.79,1306.49 1962.41,1305.97 1981.02,1305.44 1999.63,1304.92 2018.25,1304.39 2036.86,1303.88 2055.48,1303.36 2074.09,1302.85 2092.71,1302.33 2111.32,1301.82 2129.94,1301.32 2148.55,1300.81 2167.17,1300.31 2185.78,1299.81 2204.4,1299.31 2223.01,1298.82 2241.63,1298.32 2260.24,1297.83 2278.86,1297.34 2297.47,1296.85 "/>
<polyline clip-path="url(#clip142)" style="stroke:#3da44d; stroke-linecap:round; stroke-linejoin:round; stroke-width:12; stroke-opacity:1; fill:none" points="454.614,1381.59 473.229,1238.06 491.844,1184.48 510.458,1144.02 529.073,1110.18 547.688,1080.5 566.302,1053.73 584.917,1029.15 603.532,1006.29 622.147,984.83 640.761,964.529 659.376,945.216 677.991,926.754 696.605,909.036 715.22,891.975 733.835,875.501 752.45,859.554 771.064,844.085 789.679,829.05 808.294,814.413 826.908,800.142 845.523,786.21 864.138,772.592 882.752,759.266 901.367,746.213 919.982,733.416 938.597,720.86 957.211,708.53 975.826,696.413 994.441,684.498 1013.06,672.775 1031.67,661.233 1050.28,649.865 1068.9,638.661 1087.51,627.614 1106.13,616.717 1124.74,605.963 1143.36,595.348 1161.97,584.864 1180.59,574.507 1199.2,564.271 1217.82,554.153 1236.43,544.147 1255.05,534.25 1273.66,524.458 1292.28,514.767 1310.89,505.174 1329.51,495.676 1348.12,486.269 1366.73,476.951 1385.35,467.718 1403.96,458.57 1422.58,449.502 1441.19,440.512 1459.81,431.599 1478.42,422.76 1497.04,413.993 1515.65,405.297 1534.27,396.668 1552.88,388.106 1571.5,379.609 1590.11,371.175 1608.73,362.803 1627.34,354.491 1645.96,346.237 1664.57,338.041 1683.18,329.9 1701.8,321.815 1720.41,313.783 1739.03,305.803 1757.64,297.874 1776.26,289.995 1794.87,282.165 1813.49,274.383 1832.1,266.648 1850.72,258.959 1869.33,251.314 1887.95,243.715 1906.56,236.158 1925.18,228.644 1943.79,221.171 1962.41,213.739 1981.02,206.348 1999.63,198.995 2018.25,191.682 2036.86,184.406 2055.48,177.167 2074.09,169.966 2092.71,162.8 2111.32,155.669 2129.94,148.574 2148.55,141.512 2167.17,134.484 2185.78,127.489 2204.4,120.527 2223.01,113.597 2241.63,106.698 2260.24,99.8301 2278.86,92.9929 2297.47,86.1857 "/>
<path clip-path="url(#clip140)" d="M464.443 300.469 L977.145 300.469 L977.145 93.1086 L464.443 93.1086  Z" fill="#ffffff" fill-rule="evenodd" fill-opacity="1"/>
<polyline clip-path="url(#clip140)" style="stroke:#000000; stroke-linecap:round; stroke-linejoin:round; stroke-width:4; stroke-opacity:1; fill:none" points="464.443,300.469 977.145,300.469 977.145,93.1086 464.443,93.1086 464.443,300.469 "/>
<polyline clip-path="url(#clip140)" style="stroke:#009af9; stroke-linecap:round; stroke-linejoin:round; stroke-width:12; stroke-opacity:1; fill:none" points="486.148,144.949 616.376,144.949 "/>
<path clip-path="url(#clip140)" d="M642.479 149.289 Q642.479 153.988 644.4 156.673 Q646.345 159.335 649.724 159.335 Q653.104 159.335 655.048 156.673 Q656.993 153.988 656.993 149.289 Q656.993 144.59 655.048 141.928 Q653.104 139.243 649.724 139.243 Q646.345 139.243 644.4 141.928 Q642.479 144.59 642.479 149.289 M656.993 158.34 Q655.65 160.655 653.59 161.789 Q651.553 162.9 648.683 162.9 Q643.984 162.9 641.021 159.15 Q638.081 155.4 638.081 149.289 Q638.081 143.178 641.021 139.428 Q643.984 135.678 648.683 135.678 Q651.553 135.678 653.59 136.812 Q655.65 137.923 656.993 140.238 L656.993 136.303 L661.252 136.303 L661.252 172.09 L656.993 172.09 L656.993 158.34 Z" fill="#000000" fill-rule="nonzero" fill-opacity="1" /><path clip-path="url(#clip140)" d="M689.724 170.099 L689.724 173.409 L665.095 173.409 L665.095 170.099 L689.724 170.099 Z" fill="#000000" fill-rule="nonzero" fill-opacity="1" /><path clip-path="url(#clip140)" d="M710.256 137.067 L710.256 141.094 Q708.451 140.169 706.506 139.706 Q704.562 139.243 702.479 139.243 Q699.307 139.243 697.71 140.215 Q696.136 141.187 696.136 143.131 Q696.136 144.613 697.27 145.469 Q698.405 146.303 701.83 147.067 L703.289 147.391 Q707.826 148.363 709.724 150.145 Q711.645 151.905 711.645 155.076 Q711.645 158.687 708.775 160.793 Q705.928 162.9 700.928 162.9 Q698.844 162.9 696.576 162.483 Q694.33 162.09 691.831 161.28 L691.831 156.881 Q694.192 158.108 696.483 158.733 Q698.775 159.335 701.02 159.335 Q704.03 159.335 705.65 158.317 Q707.27 157.275 707.27 155.4 Q707.27 153.664 706.09 152.738 Q704.932 151.812 700.974 150.956 L699.492 150.608 Q695.534 149.775 693.775 148.062 Q692.016 146.326 692.016 143.317 Q692.016 139.659 694.608 137.669 Q697.201 135.678 701.969 135.678 Q704.33 135.678 706.414 136.025 Q708.497 136.372 710.256 137.067 Z" fill="#000000" fill-rule="nonzero" fill-opacity="1" /><path clip-path="url(#clip140)" d="M739.978 146.581 L739.978 162.229 L735.719 162.229 L735.719 146.719 Q735.719 143.039 734.284 141.21 Q732.849 139.382 729.978 139.382 Q726.529 139.382 724.539 141.581 Q722.548 143.78 722.548 147.576 L722.548 162.229 L718.266 162.229 L718.266 136.303 L722.548 136.303 L722.548 140.331 Q724.076 137.993 726.136 136.835 Q728.219 135.678 730.928 135.678 Q735.395 135.678 737.687 138.456 Q739.978 141.21 739.978 146.581 Z" fill="#000000" fill-rule="nonzero" fill-opacity="1" /><path clip-path="url(#clip140)" d="M758.52 139.289 Q755.094 139.289 753.103 141.974 Q751.113 144.636 751.113 149.289 Q751.113 153.942 753.08 156.627 Q755.071 159.289 758.52 159.289 Q761.923 159.289 763.913 156.604 Q765.904 153.918 765.904 149.289 Q765.904 144.682 763.913 141.997 Q761.923 139.289 758.52 139.289 M758.52 135.678 Q764.075 135.678 767.247 139.289 Q770.418 142.9 770.418 149.289 Q770.418 155.655 767.247 159.289 Q764.075 162.9 758.52 162.9 Q752.941 162.9 749.77 159.289 Q746.622 155.655 746.622 149.289 Q746.622 142.9 749.77 139.289 Q752.941 135.678 758.52 135.678 Z" fill="#000000" fill-rule="nonzero" fill-opacity="1" /><path clip-path="url(#clip140)" d="M775.001 136.303 L779.261 136.303 L784.585 156.534 L789.886 136.303 L794.909 136.303 L800.233 156.534 L805.534 136.303 L809.793 136.303 L803.01 162.229 L797.987 162.229 L792.409 140.979 L786.807 162.229 L781.784 162.229 L775.001 136.303 Z" fill="#000000" fill-rule="nonzero" fill-opacity="1" /><path clip-path="url(#clip140)" d="M816.807 140.701 L846.482 140.701 L846.482 144.59 L816.807 144.59 L816.807 140.701 M816.807 150.145 L846.482 150.145 L846.482 154.081 L816.807 154.081 L816.807 150.145 Z" fill="#000000" fill-rule="nonzero" fill-opacity="1" /><path clip-path="url(#clip140)" d="M857.385 158.293 L865.024 158.293 L865.024 131.928 L856.714 133.595 L856.714 129.335 L864.978 127.669 L869.654 127.669 L869.654 158.293 L877.292 158.293 L877.292 162.229 L857.385 162.229 L857.385 158.293 Z" fill="#000000" fill-rule="nonzero" fill-opacity="1" /><path clip-path="url(#clip140)" d="M908.311 148.201 L908.311 150.284 L888.728 150.284 Q889.005 154.682 891.366 156.997 Q893.751 159.289 897.987 159.289 Q900.44 159.289 902.732 158.687 Q905.047 158.085 907.315 156.881 L907.315 160.909 Q905.024 161.881 902.616 162.391 Q900.209 162.9 897.732 162.9 Q891.529 162.9 887.894 159.289 Q884.283 155.678 884.283 149.52 Q884.283 143.155 887.709 139.428 Q891.158 135.678 896.991 135.678 Q902.223 135.678 905.255 139.057 Q908.311 142.414 908.311 148.201 M904.052 146.951 Q904.005 143.456 902.084 141.372 Q900.186 139.289 897.038 139.289 Q893.473 139.289 891.32 141.303 Q889.191 143.317 888.866 146.974 L904.052 146.951 Z" fill="#000000" fill-rule="nonzero" fill-opacity="1" /><path clip-path="url(#clip140)" d="M913.149 147.344 L925.626 147.344 L925.626 151.141 L913.149 151.141 L913.149 147.344 Z" fill="#000000" fill-rule="nonzero" fill-opacity="1" /><path clip-path="url(#clip140)" d="M943.588 143.085 Q940.44 143.085 938.588 145.238 Q936.76 147.391 936.76 151.141 Q936.76 154.868 938.588 157.043 Q940.44 159.196 943.588 159.196 Q946.737 159.196 948.565 157.043 Q950.417 154.868 950.417 151.141 Q950.417 147.391 948.565 145.238 Q946.737 143.085 943.588 143.085 M952.871 128.433 L952.871 132.692 Q951.112 131.858 949.306 131.419 Q947.524 130.979 945.764 130.979 Q941.135 130.979 938.681 134.104 Q936.25 137.229 935.903 143.548 Q937.269 141.534 939.329 140.469 Q941.389 139.382 943.866 139.382 Q949.074 139.382 952.084 142.553 Q955.116 145.701 955.116 151.141 Q955.116 156.465 951.968 159.682 Q948.82 162.9 943.588 162.9 Q937.593 162.9 934.422 158.317 Q931.251 153.71 931.251 144.983 Q931.251 136.789 935.139 131.928 Q939.028 127.044 945.579 127.044 Q947.338 127.044 949.121 127.391 Q950.926 127.738 952.871 128.433 Z" fill="#000000" fill-rule="nonzero" fill-opacity="1" /><polyline clip-path="url(#clip140)" style="stroke:#e26f46; stroke-linecap:round; stroke-linejoin:round; stroke-width:12; stroke-opacity:1; fill:none" points="486.148,196.789 616.376,196.789 "/>
<path clip-path="url(#clip140)" d="M642.479 201.129 Q642.479 205.828 644.4 208.513 Q646.345 211.175 649.724 211.175 Q653.104 211.175 655.048 208.513 Q656.993 205.828 656.993 201.129 Q656.993 196.43 655.048 193.768 Q653.104 191.083 649.724 191.083 Q646.345 191.083 644.4 193.768 Q642.479 196.43 642.479 201.129 M656.993 210.18 Q655.65 212.495 653.59 213.629 Q651.553 214.74 648.683 214.74 Q643.984 214.74 641.021 210.99 Q638.081 207.24 638.081 201.129 Q638.081 195.018 641.021 191.268 Q643.984 187.518 648.683 187.518 Q651.553 187.518 653.59 188.652 Q655.65 189.763 656.993 192.078 L656.993 188.143 L661.252 188.143 L661.252 223.93 L656.993 223.93 L656.993 210.18 Z" fill="#000000" fill-rule="nonzero" fill-opacity="1" /><path clip-path="url(#clip140)" d="M689.724 221.939 L689.724 225.249 L665.095 225.249 L665.095 221.939 L689.724 221.939 Z" fill="#000000" fill-rule="nonzero" fill-opacity="1" /><path clip-path="url(#clip140)" d="M710.256 188.907 L710.256 192.934 Q708.451 192.009 706.506 191.546 Q704.562 191.083 702.479 191.083 Q699.307 191.083 697.71 192.055 Q696.136 193.027 696.136 194.971 Q696.136 196.453 697.27 197.309 Q698.405 198.143 701.83 198.907 L703.289 199.231 Q707.826 200.203 709.724 201.985 Q711.645 203.745 711.645 206.916 Q711.645 210.527 708.775 212.633 Q705.928 214.74 700.928 214.74 Q698.844 214.74 696.576 214.323 Q694.33 213.93 691.831 213.12 L691.831 208.721 Q694.192 209.948 696.483 210.573 Q698.775 211.175 701.02 211.175 Q704.03 211.175 705.65 210.157 Q707.27 209.115 707.27 207.24 Q707.27 205.504 706.09 204.578 Q704.932 203.652 700.974 202.796 L699.492 202.448 Q695.534 201.615 693.775 199.902 Q692.016 198.166 692.016 195.157 Q692.016 191.499 694.608 189.509 Q697.201 187.518 701.969 187.518 Q704.33 187.518 706.414 187.865 Q708.497 188.212 710.256 188.907 Z" fill="#000000" fill-rule="nonzero" fill-opacity="1" /><path clip-path="url(#clip140)" d="M739.978 198.421 L739.978 214.069 L735.719 214.069 L735.719 198.559 Q735.719 194.879 734.284 193.05 Q732.849 191.222 729.978 191.222 Q726.529 191.222 724.539 193.421 Q722.548 195.62 722.548 199.416 L722.548 214.069 L718.266 214.069 L718.266 188.143 L722.548 188.143 L722.548 192.171 Q724.076 189.833 726.136 188.675 Q728.219 187.518 730.928 187.518 Q735.395 187.518 737.687 190.296 Q739.978 193.05 739.978 198.421 Z" fill="#000000" fill-rule="nonzero" fill-opacity="1" /><path clip-path="url(#clip140)" d="M758.52 191.129 Q755.094 191.129 753.103 193.814 Q751.113 196.476 751.113 201.129 Q751.113 205.782 753.08 208.467 Q755.071 211.129 758.52 211.129 Q761.923 211.129 763.913 208.444 Q765.904 205.758 765.904 201.129 Q765.904 196.522 763.913 193.837 Q761.923 191.129 758.52 191.129 M758.52 187.518 Q764.075 187.518 767.247 191.129 Q770.418 194.74 770.418 201.129 Q770.418 207.495 767.247 211.129 Q764.075 214.74 758.52 214.74 Q752.941 214.74 749.77 211.129 Q746.622 207.495 746.622 201.129 Q746.622 194.74 749.77 191.129 Q752.941 187.518 758.52 187.518 Z" fill="#000000" fill-rule="nonzero" fill-opacity="1" /><path clip-path="url(#clip140)" d="M775.001 188.143 L779.261 188.143 L784.585 208.374 L789.886 188.143 L794.909 188.143 L800.233 208.374 L805.534 188.143 L809.793 188.143 L803.01 214.069 L797.987 214.069 L792.409 192.819 L786.807 214.069 L781.784 214.069 L775.001 188.143 Z" fill="#000000" fill-rule="nonzero" fill-opacity="1" /><path clip-path="url(#clip140)" d="M816.807 192.541 L846.482 192.541 L846.482 196.43 L816.807 196.43 L816.807 192.541 M816.807 201.985 L846.482 201.985 L846.482 205.921 L816.807 205.921 L816.807 201.985 Z" fill="#000000" fill-rule="nonzero" fill-opacity="1" /><path clip-path="url(#clip140)" d="M857.385 210.133 L865.024 210.133 L865.024 183.768 L856.714 185.435 L856.714 181.175 L864.978 179.509 L869.654 179.509 L869.654 210.133 L877.292 210.133 L877.292 214.069 L857.385 214.069 L857.385 210.133 Z" fill="#000000" fill-rule="nonzero" fill-opacity="1" /><path clip-path="url(#clip140)" d="M908.311 200.041 L908.311 202.124 L888.728 202.124 Q889.005 206.522 891.366 208.837 Q893.751 211.129 897.987 211.129 Q900.44 211.129 902.732 210.527 Q905.047 209.925 907.315 208.721 L907.315 212.749 Q905.024 213.721 902.616 214.231 Q900.209 214.74 897.732 214.74 Q891.529 214.74 887.894 211.129 Q884.283 207.518 884.283 201.36 Q884.283 194.995 887.709 191.268 Q891.158 187.518 896.991 187.518 Q902.223 187.518 905.255 190.897 Q908.311 194.254 908.311 200.041 M904.052 198.791 Q904.005 195.296 902.084 193.212 Q900.186 191.129 897.038 191.129 Q893.473 191.129 891.32 193.143 Q889.191 195.157 888.866 198.814 L904.052 198.791 Z" fill="#000000" fill-rule="nonzero" fill-opacity="1" /><path clip-path="url(#clip140)" d="M913.149 199.184 L925.626 199.184 L925.626 202.981 L913.149 202.981 L913.149 199.184 Z" fill="#000000" fill-rule="nonzero" fill-opacity="1" /><path clip-path="url(#clip140)" d="M933.056 179.509 L951.412 179.509 L951.412 183.444 L937.338 183.444 L937.338 191.916 Q938.357 191.569 939.375 191.407 Q940.394 191.222 941.412 191.222 Q947.2 191.222 950.579 194.393 Q953.959 197.564 953.959 202.981 Q953.959 208.559 950.487 211.661 Q947.014 214.74 940.695 214.74 Q938.519 214.74 936.25 214.37 Q934.005 213.999 931.598 213.258 L931.598 208.559 Q933.681 209.694 935.903 210.249 Q938.125 210.805 940.602 210.805 Q944.607 210.805 946.945 208.698 Q949.283 206.592 949.283 202.981 Q949.283 199.37 946.945 197.263 Q944.607 195.157 940.602 195.157 Q938.727 195.157 936.852 195.573 Q935 195.99 933.056 196.87 L933.056 179.509 Z" fill="#000000" fill-rule="nonzero" fill-opacity="1" /><polyline clip-path="url(#clip140)" style="stroke:#3da44d; stroke-linecap:round; stroke-linejoin:round; stroke-width:12; stroke-opacity:1; fill:none" points="486.148,248.629 616.376,248.629 "/>
<path clip-path="url(#clip140)" d="M642.479 252.969 Q642.479 257.668 644.4 260.353 Q646.345 263.015 649.724 263.015 Q653.104 263.015 655.048 260.353 Q656.993 257.668 656.993 252.969 Q656.993 248.27 655.048 245.608 Q653.104 242.923 649.724 242.923 Q646.345 242.923 644.4 245.608 Q642.479 248.27 642.479 252.969 M656.993 262.02 Q655.65 264.335 653.59 265.469 Q651.553 266.58 648.683 266.58 Q643.984 266.58 641.021 262.83 Q638.081 259.08 638.081 252.969 Q638.081 246.858 641.021 243.108 Q643.984 239.358 648.683 239.358 Q651.553 239.358 653.59 240.492 Q655.65 241.603 656.993 243.918 L656.993 239.983 L661.252 239.983 L661.252 275.77 L656.993 275.77 L656.993 262.02 Z" fill="#000000" fill-rule="nonzero" fill-opacity="1" /><path clip-path="url(#clip140)" d="M689.724 273.779 L689.724 277.089 L665.095 277.089 L665.095 273.779 L689.724 273.779 Z" fill="#000000" fill-rule="nonzero" fill-opacity="1" /><path clip-path="url(#clip140)" d="M710.256 240.747 L710.256 244.774 Q708.451 243.849 706.506 243.386 Q704.562 242.923 702.479 242.923 Q699.307 242.923 697.71 243.895 Q696.136 244.867 696.136 246.811 Q696.136 248.293 697.27 249.149 Q698.405 249.983 701.83 250.747 L703.289 251.071 Q707.826 252.043 709.724 253.825 Q711.645 255.585 711.645 258.756 Q711.645 262.367 708.775 264.473 Q705.928 266.58 700.928 266.58 Q698.844 266.58 696.576 266.163 Q694.33 265.77 691.831 264.96 L691.831 260.561 Q694.192 261.788 696.483 262.413 Q698.775 263.015 701.02 263.015 Q704.03 263.015 705.65 261.997 Q707.27 260.955 707.27 259.08 Q707.27 257.344 706.09 256.418 Q704.932 255.492 700.974 254.636 L699.492 254.288 Q695.534 253.455 693.775 251.742 Q692.016 250.006 692.016 246.997 Q692.016 243.339 694.608 241.349 Q697.201 239.358 701.969 239.358 Q704.33 239.358 706.414 239.705 Q708.497 240.052 710.256 240.747 Z" fill="#000000" fill-rule="nonzero" fill-opacity="1" /><path clip-path="url(#clip140)" d="M739.978 250.261 L739.978 265.909 L735.719 265.909 L735.719 250.399 Q735.719 246.719 734.284 244.89 Q732.849 243.062 729.978 243.062 Q726.529 243.062 724.539 245.261 Q722.548 247.46 722.548 251.256 L722.548 265.909 L718.266 265.909 L718.266 239.983 L722.548 239.983 L722.548 244.011 Q724.076 241.673 726.136 240.515 Q728.219 239.358 730.928 239.358 Q735.395 239.358 737.687 242.136 Q739.978 244.89 739.978 250.261 Z" fill="#000000" fill-rule="nonzero" fill-opacity="1" /><path clip-path="url(#clip140)" d="M758.52 242.969 Q755.094 242.969 753.103 245.654 Q751.113 248.316 751.113 252.969 Q751.113 257.622 753.08 260.307 Q755.071 262.969 758.52 262.969 Q761.923 262.969 763.913 260.284 Q765.904 257.598 765.904 252.969 Q765.904 248.362 763.913 245.677 Q761.923 242.969 758.52 242.969 M758.52 239.358 Q764.075 239.358 767.247 242.969 Q770.418 246.58 770.418 252.969 Q770.418 259.335 767.247 262.969 Q764.075 266.58 758.52 266.58 Q752.941 266.58 749.77 262.969 Q746.622 259.335 746.622 252.969 Q746.622 246.58 749.77 242.969 Q752.941 239.358 758.52 239.358 Z" fill="#000000" fill-rule="nonzero" fill-opacity="1" /><path clip-path="url(#clip140)" d="M775.001 239.983 L779.261 239.983 L784.585 260.214 L789.886 239.983 L794.909 239.983 L800.233 260.214 L805.534 239.983 L809.793 239.983 L803.01 265.909 L797.987 265.909 L792.409 244.659 L786.807 265.909 L781.784 265.909 L775.001 239.983 Z" fill="#000000" fill-rule="nonzero" fill-opacity="1" /><path clip-path="url(#clip140)" d="M816.807 244.381 L846.482 244.381 L846.482 248.27 L816.807 248.27 L816.807 244.381 M816.807 253.825 L846.482 253.825 L846.482 257.761 L816.807 257.761 L816.807 253.825 Z" fill="#000000" fill-rule="nonzero" fill-opacity="1" /><path clip-path="url(#clip140)" d="M857.385 261.973 L865.024 261.973 L865.024 235.608 L856.714 237.275 L856.714 233.015 L864.978 231.349 L869.654 231.349 L869.654 261.973 L877.292 261.973 L877.292 265.909 L857.385 265.909 L857.385 261.973 Z" fill="#000000" fill-rule="nonzero" fill-opacity="1" /><path clip-path="url(#clip140)" d="M908.311 251.881 L908.311 253.964 L888.728 253.964 Q889.005 258.362 891.366 260.677 Q893.751 262.969 897.987 262.969 Q900.44 262.969 902.732 262.367 Q905.047 261.765 907.315 260.561 L907.315 264.589 Q905.024 265.561 902.616 266.071 Q900.209 266.58 897.732 266.58 Q891.529 266.58 887.894 262.969 Q884.283 259.358 884.283 253.2 Q884.283 246.835 887.709 243.108 Q891.158 239.358 896.991 239.358 Q902.223 239.358 905.255 242.737 Q908.311 246.094 908.311 251.881 M904.052 250.631 Q904.005 247.136 902.084 245.052 Q900.186 242.969 897.038 242.969 Q893.473 242.969 891.32 244.983 Q889.191 246.997 888.866 250.654 L904.052 250.631 Z" fill="#000000" fill-rule="nonzero" fill-opacity="1" /><path clip-path="url(#clip140)" d="M913.149 251.024 L925.626 251.024 L925.626 254.821 L913.149 254.821 L913.149 251.024 Z" fill="#000000" fill-rule="nonzero" fill-opacity="1" /><path clip-path="url(#clip140)" d="M945.857 235.423 L934.051 253.872 L945.857 253.872 L945.857 235.423 M944.63 231.349 L950.51 231.349 L950.51 253.872 L955.44 253.872 L955.44 257.761 L950.51 257.761 L950.51 265.909 L945.857 265.909 L945.857 257.761 L930.255 257.761 L930.255 253.247 L944.63 231.349 Z" fill="#000000" fill-rule="nonzero" fill-opacity="1" /></svg>
