<?xml version="1.0" encoding="utf-8"?>
<svg xmlns="http://www.w3.org/2000/svg" xmlns:xlink="http://www.w3.org/1999/xlink" width="600" height="400" viewBox="0 0 2400 1600">
<defs>
  <clipPath id="clip720">
    <rect x="0" y="0" width="2400" height="1600"/>
  </clipPath>
</defs>
<path clip-path="url(#clip720)" d="M0 1600 L2400 1600 L2400 0 L0 0  Z" fill="#ffffff" fill-rule="evenodd" fill-opacity="1"/>
<defs>
  <clipPath id="clip721">
    <rect x="480" y="0" width="1681" height="1600"/>
  </clipPath>
</defs>
<path clip-path="url(#clip720)" d="M340.028 1423.18 L2352.76 1423.18 L2352.76 47.2441 L340.028 47.2441  Z" fill="#ffffff" fill-rule="evenodd" fill-opacity="1"/>
<defs>
  <clipPath id="clip722">
    <rect x="340" y="47" width="2014" height="1377"/>
  </clipPath>
</defs>
<polyline clip-path="url(#clip722)" style="stroke:#000000; stroke-linecap:round; stroke-linejoin:round; stroke-width:2; stroke-opacity:0.1; fill:none" points="396.988,1423.18 396.988,47.2441 "/>
<polyline clip-path="url(#clip722)" style="stroke:#000000; stroke-linecap:round; stroke-linejoin:round; stroke-width:2; stroke-opacity:0.1; fill:none" points="776.749,1423.18 776.749,47.2441 "/>
<polyline clip-path="url(#clip722)" style="stroke:#000000; stroke-linecap:round; stroke-linejoin:round; stroke-width:2; stroke-opacity:0.1; fill:none" points="1156.51,1423.18 1156.51,47.2441 "/>
<polyline clip-path="url(#clip722)" style="stroke:#000000; stroke-linecap:round; stroke-linejoin:round; stroke-width:2; stroke-opacity:0.1; fill:none" points="1536.27,1423.18 1536.27,47.2441 "/>
<polyline clip-path="url(#clip722)" style="stroke:#000000; stroke-linecap:round; stroke-linejoin:round; stroke-width:2; stroke-opacity:0.1; fill:none" points="1916.03,1423.18 1916.03,47.2441 "/>
<polyline clip-path="url(#clip722)" style="stroke:#000000; stroke-linecap:round; stroke-linejoin:round; stroke-width:2; stroke-opacity:0.1; fill:none" points="2295.79,1423.18 2295.79,47.2441 "/>
<polyline clip-path="url(#clip722)" style="stroke:#000000; stroke-linecap:round; stroke-linejoin:round; stroke-width:2; stroke-opacity:0.1; fill:none" points="340.028,1384.24 2352.76,1384.24 "/>
<polyline clip-path="url(#clip722)" style="stroke:#000000; stroke-linecap:round; stroke-linejoin:round; stroke-width:2; stroke-opacity:0.1; fill:none" points="340.028,1063.71 2352.76,1063.71 "/>
<polyline clip-path="url(#clip722)" style="stroke:#000000; stroke-linecap:round; stroke-linejoin:round; stroke-width:2; stroke-opacity:0.1; fill:none" points="340.028,743.172 2352.76,743.172 "/>
<polyline clip-path="url(#clip722)" style="stroke:#000000; stroke-linecap:round; stroke-linejoin:round; stroke-width:2; stroke-opacity:0.1; fill:none" points="340.028,422.639 2352.76,422.639 "/>
<polyline clip-path="url(#clip722)" style="stroke:#000000; stroke-linecap:round; stroke-linejoin:round; stroke-width:2; stroke-opacity:0.1; fill:none" points="340.028,102.105 2352.76,102.105 "/>
<polyline clip-path="url(#clip720)" style="stroke:#000000; stroke-linecap:round; stroke-linejoin:round; stroke-width:4; stroke-opacity:1; fill:none" points="340.028,1423.18 2352.76,1423.18 "/>
<polyline clip-path="url(#clip720)" style="stroke:#000000; stroke-linecap:round; stroke-linejoin:round; stroke-width:4; stroke-opacity:1; fill:none" points="396.988,1423.18 396.988,1404.28 "/>
<polyline clip-path="url(#clip720)" style="stroke:#000000; stroke-linecap:round; stroke-linejoin:round; stroke-width:4; stroke-opacity:1; fill:none" points="776.749,1423.18 776.749,1404.28 "/>
<polyline clip-path="url(#clip720)" style="stroke:#000000; stroke-linecap:round; stroke-linejoin:round; stroke-width:4; stroke-opacity:1; fill:none" points="1156.51,1423.18 1156.51,1404.28 "/>
<polyline clip-path="url(#clip720)" style="stroke:#000000; stroke-linecap:round; stroke-linejoin:round; stroke-width:4; stroke-opacity:1; fill:none" points="1536.27,1423.18 1536.27,1404.28 "/>
<polyline clip-path="url(#clip720)" style="stroke:#000000; stroke-linecap:round; stroke-linejoin:round; stroke-width:4; stroke-opacity:1; fill:none" points="1916.03,1423.18 1916.03,1404.28 "/>
<polyline clip-path="url(#clip720)" style="stroke:#000000; stroke-linecap:round; stroke-linejoin:round; stroke-width:4; stroke-opacity:1; fill:none" points="2295.79,1423.18 2295.79,1404.28 "/>
<path clip-path="url(#clip720)" d="M396.988 1454.1 Q393.377 1454.1 391.548 1457.66 Q389.743 1461.2 389.743 1468.33 Q389.743 1475.44 391.548 1479.01 Q393.377 1482.55 396.988 1482.55 Q400.622 1482.55 402.428 1479.01 Q404.256 1475.44 404.256 1468.33 Q404.256 1461.2 402.428 1457.66 Q400.622 1454.1 396.988 1454.1 M396.988 1450.39 Q402.798 1450.39 405.854 1455 Q408.932 1459.58 408.932 1468.33 Q408.932 1477.06 405.854 1481.67 Q402.798 1486.25 396.988 1486.25 Q391.178 1486.25 388.099 1481.67 Q385.043 1477.06 385.043 1468.33 Q385.043 1459.58 388.099 1455 Q391.178 1450.39 396.988 1450.39 Z" fill="#000000" fill-rule="nonzero" fill-opacity="1" /><path clip-path="url(#clip720)" d="M767.131 1481.64 L774.77 1481.64 L774.77 1455.28 L766.459 1456.95 L766.459 1452.69 L774.723 1451.02 L779.399 1451.02 L779.399 1481.64 L787.038 1481.64 L787.038 1485.58 L767.131 1485.58 L767.131 1481.64 Z" fill="#000000" fill-rule="nonzero" fill-opacity="1" /><path clip-path="url(#clip720)" d="M1151.16 1481.64 L1167.48 1481.64 L1167.48 1485.58 L1145.54 1485.58 L1145.54 1481.64 Q1148.2 1478.89 1152.78 1474.26 Q1157.39 1469.61 1158.57 1468.27 Q1160.82 1465.74 1161.69 1464.01 Q1162.6 1462.25 1162.6 1460.56 Q1162.6 1457.8 1160.65 1456.07 Q1158.73 1454.33 1155.63 1454.33 Q1153.43 1454.33 1150.98 1455.09 Q1148.55 1455.86 1145.77 1457.41 L1145.77 1452.69 Q1148.59 1451.55 1151.05 1450.97 Q1153.5 1450.39 1155.54 1450.39 Q1160.91 1450.39 1164.1 1453.08 Q1167.3 1455.77 1167.3 1460.26 Q1167.3 1462.39 1166.49 1464.31 Q1165.7 1466.2 1163.59 1468.8 Q1163.01 1469.47 1159.91 1472.69 Q1156.81 1475.88 1151.16 1481.64 Z" fill="#000000" fill-rule="nonzero" fill-opacity="1" /><path clip-path="url(#clip720)" d="M1540.52 1466.95 Q1543.87 1467.66 1545.75 1469.93 Q1547.65 1472.2 1547.65 1475.53 Q1547.65 1480.65 1544.13 1483.45 Q1540.61 1486.25 1534.13 1486.25 Q1531.95 1486.25 1529.64 1485.81 Q1527.35 1485.39 1524.89 1484.54 L1524.89 1480.02 Q1526.84 1481.16 1529.15 1481.74 Q1531.47 1482.32 1533.99 1482.32 Q1538.39 1482.32 1540.68 1480.58 Q1542.99 1478.84 1542.99 1475.53 Q1542.99 1472.48 1540.84 1470.77 Q1538.71 1469.03 1534.89 1469.03 L1530.87 1469.03 L1530.87 1465.19 L1535.08 1465.19 Q1538.53 1465.19 1540.36 1463.82 Q1542.18 1462.43 1542.18 1459.84 Q1542.18 1457.18 1540.29 1455.77 Q1538.41 1454.33 1534.89 1454.33 Q1532.97 1454.33 1530.77 1454.75 Q1528.57 1455.16 1525.93 1456.04 L1525.93 1451.88 Q1528.6 1451.14 1530.91 1450.77 Q1533.25 1450.39 1535.31 1450.39 Q1540.63 1450.39 1543.74 1452.83 Q1546.84 1455.23 1546.84 1459.35 Q1546.84 1462.22 1545.19 1464.21 Q1543.55 1466.18 1540.52 1466.95 Z" fill="#000000" fill-rule="nonzero" fill-opacity="1" /><path clip-path="url(#clip720)" d="M1919.04 1455.09 L1907.23 1473.54 L1919.04 1473.54 L1919.04 1455.09 M1917.81 1451.02 L1923.69 1451.02 L1923.69 1473.54 L1928.62 1473.54 L1928.62 1477.43 L1923.69 1477.43 L1923.69 1485.58 L1919.04 1485.58 L1919.04 1477.43 L1903.44 1477.43 L1903.44 1472.92 L1917.81 1451.02 Z" fill="#000000" fill-rule="nonzero" fill-opacity="1" /><path clip-path="url(#clip720)" d="M2286.07 1451.02 L2304.43 1451.02 L2304.43 1454.96 L2290.35 1454.96 L2290.35 1463.43 Q2291.37 1463.08 2292.39 1462.92 Q2293.41 1462.73 2294.43 1462.73 Q2300.21 1462.73 2303.59 1465.9 Q2306.97 1469.08 2306.97 1474.49 Q2306.97 1480.07 2303.5 1483.17 Q2300.03 1486.25 2293.71 1486.25 Q2291.53 1486.25 2289.26 1485.88 Q2287.02 1485.51 2284.61 1484.77 L2284.61 1480.07 Q2286.69 1481.2 2288.92 1481.76 Q2291.14 1482.32 2293.62 1482.32 Q2297.62 1482.32 2299.96 1480.21 Q2302.3 1478.1 2302.3 1474.49 Q2302.3 1470.88 2299.96 1468.77 Q2297.62 1466.67 2293.62 1466.67 Q2291.74 1466.67 2289.87 1467.08 Q2288.01 1467.5 2286.07 1468.38 L2286.07 1451.02 Z" fill="#000000" fill-rule="nonzero" fill-opacity="1" /><path clip-path="url(#clip720)" d="M974.666 1550.25 Q974.666 1556.71 977.308 1560.4 Q979.982 1564.07 984.629 1564.07 Q989.276 1564.07 991.949 1560.4 Q994.623 1556.71 994.623 1550.25 Q994.623 1543.79 991.949 1540.13 Q989.276 1536.44 984.629 1536.44 Q979.982 1536.44 977.308 1540.13 Q974.666 1543.79 974.666 1550.25 M994.623 1562.7 Q992.777 1565.88 989.944 1567.44 Q987.143 1568.97 983.196 1568.97 Q976.735 1568.97 972.661 1563.81 Q968.619 1558.65 968.619 1550.25 Q968.619 1541.85 972.661 1536.69 Q976.735 1531.54 983.196 1531.54 Q987.143 1531.54 989.944 1533.1 Q992.777 1534.62 994.623 1537.81 L994.623 1532.4 L1000.48 1532.4 L1000.48 1581.6 L994.623 1581.6 L994.623 1562.7 Z" fill="#000000" fill-rule="nonzero" fill-opacity="1" /><path clip-path="url(#clip720)" d="M1039.63 1578.87 L1039.63 1583.42 L1005.76 1583.42 L1005.76 1578.87 L1039.63 1578.87 Z" fill="#000000" fill-rule="nonzero" fill-opacity="1" /><path clip-path="url(#clip720)" d="M1065.79 1537.87 Q1064.8 1537.3 1063.63 1537.04 Q1062.48 1536.76 1061.08 1536.76 Q1056.12 1536.76 1053.44 1540 Q1050.8 1543.22 1050.8 1549.27 L1050.8 1568.04 L1044.91 1568.04 L1044.91 1532.4 L1050.8 1532.4 L1050.8 1537.93 Q1052.65 1534.69 1055.61 1533.13 Q1058.57 1531.54 1062.8 1531.54 Q1063.4 1531.54 1064.14 1531.63 Q1064.87 1531.7 1065.76 1531.85 L1065.79 1537.87 Z" fill="#000000" fill-rule="nonzero" fill-opacity="1" /><path clip-path="url(#clip720)" d="M1088.14 1550.12 Q1081.04 1550.12 1078.3 1551.75 Q1075.56 1553.37 1075.56 1557.29 Q1075.56 1560.4 1077.6 1562.25 Q1079.67 1564.07 1083.2 1564.07 Q1088.07 1564.07 1091 1560.63 Q1093.96 1557.16 1093.96 1551.43 L1093.96 1550.12 L1088.14 1550.12 M1099.82 1547.71 L1099.82 1568.04 L1093.96 1568.04 L1093.96 1562.63 Q1091.95 1565.88 1088.96 1567.44 Q1085.97 1568.97 1081.64 1568.97 Q1076.17 1568.97 1072.92 1565.91 Q1069.71 1562.82 1069.71 1557.67 Q1069.71 1551.65 1073.72 1548.6 Q1077.76 1545.54 1085.75 1545.54 L1093.96 1545.54 L1093.96 1544.97 Q1093.96 1540.93 1091.29 1538.73 Q1088.64 1536.5 1083.84 1536.5 Q1080.78 1536.5 1077.89 1537.23 Q1074.99 1537.97 1072.32 1539.43 L1072.32 1534.02 Q1075.53 1532.78 1078.55 1532.17 Q1081.58 1531.54 1084.44 1531.54 Q1092.18 1531.54 1096 1535.55 Q1099.82 1539.56 1099.82 1547.71 Z" fill="#000000" fill-rule="nonzero" fill-opacity="1" /><path clip-path="url(#clip720)" d="M1111.88 1532.4 L1117.74 1532.4 L1117.74 1568.04 L1111.88 1568.04 L1111.88 1532.4 M1111.88 1518.52 L1117.74 1518.52 L1117.74 1525.93 L1111.88 1525.93 L1111.88 1518.52 Z" fill="#000000" fill-rule="nonzero" fill-opacity="1" /><path clip-path="url(#clip720)" d="M1159.62 1546.53 L1159.62 1568.04 L1153.77 1568.04 L1153.77 1546.72 Q1153.77 1541.66 1151.79 1539.14 Q1149.82 1536.63 1145.87 1536.63 Q1141.13 1536.63 1138.39 1539.65 Q1135.66 1542.68 1135.66 1547.9 L1135.66 1568.04 L1129.77 1568.04 L1129.77 1532.4 L1135.66 1532.4 L1135.66 1537.93 Q1137.76 1534.72 1140.59 1533.13 Q1143.45 1531.54 1147.18 1531.54 Q1153.32 1531.54 1156.47 1535.36 Q1159.62 1539.14 1159.62 1546.53 Z" fill="#000000" fill-rule="nonzero" fill-opacity="1" /><path clip-path="url(#clip720)" d="M1205.84 1536.5 Q1201.13 1536.5 1198.39 1540.19 Q1195.65 1543.85 1195.65 1550.25 Q1195.65 1556.65 1198.36 1560.34 Q1201.09 1564 1205.84 1564 Q1210.52 1564 1213.25 1560.31 Q1215.99 1556.62 1215.99 1550.25 Q1215.99 1543.92 1213.25 1540.23 Q1210.52 1536.5 1205.84 1536.5 M1205.84 1531.54 Q1213.48 1531.54 1217.84 1536.5 Q1222.2 1541.47 1222.2 1550.25 Q1222.2 1559 1217.84 1564 Q1213.48 1568.97 1205.84 1568.97 Q1198.17 1568.97 1193.81 1564 Q1189.48 1559 1189.48 1550.25 Q1189.48 1541.47 1193.81 1536.5 Q1198.17 1531.54 1205.84 1531.54 Z" fill="#000000" fill-rule="nonzero" fill-opacity="1" /><path clip-path="url(#clip720)" d="M1252.56 1537.87 Q1251.57 1537.3 1250.4 1537.04 Q1249.25 1536.76 1247.85 1536.76 Q1242.89 1536.76 1240.21 1540 Q1237.57 1543.22 1237.57 1549.27 L1237.57 1568.04 L1231.68 1568.04 L1231.68 1532.4 L1237.57 1532.4 L1237.57 1537.93 Q1239.42 1534.69 1242.38 1533.13 Q1245.34 1531.54 1249.57 1531.54 Q1250.17 1531.54 1250.91 1531.63 Q1251.64 1531.7 1252.53 1531.85 L1252.56 1537.87 Z" fill="#000000" fill-rule="nonzero" fill-opacity="1" /><path clip-path="url(#clip720)" d="M1282.93 1550.25 Q1282.93 1556.71 1285.57 1560.4 Q1288.24 1564.07 1292.89 1564.07 Q1297.53 1564.07 1300.21 1560.4 Q1302.88 1556.71 1302.88 1550.25 Q1302.88 1543.79 1300.21 1540.13 Q1297.53 1536.44 1292.89 1536.44 Q1288.24 1536.44 1285.57 1540.13 Q1282.93 1543.79 1282.93 1550.25 M1302.88 1562.7 Q1301.04 1565.88 1298.2 1567.44 Q1295.4 1568.97 1291.46 1568.97 Q1284.99 1568.97 1280.92 1563.81 Q1276.88 1558.65 1276.88 1550.25 Q1276.88 1541.85 1280.92 1536.69 Q1284.99 1531.54 1291.46 1531.54 Q1295.4 1531.54 1298.2 1533.1 Q1301.04 1534.62 1302.88 1537.81 L1302.88 1532.4 L1308.74 1532.4 L1308.74 1581.6 L1302.88 1581.6 L1302.88 1562.7 Z" fill="#000000" fill-rule="nonzero" fill-opacity="1" /><path clip-path="url(#clip720)" d="M1347.89 1578.87 L1347.89 1583.42 L1314.02 1583.42 L1314.02 1578.87 L1347.89 1578.87 Z" fill="#000000" fill-rule="nonzero" fill-opacity="1" /><path clip-path="url(#clip720)" d="M1376.12 1533.45 L1376.12 1538.98 Q1373.64 1537.71 1370.96 1537.07 Q1368.29 1536.44 1365.43 1536.44 Q1361.06 1536.44 1358.87 1537.77 Q1356.7 1539.11 1356.7 1541.79 Q1356.7 1543.82 1358.26 1545 Q1359.82 1546.15 1364.53 1547.2 L1366.54 1547.64 Q1372.78 1548.98 1375.39 1551.43 Q1378.03 1553.85 1378.03 1558.21 Q1378.03 1563.17 1374.08 1566.07 Q1370.17 1568.97 1363.29 1568.97 Q1360.43 1568.97 1357.31 1568.39 Q1354.22 1567.85 1350.78 1566.74 L1350.78 1560.69 Q1354.03 1562.38 1357.18 1563.24 Q1360.33 1564.07 1363.42 1564.07 Q1367.56 1564.07 1369.79 1562.66 Q1372.01 1561.23 1372.01 1558.65 Q1372.01 1556.27 1370.39 1554.99 Q1368.8 1553.72 1363.36 1552.54 L1361.32 1552.07 Q1355.88 1550.92 1353.46 1548.56 Q1351.04 1546.18 1351.04 1542.04 Q1351.04 1537.01 1354.6 1534.27 Q1358.17 1531.54 1364.73 1531.54 Q1367.97 1531.54 1370.84 1532.01 Q1373.7 1532.49 1376.12 1533.45 Z" fill="#000000" fill-rule="nonzero" fill-opacity="1" /><path clip-path="url(#clip720)" d="M1416.99 1546.53 L1416.99 1568.04 L1411.13 1568.04 L1411.13 1546.72 Q1411.13 1541.66 1409.16 1539.14 Q1407.18 1536.63 1403.24 1536.63 Q1398.5 1536.63 1395.76 1539.65 Q1393.02 1542.68 1393.02 1547.9 L1393.02 1568.04 L1387.13 1568.04 L1387.13 1532.4 L1393.02 1532.4 L1393.02 1537.93 Q1395.12 1534.72 1397.95 1533.13 Q1400.82 1531.54 1404.54 1531.54 Q1410.69 1531.54 1413.84 1535.36 Q1416.99 1539.14 1416.99 1546.53 Z" fill="#000000" fill-rule="nonzero" fill-opacity="1" /><path clip-path="url(#clip720)" d="M1442.48 1536.5 Q1437.77 1536.5 1435.03 1540.19 Q1432.3 1543.85 1432.3 1550.25 Q1432.3 1556.65 1435 1560.34 Q1437.74 1564 1442.48 1564 Q1447.16 1564 1449.9 1560.31 Q1452.64 1556.62 1452.64 1550.25 Q1452.64 1543.92 1449.9 1540.23 Q1447.16 1536.5 1442.48 1536.5 M1442.48 1531.54 Q1450.12 1531.54 1454.48 1536.5 Q1458.84 1541.47 1458.84 1550.25 Q1458.84 1559 1454.48 1564 Q1450.12 1568.97 1442.48 1568.97 Q1434.81 1568.97 1430.45 1564 Q1426.12 1559 1426.12 1550.25 Q1426.12 1541.47 1430.45 1536.5 Q1434.81 1531.54 1442.48 1531.54 Z" fill="#000000" fill-rule="nonzero" fill-opacity="1" /><path clip-path="url(#clip720)" d="M1465.14 1532.4 L1471 1532.4 L1478.32 1560.21 L1485.61 1532.4 L1492.52 1532.4 L1499.84 1560.21 L1507.13 1532.4 L1512.98 1532.4 L1503.66 1568.04 L1496.75 1568.04 L1489.08 1538.83 L1481.38 1568.04 L1474.47 1568.04 L1465.14 1532.4 Z" fill="#000000" fill-rule="nonzero" fill-opacity="1" /><path clip-path="url(#clip720)" d="M1542.04 1518.52 L1555.54 1518.52 L1555.54 1523.07 L1547.9 1523.07 L1547.9 1572.09 L1555.54 1572.09 L1555.54 1576.64 L1542.04 1576.64 L1542.04 1518.52 Z" fill="#000000" fill-rule="nonzero" fill-opacity="1" /><path clip-path="url(#clip720)" d="M1591.47 1549.81 Q1591.47 1543.44 1588.83 1539.94 Q1586.22 1536.44 1581.48 1536.44 Q1576.77 1536.44 1574.12 1539.94 Q1571.51 1543.44 1571.51 1549.81 Q1571.51 1556.14 1574.12 1559.64 Q1576.77 1563.14 1581.48 1563.14 Q1586.22 1563.14 1588.83 1559.64 Q1591.47 1556.14 1591.47 1549.81 M1597.33 1563.62 Q1597.33 1572.72 1593.29 1577.15 Q1589.24 1581.6 1580.9 1581.6 Q1577.82 1581.6 1575.08 1581.13 Q1572.34 1580.68 1569.76 1579.72 L1569.76 1574.03 Q1572.34 1575.43 1574.86 1576.1 Q1577.37 1576.76 1579.98 1576.76 Q1585.74 1576.76 1588.61 1573.74 Q1591.47 1570.75 1591.47 1564.67 L1591.47 1561.77 Q1589.66 1564.92 1586.82 1566.48 Q1583.99 1568.04 1580.05 1568.04 Q1573.49 1568.04 1569.48 1563.05 Q1565.47 1558.05 1565.47 1549.81 Q1565.47 1541.53 1569.48 1536.53 Q1573.49 1531.54 1580.05 1531.54 Q1583.99 1531.54 1586.82 1533.1 Q1589.66 1534.66 1591.47 1537.81 L1591.47 1532.4 L1597.33 1532.4 L1597.33 1563.62 Z" fill="#000000" fill-rule="nonzero" fill-opacity="1" /><path clip-path="url(#clip720)" d="M1619.8 1520.52 L1625.21 1520.52 L1608.66 1574.09 L1603.25 1574.09 L1619.8 1520.52 Z" fill="#000000" fill-rule="nonzero" fill-opacity="1" /><path clip-path="url(#clip720)" d="M1631.13 1518.52 L1637.02 1518.52 L1637.02 1547.77 L1654.49 1532.4 L1661.97 1532.4 L1643.07 1549.07 L1662.77 1568.04 L1655.13 1568.04 L1637.02 1550.63 L1637.02 1568.04 L1631.13 1568.04 L1631.13 1518.52 Z" fill="#000000" fill-rule="nonzero" fill-opacity="1" /><path clip-path="url(#clip720)" d="M1692.56 1549.81 Q1692.56 1543.44 1689.92 1539.94 Q1687.31 1536.44 1682.56 1536.44 Q1677.85 1536.44 1675.21 1539.94 Q1672.6 1543.44 1672.6 1549.81 Q1672.6 1556.14 1675.21 1559.64 Q1677.85 1563.14 1682.56 1563.14 Q1687.31 1563.14 1689.92 1559.64 Q1692.56 1556.14 1692.56 1549.81 M1698.42 1563.62 Q1698.42 1572.72 1694.37 1577.15 Q1690.33 1581.6 1681.99 1581.6 Q1678.9 1581.6 1676.17 1581.13 Q1673.43 1580.68 1670.85 1579.72 L1670.85 1574.03 Q1673.43 1575.43 1675.94 1576.1 Q1678.46 1576.76 1681.07 1576.76 Q1686.83 1576.76 1689.69 1573.74 Q1692.56 1570.75 1692.56 1564.67 L1692.56 1561.77 Q1690.74 1564.92 1687.91 1566.48 Q1685.08 1568.04 1681.13 1568.04 Q1674.58 1568.04 1670.57 1563.05 Q1666.55 1558.05 1666.55 1549.81 Q1666.55 1541.53 1670.57 1536.53 Q1674.58 1531.54 1681.13 1531.54 Q1685.08 1531.54 1687.91 1533.1 Q1690.74 1534.66 1692.56 1537.81 L1692.56 1532.4 L1698.42 1532.4 L1698.42 1563.62 Z" fill="#000000" fill-rule="nonzero" fill-opacity="1" /><path clip-path="url(#clip720)" d="M1724.16 1518.52 L1724.16 1576.64 L1710.67 1576.64 L1710.67 1572.09 L1718.28 1572.09 L1718.28 1523.07 L1710.67 1523.07 L1710.67 1518.52 L1724.16 1518.52 Z" fill="#000000" fill-rule="nonzero" fill-opacity="1" /><polyline clip-path="url(#clip720)" style="stroke:#000000; stroke-linecap:round; stroke-linejoin:round; stroke-width:4; stroke-opacity:1; fill:none" points="340.028,1423.18 340.028,47.2441 "/>
<polyline clip-path="url(#clip720)" style="stroke:#000000; stroke-linecap:round; stroke-linejoin:round; stroke-width:4; stroke-opacity:1; fill:none" points="340.028,1384.24 358.925,1384.24 "/>
<polyline clip-path="url(#clip720)" style="stroke:#000000; stroke-linecap:round; stroke-linejoin:round; stroke-width:4; stroke-opacity:1; fill:none" points="340.028,1063.71 358.925,1063.71 "/>
<polyline clip-path="url(#clip720)" style="stroke:#000000; stroke-linecap:round; stroke-linejoin:round; stroke-width:4; stroke-opacity:1; fill:none" points="340.028,743.172 358.925,743.172 "/>
<polyline clip-path="url(#clip720)" style="stroke:#000000; stroke-linecap:round; stroke-linejoin:round; stroke-width:4; stroke-opacity:1; fill:none" points="340.028,422.639 358.925,422.639 "/>
<polyline clip-path="url(#clip720)" style="stroke:#000000; stroke-linecap:round; stroke-linejoin:round; stroke-width:4; stroke-opacity:1; fill:none" points="340.028,102.105 358.925,102.105 "/>
<path clip-path="url(#clip720)" d="M126.205 1370.04 Q122.593 1370.04 120.765 1373.6 Q118.959 1377.14 118.959 1384.27 Q118.959 1391.38 120.765 1394.94 Q122.593 1398.49 126.205 1398.49 Q129.839 1398.49 131.644 1394.94 Q133.473 1391.38 133.473 1384.27 Q133.473 1377.14 131.644 1373.6 Q129.839 1370.04 126.205 1370.04 M126.205 1366.33 Q132.015 1366.33 135.07 1370.94 Q138.149 1375.52 138.149 1384.27 Q138.149 1393 135.07 1397.61 Q132.015 1402.19 126.205 1402.19 Q120.394 1402.19 117.316 1397.61 Q114.26 1393 114.26 1384.27 Q114.26 1375.52 117.316 1370.94 Q120.394 1366.33 126.205 1366.33 Z" fill="#000000" fill-rule="nonzero" fill-opacity="1" /><path clip-path="url(#clip720)" d="M146.366 1395.64 L151.251 1395.64 L151.251 1401.52 L146.366 1401.52 L146.366 1395.64 Z" fill="#000000" fill-rule="nonzero" fill-opacity="1" /><path clip-path="url(#clip720)" d="M171.436 1370.04 Q167.825 1370.04 165.996 1373.6 Q164.19 1377.14 164.19 1384.27 Q164.19 1391.38 165.996 1394.94 Q167.825 1398.49 171.436 1398.49 Q175.07 1398.49 176.876 1394.94 Q178.704 1391.38 178.704 1384.27 Q178.704 1377.14 176.876 1373.6 Q175.07 1370.04 171.436 1370.04 M171.436 1366.33 Q177.246 1366.33 180.301 1370.94 Q183.38 1375.52 183.38 1384.27 Q183.38 1393 180.301 1397.61 Q177.246 1402.19 171.436 1402.19 Q165.626 1402.19 162.547 1397.61 Q159.491 1393 159.491 1384.27 Q159.491 1375.52 162.547 1370.94 Q165.626 1366.33 171.436 1366.33 Z" fill="#000000" fill-rule="nonzero" fill-opacity="1" /><path clip-path="url(#clip720)" d="M201.598 1370.04 Q197.987 1370.04 196.158 1373.6 Q194.352 1377.14 194.352 1384.27 Q194.352 1391.38 196.158 1394.94 Q197.987 1398.49 201.598 1398.49 Q205.232 1398.49 207.037 1394.94 Q208.866 1391.38 208.866 1384.27 Q208.866 1377.14 207.037 1373.6 Q205.232 1370.04 201.598 1370.04 M201.598 1366.33 Q207.408 1366.33 210.463 1370.94 Q213.542 1375.52 213.542 1384.27 Q213.542 1393 210.463 1397.61 Q207.408 1402.19 201.598 1402.19 Q195.787 1402.19 192.709 1397.61 Q189.653 1393 189.653 1384.27 Q189.653 1375.52 192.709 1370.94 Q195.787 1366.33 201.598 1366.33 Z" fill="#000000" fill-rule="nonzero" fill-opacity="1" /><path clip-path="url(#clip720)" d="M231.76 1370.04 Q228.148 1370.04 226.32 1373.6 Q224.514 1377.14 224.514 1384.27 Q224.514 1391.38 226.32 1394.94 Q228.148 1398.49 231.76 1398.49 Q235.394 1398.49 237.199 1394.94 Q239.028 1391.38 239.028 1384.27 Q239.028 1377.14 237.199 1373.6 Q235.394 1370.04 231.76 1370.04 M231.76 1366.33 Q237.57 1366.33 240.625 1370.94 Q243.704 1375.52 243.704 1384.27 Q243.704 1393 240.625 1397.61 Q237.57 1402.19 231.76 1402.19 Q225.949 1402.19 222.871 1397.61 Q219.815 1393 219.815 1384.27 Q219.815 1375.52 222.871 1370.94 Q225.949 1366.33 231.76 1366.33 Z" fill="#000000" fill-rule="nonzero" fill-opacity="1" /><path clip-path="url(#clip720)" d="M261.921 1370.04 Q258.31 1370.04 256.482 1373.6 Q254.676 1377.14 254.676 1384.27 Q254.676 1391.38 256.482 1394.94 Q258.31 1398.49 261.921 1398.49 Q265.556 1398.49 267.361 1394.94 Q269.19 1391.38 269.19 1384.27 Q269.19 1377.14 267.361 1373.6 Q265.556 1370.04 261.921 1370.04 M261.921 1366.33 Q267.732 1366.33 270.787 1370.94 Q273.866 1375.52 273.866 1384.27 Q273.866 1393 270.787 1397.61 Q267.732 1402.19 261.921 1402.19 Q256.111 1402.19 253.033 1397.61 Q249.977 1393 249.977 1384.27 Q249.977 1375.52 253.033 1370.94 Q256.111 1366.33 261.921 1366.33 Z" fill="#000000" fill-rule="nonzero" fill-opacity="1" /><path clip-path="url(#clip720)" d="M292.083 1370.04 Q288.472 1370.04 286.643 1373.6 Q284.838 1377.14 284.838 1384.27 Q284.838 1391.38 286.643 1394.94 Q288.472 1398.49 292.083 1398.49 Q295.718 1398.49 297.523 1394.94 Q299.352 1391.38 299.352 1384.27 Q299.352 1377.14 297.523 1373.6 Q295.718 1370.04 292.083 1370.04 M292.083 1366.33 Q297.893 1366.33 300.949 1370.94 Q304.028 1375.52 304.028 1384.27 Q304.028 1393 300.949 1397.61 Q297.893 1402.19 292.083 1402.19 Q286.273 1402.19 283.194 1397.61 Q280.139 1393 280.139 1384.27 Q280.139 1375.52 283.194 1370.94 Q286.273 1366.33 292.083 1366.33 Z" fill="#000000" fill-rule="nonzero" fill-opacity="1" /><path clip-path="url(#clip720)" d="M127.2 1049.5 Q123.589 1049.5 121.76 1053.07 Q119.955 1056.61 119.955 1063.74 Q119.955 1070.85 121.76 1074.41 Q123.589 1077.95 127.2 1077.95 Q130.834 1077.95 132.64 1074.41 Q134.468 1070.85 134.468 1063.74 Q134.468 1056.61 132.64 1053.07 Q130.834 1049.5 127.2 1049.5 M127.2 1045.8 Q133.01 1045.8 136.066 1050.41 Q139.144 1054.99 139.144 1063.74 Q139.144 1072.47 136.066 1077.07 Q133.01 1081.66 127.2 1081.66 Q121.39 1081.66 118.311 1077.07 Q115.256 1072.47 115.256 1063.74 Q115.256 1054.99 118.311 1050.41 Q121.39 1045.8 127.2 1045.8 Z" fill="#000000" fill-rule="nonzero" fill-opacity="1" /><path clip-path="url(#clip720)" d="M147.362 1075.11 L152.246 1075.11 L152.246 1080.99 L147.362 1080.99 L147.362 1075.11 Z" fill="#000000" fill-rule="nonzero" fill-opacity="1" /><path clip-path="url(#clip720)" d="M172.431 1049.5 Q168.82 1049.5 166.991 1053.07 Q165.186 1056.61 165.186 1063.74 Q165.186 1070.85 166.991 1074.41 Q168.82 1077.95 172.431 1077.95 Q176.065 1077.95 177.871 1074.41 Q179.7 1070.85 179.7 1063.74 Q179.7 1056.61 177.871 1053.07 Q176.065 1049.5 172.431 1049.5 M172.431 1045.8 Q178.241 1045.8 181.297 1050.41 Q184.376 1054.99 184.376 1063.74 Q184.376 1072.47 181.297 1077.07 Q178.241 1081.66 172.431 1081.66 Q166.621 1081.66 163.542 1077.07 Q160.487 1072.47 160.487 1063.74 Q160.487 1054.99 163.542 1050.41 Q166.621 1045.8 172.431 1045.8 Z" fill="#000000" fill-rule="nonzero" fill-opacity="1" /><path clip-path="url(#clip720)" d="M202.593 1049.5 Q198.982 1049.5 197.153 1053.07 Q195.348 1056.61 195.348 1063.74 Q195.348 1070.85 197.153 1074.41 Q198.982 1077.95 202.593 1077.95 Q206.227 1077.95 208.033 1074.41 Q209.861 1070.85 209.861 1063.74 Q209.861 1056.61 208.033 1053.07 Q206.227 1049.5 202.593 1049.5 M202.593 1045.8 Q208.403 1045.8 211.459 1050.41 Q214.537 1054.99 214.537 1063.74 Q214.537 1072.47 211.459 1077.07 Q208.403 1081.66 202.593 1081.66 Q196.783 1081.66 193.704 1077.07 Q190.649 1072.47 190.649 1063.74 Q190.649 1054.99 193.704 1050.41 Q196.783 1045.8 202.593 1045.8 Z" fill="#000000" fill-rule="nonzero" fill-opacity="1" /><path clip-path="url(#clip720)" d="M232.755 1049.5 Q229.144 1049.5 227.315 1053.07 Q225.51 1056.61 225.51 1063.74 Q225.51 1070.85 227.315 1074.41 Q229.144 1077.95 232.755 1077.95 Q236.389 1077.95 238.195 1074.41 Q240.023 1070.85 240.023 1063.74 Q240.023 1056.61 238.195 1053.07 Q236.389 1049.5 232.755 1049.5 M232.755 1045.8 Q238.565 1045.8 241.621 1050.41 Q244.699 1054.99 244.699 1063.74 Q244.699 1072.47 241.621 1077.07 Q238.565 1081.66 232.755 1081.66 Q226.945 1081.66 223.866 1077.07 Q220.811 1072.47 220.811 1063.74 Q220.811 1054.99 223.866 1050.41 Q226.945 1045.8 232.755 1045.8 Z" fill="#000000" fill-rule="nonzero" fill-opacity="1" /><path clip-path="url(#clip720)" d="M256.945 1077.05 L273.264 1077.05 L273.264 1080.99 L251.32 1080.99 L251.32 1077.05 Q253.982 1074.3 258.565 1069.67 Q263.171 1065.01 264.352 1063.67 Q266.597 1061.15 267.477 1059.41 Q268.38 1057.65 268.38 1055.96 Q268.38 1053.21 266.435 1051.47 Q264.514 1049.74 261.412 1049.74 Q259.213 1049.74 256.759 1050.5 Q254.329 1051.26 251.551 1052.81 L251.551 1048.09 Q254.375 1046.96 256.829 1046.38 Q259.283 1045.8 261.32 1045.8 Q266.69 1045.8 269.884 1048.49 Q273.079 1051.17 273.079 1055.66 Q273.079 1057.79 272.269 1059.71 Q271.482 1061.61 269.375 1064.2 Q268.796 1064.87 265.695 1068.09 Q262.593 1071.29 256.945 1077.05 Z" fill="#000000" fill-rule="nonzero" fill-opacity="1" /><path clip-path="url(#clip720)" d="M283.125 1046.43 L301.481 1046.43 L301.481 1050.36 L287.407 1050.36 L287.407 1058.83 Q288.426 1058.49 289.444 1058.32 Q290.463 1058.14 291.481 1058.14 Q297.268 1058.14 300.648 1061.31 Q304.028 1064.48 304.028 1069.9 Q304.028 1075.48 300.555 1078.58 Q297.083 1081.66 290.764 1081.66 Q288.588 1081.66 286.319 1081.29 Q284.074 1080.92 281.667 1080.17 L281.667 1075.48 Q283.75 1076.61 285.972 1077.17 Q288.194 1077.72 290.671 1077.72 Q294.676 1077.72 297.014 1075.61 Q299.352 1073.51 299.352 1069.9 Q299.352 1066.29 297.014 1064.18 Q294.676 1062.07 290.671 1062.07 Q288.796 1062.07 286.921 1062.49 Q285.069 1062.91 283.125 1063.79 L283.125 1046.43 Z" fill="#000000" fill-rule="nonzero" fill-opacity="1" /><path clip-path="url(#clip720)" d="M126.205 728.97 Q122.593 728.97 120.765 732.535 Q118.959 736.077 118.959 743.207 Q118.959 750.313 120.765 753.878 Q122.593 757.419 126.205 757.419 Q129.839 757.419 131.644 753.878 Q133.473 750.313 133.473 743.207 Q133.473 736.077 131.644 732.535 Q129.839 728.97 126.205 728.97 M126.205 725.267 Q132.015 725.267 135.07 729.873 Q138.149 734.457 138.149 743.207 Q138.149 751.933 135.07 756.54 Q132.015 761.123 126.205 761.123 Q120.394 761.123 117.316 756.54 Q114.26 751.933 114.26 743.207 Q114.26 734.457 117.316 729.873 Q120.394 725.267 126.205 725.267 Z" fill="#000000" fill-rule="nonzero" fill-opacity="1" /><path clip-path="url(#clip720)" d="M146.366 754.572 L151.251 754.572 L151.251 760.452 L146.366 760.452 L146.366 754.572 Z" fill="#000000" fill-rule="nonzero" fill-opacity="1" /><path clip-path="url(#clip720)" d="M171.436 728.97 Q167.825 728.97 165.996 732.535 Q164.19 736.077 164.19 743.207 Q164.19 750.313 165.996 753.878 Q167.825 757.419 171.436 757.419 Q175.07 757.419 176.876 753.878 Q178.704 750.313 178.704 743.207 Q178.704 736.077 176.876 732.535 Q175.07 728.97 171.436 728.97 M171.436 725.267 Q177.246 725.267 180.301 729.873 Q183.38 734.457 183.38 743.207 Q183.38 751.933 180.301 756.54 Q177.246 761.123 171.436 761.123 Q165.626 761.123 162.547 756.54 Q159.491 751.933 159.491 743.207 Q159.491 734.457 162.547 729.873 Q165.626 725.267 171.436 725.267 Z" fill="#000000" fill-rule="nonzero" fill-opacity="1" /><path clip-path="url(#clip720)" d="M201.598 728.97 Q197.987 728.97 196.158 732.535 Q194.352 736.077 194.352 743.207 Q194.352 750.313 196.158 753.878 Q197.987 757.419 201.598 757.419 Q205.232 757.419 207.037 753.878 Q208.866 750.313 208.866 743.207 Q208.866 736.077 207.037 732.535 Q205.232 728.97 201.598 728.97 M201.598 725.267 Q207.408 725.267 210.463 729.873 Q213.542 734.457 213.542 743.207 Q213.542 751.933 210.463 756.54 Q207.408 761.123 201.598 761.123 Q195.787 761.123 192.709 756.54 Q189.653 751.933 189.653 743.207 Q189.653 734.457 192.709 729.873 Q195.787 725.267 201.598 725.267 Z" fill="#000000" fill-rule="nonzero" fill-opacity="1" /><path clip-path="url(#clip720)" d="M231.76 728.97 Q228.148 728.97 226.32 732.535 Q224.514 736.077 224.514 743.207 Q224.514 750.313 226.32 753.878 Q228.148 757.419 231.76 757.419 Q235.394 757.419 237.199 753.878 Q239.028 750.313 239.028 743.207 Q239.028 736.077 237.199 732.535 Q235.394 728.97 231.76 728.97 M231.76 725.267 Q237.57 725.267 240.625 729.873 Q243.704 734.457 243.704 743.207 Q243.704 751.933 240.625 756.54 Q237.57 761.123 231.76 761.123 Q225.949 761.123 222.871 756.54 Q219.815 751.933 219.815 743.207 Q219.815 734.457 222.871 729.873 Q225.949 725.267 231.76 725.267 Z" fill="#000000" fill-rule="nonzero" fill-opacity="1" /><path clip-path="url(#clip720)" d="M251.968 725.892 L270.324 725.892 L270.324 729.827 L256.25 729.827 L256.25 738.299 Q257.269 737.952 258.287 737.79 Q259.306 737.605 260.324 737.605 Q266.111 737.605 269.491 740.776 Q272.87 743.947 272.87 749.364 Q272.87 754.943 269.398 758.044 Q265.926 761.123 259.607 761.123 Q257.431 761.123 255.162 760.753 Q252.917 760.382 250.509 759.642 L250.509 754.943 Q252.593 756.077 254.815 756.632 Q257.037 757.188 259.514 757.188 Q263.519 757.188 265.857 755.081 Q268.195 752.975 268.195 749.364 Q268.195 745.753 265.857 743.646 Q263.519 741.54 259.514 741.54 Q257.639 741.54 255.764 741.957 Q253.912 742.373 251.968 743.253 L251.968 725.892 Z" fill="#000000" fill-rule="nonzero" fill-opacity="1" /><path clip-path="url(#clip720)" d="M292.083 728.97 Q288.472 728.97 286.643 732.535 Q284.838 736.077 284.838 743.207 Q284.838 750.313 286.643 753.878 Q288.472 757.419 292.083 757.419 Q295.718 757.419 297.523 753.878 Q299.352 750.313 299.352 743.207 Q299.352 736.077 297.523 732.535 Q295.718 728.97 292.083 728.97 M292.083 725.267 Q297.893 725.267 300.949 729.873 Q304.028 734.457 304.028 743.207 Q304.028 751.933 300.949 756.54 Q297.893 761.123 292.083 761.123 Q286.273 761.123 283.194 756.54 Q280.139 751.933 280.139 743.207 Q280.139 734.457 283.194 729.873 Q286.273 725.267 292.083 725.267 Z" fill="#000000" fill-rule="nonzero" fill-opacity="1" /><path clip-path="url(#clip720)" d="M127.2 408.437 Q123.589 408.437 121.76 412.002 Q119.955 415.544 119.955 422.673 Q119.955 429.78 121.76 433.345 Q123.589 436.886 127.2 436.886 Q130.834 436.886 132.64 433.345 Q134.468 429.78 134.468 422.673 Q134.468 415.544 132.64 412.002 Q130.834 408.437 127.2 408.437 M127.2 404.734 Q133.01 404.734 136.066 409.34 Q139.144 413.923 139.144 422.673 Q139.144 431.4 136.066 436.007 Q133.01 440.59 127.2 440.59 Q121.39 440.59 118.311 436.007 Q115.256 431.4 115.256 422.673 Q115.256 413.923 118.311 409.34 Q121.39 404.734 127.2 404.734 Z" fill="#000000" fill-rule="nonzero" fill-opacity="1" /><path clip-path="url(#clip720)" d="M147.362 434.039 L152.246 434.039 L152.246 439.919 L147.362 439.919 L147.362 434.039 Z" fill="#000000" fill-rule="nonzero" fill-opacity="1" /><path clip-path="url(#clip720)" d="M172.431 408.437 Q168.82 408.437 166.991 412.002 Q165.186 415.544 165.186 422.673 Q165.186 429.78 166.991 433.345 Q168.82 436.886 172.431 436.886 Q176.065 436.886 177.871 433.345 Q179.7 429.78 179.7 422.673 Q179.7 415.544 177.871 412.002 Q176.065 408.437 172.431 408.437 M172.431 404.734 Q178.241 404.734 181.297 409.34 Q184.376 413.923 184.376 422.673 Q184.376 431.4 181.297 436.007 Q178.241 440.59 172.431 440.59 Q166.621 440.59 163.542 436.007 Q160.487 431.4 160.487 422.673 Q160.487 413.923 163.542 409.34 Q166.621 404.734 172.431 404.734 Z" fill="#000000" fill-rule="nonzero" fill-opacity="1" /><path clip-path="url(#clip720)" d="M202.593 408.437 Q198.982 408.437 197.153 412.002 Q195.348 415.544 195.348 422.673 Q195.348 429.78 197.153 433.345 Q198.982 436.886 202.593 436.886 Q206.227 436.886 208.033 433.345 Q209.861 429.78 209.861 422.673 Q209.861 415.544 208.033 412.002 Q206.227 408.437 202.593 408.437 M202.593 404.734 Q208.403 404.734 211.459 409.34 Q214.537 413.923 214.537 422.673 Q214.537 431.4 211.459 436.007 Q208.403 440.59 202.593 440.59 Q196.783 440.59 193.704 436.007 Q190.649 431.4 190.649 422.673 Q190.649 413.923 193.704 409.34 Q196.783 404.734 202.593 404.734 Z" fill="#000000" fill-rule="nonzero" fill-opacity="1" /><path clip-path="url(#clip720)" d="M232.755 408.437 Q229.144 408.437 227.315 412.002 Q225.51 415.544 225.51 422.673 Q225.51 429.78 227.315 433.345 Q229.144 436.886 232.755 436.886 Q236.389 436.886 238.195 433.345 Q240.023 429.78 240.023 422.673 Q240.023 415.544 238.195 412.002 Q236.389 408.437 232.755 408.437 M232.755 404.734 Q238.565 404.734 241.621 409.34 Q244.699 413.923 244.699 422.673 Q244.699 431.4 241.621 436.007 Q238.565 440.59 232.755 440.59 Q226.945 440.59 223.866 436.007 Q220.811 431.4 220.811 422.673 Q220.811 413.923 223.866 409.34 Q226.945 404.734 232.755 404.734 Z" fill="#000000" fill-rule="nonzero" fill-opacity="1" /><path clip-path="url(#clip720)" d="M251.736 405.359 L273.958 405.359 L273.958 407.349 L261.412 439.919 L256.528 439.919 L268.333 409.294 L251.736 409.294 L251.736 405.359 Z" fill="#000000" fill-rule="nonzero" fill-opacity="1" /><path clip-path="url(#clip720)" d="M283.125 405.359 L301.481 405.359 L301.481 409.294 L287.407 409.294 L287.407 417.766 Q288.426 417.419 289.444 417.257 Q290.463 417.071 291.481 417.071 Q297.268 417.071 300.648 420.243 Q304.028 423.414 304.028 428.831 Q304.028 434.409 300.555 437.511 Q297.083 440.59 290.764 440.59 Q288.588 440.59 286.319 440.219 Q284.074 439.849 281.667 439.108 L281.667 434.409 Q283.75 435.544 285.972 436.099 Q288.194 436.655 290.671 436.655 Q294.676 436.655 297.014 434.548 Q299.352 432.442 299.352 428.831 Q299.352 425.22 297.014 423.113 Q294.676 421.007 290.671 421.007 Q288.796 421.007 286.921 421.423 Q285.069 421.84 283.125 422.72 L283.125 405.359 Z" fill="#000000" fill-rule="nonzero" fill-opacity="1" /><path clip-path="url(#clip720)" d="M126.205 87.904 Q122.593 87.904 120.765 91.4688 Q118.959 95.0104 118.959 102.14 Q118.959 109.246 120.765 112.811 Q122.593 116.353 126.205 116.353 Q129.839 116.353 131.644 112.811 Q133.473 109.246 133.473 102.14 Q133.473 95.0104 131.644 91.4688 Q129.839 87.904 126.205 87.904 M126.205 84.2003 Q132.015 84.2003 135.07 88.8068 Q138.149 93.3901 138.149 102.14 Q138.149 110.867 135.07 115.473 Q132.015 120.057 126.205 120.057 Q120.394 120.057 117.316 115.473 Q114.26 110.867 114.26 102.14 Q114.26 93.3901 117.316 88.8068 Q120.394 84.2003 126.205 84.2003 Z" fill="#000000" fill-rule="nonzero" fill-opacity="1" /><path clip-path="url(#clip720)" d="M146.366 113.506 L151.251 113.506 L151.251 119.385 L146.366 119.385 L146.366 113.506 Z" fill="#000000" fill-rule="nonzero" fill-opacity="1" /><path clip-path="url(#clip720)" d="M171.436 87.904 Q167.825 87.904 165.996 91.4688 Q164.19 95.0104 164.19 102.14 Q164.19 109.246 165.996 112.811 Q167.825 116.353 171.436 116.353 Q175.07 116.353 176.876 112.811 Q178.704 109.246 178.704 102.14 Q178.704 95.0104 176.876 91.4688 Q175.07 87.904 171.436 87.904 M171.436 84.2003 Q177.246 84.2003 180.301 88.8068 Q183.38 93.3901 183.38 102.14 Q183.38 110.867 180.301 115.473 Q177.246 120.057 171.436 120.057 Q165.626 120.057 162.547 115.473 Q159.491 110.867 159.491 102.14 Q159.491 93.3901 162.547 88.8068 Q165.626 84.2003 171.436 84.2003 Z" fill="#000000" fill-rule="nonzero" fill-opacity="1" /><path clip-path="url(#clip720)" d="M201.598 87.904 Q197.987 87.904 196.158 91.4688 Q194.352 95.0104 194.352 102.14 Q194.352 109.246 196.158 112.811 Q197.987 116.353 201.598 116.353 Q205.232 116.353 207.037 112.811 Q208.866 109.246 208.866 102.14 Q208.866 95.0104 207.037 91.4688 Q205.232 87.904 201.598 87.904 M201.598 84.2003 Q207.408 84.2003 210.463 88.8068 Q213.542 93.3901 213.542 102.14 Q213.542 110.867 210.463 115.473 Q207.408 120.057 201.598 120.057 Q195.787 120.057 192.709 115.473 Q189.653 110.867 189.653 102.14 Q189.653 93.3901 192.709 88.8068 Q195.787 84.2003 201.598 84.2003 Z" fill="#000000" fill-rule="nonzero" fill-opacity="1" /><path clip-path="url(#clip720)" d="M222.57 115.45 L230.209 115.45 L230.209 89.0845 L221.898 90.7512 L221.898 86.492 L230.162 84.8253 L234.838 84.8253 L234.838 115.45 L242.477 115.45 L242.477 119.385 L222.57 119.385 L222.57 115.45 Z" fill="#000000" fill-rule="nonzero" fill-opacity="1" /><path clip-path="url(#clip720)" d="M261.921 87.904 Q258.31 87.904 256.482 91.4688 Q254.676 95.0104 254.676 102.14 Q254.676 109.246 256.482 112.811 Q258.31 116.353 261.921 116.353 Q265.556 116.353 267.361 112.811 Q269.19 109.246 269.19 102.14 Q269.19 95.0104 267.361 91.4688 Q265.556 87.904 261.921 87.904 M261.921 84.2003 Q267.732 84.2003 270.787 88.8068 Q273.866 93.3901 273.866 102.14 Q273.866 110.867 270.787 115.473 Q267.732 120.057 261.921 120.057 Q256.111 120.057 253.033 115.473 Q249.977 110.867 249.977 102.14 Q249.977 93.3901 253.033 88.8068 Q256.111 84.2003 261.921 84.2003 Z" fill="#000000" fill-rule="nonzero" fill-opacity="1" /><path clip-path="url(#clip720)" d="M292.083 87.904 Q288.472 87.904 286.643 91.4688 Q284.838 95.0104 284.838 102.14 Q284.838 109.246 286.643 112.811 Q288.472 116.353 292.083 116.353 Q295.718 116.353 297.523 112.811 Q299.352 109.246 299.352 102.14 Q299.352 95.0104 297.523 91.4688 Q295.718 87.904 292.083 87.904 M292.083 84.2003 Q297.893 84.2003 300.949 88.8068 Q304.028 93.3901 304.028 102.14 Q304.028 110.867 300.949 115.473 Q297.893 120.057 292.083 120.057 Q286.273 120.057 283.194 115.473 Q280.139 110.867 280.139 102.14 Q280.139 93.3901 283.194 88.8068 Q286.273 84.2003 292.083 84.2003 Z" fill="#000000" fill-rule="nonzero" fill-opacity="1" /><path clip-path="url(#clip720)" d="M46.0847 1173.43 Q46.0847 1180.52 47.7079 1183.26 Q49.3312 1186 53.2461 1186 Q56.3653 1186 58.2114 1183.96 Q60.0256 1181.89 60.0256 1178.36 Q60.0256 1173.49 56.5881 1170.56 Q53.1188 1167.6 47.3897 1167.6 L46.0847 1167.6 L46.0847 1173.43 M43.6657 1161.75 L64.0042 1161.75 L64.0042 1167.6 L58.5933 1167.6 Q61.8398 1169.61 63.3994 1172.6 Q64.9272 1175.59 64.9272 1179.92 Q64.9272 1185.39 61.8716 1188.64 Q58.7843 1191.86 53.6281 1191.86 Q47.6125 1191.86 44.5569 1187.85 Q41.5014 1183.8 41.5014 1175.81 L41.5014 1167.6 L40.9285 1167.6 Q36.8862 1167.6 34.6901 1170.28 Q32.4621 1172.92 32.4621 1177.72 Q32.4621 1180.78 33.1941 1183.68 Q33.9262 1186.57 35.3903 1189.25 L29.9795 1189.25 Q28.7381 1186.03 28.1334 1183.01 Q27.4968 1179.98 27.4968 1177.12 Q27.4968 1169.38 31.5072 1165.57 Q35.5176 1161.75 43.6657 1161.75 Z" fill="#000000" fill-rule="nonzero" fill-opacity="1" /><path clip-path="url(#clip720)" d="M29.7248 1124.03 L35.1993 1124.03 Q33.8307 1126.51 33.1623 1129.03 Q32.4621 1131.51 32.4621 1134.06 Q32.4621 1139.75 36.0905 1142.9 Q39.6872 1146.05 46.212 1146.05 Q52.7369 1146.05 56.3653 1142.9 Q59.9619 1139.75 59.9619 1134.06 Q59.9619 1131.51 59.2935 1129.03 Q58.5933 1126.51 57.2247 1124.03 L62.6355 1124.03 Q63.7814 1126.48 64.3543 1129.12 Q64.9272 1131.73 64.9272 1134.69 Q64.9272 1142.74 59.8664 1147.49 Q54.8057 1152.23 46.212 1152.23 Q37.491 1152.23 32.4939 1147.46 Q27.4968 1142.65 27.4968 1134.31 Q27.4968 1131.6 28.0697 1129.03 Q28.6108 1126.45 29.7248 1124.03 Z" fill="#000000" fill-rule="nonzero" fill-opacity="1" /><path clip-path="url(#clip720)" d="M29.7248 1088.19 L35.1993 1088.19 Q33.8307 1090.67 33.1623 1093.19 Q32.4621 1095.67 32.4621 1098.22 Q32.4621 1103.91 36.0905 1107.06 Q39.6872 1110.22 46.212 1110.22 Q52.7369 1110.22 56.3653 1107.06 Q59.9619 1103.91 59.9619 1098.22 Q59.9619 1095.67 59.2935 1093.19 Q58.5933 1090.67 57.2247 1088.19 L62.6355 1088.19 Q63.7814 1090.64 64.3543 1093.28 Q64.9272 1095.89 64.9272 1098.85 Q64.9272 1106.91 59.8664 1111.65 Q54.8057 1116.39 46.212 1116.39 Q37.491 1116.39 32.4939 1111.62 Q27.4968 1106.81 27.4968 1098.47 Q27.4968 1095.77 28.0697 1093.19 Q28.6108 1090.61 29.7248 1088.19 Z" fill="#000000" fill-rule="nonzero" fill-opacity="1" /><path clip-path="url(#clip720)" d="M33.8307 1057.35 Q33.2578 1058.34 33.0032 1059.51 Q32.7167 1060.66 32.7167 1062.06 Q32.7167 1067.02 35.9632 1069.7 Q39.1779 1072.34 45.2253 1072.34 L64.0042 1072.34 L64.0042 1078.23 L28.3562 1078.23 L28.3562 1072.34 L33.8944 1072.34 Q30.6479 1070.49 29.0883 1067.53 Q27.4968 1064.57 27.4968 1060.34 Q27.4968 1059.74 27.5923 1059 Q27.656 1058.27 27.8151 1057.38 L33.8307 1057.35 Z" fill="#000000" fill-rule="nonzero" fill-opacity="1" /><path clip-path="url(#clip720)" d="M44.7161 1022.15 L47.5806 1022.15 L47.5806 1049.07 Q53.6281 1048.69 56.8109 1045.44 Q59.9619 1042.17 59.9619 1036.34 Q59.9619 1032.97 59.1344 1029.82 Q58.3069 1026.63 56.6518 1023.51 L62.1899 1023.51 Q63.5267 1026.67 64.227 1029.98 Q64.9272 1033.29 64.9272 1036.69 Q64.9272 1045.22 59.9619 1050.22 Q54.9967 1055.18 46.5303 1055.18 Q37.7774 1055.18 32.6531 1050.47 Q27.4968 1045.73 27.4968 1037.71 Q27.4968 1030.52 32.1438 1026.35 Q36.7589 1022.15 44.7161 1022.15 M42.9973 1028 Q38.1912 1028.07 35.3266 1030.71 Q32.4621 1033.32 32.4621 1037.65 Q32.4621 1042.55 35.2312 1045.51 Q38.0002 1048.44 43.0292 1048.88 L42.9973 1028 Z" fill="#000000" fill-rule="nonzero" fill-opacity="1" /><path clip-path="url(#clip720)" d="M18.2347 1006.74 L28.3562 1006.74 L28.3562 994.678 L32.9077 994.678 L32.9077 1006.74 L52.2594 1006.74 Q56.6199 1006.74 57.8613 1005.56 Q59.1026 1004.35 59.1026 1000.69 L59.1026 994.678 L64.0042 994.678 L64.0042 1000.69 Q64.0042 1007.47 61.4897 1010.05 Q58.9434 1012.63 52.2594 1012.63 L32.9077 1012.63 L32.9077 1016.93 L28.3562 1016.93 L28.3562 1012.63 L18.2347 1012.63 L18.2347 1006.74 Z" fill="#000000" fill-rule="nonzero" fill-opacity="1" /><path clip-path="url(#clip720)" d="M28.3562 986.976 L28.3562 981.119 L64.0042 981.119 L64.0042 986.976 L28.3562 986.976 M14.479 986.976 L14.479 981.119 L21.895 981.119 L21.895 986.976 L14.479 986.976 Z" fill="#000000" fill-rule="nonzero" fill-opacity="1" /><path clip-path="url(#clip720)" d="M32.4621 955.052 Q32.4621 959.762 36.1542 962.5 Q39.8145 965.237 46.212 965.237 Q52.6095 965.237 56.3017 962.531 Q59.9619 959.794 59.9619 955.052 Q59.9619 950.373 56.2698 947.636 Q52.5777 944.898 46.212 944.898 Q39.8781 944.898 36.186 947.636 Q32.4621 950.373 32.4621 955.052 M27.4968 955.052 Q27.4968 947.413 32.4621 943.052 Q37.4273 938.692 46.212 938.692 Q54.9649 938.692 59.9619 943.052 Q64.9272 947.413 64.9272 955.052 Q64.9272 962.722 59.9619 967.083 Q54.9649 971.412 46.212 971.412 Q37.4273 971.412 32.4621 967.083 Q27.4968 962.722 27.4968 955.052 Z" fill="#000000" fill-rule="nonzero" fill-opacity="1" /><path clip-path="url(#clip720)" d="M42.4881 899.352 L64.0042 899.352 L64.0042 905.208 L42.679 905.208 Q37.6183 905.208 35.1038 907.182 Q32.5894 909.155 32.5894 913.102 Q32.5894 917.844 35.6131 920.581 Q38.6368 923.319 43.8567 923.319 L64.0042 923.319 L64.0042 929.207 L28.3562 929.207 L28.3562 923.319 L33.8944 923.319 Q30.6797 921.218 29.0883 918.385 Q27.4968 915.521 27.4968 911.797 Q27.4968 905.654 31.3163 902.503 Q35.1038 899.352 42.4881 899.352 Z" fill="#000000" fill-rule="nonzero" fill-opacity="1" /><path clip-path="url(#clip720)" d="M33.8307 846.294 Q33.2578 847.28 33.0032 848.458 Q32.7167 849.604 32.7167 851.004 Q32.7167 855.969 35.9632 858.643 Q39.1779 861.285 45.2253 861.285 L64.0042 861.285 L64.0042 867.173 L28.3562 867.173 L28.3562 861.285 L33.8944 861.285 Q30.6479 859.439 29.0883 856.479 Q27.4968 853.519 27.4968 849.285 Q27.4968 848.681 27.5923 847.949 Q27.656 847.217 27.8151 846.325 L33.8307 846.294 Z" fill="#000000" fill-rule="nonzero" fill-opacity="1" /><path clip-path="url(#clip720)" d="M46.0847 823.95 Q46.0847 831.048 47.7079 833.785 Q49.3312 836.522 53.2461 836.522 Q56.3653 836.522 58.2114 834.485 Q60.0256 832.416 60.0256 828.883 Q60.0256 824.014 56.5881 821.085 Q53.1188 818.125 47.3897 818.125 L46.0847 818.125 L46.0847 823.95 M43.6657 812.269 L64.0042 812.269 L64.0042 818.125 L58.5933 818.125 Q61.8398 820.13 63.3994 823.122 Q64.9272 826.114 64.9272 830.443 Q64.9272 835.917 61.8716 839.164 Q58.7843 842.379 53.6281 842.379 Q47.6125 842.379 44.5569 838.368 Q41.5014 834.326 41.5014 826.337 L41.5014 818.125 L40.9285 818.125 Q36.8862 818.125 34.6901 820.799 Q32.4621 823.441 32.4621 828.247 Q32.4621 831.302 33.1941 834.199 Q33.9262 837.095 35.3903 839.769 L29.9795 839.769 Q28.7381 836.554 28.1334 833.53 Q27.4968 830.507 27.4968 827.642 Q27.4968 819.908 31.5072 816.088 Q35.5176 812.269 43.6657 812.269 Z" fill="#000000" fill-rule="nonzero" fill-opacity="1" /><path clip-path="url(#clip720)" d="M28.3562 800.206 L28.3562 794.349 L64.0042 794.349 L64.0042 800.206 L28.3562 800.206 M14.479 800.206 L14.479 794.349 L21.895 794.349 L21.895 800.206 L14.479 800.206 Z" fill="#000000" fill-rule="nonzero" fill-opacity="1" /><path clip-path="url(#clip720)" d="M42.4881 752.463 L64.0042 752.463 L64.0042 758.319 L42.679 758.319 Q37.6183 758.319 35.1038 760.293 Q32.5894 762.266 32.5894 766.213 Q32.5894 770.955 35.6131 773.693 Q38.6368 776.43 43.8567 776.43 L64.0042 776.43 L64.0042 782.318 L28.3562 782.318 L28.3562 776.43 L33.8944 776.43 Q30.6797 774.329 29.0883 771.496 Q27.4968 768.632 27.4968 764.908 Q27.4968 758.765 31.3163 755.614 Q35.1038 752.463 42.4881 752.463 Z" fill="#000000" fill-rule="nonzero" fill-opacity="1" /><path clip-path="url(#clip720)" d="M29.4065 697.336 L34.9447 697.336 Q33.6716 699.819 33.035 702.492 Q32.3984 705.166 32.3984 708.03 Q32.3984 712.391 33.7352 714.587 Q35.072 716.751 37.7456 716.751 Q39.7826 716.751 40.9603 715.192 Q42.1061 713.632 43.1565 708.922 L43.6021 706.916 Q44.9389 700.678 47.3897 698.068 Q49.8086 695.426 54.1691 695.426 Q59.1344 695.426 62.0308 699.373 Q64.9272 703.288 64.9272 710.163 Q64.9272 713.027 64.3543 716.147 Q63.8132 719.234 62.6992 722.672 L56.6518 722.672 Q58.3387 719.425 59.198 716.274 Q60.0256 713.123 60.0256 710.036 Q60.0256 705.898 58.6251 703.67 Q57.1929 701.442 54.6147 701.442 Q52.2276 701.442 50.9545 703.065 Q49.6813 704.657 48.5037 710.099 L48.0262 712.136 Q46.8804 717.579 44.5251 719.998 Q42.138 722.417 38.0002 722.417 Q32.9713 722.417 30.2341 718.852 Q27.4968 715.287 27.4968 708.731 Q27.4968 705.484 27.9743 702.62 Q28.4517 699.755 29.4065 697.336 Z" fill="#000000" fill-rule="nonzero" fill-opacity="1" /><path clip-path="url(#clip720)" d="M28.3562 686.101 L28.3562 680.244 L64.0042 680.244 L64.0042 686.101 L28.3562 686.101 M14.479 686.101 L14.479 680.244 L21.895 680.244 L21.895 686.101 L14.479 686.101 Z" fill="#000000" fill-rule="nonzero" fill-opacity="1" /><path clip-path="url(#clip720)" d="M42.4881 638.358 L64.0042 638.358 L64.0042 644.214 L42.679 644.214 Q37.6183 644.214 35.1038 646.188 Q32.5894 648.161 32.5894 652.108 Q32.5894 656.85 35.6131 659.587 Q38.6368 662.325 43.8567 662.325 L64.0042 662.325 L64.0042 668.213 L28.3562 668.213 L28.3562 662.325 L33.8944 662.325 Q30.6797 660.224 29.0883 657.391 Q27.4968 654.527 27.4968 650.803 Q27.4968 644.66 31.3163 641.509 Q35.1038 638.358 42.4881 638.358 Z" fill="#000000" fill-rule="nonzero" fill-opacity="1" /><path clip-path="url(#clip720)" d="M14.479 626.899 L14.479 621.011 L43.7294 621.011 L28.3562 603.537 L28.3562 596.058 L45.0344 614.964 L64.0042 595.262 L64.0042 602.901 L46.5939 621.011 L64.0042 621.011 L64.0042 626.899 L14.479 626.899 Z" fill="#000000" fill-rule="nonzero" fill-opacity="1" /><path clip-path="url(#clip720)" d="M33.8307 547.551 Q33.2578 548.538 33.0032 549.715 Q32.7167 550.861 32.7167 552.262 Q32.7167 557.227 35.9632 559.9 Q39.1779 562.542 45.2253 562.542 L64.0042 562.542 L64.0042 568.43 L28.3562 568.43 L28.3562 562.542 L33.8944 562.542 Q30.6479 560.696 29.0883 557.736 Q27.4968 554.776 27.4968 550.543 Q27.4968 549.938 27.5923 549.206 Q27.656 548.474 27.8151 547.583 L33.8307 547.551 Z" fill="#000000" fill-rule="nonzero" fill-opacity="1" /><path clip-path="url(#clip720)" d="M46.0847 525.207 Q46.0847 532.305 47.7079 535.042 Q49.3312 537.78 53.2461 537.78 Q56.3653 537.78 58.2114 535.743 Q60.0256 533.674 60.0256 530.141 Q60.0256 525.271 56.5881 522.343 Q53.1188 519.383 47.3897 519.383 L46.0847 519.383 L46.0847 525.207 M43.6657 513.526 L64.0042 513.526 L64.0042 519.383 L58.5933 519.383 Q61.8398 521.388 63.3994 524.38 Q64.9272 527.372 64.9272 531.7 Q64.9272 537.175 61.8716 540.421 Q58.7843 543.636 53.6281 543.636 Q47.6125 543.636 44.5569 539.626 Q41.5014 535.583 41.5014 527.594 L41.5014 519.383 L40.9285 519.383 Q36.8862 519.383 34.6901 522.056 Q32.4621 524.698 32.4621 529.504 Q32.4621 532.56 33.1941 535.456 Q33.9262 538.352 35.3903 541.026 L29.9795 541.026 Q28.7381 537.811 28.1334 534.788 Q27.4968 531.764 27.4968 528.899 Q27.4968 521.165 31.5072 517.346 Q35.5176 513.526 43.6657 513.526 Z" fill="#000000" fill-rule="nonzero" fill-opacity="1" /><path clip-path="url(#clip720)" d="M18.2347 495.67 L28.3562 495.67 L28.3562 483.607 L32.9077 483.607 L32.9077 495.67 L52.2594 495.67 Q56.6199 495.67 57.8613 494.493 Q59.1026 493.283 59.1026 489.623 L59.1026 483.607 L64.0042 483.607 L64.0042 489.623 Q64.0042 496.402 61.4897 498.981 Q58.9434 501.559 52.2594 501.559 L32.9077 501.559 L32.9077 505.856 L28.3562 505.856 L28.3562 501.559 L18.2347 501.559 L18.2347 495.67 Z" fill="#000000" fill-rule="nonzero" fill-opacity="1" /><path clip-path="url(#clip720)" d="M44.7161 445.413 L47.5806 445.413 L47.5806 472.34 Q53.6281 471.958 56.8109 468.712 Q59.9619 465.433 59.9619 459.609 Q59.9619 456.235 59.1344 453.084 Q58.3069 449.901 56.6518 446.782 L62.1899 446.782 Q63.5267 449.933 64.227 453.243 Q64.9272 456.553 64.9272 459.959 Q64.9272 468.489 59.9619 473.486 Q54.9967 478.451 46.5303 478.451 Q37.7774 478.451 32.6531 473.741 Q27.4968 468.998 27.4968 460.977 Q27.4968 453.784 32.1438 449.615 Q36.7589 445.413 44.7161 445.413 M42.9973 451.27 Q38.1912 451.333 35.3266 453.975 Q32.4621 456.585 32.4621 460.914 Q32.4621 465.815 35.2312 468.775 Q38.0002 471.704 43.0292 472.149 L42.9973 451.27 Z" fill="#000000" fill-rule="nonzero" fill-opacity="1" /><path clip-path="url(#clip720)" d="M14.479 415.622 L14.479 402.126 L19.0304 402.126 L19.0304 409.765 L68.0464 409.765 L68.0464 402.126 L72.5979 402.126 L72.5979 415.622 L14.479 415.622 Z" fill="#000000" fill-rule="nonzero" fill-opacity="1" /><path clip-path="url(#clip720)" d="M58.5933 387.708 L58.5933 377.205 L22.3406 377.205 L24.6323 388.631 L18.7758 388.631 L16.4842 377.268 L16.4842 370.839 L58.5933 370.839 L58.5933 360.336 L64.0042 360.336 L64.0042 387.708 L58.5933 387.708 Z" fill="#000000" fill-rule="nonzero" fill-opacity="1" /><path clip-path="url(#clip720)" d="M16.4842 337.769 L16.4842 332.358 L70.0516 348.909 L70.0516 354.32 L16.4842 337.769 Z" fill="#000000" fill-rule="nonzero" fill-opacity="1" /><path clip-path="url(#clip720)" d="M29.4065 303.49 L34.9447 303.49 Q33.6716 305.972 33.035 308.646 Q32.3984 311.32 32.3984 314.184 Q32.3984 318.545 33.7352 320.741 Q35.072 322.905 37.7456 322.905 Q39.7826 322.905 40.9603 321.346 Q42.1061 319.786 43.1565 315.075 L43.6021 313.07 Q44.9389 306.832 47.3897 304.222 Q49.8086 301.58 54.1691 301.58 Q59.1344 301.58 62.0308 305.527 Q64.9272 309.442 64.9272 316.317 Q64.9272 319.181 64.3543 322.3 Q63.8132 325.388 62.6992 328.825 L56.6518 328.825 Q58.3387 325.579 59.198 322.428 Q60.0256 319.277 60.0256 316.189 Q60.0256 312.052 58.6251 309.824 Q57.1929 307.596 54.6147 307.596 Q52.2276 307.596 50.9545 309.219 Q49.6813 310.81 48.5037 316.253 L48.0262 318.29 Q46.8804 323.733 44.5251 326.152 Q42.138 328.571 38.0002 328.571 Q32.9713 328.571 30.2341 325.006 Q27.4968 321.441 27.4968 314.884 Q27.4968 311.638 27.9743 308.773 Q28.4517 305.909 29.4065 303.49 Z" fill="#000000" fill-rule="nonzero" fill-opacity="1" /><path clip-path="url(#clip720)" d="M14.479 278.568 L72.5979 278.568 L72.5979 292.063 L68.0464 292.063 L68.0464 284.456 L19.0304 284.456 L19.0304 292.063 L14.479 292.063 L14.479 278.568 Z" fill="#000000" fill-rule="nonzero" fill-opacity="1" /><polyline clip-path="url(#clip722)" style="stroke:#009af9; stroke-linecap:round; stroke-linejoin:round; stroke-width:12; stroke-opacity:1; fill:none" points="396.992,1384.24 416.171,1384 435.351,1383.51 454.531,1382.84 473.711,1382.01 492.891,1381.03 512.07,1379.92 531.25,1378.7 550.43,1377.35 569.61,1375.9 588.79,1374.34 607.969,1372.69 627.149,1370.93 646.329,1369.08 665.509,1367.14 684.689,1365.12 703.868,1363 723.048,1360.8 742.228,1358.52 761.408,1356.16 780.588,1353.72 799.767,1351.2 818.947,1348.61 838.127,1345.94 857.307,1343.2 876.487,1340.38 895.666,1337.49 914.846,1334.54 934.026,1331.51 953.206,1328.42 972.386,1325.26 991.565,1322.03 1010.75,1318.74 1029.93,1315.38 1049.1,1311.95 1068.28,1308.47 1087.46,1304.92 1106.64,1301.31 1125.82,1297.63 1145,1293.9 1164.18,1290.11 1183.36,1286.25 1202.54,1282.34 1221.72,1278.37 1240.9,1274.34 1260.08,1270.25 1279.26,1266.11 1298.44,1261.9 1317.62,1257.65 1336.8,1253.33 1355.98,1248.96 1375.16,1244.54 1394.34,1240.06 1413.52,1235.53 1432.7,1230.94 1451.88,1226.3 1471.06,1221.61 1490.24,1216.87 1509.42,1212.07 1528.6,1207.22 1547.78,1202.32 1566.96,1197.37 1586.14,1192.36 1605.32,1187.31 1624.5,1182.2 1643.68,1177.05 1662.86,1171.84 1682.04,1166.59 1701.22,1161.29 1720.4,1155.93 1739.58,1150.53 1758.76,1145.08 1777.94,1139.59 1797.12,1134.04 1816.3,1128.45 1835.48,1122.81 1854.66,1117.12 1873.84,1111.38 1893.02,1105.6 1912.2,1099.77 1931.38,1093.9 1950.56,1087.98 1969.74,1082.01 1988.92,1076 2008.09,1069.94 2027.27,1063.84 2046.45,1057.69 2065.63,1051.5 2084.81,1045.26 2103.99,1038.98 2123.17,1032.65 2142.35,1026.28 2161.53,1019.87 2180.71,1013.41 2199.89,1006.91 2219.07,1000.37 2238.25,993.779 2257.43,987.148 2276.61,980.474 2295.79,973.758 "/>
<polyline clip-path="url(#clip722)" style="stroke:#e26f46; stroke-linecap:round; stroke-linejoin:round; stroke-width:12; stroke-opacity:1; fill:none" points="396.992,1384.24 416.171,1383.82 435.351,1382.95 454.531,1381.75 473.711,1380.27 492.891,1378.53 512.07,1376.57 531.25,1374.38 550.43,1371.99 569.61,1369.41 588.79,1366.64 607.969,1363.7 627.149,1360.58 646.329,1357.29 665.509,1353.84 684.689,1350.23 703.868,1346.47 723.048,1342.56 742.228,1338.51 761.408,1334.31 780.588,1329.97 799.767,1325.49 818.947,1320.88 838.127,1316.13 857.307,1311.25 876.487,1306.25 895.666,1301.12 914.846,1295.86 934.026,1290.48 953.206,1284.98 972.386,1279.35 991.565,1273.61 1010.75,1267.76 1029.93,1261.78 1049.1,1255.7 1068.28,1249.5 1087.46,1243.19 1106.64,1236.76 1125.82,1230.23 1145,1223.59 1164.18,1216.85 1183.36,1209.99 1202.54,1203.03 1221.72,1195.97 1240.9,1188.81 1260.08,1181.54 1279.26,1174.17 1298.44,1166.69 1317.62,1159.12 1336.8,1151.45 1355.98,1143.68 1375.16,1135.82 1394.34,1127.85 1413.52,1119.79 1432.7,1111.64 1451.88,1103.39 1471.06,1095.04 1490.24,1086.6 1509.42,1078.07 1528.6,1069.45 1547.78,1060.73 1566.96,1051.93 1586.14,1043.03 1605.32,1034.04 1624.5,1024.96 1643.68,1015.8 1662.86,1006.54 1682.04,997.197 1701.22,987.766 1720.4,978.248 1739.58,968.644 1758.76,958.953 1777.94,949.176 1797.12,939.315 1816.3,929.368 1835.48,919.338 1854.66,909.223 1873.84,899.025 1893.02,888.743 1912.2,878.379 1931.38,867.933 1950.56,857.405 1969.74,846.795 1988.92,836.104 2008.09,825.332 2027.27,814.479 2046.45,803.547 2065.63,792.535 2084.81,781.443 2103.99,770.273 2123.17,759.023 2142.35,747.696 2161.53,736.29 2180.71,724.806 2199.89,713.245 2219.07,701.607 2238.25,689.892 2257.43,678.101 2276.61,666.233 2295.79,654.29 "/>
<polyline clip-path="url(#clip722)" style="stroke:#3da44d; stroke-linecap:round; stroke-linejoin:round; stroke-width:12; stroke-opacity:1; fill:none" points="396.992,1384.24 416.171,1383.5 435.351,1381.95 454.531,1379.81 473.711,1377.18 492.891,1374.09 512.07,1370.6 531.25,1366.71 550.43,1362.47 569.61,1357.87 588.79,1352.95 607.969,1347.71 627.149,1342.16 646.329,1336.31 665.509,1330.18 684.689,1323.77 703.868,1317.08 723.048,1310.13 742.228,1302.92 761.408,1295.45 780.588,1287.73 799.767,1279.77 818.947,1271.56 838.127,1263.12 857.307,1254.45 876.487,1245.55 895.666,1236.42 914.846,1227.07 934.026,1217.51 953.206,1207.72 972.386,1197.72 991.565,1187.52 1010.75,1177.1 1029.93,1166.48 1049.1,1155.66 1068.28,1144.63 1087.46,1133.41 1106.64,1121.99 1125.82,1110.37 1145,1098.57 1164.18,1086.57 1183.36,1074.38 1202.54,1062.01 1221.72,1049.45 1240.9,1036.7 1260.08,1023.78 1279.26,1010.67 1298.44,997.386 1317.62,983.922 1336.8,970.281 1355.98,956.466 1375.16,942.477 1394.34,928.315 1413.52,913.982 1432.7,899.479 1451.88,884.807 1471.06,869.968 1490.24,854.962 1509.42,839.79 1528.6,824.454 1547.78,808.955 1566.96,793.293 1586.14,777.471 1605.32,761.487 1624.5,745.345 1643.68,729.044 1662.86,712.586 1682.04,695.971 1701.22,679.2 1720.4,662.274 1739.58,645.195 1758.76,627.962 1777.94,610.577 1797.12,593.04 1816.3,575.353 1835.48,557.515 1854.66,539.528 1873.84,521.393 1893.02,503.11 1912.2,484.68 1931.38,466.103 1950.56,447.381 1969.74,428.513 1988.92,409.502 2008.09,390.346 2027.27,371.048 2046.45,351.607 2065.63,332.024 2084.81,312.3 2103.99,292.436 2123.17,272.431 2142.35,252.288 2161.53,232.005 2180.71,211.584 2199.89,191.025 2219.07,170.33 2238.25,149.497 2257.43,128.529 2276.61,107.425 2295.79,86.1857 "/>
<path clip-path="url(#clip720)" d="M407.119 300.469 L871.631 300.469 L871.631 93.1086 L407.119 93.1086  Z" fill="#ffffff" fill-rule="evenodd" fill-opacity="1"/>
<polyline clip-path="url(#clip720)" style="stroke:#000000; stroke-linecap:round; stroke-linejoin:round; stroke-width:4; stroke-opacity:1; fill:none" points="407.119,300.469 871.631,300.469 871.631,93.1086 407.119,93.1086 407.119,300.469 "/>
<polyline clip-path="url(#clip720)" style="stroke:#009af9; stroke-linecap:round; stroke-linejoin:round; stroke-width:12; stroke-opacity:1; fill:none" points="429.482,144.949 563.664,144.949 "/>
<path clip-path="url(#clip720)" d="M590.426 149.289 Q590.426 153.988 592.347 156.673 Q594.292 159.335 597.671 159.335 Q601.051 159.335 602.995 156.673 Q604.94 153.988 604.94 149.289 Q604.94 144.59 602.995 141.928 Q601.051 139.243 597.671 139.243 Q594.292 139.243 592.347 141.928 Q590.426 144.59 590.426 149.289 M604.94 158.34 Q603.597 160.655 601.537 161.789 Q599.5 162.9 596.63 162.9 Q591.931 162.9 588.968 159.15 Q586.028 155.4 586.028 149.289 Q586.028 143.178 588.968 139.428 Q591.931 135.678 596.63 135.678 Q599.5 135.678 601.537 136.812 Q603.597 137.923 604.94 140.238 L604.94 136.303 L609.199 136.303 L609.199 172.09 L604.94 172.09 L604.94 158.34 Z" fill="#000000" fill-rule="nonzero" fill-opacity="1" /><path clip-path="url(#clip720)" d="M637.671 170.099 L637.671 173.409 L613.042 173.409 L613.042 170.099 L637.671 170.099 Z" fill="#000000" fill-rule="nonzero" fill-opacity="1" /><path clip-path="url(#clip720)" d="M641.676 136.303 L645.935 136.303 L645.935 162.229 L641.676 162.229 L641.676 136.303 M641.676 126.21 L645.935 126.21 L645.935 131.604 L641.676 131.604 L641.676 126.21 Z" fill="#000000" fill-rule="nonzero" fill-opacity="1" /><path clip-path="url(#clip720)" d="M673.504 137.298 L673.504 141.28 Q671.699 140.284 669.87 139.798 Q668.064 139.289 666.213 139.289 Q662.069 139.289 659.777 141.928 Q657.486 144.544 657.486 149.289 Q657.486 154.034 659.777 156.673 Q662.069 159.289 666.213 159.289 Q668.064 159.289 669.87 158.803 Q671.699 158.293 673.504 157.298 L673.504 161.233 Q671.722 162.067 669.8 162.483 Q667.902 162.9 665.75 162.9 Q659.893 162.9 656.444 159.219 Q652.995 155.539 652.995 149.289 Q652.995 142.946 656.467 139.312 Q659.963 135.678 666.027 135.678 Q667.995 135.678 669.87 136.095 Q671.745 136.488 673.504 137.298 Z" fill="#000000" fill-rule="nonzero" fill-opacity="1" /><path clip-path="url(#clip720)" d="M703.087 148.201 L703.087 150.284 L683.504 150.284 Q683.782 154.682 686.143 156.997 Q688.527 159.289 692.763 159.289 Q695.217 159.289 697.509 158.687 Q699.823 158.085 702.092 156.881 L702.092 160.909 Q699.8 161.881 697.393 162.391 Q694.986 162.9 692.509 162.9 Q686.305 162.9 682.671 159.289 Q679.06 155.678 679.06 149.52 Q679.06 143.155 682.486 139.428 Q685.935 135.678 691.768 135.678 Q696.999 135.678 700.032 139.057 Q703.087 142.414 703.087 148.201 M698.828 146.951 Q698.782 143.456 696.861 141.372 Q694.962 139.289 691.814 139.289 Q688.249 139.289 686.097 141.303 Q683.967 143.317 683.643 146.974 L698.828 146.951 Z" fill="#000000" fill-rule="nonzero" fill-opacity="1" /><path clip-path="url(#clip720)" d="M710.634 140.701 L740.309 140.701 L740.309 144.59 L710.634 144.59 L710.634 140.701 M710.634 150.145 L740.309 150.145 L740.309 154.081 L710.634 154.081 L710.634 150.145 Z" fill="#000000" fill-rule="nonzero" fill-opacity="1" /><path clip-path="url(#clip720)" d="M751.212 158.293 L758.851 158.293 L758.851 131.928 L750.541 133.595 L750.541 129.335 L758.805 127.669 L763.481 127.669 L763.481 158.293 L771.119 158.293 L771.119 162.229 L751.212 162.229 L751.212 158.293 Z" fill="#000000" fill-rule="nonzero" fill-opacity="1" /><path clip-path="url(#clip720)" d="M802.138 148.201 L802.138 150.284 L782.555 150.284 Q782.832 154.682 785.193 156.997 Q787.578 159.289 791.814 159.289 Q794.267 159.289 796.559 158.687 Q798.874 158.085 801.142 156.881 L801.142 160.909 Q798.851 161.881 796.443 162.391 Q794.036 162.9 791.559 162.9 Q785.355 162.9 781.721 159.289 Q778.11 155.678 778.11 149.52 Q778.11 143.155 781.536 139.428 Q784.985 135.678 790.818 135.678 Q796.05 135.678 799.082 139.057 Q802.138 142.414 802.138 148.201 M797.878 146.951 Q797.832 143.456 795.911 141.372 Q794.013 139.289 790.865 139.289 Q787.3 139.289 785.147 141.303 Q783.017 143.317 782.693 146.974 L797.878 146.951 Z" fill="#000000" fill-rule="nonzero" fill-opacity="1" /><path clip-path="url(#clip720)" d="M806.976 147.344 L819.452 147.344 L819.452 151.141 L806.976 151.141 L806.976 147.344 Z" fill="#000000" fill-rule="nonzero" fill-opacity="1" /><path clip-path="url(#clip720)" d="M837.415 143.085 Q834.267 143.085 832.415 145.238 Q830.587 147.391 830.587 151.141 Q830.587 154.868 832.415 157.043 Q834.267 159.196 837.415 159.196 Q840.563 159.196 842.392 157.043 Q844.244 154.868 844.244 151.141 Q844.244 147.391 842.392 145.238 Q840.563 143.085 837.415 143.085 M846.698 128.433 L846.698 132.692 Q844.938 131.858 843.133 131.419 Q841.35 130.979 839.591 130.979 Q834.962 130.979 832.508 134.104 Q830.077 137.229 829.73 143.548 Q831.096 141.534 833.156 140.469 Q835.216 139.382 837.693 139.382 Q842.901 139.382 845.911 142.553 Q848.943 145.701 848.943 151.141 Q848.943 156.465 845.795 159.682 Q842.647 162.9 837.415 162.9 Q831.42 162.9 828.249 158.317 Q825.077 153.71 825.077 144.983 Q825.077 136.789 828.966 131.928 Q832.855 127.044 839.406 127.044 Q841.165 127.044 842.948 127.391 Q844.753 127.738 846.698 128.433 Z" fill="#000000" fill-rule="nonzero" fill-opacity="1" /><polyline clip-path="url(#clip720)" style="stroke:#e26f46; stroke-linecap:round; stroke-linejoin:round; stroke-width:12; stroke-opacity:1; fill:none" points="429.482,196.789 563.664,196.789 "/>
<path clip-path="url(#clip720)" d="M590.426 201.129 Q590.426 205.828 592.347 208.513 Q594.292 211.175 597.671 211.175 Q601.051 211.175 602.995 208.513 Q604.94 205.828 604.94 201.129 Q604.94 196.43 602.995 193.768 Q601.051 191.083 597.671 191.083 Q594.292 191.083 592.347 193.768 Q590.426 196.43 590.426 201.129 M604.94 210.18 Q603.597 212.495 601.537 213.629 Q599.5 214.74 596.63 214.74 Q591.931 214.74 588.968 210.99 Q586.028 207.24 586.028 201.129 Q586.028 195.018 588.968 191.268 Q591.931 187.518 596.63 187.518 Q599.5 187.518 601.537 188.652 Q603.597 189.763 604.94 192.078 L604.94 188.143 L609.199 188.143 L609.199 223.93 L604.94 223.93 L604.94 210.18 Z" fill="#000000" fill-rule="nonzero" fill-opacity="1" /><path clip-path="url(#clip720)" d="M637.671 221.939 L637.671 225.249 L613.042 225.249 L613.042 221.939 L637.671 221.939 Z" fill="#000000" fill-rule="nonzero" fill-opacity="1" /><path clip-path="url(#clip720)" d="M641.676 188.143 L645.935 188.143 L645.935 214.069 L641.676 214.069 L641.676 188.143 M641.676 178.05 L645.935 178.05 L645.935 183.444 L641.676 183.444 L641.676 178.05 Z" fill="#000000" fill-rule="nonzero" fill-opacity="1" /><path clip-path="url(#clip720)" d="M673.504 189.138 L673.504 193.12 Q671.699 192.124 669.87 191.638 Q668.064 191.129 666.213 191.129 Q662.069 191.129 659.777 193.768 Q657.486 196.384 657.486 201.129 Q657.486 205.874 659.777 208.513 Q662.069 211.129 666.213 211.129 Q668.064 211.129 669.87 210.643 Q671.699 210.133 673.504 209.138 L673.504 213.073 Q671.722 213.907 669.8 214.323 Q667.902 214.74 665.75 214.74 Q659.893 214.74 656.444 211.059 Q652.995 207.379 652.995 201.129 Q652.995 194.786 656.467 191.152 Q659.963 187.518 666.027 187.518 Q667.995 187.518 669.87 187.935 Q671.745 188.328 673.504 189.138 Z" fill="#000000" fill-rule="nonzero" fill-opacity="1" /><path clip-path="url(#clip720)" d="M703.087 200.041 L703.087 202.124 L683.504 202.124 Q683.782 206.522 686.143 208.837 Q688.527 211.129 692.763 211.129 Q695.217 211.129 697.509 210.527 Q699.823 209.925 702.092 208.721 L702.092 212.749 Q699.8 213.721 697.393 214.231 Q694.986 214.74 692.509 214.74 Q686.305 214.74 682.671 211.129 Q679.06 207.518 679.06 201.36 Q679.06 194.995 682.486 191.268 Q685.935 187.518 691.768 187.518 Q696.999 187.518 700.032 190.897 Q703.087 194.254 703.087 200.041 M698.828 198.791 Q698.782 195.296 696.861 193.212 Q694.962 191.129 691.814 191.129 Q688.249 191.129 686.097 193.143 Q683.967 195.157 683.643 198.814 L698.828 198.791 Z" fill="#000000" fill-rule="nonzero" fill-opacity="1" /><path clip-path="url(#clip720)" d="M710.634 192.541 L740.309 192.541 L740.309 196.43 L710.634 196.43 L710.634 192.541 M710.634 201.985 L740.309 201.985 L740.309 205.921 L710.634 205.921 L710.634 201.985 Z" fill="#000000" fill-rule="nonzero" fill-opacity="1" /><path clip-path="url(#clip720)" d="M751.212 210.133 L758.851 210.133 L758.851 183.768 L750.541 185.435 L750.541 181.175 L758.805 179.509 L763.481 179.509 L763.481 210.133 L771.119 210.133 L771.119 214.069 L751.212 214.069 L751.212 210.133 Z" fill="#000000" fill-rule="nonzero" fill-opacity="1" /><path clip-path="url(#clip720)" d="M802.138 200.041 L802.138 202.124 L782.555 202.124 Q782.832 206.522 785.193 208.837 Q787.578 211.129 791.814 211.129 Q794.267 211.129 796.559 210.527 Q798.874 209.925 801.142 208.721 L801.142 212.749 Q798.851 213.721 796.443 214.231 Q794.036 214.74 791.559 214.74 Q785.355 214.74 781.721 211.129 Q778.11 207.518 778.11 201.36 Q778.11 194.995 781.536 191.268 Q784.985 187.518 790.818 187.518 Q796.05 187.518 799.082 190.897 Q802.138 194.254 802.138 200.041 M797.878 198.791 Q797.832 195.296 795.911 193.212 Q794.013 191.129 790.865 191.129 Q787.3 191.129 785.147 193.143 Q783.017 195.157 782.693 198.814 L797.878 198.791 Z" fill="#000000" fill-rule="nonzero" fill-opacity="1" /><path clip-path="url(#clip720)" d="M806.976 199.184 L819.452 199.184 L819.452 202.981 L806.976 202.981 L806.976 199.184 Z" fill="#000000" fill-rule="nonzero" fill-opacity="1" /><path clip-path="url(#clip720)" d="M826.883 179.509 L845.239 179.509 L845.239 183.444 L831.165 183.444 L831.165 191.916 Q832.184 191.569 833.202 191.407 Q834.221 191.222 835.239 191.222 Q841.026 191.222 844.406 194.393 Q847.786 197.564 847.786 202.981 Q847.786 208.559 844.313 211.661 Q840.841 214.74 834.522 214.74 Q832.346 214.74 830.077 214.37 Q827.832 213.999 825.425 213.258 L825.425 208.559 Q827.508 209.694 829.73 210.249 Q831.952 210.805 834.429 210.805 Q838.434 210.805 840.772 208.698 Q843.11 206.592 843.11 202.981 Q843.11 199.37 840.772 197.263 Q838.434 195.157 834.429 195.157 Q832.554 195.157 830.679 195.573 Q828.827 195.99 826.883 196.87 L826.883 179.509 Z" fill="#000000" fill-rule="nonzero" fill-opacity="1" /><polyline clip-path="url(#clip720)" style="stroke:#3da44d; stroke-linecap:round; stroke-linejoin:round; stroke-width:12; stroke-opacity:1; fill:none" points="429.482,248.629 563.664,248.629 "/>
<path clip-path="url(#clip720)" d="M590.426 252.969 Q590.426 257.668 592.347 260.353 Q594.292 263.015 597.671 263.015 Q601.051 263.015 602.995 260.353 Q604.94 257.668 604.94 252.969 Q604.94 248.27 602.995 245.608 Q601.051 242.923 597.671 242.923 Q594.292 242.923 592.347 245.608 Q590.426 248.27 590.426 252.969 M604.94 262.02 Q603.597 264.335 601.537 265.469 Q599.5 266.58 596.63 266.58 Q591.931 266.58 588.968 262.83 Q586.028 259.08 586.028 252.969 Q586.028 246.858 588.968 243.108 Q591.931 239.358 596.63 239.358 Q599.5 239.358 601.537 240.492 Q603.597 241.603 604.94 243.918 L604.94 239.983 L609.199 239.983 L609.199 275.77 L604.94 275.77 L604.94 262.02 Z" fill="#000000" fill-rule="nonzero" fill-opacity="1" /><path clip-path="url(#clip720)" d="M637.671 273.779 L637.671 277.089 L613.042 277.089 L613.042 273.779 L637.671 273.779 Z" fill="#000000" fill-rule="nonzero" fill-opacity="1" /><path clip-path="url(#clip720)" d="M641.676 239.983 L645.935 239.983 L645.935 265.909 L641.676 265.909 L641.676 239.983 M641.676 229.89 L645.935 229.89 L645.935 235.284 L641.676 235.284 L641.676 229.89 Z" fill="#000000" fill-rule="nonzero" fill-opacity="1" /><path clip-path="url(#clip720)" d="M673.504 240.978 L673.504 244.96 Q671.699 243.964 669.87 243.478 Q668.064 242.969 666.213 242.969 Q662.069 242.969 659.777 245.608 Q657.486 248.224 657.486 252.969 Q657.486 257.714 659.777 260.353 Q662.069 262.969 666.213 262.969 Q668.064 262.969 669.87 262.483 Q671.699 261.973 673.504 260.978 L673.504 264.913 Q671.722 265.747 669.8 266.163 Q667.902 266.58 665.75 266.58 Q659.893 266.58 656.444 262.899 Q652.995 259.219 652.995 252.969 Q652.995 246.626 656.467 242.992 Q659.963 239.358 666.027 239.358 Q667.995 239.358 669.87 239.775 Q671.745 240.168 673.504 240.978 Z" fill="#000000" fill-rule="nonzero" fill-opacity="1" /><path clip-path="url(#clip720)" d="M703.087 251.881 L703.087 253.964 L683.504 253.964 Q683.782 258.362 686.143 260.677 Q688.527 262.969 692.763 262.969 Q695.217 262.969 697.509 262.367 Q699.823 261.765 702.092 260.561 L702.092 264.589 Q699.8 265.561 697.393 266.071 Q694.986 266.58 692.509 266.58 Q686.305 266.58 682.671 262.969 Q679.06 259.358 679.06 253.2 Q679.06 246.835 682.486 243.108 Q685.935 239.358 691.768 239.358 Q696.999 239.358 700.032 242.737 Q703.087 246.094 703.087 251.881 M698.828 250.631 Q698.782 247.136 696.861 245.052 Q694.962 242.969 691.814 242.969 Q688.249 242.969 686.097 244.983 Q683.967 246.997 683.643 250.654 L698.828 250.631 Z" fill="#000000" fill-rule="nonzero" fill-opacity="1" /><path clip-path="url(#clip720)" d="M710.634 244.381 L740.309 244.381 L740.309 248.27 L710.634 248.27 L710.634 244.381 M710.634 253.825 L740.309 253.825 L740.309 257.761 L710.634 257.761 L710.634 253.825 Z" fill="#000000" fill-rule="nonzero" fill-opacity="1" /><path clip-path="url(#clip720)" d="M751.212 261.973 L758.851 261.973 L758.851 235.608 L750.541 237.275 L750.541 233.015 L758.805 231.349 L763.481 231.349 L763.481 261.973 L771.119 261.973 L771.119 265.909 L751.212 265.909 L751.212 261.973 Z" fill="#000000" fill-rule="nonzero" fill-opacity="1" /><path clip-path="url(#clip720)" d="M802.138 251.881 L802.138 253.964 L782.555 253.964 Q782.832 258.362 785.193 260.677 Q787.578 262.969 791.814 262.969 Q794.267 262.969 796.559 262.367 Q798.874 261.765 801.142 260.561 L801.142 264.589 Q798.851 265.561 796.443 266.071 Q794.036 266.58 791.559 266.58 Q785.355 266.58 781.721 262.969 Q778.11 259.358 778.11 253.2 Q778.11 246.835 781.536 243.108 Q784.985 239.358 790.818 239.358 Q796.05 239.358 799.082 242.737 Q802.138 246.094 802.138 251.881 M797.878 250.631 Q797.832 247.136 795.911 245.052 Q794.013 242.969 790.865 242.969 Q787.3 242.969 785.147 244.983 Q783.017 246.997 782.693 250.654 L797.878 250.631 Z" fill="#000000" fill-rule="nonzero" fill-opacity="1" /><path clip-path="url(#clip720)" d="M806.976 251.024 L819.452 251.024 L819.452 254.821 L806.976 254.821 L806.976 251.024 Z" fill="#000000" fill-rule="nonzero" fill-opacity="1" /><path clip-path="url(#clip720)" d="M839.684 235.423 L827.878 253.872 L839.684 253.872 L839.684 235.423 M838.457 231.349 L844.337 231.349 L844.337 253.872 L849.267 253.872 L849.267 257.761 L844.337 257.761 L844.337 265.909 L839.684 265.909 L839.684 257.761 L824.082 257.761 L824.082 253.247 L838.457 231.349 Z" fill="#000000" fill-rule="nonzero" fill-opacity="1" /></svg>
